%TF.GenerationSoftware,KiCad,Pcbnew,9.0.3*%
%TF.CreationDate,2025-09-26T09:37:03+02:00*%
%TF.ProjectId,PCB_PAPI,5043425f-5041-4504-992e-6b696361645f,rev?*%
%TF.SameCoordinates,Original*%
%TF.FileFunction,Copper,L2,Inr*%
%TF.FilePolarity,Positive*%
%FSLAX46Y46*%
G04 Gerber Fmt 4.6, Leading zero omitted, Abs format (unit mm)*
G04 Created by KiCad (PCBNEW 9.0.3) date 2025-09-26 09:37:03*
%MOMM*%
%LPD*%
G01*
G04 APERTURE LIST*
%TA.AperFunction,ComponentPad*%
%ADD10C,0.800000*%
%TD*%
%TA.AperFunction,ComponentPad*%
%ADD11C,5.000000*%
%TD*%
%TA.AperFunction,ComponentPad*%
%ADD12C,2.550000*%
%TD*%
%TA.AperFunction,ComponentPad*%
%ADD13C,1.500000*%
%TD*%
%TA.AperFunction,ViaPad*%
%ADD14C,0.400000*%
%TD*%
G04 APERTURE END LIST*
D10*
%TO.N,GND*%
%TO.C,H3*%
X137625000Y-101186533D03*
X138174175Y-99860708D03*
X138174175Y-102512358D03*
X139500000Y-99311533D03*
D11*
X139500000Y-101186533D03*
D10*
X139500000Y-103061533D03*
X140825825Y-99860708D03*
X140825825Y-102512358D03*
X141375000Y-101186533D03*
%TD*%
%TO.N,GND*%
%TO.C,H3*%
X106125000Y-83000000D03*
X106674175Y-81674175D03*
X106674175Y-84325825D03*
X108000000Y-81125000D03*
D11*
X108000000Y-83000000D03*
D10*
X108000000Y-84875000D03*
X109325825Y-81674175D03*
X109325825Y-84325825D03*
X109875000Y-83000000D03*
%TD*%
%TO.N,GND*%
%TO.C,H3*%
X137625000Y-64813467D03*
X138174175Y-63487642D03*
X138174175Y-66139292D03*
X139500000Y-62938467D03*
D11*
X139500000Y-64813467D03*
D10*
X139500000Y-66688467D03*
X140825825Y-63487642D03*
X140825825Y-66139292D03*
X141375000Y-64813467D03*
%TD*%
D12*
%TO.N,/BAT+*%
%TO.C,J3*%
X119173647Y-86476918D03*
%TO.N,GND*%
X121673647Y-90807046D03*
D13*
X114513393Y-98405122D03*
X109013393Y-88878842D03*
%TD*%
D14*
%TO.N,/STM32/ADC_VBAT*%
X120600000Y-80700000D03*
X130103705Y-82097982D03*
%TO.N,GND*%
X111720000Y-79110000D03*
X126114000Y-61750808D03*
X133050000Y-91860000D03*
X117690000Y-103205000D03*
X133410000Y-67005000D03*
X130438000Y-104270000D03*
X143075000Y-101143648D03*
X139102000Y-104270000D03*
X133593705Y-77407982D03*
X109500000Y-91764593D03*
X149218000Y-75506756D03*
X123630000Y-92770000D03*
X128690000Y-91740000D03*
X142353000Y-102394189D03*
X133410000Y-63775000D03*
X141992000Y-103019459D03*
X123190000Y-63075000D03*
X137666000Y-61750808D03*
X145400000Y-75875000D03*
X110030000Y-85400000D03*
X118164000Y-104270000D03*
X139832000Y-61750808D03*
X151400000Y-81200000D03*
X133600000Y-91290000D03*
X106983000Y-78632299D03*
X140003705Y-82597982D03*
X144886000Y-68003512D03*
X124190000Y-100810000D03*
X123948000Y-61750808D03*
X150113813Y-87228304D03*
X147300000Y-83700000D03*
X140003705Y-79397982D03*
X120860000Y-78330000D03*
X145247000Y-68628782D03*
X140725000Y-89000000D03*
X125200000Y-102000000D03*
X117450000Y-61750808D03*
X122504000Y-61750808D03*
X129724000Y-61750808D03*
X124590000Y-67005000D03*
X130490000Y-81650000D03*
X132828705Y-63247982D03*
X150656000Y-88012971D03*
X110944000Y-94265674D03*
X128272000Y-104270000D03*
X146691000Y-71129863D03*
X116965000Y-103205000D03*
X141637000Y-62376079D03*
X144519000Y-98642567D03*
X152100000Y-81900000D03*
X151384000Y-79258378D03*
X120590000Y-96680000D03*
X120540000Y-69470000D03*
X130920000Y-77000000D03*
X121052000Y-104270000D03*
X124400000Y-102800000D03*
X147407000Y-93640404D03*
X111666000Y-95516215D03*
X134103705Y-87697982D03*
X118415000Y-96680000D03*
X137900000Y-92375000D03*
X130903705Y-86897982D03*
X143436000Y-100518378D03*
X136222000Y-61750808D03*
X152106000Y-80508918D03*
X140210000Y-70500000D03*
X123226000Y-61750808D03*
X123190000Y-67705000D03*
X117640000Y-62945000D03*
X152828000Y-81759459D03*
X145775000Y-79050000D03*
X152822000Y-84261349D03*
X140003705Y-81797982D03*
X131160000Y-104270000D03*
X123950000Y-75100000D03*
X145963000Y-96141485D03*
X133700000Y-80900000D03*
X141603705Y-80197982D03*
X140803705Y-80997982D03*
X124670000Y-61750808D03*
X121782000Y-61750808D03*
X121265000Y-62945000D03*
X134110000Y-63775000D03*
X130500000Y-70900000D03*
X139410000Y-69700000D03*
X111676000Y-70503785D03*
X150301000Y-77382567D03*
X117640000Y-69470000D03*
X111250000Y-84100000D03*
X133334000Y-61750808D03*
X128280000Y-61750808D03*
X129300000Y-97150000D03*
X148130737Y-76761826D03*
X116915000Y-62945000D03*
X127530000Y-90690000D03*
X148857000Y-74881485D03*
X124662000Y-104270000D03*
X128653705Y-75347982D03*
X149800000Y-82000000D03*
X124590000Y-63775000D03*
X148496000Y-74256215D03*
X148490000Y-91764593D03*
X143913705Y-86002982D03*
X128250000Y-97150000D03*
X145900000Y-83700000D03*
X104817000Y-82383921D03*
X146360000Y-88500000D03*
X143203705Y-80197982D03*
X121990000Y-66570000D03*
X114300000Y-70400000D03*
X149960000Y-89280000D03*
X135492000Y-104270000D03*
X133400000Y-102900000D03*
X139824000Y-104270000D03*
X152100000Y-84000000D03*
X140803705Y-79397982D03*
X113330000Y-91320000D03*
X138225000Y-82200000D03*
X136053705Y-94247982D03*
X135500000Y-61750808D03*
X121990000Y-68020000D03*
X148553705Y-78967982D03*
X119090000Y-69470000D03*
X149573000Y-89888782D03*
X121774000Y-104270000D03*
X132612000Y-61750808D03*
X123630000Y-91530000D03*
X112388000Y-96766756D03*
X133588705Y-78527982D03*
X140003705Y-80197982D03*
X121060000Y-61750808D03*
X129002000Y-61750808D03*
X121990000Y-63670000D03*
X115465000Y-67300000D03*
X123890000Y-63775000D03*
X142714000Y-101768918D03*
X134500000Y-81700000D03*
X131950000Y-73530000D03*
X133410000Y-67705000D03*
X142403705Y-79397982D03*
X126050000Y-75100000D03*
X136936000Y-104270000D03*
X138900000Y-90300000D03*
X150700000Y-84700000D03*
X134810000Y-63075000D03*
X111305000Y-94890945D03*
X143797000Y-99893107D03*
X112037000Y-69878515D03*
X143203705Y-79397982D03*
X142700000Y-84650000D03*
X133800000Y-79400000D03*
X136853705Y-93447982D03*
X134770000Y-104270000D03*
X131325000Y-81700000D03*
X129280000Y-92740000D03*
X135703705Y-89400000D03*
X146324000Y-95516215D03*
X136550000Y-97810000D03*
X113120000Y-68002704D03*
X152100000Y-85511890D03*
X119815000Y-69470000D03*
X121100000Y-81200000D03*
X152100000Y-82600000D03*
X123100000Y-73500000D03*
X136600000Y-90300000D03*
X105529000Y-84886619D03*
X144763705Y-85920000D03*
X134810000Y-67705000D03*
X137490000Y-80580000D03*
X150700000Y-81200000D03*
X133410000Y-63075000D03*
X128653705Y-74547982D03*
X123053705Y-80450000D03*
X110228769Y-90072037D03*
X113953769Y-96523927D03*
X146600000Y-83700000D03*
X115515000Y-97405000D03*
X143442000Y-65502430D03*
X115515000Y-98855000D03*
X121040000Y-103210000D03*
X122040000Y-98855000D03*
X109730083Y-76342228D03*
X136853705Y-94247982D03*
X134056000Y-61750808D03*
X126828000Y-104270000D03*
X115998000Y-103019459D03*
X143100000Y-89050000D03*
X152100000Y-84700000D03*
X133883705Y-89297982D03*
X107695000Y-88638241D03*
X117690000Y-96680000D03*
X115465000Y-64395000D03*
X150000000Y-81200000D03*
X110630000Y-86120000D03*
X141010000Y-70500000D03*
X118415000Y-103205000D03*
X124660000Y-91910000D03*
X112230000Y-91610000D03*
X145241000Y-97392026D03*
X124400000Y-102000000D03*
X128800000Y-88100000D03*
X118886000Y-104270000D03*
X145400000Y-95500000D03*
X148600000Y-83700000D03*
X112250000Y-76950000D03*
X117442000Y-104270000D03*
X123890000Y-67705000D03*
X136053705Y-93447982D03*
X105168000Y-84261349D03*
X123700000Y-83350000D03*
X144000000Y-94700000D03*
X116730000Y-61750000D03*
X144158000Y-99267837D03*
X131168000Y-61750808D03*
X122496000Y-104270000D03*
X144000000Y-83300000D03*
X112703702Y-77793589D03*
X119815000Y-62945000D03*
X147046000Y-94265674D03*
X123890000Y-67005000D03*
X138300000Y-79325000D03*
X145969000Y-69879323D03*
X148410000Y-88510000D03*
X120338000Y-61750808D03*
X147900000Y-91200000D03*
X148851000Y-91139323D03*
X113110000Y-98017296D03*
X121990000Y-65120000D03*
X123190000Y-66305000D03*
X153550000Y-83010000D03*
X110500000Y-76800000D03*
X127300000Y-69600000D03*
X131890000Y-61750808D03*
X134110000Y-63075000D03*
X124590000Y-66305000D03*
X109861000Y-92389863D03*
X145600000Y-82300000D03*
X143180737Y-68188174D03*
X124750000Y-90620000D03*
X108417000Y-89888782D03*
X123950000Y-75700000D03*
X142720000Y-64251890D03*
X127570000Y-91620000D03*
X122040000Y-98130000D03*
X144525000Y-67378241D03*
X135510000Y-98080000D03*
X124590000Y-67705000D03*
X108778000Y-90514052D03*
X115515000Y-96680000D03*
X107344000Y-78007029D03*
X143203705Y-81797982D03*
X116440000Y-69480000D03*
X151378000Y-86762430D03*
X132600000Y-102900000D03*
X144107965Y-89880739D03*
X127920000Y-87980000D03*
X144253641Y-69272037D03*
X133400000Y-102100000D03*
X144693705Y-95088895D03*
X134100000Y-76600000D03*
X121080000Y-81870000D03*
X146330000Y-70504593D03*
X130253705Y-75347982D03*
X114222373Y-68913175D03*
X124590000Y-63075000D03*
X134810000Y-67005000D03*
X144900000Y-82300000D03*
X122040000Y-101030000D03*
X123560000Y-95710000D03*
X122050000Y-102230000D03*
X143650000Y-93200000D03*
X123940000Y-104270000D03*
X120890000Y-77570000D03*
X126050000Y-75700000D03*
X150000000Y-84700000D03*
X108056000Y-89263512D03*
X127010000Y-83140000D03*
X127103705Y-75547982D03*
X134400000Y-90300000D03*
X123053705Y-81850000D03*
X129716000Y-104270000D03*
X147978641Y-75723927D03*
X106251000Y-86137160D03*
X126836000Y-61750808D03*
X113700000Y-77775000D03*
X137658000Y-104270000D03*
X134250000Y-94100000D03*
X136630000Y-96400000D03*
X149247216Y-83923608D03*
X131300000Y-70900000D03*
X140210000Y-69700000D03*
X122453705Y-82550000D03*
X146500000Y-90400000D03*
X133326000Y-104270000D03*
X123600000Y-102800000D03*
X121070000Y-79120000D03*
X137350000Y-82200000D03*
X148400000Y-81400000D03*
X143081000Y-64877160D03*
X140803705Y-82597982D03*
X145602000Y-96766756D03*
X132600000Y-102100000D03*
X151017000Y-87387701D03*
X149100000Y-82000000D03*
X151745000Y-79883648D03*
X132503705Y-85297982D03*
X138900000Y-83400000D03*
X140210000Y-71300000D03*
X137625000Y-70100000D03*
X132503705Y-84497982D03*
X141923705Y-86682982D03*
X123600000Y-102000000D03*
X115465000Y-65845000D03*
X116359000Y-103644729D03*
X147700000Y-82300000D03*
X134200000Y-102100000D03*
X143313813Y-99006250D03*
X134110000Y-67005000D03*
X123053705Y-82550000D03*
X135925000Y-69127276D03*
X119160000Y-103210000D03*
X139175000Y-89000000D03*
X123190000Y-67005000D03*
X149579000Y-76132026D03*
X147774000Y-73005674D03*
X121225000Y-89200000D03*
X112749000Y-97392026D03*
X139616205Y-73272982D03*
X115276000Y-101768918D03*
X141600000Y-91325000D03*
X109272373Y-77486826D03*
X118365000Y-69470000D03*
X109139000Y-91139323D03*
X125392000Y-61750808D03*
X147052000Y-71755134D03*
X104807000Y-83636079D03*
X138388000Y-61750808D03*
X138380000Y-104270000D03*
X146250000Y-85525000D03*
X127550000Y-104270000D03*
X108130000Y-79860000D03*
X134110000Y-66305000D03*
X143400000Y-69700000D03*
X123700000Y-82700000D03*
X151739000Y-86137160D03*
X148200000Y-86400000D03*
X151400000Y-84700000D03*
X119090000Y-62945000D03*
X108900000Y-75900000D03*
X129900000Y-69600000D03*
X105539000Y-81133381D03*
X134778000Y-61750808D03*
X143940000Y-78690000D03*
X144850000Y-79725000D03*
X141603705Y-80997982D03*
X125200000Y-102800000D03*
X122453705Y-80450000D03*
X111490000Y-81420000D03*
X132503705Y-83697982D03*
X152100000Y-83300000D03*
X118172000Y-61750808D03*
X127558000Y-61750808D03*
X144164000Y-66752971D03*
X134200000Y-95840000D03*
X153189000Y-82384729D03*
X139410000Y-71300000D03*
X134900000Y-92075000D03*
X142403705Y-80997982D03*
X133410000Y-66305000D03*
X141010000Y-69700000D03*
X146300000Y-82300000D03*
X106973000Y-87387701D03*
X141010000Y-71300000D03*
X114420000Y-67180000D03*
X107334000Y-88012971D03*
X141276000Y-61750808D03*
X123218000Y-104270000D03*
X141998000Y-63001349D03*
X146685000Y-94890945D03*
X134110000Y-67705000D03*
X125384000Y-104270000D03*
X134200000Y-102900000D03*
X114740000Y-71470000D03*
X128994000Y-104270000D03*
X142359000Y-63626619D03*
X116240000Y-96680000D03*
X115460000Y-68470000D03*
X104446000Y-83010808D03*
X121990000Y-68745000D03*
X112680000Y-72380000D03*
X138900000Y-93500000D03*
X148135000Y-73630945D03*
X116720000Y-104270000D03*
X150662000Y-78007837D03*
X141631000Y-103644729D03*
X144880000Y-98017296D03*
X132604000Y-104270000D03*
X147503705Y-78967982D03*
X143203705Y-82597982D03*
X149800000Y-83900000D03*
X105890000Y-85511890D03*
X122400000Y-73500000D03*
X106612000Y-86762430D03*
X139600000Y-85700000D03*
X148025000Y-78400000D03*
X126170000Y-91747982D03*
X139110000Y-61750808D03*
X145608000Y-69254052D03*
X147900000Y-83700000D03*
X140546000Y-104270000D03*
X112759000Y-68627974D03*
X147168705Y-90802069D03*
X148129000Y-92389863D03*
X152100000Y-81200000D03*
X147413000Y-72380404D03*
X130446000Y-61750808D03*
X125378705Y-63247982D03*
X147768000Y-93015134D03*
X151023000Y-78633107D03*
X138900000Y-84200000D03*
X136214000Y-104270000D03*
X115465000Y-65120000D03*
X121990000Y-67295000D03*
X138880000Y-95480000D03*
X121990000Y-65845000D03*
X119140000Y-96680000D03*
X153183000Y-83636079D03*
X135120000Y-95190000D03*
X110222000Y-93015134D03*
X123890000Y-66305000D03*
X149212000Y-90514052D03*
X111440000Y-77750000D03*
X122040000Y-100305000D03*
X134810000Y-66305000D03*
X122453705Y-81850000D03*
X105178000Y-81758651D03*
X140554000Y-61750808D03*
X134048000Y-104270000D03*
X141270000Y-104270000D03*
X113100000Y-78810000D03*
X119375000Y-88475000D03*
X121990000Y-69470000D03*
X121990000Y-62945000D03*
X140750000Y-90275000D03*
X115637000Y-102394189D03*
X121370000Y-87500000D03*
X106622000Y-79257570D03*
X127543705Y-87147982D03*
X130253705Y-74547982D03*
X149940000Y-76757296D03*
X146600000Y-78700000D03*
X147000000Y-82300000D03*
X105900000Y-80508110D03*
X121265000Y-69470000D03*
X147300000Y-76100000D03*
X119865000Y-96680000D03*
X123190000Y-63775000D03*
X143803000Y-66127701D03*
X122040000Y-99580000D03*
X137775000Y-82725000D03*
X131740000Y-90800000D03*
X123890000Y-63075000D03*
X135703705Y-87697982D03*
X118365000Y-62945000D03*
X134810000Y-63775000D03*
X142403705Y-82597982D03*
X130591205Y-78467982D03*
X141603705Y-81797982D03*
X126106000Y-104270000D03*
X139410000Y-70500000D03*
X136944000Y-61750808D03*
X140310000Y-93850000D03*
X111490000Y-82260000D03*
X113455083Y-69890338D03*
X115515000Y-101030000D03*
X106261000Y-79882840D03*
X111230000Y-84820000D03*
X115515000Y-100305000D03*
X131882000Y-104270000D03*
%TO.N,+3.3V*%
X130103705Y-86897982D03*
X140453705Y-86597982D03*
X133303705Y-83697982D03*
X124700000Y-88300000D03*
X130828905Y-102808905D03*
X141025000Y-85725000D03*
X134903705Y-87697982D03*
X125300000Y-88300000D03*
X128503705Y-76397982D03*
X142100000Y-75600000D03*
X134600000Y-98600000D03*
X145603705Y-79877982D03*
X129453705Y-76397982D03*
X115410000Y-69360000D03*
X134843705Y-89297982D03*
X148000000Y-79900000D03*
X112500000Y-75900000D03*
X144103705Y-80747982D03*
X143353705Y-83497982D03*
X136503705Y-87697982D03*
X136663705Y-89297982D03*
X144223705Y-83997982D03*
X128200000Y-86400000D03*
X143900000Y-86900000D03*
X112000000Y-75600000D03*
X143100000Y-86900000D03*
X133303705Y-84497982D03*
X134000000Y-98600000D03*
X128980000Y-76097984D03*
X138353705Y-80767982D03*
X128980000Y-76760000D03*
X131703705Y-86897982D03*
X141750000Y-76050000D03*
X141453705Y-84477982D03*
X142350000Y-76100000D03*
X133730000Y-84850000D03*
X133303705Y-85297982D03*
X149350000Y-79900000D03*
%TO.N,Net-(C7-Pad1)*%
X132503705Y-82897982D03*
%TO.N,Net-(C10-Pad1)*%
X133303705Y-82097982D03*
%TO.N,VBAT+*%
X116093705Y-82205982D03*
X118193705Y-81505982D03*
X117493705Y-82205982D03*
X116093705Y-81505982D03*
X116793705Y-81505982D03*
X118193705Y-80805982D03*
X117493705Y-81505982D03*
X117493705Y-80805982D03*
X118193705Y-82205982D03*
X116793705Y-80805982D03*
X116093705Y-80805982D03*
X116793705Y-82205982D03*
%TO.N,+5V*%
X121800000Y-76100000D03*
X114054955Y-89999184D03*
X121100000Y-76100000D03*
X121800000Y-75400000D03*
X115400000Y-89200000D03*
X121100000Y-75400000D03*
X122500000Y-76100000D03*
X122500000Y-75400000D03*
%TO.N,4.5V*%
X137950000Y-95800000D03*
X125400000Y-74200000D03*
X124700000Y-73500000D03*
X124000000Y-74200000D03*
X137950000Y-95250000D03*
X141500000Y-89700000D03*
X142100000Y-90000000D03*
X125400000Y-73500000D03*
X124000000Y-73500000D03*
X122075000Y-92940000D03*
X121590000Y-92580000D03*
X124700000Y-74200000D03*
X132500000Y-92300000D03*
%TO.N,/ESP32/CHIP_PU*%
X144800000Y-81300000D03*
%TO.N,Net-(S1-COM_1)*%
X131703705Y-84497982D03*
X127620000Y-90000787D03*
%TO.N,/NRST*%
X132503705Y-87697982D03*
X129400000Y-64800000D03*
X131850000Y-74150000D03*
%TO.N,/GPIO_MOT1*%
X145100000Y-73350000D03*
X136503705Y-82097982D03*
%TO.N,/TX_MOT1*%
X134903705Y-80497982D03*
X144500000Y-72450000D03*
%TO.N,/RX_MOT1*%
X134103705Y-80497982D03*
X144000000Y-71600000D03*
%TO.N,/RX_MOT2*%
X134903705Y-86897982D03*
X129800000Y-102100000D03*
%TO.N,/TX_MOT2*%
X134103705Y-86897982D03*
X128800000Y-102150000D03*
%TO.N,/GPIO_MOT2*%
X136503705Y-86897982D03*
X130850000Y-102150000D03*
%TO.N,/GPIO_MOT3*%
X113100000Y-73100000D03*
X131703705Y-80497982D03*
%TO.N,/TX_MOT3*%
X114050000Y-71550000D03*
X133303705Y-80497982D03*
%TO.N,/RX_MOT3*%
X113650000Y-72250000D03*
X132503705Y-80497982D03*
%TO.N,/ACCEL_MOSI*%
X128650000Y-92600000D03*
X132503705Y-86097982D03*
%TO.N,Net-(IC5-INT2)*%
X129943705Y-92707982D03*
%TO.N,/ACCEL_MISO*%
X131703705Y-86097982D03*
X128000000Y-92600000D03*
%TO.N,Net-(IC5-INT1)*%
X130773705Y-92707982D03*
%TO.N,/SAI_FS*%
X131350000Y-83300000D03*
X136445361Y-91554639D03*
%TO.N,/SAI_SD*%
X134250000Y-92400000D03*
X133700000Y-81700000D03*
%TO.N,/SAI_CLK*%
X131322705Y-82477295D03*
X135350000Y-91550000D03*
%TO.N,/GND_CONTROLLED*%
X149691910Y-88380706D03*
%TO.N,/BTN_A*%
X122800000Y-89300000D03*
%TO.N,/GND_CONTROl_GPIO*%
X145500000Y-85200000D03*
X135303707Y-83397980D03*
%TO.N,/ACCEL_CLK*%
X126750000Y-92626338D03*
X129303705Y-86097982D03*
%TO.N,/ACCEL_INT2*%
X129943705Y-92067982D03*
X132503705Y-86897982D03*
%TO.N,/ACCEL_INT1*%
X130773705Y-92067982D03*
X133303705Y-87697982D03*
%TO.N,/AMPLI_SD_MODE*%
X133573705Y-94237982D03*
X136100000Y-87300000D03*
%TO.N,/SWDIO*%
X127700000Y-64800000D03*
X131800000Y-75600000D03*
%TO.N,/SWCLK*%
X128500000Y-64800000D03*
X131800000Y-76400000D03*
%TO.N,/RX_LIDAR*%
X112900000Y-93200000D03*
X131703705Y-85297982D03*
%TO.N,/SDA_TOF1*%
X145700000Y-74150000D03*
X135703705Y-80497982D03*
%TO.N,/SDA_TOF3*%
X112650000Y-73750000D03*
X132900000Y-80901687D03*
%TO.N,/SCL_TOF1*%
X146350000Y-75050000D03*
X136503705Y-80497982D03*
%TO.N,/SDA_TOF2*%
X126500000Y-102150000D03*
X129303705Y-85297982D03*
%TO.N,/LIDAR_PWM*%
X112400000Y-92450000D03*
X129303705Y-84497982D03*
%TO.N,/SCL_TOF2*%
X127550000Y-102150000D03*
X130103705Y-85297982D03*
%TO.N,/SCL_TOF3*%
X112300000Y-74450000D03*
X130500000Y-80900000D03*
%TO.N,/TX_SUP*%
X142107965Y-93344841D03*
X136850000Y-84100000D03*
%TO.N,/RX_SUP*%
X136050000Y-84100000D03*
X141607965Y-94210866D03*
%TO.N,/RED*%
X130903705Y-82897982D03*
X114730000Y-81825000D03*
%TO.N,/GREEN*%
X114730000Y-84015000D03*
X130103705Y-82897982D03*
%TO.N,/BLUE*%
X114730000Y-87480000D03*
X130103705Y-83697982D03*
%TO.N,/ACCESOIRES/BLEU1*%
X108070000Y-77700000D03*
X111138835Y-72288835D03*
X118790000Y-103670000D03*
X113650000Y-67530000D03*
%TO.N,/ACCESOIRES/RED1*%
X122050000Y-97400000D03*
X110303701Y-79196299D03*
X122490000Y-65930000D03*
X112478784Y-73138784D03*
%TO.N,/ACCESOIRES/GREEN1*%
X114890000Y-100987837D03*
X109660000Y-78810000D03*
X111953840Y-72813840D03*
X118600000Y-62110000D03*
%TD*%
%TA.AperFunction,Conductor*%
%TO.N,GND*%
G36*
X141414144Y-61519407D02*
G01*
X141441689Y-61549999D01*
X153797634Y-82950499D01*
X153810356Y-83010347D01*
X153797634Y-83049501D01*
X141441689Y-104450001D01*
X141396219Y-104490942D01*
X141355953Y-104499500D01*
X116644047Y-104499500D01*
X116585856Y-104480593D01*
X116558311Y-104450001D01*
X116232218Y-103885209D01*
X116081321Y-103623856D01*
X118439500Y-103623856D01*
X118439500Y-103716144D01*
X118463386Y-103805288D01*
X118509531Y-103885212D01*
X118574788Y-103950469D01*
X118654712Y-103996614D01*
X118743856Y-104020500D01*
X118743858Y-104020500D01*
X118836142Y-104020500D01*
X118836144Y-104020500D01*
X118925288Y-103996614D01*
X119005212Y-103950469D01*
X119070469Y-103885212D01*
X119116614Y-103805288D01*
X119140500Y-103716144D01*
X119140500Y-103623856D01*
X119116614Y-103534712D01*
X119070469Y-103454788D01*
X119005212Y-103389531D01*
X118925288Y-103343386D01*
X118836144Y-103319500D01*
X118743856Y-103319500D01*
X118654712Y-103343386D01*
X118654711Y-103343386D01*
X118654709Y-103343387D01*
X118574790Y-103389529D01*
X118509529Y-103454790D01*
X118463387Y-103534709D01*
X118463386Y-103534711D01*
X118463386Y-103534712D01*
X118439500Y-103623856D01*
X116081321Y-103623856D01*
X115584153Y-102762761D01*
X130478405Y-102762761D01*
X130478405Y-102855049D01*
X130502291Y-102944193D01*
X130548436Y-103024117D01*
X130613693Y-103089374D01*
X130693617Y-103135519D01*
X130782761Y-103159405D01*
X130782763Y-103159405D01*
X130875047Y-103159405D01*
X130875049Y-103159405D01*
X130964193Y-103135519D01*
X131044117Y-103089374D01*
X131109374Y-103024117D01*
X131155519Y-102944193D01*
X131179405Y-102855049D01*
X131179405Y-102762761D01*
X131155519Y-102673617D01*
X131109374Y-102593693D01*
X131075682Y-102560001D01*
X131047907Y-102505487D01*
X131057478Y-102445055D01*
X131075681Y-102419999D01*
X131130469Y-102365212D01*
X131176614Y-102285288D01*
X131200500Y-102196144D01*
X131200500Y-102103856D01*
X131176614Y-102014712D01*
X131130469Y-101934788D01*
X131065212Y-101869531D01*
X131031382Y-101849999D01*
X130985290Y-101823387D01*
X130985289Y-101823386D01*
X130985288Y-101823386D01*
X130896144Y-101799500D01*
X130803856Y-101799500D01*
X130714712Y-101823386D01*
X130714711Y-101823386D01*
X130714709Y-101823387D01*
X130634790Y-101869529D01*
X130569529Y-101934790D01*
X130523387Y-102014709D01*
X130523386Y-102014711D01*
X130523386Y-102014712D01*
X130499500Y-102103856D01*
X130499500Y-102196144D01*
X130523386Y-102285288D01*
X130569531Y-102365212D01*
X130603222Y-102398903D01*
X130630998Y-102453418D01*
X130621427Y-102513850D01*
X130603223Y-102538905D01*
X130548436Y-102593693D01*
X130548434Y-102593695D01*
X130502292Y-102673614D01*
X130502291Y-102673616D01*
X130502291Y-102673617D01*
X130478405Y-102762761D01*
X115584153Y-102762761D01*
X115203723Y-102103856D01*
X126149500Y-102103856D01*
X126149500Y-102196144D01*
X126173386Y-102285288D01*
X126219531Y-102365212D01*
X126284788Y-102430469D01*
X126364712Y-102476614D01*
X126453856Y-102500500D01*
X126453858Y-102500500D01*
X126546142Y-102500500D01*
X126546144Y-102500500D01*
X126635288Y-102476614D01*
X126715212Y-102430469D01*
X126780469Y-102365212D01*
X126826614Y-102285288D01*
X126850500Y-102196144D01*
X126850500Y-102103856D01*
X127199500Y-102103856D01*
X127199500Y-102196144D01*
X127223386Y-102285288D01*
X127269531Y-102365212D01*
X127334788Y-102430469D01*
X127414712Y-102476614D01*
X127503856Y-102500500D01*
X127503858Y-102500500D01*
X127596142Y-102500500D01*
X127596144Y-102500500D01*
X127685288Y-102476614D01*
X127765212Y-102430469D01*
X127830469Y-102365212D01*
X127876614Y-102285288D01*
X127900500Y-102196144D01*
X127900500Y-102103856D01*
X128449500Y-102103856D01*
X128449500Y-102196144D01*
X128473386Y-102285288D01*
X128519531Y-102365212D01*
X128584788Y-102430469D01*
X128664712Y-102476614D01*
X128753856Y-102500500D01*
X128753858Y-102500500D01*
X128846142Y-102500500D01*
X128846144Y-102500500D01*
X128935288Y-102476614D01*
X129015212Y-102430469D01*
X129080469Y-102365212D01*
X129126614Y-102285288D01*
X129150500Y-102196144D01*
X129150500Y-102103856D01*
X129137103Y-102053856D01*
X129449500Y-102053856D01*
X129449500Y-102146144D01*
X129473386Y-102235288D01*
X129519531Y-102315212D01*
X129584788Y-102380469D01*
X129664712Y-102426614D01*
X129753856Y-102450500D01*
X129753858Y-102450500D01*
X129846142Y-102450500D01*
X129846144Y-102450500D01*
X129935288Y-102426614D01*
X130015212Y-102380469D01*
X130080469Y-102315212D01*
X130126614Y-102235288D01*
X130150500Y-102146144D01*
X130150500Y-102053856D01*
X130126614Y-101964712D01*
X130080469Y-101884788D01*
X130015212Y-101819531D01*
X129998704Y-101810000D01*
X129935290Y-101773387D01*
X129935289Y-101773386D01*
X129935288Y-101773386D01*
X129846144Y-101749500D01*
X129753856Y-101749500D01*
X129664712Y-101773386D01*
X129664711Y-101773386D01*
X129664709Y-101773387D01*
X129584790Y-101819529D01*
X129519529Y-101884790D01*
X129473387Y-101964709D01*
X129473386Y-101964711D01*
X129473386Y-101964712D01*
X129449500Y-102053856D01*
X129137103Y-102053856D01*
X129126614Y-102014712D01*
X129080469Y-101934788D01*
X129015212Y-101869531D01*
X128981382Y-101849999D01*
X128935290Y-101823387D01*
X128935289Y-101823386D01*
X128935288Y-101823386D01*
X128846144Y-101799500D01*
X128753856Y-101799500D01*
X128664712Y-101823386D01*
X128664711Y-101823386D01*
X128664709Y-101823387D01*
X128584790Y-101869529D01*
X128519529Y-101934790D01*
X128473387Y-102014709D01*
X128473386Y-102014711D01*
X128473386Y-102014712D01*
X128449500Y-102103856D01*
X127900500Y-102103856D01*
X127876614Y-102014712D01*
X127830469Y-101934788D01*
X127765212Y-101869531D01*
X127731382Y-101849999D01*
X127685290Y-101823387D01*
X127685289Y-101823386D01*
X127685288Y-101823386D01*
X127596144Y-101799500D01*
X127503856Y-101799500D01*
X127414712Y-101823386D01*
X127414711Y-101823386D01*
X127414709Y-101823387D01*
X127334790Y-101869529D01*
X127269529Y-101934790D01*
X127223387Y-102014709D01*
X127223386Y-102014711D01*
X127223386Y-102014712D01*
X127199500Y-102103856D01*
X126850500Y-102103856D01*
X126826614Y-102014712D01*
X126780469Y-101934788D01*
X126715212Y-101869531D01*
X126681382Y-101849999D01*
X126635290Y-101823387D01*
X126635289Y-101823386D01*
X126635288Y-101823386D01*
X126546144Y-101799500D01*
X126453856Y-101799500D01*
X126364712Y-101823386D01*
X126364711Y-101823386D01*
X126364709Y-101823387D01*
X126284790Y-101869529D01*
X126219529Y-101934790D01*
X126173387Y-102014709D01*
X126173386Y-102014711D01*
X126173386Y-102014712D01*
X126149500Y-102103856D01*
X115203723Y-102103856D01*
X114847476Y-101486836D01*
X114834755Y-101426990D01*
X114859641Y-101371094D01*
X114912629Y-101340501D01*
X114933213Y-101338337D01*
X114936142Y-101338337D01*
X114936144Y-101338337D01*
X115025288Y-101314451D01*
X115105212Y-101268306D01*
X115170469Y-101203049D01*
X115216614Y-101123125D01*
X115240500Y-101033981D01*
X115240500Y-100941693D01*
X115216614Y-100852549D01*
X115170469Y-100772625D01*
X115105212Y-100707368D01*
X115075130Y-100690000D01*
X115025290Y-100661224D01*
X115025289Y-100661223D01*
X115025288Y-100661223D01*
X114936144Y-100637337D01*
X114843856Y-100637337D01*
X114754712Y-100661223D01*
X114754711Y-100661223D01*
X114754709Y-100661224D01*
X114674790Y-100707366D01*
X114609528Y-100772628D01*
X114609525Y-100772632D01*
X114608053Y-100775182D01*
X114606487Y-100776591D01*
X114605580Y-100777774D01*
X114605360Y-100777605D01*
X114562579Y-100816118D01*
X114501728Y-100822507D01*
X114448743Y-100791909D01*
X114436588Y-100775178D01*
X113428979Y-99029999D01*
X115820000Y-99029999D01*
X115820000Y-99030000D01*
X115820000Y-99070000D01*
X115860000Y-99110000D01*
X115860002Y-99110001D01*
X116059963Y-99209982D01*
X116506185Y-99428135D01*
X116513046Y-99431831D01*
X116513406Y-99432043D01*
X116610000Y-99490000D01*
X116657565Y-99517180D01*
X116658200Y-99517555D01*
X116677995Y-99539981D01*
X116698118Y-99562130D01*
X116698242Y-99562917D01*
X116698691Y-99563426D01*
X116699252Y-99569326D01*
X116706252Y-99613731D01*
X116700550Y-99665054D01*
X116698957Y-99674865D01*
X116670000Y-99809995D01*
X116670000Y-99980001D01*
X116690001Y-100110006D01*
X116740001Y-100290003D01*
X116799998Y-100459995D01*
X116800004Y-100460009D01*
X116949996Y-100759993D01*
X116950000Y-100760000D01*
X117018003Y-100857148D01*
X117021791Y-100862985D01*
X117140001Y-101060002D01*
X117140002Y-101060004D01*
X117219984Y-101149983D01*
X117220011Y-101150011D01*
X117324357Y-101254358D01*
X117352134Y-101308874D01*
X117353011Y-101316139D01*
X117359999Y-101399997D01*
X117400001Y-101540004D01*
X117460000Y-101680001D01*
X117539999Y-101779999D01*
X117540000Y-101780000D01*
X117690000Y-101840000D01*
X117790000Y-101850000D01*
X117950000Y-101830000D01*
X118079408Y-101770273D01*
X118080634Y-101769718D01*
X118161315Y-101733859D01*
X118179256Y-101727863D01*
X118300000Y-101700000D01*
X118398488Y-101628372D01*
X118423403Y-101615212D01*
X118549044Y-101570341D01*
X118550954Y-101569683D01*
X118635747Y-101541418D01*
X118644371Y-101538971D01*
X118767500Y-101510000D01*
X118809988Y-101500003D01*
X118809993Y-101500001D01*
X118810000Y-101500000D01*
X118960000Y-101460000D01*
X119060000Y-101430000D01*
X119076176Y-101421911D01*
X119106029Y-101417414D01*
X119135938Y-101412678D01*
X119136288Y-101412856D01*
X119136678Y-101412798D01*
X119190455Y-101440455D01*
X119196126Y-101446126D01*
X119203428Y-101454285D01*
X119295746Y-101569683D01*
X119318309Y-101597886D01*
X119321563Y-101602188D01*
X119419825Y-101739755D01*
X119420228Y-101740324D01*
X119610000Y-102010000D01*
X119670000Y-102070000D01*
X119670001Y-102070000D01*
X119719999Y-102070000D01*
X119720000Y-102070000D01*
X119720000Y-102020000D01*
X119718237Y-102014712D01*
X119710001Y-101990003D01*
X119710000Y-101990000D01*
X119674258Y-101927452D01*
X119661804Y-101867551D01*
X119686939Y-101811767D01*
X119740062Y-101781410D01*
X119778150Y-101780975D01*
X119990000Y-101820000D01*
X119990004Y-101819999D01*
X119990005Y-101820000D01*
X120429992Y-101810001D01*
X120429995Y-101810000D01*
X120430000Y-101810000D01*
X120800000Y-101690000D01*
X121070000Y-101510000D01*
X121300000Y-101300000D01*
X121470000Y-101010000D01*
X121620000Y-100690000D01*
X121620000Y-100689997D01*
X121620002Y-100689993D01*
X121689998Y-100340009D01*
X121690000Y-100339999D01*
X121700000Y-100049999D01*
X121669032Y-99810000D01*
X121660000Y-99740000D01*
X121659998Y-99739996D01*
X121659998Y-99739994D01*
X121571103Y-99539981D01*
X121540000Y-99470000D01*
X121380000Y-99270000D01*
X121379997Y-99269997D01*
X121190003Y-99150001D01*
X121190000Y-99150000D01*
X120980000Y-99100000D01*
X120979999Y-99100000D01*
X120620000Y-99170000D01*
X120619996Y-99170001D01*
X120420960Y-99229711D01*
X120419010Y-99230274D01*
X120257067Y-99275259D01*
X120222348Y-99278529D01*
X120168936Y-99274078D01*
X120112517Y-99250404D01*
X120093636Y-99228571D01*
X120081818Y-99210000D01*
X120054388Y-99166895D01*
X120046805Y-99152483D01*
X119880000Y-98760000D01*
X119796506Y-98646144D01*
X119767003Y-98605912D01*
X119728828Y-98553856D01*
X133649500Y-98553856D01*
X133649500Y-98646144D01*
X133673386Y-98735288D01*
X133673387Y-98735290D01*
X133699202Y-98780003D01*
X133719531Y-98815212D01*
X133784788Y-98880469D01*
X133864712Y-98926614D01*
X133953856Y-98950500D01*
X133953858Y-98950500D01*
X134046142Y-98950500D01*
X134046144Y-98950500D01*
X134135288Y-98926614D01*
X134215212Y-98880469D01*
X134229998Y-98865682D01*
X134284513Y-98837907D01*
X134344945Y-98847478D01*
X134370000Y-98865681D01*
X134384788Y-98880469D01*
X134464712Y-98926614D01*
X134553856Y-98950500D01*
X134553858Y-98950500D01*
X134646142Y-98950500D01*
X134646144Y-98950500D01*
X134735288Y-98926614D01*
X134815212Y-98880469D01*
X134880469Y-98815212D01*
X134926614Y-98735288D01*
X134950500Y-98646144D01*
X134950500Y-98553856D01*
X134926614Y-98464712D01*
X134880469Y-98384788D01*
X134815212Y-98319531D01*
X134735288Y-98273386D01*
X134646144Y-98249500D01*
X134553856Y-98249500D01*
X134464712Y-98273386D01*
X134464711Y-98273386D01*
X134464709Y-98273387D01*
X134384790Y-98319529D01*
X134384788Y-98319530D01*
X134384788Y-98319531D01*
X134370001Y-98334317D01*
X134315487Y-98362093D01*
X134255055Y-98352522D01*
X134229999Y-98334318D01*
X134215212Y-98319531D01*
X134135288Y-98273386D01*
X134046144Y-98249500D01*
X133953856Y-98249500D01*
X133864712Y-98273386D01*
X133864711Y-98273386D01*
X133864709Y-98273387D01*
X133784790Y-98319529D01*
X133719529Y-98384790D01*
X133673387Y-98464709D01*
X133673386Y-98464711D01*
X133673386Y-98464712D01*
X133649500Y-98553856D01*
X119728828Y-98553856D01*
X119660001Y-98460001D01*
X119540434Y-98349630D01*
X119522693Y-98327821D01*
X119479064Y-98255107D01*
X119466704Y-98222699D01*
X119430000Y-98030000D01*
X119350000Y-97810000D01*
X119280000Y-97660000D01*
X119190000Y-97530000D01*
X119189997Y-97529997D01*
X119065606Y-97422191D01*
X119065593Y-97422181D01*
X119040000Y-97400000D01*
X119039998Y-97399999D01*
X119039997Y-97399998D01*
X118950002Y-97360000D01*
X118950000Y-97360000D01*
X118890000Y-97360000D01*
X118889999Y-97360000D01*
X118839999Y-97420000D01*
X118790001Y-97609992D01*
X118790000Y-97609997D01*
X118770394Y-97776649D01*
X118769376Y-97783325D01*
X118741247Y-97933347D01*
X118737860Y-97946418D01*
X118735758Y-97952722D01*
X118716281Y-97979099D01*
X118711940Y-97987057D01*
X118709579Y-97988176D01*
X118699414Y-98001945D01*
X118641080Y-98020404D01*
X118622427Y-98018485D01*
X118579992Y-98009998D01*
X118380000Y-97980000D01*
X118379986Y-97979998D01*
X118260011Y-97970000D01*
X118260000Y-97970000D01*
X118170000Y-97970000D01*
X118169998Y-97970000D01*
X118130000Y-97980000D01*
X118150000Y-98030000D01*
X118150001Y-98030001D01*
X118189992Y-98049996D01*
X118190000Y-98050000D01*
X118297349Y-98079277D01*
X118300353Y-98080586D01*
X118302606Y-98080869D01*
X118374235Y-98104746D01*
X118423461Y-98141085D01*
X118441925Y-98199417D01*
X118422576Y-98257463D01*
X118372804Y-98293049D01*
X118329550Y-98296756D01*
X118317396Y-98295099D01*
X118287014Y-98290956D01*
X118273196Y-98288055D01*
X118210002Y-98270000D01*
X118210000Y-98270000D01*
X118150000Y-98270000D01*
X118149999Y-98270000D01*
X118052228Y-98436211D01*
X118047457Y-98443559D01*
X118004762Y-98503332D01*
X117994206Y-98515793D01*
X117956423Y-98553576D01*
X117942505Y-98565152D01*
X117790004Y-98669996D01*
X117659999Y-98780001D01*
X117659997Y-98780003D01*
X117550002Y-98929996D01*
X117459998Y-99080001D01*
X117383814Y-99241895D01*
X117374791Y-99257292D01*
X117372807Y-99260069D01*
X117323595Y-99296426D01*
X117262411Y-99296913D01*
X117237340Y-99284893D01*
X117230000Y-99280000D01*
X117229998Y-99279999D01*
X117120001Y-99260000D01*
X117120000Y-99260000D01*
X117032187Y-99260000D01*
X117008092Y-99257023D01*
X117007824Y-99256956D01*
X117007290Y-99256822D01*
X116960346Y-99229750D01*
X116650002Y-98910001D01*
X116520000Y-98810000D01*
X116460000Y-98770000D01*
X116430000Y-98770000D01*
X116426666Y-98780003D01*
X116420000Y-98800000D01*
X116425070Y-98815212D01*
X116430000Y-98830000D01*
X116679624Y-99089609D01*
X116680431Y-99090460D01*
X116818089Y-99237295D01*
X116836859Y-99266005D01*
X116840818Y-99275242D01*
X116846364Y-99336175D01*
X116827128Y-99376089D01*
X116821350Y-99383311D01*
X116816274Y-99386649D01*
X116815034Y-99388731D01*
X116809515Y-99391096D01*
X116770233Y-99416938D01*
X116720036Y-99417508D01*
X116705187Y-99413796D01*
X116676727Y-99401704D01*
X116450000Y-99260000D01*
X116449995Y-99259998D01*
X116442929Y-99257023D01*
X116331250Y-99210000D01*
X116071733Y-99100729D01*
X116068286Y-99099199D01*
X115920001Y-99030000D01*
X115919997Y-99029998D01*
X115870003Y-99020000D01*
X115869998Y-99020000D01*
X115820000Y-99029999D01*
X113428979Y-99029999D01*
X112461229Y-97353856D01*
X121699500Y-97353856D01*
X121699500Y-97446144D01*
X121723386Y-97535288D01*
X121769531Y-97615212D01*
X121834788Y-97680469D01*
X121914712Y-97726614D01*
X122003856Y-97750500D01*
X122003858Y-97750500D01*
X122096142Y-97750500D01*
X122096144Y-97750500D01*
X122185288Y-97726614D01*
X122265212Y-97680469D01*
X122330469Y-97615212D01*
X122376614Y-97535288D01*
X122400500Y-97446144D01*
X122400500Y-97353856D01*
X122376614Y-97264712D01*
X122330469Y-97184788D01*
X122265212Y-97119531D01*
X122185288Y-97073386D01*
X122096144Y-97049500D01*
X122003856Y-97049500D01*
X121914712Y-97073386D01*
X121914711Y-97073386D01*
X121914709Y-97073387D01*
X121834790Y-97119529D01*
X121769529Y-97184790D01*
X121723387Y-97264709D01*
X121723386Y-97264711D01*
X121723386Y-97264712D01*
X121699500Y-97353856D01*
X112461229Y-97353856D01*
X111219890Y-95203856D01*
X137599500Y-95203856D01*
X137599500Y-95296144D01*
X137623386Y-95385288D01*
X137623387Y-95385290D01*
X137672775Y-95470831D01*
X137671568Y-95471527D01*
X137689587Y-95522407D01*
X137672774Y-95579168D01*
X137672775Y-95579169D01*
X137672772Y-95579172D01*
X137672210Y-95581073D01*
X137669605Y-95584657D01*
X137623387Y-95664709D01*
X137623386Y-95664711D01*
X137623386Y-95664712D01*
X137599500Y-95753856D01*
X137599500Y-95846144D01*
X137623386Y-95935288D01*
X137669531Y-96015212D01*
X137734788Y-96080469D01*
X137814712Y-96126614D01*
X137903856Y-96150500D01*
X137903858Y-96150500D01*
X137996142Y-96150500D01*
X137996144Y-96150500D01*
X138085288Y-96126614D01*
X138165212Y-96080469D01*
X138230469Y-96015212D01*
X138276614Y-95935288D01*
X138300500Y-95846144D01*
X138300500Y-95753856D01*
X138276614Y-95664712D01*
X138230469Y-95584788D01*
X138227225Y-95579169D01*
X138228433Y-95578471D01*
X138210412Y-95527606D01*
X138227781Y-95468938D01*
X138230395Y-95465339D01*
X138230467Y-95465213D01*
X138230469Y-95465212D01*
X138276614Y-95385288D01*
X138300500Y-95296144D01*
X138300500Y-95203856D01*
X138276614Y-95114712D01*
X138230469Y-95034788D01*
X138165212Y-94969531D01*
X138085288Y-94923386D01*
X137996144Y-94899500D01*
X137903856Y-94899500D01*
X137814712Y-94923386D01*
X137814711Y-94923386D01*
X137814709Y-94923387D01*
X137734790Y-94969529D01*
X137669529Y-95034790D01*
X137623387Y-95114709D01*
X137623386Y-95114711D01*
X137623386Y-95114712D01*
X137599500Y-95203856D01*
X111219890Y-95203856D01*
X110635584Y-94191838D01*
X133223205Y-94191838D01*
X133223205Y-94284126D01*
X133239826Y-94346156D01*
X133247092Y-94373272D01*
X133277578Y-94426075D01*
X133293236Y-94453194D01*
X133358493Y-94518451D01*
X133438417Y-94564596D01*
X133527561Y-94588482D01*
X133527563Y-94588482D01*
X133619847Y-94588482D01*
X133619849Y-94588482D01*
X133708993Y-94564596D01*
X133788917Y-94518451D01*
X133854174Y-94453194D01*
X133900319Y-94373270D01*
X133924205Y-94284126D01*
X133924205Y-94191838D01*
X133916939Y-94164722D01*
X141257465Y-94164722D01*
X141257465Y-94257010D01*
X141281351Y-94346154D01*
X141327496Y-94426078D01*
X141392753Y-94491335D01*
X141472677Y-94537480D01*
X141561821Y-94561366D01*
X141561823Y-94561366D01*
X141654107Y-94561366D01*
X141654109Y-94561366D01*
X141743253Y-94537480D01*
X141823177Y-94491335D01*
X141888434Y-94426078D01*
X141934579Y-94346154D01*
X141958465Y-94257010D01*
X141958465Y-94164722D01*
X141934579Y-94075578D01*
X141888434Y-93995654D01*
X141823177Y-93930397D01*
X141790220Y-93911369D01*
X141743255Y-93884253D01*
X141743254Y-93884252D01*
X141743253Y-93884252D01*
X141654109Y-93860366D01*
X141561821Y-93860366D01*
X141472677Y-93884252D01*
X141472676Y-93884252D01*
X141472674Y-93884253D01*
X141392755Y-93930395D01*
X141327494Y-93995656D01*
X141281352Y-94075575D01*
X141281351Y-94075577D01*
X141281351Y-94075578D01*
X141257465Y-94164722D01*
X133916939Y-94164722D01*
X133900319Y-94102694D01*
X133854174Y-94022770D01*
X133788917Y-93957513D01*
X133708993Y-93911368D01*
X133619849Y-93887482D01*
X133527561Y-93887482D01*
X133438417Y-93911368D01*
X133438416Y-93911368D01*
X133438414Y-93911369D01*
X133358495Y-93957511D01*
X133293234Y-94022772D01*
X133247092Y-94102691D01*
X133247091Y-94102693D01*
X133247091Y-94102694D01*
X133223205Y-94191838D01*
X110635584Y-94191838D01*
X110036288Y-93153856D01*
X112549500Y-93153856D01*
X112549500Y-93246144D01*
X112573386Y-93335288D01*
X112619531Y-93415212D01*
X112684788Y-93480469D01*
X112764712Y-93526614D01*
X112853856Y-93550500D01*
X112853858Y-93550500D01*
X112946142Y-93550500D01*
X112946144Y-93550500D01*
X113035288Y-93526614D01*
X113115212Y-93480469D01*
X113180469Y-93415212D01*
X113226614Y-93335288D01*
X113236419Y-93298697D01*
X141757465Y-93298697D01*
X141757465Y-93390985D01*
X141763956Y-93415209D01*
X141781352Y-93480131D01*
X141808189Y-93526614D01*
X141827496Y-93560053D01*
X141892753Y-93625310D01*
X141972677Y-93671455D01*
X142061821Y-93695341D01*
X142061823Y-93695341D01*
X142154107Y-93695341D01*
X142154109Y-93695341D01*
X142243253Y-93671455D01*
X142323177Y-93625310D01*
X142388434Y-93560053D01*
X142434579Y-93480129D01*
X142458465Y-93390985D01*
X142458465Y-93298697D01*
X142434579Y-93209553D01*
X142388434Y-93129629D01*
X142323177Y-93064372D01*
X142312975Y-93058482D01*
X142243255Y-93018228D01*
X142243254Y-93018227D01*
X142243253Y-93018227D01*
X142154109Y-92994341D01*
X142061821Y-92994341D01*
X141972677Y-93018227D01*
X141972676Y-93018227D01*
X141972674Y-93018228D01*
X141892755Y-93064370D01*
X141827494Y-93129631D01*
X141781352Y-93209550D01*
X141781351Y-93209552D01*
X141781351Y-93209553D01*
X141757465Y-93298697D01*
X113236419Y-93298697D01*
X113250500Y-93246144D01*
X113250500Y-93153856D01*
X113226614Y-93064712D01*
X113180469Y-92984788D01*
X113115212Y-92919531D01*
X113070744Y-92893857D01*
X113035290Y-92873387D01*
X113035289Y-92873386D01*
X113035288Y-92873386D01*
X112946144Y-92849500D01*
X112853856Y-92849500D01*
X112764712Y-92873386D01*
X112764711Y-92873386D01*
X112764709Y-92873387D01*
X112684790Y-92919529D01*
X112619529Y-92984790D01*
X112573387Y-93064709D01*
X112573386Y-93064711D01*
X112573386Y-93064712D01*
X112549500Y-93153856D01*
X110036288Y-93153856D01*
X109758357Y-92672480D01*
X109628096Y-92446868D01*
X109603262Y-92403856D01*
X112049500Y-92403856D01*
X112049500Y-92496144D01*
X112073386Y-92585288D01*
X112073387Y-92585290D01*
X112117583Y-92661839D01*
X112119531Y-92665212D01*
X112184788Y-92730469D01*
X112264712Y-92776614D01*
X112353856Y-92800500D01*
X112353858Y-92800500D01*
X112446142Y-92800500D01*
X112446144Y-92800500D01*
X112535288Y-92776614D01*
X112615212Y-92730469D01*
X112680469Y-92665212D01*
X112726614Y-92585288D01*
X112740395Y-92533856D01*
X121239500Y-92533856D01*
X121239500Y-92626144D01*
X121254057Y-92680470D01*
X121263387Y-92715290D01*
X121285809Y-92754126D01*
X121309531Y-92795212D01*
X121374788Y-92860469D01*
X121454712Y-92906614D01*
X121543856Y-92930500D01*
X121543858Y-92930500D01*
X121633625Y-92930500D01*
X121691816Y-92949407D01*
X121727780Y-92998907D01*
X121729247Y-93003860D01*
X121748386Y-93075288D01*
X121748387Y-93075290D01*
X121793748Y-93153857D01*
X121794531Y-93155212D01*
X121859788Y-93220469D01*
X121939712Y-93266614D01*
X122028856Y-93290500D01*
X122028858Y-93290500D01*
X122121142Y-93290500D01*
X122121144Y-93290500D01*
X122210288Y-93266614D01*
X122290212Y-93220469D01*
X122355469Y-93155212D01*
X122401614Y-93075288D01*
X122425500Y-92986144D01*
X122425500Y-92893856D01*
X122401614Y-92804712D01*
X122355469Y-92724788D01*
X122290212Y-92659531D01*
X122290058Y-92659442D01*
X122290057Y-92659441D01*
X122290056Y-92659441D01*
X122210290Y-92613387D01*
X122210289Y-92613386D01*
X122210288Y-92613386D01*
X122121144Y-92589500D01*
X122031375Y-92589500D01*
X122002733Y-92580194D01*
X126399500Y-92580194D01*
X126399500Y-92672482D01*
X126423386Y-92761626D01*
X126423387Y-92761628D01*
X126467874Y-92838681D01*
X126469531Y-92841550D01*
X126534788Y-92906807D01*
X126614712Y-92952952D01*
X126703856Y-92976838D01*
X126703858Y-92976838D01*
X126796142Y-92976838D01*
X126796144Y-92976838D01*
X126885288Y-92952952D01*
X126965212Y-92906807D01*
X127030469Y-92841550D01*
X127076614Y-92761626D01*
X127100500Y-92672482D01*
X127100500Y-92580194D01*
X127093443Y-92553856D01*
X127649500Y-92553856D01*
X127649500Y-92646144D01*
X127671062Y-92726614D01*
X127673387Y-92735290D01*
X127713468Y-92804712D01*
X127719531Y-92815212D01*
X127784788Y-92880469D01*
X127864712Y-92926614D01*
X127953856Y-92950500D01*
X127953858Y-92950500D01*
X128046142Y-92950500D01*
X128046144Y-92950500D01*
X128135288Y-92926614D01*
X128215212Y-92880469D01*
X128254998Y-92840682D01*
X128309513Y-92812907D01*
X128369945Y-92822478D01*
X128395000Y-92840681D01*
X128434788Y-92880469D01*
X128514712Y-92926614D01*
X128603856Y-92950500D01*
X128603858Y-92950500D01*
X128696142Y-92950500D01*
X128696144Y-92950500D01*
X128785288Y-92926614D01*
X128865212Y-92880469D01*
X128930469Y-92815212D01*
X128976614Y-92735288D01*
X129000500Y-92646144D01*
X129000500Y-92553856D01*
X128976614Y-92464712D01*
X128930469Y-92384788D01*
X128865212Y-92319531D01*
X128862522Y-92317978D01*
X128785290Y-92273387D01*
X128785289Y-92273386D01*
X128785288Y-92273386D01*
X128696144Y-92249500D01*
X128603856Y-92249500D01*
X128514712Y-92273386D01*
X128514711Y-92273386D01*
X128514709Y-92273387D01*
X128434790Y-92319529D01*
X128434788Y-92319530D01*
X128434788Y-92319531D01*
X128395001Y-92359317D01*
X128340487Y-92387093D01*
X128280055Y-92377522D01*
X128254999Y-92359318D01*
X128215212Y-92319531D01*
X128212522Y-92317978D01*
X128135290Y-92273387D01*
X128135289Y-92273386D01*
X128135288Y-92273386D01*
X128046144Y-92249500D01*
X127953856Y-92249500D01*
X127864712Y-92273386D01*
X127864711Y-92273386D01*
X127864709Y-92273387D01*
X127784790Y-92319529D01*
X127719529Y-92384790D01*
X127673387Y-92464709D01*
X127673386Y-92464711D01*
X127673386Y-92464712D01*
X127649500Y-92553856D01*
X127093443Y-92553856D01*
X127076614Y-92491050D01*
X127030469Y-92411126D01*
X126965212Y-92345869D01*
X126916904Y-92317978D01*
X126885290Y-92299725D01*
X126885289Y-92299724D01*
X126885288Y-92299724D01*
X126796144Y-92275838D01*
X126703856Y-92275838D01*
X126614712Y-92299724D01*
X126614711Y-92299724D01*
X126614709Y-92299725D01*
X126534790Y-92345867D01*
X126469529Y-92411128D01*
X126423387Y-92491047D01*
X126423386Y-92491049D01*
X126423386Y-92491050D01*
X126399500Y-92580194D01*
X122002733Y-92580194D01*
X121973184Y-92570593D01*
X121937220Y-92521093D01*
X121935748Y-92516123D01*
X121935504Y-92515212D01*
X121916614Y-92444712D01*
X121870469Y-92364788D01*
X121805212Y-92299531D01*
X121776907Y-92283189D01*
X121725290Y-92253387D01*
X121725289Y-92253386D01*
X121725288Y-92253386D01*
X121636144Y-92229500D01*
X121543856Y-92229500D01*
X121454712Y-92253386D01*
X121454711Y-92253386D01*
X121454709Y-92253387D01*
X121374790Y-92299529D01*
X121309529Y-92364790D01*
X121263387Y-92444709D01*
X121263386Y-92444711D01*
X121263386Y-92444712D01*
X121239500Y-92533856D01*
X112740395Y-92533856D01*
X112750500Y-92496144D01*
X112750500Y-92403856D01*
X112726614Y-92314712D01*
X112680469Y-92234788D01*
X112615212Y-92169531D01*
X112606865Y-92164712D01*
X112535290Y-92123387D01*
X112535289Y-92123386D01*
X112535288Y-92123386D01*
X112446144Y-92099500D01*
X112353856Y-92099500D01*
X112264712Y-92123386D01*
X112264711Y-92123386D01*
X112264709Y-92123387D01*
X112184790Y-92169529D01*
X112119529Y-92234790D01*
X112073387Y-92314709D01*
X112073386Y-92314711D01*
X112073386Y-92314712D01*
X112049500Y-92403856D01*
X109603262Y-92403856D01*
X109382698Y-92021838D01*
X129593205Y-92021838D01*
X129593205Y-92114126D01*
X129616336Y-92200451D01*
X129617092Y-92203272D01*
X129663233Y-92283190D01*
X129663236Y-92283194D01*
X129698022Y-92317980D01*
X129725798Y-92372495D01*
X129716227Y-92432927D01*
X129698023Y-92457982D01*
X129664959Y-92491047D01*
X129663234Y-92492772D01*
X129617092Y-92572691D01*
X129617091Y-92572693D01*
X129617091Y-92572694D01*
X129593205Y-92661838D01*
X129593205Y-92754126D01*
X129617091Y-92843270D01*
X129617092Y-92843272D01*
X129627021Y-92860470D01*
X129663236Y-92923194D01*
X129728493Y-92988451D01*
X129808417Y-93034596D01*
X129897561Y-93058482D01*
X129897563Y-93058482D01*
X129989847Y-93058482D01*
X129989849Y-93058482D01*
X130078993Y-93034596D01*
X130158917Y-92988451D01*
X130224174Y-92923194D01*
X130252931Y-92873387D01*
X130272969Y-92838681D01*
X130318439Y-92797740D01*
X130379289Y-92791345D01*
X130432277Y-92821937D01*
X130444441Y-92838681D01*
X130493232Y-92923189D01*
X130493234Y-92923191D01*
X130493236Y-92923194D01*
X130558493Y-92988451D01*
X130638417Y-93034596D01*
X130727561Y-93058482D01*
X130727563Y-93058482D01*
X130819847Y-93058482D01*
X130819849Y-93058482D01*
X130908993Y-93034596D01*
X130988917Y-92988451D01*
X131054174Y-92923194D01*
X131100319Y-92843270D01*
X131124205Y-92754126D01*
X131124205Y-92661838D01*
X131100319Y-92572694D01*
X131054174Y-92492770D01*
X131019387Y-92457983D01*
X130991612Y-92403469D01*
X131001183Y-92343037D01*
X131008655Y-92330690D01*
X131013485Y-92323882D01*
X131054174Y-92283194D01*
X131071113Y-92253856D01*
X132149500Y-92253856D01*
X132149500Y-92346144D01*
X132173386Y-92435288D01*
X132173387Y-92435290D01*
X132208520Y-92496142D01*
X132219531Y-92515212D01*
X132284788Y-92580469D01*
X132364712Y-92626614D01*
X132453856Y-92650500D01*
X132453858Y-92650500D01*
X132546142Y-92650500D01*
X132546144Y-92650500D01*
X132635288Y-92626614D01*
X132715212Y-92580469D01*
X132780469Y-92515212D01*
X132826614Y-92435288D01*
X132848434Y-92353856D01*
X133899500Y-92353856D01*
X133899500Y-92446144D01*
X133923003Y-92533857D01*
X133923387Y-92535290D01*
X133968476Y-92613386D01*
X133969531Y-92615212D01*
X134034788Y-92680469D01*
X134114712Y-92726614D01*
X134203856Y-92750500D01*
X134203858Y-92750500D01*
X134296142Y-92750500D01*
X134296144Y-92750500D01*
X134385288Y-92726614D01*
X134465212Y-92680469D01*
X134530469Y-92615212D01*
X134576614Y-92535288D01*
X134600500Y-92446144D01*
X134600500Y-92353856D01*
X134576614Y-92264712D01*
X134530469Y-92184788D01*
X134465212Y-92119531D01*
X134455850Y-92114126D01*
X134385290Y-92073387D01*
X134385289Y-92073386D01*
X134385288Y-92073386D01*
X134296144Y-92049500D01*
X134203856Y-92049500D01*
X134114712Y-92073386D01*
X134114711Y-92073386D01*
X134114709Y-92073387D01*
X134034790Y-92119529D01*
X133969529Y-92184790D01*
X133923387Y-92264709D01*
X133923386Y-92264711D01*
X133923386Y-92264712D01*
X133899500Y-92353856D01*
X132848434Y-92353856D01*
X132850500Y-92346144D01*
X132850500Y-92253856D01*
X132826614Y-92164712D01*
X132780469Y-92084788D01*
X132715212Y-92019531D01*
X132635288Y-91973386D01*
X132546144Y-91949500D01*
X132453856Y-91949500D01*
X132364712Y-91973386D01*
X132364711Y-91973386D01*
X132364709Y-91973387D01*
X132284790Y-92019529D01*
X132219529Y-92084790D01*
X132173387Y-92164709D01*
X132173386Y-92164711D01*
X132173386Y-92164712D01*
X132149500Y-92253856D01*
X131071113Y-92253856D01*
X131100319Y-92203270D01*
X131124205Y-92114126D01*
X131124205Y-92021838D01*
X131100319Y-91932694D01*
X131054174Y-91852770D01*
X130988917Y-91787513D01*
X130950291Y-91765212D01*
X130908995Y-91741369D01*
X130908994Y-91741368D01*
X130908993Y-91741368D01*
X130819849Y-91717482D01*
X130727561Y-91717482D01*
X130638417Y-91741368D01*
X130638416Y-91741368D01*
X130638414Y-91741369D01*
X130558495Y-91787511D01*
X130493234Y-91852772D01*
X130444441Y-91937283D01*
X130398971Y-91978223D01*
X130338121Y-91984618D01*
X130285133Y-91954025D01*
X130272969Y-91937283D01*
X130224175Y-91852772D01*
X130224174Y-91852770D01*
X130158917Y-91787513D01*
X130120291Y-91765212D01*
X130078995Y-91741369D01*
X130078994Y-91741368D01*
X130078993Y-91741368D01*
X129989849Y-91717482D01*
X129897561Y-91717482D01*
X129808417Y-91741368D01*
X129808416Y-91741368D01*
X129808414Y-91741369D01*
X129728495Y-91787511D01*
X129663234Y-91852772D01*
X129617092Y-91932691D01*
X129617091Y-91932693D01*
X129617091Y-91932694D01*
X129593205Y-92021838D01*
X109382698Y-92021838D01*
X109361208Y-91984618D01*
X109083632Y-91503856D01*
X134999500Y-91503856D01*
X134999500Y-91596144D01*
X135023386Y-91685288D01*
X135023387Y-91685290D01*
X135041973Y-91717482D01*
X135069531Y-91765212D01*
X135134788Y-91830469D01*
X135214712Y-91876614D01*
X135303856Y-91900500D01*
X135303858Y-91900500D01*
X135396142Y-91900500D01*
X135396144Y-91900500D01*
X135485288Y-91876614D01*
X135565212Y-91830469D01*
X135630469Y-91765212D01*
X135676614Y-91685288D01*
X135700500Y-91596144D01*
X135700500Y-91508495D01*
X136094861Y-91508495D01*
X136094861Y-91600783D01*
X136117504Y-91685288D01*
X136118748Y-91689929D01*
X136162213Y-91765212D01*
X136164892Y-91769851D01*
X136230149Y-91835108D01*
X136310073Y-91881253D01*
X136399217Y-91905139D01*
X136399219Y-91905139D01*
X136491503Y-91905139D01*
X136491505Y-91905139D01*
X136580649Y-91881253D01*
X136660573Y-91835108D01*
X136725830Y-91769851D01*
X136771975Y-91689927D01*
X136795861Y-91600783D01*
X136795861Y-91508495D01*
X136771975Y-91419351D01*
X136725830Y-91339427D01*
X136660573Y-91274170D01*
X136652538Y-91269531D01*
X136580651Y-91228026D01*
X136580650Y-91228025D01*
X136580649Y-91228025D01*
X136491505Y-91204139D01*
X136399217Y-91204139D01*
X136310073Y-91228025D01*
X136310072Y-91228025D01*
X136310070Y-91228026D01*
X136230151Y-91274168D01*
X136164890Y-91339429D01*
X136118748Y-91419348D01*
X136118747Y-91419350D01*
X136118747Y-91419351D01*
X136094861Y-91508495D01*
X135700500Y-91508495D01*
X135700500Y-91503856D01*
X135676614Y-91414712D01*
X135630469Y-91334788D01*
X135565212Y-91269531D01*
X135485288Y-91223386D01*
X135396144Y-91199500D01*
X135303856Y-91199500D01*
X135214712Y-91223386D01*
X135214711Y-91223386D01*
X135214709Y-91223387D01*
X135134790Y-91269529D01*
X135069529Y-91334790D01*
X135023387Y-91414709D01*
X135023386Y-91414711D01*
X135023386Y-91414712D01*
X134999500Y-91503856D01*
X109083632Y-91503856D01*
X108188242Y-89953040D01*
X113704455Y-89953040D01*
X113704455Y-90045328D01*
X113728341Y-90134472D01*
X113728342Y-90134474D01*
X113729266Y-90136075D01*
X113774486Y-90214396D01*
X113839743Y-90279653D01*
X113919667Y-90325798D01*
X114008811Y-90349684D01*
X114008813Y-90349684D01*
X114101097Y-90349684D01*
X114101099Y-90349684D01*
X114190243Y-90325798D01*
X114270167Y-90279653D01*
X114335424Y-90214396D01*
X114381569Y-90134472D01*
X114405455Y-90045328D01*
X114405455Y-89954643D01*
X127269500Y-89954643D01*
X127269500Y-90046931D01*
X127293176Y-90135290D01*
X127293387Y-90136077D01*
X127339076Y-90215212D01*
X127339531Y-90215999D01*
X127404788Y-90281256D01*
X127484712Y-90327401D01*
X127573856Y-90351287D01*
X127573858Y-90351287D01*
X127666142Y-90351287D01*
X127666144Y-90351287D01*
X127755288Y-90327401D01*
X127835212Y-90281256D01*
X127900469Y-90215999D01*
X127946614Y-90136075D01*
X127970500Y-90046931D01*
X127970500Y-89954643D01*
X127946614Y-89865499D01*
X127900469Y-89785575D01*
X127835212Y-89720318D01*
X127833845Y-89719529D01*
X127755290Y-89674174D01*
X127755289Y-89674173D01*
X127755288Y-89674173D01*
X127679464Y-89653856D01*
X141149500Y-89653856D01*
X141149500Y-89746144D01*
X141173386Y-89835288D01*
X141173387Y-89835290D01*
X141190828Y-89865499D01*
X141219531Y-89915212D01*
X141284788Y-89980469D01*
X141364712Y-90026614D01*
X141453856Y-90050500D01*
X141453858Y-90050500D01*
X141546143Y-90050500D01*
X141546144Y-90050500D01*
X141635288Y-90026614D01*
X141635290Y-90026612D01*
X141641339Y-90024992D01*
X141702441Y-90028193D01*
X141749991Y-90066698D01*
X141762588Y-90094992D01*
X141773167Y-90134472D01*
X141773387Y-90135290D01*
X141773841Y-90136077D01*
X141819531Y-90215212D01*
X141884788Y-90280469D01*
X141964712Y-90326614D01*
X142053856Y-90350500D01*
X142053858Y-90350500D01*
X142146142Y-90350500D01*
X142146144Y-90350500D01*
X142235288Y-90326614D01*
X142315212Y-90280469D01*
X142380469Y-90215212D01*
X142426614Y-90135288D01*
X142450500Y-90046144D01*
X142450500Y-89953856D01*
X142426614Y-89864712D01*
X142380469Y-89784788D01*
X142315212Y-89719531D01*
X142313795Y-89718713D01*
X142235290Y-89673387D01*
X142235289Y-89673386D01*
X142235288Y-89673386D01*
X142146144Y-89649500D01*
X142053856Y-89649500D01*
X141964712Y-89673386D01*
X141964711Y-89673386D01*
X141958659Y-89675008D01*
X141897557Y-89671805D01*
X141850007Y-89633300D01*
X141837411Y-89605008D01*
X141826614Y-89564712D01*
X141780469Y-89484788D01*
X141715212Y-89419531D01*
X141707731Y-89415212D01*
X141635290Y-89373387D01*
X141635289Y-89373386D01*
X141635288Y-89373386D01*
X141546144Y-89349500D01*
X141453856Y-89349500D01*
X141364712Y-89373386D01*
X141364711Y-89373386D01*
X141364709Y-89373387D01*
X141284790Y-89419529D01*
X141219529Y-89484790D01*
X141173387Y-89564709D01*
X141173387Y-89564710D01*
X141173386Y-89564712D01*
X141149500Y-89653856D01*
X127679464Y-89653856D01*
X127666144Y-89650287D01*
X127573856Y-89650287D01*
X127484712Y-89674173D01*
X127484711Y-89674173D01*
X127484709Y-89674174D01*
X127404790Y-89720316D01*
X127339529Y-89785577D01*
X127293387Y-89865496D01*
X127293386Y-89865498D01*
X127293386Y-89865499D01*
X127269500Y-89954643D01*
X114405455Y-89954643D01*
X114405455Y-89953040D01*
X114381569Y-89863896D01*
X114335424Y-89783972D01*
X114270167Y-89718715D01*
X114193019Y-89674173D01*
X114190245Y-89672571D01*
X114190244Y-89672570D01*
X114190243Y-89672570D01*
X114101099Y-89648684D01*
X114008811Y-89648684D01*
X113919667Y-89672570D01*
X113919666Y-89672570D01*
X113919664Y-89672571D01*
X113839745Y-89718713D01*
X113774484Y-89783974D01*
X113728342Y-89863893D01*
X113728341Y-89863895D01*
X113728341Y-89863896D01*
X113704455Y-89953040D01*
X108188242Y-89953040D01*
X107726819Y-89153856D01*
X115049500Y-89153856D01*
X115049500Y-89246144D01*
X115051567Y-89253857D01*
X115073387Y-89335290D01*
X115078487Y-89344124D01*
X115119531Y-89415212D01*
X115184788Y-89480469D01*
X115264712Y-89526614D01*
X115353856Y-89550500D01*
X115353858Y-89550500D01*
X115446142Y-89550500D01*
X115446144Y-89550500D01*
X115535288Y-89526614D01*
X115615212Y-89480469D01*
X115680469Y-89415212D01*
X115726614Y-89335288D01*
X115748434Y-89253856D01*
X122449500Y-89253856D01*
X122449500Y-89346144D01*
X122472846Y-89433272D01*
X122473387Y-89435290D01*
X122501966Y-89484790D01*
X122519531Y-89515212D01*
X122584788Y-89580469D01*
X122664712Y-89626614D01*
X122753856Y-89650500D01*
X122753858Y-89650500D01*
X122846142Y-89650500D01*
X122846144Y-89650500D01*
X122935288Y-89626614D01*
X123015212Y-89580469D01*
X123080469Y-89515212D01*
X123126614Y-89435288D01*
X123150500Y-89346144D01*
X123150500Y-89253856D01*
X123149959Y-89251838D01*
X134493205Y-89251838D01*
X134493205Y-89344126D01*
X134513410Y-89419531D01*
X134517092Y-89433272D01*
X134546836Y-89484790D01*
X134563236Y-89513194D01*
X134628493Y-89578451D01*
X134708417Y-89624596D01*
X134797561Y-89648482D01*
X134797563Y-89648482D01*
X134889847Y-89648482D01*
X134889849Y-89648482D01*
X134978993Y-89624596D01*
X135058917Y-89578451D01*
X135124174Y-89513194D01*
X135170319Y-89433270D01*
X135194205Y-89344126D01*
X135194205Y-89251838D01*
X136313205Y-89251838D01*
X136313205Y-89344126D01*
X136333410Y-89419531D01*
X136337092Y-89433272D01*
X136366836Y-89484790D01*
X136383236Y-89513194D01*
X136448493Y-89578451D01*
X136528417Y-89624596D01*
X136617561Y-89648482D01*
X136617563Y-89648482D01*
X136709847Y-89648482D01*
X136709849Y-89648482D01*
X136798993Y-89624596D01*
X136878917Y-89578451D01*
X136944174Y-89513194D01*
X136990319Y-89433270D01*
X137014205Y-89344126D01*
X137014205Y-89251838D01*
X136990319Y-89162694D01*
X136944174Y-89082770D01*
X136878917Y-89017513D01*
X136798993Y-88971368D01*
X136709849Y-88947482D01*
X136617561Y-88947482D01*
X136528417Y-88971368D01*
X136528416Y-88971368D01*
X136528414Y-88971369D01*
X136448495Y-89017511D01*
X136383234Y-89082772D01*
X136337092Y-89162691D01*
X136337091Y-89162693D01*
X136337091Y-89162694D01*
X136313205Y-89251838D01*
X135194205Y-89251838D01*
X135170319Y-89162694D01*
X135124174Y-89082770D01*
X135058917Y-89017513D01*
X134978993Y-88971368D01*
X134889849Y-88947482D01*
X134797561Y-88947482D01*
X134708417Y-88971368D01*
X134708416Y-88971368D01*
X134708414Y-88971369D01*
X134628495Y-89017511D01*
X134563234Y-89082772D01*
X134517092Y-89162691D01*
X134517091Y-89162693D01*
X134517091Y-89162694D01*
X134493205Y-89251838D01*
X123149959Y-89251838D01*
X123126614Y-89164712D01*
X123080469Y-89084788D01*
X123015212Y-89019531D01*
X123011713Y-89017511D01*
X122935290Y-88973387D01*
X122935289Y-88973386D01*
X122935288Y-88973386D01*
X122846144Y-88949500D01*
X122753856Y-88949500D01*
X122664712Y-88973386D01*
X122664711Y-88973386D01*
X122664709Y-88973387D01*
X122584790Y-89019529D01*
X122519529Y-89084790D01*
X122473387Y-89164709D01*
X122473386Y-89164711D01*
X122473386Y-89164712D01*
X122449500Y-89253856D01*
X115748434Y-89253856D01*
X115750500Y-89246144D01*
X115750500Y-89153856D01*
X115726614Y-89064712D01*
X115680469Y-88984788D01*
X115615212Y-88919531D01*
X115535288Y-88873386D01*
X115446144Y-88849500D01*
X115353856Y-88849500D01*
X115264712Y-88873386D01*
X115264711Y-88873386D01*
X115264709Y-88873387D01*
X115184790Y-88919529D01*
X115119529Y-88984790D01*
X115073387Y-89064709D01*
X115073386Y-89064711D01*
X115073386Y-89064712D01*
X115049500Y-89153856D01*
X107726819Y-89153856D01*
X107207189Y-88253856D01*
X124349500Y-88253856D01*
X124349500Y-88346144D01*
X124373386Y-88435288D01*
X124419531Y-88515212D01*
X124484788Y-88580469D01*
X124564712Y-88626614D01*
X124653856Y-88650500D01*
X124653858Y-88650500D01*
X124746142Y-88650500D01*
X124746144Y-88650500D01*
X124835288Y-88626614D01*
X124915212Y-88580469D01*
X124929998Y-88565682D01*
X124984513Y-88537907D01*
X125044945Y-88547478D01*
X125070000Y-88565681D01*
X125084788Y-88580469D01*
X125164712Y-88626614D01*
X125253856Y-88650500D01*
X125253858Y-88650500D01*
X125346142Y-88650500D01*
X125346144Y-88650500D01*
X125435288Y-88626614D01*
X125515212Y-88580469D01*
X125580469Y-88515212D01*
X125626614Y-88435288D01*
X125650500Y-88346144D01*
X125650500Y-88334562D01*
X149341410Y-88334562D01*
X149341410Y-88426850D01*
X149365296Y-88515994D01*
X149365297Y-88515996D01*
X149383473Y-88547478D01*
X149411441Y-88595918D01*
X149476698Y-88661175D01*
X149556622Y-88707320D01*
X149645766Y-88731206D01*
X149645768Y-88731206D01*
X149738052Y-88731206D01*
X149738054Y-88731206D01*
X149827198Y-88707320D01*
X149907122Y-88661175D01*
X149972379Y-88595918D01*
X150018524Y-88515994D01*
X150042410Y-88426850D01*
X150042410Y-88334562D01*
X150018524Y-88245418D01*
X149972379Y-88165494D01*
X149907122Y-88100237D01*
X149827198Y-88054092D01*
X149738054Y-88030206D01*
X149645766Y-88030206D01*
X149556622Y-88054092D01*
X149556621Y-88054092D01*
X149556619Y-88054093D01*
X149476700Y-88100235D01*
X149411439Y-88165496D01*
X149365297Y-88245415D01*
X149365296Y-88245417D01*
X149365296Y-88245418D01*
X149341410Y-88334562D01*
X125650500Y-88334562D01*
X125650500Y-88253856D01*
X125626614Y-88164712D01*
X125580469Y-88084788D01*
X125515212Y-88019531D01*
X125444062Y-87978452D01*
X125435290Y-87973387D01*
X125435289Y-87973386D01*
X125435288Y-87973386D01*
X125346144Y-87949500D01*
X125253856Y-87949500D01*
X125164712Y-87973386D01*
X125164711Y-87973386D01*
X125164709Y-87973387D01*
X125084790Y-88019529D01*
X125084788Y-88019530D01*
X125084788Y-88019531D01*
X125070001Y-88034317D01*
X125015487Y-88062093D01*
X124955055Y-88052522D01*
X124929999Y-88034318D01*
X124915212Y-88019531D01*
X124844062Y-87978452D01*
X124835290Y-87973387D01*
X124835289Y-87973386D01*
X124835288Y-87973386D01*
X124746144Y-87949500D01*
X124653856Y-87949500D01*
X124564712Y-87973386D01*
X124564711Y-87973386D01*
X124564709Y-87973387D01*
X124484790Y-88019529D01*
X124419529Y-88084790D01*
X124373387Y-88164709D01*
X124373386Y-88164711D01*
X124373386Y-88164712D01*
X124349500Y-88253856D01*
X107207189Y-88253856D01*
X107118494Y-88100237D01*
X106758581Y-87476868D01*
X106733747Y-87433856D01*
X114379500Y-87433856D01*
X114379500Y-87526144D01*
X114403386Y-87615288D01*
X114403387Y-87615290D01*
X114424488Y-87651838D01*
X114449531Y-87695212D01*
X114514788Y-87760469D01*
X114594712Y-87806614D01*
X114683856Y-87830500D01*
X114683858Y-87830500D01*
X114776142Y-87830500D01*
X114776144Y-87830500D01*
X114865288Y-87806614D01*
X114945212Y-87760469D01*
X115010469Y-87695212D01*
X115056614Y-87615288D01*
X115080500Y-87526144D01*
X115080500Y-87433856D01*
X115056614Y-87344712D01*
X115010469Y-87264788D01*
X114945212Y-87199531D01*
X114912196Y-87180469D01*
X114865290Y-87153387D01*
X114865289Y-87153386D01*
X114865288Y-87153386D01*
X114776144Y-87129500D01*
X114683856Y-87129500D01*
X114594712Y-87153386D01*
X114594711Y-87153386D01*
X114594709Y-87153387D01*
X114514790Y-87199529D01*
X114449529Y-87264790D01*
X114403387Y-87344709D01*
X114403386Y-87344711D01*
X114403386Y-87344712D01*
X114379500Y-87433856D01*
X106733747Y-87433856D01*
X106142803Y-86410340D01*
X106116466Y-86364725D01*
X117748147Y-86364725D01*
X117748147Y-86589110D01*
X117783245Y-86810718D01*
X117852584Y-87024120D01*
X117931219Y-87178451D01*
X117954450Y-87224043D01*
X118086336Y-87405569D01*
X118244996Y-87564229D01*
X118426522Y-87696115D01*
X118626445Y-87797981D01*
X118839842Y-87867318D01*
X118839843Y-87867318D01*
X118839846Y-87867319D01*
X119061455Y-87902418D01*
X119061458Y-87902418D01*
X119285839Y-87902418D01*
X119507447Y-87867319D01*
X119507448Y-87867318D01*
X119507452Y-87867318D01*
X119720849Y-87797981D01*
X119920772Y-87696115D01*
X120102298Y-87564229D01*
X120260958Y-87405569D01*
X120392844Y-87224043D01*
X120494710Y-87024120D01*
X120550688Y-86851838D01*
X129753205Y-86851838D01*
X129753205Y-86944126D01*
X129777091Y-87033270D01*
X129777092Y-87033272D01*
X129806836Y-87084790D01*
X129823236Y-87113194D01*
X129888493Y-87178451D01*
X129968417Y-87224596D01*
X130057561Y-87248482D01*
X130057563Y-87248482D01*
X130149847Y-87248482D01*
X130149849Y-87248482D01*
X130238993Y-87224596D01*
X130318917Y-87178451D01*
X130384174Y-87113194D01*
X130430319Y-87033270D01*
X130454205Y-86944126D01*
X130454205Y-86851838D01*
X130430319Y-86762694D01*
X130384174Y-86682770D01*
X130318917Y-86617513D01*
X130318910Y-86617509D01*
X130238995Y-86571369D01*
X130238994Y-86571368D01*
X130238993Y-86571368D01*
X130149849Y-86547482D01*
X130057561Y-86547482D01*
X129968417Y-86571368D01*
X129968416Y-86571368D01*
X129968414Y-86571369D01*
X129888495Y-86617511D01*
X129823234Y-86682772D01*
X129777092Y-86762691D01*
X129777091Y-86762693D01*
X129777091Y-86762694D01*
X129753205Y-86851838D01*
X120550688Y-86851838D01*
X120564047Y-86810723D01*
X120564048Y-86810718D01*
X120599147Y-86589110D01*
X120599147Y-86364724D01*
X120599146Y-86364719D01*
X120598850Y-86362846D01*
X120597426Y-86353856D01*
X127849500Y-86353856D01*
X127849500Y-86446144D01*
X127873386Y-86535288D01*
X127873387Y-86535290D01*
X127904460Y-86589110D01*
X127919531Y-86615212D01*
X127984788Y-86680469D01*
X128064712Y-86726614D01*
X128153856Y-86750500D01*
X128153858Y-86750500D01*
X128246143Y-86750500D01*
X128246144Y-86750500D01*
X128335288Y-86726614D01*
X128415212Y-86680469D01*
X128480469Y-86615212D01*
X128526614Y-86535288D01*
X128550500Y-86446144D01*
X128550500Y-86353856D01*
X128526614Y-86264712D01*
X128480469Y-86184788D01*
X128415212Y-86119531D01*
X128338949Y-86075500D01*
X128335290Y-86073387D01*
X128335289Y-86073386D01*
X128335288Y-86073386D01*
X128246144Y-86049500D01*
X128153856Y-86049500D01*
X128064712Y-86073386D01*
X128064711Y-86073386D01*
X128064709Y-86073387D01*
X127984790Y-86119529D01*
X127919529Y-86184790D01*
X127873387Y-86264709D01*
X127873386Y-86264711D01*
X127873386Y-86264712D01*
X127849500Y-86353856D01*
X120597426Y-86353856D01*
X120564048Y-86143117D01*
X120564047Y-86143113D01*
X120494710Y-85929716D01*
X120392844Y-85729793D01*
X120260958Y-85548267D01*
X120102298Y-85389607D01*
X119920772Y-85257721D01*
X119920771Y-85257720D01*
X119920769Y-85257719D01*
X119720849Y-85155855D01*
X119507447Y-85086516D01*
X119285839Y-85051418D01*
X119285836Y-85051418D01*
X119061458Y-85051418D01*
X119061455Y-85051418D01*
X118839846Y-85086516D01*
X118626444Y-85155855D01*
X118426524Y-85257719D01*
X118244997Y-85389606D01*
X118086335Y-85548268D01*
X117954448Y-85729795D01*
X117852584Y-85929715D01*
X117783245Y-86143117D01*
X117748147Y-86364725D01*
X106116466Y-86364725D01*
X105012028Y-84451838D01*
X128953205Y-84451838D01*
X128953205Y-84544126D01*
X128971733Y-84613272D01*
X128977092Y-84633272D01*
X128977968Y-84634790D01*
X129023236Y-84713194D01*
X129088493Y-84778451D01*
X129088495Y-84778452D01*
X129147026Y-84812246D01*
X129187966Y-84857716D01*
X129194361Y-84918566D01*
X129163768Y-84971554D01*
X129147026Y-84983718D01*
X129088495Y-85017511D01*
X129023234Y-85082772D01*
X128977092Y-85162691D01*
X128977091Y-85162693D01*
X128977091Y-85162694D01*
X128953205Y-85251838D01*
X128953205Y-85344126D01*
X128977091Y-85433270D01*
X128977092Y-85433272D01*
X129021270Y-85509790D01*
X129023236Y-85513194D01*
X129088493Y-85578451D01*
X129088495Y-85578452D01*
X129147026Y-85612246D01*
X129187966Y-85657716D01*
X129194361Y-85718566D01*
X129163768Y-85771554D01*
X129147026Y-85783718D01*
X129088495Y-85817511D01*
X129023234Y-85882772D01*
X128977092Y-85962691D01*
X128977091Y-85962693D01*
X128977091Y-85962694D01*
X128953205Y-86051838D01*
X128953205Y-86144126D01*
X128964101Y-86184790D01*
X128977092Y-86233272D01*
X128995242Y-86264709D01*
X129023236Y-86313194D01*
X129088493Y-86378451D01*
X129168417Y-86424596D01*
X129257561Y-86448482D01*
X129257563Y-86448482D01*
X129349847Y-86448482D01*
X129349849Y-86448482D01*
X129438993Y-86424596D01*
X129518917Y-86378451D01*
X129584174Y-86313194D01*
X129630319Y-86233270D01*
X129654205Y-86144126D01*
X129654205Y-86051838D01*
X129630319Y-85962694D01*
X129584174Y-85882770D01*
X129518917Y-85817513D01*
X129518914Y-85817511D01*
X129518912Y-85817509D01*
X129460384Y-85783718D01*
X129419443Y-85738249D01*
X129413047Y-85677398D01*
X129443640Y-85624410D01*
X129460384Y-85612246D01*
X129518912Y-85578454D01*
X129518912Y-85578453D01*
X129518917Y-85578451D01*
X129584174Y-85513194D01*
X129586139Y-85509790D01*
X129617969Y-85454661D01*
X129663438Y-85413720D01*
X129724289Y-85407324D01*
X129777277Y-85437917D01*
X129789441Y-85454661D01*
X129823232Y-85513189D01*
X129823234Y-85513191D01*
X129823236Y-85513194D01*
X129888493Y-85578451D01*
X129968417Y-85624596D01*
X130057561Y-85648482D01*
X130057563Y-85648482D01*
X130149847Y-85648482D01*
X130149849Y-85648482D01*
X130238993Y-85624596D01*
X130318917Y-85578451D01*
X130384174Y-85513194D01*
X130430319Y-85433270D01*
X130454205Y-85344126D01*
X130454205Y-85251838D01*
X130430319Y-85162694D01*
X130384174Y-85082770D01*
X130318917Y-85017513D01*
X130318910Y-85017509D01*
X130238995Y-84971369D01*
X130238994Y-84971368D01*
X130238993Y-84971368D01*
X130149849Y-84947482D01*
X130057561Y-84947482D01*
X129968417Y-84971368D01*
X129968416Y-84971368D01*
X129968414Y-84971369D01*
X129888495Y-85017511D01*
X129823234Y-85082772D01*
X129789441Y-85141303D01*
X129743971Y-85182243D01*
X129683121Y-85188638D01*
X129630133Y-85158045D01*
X129617969Y-85141303D01*
X129584175Y-85082772D01*
X129584174Y-85082770D01*
X129518917Y-85017513D01*
X129518914Y-85017511D01*
X129518912Y-85017509D01*
X129460384Y-84983718D01*
X129419443Y-84938249D01*
X129413047Y-84877398D01*
X129443640Y-84824410D01*
X129460384Y-84812246D01*
X129518912Y-84778454D01*
X129518912Y-84778453D01*
X129518917Y-84778451D01*
X129584174Y-84713194D01*
X129630319Y-84633270D01*
X129654205Y-84544126D01*
X129654205Y-84451838D01*
X131353205Y-84451838D01*
X131353205Y-84544126D01*
X131371733Y-84613272D01*
X131377092Y-84633272D01*
X131377968Y-84634790D01*
X131423236Y-84713194D01*
X131488493Y-84778451D01*
X131488495Y-84778452D01*
X131547026Y-84812246D01*
X131587966Y-84857716D01*
X131594361Y-84918566D01*
X131563768Y-84971554D01*
X131547026Y-84983718D01*
X131488495Y-85017511D01*
X131423234Y-85082772D01*
X131377092Y-85162691D01*
X131377091Y-85162693D01*
X131377091Y-85162694D01*
X131353205Y-85251838D01*
X131353205Y-85344126D01*
X131377091Y-85433270D01*
X131377092Y-85433272D01*
X131421270Y-85509790D01*
X131423236Y-85513194D01*
X131488493Y-85578451D01*
X131488495Y-85578452D01*
X131547026Y-85612246D01*
X131587966Y-85657716D01*
X131594361Y-85718566D01*
X131563768Y-85771554D01*
X131547026Y-85783718D01*
X131488495Y-85817511D01*
X131423234Y-85882772D01*
X131377092Y-85962691D01*
X131377091Y-85962693D01*
X131377091Y-85962694D01*
X131353205Y-86051838D01*
X131353205Y-86144126D01*
X131364101Y-86184790D01*
X131377092Y-86233272D01*
X131395242Y-86264709D01*
X131423236Y-86313194D01*
X131488493Y-86378451D01*
X131488495Y-86378452D01*
X131547026Y-86412246D01*
X131587966Y-86457716D01*
X131594361Y-86518566D01*
X131563768Y-86571554D01*
X131547026Y-86583718D01*
X131488495Y-86617511D01*
X131423234Y-86682772D01*
X131377092Y-86762691D01*
X131377091Y-86762693D01*
X131377091Y-86762694D01*
X131353205Y-86851838D01*
X131353205Y-86944126D01*
X131377091Y-87033270D01*
X131377092Y-87033272D01*
X131406836Y-87084790D01*
X131423236Y-87113194D01*
X131488493Y-87178451D01*
X131568417Y-87224596D01*
X131657561Y-87248482D01*
X131657563Y-87248482D01*
X131749847Y-87248482D01*
X131749849Y-87248482D01*
X131838993Y-87224596D01*
X131918917Y-87178451D01*
X131984174Y-87113194D01*
X131984177Y-87113189D01*
X132017969Y-87054661D01*
X132063438Y-87013720D01*
X132124289Y-87007324D01*
X132177277Y-87037917D01*
X132189441Y-87054661D01*
X132223232Y-87113189D01*
X132223234Y-87113191D01*
X132223236Y-87113194D01*
X132288493Y-87178451D01*
X132288495Y-87178452D01*
X132347026Y-87212246D01*
X132387966Y-87257716D01*
X132394361Y-87318566D01*
X132363768Y-87371554D01*
X132347026Y-87383718D01*
X132288495Y-87417511D01*
X132223234Y-87482772D01*
X132177092Y-87562691D01*
X132177091Y-87562693D01*
X132177091Y-87562694D01*
X132153205Y-87651838D01*
X132153205Y-87744126D01*
X132169949Y-87806614D01*
X132177092Y-87833272D01*
X132196749Y-87867319D01*
X132223236Y-87913194D01*
X132288493Y-87978451D01*
X132368417Y-88024596D01*
X132457561Y-88048482D01*
X132457563Y-88048482D01*
X132549847Y-88048482D01*
X132549849Y-88048482D01*
X132638993Y-88024596D01*
X132718917Y-87978451D01*
X132784174Y-87913194D01*
X132790396Y-87902418D01*
X132817969Y-87854661D01*
X132863438Y-87813720D01*
X132924289Y-87807324D01*
X132977277Y-87837917D01*
X132989441Y-87854661D01*
X133023232Y-87913189D01*
X133023234Y-87913191D01*
X133023236Y-87913194D01*
X133088493Y-87978451D01*
X133168417Y-88024596D01*
X133257561Y-88048482D01*
X133257563Y-88048482D01*
X133349847Y-88048482D01*
X133349849Y-88048482D01*
X133438993Y-88024596D01*
X133518917Y-87978451D01*
X133584174Y-87913194D01*
X133630319Y-87833270D01*
X133654205Y-87744126D01*
X133654205Y-87651838D01*
X133630319Y-87562694D01*
X133584174Y-87482770D01*
X133518917Y-87417513D01*
X133518910Y-87417509D01*
X133438995Y-87371369D01*
X133438994Y-87371368D01*
X133438993Y-87371368D01*
X133349849Y-87347482D01*
X133257561Y-87347482D01*
X133168417Y-87371368D01*
X133168416Y-87371368D01*
X133168414Y-87371369D01*
X133088495Y-87417511D01*
X133023234Y-87482772D01*
X132989441Y-87541303D01*
X132943971Y-87582243D01*
X132883121Y-87588638D01*
X132830133Y-87558045D01*
X132817969Y-87541303D01*
X132784175Y-87482772D01*
X132784174Y-87482770D01*
X132718917Y-87417513D01*
X132718914Y-87417511D01*
X132718912Y-87417509D01*
X132660384Y-87383718D01*
X132619443Y-87338249D01*
X132613047Y-87277398D01*
X132643640Y-87224410D01*
X132660384Y-87212246D01*
X132718912Y-87178454D01*
X132718912Y-87178453D01*
X132718917Y-87178451D01*
X132784174Y-87113194D01*
X132830319Y-87033270D01*
X132854205Y-86944126D01*
X132854205Y-86851838D01*
X133753205Y-86851838D01*
X133753205Y-86944126D01*
X133777091Y-87033270D01*
X133777092Y-87033272D01*
X133806836Y-87084790D01*
X133823236Y-87113194D01*
X133888493Y-87178451D01*
X133968417Y-87224596D01*
X134057561Y-87248482D01*
X134057563Y-87248482D01*
X134149847Y-87248482D01*
X134149849Y-87248482D01*
X134238993Y-87224596D01*
X134318917Y-87178451D01*
X134384174Y-87113194D01*
X134384177Y-87113189D01*
X134417969Y-87054661D01*
X134463438Y-87013720D01*
X134524289Y-87007324D01*
X134577277Y-87037917D01*
X134589441Y-87054661D01*
X134623232Y-87113189D01*
X134623234Y-87113191D01*
X134623236Y-87113194D01*
X134688493Y-87178451D01*
X134688495Y-87178452D01*
X134747026Y-87212246D01*
X134787966Y-87257716D01*
X134794361Y-87318566D01*
X134763768Y-87371554D01*
X134747026Y-87383718D01*
X134688495Y-87417511D01*
X134623234Y-87482772D01*
X134577092Y-87562691D01*
X134577091Y-87562693D01*
X134577091Y-87562694D01*
X134553205Y-87651838D01*
X134553205Y-87744126D01*
X134569949Y-87806614D01*
X134577092Y-87833272D01*
X134596749Y-87867319D01*
X134623236Y-87913194D01*
X134688493Y-87978451D01*
X134768417Y-88024596D01*
X134857561Y-88048482D01*
X134857563Y-88048482D01*
X134949847Y-88048482D01*
X134949849Y-88048482D01*
X135038993Y-88024596D01*
X135118917Y-87978451D01*
X135184174Y-87913194D01*
X135230319Y-87833270D01*
X135254205Y-87744126D01*
X135254205Y-87651838D01*
X135230319Y-87562694D01*
X135184174Y-87482770D01*
X135118917Y-87417513D01*
X135118914Y-87417511D01*
X135118912Y-87417509D01*
X135060384Y-87383718D01*
X135054622Y-87377319D01*
X135046621Y-87374132D01*
X135034556Y-87355034D01*
X135019443Y-87338249D01*
X135018542Y-87329684D01*
X135013943Y-87322403D01*
X135015408Y-87299862D01*
X135013047Y-87277398D01*
X135017353Y-87269939D01*
X135017912Y-87261346D01*
X135024391Y-87253856D01*
X135749500Y-87253856D01*
X135749500Y-87346144D01*
X135773003Y-87433857D01*
X135773387Y-87435290D01*
X135797392Y-87476868D01*
X135819531Y-87515212D01*
X135884788Y-87580469D01*
X135964712Y-87626614D01*
X136053856Y-87650500D01*
X136053858Y-87650500D01*
X136054205Y-87650500D01*
X136054442Y-87650577D01*
X136060290Y-87651347D01*
X136060147Y-87652430D01*
X136112396Y-87669407D01*
X136148360Y-87718907D01*
X136151355Y-87737823D01*
X136152358Y-87737692D01*
X136153204Y-87744123D01*
X136153205Y-87744126D01*
X136167635Y-87797981D01*
X136177092Y-87833272D01*
X136196749Y-87867319D01*
X136223236Y-87913194D01*
X136288493Y-87978451D01*
X136368417Y-88024596D01*
X136457561Y-88048482D01*
X136457563Y-88048482D01*
X136549847Y-88048482D01*
X136549849Y-88048482D01*
X136638993Y-88024596D01*
X136718917Y-87978451D01*
X136784174Y-87913194D01*
X136830319Y-87833270D01*
X136854205Y-87744126D01*
X136854205Y-87651838D01*
X136830319Y-87562694D01*
X136784174Y-87482770D01*
X136718917Y-87417513D01*
X136718914Y-87417511D01*
X136718912Y-87417509D01*
X136660384Y-87383718D01*
X136619443Y-87338249D01*
X136613047Y-87277398D01*
X136643640Y-87224410D01*
X136660384Y-87212246D01*
X136718912Y-87178454D01*
X136718912Y-87178453D01*
X136718917Y-87178451D01*
X136784174Y-87113194D01*
X136830319Y-87033270D01*
X136854205Y-86944126D01*
X136854205Y-86851838D01*
X136830319Y-86762694D01*
X136784174Y-86682770D01*
X136718917Y-86617513D01*
X136718910Y-86617509D01*
X136638995Y-86571369D01*
X136638994Y-86571368D01*
X136638993Y-86571368D01*
X136566106Y-86551838D01*
X140103205Y-86551838D01*
X140103205Y-86644126D01*
X140114101Y-86684790D01*
X140127092Y-86733272D01*
X140145242Y-86764709D01*
X140173236Y-86813194D01*
X140238493Y-86878451D01*
X140318417Y-86924596D01*
X140407561Y-86948482D01*
X140407563Y-86948482D01*
X140499847Y-86948482D01*
X140499849Y-86948482D01*
X140588993Y-86924596D01*
X140668917Y-86878451D01*
X140693512Y-86853856D01*
X142749500Y-86853856D01*
X142749500Y-86946144D01*
X142772846Y-87033272D01*
X142773387Y-87035290D01*
X142801966Y-87084790D01*
X142819531Y-87115212D01*
X142884788Y-87180469D01*
X142964712Y-87226614D01*
X143053856Y-87250500D01*
X143053858Y-87250500D01*
X143146142Y-87250500D01*
X143146144Y-87250500D01*
X143235288Y-87226614D01*
X143315212Y-87180469D01*
X143380469Y-87115212D01*
X143381637Y-87113189D01*
X143414264Y-87056679D01*
X143459733Y-87015738D01*
X143520584Y-87009342D01*
X143573572Y-87039935D01*
X143585736Y-87056679D01*
X143619527Y-87115207D01*
X143619529Y-87115209D01*
X143619531Y-87115212D01*
X143684788Y-87180469D01*
X143764712Y-87226614D01*
X143853856Y-87250500D01*
X143853858Y-87250500D01*
X143946142Y-87250500D01*
X143946144Y-87250500D01*
X144035288Y-87226614D01*
X144115212Y-87180469D01*
X144180469Y-87115212D01*
X144226614Y-87035288D01*
X144250500Y-86946144D01*
X144250500Y-86853856D01*
X144226614Y-86764712D01*
X144180469Y-86684788D01*
X144115212Y-86619531D01*
X144111713Y-86617511D01*
X144035290Y-86573387D01*
X144035289Y-86573386D01*
X144035288Y-86573386D01*
X143946144Y-86549500D01*
X143853856Y-86549500D01*
X143764712Y-86573386D01*
X143764711Y-86573386D01*
X143764709Y-86573387D01*
X143684790Y-86619529D01*
X143619529Y-86684790D01*
X143585736Y-86743321D01*
X143540266Y-86784261D01*
X143479416Y-86790656D01*
X143426428Y-86760063D01*
X143414264Y-86743321D01*
X143380470Y-86684790D01*
X143380469Y-86684788D01*
X143315212Y-86619531D01*
X143311713Y-86617511D01*
X143235290Y-86573387D01*
X143235289Y-86573386D01*
X143235288Y-86573386D01*
X143146144Y-86549500D01*
X143053856Y-86549500D01*
X142964712Y-86573386D01*
X142964711Y-86573386D01*
X142964709Y-86573387D01*
X142884790Y-86619529D01*
X142819529Y-86684790D01*
X142773387Y-86764709D01*
X142773386Y-86764711D01*
X142773386Y-86764712D01*
X142749500Y-86853856D01*
X140693512Y-86853856D01*
X140734174Y-86813194D01*
X140780319Y-86733270D01*
X140804205Y-86644126D01*
X140804205Y-86551838D01*
X140780319Y-86462694D01*
X140734174Y-86382770D01*
X140668917Y-86317513D01*
X140661436Y-86313194D01*
X140588995Y-86271369D01*
X140588994Y-86271368D01*
X140588993Y-86271368D01*
X140499849Y-86247482D01*
X140407561Y-86247482D01*
X140318417Y-86271368D01*
X140318416Y-86271368D01*
X140318414Y-86271369D01*
X140238495Y-86317511D01*
X140173234Y-86382772D01*
X140127092Y-86462691D01*
X140127091Y-86462693D01*
X140127091Y-86462694D01*
X140103205Y-86551838D01*
X136566106Y-86551838D01*
X136549849Y-86547482D01*
X136457561Y-86547482D01*
X136368417Y-86571368D01*
X136368416Y-86571368D01*
X136368414Y-86571369D01*
X136288495Y-86617511D01*
X136223234Y-86682772D01*
X136177092Y-86762691D01*
X136153204Y-86851840D01*
X136152358Y-86858272D01*
X136150748Y-86858060D01*
X136134298Y-86908691D01*
X136084798Y-86944655D01*
X136060274Y-86948538D01*
X136060290Y-86948653D01*
X136055920Y-86949228D01*
X136054205Y-86949500D01*
X136053856Y-86949500D01*
X135964712Y-86973386D01*
X135964711Y-86973386D01*
X135964709Y-86973387D01*
X135884790Y-87019529D01*
X135819529Y-87084790D01*
X135773387Y-87164709D01*
X135773386Y-87164711D01*
X135773386Y-87164712D01*
X135749500Y-87253856D01*
X135024391Y-87253856D01*
X135031151Y-87246040D01*
X135043640Y-87224410D01*
X135057011Y-87214283D01*
X135058664Y-87213238D01*
X135118917Y-87178451D01*
X135184174Y-87113194D01*
X135230319Y-87033270D01*
X135254205Y-86944126D01*
X135254205Y-86851838D01*
X135230319Y-86762694D01*
X135184174Y-86682770D01*
X135118917Y-86617513D01*
X135118910Y-86617509D01*
X135038995Y-86571369D01*
X135038994Y-86571368D01*
X135038993Y-86571368D01*
X134949849Y-86547482D01*
X134857561Y-86547482D01*
X134768417Y-86571368D01*
X134768416Y-86571368D01*
X134768414Y-86571369D01*
X134688495Y-86617511D01*
X134623234Y-86682772D01*
X134589441Y-86741303D01*
X134543971Y-86782243D01*
X134483121Y-86788638D01*
X134430133Y-86758045D01*
X134417969Y-86741303D01*
X134384175Y-86682772D01*
X134384174Y-86682770D01*
X134318917Y-86617513D01*
X134318910Y-86617509D01*
X134238995Y-86571369D01*
X134238994Y-86571368D01*
X134238993Y-86571368D01*
X134149849Y-86547482D01*
X134057561Y-86547482D01*
X133968417Y-86571368D01*
X133968416Y-86571368D01*
X133968414Y-86571369D01*
X133888495Y-86617511D01*
X133823234Y-86682772D01*
X133777092Y-86762691D01*
X133777091Y-86762693D01*
X133777091Y-86762694D01*
X133753205Y-86851838D01*
X132854205Y-86851838D01*
X132830319Y-86762694D01*
X132784174Y-86682770D01*
X132718917Y-86617513D01*
X132718914Y-86617511D01*
X132718912Y-86617509D01*
X132660384Y-86583718D01*
X132619443Y-86538249D01*
X132613047Y-86477398D01*
X132643640Y-86424410D01*
X132660384Y-86412246D01*
X132718912Y-86378454D01*
X132718912Y-86378453D01*
X132718917Y-86378451D01*
X132784174Y-86313194D01*
X132830319Y-86233270D01*
X132854205Y-86144126D01*
X132854205Y-86051838D01*
X132830319Y-85962694D01*
X132784174Y-85882770D01*
X132718917Y-85817513D01*
X132718910Y-85817509D01*
X132638995Y-85771369D01*
X132638994Y-85771368D01*
X132638993Y-85771368D01*
X132549849Y-85747482D01*
X132457561Y-85747482D01*
X132368417Y-85771368D01*
X132368416Y-85771368D01*
X132368414Y-85771369D01*
X132288495Y-85817511D01*
X132223234Y-85882772D01*
X132189441Y-85941303D01*
X132143971Y-85982243D01*
X132083121Y-85988638D01*
X132030133Y-85958045D01*
X132017969Y-85941303D01*
X131984175Y-85882772D01*
X131984174Y-85882770D01*
X131918917Y-85817513D01*
X131918914Y-85817511D01*
X131918912Y-85817509D01*
X131860384Y-85783718D01*
X131819443Y-85738249D01*
X131813200Y-85678856D01*
X140674500Y-85678856D01*
X140674500Y-85771144D01*
X140698386Y-85860288D01*
X140744531Y-85940212D01*
X140809788Y-86005469D01*
X140889712Y-86051614D01*
X140978856Y-86075500D01*
X140978858Y-86075500D01*
X141071142Y-86075500D01*
X141071144Y-86075500D01*
X141160288Y-86051614D01*
X141240212Y-86005469D01*
X141305469Y-85940212D01*
X141351614Y-85860288D01*
X141375500Y-85771144D01*
X141375500Y-85678856D01*
X141351614Y-85589712D01*
X141305469Y-85509788D01*
X141240212Y-85444531D01*
X141228756Y-85437917D01*
X141160290Y-85398387D01*
X141160289Y-85398386D01*
X141160288Y-85398386D01*
X141071144Y-85374500D01*
X140978856Y-85374500D01*
X140889712Y-85398386D01*
X140889711Y-85398386D01*
X140889709Y-85398387D01*
X140809790Y-85444529D01*
X140744529Y-85509790D01*
X140698387Y-85589709D01*
X140698386Y-85589711D01*
X140698386Y-85589712D01*
X140674500Y-85678856D01*
X131813200Y-85678856D01*
X131813047Y-85677398D01*
X131843640Y-85624410D01*
X131860384Y-85612246D01*
X131918912Y-85578454D01*
X131918912Y-85578453D01*
X131918917Y-85578451D01*
X131984174Y-85513194D01*
X132030319Y-85433270D01*
X132054205Y-85344126D01*
X132054205Y-85251838D01*
X132030319Y-85162694D01*
X131984174Y-85082770D01*
X131918917Y-85017513D01*
X131918914Y-85017511D01*
X131918912Y-85017509D01*
X131860384Y-84983718D01*
X131819443Y-84938249D01*
X131813047Y-84877398D01*
X131843640Y-84824410D01*
X131860384Y-84812246D01*
X131918912Y-84778454D01*
X131918912Y-84778453D01*
X131918917Y-84778451D01*
X131984174Y-84713194D01*
X132030319Y-84633270D01*
X132054205Y-84544126D01*
X132054205Y-84451838D01*
X132030319Y-84362694D01*
X131984174Y-84282770D01*
X131918917Y-84217513D01*
X131918910Y-84217509D01*
X131838995Y-84171369D01*
X131838994Y-84171368D01*
X131838993Y-84171368D01*
X131749849Y-84147482D01*
X131657561Y-84147482D01*
X131568417Y-84171368D01*
X131568416Y-84171368D01*
X131568414Y-84171369D01*
X131488495Y-84217511D01*
X131423234Y-84282772D01*
X131377092Y-84362691D01*
X131377091Y-84362693D01*
X131377091Y-84362694D01*
X131353205Y-84451838D01*
X129654205Y-84451838D01*
X129630319Y-84362694D01*
X129584174Y-84282770D01*
X129518917Y-84217513D01*
X129518910Y-84217509D01*
X129438995Y-84171369D01*
X129438994Y-84171368D01*
X129438993Y-84171368D01*
X129349849Y-84147482D01*
X129257561Y-84147482D01*
X129168417Y-84171368D01*
X129168416Y-84171368D01*
X129168414Y-84171369D01*
X129088495Y-84217511D01*
X129023234Y-84282772D01*
X128977092Y-84362691D01*
X128977091Y-84362693D01*
X128977091Y-84362694D01*
X128953205Y-84451838D01*
X105012028Y-84451838D01*
X104758004Y-84011868D01*
X104733170Y-83968856D01*
X114379500Y-83968856D01*
X114379500Y-84061144D01*
X114403386Y-84150288D01*
X114403387Y-84150290D01*
X114439703Y-84213191D01*
X114449531Y-84230212D01*
X114514788Y-84295469D01*
X114594712Y-84341614D01*
X114683856Y-84365500D01*
X114683858Y-84365500D01*
X114776142Y-84365500D01*
X114776144Y-84365500D01*
X114865288Y-84341614D01*
X114945212Y-84295469D01*
X115010469Y-84230212D01*
X115056614Y-84150288D01*
X115080500Y-84061144D01*
X115080500Y-83968856D01*
X115056614Y-83879712D01*
X115010469Y-83799788D01*
X114945212Y-83734531D01*
X114927997Y-83724592D01*
X114865290Y-83688387D01*
X114865289Y-83688386D01*
X114865288Y-83688386D01*
X114776144Y-83664500D01*
X114683856Y-83664500D01*
X114594712Y-83688386D01*
X114594711Y-83688386D01*
X114594709Y-83688387D01*
X114514790Y-83734529D01*
X114449529Y-83799790D01*
X114403387Y-83879709D01*
X114403386Y-83879711D01*
X114403386Y-83879712D01*
X114379500Y-83968856D01*
X104733170Y-83968856D01*
X104202364Y-83049500D01*
X104189642Y-82989652D01*
X104202364Y-82950499D01*
X104878832Y-81778856D01*
X114379500Y-81778856D01*
X114379500Y-81871144D01*
X114403386Y-81960288D01*
X114449531Y-82040212D01*
X114514788Y-82105469D01*
X114594712Y-82151614D01*
X114683856Y-82175500D01*
X114683858Y-82175500D01*
X114776142Y-82175500D01*
X114776144Y-82175500D01*
X114865288Y-82151614D01*
X114945212Y-82105469D01*
X115010469Y-82040212D01*
X115056614Y-81960288D01*
X115080500Y-81871144D01*
X115080500Y-81778856D01*
X115056614Y-81689712D01*
X115010469Y-81609788D01*
X114945212Y-81544531D01*
X114865288Y-81498386D01*
X114776144Y-81474500D01*
X114683856Y-81474500D01*
X114594712Y-81498386D01*
X114594711Y-81498386D01*
X114594709Y-81498387D01*
X114514790Y-81544529D01*
X114449529Y-81609790D01*
X114403387Y-81689709D01*
X114403386Y-81689711D01*
X114403386Y-81689712D01*
X114379500Y-81778856D01*
X104878832Y-81778856D01*
X105467180Y-80759838D01*
X115743205Y-80759838D01*
X115743205Y-80852126D01*
X115760108Y-80915209D01*
X115767092Y-80941272D01*
X115812274Y-81019529D01*
X115813236Y-81021194D01*
X115878022Y-81085980D01*
X115905798Y-81140495D01*
X115896227Y-81200927D01*
X115878023Y-81225982D01*
X115813236Y-81290770D01*
X115813234Y-81290772D01*
X115767092Y-81370691D01*
X115767091Y-81370693D01*
X115767091Y-81370694D01*
X115743205Y-81459838D01*
X115743205Y-81552126D01*
X115763164Y-81626614D01*
X115767092Y-81641272D01*
X115795059Y-81689712D01*
X115813236Y-81721194D01*
X115878022Y-81785980D01*
X115905798Y-81840495D01*
X115896227Y-81900927D01*
X115878023Y-81925982D01*
X115843718Y-81960288D01*
X115813234Y-81990772D01*
X115767092Y-82070691D01*
X115767091Y-82070693D01*
X115767091Y-82070694D01*
X115743205Y-82159838D01*
X115743205Y-82252126D01*
X115767091Y-82341270D01*
X115767092Y-82341272D01*
X115788559Y-82378454D01*
X115813236Y-82421194D01*
X115878493Y-82486451D01*
X115958417Y-82532596D01*
X116047561Y-82556482D01*
X116047563Y-82556482D01*
X116139847Y-82556482D01*
X116139849Y-82556482D01*
X116228993Y-82532596D01*
X116308917Y-82486451D01*
X116373703Y-82421664D01*
X116428218Y-82393889D01*
X116488650Y-82403460D01*
X116513705Y-82421663D01*
X116578493Y-82486451D01*
X116658417Y-82532596D01*
X116747561Y-82556482D01*
X116747563Y-82556482D01*
X116839847Y-82556482D01*
X116839849Y-82556482D01*
X116928993Y-82532596D01*
X117008917Y-82486451D01*
X117073703Y-82421664D01*
X117128218Y-82393889D01*
X117188650Y-82403460D01*
X117213705Y-82421663D01*
X117278493Y-82486451D01*
X117358417Y-82532596D01*
X117447561Y-82556482D01*
X117447563Y-82556482D01*
X117539847Y-82556482D01*
X117539849Y-82556482D01*
X117628993Y-82532596D01*
X117708917Y-82486451D01*
X117773703Y-82421664D01*
X117828218Y-82393889D01*
X117888650Y-82403460D01*
X117913705Y-82421663D01*
X117978493Y-82486451D01*
X118058417Y-82532596D01*
X118147561Y-82556482D01*
X118147563Y-82556482D01*
X118239847Y-82556482D01*
X118239849Y-82556482D01*
X118328993Y-82532596D01*
X118408917Y-82486451D01*
X118474174Y-82421194D01*
X118520319Y-82341270D01*
X118544205Y-82252126D01*
X118544205Y-82159838D01*
X118520319Y-82070694D01*
X118509432Y-82051838D01*
X129753205Y-82051838D01*
X129753205Y-82144126D01*
X129767326Y-82196826D01*
X129777092Y-82233272D01*
X129793727Y-82262085D01*
X129823236Y-82313194D01*
X129888493Y-82378451D01*
X129888495Y-82378452D01*
X129947026Y-82412246D01*
X129987966Y-82457716D01*
X129994361Y-82518566D01*
X129963768Y-82571554D01*
X129947026Y-82583718D01*
X129888495Y-82617511D01*
X129823234Y-82682772D01*
X129777092Y-82762691D01*
X129777091Y-82762693D01*
X129777091Y-82762694D01*
X129753205Y-82851838D01*
X129753205Y-82944126D01*
X129777091Y-83033270D01*
X129777092Y-83033272D01*
X129806836Y-83084790D01*
X129823236Y-83113194D01*
X129888493Y-83178451D01*
X129888495Y-83178452D01*
X129947026Y-83212246D01*
X129987966Y-83257716D01*
X129994361Y-83318566D01*
X129963768Y-83371554D01*
X129947026Y-83383718D01*
X129888495Y-83417511D01*
X129823234Y-83482772D01*
X129777092Y-83562691D01*
X129777091Y-83562693D01*
X129777091Y-83562694D01*
X129753205Y-83651838D01*
X129753205Y-83744126D01*
X129774767Y-83824596D01*
X129777092Y-83833272D01*
X129806836Y-83884790D01*
X129823236Y-83913194D01*
X129888493Y-83978451D01*
X129968417Y-84024596D01*
X130057561Y-84048482D01*
X130057563Y-84048482D01*
X130149847Y-84048482D01*
X130149849Y-84048482D01*
X130238993Y-84024596D01*
X130318917Y-83978451D01*
X130384174Y-83913194D01*
X130430319Y-83833270D01*
X130454205Y-83744126D01*
X130454205Y-83651838D01*
X132953205Y-83651838D01*
X132953205Y-83744126D01*
X132974767Y-83824596D01*
X132977092Y-83833272D01*
X133006836Y-83884790D01*
X133023236Y-83913194D01*
X133088493Y-83978451D01*
X133088495Y-83978452D01*
X133147026Y-84012246D01*
X133187966Y-84057716D01*
X133194361Y-84118566D01*
X133163768Y-84171554D01*
X133147026Y-84183718D01*
X133088495Y-84217511D01*
X133023234Y-84282772D01*
X132977092Y-84362691D01*
X132977091Y-84362693D01*
X132977091Y-84362694D01*
X132953205Y-84451838D01*
X132953205Y-84544126D01*
X132971733Y-84613272D01*
X132977092Y-84633272D01*
X132977968Y-84634790D01*
X133023236Y-84713194D01*
X133088493Y-84778451D01*
X133088495Y-84778452D01*
X133147026Y-84812246D01*
X133187966Y-84857716D01*
X133194361Y-84918566D01*
X133163768Y-84971554D01*
X133147026Y-84983718D01*
X133088495Y-85017511D01*
X133023234Y-85082772D01*
X132977092Y-85162691D01*
X132977091Y-85162693D01*
X132977091Y-85162694D01*
X132953205Y-85251838D01*
X132953205Y-85344126D01*
X132977091Y-85433270D01*
X132977092Y-85433272D01*
X133021270Y-85509790D01*
X133023236Y-85513194D01*
X133088493Y-85578451D01*
X133168417Y-85624596D01*
X133257561Y-85648482D01*
X133257563Y-85648482D01*
X133349847Y-85648482D01*
X133349849Y-85648482D01*
X133438993Y-85624596D01*
X133518917Y-85578451D01*
X133584174Y-85513194D01*
X133630319Y-85433270D01*
X133654205Y-85344126D01*
X133654205Y-85299500D01*
X133673112Y-85241309D01*
X133722612Y-85205345D01*
X133753205Y-85200500D01*
X133776142Y-85200500D01*
X133776144Y-85200500D01*
X133865288Y-85176614D01*
X133904705Y-85153856D01*
X145149500Y-85153856D01*
X145149500Y-85246144D01*
X145163797Y-85299500D01*
X145173387Y-85335290D01*
X145218669Y-85413720D01*
X145219531Y-85415212D01*
X145284788Y-85480469D01*
X145364712Y-85526614D01*
X145453856Y-85550500D01*
X145453858Y-85550500D01*
X145546142Y-85550500D01*
X145546144Y-85550500D01*
X145635288Y-85526614D01*
X145715212Y-85480469D01*
X145780469Y-85415212D01*
X145826614Y-85335288D01*
X145850500Y-85246144D01*
X145850500Y-85153856D01*
X145826614Y-85064712D01*
X145780469Y-84984788D01*
X145715212Y-84919531D01*
X145674705Y-84896144D01*
X145635290Y-84873387D01*
X145635289Y-84873386D01*
X145635288Y-84873386D01*
X145546144Y-84849500D01*
X145453856Y-84849500D01*
X145364712Y-84873386D01*
X145364711Y-84873386D01*
X145364709Y-84873387D01*
X145284790Y-84919529D01*
X145219529Y-84984790D01*
X145173387Y-85064709D01*
X145173386Y-85064711D01*
X145173386Y-85064712D01*
X145149500Y-85153856D01*
X133904705Y-85153856D01*
X133945212Y-85130469D01*
X134010469Y-85065212D01*
X134056614Y-84985288D01*
X134080500Y-84896144D01*
X134080500Y-84803856D01*
X134056614Y-84714712D01*
X134010469Y-84634788D01*
X133945212Y-84569531D01*
X133866566Y-84524124D01*
X133865290Y-84523387D01*
X133865289Y-84523386D01*
X133865288Y-84523386D01*
X133776144Y-84499500D01*
X133742941Y-84499500D01*
X133684750Y-84480593D01*
X133648786Y-84431093D01*
X133647321Y-84426147D01*
X133630319Y-84362694D01*
X133584174Y-84282770D01*
X133518917Y-84217513D01*
X133518914Y-84217511D01*
X133518912Y-84217509D01*
X133460384Y-84183718D01*
X133454622Y-84177319D01*
X133446621Y-84174132D01*
X133434556Y-84155034D01*
X133419443Y-84138249D01*
X133418542Y-84129684D01*
X133413943Y-84122403D01*
X133415408Y-84099862D01*
X133413047Y-84077398D01*
X133417353Y-84069939D01*
X133417912Y-84061346D01*
X133424391Y-84053856D01*
X135699500Y-84053856D01*
X135699500Y-84146144D01*
X135722026Y-84230212D01*
X135723387Y-84235290D01*
X135758132Y-84295470D01*
X135769531Y-84315212D01*
X135834788Y-84380469D01*
X135914712Y-84426614D01*
X136003856Y-84450500D01*
X136003858Y-84450500D01*
X136096142Y-84450500D01*
X136096144Y-84450500D01*
X136185288Y-84426614D01*
X136265212Y-84380469D01*
X136330469Y-84315212D01*
X136351693Y-84278452D01*
X136364264Y-84256679D01*
X136409733Y-84215738D01*
X136470584Y-84209342D01*
X136523572Y-84239935D01*
X136535736Y-84256679D01*
X136569527Y-84315207D01*
X136569529Y-84315209D01*
X136569531Y-84315212D01*
X136634788Y-84380469D01*
X136714712Y-84426614D01*
X136803856Y-84450500D01*
X136803858Y-84450500D01*
X136896142Y-84450500D01*
X136896144Y-84450500D01*
X136965792Y-84431838D01*
X141103205Y-84431838D01*
X141103205Y-84524126D01*
X141127091Y-84613270D01*
X141127092Y-84613272D01*
X141139514Y-84634788D01*
X141173236Y-84693194D01*
X141238493Y-84758451D01*
X141318417Y-84804596D01*
X141407561Y-84828482D01*
X141407563Y-84828482D01*
X141499847Y-84828482D01*
X141499849Y-84828482D01*
X141588993Y-84804596D01*
X141668917Y-84758451D01*
X141734174Y-84693194D01*
X141780319Y-84613270D01*
X141804205Y-84524126D01*
X141804205Y-84431838D01*
X141780319Y-84342694D01*
X141734174Y-84262770D01*
X141668917Y-84197513D01*
X141623633Y-84171368D01*
X141588995Y-84151369D01*
X141588994Y-84151368D01*
X141588993Y-84151368D01*
X141499849Y-84127482D01*
X141407561Y-84127482D01*
X141318417Y-84151368D01*
X141318416Y-84151368D01*
X141318414Y-84151369D01*
X141238495Y-84197511D01*
X141173234Y-84262772D01*
X141127092Y-84342691D01*
X141127091Y-84342693D01*
X141127091Y-84342694D01*
X141103205Y-84431838D01*
X136965792Y-84431838D01*
X136985288Y-84426614D01*
X137065212Y-84380469D01*
X137130469Y-84315212D01*
X137176614Y-84235288D01*
X137200500Y-84146144D01*
X137200500Y-84053856D01*
X137176614Y-83964712D01*
X137169181Y-83951838D01*
X143873205Y-83951838D01*
X143873205Y-84044126D01*
X143897091Y-84133270D01*
X143897092Y-84133272D01*
X143926217Y-84183718D01*
X143943236Y-84213194D01*
X144008493Y-84278451D01*
X144088417Y-84324596D01*
X144177561Y-84348482D01*
X144177563Y-84348482D01*
X144269847Y-84348482D01*
X144269849Y-84348482D01*
X144358993Y-84324596D01*
X144438917Y-84278451D01*
X144504174Y-84213194D01*
X144550319Y-84133270D01*
X144574205Y-84044126D01*
X144574205Y-83951838D01*
X144550319Y-83862694D01*
X144504174Y-83782770D01*
X144438917Y-83717513D01*
X144431436Y-83713194D01*
X144358995Y-83671369D01*
X144358994Y-83671368D01*
X144358993Y-83671368D01*
X144269849Y-83647482D01*
X144177561Y-83647482D01*
X144088417Y-83671368D01*
X144088416Y-83671368D01*
X144088414Y-83671369D01*
X144008495Y-83717511D01*
X143943234Y-83782772D01*
X143897092Y-83862691D01*
X143897091Y-83862693D01*
X143897091Y-83862694D01*
X143873205Y-83951838D01*
X137169181Y-83951838D01*
X137130469Y-83884788D01*
X137065212Y-83819531D01*
X137031020Y-83799790D01*
X136985290Y-83773387D01*
X136985289Y-83773386D01*
X136985288Y-83773386D01*
X136896144Y-83749500D01*
X136803856Y-83749500D01*
X136714712Y-83773386D01*
X136714711Y-83773386D01*
X136714709Y-83773387D01*
X136634790Y-83819529D01*
X136569529Y-83884790D01*
X136535736Y-83943321D01*
X136490266Y-83984261D01*
X136429416Y-83990656D01*
X136376428Y-83960063D01*
X136364264Y-83943321D01*
X136330470Y-83884790D01*
X136330469Y-83884788D01*
X136265212Y-83819531D01*
X136231020Y-83799790D01*
X136185290Y-83773387D01*
X136185289Y-83773386D01*
X136185288Y-83773386D01*
X136096144Y-83749500D01*
X136003856Y-83749500D01*
X135914712Y-83773386D01*
X135914711Y-83773386D01*
X135914709Y-83773387D01*
X135834790Y-83819529D01*
X135769529Y-83884790D01*
X135723387Y-83964709D01*
X135723386Y-83964711D01*
X135723386Y-83964712D01*
X135699500Y-84053856D01*
X133424391Y-84053856D01*
X133431151Y-84046040D01*
X133443640Y-84024410D01*
X133457011Y-84014283D01*
X133458664Y-84013238D01*
X133518917Y-83978451D01*
X133584174Y-83913194D01*
X133630319Y-83833270D01*
X133654205Y-83744126D01*
X133654205Y-83651838D01*
X133630319Y-83562694D01*
X133584174Y-83482770D01*
X133518917Y-83417513D01*
X133518910Y-83417509D01*
X133438995Y-83371369D01*
X133438994Y-83371368D01*
X133438993Y-83371368D01*
X133366098Y-83351836D01*
X134953207Y-83351836D01*
X134953207Y-83444124D01*
X134972255Y-83515212D01*
X134977094Y-83533270D01*
X135004345Y-83580470D01*
X135023238Y-83613192D01*
X135088495Y-83678449D01*
X135168419Y-83724594D01*
X135257563Y-83748480D01*
X135257565Y-83748480D01*
X135349849Y-83748480D01*
X135349851Y-83748480D01*
X135438995Y-83724594D01*
X135518919Y-83678449D01*
X135584176Y-83613192D01*
X135630321Y-83533268D01*
X135652140Y-83451838D01*
X143003205Y-83451838D01*
X143003205Y-83544126D01*
X143025307Y-83626612D01*
X143027092Y-83633272D01*
X143053175Y-83678449D01*
X143073236Y-83713194D01*
X143138493Y-83778451D01*
X143218417Y-83824596D01*
X143307561Y-83848482D01*
X143307563Y-83848482D01*
X143399847Y-83848482D01*
X143399849Y-83848482D01*
X143488993Y-83824596D01*
X143568917Y-83778451D01*
X143634174Y-83713194D01*
X143680319Y-83633270D01*
X143704205Y-83544126D01*
X143704205Y-83451838D01*
X143680319Y-83362694D01*
X143634174Y-83282770D01*
X143568917Y-83217513D01*
X143559794Y-83212246D01*
X143488995Y-83171369D01*
X143488994Y-83171368D01*
X143488993Y-83171368D01*
X143399849Y-83147482D01*
X143307561Y-83147482D01*
X143218417Y-83171368D01*
X143218416Y-83171368D01*
X143218414Y-83171369D01*
X143138495Y-83217511D01*
X143073234Y-83282772D01*
X143027092Y-83362691D01*
X143027091Y-83362693D01*
X143027091Y-83362694D01*
X143003205Y-83451838D01*
X135652140Y-83451838D01*
X135654207Y-83444124D01*
X135654207Y-83351836D01*
X135630321Y-83262692D01*
X135584176Y-83182768D01*
X135518919Y-83117511D01*
X135511433Y-83113189D01*
X135438997Y-83071367D01*
X135438996Y-83071366D01*
X135438995Y-83071366D01*
X135349851Y-83047480D01*
X135257563Y-83047480D01*
X135168419Y-83071366D01*
X135168418Y-83071366D01*
X135168416Y-83071367D01*
X135088497Y-83117509D01*
X135023236Y-83182770D01*
X134977094Y-83262689D01*
X134977093Y-83262691D01*
X134977093Y-83262692D01*
X134953207Y-83351836D01*
X133366098Y-83351836D01*
X133349849Y-83347482D01*
X133257561Y-83347482D01*
X133168417Y-83371368D01*
X133168416Y-83371368D01*
X133168414Y-83371369D01*
X133088495Y-83417511D01*
X133023234Y-83482772D01*
X132977092Y-83562691D01*
X132977091Y-83562693D01*
X132977091Y-83562694D01*
X132953205Y-83651838D01*
X130454205Y-83651838D01*
X130430319Y-83562694D01*
X130384174Y-83482770D01*
X130318917Y-83417513D01*
X130318914Y-83417511D01*
X130318912Y-83417509D01*
X130260384Y-83383718D01*
X130219443Y-83338249D01*
X130213047Y-83277398D01*
X130243640Y-83224410D01*
X130260384Y-83212246D01*
X130318912Y-83178454D01*
X130318912Y-83178453D01*
X130318917Y-83178451D01*
X130384174Y-83113194D01*
X130384177Y-83113189D01*
X130417969Y-83054661D01*
X130463438Y-83013720D01*
X130524289Y-83007324D01*
X130577277Y-83037917D01*
X130589441Y-83054661D01*
X130623232Y-83113189D01*
X130623234Y-83113191D01*
X130623236Y-83113194D01*
X130688493Y-83178451D01*
X130768417Y-83224596D01*
X130857561Y-83248482D01*
X130857563Y-83248482D01*
X130900500Y-83248482D01*
X130958691Y-83267389D01*
X130994655Y-83316889D01*
X130998276Y-83339759D01*
X130998653Y-83339710D01*
X130999499Y-83346141D01*
X131006259Y-83371368D01*
X131018623Y-83417513D01*
X131023387Y-83435290D01*
X131028487Y-83444124D01*
X131069531Y-83515212D01*
X131134788Y-83580469D01*
X131214712Y-83626614D01*
X131303856Y-83650500D01*
X131303858Y-83650500D01*
X131396142Y-83650500D01*
X131396144Y-83650500D01*
X131485288Y-83626614D01*
X131565212Y-83580469D01*
X131630469Y-83515212D01*
X131676614Y-83435288D01*
X131700500Y-83346144D01*
X131700500Y-83253856D01*
X131676614Y-83164712D01*
X131630469Y-83084788D01*
X131565212Y-83019531D01*
X131555148Y-83013720D01*
X131485285Y-82973384D01*
X131483947Y-82972830D01*
X131483157Y-82972155D01*
X131479668Y-82970141D01*
X131480041Y-82969494D01*
X131471065Y-82961828D01*
X131455588Y-82954937D01*
X131448381Y-82942454D01*
X131437421Y-82933094D01*
X131433465Y-82916620D01*
X131424995Y-82901949D01*
X131426501Y-82887614D01*
X131423137Y-82873600D01*
X131429619Y-82857947D01*
X131430262Y-82851838D01*
X132153205Y-82851838D01*
X132153205Y-82944126D01*
X132177091Y-83033270D01*
X132177092Y-83033272D01*
X132206836Y-83084790D01*
X132223236Y-83113194D01*
X132288493Y-83178451D01*
X132368417Y-83224596D01*
X132457561Y-83248482D01*
X132457563Y-83248482D01*
X132549847Y-83248482D01*
X132549849Y-83248482D01*
X132638993Y-83224596D01*
X132718917Y-83178451D01*
X132784174Y-83113194D01*
X132830319Y-83033270D01*
X132854205Y-82944126D01*
X132854205Y-82851838D01*
X132830319Y-82762694D01*
X132784174Y-82682770D01*
X132718917Y-82617513D01*
X132718910Y-82617509D01*
X132638995Y-82571369D01*
X132638994Y-82571368D01*
X132638993Y-82571368D01*
X132549849Y-82547482D01*
X132457561Y-82547482D01*
X132368417Y-82571368D01*
X132368416Y-82571368D01*
X132368414Y-82571369D01*
X132288495Y-82617511D01*
X132223234Y-82682772D01*
X132177092Y-82762691D01*
X132177091Y-82762693D01*
X132177091Y-82762694D01*
X132153205Y-82851838D01*
X131430262Y-82851838D01*
X131431391Y-82841099D01*
X131441035Y-82830387D01*
X131446551Y-82817071D01*
X131472327Y-82795632D01*
X131537917Y-82757764D01*
X131603174Y-82692507D01*
X131649319Y-82612583D01*
X131673205Y-82523439D01*
X131673205Y-82431151D01*
X131649319Y-82342007D01*
X131603174Y-82262083D01*
X131537917Y-82196826D01*
X131470619Y-82157971D01*
X131457995Y-82150682D01*
X131457994Y-82150681D01*
X131457993Y-82150681D01*
X131368849Y-82126795D01*
X131276561Y-82126795D01*
X131187417Y-82150681D01*
X131187416Y-82150681D01*
X131187414Y-82150682D01*
X131107495Y-82196824D01*
X131042234Y-82262085D01*
X130996092Y-82342004D01*
X130996091Y-82342006D01*
X130996091Y-82342007D01*
X130973962Y-82424596D01*
X130972205Y-82431152D01*
X130972205Y-82448482D01*
X130953298Y-82506673D01*
X130903798Y-82542637D01*
X130873205Y-82547482D01*
X130857561Y-82547482D01*
X130768417Y-82571368D01*
X130768416Y-82571368D01*
X130768414Y-82571369D01*
X130688495Y-82617511D01*
X130623234Y-82682772D01*
X130589441Y-82741303D01*
X130543971Y-82782243D01*
X130483121Y-82788638D01*
X130430133Y-82758045D01*
X130417969Y-82741303D01*
X130384175Y-82682772D01*
X130384174Y-82682770D01*
X130318917Y-82617513D01*
X130318914Y-82617511D01*
X130318912Y-82617509D01*
X130260384Y-82583718D01*
X130219443Y-82538249D01*
X130213047Y-82477398D01*
X130243640Y-82424410D01*
X130260384Y-82412246D01*
X130318912Y-82378454D01*
X130318912Y-82378453D01*
X130318917Y-82378451D01*
X130384174Y-82313194D01*
X130430319Y-82233270D01*
X130454205Y-82144126D01*
X130454205Y-82051838D01*
X132953205Y-82051838D01*
X132953205Y-82144126D01*
X132967326Y-82196826D01*
X132977092Y-82233272D01*
X132993727Y-82262085D01*
X133023236Y-82313194D01*
X133088493Y-82378451D01*
X133168417Y-82424596D01*
X133257561Y-82448482D01*
X133257563Y-82448482D01*
X133349847Y-82448482D01*
X133349849Y-82448482D01*
X133438993Y-82424596D01*
X133518917Y-82378451D01*
X133584174Y-82313194D01*
X133630319Y-82233270D01*
X133654205Y-82144126D01*
X133654205Y-82144123D01*
X133655052Y-82137692D01*
X133657895Y-82138066D01*
X133673112Y-82091233D01*
X133722612Y-82055269D01*
X133737777Y-82051838D01*
X136153205Y-82051838D01*
X136153205Y-82144126D01*
X136167326Y-82196826D01*
X136177092Y-82233272D01*
X136193727Y-82262085D01*
X136223236Y-82313194D01*
X136288493Y-82378451D01*
X136368417Y-82424596D01*
X136457561Y-82448482D01*
X136457563Y-82448482D01*
X136549847Y-82448482D01*
X136549849Y-82448482D01*
X136638993Y-82424596D01*
X136718917Y-82378451D01*
X136784174Y-82313194D01*
X136830319Y-82233270D01*
X136854205Y-82144126D01*
X136854205Y-82051838D01*
X136830319Y-81962694D01*
X136784174Y-81882770D01*
X136718917Y-81817513D01*
X136707700Y-81811037D01*
X136638995Y-81771369D01*
X136638994Y-81771368D01*
X136638993Y-81771368D01*
X136549849Y-81747482D01*
X136457561Y-81747482D01*
X136368417Y-81771368D01*
X136368416Y-81771368D01*
X136368414Y-81771369D01*
X136288495Y-81817511D01*
X136223234Y-81882772D01*
X136177092Y-81962691D01*
X136177091Y-81962693D01*
X136177091Y-81962694D01*
X136153205Y-82051838D01*
X133737777Y-82051838D01*
X133740287Y-82051270D01*
X133746131Y-82050500D01*
X133746144Y-82050500D01*
X133835288Y-82026614D01*
X133915212Y-81980469D01*
X133980469Y-81915212D01*
X134026614Y-81835288D01*
X134050500Y-81746144D01*
X134050500Y-81653856D01*
X134026614Y-81564712D01*
X133980469Y-81484788D01*
X133915212Y-81419531D01*
X133835288Y-81373386D01*
X133746144Y-81349500D01*
X133653856Y-81349500D01*
X133564712Y-81373386D01*
X133564711Y-81373386D01*
X133564709Y-81373387D01*
X133484790Y-81419529D01*
X133419529Y-81484790D01*
X133373387Y-81564709D01*
X133349499Y-81653858D01*
X133348653Y-81660290D01*
X133345809Y-81659915D01*
X133330593Y-81706748D01*
X133281093Y-81742712D01*
X133263426Y-81746710D01*
X133257562Y-81747482D01*
X133257561Y-81747482D01*
X133168417Y-81771368D01*
X133168416Y-81771368D01*
X133168414Y-81771369D01*
X133088495Y-81817511D01*
X133023234Y-81882772D01*
X132977092Y-81962691D01*
X132977091Y-81962693D01*
X132977091Y-81962694D01*
X132953205Y-82051838D01*
X130454205Y-82051838D01*
X130430319Y-81962694D01*
X130384174Y-81882770D01*
X130318917Y-81817513D01*
X130307700Y-81811037D01*
X130238995Y-81771369D01*
X130238994Y-81771368D01*
X130238993Y-81771368D01*
X130149849Y-81747482D01*
X130057561Y-81747482D01*
X129968417Y-81771368D01*
X129968416Y-81771368D01*
X129968414Y-81771369D01*
X129888495Y-81817511D01*
X129823234Y-81882772D01*
X129777092Y-81962691D01*
X129777091Y-81962693D01*
X129777091Y-81962694D01*
X129753205Y-82051838D01*
X118509432Y-82051838D01*
X118474174Y-81990770D01*
X118409387Y-81925983D01*
X118381612Y-81871469D01*
X118391183Y-81811037D01*
X118409386Y-81785981D01*
X118474174Y-81721194D01*
X118520319Y-81641270D01*
X118544205Y-81552126D01*
X118544205Y-81459838D01*
X118520319Y-81370694D01*
X118474174Y-81290770D01*
X118437260Y-81253856D01*
X144449500Y-81253856D01*
X144449500Y-81346144D01*
X144469164Y-81419531D01*
X144473387Y-81435290D01*
X144501966Y-81484790D01*
X144519531Y-81515212D01*
X144584788Y-81580469D01*
X144664712Y-81626614D01*
X144753856Y-81650500D01*
X144753858Y-81650500D01*
X144846142Y-81650500D01*
X144846144Y-81650500D01*
X144935288Y-81626614D01*
X145015212Y-81580469D01*
X145080469Y-81515212D01*
X145126614Y-81435288D01*
X145150500Y-81346144D01*
X145150500Y-81253856D01*
X145126614Y-81164712D01*
X145080469Y-81084788D01*
X145015212Y-81019531D01*
X144952270Y-80983191D01*
X144935290Y-80973387D01*
X144935289Y-80973386D01*
X144935288Y-80973386D01*
X144846144Y-80949500D01*
X144753856Y-80949500D01*
X144664712Y-80973386D01*
X144664711Y-80973386D01*
X144664709Y-80973387D01*
X144584789Y-81019529D01*
X144584786Y-81019532D01*
X144569025Y-81035292D01*
X144569017Y-81035301D01*
X144519531Y-81084788D01*
X144490970Y-81134255D01*
X144490963Y-81134265D01*
X144473387Y-81164708D01*
X144473386Y-81164712D01*
X144449500Y-81253856D01*
X118437260Y-81253856D01*
X118409387Y-81225983D01*
X118381612Y-81171469D01*
X118391183Y-81111037D01*
X118409386Y-81085981D01*
X118474174Y-81021194D01*
X118520319Y-80941270D01*
X118544205Y-80852126D01*
X118544205Y-80759838D01*
X118520319Y-80670694D01*
X118510597Y-80653856D01*
X120249500Y-80653856D01*
X120249500Y-80746144D01*
X120273386Y-80835288D01*
X120273387Y-80835290D01*
X120318665Y-80913713D01*
X120319531Y-80915212D01*
X120384788Y-80980469D01*
X120464712Y-81026614D01*
X120553856Y-81050500D01*
X120553858Y-81050500D01*
X120646142Y-81050500D01*
X120646144Y-81050500D01*
X120735288Y-81026614D01*
X120815212Y-80980469D01*
X120880469Y-80915212D01*
X120915894Y-80853856D01*
X130149500Y-80853856D01*
X130149500Y-80946144D01*
X130173386Y-81035288D01*
X130173387Y-81035290D01*
X130217120Y-81111037D01*
X130219531Y-81115212D01*
X130284788Y-81180469D01*
X130364712Y-81226614D01*
X130453856Y-81250500D01*
X130453858Y-81250500D01*
X130546142Y-81250500D01*
X130546144Y-81250500D01*
X130635288Y-81226614D01*
X130715212Y-81180469D01*
X130780469Y-81115212D01*
X130826614Y-81035288D01*
X130850500Y-80946144D01*
X130850500Y-80853856D01*
X130826614Y-80764712D01*
X130780469Y-80684788D01*
X130715212Y-80619531D01*
X130712690Y-80618075D01*
X130635290Y-80573387D01*
X130635289Y-80573386D01*
X130635288Y-80573386D01*
X130546144Y-80549500D01*
X130453856Y-80549500D01*
X130364712Y-80573386D01*
X130364711Y-80573386D01*
X130364709Y-80573387D01*
X130284790Y-80619529D01*
X130219529Y-80684790D01*
X130173387Y-80764709D01*
X130173386Y-80764711D01*
X130173386Y-80764712D01*
X130149500Y-80853856D01*
X120915894Y-80853856D01*
X120926614Y-80835288D01*
X120929479Y-80824596D01*
X120930244Y-80821742D01*
X120941843Y-80778451D01*
X120950500Y-80746144D01*
X120950500Y-80653856D01*
X120926614Y-80564712D01*
X120926612Y-80564709D01*
X120926612Y-80564707D01*
X120886279Y-80494849D01*
X120880472Y-80484792D01*
X120880470Y-80484790D01*
X120880469Y-80484788D01*
X120847519Y-80451838D01*
X131353205Y-80451838D01*
X131353205Y-80544126D01*
X131373410Y-80619531D01*
X131377092Y-80633272D01*
X131406836Y-80684790D01*
X131423236Y-80713194D01*
X131488493Y-80778451D01*
X131568417Y-80824596D01*
X131657561Y-80848482D01*
X131657563Y-80848482D01*
X131749847Y-80848482D01*
X131749849Y-80848482D01*
X131838993Y-80824596D01*
X131918917Y-80778451D01*
X131984174Y-80713194D01*
X131990731Y-80701838D01*
X132017969Y-80654661D01*
X132063438Y-80613720D01*
X132124289Y-80607324D01*
X132177277Y-80637917D01*
X132189441Y-80654661D01*
X132223232Y-80713189D01*
X132223234Y-80713191D01*
X132223236Y-80713194D01*
X132288493Y-80778451D01*
X132368417Y-80824596D01*
X132457561Y-80848482D01*
X132457573Y-80848482D01*
X132463418Y-80849252D01*
X132518644Y-80875591D01*
X132547841Y-80929361D01*
X132549500Y-80947406D01*
X132549500Y-80947831D01*
X132573386Y-81036975D01*
X132573387Y-81036977D01*
X132616146Y-81111037D01*
X132619531Y-81116899D01*
X132684788Y-81182156D01*
X132764712Y-81228301D01*
X132853856Y-81252187D01*
X132853858Y-81252187D01*
X132946142Y-81252187D01*
X132946144Y-81252187D01*
X133035288Y-81228301D01*
X133115212Y-81182156D01*
X133180469Y-81116899D01*
X133226614Y-81036975D01*
X133250500Y-80947831D01*
X133250500Y-80947482D01*
X133250577Y-80947244D01*
X133251347Y-80941397D01*
X133252430Y-80941539D01*
X133269407Y-80889291D01*
X133318907Y-80853327D01*
X133343430Y-80849443D01*
X133343415Y-80849329D01*
X133347784Y-80848753D01*
X133349500Y-80848482D01*
X133349847Y-80848482D01*
X133349849Y-80848482D01*
X133438993Y-80824596D01*
X133518917Y-80778451D01*
X133584174Y-80713194D01*
X133590731Y-80701838D01*
X133617969Y-80654661D01*
X133663438Y-80613720D01*
X133724289Y-80607324D01*
X133777277Y-80637917D01*
X133789441Y-80654661D01*
X133823232Y-80713189D01*
X133823234Y-80713191D01*
X133823236Y-80713194D01*
X133888493Y-80778451D01*
X133968417Y-80824596D01*
X134057561Y-80848482D01*
X134057563Y-80848482D01*
X134149847Y-80848482D01*
X134149849Y-80848482D01*
X134238993Y-80824596D01*
X134318917Y-80778451D01*
X134384174Y-80713194D01*
X134390731Y-80701838D01*
X134417969Y-80654661D01*
X134463438Y-80613720D01*
X134524289Y-80607324D01*
X134577277Y-80637917D01*
X134589441Y-80654661D01*
X134623232Y-80713189D01*
X134623234Y-80713191D01*
X134623236Y-80713194D01*
X134688493Y-80778451D01*
X134768417Y-80824596D01*
X134857561Y-80848482D01*
X134857563Y-80848482D01*
X134949847Y-80848482D01*
X134949849Y-80848482D01*
X135038993Y-80824596D01*
X135118917Y-80778451D01*
X135184174Y-80713194D01*
X135190731Y-80701838D01*
X135217969Y-80654661D01*
X135263438Y-80613720D01*
X135324289Y-80607324D01*
X135377277Y-80637917D01*
X135389441Y-80654661D01*
X135423232Y-80713189D01*
X135423234Y-80713191D01*
X135423236Y-80713194D01*
X135488493Y-80778451D01*
X135568417Y-80824596D01*
X135657561Y-80848482D01*
X135657563Y-80848482D01*
X135749847Y-80848482D01*
X135749849Y-80848482D01*
X135838993Y-80824596D01*
X135918917Y-80778451D01*
X135984174Y-80713194D01*
X135990731Y-80701838D01*
X136017969Y-80654661D01*
X136063438Y-80613720D01*
X136124289Y-80607324D01*
X136177277Y-80637917D01*
X136189441Y-80654661D01*
X136223232Y-80713189D01*
X136223234Y-80713191D01*
X136223236Y-80713194D01*
X136288493Y-80778451D01*
X136368417Y-80824596D01*
X136457561Y-80848482D01*
X136457563Y-80848482D01*
X136549847Y-80848482D01*
X136549849Y-80848482D01*
X136638993Y-80824596D01*
X136718917Y-80778451D01*
X136775530Y-80721838D01*
X138003205Y-80721838D01*
X138003205Y-80814126D01*
X138027091Y-80903270D01*
X138027092Y-80903272D01*
X138071662Y-80980469D01*
X138073236Y-80983194D01*
X138138493Y-81048451D01*
X138218417Y-81094596D01*
X138307561Y-81118482D01*
X138307563Y-81118482D01*
X138399847Y-81118482D01*
X138399849Y-81118482D01*
X138488993Y-81094596D01*
X138568917Y-81048451D01*
X138634174Y-80983194D01*
X138680319Y-80903270D01*
X138704205Y-80814126D01*
X138704205Y-80721838D01*
X138698846Y-80701838D01*
X143753205Y-80701838D01*
X143753205Y-80794126D01*
X143777091Y-80883270D01*
X143777092Y-80883272D01*
X143815329Y-80949500D01*
X143823236Y-80963194D01*
X143888493Y-81028451D01*
X143968417Y-81074596D01*
X144057561Y-81098482D01*
X144057563Y-81098482D01*
X144149847Y-81098482D01*
X144149849Y-81098482D01*
X144238993Y-81074596D01*
X144318917Y-81028451D01*
X144384174Y-80963194D01*
X144430319Y-80883270D01*
X144454205Y-80794126D01*
X144454205Y-80701838D01*
X144430319Y-80612694D01*
X144384174Y-80532770D01*
X144318917Y-80467513D01*
X144291769Y-80451839D01*
X144238995Y-80421369D01*
X144238994Y-80421368D01*
X144238993Y-80421368D01*
X144149849Y-80397482D01*
X144057561Y-80397482D01*
X143968417Y-80421368D01*
X143968416Y-80421368D01*
X143968414Y-80421369D01*
X143888495Y-80467511D01*
X143823234Y-80532772D01*
X143777092Y-80612691D01*
X143777091Y-80612693D01*
X143777091Y-80612694D01*
X143753205Y-80701838D01*
X138698846Y-80701838D01*
X138680319Y-80632694D01*
X138634174Y-80552770D01*
X138568917Y-80487513D01*
X138564204Y-80484792D01*
X138488995Y-80441369D01*
X138488994Y-80441368D01*
X138488993Y-80441368D01*
X138399849Y-80417482D01*
X138307561Y-80417482D01*
X138218417Y-80441368D01*
X138218416Y-80441368D01*
X138218414Y-80441369D01*
X138138495Y-80487511D01*
X138073234Y-80552772D01*
X138027092Y-80632691D01*
X138027091Y-80632693D01*
X138027091Y-80632694D01*
X138003205Y-80721838D01*
X136775530Y-80721838D01*
X136784174Y-80713194D01*
X136830319Y-80633270D01*
X136854205Y-80544126D01*
X136854205Y-80451838D01*
X136830319Y-80362694D01*
X136784174Y-80282770D01*
X136718917Y-80217513D01*
X136638993Y-80171368D01*
X136549849Y-80147482D01*
X136457561Y-80147482D01*
X136368417Y-80171368D01*
X136368416Y-80171368D01*
X136368414Y-80171369D01*
X136288495Y-80217511D01*
X136223234Y-80282772D01*
X136189441Y-80341303D01*
X136143971Y-80382243D01*
X136083121Y-80388638D01*
X136030133Y-80358045D01*
X136017969Y-80341303D01*
X135984175Y-80282772D01*
X135984174Y-80282770D01*
X135918917Y-80217513D01*
X135838993Y-80171368D01*
X135749849Y-80147482D01*
X135657561Y-80147482D01*
X135568417Y-80171368D01*
X135568416Y-80171368D01*
X135568414Y-80171369D01*
X135488495Y-80217511D01*
X135423234Y-80282772D01*
X135389441Y-80341303D01*
X135343971Y-80382243D01*
X135283121Y-80388638D01*
X135230133Y-80358045D01*
X135217969Y-80341303D01*
X135184175Y-80282772D01*
X135184174Y-80282770D01*
X135118917Y-80217513D01*
X135038993Y-80171368D01*
X134949849Y-80147482D01*
X134857561Y-80147482D01*
X134768417Y-80171368D01*
X134768416Y-80171368D01*
X134768414Y-80171369D01*
X134688495Y-80217511D01*
X134623234Y-80282772D01*
X134589441Y-80341303D01*
X134543971Y-80382243D01*
X134483121Y-80388638D01*
X134430133Y-80358045D01*
X134417969Y-80341303D01*
X134384175Y-80282772D01*
X134384174Y-80282770D01*
X134318917Y-80217513D01*
X134238993Y-80171368D01*
X134149849Y-80147482D01*
X134057561Y-80147482D01*
X133968417Y-80171368D01*
X133968416Y-80171368D01*
X133968414Y-80171369D01*
X133888495Y-80217511D01*
X133823234Y-80282772D01*
X133789441Y-80341303D01*
X133743971Y-80382243D01*
X133683121Y-80388638D01*
X133630133Y-80358045D01*
X133617969Y-80341303D01*
X133584175Y-80282772D01*
X133584174Y-80282770D01*
X133518917Y-80217513D01*
X133438993Y-80171368D01*
X133349849Y-80147482D01*
X133257561Y-80147482D01*
X133168417Y-80171368D01*
X133168416Y-80171368D01*
X133168414Y-80171369D01*
X133088495Y-80217511D01*
X133023234Y-80282772D01*
X132989441Y-80341303D01*
X132943971Y-80382243D01*
X132883121Y-80388638D01*
X132830133Y-80358045D01*
X132817969Y-80341303D01*
X132784175Y-80282772D01*
X132784174Y-80282770D01*
X132718917Y-80217513D01*
X132638993Y-80171368D01*
X132549849Y-80147482D01*
X132457561Y-80147482D01*
X132368417Y-80171368D01*
X132368416Y-80171368D01*
X132368414Y-80171369D01*
X132288495Y-80217511D01*
X132223234Y-80282772D01*
X132189441Y-80341303D01*
X132143971Y-80382243D01*
X132083121Y-80388638D01*
X132030133Y-80358045D01*
X132017969Y-80341303D01*
X131984175Y-80282772D01*
X131984174Y-80282770D01*
X131918917Y-80217513D01*
X131838993Y-80171368D01*
X131749849Y-80147482D01*
X131657561Y-80147482D01*
X131568417Y-80171368D01*
X131568416Y-80171368D01*
X131568414Y-80171369D01*
X131488495Y-80217511D01*
X131423234Y-80282772D01*
X131377092Y-80362691D01*
X131377091Y-80362693D01*
X131377091Y-80362694D01*
X131353205Y-80451838D01*
X120847519Y-80451838D01*
X120815212Y-80419531D01*
X120811663Y-80417482D01*
X120735290Y-80373387D01*
X120735289Y-80373386D01*
X120735288Y-80373386D01*
X120646144Y-80349500D01*
X120553856Y-80349500D01*
X120464712Y-80373386D01*
X120464711Y-80373386D01*
X120464709Y-80373387D01*
X120384790Y-80419529D01*
X120319529Y-80484790D01*
X120273387Y-80564709D01*
X120273386Y-80564711D01*
X120273386Y-80564712D01*
X120249500Y-80653856D01*
X118510597Y-80653856D01*
X118474174Y-80590770D01*
X118408917Y-80525513D01*
X118355806Y-80494849D01*
X118328995Y-80479369D01*
X118328994Y-80479368D01*
X118328993Y-80479368D01*
X118239849Y-80455482D01*
X118147561Y-80455482D01*
X118058417Y-80479368D01*
X118058416Y-80479368D01*
X118058414Y-80479369D01*
X117978495Y-80525511D01*
X117978493Y-80525512D01*
X117978493Y-80525513D01*
X117913706Y-80590299D01*
X117859192Y-80618075D01*
X117798760Y-80608504D01*
X117773704Y-80590300D01*
X117708917Y-80525513D01*
X117655806Y-80494849D01*
X117628995Y-80479369D01*
X117628994Y-80479368D01*
X117628993Y-80479368D01*
X117539849Y-80455482D01*
X117447561Y-80455482D01*
X117358417Y-80479368D01*
X117358416Y-80479368D01*
X117358414Y-80479369D01*
X117278495Y-80525511D01*
X117278493Y-80525512D01*
X117278493Y-80525513D01*
X117213706Y-80590299D01*
X117159192Y-80618075D01*
X117098760Y-80608504D01*
X117073704Y-80590300D01*
X117008917Y-80525513D01*
X116955806Y-80494849D01*
X116928995Y-80479369D01*
X116928994Y-80479368D01*
X116928993Y-80479368D01*
X116839849Y-80455482D01*
X116747561Y-80455482D01*
X116658417Y-80479368D01*
X116658416Y-80479368D01*
X116658414Y-80479369D01*
X116578495Y-80525511D01*
X116578493Y-80525512D01*
X116578493Y-80525513D01*
X116513706Y-80590299D01*
X116459192Y-80618075D01*
X116398760Y-80608504D01*
X116373704Y-80590300D01*
X116308917Y-80525513D01*
X116255806Y-80494849D01*
X116228995Y-80479369D01*
X116228994Y-80479368D01*
X116228993Y-80479368D01*
X116139849Y-80455482D01*
X116047561Y-80455482D01*
X115958417Y-80479368D01*
X115958416Y-80479368D01*
X115958414Y-80479369D01*
X115878495Y-80525511D01*
X115813234Y-80590772D01*
X115767092Y-80670691D01*
X115767092Y-80670692D01*
X115767091Y-80670694D01*
X115743205Y-80759838D01*
X105467180Y-80759838D01*
X106002977Y-79831838D01*
X145253205Y-79831838D01*
X145253205Y-79924126D01*
X145277091Y-80013270D01*
X145323236Y-80093194D01*
X145388493Y-80158451D01*
X145468417Y-80204596D01*
X145557561Y-80228482D01*
X145557563Y-80228482D01*
X145649847Y-80228482D01*
X145649849Y-80228482D01*
X145738993Y-80204596D01*
X145818917Y-80158451D01*
X145884174Y-80093194D01*
X145930319Y-80013270D01*
X145954205Y-79924126D01*
X145954205Y-79853856D01*
X147649500Y-79853856D01*
X147649500Y-79946144D01*
X147667487Y-80013272D01*
X147673387Y-80035290D01*
X147706818Y-80093194D01*
X147719531Y-80115212D01*
X147784788Y-80180469D01*
X147864712Y-80226614D01*
X147953856Y-80250500D01*
X147953858Y-80250500D01*
X148046142Y-80250500D01*
X148046144Y-80250500D01*
X148135288Y-80226614D01*
X148215212Y-80180469D01*
X148280469Y-80115212D01*
X148326614Y-80035288D01*
X148350500Y-79946144D01*
X148350500Y-79853856D01*
X148999500Y-79853856D01*
X148999500Y-79946144D01*
X149017487Y-80013272D01*
X149023387Y-80035290D01*
X149056818Y-80093194D01*
X149069531Y-80115212D01*
X149134788Y-80180469D01*
X149214712Y-80226614D01*
X149303856Y-80250500D01*
X149303858Y-80250500D01*
X149396142Y-80250500D01*
X149396144Y-80250500D01*
X149485288Y-80226614D01*
X149565212Y-80180469D01*
X149630469Y-80115212D01*
X149676614Y-80035288D01*
X149700500Y-79946144D01*
X149700500Y-79853856D01*
X149676614Y-79764712D01*
X149630469Y-79684788D01*
X149565212Y-79619531D01*
X149527076Y-79597513D01*
X149485290Y-79573387D01*
X149485289Y-79573386D01*
X149485288Y-79573386D01*
X149396144Y-79549500D01*
X149303856Y-79549500D01*
X149214712Y-79573386D01*
X149214711Y-79573386D01*
X149214709Y-79573387D01*
X149134790Y-79619529D01*
X149069529Y-79684790D01*
X149023387Y-79764709D01*
X149023386Y-79764711D01*
X149023386Y-79764712D01*
X148999500Y-79853856D01*
X148350500Y-79853856D01*
X148326614Y-79764712D01*
X148280469Y-79684788D01*
X148215212Y-79619531D01*
X148177076Y-79597513D01*
X148135290Y-79573387D01*
X148135289Y-79573386D01*
X148135288Y-79573386D01*
X148046144Y-79549500D01*
X147953856Y-79549500D01*
X147864712Y-79573386D01*
X147864711Y-79573386D01*
X147864709Y-79573387D01*
X147784790Y-79619529D01*
X147719529Y-79684790D01*
X147673387Y-79764709D01*
X147673386Y-79764711D01*
X147673386Y-79764712D01*
X147649500Y-79853856D01*
X145954205Y-79853856D01*
X145954205Y-79831838D01*
X145930319Y-79742694D01*
X145884174Y-79662770D01*
X145818917Y-79597513D01*
X145777130Y-79573387D01*
X145738995Y-79551369D01*
X145738994Y-79551368D01*
X145738993Y-79551368D01*
X145649849Y-79527482D01*
X145557561Y-79527482D01*
X145468417Y-79551368D01*
X145468416Y-79551368D01*
X145468414Y-79551369D01*
X145388495Y-79597511D01*
X145323234Y-79662772D01*
X145277092Y-79742691D01*
X145277091Y-79742693D01*
X145277091Y-79742694D01*
X145253205Y-79831838D01*
X106002977Y-79831838D01*
X106619594Y-78763856D01*
X109309500Y-78763856D01*
X109309500Y-78856144D01*
X109333386Y-78945288D01*
X109379531Y-79025212D01*
X109444788Y-79090469D01*
X109524712Y-79136614D01*
X109613856Y-79160500D01*
X109613858Y-79160500D01*
X109706142Y-79160500D01*
X109706144Y-79160500D01*
X109795288Y-79136614D01*
X109804700Y-79131180D01*
X109864548Y-79118458D01*
X109920444Y-79143344D01*
X109951037Y-79196331D01*
X109953201Y-79216916D01*
X109953201Y-79242443D01*
X109977087Y-79331587D01*
X110023232Y-79411511D01*
X110088489Y-79476768D01*
X110168413Y-79522913D01*
X110257557Y-79546799D01*
X110257559Y-79546799D01*
X110349843Y-79546799D01*
X110349845Y-79546799D01*
X110438989Y-79522913D01*
X110518913Y-79476768D01*
X110584170Y-79411511D01*
X110630315Y-79331587D01*
X110654201Y-79242443D01*
X110654201Y-79150155D01*
X110630315Y-79061011D01*
X110584170Y-78981087D01*
X110518913Y-78915830D01*
X110438989Y-78869685D01*
X110349845Y-78845799D01*
X110257557Y-78845799D01*
X110218949Y-78856144D01*
X110168408Y-78869686D01*
X110158997Y-78875120D01*
X110099148Y-78887839D01*
X110043253Y-78862951D01*
X110012663Y-78809962D01*
X110010500Y-78789382D01*
X110010500Y-78763857D01*
X110010500Y-78763856D01*
X109986614Y-78674712D01*
X109940469Y-78594788D01*
X109875212Y-78529531D01*
X109795288Y-78483386D01*
X109706144Y-78459500D01*
X109613856Y-78459500D01*
X109524712Y-78483386D01*
X109524711Y-78483386D01*
X109524709Y-78483387D01*
X109444790Y-78529529D01*
X109379529Y-78594790D01*
X109333387Y-78674709D01*
X109333386Y-78674711D01*
X109333386Y-78674712D01*
X109309500Y-78763856D01*
X106619594Y-78763856D01*
X107260472Y-77653856D01*
X107719500Y-77653856D01*
X107719500Y-77746144D01*
X107743386Y-77835288D01*
X107789531Y-77915212D01*
X107854788Y-77980469D01*
X107934712Y-78026614D01*
X108023856Y-78050500D01*
X108023858Y-78050500D01*
X108116142Y-78050500D01*
X108116144Y-78050500D01*
X108205288Y-78026614D01*
X108285212Y-77980469D01*
X108350469Y-77915212D01*
X108396614Y-77835288D01*
X108420500Y-77746144D01*
X108420500Y-77653856D01*
X108396614Y-77564712D01*
X108350469Y-77484788D01*
X108285212Y-77419531D01*
X108205288Y-77373386D01*
X108116144Y-77349500D01*
X108023856Y-77349500D01*
X107934712Y-77373386D01*
X107934711Y-77373386D01*
X107934709Y-77373387D01*
X107854790Y-77419529D01*
X107789529Y-77484790D01*
X107743387Y-77564709D01*
X107743386Y-77564711D01*
X107743386Y-77564712D01*
X107719500Y-77653856D01*
X107260472Y-77653856D01*
X108472943Y-75553856D01*
X111649500Y-75553856D01*
X111649500Y-75646144D01*
X111673386Y-75735288D01*
X111673387Y-75735290D01*
X111707829Y-75794945D01*
X111719531Y-75815212D01*
X111784788Y-75880469D01*
X111864712Y-75926614D01*
X111953856Y-75950500D01*
X111953858Y-75950500D01*
X112046139Y-75950500D01*
X112046144Y-75950500D01*
X112048031Y-75949994D01*
X112049429Y-75950067D01*
X112052576Y-75949653D01*
X112052652Y-75950235D01*
X112109129Y-75953189D01*
X112156683Y-75991689D01*
X112169287Y-76019992D01*
X112173386Y-76035289D01*
X112208522Y-76096144D01*
X112219531Y-76115212D01*
X112284788Y-76180469D01*
X112364712Y-76226614D01*
X112453856Y-76250500D01*
X112453858Y-76250500D01*
X112546142Y-76250500D01*
X112546144Y-76250500D01*
X112635288Y-76226614D01*
X112715212Y-76180469D01*
X112780469Y-76115212D01*
X112826614Y-76035288D01*
X112850500Y-75946144D01*
X112850500Y-75853856D01*
X112826614Y-75764712D01*
X112780469Y-75684788D01*
X112715212Y-75619531D01*
X112707731Y-75615212D01*
X112635290Y-75573387D01*
X112635289Y-75573386D01*
X112635288Y-75573386D01*
X112546144Y-75549500D01*
X112453856Y-75549500D01*
X112453851Y-75549500D01*
X112451958Y-75550008D01*
X112450556Y-75549934D01*
X112447424Y-75550347D01*
X112447347Y-75549766D01*
X112390857Y-75546804D01*
X112343308Y-75508298D01*
X112337674Y-75498424D01*
X112333273Y-75489564D01*
X112326614Y-75464712D01*
X112280469Y-75384788D01*
X112249537Y-75353856D01*
X120749500Y-75353856D01*
X120749500Y-75446144D01*
X120773386Y-75535288D01*
X120773387Y-75535290D01*
X120817274Y-75611304D01*
X120819531Y-75615212D01*
X120884317Y-75679998D01*
X120912093Y-75734513D01*
X120902522Y-75794945D01*
X120884318Y-75820000D01*
X120850463Y-75853856D01*
X120819529Y-75884790D01*
X120773387Y-75964709D01*
X120773386Y-75964711D01*
X120773386Y-75964712D01*
X120749500Y-76053856D01*
X120749500Y-76146144D01*
X120771062Y-76226614D01*
X120773387Y-76235290D01*
X120808351Y-76295849D01*
X120819531Y-76315212D01*
X120884788Y-76380469D01*
X120964712Y-76426614D01*
X121053856Y-76450500D01*
X121053858Y-76450500D01*
X121146142Y-76450500D01*
X121146144Y-76450500D01*
X121235288Y-76426614D01*
X121315212Y-76380469D01*
X121379998Y-76315682D01*
X121434513Y-76287907D01*
X121494945Y-76297478D01*
X121520000Y-76315681D01*
X121584788Y-76380469D01*
X121664712Y-76426614D01*
X121753856Y-76450500D01*
X121753858Y-76450500D01*
X121846142Y-76450500D01*
X121846144Y-76450500D01*
X121935288Y-76426614D01*
X122015212Y-76380469D01*
X122079998Y-76315682D01*
X122134513Y-76287907D01*
X122194945Y-76297478D01*
X122220000Y-76315681D01*
X122284788Y-76380469D01*
X122364712Y-76426614D01*
X122453856Y-76450500D01*
X122453858Y-76450500D01*
X122546142Y-76450500D01*
X122546144Y-76450500D01*
X122635288Y-76426614D01*
X122715212Y-76380469D01*
X122743843Y-76351838D01*
X128153205Y-76351838D01*
X128153205Y-76444126D01*
X128177091Y-76533270D01*
X128223236Y-76613194D01*
X128288493Y-76678451D01*
X128368417Y-76724596D01*
X128457561Y-76748482D01*
X128457563Y-76748482D01*
X128538084Y-76748482D01*
X128596275Y-76767389D01*
X128632239Y-76816889D01*
X128633709Y-76821852D01*
X128653386Y-76895288D01*
X128699531Y-76975212D01*
X128764788Y-77040469D01*
X128844712Y-77086614D01*
X128933856Y-77110500D01*
X128933858Y-77110500D01*
X129026142Y-77110500D01*
X129026144Y-77110500D01*
X129115288Y-77086614D01*
X129195212Y-77040469D01*
X129260469Y-76975212D01*
X129306614Y-76895288D01*
X129326289Y-76821858D01*
X129359614Y-76770544D01*
X129416735Y-76748618D01*
X129421916Y-76748482D01*
X129499847Y-76748482D01*
X129499849Y-76748482D01*
X129588993Y-76724596D01*
X129668917Y-76678451D01*
X129734174Y-76613194D01*
X129780319Y-76533270D01*
X129804205Y-76444126D01*
X129804205Y-76351838D01*
X129780319Y-76262694D01*
X129734174Y-76182770D01*
X129668917Y-76117513D01*
X129664926Y-76115209D01*
X129588995Y-76071369D01*
X129588994Y-76071368D01*
X129588993Y-76071368D01*
X129499849Y-76047482D01*
X129407561Y-76047482D01*
X129405298Y-76047482D01*
X129347107Y-76028575D01*
X129311143Y-75979075D01*
X129309672Y-75974107D01*
X129306614Y-75962695D01*
X129260470Y-75882774D01*
X129260469Y-75882772D01*
X129195212Y-75817515D01*
X129191223Y-75815212D01*
X129115290Y-75771371D01*
X129115289Y-75771370D01*
X129115288Y-75771370D01*
X129026144Y-75747484D01*
X128933856Y-75747484D01*
X128844712Y-75771370D01*
X128844711Y-75771370D01*
X128844709Y-75771371D01*
X128764790Y-75817513D01*
X128699529Y-75882774D01*
X128653385Y-75962695D01*
X128650328Y-75974107D01*
X128617003Y-76025421D01*
X128559881Y-76047346D01*
X128554702Y-76047482D01*
X128549849Y-76047482D01*
X128457561Y-76047482D01*
X128368417Y-76071368D01*
X128368416Y-76071368D01*
X128368414Y-76071369D01*
X128288495Y-76117511D01*
X128223234Y-76182772D01*
X128177092Y-76262691D01*
X128177091Y-76262693D01*
X128177091Y-76262694D01*
X128153205Y-76351838D01*
X122743843Y-76351838D01*
X122780469Y-76315212D01*
X122790708Y-76297478D01*
X122791649Y-76295849D01*
X122791649Y-76295848D01*
X122809337Y-76265212D01*
X122826614Y-76235288D01*
X122850500Y-76146144D01*
X122850500Y-76053856D01*
X122826614Y-75964712D01*
X122780469Y-75884788D01*
X122715682Y-75820001D01*
X122687907Y-75765487D01*
X122697478Y-75705055D01*
X122715681Y-75679999D01*
X122780469Y-75615212D01*
X122815894Y-75553856D01*
X131449500Y-75553856D01*
X131449500Y-75646144D01*
X131473386Y-75735288D01*
X131473387Y-75735290D01*
X131507829Y-75794945D01*
X131519531Y-75815212D01*
X131584788Y-75880469D01*
X131592269Y-75884788D01*
X131643321Y-75914264D01*
X131684261Y-75959734D01*
X131690656Y-76020584D01*
X131660063Y-76073572D01*
X131643321Y-76085736D01*
X131584790Y-76119529D01*
X131519529Y-76184790D01*
X131473387Y-76264709D01*
X131473386Y-76264711D01*
X131473386Y-76264712D01*
X131449500Y-76353856D01*
X131449500Y-76446144D01*
X131473386Y-76535288D01*
X131519531Y-76615212D01*
X131584788Y-76680469D01*
X131664712Y-76726614D01*
X131753856Y-76750500D01*
X131753858Y-76750500D01*
X131846142Y-76750500D01*
X131846144Y-76750500D01*
X131935288Y-76726614D01*
X132015212Y-76680469D01*
X132080469Y-76615212D01*
X132126614Y-76535288D01*
X132150500Y-76446144D01*
X132150500Y-76353856D01*
X132126614Y-76264712D01*
X132080469Y-76184788D01*
X132015212Y-76119531D01*
X132015209Y-76119529D01*
X132015207Y-76119527D01*
X131956679Y-76085736D01*
X131949601Y-76077876D01*
X131939938Y-76073574D01*
X131929587Y-76055647D01*
X131915738Y-76040267D01*
X131914632Y-76029748D01*
X131909343Y-76020588D01*
X131911100Y-76003856D01*
X141399500Y-76003856D01*
X141399500Y-76096144D01*
X141422712Y-76182772D01*
X141423387Y-76185290D01*
X141469240Y-76264709D01*
X141469531Y-76265212D01*
X141534788Y-76330469D01*
X141614712Y-76376614D01*
X141703856Y-76400500D01*
X141703858Y-76400500D01*
X141796142Y-76400500D01*
X141796144Y-76400500D01*
X141885288Y-76376614D01*
X141965212Y-76330469D01*
X141965211Y-76330469D01*
X141970831Y-76327225D01*
X141971676Y-76328688D01*
X142021643Y-76310982D01*
X142080313Y-76328345D01*
X142094261Y-76339943D01*
X142134786Y-76380468D01*
X142134789Y-76380470D01*
X142169482Y-76400500D01*
X142214712Y-76426614D01*
X142303856Y-76450500D01*
X142303858Y-76450500D01*
X142396142Y-76450500D01*
X142396144Y-76450500D01*
X142485288Y-76426614D01*
X142565212Y-76380469D01*
X142630469Y-76315212D01*
X142676614Y-76235288D01*
X142700500Y-76146144D01*
X142700500Y-76053856D01*
X142676614Y-75964712D01*
X142630469Y-75884788D01*
X142565212Y-75819531D01*
X142565209Y-75819529D01*
X142491421Y-75776926D01*
X142450480Y-75731456D01*
X142444086Y-75670605D01*
X142445289Y-75665589D01*
X142450500Y-75646144D01*
X142450500Y-75553856D01*
X142426614Y-75464712D01*
X142380469Y-75384788D01*
X142315212Y-75319531D01*
X142235288Y-75273386D01*
X142146144Y-75249500D01*
X142053856Y-75249500D01*
X141964712Y-75273386D01*
X141964711Y-75273386D01*
X141964709Y-75273387D01*
X141884790Y-75319529D01*
X141819529Y-75384790D01*
X141773387Y-75464709D01*
X141773386Y-75464711D01*
X141773386Y-75464712D01*
X141754476Y-75535288D01*
X141749500Y-75553857D01*
X141749500Y-75611304D01*
X141730593Y-75669495D01*
X141681093Y-75705459D01*
X141676124Y-75706930D01*
X141614712Y-75723385D01*
X141534790Y-75769529D01*
X141469529Y-75834790D01*
X141423387Y-75914709D01*
X141423386Y-75914711D01*
X141423386Y-75914712D01*
X141399500Y-76003856D01*
X131911100Y-76003856D01*
X131911505Y-76000001D01*
X131909342Y-75979416D01*
X131914630Y-75970255D01*
X131915736Y-75959737D01*
X131929584Y-75944355D01*
X131939935Y-75926428D01*
X131956675Y-75914266D01*
X131956802Y-75914192D01*
X132015212Y-75880469D01*
X132080469Y-75815212D01*
X132126614Y-75735288D01*
X132150500Y-75646144D01*
X132150500Y-75553856D01*
X132126614Y-75464712D01*
X132080469Y-75384788D01*
X132015212Y-75319531D01*
X131935288Y-75273386D01*
X131846144Y-75249500D01*
X131753856Y-75249500D01*
X131664712Y-75273386D01*
X131664711Y-75273386D01*
X131664709Y-75273387D01*
X131584790Y-75319529D01*
X131519529Y-75384790D01*
X131473387Y-75464709D01*
X131473386Y-75464711D01*
X131473386Y-75464712D01*
X131449500Y-75553856D01*
X122815894Y-75553856D01*
X122826614Y-75535288D01*
X122850500Y-75446144D01*
X122850500Y-75353856D01*
X122826614Y-75264712D01*
X122780469Y-75184788D01*
X122715212Y-75119531D01*
X122715209Y-75119529D01*
X122715207Y-75119527D01*
X122652119Y-75083103D01*
X122652118Y-75083103D01*
X122635290Y-75073387D01*
X122635289Y-75073386D01*
X122635288Y-75073386D01*
X122546144Y-75049500D01*
X122453856Y-75049500D01*
X122364712Y-75073386D01*
X122364711Y-75073386D01*
X122364709Y-75073387D01*
X122284790Y-75119529D01*
X122284788Y-75119530D01*
X122284788Y-75119531D01*
X122220001Y-75184317D01*
X122165487Y-75212093D01*
X122105055Y-75202522D01*
X122079999Y-75184318D01*
X122015212Y-75119531D01*
X122015205Y-75119527D01*
X121935290Y-75073387D01*
X121935289Y-75073386D01*
X121935288Y-75073386D01*
X121846144Y-75049500D01*
X121753856Y-75049500D01*
X121664712Y-75073386D01*
X121664711Y-75073386D01*
X121664709Y-75073387D01*
X121584790Y-75119529D01*
X121584788Y-75119530D01*
X121584788Y-75119531D01*
X121520001Y-75184317D01*
X121465487Y-75212093D01*
X121405055Y-75202522D01*
X121379999Y-75184318D01*
X121315212Y-75119531D01*
X121315205Y-75119527D01*
X121235290Y-75073387D01*
X121235289Y-75073386D01*
X121235288Y-75073386D01*
X121146144Y-75049500D01*
X121053856Y-75049500D01*
X120964712Y-75073386D01*
X120964711Y-75073386D01*
X120964709Y-75073387D01*
X120884790Y-75119529D01*
X120819529Y-75184790D01*
X120773387Y-75264709D01*
X120773386Y-75264711D01*
X120773386Y-75264712D01*
X120749500Y-75353856D01*
X112249537Y-75353856D01*
X112215212Y-75319531D01*
X112135288Y-75273386D01*
X112046144Y-75249500D01*
X111953856Y-75249500D01*
X111864712Y-75273386D01*
X111864711Y-75273386D01*
X111864709Y-75273387D01*
X111784790Y-75319529D01*
X111719529Y-75384790D01*
X111673387Y-75464709D01*
X111673386Y-75464711D01*
X111673386Y-75464712D01*
X111649500Y-75553856D01*
X108472943Y-75553856D01*
X108790495Y-75003856D01*
X145999500Y-75003856D01*
X145999500Y-75096144D01*
X146005766Y-75119529D01*
X146023387Y-75185290D01*
X146069240Y-75264709D01*
X146069531Y-75265212D01*
X146134788Y-75330469D01*
X146214712Y-75376614D01*
X146303856Y-75400500D01*
X146303858Y-75400500D01*
X146396142Y-75400500D01*
X146396144Y-75400500D01*
X146485288Y-75376614D01*
X146565212Y-75330469D01*
X146630469Y-75265212D01*
X146676614Y-75185288D01*
X146700500Y-75096144D01*
X146700500Y-75003856D01*
X146676614Y-74914712D01*
X146630469Y-74834788D01*
X146565212Y-74769531D01*
X146485288Y-74723386D01*
X146396144Y-74699500D01*
X146303856Y-74699500D01*
X146214712Y-74723386D01*
X146214711Y-74723386D01*
X146214709Y-74723387D01*
X146134790Y-74769529D01*
X146069529Y-74834790D01*
X146023387Y-74914709D01*
X146023386Y-74914711D01*
X146023386Y-74914712D01*
X145999500Y-75003856D01*
X108790495Y-75003856D01*
X110081580Y-72767696D01*
X111603340Y-72767696D01*
X111603340Y-72859984D01*
X111627226Y-72949128D01*
X111627227Y-72949130D01*
X111670099Y-73023386D01*
X111673371Y-73029052D01*
X111738628Y-73094309D01*
X111818552Y-73140454D01*
X111907696Y-73164340D01*
X111907698Y-73164340D01*
X111999983Y-73164340D01*
X111999984Y-73164340D01*
X112018916Y-73159267D01*
X112080015Y-73162468D01*
X112127566Y-73200972D01*
X112140164Y-73229266D01*
X112152170Y-73274072D01*
X112152171Y-73274074D01*
X112194199Y-73346868D01*
X112198315Y-73353996D01*
X112263572Y-73419253D01*
X112263574Y-73419254D01*
X112307332Y-73444519D01*
X112348273Y-73489989D01*
X112354667Y-73550840D01*
X112343568Y-73579754D01*
X112323387Y-73614708D01*
X112323386Y-73614712D01*
X112299500Y-73703856D01*
X112299500Y-73796144D01*
X112319164Y-73869531D01*
X112323387Y-73885290D01*
X112361325Y-73950999D01*
X112374047Y-74010847D01*
X112349161Y-74066743D01*
X112296173Y-74097336D01*
X112275589Y-74099500D01*
X112253856Y-74099500D01*
X112164712Y-74123386D01*
X112164711Y-74123386D01*
X112164709Y-74123387D01*
X112084790Y-74169529D01*
X112019529Y-74234790D01*
X111973387Y-74314709D01*
X111973386Y-74314711D01*
X111973386Y-74314712D01*
X111949500Y-74403856D01*
X111949500Y-74496144D01*
X111973386Y-74585288D01*
X112019531Y-74665212D01*
X112084788Y-74730469D01*
X112164712Y-74776614D01*
X112253856Y-74800500D01*
X112253858Y-74800500D01*
X112346142Y-74800500D01*
X112346144Y-74800500D01*
X112435288Y-74776614D01*
X112515212Y-74730469D01*
X112580469Y-74665212D01*
X112626614Y-74585288D01*
X112650500Y-74496144D01*
X112650500Y-74403856D01*
X112626614Y-74314712D01*
X112588674Y-74249000D01*
X112575953Y-74189153D01*
X112600839Y-74133257D01*
X112653827Y-74102664D01*
X112674411Y-74100500D01*
X112696142Y-74100500D01*
X112696144Y-74100500D01*
X112785288Y-74076614D01*
X112865212Y-74030469D01*
X112930469Y-73965212D01*
X112976614Y-73885288D01*
X113000500Y-73796144D01*
X113000500Y-73703856D01*
X112976614Y-73614712D01*
X112967542Y-73599000D01*
X112954821Y-73539154D01*
X112979706Y-73483257D01*
X113030629Y-73453856D01*
X123649500Y-73453856D01*
X123649500Y-73546144D01*
X123673386Y-73635288D01*
X123719531Y-73715212D01*
X123784317Y-73779998D01*
X123812093Y-73834513D01*
X123802522Y-73894945D01*
X123784318Y-73920000D01*
X123739110Y-73965209D01*
X123719529Y-73984790D01*
X123673387Y-74064709D01*
X123673386Y-74064711D01*
X123673386Y-74064712D01*
X123649500Y-74153856D01*
X123649500Y-74246144D01*
X123673386Y-74335288D01*
X123719531Y-74415212D01*
X123784788Y-74480469D01*
X123864712Y-74526614D01*
X123953856Y-74550500D01*
X123953858Y-74550500D01*
X124046142Y-74550500D01*
X124046144Y-74550500D01*
X124135288Y-74526614D01*
X124215212Y-74480469D01*
X124279998Y-74415682D01*
X124334513Y-74387907D01*
X124394945Y-74397478D01*
X124420000Y-74415681D01*
X124484788Y-74480469D01*
X124564712Y-74526614D01*
X124653856Y-74550500D01*
X124653858Y-74550500D01*
X124746142Y-74550500D01*
X124746144Y-74550500D01*
X124835288Y-74526614D01*
X124915212Y-74480469D01*
X124979998Y-74415682D01*
X125034513Y-74387907D01*
X125094945Y-74397478D01*
X125120000Y-74415681D01*
X125184788Y-74480469D01*
X125264712Y-74526614D01*
X125353856Y-74550500D01*
X125353858Y-74550500D01*
X125446142Y-74550500D01*
X125446144Y-74550500D01*
X125535288Y-74526614D01*
X125615212Y-74480469D01*
X125680469Y-74415212D01*
X125726614Y-74335288D01*
X125750500Y-74246144D01*
X125750500Y-74153856D01*
X125737103Y-74103856D01*
X131499500Y-74103856D01*
X131499500Y-74196144D01*
X131513663Y-74249001D01*
X131523387Y-74285290D01*
X131540372Y-74314709D01*
X131569531Y-74365212D01*
X131634788Y-74430469D01*
X131714712Y-74476614D01*
X131803856Y-74500500D01*
X131803858Y-74500500D01*
X131896142Y-74500500D01*
X131896144Y-74500500D01*
X131985288Y-74476614D01*
X132065212Y-74430469D01*
X132130469Y-74365212D01*
X132176614Y-74285288D01*
X132200500Y-74196144D01*
X132200500Y-74103856D01*
X145349500Y-74103856D01*
X145349500Y-74196144D01*
X145363663Y-74249001D01*
X145373387Y-74285290D01*
X145390372Y-74314709D01*
X145419531Y-74365212D01*
X145484788Y-74430469D01*
X145564712Y-74476614D01*
X145653856Y-74500500D01*
X145653858Y-74500500D01*
X145746142Y-74500500D01*
X145746144Y-74500500D01*
X145835288Y-74476614D01*
X145915212Y-74430469D01*
X145980469Y-74365212D01*
X146026614Y-74285288D01*
X146050500Y-74196144D01*
X146050500Y-74103856D01*
X146026614Y-74014712D01*
X145980469Y-73934788D01*
X145915212Y-73869531D01*
X145835288Y-73823386D01*
X145746144Y-73799500D01*
X145653856Y-73799500D01*
X145564712Y-73823386D01*
X145564711Y-73823386D01*
X145564709Y-73823387D01*
X145484790Y-73869529D01*
X145419529Y-73934790D01*
X145373387Y-74014709D01*
X145373386Y-74014711D01*
X145373386Y-74014712D01*
X145349500Y-74103856D01*
X132200500Y-74103856D01*
X132176614Y-74014712D01*
X132130469Y-73934788D01*
X132065212Y-73869531D01*
X131985288Y-73823386D01*
X131896144Y-73799500D01*
X131803856Y-73799500D01*
X131714712Y-73823386D01*
X131714711Y-73823386D01*
X131714709Y-73823387D01*
X131634790Y-73869529D01*
X131569529Y-73934790D01*
X131523387Y-74014709D01*
X131523386Y-74014711D01*
X131523386Y-74014712D01*
X131499500Y-74103856D01*
X125737103Y-74103856D01*
X125726614Y-74064712D01*
X125680469Y-73984788D01*
X125615682Y-73920001D01*
X125587907Y-73865487D01*
X125597478Y-73805055D01*
X125615681Y-73779999D01*
X125680469Y-73715212D01*
X125726614Y-73635288D01*
X125750500Y-73546144D01*
X125750500Y-73453856D01*
X125726614Y-73364712D01*
X125726612Y-73364709D01*
X125726612Y-73364707D01*
X125716313Y-73346869D01*
X125716312Y-73346868D01*
X125691478Y-73303856D01*
X144749500Y-73303856D01*
X144749500Y-73396144D01*
X144768057Y-73465398D01*
X144773387Y-73485290D01*
X144808520Y-73546142D01*
X144819531Y-73565212D01*
X144884788Y-73630469D01*
X144964712Y-73676614D01*
X145053856Y-73700500D01*
X145053858Y-73700500D01*
X145146142Y-73700500D01*
X145146144Y-73700500D01*
X145235288Y-73676614D01*
X145315212Y-73630469D01*
X145380469Y-73565212D01*
X145426614Y-73485288D01*
X145450500Y-73396144D01*
X145450500Y-73303856D01*
X145426614Y-73214712D01*
X145380469Y-73134788D01*
X145315212Y-73069531D01*
X145288064Y-73053857D01*
X145235290Y-73023387D01*
X145235289Y-73023386D01*
X145235288Y-73023386D01*
X145146144Y-72999500D01*
X145053856Y-72999500D01*
X144964712Y-73023386D01*
X144964711Y-73023386D01*
X144964709Y-73023387D01*
X144884790Y-73069529D01*
X144819529Y-73134790D01*
X144773387Y-73214709D01*
X144773386Y-73214711D01*
X144773386Y-73214712D01*
X144749500Y-73303856D01*
X125691478Y-73303856D01*
X125680470Y-73284790D01*
X125680469Y-73284788D01*
X125615212Y-73219531D01*
X125606865Y-73214712D01*
X125535290Y-73173387D01*
X125535289Y-73173386D01*
X125535288Y-73173386D01*
X125446144Y-73149500D01*
X125353856Y-73149500D01*
X125264712Y-73173386D01*
X125264711Y-73173386D01*
X125264709Y-73173387D01*
X125184790Y-73219529D01*
X125184788Y-73219530D01*
X125184788Y-73219531D01*
X125120001Y-73284317D01*
X125065487Y-73312093D01*
X125005055Y-73302522D01*
X124979999Y-73284318D01*
X124915212Y-73219531D01*
X124906865Y-73214712D01*
X124835290Y-73173387D01*
X124835289Y-73173386D01*
X124835288Y-73173386D01*
X124746144Y-73149500D01*
X124653856Y-73149500D01*
X124564712Y-73173386D01*
X124564711Y-73173386D01*
X124564709Y-73173387D01*
X124484790Y-73219529D01*
X124484788Y-73219530D01*
X124484788Y-73219531D01*
X124420001Y-73284317D01*
X124365487Y-73312093D01*
X124305055Y-73302522D01*
X124279999Y-73284318D01*
X124215212Y-73219531D01*
X124206865Y-73214712D01*
X124135290Y-73173387D01*
X124135289Y-73173386D01*
X124135288Y-73173386D01*
X124046144Y-73149500D01*
X123953856Y-73149500D01*
X123864712Y-73173386D01*
X123864711Y-73173386D01*
X123864709Y-73173387D01*
X123784790Y-73219529D01*
X123719529Y-73284790D01*
X123673387Y-73364709D01*
X123673386Y-73364711D01*
X123673386Y-73364712D01*
X123649500Y-73453856D01*
X113030629Y-73453856D01*
X113032694Y-73452664D01*
X113053279Y-73450500D01*
X113146142Y-73450500D01*
X113146144Y-73450500D01*
X113235288Y-73426614D01*
X113315212Y-73380469D01*
X113380469Y-73315212D01*
X113426614Y-73235288D01*
X113450500Y-73146144D01*
X113450500Y-73053856D01*
X113426614Y-72964712D01*
X113380469Y-72884788D01*
X113315212Y-72819531D01*
X113302464Y-72812171D01*
X113235290Y-72773387D01*
X113235289Y-72773386D01*
X113235288Y-72773386D01*
X113146144Y-72749500D01*
X113053856Y-72749500D01*
X112964712Y-72773386D01*
X112964711Y-72773386D01*
X112964709Y-72773387D01*
X112884789Y-72819529D01*
X112884786Y-72819532D01*
X112840001Y-72864316D01*
X112785484Y-72892092D01*
X112725052Y-72882520D01*
X112699998Y-72864317D01*
X112693996Y-72858315D01*
X112626821Y-72819531D01*
X112614074Y-72812171D01*
X112614073Y-72812170D01*
X112614072Y-72812170D01*
X112524928Y-72788284D01*
X112432640Y-72788284D01*
X112432637Y-72788284D01*
X112413705Y-72793357D01*
X112352604Y-72790154D01*
X112305054Y-72751647D01*
X112292459Y-72723358D01*
X112280454Y-72678552D01*
X112234309Y-72598628D01*
X112169052Y-72533371D01*
X112164027Y-72530470D01*
X112089130Y-72487227D01*
X112089129Y-72487226D01*
X112089128Y-72487226D01*
X111999984Y-72463340D01*
X111907696Y-72463340D01*
X111818552Y-72487226D01*
X111818551Y-72487226D01*
X111818549Y-72487227D01*
X111738630Y-72533369D01*
X111673369Y-72598630D01*
X111627227Y-72678549D01*
X111627227Y-72678550D01*
X111627226Y-72678552D01*
X111603340Y-72767696D01*
X110081580Y-72767696D01*
X110384701Y-72242691D01*
X110788335Y-72242691D01*
X110788335Y-72334979D01*
X110812221Y-72424123D01*
X110858366Y-72504047D01*
X110923623Y-72569304D01*
X111003547Y-72615449D01*
X111092691Y-72639335D01*
X111092693Y-72639335D01*
X111184977Y-72639335D01*
X111184979Y-72639335D01*
X111274123Y-72615449D01*
X111354047Y-72569304D01*
X111419304Y-72504047D01*
X111465449Y-72424123D01*
X111489335Y-72334979D01*
X111489335Y-72242691D01*
X111478929Y-72203856D01*
X113299500Y-72203856D01*
X113299500Y-72296144D01*
X113323386Y-72385288D01*
X113369531Y-72465212D01*
X113434788Y-72530469D01*
X113514712Y-72576614D01*
X113603856Y-72600500D01*
X113603858Y-72600500D01*
X113696142Y-72600500D01*
X113696144Y-72600500D01*
X113785288Y-72576614D01*
X113865212Y-72530469D01*
X113930469Y-72465212D01*
X113965894Y-72403856D01*
X144149500Y-72403856D01*
X144149500Y-72496144D01*
X144171062Y-72576614D01*
X144173387Y-72585290D01*
X144204590Y-72639335D01*
X144219531Y-72665212D01*
X144284788Y-72730469D01*
X144364712Y-72776614D01*
X144453856Y-72800500D01*
X144453858Y-72800500D01*
X144546142Y-72800500D01*
X144546144Y-72800500D01*
X144635288Y-72776614D01*
X144715212Y-72730469D01*
X144780469Y-72665212D01*
X144826614Y-72585288D01*
X144850500Y-72496144D01*
X144850500Y-72403856D01*
X144826614Y-72314712D01*
X144780469Y-72234788D01*
X144715212Y-72169531D01*
X144687527Y-72153547D01*
X144635290Y-72123387D01*
X144635289Y-72123386D01*
X144635288Y-72123386D01*
X144546144Y-72099500D01*
X144453856Y-72099500D01*
X144364712Y-72123386D01*
X144364711Y-72123386D01*
X144364709Y-72123387D01*
X144284790Y-72169529D01*
X144219529Y-72234790D01*
X144173387Y-72314709D01*
X144173386Y-72314711D01*
X144173386Y-72314712D01*
X144149500Y-72403856D01*
X113965894Y-72403856D01*
X113976614Y-72385288D01*
X114000500Y-72296144D01*
X114000500Y-72203856D01*
X113976614Y-72114712D01*
X113938674Y-72049000D01*
X113925953Y-71989153D01*
X113950839Y-71933257D01*
X114003827Y-71902664D01*
X114024411Y-71900500D01*
X114096142Y-71900500D01*
X114096144Y-71900500D01*
X114185288Y-71876614D01*
X114265212Y-71830469D01*
X114330469Y-71765212D01*
X114376614Y-71685288D01*
X114400500Y-71596144D01*
X114400500Y-71553856D01*
X143649500Y-71553856D01*
X143649500Y-71646144D01*
X143673386Y-71735288D01*
X143719531Y-71815212D01*
X143784788Y-71880469D01*
X143864712Y-71926614D01*
X143953856Y-71950500D01*
X143953858Y-71950500D01*
X144046142Y-71950500D01*
X144046144Y-71950500D01*
X144135288Y-71926614D01*
X144215212Y-71880469D01*
X144280469Y-71815212D01*
X144326614Y-71735288D01*
X144350500Y-71646144D01*
X144350500Y-71553856D01*
X144326614Y-71464712D01*
X144280469Y-71384788D01*
X144215212Y-71319531D01*
X144135288Y-71273386D01*
X144046144Y-71249500D01*
X143953856Y-71249500D01*
X143864712Y-71273386D01*
X143864711Y-71273386D01*
X143864709Y-71273387D01*
X143784790Y-71319529D01*
X143719529Y-71384790D01*
X143673387Y-71464709D01*
X143673386Y-71464711D01*
X143673386Y-71464712D01*
X143649500Y-71553856D01*
X114400500Y-71553856D01*
X114400500Y-71503856D01*
X114376614Y-71414712D01*
X114330469Y-71334788D01*
X114265212Y-71269531D01*
X114185288Y-71223386D01*
X114096144Y-71199500D01*
X114003856Y-71199500D01*
X113914712Y-71223386D01*
X113914711Y-71223386D01*
X113914709Y-71223387D01*
X113834790Y-71269529D01*
X113769529Y-71334790D01*
X113723387Y-71414709D01*
X113723386Y-71414711D01*
X113723386Y-71414712D01*
X113699500Y-71503856D01*
X113699500Y-71596144D01*
X113723386Y-71685288D01*
X113723387Y-71685290D01*
X113761325Y-71750999D01*
X113774047Y-71810847D01*
X113749161Y-71866743D01*
X113696173Y-71897336D01*
X113675589Y-71899500D01*
X113603856Y-71899500D01*
X113514712Y-71923386D01*
X113514711Y-71923386D01*
X113514709Y-71923387D01*
X113434790Y-71969529D01*
X113369529Y-72034790D01*
X113323387Y-72114709D01*
X113323386Y-72114711D01*
X113323386Y-72114712D01*
X113299500Y-72203856D01*
X111478929Y-72203856D01*
X111465449Y-72153547D01*
X111419304Y-72073623D01*
X111354047Y-72008366D01*
X111274123Y-71962221D01*
X111184979Y-71938335D01*
X111092691Y-71938335D01*
X111003547Y-71962221D01*
X111003546Y-71962221D01*
X111003544Y-71962222D01*
X110923625Y-72008364D01*
X110858364Y-72073625D01*
X110812222Y-72153544D01*
X110812221Y-72153546D01*
X110812221Y-72153547D01*
X110788335Y-72242691D01*
X110384701Y-72242691D01*
X112075714Y-69313856D01*
X115059500Y-69313856D01*
X115059500Y-69406144D01*
X115083386Y-69495288D01*
X115129531Y-69575212D01*
X115194788Y-69640469D01*
X115274712Y-69686614D01*
X115363856Y-69710500D01*
X115363858Y-69710500D01*
X115456142Y-69710500D01*
X115456144Y-69710500D01*
X115545288Y-69686614D01*
X115625212Y-69640469D01*
X115690469Y-69575212D01*
X115736614Y-69495288D01*
X115760500Y-69406144D01*
X115760500Y-69313856D01*
X115736614Y-69224712D01*
X115690469Y-69144788D01*
X115625212Y-69079531D01*
X115545288Y-69033386D01*
X115456144Y-69009500D01*
X115363856Y-69009500D01*
X115274712Y-69033386D01*
X115274711Y-69033386D01*
X115274709Y-69033387D01*
X115194790Y-69079529D01*
X115129529Y-69144790D01*
X115083387Y-69224709D01*
X115083386Y-69224711D01*
X115083386Y-69224712D01*
X115059500Y-69313856D01*
X112075714Y-69313856D01*
X113114764Y-67514221D01*
X113160234Y-67473281D01*
X113221084Y-67466887D01*
X113274072Y-67497480D01*
X113298958Y-67553376D01*
X113299500Y-67563723D01*
X113299500Y-67576144D01*
X113323386Y-67665288D01*
X113323387Y-67665290D01*
X113331879Y-67679999D01*
X113369531Y-67745212D01*
X113434788Y-67810469D01*
X113514712Y-67856614D01*
X113603856Y-67880500D01*
X113603858Y-67880500D01*
X113696142Y-67880500D01*
X113696144Y-67880500D01*
X113785288Y-67856614D01*
X113865212Y-67810469D01*
X113930469Y-67745212D01*
X113976614Y-67665288D01*
X114000500Y-67576144D01*
X114000500Y-67483856D01*
X113976614Y-67394712D01*
X113930469Y-67314788D01*
X113865212Y-67249531D01*
X113847145Y-67239100D01*
X113785290Y-67203387D01*
X113785289Y-67203386D01*
X113785288Y-67203386D01*
X113696144Y-67179500D01*
X113603856Y-67179500D01*
X113527349Y-67200000D01*
X113514708Y-67203387D01*
X113503965Y-67209590D01*
X113444116Y-67222311D01*
X113388221Y-67197423D01*
X113357629Y-67144435D01*
X113364026Y-67083585D01*
X113368724Y-67074362D01*
X115195723Y-63909999D01*
X116109999Y-63909999D01*
X116110000Y-63909999D01*
X116110000Y-63910000D01*
X116239921Y-63956400D01*
X116259076Y-63965672D01*
X116384040Y-64043775D01*
X116422270Y-64088046D01*
X116515749Y-64301713D01*
X116539312Y-64355570D01*
X116546972Y-64406492D01*
X116510563Y-64725070D01*
X116508943Y-64734859D01*
X116409999Y-65189998D01*
X116370001Y-65399987D01*
X116370000Y-65399992D01*
X116340000Y-65680002D01*
X116359999Y-65910000D01*
X116409998Y-66139996D01*
X116409999Y-66139997D01*
X116410000Y-66140000D01*
X116550000Y-66370000D01*
X116550003Y-66370004D01*
X116659998Y-66519998D01*
X116692127Y-66556143D01*
X116716655Y-66612197D01*
X116703551Y-66671962D01*
X116703488Y-66672068D01*
X116640000Y-66780000D01*
X116624247Y-66829009D01*
X116549999Y-67059999D01*
X116540000Y-67229978D01*
X116540000Y-67230000D01*
X116540000Y-67370000D01*
X116570000Y-67490000D01*
X116680000Y-67460000D01*
X116770285Y-67414857D01*
X116790540Y-67407364D01*
X116828944Y-67397764D01*
X116889715Y-67401886D01*
X116897017Y-67404806D01*
X116921031Y-67418580D01*
X117000000Y-67480000D01*
X117113620Y-67497480D01*
X117124982Y-67499228D01*
X117134917Y-67501283D01*
X117207200Y-67520139D01*
X117331115Y-67552464D01*
X117379902Y-67582244D01*
X117468264Y-67681001D01*
X117530007Y-67750008D01*
X117710002Y-67940002D01*
X117847675Y-68077676D01*
X117852176Y-68082487D01*
X117990000Y-68240000D01*
X118121994Y-68349995D01*
X118349998Y-68539999D01*
X118349999Y-68539999D01*
X118350000Y-68540000D01*
X118511902Y-68597142D01*
X118527482Y-68604208D01*
X118680000Y-68690000D01*
X118680010Y-68690005D01*
X118680019Y-68690010D01*
X118919998Y-68809999D01*
X118940000Y-68820000D01*
X119160000Y-68880000D01*
X119390000Y-68810000D01*
X119500000Y-68710000D01*
X119597129Y-68593444D01*
X119603159Y-68586840D01*
X119698107Y-68491892D01*
X119725156Y-68472702D01*
X119980000Y-68350000D01*
X120190000Y-68230000D01*
X120294778Y-68152794D01*
X120375381Y-68093404D01*
X120384989Y-68087149D01*
X120516173Y-68012186D01*
X120524012Y-68008160D01*
X120759284Y-67900328D01*
X120760659Y-67899711D01*
X120920000Y-67830000D01*
X120990000Y-67700000D01*
X120994222Y-67680998D01*
X121025300Y-67628297D01*
X121081422Y-67603926D01*
X121137184Y-67614979D01*
X121260000Y-67680000D01*
X121420000Y-67700000D01*
X121430000Y-67660000D01*
X121409999Y-67619999D01*
X121409998Y-67619998D01*
X121290014Y-67560006D01*
X121289999Y-67559999D01*
X121080004Y-67470001D01*
X121079993Y-67469997D01*
X121062881Y-67465108D01*
X121047017Y-67454429D01*
X121029056Y-67447873D01*
X121022244Y-67437753D01*
X121012124Y-67430941D01*
X120994890Y-67397115D01*
X120990452Y-67381582D01*
X120989599Y-67378397D01*
X120987500Y-67370000D01*
X120970034Y-67300136D01*
X120974263Y-67239100D01*
X121013562Y-67192204D01*
X121057110Y-67177535D01*
X121248464Y-67160139D01*
X121251525Y-67159910D01*
X121420000Y-67150000D01*
X121510000Y-67110000D01*
X121530000Y-67050000D01*
X121470000Y-67030000D01*
X121250000Y-67030000D01*
X121249988Y-67030000D01*
X121040002Y-67049999D01*
X120930002Y-67069999D01*
X120929990Y-67070002D01*
X120901759Y-67078068D01*
X120891725Y-67077707D01*
X120882453Y-67081562D01*
X120861817Y-67076634D01*
X120840613Y-67075874D01*
X120822941Y-67067352D01*
X120709530Y-66998046D01*
X120669736Y-66951569D01*
X120664860Y-66890579D01*
X120665057Y-66889771D01*
X120679749Y-66831001D01*
X120680270Y-66829009D01*
X120770000Y-66500000D01*
X120783824Y-66442401D01*
X120783824Y-66442399D01*
X125634500Y-66442399D01*
X125634500Y-66567601D01*
X125666905Y-66688536D01*
X125729505Y-66796964D01*
X125818036Y-66885495D01*
X125926464Y-66948095D01*
X126047399Y-66980500D01*
X126047401Y-66980500D01*
X126172599Y-66980500D01*
X126172601Y-66980500D01*
X126293536Y-66948095D01*
X126401964Y-66885495D01*
X126490495Y-66796964D01*
X126553095Y-66688536D01*
X126585500Y-66567601D01*
X126585500Y-66442399D01*
X131414500Y-66442399D01*
X131414500Y-66567601D01*
X131446905Y-66688536D01*
X131509505Y-66796964D01*
X131598036Y-66885495D01*
X131706464Y-66948095D01*
X131827399Y-66980500D01*
X131827401Y-66980500D01*
X131952599Y-66980500D01*
X131952601Y-66980500D01*
X132073536Y-66948095D01*
X132181964Y-66885495D01*
X132270495Y-66796964D01*
X132333095Y-66688536D01*
X132365500Y-66567601D01*
X132365500Y-66442399D01*
X132333095Y-66321464D01*
X132270495Y-66213036D01*
X132181964Y-66124505D01*
X132073536Y-66061905D01*
X131952601Y-66029500D01*
X131827399Y-66029500D01*
X131746775Y-66051103D01*
X131706463Y-66061905D01*
X131598036Y-66124505D01*
X131509505Y-66213036D01*
X131446905Y-66321463D01*
X131446905Y-66321464D01*
X131414500Y-66442399D01*
X126585500Y-66442399D01*
X126553095Y-66321464D01*
X126490495Y-66213036D01*
X126401964Y-66124505D01*
X126293536Y-66061905D01*
X126172601Y-66029500D01*
X126047399Y-66029500D01*
X125966775Y-66051103D01*
X125926463Y-66061905D01*
X125818036Y-66124505D01*
X125729505Y-66213036D01*
X125666905Y-66321463D01*
X125666905Y-66321464D01*
X125634500Y-66442399D01*
X120783824Y-66442399D01*
X120790927Y-66412806D01*
X120822680Y-66280500D01*
X120830000Y-66250000D01*
X120850000Y-66070000D01*
X120840000Y-65920000D01*
X120839999Y-65919993D01*
X120835910Y-65891368D01*
X120834837Y-65883856D01*
X122139500Y-65883856D01*
X122139500Y-65976144D01*
X122153797Y-66029500D01*
X122163387Y-66065290D01*
X122197575Y-66124505D01*
X122209531Y-66145212D01*
X122274788Y-66210469D01*
X122354712Y-66256614D01*
X122443856Y-66280500D01*
X122443858Y-66280500D01*
X122536142Y-66280500D01*
X122536144Y-66280500D01*
X122625288Y-66256614D01*
X122705212Y-66210469D01*
X122770469Y-66145212D01*
X122816614Y-66065288D01*
X122840500Y-65976144D01*
X122840500Y-65883856D01*
X122816614Y-65794712D01*
X122770469Y-65714788D01*
X122705212Y-65649531D01*
X122625288Y-65603386D01*
X122536144Y-65579500D01*
X122443856Y-65579500D01*
X122354712Y-65603386D01*
X122354711Y-65603386D01*
X122354709Y-65603387D01*
X122274790Y-65649529D01*
X122209529Y-65714790D01*
X122163387Y-65794709D01*
X122163386Y-65794711D01*
X122163386Y-65794712D01*
X122139500Y-65883856D01*
X120834837Y-65883856D01*
X120829546Y-65846822D01*
X120820000Y-65780000D01*
X120760300Y-65610850D01*
X120759736Y-65609208D01*
X120729990Y-65519970D01*
X120690002Y-65410004D01*
X120530001Y-65090002D01*
X120530000Y-65090000D01*
X120420000Y-64980000D01*
X120419997Y-64979998D01*
X120419996Y-64979997D01*
X120310002Y-64910001D01*
X120309995Y-64909997D01*
X120209813Y-64864460D01*
X120191379Y-64853534D01*
X120155423Y-64826567D01*
X120127962Y-64805971D01*
X120092754Y-64755930D01*
X120092785Y-64753856D01*
X127349500Y-64753856D01*
X127349500Y-64846144D01*
X127373386Y-64935288D01*
X127419531Y-65015212D01*
X127484788Y-65080469D01*
X127564712Y-65126614D01*
X127653856Y-65150500D01*
X127653858Y-65150500D01*
X127746142Y-65150500D01*
X127746144Y-65150500D01*
X127835288Y-65126614D01*
X127915212Y-65080469D01*
X127980469Y-65015212D01*
X128014264Y-64956679D01*
X128059733Y-64915738D01*
X128120584Y-64909342D01*
X128173572Y-64939935D01*
X128185736Y-64956679D01*
X128219527Y-65015207D01*
X128219529Y-65015209D01*
X128219531Y-65015212D01*
X128284788Y-65080469D01*
X128364712Y-65126614D01*
X128453856Y-65150500D01*
X128453858Y-65150500D01*
X128546142Y-65150500D01*
X128546144Y-65150500D01*
X128635288Y-65126614D01*
X128715212Y-65080469D01*
X128780469Y-65015212D01*
X128826614Y-64935288D01*
X128850500Y-64846144D01*
X128850500Y-64753856D01*
X129049500Y-64753856D01*
X129049500Y-64846144D01*
X129073386Y-64935288D01*
X129119531Y-65015212D01*
X129184788Y-65080469D01*
X129264712Y-65126614D01*
X129353856Y-65150500D01*
X129353858Y-65150500D01*
X129446142Y-65150500D01*
X129446144Y-65150500D01*
X129535288Y-65126614D01*
X129615212Y-65080469D01*
X129680469Y-65015212D01*
X129726614Y-64935288D01*
X129750500Y-64846144D01*
X129750500Y-64753856D01*
X129726614Y-64664712D01*
X129680469Y-64584788D01*
X129615212Y-64519531D01*
X129581380Y-64499998D01*
X129535290Y-64473387D01*
X129535289Y-64473386D01*
X129535288Y-64473386D01*
X129446144Y-64449500D01*
X129353856Y-64449500D01*
X129264712Y-64473386D01*
X129264711Y-64473386D01*
X129264709Y-64473387D01*
X129184790Y-64519529D01*
X129119529Y-64584790D01*
X129073387Y-64664709D01*
X129073386Y-64664711D01*
X129073386Y-64664712D01*
X129049500Y-64753856D01*
X128850500Y-64753856D01*
X128826614Y-64664712D01*
X128780469Y-64584788D01*
X128715212Y-64519531D01*
X128681380Y-64499998D01*
X128635290Y-64473387D01*
X128635289Y-64473386D01*
X128635288Y-64473386D01*
X128546144Y-64449500D01*
X128453856Y-64449500D01*
X128364712Y-64473386D01*
X128364711Y-64473386D01*
X128364709Y-64473387D01*
X128284790Y-64519529D01*
X128219529Y-64584790D01*
X128185736Y-64643321D01*
X128140266Y-64684261D01*
X128079416Y-64690656D01*
X128026428Y-64660063D01*
X128014264Y-64643321D01*
X127980470Y-64584790D01*
X127980469Y-64584788D01*
X127915212Y-64519531D01*
X127881380Y-64499998D01*
X127835290Y-64473387D01*
X127835289Y-64473386D01*
X127835288Y-64473386D01*
X127746144Y-64449500D01*
X127653856Y-64449500D01*
X127564712Y-64473386D01*
X127564711Y-64473386D01*
X127564709Y-64473387D01*
X127484790Y-64519529D01*
X127419529Y-64584790D01*
X127373387Y-64664709D01*
X127373386Y-64664711D01*
X127373386Y-64664712D01*
X127349500Y-64753856D01*
X120092785Y-64753856D01*
X120093683Y-64694752D01*
X120130394Y-64645804D01*
X120188866Y-64627782D01*
X120201358Y-64628765D01*
X120210000Y-64630000D01*
X120210002Y-64630000D01*
X120279999Y-64630000D01*
X120280000Y-64630000D01*
X120280000Y-64590000D01*
X120260000Y-64560000D01*
X120259999Y-64559999D01*
X120170000Y-64520000D01*
X120169998Y-64519999D01*
X120036031Y-64481723D01*
X120024230Y-64477527D01*
X119980002Y-64458572D01*
X119933964Y-64418271D01*
X119920000Y-64367577D01*
X119920000Y-64264000D01*
X119930989Y-64218666D01*
X120083382Y-63922846D01*
X120100019Y-63899579D01*
X120339351Y-63650674D01*
X120340609Y-63649390D01*
X120480000Y-63510000D01*
X120453333Y-63490000D01*
X120400000Y-63450000D01*
X120399999Y-63450000D01*
X120049999Y-63490000D01*
X119550001Y-63699999D01*
X119550000Y-63699999D01*
X119181169Y-64136772D01*
X119155002Y-64158651D01*
X118913472Y-64297995D01*
X118906381Y-64301713D01*
X118723040Y-64388559D01*
X118716859Y-64391233D01*
X118440000Y-64499998D01*
X118439998Y-64500000D01*
X118368341Y-64538584D01*
X118308142Y-64549524D01*
X118258716Y-64528039D01*
X118148693Y-64438022D01*
X118090000Y-64390000D01*
X117600000Y-64000000D01*
X117599998Y-63999999D01*
X117599997Y-63999998D01*
X117120003Y-63780001D01*
X117120000Y-63780000D01*
X116600000Y-63730000D01*
X116290000Y-63720000D01*
X116289999Y-63720000D01*
X116289998Y-63720001D01*
X116129999Y-63820000D01*
X116109999Y-63909999D01*
X115195723Y-63909999D01*
X115738442Y-62970010D01*
X116261627Y-62063856D01*
X118249500Y-62063856D01*
X118249500Y-62156144D01*
X118273386Y-62245288D01*
X118319531Y-62325212D01*
X118384788Y-62390469D01*
X118464712Y-62436614D01*
X118553856Y-62460500D01*
X118553858Y-62460500D01*
X118646142Y-62460500D01*
X118646144Y-62460500D01*
X118735288Y-62436614D01*
X118815212Y-62390469D01*
X118880469Y-62325212D01*
X118926614Y-62245288D01*
X118950500Y-62156144D01*
X118950500Y-62063856D01*
X118926614Y-61974712D01*
X118880469Y-61894788D01*
X118815212Y-61829531D01*
X118735288Y-61783386D01*
X118646144Y-61759500D01*
X118553856Y-61759500D01*
X118464712Y-61783386D01*
X118464711Y-61783386D01*
X118464709Y-61783387D01*
X118384790Y-61829529D01*
X118319529Y-61894790D01*
X118273387Y-61974709D01*
X118273386Y-61974711D01*
X118273386Y-61974712D01*
X118249500Y-62063856D01*
X116261627Y-62063856D01*
X116293954Y-62007866D01*
X116558311Y-61549999D01*
X116603781Y-61509059D01*
X116644047Y-61500500D01*
X141355953Y-61500500D01*
X141414144Y-61519407D01*
G37*
%TD.AperFunction*%
%TD*%
M02*
