%TF.GenerationSoftware,KiCad,Pcbnew,9.0.3*%
%TF.CreationDate,2025-09-26T09:37:03+02:00*%
%TF.ProjectId,PCB_PAPI,5043425f-5041-4504-992e-6b696361645f,rev?*%
%TF.SameCoordinates,Original*%
%TF.FileFunction,Copper,L4,Inr*%
%TF.FilePolarity,Positive*%
%FSLAX46Y46*%
G04 Gerber Fmt 4.6, Leading zero omitted, Abs format (unit mm)*
G04 Created by KiCad (PCBNEW 9.0.3) date 2025-09-26 09:37:03*
%MOMM*%
%LPD*%
G01*
G04 APERTURE LIST*
%TA.AperFunction,ComponentPad*%
%ADD10C,0.800000*%
%TD*%
%TA.AperFunction,ComponentPad*%
%ADD11C,5.000000*%
%TD*%
%TA.AperFunction,ComponentPad*%
%ADD12C,2.550000*%
%TD*%
%TA.AperFunction,ComponentPad*%
%ADD13C,1.500000*%
%TD*%
%TA.AperFunction,ViaPad*%
%ADD14C,0.400000*%
%TD*%
%TA.AperFunction,Conductor*%
%ADD15C,0.300000*%
%TD*%
G04 APERTURE END LIST*
D10*
%TO.N,GND*%
%TO.C,H3*%
X137625000Y-101186533D03*
X138174175Y-99860708D03*
X138174175Y-102512358D03*
X139500000Y-99311533D03*
D11*
X139500000Y-101186533D03*
D10*
X139500000Y-103061533D03*
X140825825Y-99860708D03*
X140825825Y-102512358D03*
X141375000Y-101186533D03*
%TD*%
%TO.N,GND*%
%TO.C,H3*%
X106125000Y-83000000D03*
X106674175Y-81674175D03*
X106674175Y-84325825D03*
X108000000Y-81125000D03*
D11*
X108000000Y-83000000D03*
D10*
X108000000Y-84875000D03*
X109325825Y-81674175D03*
X109325825Y-84325825D03*
X109875000Y-83000000D03*
%TD*%
%TO.N,GND*%
%TO.C,H3*%
X137625000Y-64813467D03*
X138174175Y-63487642D03*
X138174175Y-66139292D03*
X139500000Y-62938467D03*
D11*
X139500000Y-64813467D03*
D10*
X139500000Y-66688467D03*
X140825825Y-63487642D03*
X140825825Y-66139292D03*
X141375000Y-64813467D03*
%TD*%
D12*
%TO.N,/BAT+*%
%TO.C,J3*%
X119173647Y-86476918D03*
%TO.N,GND*%
X121673647Y-90807046D03*
D13*
X114513393Y-98405122D03*
X109013393Y-88878842D03*
%TD*%
D14*
%TO.N,/STM32/ADC_VBAT*%
X120600000Y-80700000D03*
X130103705Y-82097982D03*
%TO.N,GND*%
X111720000Y-79110000D03*
X126114000Y-61750808D03*
X133050000Y-91860000D03*
X117690000Y-103205000D03*
X133410000Y-67005000D03*
X130438000Y-104270000D03*
X143075000Y-101143648D03*
X139102000Y-104270000D03*
X133593705Y-77407982D03*
X109500000Y-91764593D03*
X149218000Y-75506756D03*
X123630000Y-92770000D03*
X128690000Y-91740000D03*
X142353000Y-102394189D03*
X133410000Y-63775000D03*
X141992000Y-103019459D03*
X123190000Y-63075000D03*
X137666000Y-61750808D03*
X145400000Y-75875000D03*
X110030000Y-85400000D03*
X118164000Y-104270000D03*
X139832000Y-61750808D03*
X151400000Y-81200000D03*
X133600000Y-91290000D03*
X106983000Y-78632299D03*
X140003705Y-82597982D03*
X144886000Y-68003512D03*
X124190000Y-100810000D03*
X123948000Y-61750808D03*
X150113813Y-87228304D03*
X147300000Y-83700000D03*
X140003705Y-79397982D03*
X120860000Y-78330000D03*
X145247000Y-68628782D03*
X140725000Y-89000000D03*
X125200000Y-102000000D03*
X117450000Y-61750808D03*
X122504000Y-61750808D03*
X129724000Y-61750808D03*
X124590000Y-67005000D03*
X130490000Y-81650000D03*
X132828705Y-63247982D03*
X150656000Y-88012971D03*
X110944000Y-94265674D03*
X128272000Y-104270000D03*
X146691000Y-71129863D03*
X116965000Y-103205000D03*
X141637000Y-62376079D03*
X144519000Y-98642567D03*
X152100000Y-81900000D03*
X151384000Y-79258378D03*
X120590000Y-96680000D03*
X120540000Y-69470000D03*
X130920000Y-77000000D03*
X121052000Y-104270000D03*
X124400000Y-102800000D03*
X147407000Y-93640404D03*
X111666000Y-95516215D03*
X134103705Y-87697982D03*
X118415000Y-96680000D03*
X137900000Y-92375000D03*
X130903705Y-86897982D03*
X143436000Y-100518378D03*
X136222000Y-61750808D03*
X152106000Y-80508918D03*
X140210000Y-70500000D03*
X123226000Y-61750808D03*
X123190000Y-67705000D03*
X117640000Y-62945000D03*
X152828000Y-81759459D03*
X145775000Y-79050000D03*
X152822000Y-84261349D03*
X140003705Y-81797982D03*
X131160000Y-104270000D03*
X123950000Y-75100000D03*
X145963000Y-96141485D03*
X133700000Y-80900000D03*
X141603705Y-80197982D03*
X140803705Y-80997982D03*
X124670000Y-61750808D03*
X121782000Y-61750808D03*
X121265000Y-62945000D03*
X134110000Y-63775000D03*
X130500000Y-70900000D03*
X139410000Y-69700000D03*
X111676000Y-70503785D03*
X150301000Y-77382567D03*
X117640000Y-69470000D03*
X111250000Y-84100000D03*
X133334000Y-61750808D03*
X128280000Y-61750808D03*
X129300000Y-97150000D03*
X148130737Y-76761826D03*
X116915000Y-62945000D03*
X127530000Y-90690000D03*
X148857000Y-74881485D03*
X124662000Y-104270000D03*
X128653705Y-75347982D03*
X149800000Y-82000000D03*
X124590000Y-63775000D03*
X148496000Y-74256215D03*
X148490000Y-91764593D03*
X143913705Y-86002982D03*
X128250000Y-97150000D03*
X145900000Y-83700000D03*
X104817000Y-82383921D03*
X146360000Y-88500000D03*
X143203705Y-80197982D03*
X121990000Y-66570000D03*
X114300000Y-70400000D03*
X149960000Y-89280000D03*
X135492000Y-104270000D03*
X133400000Y-102900000D03*
X139824000Y-104270000D03*
X152100000Y-84000000D03*
X140803705Y-79397982D03*
X113330000Y-91320000D03*
X138225000Y-82200000D03*
X136053705Y-94247982D03*
X135500000Y-61750808D03*
X121990000Y-68020000D03*
X148553705Y-78967982D03*
X119090000Y-69470000D03*
X149573000Y-89888782D03*
X121774000Y-104270000D03*
X132612000Y-61750808D03*
X123630000Y-91530000D03*
X112388000Y-96766756D03*
X133588705Y-78527982D03*
X140003705Y-80197982D03*
X121060000Y-61750808D03*
X129002000Y-61750808D03*
X121990000Y-63670000D03*
X115465000Y-67300000D03*
X123890000Y-63775000D03*
X142714000Y-101768918D03*
X134500000Y-81700000D03*
X131950000Y-73530000D03*
X133410000Y-67705000D03*
X142403705Y-79397982D03*
X126050000Y-75100000D03*
X136936000Y-104270000D03*
X138900000Y-90300000D03*
X150700000Y-84700000D03*
X134810000Y-63075000D03*
X111305000Y-94890945D03*
X143797000Y-99893107D03*
X112037000Y-69878515D03*
X143203705Y-79397982D03*
X142700000Y-84650000D03*
X133800000Y-79400000D03*
X136853705Y-93447982D03*
X134770000Y-104270000D03*
X131325000Y-81700000D03*
X129280000Y-92740000D03*
X135703705Y-89400000D03*
X146324000Y-95516215D03*
X136550000Y-97810000D03*
X113120000Y-68002704D03*
X152100000Y-85511890D03*
X119815000Y-69470000D03*
X121100000Y-81200000D03*
X152100000Y-82600000D03*
X123100000Y-73500000D03*
X136600000Y-90300000D03*
X105529000Y-84886619D03*
X144763705Y-85920000D03*
X134810000Y-67705000D03*
X137490000Y-80580000D03*
X150700000Y-81200000D03*
X133410000Y-63075000D03*
X128653705Y-74547982D03*
X123053705Y-80450000D03*
X110228769Y-90072037D03*
X113953769Y-96523927D03*
X146600000Y-83700000D03*
X115515000Y-97405000D03*
X143442000Y-65502430D03*
X115515000Y-98855000D03*
X121040000Y-103210000D03*
X122040000Y-98855000D03*
X109730083Y-76342228D03*
X136853705Y-94247982D03*
X134056000Y-61750808D03*
X126828000Y-104270000D03*
X115998000Y-103019459D03*
X143100000Y-89050000D03*
X152100000Y-84700000D03*
X133883705Y-89297982D03*
X107695000Y-88638241D03*
X117690000Y-96680000D03*
X115465000Y-64395000D03*
X150000000Y-81200000D03*
X110630000Y-86120000D03*
X141010000Y-70500000D03*
X118415000Y-103205000D03*
X124660000Y-91910000D03*
X112230000Y-91610000D03*
X145241000Y-97392026D03*
X124400000Y-102000000D03*
X128800000Y-88100000D03*
X118886000Y-104270000D03*
X145400000Y-95500000D03*
X148600000Y-83700000D03*
X112250000Y-76950000D03*
X117442000Y-104270000D03*
X123890000Y-67705000D03*
X136053705Y-93447982D03*
X105168000Y-84261349D03*
X123700000Y-83350000D03*
X144000000Y-94700000D03*
X116730000Y-61750000D03*
X144158000Y-99267837D03*
X131168000Y-61750808D03*
X122496000Y-104270000D03*
X144000000Y-83300000D03*
X112703702Y-77793589D03*
X119815000Y-62945000D03*
X147046000Y-94265674D03*
X123890000Y-67005000D03*
X138300000Y-79325000D03*
X145969000Y-69879323D03*
X148410000Y-88510000D03*
X120338000Y-61750808D03*
X147900000Y-91200000D03*
X148851000Y-91139323D03*
X113110000Y-98017296D03*
X121990000Y-65120000D03*
X123190000Y-66305000D03*
X153550000Y-83010000D03*
X110500000Y-76800000D03*
X127300000Y-69600000D03*
X131890000Y-61750808D03*
X134110000Y-63075000D03*
X124590000Y-66305000D03*
X109861000Y-92389863D03*
X145600000Y-82300000D03*
X143180737Y-68188174D03*
X124750000Y-90620000D03*
X108417000Y-89888782D03*
X123950000Y-75700000D03*
X142720000Y-64251890D03*
X127570000Y-91620000D03*
X122040000Y-98130000D03*
X144525000Y-67378241D03*
X135510000Y-98080000D03*
X124590000Y-67705000D03*
X108778000Y-90514052D03*
X115515000Y-96680000D03*
X107344000Y-78007029D03*
X143203705Y-81797982D03*
X116440000Y-69480000D03*
X151378000Y-86762430D03*
X132600000Y-102900000D03*
X144107965Y-89880739D03*
X127920000Y-87980000D03*
X144253641Y-69272037D03*
X133400000Y-102100000D03*
X144693705Y-95088895D03*
X134100000Y-76600000D03*
X121080000Y-81870000D03*
X146330000Y-70504593D03*
X130253705Y-75347982D03*
X114222373Y-68913175D03*
X124590000Y-63075000D03*
X134810000Y-67005000D03*
X144900000Y-82300000D03*
X122040000Y-101030000D03*
X123560000Y-95710000D03*
X122050000Y-102230000D03*
X143650000Y-93200000D03*
X123940000Y-104270000D03*
X120890000Y-77570000D03*
X126050000Y-75700000D03*
X150000000Y-84700000D03*
X108056000Y-89263512D03*
X127010000Y-83140000D03*
X127103705Y-75547982D03*
X134400000Y-90300000D03*
X123053705Y-81850000D03*
X129716000Y-104270000D03*
X147978641Y-75723927D03*
X106251000Y-86137160D03*
X126836000Y-61750808D03*
X113700000Y-77775000D03*
X137658000Y-104270000D03*
X134250000Y-94100000D03*
X136630000Y-96400000D03*
X149247216Y-83923608D03*
X131300000Y-70900000D03*
X140210000Y-69700000D03*
X122453705Y-82550000D03*
X146500000Y-90400000D03*
X133326000Y-104270000D03*
X123600000Y-102800000D03*
X121070000Y-79120000D03*
X137350000Y-82200000D03*
X148400000Y-81400000D03*
X143081000Y-64877160D03*
X140803705Y-82597982D03*
X145602000Y-96766756D03*
X132600000Y-102100000D03*
X151017000Y-87387701D03*
X149100000Y-82000000D03*
X151745000Y-79883648D03*
X132503705Y-85297982D03*
X138900000Y-83400000D03*
X140210000Y-71300000D03*
X137625000Y-70100000D03*
X132503705Y-84497982D03*
X141923705Y-86682982D03*
X123600000Y-102000000D03*
X115465000Y-65845000D03*
X116359000Y-103644729D03*
X147700000Y-82300000D03*
X134200000Y-102100000D03*
X143313813Y-99006250D03*
X134110000Y-67005000D03*
X123053705Y-82550000D03*
X135925000Y-69127276D03*
X119160000Y-103210000D03*
X139175000Y-89000000D03*
X123190000Y-67005000D03*
X149579000Y-76132026D03*
X147774000Y-73005674D03*
X121225000Y-89200000D03*
X112749000Y-97392026D03*
X139616205Y-73272982D03*
X115276000Y-101768918D03*
X141600000Y-91325000D03*
X109272373Y-77486826D03*
X118365000Y-69470000D03*
X109139000Y-91139323D03*
X125392000Y-61750808D03*
X147052000Y-71755134D03*
X104807000Y-83636079D03*
X138388000Y-61750808D03*
X138380000Y-104270000D03*
X146250000Y-85525000D03*
X127550000Y-104270000D03*
X108130000Y-79860000D03*
X134110000Y-66305000D03*
X143400000Y-69700000D03*
X123700000Y-82700000D03*
X151739000Y-86137160D03*
X148200000Y-86400000D03*
X151400000Y-84700000D03*
X119090000Y-62945000D03*
X108900000Y-75900000D03*
X129900000Y-69600000D03*
X105539000Y-81133381D03*
X134778000Y-61750808D03*
X143940000Y-78690000D03*
X144850000Y-79725000D03*
X141603705Y-80997982D03*
X125200000Y-102800000D03*
X122453705Y-80450000D03*
X111490000Y-81420000D03*
X132503705Y-83697982D03*
X152100000Y-83300000D03*
X118172000Y-61750808D03*
X127558000Y-61750808D03*
X144164000Y-66752971D03*
X134200000Y-95840000D03*
X153189000Y-82384729D03*
X139410000Y-71300000D03*
X134900000Y-92075000D03*
X142403705Y-80997982D03*
X133410000Y-66305000D03*
X141010000Y-69700000D03*
X146300000Y-82300000D03*
X106973000Y-87387701D03*
X141010000Y-71300000D03*
X114420000Y-67180000D03*
X107334000Y-88012971D03*
X141276000Y-61750808D03*
X123218000Y-104270000D03*
X141998000Y-63001349D03*
X146685000Y-94890945D03*
X134110000Y-67705000D03*
X125384000Y-104270000D03*
X134200000Y-102900000D03*
X114740000Y-71470000D03*
X128994000Y-104270000D03*
X142359000Y-63626619D03*
X116240000Y-96680000D03*
X115460000Y-68470000D03*
X104446000Y-83010808D03*
X121990000Y-68745000D03*
X112680000Y-72380000D03*
X138900000Y-93500000D03*
X148135000Y-73630945D03*
X116720000Y-104270000D03*
X150662000Y-78007837D03*
X141631000Y-103644729D03*
X144880000Y-98017296D03*
X132604000Y-104270000D03*
X147503705Y-78967982D03*
X143203705Y-82597982D03*
X149800000Y-83900000D03*
X105890000Y-85511890D03*
X122400000Y-73500000D03*
X106612000Y-86762430D03*
X139600000Y-85700000D03*
X148025000Y-78400000D03*
X126170000Y-91747982D03*
X139110000Y-61750808D03*
X145608000Y-69254052D03*
X147900000Y-83700000D03*
X140546000Y-104270000D03*
X112759000Y-68627974D03*
X147168705Y-90802069D03*
X148129000Y-92389863D03*
X152100000Y-81200000D03*
X147413000Y-72380404D03*
X130446000Y-61750808D03*
X125378705Y-63247982D03*
X147768000Y-93015134D03*
X151023000Y-78633107D03*
X138900000Y-84200000D03*
X136214000Y-104270000D03*
X115465000Y-65120000D03*
X121990000Y-67295000D03*
X138880000Y-95480000D03*
X121990000Y-65845000D03*
X119140000Y-96680000D03*
X153183000Y-83636079D03*
X135120000Y-95190000D03*
X110222000Y-93015134D03*
X123890000Y-66305000D03*
X149212000Y-90514052D03*
X111440000Y-77750000D03*
X122040000Y-100305000D03*
X134810000Y-66305000D03*
X122453705Y-81850000D03*
X105178000Y-81758651D03*
X140554000Y-61750808D03*
X134048000Y-104270000D03*
X141270000Y-104270000D03*
X113100000Y-78810000D03*
X119375000Y-88475000D03*
X121990000Y-69470000D03*
X121990000Y-62945000D03*
X140750000Y-90275000D03*
X115637000Y-102394189D03*
X121370000Y-87500000D03*
X106622000Y-79257570D03*
X127543705Y-87147982D03*
X130253705Y-74547982D03*
X149940000Y-76757296D03*
X146600000Y-78700000D03*
X147000000Y-82300000D03*
X105900000Y-80508110D03*
X121265000Y-69470000D03*
X147300000Y-76100000D03*
X119865000Y-96680000D03*
X123190000Y-63775000D03*
X143803000Y-66127701D03*
X122040000Y-99580000D03*
X137775000Y-82725000D03*
X131740000Y-90800000D03*
X123890000Y-63075000D03*
X135703705Y-87697982D03*
X118365000Y-62945000D03*
X134810000Y-63775000D03*
X142403705Y-82597982D03*
X130591205Y-78467982D03*
X141603705Y-81797982D03*
X126106000Y-104270000D03*
X139410000Y-70500000D03*
X136944000Y-61750808D03*
X140310000Y-93850000D03*
X111490000Y-82260000D03*
X113455083Y-69890338D03*
X115515000Y-101030000D03*
X106261000Y-79882840D03*
X111230000Y-84820000D03*
X115515000Y-100305000D03*
X131882000Y-104270000D03*
%TO.N,+3.3V*%
X130103705Y-86897982D03*
X140453705Y-86597982D03*
X133303705Y-83697982D03*
X124700000Y-88300000D03*
X130828905Y-102808905D03*
X141025000Y-85725000D03*
X134903705Y-87697982D03*
X125300000Y-88300000D03*
X128503705Y-76397982D03*
X142100000Y-75600000D03*
X134600000Y-98600000D03*
X145603705Y-79877982D03*
X129453705Y-76397982D03*
X115410000Y-69360000D03*
X134843705Y-89297982D03*
X148000000Y-79900000D03*
X112500000Y-75900000D03*
X144103705Y-80747982D03*
X143353705Y-83497982D03*
X136503705Y-87697982D03*
X136663705Y-89297982D03*
X144223705Y-83997982D03*
X128200000Y-86400000D03*
X143900000Y-86900000D03*
X112000000Y-75600000D03*
X143100000Y-86900000D03*
X133303705Y-84497982D03*
X134000000Y-98600000D03*
X128980000Y-76097984D03*
X138353705Y-80767982D03*
X128980000Y-76760000D03*
X131703705Y-86897982D03*
X141750000Y-76050000D03*
X141453705Y-84477982D03*
X142350000Y-76100000D03*
X133730000Y-84850000D03*
X133303705Y-85297982D03*
X149350000Y-79900000D03*
%TO.N,Net-(C7-Pad1)*%
X132503705Y-82897982D03*
%TO.N,Net-(C10-Pad1)*%
X133303705Y-82097982D03*
%TO.N,VBAT+*%
X116093705Y-82205982D03*
X118193705Y-81505982D03*
X117493705Y-82205982D03*
X116093705Y-81505982D03*
X116793705Y-81505982D03*
X118193705Y-80805982D03*
X117493705Y-81505982D03*
X117493705Y-80805982D03*
X118193705Y-82205982D03*
X116793705Y-80805982D03*
X116093705Y-80805982D03*
X116793705Y-82205982D03*
%TO.N,+5V*%
X121800000Y-76100000D03*
X114054955Y-89999184D03*
X121100000Y-76100000D03*
X121800000Y-75400000D03*
X115400000Y-89200000D03*
X121100000Y-75400000D03*
X122500000Y-76100000D03*
X122500000Y-75400000D03*
%TO.N,4.5V*%
X137950000Y-95800000D03*
X125400000Y-74200000D03*
X124700000Y-73500000D03*
X124000000Y-74200000D03*
X137950000Y-95250000D03*
X141500000Y-89700000D03*
X142100000Y-90000000D03*
X125400000Y-73500000D03*
X124000000Y-73500000D03*
X122075000Y-92940000D03*
X121590000Y-92580000D03*
X124700000Y-74200000D03*
X132500000Y-92300000D03*
%TO.N,/ESP32/CHIP_PU*%
X144800000Y-81300000D03*
%TO.N,Net-(S1-COM_1)*%
X131703705Y-84497982D03*
X127620000Y-90000787D03*
%TO.N,/NRST*%
X132503705Y-87697982D03*
X129400000Y-64800000D03*
X131850000Y-74150000D03*
%TO.N,/GPIO_MOT1*%
X145100000Y-73350000D03*
X136503705Y-82097982D03*
%TO.N,/TX_MOT1*%
X134903705Y-80497982D03*
X144500000Y-72450000D03*
%TO.N,/RX_MOT1*%
X134103705Y-80497982D03*
X144000000Y-71600000D03*
%TO.N,/RX_MOT2*%
X134903705Y-86897982D03*
X129800000Y-102100000D03*
%TO.N,/TX_MOT2*%
X134103705Y-86897982D03*
X128800000Y-102150000D03*
%TO.N,/GPIO_MOT2*%
X136503705Y-86897982D03*
X130850000Y-102150000D03*
%TO.N,/GPIO_MOT3*%
X113100000Y-73100000D03*
X131703705Y-80497982D03*
%TO.N,/TX_MOT3*%
X114050000Y-71550000D03*
X133303705Y-80497982D03*
%TO.N,/RX_MOT3*%
X113650000Y-72250000D03*
X132503705Y-80497982D03*
%TO.N,/ACCEL_MOSI*%
X128650000Y-92600000D03*
X132503705Y-86097982D03*
%TO.N,Net-(IC5-INT2)*%
X129943705Y-92707982D03*
%TO.N,/ACCEL_MISO*%
X131703705Y-86097982D03*
X128000000Y-92600000D03*
%TO.N,Net-(IC5-INT1)*%
X130773705Y-92707982D03*
%TO.N,/SAI_FS*%
X131350000Y-83300000D03*
X136445361Y-91554639D03*
%TO.N,/SAI_SD*%
X134250000Y-92400000D03*
X133700000Y-81700000D03*
%TO.N,/SAI_CLK*%
X131322705Y-82477295D03*
X135350000Y-91550000D03*
%TO.N,/GND_CONTROLLED*%
X149691910Y-88380706D03*
%TO.N,/BTN_A*%
X122800000Y-89300000D03*
%TO.N,/GND_CONTROl_GPIO*%
X145500000Y-85200000D03*
X135303707Y-83397980D03*
%TO.N,/ACCEL_CLK*%
X126750000Y-92626338D03*
X129303705Y-86097982D03*
%TO.N,/ACCEL_INT2*%
X129943705Y-92067982D03*
X132503705Y-86897982D03*
%TO.N,/ACCEL_INT1*%
X130773705Y-92067982D03*
X133303705Y-87697982D03*
%TO.N,/AMPLI_SD_MODE*%
X133573705Y-94237982D03*
X136100000Y-87300000D03*
%TO.N,/SWDIO*%
X127700000Y-64800000D03*
X131800000Y-75600000D03*
%TO.N,/SWCLK*%
X128500000Y-64800000D03*
X131800000Y-76400000D03*
%TO.N,/RX_LIDAR*%
X112900000Y-93200000D03*
X131703705Y-85297982D03*
%TO.N,/SDA_TOF1*%
X145700000Y-74150000D03*
X135703705Y-80497982D03*
%TO.N,/SDA_TOF3*%
X112650000Y-73750000D03*
X132900000Y-80901687D03*
%TO.N,/SCL_TOF1*%
X146350000Y-75050000D03*
X136503705Y-80497982D03*
%TO.N,/SDA_TOF2*%
X126500000Y-102150000D03*
X129303705Y-85297982D03*
%TO.N,/LIDAR_PWM*%
X112400000Y-92450000D03*
X129303705Y-84497982D03*
%TO.N,/SCL_TOF2*%
X127550000Y-102150000D03*
X130103705Y-85297982D03*
%TO.N,/SCL_TOF3*%
X112300000Y-74450000D03*
X130500000Y-80900000D03*
%TO.N,/TX_SUP*%
X142107965Y-93344841D03*
X136850000Y-84100000D03*
%TO.N,/RX_SUP*%
X136050000Y-84100000D03*
X141607965Y-94210866D03*
%TO.N,/RED*%
X130903705Y-82897982D03*
X114730000Y-81825000D03*
%TO.N,/GREEN*%
X114730000Y-84015000D03*
X130103705Y-82897982D03*
%TO.N,/BLUE*%
X114730000Y-87480000D03*
X130103705Y-83697982D03*
%TO.N,/ACCESOIRES/BLEU1*%
X108070000Y-77700000D03*
X111138835Y-72288835D03*
X118790000Y-103670000D03*
X113650000Y-67530000D03*
%TO.N,/ACCESOIRES/RED1*%
X122050000Y-97400000D03*
X110303701Y-79196299D03*
X122490000Y-65930000D03*
X112478784Y-73138784D03*
%TO.N,/ACCESOIRES/GREEN1*%
X114890000Y-100987837D03*
X109660000Y-78810000D03*
X111953840Y-72813840D03*
X118600000Y-62110000D03*
%TD*%
D15*
%TO.N,+3.3V*%
X112200000Y-75600000D02*
X112500000Y-75900000D01*
X112000000Y-75600000D02*
X112200000Y-75600000D01*
X133730000Y-84850000D02*
X133655723Y-84850000D01*
X134000000Y-98600000D02*
X134600000Y-98600000D01*
X131702018Y-86897982D02*
X131700000Y-86900000D01*
X133303705Y-85297982D02*
X133303705Y-85276295D01*
X141800000Y-76100000D02*
X141750000Y-76050000D01*
X140950000Y-77500000D02*
X140975000Y-77475000D01*
X131703705Y-86897982D02*
X131702018Y-86897982D01*
X147977982Y-79877982D02*
X148000000Y-79900000D01*
%TD*%
%TA.AperFunction,Conductor*%
%TO.N,4.5V*%
G36*
X125612568Y-73314352D02*
G01*
X125614626Y-73316539D01*
X126796746Y-74653244D01*
X126809040Y-74685527D01*
X126811417Y-75339930D01*
X126804853Y-75364607D01*
X126777090Y-75412694D01*
X126777090Y-75412695D01*
X126753205Y-75501835D01*
X126753205Y-75594128D01*
X126777090Y-75683268D01*
X126777091Y-75683272D01*
X126806373Y-75733988D01*
X126812938Y-75758310D01*
X126819505Y-77565219D01*
X126805279Y-77599919D01*
X126800000Y-77604525D01*
X126036005Y-78180437D01*
X126096953Y-84580020D01*
X126082932Y-84614804D01*
X126082265Y-84615470D01*
X121594640Y-89016794D01*
X121559854Y-89030809D01*
X121525347Y-89016121D01*
X121517898Y-89006315D01*
X121505469Y-88984788D01*
X121440212Y-88919531D01*
X121431865Y-88914712D01*
X121360289Y-88873386D01*
X121360286Y-88873385D01*
X121271147Y-88849500D01*
X121271144Y-88849500D01*
X121178856Y-88849500D01*
X121178853Y-88849500D01*
X121089713Y-88873385D01*
X121089710Y-88873386D01*
X121009794Y-88919527D01*
X121009784Y-88919534D01*
X120944534Y-88984784D01*
X120944527Y-88984794D01*
X120898386Y-89064710D01*
X120898385Y-89064713D01*
X120874500Y-89153853D01*
X120874500Y-89246146D01*
X120898385Y-89335286D01*
X120898386Y-89335289D01*
X120928772Y-89387917D01*
X120944531Y-89415212D01*
X120944534Y-89415215D01*
X121005127Y-89475808D01*
X121019479Y-89510456D01*
X121005127Y-89545104D01*
X120992726Y-89554115D01*
X120926520Y-89587850D01*
X120744994Y-89719736D01*
X120586337Y-89878393D01*
X120454450Y-90059921D01*
X120352584Y-90259843D01*
X120320671Y-90358058D01*
X120310692Y-90375469D01*
X120200000Y-90499998D01*
X120200000Y-90500000D01*
X120200000Y-91460006D01*
X120900000Y-92300000D01*
X122079704Y-92300000D01*
X122114352Y-92314352D01*
X122385648Y-92585648D01*
X122400000Y-92620296D01*
X122400000Y-93900001D01*
X123521954Y-95285976D01*
X123532600Y-95321936D01*
X123514699Y-95354891D01*
X123496551Y-95364136D01*
X123424713Y-95383385D01*
X123424710Y-95383386D01*
X123344794Y-95429527D01*
X123344784Y-95429534D01*
X123279534Y-95494784D01*
X123279527Y-95494794D01*
X123233386Y-95574710D01*
X123233385Y-95574713D01*
X123209500Y-95663853D01*
X123209500Y-95756146D01*
X123233385Y-95845286D01*
X123233386Y-95845289D01*
X123276430Y-95919842D01*
X123279531Y-95925212D01*
X123344788Y-95990469D01*
X123424712Y-96036614D01*
X123446998Y-96042585D01*
X123513853Y-96060500D01*
X123513856Y-96060500D01*
X123606146Y-96060500D01*
X123650716Y-96048557D01*
X123695288Y-96036614D01*
X123775212Y-95990469D01*
X123840469Y-95925212D01*
X123886614Y-95845288D01*
X123886615Y-95845286D01*
X123887638Y-95843514D01*
X123917391Y-95820684D01*
X123954573Y-95825579D01*
X123968158Y-95837184D01*
X126204671Y-98600000D01*
X126392508Y-98832039D01*
X129166312Y-98853452D01*
X132100000Y-94650862D01*
X132100000Y-92288041D01*
X132111699Y-92256266D01*
X132125556Y-92240000D01*
X132315327Y-92017225D01*
X132348721Y-92000156D01*
X132352628Y-92000000D01*
X132658444Y-92000000D01*
X132693092Y-92014352D01*
X132694565Y-92015889D01*
X132887121Y-92225950D01*
X132900000Y-92259061D01*
X132900000Y-98600000D01*
X133399999Y-99200000D01*
X133400000Y-99200000D01*
X134900000Y-99200000D01*
X135600000Y-98558333D01*
X135600000Y-98456347D01*
X135614352Y-98421699D01*
X135636316Y-98409017D01*
X135645288Y-98406614D01*
X135725212Y-98360469D01*
X135790469Y-98295212D01*
X135836614Y-98215288D01*
X135857695Y-98136613D01*
X135860500Y-98126146D01*
X135860500Y-98033853D01*
X135842585Y-97966998D01*
X135836614Y-97944712D01*
X135790469Y-97864788D01*
X135725212Y-97799531D01*
X135725211Y-97799530D01*
X135663419Y-97763853D01*
X136199500Y-97763853D01*
X136199500Y-97856146D01*
X136223385Y-97945286D01*
X136223386Y-97945289D01*
X136251921Y-97994712D01*
X136269531Y-98025212D01*
X136334788Y-98090469D01*
X136414712Y-98136614D01*
X136436998Y-98142585D01*
X136503853Y-98160500D01*
X136503856Y-98160500D01*
X136596146Y-98160500D01*
X136640716Y-98148557D01*
X136685288Y-98136614D01*
X136765212Y-98090469D01*
X136830469Y-98025212D01*
X136876614Y-97945288D01*
X136888557Y-97900716D01*
X136900500Y-97856146D01*
X136900500Y-97763853D01*
X136882585Y-97696998D01*
X136876614Y-97674712D01*
X136830469Y-97594788D01*
X136765212Y-97529531D01*
X136714930Y-97500500D01*
X136685289Y-97483386D01*
X136685286Y-97483385D01*
X136596147Y-97459500D01*
X136596144Y-97459500D01*
X136503856Y-97459500D01*
X136503853Y-97459500D01*
X136414713Y-97483385D01*
X136414710Y-97483386D01*
X136334794Y-97529527D01*
X136334784Y-97529534D01*
X136269534Y-97594784D01*
X136269527Y-97594794D01*
X136223386Y-97674710D01*
X136223385Y-97674713D01*
X136199500Y-97763853D01*
X135663419Y-97763853D01*
X135645290Y-97753386D01*
X135645284Y-97753384D01*
X135636318Y-97750982D01*
X135606565Y-97728152D01*
X135600000Y-97703652D01*
X135600000Y-96361874D01*
X135600545Y-96360557D01*
X135600072Y-96359213D01*
X135602641Y-96353853D01*
X136279500Y-96353853D01*
X136279500Y-96446146D01*
X136303385Y-96535286D01*
X136303386Y-96535289D01*
X136308827Y-96544712D01*
X136349531Y-96615212D01*
X136414788Y-96680469D01*
X136494712Y-96726614D01*
X136516998Y-96732585D01*
X136583853Y-96750500D01*
X136583856Y-96750500D01*
X136676146Y-96750500D01*
X136720716Y-96738557D01*
X136765288Y-96726614D01*
X136845212Y-96680469D01*
X136910469Y-96615212D01*
X136956614Y-96535288D01*
X136968557Y-96490716D01*
X136980500Y-96446146D01*
X136980500Y-96353853D01*
X136956614Y-96264713D01*
X136956613Y-96264710D01*
X136945077Y-96244731D01*
X136910469Y-96184788D01*
X136845212Y-96119531D01*
X136811384Y-96100000D01*
X136765289Y-96073386D01*
X136765286Y-96073385D01*
X136676147Y-96049500D01*
X136676144Y-96049500D01*
X136583856Y-96049500D01*
X136583853Y-96049500D01*
X136494713Y-96073385D01*
X136494710Y-96073386D01*
X136414794Y-96119527D01*
X136414784Y-96119534D01*
X136349534Y-96184784D01*
X136349527Y-96184794D01*
X136303386Y-96264710D01*
X136303385Y-96264713D01*
X136279500Y-96353853D01*
X135602641Y-96353853D01*
X135607647Y-96343410D01*
X135614352Y-96327226D01*
X135616285Y-96325395D01*
X135619322Y-96322670D01*
X136610367Y-95433853D01*
X138529500Y-95433853D01*
X138529500Y-95526146D01*
X138553385Y-95615286D01*
X138553386Y-95615289D01*
X138581427Y-95663856D01*
X138599531Y-95695212D01*
X138664788Y-95760469D01*
X138744712Y-95806614D01*
X138766998Y-95812585D01*
X138833853Y-95830500D01*
X138833856Y-95830500D01*
X138926146Y-95830500D01*
X138970716Y-95818557D01*
X139015288Y-95806614D01*
X139095212Y-95760469D01*
X139160469Y-95695212D01*
X139206614Y-95615288D01*
X139221554Y-95559531D01*
X139230500Y-95526146D01*
X139230500Y-95433853D01*
X139206614Y-95344713D01*
X139206613Y-95344710D01*
X139172702Y-95285976D01*
X139160469Y-95264788D01*
X139095212Y-95199531D01*
X139089842Y-95196430D01*
X139015289Y-95153386D01*
X139015286Y-95153385D01*
X138926147Y-95129500D01*
X138926144Y-95129500D01*
X138833856Y-95129500D01*
X138833853Y-95129500D01*
X138744713Y-95153385D01*
X138744710Y-95153386D01*
X138664794Y-95199527D01*
X138664784Y-95199534D01*
X138599534Y-95264784D01*
X138599527Y-95264794D01*
X138553386Y-95344710D01*
X138553385Y-95344713D01*
X138529500Y-95433853D01*
X136610367Y-95433853D01*
X138542900Y-93700665D01*
X138578275Y-93688217D01*
X138612093Y-93704429D01*
X138618047Y-93712642D01*
X138619531Y-93715212D01*
X138684788Y-93780469D01*
X138764712Y-93826614D01*
X138786998Y-93832585D01*
X138853853Y-93850500D01*
X138853856Y-93850500D01*
X138946146Y-93850500D01*
X138990716Y-93838557D01*
X139035288Y-93826614D01*
X139074710Y-93803853D01*
X139959500Y-93803853D01*
X139959500Y-93896146D01*
X139983385Y-93985286D01*
X139983386Y-93985289D01*
X140010800Y-94032770D01*
X140029531Y-94065212D01*
X140094788Y-94130469D01*
X140174712Y-94176614D01*
X140196998Y-94182585D01*
X140263853Y-94200500D01*
X140263856Y-94200500D01*
X140356146Y-94200500D01*
X140400716Y-94188557D01*
X140445288Y-94176614D01*
X140525212Y-94130469D01*
X140590469Y-94065212D01*
X140636614Y-93985288D01*
X140659467Y-93900001D01*
X140660500Y-93896146D01*
X140660500Y-93803853D01*
X140636614Y-93714713D01*
X140636613Y-93714710D01*
X140611639Y-93671455D01*
X140590469Y-93634788D01*
X140525212Y-93569531D01*
X140484709Y-93546146D01*
X140445289Y-93523386D01*
X140445286Y-93523385D01*
X140356147Y-93499500D01*
X140356144Y-93499500D01*
X140263856Y-93499500D01*
X140263853Y-93499500D01*
X140174713Y-93523385D01*
X140174710Y-93523386D01*
X140094794Y-93569527D01*
X140094784Y-93569534D01*
X140029534Y-93634784D01*
X140029527Y-93634794D01*
X139983386Y-93714710D01*
X139983385Y-93714713D01*
X139959500Y-93803853D01*
X139074710Y-93803853D01*
X139115212Y-93780469D01*
X139180469Y-93715212D01*
X139226614Y-93635288D01*
X139244233Y-93569534D01*
X139250500Y-93546146D01*
X139250500Y-93453853D01*
X139226614Y-93364713D01*
X139226613Y-93364710D01*
X139196581Y-93312694D01*
X139180469Y-93284788D01*
X139115212Y-93219531D01*
X139114634Y-93219197D01*
X139114431Y-93218932D01*
X139112662Y-93217575D01*
X139113025Y-93217100D01*
X139091805Y-93189442D01*
X139090136Y-93176563D01*
X139092490Y-92600000D01*
X139097882Y-91278853D01*
X141249500Y-91278853D01*
X141249500Y-91371146D01*
X141273385Y-91460286D01*
X141273386Y-91460289D01*
X141277557Y-91467513D01*
X141319531Y-91540212D01*
X141384788Y-91605469D01*
X141464712Y-91651614D01*
X141486998Y-91657585D01*
X141553853Y-91675500D01*
X141553856Y-91675500D01*
X141646146Y-91675500D01*
X141690716Y-91663557D01*
X141735288Y-91651614D01*
X141815212Y-91605469D01*
X141880469Y-91540212D01*
X141926614Y-91460288D01*
X141945582Y-91389500D01*
X141950500Y-91371146D01*
X141950500Y-91278853D01*
X141926614Y-91189713D01*
X141926613Y-91189710D01*
X141906406Y-91154712D01*
X141880469Y-91109788D01*
X141815212Y-91044531D01*
X141808230Y-91040500D01*
X141735289Y-90998386D01*
X141735286Y-90998385D01*
X141646147Y-90974500D01*
X141646144Y-90974500D01*
X141553856Y-90974500D01*
X141553853Y-90974500D01*
X141464713Y-90998385D01*
X141464710Y-90998386D01*
X141384794Y-91044527D01*
X141384784Y-91044534D01*
X141319534Y-91109784D01*
X141319527Y-91109794D01*
X141273386Y-91189710D01*
X141273385Y-91189713D01*
X141249500Y-91278853D01*
X139097882Y-91278853D01*
X139099948Y-90772726D01*
X139106240Y-90748905D01*
X139398769Y-90228853D01*
X140399500Y-90228853D01*
X140399500Y-90321146D01*
X140423385Y-90410286D01*
X140423386Y-90410289D01*
X140437820Y-90435288D01*
X140469531Y-90490212D01*
X140534788Y-90555469D01*
X140614712Y-90601614D01*
X140636998Y-90607585D01*
X140703853Y-90625500D01*
X140703856Y-90625500D01*
X140796146Y-90625500D01*
X140840716Y-90613557D01*
X140885288Y-90601614D01*
X140965212Y-90555469D01*
X141030469Y-90490212D01*
X141076614Y-90410288D01*
X141092500Y-90351000D01*
X141100500Y-90321146D01*
X141100500Y-90228853D01*
X141076614Y-90139713D01*
X141076613Y-90139710D01*
X141044903Y-90084788D01*
X141030469Y-90059788D01*
X140965212Y-89994531D01*
X140959842Y-89991430D01*
X140885289Y-89948386D01*
X140885286Y-89948385D01*
X140796147Y-89924500D01*
X140796144Y-89924500D01*
X140703856Y-89924500D01*
X140703853Y-89924500D01*
X140614713Y-89948385D01*
X140614710Y-89948386D01*
X140534794Y-89994527D01*
X140534784Y-89994534D01*
X140469534Y-90059784D01*
X140469527Y-90059794D01*
X140423386Y-90139710D01*
X140423385Y-90139713D01*
X140399500Y-90228853D01*
X139398769Y-90228853D01*
X139895950Y-89344976D01*
X139925445Y-89321815D01*
X139938657Y-89320000D01*
X140565127Y-89320000D01*
X140586594Y-89325751D01*
X140586746Y-89325385D01*
X140589527Y-89326537D01*
X140589623Y-89326562D01*
X140589712Y-89326614D01*
X140589716Y-89326615D01*
X140678853Y-89350500D01*
X140678856Y-89350500D01*
X140771146Y-89350500D01*
X140827916Y-89335288D01*
X140860288Y-89326614D01*
X140860376Y-89326562D01*
X140860472Y-89326537D01*
X140863254Y-89325385D01*
X140863405Y-89325751D01*
X140884873Y-89320000D01*
X142333297Y-89320000D01*
X142363226Y-89330203D01*
X142389537Y-89350500D01*
X142641801Y-89545104D01*
X142680929Y-89575288D01*
X142699597Y-89607814D01*
X142700000Y-89614085D01*
X142700000Y-90489483D01*
X142695684Y-90509591D01*
X140560050Y-95255445D01*
X140550014Y-95269985D01*
X138800000Y-97019999D01*
X138800000Y-98008211D01*
X138787121Y-98041322D01*
X137580946Y-99357148D01*
X137579474Y-99358684D01*
X137520563Y-99417597D01*
X137488339Y-99458002D01*
X137486152Y-99460559D01*
X135745934Y-101358980D01*
X135631743Y-101483554D01*
X135631233Y-101484110D01*
X135597240Y-101499954D01*
X135595112Y-101500000D01*
X125822004Y-101500000D01*
X125787356Y-101485648D01*
X125785381Y-101483554D01*
X123987163Y-99460559D01*
X122360413Y-97630465D01*
X122348122Y-97595035D01*
X122354600Y-97573415D01*
X122376614Y-97535288D01*
X122392336Y-97476614D01*
X122400500Y-97446146D01*
X122400500Y-97353853D01*
X122376614Y-97264713D01*
X122376613Y-97264710D01*
X122365077Y-97244731D01*
X122330469Y-97184788D01*
X122265212Y-97119531D01*
X122191858Y-97077179D01*
X122185289Y-97073386D01*
X122185286Y-97073385D01*
X122096147Y-97049500D01*
X122096144Y-97049500D01*
X122003856Y-97049500D01*
X122003853Y-97049500D01*
X121914716Y-97073384D01*
X121911746Y-97074615D01*
X121911089Y-97073031D01*
X121879380Y-97077179D01*
X121855479Y-97062413D01*
X121000000Y-96100000D01*
X118627743Y-96100000D01*
X118593095Y-96085648D01*
X118585726Y-96076210D01*
X118309173Y-95615289D01*
X117647144Y-94511907D01*
X117640166Y-94486113D01*
X117699727Y-89522717D01*
X117714493Y-89488245D01*
X117717498Y-89485544D01*
X118944294Y-88472104D01*
X118980146Y-88461103D01*
X119013277Y-88478675D01*
X119024500Y-88509882D01*
X119024500Y-88521146D01*
X119048385Y-88610286D01*
X119048386Y-88610289D01*
X119057812Y-88626614D01*
X119094531Y-88690212D01*
X119159788Y-88755469D01*
X119239712Y-88801614D01*
X119261998Y-88807585D01*
X119328853Y-88825500D01*
X119328856Y-88825500D01*
X119421146Y-88825500D01*
X119465716Y-88813557D01*
X119510288Y-88801614D01*
X119590212Y-88755469D01*
X119655469Y-88690212D01*
X119701614Y-88610288D01*
X119713557Y-88565716D01*
X119725500Y-88521146D01*
X119725500Y-88428853D01*
X119701614Y-88339713D01*
X119701613Y-88339710D01*
X119687469Y-88315212D01*
X119655469Y-88259788D01*
X119590212Y-88194531D01*
X119584842Y-88191430D01*
X119510289Y-88148386D01*
X119470589Y-88137748D01*
X119440836Y-88114917D01*
X119435942Y-88077735D01*
X119452063Y-88052643D01*
X119819754Y-87748898D01*
X119828687Y-87743034D01*
X119920772Y-87696115D01*
X120102298Y-87564229D01*
X120168045Y-87498482D01*
X120212675Y-87453853D01*
X121019500Y-87453853D01*
X121019500Y-87546146D01*
X121043385Y-87635286D01*
X121043386Y-87635289D01*
X121066314Y-87675000D01*
X121089531Y-87715212D01*
X121154788Y-87780469D01*
X121234712Y-87826614D01*
X121256998Y-87832585D01*
X121323853Y-87850500D01*
X121323856Y-87850500D01*
X121416146Y-87850500D01*
X121480447Y-87833270D01*
X121505288Y-87826614D01*
X121585212Y-87780469D01*
X121650469Y-87715212D01*
X121696614Y-87635288D01*
X121715656Y-87564223D01*
X121720500Y-87546146D01*
X121720500Y-87453853D01*
X121696614Y-87364713D01*
X121696613Y-87364710D01*
X121685077Y-87344731D01*
X121650469Y-87284788D01*
X121585212Y-87219531D01*
X121579842Y-87216430D01*
X121505289Y-87173386D01*
X121505286Y-87173385D01*
X121416147Y-87149500D01*
X121416144Y-87149500D01*
X121323856Y-87149500D01*
X121323853Y-87149500D01*
X121234713Y-87173385D01*
X121234710Y-87173386D01*
X121154794Y-87219527D01*
X121154784Y-87219534D01*
X121089534Y-87284784D01*
X121089527Y-87284794D01*
X121043386Y-87364710D01*
X121043385Y-87364713D01*
X121019500Y-87453853D01*
X120212675Y-87453853D01*
X120250532Y-87415996D01*
X120260953Y-87405575D01*
X120260954Y-87405572D01*
X120260958Y-87405569D01*
X120351654Y-87280735D01*
X120358267Y-87273344D01*
X123400000Y-84500000D01*
X123400000Y-83663977D01*
X123414352Y-83629329D01*
X123449000Y-83614977D01*
X123482107Y-83628691D01*
X123482243Y-83628515D01*
X123482899Y-83629019D01*
X123483648Y-83629329D01*
X123484788Y-83630469D01*
X123564712Y-83676614D01*
X123579099Y-83680469D01*
X123653853Y-83700500D01*
X123653856Y-83700500D01*
X123746146Y-83700500D01*
X123790716Y-83688557D01*
X123835288Y-83676614D01*
X123915212Y-83630469D01*
X123980469Y-83565212D01*
X124026614Y-83485288D01*
X124044774Y-83417513D01*
X124050500Y-83396146D01*
X124050500Y-83303853D01*
X124026614Y-83214713D01*
X124026613Y-83214710D01*
X123980472Y-83134794D01*
X123980469Y-83134788D01*
X123915212Y-83069531D01*
X123911583Y-83067435D01*
X123888751Y-83037685D01*
X123893644Y-83000503D01*
X123911582Y-82982564D01*
X123915212Y-82980469D01*
X123980469Y-82915212D01*
X124026614Y-82835288D01*
X124038883Y-82789500D01*
X124050500Y-82746146D01*
X124050500Y-82653853D01*
X124026614Y-82564713D01*
X124026613Y-82564710D01*
X124004618Y-82526614D01*
X123980469Y-82484788D01*
X123915212Y-82419531D01*
X123906865Y-82414712D01*
X123835289Y-82373386D01*
X123835286Y-82373385D01*
X123746147Y-82349500D01*
X123746144Y-82349500D01*
X123653856Y-82349500D01*
X123653853Y-82349500D01*
X123564713Y-82373385D01*
X123564710Y-82373386D01*
X123484794Y-82419527D01*
X123484784Y-82419534D01*
X123483648Y-82420671D01*
X123482899Y-82420980D01*
X123482243Y-82421485D01*
X123482107Y-82421308D01*
X123449000Y-82435023D01*
X123414352Y-82420671D01*
X123400000Y-82386023D01*
X123400000Y-81918287D01*
X123401669Y-81905607D01*
X123404205Y-81896144D01*
X123404205Y-81803856D01*
X123401669Y-81794390D01*
X123400000Y-81781709D01*
X123400000Y-80518287D01*
X123401669Y-80505607D01*
X123404205Y-80496144D01*
X123404205Y-80403856D01*
X123401669Y-80394390D01*
X123400000Y-80381709D01*
X123400000Y-76680000D01*
X122985492Y-76209287D01*
X122973269Y-76177442D01*
X122971874Y-76050500D01*
X122960922Y-75053853D01*
X123599500Y-75053853D01*
X123599500Y-75146146D01*
X123623385Y-75235286D01*
X123623386Y-75235289D01*
X123645382Y-75273386D01*
X123669531Y-75315212D01*
X123669534Y-75315215D01*
X123719671Y-75365352D01*
X123734023Y-75400000D01*
X123719671Y-75434648D01*
X123669534Y-75484784D01*
X123669527Y-75484794D01*
X123623386Y-75564710D01*
X123623385Y-75564713D01*
X123599500Y-75653853D01*
X123599500Y-75746146D01*
X123623385Y-75835286D01*
X123623386Y-75835289D01*
X123646081Y-75874596D01*
X123669531Y-75915212D01*
X123734788Y-75980469D01*
X123814712Y-76026614D01*
X123836998Y-76032585D01*
X123903853Y-76050500D01*
X123903856Y-76050500D01*
X123996146Y-76050500D01*
X124040716Y-76038557D01*
X124085288Y-76026614D01*
X124165212Y-75980469D01*
X124230469Y-75915212D01*
X124276614Y-75835288D01*
X124293741Y-75771370D01*
X124300500Y-75746146D01*
X124300500Y-75653853D01*
X124276614Y-75564713D01*
X124276613Y-75564710D01*
X124230472Y-75484794D01*
X124230469Y-75484788D01*
X124180329Y-75434648D01*
X124165977Y-75400000D01*
X124180329Y-75365352D01*
X124181074Y-75364607D01*
X124230469Y-75315212D01*
X124276614Y-75235288D01*
X124288557Y-75190716D01*
X124300500Y-75146146D01*
X124300500Y-75053853D01*
X125699500Y-75053853D01*
X125699500Y-75146146D01*
X125723385Y-75235286D01*
X125723386Y-75235289D01*
X125745382Y-75273386D01*
X125769531Y-75315212D01*
X125769534Y-75315215D01*
X125819671Y-75365352D01*
X125834023Y-75400000D01*
X125819671Y-75434648D01*
X125769534Y-75484784D01*
X125769527Y-75484794D01*
X125723386Y-75564710D01*
X125723385Y-75564713D01*
X125699500Y-75653853D01*
X125699500Y-75746146D01*
X125723385Y-75835286D01*
X125723386Y-75835289D01*
X125746081Y-75874596D01*
X125769531Y-75915212D01*
X125834788Y-75980469D01*
X125914712Y-76026614D01*
X125936998Y-76032585D01*
X126003853Y-76050500D01*
X126003856Y-76050500D01*
X126096146Y-76050500D01*
X126140716Y-76038557D01*
X126185288Y-76026614D01*
X126265212Y-75980469D01*
X126330469Y-75915212D01*
X126376614Y-75835288D01*
X126393741Y-75771370D01*
X126400500Y-75746146D01*
X126400500Y-75653853D01*
X126376614Y-75564713D01*
X126376613Y-75564710D01*
X126330472Y-75484794D01*
X126330469Y-75484788D01*
X126280329Y-75434648D01*
X126265977Y-75400000D01*
X126280329Y-75365352D01*
X126281074Y-75364607D01*
X126330469Y-75315212D01*
X126376614Y-75235288D01*
X126388557Y-75190716D01*
X126400500Y-75146146D01*
X126400500Y-75053853D01*
X126376614Y-74964713D01*
X126376613Y-74964710D01*
X126338375Y-74898482D01*
X126330469Y-74884788D01*
X126265212Y-74819531D01*
X126259842Y-74816430D01*
X126185289Y-74773386D01*
X126185286Y-74773385D01*
X126096147Y-74749500D01*
X126096144Y-74749500D01*
X126003856Y-74749500D01*
X126003853Y-74749500D01*
X125914713Y-74773385D01*
X125914710Y-74773386D01*
X125834794Y-74819527D01*
X125834784Y-74819534D01*
X125769534Y-74884784D01*
X125769527Y-74884794D01*
X125723386Y-74964710D01*
X125723385Y-74964713D01*
X125699500Y-75053853D01*
X124300500Y-75053853D01*
X124276614Y-74964713D01*
X124276613Y-74964710D01*
X124238375Y-74898482D01*
X124230469Y-74884788D01*
X124165212Y-74819531D01*
X124159842Y-74816430D01*
X124085289Y-74773386D01*
X124085286Y-74773385D01*
X123996147Y-74749500D01*
X123996144Y-74749500D01*
X123903856Y-74749500D01*
X123903853Y-74749500D01*
X123814713Y-74773385D01*
X123814710Y-74773386D01*
X123734794Y-74819527D01*
X123734784Y-74819534D01*
X123669534Y-74884784D01*
X123669527Y-74884794D01*
X123623386Y-74964710D01*
X123623385Y-74964713D01*
X123599500Y-75053853D01*
X122960922Y-75053853D01*
X122959495Y-74924039D01*
X122970637Y-74892391D01*
X123256189Y-74544969D01*
X123490000Y-74260501D01*
X123490000Y-73550909D01*
X123504352Y-73516261D01*
X123505097Y-73515532D01*
X123715785Y-73313623D01*
X123749688Y-73300000D01*
X125577920Y-73300000D01*
X125612568Y-73314352D01*
G37*
%TD.AperFunction*%
%TD*%
%TA.AperFunction,Conductor*%
%TO.N,+3.3V*%
G36*
X115503067Y-69169800D02*
G01*
X115590705Y-69235529D01*
X115609813Y-69267800D01*
X115610301Y-69274117D01*
X115619744Y-70029581D01*
X115620000Y-70050000D01*
X115950000Y-70360000D01*
X129126713Y-70330052D01*
X129161391Y-70344325D01*
X129164746Y-70348023D01*
X130050000Y-71430000D01*
X137075241Y-71415636D01*
X137109917Y-71429917D01*
X139260000Y-73580000D01*
X139433847Y-73580000D01*
X139458346Y-73586564D01*
X139480917Y-73599596D01*
X139503203Y-73605567D01*
X139570058Y-73623482D01*
X139570061Y-73623482D01*
X139662351Y-73623482D01*
X139706921Y-73611539D01*
X139751493Y-73599596D01*
X139774063Y-73586564D01*
X139798563Y-73580000D01*
X140727131Y-73580000D01*
X140761779Y-73594352D01*
X140764687Y-73597526D01*
X140943128Y-73810472D01*
X145448587Y-79187116D01*
X145453465Y-79194087D01*
X145483028Y-79245288D01*
X145494531Y-79265212D01*
X145559788Y-79330469D01*
X145596800Y-79351838D01*
X145636050Y-79374500D01*
X145639712Y-79376614D01*
X145661998Y-79382585D01*
X145728853Y-79400500D01*
X145728856Y-79400500D01*
X145821146Y-79400500D01*
X145865716Y-79388557D01*
X145910288Y-79376614D01*
X145990212Y-79330469D01*
X146026329Y-79294352D01*
X146060977Y-79280000D01*
X147330007Y-79280000D01*
X147354506Y-79286564D01*
X147368417Y-79294596D01*
X147390703Y-79300567D01*
X147457558Y-79318482D01*
X147457561Y-79318482D01*
X147549851Y-79318482D01*
X147594421Y-79306539D01*
X147638993Y-79294596D01*
X147652903Y-79286564D01*
X147677403Y-79280000D01*
X148380007Y-79280000D01*
X148404506Y-79286564D01*
X148418417Y-79294596D01*
X148440703Y-79300567D01*
X148507558Y-79318482D01*
X148507561Y-79318482D01*
X148599851Y-79318482D01*
X148644421Y-79306539D01*
X148688993Y-79294596D01*
X148702903Y-79286564D01*
X148727403Y-79280000D01*
X149356449Y-79280000D01*
X149391097Y-79294352D01*
X149394712Y-79298390D01*
X149689263Y-79666579D01*
X149700000Y-79697188D01*
X149700000Y-80407697D01*
X149685648Y-80442345D01*
X149683182Y-80444647D01*
X149403835Y-80687950D01*
X149371653Y-80700000D01*
X144927274Y-80700000D01*
X144724505Y-80947826D01*
X144699264Y-80964127D01*
X144664713Y-80973385D01*
X144664709Y-80973386D01*
X144584794Y-81019527D01*
X144584784Y-81019534D01*
X144519534Y-81084784D01*
X144519527Y-81084794D01*
X144473386Y-81164710D01*
X144473385Y-81164713D01*
X144449500Y-81253853D01*
X144449500Y-81346146D01*
X144473385Y-81435286D01*
X144473386Y-81435289D01*
X144516430Y-81509842D01*
X144519531Y-81515212D01*
X144519534Y-81515215D01*
X144585648Y-81581329D01*
X144600000Y-81615977D01*
X144600000Y-82105486D01*
X144593435Y-82129986D01*
X144573386Y-82164709D01*
X144573385Y-82164713D01*
X144549500Y-82253853D01*
X144549500Y-82346147D01*
X144573384Y-82435284D01*
X144573385Y-82435286D01*
X144573386Y-82435288D01*
X144593435Y-82470014D01*
X144600000Y-82494513D01*
X144600000Y-83979704D01*
X144585648Y-84014352D01*
X144214352Y-84385648D01*
X144179704Y-84400000D01*
X142965977Y-84400000D01*
X142931329Y-84385648D01*
X142915215Y-84369534D01*
X142915212Y-84369531D01*
X142880518Y-84349500D01*
X142835289Y-84323386D01*
X142835286Y-84323385D01*
X142746147Y-84299500D01*
X142746144Y-84299500D01*
X142653856Y-84299500D01*
X142653853Y-84299500D01*
X142564713Y-84323385D01*
X142564710Y-84323386D01*
X142484794Y-84369527D01*
X142484784Y-84369534D01*
X142419534Y-84434784D01*
X142419527Y-84434794D01*
X142373386Y-84514710D01*
X142373385Y-84514713D01*
X142349500Y-84603853D01*
X142349500Y-84630204D01*
X142335148Y-84664852D01*
X142300000Y-84699999D01*
X142300000Y-84700000D01*
X142300000Y-85418182D01*
X143500000Y-86400000D01*
X144082811Y-86400000D01*
X144113421Y-86410737D01*
X144281610Y-86545288D01*
X144299700Y-86578140D01*
X144300000Y-86583551D01*
X144300000Y-87420264D01*
X144286321Y-87454226D01*
X144227678Y-87515215D01*
X144096313Y-87651835D01*
X144064460Y-87684962D01*
X144030100Y-87699991D01*
X144029139Y-87700000D01*
X143321556Y-87700000D01*
X143286908Y-87685648D01*
X143285435Y-87684111D01*
X143257270Y-87653386D01*
X142261147Y-86566706D01*
X142252201Y-86550394D01*
X142251550Y-86550665D01*
X142250320Y-86547696D01*
X142250196Y-86547482D01*
X142204174Y-86467770D01*
X142138917Y-86402513D01*
X142133547Y-86399412D01*
X142058994Y-86356368D01*
X142058991Y-86356367D01*
X141969852Y-86332482D01*
X141969849Y-86332482D01*
X141877561Y-86332482D01*
X141877558Y-86332482D01*
X141788418Y-86356367D01*
X141788415Y-86356368D01*
X141708499Y-86402509D01*
X141708489Y-86402516D01*
X141643237Y-86467769D01*
X141643234Y-86467772D01*
X141638772Y-86475501D01*
X141609019Y-86498331D01*
X141596338Y-86500000D01*
X141200000Y-86500000D01*
X139444446Y-87700000D01*
X139444334Y-87700077D01*
X139444326Y-87700083D01*
X138000001Y-88699999D01*
X138000000Y-88700001D01*
X138000000Y-91429540D01*
X137995380Y-91450311D01*
X137703767Y-92073386D01*
X137686800Y-92091885D01*
X137687332Y-92092579D01*
X137684784Y-92094533D01*
X137619535Y-92159783D01*
X137619527Y-92159794D01*
X137573386Y-92239710D01*
X137573385Y-92239713D01*
X137549500Y-92328853D01*
X137549500Y-92350351D01*
X137535148Y-92384999D01*
X137523622Y-92393553D01*
X136189261Y-93107718D01*
X136153456Y-93111846D01*
X136099851Y-93097482D01*
X136099849Y-93097482D01*
X136007561Y-93097482D01*
X136007558Y-93097482D01*
X135918418Y-93121367D01*
X135918415Y-93121368D01*
X135838499Y-93167509D01*
X135838489Y-93167516D01*
X135773239Y-93232766D01*
X135773232Y-93232776D01*
X135727091Y-93312692D01*
X135727090Y-93312695D01*
X135703205Y-93401835D01*
X135703205Y-93494125D01*
X135712052Y-93527147D01*
X135709171Y-93560449D01*
X135379999Y-94270002D01*
X135382713Y-94851856D01*
X135368523Y-94886571D01*
X135333943Y-94901084D01*
X135309214Y-94894520D01*
X135255290Y-94863386D01*
X135255286Y-94863385D01*
X135166147Y-94839500D01*
X135166144Y-94839500D01*
X135073856Y-94839500D01*
X135073853Y-94839500D01*
X134984713Y-94863385D01*
X134984710Y-94863386D01*
X134904794Y-94909527D01*
X134904784Y-94909534D01*
X134839534Y-94974784D01*
X134839527Y-94974794D01*
X134793386Y-95054710D01*
X134793385Y-95054713D01*
X134769500Y-95143853D01*
X134769500Y-95236146D01*
X134793385Y-95325286D01*
X134793386Y-95325289D01*
X134836430Y-95399842D01*
X134839531Y-95405212D01*
X134904788Y-95470469D01*
X134984712Y-95516614D01*
X135006998Y-95522585D01*
X135073853Y-95540500D01*
X135073856Y-95540500D01*
X135166146Y-95540500D01*
X135220744Y-95525870D01*
X135255288Y-95516614D01*
X135312358Y-95483663D01*
X135349538Y-95478768D01*
X135379292Y-95501598D01*
X135385856Y-95525870D01*
X135396054Y-97712543D01*
X135381864Y-97747258D01*
X135371556Y-97755207D01*
X135294791Y-97799529D01*
X135294784Y-97799534D01*
X135229534Y-97864784D01*
X135229527Y-97864794D01*
X135183386Y-97944710D01*
X135183385Y-97944713D01*
X135159500Y-98033853D01*
X135159500Y-98126146D01*
X135183385Y-98215286D01*
X135183386Y-98215289D01*
X135193328Y-98232508D01*
X135229531Y-98295212D01*
X135294788Y-98360469D01*
X135298029Y-98362340D01*
X135374990Y-98406775D01*
X135378951Y-98411938D01*
X135384977Y-98414401D01*
X135389968Y-98426295D01*
X135397820Y-98436528D01*
X135399489Y-98448982D01*
X135399769Y-98509144D01*
X135385579Y-98543859D01*
X135383881Y-98545492D01*
X135284233Y-98636837D01*
X135278767Y-98641173D01*
X134912502Y-98891456D01*
X134884857Y-98900000D01*
X133801228Y-98900000D01*
X133766580Y-98885648D01*
X133765481Y-98884513D01*
X133446113Y-98543859D01*
X133361946Y-98454082D01*
X133348694Y-98420704D01*
X133348670Y-98411938D01*
X133341536Y-95793853D01*
X133849500Y-95793853D01*
X133849500Y-95886146D01*
X133873385Y-95975286D01*
X133873386Y-95975289D01*
X133909843Y-96038433D01*
X133919531Y-96055212D01*
X133984788Y-96120469D01*
X134064712Y-96166614D01*
X134084466Y-96171907D01*
X134153853Y-96190500D01*
X134153856Y-96190500D01*
X134246146Y-96190500D01*
X134309861Y-96173427D01*
X134335288Y-96166614D01*
X134415212Y-96120469D01*
X134480469Y-96055212D01*
X134526614Y-95975288D01*
X134538557Y-95930716D01*
X134550500Y-95886146D01*
X134550500Y-95793853D01*
X134526614Y-95704713D01*
X134526613Y-95704710D01*
X134480472Y-95624794D01*
X134480469Y-95624788D01*
X134415212Y-95559531D01*
X134409842Y-95556430D01*
X134335289Y-95513386D01*
X134335286Y-95513385D01*
X134246147Y-95489500D01*
X134246144Y-95489500D01*
X134153856Y-95489500D01*
X134153853Y-95489500D01*
X134064713Y-95513385D01*
X134064710Y-95513386D01*
X133984794Y-95559527D01*
X133984784Y-95559534D01*
X133919534Y-95624784D01*
X133919527Y-95624794D01*
X133873386Y-95704710D01*
X133873385Y-95704713D01*
X133849500Y-95793853D01*
X133341536Y-95793853D01*
X133340061Y-95252521D01*
X133354318Y-95217834D01*
X133357044Y-95215295D01*
X133850000Y-94790000D01*
X134195308Y-94463876D01*
X134228953Y-94450500D01*
X134296146Y-94450500D01*
X134340716Y-94438557D01*
X134385288Y-94426614D01*
X134465212Y-94380469D01*
X134530469Y-94315212D01*
X134576614Y-94235288D01*
X134596075Y-94162660D01*
X134600500Y-94146146D01*
X134600500Y-94053858D01*
X134600500Y-94053856D01*
X134600243Y-94052897D01*
X134600275Y-94052153D01*
X134600081Y-94050675D01*
X134600342Y-94050640D01*
X134601534Y-94023446D01*
X135034343Y-92835526D01*
X135053905Y-92811072D01*
X136452819Y-91912906D01*
X136479292Y-91905139D01*
X136491507Y-91905139D01*
X136546254Y-91890469D01*
X136580649Y-91881253D01*
X136660573Y-91835108D01*
X136725830Y-91769851D01*
X136749452Y-91728936D01*
X136765406Y-91712210D01*
X136800000Y-91690000D01*
X136800000Y-91000000D01*
X136344559Y-90896237D01*
X134744263Y-90531641D01*
X134713669Y-90509951D01*
X134707372Y-90472980D01*
X134712713Y-90459364D01*
X134726614Y-90435288D01*
X134749199Y-90351000D01*
X134750500Y-90346146D01*
X134750500Y-90253853D01*
X136249500Y-90253853D01*
X136249500Y-90346146D01*
X136273385Y-90435286D01*
X136273386Y-90435289D01*
X136296577Y-90475455D01*
X136319531Y-90515212D01*
X136384788Y-90580469D01*
X136464712Y-90626614D01*
X136486998Y-90632585D01*
X136553853Y-90650500D01*
X136553856Y-90650500D01*
X136646146Y-90650500D01*
X136690716Y-90638557D01*
X136735288Y-90626614D01*
X136815212Y-90580469D01*
X136880469Y-90515212D01*
X136926614Y-90435288D01*
X136949199Y-90351000D01*
X136950500Y-90346146D01*
X136950500Y-90253853D01*
X136926614Y-90164713D01*
X136926613Y-90164710D01*
X136900528Y-90119531D01*
X136880469Y-90084788D01*
X136815212Y-90019531D01*
X136809143Y-90016027D01*
X136735289Y-89973386D01*
X136735286Y-89973385D01*
X136646147Y-89949500D01*
X136646144Y-89949500D01*
X136553856Y-89949500D01*
X136553853Y-89949500D01*
X136464713Y-89973385D01*
X136464710Y-89973386D01*
X136384794Y-90019527D01*
X136384784Y-90019534D01*
X136319534Y-90084784D01*
X136319527Y-90084794D01*
X136273386Y-90164710D01*
X136273385Y-90164713D01*
X136249500Y-90253853D01*
X134750500Y-90253853D01*
X134726614Y-90164713D01*
X134726613Y-90164710D01*
X134700528Y-90119531D01*
X134680469Y-90084788D01*
X134615212Y-90019531D01*
X134609143Y-90016027D01*
X134535289Y-89973386D01*
X134462737Y-89953945D01*
X134432984Y-89931114D01*
X134429925Y-89924813D01*
X134225595Y-89413987D01*
X134223652Y-89383516D01*
X134223693Y-89383354D01*
X134231598Y-89353853D01*
X135353205Y-89353853D01*
X135353205Y-89446146D01*
X135377090Y-89535286D01*
X135377091Y-89535289D01*
X135403177Y-89580469D01*
X135423236Y-89615212D01*
X135488493Y-89680469D01*
X135568417Y-89726614D01*
X135590703Y-89732585D01*
X135657558Y-89750500D01*
X135657561Y-89750500D01*
X135749851Y-89750500D01*
X135794421Y-89738557D01*
X135838993Y-89726614D01*
X135918917Y-89680469D01*
X135984174Y-89615212D01*
X136030319Y-89535288D01*
X136050093Y-89461490D01*
X136054205Y-89446146D01*
X136054205Y-89353853D01*
X136030319Y-89264713D01*
X136030318Y-89264710D01*
X136006049Y-89222676D01*
X135984174Y-89184788D01*
X135918917Y-89119531D01*
X135884365Y-89099582D01*
X135838994Y-89073386D01*
X135838991Y-89073385D01*
X135749852Y-89049500D01*
X135749849Y-89049500D01*
X135657561Y-89049500D01*
X135657558Y-89049500D01*
X135568418Y-89073385D01*
X135568415Y-89073386D01*
X135488499Y-89119527D01*
X135488489Y-89119534D01*
X135423239Y-89184784D01*
X135423232Y-89184794D01*
X135377091Y-89264710D01*
X135377090Y-89264713D01*
X135353205Y-89353853D01*
X134231598Y-89353853D01*
X134234205Y-89344126D01*
X134234205Y-89251838D01*
X134234205Y-89251835D01*
X134211677Y-89167762D01*
X134210319Y-89162694D01*
X134164174Y-89082770D01*
X134098917Y-89017513D01*
X134067772Y-88999531D01*
X134018994Y-88971368D01*
X134018991Y-88971367D01*
X133929852Y-88947482D01*
X133929849Y-88947482D01*
X133837561Y-88947482D01*
X133837558Y-88947482D01*
X133748418Y-88971367D01*
X133748415Y-88971368D01*
X133668499Y-89017509D01*
X133668489Y-89017516D01*
X133600965Y-89085041D01*
X133599673Y-89083749D01*
X133572235Y-89099582D01*
X133565851Y-89100000D01*
X124249000Y-89100000D01*
X124214352Y-89085648D01*
X124200000Y-89051000D01*
X124200000Y-88020296D01*
X124214352Y-87985648D01*
X124266147Y-87933853D01*
X127569500Y-87933853D01*
X127569500Y-88026146D01*
X127593385Y-88115286D01*
X127593386Y-88115289D01*
X127632703Y-88183386D01*
X127639531Y-88195212D01*
X127704788Y-88260469D01*
X127784712Y-88306614D01*
X127795681Y-88309553D01*
X127873853Y-88330500D01*
X127873856Y-88330500D01*
X127966146Y-88330500D01*
X128010716Y-88318557D01*
X128055288Y-88306614D01*
X128135212Y-88260469D01*
X128200469Y-88195212D01*
X128246614Y-88115288D01*
X128256260Y-88079288D01*
X128263076Y-88053853D01*
X128449500Y-88053853D01*
X128449500Y-88146146D01*
X128473385Y-88235286D01*
X128473386Y-88235289D01*
X128487926Y-88260472D01*
X128519531Y-88315212D01*
X128584788Y-88380469D01*
X128664712Y-88426614D01*
X128686998Y-88432585D01*
X128753853Y-88450500D01*
X128753856Y-88450500D01*
X128846146Y-88450500D01*
X128890716Y-88438557D01*
X128935288Y-88426614D01*
X129015212Y-88380469D01*
X129080469Y-88315212D01*
X129126614Y-88235288D01*
X129143201Y-88173386D01*
X129150500Y-88146146D01*
X129150500Y-88053853D01*
X129126614Y-87964713D01*
X129126613Y-87964710D01*
X129096871Y-87913197D01*
X129080469Y-87884788D01*
X129015212Y-87819531D01*
X128977887Y-87797981D01*
X128935289Y-87773386D01*
X128935286Y-87773385D01*
X128846147Y-87749500D01*
X128846144Y-87749500D01*
X128753856Y-87749500D01*
X128753853Y-87749500D01*
X128664713Y-87773385D01*
X128664710Y-87773386D01*
X128584794Y-87819527D01*
X128584784Y-87819534D01*
X128519534Y-87884784D01*
X128519527Y-87884794D01*
X128473386Y-87964710D01*
X128473385Y-87964713D01*
X128449500Y-88053853D01*
X128263076Y-88053853D01*
X128267334Y-88037962D01*
X128267334Y-88037961D01*
X128270500Y-88026145D01*
X128270500Y-87933853D01*
X128246614Y-87844713D01*
X128246613Y-87844710D01*
X128205433Y-87773386D01*
X128200469Y-87764788D01*
X128135212Y-87699531D01*
X128135208Y-87699529D01*
X128135206Y-87699527D01*
X128120542Y-87691061D01*
X128055289Y-87653386D01*
X128055286Y-87653385D01*
X128049501Y-87651835D01*
X132153205Y-87651835D01*
X132153205Y-87744128D01*
X132177090Y-87833268D01*
X132177091Y-87833271D01*
X132196749Y-87867318D01*
X132223236Y-87913194D01*
X132288493Y-87978451D01*
X132348436Y-88013059D01*
X132357380Y-88018224D01*
X132368417Y-88024596D01*
X132374202Y-88026146D01*
X132457558Y-88048482D01*
X132457561Y-88048482D01*
X132549851Y-88048482D01*
X132594421Y-88036539D01*
X132638993Y-88024596D01*
X132718917Y-87978451D01*
X132784174Y-87913194D01*
X132830319Y-87833270D01*
X132848670Y-87764784D01*
X132854205Y-87744128D01*
X132854205Y-87651835D01*
X132953205Y-87651835D01*
X132953205Y-87744128D01*
X132977090Y-87833268D01*
X132977091Y-87833271D01*
X132996749Y-87867318D01*
X133023236Y-87913194D01*
X133088493Y-87978451D01*
X133148436Y-88013059D01*
X133157380Y-88018224D01*
X133168417Y-88024596D01*
X133174202Y-88026146D01*
X133257558Y-88048482D01*
X133257561Y-88048482D01*
X133349851Y-88048482D01*
X133394421Y-88036539D01*
X133438993Y-88024596D01*
X133518917Y-87978451D01*
X133584174Y-87913194D01*
X133630319Y-87833270D01*
X133648670Y-87764784D01*
X133654205Y-87744128D01*
X133654205Y-87651835D01*
X133753205Y-87651835D01*
X133753205Y-87744128D01*
X133777090Y-87833268D01*
X133777091Y-87833271D01*
X133796749Y-87867318D01*
X133823236Y-87913194D01*
X133888493Y-87978451D01*
X133948436Y-88013059D01*
X133957380Y-88018224D01*
X133968417Y-88024596D01*
X133974202Y-88026146D01*
X134057558Y-88048482D01*
X134057561Y-88048482D01*
X134149851Y-88048482D01*
X134194421Y-88036539D01*
X134238993Y-88024596D01*
X134318917Y-87978451D01*
X134384174Y-87913194D01*
X134430319Y-87833270D01*
X134448670Y-87764784D01*
X134454205Y-87744128D01*
X134454205Y-87651835D01*
X135353205Y-87651835D01*
X135353205Y-87744128D01*
X135377090Y-87833268D01*
X135377091Y-87833271D01*
X135396749Y-87867318D01*
X135423236Y-87913194D01*
X135488493Y-87978451D01*
X135548436Y-88013059D01*
X135557380Y-88018224D01*
X135568417Y-88024596D01*
X135574202Y-88026146D01*
X135657558Y-88048482D01*
X135657561Y-88048482D01*
X135749851Y-88048482D01*
X135794421Y-88036539D01*
X135838993Y-88024596D01*
X135918917Y-87978451D01*
X135984174Y-87913194D01*
X136030319Y-87833270D01*
X136048670Y-87764784D01*
X136054205Y-87744128D01*
X136054205Y-87699500D01*
X136068557Y-87664852D01*
X136103205Y-87650500D01*
X136146146Y-87650500D01*
X136190716Y-87638557D01*
X136235288Y-87626614D01*
X136315212Y-87580469D01*
X136380469Y-87515212D01*
X136426614Y-87435288D01*
X136445931Y-87363197D01*
X136450500Y-87346146D01*
X136450500Y-87297482D01*
X136464852Y-87262834D01*
X136499500Y-87248482D01*
X136549851Y-87248482D01*
X136594421Y-87236539D01*
X136638993Y-87224596D01*
X136718917Y-87178451D01*
X136784174Y-87113194D01*
X136830319Y-87033270D01*
X136849027Y-86963451D01*
X136854205Y-86944128D01*
X136854205Y-86851835D01*
X136830319Y-86762695D01*
X136830318Y-86762692D01*
X136795817Y-86702936D01*
X136784174Y-86682770D01*
X136718917Y-86617513D01*
X136713547Y-86614412D01*
X136638994Y-86571368D01*
X136638991Y-86571367D01*
X136549852Y-86547482D01*
X136549849Y-86547482D01*
X136457561Y-86547482D01*
X136457558Y-86547482D01*
X136368418Y-86571367D01*
X136368415Y-86571368D01*
X136288499Y-86617509D01*
X136288489Y-86617516D01*
X136223239Y-86682766D01*
X136223232Y-86682776D01*
X136177091Y-86762692D01*
X136177090Y-86762695D01*
X136153205Y-86851835D01*
X136153205Y-86900500D01*
X136138853Y-86935148D01*
X136104205Y-86949500D01*
X136053853Y-86949500D01*
X135964713Y-86973385D01*
X135964710Y-86973386D01*
X135884794Y-87019527D01*
X135884784Y-87019534D01*
X135819534Y-87084784D01*
X135819527Y-87084794D01*
X135773386Y-87164710D01*
X135773385Y-87164713D01*
X135749500Y-87253853D01*
X135749500Y-87298482D01*
X135735148Y-87333130D01*
X135700500Y-87347482D01*
X135657558Y-87347482D01*
X135568418Y-87371367D01*
X135568415Y-87371368D01*
X135488499Y-87417509D01*
X135488489Y-87417516D01*
X135423239Y-87482766D01*
X135423232Y-87482776D01*
X135377091Y-87562692D01*
X135377090Y-87562695D01*
X135353205Y-87651835D01*
X134454205Y-87651835D01*
X134435081Y-87580465D01*
X134430319Y-87562694D01*
X134384174Y-87482770D01*
X134318917Y-87417513D01*
X134298230Y-87405569D01*
X134238994Y-87371368D01*
X134238991Y-87371367D01*
X134149852Y-87347482D01*
X134149849Y-87347482D01*
X134057561Y-87347482D01*
X134057558Y-87347482D01*
X133968418Y-87371367D01*
X133968415Y-87371368D01*
X133888499Y-87417509D01*
X133888489Y-87417516D01*
X133823239Y-87482766D01*
X133823232Y-87482776D01*
X133777091Y-87562692D01*
X133777090Y-87562695D01*
X133753205Y-87651835D01*
X133654205Y-87651835D01*
X133635081Y-87580465D01*
X133630319Y-87562694D01*
X133584174Y-87482770D01*
X133518917Y-87417513D01*
X133498230Y-87405569D01*
X133438994Y-87371368D01*
X133438991Y-87371367D01*
X133349852Y-87347482D01*
X133349849Y-87347482D01*
X133257561Y-87347482D01*
X133257558Y-87347482D01*
X133168418Y-87371367D01*
X133168415Y-87371368D01*
X133088499Y-87417509D01*
X133088489Y-87417516D01*
X133023239Y-87482766D01*
X133023232Y-87482776D01*
X132977091Y-87562692D01*
X132977090Y-87562695D01*
X132953205Y-87651835D01*
X132854205Y-87651835D01*
X132835081Y-87580465D01*
X132830319Y-87562694D01*
X132784174Y-87482770D01*
X132718917Y-87417513D01*
X132698230Y-87405569D01*
X132638994Y-87371368D01*
X132638991Y-87371367D01*
X132549852Y-87347482D01*
X132549849Y-87347482D01*
X132457561Y-87347482D01*
X132457558Y-87347482D01*
X132368418Y-87371367D01*
X132368415Y-87371368D01*
X132288499Y-87417509D01*
X132288489Y-87417516D01*
X132223239Y-87482766D01*
X132223232Y-87482776D01*
X132177091Y-87562692D01*
X132177090Y-87562695D01*
X132153205Y-87651835D01*
X128049501Y-87651835D01*
X127966147Y-87629500D01*
X127966144Y-87629500D01*
X127873856Y-87629500D01*
X127873853Y-87629500D01*
X127784713Y-87653385D01*
X127784710Y-87653386D01*
X127704794Y-87699527D01*
X127704784Y-87699534D01*
X127639534Y-87764784D01*
X127639527Y-87764794D01*
X127593386Y-87844710D01*
X127593385Y-87844713D01*
X127569500Y-87933853D01*
X124266147Y-87933853D01*
X125098165Y-87101835D01*
X127193205Y-87101835D01*
X127193205Y-87194128D01*
X127217090Y-87283268D01*
X127217091Y-87283271D01*
X127254166Y-87347484D01*
X127263236Y-87363194D01*
X127328493Y-87428451D01*
X127408417Y-87474596D01*
X127430703Y-87480567D01*
X127497558Y-87498482D01*
X127497561Y-87498482D01*
X127589851Y-87498482D01*
X127634421Y-87486539D01*
X127678993Y-87474596D01*
X127758917Y-87428451D01*
X127824174Y-87363194D01*
X127870319Y-87283270D01*
X127886189Y-87224043D01*
X127894205Y-87194128D01*
X127894205Y-87101835D01*
X127875832Y-87033268D01*
X127870319Y-87012694D01*
X127824174Y-86932770D01*
X127758917Y-86867513D01*
X127753547Y-86864412D01*
X127731763Y-86851835D01*
X130553205Y-86851835D01*
X130553205Y-86944128D01*
X130577090Y-87033268D01*
X130577091Y-87033271D01*
X130577213Y-87033482D01*
X130623236Y-87113194D01*
X130688493Y-87178451D01*
X130768417Y-87224596D01*
X130790703Y-87230567D01*
X130857558Y-87248482D01*
X130857561Y-87248482D01*
X130949851Y-87248482D01*
X130994421Y-87236539D01*
X131038993Y-87224596D01*
X131118917Y-87178451D01*
X131184174Y-87113194D01*
X131230319Y-87033270D01*
X131249027Y-86963451D01*
X131254205Y-86944128D01*
X131254205Y-86851835D01*
X132153205Y-86851835D01*
X132153205Y-86944128D01*
X132177090Y-87033268D01*
X132177091Y-87033271D01*
X132177213Y-87033482D01*
X132223236Y-87113194D01*
X132288493Y-87178451D01*
X132368417Y-87224596D01*
X132390703Y-87230567D01*
X132457558Y-87248482D01*
X132457561Y-87248482D01*
X132549851Y-87248482D01*
X132594421Y-87236539D01*
X132638993Y-87224596D01*
X132718917Y-87178451D01*
X132784174Y-87113194D01*
X132830319Y-87033270D01*
X132849027Y-86963451D01*
X132854205Y-86944128D01*
X132854205Y-86851835D01*
X133753205Y-86851835D01*
X133753205Y-86944128D01*
X133777090Y-87033268D01*
X133777091Y-87033271D01*
X133777213Y-87033482D01*
X133823236Y-87113194D01*
X133888493Y-87178451D01*
X133968417Y-87224596D01*
X133990703Y-87230567D01*
X134057558Y-87248482D01*
X134057561Y-87248482D01*
X134149851Y-87248482D01*
X134194421Y-87236539D01*
X134238993Y-87224596D01*
X134318917Y-87178451D01*
X134384174Y-87113194D01*
X134430319Y-87033270D01*
X134449027Y-86963451D01*
X134454205Y-86944128D01*
X134454205Y-86851835D01*
X134553205Y-86851835D01*
X134553205Y-86944128D01*
X134577090Y-87033268D01*
X134577091Y-87033271D01*
X134577213Y-87033482D01*
X134623236Y-87113194D01*
X134688493Y-87178451D01*
X134768417Y-87224596D01*
X134790703Y-87230567D01*
X134857558Y-87248482D01*
X134857561Y-87248482D01*
X134949851Y-87248482D01*
X134994421Y-87236539D01*
X135038993Y-87224596D01*
X135118917Y-87178451D01*
X135184174Y-87113194D01*
X135230319Y-87033270D01*
X135249027Y-86963451D01*
X135254205Y-86944128D01*
X135254205Y-86851835D01*
X135230319Y-86762695D01*
X135230318Y-86762692D01*
X135195817Y-86702936D01*
X135184174Y-86682770D01*
X135118917Y-86617513D01*
X135113547Y-86614412D01*
X135038994Y-86571368D01*
X135038991Y-86571367D01*
X134949852Y-86547482D01*
X134949849Y-86547482D01*
X134857561Y-86547482D01*
X134857558Y-86547482D01*
X134768418Y-86571367D01*
X134768415Y-86571368D01*
X134688499Y-86617509D01*
X134688489Y-86617516D01*
X134623239Y-86682766D01*
X134623232Y-86682776D01*
X134577091Y-86762692D01*
X134577090Y-86762695D01*
X134553205Y-86851835D01*
X134454205Y-86851835D01*
X134430319Y-86762695D01*
X134430318Y-86762692D01*
X134395817Y-86702936D01*
X134384174Y-86682770D01*
X134318917Y-86617513D01*
X134313547Y-86614412D01*
X134238994Y-86571368D01*
X134238991Y-86571367D01*
X134149852Y-86547482D01*
X134149849Y-86547482D01*
X134057561Y-86547482D01*
X134057558Y-86547482D01*
X133968418Y-86571367D01*
X133968415Y-86571368D01*
X133888499Y-86617509D01*
X133888489Y-86617516D01*
X133823239Y-86682766D01*
X133823232Y-86682776D01*
X133777091Y-86762692D01*
X133777090Y-86762695D01*
X133753205Y-86851835D01*
X132854205Y-86851835D01*
X132830319Y-86762695D01*
X132830318Y-86762692D01*
X132795817Y-86702936D01*
X132784174Y-86682770D01*
X132718917Y-86617513D01*
X132713547Y-86614412D01*
X132638994Y-86571368D01*
X132638991Y-86571367D01*
X132549852Y-86547482D01*
X132549849Y-86547482D01*
X132457561Y-86547482D01*
X132457558Y-86547482D01*
X132368418Y-86571367D01*
X132368415Y-86571368D01*
X132288499Y-86617509D01*
X132288489Y-86617516D01*
X132223239Y-86682766D01*
X132223232Y-86682776D01*
X132177091Y-86762692D01*
X132177090Y-86762695D01*
X132153205Y-86851835D01*
X131254205Y-86851835D01*
X131230319Y-86762695D01*
X131230318Y-86762692D01*
X131195817Y-86702936D01*
X131184174Y-86682770D01*
X131118917Y-86617513D01*
X131113547Y-86614412D01*
X131038994Y-86571368D01*
X131038991Y-86571367D01*
X130949852Y-86547482D01*
X130949849Y-86547482D01*
X130857561Y-86547482D01*
X130857558Y-86547482D01*
X130768418Y-86571367D01*
X130768415Y-86571368D01*
X130688499Y-86617509D01*
X130688489Y-86617516D01*
X130623239Y-86682766D01*
X130623232Y-86682776D01*
X130577091Y-86762692D01*
X130577090Y-86762695D01*
X130553205Y-86851835D01*
X127731763Y-86851835D01*
X127678994Y-86821368D01*
X127678991Y-86821367D01*
X127589852Y-86797482D01*
X127589849Y-86797482D01*
X127497561Y-86797482D01*
X127497558Y-86797482D01*
X127408418Y-86821367D01*
X127408415Y-86821368D01*
X127328499Y-86867509D01*
X127328489Y-86867516D01*
X127263239Y-86932766D01*
X127263232Y-86932776D01*
X127217091Y-87012692D01*
X127217090Y-87012695D01*
X127193205Y-87101835D01*
X125098165Y-87101835D01*
X126148165Y-86051835D01*
X128953205Y-86051835D01*
X128953205Y-86144128D01*
X128977090Y-86233268D01*
X128977091Y-86233271D01*
X129020135Y-86307824D01*
X129023236Y-86313194D01*
X129088493Y-86378451D01*
X129168417Y-86424596D01*
X129190703Y-86430567D01*
X129257558Y-86448482D01*
X129257561Y-86448482D01*
X129349851Y-86448482D01*
X129394421Y-86436539D01*
X129438993Y-86424596D01*
X129518917Y-86378451D01*
X129584174Y-86313194D01*
X129630319Y-86233270D01*
X129643310Y-86184788D01*
X129654205Y-86144128D01*
X129654205Y-86051835D01*
X131353205Y-86051835D01*
X131353205Y-86144128D01*
X131377090Y-86233268D01*
X131377091Y-86233271D01*
X131420135Y-86307824D01*
X131423236Y-86313194D01*
X131488493Y-86378451D01*
X131568417Y-86424596D01*
X131590703Y-86430567D01*
X131657558Y-86448482D01*
X131657561Y-86448482D01*
X131749851Y-86448482D01*
X131794421Y-86436539D01*
X131838993Y-86424596D01*
X131918917Y-86378451D01*
X131984174Y-86313194D01*
X132030319Y-86233270D01*
X132043310Y-86184788D01*
X132054205Y-86144128D01*
X132054205Y-86051835D01*
X132153205Y-86051835D01*
X132153205Y-86144128D01*
X132177090Y-86233268D01*
X132177091Y-86233271D01*
X132220135Y-86307824D01*
X132223236Y-86313194D01*
X132288493Y-86378451D01*
X132368417Y-86424596D01*
X132390703Y-86430567D01*
X132457558Y-86448482D01*
X132457561Y-86448482D01*
X132549851Y-86448482D01*
X132594421Y-86436539D01*
X132638993Y-86424596D01*
X132718917Y-86378451D01*
X132784174Y-86313194D01*
X132830319Y-86233270D01*
X132843310Y-86184788D01*
X132854205Y-86144128D01*
X132854205Y-86051835D01*
X132830319Y-85962695D01*
X132830318Y-85962692D01*
X132802905Y-85915212D01*
X132784174Y-85882770D01*
X132718917Y-85817513D01*
X132667402Y-85787770D01*
X132638994Y-85771368D01*
X132638991Y-85771367D01*
X132549852Y-85747482D01*
X132549849Y-85747482D01*
X132457561Y-85747482D01*
X132457558Y-85747482D01*
X132368418Y-85771367D01*
X132368415Y-85771368D01*
X132288499Y-85817509D01*
X132288489Y-85817516D01*
X132223239Y-85882766D01*
X132223232Y-85882776D01*
X132177091Y-85962692D01*
X132177090Y-85962695D01*
X132153205Y-86051835D01*
X132054205Y-86051835D01*
X132030319Y-85962695D01*
X132030318Y-85962692D01*
X132002905Y-85915212D01*
X131984174Y-85882770D01*
X131918917Y-85817513D01*
X131867402Y-85787770D01*
X131838994Y-85771368D01*
X131838991Y-85771367D01*
X131749852Y-85747482D01*
X131749849Y-85747482D01*
X131657561Y-85747482D01*
X131657558Y-85747482D01*
X131568418Y-85771367D01*
X131568415Y-85771368D01*
X131488499Y-85817509D01*
X131488489Y-85817516D01*
X131423239Y-85882766D01*
X131423232Y-85882776D01*
X131377091Y-85962692D01*
X131377090Y-85962695D01*
X131353205Y-86051835D01*
X129654205Y-86051835D01*
X129630319Y-85962695D01*
X129630318Y-85962692D01*
X129602905Y-85915212D01*
X129584174Y-85882770D01*
X129518917Y-85817513D01*
X129467402Y-85787770D01*
X129438994Y-85771368D01*
X129438991Y-85771367D01*
X129349852Y-85747482D01*
X129349849Y-85747482D01*
X129257561Y-85747482D01*
X129257558Y-85747482D01*
X129168418Y-85771367D01*
X129168415Y-85771368D01*
X129088499Y-85817509D01*
X129088489Y-85817516D01*
X129023239Y-85882766D01*
X129023232Y-85882776D01*
X128977091Y-85962692D01*
X128977090Y-85962695D01*
X128953205Y-86051835D01*
X126148165Y-86051835D01*
X126546147Y-85653853D01*
X139249500Y-85653853D01*
X139249500Y-85746146D01*
X139273385Y-85835286D01*
X139273386Y-85835289D01*
X139296603Y-85875500D01*
X139319531Y-85915212D01*
X139384788Y-85980469D01*
X139464712Y-86026614D01*
X139486998Y-86032585D01*
X139553853Y-86050500D01*
X139553856Y-86050500D01*
X139646146Y-86050500D01*
X139690716Y-86038557D01*
X139735288Y-86026614D01*
X139815212Y-85980469D01*
X139880469Y-85915212D01*
X139926614Y-85835288D01*
X139943742Y-85771367D01*
X139950500Y-85746146D01*
X139950500Y-85653853D01*
X139926614Y-85564713D01*
X139926613Y-85564710D01*
X139896871Y-85513197D01*
X139880469Y-85484788D01*
X139815212Y-85419531D01*
X139807731Y-85415212D01*
X139735289Y-85373386D01*
X139735286Y-85373385D01*
X139646147Y-85349500D01*
X139646144Y-85349500D01*
X139553856Y-85349500D01*
X139553853Y-85349500D01*
X139464713Y-85373385D01*
X139464710Y-85373386D01*
X139384794Y-85419527D01*
X139384784Y-85419534D01*
X139319534Y-85484784D01*
X139319527Y-85484794D01*
X139273386Y-85564710D01*
X139273385Y-85564713D01*
X139249500Y-85653853D01*
X126546147Y-85653853D01*
X126948165Y-85251835D01*
X128953205Y-85251835D01*
X128953205Y-85344128D01*
X128977090Y-85433268D01*
X128977091Y-85433271D01*
X129004342Y-85480469D01*
X129023236Y-85513194D01*
X129088493Y-85578451D01*
X129168417Y-85624596D01*
X129190703Y-85630567D01*
X129257558Y-85648482D01*
X129257561Y-85648482D01*
X129349851Y-85648482D01*
X129394421Y-85636539D01*
X129438993Y-85624596D01*
X129518917Y-85578451D01*
X129584174Y-85513194D01*
X129630319Y-85433270D01*
X129646365Y-85373385D01*
X129654205Y-85344128D01*
X129654205Y-85251835D01*
X129753205Y-85251835D01*
X129753205Y-85344128D01*
X129777090Y-85433268D01*
X129777091Y-85433271D01*
X129804342Y-85480469D01*
X129823236Y-85513194D01*
X129888493Y-85578451D01*
X129968417Y-85624596D01*
X129990703Y-85630567D01*
X130057558Y-85648482D01*
X130057561Y-85648482D01*
X130149851Y-85648482D01*
X130194421Y-85636539D01*
X130238993Y-85624596D01*
X130318917Y-85578451D01*
X130384174Y-85513194D01*
X130430319Y-85433270D01*
X130446365Y-85373385D01*
X130454205Y-85344128D01*
X130454205Y-85251835D01*
X131353205Y-85251835D01*
X131353205Y-85344128D01*
X131377090Y-85433268D01*
X131377091Y-85433271D01*
X131404342Y-85480469D01*
X131423236Y-85513194D01*
X131488493Y-85578451D01*
X131568417Y-85624596D01*
X131590703Y-85630567D01*
X131657558Y-85648482D01*
X131657561Y-85648482D01*
X131749851Y-85648482D01*
X131794421Y-85636539D01*
X131838993Y-85624596D01*
X131918917Y-85578451D01*
X131984174Y-85513194D01*
X132030319Y-85433270D01*
X132046365Y-85373385D01*
X132054205Y-85344128D01*
X132054205Y-85251835D01*
X132153205Y-85251835D01*
X132153205Y-85344128D01*
X132177090Y-85433268D01*
X132177091Y-85433271D01*
X132204342Y-85480469D01*
X132223236Y-85513194D01*
X132288493Y-85578451D01*
X132368417Y-85624596D01*
X132390703Y-85630567D01*
X132457558Y-85648482D01*
X132457561Y-85648482D01*
X132549851Y-85648482D01*
X132594421Y-85636539D01*
X132638993Y-85624596D01*
X132718917Y-85578451D01*
X132784174Y-85513194D01*
X132830319Y-85433270D01*
X132846365Y-85373385D01*
X132854205Y-85344128D01*
X132854205Y-85251835D01*
X132830319Y-85162695D01*
X132830318Y-85162692D01*
X132784177Y-85082776D01*
X132784174Y-85082770D01*
X132718917Y-85017513D01*
X132662237Y-84984788D01*
X132638994Y-84971368D01*
X132638991Y-84971367D01*
X132549852Y-84947482D01*
X132549849Y-84947482D01*
X132457561Y-84947482D01*
X132457558Y-84947482D01*
X132368418Y-84971367D01*
X132368415Y-84971368D01*
X132288499Y-85017509D01*
X132288489Y-85017516D01*
X132223239Y-85082766D01*
X132223232Y-85082776D01*
X132177091Y-85162692D01*
X132177090Y-85162695D01*
X132153205Y-85251835D01*
X132054205Y-85251835D01*
X132030319Y-85162695D01*
X132030318Y-85162692D01*
X131984177Y-85082776D01*
X131984174Y-85082770D01*
X131918917Y-85017513D01*
X131862237Y-84984788D01*
X131838994Y-84971368D01*
X131838991Y-84971367D01*
X131749852Y-84947482D01*
X131749849Y-84947482D01*
X131657561Y-84947482D01*
X131657558Y-84947482D01*
X131568418Y-84971367D01*
X131568415Y-84971368D01*
X131488499Y-85017509D01*
X131488489Y-85017516D01*
X131423239Y-85082766D01*
X131423232Y-85082776D01*
X131377091Y-85162692D01*
X131377090Y-85162695D01*
X131353205Y-85251835D01*
X130454205Y-85251835D01*
X130430319Y-85162695D01*
X130430318Y-85162692D01*
X130384177Y-85082776D01*
X130384174Y-85082770D01*
X130318917Y-85017513D01*
X130262237Y-84984788D01*
X130238994Y-84971368D01*
X130238991Y-84971367D01*
X130149852Y-84947482D01*
X130149849Y-84947482D01*
X130057561Y-84947482D01*
X130057558Y-84947482D01*
X129968418Y-84971367D01*
X129968415Y-84971368D01*
X129888499Y-85017509D01*
X129888489Y-85017516D01*
X129823239Y-85082766D01*
X129823232Y-85082776D01*
X129777091Y-85162692D01*
X129777090Y-85162695D01*
X129753205Y-85251835D01*
X129654205Y-85251835D01*
X129630319Y-85162695D01*
X129630318Y-85162692D01*
X129584177Y-85082776D01*
X129584174Y-85082770D01*
X129518917Y-85017513D01*
X129462237Y-84984788D01*
X129438994Y-84971368D01*
X129438991Y-84971367D01*
X129349852Y-84947482D01*
X129349849Y-84947482D01*
X129257561Y-84947482D01*
X129257558Y-84947482D01*
X129168418Y-84971367D01*
X129168415Y-84971368D01*
X129088499Y-85017509D01*
X129088489Y-85017516D01*
X129023239Y-85082766D01*
X129023232Y-85082776D01*
X128977091Y-85162692D01*
X128977090Y-85162695D01*
X128953205Y-85251835D01*
X126948165Y-85251835D01*
X126986022Y-85213978D01*
X127228633Y-84971367D01*
X127500000Y-84700000D01*
X127500000Y-84451835D01*
X128953205Y-84451835D01*
X128953205Y-84544128D01*
X128977090Y-84633268D01*
X128977091Y-84633271D01*
X128995325Y-84664852D01*
X129023236Y-84713194D01*
X129088493Y-84778451D01*
X129168417Y-84824596D01*
X129190703Y-84830567D01*
X129257558Y-84848482D01*
X129257561Y-84848482D01*
X129349851Y-84848482D01*
X129399090Y-84835288D01*
X129438993Y-84824596D01*
X129518917Y-84778451D01*
X129584174Y-84713194D01*
X129630319Y-84633270D01*
X129648689Y-84564712D01*
X129654205Y-84544128D01*
X129654205Y-84451835D01*
X131353205Y-84451835D01*
X131353205Y-84544128D01*
X131377090Y-84633268D01*
X131377091Y-84633271D01*
X131395325Y-84664852D01*
X131423236Y-84713194D01*
X131488493Y-84778451D01*
X131568417Y-84824596D01*
X131590703Y-84830567D01*
X131657558Y-84848482D01*
X131657561Y-84848482D01*
X131749851Y-84848482D01*
X131799090Y-84835288D01*
X131838993Y-84824596D01*
X131918917Y-84778451D01*
X131984174Y-84713194D01*
X132030319Y-84633270D01*
X132048689Y-84564712D01*
X132054205Y-84544128D01*
X132054205Y-84451835D01*
X132153205Y-84451835D01*
X132153205Y-84544128D01*
X132177090Y-84633268D01*
X132177091Y-84633271D01*
X132195325Y-84664852D01*
X132223236Y-84713194D01*
X132288493Y-84778451D01*
X132368417Y-84824596D01*
X132390703Y-84830567D01*
X132457558Y-84848482D01*
X132457561Y-84848482D01*
X132549851Y-84848482D01*
X132599090Y-84835288D01*
X132638993Y-84824596D01*
X132718917Y-84778451D01*
X132784174Y-84713194D01*
X132830319Y-84633270D01*
X132848689Y-84564712D01*
X132854205Y-84544128D01*
X132854205Y-84451835D01*
X132830319Y-84362695D01*
X132830318Y-84362692D01*
X132807624Y-84323386D01*
X132784174Y-84282770D01*
X132718917Y-84217513D01*
X132695646Y-84204077D01*
X132638994Y-84171368D01*
X132638991Y-84171367D01*
X132549852Y-84147482D01*
X132549849Y-84147482D01*
X132457561Y-84147482D01*
X132457558Y-84147482D01*
X132368418Y-84171367D01*
X132368415Y-84171368D01*
X132288499Y-84217509D01*
X132288489Y-84217516D01*
X132223239Y-84282766D01*
X132223232Y-84282776D01*
X132177091Y-84362692D01*
X132177090Y-84362695D01*
X132153205Y-84451835D01*
X132054205Y-84451835D01*
X132030319Y-84362695D01*
X132030318Y-84362692D01*
X132007624Y-84323386D01*
X131984174Y-84282770D01*
X131918917Y-84217513D01*
X131895646Y-84204077D01*
X131838994Y-84171368D01*
X131838991Y-84171367D01*
X131749852Y-84147482D01*
X131749849Y-84147482D01*
X131657561Y-84147482D01*
X131657558Y-84147482D01*
X131568418Y-84171367D01*
X131568415Y-84171368D01*
X131488499Y-84217509D01*
X131488489Y-84217516D01*
X131423239Y-84282766D01*
X131423232Y-84282776D01*
X131377091Y-84362692D01*
X131377090Y-84362695D01*
X131353205Y-84451835D01*
X129654205Y-84451835D01*
X129630319Y-84362695D01*
X129630318Y-84362692D01*
X129607624Y-84323386D01*
X129584174Y-84282770D01*
X129518917Y-84217513D01*
X129495646Y-84204077D01*
X129438994Y-84171368D01*
X129438991Y-84171367D01*
X129349852Y-84147482D01*
X129349849Y-84147482D01*
X129257561Y-84147482D01*
X129257558Y-84147482D01*
X129168418Y-84171367D01*
X129168415Y-84171368D01*
X129088499Y-84217509D01*
X129088489Y-84217516D01*
X129023239Y-84282766D01*
X129023232Y-84282776D01*
X128977091Y-84362692D01*
X128977090Y-84362695D01*
X128953205Y-84451835D01*
X127500000Y-84451835D01*
X127500000Y-84053853D01*
X135699500Y-84053853D01*
X135699500Y-84146146D01*
X135723385Y-84235286D01*
X135723386Y-84235289D01*
X135766430Y-84309842D01*
X135769531Y-84315212D01*
X135834788Y-84380469D01*
X135914712Y-84426614D01*
X135932372Y-84431346D01*
X136003853Y-84450500D01*
X136003856Y-84450500D01*
X136096146Y-84450500D01*
X136140716Y-84438557D01*
X136185288Y-84426614D01*
X136265212Y-84380469D01*
X136330469Y-84315212D01*
X136376614Y-84235288D01*
X136398434Y-84153856D01*
X136400500Y-84146146D01*
X136400500Y-84053853D01*
X136499500Y-84053853D01*
X136499500Y-84146146D01*
X136523385Y-84235286D01*
X136523386Y-84235289D01*
X136566430Y-84309842D01*
X136569531Y-84315212D01*
X136634788Y-84380469D01*
X136714712Y-84426614D01*
X136732372Y-84431346D01*
X136803853Y-84450500D01*
X136803856Y-84450500D01*
X136896146Y-84450500D01*
X136940716Y-84438557D01*
X136985288Y-84426614D01*
X137065212Y-84380469D01*
X137130469Y-84315212D01*
X137176614Y-84235288D01*
X137198434Y-84153856D01*
X137198435Y-84153853D01*
X138549500Y-84153853D01*
X138549500Y-84246146D01*
X138573385Y-84335286D01*
X138573386Y-84335289D01*
X138593158Y-84369534D01*
X138619531Y-84415212D01*
X138684788Y-84480469D01*
X138764712Y-84526614D01*
X138786998Y-84532585D01*
X138853853Y-84550500D01*
X138853856Y-84550500D01*
X138946146Y-84550500D01*
X138990716Y-84538557D01*
X139035288Y-84526614D01*
X139115212Y-84480469D01*
X139180469Y-84415212D01*
X139226614Y-84335288D01*
X139249333Y-84250500D01*
X139250500Y-84246146D01*
X139250500Y-84153853D01*
X139226614Y-84064713D01*
X139226613Y-84064710D01*
X139204618Y-84026614D01*
X139180469Y-83984788D01*
X139115212Y-83919531D01*
X139058991Y-83887071D01*
X139035289Y-83873386D01*
X139035286Y-83873385D01*
X138946147Y-83849500D01*
X138946144Y-83849500D01*
X138853856Y-83849500D01*
X138853853Y-83849500D01*
X138764713Y-83873385D01*
X138764710Y-83873386D01*
X138684794Y-83919527D01*
X138684784Y-83919534D01*
X138619534Y-83984784D01*
X138619527Y-83984794D01*
X138573386Y-84064710D01*
X138573385Y-84064713D01*
X138549500Y-84153853D01*
X137198435Y-84153853D01*
X137200499Y-84146149D01*
X137200500Y-84146144D01*
X137200500Y-84053853D01*
X137176614Y-83964713D01*
X137176613Y-83964710D01*
X137150526Y-83919527D01*
X137130469Y-83884788D01*
X137065212Y-83819531D01*
X137031017Y-83799788D01*
X136985289Y-83773386D01*
X136985286Y-83773385D01*
X136896147Y-83749500D01*
X136896144Y-83749500D01*
X136803856Y-83749500D01*
X136803853Y-83749500D01*
X136714713Y-83773385D01*
X136714710Y-83773386D01*
X136634794Y-83819527D01*
X136634784Y-83819534D01*
X136569534Y-83884784D01*
X136569527Y-83884794D01*
X136523386Y-83964710D01*
X136523385Y-83964713D01*
X136499500Y-84053853D01*
X136400500Y-84053853D01*
X136376614Y-83964713D01*
X136376613Y-83964710D01*
X136350526Y-83919527D01*
X136330469Y-83884788D01*
X136265212Y-83819531D01*
X136231017Y-83799788D01*
X136185289Y-83773386D01*
X136185286Y-83773385D01*
X136096147Y-83749500D01*
X136096144Y-83749500D01*
X136003856Y-83749500D01*
X136003853Y-83749500D01*
X135914713Y-83773385D01*
X135914710Y-83773386D01*
X135834794Y-83819527D01*
X135834784Y-83819534D01*
X135769534Y-83884784D01*
X135769527Y-83884794D01*
X135723386Y-83964710D01*
X135723385Y-83964713D01*
X135699500Y-84053853D01*
X127500000Y-84053853D01*
X127500000Y-83651835D01*
X129753205Y-83651835D01*
X129753205Y-83744128D01*
X129777090Y-83833268D01*
X129777091Y-83833271D01*
X129820135Y-83907824D01*
X129823236Y-83913194D01*
X129888493Y-83978451D01*
X129968417Y-84024596D01*
X129990703Y-84030567D01*
X130057558Y-84048482D01*
X130057561Y-84048482D01*
X130149851Y-84048482D01*
X130199090Y-84035288D01*
X130238993Y-84024596D01*
X130318917Y-83978451D01*
X130384174Y-83913194D01*
X130430319Y-83833270D01*
X130448738Y-83764530D01*
X130454205Y-83744128D01*
X130454205Y-83651835D01*
X132153205Y-83651835D01*
X132153205Y-83744128D01*
X132177090Y-83833268D01*
X132177091Y-83833271D01*
X132220135Y-83907824D01*
X132223236Y-83913194D01*
X132288493Y-83978451D01*
X132368417Y-84024596D01*
X132390703Y-84030567D01*
X132457558Y-84048482D01*
X132457561Y-84048482D01*
X132549851Y-84048482D01*
X132599090Y-84035288D01*
X132638993Y-84024596D01*
X132718917Y-83978451D01*
X132784174Y-83913194D01*
X132830319Y-83833270D01*
X132848738Y-83764530D01*
X132854205Y-83744128D01*
X132854205Y-83651835D01*
X132833109Y-83573108D01*
X132830319Y-83562694D01*
X132784174Y-83482770D01*
X132718917Y-83417513D01*
X132673097Y-83391058D01*
X132673097Y-83391057D01*
X132638995Y-83371368D01*
X132638991Y-83371367D01*
X132566090Y-83351833D01*
X134953207Y-83351833D01*
X134953207Y-83444126D01*
X134977092Y-83533266D01*
X134977093Y-83533269D01*
X135004347Y-83580472D01*
X135023238Y-83613192D01*
X135088495Y-83678449D01*
X135168419Y-83724594D01*
X135175958Y-83726614D01*
X135257560Y-83748480D01*
X135257563Y-83748480D01*
X135349853Y-83748480D01*
X135394427Y-83736536D01*
X135438995Y-83724594D01*
X135518919Y-83678449D01*
X135584176Y-83613192D01*
X135630321Y-83533268D01*
X135643853Y-83482766D01*
X135654207Y-83444126D01*
X135654207Y-83353853D01*
X138549500Y-83353853D01*
X138549500Y-83446146D01*
X138573385Y-83535286D01*
X138573386Y-83535289D01*
X138590374Y-83564712D01*
X138619531Y-83615212D01*
X138684788Y-83680469D01*
X138733158Y-83708396D01*
X138761211Y-83724593D01*
X138764712Y-83726614D01*
X138786998Y-83732585D01*
X138853853Y-83750500D01*
X138853856Y-83750500D01*
X138946146Y-83750500D01*
X139005741Y-83734531D01*
X139035288Y-83726614D01*
X139115212Y-83680469D01*
X139180469Y-83615212D01*
X139226614Y-83535288D01*
X139245015Y-83466614D01*
X139250500Y-83446146D01*
X139250500Y-83353853D01*
X139250499Y-83353852D01*
X139226615Y-83264714D01*
X139226613Y-83264710D01*
X139220345Y-83253853D01*
X143649500Y-83253853D01*
X143649500Y-83346146D01*
X143673385Y-83435286D01*
X143673386Y-83435289D01*
X143691472Y-83466614D01*
X143719531Y-83515212D01*
X143784788Y-83580469D01*
X143864712Y-83626614D01*
X143886998Y-83632585D01*
X143953853Y-83650500D01*
X143953856Y-83650500D01*
X144046146Y-83650500D01*
X144090716Y-83638557D01*
X144135288Y-83626614D01*
X144215212Y-83580469D01*
X144280469Y-83515212D01*
X144326614Y-83435288D01*
X144343742Y-83371367D01*
X144350500Y-83346146D01*
X144350500Y-83253853D01*
X144326614Y-83164713D01*
X144326613Y-83164710D01*
X144299362Y-83117511D01*
X144280469Y-83084788D01*
X144215212Y-83019531D01*
X144190862Y-83005472D01*
X144135289Y-82973386D01*
X144135286Y-82973385D01*
X144046147Y-82949500D01*
X144046144Y-82949500D01*
X143953856Y-82949500D01*
X143953853Y-82949500D01*
X143864713Y-82973385D01*
X143864710Y-82973386D01*
X143784794Y-83019527D01*
X143784784Y-83019534D01*
X143719534Y-83084784D01*
X143719527Y-83084794D01*
X143673386Y-83164710D01*
X143673385Y-83164713D01*
X143649500Y-83253853D01*
X139220345Y-83253853D01*
X139208728Y-83233733D01*
X139180469Y-83184788D01*
X139115212Y-83119531D01*
X139104224Y-83113187D01*
X139035289Y-83073386D01*
X139035286Y-83073385D01*
X138946147Y-83049500D01*
X138946144Y-83049500D01*
X138853856Y-83049500D01*
X138853853Y-83049500D01*
X138764713Y-83073385D01*
X138764710Y-83073386D01*
X138684794Y-83119527D01*
X138684784Y-83119534D01*
X138619534Y-83184784D01*
X138619527Y-83184794D01*
X138573386Y-83264710D01*
X138573385Y-83264713D01*
X138549500Y-83353853D01*
X135654207Y-83353853D01*
X135654207Y-83351833D01*
X135630863Y-83264714D01*
X135630321Y-83262692D01*
X135625219Y-83253856D01*
X135586125Y-83186144D01*
X135584176Y-83182768D01*
X135518919Y-83117511D01*
X135511430Y-83113187D01*
X135438996Y-83071366D01*
X135438993Y-83071365D01*
X135349854Y-83047480D01*
X135349851Y-83047480D01*
X135257563Y-83047480D01*
X135257560Y-83047480D01*
X135168420Y-83071365D01*
X135168417Y-83071366D01*
X135088501Y-83117507D01*
X135088491Y-83117514D01*
X135023241Y-83182764D01*
X135023234Y-83182774D01*
X134977093Y-83262690D01*
X134977092Y-83262693D01*
X134953207Y-83351833D01*
X132566090Y-83351833D01*
X132549852Y-83347482D01*
X132549849Y-83347482D01*
X132457561Y-83347482D01*
X132457558Y-83347482D01*
X132368418Y-83371367D01*
X132368415Y-83371368D01*
X132288499Y-83417509D01*
X132288489Y-83417516D01*
X132223239Y-83482766D01*
X132223232Y-83482776D01*
X132177091Y-83562692D01*
X132177090Y-83562695D01*
X132153205Y-83651835D01*
X130454205Y-83651835D01*
X130433109Y-83573108D01*
X130430319Y-83562694D01*
X130384174Y-83482770D01*
X130318917Y-83417513D01*
X130313547Y-83414412D01*
X130238994Y-83371368D01*
X130238991Y-83371367D01*
X130149852Y-83347482D01*
X130149849Y-83347482D01*
X130057561Y-83347482D01*
X130057558Y-83347482D01*
X129968418Y-83371367D01*
X129968415Y-83371368D01*
X129888499Y-83417509D01*
X129888489Y-83417516D01*
X129823239Y-83482766D01*
X129823232Y-83482776D01*
X129777091Y-83562692D01*
X129777090Y-83562695D01*
X129753205Y-83651835D01*
X127500000Y-83651835D01*
X127500000Y-82851835D01*
X129753205Y-82851835D01*
X129753205Y-82944128D01*
X129777090Y-83033268D01*
X129777091Y-83033271D01*
X129799086Y-83071366D01*
X129823236Y-83113194D01*
X129888493Y-83178451D01*
X129968417Y-83224596D01*
X129990703Y-83230567D01*
X130057558Y-83248482D01*
X130057561Y-83248482D01*
X130149851Y-83248482D01*
X130204893Y-83233733D01*
X130238993Y-83224596D01*
X130318917Y-83178451D01*
X130384174Y-83113194D01*
X130430319Y-83033270D01*
X130447117Y-82970579D01*
X130454205Y-82944128D01*
X130454205Y-82851835D01*
X130553205Y-82851835D01*
X130553205Y-82944128D01*
X130577090Y-83033268D01*
X130577091Y-83033271D01*
X130599086Y-83071366D01*
X130623236Y-83113194D01*
X130688493Y-83178451D01*
X130768417Y-83224596D01*
X130790703Y-83230567D01*
X130857558Y-83248482D01*
X130950500Y-83248482D01*
X130985148Y-83262834D01*
X130999500Y-83297482D01*
X130999500Y-83346146D01*
X131023385Y-83435286D01*
X131023386Y-83435289D01*
X131041472Y-83466614D01*
X131069531Y-83515212D01*
X131134788Y-83580469D01*
X131214712Y-83626614D01*
X131236998Y-83632585D01*
X131303853Y-83650500D01*
X131303856Y-83650500D01*
X131396146Y-83650500D01*
X131440716Y-83638557D01*
X131485288Y-83626614D01*
X131565212Y-83580469D01*
X131630469Y-83515212D01*
X131676614Y-83435288D01*
X131693742Y-83371367D01*
X131700500Y-83346146D01*
X131700500Y-83253853D01*
X131676614Y-83164713D01*
X131676613Y-83164710D01*
X131649362Y-83117511D01*
X131630469Y-83084788D01*
X131565212Y-83019531D01*
X131540862Y-83005472D01*
X131485289Y-82973386D01*
X131485286Y-82973385D01*
X131396147Y-82949500D01*
X131396144Y-82949500D01*
X131303856Y-82949500D01*
X131303205Y-82949500D01*
X131268557Y-82935148D01*
X131254205Y-82900500D01*
X131254205Y-82876795D01*
X131264544Y-82851835D01*
X132153205Y-82851835D01*
X132153205Y-82944128D01*
X132177090Y-83033268D01*
X132177091Y-83033271D01*
X132199086Y-83071366D01*
X132223236Y-83113194D01*
X132288493Y-83178451D01*
X132368417Y-83224596D01*
X132390703Y-83230567D01*
X132457558Y-83248482D01*
X132457561Y-83248482D01*
X132549851Y-83248482D01*
X132604893Y-83233733D01*
X132638993Y-83224596D01*
X132718917Y-83178451D01*
X132784174Y-83113194D01*
X132830319Y-83033270D01*
X132847117Y-82970579D01*
X132854205Y-82944128D01*
X132854205Y-82851835D01*
X132832583Y-82771144D01*
X132830319Y-82762694D01*
X132784174Y-82682770D01*
X132718917Y-82617513D01*
X132687718Y-82599500D01*
X132638994Y-82571368D01*
X132638991Y-82571367D01*
X132549852Y-82547482D01*
X132549849Y-82547482D01*
X132457561Y-82547482D01*
X132457558Y-82547482D01*
X132368418Y-82571367D01*
X132368415Y-82571368D01*
X132288499Y-82617509D01*
X132288489Y-82617516D01*
X132223239Y-82682766D01*
X132223232Y-82682776D01*
X132177091Y-82762692D01*
X132177090Y-82762695D01*
X132153205Y-82851835D01*
X131264544Y-82851835D01*
X131268557Y-82842147D01*
X131303205Y-82827795D01*
X131368851Y-82827795D01*
X131457993Y-82803909D01*
X131537917Y-82757764D01*
X131603174Y-82692507D01*
X131649319Y-82612583D01*
X131665596Y-82551838D01*
X131673205Y-82523441D01*
X131673205Y-82431148D01*
X131654180Y-82360148D01*
X131649319Y-82342007D01*
X131648893Y-82341270D01*
X131613789Y-82280469D01*
X131603174Y-82262083D01*
X131537917Y-82196826D01*
X131532547Y-82193725D01*
X131457994Y-82150681D01*
X131404267Y-82136284D01*
X131374514Y-82113453D01*
X131369620Y-82076271D01*
X131388371Y-82051835D01*
X132953205Y-82051835D01*
X132953205Y-82144128D01*
X132977090Y-82233268D01*
X132977091Y-82233271D01*
X132999087Y-82271368D01*
X133023236Y-82313194D01*
X133088493Y-82378451D01*
X133117655Y-82395288D01*
X133164230Y-82422179D01*
X133168417Y-82424596D01*
X133190703Y-82430567D01*
X133257558Y-82448482D01*
X133257561Y-82448482D01*
X133349851Y-82448482D01*
X133399105Y-82435284D01*
X133438993Y-82424596D01*
X133518917Y-82378451D01*
X133584174Y-82313194D01*
X133630319Y-82233270D01*
X133645500Y-82176614D01*
X133654205Y-82144128D01*
X133654205Y-82099500D01*
X133668557Y-82064852D01*
X133699982Y-82051835D01*
X136153205Y-82051835D01*
X136153205Y-82144128D01*
X136177090Y-82233268D01*
X136177091Y-82233271D01*
X136199087Y-82271368D01*
X136223236Y-82313194D01*
X136288493Y-82378451D01*
X136317655Y-82395288D01*
X136364230Y-82422179D01*
X136368417Y-82424596D01*
X136390703Y-82430567D01*
X136457558Y-82448482D01*
X136457561Y-82448482D01*
X136549851Y-82448482D01*
X136599105Y-82435284D01*
X136638993Y-82424596D01*
X136718917Y-82378451D01*
X136784174Y-82313194D01*
X136830319Y-82233270D01*
X136845500Y-82176614D01*
X136851599Y-82153853D01*
X136999500Y-82153853D01*
X136999500Y-82246146D01*
X137023385Y-82335286D01*
X137023386Y-82335289D01*
X137048308Y-82378454D01*
X137069531Y-82415212D01*
X137134788Y-82480469D01*
X137214712Y-82526614D01*
X137236998Y-82532585D01*
X137303853Y-82550500D01*
X137395035Y-82550500D01*
X137429683Y-82564852D01*
X137444035Y-82599500D01*
X137442365Y-82612182D01*
X137424500Y-82678853D01*
X137424500Y-82771146D01*
X137448385Y-82860286D01*
X137448386Y-82860289D01*
X137458874Y-82878454D01*
X137494531Y-82940212D01*
X137559788Y-83005469D01*
X137607940Y-83033270D01*
X137636050Y-83049500D01*
X137639712Y-83051614D01*
X137661998Y-83057585D01*
X137728853Y-83075500D01*
X137728856Y-83075500D01*
X137821146Y-83075500D01*
X137865716Y-83063557D01*
X137910288Y-83051614D01*
X137990212Y-83005469D01*
X138055469Y-82940212D01*
X138101614Y-82860288D01*
X138120582Y-82789500D01*
X138125500Y-82771146D01*
X138125500Y-82678853D01*
X138106286Y-82607147D01*
X138111181Y-82569965D01*
X138134809Y-82551835D01*
X139653205Y-82551835D01*
X139653205Y-82644128D01*
X139677090Y-82733268D01*
X139677091Y-82733271D01*
X139695533Y-82765212D01*
X139723236Y-82813194D01*
X139788493Y-82878451D01*
X139868417Y-82924596D01*
X139890703Y-82930567D01*
X139957558Y-82948482D01*
X139957561Y-82948482D01*
X140049851Y-82948482D01*
X140099612Y-82935148D01*
X140138993Y-82924596D01*
X140218917Y-82878451D01*
X140284174Y-82813194D01*
X140330319Y-82733270D01*
X140343850Y-82682770D01*
X140354205Y-82644128D01*
X140354205Y-82551835D01*
X140453205Y-82551835D01*
X140453205Y-82644128D01*
X140477090Y-82733268D01*
X140477091Y-82733271D01*
X140495533Y-82765212D01*
X140523236Y-82813194D01*
X140588493Y-82878451D01*
X140668417Y-82924596D01*
X140690703Y-82930567D01*
X140757558Y-82948482D01*
X140757561Y-82948482D01*
X140849851Y-82948482D01*
X140899612Y-82935148D01*
X140938993Y-82924596D01*
X141018917Y-82878451D01*
X141084174Y-82813194D01*
X141130319Y-82733270D01*
X141143850Y-82682770D01*
X141154205Y-82644128D01*
X141154205Y-82551835D01*
X142053205Y-82551835D01*
X142053205Y-82644128D01*
X142077090Y-82733268D01*
X142077091Y-82733271D01*
X142095533Y-82765212D01*
X142123236Y-82813194D01*
X142188493Y-82878451D01*
X142268417Y-82924596D01*
X142290703Y-82930567D01*
X142357558Y-82948482D01*
X142357561Y-82948482D01*
X142449851Y-82948482D01*
X142499612Y-82935148D01*
X142538993Y-82924596D01*
X142618917Y-82878451D01*
X142684174Y-82813194D01*
X142730319Y-82733270D01*
X142743850Y-82682770D01*
X142754205Y-82644128D01*
X142754205Y-82551835D01*
X142853205Y-82551835D01*
X142853205Y-82644128D01*
X142877090Y-82733268D01*
X142877091Y-82733271D01*
X142895533Y-82765212D01*
X142923236Y-82813194D01*
X142988493Y-82878451D01*
X143068417Y-82924596D01*
X143090703Y-82930567D01*
X143157558Y-82948482D01*
X143157561Y-82948482D01*
X143249851Y-82948482D01*
X143299612Y-82935148D01*
X143338993Y-82924596D01*
X143418917Y-82878451D01*
X143484174Y-82813194D01*
X143530319Y-82733270D01*
X143543850Y-82682770D01*
X143554205Y-82644128D01*
X143554205Y-82551835D01*
X143530319Y-82462695D01*
X143530318Y-82462692D01*
X143514495Y-82435286D01*
X143484174Y-82382770D01*
X143418917Y-82317513D01*
X143399226Y-82306144D01*
X143338994Y-82271368D01*
X143338991Y-82271367D01*
X143249852Y-82247482D01*
X143249849Y-82247482D01*
X143157561Y-82247482D01*
X143157558Y-82247482D01*
X143068418Y-82271367D01*
X143068415Y-82271368D01*
X142988499Y-82317509D01*
X142988489Y-82317516D01*
X142923239Y-82382766D01*
X142923232Y-82382776D01*
X142877091Y-82462692D01*
X142877090Y-82462695D01*
X142853205Y-82551835D01*
X142754205Y-82551835D01*
X142730319Y-82462695D01*
X142730318Y-82462692D01*
X142714495Y-82435286D01*
X142684174Y-82382770D01*
X142618917Y-82317513D01*
X142599226Y-82306144D01*
X142538994Y-82271368D01*
X142538991Y-82271367D01*
X142449852Y-82247482D01*
X142449849Y-82247482D01*
X142357561Y-82247482D01*
X142357558Y-82247482D01*
X142268418Y-82271367D01*
X142268415Y-82271368D01*
X142188499Y-82317509D01*
X142188489Y-82317516D01*
X142123239Y-82382766D01*
X142123232Y-82382776D01*
X142077091Y-82462692D01*
X142077090Y-82462695D01*
X142053205Y-82551835D01*
X141154205Y-82551835D01*
X141130319Y-82462695D01*
X141130318Y-82462692D01*
X141114495Y-82435286D01*
X141084174Y-82382770D01*
X141018917Y-82317513D01*
X140999226Y-82306144D01*
X140938994Y-82271368D01*
X140938991Y-82271367D01*
X140849852Y-82247482D01*
X140849849Y-82247482D01*
X140757561Y-82247482D01*
X140757558Y-82247482D01*
X140668418Y-82271367D01*
X140668415Y-82271368D01*
X140588499Y-82317509D01*
X140588489Y-82317516D01*
X140523239Y-82382766D01*
X140523232Y-82382776D01*
X140477091Y-82462692D01*
X140477090Y-82462695D01*
X140453205Y-82551835D01*
X140354205Y-82551835D01*
X140330319Y-82462695D01*
X140330318Y-82462692D01*
X140314495Y-82435286D01*
X140284174Y-82382770D01*
X140218917Y-82317513D01*
X140199226Y-82306144D01*
X140138994Y-82271368D01*
X140138991Y-82271367D01*
X140049852Y-82247482D01*
X140049849Y-82247482D01*
X139957561Y-82247482D01*
X139957558Y-82247482D01*
X139868418Y-82271367D01*
X139868415Y-82271368D01*
X139788499Y-82317509D01*
X139788489Y-82317516D01*
X139723239Y-82382766D01*
X139723232Y-82382776D01*
X139677091Y-82462692D01*
X139677090Y-82462695D01*
X139653205Y-82551835D01*
X138134809Y-82551835D01*
X138140934Y-82547135D01*
X138166298Y-82547135D01*
X138178856Y-82550500D01*
X138178857Y-82550500D01*
X138271146Y-82550500D01*
X138315716Y-82538557D01*
X138360288Y-82526614D01*
X138440212Y-82480469D01*
X138505469Y-82415212D01*
X138551614Y-82335288D01*
X138568742Y-82271367D01*
X138575500Y-82246146D01*
X138575500Y-82153853D01*
X138551748Y-82065212D01*
X138551614Y-82064712D01*
X138541109Y-82046518D01*
X138529617Y-82026613D01*
X138505469Y-81984788D01*
X138440212Y-81919531D01*
X138422838Y-81909500D01*
X138360289Y-81873386D01*
X138360286Y-81873385D01*
X138271147Y-81849500D01*
X138271144Y-81849500D01*
X138178856Y-81849500D01*
X138178853Y-81849500D01*
X138089713Y-81873385D01*
X138089710Y-81873386D01*
X138009794Y-81919527D01*
X138009784Y-81919534D01*
X137944534Y-81984784D01*
X137944527Y-81984794D01*
X137898386Y-82064710D01*
X137898385Y-82064713D01*
X137874500Y-82153853D01*
X137874500Y-82246147D01*
X137893713Y-82317852D01*
X137888818Y-82355034D01*
X137859065Y-82377864D01*
X137833700Y-82377864D01*
X137821146Y-82374500D01*
X137821144Y-82374500D01*
X137729965Y-82374500D01*
X137695317Y-82360148D01*
X137680965Y-82325500D01*
X137682635Y-82312818D01*
X137700500Y-82246146D01*
X137700500Y-82153853D01*
X137676748Y-82065212D01*
X137676614Y-82064712D01*
X137666109Y-82046518D01*
X137654617Y-82026613D01*
X137630469Y-81984788D01*
X137565212Y-81919531D01*
X137547838Y-81909500D01*
X137485289Y-81873386D01*
X137485286Y-81873385D01*
X137396147Y-81849500D01*
X137396144Y-81849500D01*
X137303856Y-81849500D01*
X137303853Y-81849500D01*
X137214713Y-81873385D01*
X137214710Y-81873386D01*
X137134794Y-81919527D01*
X137134784Y-81919534D01*
X137069534Y-81984784D01*
X137069527Y-81984794D01*
X137023386Y-82064710D01*
X137023385Y-82064713D01*
X136999500Y-82153853D01*
X136851599Y-82153853D01*
X136854205Y-82144128D01*
X136854205Y-82051835D01*
X136834049Y-81976614D01*
X136830319Y-81962694D01*
X136784174Y-81882770D01*
X136718917Y-81817513D01*
X136718913Y-81817511D01*
X136718911Y-81817509D01*
X136673102Y-81791061D01*
X136638994Y-81771368D01*
X136638991Y-81771367D01*
X136566097Y-81751835D01*
X139653205Y-81751835D01*
X139653205Y-81844128D01*
X139677090Y-81933268D01*
X139677091Y-81933271D01*
X139706833Y-81984784D01*
X139723236Y-82013194D01*
X139788493Y-82078451D01*
X139868417Y-82124596D01*
X139876624Y-82126795D01*
X139957558Y-82148482D01*
X139957561Y-82148482D01*
X140049851Y-82148482D01*
X140099090Y-82135288D01*
X140138993Y-82124596D01*
X140218917Y-82078451D01*
X140284174Y-82013194D01*
X140330319Y-81933270D01*
X140343850Y-81882770D01*
X140354205Y-81844128D01*
X140354205Y-81751835D01*
X141253205Y-81751835D01*
X141253205Y-81844128D01*
X141277090Y-81933268D01*
X141277091Y-81933271D01*
X141306833Y-81984784D01*
X141323236Y-82013194D01*
X141388493Y-82078451D01*
X141468417Y-82124596D01*
X141476624Y-82126795D01*
X141557558Y-82148482D01*
X141557561Y-82148482D01*
X141649851Y-82148482D01*
X141699090Y-82135288D01*
X141738993Y-82124596D01*
X141818917Y-82078451D01*
X141884174Y-82013194D01*
X141930319Y-81933270D01*
X141943850Y-81882770D01*
X141954205Y-81844128D01*
X141954205Y-81751835D01*
X142853205Y-81751835D01*
X142853205Y-81844128D01*
X142877090Y-81933268D01*
X142877091Y-81933271D01*
X142906833Y-81984784D01*
X142923236Y-82013194D01*
X142988493Y-82078451D01*
X143068417Y-82124596D01*
X143076624Y-82126795D01*
X143157558Y-82148482D01*
X143157561Y-82148482D01*
X143249851Y-82148482D01*
X143299090Y-82135288D01*
X143338993Y-82124596D01*
X143418917Y-82078451D01*
X143484174Y-82013194D01*
X143530319Y-81933270D01*
X143543850Y-81882770D01*
X143554205Y-81844128D01*
X143554205Y-81751835D01*
X143530319Y-81662695D01*
X143530318Y-81662692D01*
X143496348Y-81603856D01*
X143484174Y-81582770D01*
X143418917Y-81517513D01*
X143385789Y-81498386D01*
X143338994Y-81471368D01*
X143338991Y-81471367D01*
X143249852Y-81447482D01*
X143249849Y-81447482D01*
X143157561Y-81447482D01*
X143157558Y-81447482D01*
X143068418Y-81471367D01*
X143068415Y-81471368D01*
X142988499Y-81517509D01*
X142988489Y-81517516D01*
X142923239Y-81582766D01*
X142923232Y-81582776D01*
X142877091Y-81662692D01*
X142877090Y-81662695D01*
X142853205Y-81751835D01*
X141954205Y-81751835D01*
X141930319Y-81662695D01*
X141930318Y-81662692D01*
X141896348Y-81603856D01*
X141884174Y-81582770D01*
X141818917Y-81517513D01*
X141785789Y-81498386D01*
X141738994Y-81471368D01*
X141738991Y-81471367D01*
X141649852Y-81447482D01*
X141649849Y-81447482D01*
X141557561Y-81447482D01*
X141557558Y-81447482D01*
X141468418Y-81471367D01*
X141468415Y-81471368D01*
X141388499Y-81517509D01*
X141388489Y-81517516D01*
X141323239Y-81582766D01*
X141323232Y-81582776D01*
X141277091Y-81662692D01*
X141277090Y-81662695D01*
X141253205Y-81751835D01*
X140354205Y-81751835D01*
X140330319Y-81662695D01*
X140330318Y-81662692D01*
X140296348Y-81603856D01*
X140284174Y-81582770D01*
X140218917Y-81517513D01*
X140185789Y-81498386D01*
X140138994Y-81471368D01*
X140138991Y-81471367D01*
X140049852Y-81447482D01*
X140049849Y-81447482D01*
X139957561Y-81447482D01*
X139957558Y-81447482D01*
X139868418Y-81471367D01*
X139868415Y-81471368D01*
X139788499Y-81517509D01*
X139788489Y-81517516D01*
X139723239Y-81582766D01*
X139723232Y-81582776D01*
X139677091Y-81662692D01*
X139677090Y-81662695D01*
X139653205Y-81751835D01*
X136566097Y-81751835D01*
X136549852Y-81747482D01*
X136549849Y-81747482D01*
X136457561Y-81747482D01*
X136457558Y-81747482D01*
X136368418Y-81771367D01*
X136368415Y-81771368D01*
X136288499Y-81817509D01*
X136288489Y-81817516D01*
X136223239Y-81882766D01*
X136223232Y-81882776D01*
X136177091Y-81962692D01*
X136177090Y-81962695D01*
X136153205Y-82051835D01*
X133699982Y-82051835D01*
X133703205Y-82050500D01*
X133746146Y-82050500D01*
X133790716Y-82038557D01*
X133835288Y-82026614D01*
X133915212Y-81980469D01*
X133980469Y-81915212D01*
X134026614Y-81835288D01*
X134043974Y-81770500D01*
X134050500Y-81746146D01*
X134050500Y-81653853D01*
X134149500Y-81653853D01*
X134149500Y-81746146D01*
X134173385Y-81835286D01*
X134173386Y-81835289D01*
X134195382Y-81873386D01*
X134219531Y-81915212D01*
X134284788Y-81980469D01*
X134341456Y-82013187D01*
X134364708Y-82026612D01*
X134364712Y-82026614D01*
X134382510Y-82031383D01*
X134453853Y-82050500D01*
X134453856Y-82050500D01*
X134546146Y-82050500D01*
X134590716Y-82038557D01*
X134635288Y-82026614D01*
X134635292Y-82026612D01*
X134658526Y-82013197D01*
X134715212Y-81980469D01*
X134780469Y-81915212D01*
X134826614Y-81835288D01*
X134843974Y-81770500D01*
X134850500Y-81746146D01*
X134850500Y-81653853D01*
X134831453Y-81582770D01*
X134826614Y-81564712D01*
X134780469Y-81484788D01*
X134715212Y-81419531D01*
X134707731Y-81415212D01*
X134635289Y-81373386D01*
X134635286Y-81373385D01*
X134546147Y-81349500D01*
X134546144Y-81349500D01*
X134453856Y-81349500D01*
X134453853Y-81349500D01*
X134364713Y-81373385D01*
X134364710Y-81373386D01*
X134284794Y-81419527D01*
X134284784Y-81419534D01*
X134219534Y-81484784D01*
X134219527Y-81484794D01*
X134173386Y-81564710D01*
X134173385Y-81564713D01*
X134149500Y-81653853D01*
X134050500Y-81653853D01*
X134031453Y-81582770D01*
X134026614Y-81564712D01*
X133980469Y-81484788D01*
X133915212Y-81419531D01*
X133907731Y-81415212D01*
X133835289Y-81373386D01*
X133835286Y-81373385D01*
X133746147Y-81349500D01*
X133746144Y-81349500D01*
X133653856Y-81349500D01*
X133653853Y-81349500D01*
X133564713Y-81373385D01*
X133564710Y-81373386D01*
X133484794Y-81419527D01*
X133484784Y-81419534D01*
X133419534Y-81484784D01*
X133419527Y-81484794D01*
X133373386Y-81564710D01*
X133373385Y-81564713D01*
X133349500Y-81653853D01*
X133349500Y-81698482D01*
X133335148Y-81733130D01*
X133300500Y-81747482D01*
X133257558Y-81747482D01*
X133168418Y-81771367D01*
X133168415Y-81771368D01*
X133088499Y-81817509D01*
X133088489Y-81817516D01*
X133023239Y-81882766D01*
X133023232Y-81882776D01*
X132977091Y-81962692D01*
X132977090Y-81962695D01*
X132953205Y-82051835D01*
X131388371Y-82051835D01*
X131392451Y-82046518D01*
X131404257Y-82041627D01*
X131460288Y-82026614D01*
X131540212Y-81980469D01*
X131605469Y-81915212D01*
X131651614Y-81835288D01*
X131668974Y-81770500D01*
X131675500Y-81746146D01*
X131675500Y-81653853D01*
X131656453Y-81582770D01*
X131651614Y-81564712D01*
X131605469Y-81484788D01*
X131540212Y-81419531D01*
X131532731Y-81415212D01*
X131460289Y-81373386D01*
X131460286Y-81373385D01*
X131371147Y-81349500D01*
X131371144Y-81349500D01*
X131278856Y-81349500D01*
X131278853Y-81349500D01*
X131189713Y-81373385D01*
X131189710Y-81373386D01*
X131109794Y-81419527D01*
X131109784Y-81419534D01*
X131044534Y-81484784D01*
X131044527Y-81484794D01*
X130998386Y-81564710D01*
X130998385Y-81564713D01*
X130974500Y-81653853D01*
X130974500Y-81746146D01*
X130998385Y-81835286D01*
X130998386Y-81835289D01*
X131020382Y-81873386D01*
X131044531Y-81915212D01*
X131109788Y-81980469D01*
X131166456Y-82013187D01*
X131189708Y-82026612D01*
X131189712Y-82026614D01*
X131216475Y-82033785D01*
X131243437Y-82041010D01*
X131273189Y-82063840D01*
X131278084Y-82101023D01*
X131255254Y-82130775D01*
X131243437Y-82135670D01*
X131187416Y-82150681D01*
X131187415Y-82150681D01*
X131107499Y-82196822D01*
X131107489Y-82196829D01*
X131042239Y-82262079D01*
X131042232Y-82262089D01*
X130996091Y-82342005D01*
X130996090Y-82342008D01*
X130972205Y-82431148D01*
X130972205Y-82498482D01*
X130957853Y-82533130D01*
X130923205Y-82547482D01*
X130857558Y-82547482D01*
X130768418Y-82571367D01*
X130768415Y-82571368D01*
X130688499Y-82617509D01*
X130688489Y-82617516D01*
X130623239Y-82682766D01*
X130623232Y-82682776D01*
X130577091Y-82762692D01*
X130577090Y-82762695D01*
X130553205Y-82851835D01*
X130454205Y-82851835D01*
X130432583Y-82771144D01*
X130430319Y-82762694D01*
X130384174Y-82682770D01*
X130318917Y-82617513D01*
X130287718Y-82599500D01*
X130238994Y-82571368D01*
X130238991Y-82571367D01*
X130149852Y-82547482D01*
X130149849Y-82547482D01*
X130057561Y-82547482D01*
X130057558Y-82547482D01*
X129968418Y-82571367D01*
X129968415Y-82571368D01*
X129888499Y-82617509D01*
X129888489Y-82617516D01*
X129823239Y-82682766D01*
X129823232Y-82682776D01*
X129777091Y-82762692D01*
X129777090Y-82762695D01*
X129753205Y-82851835D01*
X127500000Y-82851835D01*
X127500000Y-82051835D01*
X129753205Y-82051835D01*
X129753205Y-82144128D01*
X129777090Y-82233268D01*
X129777091Y-82233271D01*
X129799087Y-82271368D01*
X129823236Y-82313194D01*
X129888493Y-82378451D01*
X129917655Y-82395288D01*
X129964230Y-82422179D01*
X129968417Y-82424596D01*
X129990703Y-82430567D01*
X130057558Y-82448482D01*
X130057561Y-82448482D01*
X130149851Y-82448482D01*
X130199105Y-82435284D01*
X130238993Y-82424596D01*
X130318917Y-82378451D01*
X130384174Y-82313194D01*
X130430319Y-82233270D01*
X130445500Y-82176614D01*
X130454205Y-82144128D01*
X130454205Y-82049500D01*
X130468557Y-82014852D01*
X130503205Y-82000500D01*
X130536146Y-82000500D01*
X130592916Y-81985288D01*
X130625288Y-81976614D01*
X130705212Y-81930469D01*
X130770469Y-81865212D01*
X130816614Y-81785288D01*
X130833788Y-81721194D01*
X130840500Y-81696146D01*
X130840500Y-81603853D01*
X130817365Y-81517516D01*
X130816614Y-81514712D01*
X130770469Y-81434788D01*
X130705212Y-81369531D01*
X130664709Y-81346146D01*
X130625289Y-81323386D01*
X130622323Y-81322158D01*
X130622816Y-81320965D01*
X130596587Y-81300828D01*
X130591702Y-81263644D01*
X130614540Y-81233897D01*
X130626343Y-81229010D01*
X130635288Y-81226614D01*
X130715212Y-81180469D01*
X130780469Y-81115212D01*
X130826614Y-81035288D01*
X130843201Y-80973385D01*
X130850500Y-80946146D01*
X130850500Y-80853853D01*
X130831453Y-80782770D01*
X130826614Y-80764712D01*
X130780469Y-80684788D01*
X130715212Y-80619531D01*
X130709842Y-80616430D01*
X130635289Y-80573386D01*
X130635286Y-80573385D01*
X130546147Y-80549500D01*
X130546144Y-80549500D01*
X130453856Y-80549500D01*
X130453853Y-80549500D01*
X130364713Y-80573385D01*
X130364710Y-80573386D01*
X130284794Y-80619527D01*
X130284784Y-80619534D01*
X130219534Y-80684784D01*
X130219527Y-80684794D01*
X130173386Y-80764710D01*
X130173385Y-80764713D01*
X130149500Y-80853853D01*
X130149500Y-80946146D01*
X130173385Y-81035286D01*
X130173386Y-81035289D01*
X130216430Y-81109842D01*
X130219531Y-81115212D01*
X130284788Y-81180469D01*
X130292269Y-81184788D01*
X130364710Y-81226613D01*
X130367677Y-81227842D01*
X130367181Y-81229038D01*
X130393404Y-81249157D01*
X130398301Y-81286339D01*
X130375473Y-81316094D01*
X130363653Y-81320990D01*
X130354711Y-81323386D01*
X130354710Y-81323386D01*
X130274794Y-81369527D01*
X130274784Y-81369534D01*
X130209534Y-81434784D01*
X130209527Y-81434794D01*
X130163386Y-81514710D01*
X130163385Y-81514713D01*
X130139500Y-81603853D01*
X130139500Y-81698482D01*
X130125148Y-81733130D01*
X130090500Y-81747482D01*
X130057558Y-81747482D01*
X129968418Y-81771367D01*
X129968415Y-81771368D01*
X129888499Y-81817509D01*
X129888489Y-81817516D01*
X129823239Y-81882766D01*
X129823232Y-81882776D01*
X129777091Y-81962692D01*
X129777090Y-81962695D01*
X129753205Y-82051835D01*
X127500000Y-82051835D01*
X127500000Y-80451835D01*
X131353205Y-80451835D01*
X131353205Y-80544128D01*
X131377090Y-80633268D01*
X131377091Y-80633271D01*
X131399087Y-80671368D01*
X131423236Y-80713194D01*
X131488493Y-80778451D01*
X131568417Y-80824596D01*
X131590703Y-80830567D01*
X131657558Y-80848482D01*
X131657561Y-80848482D01*
X131749851Y-80848482D01*
X131799090Y-80835288D01*
X131838993Y-80824596D01*
X131918917Y-80778451D01*
X131984174Y-80713194D01*
X132030319Y-80633270D01*
X132051621Y-80553771D01*
X132054205Y-80544128D01*
X132054205Y-80451835D01*
X132153205Y-80451835D01*
X132153205Y-80544128D01*
X132177090Y-80633268D01*
X132177091Y-80633271D01*
X132199087Y-80671368D01*
X132223236Y-80713194D01*
X132288493Y-80778451D01*
X132368417Y-80824596D01*
X132390703Y-80830567D01*
X132457558Y-80848482D01*
X132500500Y-80848482D01*
X132535148Y-80862834D01*
X132549500Y-80897482D01*
X132549500Y-80947833D01*
X132573385Y-81036973D01*
X132573386Y-81036976D01*
X132616430Y-81111529D01*
X132619531Y-81116899D01*
X132684788Y-81182156D01*
X132764712Y-81228301D01*
X132767351Y-81229008D01*
X132853853Y-81252187D01*
X132853856Y-81252187D01*
X132946146Y-81252187D01*
X132990716Y-81240244D01*
X133035288Y-81228301D01*
X133115212Y-81182156D01*
X133180469Y-81116899D01*
X133226614Y-81036975D01*
X133238557Y-80992403D01*
X133250500Y-80947833D01*
X133250500Y-80897482D01*
X133264852Y-80862834D01*
X133299500Y-80848482D01*
X133300500Y-80848482D01*
X133335148Y-80862834D01*
X133349500Y-80897482D01*
X133349500Y-80946146D01*
X133373385Y-81035286D01*
X133373386Y-81035289D01*
X133416430Y-81109842D01*
X133419531Y-81115212D01*
X133484788Y-81180469D01*
X133564712Y-81226614D01*
X133573647Y-81229008D01*
X133653853Y-81250500D01*
X133653856Y-81250500D01*
X133746146Y-81250500D01*
X133808107Y-81233897D01*
X133835288Y-81226614D01*
X133915212Y-81180469D01*
X133980469Y-81115212D01*
X134026614Y-81035288D01*
X134043201Y-80973385D01*
X134048976Y-80951835D01*
X140453205Y-80951835D01*
X140453205Y-81044128D01*
X140477090Y-81133268D01*
X140477091Y-81133271D01*
X140506835Y-81184788D01*
X140523236Y-81213194D01*
X140588493Y-81278451D01*
X140668417Y-81324596D01*
X140690703Y-81330567D01*
X140757558Y-81348482D01*
X140757561Y-81348482D01*
X140849851Y-81348482D01*
X140899090Y-81335288D01*
X140938993Y-81324596D01*
X141018917Y-81278451D01*
X141084174Y-81213194D01*
X141130319Y-81133270D01*
X141148689Y-81064712D01*
X141154205Y-81044128D01*
X141154205Y-80951835D01*
X141253205Y-80951835D01*
X141253205Y-81044128D01*
X141277090Y-81133268D01*
X141277091Y-81133271D01*
X141306835Y-81184788D01*
X141323236Y-81213194D01*
X141388493Y-81278451D01*
X141468417Y-81324596D01*
X141490703Y-81330567D01*
X141557558Y-81348482D01*
X141557561Y-81348482D01*
X141649851Y-81348482D01*
X141699090Y-81335288D01*
X141738993Y-81324596D01*
X141818917Y-81278451D01*
X141884174Y-81213194D01*
X141930319Y-81133270D01*
X141948689Y-81064712D01*
X141954205Y-81044128D01*
X141954205Y-80951835D01*
X142053205Y-80951835D01*
X142053205Y-81044128D01*
X142077090Y-81133268D01*
X142077091Y-81133271D01*
X142106835Y-81184788D01*
X142123236Y-81213194D01*
X142188493Y-81278451D01*
X142268417Y-81324596D01*
X142290703Y-81330567D01*
X142357558Y-81348482D01*
X142357561Y-81348482D01*
X142449851Y-81348482D01*
X142499090Y-81335288D01*
X142538993Y-81324596D01*
X142618917Y-81278451D01*
X142684174Y-81213194D01*
X142730319Y-81133270D01*
X142748689Y-81064712D01*
X142754205Y-81044128D01*
X142754205Y-80951835D01*
X142733184Y-80873386D01*
X142730319Y-80862694D01*
X142729034Y-80860469D01*
X142708322Y-80824595D01*
X142684174Y-80782770D01*
X142618917Y-80717513D01*
X142588584Y-80700000D01*
X142538994Y-80671368D01*
X142538991Y-80671367D01*
X142449852Y-80647482D01*
X142449849Y-80647482D01*
X142357561Y-80647482D01*
X142357558Y-80647482D01*
X142268418Y-80671367D01*
X142268415Y-80671368D01*
X142188499Y-80717509D01*
X142188489Y-80717516D01*
X142123239Y-80782766D01*
X142123232Y-80782776D01*
X142077091Y-80862692D01*
X142077090Y-80862695D01*
X142053205Y-80951835D01*
X141954205Y-80951835D01*
X141933184Y-80873386D01*
X141930319Y-80862694D01*
X141929034Y-80860469D01*
X141908322Y-80824595D01*
X141884174Y-80782770D01*
X141818917Y-80717513D01*
X141788584Y-80700000D01*
X141738994Y-80671368D01*
X141738991Y-80671367D01*
X141649852Y-80647482D01*
X141649849Y-80647482D01*
X141557561Y-80647482D01*
X141557558Y-80647482D01*
X141468418Y-80671367D01*
X141468415Y-80671368D01*
X141388499Y-80717509D01*
X141388489Y-80717516D01*
X141323239Y-80782766D01*
X141323232Y-80782776D01*
X141277091Y-80862692D01*
X141277090Y-80862695D01*
X141253205Y-80951835D01*
X141154205Y-80951835D01*
X141133184Y-80873386D01*
X141130319Y-80862694D01*
X141129034Y-80860469D01*
X141108322Y-80824595D01*
X141084174Y-80782770D01*
X141018917Y-80717513D01*
X140988584Y-80700000D01*
X140938994Y-80671368D01*
X140938991Y-80671367D01*
X140849852Y-80647482D01*
X140849849Y-80647482D01*
X140757561Y-80647482D01*
X140757558Y-80647482D01*
X140668418Y-80671367D01*
X140668415Y-80671368D01*
X140588499Y-80717509D01*
X140588489Y-80717516D01*
X140523239Y-80782766D01*
X140523232Y-80782776D01*
X140477091Y-80862692D01*
X140477090Y-80862695D01*
X140453205Y-80951835D01*
X134048976Y-80951835D01*
X134050500Y-80946146D01*
X134050500Y-80897482D01*
X134064852Y-80862834D01*
X134099500Y-80848482D01*
X134149851Y-80848482D01*
X134199090Y-80835288D01*
X134238993Y-80824596D01*
X134318917Y-80778451D01*
X134384174Y-80713194D01*
X134430319Y-80633270D01*
X134451621Y-80553771D01*
X134454205Y-80544128D01*
X134454205Y-80451835D01*
X134553205Y-80451835D01*
X134553205Y-80544128D01*
X134577090Y-80633268D01*
X134577091Y-80633271D01*
X134599087Y-80671368D01*
X134623236Y-80713194D01*
X134688493Y-80778451D01*
X134768417Y-80824596D01*
X134790703Y-80830567D01*
X134857558Y-80848482D01*
X134857561Y-80848482D01*
X134949851Y-80848482D01*
X134999090Y-80835288D01*
X135038993Y-80824596D01*
X135118917Y-80778451D01*
X135184174Y-80713194D01*
X135230319Y-80633270D01*
X135251621Y-80553771D01*
X135254205Y-80544128D01*
X135254205Y-80451835D01*
X135353205Y-80451835D01*
X135353205Y-80544128D01*
X135377090Y-80633268D01*
X135377091Y-80633271D01*
X135399087Y-80671368D01*
X135423236Y-80713194D01*
X135488493Y-80778451D01*
X135568417Y-80824596D01*
X135590703Y-80830567D01*
X135657558Y-80848482D01*
X135657561Y-80848482D01*
X135749851Y-80848482D01*
X135799090Y-80835288D01*
X135838993Y-80824596D01*
X135918917Y-80778451D01*
X135984174Y-80713194D01*
X136030319Y-80633270D01*
X136051621Y-80553771D01*
X136054205Y-80544128D01*
X136054205Y-80451835D01*
X136153205Y-80451835D01*
X136153205Y-80544128D01*
X136177090Y-80633268D01*
X136177091Y-80633271D01*
X136199087Y-80671368D01*
X136223236Y-80713194D01*
X136288493Y-80778451D01*
X136368417Y-80824596D01*
X136390703Y-80830567D01*
X136457558Y-80848482D01*
X136457561Y-80848482D01*
X136549851Y-80848482D01*
X136599090Y-80835288D01*
X136638993Y-80824596D01*
X136718917Y-80778451D01*
X136784174Y-80713194D01*
X136830319Y-80633270D01*
X136851621Y-80553771D01*
X136854205Y-80544128D01*
X136854205Y-80533853D01*
X137139500Y-80533853D01*
X137139500Y-80626146D01*
X137163385Y-80715286D01*
X137163386Y-80715289D01*
X137202345Y-80782766D01*
X137209531Y-80795212D01*
X137274788Y-80860469D01*
X137354712Y-80906614D01*
X137376998Y-80912585D01*
X137443853Y-80930500D01*
X137443856Y-80930500D01*
X137536146Y-80930500D01*
X137580716Y-80918557D01*
X137625288Y-80906614D01*
X137705212Y-80860469D01*
X137770469Y-80795212D01*
X137816614Y-80715288D01*
X137834783Y-80647482D01*
X137840500Y-80626146D01*
X137840500Y-80533853D01*
X137818523Y-80451838D01*
X137816614Y-80444712D01*
X137816576Y-80444647D01*
X137770472Y-80364794D01*
X137770469Y-80364788D01*
X137705212Y-80299531D01*
X137651667Y-80268616D01*
X137625289Y-80253386D01*
X137625286Y-80253385D01*
X137536147Y-80229500D01*
X137536144Y-80229500D01*
X137443856Y-80229500D01*
X137443853Y-80229500D01*
X137354713Y-80253385D01*
X137354710Y-80253386D01*
X137274794Y-80299527D01*
X137274784Y-80299534D01*
X137209534Y-80364784D01*
X137209527Y-80364794D01*
X137163386Y-80444710D01*
X137163385Y-80444713D01*
X137139500Y-80533853D01*
X136854205Y-80533853D01*
X136854205Y-80451835D01*
X136833184Y-80373386D01*
X136830319Y-80362694D01*
X136784174Y-80282770D01*
X136718917Y-80217513D01*
X136718913Y-80217511D01*
X136718911Y-80217509D01*
X136673102Y-80191061D01*
X136638994Y-80171368D01*
X136638991Y-80171367D01*
X136566097Y-80151835D01*
X139653205Y-80151835D01*
X139653205Y-80244128D01*
X139677090Y-80333268D01*
X139677091Y-80333271D01*
X139700252Y-80373386D01*
X139723236Y-80413194D01*
X139788493Y-80478451D01*
X139868417Y-80524596D01*
X139890703Y-80530567D01*
X139957558Y-80548482D01*
X139957561Y-80548482D01*
X140049851Y-80548482D01*
X140104445Y-80533853D01*
X140138993Y-80524596D01*
X140218917Y-80478451D01*
X140284174Y-80413194D01*
X140330319Y-80333270D01*
X140343850Y-80282770D01*
X140354205Y-80244128D01*
X140354205Y-80151835D01*
X141253205Y-80151835D01*
X141253205Y-80244128D01*
X141277090Y-80333268D01*
X141277091Y-80333271D01*
X141300252Y-80373386D01*
X141323236Y-80413194D01*
X141388493Y-80478451D01*
X141468417Y-80524596D01*
X141490703Y-80530567D01*
X141557558Y-80548482D01*
X141557561Y-80548482D01*
X141649851Y-80548482D01*
X141704445Y-80533853D01*
X141738993Y-80524596D01*
X141818917Y-80478451D01*
X141884174Y-80413194D01*
X141930319Y-80333270D01*
X141943850Y-80282770D01*
X141954205Y-80244128D01*
X141954205Y-80151835D01*
X142853205Y-80151835D01*
X142853205Y-80244128D01*
X142877090Y-80333268D01*
X142877091Y-80333271D01*
X142900252Y-80373386D01*
X142923236Y-80413194D01*
X142988493Y-80478451D01*
X143068417Y-80524596D01*
X143090703Y-80530567D01*
X143157558Y-80548482D01*
X143157561Y-80548482D01*
X143249851Y-80548482D01*
X143304445Y-80533853D01*
X143338993Y-80524596D01*
X143418917Y-80478451D01*
X143484174Y-80413194D01*
X143530319Y-80333270D01*
X143543850Y-80282770D01*
X143554205Y-80244128D01*
X143554205Y-80151835D01*
X143530319Y-80062695D01*
X143530318Y-80062692D01*
X143497281Y-80005472D01*
X143484174Y-79982770D01*
X143418917Y-79917513D01*
X143413547Y-79914412D01*
X143338994Y-79871368D01*
X143338991Y-79871367D01*
X143249852Y-79847482D01*
X143249849Y-79847482D01*
X143157561Y-79847482D01*
X143157558Y-79847482D01*
X143068418Y-79871367D01*
X143068415Y-79871368D01*
X142988499Y-79917509D01*
X142988489Y-79917516D01*
X142923239Y-79982766D01*
X142923232Y-79982776D01*
X142877091Y-80062692D01*
X142877090Y-80062695D01*
X142853205Y-80151835D01*
X141954205Y-80151835D01*
X141930319Y-80062695D01*
X141930318Y-80062692D01*
X141897281Y-80005472D01*
X141884174Y-79982770D01*
X141818917Y-79917513D01*
X141813547Y-79914412D01*
X141738994Y-79871368D01*
X141738991Y-79871367D01*
X141649852Y-79847482D01*
X141649849Y-79847482D01*
X141557561Y-79847482D01*
X141557558Y-79847482D01*
X141468418Y-79871367D01*
X141468415Y-79871368D01*
X141388499Y-79917509D01*
X141388489Y-79917516D01*
X141323239Y-79982766D01*
X141323232Y-79982776D01*
X141277091Y-80062692D01*
X141277090Y-80062695D01*
X141253205Y-80151835D01*
X140354205Y-80151835D01*
X140330319Y-80062695D01*
X140330318Y-80062692D01*
X140297281Y-80005472D01*
X140284174Y-79982770D01*
X140218917Y-79917513D01*
X140213547Y-79914412D01*
X140138994Y-79871368D01*
X140138991Y-79871367D01*
X140049852Y-79847482D01*
X140049849Y-79847482D01*
X139957561Y-79847482D01*
X139957558Y-79847482D01*
X139868418Y-79871367D01*
X139868415Y-79871368D01*
X139788499Y-79917509D01*
X139788489Y-79917516D01*
X139723239Y-79982766D01*
X139723232Y-79982776D01*
X139677091Y-80062692D01*
X139677090Y-80062695D01*
X139653205Y-80151835D01*
X136566097Y-80151835D01*
X136549852Y-80147482D01*
X136549849Y-80147482D01*
X136457561Y-80147482D01*
X136457558Y-80147482D01*
X136368418Y-80171367D01*
X136368415Y-80171368D01*
X136288499Y-80217509D01*
X136288489Y-80217516D01*
X136223239Y-80282766D01*
X136223232Y-80282776D01*
X136177091Y-80362692D01*
X136177090Y-80362695D01*
X136153205Y-80451835D01*
X136054205Y-80451835D01*
X136033184Y-80373386D01*
X136030319Y-80362694D01*
X135984174Y-80282770D01*
X135918917Y-80217513D01*
X135873102Y-80191061D01*
X135838994Y-80171368D01*
X135838991Y-80171367D01*
X135749852Y-80147482D01*
X135749849Y-80147482D01*
X135657561Y-80147482D01*
X135657558Y-80147482D01*
X135568418Y-80171367D01*
X135568415Y-80171368D01*
X135488499Y-80217509D01*
X135488489Y-80217516D01*
X135423239Y-80282766D01*
X135423232Y-80282776D01*
X135377091Y-80362692D01*
X135377090Y-80362695D01*
X135353205Y-80451835D01*
X135254205Y-80451835D01*
X135233184Y-80373386D01*
X135230319Y-80362694D01*
X135184174Y-80282770D01*
X135118917Y-80217513D01*
X135073102Y-80191061D01*
X135038994Y-80171368D01*
X135038991Y-80171367D01*
X134949852Y-80147482D01*
X134949849Y-80147482D01*
X134857561Y-80147482D01*
X134857558Y-80147482D01*
X134768418Y-80171367D01*
X134768415Y-80171368D01*
X134688499Y-80217509D01*
X134688489Y-80217516D01*
X134623239Y-80282766D01*
X134623232Y-80282776D01*
X134577091Y-80362692D01*
X134577090Y-80362695D01*
X134553205Y-80451835D01*
X134454205Y-80451835D01*
X134433184Y-80373386D01*
X134430319Y-80362694D01*
X134384174Y-80282770D01*
X134318917Y-80217513D01*
X134273102Y-80191061D01*
X134238994Y-80171368D01*
X134238991Y-80171367D01*
X134149852Y-80147482D01*
X134149849Y-80147482D01*
X134057561Y-80147482D01*
X134057558Y-80147482D01*
X133968418Y-80171367D01*
X133968415Y-80171368D01*
X133888499Y-80217509D01*
X133888489Y-80217516D01*
X133823239Y-80282766D01*
X133823232Y-80282776D01*
X133777091Y-80362692D01*
X133777090Y-80362695D01*
X133753205Y-80451835D01*
X133753205Y-80500500D01*
X133738853Y-80535148D01*
X133704205Y-80549500D01*
X133703205Y-80549500D01*
X133668557Y-80535148D01*
X133654205Y-80500500D01*
X133654205Y-80451835D01*
X133633184Y-80373386D01*
X133630319Y-80362694D01*
X133584174Y-80282770D01*
X133518917Y-80217513D01*
X133473102Y-80191061D01*
X133438994Y-80171368D01*
X133438991Y-80171367D01*
X133349852Y-80147482D01*
X133349849Y-80147482D01*
X133257561Y-80147482D01*
X133257558Y-80147482D01*
X133168418Y-80171367D01*
X133168415Y-80171368D01*
X133088499Y-80217509D01*
X133088489Y-80217516D01*
X133023239Y-80282766D01*
X133023232Y-80282776D01*
X132977091Y-80362692D01*
X132977090Y-80362695D01*
X132953205Y-80451835D01*
X132953205Y-80502187D01*
X132938853Y-80536835D01*
X132904205Y-80551187D01*
X132903205Y-80551187D01*
X132868557Y-80536835D01*
X132854205Y-80502187D01*
X132854205Y-80451835D01*
X132833184Y-80373386D01*
X132830319Y-80362694D01*
X132784174Y-80282770D01*
X132718917Y-80217513D01*
X132673102Y-80191061D01*
X132638994Y-80171368D01*
X132638991Y-80171367D01*
X132549852Y-80147482D01*
X132549849Y-80147482D01*
X132457561Y-80147482D01*
X132457558Y-80147482D01*
X132368418Y-80171367D01*
X132368415Y-80171368D01*
X132288499Y-80217509D01*
X132288489Y-80217516D01*
X132223239Y-80282766D01*
X132223232Y-80282776D01*
X132177091Y-80362692D01*
X132177090Y-80362695D01*
X132153205Y-80451835D01*
X132054205Y-80451835D01*
X132033184Y-80373386D01*
X132030319Y-80362694D01*
X131984174Y-80282770D01*
X131918917Y-80217513D01*
X131873102Y-80191061D01*
X131838994Y-80171368D01*
X131838991Y-80171367D01*
X131749852Y-80147482D01*
X131749849Y-80147482D01*
X131657561Y-80147482D01*
X131657558Y-80147482D01*
X131568418Y-80171367D01*
X131568415Y-80171368D01*
X131488499Y-80217509D01*
X131488489Y-80217516D01*
X131423239Y-80282766D01*
X131423232Y-80282776D01*
X131377091Y-80362692D01*
X131377090Y-80362695D01*
X131353205Y-80451835D01*
X127500000Y-80451835D01*
X127500000Y-79353853D01*
X133449500Y-79353853D01*
X133449500Y-79446146D01*
X133473385Y-79535286D01*
X133473386Y-79535289D01*
X133516430Y-79609842D01*
X133519531Y-79615212D01*
X133584788Y-79680469D01*
X133664712Y-79726614D01*
X133686998Y-79732585D01*
X133753853Y-79750500D01*
X133753856Y-79750500D01*
X133846146Y-79750500D01*
X133890716Y-79738557D01*
X133935288Y-79726614D01*
X134015212Y-79680469D01*
X134080469Y-79615212D01*
X134126614Y-79535288D01*
X134143974Y-79470500D01*
X134150500Y-79446146D01*
X134150500Y-79353853D01*
X134150499Y-79353852D01*
X134132942Y-79288326D01*
X134130403Y-79278853D01*
X137949500Y-79278853D01*
X137949500Y-79371146D01*
X137973385Y-79460286D01*
X137973386Y-79460289D01*
X137973508Y-79460500D01*
X138019531Y-79540212D01*
X138084788Y-79605469D01*
X138164712Y-79651614D01*
X138186998Y-79657585D01*
X138253853Y-79675500D01*
X138253856Y-79675500D01*
X138346146Y-79675500D01*
X138390716Y-79663557D01*
X138435288Y-79651614D01*
X138515212Y-79605469D01*
X138580469Y-79540212D01*
X138626614Y-79460288D01*
X138642634Y-79400500D01*
X138650500Y-79371146D01*
X138650500Y-79351835D01*
X139653205Y-79351835D01*
X139653205Y-79444128D01*
X139677090Y-79533268D01*
X139677091Y-79533271D01*
X139709677Y-79589710D01*
X139723236Y-79613194D01*
X139788493Y-79678451D01*
X139868417Y-79724596D01*
X139890703Y-79730567D01*
X139957558Y-79748482D01*
X139957561Y-79748482D01*
X140049851Y-79748482D01*
X140094421Y-79736539D01*
X140138993Y-79724596D01*
X140218917Y-79678451D01*
X140284174Y-79613194D01*
X140330319Y-79533270D01*
X140349874Y-79460289D01*
X140354205Y-79444128D01*
X140354205Y-79351835D01*
X140453205Y-79351835D01*
X140453205Y-79444128D01*
X140477090Y-79533268D01*
X140477091Y-79533271D01*
X140509677Y-79589710D01*
X140523236Y-79613194D01*
X140588493Y-79678451D01*
X140668417Y-79724596D01*
X140690703Y-79730567D01*
X140757558Y-79748482D01*
X140757561Y-79748482D01*
X140849851Y-79748482D01*
X140894421Y-79736539D01*
X140938993Y-79724596D01*
X141018917Y-79678451D01*
X141084174Y-79613194D01*
X141130319Y-79533270D01*
X141149874Y-79460289D01*
X141154205Y-79444128D01*
X141154205Y-79351835D01*
X142053205Y-79351835D01*
X142053205Y-79444128D01*
X142077090Y-79533268D01*
X142077091Y-79533271D01*
X142109677Y-79589710D01*
X142123236Y-79613194D01*
X142188493Y-79678451D01*
X142268417Y-79724596D01*
X142290703Y-79730567D01*
X142357558Y-79748482D01*
X142357561Y-79748482D01*
X142449851Y-79748482D01*
X142494421Y-79736539D01*
X142538993Y-79724596D01*
X142618917Y-79678451D01*
X142684174Y-79613194D01*
X142730319Y-79533270D01*
X142749874Y-79460289D01*
X142754205Y-79444128D01*
X142754205Y-79351835D01*
X142853205Y-79351835D01*
X142853205Y-79444128D01*
X142877090Y-79533268D01*
X142877091Y-79533271D01*
X142909677Y-79589710D01*
X142923236Y-79613194D01*
X142988493Y-79678451D01*
X143068417Y-79724596D01*
X143090703Y-79730567D01*
X143157558Y-79748482D01*
X143157561Y-79748482D01*
X143249851Y-79748482D01*
X143294421Y-79736539D01*
X143338993Y-79724596D01*
X143418221Y-79678853D01*
X144499500Y-79678853D01*
X144499500Y-79771146D01*
X144523385Y-79860286D01*
X144523386Y-79860289D01*
X144529783Y-79871368D01*
X144569531Y-79940212D01*
X144634788Y-80005469D01*
X144714712Y-80051614D01*
X144736998Y-80057585D01*
X144803853Y-80075500D01*
X144803856Y-80075500D01*
X144896146Y-80075500D01*
X144943944Y-80062692D01*
X144985288Y-80051614D01*
X145065212Y-80005469D01*
X145130469Y-79940212D01*
X145176614Y-79860288D01*
X145188557Y-79815716D01*
X145200500Y-79771146D01*
X145200500Y-79678853D01*
X145176614Y-79589713D01*
X145176613Y-79589710D01*
X145148036Y-79540215D01*
X145130469Y-79509788D01*
X145065212Y-79444531D01*
X145051500Y-79436614D01*
X144985289Y-79398386D01*
X144985286Y-79398385D01*
X144896147Y-79374500D01*
X144896144Y-79374500D01*
X144803856Y-79374500D01*
X144803853Y-79374500D01*
X144714713Y-79398385D01*
X144714710Y-79398386D01*
X144634794Y-79444527D01*
X144634784Y-79444534D01*
X144569534Y-79509784D01*
X144569527Y-79509794D01*
X144523386Y-79589710D01*
X144523385Y-79589713D01*
X144499500Y-79678853D01*
X143418221Y-79678853D01*
X143418917Y-79678451D01*
X143484174Y-79613194D01*
X143530319Y-79533270D01*
X143549874Y-79460289D01*
X143554205Y-79444128D01*
X143554205Y-79351835D01*
X143530994Y-79265215D01*
X143530319Y-79262694D01*
X143484174Y-79182770D01*
X143418917Y-79117513D01*
X143394248Y-79103270D01*
X143338994Y-79071368D01*
X143338991Y-79071367D01*
X143249852Y-79047482D01*
X143249849Y-79047482D01*
X143157561Y-79047482D01*
X143157558Y-79047482D01*
X143068418Y-79071367D01*
X143068415Y-79071368D01*
X142988499Y-79117509D01*
X142988489Y-79117516D01*
X142923239Y-79182766D01*
X142923232Y-79182776D01*
X142877091Y-79262692D01*
X142877090Y-79262695D01*
X142853205Y-79351835D01*
X142754205Y-79351835D01*
X142730994Y-79265215D01*
X142730319Y-79262694D01*
X142684174Y-79182770D01*
X142618917Y-79117513D01*
X142594248Y-79103270D01*
X142538994Y-79071368D01*
X142538991Y-79071367D01*
X142449852Y-79047482D01*
X142449849Y-79047482D01*
X142357561Y-79047482D01*
X142357558Y-79047482D01*
X142268418Y-79071367D01*
X142268415Y-79071368D01*
X142188499Y-79117509D01*
X142188489Y-79117516D01*
X142123239Y-79182766D01*
X142123232Y-79182776D01*
X142077091Y-79262692D01*
X142077090Y-79262695D01*
X142053205Y-79351835D01*
X141154205Y-79351835D01*
X141130994Y-79265215D01*
X141130319Y-79262694D01*
X141084174Y-79182770D01*
X141018917Y-79117513D01*
X140994248Y-79103270D01*
X140938994Y-79071368D01*
X140938991Y-79071367D01*
X140849852Y-79047482D01*
X140849849Y-79047482D01*
X140757561Y-79047482D01*
X140757558Y-79047482D01*
X140668418Y-79071367D01*
X140668415Y-79071368D01*
X140588499Y-79117509D01*
X140588489Y-79117516D01*
X140523239Y-79182766D01*
X140523232Y-79182776D01*
X140477091Y-79262692D01*
X140477090Y-79262695D01*
X140453205Y-79351835D01*
X140354205Y-79351835D01*
X140330994Y-79265215D01*
X140330319Y-79262694D01*
X140284174Y-79182770D01*
X140218917Y-79117513D01*
X140194248Y-79103270D01*
X140138994Y-79071368D01*
X140138991Y-79071367D01*
X140049852Y-79047482D01*
X140049849Y-79047482D01*
X139957561Y-79047482D01*
X139957558Y-79047482D01*
X139868418Y-79071367D01*
X139868415Y-79071368D01*
X139788499Y-79117509D01*
X139788489Y-79117516D01*
X139723239Y-79182766D01*
X139723232Y-79182776D01*
X139677091Y-79262692D01*
X139677090Y-79262695D01*
X139653205Y-79351835D01*
X138650500Y-79351835D01*
X138650500Y-79278853D01*
X138626614Y-79189713D01*
X138626613Y-79189710D01*
X138586092Y-79119527D01*
X138580469Y-79109788D01*
X138515212Y-79044531D01*
X138508230Y-79040500D01*
X138435289Y-78998386D01*
X138435286Y-78998385D01*
X138346147Y-78974500D01*
X138346144Y-78974500D01*
X138253856Y-78974500D01*
X138253853Y-78974500D01*
X138164713Y-78998385D01*
X138164710Y-78998386D01*
X138084794Y-79044527D01*
X138084784Y-79044534D01*
X138019534Y-79109784D01*
X138019527Y-79109794D01*
X137973386Y-79189710D01*
X137973385Y-79189713D01*
X137949500Y-79278853D01*
X134130403Y-79278853D01*
X134129930Y-79277090D01*
X134126614Y-79264712D01*
X134125449Y-79262695D01*
X134115077Y-79244731D01*
X134080469Y-79184788D01*
X134015212Y-79119531D01*
X133987048Y-79103270D01*
X133935289Y-79073386D01*
X133935286Y-79073385D01*
X133846147Y-79049500D01*
X133846144Y-79049500D01*
X133753856Y-79049500D01*
X133753853Y-79049500D01*
X133664713Y-79073385D01*
X133664710Y-79073386D01*
X133584794Y-79119527D01*
X133584784Y-79119534D01*
X133519534Y-79184784D01*
X133519527Y-79184794D01*
X133473386Y-79264710D01*
X133473385Y-79264713D01*
X133449500Y-79353853D01*
X127500000Y-79353853D01*
X127500000Y-78421835D01*
X130240705Y-78421835D01*
X130240705Y-78514128D01*
X130264590Y-78603268D01*
X130264591Y-78603271D01*
X130299233Y-78663270D01*
X130310736Y-78683194D01*
X130375993Y-78748451D01*
X130455917Y-78794596D01*
X130478203Y-78800567D01*
X130545058Y-78818482D01*
X130545061Y-78818482D01*
X130637351Y-78818482D01*
X130681921Y-78806539D01*
X130726493Y-78794596D01*
X130806417Y-78748451D01*
X130871674Y-78683194D01*
X130917819Y-78603270D01*
X130936035Y-78535288D01*
X130941705Y-78514128D01*
X130941705Y-78481835D01*
X133238205Y-78481835D01*
X133238205Y-78574128D01*
X133262090Y-78663268D01*
X133262091Y-78663271D01*
X133296800Y-78723386D01*
X133308236Y-78743194D01*
X133373493Y-78808451D01*
X133453417Y-78854596D01*
X133475703Y-78860567D01*
X133542558Y-78878482D01*
X133542561Y-78878482D01*
X133634851Y-78878482D01*
X133679421Y-78866539D01*
X133723993Y-78854596D01*
X133803917Y-78808451D01*
X133869174Y-78743194D01*
X133915319Y-78663270D01*
X133920522Y-78643853D01*
X143589500Y-78643853D01*
X143589500Y-78736146D01*
X143613385Y-78825286D01*
X143613386Y-78825289D01*
X143630307Y-78854596D01*
X143659531Y-78905212D01*
X143724788Y-78970469D01*
X143804712Y-79016614D01*
X143826998Y-79022585D01*
X143893853Y-79040500D01*
X143893856Y-79040500D01*
X143986146Y-79040500D01*
X144037967Y-79026614D01*
X144075288Y-79016614D01*
X144155212Y-78970469D01*
X144220469Y-78905212D01*
X144266614Y-78825288D01*
X144286045Y-78752770D01*
X144290500Y-78736146D01*
X144290500Y-78643853D01*
X144266614Y-78554713D01*
X144266613Y-78554710D01*
X144243181Y-78514126D01*
X144220469Y-78474788D01*
X144155212Y-78409531D01*
X144126047Y-78392692D01*
X144075289Y-78363386D01*
X144075286Y-78363385D01*
X143986147Y-78339500D01*
X143986144Y-78339500D01*
X143893856Y-78339500D01*
X143893853Y-78339500D01*
X143804713Y-78363385D01*
X143804710Y-78363386D01*
X143724794Y-78409527D01*
X143724784Y-78409534D01*
X143659534Y-78474784D01*
X143659527Y-78474794D01*
X143613386Y-78554710D01*
X143613385Y-78554713D01*
X143589500Y-78643853D01*
X133920522Y-78643853D01*
X133931396Y-78603270D01*
X133939205Y-78574127D01*
X133939205Y-78481835D01*
X133915319Y-78392695D01*
X133915318Y-78392692D01*
X133869177Y-78312776D01*
X133869174Y-78312770D01*
X133803917Y-78247513D01*
X133798547Y-78244412D01*
X133723994Y-78201368D01*
X133723991Y-78201367D01*
X133634852Y-78177482D01*
X133634849Y-78177482D01*
X133542561Y-78177482D01*
X133542558Y-78177482D01*
X133453418Y-78201367D01*
X133453415Y-78201368D01*
X133373499Y-78247509D01*
X133373489Y-78247516D01*
X133308239Y-78312766D01*
X133308232Y-78312776D01*
X133262091Y-78392692D01*
X133262090Y-78392695D01*
X133238205Y-78481835D01*
X130941705Y-78481835D01*
X130941705Y-78421835D01*
X130922322Y-78349500D01*
X130917819Y-78332694D01*
X130871674Y-78252770D01*
X130806417Y-78187513D01*
X130789043Y-78177482D01*
X130726494Y-78141368D01*
X130726491Y-78141367D01*
X130637352Y-78117482D01*
X130637349Y-78117482D01*
X130545061Y-78117482D01*
X130545058Y-78117482D01*
X130455918Y-78141367D01*
X130455915Y-78141368D01*
X130375999Y-78187509D01*
X130375989Y-78187516D01*
X130310739Y-78252766D01*
X130310732Y-78252776D01*
X130264591Y-78332692D01*
X130264590Y-78332695D01*
X130240705Y-78421835D01*
X127500000Y-78421835D01*
X127500000Y-77361835D01*
X133243205Y-77361835D01*
X133243205Y-77454128D01*
X133267090Y-77543268D01*
X133267091Y-77543271D01*
X133279437Y-77564654D01*
X133313236Y-77623194D01*
X133378493Y-77688451D01*
X133458417Y-77734596D01*
X133480703Y-77740567D01*
X133547558Y-77758482D01*
X133547561Y-77758482D01*
X133639851Y-77758482D01*
X133684421Y-77746539D01*
X133728993Y-77734596D01*
X133808917Y-77688451D01*
X133874174Y-77623194D01*
X133920319Y-77543270D01*
X133933379Y-77494531D01*
X133944205Y-77454128D01*
X133944205Y-77361835D01*
X133920319Y-77272695D01*
X133920318Y-77272692D01*
X133874177Y-77192776D01*
X133874174Y-77192770D01*
X133808917Y-77127513D01*
X133774767Y-77107796D01*
X133728994Y-77081368D01*
X133728991Y-77081367D01*
X133639852Y-77057482D01*
X133639849Y-77057482D01*
X133547561Y-77057482D01*
X133547558Y-77057482D01*
X133458418Y-77081367D01*
X133458415Y-77081368D01*
X133378499Y-77127509D01*
X133378489Y-77127516D01*
X133313239Y-77192766D01*
X133313232Y-77192776D01*
X133267091Y-77272692D01*
X133267090Y-77272695D01*
X133243205Y-77361835D01*
X127500000Y-77361835D01*
X127500000Y-76953853D01*
X130569500Y-76953853D01*
X130569500Y-77046146D01*
X130593385Y-77135286D01*
X130593386Y-77135289D01*
X130626574Y-77192770D01*
X130639531Y-77215212D01*
X130704788Y-77280469D01*
X130784712Y-77326614D01*
X130806998Y-77332585D01*
X130873853Y-77350500D01*
X130873856Y-77350500D01*
X130966146Y-77350500D01*
X131010716Y-77338557D01*
X131055288Y-77326614D01*
X131135212Y-77280469D01*
X131200469Y-77215212D01*
X131246614Y-77135288D01*
X131267462Y-77057482D01*
X131270500Y-77046146D01*
X131270500Y-76953853D01*
X131246614Y-76864713D01*
X131246613Y-76864710D01*
X131218036Y-76815215D01*
X131200469Y-76784788D01*
X131135212Y-76719531D01*
X131128545Y-76715682D01*
X131055289Y-76673386D01*
X131055286Y-76673385D01*
X130966147Y-76649500D01*
X130966144Y-76649500D01*
X130873856Y-76649500D01*
X130873853Y-76649500D01*
X130784713Y-76673385D01*
X130784710Y-76673386D01*
X130704794Y-76719527D01*
X130704784Y-76719534D01*
X130639534Y-76784784D01*
X130639527Y-76784794D01*
X130593386Y-76864710D01*
X130593385Y-76864713D01*
X130569500Y-76953853D01*
X127500000Y-76953853D01*
X127500000Y-76353853D01*
X131449500Y-76353853D01*
X131449500Y-76446146D01*
X131473385Y-76535286D01*
X131473386Y-76535289D01*
X131516430Y-76609842D01*
X131519531Y-76615212D01*
X131584788Y-76680469D01*
X131664712Y-76726614D01*
X131686998Y-76732585D01*
X131753853Y-76750500D01*
X131753856Y-76750500D01*
X131846146Y-76750500D01*
X131902916Y-76735288D01*
X131935288Y-76726614D01*
X132015212Y-76680469D01*
X132080469Y-76615212D01*
X132115895Y-76553853D01*
X133749500Y-76553853D01*
X133749500Y-76646146D01*
X133773385Y-76735286D01*
X133773386Y-76735289D01*
X133801963Y-76784784D01*
X133819531Y-76815212D01*
X133884788Y-76880469D01*
X133964712Y-76926614D01*
X133986998Y-76932585D01*
X134053853Y-76950500D01*
X134053856Y-76950500D01*
X134146146Y-76950500D01*
X134190716Y-76938557D01*
X134235288Y-76926614D01*
X134315212Y-76880469D01*
X134380469Y-76815212D01*
X134426614Y-76735288D01*
X134443201Y-76673385D01*
X134450500Y-76646146D01*
X134450500Y-76553853D01*
X134426614Y-76464713D01*
X134426613Y-76464710D01*
X134395791Y-76411326D01*
X134380469Y-76384788D01*
X134315212Y-76319531D01*
X134281384Y-76300000D01*
X134235289Y-76273386D01*
X134235286Y-76273385D01*
X134146147Y-76249500D01*
X134146144Y-76249500D01*
X134053856Y-76249500D01*
X134053853Y-76249500D01*
X133964713Y-76273385D01*
X133964710Y-76273386D01*
X133884794Y-76319527D01*
X133884784Y-76319534D01*
X133819534Y-76384784D01*
X133819527Y-76384794D01*
X133773386Y-76464710D01*
X133773385Y-76464713D01*
X133749500Y-76553853D01*
X132115895Y-76553853D01*
X132126614Y-76535288D01*
X132150499Y-76446147D01*
X132150500Y-76446147D01*
X132150500Y-76353853D01*
X132126614Y-76264713D01*
X132126613Y-76264710D01*
X132105324Y-76227837D01*
X132080469Y-76184788D01*
X132015212Y-76119531D01*
X132009842Y-76116430D01*
X131935289Y-76073386D01*
X131935286Y-76073385D01*
X131846147Y-76049500D01*
X131846144Y-76049500D01*
X131753856Y-76049500D01*
X131753853Y-76049500D01*
X131664713Y-76073385D01*
X131664710Y-76073386D01*
X131584794Y-76119527D01*
X131584784Y-76119534D01*
X131519534Y-76184784D01*
X131519527Y-76184794D01*
X131473386Y-76264710D01*
X131473385Y-76264713D01*
X131449500Y-76353853D01*
X127500000Y-76353853D01*
X127500000Y-75301835D01*
X128303205Y-75301835D01*
X128303205Y-75394128D01*
X128327090Y-75483268D01*
X128327091Y-75483271D01*
X128351844Y-75526143D01*
X128373236Y-75563194D01*
X128438493Y-75628451D01*
X128518417Y-75674596D01*
X128540703Y-75680567D01*
X128607558Y-75698482D01*
X128607561Y-75698482D01*
X128699851Y-75698482D01*
X128756621Y-75683270D01*
X128788993Y-75674596D01*
X128868917Y-75628451D01*
X128934174Y-75563194D01*
X128980319Y-75483270D01*
X128999230Y-75412694D01*
X129004205Y-75394128D01*
X129004205Y-75301835D01*
X129903205Y-75301835D01*
X129903205Y-75394128D01*
X129927090Y-75483268D01*
X129927091Y-75483271D01*
X129951844Y-75526143D01*
X129973236Y-75563194D01*
X130038493Y-75628451D01*
X130118417Y-75674596D01*
X130140703Y-75680567D01*
X130207558Y-75698482D01*
X130207561Y-75698482D01*
X130299851Y-75698482D01*
X130356621Y-75683270D01*
X130388993Y-75674596D01*
X130468917Y-75628451D01*
X130534174Y-75563194D01*
X130539567Y-75553853D01*
X131449500Y-75553853D01*
X131449500Y-75646146D01*
X131473385Y-75735286D01*
X131473386Y-75735289D01*
X131513873Y-75805412D01*
X131519531Y-75815212D01*
X131584788Y-75880469D01*
X131664712Y-75926614D01*
X131686998Y-75932585D01*
X131753853Y-75950500D01*
X131753856Y-75950500D01*
X131846146Y-75950500D01*
X131890716Y-75938557D01*
X131935288Y-75926614D01*
X132015212Y-75880469D01*
X132080469Y-75815212D01*
X132126614Y-75735288D01*
X132140552Y-75683270D01*
X132150500Y-75646146D01*
X132150500Y-75553853D01*
X132126614Y-75464713D01*
X132126613Y-75464710D01*
X132087700Y-75397313D01*
X132080469Y-75384788D01*
X132015212Y-75319531D01*
X132009842Y-75316430D01*
X131935289Y-75273386D01*
X131935286Y-75273385D01*
X131846147Y-75249500D01*
X131846144Y-75249500D01*
X131753856Y-75249500D01*
X131753853Y-75249500D01*
X131664713Y-75273385D01*
X131664710Y-75273386D01*
X131584794Y-75319527D01*
X131584784Y-75319534D01*
X131519534Y-75384784D01*
X131519527Y-75384794D01*
X131473386Y-75464710D01*
X131473385Y-75464713D01*
X131449500Y-75553853D01*
X130539567Y-75553853D01*
X130555566Y-75526143D01*
X130555567Y-75526142D01*
X130580318Y-75483272D01*
X130580318Y-75483271D01*
X130580319Y-75483270D01*
X130599230Y-75412694D01*
X130604205Y-75394128D01*
X130604205Y-75301835D01*
X130580319Y-75212695D01*
X130580318Y-75212692D01*
X130553837Y-75166827D01*
X130534174Y-75132770D01*
X130468917Y-75067513D01*
X130448218Y-75055562D01*
X130388994Y-75021368D01*
X130388991Y-75021367D01*
X130299852Y-74997482D01*
X130299849Y-74997482D01*
X130207561Y-74997482D01*
X130207558Y-74997482D01*
X130118418Y-75021367D01*
X130118415Y-75021368D01*
X130038499Y-75067509D01*
X130038489Y-75067516D01*
X129973239Y-75132766D01*
X129973232Y-75132776D01*
X129927091Y-75212692D01*
X129927090Y-75212695D01*
X129903205Y-75301835D01*
X129004205Y-75301835D01*
X128980319Y-75212695D01*
X128980318Y-75212692D01*
X128953837Y-75166827D01*
X128934174Y-75132770D01*
X128868917Y-75067513D01*
X128848218Y-75055562D01*
X128788994Y-75021368D01*
X128788991Y-75021367D01*
X128699852Y-74997482D01*
X128699849Y-74997482D01*
X128607561Y-74997482D01*
X128607558Y-74997482D01*
X128518418Y-75021367D01*
X128518415Y-75021368D01*
X128438499Y-75067509D01*
X128438489Y-75067516D01*
X128373239Y-75132766D01*
X128373232Y-75132776D01*
X128327091Y-75212692D01*
X128327090Y-75212695D01*
X128303205Y-75301835D01*
X127500000Y-75301835D01*
X127500000Y-75100000D01*
X126956213Y-74501835D01*
X128303205Y-74501835D01*
X128303205Y-74594128D01*
X128327090Y-74683268D01*
X128327091Y-74683271D01*
X128350252Y-74723386D01*
X128373236Y-74763194D01*
X128438493Y-74828451D01*
X128518417Y-74874596D01*
X128540703Y-74880567D01*
X128607558Y-74898482D01*
X128607561Y-74898482D01*
X128699851Y-74898482D01*
X128744421Y-74886539D01*
X128788993Y-74874596D01*
X128868917Y-74828451D01*
X128934174Y-74763194D01*
X128980319Y-74683270D01*
X129003193Y-74597904D01*
X129004205Y-74594128D01*
X129004205Y-74501835D01*
X129903205Y-74501835D01*
X129903205Y-74594128D01*
X129927090Y-74683268D01*
X129927091Y-74683271D01*
X129950252Y-74723386D01*
X129973236Y-74763194D01*
X130038493Y-74828451D01*
X130118417Y-74874596D01*
X130140703Y-74880567D01*
X130207558Y-74898482D01*
X130207561Y-74898482D01*
X130299851Y-74898482D01*
X130344421Y-74886539D01*
X130388993Y-74874596D01*
X130468917Y-74828451D01*
X130534174Y-74763194D01*
X130580319Y-74683270D01*
X130603193Y-74597904D01*
X130604205Y-74594128D01*
X130604205Y-74501835D01*
X130580319Y-74412695D01*
X130580318Y-74412692D01*
X130552905Y-74365212D01*
X130534174Y-74332770D01*
X130468917Y-74267513D01*
X130412237Y-74234788D01*
X130388994Y-74221368D01*
X130388991Y-74221367D01*
X130299852Y-74197482D01*
X130299849Y-74197482D01*
X130207561Y-74197482D01*
X130207558Y-74197482D01*
X130118418Y-74221367D01*
X130118415Y-74221368D01*
X130038499Y-74267509D01*
X130038489Y-74267516D01*
X129973239Y-74332766D01*
X129973232Y-74332776D01*
X129927091Y-74412692D01*
X129927090Y-74412695D01*
X129903205Y-74501835D01*
X129004205Y-74501835D01*
X128980319Y-74412695D01*
X128980318Y-74412692D01*
X128952905Y-74365212D01*
X128934174Y-74332770D01*
X128868917Y-74267513D01*
X128812237Y-74234788D01*
X128788994Y-74221368D01*
X128788991Y-74221367D01*
X128699852Y-74197482D01*
X128699849Y-74197482D01*
X128607561Y-74197482D01*
X128607558Y-74197482D01*
X128518418Y-74221367D01*
X128518415Y-74221368D01*
X128438499Y-74267509D01*
X128438489Y-74267516D01*
X128373239Y-74332766D01*
X128373232Y-74332776D01*
X128327091Y-74412692D01*
X128327090Y-74412695D01*
X128303205Y-74501835D01*
X126956213Y-74501835D01*
X126933285Y-74476614D01*
X126679529Y-74197482D01*
X126594412Y-74103853D01*
X131499500Y-74103853D01*
X131499500Y-74196146D01*
X131523385Y-74285286D01*
X131523386Y-74285289D01*
X131533242Y-74302359D01*
X131569531Y-74365212D01*
X131634788Y-74430469D01*
X131714712Y-74476614D01*
X131736998Y-74482585D01*
X131803853Y-74500500D01*
X131803856Y-74500500D01*
X131896146Y-74500500D01*
X131940716Y-74488557D01*
X131985288Y-74476614D01*
X132065212Y-74430469D01*
X132130469Y-74365212D01*
X132176614Y-74285288D01*
X132193742Y-74221367D01*
X132200500Y-74196146D01*
X132200500Y-74103853D01*
X132176614Y-74014713D01*
X132176613Y-74014710D01*
X132157407Y-73981445D01*
X132130469Y-73934788D01*
X132109525Y-73913844D01*
X132095173Y-73879196D01*
X132109525Y-73844548D01*
X132119670Y-73836762D01*
X132165212Y-73810469D01*
X132230469Y-73745212D01*
X132276614Y-73665288D01*
X132294771Y-73597526D01*
X132300500Y-73576146D01*
X132300500Y-73483853D01*
X132278894Y-73403220D01*
X132276614Y-73394712D01*
X132230469Y-73314788D01*
X132165212Y-73249531D01*
X132140543Y-73235288D01*
X132085289Y-73203386D01*
X132085286Y-73203385D01*
X131996147Y-73179500D01*
X131996144Y-73179500D01*
X131903856Y-73179500D01*
X131903853Y-73179500D01*
X131814713Y-73203385D01*
X131814710Y-73203386D01*
X131734794Y-73249527D01*
X131734784Y-73249534D01*
X131669534Y-73314784D01*
X131669527Y-73314794D01*
X131623386Y-73394710D01*
X131623385Y-73394713D01*
X131599500Y-73483853D01*
X131599500Y-73576146D01*
X131623385Y-73665286D01*
X131623386Y-73665289D01*
X131652210Y-73715212D01*
X131669531Y-73745212D01*
X131669534Y-73745215D01*
X131690474Y-73766155D01*
X131704826Y-73800803D01*
X131690474Y-73835451D01*
X131680327Y-73843238D01*
X131634791Y-73869529D01*
X131634784Y-73869534D01*
X131569534Y-73934784D01*
X131569527Y-73934794D01*
X131523386Y-74014710D01*
X131523385Y-74014713D01*
X131499500Y-74103853D01*
X126594412Y-74103853D01*
X125500000Y-72900000D01*
X125499999Y-72900000D01*
X120499999Y-72900000D01*
X118255328Y-75212692D01*
X117225832Y-76273386D01*
X117214436Y-76285127D01*
X117180006Y-76299995D01*
X117179275Y-76300000D01*
X112039376Y-76300000D01*
X112005863Y-76286747D01*
X111991611Y-76273386D01*
X111715487Y-76014519D01*
X111700025Y-75980352D01*
X111700000Y-75978772D01*
X111700000Y-75475628D01*
X111714352Y-75440980D01*
X111721051Y-75435381D01*
X111780456Y-75394128D01*
X111988720Y-75249500D01*
X112047396Y-75208753D01*
X112075345Y-75200000D01*
X116399998Y-75200000D01*
X116400000Y-75200000D01*
X120390000Y-70960000D01*
X120390000Y-70870000D01*
X120320000Y-70810000D01*
X120319999Y-70810000D01*
X115693000Y-70810000D01*
X115658352Y-70795648D01*
X115655305Y-70792306D01*
X115271356Y-70330000D01*
X115191119Y-70233388D01*
X115179818Y-70202595D01*
X115170254Y-69284442D01*
X115184244Y-69249649D01*
X115189376Y-69245095D01*
X115286792Y-69170161D01*
X115316667Y-69160000D01*
X115473667Y-69160000D01*
X115503067Y-69169800D01*
G37*
%TD.AperFunction*%
%TD*%
%TA.AperFunction,Conductor*%
%TO.N,+5V*%
G36*
X122544089Y-75113045D02*
G01*
X122784291Y-75335455D01*
X122799964Y-75369525D01*
X122800000Y-75371408D01*
X122800000Y-76243682D01*
X122785648Y-76278330D01*
X122770848Y-76288482D01*
X120345904Y-77362826D01*
X120348927Y-80435046D01*
X120334609Y-80469708D01*
X120319534Y-80484783D01*
X120319531Y-80484787D01*
X120319531Y-80484788D01*
X120309785Y-80501668D01*
X120273385Y-80564713D01*
X120249500Y-80653853D01*
X120249500Y-80746146D01*
X120273385Y-80835286D01*
X120273386Y-80835289D01*
X120284185Y-80853992D01*
X120319531Y-80915212D01*
X120319534Y-80915215D01*
X120335096Y-80930777D01*
X120349448Y-80965377D01*
X120352111Y-83670500D01*
X120337793Y-83705162D01*
X120334955Y-83707790D01*
X118658074Y-85141644D01*
X118641376Y-85151002D01*
X118626453Y-85155852D01*
X118626448Y-85155853D01*
X118626445Y-85155855D01*
X118626441Y-85155856D01*
X118626436Y-85155859D01*
X118426522Y-85257721D01*
X118244994Y-85389608D01*
X118086337Y-85548265D01*
X117954450Y-85729792D01*
X117954443Y-85729804D01*
X117946675Y-85745049D01*
X117934861Y-85760044D01*
X115900000Y-87499999D01*
X115900000Y-90351000D01*
X115885648Y-90385648D01*
X115851000Y-90400000D01*
X113749000Y-90400000D01*
X113714352Y-90385648D01*
X113700000Y-90351000D01*
X113700000Y-87433853D01*
X114379500Y-87433853D01*
X114379500Y-87526146D01*
X114403385Y-87615286D01*
X114403386Y-87615289D01*
X114414933Y-87635288D01*
X114449531Y-87695212D01*
X114514788Y-87760469D01*
X114594712Y-87806614D01*
X114616998Y-87812585D01*
X114683853Y-87830500D01*
X114683856Y-87830500D01*
X114776146Y-87830500D01*
X114820716Y-87818557D01*
X114865288Y-87806614D01*
X114945212Y-87760469D01*
X115010469Y-87695212D01*
X115056614Y-87615288D01*
X115075141Y-87546144D01*
X115080500Y-87526146D01*
X115080500Y-87433853D01*
X115056614Y-87344713D01*
X115056613Y-87344710D01*
X115010472Y-87264794D01*
X115010469Y-87264788D01*
X114945212Y-87199531D01*
X114939842Y-87196430D01*
X114865289Y-87153386D01*
X114865286Y-87153385D01*
X114776147Y-87129500D01*
X114776144Y-87129500D01*
X114683856Y-87129500D01*
X114683853Y-87129500D01*
X114594713Y-87153385D01*
X114594710Y-87153386D01*
X114514794Y-87199527D01*
X114514784Y-87199534D01*
X114449534Y-87264784D01*
X114449527Y-87264794D01*
X114403386Y-87344710D01*
X114403385Y-87344713D01*
X114379500Y-87433853D01*
X113700000Y-87433853D01*
X113700000Y-86852846D01*
X113714352Y-86818198D01*
X113716520Y-86816157D01*
X118460000Y-82620003D01*
X118460000Y-82455664D01*
X118472981Y-82424323D01*
X118472220Y-82423739D01*
X118474163Y-82421204D01*
X118474174Y-82421194D01*
X118520319Y-82341270D01*
X118532262Y-82296698D01*
X118544205Y-82252128D01*
X118544205Y-82159835D01*
X118520319Y-82070695D01*
X118520318Y-82070692D01*
X118474177Y-81990776D01*
X118474174Y-81990770D01*
X118474167Y-81990763D01*
X118472220Y-81988225D01*
X118472981Y-81987640D01*
X118460000Y-81956300D01*
X118460000Y-81755664D01*
X118472981Y-81724323D01*
X118472220Y-81723739D01*
X118474163Y-81721204D01*
X118474174Y-81721194D01*
X118520319Y-81641270D01*
X118534182Y-81589531D01*
X118544205Y-81552128D01*
X118544205Y-81459835D01*
X118520319Y-81370695D01*
X118520318Y-81370692D01*
X118474177Y-81290776D01*
X118474174Y-81290770D01*
X118474167Y-81290763D01*
X118472220Y-81288225D01*
X118472981Y-81287640D01*
X118460000Y-81256300D01*
X118460000Y-81055664D01*
X118472981Y-81024323D01*
X118472220Y-81023739D01*
X118474163Y-81021204D01*
X118474174Y-81021194D01*
X118520319Y-80941270D01*
X118532262Y-80896698D01*
X118544205Y-80852128D01*
X118544205Y-80759835D01*
X118520319Y-80670695D01*
X118520318Y-80670692D01*
X118474177Y-80590776D01*
X118474174Y-80590770D01*
X118474167Y-80590763D01*
X118472220Y-80588225D01*
X118472981Y-80587640D01*
X118460000Y-80556300D01*
X118460000Y-76791934D01*
X118471075Y-76760906D01*
X119815295Y-75117970D01*
X119848343Y-75100243D01*
X119853219Y-75100000D01*
X122510799Y-75100000D01*
X122544089Y-75113045D01*
G37*
%TD.AperFunction*%
%TD*%
M02*
