%TF.GenerationSoftware,KiCad,Pcbnew,9.0.6-rc1*%
%TF.CreationDate,2025-10-31T17:35:14+01:00*%
%TF.ProjectId,PCB_BRUSHED,5043425f-4252-4555-9348-45442e6b6963,rev?*%
%TF.SameCoordinates,Original*%
%TF.FileFunction,Paste,Bot*%
%TF.FilePolarity,Positive*%
%FSLAX46Y46*%
G04 Gerber Fmt 4.6, Leading zero omitted, Abs format (unit mm)*
G04 Created by KiCad (PCBNEW 9.0.6-rc1) date 2025-10-31 17:35:14*
%MOMM*%
%LPD*%
G01*
G04 APERTURE LIST*
G04 Aperture macros list*
%AMRoundRect*
0 Rectangle with rounded corners*
0 $1 Rounding radius*
0 $2 $3 $4 $5 $6 $7 $8 $9 X,Y pos of 4 corners*
0 Add a 4 corners polygon primitive as box body*
4,1,4,$2,$3,$4,$5,$6,$7,$8,$9,$2,$3,0*
0 Add four circle primitives for the rounded corners*
1,1,$1+$1,$2,$3*
1,1,$1+$1,$4,$5*
1,1,$1+$1,$6,$7*
1,1,$1+$1,$8,$9*
0 Add four rect primitives between the rounded corners*
20,1,$1+$1,$2,$3,$4,$5,0*
20,1,$1+$1,$4,$5,$6,$7,0*
20,1,$1+$1,$6,$7,$8,$9,0*
20,1,$1+$1,$8,$9,$2,$3,0*%
%AMRotRect*
0 Rectangle, with rotation*
0 The origin of the aperture is its center*
0 $1 length*
0 $2 width*
0 $3 Rotation angle, in degrees counterclockwise*
0 Add horizontal line*
21,1,$1,$2,0,0,$3*%
G04 Aperture macros list end*
%ADD10RoundRect,0.225000X-0.225000X-0.250000X0.225000X-0.250000X0.225000X0.250000X-0.225000X0.250000X0*%
%ADD11RoundRect,0.090000X-0.008442X0.165378X-0.147442X-0.075378X0.008442X-0.165378X0.147442X0.075378X0*%
%ADD12RoundRect,0.090000X-0.165378X-0.008442X0.075378X-0.147442X0.165378X0.008442X-0.075378X0.147442X0*%
%ADD13RoundRect,0.090000X0.147442X-0.075378X0.008442X0.165378X-0.147442X0.075378X-0.008442X-0.165378X0*%
%ADD14RoundRect,0.090000X0.008442X-0.165378X0.147442X0.075378X-0.008442X0.165378X-0.147442X-0.075378X0*%
%ADD15RoundRect,0.155000X0.240484X-0.106530X0.027984X0.261530X-0.240484X0.106530X-0.027984X-0.261530X0*%
%ADD16RoundRect,0.155000X-0.261530X-0.027984X0.106530X-0.240484X0.261530X0.027984X-0.106530X0.240484X0*%
%ADD17RotRect,1.000000X3.500000X60.000000*%
%ADD18RotRect,1.600000X3.500000X60.000000*%
%ADD19RoundRect,0.155000X-0.027984X0.261530X-0.240484X-0.106530X0.027984X-0.261530X0.240484X0.106530X0*%
%ADD20R,1.525000X0.650000*%
%ADD21R,2.400000X3.100000*%
%ADD22R,1.000000X3.500000*%
%ADD23R,1.600000X3.500000*%
%ADD24RoundRect,0.090000X0.139000X0.090000X-0.139000X0.090000X-0.139000X-0.090000X0.139000X-0.090000X0*%
%ADD25RotRect,1.000000X3.500000X300.000000*%
%ADD26RotRect,1.600000X3.500000X300.000000*%
%ADD27R,0.410000X0.510000*%
%ADD28R,2.000000X1.200000*%
%ADD29RotRect,0.650000X1.525000X30.000000*%
%ADD30RotRect,2.400000X3.100000X120.000000*%
%ADD31RoundRect,0.090000X0.165378X0.008442X-0.075378X0.147442X-0.165378X-0.008442X0.075378X-0.147442X0*%
%ADD32RotRect,0.600000X1.700000X300.000000*%
%ADD33RotRect,1.000000X2.700000X300.000000*%
%ADD34RoundRect,0.090000X-0.139000X-0.090000X0.139000X-0.090000X0.139000X0.090000X-0.139000X0.090000X0*%
%ADD35RoundRect,0.090000X-0.090000X0.139000X-0.090000X-0.139000X0.090000X-0.139000X0.090000X0.139000X0*%
%ADD36RoundRect,0.225000X0.225000X0.250000X-0.225000X0.250000X-0.225000X-0.250000X0.225000X-0.250000X0*%
%ADD37RoundRect,0.090000X0.090000X-0.139000X0.090000X0.139000X-0.090000X0.139000X-0.090000X-0.139000X0*%
%ADD38RoundRect,0.155000X-0.212500X-0.155000X0.212500X-0.155000X0.212500X0.155000X-0.212500X0.155000X0*%
%ADD39RotRect,0.650000X1.525000X150.000000*%
%ADD40RotRect,2.400000X3.100000X240.000000*%
G04 APERTURE END LIST*
D10*
%TO.C,C5*%
X133500000Y-109850000D03*
X135050000Y-109850000D03*
%TD*%
D11*
%TO.C,R25*%
X125741250Y-89925444D03*
X125308750Y-90674556D03*
%TD*%
D12*
%TO.C,C18*%
X133575444Y-95333750D03*
X134324556Y-95766250D03*
%TD*%
D13*
%TO.C,R14*%
X137270000Y-95177461D03*
X136837500Y-94428349D03*
%TD*%
D14*
%TO.C,C7*%
X128355000Y-99452461D03*
X128787500Y-98703349D03*
%TD*%
%TO.C,C21*%
X129500000Y-92475000D03*
X129932500Y-91725888D03*
%TD*%
D15*
%TO.C,C28*%
X135783750Y-92691469D03*
X135216250Y-91708531D03*
%TD*%
D10*
%TO.C,C2*%
X127550000Y-109850000D03*
X129100000Y-109850000D03*
%TD*%
D16*
%TO.C,C26*%
X132858531Y-95891250D03*
X133841469Y-96458750D03*
%TD*%
D17*
%TO.C,J4*%
X144538500Y-98619873D03*
X143538500Y-100351924D03*
X142538500Y-102083975D03*
X141538500Y-103816025D03*
X140538500Y-105548076D03*
X139538500Y-107280127D03*
D18*
X143274845Y-112208588D03*
X150674845Y-99391412D03*
%TD*%
D19*
%TO.C,C35*%
X124292048Y-92705000D03*
X123724548Y-93687938D03*
%TD*%
D20*
%TO.C,IC3*%
X127288000Y-107925000D03*
X127288000Y-106655000D03*
X127288000Y-105385000D03*
X127288000Y-104115000D03*
X132712000Y-104115000D03*
X132712000Y-105385000D03*
X132712000Y-106655000D03*
X132712000Y-107925000D03*
D21*
X130000000Y-106020000D03*
%TD*%
D22*
%TO.C,J2*%
X125000000Y-82100000D03*
X127000000Y-82100000D03*
X129000000Y-82100000D03*
X131000000Y-82100000D03*
X133000000Y-82100000D03*
X135000000Y-82100000D03*
D23*
X137400000Y-76400000D03*
X122600000Y-76400000D03*
%TD*%
D24*
%TO.C,R1*%
X130475000Y-95250000D03*
X129610000Y-95250000D03*
%TD*%
D11*
%TO.C,C11*%
X126816250Y-97600444D03*
X126383750Y-98349556D03*
%TD*%
D25*
%TO.C,J10*%
X120461500Y-107280127D03*
X119461500Y-105548076D03*
X118461500Y-103816025D03*
X117461500Y-102083975D03*
X116461500Y-100351924D03*
X115461500Y-98619873D03*
D26*
X109325155Y-99391412D03*
X116725155Y-112208588D03*
%TD*%
D27*
%TO.C,IC1*%
X129000000Y-111800000D03*
X129650000Y-111800000D03*
X130300000Y-111800000D03*
X130950000Y-111800000D03*
X130950000Y-113900000D03*
X130300000Y-113900000D03*
X129650000Y-113900000D03*
X129000000Y-113900000D03*
D28*
X129975000Y-112850000D03*
%TD*%
D29*
%TO.C,IC2*%
X141684198Y-92386161D03*
X140584346Y-93021161D03*
X139484494Y-93656161D03*
X138384642Y-94291161D03*
X135672642Y-89593839D03*
X136772494Y-88958839D03*
X137872346Y-88323839D03*
X138972198Y-87688839D03*
D30*
X138678420Y-90990000D03*
%TD*%
D19*
%TO.C,C16*%
X130608750Y-92233531D03*
X130041250Y-93216469D03*
%TD*%
D24*
%TO.C,R4*%
X131790000Y-114950000D03*
X130925000Y-114950000D03*
%TD*%
D12*
%TO.C,C25*%
X132778349Y-96787500D03*
X133527461Y-97220000D03*
%TD*%
D19*
%TO.C,C10*%
X127708750Y-97733531D03*
X127141250Y-98716469D03*
%TD*%
D31*
%TO.C,C23*%
X126196651Y-96987500D03*
X125447539Y-96555000D03*
%TD*%
D32*
%TO.C,J6*%
X140900000Y-86104937D03*
X141525000Y-87187468D03*
X142150000Y-88270000D03*
X142775000Y-89352532D03*
X143400000Y-90435064D03*
X144025000Y-91517595D03*
D33*
X142746282Y-82902790D03*
X147721282Y-91519742D03*
%TD*%
D34*
%TO.C,R2*%
X129617500Y-96725000D03*
X130482500Y-96725000D03*
%TD*%
%TO.C,R5*%
X130917500Y-115675000D03*
X131782500Y-115675000D03*
%TD*%
D35*
%TO.C,C3*%
X128675000Y-115225000D03*
X128675000Y-116090000D03*
%TD*%
D36*
%TO.C,C6*%
X132075000Y-109850000D03*
X130525000Y-109850000D03*
%TD*%
%TO.C,C1*%
X126100000Y-109875000D03*
X124550000Y-109875000D03*
%TD*%
D37*
%TO.C,R3*%
X129400000Y-116090000D03*
X129400000Y-115225000D03*
%TD*%
D38*
%TO.C,C31*%
X130957500Y-102675000D03*
X132092500Y-102675000D03*
%TD*%
D34*
%TO.C,R19*%
X127135000Y-102775000D03*
X128000000Y-102775000D03*
%TD*%
D39*
%TO.C,IC4*%
X121027802Y-87688839D03*
X122127654Y-88323839D03*
X123227506Y-88958839D03*
X124327358Y-89593839D03*
X121615358Y-94291161D03*
X120515506Y-93656161D03*
X119415654Y-93021161D03*
X118315802Y-92386161D03*
D40*
X121321580Y-90990000D03*
%TD*%
D24*
%TO.C,C4*%
X130475000Y-95975000D03*
X129610000Y-95975000D03*
%TD*%
M02*
