M48
; DRILL file {KiCad 9.0.6-rc1} date 2025-10-31T17:35:11+0100
; FORMAT={-:-/ absolute / metric / decimal}
; #@! TF.CreationDate,2025-10-31T17:35:11+01:00
; #@! TF.GenerationSoftware,Kicad,Pcbnew,9.0.6-rc1
; #@! TF.FileFunction,NonPlated,1,6,NPTH
FMAT,2
METRIC
; #@! TA.AperFunction,NonPlated,NPTH,ComponentDrill
T1C0.500
; #@! TA.AperFunction,NonPlated,NPTH,ComponentDrill
T2C1.450
%
G90
G05
T1
X118.075Y-74.0
X118.125Y-118.025
X118.925Y-74.0
X118.975Y-118.025
X119.775Y-74.0
X119.825Y-118.025
X120.625Y-74.0
X120.675Y-118.025
X121.475Y-74.0
X121.525Y-118.025
X122.325Y-74.0
X122.375Y-118.025
X123.175Y-74.0
X123.225Y-118.025
X124.025Y-74.0
X124.075Y-118.025
X124.875Y-74.0
X124.925Y-118.025
X125.725Y-74.0
X125.775Y-118.025
X126.575Y-74.0
X126.625Y-118.025
X127.425Y-74.0
X127.475Y-118.025
X128.275Y-74.0
X128.325Y-118.025
X129.125Y-74.0
X129.175Y-118.025
X129.975Y-74.0
X130.025Y-118.025
X130.825Y-74.0
X130.875Y-118.025
X131.675Y-74.0
X131.725Y-118.025
X132.525Y-74.0
X132.575Y-118.025
X133.375Y-74.0
X133.425Y-118.025
X134.225Y-74.0
X134.275Y-118.025
X135.075Y-74.0
X135.125Y-118.025
X135.925Y-74.0
X135.975Y-118.025
X136.775Y-74.0
X136.825Y-118.025
X137.625Y-74.0
X137.675Y-118.025
X138.475Y-74.0
X138.525Y-118.025
X139.325Y-74.0
X139.375Y-118.025
X140.175Y-74.0
X140.225Y-118.025
X141.025Y-74.0
X141.075Y-118.025
X141.875Y-74.0
X141.925Y-118.025
T2
X113.88Y-90.619
X117.28Y-84.731
X126.6Y-112.65
X133.4Y-112.65
X142.72Y-84.731
X146.12Y-90.619
M30
