%TF.GenerationSoftware,KiCad,Pcbnew,9.0.6-rc1*%
%TF.CreationDate,2025-10-31T17:35:14+01:00*%
%TF.ProjectId,PCB_BRUSHED,5043425f-4252-4555-9348-45442e6b6963,rev?*%
%TF.SameCoordinates,Original*%
%TF.FileFunction,Copper,L3,Inr*%
%TF.FilePolarity,Positive*%
%FSLAX46Y46*%
G04 Gerber Fmt 4.6, Leading zero omitted, Abs format (unit mm)*
G04 Created by KiCad (PCBNEW 9.0.6-rc1) date 2025-10-31 17:35:14*
%MOMM*%
%LPD*%
G01*
G04 APERTURE LIST*
%TA.AperFunction,ComponentPad*%
%ADD10C,0.800000*%
%TD*%
%TA.AperFunction,ComponentPad*%
%ADD11C,5.000000*%
%TD*%
%TA.AperFunction,ViaPad*%
%ADD12C,0.400000*%
%TD*%
%TA.AperFunction,Conductor*%
%ADD13C,0.160000*%
%TD*%
G04 APERTURE END LIST*
D10*
%TO.N,GND*%
%TO.C,TP1*%
X138625000Y-77813467D03*
X139174175Y-76487642D03*
X139174175Y-79139292D03*
X140500000Y-75938467D03*
D11*
X140500000Y-77813467D03*
D10*
X140500000Y-79688467D03*
X141825825Y-76487642D03*
X141825825Y-79139292D03*
X142375000Y-77813467D03*
%TD*%
%TO.N,GND*%
%TO.C,TP3*%
X138625000Y-114186533D03*
X139174175Y-112860708D03*
X139174175Y-115512358D03*
X140500000Y-112311533D03*
D11*
X140500000Y-114186533D03*
D10*
X140500000Y-116061533D03*
X141825825Y-112860708D03*
X141825825Y-115512358D03*
X142375000Y-114186533D03*
%TD*%
%TO.N,GND*%
%TO.C,TP2*%
X107125000Y-96000000D03*
X107674175Y-94674175D03*
X107674175Y-97325825D03*
X109000000Y-94125000D03*
D11*
X109000000Y-96000000D03*
D10*
X109000000Y-97875000D03*
X110325825Y-94674175D03*
X110325825Y-97325825D03*
X110875000Y-96000000D03*
%TD*%
D12*
%TO.N,GND*%
X140050000Y-74750000D03*
X119840000Y-74749192D03*
X121284000Y-74749192D03*
X129948000Y-74749192D03*
X119118000Y-74749192D03*
X128504000Y-74749192D03*
X118396000Y-74749192D03*
X134280000Y-74749192D03*
X129226000Y-74749192D03*
X138612000Y-74749192D03*
X122006000Y-74749192D03*
X141500000Y-74749192D03*
X127060000Y-74749192D03*
X124894000Y-74749192D03*
X142220000Y-74750000D03*
X130670000Y-74749192D03*
X137168000Y-74749192D03*
X123450000Y-74749192D03*
X125616000Y-74749192D03*
X132114000Y-74749192D03*
X140778000Y-74749192D03*
X124172000Y-74749192D03*
X139300000Y-74750000D03*
X122728000Y-74749192D03*
X132836000Y-74749192D03*
X126338000Y-74749192D03*
X127782000Y-74749192D03*
X136446000Y-74749192D03*
X133558000Y-74749192D03*
X131392000Y-74749192D03*
X137890000Y-74749192D03*
X135724000Y-74749192D03*
X135002000Y-74749192D03*
X120562000Y-74749192D03*
X140050000Y-117270000D03*
X119840000Y-117269192D03*
X121284000Y-117269192D03*
X129948000Y-117269192D03*
X119118000Y-117269192D03*
X128504000Y-117269192D03*
X118396000Y-117269192D03*
X134280000Y-117269192D03*
X129226000Y-117269192D03*
X138612000Y-117269192D03*
X122006000Y-117269192D03*
X141500000Y-117269192D03*
X127060000Y-117269192D03*
X124894000Y-117269192D03*
X142220000Y-117270000D03*
X130670000Y-117269192D03*
X137168000Y-117269192D03*
X123450000Y-117269192D03*
X125616000Y-117269192D03*
X132114000Y-117269192D03*
X140778000Y-117269192D03*
X124172000Y-117269192D03*
X139300000Y-117270000D03*
X122728000Y-117269192D03*
X132836000Y-117269192D03*
X126338000Y-117269192D03*
X127782000Y-117269192D03*
X136446000Y-117269192D03*
X133558000Y-117269192D03*
X131392000Y-117269192D03*
X137890000Y-117269192D03*
X135724000Y-117269192D03*
X135002000Y-117269192D03*
X120562000Y-117269192D03*
X105530000Y-96010000D03*
X111667000Y-85380404D03*
X105891000Y-95384729D03*
X113833000Y-81628782D03*
X106613000Y-94134189D03*
X106252000Y-94759459D03*
X110945000Y-86630945D03*
X116718700Y-76632219D03*
X107335000Y-92883648D03*
X109501000Y-89132026D03*
X108779000Y-90382567D03*
X113472000Y-82254052D03*
X112389000Y-84129863D03*
X116343700Y-77281738D03*
X115638000Y-78502430D03*
X112028000Y-84755134D03*
X114555000Y-80378241D03*
X112750000Y-83504593D03*
X111306000Y-86005674D03*
X108057000Y-91633107D03*
X115999000Y-77877160D03*
X115277000Y-79127701D03*
X107696000Y-92258378D03*
X113111000Y-82879323D03*
X110584000Y-87256215D03*
X114194000Y-81003512D03*
X106974000Y-93508918D03*
X110223000Y-87881485D03*
X117082000Y-76001349D03*
X108418000Y-91007837D03*
X109140000Y-89757296D03*
X117443000Y-75376079D03*
X114916000Y-79752971D03*
X109862000Y-88506756D03*
X109862000Y-103513244D03*
X114916000Y-112267029D03*
X117443000Y-116643921D03*
X109140000Y-102262704D03*
X108418000Y-101012163D03*
X117082000Y-116018651D03*
X110223000Y-104138515D03*
X106974000Y-98511082D03*
X114194000Y-111016488D03*
X110584000Y-104763785D03*
X113111000Y-109140677D03*
X107696000Y-99761622D03*
X115277000Y-112892299D03*
X115999000Y-114142840D03*
X108057000Y-100386893D03*
X111306000Y-106014326D03*
X112750000Y-108515407D03*
X114555000Y-111641759D03*
X112028000Y-107264866D03*
X115638000Y-113517570D03*
X116342300Y-114739070D03*
X112389000Y-107890137D03*
X113472000Y-109765948D03*
X108779000Y-101637433D03*
X109501000Y-102887974D03*
X107335000Y-99136352D03*
X116717300Y-115388589D03*
X110945000Y-105389055D03*
X106252000Y-97260541D03*
X106613000Y-97885811D03*
X113833000Y-110391218D03*
X105891000Y-96635271D03*
X111667000Y-106639596D03*
X153040000Y-93481206D03*
X142588700Y-75377407D03*
X145476700Y-80379569D03*
X149086700Y-86632273D03*
X147281700Y-83505921D03*
X144393700Y-78503758D03*
X149808700Y-87882813D03*
X148003700Y-84756462D03*
X145837700Y-81004840D03*
X152335700Y-92259706D03*
X151613700Y-91009165D03*
X150891700Y-89758624D03*
X151252700Y-90383895D03*
X154140700Y-95386057D03*
X151974700Y-91634435D03*
X144754700Y-79129029D03*
X146559700Y-82255380D03*
X152696700Y-92884976D03*
X144032700Y-77878488D03*
X142949700Y-76002677D03*
X146198700Y-81630110D03*
X145115700Y-79754299D03*
X143310700Y-76627947D03*
X143671700Y-77253218D03*
X153779700Y-94760787D03*
X148725700Y-86007002D03*
X147642700Y-84131191D03*
X149447700Y-87257543D03*
X146920700Y-82880651D03*
X150169700Y-88508084D03*
X148364700Y-85381732D03*
X150530700Y-89133354D03*
X153415000Y-94130725D03*
X152334000Y-99761622D03*
X146919000Y-109140677D03*
X154139000Y-96635271D03*
X151251000Y-101637433D03*
X147641000Y-107890137D03*
X143686300Y-114738262D03*
X149446000Y-104763785D03*
X153417000Y-97885811D03*
X153056000Y-98511082D03*
X149085000Y-105389055D03*
X142948000Y-116018651D03*
X146558000Y-109765948D03*
X147280000Y-108515407D03*
X149807000Y-104138515D03*
X148002000Y-107264866D03*
X143311300Y-115387781D03*
X151612000Y-101012163D03*
X148363000Y-106639596D03*
X146197000Y-110391218D03*
X150529000Y-102887974D03*
X150890000Y-102262704D03*
X144392000Y-113517570D03*
X150168000Y-103513244D03*
X151973000Y-100386893D03*
X145475000Y-111641759D03*
X144753000Y-112892299D03*
X144031000Y-114142840D03*
X145114000Y-112267029D03*
X152695000Y-99136352D03*
X142587000Y-116643921D03*
X145836000Y-111016488D03*
X153778000Y-97260541D03*
X148724000Y-106014326D03*
X134600000Y-103880000D03*
X134960000Y-102890000D03*
X134700000Y-108810000D03*
X125775000Y-86850000D03*
X124350000Y-116475000D03*
X124250000Y-115300000D03*
X127425000Y-108700000D03*
X124525000Y-113000000D03*
X123600000Y-113725000D03*
X145775000Y-93300000D03*
X150425000Y-91725000D03*
X143822095Y-93028750D03*
X135900000Y-94125000D03*
X126975000Y-83125000D03*
X127000000Y-82000000D03*
X126975000Y-80950000D03*
X120450000Y-105000000D03*
X118475000Y-106100000D03*
X125025000Y-92350000D03*
X128275000Y-90125000D03*
X124650000Y-90900000D03*
X120400000Y-88525000D03*
X125575000Y-89000000D03*
X145430000Y-105870000D03*
X134820000Y-86190000D03*
X145480000Y-84180000D03*
X130178372Y-93898968D03*
X114180000Y-97060000D03*
X111835552Y-87360641D03*
X136430000Y-105760000D03*
X121880000Y-108060000D03*
X134925000Y-76001115D03*
X110235865Y-101641108D03*
X125700000Y-79290000D03*
X117400000Y-91340000D03*
X144630000Y-96380000D03*
X116720000Y-88620000D03*
X136240000Y-97870000D03*
X123280000Y-100200000D03*
X115126448Y-89260641D03*
X138680000Y-82870000D03*
X119415654Y-93021161D03*
X127900000Y-96500000D03*
X113870000Y-86010000D03*
X113840000Y-100570000D03*
X124178150Y-91542276D03*
X143050000Y-96000000D03*
X143770000Y-83730000D03*
X128600000Y-95275000D03*
X150980000Y-93890000D03*
X137375000Y-111250000D03*
X139460000Y-108640000D03*
X148100000Y-95700000D03*
X130725000Y-113225000D03*
X129050000Y-103270000D03*
X138475000Y-92172724D03*
X140200000Y-91172724D03*
X116010000Y-96950000D03*
X113932147Y-101643255D03*
X139375000Y-91675000D03*
X123210000Y-108980000D03*
X129050000Y-107275000D03*
X146564448Y-84589359D03*
X115260000Y-86810000D03*
X118760000Y-99310000D03*
X137460000Y-98350000D03*
X127288000Y-107925000D03*
X129050000Y-105275000D03*
X132712000Y-106655000D03*
X114020000Y-88670000D03*
X127120000Y-89370000D03*
X129075000Y-106275000D03*
X140430000Y-97160000D03*
X129175000Y-113225000D03*
X141684198Y-92386161D03*
X127930000Y-84260000D03*
X122450000Y-90552276D03*
X123090000Y-79550000D03*
X138260000Y-104170000D03*
X124550000Y-109875000D03*
X113270000Y-98390000D03*
X132500000Y-95275000D03*
X134340000Y-106340000D03*
X133680000Y-85670000D03*
X129675000Y-94850000D03*
X126470000Y-91310000D03*
X137872346Y-88323839D03*
X131757500Y-115675000D03*
X124190000Y-98300000D03*
X136610000Y-99710000D03*
X141990000Y-107430000D03*
X121027802Y-87688839D03*
X120725000Y-89552276D03*
X133075000Y-79201115D03*
X137180000Y-87330000D03*
X149755808Y-101701524D03*
X125210000Y-88080000D03*
X135050000Y-109850000D03*
X144240000Y-107780000D03*
X129950000Y-113200000D03*
X139940000Y-100580000D03*
X124520000Y-101000000D03*
X112830000Y-93240000D03*
X125750000Y-105470000D03*
X119461500Y-105548076D03*
X141170000Y-109010000D03*
X142741281Y-82895194D03*
X141730000Y-96490000D03*
X118800000Y-94540000D03*
X116400000Y-90700000D03*
X140740000Y-84970000D03*
X128800000Y-88730000D03*
X147716281Y-91512147D03*
X112760000Y-87860000D03*
X129040000Y-102020000D03*
X123300000Y-91050000D03*
X124975000Y-76001115D03*
X118640000Y-97310000D03*
X133910000Y-79670000D03*
X131375000Y-96925000D03*
X115210865Y-110258060D03*
X143538500Y-100351924D03*
X121600000Y-90075000D03*
X115170000Y-94890000D03*
X124540000Y-97520000D03*
X129550000Y-97850000D03*
X122960000Y-83970000D03*
X120940000Y-103860000D03*
X137760000Y-105250000D03*
X126075000Y-101425000D03*
X121850000Y-96250000D03*
X147570000Y-102290000D03*
X141050000Y-99980000D03*
X146070000Y-100590000D03*
X131475000Y-95800000D03*
X129050000Y-104250000D03*
X146550000Y-104340000D03*
X125720000Y-108280000D03*
X127278750Y-100647095D03*
X124250000Y-102840000D03*
X144780808Y-110318476D03*
X125810000Y-103600000D03*
X143273552Y-86489359D03*
X139680000Y-85480000D03*
X123780000Y-86350000D03*
X145580000Y-85260000D03*
%TO.N,VBAT+*%
X133000000Y-102925000D03*
X133000000Y-103725000D03*
X121375000Y-94775000D03*
X123475000Y-93700000D03*
X133725000Y-103750000D03*
X121825000Y-94000000D03*
X132200000Y-103775000D03*
X126100000Y-109875000D03*
X135825000Y-89900000D03*
X127550000Y-109850000D03*
X134625000Y-89550000D03*
X122750000Y-94475000D03*
X126825000Y-109875000D03*
X136075000Y-91025000D03*
X132200000Y-102900000D03*
X133725000Y-102925000D03*
X122775000Y-93300000D03*
X122350000Y-95275000D03*
X135350000Y-89175000D03*
X134975000Y-90375000D03*
X135325000Y-91425000D03*
%TO.N,+3.3V*%
X146059526Y-101703671D03*
X132775000Y-109850000D03*
X129250000Y-90625000D03*
X132075000Y-110650000D03*
X132075000Y-109850000D03*
X133475000Y-109850000D03*
X125450000Y-97575000D03*
X125200000Y-96925000D03*
X117057147Y-107055913D03*
X134600000Y-96050000D03*
X140538500Y-105548076D03*
X133000000Y-82100000D03*
X132775000Y-110650000D03*
X133475000Y-110650000D03*
X144500000Y-84550000D03*
X126825000Y-79201115D03*
X116461500Y-100351924D03*
X133700000Y-96975000D03*
X129800000Y-90925000D03*
X136300000Y-111150000D03*
%TO.N,/ADC2_IN5*%
X133200000Y-99025000D03*
%TO.N,/NRST*%
X128125000Y-99675000D03*
X140895000Y-86097341D03*
%TO.N,/ADC_VBAT*%
X126300000Y-99100000D03*
X121642500Y-112925000D03*
%TO.N,/EXT_BTN_EXTI10*%
X144950000Y-93275000D03*
X127000000Y-92625000D03*
%TO.N,Net-(IC2-IN1)*%
X129272095Y-89821250D03*
X139484494Y-93656161D03*
%TO.N,Net-(IC2-IN2)*%
X140584346Y-93021161D03*
X129647095Y-89121250D03*
%TO.N,Net-(IC3-IN2)*%
X127288000Y-106655000D03*
X134627905Y-99128750D03*
%TO.N,Net-(IC3-IN1)*%
X127288000Y-105385000D03*
X135002905Y-98503750D03*
%TO.N,Net-(IC4-IN1)*%
X132775000Y-101200000D03*
X123227506Y-88958839D03*
%TO.N,Net-(IC4-IN2)*%
X122127654Y-88323839D03*
%TO.N,/MOT2_HALL_B{slash}TIM1CH2*%
X131000000Y-82100000D03*
X131650000Y-92175000D03*
%TO.N,/MOT2_HALL_A{slash}TIM1CH1*%
X129000000Y-82100000D03*
X132400000Y-92550000D03*
%TO.N,/MOT1_HALL_B{slash}TIM2CH2*%
X129825000Y-102125000D03*
X141538500Y-103816025D03*
%TO.N,/MOT1_HALL_A{slash}TIM2CH1*%
X142538500Y-102083975D03*
X129550000Y-101475000D03*
%TO.N,/SWDIO*%
X142145000Y-88262405D03*
X128075000Y-91000000D03*
%TO.N,/SWCLK*%
X127400000Y-91375000D03*
X141520000Y-87179873D03*
%TO.N,/MOT3_HALL_B{slash}TIM8CH2*%
X117461500Y-102083975D03*
X125775000Y-95550000D03*
%TO.N,/MOT3_HALL_A{slash}TIM8CH1*%
X118461500Y-103816025D03*
X126300000Y-94725000D03*
%TO.N,/USART3_TX*%
X135625000Y-96450000D03*
X150200000Y-92700000D03*
X145722804Y-86922804D03*
%TO.N,/USART3_RX*%
X149075000Y-92725000D03*
X135925000Y-95500000D03*
X146086553Y-87636553D03*
%TO.N,/UART_EXTI*%
X135025000Y-97225000D03*
X145343205Y-86218205D03*
X151450000Y-92725000D03*
%TO.N,GND*%
X154500000Y-96010000D03*
%TD*%
D13*
%TO.N,/ADC_VBAT*%
X121650000Y-111500000D02*
X121642500Y-112925000D01*
X126300000Y-99100000D02*
X121650000Y-111500000D01*
%TO.N,/EXT_BTN_EXTI10*%
X132000000Y-96700000D02*
X130950000Y-96150000D01*
X128650000Y-94600000D02*
X127650000Y-93575000D01*
X133475000Y-96400000D02*
X135050000Y-96750000D01*
X130950000Y-96150000D02*
X129450000Y-95375000D01*
X132000000Y-96700000D02*
X133475000Y-96400000D01*
X135050000Y-96750000D02*
X136325000Y-97125000D01*
X136325000Y-97125000D02*
X144950000Y-93275000D01*
X127650000Y-93575000D02*
X127000000Y-92625000D01*
X129450000Y-95375000D02*
X128650000Y-94600000D01*
%TO.N,Net-(IC2-IN1)*%
X130325000Y-90925000D02*
X130125000Y-90300000D01*
X135925000Y-93500000D02*
X133125000Y-93875000D01*
X132400000Y-93875000D02*
X130425000Y-92825000D01*
X130125000Y-90300000D02*
X129272095Y-89821250D01*
X130425000Y-92825000D02*
X130325000Y-90925000D01*
X139484494Y-93656161D02*
X135925000Y-93500000D01*
X133125000Y-93875000D02*
X132400000Y-93875000D01*
%TO.N,Net-(IC2-IN2)*%
X130075000Y-89400000D02*
X129647095Y-89121250D01*
X132600000Y-93200000D02*
X135600000Y-92675000D01*
X130825000Y-90525000D02*
X130925000Y-92325000D01*
X140584346Y-93021161D02*
X135600000Y-92675000D01*
X130075000Y-89400000D02*
X130825000Y-90525000D01*
X130925000Y-92325000D02*
X132600000Y-93200000D01*
%TO.N,Net-(IC3-IN2)*%
X128000000Y-105925000D02*
X128600000Y-101550000D01*
X130275000Y-98625000D02*
X133425000Y-98475000D01*
X133425000Y-98475000D02*
X134627905Y-99128750D01*
X128600000Y-101550000D02*
X130275000Y-98625000D01*
X127288000Y-106655000D02*
X128000000Y-105925000D01*
%TO.N,Net-(IC3-IN1)*%
X135002905Y-98503750D02*
X133650000Y-98050000D01*
X133650000Y-98050000D02*
X130025000Y-98275000D01*
X130025000Y-98275000D02*
X128000000Y-100850000D01*
X127288000Y-105385000D02*
X128000000Y-100850000D01*
%TO.N,Net-(IC4-IN1)*%
X127600000Y-95225000D02*
X126450000Y-93100000D01*
X131350000Y-97575000D02*
X128200000Y-95650000D01*
X135800000Y-99800000D02*
X136350000Y-98825000D01*
X136350000Y-98825000D02*
X135500000Y-98075000D01*
X128200000Y-95650000D02*
X127600000Y-95225000D01*
X132150000Y-97625000D02*
X131350000Y-97575000D01*
X133575000Y-97600000D02*
X132150000Y-97625000D01*
X126450000Y-93100000D02*
X124725000Y-89625000D01*
X135500000Y-98075000D02*
X133575000Y-97600000D01*
X124725000Y-89625000D02*
X123227506Y-88958839D01*
X132775000Y-101200000D02*
X135800000Y-99800000D01*
%TO.N,/MOT2_HALL_B{slash}TIM1CH2*%
X131000000Y-82100000D02*
X131650000Y-92175000D01*
%TO.N,/MOT2_HALL_A{slash}TIM1CH1*%
X129625000Y-81125000D02*
X129000000Y-82100000D01*
X131850000Y-81725000D02*
X131125000Y-81125000D01*
X132400000Y-92550000D02*
X131850000Y-81725000D01*
X131125000Y-81125000D02*
X129625000Y-81125000D01*
%TO.N,/MOT1_HALL_B{slash}TIM2CH2*%
X141538500Y-103816025D02*
X133800000Y-102125000D01*
X133800000Y-102125000D02*
X129825000Y-102125000D01*
%TO.N,/MOT1_HALL_A{slash}TIM2CH1*%
X134125000Y-101700000D02*
X142538500Y-102083975D01*
X131275000Y-101700000D02*
X134125000Y-101700000D01*
X129550000Y-101475000D02*
X131275000Y-101700000D01*
%TO.N,/SWDIO*%
X130475000Y-93475000D02*
X130225000Y-93350000D01*
X142600000Y-89000000D02*
X142145000Y-88262405D01*
X132450000Y-94775000D02*
X130600000Y-93650000D01*
X140300000Y-94200000D02*
X142500000Y-93175000D01*
X142500000Y-93175000D02*
X142600000Y-89000000D01*
X128525000Y-92325000D02*
X128075000Y-91000000D01*
X130225000Y-93350000D02*
X128525000Y-92325000D01*
X130600000Y-93650000D02*
X130475000Y-93475000D01*
X136525000Y-94650000D02*
X140300000Y-94200000D01*
X136525000Y-94650000D02*
X132450000Y-94775000D01*
%TO.N,/SWCLK*%
X143225000Y-93575000D02*
X143350000Y-88775000D01*
X131800000Y-95350000D02*
X129800000Y-94275000D01*
X128700000Y-93650000D02*
X127650000Y-92225000D01*
X134700000Y-95570000D02*
X133775000Y-95475000D01*
X142425000Y-87225000D02*
X141520000Y-87179873D01*
X133775000Y-95475000D02*
X132550000Y-95825000D01*
X132075000Y-95750000D02*
X131800000Y-95350000D01*
X127650000Y-92225000D02*
X127400000Y-91375000D01*
X134700000Y-95570000D02*
X136025000Y-96100000D01*
X136025000Y-96100000D02*
X138900000Y-95400000D01*
X129800000Y-94275000D02*
X128700000Y-93650000D01*
X143350000Y-88775000D02*
X142425000Y-87225000D01*
X138900000Y-95400000D02*
X143225000Y-93575000D01*
X132550000Y-95825000D02*
X132075000Y-95750000D01*
%TO.N,/MOT3_HALL_B{slash}TIM8CH2*%
X122475000Y-99100000D02*
X124775000Y-95825000D01*
X117461500Y-102083975D02*
X122475000Y-99100000D01*
X124775000Y-95825000D02*
X125775000Y-95550000D01*
%TO.N,/MOT3_HALL_A{slash}TIM8CH1*%
X126675000Y-96350000D02*
X126350000Y-97750000D01*
X126350000Y-97750000D02*
X124150000Y-100500000D01*
X124150000Y-100500000D02*
X118461500Y-103816025D01*
X126300000Y-94725000D02*
X126675000Y-96350000D01*
%TO.N,/USART3_TX*%
X147000000Y-87375000D02*
X145722804Y-86922804D01*
X149725000Y-91425000D02*
X147000000Y-87375000D01*
X150200000Y-92700000D02*
X149725000Y-91425000D01*
%TO.N,/USART3_RX*%
X149075000Y-92725000D02*
X148925000Y-91825000D01*
X148925000Y-91825000D02*
X146086553Y-87636553D01*
%TO.N,/UART_EXTI*%
X150950000Y-91525000D02*
X147775000Y-86375000D01*
X151450000Y-92725000D02*
X150950000Y-91525000D01*
X147775000Y-86375000D02*
X145343205Y-86218205D01*
%TD*%
M02*
