%TF.GenerationSoftware,KiCad,Pcbnew,9.0.6-rc1*%
%TF.CreationDate,2025-10-31T17:35:14+01:00*%
%TF.ProjectId,PCB_BRUSHED,5043425f-4252-4555-9348-45442e6b6963,rev?*%
%TF.SameCoordinates,Original*%
%TF.FileFunction,Legend,Top*%
%TF.FilePolarity,Positive*%
%FSLAX46Y46*%
G04 Gerber Fmt 4.6, Leading zero omitted, Abs format (unit mm)*
G04 Created by KiCad (PCBNEW 9.0.6-rc1) date 2025-10-31 17:35:14*
%MOMM*%
%LPD*%
G01*
G04 APERTURE LIST*
%ADD10C,0.125000*%
%ADD11C,0.000000*%
%ADD12C,0.120000*%
%ADD13C,0.200000*%
%ADD14C,0.254000*%
%ADD15C,0.100000*%
G04 APERTURE END LIST*
D10*
G36*
X119182798Y-101681904D02*
G01*
X119150464Y-101625902D01*
X119250635Y-101605403D01*
X119182798Y-101681904D01*
G37*
G36*
X120294935Y-102768895D02*
G01*
X119645415Y-103143895D01*
X119399262Y-102717546D01*
X119506542Y-102717546D01*
X119509732Y-102770690D01*
X119510525Y-102773718D01*
X119510155Y-102775103D01*
X119513375Y-102784591D01*
X119515915Y-102794280D01*
X119516986Y-102795230D01*
X119517993Y-102798195D01*
X119589422Y-102921913D01*
X119591486Y-102924267D01*
X119591774Y-102925670D01*
X119598894Y-102932713D01*
X119605502Y-102940247D01*
X119606885Y-102940617D01*
X119609112Y-102942820D01*
X119653541Y-102972155D01*
X119662815Y-102975937D01*
X119671803Y-102980369D01*
X119704327Y-102989083D01*
X119714324Y-102989737D01*
X119724246Y-102991100D01*
X119777390Y-102987911D01*
X119780419Y-102987117D01*
X119781803Y-102987488D01*
X119791285Y-102984269D01*
X119800980Y-102981729D01*
X119801931Y-102980656D01*
X119804896Y-102979650D01*
X119907995Y-102920126D01*
X119910349Y-102918061D01*
X119911753Y-102917774D01*
X119918799Y-102910649D01*
X119926329Y-102904046D01*
X119926699Y-102902662D01*
X119928902Y-102900436D01*
X119958236Y-102856007D01*
X119962019Y-102846728D01*
X119966449Y-102837746D01*
X119975164Y-102805221D01*
X119975818Y-102795228D01*
X119977182Y-102785300D01*
X119975510Y-102757452D01*
X120112056Y-102784455D01*
X120129828Y-102784434D01*
X120132338Y-102785107D01*
X120133509Y-102784430D01*
X120136443Y-102784427D01*
X120154723Y-102772182D01*
X120173765Y-102761189D01*
X120174339Y-102759043D01*
X120176186Y-102757807D01*
X120180452Y-102736230D01*
X120186146Y-102714984D01*
X120185203Y-102712207D01*
X120185466Y-102710880D01*
X120184019Y-102708721D01*
X120178307Y-102691892D01*
X120023546Y-102423836D01*
X120007466Y-102405501D01*
X119961262Y-102393121D01*
X119919834Y-102417039D01*
X119907454Y-102463243D01*
X119915292Y-102486336D01*
X120001185Y-102635108D01*
X119888015Y-102612729D01*
X119870242Y-102612749D01*
X119867733Y-102612077D01*
X119866561Y-102612753D01*
X119863628Y-102612757D01*
X119845347Y-102625001D01*
X119826306Y-102635995D01*
X119825731Y-102638140D01*
X119823885Y-102639377D01*
X119819618Y-102660951D01*
X119813925Y-102682199D01*
X119814867Y-102684976D01*
X119814605Y-102686304D01*
X119816051Y-102688462D01*
X119821763Y-102705292D01*
X119850099Y-102754372D01*
X119851798Y-102782667D01*
X119848333Y-102795597D01*
X119832716Y-102819250D01*
X119755173Y-102864018D01*
X119726881Y-102865716D01*
X119713950Y-102862251D01*
X119690297Y-102846634D01*
X119633623Y-102748472D01*
X119631925Y-102720179D01*
X119638015Y-102697454D01*
X119639610Y-102673119D01*
X119615693Y-102631694D01*
X119569487Y-102619312D01*
X119528061Y-102643229D01*
X119517275Y-102665101D01*
X119508560Y-102697624D01*
X119507904Y-102707619D01*
X119506542Y-102717546D01*
X119399262Y-102717546D01*
X119218206Y-102403948D01*
X119295869Y-102403948D01*
X119303707Y-102427041D01*
X119422756Y-102633238D01*
X119438835Y-102651573D01*
X119485040Y-102663953D01*
X119526467Y-102640035D01*
X119538847Y-102593831D01*
X119531009Y-102570738D01*
X119443211Y-102418667D01*
X119822097Y-102199918D01*
X119840431Y-102183838D01*
X119852812Y-102137634D01*
X119828894Y-102096207D01*
X119782689Y-102083826D01*
X119759597Y-102091665D01*
X119326584Y-102341664D01*
X119308249Y-102357744D01*
X119295869Y-102403948D01*
X119218206Y-102403948D01*
X119015825Y-102053414D01*
X119093488Y-102053414D01*
X119101326Y-102076507D01*
X119220375Y-102282704D01*
X119236454Y-102301039D01*
X119282659Y-102313419D01*
X119324086Y-102289501D01*
X119336466Y-102243297D01*
X119328628Y-102220204D01*
X119240830Y-102068133D01*
X119619716Y-101849384D01*
X119638050Y-101833304D01*
X119650431Y-101787100D01*
X119626513Y-101745673D01*
X119580308Y-101733292D01*
X119557216Y-101741131D01*
X119124203Y-101991130D01*
X119105868Y-102007210D01*
X119093488Y-102053414D01*
X119015825Y-102053414D01*
X118754271Y-101600389D01*
X118844089Y-101600389D01*
X118853679Y-101647254D01*
X118893598Y-101673610D01*
X118917984Y-101673476D01*
X119021377Y-101652317D01*
X119095378Y-101780488D01*
X119025357Y-101859453D01*
X119013048Y-101880505D01*
X119015914Y-101928254D01*
X119051705Y-101959992D01*
X119099454Y-101957126D01*
X119118883Y-101942387D01*
X119468563Y-101548049D01*
X119480872Y-101526997D01*
X119480592Y-101522333D01*
X119483164Y-101518438D01*
X119479193Y-101499035D01*
X119478006Y-101479248D01*
X119474510Y-101476148D01*
X119473574Y-101471573D01*
X119457040Y-101460656D01*
X119442215Y-101447510D01*
X119437552Y-101447789D01*
X119433656Y-101445217D01*
X119409270Y-101445351D01*
X118892924Y-101551014D01*
X118870445Y-101560470D01*
X118844089Y-101600389D01*
X118754271Y-101600389D01*
X118539635Y-101228628D01*
X118617298Y-101228628D01*
X118641216Y-101270056D01*
X118687420Y-101282436D01*
X118710513Y-101274598D01*
X118883202Y-101174895D01*
X118963559Y-101314078D01*
X118790870Y-101413780D01*
X118772535Y-101429860D01*
X118760155Y-101476064D01*
X118784073Y-101517492D01*
X118830277Y-101529872D01*
X118853370Y-101522034D01*
X119286383Y-101272034D01*
X119304717Y-101255954D01*
X119317098Y-101209750D01*
X119293180Y-101168323D01*
X119246975Y-101155942D01*
X119223883Y-101163781D01*
X119071812Y-101251578D01*
X118991455Y-101112395D01*
X119143526Y-101024598D01*
X119161860Y-101008518D01*
X119174241Y-100962314D01*
X119150323Y-100920887D01*
X119104118Y-100908506D01*
X119081026Y-100916345D01*
X118648013Y-101166344D01*
X118629678Y-101182424D01*
X118617298Y-101228628D01*
X118539635Y-101228628D01*
X118508510Y-101174718D01*
X119158030Y-100799718D01*
X120294935Y-102768895D01*
G37*
G36*
X140119866Y-102405046D02*
G01*
X140087532Y-102461049D01*
X140019694Y-102384547D01*
X140119866Y-102405046D01*
G37*
G36*
X141152300Y-101277534D02*
G01*
X140017773Y-103242592D01*
X139368389Y-102867670D01*
X139399560Y-102813681D01*
X139477042Y-102813681D01*
X139489422Y-102859885D01*
X139507757Y-102875965D01*
X139940770Y-103125964D01*
X139963862Y-103133803D01*
X140010067Y-103121422D01*
X140033985Y-103079995D01*
X140021604Y-103033791D01*
X140003270Y-103017711D01*
X139830580Y-102918008D01*
X139910937Y-102778826D01*
X140083627Y-102878528D01*
X140106719Y-102886367D01*
X140152924Y-102873986D01*
X140176842Y-102832559D01*
X140164461Y-102786355D01*
X140146127Y-102770275D01*
X139713114Y-102520275D01*
X139690021Y-102512437D01*
X139643817Y-102524817D01*
X139619899Y-102566245D01*
X139632279Y-102612449D01*
X139650614Y-102628529D01*
X139802684Y-102716326D01*
X139722326Y-102855508D01*
X139570257Y-102767711D01*
X139547164Y-102759873D01*
X139500960Y-102772253D01*
X139477042Y-102813681D01*
X139399560Y-102813681D01*
X139697530Y-102297582D01*
X139787166Y-102297582D01*
X139789738Y-102301478D01*
X139789459Y-102306141D01*
X139801768Y-102327193D01*
X140151447Y-102721531D01*
X140170876Y-102736269D01*
X140218624Y-102739135D01*
X140254415Y-102707398D01*
X140257281Y-102659649D01*
X140244972Y-102638597D01*
X140174952Y-102559634D01*
X140248952Y-102431461D01*
X140352347Y-102452620D01*
X140376733Y-102452754D01*
X140416651Y-102426398D01*
X140426241Y-102379533D01*
X140399885Y-102339614D01*
X140377407Y-102330158D01*
X139861061Y-102224495D01*
X139836675Y-102224361D01*
X139832778Y-102226933D01*
X139828116Y-102226654D01*
X139813291Y-102239799D01*
X139796756Y-102250717D01*
X139795819Y-102255293D01*
X139792325Y-102258392D01*
X139791137Y-102278172D01*
X139787166Y-102297582D01*
X139697530Y-102297582D01*
X139875751Y-101988894D01*
X139953232Y-101988894D01*
X139965612Y-102035098D01*
X139983947Y-102051178D01*
X140416960Y-102301177D01*
X140440052Y-102309016D01*
X140486257Y-102296636D01*
X140502337Y-102278301D01*
X140621385Y-102072105D01*
X140629223Y-102049013D01*
X140616843Y-102002808D01*
X140575416Y-101978890D01*
X140529211Y-101991270D01*
X140513132Y-102009605D01*
X140425333Y-102161674D01*
X140046447Y-101942924D01*
X140023354Y-101935086D01*
X139977150Y-101947466D01*
X139953232Y-101988894D01*
X139875751Y-101988894D01*
X140078132Y-101638360D01*
X140155613Y-101638360D01*
X140167993Y-101684564D01*
X140186328Y-101700644D01*
X140619341Y-101950643D01*
X140642433Y-101958482D01*
X140688638Y-101946102D01*
X140704718Y-101927767D01*
X140823766Y-101721571D01*
X140831604Y-101698479D01*
X140819224Y-101652274D01*
X140777797Y-101628356D01*
X140731592Y-101640736D01*
X140715513Y-101659071D01*
X140627714Y-101811140D01*
X140248828Y-101592390D01*
X140225735Y-101584552D01*
X140179531Y-101596932D01*
X140155613Y-101638360D01*
X140078132Y-101638360D01*
X140332929Y-101197038D01*
X140417121Y-101197038D01*
X140423458Y-101220587D01*
X140458763Y-101291988D01*
X140471966Y-101341266D01*
X140469385Y-101384287D01*
X140472702Y-101408447D01*
X140504439Y-101444237D01*
X140552189Y-101447102D01*
X140587979Y-101415365D01*
X140594161Y-101391775D01*
X140597350Y-101338630D01*
X140596526Y-101332628D01*
X140827119Y-101465761D01*
X140786940Y-101535353D01*
X140779102Y-101558445D01*
X140791482Y-101604650D01*
X140832909Y-101628568D01*
X140879114Y-101616188D01*
X140895194Y-101597853D01*
X141038052Y-101350417D01*
X141045890Y-101327324D01*
X141033510Y-101281120D01*
X140992083Y-101257202D01*
X140945878Y-101269582D01*
X140929799Y-101287917D01*
X140889619Y-101357508D01*
X140510733Y-101138758D01*
X140487640Y-101130920D01*
X140481425Y-101132585D01*
X140475330Y-101130523D01*
X140459017Y-101138589D01*
X140441436Y-101143300D01*
X140438217Y-101148873D01*
X140432450Y-101151726D01*
X140426617Y-101168967D01*
X140417518Y-101184728D01*
X140419183Y-101190942D01*
X140417121Y-101197038D01*
X140332929Y-101197038D01*
X140502916Y-100902612D01*
X141152300Y-101277534D01*
G37*
G36*
X130319667Y-83780046D02*
G01*
X130287335Y-83683047D01*
X130352001Y-83683047D01*
X130319667Y-83780046D01*
G37*
G36*
X131063716Y-84102690D02*
G01*
X128789906Y-84102690D01*
X128789906Y-83834833D01*
X128852406Y-83834833D01*
X128852406Y-83882452D01*
X128853017Y-83885523D01*
X128852564Y-83886883D01*
X128855208Y-83896539D01*
X128857164Y-83906370D01*
X128858178Y-83907384D01*
X128859005Y-83910403D01*
X128882815Y-83958022D01*
X128888955Y-83965933D01*
X128894522Y-83974265D01*
X128918331Y-83998074D01*
X128926662Y-84003640D01*
X128934574Y-84009781D01*
X128982193Y-84033592D01*
X128985212Y-84034418D01*
X128986226Y-84035432D01*
X128996051Y-84037386D01*
X129005713Y-84040032D01*
X129007072Y-84039578D01*
X129010144Y-84040190D01*
X129129192Y-84040190D01*
X129132263Y-84039578D01*
X129133623Y-84040032D01*
X129143279Y-84037387D01*
X129153110Y-84035432D01*
X129154124Y-84034417D01*
X129157143Y-84033591D01*
X129204762Y-84009781D01*
X129212673Y-84003640D01*
X129221005Y-83998074D01*
X129244814Y-83974265D01*
X129258362Y-83953988D01*
X129258362Y-83906154D01*
X129224537Y-83872329D01*
X129176703Y-83872329D01*
X129156426Y-83885877D01*
X129139789Y-83902513D01*
X129114438Y-83915190D01*
X129024897Y-83915190D01*
X128999548Y-83902515D01*
X128990082Y-83893049D01*
X128977406Y-83867698D01*
X128977406Y-83844976D01*
X128993343Y-83797164D01*
X129268624Y-83521884D01*
X129282173Y-83501607D01*
X129282173Y-83453773D01*
X129282172Y-83453772D01*
X129285736Y-83453772D01*
X129285736Y-83501608D01*
X129319560Y-83535432D01*
X129343478Y-83540190D01*
X129519073Y-83540190D01*
X129519073Y-83977690D01*
X129523831Y-84001608D01*
X129557655Y-84035432D01*
X129605491Y-84035432D01*
X129639315Y-84001608D01*
X129644073Y-83977690D01*
X129644073Y-83477690D01*
X129639315Y-83453772D01*
X129690498Y-83453772D01*
X129690498Y-83501608D01*
X129724322Y-83535432D01*
X129748240Y-83540190D01*
X129923835Y-83540190D01*
X129923835Y-83977690D01*
X129928593Y-84001608D01*
X129962417Y-84035432D01*
X130010253Y-84035432D01*
X130044077Y-84001608D01*
X130048835Y-83977690D01*
X130048835Y-83477690D01*
X130047954Y-83473259D01*
X130090659Y-83473259D01*
X130093708Y-83497454D01*
X130260375Y-83997454D01*
X130272453Y-84018640D01*
X130276629Y-84020728D01*
X130278718Y-84024905D01*
X130297513Y-84031170D01*
X130315237Y-84040032D01*
X130319668Y-84038555D01*
X130324099Y-84040032D01*
X130341823Y-84031170D01*
X130360618Y-84024905D01*
X130362706Y-84020728D01*
X130366883Y-84018640D01*
X130378961Y-83997454D01*
X130545627Y-83497454D01*
X130548118Y-83477690D01*
X130590502Y-83477690D01*
X130590502Y-83977690D01*
X130595260Y-84001608D01*
X130629084Y-84035432D01*
X130676920Y-84035432D01*
X130710744Y-84001608D01*
X130715502Y-83977690D01*
X130715502Y-83802095D01*
X130876216Y-83802095D01*
X130876216Y-83977690D01*
X130880974Y-84001608D01*
X130914798Y-84035432D01*
X130962634Y-84035432D01*
X130996458Y-84001608D01*
X131001216Y-83977690D01*
X131001216Y-83477690D01*
X130996458Y-83453772D01*
X130962634Y-83419948D01*
X130914798Y-83419948D01*
X130880974Y-83453772D01*
X130876216Y-83477690D01*
X130876216Y-83677095D01*
X130715502Y-83677095D01*
X130715502Y-83477690D01*
X130710744Y-83453772D01*
X130676920Y-83419948D01*
X130629084Y-83419948D01*
X130595260Y-83453772D01*
X130590502Y-83477690D01*
X130548118Y-83477690D01*
X130548676Y-83473259D01*
X130527284Y-83430475D01*
X130481903Y-83415348D01*
X130439119Y-83436740D01*
X130427041Y-83457926D01*
X130393667Y-83558047D01*
X130245668Y-83558047D01*
X130212294Y-83457926D01*
X130200216Y-83436740D01*
X130157432Y-83415348D01*
X130112051Y-83430475D01*
X130090659Y-83473259D01*
X130047954Y-83473259D01*
X130044077Y-83453772D01*
X130010253Y-83419948D01*
X129986335Y-83415190D01*
X129748240Y-83415190D01*
X129724322Y-83419948D01*
X129690498Y-83453772D01*
X129639315Y-83453772D01*
X129605491Y-83419948D01*
X129581573Y-83415190D01*
X129343478Y-83415190D01*
X129319560Y-83419948D01*
X129285736Y-83453772D01*
X129282172Y-83453772D01*
X129248347Y-83419947D01*
X129248343Y-83419947D01*
X129224430Y-83415190D01*
X128914906Y-83415190D01*
X128890988Y-83419948D01*
X128857164Y-83453772D01*
X128857164Y-83501608D01*
X128890988Y-83535432D01*
X128914906Y-83540190D01*
X129073542Y-83540190D01*
X128894522Y-83719210D01*
X128892783Y-83721811D01*
X128891501Y-83722453D01*
X128886534Y-83731164D01*
X128880974Y-83739487D01*
X128880974Y-83740918D01*
X128879423Y-83743639D01*
X128855613Y-83815069D01*
X128854360Y-83825007D01*
X128852406Y-83834833D01*
X128789906Y-83834833D01*
X128789906Y-83352690D01*
X131063716Y-83352690D01*
X131063716Y-84102690D01*
G37*
G36*
X116065213Y-95697485D02*
G01*
X116093418Y-95725690D01*
X116111164Y-95796671D01*
X116111164Y-95947946D01*
X116093418Y-96018926D01*
X116065211Y-96047134D01*
X116039862Y-96059809D01*
X115974132Y-96059809D01*
X115948783Y-96047134D01*
X115920575Y-96018926D01*
X115902831Y-95947948D01*
X115902831Y-95796669D01*
X115920575Y-95725690D01*
X115948782Y-95697483D01*
X115974131Y-95684809D01*
X116039862Y-95684809D01*
X116065213Y-95697485D01*
G37*
G36*
X117612833Y-95697485D02*
G01*
X117641038Y-95725690D01*
X117658784Y-95796671D01*
X117658784Y-95947946D01*
X117641038Y-96018926D01*
X117612831Y-96047134D01*
X117587482Y-96059809D01*
X117521752Y-96059809D01*
X117496403Y-96047134D01*
X117468195Y-96018926D01*
X117450451Y-95947948D01*
X117450451Y-95796669D01*
X117468195Y-95725690D01*
X117496402Y-95697483D01*
X117521751Y-95684809D01*
X117587482Y-95684809D01*
X117612833Y-95697485D01*
G37*
G36*
X115565214Y-95697485D02*
G01*
X115574679Y-95706950D01*
X115587354Y-95732300D01*
X115587354Y-95774222D01*
X115574679Y-95799572D01*
X115565214Y-95809037D01*
X115539862Y-95821714D01*
X115426640Y-95821714D01*
X115426640Y-95684809D01*
X115539862Y-95684809D01*
X115565214Y-95697485D01*
G37*
G36*
X117846284Y-96247309D02*
G01*
X114596283Y-96247309D01*
X114596283Y-95622309D01*
X114658783Y-95622309D01*
X114658783Y-96122309D01*
X114663541Y-96146225D01*
X114663541Y-96146227D01*
X114697365Y-96180051D01*
X114721283Y-96184809D01*
X114959378Y-96184809D01*
X114983296Y-96180051D01*
X115017120Y-96146227D01*
X115017120Y-96098391D01*
X114993313Y-96074584D01*
X115044493Y-96074584D01*
X115044494Y-96122418D01*
X115044496Y-96122420D01*
X115058042Y-96142694D01*
X115081851Y-96166503D01*
X115102124Y-96180048D01*
X115102127Y-96180051D01*
X115149961Y-96180052D01*
X115149962Y-96180051D01*
X115149963Y-96180051D01*
X115149964Y-96180049D01*
X115170238Y-96166504D01*
X115194048Y-96142695D01*
X115207597Y-96122418D01*
X115207598Y-96074584D01*
X115207596Y-96074582D01*
X115194049Y-96054306D01*
X115170239Y-96030496D01*
X115149965Y-96016950D01*
X115149963Y-96016948D01*
X115149962Y-96016948D01*
X115149961Y-96016947D01*
X115102127Y-96016948D01*
X115081850Y-96030497D01*
X115058041Y-96054307D01*
X115044493Y-96074584D01*
X114993313Y-96074584D01*
X114983296Y-96064567D01*
X114959378Y-96059809D01*
X114783783Y-96059809D01*
X114783783Y-95622309D01*
X115301640Y-95622309D01*
X115301640Y-96122309D01*
X115306398Y-96146227D01*
X115340222Y-96180051D01*
X115388058Y-96180051D01*
X115421882Y-96146227D01*
X115426640Y-96122309D01*
X115426640Y-95946714D01*
X115450647Y-95946714D01*
X115598652Y-96158151D01*
X115616266Y-96175016D01*
X115663373Y-96183329D01*
X115702561Y-96155897D01*
X115710874Y-96108791D01*
X115701056Y-96086468D01*
X115594450Y-95934173D01*
X115630186Y-95916305D01*
X115638094Y-95910166D01*
X115646428Y-95904599D01*
X115670238Y-95880790D01*
X115675802Y-95872462D01*
X115681947Y-95864545D01*
X115705756Y-95816927D01*
X115706582Y-95813907D01*
X115707596Y-95812894D01*
X115709550Y-95803066D01*
X115712196Y-95793406D01*
X115711743Y-95792047D01*
X115712354Y-95788976D01*
X115777831Y-95788976D01*
X115777831Y-95955642D01*
X115779324Y-95963151D01*
X115779697Y-95970800D01*
X115803506Y-96066038D01*
X115806397Y-96072157D01*
X115806397Y-96074797D01*
X115810653Y-96081168D01*
X115813923Y-96088088D01*
X115816183Y-96089444D01*
X115819945Y-96095074D01*
X115867564Y-96142694D01*
X115875897Y-96148261D01*
X115883809Y-96154402D01*
X115931427Y-96178211D01*
X115934446Y-96179037D01*
X115935460Y-96180051D01*
X115945287Y-96182005D01*
X115954948Y-96184651D01*
X115956306Y-96184198D01*
X115959378Y-96184809D01*
X116054616Y-96184809D01*
X116057685Y-96184198D01*
X116059046Y-96184652D01*
X116068712Y-96182004D01*
X116078534Y-96180051D01*
X116079547Y-96179037D01*
X116082566Y-96178211D01*
X116130185Y-96154402D01*
X116138093Y-96148263D01*
X116146430Y-96142694D01*
X116194049Y-96095074D01*
X116197808Y-96089446D01*
X116200071Y-96088089D01*
X116203343Y-96081162D01*
X116207596Y-96074797D01*
X116207596Y-96072160D01*
X116210488Y-96066039D01*
X116234298Y-95970801D01*
X116234670Y-95963151D01*
X116236164Y-95955642D01*
X116236164Y-95788976D01*
X116234670Y-95781466D01*
X116234298Y-95773817D01*
X116210488Y-95678579D01*
X116207596Y-95672457D01*
X116207596Y-95669821D01*
X116203344Y-95663457D01*
X116200071Y-95656529D01*
X116197807Y-95655171D01*
X116194048Y-95649544D01*
X116166813Y-95622309D01*
X116325450Y-95622309D01*
X116325450Y-96122309D01*
X116330208Y-96146227D01*
X116364032Y-96180051D01*
X116411868Y-96180051D01*
X116445692Y-96146227D01*
X116450450Y-96122309D01*
X116450450Y-95904030D01*
X116497981Y-96005882D01*
X116507509Y-96018868D01*
X116508525Y-96021662D01*
X116510097Y-96022395D01*
X116512407Y-96025544D01*
X116532502Y-96032851D01*
X116551873Y-96041891D01*
X116554617Y-96040893D01*
X116557361Y-96041891D01*
X116576731Y-96032851D01*
X116596827Y-96025544D01*
X116599136Y-96022395D01*
X116600709Y-96021662D01*
X116601724Y-96018868D01*
X116611253Y-96005882D01*
X116658783Y-95904032D01*
X116658783Y-96122309D01*
X116663541Y-96146227D01*
X116697365Y-96180051D01*
X116745201Y-96180051D01*
X116779025Y-96146227D01*
X116783783Y-96122309D01*
X116783783Y-95622309D01*
X116896879Y-95622309D01*
X116896879Y-96122309D01*
X116901637Y-96146225D01*
X116901637Y-96146227D01*
X116935461Y-96180051D01*
X116959379Y-96184809D01*
X117197474Y-96184809D01*
X117221392Y-96180051D01*
X117255216Y-96146227D01*
X117255216Y-96098391D01*
X117221392Y-96064567D01*
X117197474Y-96059809D01*
X117021879Y-96059809D01*
X117021879Y-95922904D01*
X117126046Y-95922904D01*
X117149964Y-95918146D01*
X117183788Y-95884322D01*
X117183788Y-95836486D01*
X117149964Y-95802662D01*
X117126046Y-95797904D01*
X117021879Y-95797904D01*
X117021879Y-95788976D01*
X117325451Y-95788976D01*
X117325451Y-95955642D01*
X117326944Y-95963151D01*
X117327317Y-95970800D01*
X117351126Y-96066038D01*
X117354017Y-96072157D01*
X117354017Y-96074797D01*
X117358273Y-96081168D01*
X117361543Y-96088088D01*
X117363803Y-96089444D01*
X117367565Y-96095074D01*
X117415184Y-96142694D01*
X117423517Y-96148261D01*
X117431429Y-96154402D01*
X117479047Y-96178211D01*
X117482066Y-96179037D01*
X117483080Y-96180051D01*
X117492907Y-96182005D01*
X117502568Y-96184651D01*
X117503926Y-96184198D01*
X117506998Y-96184809D01*
X117602236Y-96184809D01*
X117605305Y-96184198D01*
X117606666Y-96184652D01*
X117616332Y-96182004D01*
X117626154Y-96180051D01*
X117627167Y-96179037D01*
X117630186Y-96178211D01*
X117677805Y-96154402D01*
X117685713Y-96148263D01*
X117694050Y-96142694D01*
X117741669Y-96095074D01*
X117745428Y-96089446D01*
X117747691Y-96088089D01*
X117750963Y-96081162D01*
X117755216Y-96074797D01*
X117755216Y-96072160D01*
X117758108Y-96066039D01*
X117781918Y-95970801D01*
X117782290Y-95963151D01*
X117783784Y-95955642D01*
X117783784Y-95788976D01*
X117782290Y-95781466D01*
X117781918Y-95773817D01*
X117758108Y-95678579D01*
X117755216Y-95672457D01*
X117755216Y-95669821D01*
X117750964Y-95663457D01*
X117747691Y-95656529D01*
X117745427Y-95655171D01*
X117741668Y-95649544D01*
X117694049Y-95601925D01*
X117685717Y-95596358D01*
X117677806Y-95590218D01*
X117630187Y-95566408D01*
X117627168Y-95565581D01*
X117626154Y-95564567D01*
X117616323Y-95562611D01*
X117606667Y-95559967D01*
X117605307Y-95560420D01*
X117602236Y-95559809D01*
X117506998Y-95559809D01*
X117503926Y-95560420D01*
X117502567Y-95559967D01*
X117492905Y-95562612D01*
X117483080Y-95564567D01*
X117482066Y-95565580D01*
X117479047Y-95566407D01*
X117431428Y-95590218D01*
X117423516Y-95596358D01*
X117415185Y-95601925D01*
X117367566Y-95649544D01*
X117363805Y-95655172D01*
X117361543Y-95656530D01*
X117358271Y-95663454D01*
X117354018Y-95669821D01*
X117354018Y-95672458D01*
X117351126Y-95678580D01*
X117327317Y-95773818D01*
X117326944Y-95781466D01*
X117325451Y-95788976D01*
X117021879Y-95788976D01*
X117021879Y-95684809D01*
X117197474Y-95684809D01*
X117221392Y-95680051D01*
X117255216Y-95646227D01*
X117255216Y-95598391D01*
X117221392Y-95564567D01*
X117197474Y-95559809D01*
X116959379Y-95559809D01*
X116935461Y-95564567D01*
X116901637Y-95598391D01*
X116896879Y-95622309D01*
X116783783Y-95622309D01*
X116779025Y-95598391D01*
X116771171Y-95590537D01*
X116767375Y-95580098D01*
X116754919Y-95574285D01*
X116745201Y-95564567D01*
X116734094Y-95564567D01*
X116724027Y-95559869D01*
X116711108Y-95564567D01*
X116697365Y-95564567D01*
X116689512Y-95572419D01*
X116679073Y-95576216D01*
X116664647Y-95595878D01*
X116554616Y-95831658D01*
X116444586Y-95595879D01*
X116430160Y-95576217D01*
X116419722Y-95572421D01*
X116411868Y-95564567D01*
X116398123Y-95564567D01*
X116385206Y-95559870D01*
X116375141Y-95564567D01*
X116364032Y-95564567D01*
X116354311Y-95574287D01*
X116341858Y-95580099D01*
X116338062Y-95590536D01*
X116330208Y-95598391D01*
X116325450Y-95622309D01*
X116166813Y-95622309D01*
X116146429Y-95601925D01*
X116138097Y-95596358D01*
X116130186Y-95590218D01*
X116082567Y-95566408D01*
X116079548Y-95565581D01*
X116078534Y-95564567D01*
X116068703Y-95562611D01*
X116059047Y-95559967D01*
X116057687Y-95560420D01*
X116054616Y-95559809D01*
X115959378Y-95559809D01*
X115956306Y-95560420D01*
X115954947Y-95559967D01*
X115945285Y-95562612D01*
X115935460Y-95564567D01*
X115934446Y-95565580D01*
X115931427Y-95566407D01*
X115883808Y-95590218D01*
X115875896Y-95596358D01*
X115867565Y-95601925D01*
X115819946Y-95649544D01*
X115816185Y-95655172D01*
X115813923Y-95656530D01*
X115810651Y-95663454D01*
X115806398Y-95669821D01*
X115806398Y-95672458D01*
X115803506Y-95678580D01*
X115779697Y-95773818D01*
X115779324Y-95781466D01*
X115777831Y-95788976D01*
X115712354Y-95788976D01*
X115712354Y-95717547D01*
X115711743Y-95714475D01*
X115712196Y-95713117D01*
X115709550Y-95703456D01*
X115707596Y-95693629D01*
X115706582Y-95692615D01*
X115705756Y-95689596D01*
X115681947Y-95641978D01*
X115675802Y-95634060D01*
X115670238Y-95625733D01*
X115646428Y-95601924D01*
X115638094Y-95596356D01*
X115630186Y-95590218D01*
X115582567Y-95566408D01*
X115579548Y-95565581D01*
X115578534Y-95564567D01*
X115568703Y-95562611D01*
X115559047Y-95559967D01*
X115557687Y-95560420D01*
X115554616Y-95559809D01*
X115364140Y-95559809D01*
X115340222Y-95564567D01*
X115306398Y-95598391D01*
X115301640Y-95622309D01*
X114783783Y-95622309D01*
X114779025Y-95598391D01*
X114745201Y-95564567D01*
X114697365Y-95564567D01*
X114663541Y-95598391D01*
X114658783Y-95622309D01*
X114596283Y-95622309D01*
X114596283Y-95497309D01*
X117846284Y-95497309D01*
X117846284Y-96247309D01*
G37*
G36*
X115651880Y-94717485D02*
G01*
X115680085Y-94745690D01*
X115697831Y-94816671D01*
X115697831Y-94967946D01*
X115680085Y-95038926D01*
X115651878Y-95067134D01*
X115626529Y-95079809D01*
X115560799Y-95079809D01*
X115535450Y-95067134D01*
X115507242Y-95038926D01*
X115489498Y-94967948D01*
X115489498Y-94816669D01*
X115507242Y-94745690D01*
X115535449Y-94717483D01*
X115560798Y-94704809D01*
X115626529Y-94704809D01*
X115651880Y-94717485D01*
G37*
G36*
X117770930Y-94717485D02*
G01*
X117780395Y-94726950D01*
X117793070Y-94752300D01*
X117793070Y-94794222D01*
X117780395Y-94819572D01*
X117770930Y-94829037D01*
X117745578Y-94841714D01*
X117632356Y-94841714D01*
X117632356Y-94704809D01*
X117745578Y-94704809D01*
X117770930Y-94717485D01*
G37*
G36*
X115151881Y-94717485D02*
G01*
X115161346Y-94726950D01*
X115174021Y-94752300D01*
X115174021Y-94794222D01*
X115161346Y-94819572D01*
X115151881Y-94829037D01*
X115126529Y-94841714D01*
X115013307Y-94841714D01*
X115013307Y-94704809D01*
X115126529Y-94704809D01*
X115151881Y-94717485D01*
G37*
G36*
X118455817Y-95267309D02*
G01*
X114016283Y-95267309D01*
X114016283Y-94642309D01*
X114078783Y-94642309D01*
X114078783Y-95142309D01*
X114083541Y-95166227D01*
X114117365Y-95200051D01*
X114165201Y-95200051D01*
X114199025Y-95166227D01*
X114203783Y-95142309D01*
X114203783Y-94924030D01*
X114251314Y-95025882D01*
X114260842Y-95038868D01*
X114261858Y-95041662D01*
X114263430Y-95042395D01*
X114265740Y-95045544D01*
X114285835Y-95052851D01*
X114305206Y-95061891D01*
X114307950Y-95060893D01*
X114310694Y-95061891D01*
X114330064Y-95052851D01*
X114350160Y-95045544D01*
X114352469Y-95042395D01*
X114354042Y-95041662D01*
X114355057Y-95038868D01*
X114364586Y-95025882D01*
X114412116Y-94924032D01*
X114412116Y-95142309D01*
X114416874Y-95166227D01*
X114450698Y-95200051D01*
X114498534Y-95200051D01*
X114532358Y-95166227D01*
X114537116Y-95142309D01*
X114537116Y-95094584D01*
X114631160Y-95094584D01*
X114631161Y-95142418D01*
X114631163Y-95142420D01*
X114644709Y-95162694D01*
X114668518Y-95186503D01*
X114688791Y-95200048D01*
X114688794Y-95200051D01*
X114736628Y-95200052D01*
X114736629Y-95200051D01*
X114736630Y-95200051D01*
X114736631Y-95200049D01*
X114756905Y-95186504D01*
X114780715Y-95162695D01*
X114794264Y-95142418D01*
X114794265Y-95094584D01*
X114794263Y-95094582D01*
X114780716Y-95074306D01*
X114756906Y-95050496D01*
X114736632Y-95036950D01*
X114736630Y-95036948D01*
X114736629Y-95036948D01*
X114736628Y-95036947D01*
X114688794Y-95036948D01*
X114668517Y-95050497D01*
X114644708Y-95074307D01*
X114631160Y-95094584D01*
X114537116Y-95094584D01*
X114537116Y-94642309D01*
X114888307Y-94642309D01*
X114888307Y-95142309D01*
X114893065Y-95166227D01*
X114926889Y-95200051D01*
X114974725Y-95200051D01*
X115008549Y-95166227D01*
X115013307Y-95142309D01*
X115013307Y-94966714D01*
X115141283Y-94966714D01*
X115144354Y-94966102D01*
X115145714Y-94966556D01*
X115155370Y-94963911D01*
X115165201Y-94961956D01*
X115166215Y-94960941D01*
X115169234Y-94960115D01*
X115216853Y-94936305D01*
X115224761Y-94930166D01*
X115233095Y-94924599D01*
X115256905Y-94900790D01*
X115262469Y-94892462D01*
X115268614Y-94884545D01*
X115292423Y-94836927D01*
X115293249Y-94833907D01*
X115294263Y-94832894D01*
X115296217Y-94823066D01*
X115298863Y-94813406D01*
X115298410Y-94812047D01*
X115299021Y-94808976D01*
X115364498Y-94808976D01*
X115364498Y-94975642D01*
X115365991Y-94983151D01*
X115366364Y-94990800D01*
X115390173Y-95086038D01*
X115393064Y-95092157D01*
X115393064Y-95094797D01*
X115397320Y-95101168D01*
X115400590Y-95108088D01*
X115402850Y-95109444D01*
X115406612Y-95115074D01*
X115454231Y-95162694D01*
X115462564Y-95168261D01*
X115470476Y-95174402D01*
X115518094Y-95198211D01*
X115521113Y-95199037D01*
X115522127Y-95200051D01*
X115531954Y-95202005D01*
X115541615Y-95204651D01*
X115542973Y-95204198D01*
X115546045Y-95204809D01*
X115641283Y-95204809D01*
X115644352Y-95204198D01*
X115645713Y-95204652D01*
X115655379Y-95202004D01*
X115665201Y-95200051D01*
X115666214Y-95199037D01*
X115669233Y-95198211D01*
X115716852Y-95174402D01*
X115724760Y-95168263D01*
X115733097Y-95162694D01*
X115780716Y-95115074D01*
X115784475Y-95109446D01*
X115786738Y-95108089D01*
X115790010Y-95101162D01*
X115794263Y-95094797D01*
X115794263Y-95092160D01*
X115797155Y-95086039D01*
X115820965Y-94990801D01*
X115821337Y-94983151D01*
X115822831Y-94975642D01*
X115822831Y-94808976D01*
X115821337Y-94801466D01*
X115820965Y-94793817D01*
X115797155Y-94698579D01*
X115794263Y-94692457D01*
X115794263Y-94689821D01*
X115790011Y-94683457D01*
X115786738Y-94676529D01*
X115784474Y-94675171D01*
X115780715Y-94669544D01*
X115753480Y-94642309D01*
X115912117Y-94642309D01*
X115912117Y-95142309D01*
X115916875Y-95166227D01*
X115950699Y-95200051D01*
X115998535Y-95200051D01*
X116032359Y-95166227D01*
X116037117Y-95142309D01*
X116037117Y-94924030D01*
X116084648Y-95025882D01*
X116094176Y-95038868D01*
X116095192Y-95041662D01*
X116096764Y-95042395D01*
X116099074Y-95045544D01*
X116119169Y-95052851D01*
X116138540Y-95061891D01*
X116141284Y-95060893D01*
X116144028Y-95061891D01*
X116163398Y-95052851D01*
X116183494Y-95045544D01*
X116185803Y-95042395D01*
X116187376Y-95041662D01*
X116188391Y-95038868D01*
X116197920Y-95025882D01*
X116245450Y-94924032D01*
X116245450Y-95142309D01*
X116250208Y-95166227D01*
X116284032Y-95200051D01*
X116331868Y-95200051D01*
X116365692Y-95166227D01*
X116370450Y-95142309D01*
X116370450Y-94642309D01*
X116483546Y-94642309D01*
X116483546Y-95142309D01*
X116488304Y-95166227D01*
X116522128Y-95200051D01*
X116569964Y-95200051D01*
X116603788Y-95166227D01*
X116608546Y-95142309D01*
X116608546Y-94924030D01*
X116656077Y-95025882D01*
X116665605Y-95038868D01*
X116666621Y-95041662D01*
X116668193Y-95042395D01*
X116670503Y-95045544D01*
X116690598Y-95052851D01*
X116709969Y-95061891D01*
X116712713Y-95060893D01*
X116715457Y-95061891D01*
X116734827Y-95052851D01*
X116754923Y-95045544D01*
X116757232Y-95042395D01*
X116758805Y-95041662D01*
X116759820Y-95038868D01*
X116769349Y-95025882D01*
X116816879Y-94924032D01*
X116816879Y-95142309D01*
X116821637Y-95166227D01*
X116855461Y-95200051D01*
X116903297Y-95200051D01*
X116937121Y-95166227D01*
X116941879Y-95142309D01*
X116941879Y-94642309D01*
X117054975Y-94642309D01*
X117054975Y-95142309D01*
X117059733Y-95166225D01*
X117059733Y-95166227D01*
X117093557Y-95200051D01*
X117117475Y-95204809D01*
X117355570Y-95204809D01*
X117379488Y-95200051D01*
X117413312Y-95166227D01*
X117413312Y-95118391D01*
X117379488Y-95084567D01*
X117355570Y-95079809D01*
X117179975Y-95079809D01*
X117179975Y-94942904D01*
X117284142Y-94942904D01*
X117308060Y-94938146D01*
X117341884Y-94904322D01*
X117341884Y-94856486D01*
X117308060Y-94822662D01*
X117284142Y-94817904D01*
X117179975Y-94817904D01*
X117179975Y-94704809D01*
X117355570Y-94704809D01*
X117379488Y-94700051D01*
X117413312Y-94666227D01*
X117413312Y-94642309D01*
X117507356Y-94642309D01*
X117507356Y-95142309D01*
X117512114Y-95166227D01*
X117545938Y-95200051D01*
X117593774Y-95200051D01*
X117627598Y-95166227D01*
X117632356Y-95142309D01*
X117632356Y-94966714D01*
X117656363Y-94966714D01*
X117804368Y-95178151D01*
X117821982Y-95195016D01*
X117869089Y-95203329D01*
X117908277Y-95175897D01*
X117916590Y-95128791D01*
X117906772Y-95106468D01*
X117800166Y-94954173D01*
X117835902Y-94936305D01*
X117843810Y-94930166D01*
X117852144Y-94924599D01*
X117875954Y-94900790D01*
X117881518Y-94892462D01*
X117887663Y-94884545D01*
X117911472Y-94836927D01*
X117912298Y-94833907D01*
X117913312Y-94832894D01*
X117915266Y-94823066D01*
X117917912Y-94813406D01*
X117917459Y-94812047D01*
X117918070Y-94808976D01*
X117918070Y-94737547D01*
X117917459Y-94734475D01*
X117917912Y-94733117D01*
X117915266Y-94723456D01*
X117913312Y-94713629D01*
X117912298Y-94712615D01*
X117911472Y-94709596D01*
X117887663Y-94661978D01*
X117881518Y-94654060D01*
X117880897Y-94653130D01*
X117936872Y-94653130D01*
X117945699Y-94675864D01*
X118102594Y-94922414D01*
X118102594Y-95142309D01*
X118107352Y-95166227D01*
X118141176Y-95200051D01*
X118189012Y-95200051D01*
X118222836Y-95166227D01*
X118227594Y-95142309D01*
X118227594Y-94922414D01*
X118384490Y-94675863D01*
X118393317Y-94653130D01*
X118382940Y-94606435D01*
X118342583Y-94580753D01*
X118295888Y-94591130D01*
X118279032Y-94608754D01*
X118165094Y-94787798D01*
X118051157Y-94608754D01*
X118034302Y-94591130D01*
X117987607Y-94580753D01*
X117947249Y-94606435D01*
X117936872Y-94653130D01*
X117880897Y-94653130D01*
X117875954Y-94645733D01*
X117852144Y-94621924D01*
X117843810Y-94616356D01*
X117835902Y-94610218D01*
X117788283Y-94586408D01*
X117785264Y-94585581D01*
X117784250Y-94584567D01*
X117774419Y-94582611D01*
X117764763Y-94579967D01*
X117763403Y-94580420D01*
X117760332Y-94579809D01*
X117569856Y-94579809D01*
X117545938Y-94584567D01*
X117512114Y-94618391D01*
X117507356Y-94642309D01*
X117413312Y-94642309D01*
X117413312Y-94618391D01*
X117379488Y-94584567D01*
X117355570Y-94579809D01*
X117117475Y-94579809D01*
X117093557Y-94584567D01*
X117059733Y-94618391D01*
X117054975Y-94642309D01*
X116941879Y-94642309D01*
X116937121Y-94618391D01*
X116929267Y-94610537D01*
X116925471Y-94600098D01*
X116913015Y-94594285D01*
X116903297Y-94584567D01*
X116892190Y-94584567D01*
X116882123Y-94579869D01*
X116869204Y-94584567D01*
X116855461Y-94584567D01*
X116847608Y-94592419D01*
X116837169Y-94596216D01*
X116822743Y-94615878D01*
X116712712Y-94851658D01*
X116602682Y-94615879D01*
X116588256Y-94596217D01*
X116577818Y-94592421D01*
X116569964Y-94584567D01*
X116556219Y-94584567D01*
X116543302Y-94579870D01*
X116533237Y-94584567D01*
X116522128Y-94584567D01*
X116512407Y-94594287D01*
X116499954Y-94600099D01*
X116496158Y-94610536D01*
X116488304Y-94618391D01*
X116483546Y-94642309D01*
X116370450Y-94642309D01*
X116365692Y-94618391D01*
X116357838Y-94610537D01*
X116354042Y-94600098D01*
X116341586Y-94594285D01*
X116331868Y-94584567D01*
X116320761Y-94584567D01*
X116310694Y-94579869D01*
X116297775Y-94584567D01*
X116284032Y-94584567D01*
X116276179Y-94592419D01*
X116265740Y-94596216D01*
X116251314Y-94615878D01*
X116141283Y-94851658D01*
X116031253Y-94615879D01*
X116016827Y-94596217D01*
X116006389Y-94592421D01*
X115998535Y-94584567D01*
X115984790Y-94584567D01*
X115971873Y-94579870D01*
X115961808Y-94584567D01*
X115950699Y-94584567D01*
X115940978Y-94594287D01*
X115928525Y-94600099D01*
X115924729Y-94610536D01*
X115916875Y-94618391D01*
X115912117Y-94642309D01*
X115753480Y-94642309D01*
X115733096Y-94621925D01*
X115724764Y-94616358D01*
X115716853Y-94610218D01*
X115669234Y-94586408D01*
X115666215Y-94585581D01*
X115665201Y-94584567D01*
X115655370Y-94582611D01*
X115645714Y-94579967D01*
X115644354Y-94580420D01*
X115641283Y-94579809D01*
X115546045Y-94579809D01*
X115542973Y-94580420D01*
X115541614Y-94579967D01*
X115531952Y-94582612D01*
X115522127Y-94584567D01*
X115521113Y-94585580D01*
X115518094Y-94586407D01*
X115470475Y-94610218D01*
X115462563Y-94616358D01*
X115454232Y-94621925D01*
X115406613Y-94669544D01*
X115402852Y-94675172D01*
X115400590Y-94676530D01*
X115397318Y-94683454D01*
X115393065Y-94689821D01*
X115393065Y-94692458D01*
X115390173Y-94698580D01*
X115366364Y-94793818D01*
X115365991Y-94801466D01*
X115364498Y-94808976D01*
X115299021Y-94808976D01*
X115299021Y-94737547D01*
X115298410Y-94734475D01*
X115298863Y-94733117D01*
X115296217Y-94723456D01*
X115294263Y-94713629D01*
X115293249Y-94712615D01*
X115292423Y-94709596D01*
X115268614Y-94661978D01*
X115262469Y-94654060D01*
X115256905Y-94645733D01*
X115233095Y-94621924D01*
X115224761Y-94616356D01*
X115216853Y-94610218D01*
X115169234Y-94586408D01*
X115166215Y-94585581D01*
X115165201Y-94584567D01*
X115155370Y-94582611D01*
X115145714Y-94579967D01*
X115144354Y-94580420D01*
X115141283Y-94579809D01*
X114950807Y-94579809D01*
X114926889Y-94584567D01*
X114893065Y-94618391D01*
X114888307Y-94642309D01*
X114537116Y-94642309D01*
X114532358Y-94618391D01*
X114524504Y-94610537D01*
X114520708Y-94600098D01*
X114508252Y-94594285D01*
X114498534Y-94584567D01*
X114487427Y-94584567D01*
X114477360Y-94579869D01*
X114464441Y-94584567D01*
X114450698Y-94584567D01*
X114442845Y-94592419D01*
X114432406Y-94596216D01*
X114417980Y-94615878D01*
X114307949Y-94851658D01*
X114197919Y-94615879D01*
X114183493Y-94596217D01*
X114173055Y-94592421D01*
X114165201Y-94584567D01*
X114151456Y-94584567D01*
X114138539Y-94579870D01*
X114128474Y-94584567D01*
X114117365Y-94584567D01*
X114107644Y-94594287D01*
X114095191Y-94600099D01*
X114091395Y-94610536D01*
X114083541Y-94618391D01*
X114078783Y-94642309D01*
X114016283Y-94642309D01*
X114016283Y-94517309D01*
X118455817Y-94517309D01*
X118455817Y-95267309D01*
G37*
D11*
%TO.C,G\u002A\u002A\u002A*%
G36*
X140635989Y-96016609D02*
G01*
X140633448Y-96019149D01*
X140630908Y-96016609D01*
X140633448Y-96014068D01*
X140635989Y-96016609D01*
G37*
G36*
X140441316Y-96129133D02*
G01*
X140440370Y-96130932D01*
X140435582Y-96135784D01*
X140434689Y-96136013D01*
X140434342Y-96132731D01*
X140435289Y-96130932D01*
X140440076Y-96126079D01*
X140440969Y-96125851D01*
X140441316Y-96129133D01*
G37*
G36*
X141775731Y-99404301D02*
G01*
X141923476Y-99405647D01*
X141950297Y-99483132D01*
X141977117Y-99560618D01*
X141776547Y-99560618D01*
X141732522Y-99560562D01*
X141691839Y-99560403D01*
X141655579Y-99560154D01*
X141624825Y-99559826D01*
X141600661Y-99559433D01*
X141584168Y-99558985D01*
X141576429Y-99558495D01*
X141575977Y-99558342D01*
X141577528Y-99553002D01*
X141581815Y-99539723D01*
X141588282Y-99520184D01*
X141596377Y-99496063D01*
X141601982Y-99479511D01*
X141627987Y-99402955D01*
X141775731Y-99404301D01*
G37*
G36*
X139398295Y-97907178D02*
G01*
X139407914Y-97915286D01*
X139421044Y-97927668D01*
X139436063Y-97942667D01*
X139451350Y-97958625D01*
X139465282Y-97973882D01*
X139476238Y-97986782D01*
X139482595Y-97995665D01*
X139482737Y-97995924D01*
X139485642Y-98004055D01*
X139481843Y-98004853D01*
X139471561Y-97998418D01*
X139455021Y-97984853D01*
X139451430Y-97981692D01*
X139427844Y-97959459D01*
X139409669Y-97939651D01*
X139397617Y-97923219D01*
X139392404Y-97911113D01*
X139393810Y-97905004D01*
X139398295Y-97907178D01*
G37*
G36*
X140614295Y-96028156D02*
G01*
X140600563Y-96036589D01*
X140578092Y-96049892D01*
X140547168Y-96067910D01*
X140522477Y-96082266D01*
X140499587Y-96095653D01*
X140480573Y-96106851D01*
X140467514Y-96114638D01*
X140464601Y-96116414D01*
X140454090Y-96122309D01*
X140448352Y-96124358D01*
X140447991Y-96124032D01*
X140452155Y-96120073D01*
X140463540Y-96112177D01*
X140480488Y-96101348D01*
X140501340Y-96088592D01*
X140524438Y-96074911D01*
X140548124Y-96061310D01*
X140570738Y-96048794D01*
X140583142Y-96042202D01*
X140603713Y-96031617D01*
X140615805Y-96025717D01*
X140619354Y-96024548D01*
X140614295Y-96028156D01*
G37*
G36*
X139278627Y-97546695D02*
G01*
X139281692Y-97550274D01*
X139287170Y-97561366D01*
X139291615Y-97576760D01*
X139292212Y-97579919D01*
X139295222Y-97592505D01*
X139301082Y-97612746D01*
X139309159Y-97638753D01*
X139318817Y-97668636D01*
X139329422Y-97700503D01*
X139340339Y-97732466D01*
X139350935Y-97762633D01*
X139360574Y-97789115D01*
X139368621Y-97810022D01*
X139372768Y-97819880D01*
X139379380Y-97835492D01*
X139383544Y-97846983D01*
X139384370Y-97851698D01*
X139380949Y-97848638D01*
X139373423Y-97838904D01*
X139363200Y-97824356D01*
X139359330Y-97818600D01*
X139325329Y-97760756D01*
X139299678Y-97702410D01*
X139282757Y-97644679D01*
X139274947Y-97588681D01*
X139274438Y-97569196D01*
X139274787Y-97553564D01*
X139275989Y-97546571D01*
X139278627Y-97546695D01*
G37*
G36*
X141776861Y-98982413D02*
G01*
X141779009Y-98987571D01*
X141783911Y-99000847D01*
X141791044Y-99020738D01*
X141799889Y-99045743D01*
X141809924Y-99074359D01*
X141820630Y-99105084D01*
X141831484Y-99136415D01*
X141841966Y-99166850D01*
X141851556Y-99194887D01*
X141859732Y-99219024D01*
X141865973Y-99237758D01*
X141869760Y-99249587D01*
X141870676Y-99253026D01*
X141865855Y-99253877D01*
X141852436Y-99254621D01*
X141831982Y-99255211D01*
X141806055Y-99255605D01*
X141776219Y-99255756D01*
X141774459Y-99255757D01*
X141678241Y-99255757D01*
X141692694Y-99213838D01*
X141699486Y-99194128D01*
X141708604Y-99167654D01*
X141719068Y-99137259D01*
X141729900Y-99105790D01*
X141735119Y-99090624D01*
X141747415Y-99054976D01*
X141756867Y-99027858D01*
X141763895Y-99008179D01*
X141768920Y-98994845D01*
X141772365Y-98986765D01*
X141774651Y-98982846D01*
X141776199Y-98981996D01*
X141776861Y-98982413D01*
G37*
G36*
X138872312Y-99024825D02*
G01*
X138875789Y-99029951D01*
X138883988Y-99042744D01*
X138896350Y-99062301D01*
X138912314Y-99087718D01*
X138931320Y-99118093D01*
X138952808Y-99152522D01*
X138976218Y-99190102D01*
X139000989Y-99229930D01*
X139026562Y-99271104D01*
X139052376Y-99312719D01*
X139077872Y-99353874D01*
X139102488Y-99393664D01*
X139125666Y-99431188D01*
X139146844Y-99465541D01*
X139165462Y-99495821D01*
X139180961Y-99521125D01*
X139192780Y-99540550D01*
X139200360Y-99553192D01*
X139203139Y-99558149D01*
X139203142Y-99558172D01*
X139198259Y-99558757D01*
X139184397Y-99559292D01*
X139162742Y-99559760D01*
X139134477Y-99560143D01*
X139100787Y-99560423D01*
X139062856Y-99560585D01*
X139035469Y-99560618D01*
X138867795Y-99560618D01*
X138867795Y-99290308D01*
X138867877Y-99234606D01*
X138868116Y-99183896D01*
X138868499Y-99138897D01*
X138869013Y-99100330D01*
X138869647Y-99068916D01*
X138870388Y-99045376D01*
X138871224Y-99030430D01*
X138872143Y-99024798D01*
X138872312Y-99024825D01*
G37*
G36*
X142190780Y-97380195D02*
G01*
X142190780Y-97410741D01*
X142026917Y-97491816D01*
X141986806Y-97511516D01*
X141947501Y-97530546D01*
X141910441Y-97548231D01*
X141877064Y-97563895D01*
X141848808Y-97576860D01*
X141827111Y-97586450D01*
X141815968Y-97591036D01*
X141792840Y-97600368D01*
X141770700Y-97610020D01*
X141753030Y-97618449D01*
X141747375Y-97621483D01*
X141729567Y-97630564D01*
X141711244Y-97638285D01*
X141706322Y-97639986D01*
X141689713Y-97645971D01*
X141674809Y-97652453D01*
X141673295Y-97653221D01*
X141660615Y-97658402D01*
X141651261Y-97660286D01*
X141643739Y-97662362D01*
X141628970Y-97668040D01*
X141608871Y-97676529D01*
X141585359Y-97687040D01*
X141577207Y-97690804D01*
X141544520Y-97705650D01*
X141520744Y-97715615D01*
X141505879Y-97720699D01*
X141499925Y-97720900D01*
X141502556Y-97716539D01*
X141508229Y-97713219D01*
X141521901Y-97706159D01*
X141542376Y-97695950D01*
X141568460Y-97683178D01*
X141598957Y-97668434D01*
X141632671Y-97652306D01*
X141641394Y-97648159D01*
X141675941Y-97631646D01*
X141707753Y-97616231D01*
X141735594Y-97602530D01*
X141758227Y-97591157D01*
X141774417Y-97582730D01*
X141782925Y-97577864D01*
X141783663Y-97577316D01*
X141790569Y-97572841D01*
X141805011Y-97564570D01*
X141825472Y-97553334D01*
X141850440Y-97539962D01*
X141878400Y-97525283D01*
X141883378Y-97522698D01*
X141923798Y-97501651D01*
X141955650Y-97484830D01*
X141979465Y-97471931D01*
X141995771Y-97462651D01*
X142005097Y-97456686D01*
X142007972Y-97453731D01*
X142004927Y-97453483D01*
X142003320Y-97453804D01*
X141997075Y-97454874D01*
X141995206Y-97454154D01*
X141998437Y-97451214D01*
X142007488Y-97445626D01*
X142023081Y-97436960D01*
X142045939Y-97424786D01*
X142076782Y-97408676D01*
X142095511Y-97398966D01*
X142190780Y-97349650D01*
X142190780Y-97380195D01*
G37*
G36*
X138767445Y-94764481D02*
G01*
X138911887Y-94764525D01*
X139046463Y-94764584D01*
X139171470Y-94764658D01*
X139287205Y-94764750D01*
X139393964Y-94764861D01*
X139492043Y-94764993D01*
X139581740Y-94765146D01*
X139663351Y-94765322D01*
X139737172Y-94765522D01*
X139803499Y-94765749D01*
X139862631Y-94766004D01*
X139914862Y-94766287D01*
X139960489Y-94766601D01*
X139999810Y-94766946D01*
X140033120Y-94767325D01*
X140060716Y-94767739D01*
X140082894Y-94768189D01*
X140099952Y-94768676D01*
X140112186Y-94769202D01*
X140119892Y-94769769D01*
X140123366Y-94770378D01*
X140122906Y-94771030D01*
X140122806Y-94771058D01*
X140107007Y-94776775D01*
X140086753Y-94786009D01*
X140066185Y-94796860D01*
X140064374Y-94797900D01*
X140047979Y-94807183D01*
X140024899Y-94819953D01*
X139997434Y-94834953D01*
X139967886Y-94850925D01*
X139944971Y-94863195D01*
X139814022Y-94936687D01*
X139690223Y-95014008D01*
X139570894Y-95096964D01*
X139453352Y-95187362D01*
X139406196Y-95226042D01*
X139323629Y-95296777D01*
X139249430Y-95364326D01*
X139182686Y-95429642D01*
X139122486Y-95493681D01*
X139067917Y-95557397D01*
X139018068Y-95621745D01*
X138988373Y-95663478D01*
X138973446Y-95686975D01*
X138955625Y-95717929D01*
X138935877Y-95754397D01*
X138915164Y-95794433D01*
X138894452Y-95836093D01*
X138874706Y-95877434D01*
X138856889Y-95916511D01*
X138841966Y-95951379D01*
X138830903Y-95980096D01*
X138829950Y-95982831D01*
X138808748Y-96054536D01*
X138794863Y-96124323D01*
X138788480Y-96190828D01*
X138789783Y-96252690D01*
X138791439Y-96268122D01*
X138804070Y-96332681D01*
X138825426Y-96394876D01*
X138855833Y-96455318D01*
X138895618Y-96514617D01*
X138945107Y-96573385D01*
X138966875Y-96596057D01*
X138984664Y-96613793D01*
X138998908Y-96627052D01*
X139011897Y-96637343D01*
X139025923Y-96646176D01*
X139043277Y-96655057D01*
X139066250Y-96665498D01*
X139084420Y-96673458D01*
X139134601Y-96694356D01*
X139180637Y-96711114D01*
X139224777Y-96724207D01*
X139269270Y-96734108D01*
X139316366Y-96741289D01*
X139368315Y-96746225D01*
X139427364Y-96749387D01*
X139448926Y-96750126D01*
X139554982Y-96753356D01*
X139489289Y-96821950D01*
X139465633Y-96847127D01*
X139441925Y-96873202D01*
X139420100Y-96897986D01*
X139402094Y-96919292D01*
X139392625Y-96931192D01*
X139375811Y-96952306D01*
X139357593Y-96973668D01*
X139341046Y-96991719D01*
X139335749Y-96997054D01*
X139322893Y-97010540D01*
X139313623Y-97022119D01*
X139309853Y-97029387D01*
X139309844Y-97029598D01*
X139311435Y-97033480D01*
X139317350Y-97030044D01*
X139320262Y-97027499D01*
X139330681Y-97018070D01*
X139320443Y-97041955D01*
X139315475Y-97055364D01*
X139313761Y-97064029D01*
X139314696Y-97065839D01*
X139316894Y-97070207D01*
X139314319Y-97083007D01*
X139307123Y-97103788D01*
X139295461Y-97132094D01*
X139281855Y-97162378D01*
X139252659Y-97233373D01*
X139231227Y-97302931D01*
X139223235Y-97338633D01*
X139221173Y-97355952D01*
X139219794Y-97381552D01*
X139219056Y-97413579D01*
X139218919Y-97450178D01*
X139219343Y-97489493D01*
X139220285Y-97529670D01*
X139221706Y-97568854D01*
X139223565Y-97605190D01*
X139225822Y-97636824D01*
X139228434Y-97661900D01*
X139230630Y-97675416D01*
X139244786Y-97730945D01*
X139263441Y-97782770D01*
X139287496Y-97832507D01*
X139317849Y-97881770D01*
X139355399Y-97932176D01*
X139401046Y-97985341D01*
X139406330Y-97991134D01*
X139434128Y-98020242D01*
X139460328Y-98044641D01*
X139486755Y-98065478D01*
X139515235Y-98083902D01*
X139547594Y-98101063D01*
X139585658Y-98118109D01*
X139631253Y-98136189D01*
X139645154Y-98141421D01*
X139696181Y-98159689D01*
X139741697Y-98174104D01*
X139785170Y-98185572D01*
X139830068Y-98195000D01*
X139879860Y-98203293D01*
X139884597Y-98204000D01*
X139915362Y-98208659D01*
X139946922Y-98213622D01*
X139975806Y-98218331D01*
X139998544Y-98222230D01*
X140000831Y-98222642D01*
X140020498Y-98225546D01*
X140042258Y-98227335D01*
X140067283Y-98227970D01*
X140096747Y-98227413D01*
X140131824Y-98225624D01*
X140173687Y-98222564D01*
X140223509Y-98218195D01*
X140269695Y-98213750D01*
X140300585Y-98210725D01*
X140328224Y-98208082D01*
X140350938Y-98205974D01*
X140367049Y-98204559D01*
X140374880Y-98203991D01*
X140375126Y-98203986D01*
X140381360Y-98201660D01*
X140381938Y-98200096D01*
X140377277Y-98198722D01*
X140364860Y-98198445D01*
X140347036Y-98199280D01*
X140340020Y-98199832D01*
X140311492Y-98202057D01*
X140282418Y-98203898D01*
X140254227Y-98205319D01*
X140228350Y-98206284D01*
X140206218Y-98206754D01*
X140189261Y-98206692D01*
X140178910Y-98206062D01*
X140176594Y-98204827D01*
X140178697Y-98204024D01*
X140189685Y-98202116D01*
X140208694Y-98199952D01*
X140233592Y-98197726D01*
X140262249Y-98195638D01*
X140282858Y-98194392D01*
X140311885Y-98192646D01*
X140337679Y-98190825D01*
X140358394Y-98189081D01*
X140372182Y-98187566D01*
X140376857Y-98186675D01*
X140384275Y-98185090D01*
X140399922Y-98182590D01*
X140421932Y-98179445D01*
X140448441Y-98175925D01*
X140468315Y-98173427D01*
X140496226Y-98169984D01*
X140520208Y-98166975D01*
X140542008Y-98164157D01*
X140563371Y-98161286D01*
X140586045Y-98158117D01*
X140611776Y-98154407D01*
X140642310Y-98149912D01*
X140679395Y-98144386D01*
X140724776Y-98137587D01*
X140724907Y-98137568D01*
X140853763Y-98113589D01*
X140983315Y-98080156D01*
X141114153Y-98037102D01*
X141205063Y-98001873D01*
X141250019Y-97983235D01*
X141296905Y-97963494D01*
X141344247Y-97943293D01*
X141390574Y-97923274D01*
X141434411Y-97904082D01*
X141474287Y-97886360D01*
X141508729Y-97870752D01*
X141536263Y-97857900D01*
X141550572Y-97850923D01*
X141573141Y-97839251D01*
X141600085Y-97824782D01*
X141629599Y-97808541D01*
X141659877Y-97791554D01*
X141689115Y-97774846D01*
X141715506Y-97759444D01*
X141737247Y-97746373D01*
X141752530Y-97736659D01*
X141756353Y-97734000D01*
X141768362Y-97726094D01*
X141785817Y-97715615D01*
X141805156Y-97704696D01*
X141807163Y-97703604D01*
X141829387Y-97690318D01*
X141852623Y-97674479D01*
X141870676Y-97660464D01*
X141888785Y-97645737D01*
X141907831Y-97631392D01*
X141921486Y-97621993D01*
X141934655Y-97613560D01*
X141943891Y-97607604D01*
X141946468Y-97605908D01*
X141945949Y-97601807D01*
X141945690Y-97601531D01*
X141939422Y-97601895D01*
X141926559Y-97607156D01*
X141908848Y-97616413D01*
X141888037Y-97628765D01*
X141869684Y-97640709D01*
X141853259Y-97650697D01*
X141838510Y-97657704D01*
X141829036Y-97660156D01*
X141820897Y-97659626D01*
X141821675Y-97656891D01*
X141827487Y-97652310D01*
X141834956Y-97647498D01*
X141849750Y-97638642D01*
X141870316Y-97626646D01*
X141895103Y-97612414D01*
X141922559Y-97596849D01*
X141925294Y-97595310D01*
X141952118Y-97580027D01*
X141975625Y-97566271D01*
X141994474Y-97554856D01*
X142007323Y-97546599D01*
X142012831Y-97542314D01*
X142012941Y-97542054D01*
X142009055Y-97541476D01*
X141999478Y-97545117D01*
X141997229Y-97546239D01*
X141984893Y-97551085D01*
X141978292Y-97550732D01*
X141978857Y-97545690D01*
X141982761Y-97541081D01*
X141989253Y-97536646D01*
X142003324Y-97528271D01*
X142023563Y-97516755D01*
X142048559Y-97502895D01*
X142076901Y-97487490D01*
X142089159Y-97480913D01*
X142188239Y-97427957D01*
X142189533Y-97961186D01*
X142189717Y-98049676D01*
X142189862Y-98146331D01*
X142189968Y-98249224D01*
X142190036Y-98356426D01*
X142190065Y-98466007D01*
X142190056Y-98576041D01*
X142190007Y-98684598D01*
X142189920Y-98789750D01*
X142189795Y-98889568D01*
X142189630Y-98982125D01*
X142189533Y-99025383D01*
X142188239Y-99556350D01*
X142042737Y-99163435D01*
X141897235Y-98770520D01*
X141778747Y-98770520D01*
X141660259Y-98770520D01*
X141514453Y-99164298D01*
X141368647Y-99558077D01*
X141271612Y-99559457D01*
X141174576Y-99560837D01*
X141174576Y-99484512D01*
X141174576Y-99408187D01*
X140989010Y-99408187D01*
X140803443Y-99408187D01*
X140804823Y-99310378D01*
X140806203Y-99212568D01*
X140977687Y-99211230D01*
X141149171Y-99209892D01*
X141149171Y-99133745D01*
X141149171Y-99057597D01*
X140976269Y-99057597D01*
X140803367Y-99057597D01*
X140804785Y-98990274D01*
X140806203Y-98922950D01*
X140990390Y-98921617D01*
X141174576Y-98920283D01*
X141174576Y-98844131D01*
X141174576Y-98767979D01*
X140887499Y-98767979D01*
X140600422Y-98767979D01*
X140600422Y-99164298D01*
X140600422Y-99560618D01*
X140365425Y-99560246D01*
X140310567Y-99560151D01*
X140265103Y-99560033D01*
X140228267Y-99559855D01*
X140199290Y-99559585D01*
X140177405Y-99559187D01*
X140161845Y-99558627D01*
X140151842Y-99557870D01*
X140146628Y-99556882D01*
X140145436Y-99555628D01*
X140147499Y-99554074D01*
X140152050Y-99552185D01*
X140155833Y-99550813D01*
X140203380Y-99530205D01*
X140245957Y-99504470D01*
X140282190Y-99474692D01*
X140310705Y-99441955D01*
X140325987Y-99416551D01*
X140342106Y-99373783D01*
X140349867Y-99329656D01*
X140349428Y-99285824D01*
X140340951Y-99243939D01*
X140324594Y-99205651D01*
X140302600Y-99174887D01*
X140282637Y-99155242D01*
X140259626Y-99137836D01*
X140232455Y-99122202D01*
X140200011Y-99107870D01*
X140161184Y-99094371D01*
X140114862Y-99081238D01*
X140059931Y-99068001D01*
X140036990Y-99062937D01*
X139993733Y-99053107D01*
X139959550Y-99044052D01*
X139933444Y-99035200D01*
X139914417Y-99025978D01*
X139901471Y-99015814D01*
X139893608Y-99004136D01*
X139889831Y-98990371D01*
X139889079Y-98978101D01*
X139893952Y-98954908D01*
X139908162Y-98934566D01*
X139931099Y-98917851D01*
X139939722Y-98913602D01*
X139962114Y-98906755D01*
X139991743Y-98902316D01*
X140025961Y-98900340D01*
X140062119Y-98900883D01*
X140097569Y-98903997D01*
X140129418Y-98909682D01*
X140171293Y-98922076D01*
X140213790Y-98938921D01*
X140252779Y-98958457D01*
X140273089Y-98970953D01*
X140288450Y-98979796D01*
X140302545Y-98985412D01*
X140308635Y-98986463D01*
X140321200Y-98986463D01*
X140319813Y-98896275D01*
X140318425Y-98806087D01*
X140280318Y-98792600D01*
X140229219Y-98776858D01*
X140177021Y-98765756D01*
X140121210Y-98758917D01*
X140059272Y-98755966D01*
X140033888Y-98755786D01*
X139988742Y-98756517D01*
X139951321Y-98758794D01*
X139919244Y-98763092D01*
X139890131Y-98769887D01*
X139861601Y-98779654D01*
X139831274Y-98792869D01*
X139819267Y-98798656D01*
X139774146Y-98825495D01*
X139737191Y-98857370D01*
X139708741Y-98893693D01*
X139689136Y-98933874D01*
X139678717Y-98977323D01*
X139677825Y-99023451D01*
X139679825Y-99040111D01*
X139690557Y-99084218D01*
X139708426Y-99122549D01*
X139733941Y-99155637D01*
X139767612Y-99184017D01*
X139809950Y-99208221D01*
X139859540Y-99228133D01*
X139877128Y-99233437D01*
X139902055Y-99240041D01*
X139931685Y-99247293D01*
X139963386Y-99254538D01*
X139982730Y-99258699D01*
X140021938Y-99267213D01*
X140052585Y-99274691D01*
X140076148Y-99281677D01*
X140094105Y-99288713D01*
X140107933Y-99296341D01*
X140119110Y-99305103D01*
X140124923Y-99310879D01*
X140135251Y-99324686D01*
X140139344Y-99339691D01*
X140139743Y-99349247D01*
X140137220Y-99370329D01*
X140128673Y-99386900D01*
X140112638Y-99400947D01*
X140093778Y-99411532D01*
X140081737Y-99417203D01*
X140071157Y-99421155D01*
X140059829Y-99423698D01*
X140045546Y-99425141D01*
X140026099Y-99425795D01*
X139999281Y-99425967D01*
X139990700Y-99425971D01*
X139958098Y-99425674D01*
X139932824Y-99424597D01*
X139912057Y-99422457D01*
X139892972Y-99418972D01*
X139874666Y-99414389D01*
X139814441Y-99394018D01*
X139757851Y-99366378D01*
X139726192Y-99346987D01*
X139708130Y-99335742D01*
X139692494Y-99327088D01*
X139681727Y-99322331D01*
X139679193Y-99321810D01*
X139676185Y-99322633D01*
X139673968Y-99325984D01*
X139672423Y-99333184D01*
X139671431Y-99345556D01*
X139670876Y-99364421D01*
X139670637Y-99391101D01*
X139670596Y-99417984D01*
X139670596Y-99514158D01*
X139699812Y-99525089D01*
X139719559Y-99532061D01*
X139744020Y-99540116D01*
X139768126Y-99547589D01*
X139769676Y-99548049D01*
X139810324Y-99560077D01*
X139608353Y-99560347D01*
X139406383Y-99560618D01*
X139406383Y-99164298D01*
X139406383Y-98767979D01*
X139312436Y-98767979D01*
X139218490Y-98767979D01*
X139217167Y-98995054D01*
X139215845Y-99222128D01*
X139071036Y-98995137D01*
X138926227Y-98768147D01*
X138803012Y-98768063D01*
X138679798Y-98767979D01*
X138679798Y-99164298D01*
X138679798Y-99560618D01*
X138540070Y-99560618D01*
X138400342Y-99560618D01*
X138400342Y-99484402D01*
X138400342Y-99408187D01*
X138214885Y-99408187D01*
X138029427Y-99408187D01*
X138029427Y-99309107D01*
X138029427Y-99210028D01*
X138202182Y-99210028D01*
X138374937Y-99210028D01*
X138374937Y-99133812D01*
X138374937Y-99057597D01*
X138202182Y-99057597D01*
X138029427Y-99057597D01*
X138029427Y-98989003D01*
X138029427Y-98920410D01*
X138214885Y-98920410D01*
X138400342Y-98920410D01*
X138400342Y-98844194D01*
X138400342Y-98767979D01*
X138113264Y-98767979D01*
X137826187Y-98767979D01*
X137826187Y-99164298D01*
X137826187Y-99560618D01*
X137607703Y-99560618D01*
X137389219Y-99560618D01*
X137389219Y-97162378D01*
X137389219Y-94764138D01*
X138767445Y-94764481D01*
G37*
G36*
X140967440Y-94763993D02*
G01*
X141061836Y-94764050D01*
X141165377Y-94764108D01*
X141278539Y-94764138D01*
X141294391Y-94764138D01*
X142190800Y-94764138D01*
X142189519Y-96047772D01*
X142188239Y-97331406D01*
X141984999Y-97429690D01*
X141932941Y-97454765D01*
X141889225Y-97475568D01*
X141853116Y-97492393D01*
X141823877Y-97505534D01*
X141800773Y-97515286D01*
X141783068Y-97521943D01*
X141770025Y-97525800D01*
X141760910Y-97527150D01*
X141754985Y-97526288D01*
X141751516Y-97523509D01*
X141751303Y-97523181D01*
X141745129Y-97522233D01*
X141732438Y-97526339D01*
X141724328Y-97530100D01*
X141704829Y-97538874D01*
X141682512Y-97547540D01*
X141672516Y-97550943D01*
X141659085Y-97555941D01*
X141638497Y-97564506D01*
X141612735Y-97575769D01*
X141583787Y-97588863D01*
X141553635Y-97602919D01*
X141553112Y-97603167D01*
X141514571Y-97621243D01*
X141479191Y-97637373D01*
X141445441Y-97652155D01*
X141411792Y-97666190D01*
X141376714Y-97680076D01*
X141338678Y-97694414D01*
X141296153Y-97709802D01*
X141247609Y-97726841D01*
X141191518Y-97746129D01*
X141166955Y-97754497D01*
X141147257Y-97761293D01*
X141121664Y-97770264D01*
X141093833Y-97780120D01*
X141072956Y-97787585D01*
X141011982Y-97807708D01*
X140947868Y-97825249D01*
X140879561Y-97840380D01*
X140806012Y-97853273D01*
X140726169Y-97864097D01*
X140638981Y-97873026D01*
X140543397Y-97880230D01*
X140483558Y-97883693D01*
X140446548Y-97885594D01*
X140417621Y-97886935D01*
X140394717Y-97887714D01*
X140375773Y-97887927D01*
X140358725Y-97887571D01*
X140341513Y-97886642D01*
X140322073Y-97885138D01*
X140302284Y-97883407D01*
X140273996Y-97879906D01*
X140250021Y-97875050D01*
X140231959Y-97869308D01*
X140221412Y-97863147D01*
X140219345Y-97859146D01*
X140223660Y-97857138D01*
X140235378Y-97859261D01*
X140238399Y-97860157D01*
X140251249Y-97862372D01*
X140273696Y-97864094D01*
X140305186Y-97865300D01*
X140345165Y-97865966D01*
X140376857Y-97866099D01*
X140416504Y-97866021D01*
X140448221Y-97865634D01*
X140474237Y-97864713D01*
X140496785Y-97863028D01*
X140518096Y-97860353D01*
X140540400Y-97856459D01*
X140565928Y-97851120D01*
X140596911Y-97844108D01*
X140600422Y-97843300D01*
X140609661Y-97840977D01*
X140611134Y-97839671D01*
X140604003Y-97838997D01*
X140590260Y-97838627D01*
X140575687Y-97838779D01*
X140553385Y-97839569D01*
X140525758Y-97840888D01*
X140495209Y-97842625D01*
X140474775Y-97843936D01*
X140441809Y-97846039D01*
X140416240Y-97847234D01*
X140395334Y-97847426D01*
X140376358Y-97846519D01*
X140356578Y-97844420D01*
X140333261Y-97841033D01*
X140317263Y-97838478D01*
X140244201Y-97826480D01*
X140180379Y-97815676D01*
X140125944Y-97806094D01*
X140081045Y-97797759D01*
X140045832Y-97790700D01*
X140020453Y-97784944D01*
X140009947Y-97782110D01*
X139989728Y-97775252D01*
X139962740Y-97764931D01*
X139931345Y-97752146D01*
X139897904Y-97737895D01*
X139864778Y-97723178D01*
X139834328Y-97708994D01*
X139816752Y-97700363D01*
X139785444Y-97680552D01*
X139752850Y-97652593D01*
X139720581Y-97618081D01*
X139690253Y-97578606D01*
X139683867Y-97569212D01*
X139659144Y-97530678D01*
X139639979Y-97497073D01*
X139625625Y-97466011D01*
X139615337Y-97435106D01*
X139608370Y-97401975D01*
X139603976Y-97364230D01*
X139601412Y-97319488D01*
X139600869Y-97303751D01*
X139600110Y-97245533D01*
X139601960Y-97193396D01*
X139606922Y-97145689D01*
X139615496Y-97100756D01*
X139628185Y-97056946D01*
X139645490Y-97012604D01*
X139667912Y-96966076D01*
X139695953Y-96915710D01*
X139730115Y-96859852D01*
X139740415Y-96843674D01*
X139763522Y-96807906D01*
X139782253Y-96779807D01*
X139797523Y-96758365D01*
X139810246Y-96742572D01*
X139821336Y-96731420D01*
X139831707Y-96723898D01*
X139842274Y-96718997D01*
X139853951Y-96715709D01*
X139856923Y-96715068D01*
X139877299Y-96710299D01*
X139897216Y-96704791D01*
X139906025Y-96701945D01*
X139917654Y-96698762D01*
X139937212Y-96694410D01*
X139962592Y-96689315D01*
X139991688Y-96683905D01*
X140015609Y-96679741D01*
X140073050Y-96669475D01*
X140121044Y-96659598D01*
X140160289Y-96649906D01*
X140191480Y-96640195D01*
X140215317Y-96630259D01*
X140232496Y-96619895D01*
X140239157Y-96614141D01*
X140250786Y-96606562D01*
X140267523Y-96603591D01*
X140273966Y-96603438D01*
X140302739Y-96601269D01*
X140324845Y-96595119D01*
X140339025Y-96585417D01*
X140342354Y-96580294D01*
X140348885Y-96571057D01*
X140354935Y-96567899D01*
X140362538Y-96565724D01*
X140376423Y-96559962D01*
X140393878Y-96551758D01*
X140397829Y-96549789D01*
X140420756Y-96539133D01*
X140445665Y-96528916D01*
X140466182Y-96521675D01*
X140499242Y-96507349D01*
X140521830Y-96491542D01*
X140540347Y-96477517D01*
X140556600Y-96468958D01*
X140568858Y-96466614D01*
X140573983Y-96468905D01*
X140573781Y-96473738D01*
X140571944Y-96474773D01*
X140568460Y-96480641D01*
X140568617Y-96488749D01*
X140570902Y-96500703D01*
X140622499Y-96480543D01*
X140648233Y-96470607D01*
X140679454Y-96458731D01*
X140712101Y-96446450D01*
X140740319Y-96435964D01*
X140829851Y-96401132D01*
X140911487Y-96365620D01*
X140984593Y-96329731D01*
X141048535Y-96293769D01*
X141080208Y-96273641D01*
X141106156Y-96256881D01*
X141134883Y-96239202D01*
X141162192Y-96223150D01*
X141177117Y-96214837D01*
X141202295Y-96200913D01*
X141229511Y-96185313D01*
X141254045Y-96170758D01*
X141260954Y-96166520D01*
X141282155Y-96153861D01*
X141308446Y-96138892D01*
X141335836Y-96123859D01*
X141351840Y-96115375D01*
X141394682Y-96090347D01*
X141428405Y-96064404D01*
X141454053Y-96036661D01*
X141466571Y-96017797D01*
X141474378Y-96003452D01*
X141477350Y-95994425D01*
X141476044Y-95987421D01*
X141472691Y-95981664D01*
X141459707Y-95970698D01*
X141440320Y-95966273D01*
X141415861Y-95968337D01*
X141387659Y-95976836D01*
X141367981Y-95985773D01*
X141348436Y-95995172D01*
X141329092Y-96002902D01*
X141306862Y-96010032D01*
X141278657Y-96017631D01*
X141268575Y-96020159D01*
X141249024Y-96025372D01*
X141233114Y-96030286D01*
X141223593Y-96034033D01*
X141222450Y-96034752D01*
X141214873Y-96037738D01*
X141200412Y-96041133D01*
X141183247Y-96044043D01*
X141165276Y-96046942D01*
X141151179Y-96049863D01*
X141144265Y-96052068D01*
X141139095Y-96058475D01*
X141142843Y-96063658D01*
X141150442Y-96065237D01*
X141155921Y-96066146D01*
X141152707Y-96068705D01*
X141143944Y-96072203D01*
X141129273Y-96078305D01*
X141110640Y-96086958D01*
X141098215Y-96093154D01*
X141054989Y-96112841D01*
X141007188Y-96130091D01*
X141002717Y-96131489D01*
X140987873Y-96137116D01*
X140969990Y-96145279D01*
X140962582Y-96149058D01*
X140947491Y-96156208D01*
X140934906Y-96160671D01*
X140930475Y-96161418D01*
X140921505Y-96164827D01*
X140918991Y-96168250D01*
X140912920Y-96173224D01*
X140898821Y-96180121D01*
X140878494Y-96188284D01*
X140853741Y-96197059D01*
X140826363Y-96205790D01*
X140798161Y-96213822D01*
X140783338Y-96217609D01*
X140758749Y-96223619D01*
X140733425Y-96229824D01*
X140712287Y-96235021D01*
X140709689Y-96235661D01*
X140691049Y-96241091D01*
X140674733Y-96247262D01*
X140666731Y-96251365D01*
X140645214Y-96261698D01*
X140616387Y-96270280D01*
X140582999Y-96276795D01*
X140547801Y-96280927D01*
X140513542Y-96282361D01*
X140482972Y-96280779D01*
X140458841Y-96275867D01*
X140457522Y-96275411D01*
X140432320Y-96270479D01*
X140402079Y-96270997D01*
X140370250Y-96276830D01*
X140362544Y-96279073D01*
X140350737Y-96282062D01*
X140343892Y-96282437D01*
X140343545Y-96282230D01*
X140346791Y-96278869D01*
X140357291Y-96271084D01*
X140373648Y-96259784D01*
X140394466Y-96245882D01*
X140418350Y-96230286D01*
X140443903Y-96213908D01*
X140469729Y-96197657D01*
X140494433Y-96182445D01*
X140516619Y-96169182D01*
X140519125Y-96167718D01*
X140578159Y-96132775D01*
X140629846Y-96100826D01*
X140676051Y-96070579D01*
X140718642Y-96040740D01*
X140759484Y-96010016D01*
X140800444Y-95977115D01*
X140829631Y-95952570D01*
X140849102Y-95936963D01*
X140870976Y-95920931D01*
X140885668Y-95911073D01*
X140905459Y-95897844D01*
X140916214Y-95888890D01*
X140917900Y-95884253D01*
X140910480Y-95883980D01*
X140906979Y-95884645D01*
X140897664Y-95886231D01*
X140897028Y-95884504D01*
X140901032Y-95881038D01*
X140912692Y-95872357D01*
X140918815Y-95868115D01*
X140923626Y-95864436D01*
X140920422Y-95864696D01*
X140912904Y-95867167D01*
X140898288Y-95873413D01*
X140875100Y-95884994D01*
X140843395Y-95901878D01*
X140803233Y-95924035D01*
X140754670Y-95951435D01*
X140742690Y-95958263D01*
X140710280Y-95976619D01*
X140683997Y-95991217D01*
X140664189Y-96001910D01*
X140651202Y-96008553D01*
X140645383Y-96010996D01*
X140647078Y-96009095D01*
X140656635Y-96002701D01*
X140674399Y-95991667D01*
X140699501Y-95976571D01*
X140718398Y-95964828D01*
X140733492Y-95954499D01*
X140742947Y-95946900D01*
X140745231Y-95943815D01*
X140749923Y-95936034D01*
X140763791Y-95924823D01*
X140786525Y-95910387D01*
X140817811Y-95892936D01*
X140835691Y-95883592D01*
X140859351Y-95871004D01*
X140875893Y-95861332D01*
X140885012Y-95854948D01*
X140886402Y-95852223D01*
X140879756Y-95853528D01*
X140864770Y-95859234D01*
X140850726Y-95865338D01*
X140829665Y-95874632D01*
X140803850Y-95885791D01*
X140777929Y-95896812D01*
X140770636Y-95899872D01*
X140722839Y-95920943D01*
X140675327Y-95943908D01*
X140631497Y-95967067D01*
X140601726Y-95984372D01*
X140583115Y-95995166D01*
X140558646Y-96008499D01*
X140531657Y-96022587D01*
X140508267Y-96034294D01*
X140483129Y-96047047D01*
X140458831Y-96060209D01*
X140438199Y-96072200D01*
X140424430Y-96081168D01*
X140406481Y-96093540D01*
X140387384Y-96105574D01*
X140369173Y-96116128D01*
X140353883Y-96124061D01*
X140343550Y-96128232D01*
X140340357Y-96128305D01*
X140335470Y-96130047D01*
X140323225Y-96136284D01*
X140304953Y-96146246D01*
X140281987Y-96159159D01*
X140255657Y-96174252D01*
X140227295Y-96190753D01*
X140198234Y-96207889D01*
X140169805Y-96224889D01*
X140143338Y-96240981D01*
X140120167Y-96255391D01*
X140110104Y-96261809D01*
X140088592Y-96276234D01*
X140063839Y-96293662D01*
X140040554Y-96310763D01*
X140036429Y-96313896D01*
X140015725Y-96329158D01*
X139998810Y-96339508D01*
X139982546Y-96346056D01*
X139963795Y-96349912D01*
X139939420Y-96352185D01*
X139925917Y-96352980D01*
X139905044Y-96353843D01*
X139892379Y-96353492D01*
X139886013Y-96351665D01*
X139884035Y-96348102D01*
X139883998Y-96347248D01*
X139887762Y-96341193D01*
X139899857Y-96339128D01*
X139900512Y-96339120D01*
X139915761Y-96336711D01*
X139933125Y-96330890D01*
X139937349Y-96328955D01*
X139957673Y-96318923D01*
X139929728Y-96321437D01*
X139911985Y-96323097D01*
X139888156Y-96325409D01*
X139862263Y-96327982D01*
X139850972Y-96329124D01*
X139832640Y-96330325D01*
X139805720Y-96331187D01*
X139771766Y-96331729D01*
X139732331Y-96331970D01*
X139688969Y-96331927D01*
X139643234Y-96331621D01*
X139596679Y-96331070D01*
X139550858Y-96330291D01*
X139507325Y-96329305D01*
X139467632Y-96328129D01*
X139433335Y-96326783D01*
X139405987Y-96325285D01*
X139387140Y-96323653D01*
X139386208Y-96323538D01*
X139363353Y-96320125D01*
X139349327Y-96316416D01*
X139342809Y-96311652D01*
X139342475Y-96305077D01*
X139344776Y-96299790D01*
X139346549Y-96289599D01*
X139339763Y-96280737D01*
X139323894Y-96272824D01*
X139298418Y-96265482D01*
X139296761Y-96265095D01*
X139258336Y-96256097D01*
X139228101Y-96248703D01*
X139204313Y-96242388D01*
X139185226Y-96236626D01*
X139169094Y-96230894D01*
X139154171Y-96224666D01*
X139139629Y-96217864D01*
X139102333Y-96198000D01*
X139071411Y-96177864D01*
X139048288Y-96158435D01*
X139040141Y-96149349D01*
X139030519Y-96132999D01*
X139025141Y-96112830D01*
X139023810Y-96087126D01*
X139026332Y-96054172D01*
X139027893Y-96042014D01*
X139031144Y-96018209D01*
X139034090Y-95996242D01*
X139036300Y-95979345D01*
X139037040Y-95973420D01*
X139039775Y-95961961D01*
X139045841Y-95942849D01*
X139054581Y-95917782D01*
X139065340Y-95888454D01*
X139077461Y-95856561D01*
X139090288Y-95823799D01*
X139103164Y-95791863D01*
X139115433Y-95762448D01*
X139126439Y-95737251D01*
X139135526Y-95717966D01*
X139137134Y-95714816D01*
X139147640Y-95696738D01*
X139162315Y-95674288D01*
X139179686Y-95649441D01*
X139198284Y-95624168D01*
X139216636Y-95600443D01*
X139233272Y-95580238D01*
X139246719Y-95565527D01*
X139252264Y-95560458D01*
X139260238Y-95552083D01*
X139271525Y-95537770D01*
X139284049Y-95520196D01*
X139287712Y-95514729D01*
X139306918Y-95488894D01*
X139333482Y-95458107D01*
X139366448Y-95423259D01*
X139404859Y-95385240D01*
X139447757Y-95344941D01*
X139494187Y-95303251D01*
X139543191Y-95261060D01*
X139593813Y-95219260D01*
X139645095Y-95178739D01*
X139666028Y-95162749D01*
X139780150Y-95079825D01*
X139892573Y-95005078D01*
X140005370Y-94937253D01*
X140120618Y-94875093D01*
X140223487Y-94825108D01*
X140239167Y-94817673D01*
X140253024Y-94810863D01*
X140265535Y-94804649D01*
X140277178Y-94799006D01*
X140288427Y-94793906D01*
X140299762Y-94789321D01*
X140311657Y-94785225D01*
X140324591Y-94781591D01*
X140339040Y-94778391D01*
X140355481Y-94775598D01*
X140374391Y-94773185D01*
X140396246Y-94771125D01*
X140421524Y-94769391D01*
X140450701Y-94767955D01*
X140484254Y-94766791D01*
X140522660Y-94765872D01*
X140566396Y-94765169D01*
X140615938Y-94764656D01*
X140671764Y-94764307D01*
X140734350Y-94764092D01*
X140804174Y-94763987D01*
X140881712Y-94763963D01*
X140967440Y-94763993D01*
G37*
D12*
%TO.C,C36*%
X122935995Y-92223751D02*
X123197247Y-91771249D01*
X124209053Y-92958751D02*
X124470305Y-92506249D01*
%TO.C,C14*%
X138957845Y-90491249D02*
X139219097Y-90943751D01*
X140230903Y-89756249D02*
X140492155Y-90208751D01*
D13*
%TO.C,J5*%
X140794129Y-83994873D02*
X144626291Y-81782373D01*
X144626291Y-81782373D02*
X146233871Y-82216783D01*
X145794129Y-92655127D02*
X140794129Y-83994873D01*
X146233871Y-82216783D02*
X150643871Y-89855127D01*
X150643871Y-89855127D02*
X145794129Y-92655127D01*
X146589208Y-83709039D02*
G75*
G02*
X146389208Y-83709039I-100000J0D01*
G01*
X146389208Y-83709039D02*
G75*
G02*
X146589208Y-83709039I100000J0D01*
G01*
D14*
%TO.C,J9*%
X114453615Y-100221028D02*
G75*
G02*
X114333415Y-100221028I-60100J0D01*
G01*
X114333415Y-100221028D02*
G75*
G02*
X114453615Y-100221028I60100J0D01*
G01*
D12*
%TO.C,C33*%
X130261252Y-102535000D02*
X129738748Y-102535000D01*
X130261252Y-104005000D02*
X129738748Y-104005000D01*
%TO.C,C32*%
X130261252Y-104540000D02*
X129738748Y-104540000D01*
X130261252Y-106010000D02*
X129738748Y-106010000D01*
D14*
%TO.C,J3*%
X141532258Y-107427886D02*
G75*
G02*
X141412058Y-107427886I-60100J0D01*
G01*
X141412058Y-107427886D02*
G75*
G02*
X141532258Y-107427886I60100J0D01*
G01*
D15*
%TO.C,D1*%
X124737501Y-100763990D02*
G75*
G02*
X124637499Y-100763990I-50001J0D01*
G01*
X124637499Y-100763990D02*
G75*
G02*
X124737501Y-100763990I50001J0D01*
G01*
D12*
%TO.C,U1*%
X125068648Y-97321352D02*
X125306148Y-96909990D01*
X125480010Y-97558852D02*
X125068648Y-97321352D01*
X128441148Y-91480010D02*
X128678648Y-91068648D01*
X128678648Y-91068648D02*
X129090010Y-91306148D01*
X131321352Y-100931352D02*
X130909990Y-100693852D01*
X131558852Y-100519990D02*
X131321352Y-100931352D01*
X134519990Y-94441148D02*
X134931352Y-94678648D01*
X134931352Y-94678648D02*
X134693852Y-95090010D01*
X125591276Y-98616134D02*
X125175584Y-98376134D01*
X125548430Y-98210345D01*
X125591276Y-98616134D01*
G36*
X125591276Y-98616134D02*
G01*
X125175584Y-98376134D01*
X125548430Y-98210345D01*
X125591276Y-98616134D01*
G37*
%TO.C,C29*%
X135509035Y-92470465D02*
X135770287Y-92922967D01*
X136782093Y-91735465D02*
X137043345Y-92187967D01*
D15*
%TO.C,LEDRED1*%
X137425000Y-111855000D02*
G75*
G02*
X137325000Y-111855000I-50000J0D01*
G01*
X137325000Y-111855000D02*
G75*
G02*
X137425000Y-111855000I50000J0D01*
G01*
D13*
%TO.C,J7*%
X125000000Y-111350000D02*
X135000000Y-111350000D01*
X125000000Y-116950000D02*
X125000000Y-111350000D01*
X133820000Y-116950000D02*
X125000000Y-116950000D01*
X135000000Y-111350000D02*
X135000000Y-115775000D01*
X135000000Y-115775000D02*
X133820000Y-116950000D01*
X132500000Y-116425000D02*
G75*
G02*
X132300000Y-116425000I-100000J0D01*
G01*
X132300000Y-116425000D02*
G75*
G02*
X132500000Y-116425000I100000J0D01*
G01*
D12*
%TO.C,C13*%
X119482845Y-90233751D02*
X119744097Y-89781249D01*
X120755903Y-90968751D02*
X121017155Y-90516249D01*
%TO.C,C30*%
X137232845Y-91491249D02*
X137494097Y-91943751D01*
X138505903Y-90756249D02*
X138767155Y-91208751D01*
D13*
%TO.C,J8*%
X109946129Y-88833217D02*
X114356129Y-81194873D01*
X110373709Y-90442627D02*
X109946129Y-88833217D01*
X114205871Y-92655127D02*
X110373709Y-90442627D01*
X114356129Y-81194873D02*
X119205871Y-83994873D01*
X119205871Y-83994873D02*
X114205871Y-92655127D01*
X111210792Y-87865961D02*
G75*
G02*
X111010792Y-87865961I-100000J0D01*
G01*
X111010792Y-87865961D02*
G75*
G02*
X111210792Y-87865961I100000J0D01*
G01*
D12*
%TO.C,C37*%
X121207845Y-91233751D02*
X121469097Y-90781249D01*
X122480903Y-91968751D02*
X122742155Y-91516249D01*
%TO.C,C12*%
X130261252Y-106540000D02*
X129738748Y-106540000D01*
X130261252Y-108010000D02*
X129738748Y-108010000D01*
D14*
%TO.C,J1*%
X134136100Y-80311785D02*
G75*
G02*
X134015900Y-80311785I-60100J0D01*
G01*
X134015900Y-80311785D02*
G75*
G02*
X134136100Y-80311785I60100J0D01*
G01*
%TD*%
M02*
