%TF.GenerationSoftware,KiCad,Pcbnew,9.0.6-rc1*%
%TF.CreationDate,2025-10-31T17:35:14+01:00*%
%TF.ProjectId,PCB_BRUSHED,5043425f-4252-4555-9348-45442e6b6963,rev?*%
%TF.SameCoordinates,Original*%
%TF.FileFunction,Legend,Bot*%
%TF.FilePolarity,Positive*%
%FSLAX46Y46*%
G04 Gerber Fmt 4.6, Leading zero omitted, Abs format (unit mm)*
G04 Created by KiCad (PCBNEW 9.0.6-rc1) date 2025-10-31 17:35:14*
%MOMM*%
%LPD*%
G01*
G04 APERTURE LIST*
%ADD10C,0.125000*%
%ADD11C,0.120000*%
%ADD12C,0.200000*%
%ADD13C,0.400000*%
%ADD14C,0.100000*%
%ADD15C,0.254000*%
G04 APERTURE END LIST*
D10*
G36*
X129483785Y-85032866D02*
G01*
X129511990Y-85061071D01*
X129529736Y-85132052D01*
X129529736Y-85283327D01*
X129511990Y-85354308D01*
X129483785Y-85382513D01*
X129458434Y-85395190D01*
X129392703Y-85395190D01*
X129367354Y-85382515D01*
X129339147Y-85354308D01*
X129321403Y-85283329D01*
X129321403Y-85132050D01*
X129339147Y-85061071D01*
X129367354Y-85032864D01*
X129392703Y-85020190D01*
X129458434Y-85020190D01*
X129483785Y-85032866D01*
G37*
G36*
X130388547Y-85032866D02*
G01*
X130416752Y-85061071D01*
X130434498Y-85132052D01*
X130434498Y-85283327D01*
X130416752Y-85354308D01*
X130388547Y-85382513D01*
X130363196Y-85395190D01*
X130297465Y-85395190D01*
X130272116Y-85382515D01*
X130243909Y-85354308D01*
X130226165Y-85283329D01*
X130226165Y-85132050D01*
X130243909Y-85061071D01*
X130272116Y-85032864D01*
X130297465Y-85020190D01*
X130363196Y-85020190D01*
X130388547Y-85032866D01*
G37*
G36*
X130912358Y-85270961D02*
G01*
X130921823Y-85280426D01*
X130934498Y-85305776D01*
X130934498Y-85347698D01*
X130921823Y-85373048D01*
X130912358Y-85382513D01*
X130887006Y-85395190D01*
X130773784Y-85395190D01*
X130773784Y-85258285D01*
X130887006Y-85258285D01*
X130912358Y-85270961D01*
G37*
G36*
X131598189Y-85582690D02*
G01*
X128586283Y-85582690D01*
X128586283Y-84957690D01*
X128648783Y-84957690D01*
X128648783Y-85457690D01*
X128653541Y-85481608D01*
X128661395Y-85489462D01*
X128665191Y-85499900D01*
X128677644Y-85505711D01*
X128687365Y-85515432D01*
X128698474Y-85515432D01*
X128708539Y-85520129D01*
X128721456Y-85515432D01*
X128735201Y-85515432D01*
X128743055Y-85507577D01*
X128753493Y-85503782D01*
X128767919Y-85484120D01*
X128877949Y-85248340D01*
X128987980Y-85484121D01*
X129002406Y-85503783D01*
X129012845Y-85507579D01*
X129020698Y-85515432D01*
X129034441Y-85515432D01*
X129047360Y-85520130D01*
X129057427Y-85515432D01*
X129068534Y-85515432D01*
X129078252Y-85505713D01*
X129090708Y-85499901D01*
X129094504Y-85489461D01*
X129102358Y-85481608D01*
X129107116Y-85457690D01*
X129107116Y-85124357D01*
X129196403Y-85124357D01*
X129196403Y-85291023D01*
X129197896Y-85298532D01*
X129198269Y-85306181D01*
X129222078Y-85401419D01*
X129224970Y-85407540D01*
X129224970Y-85410178D01*
X129229223Y-85416544D01*
X129232495Y-85423469D01*
X129234757Y-85424826D01*
X129238518Y-85430455D01*
X129286137Y-85478074D01*
X129294468Y-85483640D01*
X129302380Y-85489781D01*
X129349999Y-85513592D01*
X129353018Y-85514418D01*
X129354032Y-85515432D01*
X129363857Y-85517386D01*
X129373519Y-85520032D01*
X129374878Y-85519578D01*
X129377950Y-85520190D01*
X129473188Y-85520190D01*
X129476259Y-85519578D01*
X129477619Y-85520032D01*
X129487275Y-85517387D01*
X129497106Y-85515432D01*
X129498120Y-85514417D01*
X129501139Y-85513591D01*
X129548758Y-85489781D01*
X129556669Y-85483640D01*
X129565001Y-85478074D01*
X129609303Y-85433772D01*
X129677352Y-85433772D01*
X129677352Y-85481608D01*
X129711176Y-85515432D01*
X129735094Y-85520190D01*
X130020808Y-85520190D01*
X130044726Y-85515432D01*
X130078550Y-85481608D01*
X130078550Y-85433772D01*
X130044726Y-85399948D01*
X130020808Y-85395190D01*
X129940451Y-85395190D01*
X129940451Y-85124357D01*
X130101165Y-85124357D01*
X130101165Y-85291023D01*
X130102658Y-85298532D01*
X130103031Y-85306181D01*
X130126840Y-85401419D01*
X130129732Y-85407540D01*
X130129732Y-85410178D01*
X130133985Y-85416544D01*
X130137257Y-85423469D01*
X130139519Y-85424826D01*
X130143280Y-85430455D01*
X130190899Y-85478074D01*
X130199230Y-85483640D01*
X130207142Y-85489781D01*
X130254761Y-85513592D01*
X130257780Y-85514418D01*
X130258794Y-85515432D01*
X130268619Y-85517386D01*
X130278281Y-85520032D01*
X130279640Y-85519578D01*
X130282712Y-85520190D01*
X130377950Y-85520190D01*
X130381021Y-85519578D01*
X130382381Y-85520032D01*
X130392037Y-85517387D01*
X130401868Y-85515432D01*
X130402882Y-85514417D01*
X130405901Y-85513591D01*
X130453520Y-85489781D01*
X130461431Y-85483640D01*
X130469763Y-85478074D01*
X130517382Y-85430455D01*
X130521141Y-85424827D01*
X130523405Y-85423470D01*
X130526678Y-85416541D01*
X130530930Y-85410178D01*
X130530930Y-85407541D01*
X130533822Y-85401420D01*
X130557632Y-85306182D01*
X130558004Y-85298532D01*
X130559498Y-85291023D01*
X130559498Y-85124357D01*
X130558004Y-85116847D01*
X130557632Y-85109198D01*
X130533822Y-85013960D01*
X130530930Y-85007838D01*
X130530930Y-85005202D01*
X130526678Y-84998838D01*
X130523405Y-84991910D01*
X130521141Y-84990552D01*
X130517382Y-84984925D01*
X130490147Y-84957690D01*
X130648784Y-84957690D01*
X130648784Y-85457690D01*
X130653542Y-85481608D01*
X130687366Y-85515432D01*
X130711284Y-85520190D01*
X130901760Y-85520190D01*
X130904831Y-85519578D01*
X130906191Y-85520032D01*
X130915847Y-85517387D01*
X130925678Y-85515432D01*
X130926692Y-85514417D01*
X130929711Y-85513591D01*
X130977330Y-85489781D01*
X130985238Y-85483642D01*
X130993572Y-85478075D01*
X131017382Y-85454266D01*
X131022946Y-85445938D01*
X131029091Y-85438021D01*
X131052900Y-85390403D01*
X131053726Y-85387383D01*
X131054740Y-85386370D01*
X131056694Y-85376542D01*
X131059340Y-85366882D01*
X131058887Y-85365523D01*
X131059498Y-85362452D01*
X131059498Y-85291023D01*
X131058887Y-85287951D01*
X131059340Y-85286593D01*
X131056694Y-85276932D01*
X131054740Y-85267105D01*
X131053726Y-85266091D01*
X131052900Y-85263072D01*
X131029091Y-85215454D01*
X131022946Y-85207536D01*
X131017382Y-85199209D01*
X130993572Y-85175400D01*
X130985238Y-85169832D01*
X130977330Y-85163694D01*
X130941594Y-85145825D01*
X131048200Y-84993531D01*
X131058018Y-84971208D01*
X131051412Y-84933772D01*
X131105923Y-84933772D01*
X131105923Y-84981608D01*
X131105925Y-84981610D01*
X131119471Y-85001884D01*
X131394751Y-85277164D01*
X131410689Y-85324977D01*
X131410689Y-85347698D01*
X131398014Y-85373047D01*
X131388548Y-85382513D01*
X131363197Y-85395190D01*
X131273656Y-85395190D01*
X131248307Y-85382515D01*
X131231669Y-85365877D01*
X131211392Y-85352329D01*
X131163558Y-85352329D01*
X131129733Y-85386154D01*
X131129733Y-85433988D01*
X131143281Y-85454265D01*
X131167090Y-85478074D01*
X131175421Y-85483640D01*
X131183333Y-85489781D01*
X131230952Y-85513592D01*
X131233971Y-85514418D01*
X131234985Y-85515432D01*
X131244810Y-85517386D01*
X131254472Y-85520032D01*
X131255831Y-85519578D01*
X131258903Y-85520190D01*
X131377951Y-85520190D01*
X131381022Y-85519578D01*
X131382382Y-85520032D01*
X131392038Y-85517387D01*
X131401869Y-85515432D01*
X131402883Y-85514417D01*
X131405902Y-85513591D01*
X131453521Y-85489781D01*
X131461432Y-85483640D01*
X131469764Y-85478074D01*
X131493573Y-85454265D01*
X131499139Y-85445933D01*
X131505280Y-85438022D01*
X131529091Y-85390403D01*
X131529917Y-85387383D01*
X131530931Y-85386370D01*
X131532885Y-85376544D01*
X131535531Y-85366883D01*
X131535077Y-85365523D01*
X131535689Y-85362452D01*
X131535689Y-85314833D01*
X131533734Y-85305007D01*
X131532482Y-85295069D01*
X131508672Y-85223640D01*
X131507122Y-85220921D01*
X131507122Y-85219487D01*
X131501553Y-85211152D01*
X131496594Y-85202454D01*
X131495312Y-85201813D01*
X131493573Y-85199210D01*
X131314553Y-85020190D01*
X131473189Y-85020190D01*
X131497107Y-85015432D01*
X131530931Y-84981608D01*
X131530931Y-84933772D01*
X131497107Y-84899948D01*
X131473189Y-84895190D01*
X131163665Y-84895190D01*
X131139747Y-84899948D01*
X131105923Y-84933772D01*
X131051412Y-84933772D01*
X131049705Y-84924102D01*
X131010517Y-84896670D01*
X130963410Y-84904983D01*
X130945796Y-84921848D01*
X130797791Y-85133285D01*
X130773784Y-85133285D01*
X130773784Y-84957690D01*
X130769026Y-84933772D01*
X130735202Y-84899948D01*
X130687366Y-84899948D01*
X130653542Y-84933772D01*
X130648784Y-84957690D01*
X130490147Y-84957690D01*
X130469763Y-84937306D01*
X130461431Y-84931739D01*
X130453520Y-84925599D01*
X130405901Y-84901789D01*
X130402882Y-84900962D01*
X130401868Y-84899948D01*
X130392037Y-84897992D01*
X130382381Y-84895348D01*
X130381021Y-84895801D01*
X130377950Y-84895190D01*
X130282712Y-84895190D01*
X130279640Y-84895801D01*
X130278281Y-84895348D01*
X130268619Y-84897993D01*
X130258794Y-84899948D01*
X130257780Y-84900961D01*
X130254761Y-84901788D01*
X130207142Y-84925599D01*
X130199230Y-84931739D01*
X130190899Y-84937306D01*
X130143280Y-84984925D01*
X130139519Y-84990553D01*
X130137257Y-84991911D01*
X130133985Y-84998835D01*
X130129732Y-85005202D01*
X130129732Y-85007839D01*
X130126840Y-85013961D01*
X130103031Y-85109199D01*
X130102658Y-85116847D01*
X130101165Y-85124357D01*
X129940451Y-85124357D01*
X129940451Y-84957690D01*
X129935693Y-84933772D01*
X129901869Y-84899948D01*
X129854033Y-84899948D01*
X129820209Y-84933772D01*
X129815451Y-84957690D01*
X129815451Y-85395190D01*
X129735094Y-85395190D01*
X129711176Y-85399948D01*
X129677352Y-85433772D01*
X129609303Y-85433772D01*
X129612620Y-85430455D01*
X129616379Y-85424827D01*
X129618643Y-85423470D01*
X129621916Y-85416541D01*
X129626168Y-85410178D01*
X129626168Y-85407541D01*
X129629060Y-85401420D01*
X129652870Y-85306182D01*
X129653242Y-85298532D01*
X129654736Y-85291023D01*
X129654736Y-85124357D01*
X129653242Y-85116847D01*
X129652870Y-85109198D01*
X129629060Y-85013960D01*
X129626168Y-85007838D01*
X129626168Y-85005202D01*
X129621916Y-84998838D01*
X129618643Y-84991910D01*
X129616379Y-84990552D01*
X129612620Y-84984925D01*
X129565001Y-84937306D01*
X129556669Y-84931739D01*
X129548758Y-84925599D01*
X129501139Y-84901789D01*
X129498120Y-84900962D01*
X129497106Y-84899948D01*
X129487275Y-84897992D01*
X129477619Y-84895348D01*
X129476259Y-84895801D01*
X129473188Y-84895190D01*
X129377950Y-84895190D01*
X129374878Y-84895801D01*
X129373519Y-84895348D01*
X129363857Y-84897993D01*
X129354032Y-84899948D01*
X129353018Y-84900961D01*
X129349999Y-84901788D01*
X129302380Y-84925599D01*
X129294468Y-84931739D01*
X129286137Y-84937306D01*
X129238518Y-84984925D01*
X129234757Y-84990553D01*
X129232495Y-84991911D01*
X129229223Y-84998835D01*
X129224970Y-85005202D01*
X129224970Y-85007839D01*
X129222078Y-85013961D01*
X129198269Y-85109199D01*
X129197896Y-85116847D01*
X129196403Y-85124357D01*
X129107116Y-85124357D01*
X129107116Y-84957690D01*
X129102358Y-84933772D01*
X129068534Y-84899948D01*
X129020698Y-84899948D01*
X128986874Y-84933772D01*
X128982116Y-84957690D01*
X128982116Y-85175966D01*
X128934586Y-85074117D01*
X128925057Y-85061130D01*
X128924042Y-85058337D01*
X128922469Y-85057603D01*
X128920160Y-85054455D01*
X128900064Y-85047147D01*
X128880694Y-85038108D01*
X128877950Y-85039105D01*
X128875206Y-85038108D01*
X128855835Y-85047147D01*
X128835740Y-85054455D01*
X128833430Y-85057603D01*
X128831858Y-85058337D01*
X128830842Y-85061130D01*
X128821314Y-85074117D01*
X128773783Y-85175968D01*
X128773783Y-84957690D01*
X128769025Y-84933772D01*
X128735201Y-84899948D01*
X128687365Y-84899948D01*
X128653541Y-84933772D01*
X128648783Y-84957690D01*
X128586283Y-84957690D01*
X128586283Y-84832690D01*
X131598189Y-84832690D01*
X131598189Y-85582690D01*
G37*
G36*
X120889635Y-101780418D02*
G01*
X120913290Y-101796036D01*
X120946154Y-101852957D01*
X120947852Y-101881251D01*
X120937528Y-101919782D01*
X120884929Y-101970640D01*
X120753919Y-102046278D01*
X120683578Y-102066400D01*
X120645047Y-102056075D01*
X120621394Y-102040458D01*
X120588530Y-101983535D01*
X120586832Y-101955241D01*
X120597156Y-101916713D01*
X120649753Y-101865856D01*
X120780764Y-101790217D01*
X120851107Y-101770094D01*
X120889635Y-101780418D01*
G37*
G36*
X120437254Y-100996871D02*
G01*
X120460909Y-101012489D01*
X120493773Y-101069410D01*
X120495471Y-101097704D01*
X120485147Y-101136235D01*
X120432551Y-101187091D01*
X120301538Y-101262731D01*
X120231197Y-101282852D01*
X120192666Y-101272529D01*
X120169013Y-101256912D01*
X120136149Y-101199988D01*
X120134451Y-101171695D01*
X120144775Y-101133167D01*
X120197375Y-101082307D01*
X120328383Y-101006670D01*
X120398726Y-100986547D01*
X120437254Y-100996871D01*
G37*
G36*
X120175349Y-100543238D02*
G01*
X120199004Y-100558857D01*
X120255615Y-100656909D01*
X120137052Y-100725361D01*
X120080440Y-100627308D01*
X120078742Y-100599015D01*
X120082206Y-100586086D01*
X120097824Y-100562432D01*
X120134127Y-100541473D01*
X120162421Y-100539774D01*
X120175349Y-100543238D01*
G37*
G36*
X121511746Y-102457591D02*
G01*
X120862226Y-102832591D01*
X120601684Y-102381319D01*
X120679348Y-102381319D01*
X120703266Y-102422747D01*
X120749470Y-102435127D01*
X120772563Y-102427289D01*
X120961595Y-102318150D01*
X120897156Y-102410238D01*
X120890673Y-102424983D01*
X120888763Y-102427259D01*
X120888913Y-102428986D01*
X120887342Y-102432562D01*
X120891061Y-102453619D01*
X120892918Y-102474914D01*
X120895154Y-102476791D01*
X120895662Y-102479667D01*
X120913176Y-102491923D01*
X120929552Y-102505672D01*
X120933433Y-102506098D01*
X120934855Y-102507093D01*
X120937781Y-102506576D01*
X120953793Y-102508335D01*
X121065763Y-102498572D01*
X120876729Y-102607711D01*
X120858394Y-102623791D01*
X120846014Y-102669995D01*
X120869932Y-102711423D01*
X120916136Y-102723803D01*
X120939229Y-102715965D01*
X121372242Y-102465965D01*
X121390576Y-102449885D01*
X121393450Y-102439158D01*
X121400594Y-102430650D01*
X121399399Y-102416955D01*
X121402957Y-102403681D01*
X121397404Y-102394062D01*
X121396439Y-102382995D01*
X121385909Y-102374154D01*
X121379039Y-102362254D01*
X121368312Y-102359379D01*
X121359805Y-102352237D01*
X121335564Y-102349574D01*
X121076357Y-102372174D01*
X121225532Y-102158996D01*
X121235347Y-102136671D01*
X121233415Y-102125733D01*
X121236290Y-102115005D01*
X121229417Y-102103102D01*
X121227027Y-102089566D01*
X121217925Y-102083197D01*
X121212372Y-102073578D01*
X121199095Y-102070020D01*
X121187834Y-102062140D01*
X121176895Y-102064071D01*
X121166167Y-102061197D01*
X121143075Y-102069036D01*
X120710063Y-102319035D01*
X120691728Y-102335115D01*
X120679348Y-102381319D01*
X120601684Y-102381319D01*
X120354168Y-101952609D01*
X120461449Y-101952609D01*
X120464639Y-102005753D01*
X120465432Y-102008781D01*
X120465062Y-102010165D01*
X120468281Y-102019651D01*
X120470822Y-102029343D01*
X120471893Y-102030293D01*
X120472900Y-102033258D01*
X120520519Y-102115737D01*
X120522583Y-102118091D01*
X120522871Y-102119495D01*
X120529995Y-102126541D01*
X120536599Y-102134071D01*
X120537982Y-102134441D01*
X120540209Y-102136644D01*
X120584638Y-102165978D01*
X120593916Y-102169761D01*
X120602899Y-102174191D01*
X120667948Y-102191621D01*
X120674702Y-102192063D01*
X120677009Y-102193344D01*
X120684639Y-102192715D01*
X120692282Y-102193216D01*
X120694566Y-102191897D01*
X120701313Y-102191341D01*
X120795696Y-102164342D01*
X120802503Y-102160840D01*
X120809757Y-102158379D01*
X120954095Y-102075045D01*
X120959851Y-102069996D01*
X120966289Y-102065850D01*
X121036863Y-101997611D01*
X121040717Y-101992046D01*
X121043004Y-101990727D01*
X121046391Y-101983856D01*
X121050751Y-101977565D01*
X121050795Y-101974927D01*
X121053790Y-101968855D01*
X121071218Y-101903807D01*
X121071872Y-101893817D01*
X121073236Y-101883888D01*
X121070047Y-101830743D01*
X121069253Y-101827713D01*
X121069624Y-101826329D01*
X121066406Y-101816850D01*
X121063865Y-101807153D01*
X121062791Y-101806200D01*
X121061785Y-101803237D01*
X121014165Y-101720758D01*
X121012101Y-101718404D01*
X121011814Y-101717000D01*
X121004693Y-101709957D01*
X120998086Y-101702423D01*
X120996700Y-101702051D01*
X120994475Y-101699851D01*
X120950047Y-101670517D01*
X120940771Y-101666734D01*
X120931787Y-101662304D01*
X120866737Y-101644874D01*
X120859982Y-101644431D01*
X120857676Y-101643151D01*
X120850045Y-101643779D01*
X120842403Y-101643279D01*
X120840118Y-101644597D01*
X120833372Y-101645154D01*
X120738989Y-101672153D01*
X120732180Y-101675654D01*
X120724928Y-101678116D01*
X120580591Y-101761451D01*
X120574836Y-101766497D01*
X120568397Y-101770645D01*
X120497823Y-101838883D01*
X120493967Y-101844447D01*
X120491683Y-101845767D01*
X120488295Y-101852635D01*
X120483935Y-101858930D01*
X120483890Y-101861567D01*
X120480897Y-101867638D01*
X120463467Y-101932688D01*
X120462811Y-101942681D01*
X120461449Y-101952609D01*
X120354168Y-101952609D01*
X120185017Y-101659631D01*
X120262681Y-101659631D01*
X120286599Y-101701059D01*
X120332803Y-101713439D01*
X120355896Y-101705601D01*
X120734781Y-101486850D01*
X120774960Y-101556442D01*
X120791040Y-101574776D01*
X120837244Y-101587157D01*
X120878671Y-101563239D01*
X120891052Y-101517034D01*
X120883213Y-101493942D01*
X120740357Y-101246506D01*
X120724277Y-101228171D01*
X120678073Y-101215791D01*
X120636645Y-101239709D01*
X120624265Y-101285913D01*
X120632103Y-101309006D01*
X120672281Y-101378597D01*
X120293396Y-101597347D01*
X120275061Y-101613427D01*
X120262681Y-101659631D01*
X120185017Y-101659631D01*
X119901787Y-101169062D01*
X120009068Y-101169062D01*
X120012258Y-101222206D01*
X120013051Y-101225234D01*
X120012681Y-101226618D01*
X120015900Y-101236104D01*
X120018441Y-101245796D01*
X120019512Y-101246746D01*
X120020519Y-101249711D01*
X120068138Y-101332190D01*
X120070202Y-101334544D01*
X120070490Y-101335947D01*
X120077610Y-101342990D01*
X120084218Y-101350524D01*
X120085601Y-101350894D01*
X120087828Y-101353097D01*
X120132257Y-101382432D01*
X120141531Y-101386214D01*
X120150519Y-101390646D01*
X120215567Y-101408074D01*
X120222321Y-101408516D01*
X120224628Y-101409797D01*
X120232259Y-101409168D01*
X120239902Y-101409669D01*
X120242186Y-101408349D01*
X120248932Y-101407794D01*
X120343315Y-101380795D01*
X120350123Y-101377293D01*
X120357376Y-101374832D01*
X120501714Y-101291499D01*
X120507472Y-101286448D01*
X120513909Y-101282303D01*
X120584482Y-101214065D01*
X120588337Y-101208499D01*
X120590623Y-101207180D01*
X120594010Y-101200310D01*
X120598370Y-101194018D01*
X120598414Y-101191380D01*
X120601409Y-101185308D01*
X120618837Y-101120260D01*
X120619491Y-101110270D01*
X120620855Y-101100341D01*
X120617666Y-101047196D01*
X120616872Y-101044166D01*
X120617243Y-101042782D01*
X120614025Y-101033303D01*
X120611484Y-101023606D01*
X120610410Y-101022653D01*
X120609404Y-101019690D01*
X120561784Y-100937211D01*
X120559720Y-100934857D01*
X120559433Y-100933453D01*
X120552312Y-100926410D01*
X120545705Y-100918876D01*
X120544319Y-100918504D01*
X120542094Y-100916304D01*
X120497666Y-100886970D01*
X120488390Y-100883187D01*
X120479406Y-100878757D01*
X120414356Y-100861327D01*
X120407601Y-100860884D01*
X120405295Y-100859604D01*
X120397664Y-100860232D01*
X120390022Y-100859732D01*
X120387737Y-100861050D01*
X120380991Y-100861607D01*
X120286608Y-100888606D01*
X120279799Y-100892107D01*
X120272547Y-100894569D01*
X120128210Y-100977904D01*
X120122454Y-100982951D01*
X120116015Y-100987099D01*
X120045441Y-101055338D01*
X120041586Y-101060902D01*
X120039302Y-101062221D01*
X120035915Y-101069088D01*
X120031554Y-101075384D01*
X120031509Y-101078021D01*
X120028516Y-101084092D01*
X120011086Y-101149140D01*
X120010430Y-101159135D01*
X120009068Y-101169062D01*
X119901787Y-101169062D01*
X119631639Y-100701153D01*
X119705518Y-100701153D01*
X119736270Y-100737792D01*
X119759683Y-100744613D01*
X120016794Y-100767071D01*
X120028798Y-100787862D01*
X119876729Y-100875659D01*
X119858394Y-100891739D01*
X119846014Y-100937943D01*
X119869932Y-100979371D01*
X119916136Y-100991751D01*
X119939229Y-100983913D01*
X120372242Y-100733913D01*
X120390576Y-100717833D01*
X120390576Y-100717832D01*
X120390577Y-100717832D01*
X120401509Y-100677031D01*
X120402957Y-100671629D01*
X120402956Y-100671628D01*
X120402957Y-100671628D01*
X120395118Y-100648535D01*
X120299879Y-100483579D01*
X120297816Y-100481227D01*
X120297529Y-100479822D01*
X120290404Y-100472775D01*
X120283800Y-100465244D01*
X120282415Y-100464872D01*
X120280190Y-100462672D01*
X120235761Y-100433337D01*
X120226480Y-100429552D01*
X120217500Y-100425124D01*
X120184977Y-100416409D01*
X120174982Y-100415753D01*
X120165055Y-100414391D01*
X120111911Y-100417581D01*
X120108882Y-100418374D01*
X120107498Y-100418004D01*
X120098014Y-100421223D01*
X120088321Y-100423764D01*
X120087369Y-100424836D01*
X120084406Y-100425843D01*
X120022547Y-100461556D01*
X120020192Y-100463620D01*
X120018789Y-100463908D01*
X120011742Y-100471032D01*
X120004213Y-100477636D01*
X120003842Y-100479019D01*
X120001640Y-100481246D01*
X119972305Y-100525676D01*
X119968521Y-100534954D01*
X119964092Y-100543937D01*
X119955377Y-100576460D01*
X119954721Y-100586455D01*
X119953359Y-100596382D01*
X119955752Y-100636263D01*
X119770561Y-100620087D01*
X119746319Y-100622746D01*
X119709680Y-100653498D01*
X119705518Y-100701153D01*
X119631639Y-100701153D01*
X119401787Y-100303037D01*
X119509068Y-100303037D01*
X119512258Y-100356181D01*
X119513051Y-100359209D01*
X119512681Y-100360593D01*
X119515900Y-100370079D01*
X119518441Y-100379771D01*
X119519512Y-100380721D01*
X119520519Y-100383686D01*
X119591947Y-100507404D01*
X119594011Y-100509758D01*
X119594299Y-100511162D01*
X119601419Y-100518204D01*
X119608027Y-100525739D01*
X119609411Y-100526110D01*
X119611637Y-100528311D01*
X119656066Y-100557645D01*
X119665344Y-100561428D01*
X119674327Y-100565858D01*
X119706852Y-100574573D01*
X119731186Y-100576168D01*
X119772612Y-100552251D01*
X119784993Y-100506045D01*
X119761075Y-100464619D01*
X119739204Y-100453833D01*
X119716475Y-100447742D01*
X119692824Y-100432126D01*
X119636149Y-100333963D01*
X119634451Y-100305669D01*
X119637915Y-100292741D01*
X119653532Y-100269087D01*
X119731075Y-100224317D01*
X119759369Y-100222619D01*
X119772297Y-100226083D01*
X119795950Y-100241701D01*
X119824288Y-100290782D01*
X119836005Y-100304143D01*
X119837153Y-100306476D01*
X119838434Y-100306912D01*
X119840368Y-100309117D01*
X119861617Y-100314811D01*
X119882433Y-100321903D01*
X119884426Y-100320922D01*
X119886572Y-100321498D01*
X119905615Y-100310503D01*
X119925358Y-100300795D01*
X119926827Y-100298256D01*
X119927999Y-100297580D01*
X119928671Y-100295071D01*
X119937576Y-100279689D01*
X119974780Y-100170490D01*
X120060674Y-100319262D01*
X120076754Y-100337596D01*
X120122958Y-100349977D01*
X120164385Y-100326059D01*
X120176766Y-100279854D01*
X120168927Y-100256762D01*
X120014166Y-99988707D01*
X120002447Y-99975344D01*
X120001301Y-99973014D01*
X120000020Y-99972577D01*
X119998086Y-99970372D01*
X119976829Y-99964676D01*
X119956021Y-99957587D01*
X119954028Y-99958567D01*
X119951882Y-99957992D01*
X119932835Y-99968988D01*
X119913096Y-99978695D01*
X119911626Y-99981232D01*
X119910454Y-99981910D01*
X119909781Y-99984421D01*
X119900878Y-99999801D01*
X119855989Y-100131553D01*
X119832709Y-100116182D01*
X119823425Y-100112396D01*
X119814448Y-100107969D01*
X119781923Y-100099254D01*
X119771930Y-100098599D01*
X119762002Y-100097236D01*
X119708858Y-100100426D01*
X119705829Y-100101219D01*
X119704445Y-100100849D01*
X119694960Y-100104068D01*
X119685268Y-100106609D01*
X119684316Y-100107681D01*
X119681352Y-100108688D01*
X119578255Y-100168211D01*
X119575900Y-100170275D01*
X119574497Y-100170563D01*
X119567457Y-100177680D01*
X119559920Y-100184291D01*
X119559548Y-100185676D01*
X119557348Y-100187902D01*
X119528014Y-100232330D01*
X119524229Y-100241611D01*
X119519801Y-100250591D01*
X119511086Y-100283116D01*
X119510430Y-100293109D01*
X119509068Y-100303037D01*
X119401787Y-100303037D01*
X119356273Y-100224204D01*
X120005793Y-99849204D01*
X121511746Y-102457591D01*
G37*
G36*
X139109161Y-102046351D02*
G01*
X139052550Y-102144404D01*
X139028897Y-102160022D01*
X139015969Y-102163486D01*
X138987674Y-102161787D01*
X138951372Y-102140828D01*
X138935754Y-102117173D01*
X138932290Y-102104245D01*
X138933988Y-102075952D01*
X138990599Y-101977899D01*
X139109161Y-102046351D01*
G37*
G36*
X139361283Y-101559578D02*
G01*
X139492295Y-101635217D01*
X139544892Y-101686074D01*
X139555215Y-101724600D01*
X139553516Y-101752896D01*
X139520651Y-101809819D01*
X139496999Y-101825437D01*
X139458469Y-101835760D01*
X139388128Y-101815638D01*
X139257115Y-101739998D01*
X139204519Y-101689141D01*
X139194195Y-101650613D01*
X139195893Y-101622319D01*
X139228759Y-101565396D01*
X139252412Y-101549778D01*
X139290940Y-101539455D01*
X139361283Y-101559578D01*
G37*
G36*
X139813664Y-100776031D02*
G01*
X139944676Y-100851670D01*
X139997272Y-100902526D01*
X140007596Y-100941057D01*
X140005898Y-100969349D01*
X139973032Y-101026272D01*
X139949379Y-101041890D01*
X139910852Y-101052214D01*
X139840508Y-101032090D01*
X139709496Y-100956451D01*
X139656900Y-100905594D01*
X139646576Y-100867066D01*
X139648274Y-100838772D01*
X139681140Y-100781849D01*
X139704793Y-100766231D01*
X139743321Y-100755908D01*
X139813664Y-100776031D01*
G37*
G36*
X140571490Y-100364718D02*
G01*
X139067915Y-102968985D01*
X138418395Y-102593984D01*
X138518569Y-102420477D01*
X138596234Y-102420477D01*
X138600944Y-102438057D01*
X138602116Y-102456219D01*
X138606948Y-102460466D01*
X138608614Y-102466681D01*
X138626949Y-102482761D01*
X139005834Y-102701509D01*
X138965656Y-102771102D01*
X138957818Y-102794195D01*
X138970198Y-102840399D01*
X139011626Y-102864317D01*
X139057830Y-102851937D01*
X139073910Y-102833602D01*
X139216766Y-102586166D01*
X139224605Y-102563074D01*
X139212224Y-102516869D01*
X139170797Y-102492951D01*
X139124593Y-102505332D01*
X139108513Y-102523666D01*
X139068334Y-102593256D01*
X138837742Y-102460123D01*
X138843353Y-102457836D01*
X138887782Y-102428501D01*
X138905121Y-102411351D01*
X138914710Y-102364488D01*
X138888352Y-102324568D01*
X138841489Y-102314979D01*
X138818908Y-102324187D01*
X138782941Y-102347934D01*
X138733668Y-102361137D01*
X138654177Y-102366264D01*
X138630614Y-102372551D01*
X138626366Y-102377383D01*
X138620152Y-102379049D01*
X138611053Y-102394809D01*
X138599037Y-102408482D01*
X138599451Y-102414904D01*
X138596234Y-102420477D01*
X138518569Y-102420477D01*
X138699625Y-102106879D01*
X138806907Y-102106879D01*
X138808269Y-102116805D01*
X138808925Y-102126801D01*
X138817640Y-102159324D01*
X138822068Y-102168303D01*
X138825852Y-102177584D01*
X138855186Y-102222014D01*
X138857389Y-102224241D01*
X138857760Y-102225625D01*
X138865289Y-102232228D01*
X138872335Y-102239352D01*
X138873738Y-102239639D01*
X138876094Y-102241705D01*
X138937953Y-102277418D01*
X138940916Y-102278424D01*
X138941868Y-102279497D01*
X138951561Y-102282037D01*
X138961045Y-102285257D01*
X138962429Y-102284886D01*
X138965458Y-102285680D01*
X139018602Y-102288870D01*
X139028530Y-102287506D01*
X139038523Y-102286852D01*
X139071048Y-102278137D01*
X139080025Y-102273709D01*
X139089309Y-102269924D01*
X139122649Y-102247910D01*
X139201237Y-102416379D01*
X139215661Y-102436044D01*
X139260612Y-102452398D01*
X139303964Y-102432175D01*
X139320318Y-102387224D01*
X139314519Y-102363536D01*
X139205412Y-102129641D01*
X139217415Y-102108851D01*
X139369486Y-102196649D01*
X139392578Y-102204488D01*
X139438783Y-102192107D01*
X139462701Y-102150680D01*
X139450320Y-102104476D01*
X139431986Y-102088396D01*
X138998973Y-101838396D01*
X138975880Y-101830558D01*
X138929676Y-101842938D01*
X138913596Y-101861273D01*
X138818358Y-102026230D01*
X138817351Y-102029194D01*
X138816280Y-102030145D01*
X138813739Y-102039836D01*
X138810520Y-102049323D01*
X138810890Y-102050706D01*
X138810097Y-102053735D01*
X138806907Y-102106879D01*
X138699625Y-102106879D01*
X138961530Y-101653246D01*
X139068812Y-101653246D01*
X139070174Y-101663173D01*
X139070830Y-101673167D01*
X139088260Y-101738217D01*
X139091253Y-101744287D01*
X139091298Y-101746925D01*
X139095659Y-101753220D01*
X139099046Y-101760088D01*
X139101330Y-101761406D01*
X139105185Y-101766971D01*
X139175758Y-101835210D01*
X139182195Y-101839356D01*
X139187953Y-101844406D01*
X139332291Y-101927739D01*
X139339543Y-101930200D01*
X139346352Y-101933702D01*
X139440735Y-101960701D01*
X139447480Y-101961256D01*
X139449765Y-101962576D01*
X139457409Y-101962075D01*
X139465039Y-101962704D01*
X139467343Y-101961424D01*
X139474099Y-101960982D01*
X139539148Y-101943553D01*
X139548135Y-101939121D01*
X139557410Y-101935339D01*
X139601839Y-101906004D01*
X139604064Y-101903803D01*
X139605449Y-101903432D01*
X139612056Y-101895897D01*
X139619178Y-101888854D01*
X139619465Y-101887450D01*
X139621529Y-101885097D01*
X139669148Y-101802619D01*
X139670154Y-101799654D01*
X139671226Y-101798704D01*
X139673766Y-101789012D01*
X139676986Y-101779526D01*
X139676615Y-101778142D01*
X139677409Y-101775114D01*
X139680599Y-101721968D01*
X139679236Y-101712047D01*
X139678582Y-101702049D01*
X139661152Y-101637000D01*
X139658158Y-101630929D01*
X139658114Y-101628291D01*
X139653751Y-101621993D01*
X139650366Y-101615129D01*
X139648082Y-101613810D01*
X139644226Y-101608244D01*
X139573653Y-101540006D01*
X139567216Y-101535860D01*
X139561458Y-101530810D01*
X139417120Y-101447477D01*
X139409870Y-101445016D01*
X139403060Y-101441514D01*
X139308677Y-101414514D01*
X139301929Y-101413957D01*
X139299645Y-101412639D01*
X139292003Y-101413139D01*
X139284373Y-101412511D01*
X139282066Y-101413791D01*
X139275311Y-101414234D01*
X139210262Y-101431664D01*
X139201281Y-101436092D01*
X139192001Y-101439877D01*
X139147572Y-101469212D01*
X139145346Y-101471412D01*
X139143962Y-101471784D01*
X139137350Y-101479322D01*
X139130234Y-101486362D01*
X139129946Y-101487764D01*
X139127883Y-101490118D01*
X139080263Y-101572597D01*
X139079256Y-101575561D01*
X139078185Y-101576512D01*
X139075645Y-101586200D01*
X139072425Y-101595689D01*
X139072795Y-101597073D01*
X139072002Y-101600102D01*
X139068812Y-101653246D01*
X138961530Y-101653246D01*
X139173331Y-101286396D01*
X139250996Y-101286396D01*
X139263376Y-101332600D01*
X139304804Y-101356518D01*
X139351008Y-101344138D01*
X139367088Y-101325803D01*
X139407266Y-101256211D01*
X139786152Y-101474961D01*
X139809244Y-101482800D01*
X139855449Y-101470419D01*
X139879367Y-101428992D01*
X139866986Y-101382788D01*
X139848652Y-101366708D01*
X139469766Y-101147957D01*
X139509944Y-101078367D01*
X139517783Y-101055275D01*
X139505402Y-101009070D01*
X139463975Y-100985152D01*
X139417771Y-100997533D01*
X139401691Y-101015867D01*
X139258834Y-101263303D01*
X139250996Y-101286396D01*
X139173331Y-101286396D01*
X139413911Y-100869699D01*
X139521193Y-100869699D01*
X139522555Y-100879626D01*
X139523211Y-100889620D01*
X139540641Y-100954670D01*
X139543634Y-100960740D01*
X139543679Y-100963378D01*
X139548040Y-100969673D01*
X139551427Y-100976541D01*
X139553711Y-100977859D01*
X139557566Y-100983424D01*
X139628139Y-101051663D01*
X139634576Y-101055809D01*
X139640334Y-101060859D01*
X139784672Y-101144192D01*
X139791921Y-101146652D01*
X139798732Y-101150155D01*
X139893115Y-101177155D01*
X139899862Y-101177711D01*
X139902147Y-101179030D01*
X139909788Y-101178529D01*
X139917419Y-101179158D01*
X139919725Y-101177877D01*
X139926481Y-101177435D01*
X139991531Y-101160005D01*
X140000513Y-101155575D01*
X140009791Y-101151792D01*
X140054220Y-101122457D01*
X140056445Y-101120256D01*
X140057830Y-101119885D01*
X140064437Y-101112350D01*
X140071559Y-101105307D01*
X140071846Y-101103903D01*
X140073910Y-101101550D01*
X140121529Y-101019072D01*
X140122535Y-101016107D01*
X140123607Y-101015157D01*
X140126147Y-101005465D01*
X140129367Y-100995979D01*
X140128996Y-100994595D01*
X140129790Y-100991567D01*
X140132980Y-100938423D01*
X140131616Y-100928494D01*
X140130962Y-100918502D01*
X140113534Y-100853454D01*
X140110539Y-100847381D01*
X140110495Y-100844744D01*
X140106135Y-100838451D01*
X140102748Y-100831582D01*
X140100462Y-100830262D01*
X140096607Y-100824697D01*
X140026034Y-100756459D01*
X140019597Y-100752313D01*
X140013839Y-100747263D01*
X139869501Y-100663930D01*
X139862251Y-100661469D01*
X139855441Y-100657967D01*
X139761058Y-100630967D01*
X139754310Y-100630410D01*
X139752026Y-100629092D01*
X139744384Y-100629592D01*
X139736754Y-100628964D01*
X139734447Y-100630244D01*
X139727692Y-100630687D01*
X139662643Y-100648117D01*
X139653662Y-100652545D01*
X139644382Y-100656330D01*
X139599953Y-100685665D01*
X139597727Y-100687865D01*
X139596343Y-100688237D01*
X139589731Y-100695775D01*
X139582615Y-100702815D01*
X139582327Y-100704217D01*
X139580264Y-100706571D01*
X139532644Y-100789050D01*
X139531637Y-100792014D01*
X139530566Y-100792965D01*
X139528026Y-100802653D01*
X139524806Y-100812142D01*
X139525176Y-100813526D01*
X139524383Y-100816555D01*
X139521193Y-100869699D01*
X139413911Y-100869699D01*
X139661427Y-100440989D01*
X139739092Y-100440989D01*
X139742649Y-100454266D01*
X139741456Y-100467958D01*
X139748597Y-100476463D01*
X139751472Y-100487193D01*
X139769807Y-100503273D01*
X140202819Y-100753272D01*
X140225911Y-100761111D01*
X140272116Y-100748730D01*
X140296034Y-100707303D01*
X140283653Y-100661099D01*
X140265319Y-100645019D01*
X140076287Y-100535881D01*
X140188256Y-100545644D01*
X140204267Y-100543885D01*
X140207194Y-100544402D01*
X140208615Y-100543407D01*
X140212497Y-100542981D01*
X140228875Y-100529230D01*
X140246387Y-100516976D01*
X140246894Y-100514101D01*
X140249132Y-100512223D01*
X140250989Y-100490917D01*
X140254707Y-100469871D01*
X140253136Y-100466298D01*
X140253287Y-100464568D01*
X140251373Y-100462289D01*
X140244892Y-100447546D01*
X140180452Y-100355458D01*
X140369486Y-100464597D01*
X140392578Y-100472436D01*
X140438783Y-100460055D01*
X140462701Y-100418628D01*
X140450320Y-100372424D01*
X140431986Y-100356344D01*
X139998973Y-100106344D01*
X139975880Y-100098506D01*
X139965150Y-100101380D01*
X139954214Y-100099449D01*
X139942954Y-100107328D01*
X139929676Y-100110886D01*
X139924121Y-100120506D01*
X139915021Y-100126875D01*
X139912630Y-100140410D01*
X139905758Y-100152314D01*
X139908632Y-100163043D01*
X139906701Y-100173980D01*
X139916515Y-100196304D01*
X140065690Y-100409482D01*
X139806486Y-100386882D01*
X139782245Y-100389545D01*
X139773739Y-100396686D01*
X139763010Y-100399561D01*
X139756137Y-100411465D01*
X139745611Y-100420303D01*
X139744646Y-100431368D01*
X139739092Y-100440989D01*
X139661427Y-100440989D01*
X139921970Y-99989717D01*
X140571490Y-100364718D01*
G37*
D11*
%TO.C,C5*%
X134134420Y-109340000D02*
X134415580Y-109340000D01*
X134134420Y-110360000D02*
X134415580Y-110360000D01*
%TO.C,C28*%
X135246148Y-92480316D02*
X135130313Y-92279684D01*
X135869687Y-92120316D02*
X135753852Y-91919684D01*
%TO.C,C2*%
X128184420Y-109340000D02*
X128465580Y-109340000D01*
X128184420Y-110360000D02*
X128465580Y-110360000D01*
%TO.C,C26*%
X133069684Y-96428852D02*
X133270316Y-96544687D01*
X133429684Y-95805313D02*
X133630316Y-95921148D01*
D12*
%TO.C,J4*%
X137821994Y-109753203D02*
X138920494Y-107850545D01*
X137821994Y-109753203D02*
X141112890Y-111653203D01*
X145821994Y-95896797D02*
X144750994Y-97751823D01*
X145821994Y-95896797D02*
X149112890Y-97796797D01*
X148403787Y-106625000D02*
X145266287Y-112059309D01*
X148403787Y-106625000D02*
X151509787Y-101245250D01*
D13*
X146470065Y-97635130D02*
G75*
G02*
X145995685Y-97635130I-237190J0D01*
G01*
X145995685Y-97635130D02*
G75*
G02*
X146470065Y-97635130I237190J0D01*
G01*
D11*
%TO.C,C35*%
X123754446Y-92916153D02*
X123638611Y-93116785D01*
X124377985Y-93276153D02*
X124262150Y-93476785D01*
D12*
%TO.C,IC3*%
X126525000Y-108600000D02*
X128050000Y-108600000D01*
%TO.C,J2*%
X122000000Y-82350000D02*
X122000000Y-78550000D01*
X122000000Y-82350000D02*
X124142000Y-82350000D01*
X130000000Y-74750000D02*
X123788000Y-74750000D01*
X130000000Y-74750000D02*
X136275000Y-74750000D01*
X138000000Y-82350000D02*
X135803000Y-82350000D01*
X138000000Y-82350000D02*
X138000000Y-78550000D01*
D13*
X123537190Y-81125000D02*
G75*
G02*
X123062810Y-81125000I-237190J0D01*
G01*
X123062810Y-81125000D02*
G75*
G02*
X123537190Y-81125000I237190J0D01*
G01*
D12*
%TO.C,J10*%
X111596213Y-106625000D02*
X108458713Y-101190691D01*
X111596213Y-106625000D02*
X114702213Y-112004750D01*
X114178006Y-95896797D02*
X110887110Y-97796797D01*
X114178006Y-95896797D02*
X115276505Y-97799455D01*
X122178006Y-109753203D02*
X118887110Y-111653203D01*
X122178006Y-109753203D02*
X121107006Y-107898177D01*
D13*
X120704315Y-109239870D02*
G75*
G02*
X120229935Y-109239870I-237190J0D01*
G01*
X120229935Y-109239870D02*
G75*
G02*
X120704315Y-109239870I237190J0D01*
G01*
D14*
%TO.C,IC1*%
X128475000Y-111450000D02*
X128475000Y-114250000D01*
D12*
X128875000Y-110950000D02*
X128875000Y-110950000D01*
X129075000Y-110950000D02*
X129075000Y-110950000D01*
D14*
X131475000Y-111450000D02*
X131475000Y-114250000D01*
D12*
X128875000Y-110950000D02*
G75*
G02*
X129075000Y-110950000I100000J0D01*
G01*
X129075000Y-110950000D02*
G75*
G02*
X128875000Y-110950000I-100000J0D01*
G01*
%TO.C,IC2*%
X142650266Y-92709438D02*
X141887766Y-91388750D01*
D11*
%TO.C,C16*%
X130071148Y-92444684D02*
X129955313Y-92645316D01*
X130694687Y-92804684D02*
X130578852Y-93005316D01*
%TO.C,C10*%
X127171148Y-97944684D02*
X127055313Y-98145316D01*
X127794687Y-98304684D02*
X127678852Y-98505316D01*
D15*
%TO.C,J6*%
X139497732Y-85793380D02*
G75*
G02*
X139377532Y-85793380I-60100J0D01*
G01*
X139377532Y-85793380D02*
G75*
G02*
X139497732Y-85793380I60100J0D01*
G01*
D11*
%TO.C,C6*%
X131440580Y-109340000D02*
X131159420Y-109340000D01*
X131440580Y-110360000D02*
X131159420Y-110360000D01*
%TO.C,C1*%
X125465580Y-109365000D02*
X125184420Y-109365000D01*
X125465580Y-110385000D02*
X125184420Y-110385000D01*
%TO.C,C31*%
X131409165Y-102315000D02*
X131640835Y-102315000D01*
X131409165Y-103035000D02*
X131640835Y-103035000D01*
D12*
%TO.C,IC4*%
X120824734Y-86690561D02*
X120062235Y-88011250D01*
%TD*%
M02*
