%TF.GenerationSoftware,KiCad,Pcbnew,9.0.6-rc1*%
%TF.CreationDate,2025-10-31T17:35:14+01:00*%
%TF.ProjectId,PCB_BRUSHED,5043425f-4252-4555-9348-45442e6b6963,rev?*%
%TF.SameCoordinates,Original*%
%TF.FileFunction,Soldermask,Bot*%
%TF.FilePolarity,Negative*%
%FSLAX46Y46*%
G04 Gerber Fmt 4.6, Leading zero omitted, Abs format (unit mm)*
G04 Created by KiCad (PCBNEW 9.0.6-rc1) date 2025-10-31 17:35:14*
%MOMM*%
%LPD*%
G01*
G04 APERTURE LIST*
G04 Aperture macros list*
%AMRoundRect*
0 Rectangle with rounded corners*
0 $1 Rounding radius*
0 $2 $3 $4 $5 $6 $7 $8 $9 X,Y pos of 4 corners*
0 Add a 4 corners polygon primitive as box body*
4,1,4,$2,$3,$4,$5,$6,$7,$8,$9,$2,$3,0*
0 Add four circle primitives for the rounded corners*
1,1,$1+$1,$2,$3*
1,1,$1+$1,$4,$5*
1,1,$1+$1,$6,$7*
1,1,$1+$1,$8,$9*
0 Add four rect primitives between the rounded corners*
20,1,$1+$1,$2,$3,$4,$5,0*
20,1,$1+$1,$4,$5,$6,$7,0*
20,1,$1+$1,$6,$7,$8,$9,0*
20,1,$1+$1,$8,$9,$2,$3,0*%
%AMRotRect*
0 Rectangle, with rotation*
0 The origin of the aperture is its center*
0 $1 length*
0 $2 width*
0 $3 Rotation angle, in degrees counterclockwise*
0 Add horizontal line*
21,1,$1,$2,0,0,$3*%
G04 Aperture macros list end*
%ADD10C,0.500000*%
%ADD11C,1.450000*%
%ADD12C,0.800000*%
%ADD13C,5.000000*%
%ADD14RoundRect,0.225000X-0.225000X-0.250000X0.225000X-0.250000X0.225000X0.250000X-0.225000X0.250000X0*%
%ADD15RoundRect,0.100000X0.022147X0.238361X-0.195353X-0.138361X-0.022147X-0.238361X0.195353X0.138361X0*%
%ADD16RoundRect,0.100000X-0.238361X0.022147X0.138361X-0.195353X0.238361X-0.022147X-0.138361X0.195353X0*%
%ADD17RoundRect,0.100000X0.195353X-0.138361X-0.022147X0.238361X-0.195353X0.138361X0.022147X-0.238361X0*%
%ADD18RoundRect,0.100000X-0.022147X-0.238361X0.195353X0.138361X0.022147X0.238361X-0.195353X-0.138361X0*%
%ADD19RoundRect,0.155000X0.240484X-0.106530X0.027984X0.261530X-0.240484X0.106530X-0.027984X-0.261530X0*%
%ADD20RoundRect,0.155000X-0.261530X-0.027984X0.106530X-0.240484X0.261530X0.027984X-0.106530X0.240484X0*%
%ADD21RotRect,1.000000X3.500000X60.000000*%
%ADD22RotRect,1.600000X3.500000X60.000000*%
%ADD23RoundRect,0.155000X-0.027984X0.261530X-0.240484X-0.106530X0.027984X-0.261530X0.240484X0.106530X0*%
%ADD24R,1.525000X0.650000*%
%ADD25R,2.400000X3.100000*%
%ADD26R,1.000000X3.500000*%
%ADD27R,1.600000X3.500000*%
%ADD28RoundRect,0.100000X0.217500X0.100000X-0.217500X0.100000X-0.217500X-0.100000X0.217500X-0.100000X0*%
%ADD29RotRect,1.000000X3.500000X300.000000*%
%ADD30RotRect,1.600000X3.500000X300.000000*%
%ADD31R,0.410000X0.510000*%
%ADD32R,2.000000X1.200000*%
%ADD33RotRect,0.650000X1.525000X30.000000*%
%ADD34RotRect,2.400000X3.100000X120.000000*%
%ADD35RoundRect,0.100000X0.238361X-0.022147X-0.138361X0.195353X-0.238361X0.022147X0.138361X-0.195353X0*%
%ADD36RotRect,0.600000X1.700000X300.000000*%
%ADD37RotRect,1.000000X2.700000X300.000000*%
%ADD38RoundRect,0.100000X-0.217500X-0.100000X0.217500X-0.100000X0.217500X0.100000X-0.217500X0.100000X0*%
%ADD39RoundRect,0.100000X-0.100000X0.217500X-0.100000X-0.217500X0.100000X-0.217500X0.100000X0.217500X0*%
%ADD40RoundRect,0.225000X0.225000X0.250000X-0.225000X0.250000X-0.225000X-0.250000X0.225000X-0.250000X0*%
%ADD41RoundRect,0.100000X0.100000X-0.217500X0.100000X0.217500X-0.100000X0.217500X-0.100000X-0.217500X0*%
%ADD42RoundRect,0.155000X-0.212500X-0.155000X0.212500X-0.155000X0.212500X0.155000X-0.212500X0.155000X0*%
%ADD43RotRect,0.650000X1.525000X150.000000*%
%ADD44RotRect,2.400000X3.100000X240.000000*%
G04 APERTURE END LIST*
D10*
%TO.C,REF\u002A\u002A*%
X141075000Y-118025000D03*
X141925000Y-118025000D03*
%TD*%
%TO.C,REF\u002A\u002A*%
X139375000Y-118025000D03*
X140225000Y-118025000D03*
%TD*%
%TO.C,REF\u002A\u002A*%
X135125000Y-118025000D03*
X135975000Y-118025000D03*
X136825000Y-118025000D03*
X137675000Y-118025000D03*
X138525000Y-118025000D03*
%TD*%
%TO.C,REF\u002A\u002A*%
X118125000Y-118025000D03*
X118975000Y-118025000D03*
X119825000Y-118025000D03*
X120675000Y-118025000D03*
X121525000Y-118025000D03*
%TD*%
%TO.C,REF\u002A\u002A*%
X130875000Y-118025000D03*
X131725000Y-118025000D03*
X132575000Y-118025000D03*
X133425000Y-118025000D03*
X134275000Y-118025000D03*
%TD*%
%TO.C,REF\u002A\u002A*%
X126625000Y-118025000D03*
X127475000Y-118025000D03*
X128325000Y-118025000D03*
X129175000Y-118025000D03*
X130025000Y-118025000D03*
%TD*%
%TO.C,REF\u002A\u002A*%
X122375000Y-118025000D03*
X123225000Y-118025000D03*
X124075000Y-118025000D03*
X124925000Y-118025000D03*
X125775000Y-118025000D03*
%TD*%
%TO.C,REF\u002A\u002A*%
X141025000Y-74000000D03*
X141875000Y-74000000D03*
%TD*%
%TO.C,REF\u002A\u002A*%
X139325000Y-74000000D03*
X140175000Y-74000000D03*
%TD*%
%TO.C,REF\u002A\u002A*%
X135075000Y-74000000D03*
X135925000Y-74000000D03*
X136775000Y-74000000D03*
X137625000Y-74000000D03*
X138475000Y-74000000D03*
%TD*%
%TO.C,REF\u002A\u002A*%
X130825000Y-74000000D03*
X131675000Y-74000000D03*
X132525000Y-74000000D03*
X133375000Y-74000000D03*
X134225000Y-74000000D03*
%TD*%
%TO.C,REF\u002A\u002A*%
X126575000Y-74000000D03*
X127425000Y-74000000D03*
X128275000Y-74000000D03*
X129125000Y-74000000D03*
X129975000Y-74000000D03*
%TD*%
%TO.C,REF\u002A\u002A*%
X122325000Y-74000000D03*
X123175000Y-74000000D03*
X124025000Y-74000000D03*
X124875000Y-74000000D03*
X125725000Y-74000000D03*
%TD*%
%TO.C,REF\u002A\u002A*%
X118075000Y-74000000D03*
X118925000Y-74000000D03*
X119775000Y-74000000D03*
X120625000Y-74000000D03*
X121475000Y-74000000D03*
%TD*%
D11*
%TO.C,J5*%
X142719962Y-84730514D03*
X146119962Y-90619486D03*
%TD*%
D12*
%TO.C,TP1*%
X138625000Y-77813467D03*
X139174175Y-76487642D03*
X139174175Y-79139292D03*
X140500000Y-75938467D03*
D13*
X140500000Y-77813467D03*
D12*
X140500000Y-79688467D03*
X141825825Y-76487642D03*
X141825825Y-79139292D03*
X142375000Y-77813467D03*
%TD*%
%TO.C,TP3*%
X138625000Y-114186533D03*
X139174175Y-112860708D03*
X139174175Y-115512358D03*
X140500000Y-112311533D03*
D13*
X140500000Y-114186533D03*
D12*
X140500000Y-116061533D03*
X141825825Y-112860708D03*
X141825825Y-115512358D03*
X142375000Y-114186533D03*
%TD*%
%TO.C,TP2*%
X107125000Y-96000000D03*
X107674175Y-94674175D03*
X107674175Y-97325825D03*
X109000000Y-94125000D03*
D13*
X109000000Y-96000000D03*
D12*
X109000000Y-97875000D03*
X110325825Y-94674175D03*
X110325825Y-97325825D03*
X110875000Y-96000000D03*
%TD*%
D11*
%TO.C,J7*%
X133400000Y-112650000D03*
X126600000Y-112650000D03*
%TD*%
%TO.C,J8*%
X113880038Y-90619486D03*
X117280038Y-84730514D03*
%TD*%
D14*
%TO.C,C5*%
X133500000Y-109850000D03*
X135050000Y-109850000D03*
%TD*%
D15*
%TO.C,R25*%
X125728750Y-89947095D03*
X125321250Y-90652905D03*
%TD*%
D16*
%TO.C,C18*%
X133597095Y-95346250D03*
X134302905Y-95753750D03*
%TD*%
D17*
%TO.C,R14*%
X137257500Y-95155810D03*
X136850000Y-94450000D03*
%TD*%
D18*
%TO.C,C7*%
X128367500Y-99430810D03*
X128775000Y-98725000D03*
%TD*%
%TO.C,C21*%
X129512500Y-92453349D03*
X129920000Y-91747539D03*
%TD*%
D19*
%TO.C,C28*%
X135783750Y-92691469D03*
X135216250Y-91708531D03*
%TD*%
D14*
%TO.C,C2*%
X127550000Y-109850000D03*
X129100000Y-109850000D03*
%TD*%
D20*
%TO.C,C26*%
X132858531Y-95891250D03*
X133841469Y-96458750D03*
%TD*%
D21*
%TO.C,J4*%
X144538500Y-98619873D03*
X143538500Y-100351924D03*
X142538500Y-102083975D03*
X141538500Y-103816025D03*
X140538500Y-105548076D03*
X139538500Y-107280127D03*
D22*
X143274845Y-112208588D03*
X150674845Y-99391412D03*
%TD*%
D23*
%TO.C,C35*%
X124292048Y-92705000D03*
X123724548Y-93687938D03*
%TD*%
D24*
%TO.C,IC3*%
X127288000Y-107925000D03*
X127288000Y-106655000D03*
X127288000Y-105385000D03*
X127288000Y-104115000D03*
X132712000Y-104115000D03*
X132712000Y-105385000D03*
X132712000Y-106655000D03*
X132712000Y-107925000D03*
D25*
X130000000Y-106020000D03*
%TD*%
D26*
%TO.C,J2*%
X125000000Y-82100000D03*
X127000000Y-82100000D03*
X129000000Y-82100000D03*
X131000000Y-82100000D03*
X133000000Y-82100000D03*
X135000000Y-82100000D03*
D27*
X137400000Y-76400000D03*
X122600000Y-76400000D03*
%TD*%
D28*
%TO.C,R1*%
X130450000Y-95250000D03*
X129635000Y-95250000D03*
%TD*%
D15*
%TO.C,C11*%
X126803750Y-97622095D03*
X126396250Y-98327905D03*
%TD*%
D29*
%TO.C,J10*%
X120461500Y-107280127D03*
X119461500Y-105548076D03*
X118461500Y-103816025D03*
X117461500Y-102083975D03*
X116461500Y-100351924D03*
X115461500Y-98619873D03*
D30*
X109325155Y-99391412D03*
X116725155Y-112208588D03*
%TD*%
D31*
%TO.C,IC1*%
X129000000Y-111800000D03*
X129650000Y-111800000D03*
X130300000Y-111800000D03*
X130950000Y-111800000D03*
X130950000Y-113900000D03*
X130300000Y-113900000D03*
X129650000Y-113900000D03*
X129000000Y-113900000D03*
D32*
X129975000Y-112850000D03*
%TD*%
D33*
%TO.C,IC2*%
X141684198Y-92386161D03*
X140584346Y-93021161D03*
X139484494Y-93656161D03*
X138384642Y-94291161D03*
X135672642Y-89593839D03*
X136772494Y-88958839D03*
X137872346Y-88323839D03*
X138972198Y-87688839D03*
D34*
X138678420Y-90990000D03*
%TD*%
D23*
%TO.C,C16*%
X130608750Y-92233531D03*
X130041250Y-93216469D03*
%TD*%
D28*
%TO.C,R4*%
X131765000Y-114950000D03*
X130950000Y-114950000D03*
%TD*%
D16*
%TO.C,C25*%
X132800000Y-96800000D03*
X133505810Y-97207500D03*
%TD*%
D23*
%TO.C,C10*%
X127708750Y-97733531D03*
X127141250Y-98716469D03*
%TD*%
D35*
%TO.C,C23*%
X126175000Y-96975000D03*
X125469190Y-96567500D03*
%TD*%
D36*
%TO.C,J6*%
X140900000Y-86104937D03*
X141525000Y-87187468D03*
X142150000Y-88270000D03*
X142775000Y-89352532D03*
X143400000Y-90435064D03*
X144025000Y-91517595D03*
D37*
X142746282Y-82902790D03*
X147721282Y-91519742D03*
%TD*%
D38*
%TO.C,R2*%
X129642500Y-96725000D03*
X130457500Y-96725000D03*
%TD*%
%TO.C,R5*%
X130942500Y-115675000D03*
X131757500Y-115675000D03*
%TD*%
D39*
%TO.C,C3*%
X128675000Y-115250000D03*
X128675000Y-116065000D03*
%TD*%
D40*
%TO.C,C6*%
X132075000Y-109850000D03*
X130525000Y-109850000D03*
%TD*%
%TO.C,C1*%
X126100000Y-109875000D03*
X124550000Y-109875000D03*
%TD*%
D41*
%TO.C,R3*%
X129400000Y-116065000D03*
X129400000Y-115250000D03*
%TD*%
D42*
%TO.C,C31*%
X130957500Y-102675000D03*
X132092500Y-102675000D03*
%TD*%
D38*
%TO.C,R19*%
X127160000Y-102775000D03*
X127975000Y-102775000D03*
%TD*%
D43*
%TO.C,IC4*%
X121027802Y-87688839D03*
X122127654Y-88323839D03*
X123227506Y-88958839D03*
X124327358Y-89593839D03*
X121615358Y-94291161D03*
X120515506Y-93656161D03*
X119415654Y-93021161D03*
X118315802Y-92386161D03*
D44*
X121321580Y-90990000D03*
%TD*%
D28*
%TO.C,C4*%
X130450000Y-95975000D03*
X129635000Y-95975000D03*
%TD*%
M02*
