%TF.GenerationSoftware,KiCad,Pcbnew,9.0.6-rc1*%
%TF.CreationDate,2025-10-31T17:35:14+01:00*%
%TF.ProjectId,PCB_BRUSHED,5043425f-4252-4555-9348-45442e6b6963,rev?*%
%TF.SameCoordinates,Original*%
%TF.FileFunction,Copper,L4,Inr*%
%TF.FilePolarity,Positive*%
%FSLAX46Y46*%
G04 Gerber Fmt 4.6, Leading zero omitted, Abs format (unit mm)*
G04 Created by KiCad (PCBNEW 9.0.6-rc1) date 2025-10-31 17:35:14*
%MOMM*%
%LPD*%
G01*
G04 APERTURE LIST*
%TA.AperFunction,ComponentPad*%
%ADD10C,0.800000*%
%TD*%
%TA.AperFunction,ComponentPad*%
%ADD11C,5.000000*%
%TD*%
%TA.AperFunction,ViaPad*%
%ADD12C,0.400000*%
%TD*%
%TA.AperFunction,Conductor*%
%ADD13C,0.160000*%
%TD*%
G04 APERTURE END LIST*
D10*
%TO.N,GND*%
%TO.C,TP1*%
X138625000Y-77813467D03*
X139174175Y-76487642D03*
X139174175Y-79139292D03*
X140500000Y-75938467D03*
D11*
X140500000Y-77813467D03*
D10*
X140500000Y-79688467D03*
X141825825Y-76487642D03*
X141825825Y-79139292D03*
X142375000Y-77813467D03*
%TD*%
%TO.N,GND*%
%TO.C,TP3*%
X138625000Y-114186533D03*
X139174175Y-112860708D03*
X139174175Y-115512358D03*
X140500000Y-112311533D03*
D11*
X140500000Y-114186533D03*
D10*
X140500000Y-116061533D03*
X141825825Y-112860708D03*
X141825825Y-115512358D03*
X142375000Y-114186533D03*
%TD*%
%TO.N,GND*%
%TO.C,TP2*%
X107125000Y-96000000D03*
X107674175Y-94674175D03*
X107674175Y-97325825D03*
X109000000Y-94125000D03*
D11*
X109000000Y-96000000D03*
D10*
X109000000Y-97875000D03*
X110325825Y-94674175D03*
X110325825Y-97325825D03*
X110875000Y-96000000D03*
%TD*%
D12*
%TO.N,GND*%
X140050000Y-74750000D03*
X119840000Y-74749192D03*
X121284000Y-74749192D03*
X129948000Y-74749192D03*
X119118000Y-74749192D03*
X128504000Y-74749192D03*
X118396000Y-74749192D03*
X134280000Y-74749192D03*
X129226000Y-74749192D03*
X138612000Y-74749192D03*
X122006000Y-74749192D03*
X141500000Y-74749192D03*
X127060000Y-74749192D03*
X124894000Y-74749192D03*
X142220000Y-74750000D03*
X130670000Y-74749192D03*
X137168000Y-74749192D03*
X123450000Y-74749192D03*
X125616000Y-74749192D03*
X132114000Y-74749192D03*
X140778000Y-74749192D03*
X124172000Y-74749192D03*
X139300000Y-74750000D03*
X122728000Y-74749192D03*
X132836000Y-74749192D03*
X126338000Y-74749192D03*
X127782000Y-74749192D03*
X136446000Y-74749192D03*
X133558000Y-74749192D03*
X131392000Y-74749192D03*
X137890000Y-74749192D03*
X135724000Y-74749192D03*
X135002000Y-74749192D03*
X120562000Y-74749192D03*
X140050000Y-117270000D03*
X119840000Y-117269192D03*
X121284000Y-117269192D03*
X129948000Y-117269192D03*
X119118000Y-117269192D03*
X128504000Y-117269192D03*
X118396000Y-117269192D03*
X134280000Y-117269192D03*
X129226000Y-117269192D03*
X138612000Y-117269192D03*
X122006000Y-117269192D03*
X141500000Y-117269192D03*
X127060000Y-117269192D03*
X124894000Y-117269192D03*
X142220000Y-117270000D03*
X130670000Y-117269192D03*
X137168000Y-117269192D03*
X123450000Y-117269192D03*
X125616000Y-117269192D03*
X132114000Y-117269192D03*
X140778000Y-117269192D03*
X124172000Y-117269192D03*
X139300000Y-117270000D03*
X122728000Y-117269192D03*
X132836000Y-117269192D03*
X126338000Y-117269192D03*
X127782000Y-117269192D03*
X136446000Y-117269192D03*
X133558000Y-117269192D03*
X131392000Y-117269192D03*
X137890000Y-117269192D03*
X135724000Y-117269192D03*
X135002000Y-117269192D03*
X120562000Y-117269192D03*
X105530000Y-96010000D03*
X111667000Y-85380404D03*
X105891000Y-95384729D03*
X113833000Y-81628782D03*
X106613000Y-94134189D03*
X106252000Y-94759459D03*
X110945000Y-86630945D03*
X116718700Y-76632219D03*
X107335000Y-92883648D03*
X109501000Y-89132026D03*
X108779000Y-90382567D03*
X113472000Y-82254052D03*
X112389000Y-84129863D03*
X116343700Y-77281738D03*
X115638000Y-78502430D03*
X112028000Y-84755134D03*
X114555000Y-80378241D03*
X112750000Y-83504593D03*
X111306000Y-86005674D03*
X108057000Y-91633107D03*
X115999000Y-77877160D03*
X115277000Y-79127701D03*
X107696000Y-92258378D03*
X113111000Y-82879323D03*
X110584000Y-87256215D03*
X114194000Y-81003512D03*
X106974000Y-93508918D03*
X110223000Y-87881485D03*
X117082000Y-76001349D03*
X108418000Y-91007837D03*
X109140000Y-89757296D03*
X117443000Y-75376079D03*
X114916000Y-79752971D03*
X109862000Y-88506756D03*
X109862000Y-103513244D03*
X114916000Y-112267029D03*
X117443000Y-116643921D03*
X109140000Y-102262704D03*
X108418000Y-101012163D03*
X117082000Y-116018651D03*
X110223000Y-104138515D03*
X106974000Y-98511082D03*
X114194000Y-111016488D03*
X110584000Y-104763785D03*
X113111000Y-109140677D03*
X107696000Y-99761622D03*
X115277000Y-112892299D03*
X115999000Y-114142840D03*
X108057000Y-100386893D03*
X111306000Y-106014326D03*
X112750000Y-108515407D03*
X114555000Y-111641759D03*
X112028000Y-107264866D03*
X115638000Y-113517570D03*
X116342300Y-114739070D03*
X112389000Y-107890137D03*
X113472000Y-109765948D03*
X108779000Y-101637433D03*
X109501000Y-102887974D03*
X107335000Y-99136352D03*
X116717300Y-115388589D03*
X110945000Y-105389055D03*
X106252000Y-97260541D03*
X106613000Y-97885811D03*
X113833000Y-110391218D03*
X105891000Y-96635271D03*
X111667000Y-106639596D03*
X153040000Y-93481206D03*
X142588700Y-75377407D03*
X145476700Y-80379569D03*
X149086700Y-86632273D03*
X147281700Y-83505921D03*
X144393700Y-78503758D03*
X149808700Y-87882813D03*
X148003700Y-84756462D03*
X145837700Y-81004840D03*
X152335700Y-92259706D03*
X151613700Y-91009165D03*
X150891700Y-89758624D03*
X151252700Y-90383895D03*
X154140700Y-95386057D03*
X151974700Y-91634435D03*
X144754700Y-79129029D03*
X146559700Y-82255380D03*
X152696700Y-92884976D03*
X144032700Y-77878488D03*
X142949700Y-76002677D03*
X146198700Y-81630110D03*
X145115700Y-79754299D03*
X143310700Y-76627947D03*
X143671700Y-77253218D03*
X153779700Y-94760787D03*
X148725700Y-86007002D03*
X147642700Y-84131191D03*
X149447700Y-87257543D03*
X146920700Y-82880651D03*
X150169700Y-88508084D03*
X148364700Y-85381732D03*
X150530700Y-89133354D03*
X153415000Y-94130725D03*
X152334000Y-99761622D03*
X146919000Y-109140677D03*
X154139000Y-96635271D03*
X151251000Y-101637433D03*
X147641000Y-107890137D03*
X143686300Y-114738262D03*
X149446000Y-104763785D03*
X153417000Y-97885811D03*
X153056000Y-98511082D03*
X149085000Y-105389055D03*
X142948000Y-116018651D03*
X146558000Y-109765948D03*
X147280000Y-108515407D03*
X149807000Y-104138515D03*
X148002000Y-107264866D03*
X143311300Y-115387781D03*
X151612000Y-101012163D03*
X148363000Y-106639596D03*
X146197000Y-110391218D03*
X150529000Y-102887974D03*
X150890000Y-102262704D03*
X144392000Y-113517570D03*
X150168000Y-103513244D03*
X151973000Y-100386893D03*
X145475000Y-111641759D03*
X144753000Y-112892299D03*
X144031000Y-114142840D03*
X145114000Y-112267029D03*
X152695000Y-99136352D03*
X142587000Y-116643921D03*
X145836000Y-111016488D03*
X153778000Y-97260541D03*
X148724000Y-106014326D03*
X134600000Y-103880000D03*
X134960000Y-102890000D03*
X134700000Y-108810000D03*
X125775000Y-86850000D03*
X124350000Y-116475000D03*
X124250000Y-115300000D03*
X127425000Y-108700000D03*
X124525000Y-113000000D03*
X123600000Y-113725000D03*
X145775000Y-93300000D03*
X150425000Y-91725000D03*
X143822095Y-93028750D03*
X135900000Y-94125000D03*
X126975000Y-83125000D03*
X127000000Y-82000000D03*
X126975000Y-80950000D03*
X120450000Y-105000000D03*
X118475000Y-106100000D03*
X125025000Y-92350000D03*
X128275000Y-90125000D03*
X124650000Y-90900000D03*
X120400000Y-88525000D03*
X125575000Y-89000000D03*
X145430000Y-105870000D03*
X134820000Y-86190000D03*
X145480000Y-84180000D03*
X130178372Y-93898968D03*
X114180000Y-97060000D03*
X111835552Y-87360641D03*
X136430000Y-105760000D03*
X121880000Y-108060000D03*
X134925000Y-76001115D03*
X110235865Y-101641108D03*
X125700000Y-79290000D03*
X117400000Y-91340000D03*
X144630000Y-96380000D03*
X116720000Y-88620000D03*
X136240000Y-97870000D03*
X123280000Y-100200000D03*
X115126448Y-89260641D03*
X138680000Y-82870000D03*
X119415654Y-93021161D03*
X127900000Y-96500000D03*
X113870000Y-86010000D03*
X113840000Y-100570000D03*
X124178150Y-91542276D03*
X143050000Y-96000000D03*
X143770000Y-83730000D03*
X128600000Y-95275000D03*
X150980000Y-93890000D03*
X137375000Y-111250000D03*
X139460000Y-108640000D03*
X148100000Y-95700000D03*
X130725000Y-113225000D03*
X129050000Y-103270000D03*
X138475000Y-92172724D03*
X140200000Y-91172724D03*
X116010000Y-96950000D03*
X113932147Y-101643255D03*
X139375000Y-91675000D03*
X123210000Y-108980000D03*
X129050000Y-107275000D03*
X146564448Y-84589359D03*
X115260000Y-86810000D03*
X118760000Y-99310000D03*
X137460000Y-98350000D03*
X127288000Y-107925000D03*
X129050000Y-105275000D03*
X132712000Y-106655000D03*
X114020000Y-88670000D03*
X127120000Y-89370000D03*
X129075000Y-106275000D03*
X140430000Y-97160000D03*
X129175000Y-113225000D03*
X141684198Y-92386161D03*
X127930000Y-84260000D03*
X122450000Y-90552276D03*
X123090000Y-79550000D03*
X138260000Y-104170000D03*
X124550000Y-109875000D03*
X113270000Y-98390000D03*
X132500000Y-95275000D03*
X134340000Y-106340000D03*
X133680000Y-85670000D03*
X129675000Y-94850000D03*
X126470000Y-91310000D03*
X137872346Y-88323839D03*
X131757500Y-115675000D03*
X124190000Y-98300000D03*
X136610000Y-99710000D03*
X141990000Y-107430000D03*
X121027802Y-87688839D03*
X120725000Y-89552276D03*
X133075000Y-79201115D03*
X137180000Y-87330000D03*
X149755808Y-101701524D03*
X125210000Y-88080000D03*
X135050000Y-109850000D03*
X144240000Y-107780000D03*
X129950000Y-113200000D03*
X139940000Y-100580000D03*
X124520000Y-101000000D03*
X112830000Y-93240000D03*
X125750000Y-105470000D03*
X119461500Y-105548076D03*
X141170000Y-109010000D03*
X142741281Y-82895194D03*
X141730000Y-96490000D03*
X118800000Y-94540000D03*
X116400000Y-90700000D03*
X140740000Y-84970000D03*
X128800000Y-88730000D03*
X147716281Y-91512147D03*
X112760000Y-87860000D03*
X129040000Y-102020000D03*
X123300000Y-91050000D03*
X124975000Y-76001115D03*
X118640000Y-97310000D03*
X133910000Y-79670000D03*
X131375000Y-96925000D03*
X115210865Y-110258060D03*
X143538500Y-100351924D03*
X121600000Y-90075000D03*
X115170000Y-94890000D03*
X124540000Y-97520000D03*
X129550000Y-97850000D03*
X122960000Y-83970000D03*
X120940000Y-103860000D03*
X137760000Y-105250000D03*
X126075000Y-101425000D03*
X121850000Y-96250000D03*
X147570000Y-102290000D03*
X141050000Y-99980000D03*
X146070000Y-100590000D03*
X131475000Y-95800000D03*
X129050000Y-104250000D03*
X146550000Y-104340000D03*
X125720000Y-108280000D03*
X127278750Y-100647095D03*
X124250000Y-102840000D03*
X144780808Y-110318476D03*
X125810000Y-103600000D03*
X143273552Y-86489359D03*
X139680000Y-85480000D03*
X123780000Y-86350000D03*
X145580000Y-85260000D03*
%TO.N,VBAT+*%
X133000000Y-102925000D03*
X133000000Y-103725000D03*
X121375000Y-94775000D03*
X123475000Y-93700000D03*
X133725000Y-103750000D03*
X121825000Y-94000000D03*
X132200000Y-103775000D03*
X126100000Y-109875000D03*
X135825000Y-89900000D03*
X127550000Y-109850000D03*
X134625000Y-89550000D03*
X122750000Y-94475000D03*
X126825000Y-109875000D03*
X136075000Y-91025000D03*
X132200000Y-102900000D03*
X133725000Y-102925000D03*
X122775000Y-93300000D03*
X122350000Y-95275000D03*
X135350000Y-89175000D03*
X134975000Y-90375000D03*
X135325000Y-91425000D03*
%TO.N,+3.3V*%
X146059526Y-101703671D03*
X132775000Y-109850000D03*
X129250000Y-90625000D03*
X132075000Y-110650000D03*
X132075000Y-109850000D03*
X133475000Y-109850000D03*
X125450000Y-97575000D03*
X125200000Y-96925000D03*
X117057147Y-107055913D03*
X134600000Y-96050000D03*
X140538500Y-105548076D03*
X133000000Y-82100000D03*
X132775000Y-110650000D03*
X133475000Y-110650000D03*
X144500000Y-84550000D03*
X126825000Y-79201115D03*
X116461500Y-100351924D03*
X133700000Y-96975000D03*
X129800000Y-90925000D03*
X136300000Y-111150000D03*
%TO.N,/ADC2_IN5*%
X133200000Y-99025000D03*
%TO.N,/NRST*%
X128125000Y-99675000D03*
X140895000Y-86097341D03*
%TO.N,/ADC_VBAT*%
X126300000Y-99100000D03*
X121642500Y-112925000D03*
%TO.N,/EXT_BTN_EXTI10*%
X144950000Y-93275000D03*
X127000000Y-92625000D03*
%TO.N,Net-(IC2-IN1)*%
X129272095Y-89821250D03*
X139484494Y-93656161D03*
%TO.N,Net-(IC2-IN2)*%
X140584346Y-93021161D03*
X129647095Y-89121250D03*
%TO.N,Net-(IC3-IN2)*%
X127288000Y-106655000D03*
X134627905Y-99128750D03*
%TO.N,Net-(IC3-IN1)*%
X127288000Y-105385000D03*
X135002905Y-98503750D03*
%TO.N,Net-(IC4-IN1)*%
X132775000Y-101200000D03*
X123227506Y-88958839D03*
%TO.N,Net-(IC4-IN2)*%
X122127654Y-88323839D03*
%TO.N,/MOT2_HALL_B{slash}TIM1CH2*%
X131000000Y-82100000D03*
X131650000Y-92175000D03*
%TO.N,/MOT2_HALL_A{slash}TIM1CH1*%
X129000000Y-82100000D03*
X132400000Y-92550000D03*
%TO.N,/MOT1_HALL_B{slash}TIM2CH2*%
X129825000Y-102125000D03*
X141538500Y-103816025D03*
%TO.N,/MOT1_HALL_A{slash}TIM2CH1*%
X142538500Y-102083975D03*
X129550000Y-101475000D03*
%TO.N,/SWDIO*%
X142145000Y-88262405D03*
X128075000Y-91000000D03*
%TO.N,/SWCLK*%
X127400000Y-91375000D03*
X141520000Y-87179873D03*
%TO.N,/MOT3_HALL_B{slash}TIM8CH2*%
X117461500Y-102083975D03*
X125775000Y-95550000D03*
%TO.N,/MOT3_HALL_A{slash}TIM8CH1*%
X118461500Y-103816025D03*
X126300000Y-94725000D03*
%TO.N,/USART3_TX*%
X135625000Y-96450000D03*
X150200000Y-92700000D03*
X145722804Y-86922804D03*
%TO.N,/USART3_RX*%
X149075000Y-92725000D03*
X135925000Y-95500000D03*
X146086553Y-87636553D03*
%TO.N,/UART_EXTI*%
X135025000Y-97225000D03*
X145343205Y-86218205D03*
X151450000Y-92725000D03*
%TO.N,GND*%
X154500000Y-96010000D03*
%TD*%
D13*
%TO.N,/NRST*%
X134275000Y-91725000D02*
X133850000Y-89425000D01*
X128125000Y-99675000D02*
X128850000Y-97200000D01*
X135350000Y-86925000D02*
X140895000Y-86097341D01*
X133850000Y-89425000D02*
X135350000Y-86925000D01*
X128850000Y-97200000D02*
X134275000Y-91725000D01*
%TD*%
%TA.AperFunction,Conductor*%
%TO.N,+3.3V*%
G36*
X127319145Y-78803630D02*
G01*
X131126160Y-79525651D01*
X133053980Y-79891272D01*
X133116178Y-79923103D01*
X133128755Y-79936971D01*
X133773880Y-80766417D01*
X133799500Y-80831420D01*
X133800000Y-80842546D01*
X133800000Y-82283392D01*
X133795631Y-82316019D01*
X132604297Y-86684244D01*
X132591766Y-86714111D01*
X127391506Y-95626181D01*
X127391506Y-95626182D01*
X127777557Y-99428938D01*
X127764744Y-99497623D01*
X127761580Y-99503458D01*
X127751795Y-99520407D01*
X127751792Y-99520413D01*
X127732652Y-99591848D01*
X127724500Y-99622273D01*
X127724500Y-99727727D01*
X127751793Y-99829587D01*
X127804520Y-99920913D01*
X127879087Y-99995480D01*
X127970413Y-100048207D01*
X128072273Y-100075500D01*
X128072275Y-100075500D01*
X128177725Y-100075500D01*
X128177727Y-100075500D01*
X128279587Y-100048207D01*
X128370913Y-99995480D01*
X128445480Y-99920913D01*
X128458491Y-99898376D01*
X128509055Y-99850160D01*
X128514146Y-99847683D01*
X130800000Y-98800000D01*
X133365756Y-95243331D01*
X134032998Y-92568162D01*
X134068321Y-92507881D01*
X134117206Y-92479545D01*
X136300076Y-91815193D01*
X136369941Y-91814507D01*
X136395765Y-91825077D01*
X136864849Y-92082109D01*
X138175000Y-92800000D01*
X138603071Y-92553035D01*
X138629587Y-92545931D01*
X138720913Y-92493204D01*
X138740185Y-92473931D01*
X139419353Y-92082104D01*
X139449201Y-92069745D01*
X139529587Y-92048207D01*
X139620913Y-91995480D01*
X139679468Y-91936924D01*
X139705168Y-91917210D01*
X140343629Y-91548866D01*
X140354587Y-91545931D01*
X140445913Y-91493204D01*
X140453823Y-91485293D01*
X141425000Y-90925000D01*
X143800000Y-88000000D01*
X143800000Y-84534345D01*
X143817671Y-84470548D01*
X144056507Y-84072489D01*
X144063878Y-84060202D01*
X144115249Y-84012844D01*
X144170207Y-84000000D01*
X144714068Y-84000000D01*
X144781107Y-84019685D01*
X144826862Y-84072489D01*
X144830173Y-84080461D01*
X144942105Y-84378946D01*
X144950000Y-84422485D01*
X144950000Y-86138252D01*
X144942705Y-86165478D01*
X144942705Y-86270932D01*
X144950000Y-86298157D01*
X144950000Y-86700002D01*
X145474560Y-87939869D01*
X145482552Y-88009280D01*
X145464819Y-88055000D01*
X143741870Y-90748624D01*
X143697631Y-90790203D01*
X138782201Y-93520998D01*
X138767322Y-93528016D01*
X137415747Y-94058992D01*
X137346152Y-94065184D01*
X137333238Y-94061877D01*
X136101986Y-93675000D01*
X136101984Y-93675000D01*
X136101983Y-93675000D01*
X135918194Y-93720818D01*
X135903424Y-93724500D01*
X135847273Y-93724500D01*
X135745413Y-93751793D01*
X135708540Y-93773081D01*
X135691625Y-93777298D01*
X135691624Y-93777299D01*
X135399999Y-93850000D01*
X135028093Y-96031850D01*
X135016765Y-96066468D01*
X134412734Y-97274530D01*
X134377429Y-97317361D01*
X133100001Y-98299998D01*
X133100000Y-98299999D01*
X131775000Y-100799999D01*
X131775000Y-104349998D01*
X132299999Y-107925000D01*
X132299999Y-107924999D01*
X132300000Y-107925000D01*
X136725000Y-107900000D01*
X140060260Y-104342388D01*
X140120472Y-104306945D01*
X140158004Y-104303412D01*
X141829002Y-104401706D01*
X143499999Y-104500000D01*
X143499999Y-104499999D01*
X143500000Y-104500000D01*
X145581979Y-101525743D01*
X145628107Y-101485946D01*
X145944546Y-101327727D01*
X146013311Y-101315352D01*
X146055454Y-101327727D01*
X146331454Y-101465727D01*
X146382613Y-101513314D01*
X146400000Y-101576636D01*
X146400000Y-101864175D01*
X146380895Y-101930304D01*
X143539409Y-106437488D01*
X143487005Y-106483701D01*
X143426266Y-106495084D01*
X140500000Y-106299999D01*
X140499999Y-106300000D01*
X136462224Y-111573880D01*
X136405841Y-111615144D01*
X136363767Y-111622500D01*
X135194318Y-111622500D01*
X135150173Y-111614376D01*
X133800000Y-111100000D01*
X133799999Y-111100000D01*
X131799999Y-111100000D01*
X129722134Y-111448354D01*
X129702369Y-111450059D01*
X121342736Y-111499745D01*
X121275581Y-111480459D01*
X121266180Y-111473866D01*
X117750591Y-108757275D01*
X116920583Y-108115905D01*
X116887545Y-108077166D01*
X115330331Y-105222273D01*
X114523408Y-103742914D01*
X114508587Y-103674634D01*
X114512174Y-103652655D01*
X114514604Y-103643207D01*
X115392819Y-100227923D01*
X115418763Y-100178109D01*
X115955702Y-99551680D01*
X116014274Y-99513592D01*
X116067382Y-99509626D01*
X116642937Y-99591848D01*
X116706517Y-99620815D01*
X116730551Y-99648881D01*
X117172352Y-100355764D01*
X117191190Y-100423046D01*
X117187709Y-100450698D01*
X116399999Y-103699998D01*
X118072728Y-106651874D01*
X118100000Y-106700000D01*
X123287320Y-110275000D01*
X127300000Y-110300000D01*
X127441420Y-110255002D01*
X127489145Y-110250764D01*
X127489145Y-110250500D01*
X127492128Y-110250500D01*
X127495202Y-110250227D01*
X127497271Y-110250499D01*
X127497273Y-110250500D01*
X127497275Y-110250500D01*
X127602725Y-110250500D01*
X127602727Y-110250500D01*
X127704587Y-110223207D01*
X127795913Y-110170480D01*
X127837377Y-110129015D01*
X127850000Y-110125000D01*
X127850296Y-110116096D01*
X127870480Y-110095913D01*
X127923207Y-110004587D01*
X127950500Y-109902727D01*
X127950500Y-109797273D01*
X134649500Y-109797273D01*
X134649500Y-109902727D01*
X134676793Y-110004587D01*
X134729520Y-110095913D01*
X134804087Y-110170480D01*
X134895413Y-110223207D01*
X134997273Y-110250500D01*
X134997275Y-110250500D01*
X135102725Y-110250500D01*
X135102727Y-110250500D01*
X135204587Y-110223207D01*
X135295913Y-110170480D01*
X135370480Y-110095913D01*
X135423207Y-110004587D01*
X135450500Y-109902727D01*
X135450500Y-109797273D01*
X135423207Y-109695413D01*
X135370480Y-109604087D01*
X135295913Y-109529520D01*
X135204587Y-109476793D01*
X135102727Y-109449500D01*
X134997273Y-109449500D01*
X134895413Y-109476793D01*
X134895410Y-109476794D01*
X134804085Y-109529521D01*
X134729521Y-109604085D01*
X134676794Y-109695410D01*
X134676793Y-109695413D01*
X134649500Y-109797273D01*
X127950500Y-109797273D01*
X127923207Y-109695413D01*
X127879987Y-109620555D01*
X127876336Y-109610675D01*
X127874763Y-109587734D01*
X127868714Y-109563557D01*
X127886017Y-109044480D01*
X127895591Y-108757273D01*
X134299500Y-108757273D01*
X134299500Y-108862727D01*
X134326793Y-108964587D01*
X134379520Y-109055913D01*
X134454087Y-109130480D01*
X134545413Y-109183207D01*
X134647273Y-109210500D01*
X134647275Y-109210500D01*
X134752725Y-109210500D01*
X134752727Y-109210500D01*
X134854587Y-109183207D01*
X134945913Y-109130480D01*
X135020480Y-109055913D01*
X135073207Y-108964587D01*
X135100500Y-108862727D01*
X135100500Y-108757273D01*
X135073207Y-108655413D01*
X135020480Y-108564087D01*
X134945913Y-108489520D01*
X134854587Y-108436793D01*
X134752727Y-108409500D01*
X134647273Y-108409500D01*
X134545413Y-108436793D01*
X134545410Y-108436794D01*
X134454085Y-108489521D01*
X134379521Y-108564085D01*
X134326794Y-108655410D01*
X134326793Y-108655413D01*
X134299500Y-108757273D01*
X127895591Y-108757273D01*
X127896000Y-108745015D01*
X127900000Y-108625002D01*
X127896794Y-108564085D01*
X127775000Y-106250000D01*
X127650665Y-105619095D01*
X127657016Y-105549518D01*
X127658174Y-105547125D01*
X127658097Y-105547094D01*
X127661203Y-105539593D01*
X127661207Y-105539587D01*
X127688500Y-105437727D01*
X127688500Y-105332273D01*
X127661207Y-105230413D01*
X127656507Y-105222273D01*
X128649500Y-105222273D01*
X128649500Y-105327727D01*
X128676793Y-105429587D01*
X128729520Y-105520913D01*
X128804087Y-105595480D01*
X128895413Y-105648207D01*
X128934107Y-105658575D01*
X128993766Y-105694938D01*
X129024296Y-105757785D01*
X129016002Y-105827161D01*
X128971517Y-105881039D01*
X128934108Y-105898123D01*
X128920417Y-105901791D01*
X128920410Y-105901794D01*
X128829085Y-105954521D01*
X128754521Y-106029085D01*
X128701794Y-106120410D01*
X128701793Y-106120413D01*
X128674500Y-106222273D01*
X128674500Y-106327727D01*
X128701793Y-106429587D01*
X128754520Y-106520913D01*
X128829087Y-106595480D01*
X128920413Y-106648207D01*
X128934106Y-106651876D01*
X128993764Y-106688237D01*
X129024296Y-106751083D01*
X129016003Y-106820459D01*
X128971519Y-106874338D01*
X128934108Y-106891424D01*
X128895417Y-106901791D01*
X128895410Y-106901794D01*
X128804085Y-106954521D01*
X128729521Y-107029085D01*
X128676794Y-107120410D01*
X128676793Y-107120413D01*
X128649500Y-107222273D01*
X128649500Y-107327727D01*
X128676793Y-107429587D01*
X128729520Y-107520913D01*
X128804087Y-107595480D01*
X128895413Y-107648207D01*
X128997273Y-107675500D01*
X128997275Y-107675500D01*
X129102725Y-107675500D01*
X129102727Y-107675500D01*
X129204587Y-107648207D01*
X129295913Y-107595480D01*
X129370480Y-107520913D01*
X129423207Y-107429587D01*
X129450500Y-107327727D01*
X129450500Y-107222273D01*
X129423207Y-107120413D01*
X129370480Y-107029087D01*
X129295913Y-106954520D01*
X129204589Y-106901794D01*
X129204588Y-106901793D01*
X129199949Y-106900550D01*
X129190890Y-106898123D01*
X129131232Y-106861759D01*
X129100703Y-106798912D01*
X129108998Y-106729536D01*
X129153483Y-106675658D01*
X129190890Y-106658575D01*
X129229587Y-106648207D01*
X129320913Y-106595480D01*
X129395480Y-106520913D01*
X129448207Y-106429587D01*
X129475500Y-106327727D01*
X129475500Y-106222273D01*
X129448207Y-106120413D01*
X129395480Y-106029087D01*
X129320913Y-105954520D01*
X129229589Y-105901794D01*
X129229588Y-105901793D01*
X129206349Y-105895566D01*
X129190891Y-105891424D01*
X129131232Y-105855059D01*
X129100703Y-105792212D01*
X129108998Y-105722837D01*
X129153484Y-105668959D01*
X129190890Y-105651876D01*
X129204587Y-105648207D01*
X129295913Y-105595480D01*
X129370480Y-105520913D01*
X129423207Y-105429587D01*
X129450500Y-105327727D01*
X129450500Y-105222273D01*
X129423207Y-105120413D01*
X129370480Y-105029087D01*
X129295913Y-104954520D01*
X129204587Y-104901793D01*
X129102727Y-104874500D01*
X128997273Y-104874500D01*
X128895413Y-104901793D01*
X128895410Y-104901794D01*
X128804085Y-104954521D01*
X128729521Y-105029085D01*
X128676794Y-105120410D01*
X128676793Y-105120413D01*
X128649500Y-105222273D01*
X127656507Y-105222273D01*
X127608480Y-105139087D01*
X127569886Y-105100493D01*
X127536401Y-105039170D01*
X127535925Y-105036876D01*
X127177330Y-103217273D01*
X128649500Y-103217273D01*
X128649500Y-103322727D01*
X128676793Y-103424587D01*
X128729520Y-103515913D01*
X128804087Y-103590480D01*
X128895413Y-103643207D01*
X128895415Y-103643207D01*
X128900801Y-103645439D01*
X128955205Y-103689279D01*
X128977270Y-103755573D01*
X128959991Y-103823273D01*
X128908854Y-103870884D01*
X128900801Y-103874561D01*
X128895414Y-103876792D01*
X128804085Y-103929521D01*
X128729521Y-104004085D01*
X128676794Y-104095410D01*
X128676793Y-104095413D01*
X128649500Y-104197273D01*
X128649500Y-104302727D01*
X128676793Y-104404587D01*
X128729520Y-104495913D01*
X128804087Y-104570480D01*
X128895413Y-104623207D01*
X128997273Y-104650500D01*
X129102727Y-104650500D01*
X129204587Y-104623207D01*
X129295913Y-104570480D01*
X129370480Y-104495913D01*
X129423207Y-104404587D01*
X129450500Y-104302727D01*
X129450500Y-104197273D01*
X129423207Y-104095413D01*
X129370480Y-104004087D01*
X129295913Y-103929520D01*
X129243188Y-103899079D01*
X129204591Y-103876795D01*
X129204589Y-103876794D01*
X129204587Y-103876793D01*
X129204584Y-103876792D01*
X129199201Y-103874563D01*
X129144796Y-103830724D01*
X129122729Y-103764430D01*
X129140006Y-103696730D01*
X129191142Y-103649118D01*
X129199201Y-103645437D01*
X129204577Y-103643209D01*
X129204587Y-103643207D01*
X129295913Y-103590480D01*
X129370480Y-103515913D01*
X129423207Y-103424587D01*
X129450500Y-103322727D01*
X129450500Y-103217273D01*
X129423207Y-103115413D01*
X129370480Y-103024087D01*
X129295913Y-102949520D01*
X129204587Y-102896793D01*
X129102727Y-102869500D01*
X128997273Y-102869500D01*
X128895413Y-102896793D01*
X128895410Y-102896794D01*
X128804085Y-102949521D01*
X128729521Y-103024085D01*
X128676794Y-103115410D01*
X128676793Y-103115413D01*
X128649500Y-103217273D01*
X127177330Y-103217273D01*
X127114172Y-102896794D01*
X127095097Y-102800003D01*
X127095096Y-102800000D01*
X126695006Y-101967273D01*
X128639500Y-101967273D01*
X128639500Y-102072727D01*
X128666793Y-102174587D01*
X128719520Y-102265913D01*
X128794087Y-102340480D01*
X128885413Y-102393207D01*
X128987273Y-102420500D01*
X128987275Y-102420500D01*
X129092725Y-102420500D01*
X129092727Y-102420500D01*
X129194587Y-102393207D01*
X129285913Y-102340480D01*
X129299098Y-102327294D01*
X129360417Y-102293810D01*
X129430108Y-102298793D01*
X129486043Y-102340663D01*
X129494155Y-102352960D01*
X129504520Y-102370913D01*
X129579087Y-102445480D01*
X129670413Y-102498207D01*
X129772273Y-102525500D01*
X129772275Y-102525500D01*
X129877725Y-102525500D01*
X129877727Y-102525500D01*
X129979587Y-102498207D01*
X130070913Y-102445480D01*
X130145480Y-102370913D01*
X130198207Y-102279587D01*
X130225500Y-102177727D01*
X130225500Y-102072273D01*
X130198207Y-101970413D01*
X130145480Y-101879087D01*
X130070913Y-101804520D01*
X129984801Y-101754803D01*
X129936587Y-101704236D01*
X129923365Y-101635629D01*
X129927025Y-101615334D01*
X129950500Y-101527727D01*
X129950500Y-101422273D01*
X129923207Y-101320413D01*
X129870480Y-101229087D01*
X129795913Y-101154520D01*
X129709314Y-101104522D01*
X129704589Y-101101794D01*
X129704588Y-101101793D01*
X129704587Y-101101793D01*
X129602727Y-101074500D01*
X129497273Y-101074500D01*
X129395413Y-101101793D01*
X129395410Y-101101794D01*
X129304085Y-101154521D01*
X129229521Y-101229085D01*
X129176794Y-101320410D01*
X129176793Y-101320413D01*
X129149500Y-101422273D01*
X129149500Y-101495500D01*
X129129815Y-101562539D01*
X129077011Y-101608294D01*
X129025500Y-101619500D01*
X128987273Y-101619500D01*
X128885413Y-101646793D01*
X128885410Y-101646794D01*
X128794085Y-101699521D01*
X128719521Y-101774085D01*
X128666794Y-101865410D01*
X128666793Y-101865413D01*
X128639500Y-101967273D01*
X126695006Y-101967273D01*
X126527916Y-101619500D01*
X126487731Y-101535860D01*
X126475500Y-101482160D01*
X126475500Y-101372275D01*
X126475500Y-101372273D01*
X126448207Y-101270413D01*
X126395480Y-101179087D01*
X126320913Y-101104520D01*
X126298149Y-101091377D01*
X126249935Y-101040810D01*
X126248382Y-101037691D01*
X126057280Y-100639941D01*
X126035384Y-100594368D01*
X126878250Y-100594368D01*
X126878250Y-100699822D01*
X126905543Y-100801682D01*
X126958270Y-100893008D01*
X127032837Y-100967575D01*
X127124163Y-101020302D01*
X127226023Y-101047595D01*
X127226025Y-101047595D01*
X127331475Y-101047595D01*
X127331477Y-101047595D01*
X127433337Y-101020302D01*
X127524663Y-100967575D01*
X127599230Y-100893008D01*
X127651957Y-100801682D01*
X127679250Y-100699822D01*
X127679250Y-100594368D01*
X127651957Y-100492508D01*
X127599230Y-100401182D01*
X127524663Y-100326615D01*
X127433337Y-100273888D01*
X127331477Y-100246595D01*
X127226023Y-100246595D01*
X127124163Y-100273888D01*
X127124160Y-100273889D01*
X127032835Y-100326616D01*
X126958271Y-100401180D01*
X126905544Y-100492505D01*
X126905543Y-100492508D01*
X126878250Y-100594368D01*
X126035384Y-100594368D01*
X125519392Y-99520407D01*
X125292071Y-99047273D01*
X125899500Y-99047273D01*
X125899500Y-99152727D01*
X125926793Y-99254587D01*
X125979520Y-99345913D01*
X126054087Y-99420480D01*
X126145413Y-99473207D01*
X126247273Y-99500500D01*
X126247275Y-99500500D01*
X126352725Y-99500500D01*
X126352727Y-99500500D01*
X126454587Y-99473207D01*
X126545913Y-99420480D01*
X126620480Y-99345913D01*
X126673207Y-99254587D01*
X126700500Y-99152727D01*
X126700500Y-99047273D01*
X126673207Y-98945413D01*
X126620480Y-98854087D01*
X126545913Y-98779520D01*
X126454587Y-98726793D01*
X126352727Y-98699500D01*
X126247273Y-98699500D01*
X126145413Y-98726793D01*
X126145410Y-98726794D01*
X126054085Y-98779521D01*
X125979521Y-98854085D01*
X125926794Y-98945410D01*
X125926793Y-98945413D01*
X125899500Y-99047273D01*
X125292071Y-99047273D01*
X124892968Y-98216600D01*
X124882186Y-98181794D01*
X124833238Y-97864282D01*
X124842478Y-97795030D01*
X124857420Y-97769899D01*
X124860472Y-97765920D01*
X124860480Y-97765913D01*
X124913207Y-97674587D01*
X124940500Y-97572727D01*
X124940500Y-97467273D01*
X124913207Y-97365413D01*
X124860480Y-97274087D01*
X124785913Y-97199520D01*
X124785912Y-97199519D01*
X124785909Y-97199517D01*
X124776859Y-97194292D01*
X124775199Y-97192551D01*
X124772884Y-97191897D01*
X124751211Y-97167393D01*
X124728644Y-97143724D01*
X124727693Y-97140802D01*
X124726595Y-97139560D01*
X124716310Y-97105804D01*
X124706825Y-97044273D01*
X124716066Y-96975019D01*
X124723048Y-96961586D01*
X124988084Y-96519858D01*
X125018276Y-96485784D01*
X125672918Y-95976619D01*
X125737919Y-95951000D01*
X125749045Y-95950500D01*
X125827725Y-95950500D01*
X125827727Y-95950500D01*
X125929587Y-95923207D01*
X126020913Y-95870480D01*
X126095480Y-95795913D01*
X126148207Y-95704587D01*
X126175500Y-95602727D01*
X126175500Y-95497273D01*
X126156110Y-95424908D01*
X126156834Y-95394461D01*
X126155270Y-95364044D01*
X126157705Y-95357891D01*
X126157773Y-95355063D01*
X126168254Y-95331245D01*
X126250282Y-95187907D01*
X126300665Y-95139502D01*
X126344944Y-95128670D01*
X126344667Y-95126561D01*
X126352718Y-95125500D01*
X126352727Y-95125500D01*
X126454587Y-95098207D01*
X126545913Y-95045480D01*
X126620480Y-94970913D01*
X126673207Y-94879587D01*
X126700500Y-94777727D01*
X126700500Y-94672273D01*
X126673207Y-94570413D01*
X126673203Y-94570406D01*
X126670096Y-94562903D01*
X126671640Y-94562263D01*
X126657443Y-94503741D01*
X126673680Y-94448051D01*
X128674614Y-90951568D01*
X128675403Y-90950211D01*
X128991023Y-90415216D01*
X129012867Y-90387898D01*
X129153741Y-90255417D01*
X129216060Y-90223832D01*
X129238687Y-90221750D01*
X129324820Y-90221750D01*
X129324822Y-90221750D01*
X129426682Y-90194457D01*
X129518008Y-90141730D01*
X129592575Y-90067163D01*
X129645302Y-89975837D01*
X129672595Y-89873977D01*
X129672595Y-89768523D01*
X129659912Y-89721188D01*
X129660562Y-89693876D01*
X129657726Y-89666702D01*
X129661474Y-89655555D01*
X129661575Y-89651340D01*
X129668969Y-89633265D01*
X129704195Y-89563435D01*
X129751959Y-89512451D01*
X129782807Y-89499514D01*
X129801682Y-89494457D01*
X129893008Y-89441730D01*
X129967575Y-89367163D01*
X130020302Y-89275837D01*
X130047595Y-89173977D01*
X130047595Y-89068523D01*
X130027321Y-88992858D01*
X130028984Y-88923009D01*
X130036377Y-88904936D01*
X131300000Y-86400000D01*
X132300000Y-81600000D01*
X131800000Y-80800000D01*
X131799998Y-80799999D01*
X126474811Y-79616624D01*
X126413638Y-79582865D01*
X126381413Y-79525653D01*
X126313303Y-79253212D01*
X126314665Y-79219709D01*
X126315228Y-79186212D01*
X126316101Y-79184381D01*
X126316141Y-79183403D01*
X126330424Y-79154363D01*
X126468521Y-78947217D01*
X126522085Y-78902358D01*
X126556308Y-78892961D01*
X127280663Y-78802417D01*
X127319145Y-78803630D01*
G37*
%TD.AperFunction*%
%TD*%
M02*
