%TF.GenerationSoftware,KiCad,Pcbnew,9.0.6-rc1*%
%TF.CreationDate,2025-10-31T17:35:14+01:00*%
%TF.ProjectId,PCB_BRUSHED,5043425f-4252-4555-9348-45442e6b6963,rev?*%
%TF.SameCoordinates,Original*%
%TF.FileFunction,Copper,L5,Inr*%
%TF.FilePolarity,Positive*%
%FSLAX46Y46*%
G04 Gerber Fmt 4.6, Leading zero omitted, Abs format (unit mm)*
G04 Created by KiCad (PCBNEW 9.0.6-rc1) date 2025-10-31 17:35:14*
%MOMM*%
%LPD*%
G01*
G04 APERTURE LIST*
%TA.AperFunction,ComponentPad*%
%ADD10C,0.800000*%
%TD*%
%TA.AperFunction,ComponentPad*%
%ADD11C,5.000000*%
%TD*%
%TA.AperFunction,ViaPad*%
%ADD12C,0.400000*%
%TD*%
G04 APERTURE END LIST*
D10*
%TO.N,GND*%
%TO.C,TP1*%
X138625000Y-77813467D03*
X139174175Y-76487642D03*
X139174175Y-79139292D03*
X140500000Y-75938467D03*
D11*
X140500000Y-77813467D03*
D10*
X140500000Y-79688467D03*
X141825825Y-76487642D03*
X141825825Y-79139292D03*
X142375000Y-77813467D03*
%TD*%
%TO.N,GND*%
%TO.C,TP3*%
X138625000Y-114186533D03*
X139174175Y-112860708D03*
X139174175Y-115512358D03*
X140500000Y-112311533D03*
D11*
X140500000Y-114186533D03*
D10*
X140500000Y-116061533D03*
X141825825Y-112860708D03*
X141825825Y-115512358D03*
X142375000Y-114186533D03*
%TD*%
%TO.N,GND*%
%TO.C,TP2*%
X107125000Y-96000000D03*
X107674175Y-94674175D03*
X107674175Y-97325825D03*
X109000000Y-94125000D03*
D11*
X109000000Y-96000000D03*
D10*
X109000000Y-97875000D03*
X110325825Y-94674175D03*
X110325825Y-97325825D03*
X110875000Y-96000000D03*
%TD*%
D12*
%TO.N,GND*%
X140050000Y-74750000D03*
X119840000Y-74749192D03*
X121284000Y-74749192D03*
X129948000Y-74749192D03*
X119118000Y-74749192D03*
X128504000Y-74749192D03*
X118396000Y-74749192D03*
X134280000Y-74749192D03*
X129226000Y-74749192D03*
X138612000Y-74749192D03*
X122006000Y-74749192D03*
X141500000Y-74749192D03*
X127060000Y-74749192D03*
X124894000Y-74749192D03*
X142220000Y-74750000D03*
X130670000Y-74749192D03*
X137168000Y-74749192D03*
X123450000Y-74749192D03*
X125616000Y-74749192D03*
X132114000Y-74749192D03*
X140778000Y-74749192D03*
X124172000Y-74749192D03*
X139300000Y-74750000D03*
X122728000Y-74749192D03*
X132836000Y-74749192D03*
X126338000Y-74749192D03*
X127782000Y-74749192D03*
X136446000Y-74749192D03*
X133558000Y-74749192D03*
X131392000Y-74749192D03*
X137890000Y-74749192D03*
X135724000Y-74749192D03*
X135002000Y-74749192D03*
X120562000Y-74749192D03*
X140050000Y-117270000D03*
X119840000Y-117269192D03*
X121284000Y-117269192D03*
X129948000Y-117269192D03*
X119118000Y-117269192D03*
X128504000Y-117269192D03*
X118396000Y-117269192D03*
X134280000Y-117269192D03*
X129226000Y-117269192D03*
X138612000Y-117269192D03*
X122006000Y-117269192D03*
X141500000Y-117269192D03*
X127060000Y-117269192D03*
X124894000Y-117269192D03*
X142220000Y-117270000D03*
X130670000Y-117269192D03*
X137168000Y-117269192D03*
X123450000Y-117269192D03*
X125616000Y-117269192D03*
X132114000Y-117269192D03*
X140778000Y-117269192D03*
X124172000Y-117269192D03*
X139300000Y-117270000D03*
X122728000Y-117269192D03*
X132836000Y-117269192D03*
X126338000Y-117269192D03*
X127782000Y-117269192D03*
X136446000Y-117269192D03*
X133558000Y-117269192D03*
X131392000Y-117269192D03*
X137890000Y-117269192D03*
X135724000Y-117269192D03*
X135002000Y-117269192D03*
X120562000Y-117269192D03*
X105530000Y-96010000D03*
X111667000Y-85380404D03*
X105891000Y-95384729D03*
X113833000Y-81628782D03*
X106613000Y-94134189D03*
X106252000Y-94759459D03*
X110945000Y-86630945D03*
X116718700Y-76632219D03*
X107335000Y-92883648D03*
X109501000Y-89132026D03*
X108779000Y-90382567D03*
X113472000Y-82254052D03*
X112389000Y-84129863D03*
X116343700Y-77281738D03*
X115638000Y-78502430D03*
X112028000Y-84755134D03*
X114555000Y-80378241D03*
X112750000Y-83504593D03*
X111306000Y-86005674D03*
X108057000Y-91633107D03*
X115999000Y-77877160D03*
X115277000Y-79127701D03*
X107696000Y-92258378D03*
X113111000Y-82879323D03*
X110584000Y-87256215D03*
X114194000Y-81003512D03*
X106974000Y-93508918D03*
X110223000Y-87881485D03*
X117082000Y-76001349D03*
X108418000Y-91007837D03*
X109140000Y-89757296D03*
X117443000Y-75376079D03*
X114916000Y-79752971D03*
X109862000Y-88506756D03*
X109862000Y-103513244D03*
X114916000Y-112267029D03*
X117443000Y-116643921D03*
X109140000Y-102262704D03*
X108418000Y-101012163D03*
X117082000Y-116018651D03*
X110223000Y-104138515D03*
X106974000Y-98511082D03*
X114194000Y-111016488D03*
X110584000Y-104763785D03*
X113111000Y-109140677D03*
X107696000Y-99761622D03*
X115277000Y-112892299D03*
X115999000Y-114142840D03*
X108057000Y-100386893D03*
X111306000Y-106014326D03*
X112750000Y-108515407D03*
X114555000Y-111641759D03*
X112028000Y-107264866D03*
X115638000Y-113517570D03*
X116342300Y-114739070D03*
X112389000Y-107890137D03*
X113472000Y-109765948D03*
X108779000Y-101637433D03*
X109501000Y-102887974D03*
X107335000Y-99136352D03*
X116717300Y-115388589D03*
X110945000Y-105389055D03*
X106252000Y-97260541D03*
X106613000Y-97885811D03*
X113833000Y-110391218D03*
X105891000Y-96635271D03*
X111667000Y-106639596D03*
X153040000Y-93481206D03*
X142588700Y-75377407D03*
X145476700Y-80379569D03*
X149086700Y-86632273D03*
X147281700Y-83505921D03*
X144393700Y-78503758D03*
X149808700Y-87882813D03*
X148003700Y-84756462D03*
X145837700Y-81004840D03*
X152335700Y-92259706D03*
X151613700Y-91009165D03*
X150891700Y-89758624D03*
X151252700Y-90383895D03*
X154140700Y-95386057D03*
X151974700Y-91634435D03*
X144754700Y-79129029D03*
X146559700Y-82255380D03*
X152696700Y-92884976D03*
X144032700Y-77878488D03*
X142949700Y-76002677D03*
X146198700Y-81630110D03*
X145115700Y-79754299D03*
X143310700Y-76627947D03*
X143671700Y-77253218D03*
X153779700Y-94760787D03*
X148725700Y-86007002D03*
X147642700Y-84131191D03*
X149447700Y-87257543D03*
X146920700Y-82880651D03*
X150169700Y-88508084D03*
X148364700Y-85381732D03*
X150530700Y-89133354D03*
X153415000Y-94130725D03*
X152334000Y-99761622D03*
X146919000Y-109140677D03*
X154139000Y-96635271D03*
X151251000Y-101637433D03*
X147641000Y-107890137D03*
X143686300Y-114738262D03*
X149446000Y-104763785D03*
X153417000Y-97885811D03*
X153056000Y-98511082D03*
X149085000Y-105389055D03*
X142948000Y-116018651D03*
X146558000Y-109765948D03*
X147280000Y-108515407D03*
X149807000Y-104138515D03*
X148002000Y-107264866D03*
X143311300Y-115387781D03*
X151612000Y-101012163D03*
X148363000Y-106639596D03*
X146197000Y-110391218D03*
X150529000Y-102887974D03*
X150890000Y-102262704D03*
X144392000Y-113517570D03*
X150168000Y-103513244D03*
X151973000Y-100386893D03*
X145475000Y-111641759D03*
X144753000Y-112892299D03*
X144031000Y-114142840D03*
X145114000Y-112267029D03*
X152695000Y-99136352D03*
X142587000Y-116643921D03*
X145836000Y-111016488D03*
X153778000Y-97260541D03*
X148724000Y-106014326D03*
X134600000Y-103880000D03*
X134960000Y-102890000D03*
X134700000Y-108810000D03*
X125775000Y-86850000D03*
X124350000Y-116475000D03*
X124250000Y-115300000D03*
X127425000Y-108700000D03*
X124525000Y-113000000D03*
X123600000Y-113725000D03*
X145775000Y-93300000D03*
X150425000Y-91725000D03*
X143822095Y-93028750D03*
X135900000Y-94125000D03*
X126975000Y-83125000D03*
X127000000Y-82000000D03*
X126975000Y-80950000D03*
X120450000Y-105000000D03*
X118475000Y-106100000D03*
X125025000Y-92350000D03*
X128275000Y-90125000D03*
X124650000Y-90900000D03*
X120400000Y-88525000D03*
X125575000Y-89000000D03*
X145430000Y-105870000D03*
X134820000Y-86190000D03*
X145480000Y-84180000D03*
X130178372Y-93898968D03*
X114180000Y-97060000D03*
X111835552Y-87360641D03*
X136430000Y-105760000D03*
X121880000Y-108060000D03*
X134925000Y-76001115D03*
X110235865Y-101641108D03*
X125700000Y-79290000D03*
X117400000Y-91340000D03*
X144630000Y-96380000D03*
X116720000Y-88620000D03*
X136240000Y-97870000D03*
X123280000Y-100200000D03*
X115126448Y-89260641D03*
X138680000Y-82870000D03*
X119415654Y-93021161D03*
X127900000Y-96500000D03*
X113870000Y-86010000D03*
X113840000Y-100570000D03*
X124178150Y-91542276D03*
X143050000Y-96000000D03*
X143770000Y-83730000D03*
X128600000Y-95275000D03*
X150980000Y-93890000D03*
X137375000Y-111250000D03*
X139460000Y-108640000D03*
X148100000Y-95700000D03*
X130725000Y-113225000D03*
X129050000Y-103270000D03*
X138475000Y-92172724D03*
X140200000Y-91172724D03*
X116010000Y-96950000D03*
X113932147Y-101643255D03*
X139375000Y-91675000D03*
X123210000Y-108980000D03*
X129050000Y-107275000D03*
X146564448Y-84589359D03*
X115260000Y-86810000D03*
X118760000Y-99310000D03*
X137460000Y-98350000D03*
X127288000Y-107925000D03*
X129050000Y-105275000D03*
X132712000Y-106655000D03*
X114020000Y-88670000D03*
X127120000Y-89370000D03*
X129075000Y-106275000D03*
X140430000Y-97160000D03*
X129175000Y-113225000D03*
X141684198Y-92386161D03*
X127930000Y-84260000D03*
X122450000Y-90552276D03*
X123090000Y-79550000D03*
X138260000Y-104170000D03*
X124550000Y-109875000D03*
X113270000Y-98390000D03*
X132500000Y-95275000D03*
X134340000Y-106340000D03*
X133680000Y-85670000D03*
X129675000Y-94850000D03*
X126470000Y-91310000D03*
X137872346Y-88323839D03*
X131757500Y-115675000D03*
X124190000Y-98300000D03*
X136610000Y-99710000D03*
X141990000Y-107430000D03*
X121027802Y-87688839D03*
X120725000Y-89552276D03*
X133075000Y-79201115D03*
X137180000Y-87330000D03*
X149755808Y-101701524D03*
X125210000Y-88080000D03*
X135050000Y-109850000D03*
X144240000Y-107780000D03*
X129950000Y-113200000D03*
X139940000Y-100580000D03*
X124520000Y-101000000D03*
X112830000Y-93240000D03*
X125750000Y-105470000D03*
X119461500Y-105548076D03*
X141170000Y-109010000D03*
X142741281Y-82895194D03*
X141730000Y-96490000D03*
X118800000Y-94540000D03*
X116400000Y-90700000D03*
X140740000Y-84970000D03*
X128800000Y-88730000D03*
X147716281Y-91512147D03*
X112760000Y-87860000D03*
X129040000Y-102020000D03*
X123300000Y-91050000D03*
X124975000Y-76001115D03*
X118640000Y-97310000D03*
X133910000Y-79670000D03*
X131375000Y-96925000D03*
X115210865Y-110258060D03*
X143538500Y-100351924D03*
X121600000Y-90075000D03*
X115170000Y-94890000D03*
X124540000Y-97520000D03*
X129550000Y-97850000D03*
X122960000Y-83970000D03*
X120940000Y-103860000D03*
X137760000Y-105250000D03*
X126075000Y-101425000D03*
X121850000Y-96250000D03*
X147570000Y-102290000D03*
X141050000Y-99980000D03*
X146070000Y-100590000D03*
X131475000Y-95800000D03*
X129050000Y-104250000D03*
X146550000Y-104340000D03*
X125720000Y-108280000D03*
X127278750Y-100647095D03*
X124250000Y-102840000D03*
X144780808Y-110318476D03*
X125810000Y-103600000D03*
X143273552Y-86489359D03*
X139680000Y-85480000D03*
X123780000Y-86350000D03*
X145580000Y-85260000D03*
%TO.N,VBAT+*%
X133000000Y-102925000D03*
X133000000Y-103725000D03*
X121375000Y-94775000D03*
X123475000Y-93700000D03*
X133725000Y-103750000D03*
X121825000Y-94000000D03*
X132200000Y-103775000D03*
X126100000Y-109875000D03*
X135825000Y-89900000D03*
X127550000Y-109850000D03*
X134625000Y-89550000D03*
X122750000Y-94475000D03*
X126825000Y-109875000D03*
X136075000Y-91025000D03*
X132200000Y-102900000D03*
X133725000Y-102925000D03*
X122775000Y-93300000D03*
X122350000Y-95275000D03*
X135350000Y-89175000D03*
X134975000Y-90375000D03*
X135325000Y-91425000D03*
%TO.N,+3.3V*%
X146059526Y-101703671D03*
X132775000Y-109850000D03*
X129250000Y-90625000D03*
X132075000Y-110650000D03*
X132075000Y-109850000D03*
X133475000Y-109850000D03*
X125450000Y-97575000D03*
X125200000Y-96925000D03*
X117057147Y-107055913D03*
X134600000Y-96050000D03*
X140538500Y-105548076D03*
X133000000Y-82100000D03*
X132775000Y-110650000D03*
X133475000Y-110650000D03*
X144500000Y-84550000D03*
X126825000Y-79201115D03*
X116461500Y-100351924D03*
X133700000Y-96975000D03*
X129800000Y-90925000D03*
X136300000Y-111150000D03*
%TO.N,/ADC2_IN5*%
X133200000Y-99025000D03*
%TO.N,/NRST*%
X128125000Y-99675000D03*
X140895000Y-86097341D03*
%TO.N,/ADC_VBAT*%
X126300000Y-99100000D03*
X121642500Y-112925000D03*
%TO.N,/EXT_BTN_EXTI10*%
X144950000Y-93275000D03*
X127000000Y-92625000D03*
%TO.N,Net-(IC2-IN1)*%
X129272095Y-89821250D03*
X139484494Y-93656161D03*
%TO.N,Net-(IC2-IN2)*%
X140584346Y-93021161D03*
X129647095Y-89121250D03*
%TO.N,Net-(IC3-IN2)*%
X127288000Y-106655000D03*
X134627905Y-99128750D03*
%TO.N,Net-(IC3-IN1)*%
X127288000Y-105385000D03*
X135002905Y-98503750D03*
%TO.N,Net-(IC4-IN1)*%
X132775000Y-101200000D03*
X123227506Y-88958839D03*
%TO.N,Net-(IC4-IN2)*%
X122127654Y-88323839D03*
%TO.N,/MOT2_HALL_B{slash}TIM1CH2*%
X131000000Y-82100000D03*
X131650000Y-92175000D03*
%TO.N,/MOT2_HALL_A{slash}TIM1CH1*%
X129000000Y-82100000D03*
X132400000Y-92550000D03*
%TO.N,/MOT1_HALL_B{slash}TIM2CH2*%
X129825000Y-102125000D03*
X141538500Y-103816025D03*
%TO.N,/MOT1_HALL_A{slash}TIM2CH1*%
X142538500Y-102083975D03*
X129550000Y-101475000D03*
%TO.N,/SWDIO*%
X142145000Y-88262405D03*
X128075000Y-91000000D03*
%TO.N,/SWCLK*%
X127400000Y-91375000D03*
X141520000Y-87179873D03*
%TO.N,/MOT3_HALL_B{slash}TIM8CH2*%
X117461500Y-102083975D03*
X125775000Y-95550000D03*
%TO.N,/MOT3_HALL_A{slash}TIM8CH1*%
X118461500Y-103816025D03*
X126300000Y-94725000D03*
%TO.N,/USART3_TX*%
X135625000Y-96450000D03*
X150200000Y-92700000D03*
X145722804Y-86922804D03*
%TO.N,/USART3_RX*%
X149075000Y-92725000D03*
X135925000Y-95500000D03*
X146086553Y-87636553D03*
%TO.N,/UART_EXTI*%
X135025000Y-97225000D03*
X145343205Y-86218205D03*
X151450000Y-92725000D03*
%TO.N,GND*%
X154500000Y-96010000D03*
%TD*%
%TA.AperFunction,Conductor*%
%TO.N,GND*%
G36*
X142223953Y-74390394D02*
G01*
X142232276Y-74389111D01*
X142256982Y-74400092D01*
X142282914Y-74407707D01*
X142288426Y-74414069D01*
X142296123Y-74417490D01*
X142319505Y-74443927D01*
X142325945Y-74453729D01*
X142330024Y-74463574D01*
X142336996Y-74470546D01*
X142343968Y-74481156D01*
X142347724Y-74487250D01*
X154732683Y-95937998D01*
X154749157Y-96005898D01*
X154732683Y-96062000D01*
X148586191Y-106707727D01*
X142347722Y-117512752D01*
X142347722Y-117512753D01*
X142339561Y-117526888D01*
X142330024Y-117536426D01*
X142319792Y-117561125D01*
X142315733Y-117568156D01*
X142315730Y-117568162D01*
X142311295Y-117575844D01*
X142260735Y-117624062D01*
X142203905Y-117637851D01*
X117796095Y-117637851D01*
X117729056Y-117618166D01*
X117688709Y-117575853D01*
X117684273Y-117568170D01*
X117677097Y-117553617D01*
X117669977Y-117536428D01*
X117666833Y-117531722D01*
X117652275Y-117512750D01*
X115004121Y-112926147D01*
X114973016Y-112872273D01*
X121242000Y-112872273D01*
X121242000Y-112977727D01*
X121269293Y-113079587D01*
X121322020Y-113170913D01*
X121396587Y-113245480D01*
X121487913Y-113298207D01*
X121589773Y-113325500D01*
X121589775Y-113325500D01*
X121695225Y-113325500D01*
X121695227Y-113325500D01*
X121797087Y-113298207D01*
X121888413Y-113245480D01*
X121962980Y-113170913D01*
X122015707Y-113079587D01*
X122043000Y-112977727D01*
X122043000Y-112872273D01*
X122015707Y-112770413D01*
X121993129Y-112731307D01*
X125774499Y-112731307D01*
X125806222Y-112890783D01*
X125806225Y-112890793D01*
X125868450Y-113041019D01*
X125868452Y-113041023D01*
X125958788Y-113176220D01*
X125958794Y-113176228D01*
X126073771Y-113291205D01*
X126073779Y-113291211D01*
X126208976Y-113381547D01*
X126208980Y-113381549D01*
X126359206Y-113443774D01*
X126359211Y-113443776D01*
X126359215Y-113443776D01*
X126359216Y-113443777D01*
X126518692Y-113475500D01*
X126518695Y-113475500D01*
X126681307Y-113475500D01*
X126788598Y-113454157D01*
X126840789Y-113443776D01*
X126991021Y-113381548D01*
X126991023Y-113381547D01*
X127115750Y-113298207D01*
X127126225Y-113291208D01*
X127241208Y-113176225D01*
X127331548Y-113041021D01*
X127393776Y-112890789D01*
X127417721Y-112770413D01*
X127425500Y-112731307D01*
X132574499Y-112731307D01*
X132606222Y-112890783D01*
X132606225Y-112890793D01*
X132668450Y-113041019D01*
X132668452Y-113041023D01*
X132758788Y-113176220D01*
X132758794Y-113176228D01*
X132873771Y-113291205D01*
X132873779Y-113291211D01*
X133008976Y-113381547D01*
X133008980Y-113381549D01*
X133159206Y-113443774D01*
X133159211Y-113443776D01*
X133159215Y-113443776D01*
X133159216Y-113443777D01*
X133318692Y-113475500D01*
X133318695Y-113475500D01*
X133481307Y-113475500D01*
X133588598Y-113454157D01*
X133640789Y-113443776D01*
X133791021Y-113381548D01*
X133791023Y-113381547D01*
X133915750Y-113298207D01*
X133926225Y-113291208D01*
X134041208Y-113176225D01*
X134131548Y-113041021D01*
X134193776Y-112890789D01*
X134217721Y-112770413D01*
X134225500Y-112731307D01*
X134225500Y-112568692D01*
X134193777Y-112409216D01*
X134193776Y-112409215D01*
X134193776Y-112409211D01*
X134193774Y-112409206D01*
X134131549Y-112258980D01*
X134131547Y-112258976D01*
X134041211Y-112123779D01*
X134041205Y-112123771D01*
X133926228Y-112008794D01*
X133926220Y-112008788D01*
X133791023Y-111918452D01*
X133791019Y-111918450D01*
X133640793Y-111856225D01*
X133640783Y-111856222D01*
X133481307Y-111824500D01*
X133481305Y-111824500D01*
X133318695Y-111824500D01*
X133318693Y-111824500D01*
X133159216Y-111856222D01*
X133159206Y-111856225D01*
X133008980Y-111918450D01*
X133008976Y-111918452D01*
X132873779Y-112008788D01*
X132873771Y-112008794D01*
X132758794Y-112123771D01*
X132758788Y-112123779D01*
X132668452Y-112258976D01*
X132668450Y-112258980D01*
X132606225Y-112409206D01*
X132606222Y-112409216D01*
X132574500Y-112568692D01*
X132574500Y-112568695D01*
X132574500Y-112731305D01*
X132574500Y-112731307D01*
X132574499Y-112731307D01*
X127425500Y-112731307D01*
X127425500Y-112568692D01*
X127393777Y-112409216D01*
X127393776Y-112409215D01*
X127393776Y-112409211D01*
X127393774Y-112409206D01*
X127331549Y-112258980D01*
X127331547Y-112258976D01*
X127241211Y-112123779D01*
X127241205Y-112123771D01*
X127126228Y-112008794D01*
X127126220Y-112008788D01*
X126991023Y-111918452D01*
X126991019Y-111918450D01*
X126840793Y-111856225D01*
X126840783Y-111856222D01*
X126681307Y-111824500D01*
X126681305Y-111824500D01*
X126518695Y-111824500D01*
X126518693Y-111824500D01*
X126359216Y-111856222D01*
X126359206Y-111856225D01*
X126208980Y-111918450D01*
X126208976Y-111918452D01*
X126073779Y-112008788D01*
X126073771Y-112008794D01*
X125958794Y-112123771D01*
X125958788Y-112123779D01*
X125868452Y-112258976D01*
X125868450Y-112258980D01*
X125806225Y-112409206D01*
X125806222Y-112409216D01*
X125774500Y-112568692D01*
X125774500Y-112568695D01*
X125774500Y-112731305D01*
X125774500Y-112731307D01*
X125774499Y-112731307D01*
X121993129Y-112731307D01*
X121962980Y-112679087D01*
X121888413Y-112604520D01*
X121797087Y-112551793D01*
X121695227Y-112524500D01*
X121589773Y-112524500D01*
X121487913Y-112551793D01*
X121487910Y-112551794D01*
X121396585Y-112604521D01*
X121322021Y-112679085D01*
X121269294Y-112770410D01*
X121269293Y-112770413D01*
X121242000Y-112872273D01*
X114973016Y-112872273D01*
X113948189Y-111097273D01*
X135899500Y-111097273D01*
X135899500Y-111202727D01*
X135926793Y-111304587D01*
X135979520Y-111395913D01*
X136054087Y-111470480D01*
X136145413Y-111523207D01*
X136247273Y-111550500D01*
X136247275Y-111550500D01*
X136352725Y-111550500D01*
X136352727Y-111550500D01*
X136454587Y-111523207D01*
X136545913Y-111470480D01*
X136620480Y-111395913D01*
X136673207Y-111304587D01*
X136700500Y-111202727D01*
X136700500Y-111097273D01*
X136673207Y-110995413D01*
X136620480Y-110904087D01*
X136545913Y-110829520D01*
X136454587Y-110776793D01*
X136352727Y-110749500D01*
X136247273Y-110749500D01*
X136145413Y-110776793D01*
X136145410Y-110776794D01*
X136054085Y-110829521D01*
X135979521Y-110904085D01*
X135926794Y-110995410D01*
X135926793Y-110995413D01*
X135899500Y-111097273D01*
X113948189Y-111097273D01*
X113243151Y-109876147D01*
X113212046Y-109822273D01*
X125699500Y-109822273D01*
X125699500Y-109927727D01*
X125726793Y-110029587D01*
X125779520Y-110120913D01*
X125854087Y-110195480D01*
X125945413Y-110248207D01*
X126047273Y-110275500D01*
X126047275Y-110275500D01*
X126152725Y-110275500D01*
X126152727Y-110275500D01*
X126254587Y-110248207D01*
X126345913Y-110195480D01*
X126374819Y-110166574D01*
X126436142Y-110133089D01*
X126505834Y-110138073D01*
X126550181Y-110166574D01*
X126579087Y-110195480D01*
X126670413Y-110248207D01*
X126772273Y-110275500D01*
X126772275Y-110275500D01*
X126877725Y-110275500D01*
X126877727Y-110275500D01*
X126979587Y-110248207D01*
X127070913Y-110195480D01*
X127112319Y-110154073D01*
X127173640Y-110120589D01*
X127243331Y-110125573D01*
X127287678Y-110154072D01*
X127295926Y-110162319D01*
X127304087Y-110170480D01*
X127395413Y-110223207D01*
X127497273Y-110250500D01*
X127497275Y-110250500D01*
X127602725Y-110250500D01*
X127602727Y-110250500D01*
X127704587Y-110223207D01*
X127795913Y-110170480D01*
X127870480Y-110095913D01*
X127923207Y-110004587D01*
X127950500Y-109902727D01*
X127950500Y-109797273D01*
X131674500Y-109797273D01*
X131674500Y-109902727D01*
X131681199Y-109927726D01*
X131701793Y-110004586D01*
X131701794Y-110004589D01*
X131754521Y-110095914D01*
X131820926Y-110162319D01*
X131854411Y-110223642D01*
X131849427Y-110293334D01*
X131820926Y-110337681D01*
X131754521Y-110404085D01*
X131701794Y-110495410D01*
X131701793Y-110495413D01*
X131674500Y-110597273D01*
X131674500Y-110702727D01*
X131701793Y-110804587D01*
X131754520Y-110895913D01*
X131829087Y-110970480D01*
X131920413Y-111023207D01*
X132022273Y-111050500D01*
X132022275Y-111050500D01*
X132127725Y-111050500D01*
X132127727Y-111050500D01*
X132229587Y-111023207D01*
X132320913Y-110970480D01*
X132337319Y-110954074D01*
X132398642Y-110920589D01*
X132468334Y-110925573D01*
X132512681Y-110954074D01*
X132529087Y-110970480D01*
X132620413Y-111023207D01*
X132722273Y-111050500D01*
X132722275Y-111050500D01*
X132827725Y-111050500D01*
X132827727Y-111050500D01*
X132929587Y-111023207D01*
X133020913Y-110970480D01*
X133037319Y-110954074D01*
X133098642Y-110920589D01*
X133168334Y-110925573D01*
X133212681Y-110954074D01*
X133229087Y-110970480D01*
X133320413Y-111023207D01*
X133422273Y-111050500D01*
X133422275Y-111050500D01*
X133527725Y-111050500D01*
X133527727Y-111050500D01*
X133629587Y-111023207D01*
X133720913Y-110970480D01*
X133795480Y-110895913D01*
X133848207Y-110804587D01*
X133875500Y-110702727D01*
X133875500Y-110597273D01*
X133848207Y-110495413D01*
X133795480Y-110404087D01*
X133729074Y-110337681D01*
X133695589Y-110276358D01*
X133700573Y-110206666D01*
X133729074Y-110162319D01*
X133758304Y-110133089D01*
X133795480Y-110095913D01*
X133848207Y-110004587D01*
X133875500Y-109902727D01*
X133875500Y-109797273D01*
X133848207Y-109695413D01*
X133795480Y-109604087D01*
X133720913Y-109529520D01*
X133629587Y-109476793D01*
X133527727Y-109449500D01*
X133422273Y-109449500D01*
X133320413Y-109476793D01*
X133320410Y-109476794D01*
X133229085Y-109529521D01*
X133212681Y-109545926D01*
X133151358Y-109579411D01*
X133081666Y-109574427D01*
X133037319Y-109545926D01*
X133020914Y-109529521D01*
X133020913Y-109529520D01*
X132929587Y-109476793D01*
X132827727Y-109449500D01*
X132722273Y-109449500D01*
X132620413Y-109476793D01*
X132620410Y-109476794D01*
X132529085Y-109529521D01*
X132512681Y-109545926D01*
X132451358Y-109579411D01*
X132381666Y-109574427D01*
X132337319Y-109545926D01*
X132320914Y-109529521D01*
X132320913Y-109529520D01*
X132229587Y-109476793D01*
X132127727Y-109449500D01*
X132022273Y-109449500D01*
X131920413Y-109476793D01*
X131920410Y-109476794D01*
X131829085Y-109529521D01*
X131754521Y-109604085D01*
X131701794Y-109695410D01*
X131701793Y-109695413D01*
X131674500Y-109797273D01*
X127950500Y-109797273D01*
X127923207Y-109695413D01*
X127870480Y-109604087D01*
X127795913Y-109529520D01*
X127704587Y-109476793D01*
X127602727Y-109449500D01*
X127497273Y-109449500D01*
X127395413Y-109476793D01*
X127395410Y-109476794D01*
X127304085Y-109529521D01*
X127262681Y-109570926D01*
X127201358Y-109604411D01*
X127131666Y-109599427D01*
X127087319Y-109570926D01*
X127070914Y-109554521D01*
X127070913Y-109554520D01*
X126979587Y-109501793D01*
X126877727Y-109474500D01*
X126772273Y-109474500D01*
X126670413Y-109501793D01*
X126670410Y-109501794D01*
X126579085Y-109554521D01*
X126550181Y-109583426D01*
X126488858Y-109616911D01*
X126419166Y-109611927D01*
X126374819Y-109583426D01*
X126345914Y-109554521D01*
X126345913Y-109554520D01*
X126254587Y-109501793D01*
X126152727Y-109474500D01*
X126047273Y-109474500D01*
X125945413Y-109501793D01*
X125945410Y-109501794D01*
X125854085Y-109554521D01*
X125779521Y-109629085D01*
X125726794Y-109720410D01*
X125726793Y-109720413D01*
X125699500Y-109822273D01*
X113212046Y-109822273D01*
X112451405Y-108504845D01*
X111584397Y-107003186D01*
X116656647Y-107003186D01*
X116656647Y-107108640D01*
X116683940Y-107210500D01*
X116736667Y-107301826D01*
X116811234Y-107376393D01*
X116902560Y-107429120D01*
X117004420Y-107456413D01*
X117004422Y-107456413D01*
X117109872Y-107456413D01*
X117109874Y-107456413D01*
X117211734Y-107429120D01*
X117303060Y-107376393D01*
X117377627Y-107301826D01*
X117430354Y-107210500D01*
X117457647Y-107108640D01*
X117457647Y-107003186D01*
X117430354Y-106901326D01*
X117377627Y-106810000D01*
X117303060Y-106735433D01*
X117211734Y-106682706D01*
X117109874Y-106655413D01*
X117004420Y-106655413D01*
X116902560Y-106682706D01*
X116902557Y-106682707D01*
X116811232Y-106735434D01*
X116736668Y-106809998D01*
X116683941Y-106901323D01*
X116683940Y-106901326D01*
X116656647Y-107003186D01*
X111584397Y-107003186D01*
X111352923Y-106602273D01*
X126887500Y-106602273D01*
X126887500Y-106707727D01*
X126914793Y-106809587D01*
X126967520Y-106900913D01*
X127042087Y-106975480D01*
X127133413Y-107028207D01*
X127235273Y-107055500D01*
X127235275Y-107055500D01*
X127340725Y-107055500D01*
X127340727Y-107055500D01*
X127442587Y-107028207D01*
X127533913Y-106975480D01*
X127608480Y-106900913D01*
X127661207Y-106809587D01*
X127688500Y-106707727D01*
X127688500Y-106602273D01*
X127661207Y-106500413D01*
X127608480Y-106409087D01*
X127533913Y-106334520D01*
X127442587Y-106281793D01*
X127340727Y-106254500D01*
X127235273Y-106254500D01*
X127133413Y-106281793D01*
X127133410Y-106281794D01*
X127042085Y-106334521D01*
X126967521Y-106409085D01*
X126914794Y-106500410D01*
X126914793Y-106500413D01*
X126887500Y-106602273D01*
X111352923Y-106602273D01*
X110886247Y-105793990D01*
X110650772Y-105386147D01*
X110619667Y-105332273D01*
X126887500Y-105332273D01*
X126887500Y-105437727D01*
X126914793Y-105539587D01*
X126967520Y-105630913D01*
X127042087Y-105705480D01*
X127133413Y-105758207D01*
X127235273Y-105785500D01*
X127235275Y-105785500D01*
X127340725Y-105785500D01*
X127340727Y-105785500D01*
X127442587Y-105758207D01*
X127533913Y-105705480D01*
X127608480Y-105630913D01*
X127661207Y-105539587D01*
X127673060Y-105495349D01*
X140138000Y-105495349D01*
X140138000Y-105600803D01*
X140165293Y-105702663D01*
X140218020Y-105793989D01*
X140292587Y-105868556D01*
X140383913Y-105921283D01*
X140485773Y-105948576D01*
X140485775Y-105948576D01*
X140591225Y-105948576D01*
X140591227Y-105948576D01*
X140693087Y-105921283D01*
X140784413Y-105868556D01*
X140858980Y-105793989D01*
X140911707Y-105702663D01*
X140939000Y-105600803D01*
X140939000Y-105495349D01*
X140911707Y-105393489D01*
X140858980Y-105302163D01*
X140784413Y-105227596D01*
X140693087Y-105174869D01*
X140591227Y-105147576D01*
X140485773Y-105147576D01*
X140383913Y-105174869D01*
X140383910Y-105174870D01*
X140292585Y-105227597D01*
X140218021Y-105302161D01*
X140165294Y-105393486D01*
X140165293Y-105393489D01*
X140138000Y-105495349D01*
X127673060Y-105495349D01*
X127688500Y-105437727D01*
X127688500Y-105332273D01*
X127661207Y-105230413D01*
X127608480Y-105139087D01*
X127533913Y-105064520D01*
X127442587Y-105011793D01*
X127340727Y-104984500D01*
X127235273Y-104984500D01*
X127133413Y-105011793D01*
X127133410Y-105011794D01*
X127042085Y-105064521D01*
X126967521Y-105139085D01*
X126914794Y-105230410D01*
X126914793Y-105230413D01*
X126887500Y-105332273D01*
X110619667Y-105332273D01*
X109891148Y-104070478D01*
X109713792Y-103763298D01*
X118061000Y-103763298D01*
X118061000Y-103868752D01*
X118088293Y-103970612D01*
X118141020Y-104061938D01*
X118215587Y-104136505D01*
X118306913Y-104189232D01*
X118408773Y-104216525D01*
X118408775Y-104216525D01*
X118514225Y-104216525D01*
X118514227Y-104216525D01*
X118616087Y-104189232D01*
X118707413Y-104136505D01*
X118781980Y-104061938D01*
X118834707Y-103970612D01*
X118862000Y-103868752D01*
X118862000Y-103763298D01*
X118834707Y-103661438D01*
X118781980Y-103570112D01*
X118707413Y-103495545D01*
X118636357Y-103454521D01*
X118616089Y-103442819D01*
X118616088Y-103442818D01*
X118616087Y-103442818D01*
X118514227Y-103415525D01*
X118408773Y-103415525D01*
X118306913Y-103442818D01*
X118306910Y-103442819D01*
X118215585Y-103495546D01*
X118141021Y-103570110D01*
X118088294Y-103661435D01*
X118088293Y-103661438D01*
X118061000Y-103763298D01*
X109713792Y-103763298D01*
X109184909Y-102847273D01*
X131799500Y-102847273D01*
X131799500Y-102952727D01*
X131826793Y-103054587D01*
X131879520Y-103145913D01*
X131954087Y-103220480D01*
X131970774Y-103230114D01*
X132018989Y-103280682D01*
X132032210Y-103349289D01*
X132006241Y-103414153D01*
X131970774Y-103444886D01*
X131954085Y-103454521D01*
X131879521Y-103529085D01*
X131826794Y-103620410D01*
X131826793Y-103620413D01*
X131799500Y-103722273D01*
X131799500Y-103827727D01*
X131826793Y-103929587D01*
X131879520Y-104020913D01*
X131954087Y-104095480D01*
X132045413Y-104148207D01*
X132147273Y-104175500D01*
X132147275Y-104175500D01*
X132252725Y-104175500D01*
X132252727Y-104175500D01*
X132354587Y-104148207D01*
X132445913Y-104095480D01*
X132520480Y-104020913D01*
X132520486Y-104020901D01*
X132525158Y-104014814D01*
X132581584Y-103973607D01*
X132651329Y-103969448D01*
X132711220Y-104002613D01*
X132754087Y-104045480D01*
X132845413Y-104098207D01*
X132947273Y-104125500D01*
X132947275Y-104125500D01*
X133052725Y-104125500D01*
X133052727Y-104125500D01*
X133154587Y-104098207D01*
X133245913Y-104045480D01*
X133262319Y-104029074D01*
X133323642Y-103995589D01*
X133393334Y-104000573D01*
X133437681Y-104029074D01*
X133479087Y-104070480D01*
X133570413Y-104123207D01*
X133672273Y-104150500D01*
X133672275Y-104150500D01*
X133777725Y-104150500D01*
X133777727Y-104150500D01*
X133879587Y-104123207D01*
X133970913Y-104070480D01*
X134045480Y-103995913D01*
X134098207Y-103904587D01*
X134125500Y-103802727D01*
X134125500Y-103763298D01*
X141138000Y-103763298D01*
X141138000Y-103868752D01*
X141165293Y-103970612D01*
X141218020Y-104061938D01*
X141292587Y-104136505D01*
X141383913Y-104189232D01*
X141485773Y-104216525D01*
X141485775Y-104216525D01*
X141591225Y-104216525D01*
X141591227Y-104216525D01*
X141693087Y-104189232D01*
X141784413Y-104136505D01*
X141858980Y-104061938D01*
X141911707Y-103970612D01*
X141939000Y-103868752D01*
X141939000Y-103763298D01*
X141911707Y-103661438D01*
X141858980Y-103570112D01*
X141784413Y-103495545D01*
X141713357Y-103454521D01*
X141693089Y-103442819D01*
X141693088Y-103442818D01*
X141693087Y-103442818D01*
X141591227Y-103415525D01*
X141485773Y-103415525D01*
X141383913Y-103442818D01*
X141383910Y-103442819D01*
X141292585Y-103495546D01*
X141218021Y-103570110D01*
X141165294Y-103661435D01*
X141165293Y-103661438D01*
X141138000Y-103763298D01*
X134125500Y-103763298D01*
X134125500Y-103697273D01*
X134098207Y-103595413D01*
X134045480Y-103504087D01*
X133970913Y-103429520D01*
X133966574Y-103425181D01*
X133933089Y-103363858D01*
X133938073Y-103294166D01*
X133966574Y-103249819D01*
X133995915Y-103220478D01*
X134045480Y-103170913D01*
X134098207Y-103079587D01*
X134125500Y-102977727D01*
X134125500Y-102872273D01*
X134098207Y-102770413D01*
X134045480Y-102679087D01*
X133970913Y-102604520D01*
X133879587Y-102551793D01*
X133777727Y-102524500D01*
X133672273Y-102524500D01*
X133570413Y-102551793D01*
X133570410Y-102551794D01*
X133479085Y-102604521D01*
X133450181Y-102633426D01*
X133388858Y-102666911D01*
X133319166Y-102661927D01*
X133274819Y-102633426D01*
X133245914Y-102604521D01*
X133245913Y-102604520D01*
X133154587Y-102551793D01*
X133052727Y-102524500D01*
X132947273Y-102524500D01*
X132845413Y-102551793D01*
X132845410Y-102551794D01*
X132754085Y-102604521D01*
X132700181Y-102658426D01*
X132638858Y-102691911D01*
X132569166Y-102686927D01*
X132524819Y-102658426D01*
X132445914Y-102579521D01*
X132445913Y-102579520D01*
X132354587Y-102526793D01*
X132252727Y-102499500D01*
X132147273Y-102499500D01*
X132045413Y-102526793D01*
X132045410Y-102526794D01*
X131954085Y-102579521D01*
X131879521Y-102654085D01*
X131826794Y-102745410D01*
X131826793Y-102745413D01*
X131799500Y-102847273D01*
X109184909Y-102847273D01*
X108713763Y-102031248D01*
X117061000Y-102031248D01*
X117061000Y-102136702D01*
X117088293Y-102238562D01*
X117141020Y-102329888D01*
X117215587Y-102404455D01*
X117306913Y-102457182D01*
X117408773Y-102484475D01*
X117408775Y-102484475D01*
X117514225Y-102484475D01*
X117514227Y-102484475D01*
X117616087Y-102457182D01*
X117707413Y-102404455D01*
X117781980Y-102329888D01*
X117834707Y-102238562D01*
X117862000Y-102136702D01*
X117862000Y-102031248D01*
X117834707Y-101929388D01*
X117781980Y-101838062D01*
X117707413Y-101763495D01*
X117616087Y-101710768D01*
X117514227Y-101683475D01*
X117408773Y-101683475D01*
X117306913Y-101710768D01*
X117306910Y-101710769D01*
X117215585Y-101763496D01*
X117141021Y-101838060D01*
X117088294Y-101929385D01*
X117088293Y-101929388D01*
X117061000Y-102031248D01*
X108713763Y-102031248D01*
X108362161Y-101422273D01*
X129149500Y-101422273D01*
X129149500Y-101527727D01*
X129176793Y-101629587D01*
X129229520Y-101720913D01*
X129304087Y-101795480D01*
X129377838Y-101838060D01*
X129390196Y-101845195D01*
X129438412Y-101895762D01*
X129451634Y-101964370D01*
X129447971Y-101984674D01*
X129424500Y-102072271D01*
X129424500Y-102072273D01*
X129424500Y-102177727D01*
X129451793Y-102279587D01*
X129504520Y-102370913D01*
X129579087Y-102445480D01*
X129670413Y-102498207D01*
X129772273Y-102525500D01*
X129772275Y-102525500D01*
X129877725Y-102525500D01*
X129877727Y-102525500D01*
X129979587Y-102498207D01*
X130070913Y-102445480D01*
X130145480Y-102370913D01*
X130198207Y-102279587D01*
X130225500Y-102177727D01*
X130225500Y-102072273D01*
X130214508Y-102031248D01*
X142138000Y-102031248D01*
X142138000Y-102136702D01*
X142165293Y-102238562D01*
X142218020Y-102329888D01*
X142292587Y-102404455D01*
X142383913Y-102457182D01*
X142485773Y-102484475D01*
X142485775Y-102484475D01*
X142591225Y-102484475D01*
X142591227Y-102484475D01*
X142693087Y-102457182D01*
X142784413Y-102404455D01*
X142858980Y-102329888D01*
X142911707Y-102238562D01*
X142939000Y-102136702D01*
X142939000Y-102031248D01*
X142911707Y-101929388D01*
X142858980Y-101838062D01*
X142784413Y-101763495D01*
X142772119Y-101756397D01*
X142761393Y-101750204D01*
X142761392Y-101750204D01*
X142693089Y-101710769D01*
X142693088Y-101710768D01*
X142693087Y-101710768D01*
X142591227Y-101683475D01*
X142485773Y-101683475D01*
X142383913Y-101710768D01*
X142383910Y-101710769D01*
X142292585Y-101763496D01*
X142218021Y-101838060D01*
X142165294Y-101929385D01*
X142165293Y-101929388D01*
X142138000Y-102031248D01*
X130214508Y-102031248D01*
X130198207Y-101970413D01*
X130145480Y-101879087D01*
X130070913Y-101804520D01*
X129984801Y-101754803D01*
X129936587Y-101704236D01*
X129926317Y-101650944D01*
X145659026Y-101650944D01*
X145659026Y-101756398D01*
X145686319Y-101858258D01*
X145739046Y-101949584D01*
X145813613Y-102024151D01*
X145904939Y-102076878D01*
X146006799Y-102104171D01*
X146006801Y-102104171D01*
X146112251Y-102104171D01*
X146112253Y-102104171D01*
X146214113Y-102076878D01*
X146305439Y-102024151D01*
X146380006Y-101949584D01*
X146432733Y-101858258D01*
X146460026Y-101756398D01*
X146460026Y-101650944D01*
X146432733Y-101549084D01*
X146380006Y-101457758D01*
X146305439Y-101383191D01*
X146214113Y-101330464D01*
X146112253Y-101303171D01*
X146006799Y-101303171D01*
X145904939Y-101330464D01*
X145904936Y-101330465D01*
X145813611Y-101383192D01*
X145739047Y-101457756D01*
X145686320Y-101549081D01*
X145686319Y-101549084D01*
X145659026Y-101650944D01*
X129926317Y-101650944D01*
X129923365Y-101635629D01*
X129927025Y-101615334D01*
X129950500Y-101527727D01*
X129950500Y-101422273D01*
X129923207Y-101320413D01*
X129870480Y-101229087D01*
X129795913Y-101154520D01*
X129783361Y-101147273D01*
X132374500Y-101147273D01*
X132374500Y-101252727D01*
X132401793Y-101354587D01*
X132454520Y-101445913D01*
X132529087Y-101520480D01*
X132620413Y-101573207D01*
X132722273Y-101600500D01*
X132722275Y-101600500D01*
X132827725Y-101600500D01*
X132827727Y-101600500D01*
X132929587Y-101573207D01*
X133020913Y-101520480D01*
X133095480Y-101445913D01*
X133148207Y-101354587D01*
X133175500Y-101252727D01*
X133175500Y-101147273D01*
X133148207Y-101045413D01*
X133095480Y-100954087D01*
X133020913Y-100879520D01*
X132929587Y-100826793D01*
X132827727Y-100799500D01*
X132722273Y-100799500D01*
X132620413Y-100826793D01*
X132620410Y-100826794D01*
X132529085Y-100879521D01*
X132454521Y-100954085D01*
X132401794Y-101045410D01*
X132401793Y-101045413D01*
X132374500Y-101147273D01*
X129783361Y-101147273D01*
X129704587Y-101101793D01*
X129602727Y-101074500D01*
X129497273Y-101074500D01*
X129395413Y-101101793D01*
X129395410Y-101101794D01*
X129304085Y-101154521D01*
X129229521Y-101229085D01*
X129176794Y-101320410D01*
X129176793Y-101320413D01*
X129149500Y-101422273D01*
X108362161Y-101422273D01*
X108303350Y-101320413D01*
X107744839Y-100353071D01*
X107713734Y-100299197D01*
X116061000Y-100299197D01*
X116061000Y-100404651D01*
X116088293Y-100506511D01*
X116141020Y-100597837D01*
X116215587Y-100672404D01*
X116306913Y-100725131D01*
X116408773Y-100752424D01*
X116408775Y-100752424D01*
X116514225Y-100752424D01*
X116514227Y-100752424D01*
X116616087Y-100725131D01*
X116707413Y-100672404D01*
X116781980Y-100597837D01*
X116834707Y-100506511D01*
X116862000Y-100404651D01*
X116862000Y-100299197D01*
X116834707Y-100197337D01*
X116781980Y-100106011D01*
X116707413Y-100031444D01*
X116616087Y-99978717D01*
X116514227Y-99951424D01*
X116408773Y-99951424D01*
X116306913Y-99978717D01*
X116306910Y-99978718D01*
X116215585Y-100031445D01*
X116141021Y-100106009D01*
X116088294Y-100197334D01*
X116088293Y-100197337D01*
X116061000Y-100299197D01*
X107713734Y-100299197D01*
X107322900Y-99622273D01*
X127724500Y-99622273D01*
X127724500Y-99727727D01*
X127751793Y-99829587D01*
X127804520Y-99920913D01*
X127879087Y-99995480D01*
X127970413Y-100048207D01*
X128072273Y-100075500D01*
X128072275Y-100075500D01*
X128177725Y-100075500D01*
X128177727Y-100075500D01*
X128279587Y-100048207D01*
X128370913Y-99995480D01*
X128445480Y-99920913D01*
X128498207Y-99829587D01*
X128525500Y-99727727D01*
X128525500Y-99622273D01*
X128498207Y-99520413D01*
X128445480Y-99429087D01*
X128370913Y-99354520D01*
X128279587Y-99301793D01*
X128177727Y-99274500D01*
X128072273Y-99274500D01*
X127970413Y-99301793D01*
X127970410Y-99301794D01*
X127879085Y-99354521D01*
X127804521Y-99429085D01*
X127751794Y-99520410D01*
X127751793Y-99520413D01*
X127724500Y-99622273D01*
X107322900Y-99622273D01*
X107022019Y-99101147D01*
X106990914Y-99047273D01*
X125899500Y-99047273D01*
X125899500Y-99152727D01*
X125926793Y-99254587D01*
X125979520Y-99345913D01*
X126054087Y-99420480D01*
X126145413Y-99473207D01*
X126247273Y-99500500D01*
X126247275Y-99500500D01*
X126352725Y-99500500D01*
X126352727Y-99500500D01*
X126454587Y-99473207D01*
X126545913Y-99420480D01*
X126620480Y-99345913D01*
X126673207Y-99254587D01*
X126700500Y-99152727D01*
X126700500Y-99047273D01*
X126680404Y-98972273D01*
X132799500Y-98972273D01*
X132799500Y-99077727D01*
X132819596Y-99152725D01*
X132826793Y-99179586D01*
X132826794Y-99179589D01*
X132827884Y-99181477D01*
X132879520Y-99270913D01*
X132954087Y-99345480D01*
X133045413Y-99398207D01*
X133147273Y-99425500D01*
X133147275Y-99425500D01*
X133252725Y-99425500D01*
X133252727Y-99425500D01*
X133354587Y-99398207D01*
X133445913Y-99345480D01*
X133520480Y-99270913D01*
X133573207Y-99179587D01*
X133600500Y-99077727D01*
X133600500Y-99076023D01*
X134227405Y-99076023D01*
X134227405Y-99181477D01*
X134254698Y-99283337D01*
X134307425Y-99374663D01*
X134381992Y-99449230D01*
X134473318Y-99501957D01*
X134575178Y-99529250D01*
X134575180Y-99529250D01*
X134680630Y-99529250D01*
X134680632Y-99529250D01*
X134782492Y-99501957D01*
X134873818Y-99449230D01*
X134948385Y-99374663D01*
X135001112Y-99283337D01*
X135028405Y-99181477D01*
X135028405Y-99076023D01*
X135019379Y-99042337D01*
X135021041Y-98972489D01*
X135060202Y-98914626D01*
X135107057Y-98890470D01*
X135157492Y-98876957D01*
X135248818Y-98824230D01*
X135323385Y-98749663D01*
X135376112Y-98658337D01*
X135403405Y-98556477D01*
X135403405Y-98451023D01*
X135376112Y-98349163D01*
X135323385Y-98257837D01*
X135248818Y-98183270D01*
X135157492Y-98130543D01*
X135055632Y-98103250D01*
X134950178Y-98103250D01*
X134848318Y-98130543D01*
X134848315Y-98130544D01*
X134756990Y-98183271D01*
X134682426Y-98257835D01*
X134629699Y-98349160D01*
X134629698Y-98349163D01*
X134602405Y-98451023D01*
X134602405Y-98556476D01*
X134611431Y-98590162D01*
X134609768Y-98660012D01*
X134570605Y-98717874D01*
X134523750Y-98742030D01*
X134473316Y-98755543D01*
X134473315Y-98755544D01*
X134381990Y-98808271D01*
X134307426Y-98882835D01*
X134254699Y-98974160D01*
X134254698Y-98974163D01*
X134227405Y-99076023D01*
X133600500Y-99076023D01*
X133600500Y-98972273D01*
X133573207Y-98870413D01*
X133520480Y-98779087D01*
X133445913Y-98704520D01*
X133354587Y-98651793D01*
X133252727Y-98624500D01*
X133147273Y-98624500D01*
X133045413Y-98651793D01*
X133045410Y-98651794D01*
X132954085Y-98704521D01*
X132879521Y-98779085D01*
X132826794Y-98870410D01*
X132826793Y-98870413D01*
X132799500Y-98972273D01*
X126680404Y-98972273D01*
X126673207Y-98945413D01*
X126620480Y-98854087D01*
X126545913Y-98779520D01*
X126454587Y-98726793D01*
X126352727Y-98699500D01*
X126247273Y-98699500D01*
X126145413Y-98726793D01*
X126145410Y-98726794D01*
X126054085Y-98779521D01*
X125979521Y-98854085D01*
X125926794Y-98945410D01*
X125926793Y-98945413D01*
X125899500Y-99047273D01*
X106990914Y-99047273D01*
X105766245Y-96926147D01*
X105735140Y-96872273D01*
X124799500Y-96872273D01*
X124799500Y-96977727D01*
X124826793Y-97079587D01*
X124879520Y-97170913D01*
X124954087Y-97245480D01*
X125018546Y-97282695D01*
X125066762Y-97333262D01*
X125079984Y-97401869D01*
X125076321Y-97422173D01*
X125049500Y-97522273D01*
X125049500Y-97627727D01*
X125076793Y-97729587D01*
X125129520Y-97820913D01*
X125204087Y-97895480D01*
X125295413Y-97948207D01*
X125397273Y-97975500D01*
X125397275Y-97975500D01*
X125502725Y-97975500D01*
X125502727Y-97975500D01*
X125604587Y-97948207D01*
X125695913Y-97895480D01*
X125770480Y-97820913D01*
X125823207Y-97729587D01*
X125850500Y-97627727D01*
X125850500Y-97522273D01*
X125823207Y-97420413D01*
X125770480Y-97329087D01*
X125695913Y-97254520D01*
X125631450Y-97217302D01*
X125616558Y-97201683D01*
X125598574Y-97189754D01*
X125592926Y-97176898D01*
X125583237Y-97166736D01*
X125579152Y-97145543D01*
X125570473Y-97125785D01*
X125571727Y-97107014D01*
X125570015Y-97098129D01*
X125570984Y-97090495D01*
X125572527Y-97080764D01*
X125573207Y-97079587D01*
X125600500Y-96977727D01*
X125600500Y-96922273D01*
X133299500Y-96922273D01*
X133299500Y-97027727D01*
X133326793Y-97129587D01*
X133379520Y-97220913D01*
X133454087Y-97295480D01*
X133545413Y-97348207D01*
X133647273Y-97375500D01*
X133647275Y-97375500D01*
X133752725Y-97375500D01*
X133752727Y-97375500D01*
X133854587Y-97348207D01*
X133945913Y-97295480D01*
X134020480Y-97220913D01*
X134048562Y-97172273D01*
X134624500Y-97172273D01*
X134624500Y-97277727D01*
X134651793Y-97379587D01*
X134704520Y-97470913D01*
X134779087Y-97545480D01*
X134870413Y-97598207D01*
X134972273Y-97625500D01*
X134972275Y-97625500D01*
X135077725Y-97625500D01*
X135077727Y-97625500D01*
X135179587Y-97598207D01*
X135270913Y-97545480D01*
X135345480Y-97470913D01*
X135398207Y-97379587D01*
X135425500Y-97277727D01*
X135425500Y-97172273D01*
X135398207Y-97070413D01*
X135365827Y-97014330D01*
X135349355Y-96946431D01*
X135372208Y-96880404D01*
X135427129Y-96837213D01*
X135496682Y-96830572D01*
X135505276Y-96832548D01*
X135572273Y-96850500D01*
X135572276Y-96850500D01*
X135677725Y-96850500D01*
X135677727Y-96850500D01*
X135779587Y-96823207D01*
X135870913Y-96770480D01*
X135945480Y-96695913D01*
X135998207Y-96604587D01*
X136025500Y-96502727D01*
X136025500Y-96397273D01*
X135998207Y-96295413D01*
X135945480Y-96204087D01*
X135870913Y-96129520D01*
X135870912Y-96129519D01*
X135864467Y-96124574D01*
X135866059Y-96122498D01*
X135826794Y-96081315D01*
X135813574Y-96012708D01*
X135839545Y-95947844D01*
X135896461Y-95907318D01*
X135937012Y-95900500D01*
X135977725Y-95900500D01*
X135977727Y-95900500D01*
X136079587Y-95873207D01*
X136170913Y-95820480D01*
X136245480Y-95745913D01*
X136298207Y-95654587D01*
X136325500Y-95552727D01*
X136325500Y-95447273D01*
X136298207Y-95345413D01*
X136245480Y-95254087D01*
X136170913Y-95179520D01*
X136104059Y-95140922D01*
X136079589Y-95126794D01*
X136079588Y-95126793D01*
X136079587Y-95126793D01*
X135977727Y-95099500D01*
X135872273Y-95099500D01*
X135770413Y-95126793D01*
X135770410Y-95126794D01*
X135679085Y-95179521D01*
X135604521Y-95254085D01*
X135551794Y-95345410D01*
X135551793Y-95345413D01*
X135524500Y-95447273D01*
X135524500Y-95552727D01*
X135551793Y-95654587D01*
X135580660Y-95704587D01*
X135604521Y-95745914D01*
X135679087Y-95820480D01*
X135685533Y-95825426D01*
X135683940Y-95827501D01*
X135723206Y-95868685D01*
X135736426Y-95937292D01*
X135710455Y-96002156D01*
X135653539Y-96042682D01*
X135612988Y-96049500D01*
X135572273Y-96049500D01*
X135470413Y-96076793D01*
X135470410Y-96076794D01*
X135379085Y-96129521D01*
X135304521Y-96204085D01*
X135251794Y-96295410D01*
X135251793Y-96295413D01*
X135224500Y-96397273D01*
X135224500Y-96502727D01*
X135251776Y-96604521D01*
X135251793Y-96604586D01*
X135251794Y-96604589D01*
X135284171Y-96660668D01*
X135300644Y-96728569D01*
X135277791Y-96794595D01*
X135222870Y-96837786D01*
X135153316Y-96844427D01*
X135144697Y-96842444D01*
X135077727Y-96824500D01*
X134972273Y-96824500D01*
X134870413Y-96851793D01*
X134870410Y-96851794D01*
X134779085Y-96904521D01*
X134704521Y-96979085D01*
X134651794Y-97070410D01*
X134651793Y-97070413D01*
X134624500Y-97172273D01*
X134048562Y-97172273D01*
X134073207Y-97129587D01*
X134100500Y-97027727D01*
X134100500Y-96922273D01*
X134073207Y-96820413D01*
X134020480Y-96729087D01*
X133945913Y-96654520D01*
X133859430Y-96604589D01*
X133854589Y-96601794D01*
X133854588Y-96601793D01*
X133854587Y-96601793D01*
X133752727Y-96574500D01*
X133647273Y-96574500D01*
X133545413Y-96601793D01*
X133545410Y-96601794D01*
X133454085Y-96654521D01*
X133379521Y-96729085D01*
X133326794Y-96820410D01*
X133326793Y-96820413D01*
X133299500Y-96922273D01*
X125600500Y-96922273D01*
X125600500Y-96872273D01*
X125573207Y-96770413D01*
X125520480Y-96679087D01*
X125445913Y-96604520D01*
X125354587Y-96551793D01*
X125252727Y-96524500D01*
X125147273Y-96524500D01*
X125045413Y-96551793D01*
X125045410Y-96551794D01*
X124954085Y-96604521D01*
X124879521Y-96679085D01*
X124826794Y-96770410D01*
X124826793Y-96770413D01*
X124799500Y-96872273D01*
X105735140Y-96872273D01*
X105267315Y-96062000D01*
X105251611Y-95997273D01*
X134199500Y-95997273D01*
X134199500Y-96102727D01*
X134226793Y-96204587D01*
X134279520Y-96295913D01*
X134354087Y-96370480D01*
X134445413Y-96423207D01*
X134547273Y-96450500D01*
X134547275Y-96450500D01*
X134652725Y-96450500D01*
X134652727Y-96450500D01*
X134754587Y-96423207D01*
X134845913Y-96370480D01*
X134920480Y-96295913D01*
X134973207Y-96204587D01*
X135000500Y-96102727D01*
X135000500Y-95997273D01*
X134973207Y-95895413D01*
X134920480Y-95804087D01*
X134845913Y-95729520D01*
X134754587Y-95676793D01*
X134652727Y-95649500D01*
X134547273Y-95649500D01*
X134445413Y-95676793D01*
X134445410Y-95676794D01*
X134354085Y-95729521D01*
X134279521Y-95804085D01*
X134226794Y-95895410D01*
X134226793Y-95895413D01*
X134199500Y-95997273D01*
X105251611Y-95997273D01*
X105250841Y-95994100D01*
X105267314Y-95938001D01*
X105680552Y-95222273D01*
X121949500Y-95222273D01*
X121949500Y-95327727D01*
X121976793Y-95429587D01*
X122029520Y-95520913D01*
X122104087Y-95595480D01*
X122195413Y-95648207D01*
X122297273Y-95675500D01*
X122297275Y-95675500D01*
X122402725Y-95675500D01*
X122402727Y-95675500D01*
X122504587Y-95648207D01*
X122595913Y-95595480D01*
X122670480Y-95520913D01*
X122684129Y-95497273D01*
X125374500Y-95497273D01*
X125374500Y-95602727D01*
X125401793Y-95704587D01*
X125454520Y-95795913D01*
X125529087Y-95870480D01*
X125620413Y-95923207D01*
X125722273Y-95950500D01*
X125722275Y-95950500D01*
X125827725Y-95950500D01*
X125827727Y-95950500D01*
X125929587Y-95923207D01*
X126020913Y-95870480D01*
X126095480Y-95795913D01*
X126148207Y-95704587D01*
X126175500Y-95602727D01*
X126175500Y-95497273D01*
X126148207Y-95395413D01*
X126095480Y-95304087D01*
X126095479Y-95304086D01*
X126095403Y-95303954D01*
X126078930Y-95236054D01*
X126101782Y-95170027D01*
X126156704Y-95126836D01*
X126226257Y-95120195D01*
X126234854Y-95122172D01*
X126247273Y-95125500D01*
X126247276Y-95125500D01*
X126352725Y-95125500D01*
X126352727Y-95125500D01*
X126454587Y-95098207D01*
X126545913Y-95045480D01*
X126620480Y-94970913D01*
X126673207Y-94879587D01*
X126700500Y-94777727D01*
X126700500Y-94672273D01*
X126673207Y-94570413D01*
X126620480Y-94479087D01*
X126545913Y-94404520D01*
X126454587Y-94351793D01*
X126352727Y-94324500D01*
X126247273Y-94324500D01*
X126145413Y-94351793D01*
X126145410Y-94351794D01*
X126054085Y-94404521D01*
X125979521Y-94479085D01*
X125926794Y-94570410D01*
X125926793Y-94570413D01*
X125899500Y-94672273D01*
X125899500Y-94777727D01*
X125918385Y-94848205D01*
X125926793Y-94879586D01*
X125926794Y-94879589D01*
X125979596Y-94971045D01*
X125996069Y-95038945D01*
X125973216Y-95104972D01*
X125918295Y-95148163D01*
X125848742Y-95154804D01*
X125840126Y-95152822D01*
X125827727Y-95149500D01*
X125722273Y-95149500D01*
X125620413Y-95176793D01*
X125620410Y-95176794D01*
X125529085Y-95229521D01*
X125454521Y-95304085D01*
X125401794Y-95395410D01*
X125401793Y-95395413D01*
X125374500Y-95497273D01*
X122684129Y-95497273D01*
X122723207Y-95429587D01*
X122750500Y-95327727D01*
X122750500Y-95222273D01*
X122723207Y-95120413D01*
X122689192Y-95061497D01*
X122672720Y-94993601D01*
X122695572Y-94927574D01*
X122750493Y-94884383D01*
X122796580Y-94875500D01*
X122802725Y-94875500D01*
X122802727Y-94875500D01*
X122904587Y-94848207D01*
X122995913Y-94795480D01*
X123070480Y-94720913D01*
X123123207Y-94629587D01*
X123150500Y-94527727D01*
X123150500Y-94422273D01*
X123123207Y-94320413D01*
X123070480Y-94229087D01*
X122995913Y-94154520D01*
X122904587Y-94101793D01*
X122802727Y-94074500D01*
X122697273Y-94074500D01*
X122595413Y-94101793D01*
X122595410Y-94101794D01*
X122504085Y-94154521D01*
X122430642Y-94227964D01*
X122430641Y-94227965D01*
X122429520Y-94229087D01*
X122376793Y-94320413D01*
X122367395Y-94355486D01*
X122367393Y-94355491D01*
X122349500Y-94422271D01*
X122349500Y-94422273D01*
X122349500Y-94527727D01*
X122376793Y-94629587D01*
X122410807Y-94688502D01*
X122427280Y-94756399D01*
X122404428Y-94822426D01*
X122349507Y-94865617D01*
X122303420Y-94874500D01*
X122297273Y-94874500D01*
X122195413Y-94901793D01*
X122195410Y-94901794D01*
X122104085Y-94954521D01*
X122029521Y-95029085D01*
X121976794Y-95120410D01*
X121976793Y-95120413D01*
X121949500Y-95222273D01*
X105680552Y-95222273D01*
X105969235Y-94722273D01*
X120974500Y-94722273D01*
X120974500Y-94827727D01*
X121001793Y-94929587D01*
X121054520Y-95020913D01*
X121129087Y-95095480D01*
X121220413Y-95148207D01*
X121322273Y-95175500D01*
X121322275Y-95175500D01*
X121427725Y-95175500D01*
X121427727Y-95175500D01*
X121529587Y-95148207D01*
X121620913Y-95095480D01*
X121695480Y-95020913D01*
X121748207Y-94929587D01*
X121775500Y-94827727D01*
X121775500Y-94722273D01*
X121748207Y-94620413D01*
X121728626Y-94586498D01*
X121712154Y-94518601D01*
X121735006Y-94452574D01*
X121789927Y-94409383D01*
X121836014Y-94400500D01*
X121877725Y-94400500D01*
X121877727Y-94400500D01*
X121979587Y-94373207D01*
X122070913Y-94320480D01*
X122145480Y-94245913D01*
X122198207Y-94154587D01*
X122225500Y-94052727D01*
X122225500Y-93947273D01*
X122198207Y-93845413D01*
X122145480Y-93754087D01*
X122070913Y-93679520D01*
X121979587Y-93626793D01*
X121877727Y-93599500D01*
X121772273Y-93599500D01*
X121670413Y-93626793D01*
X121670410Y-93626794D01*
X121579085Y-93679521D01*
X121504521Y-93754085D01*
X121451794Y-93845410D01*
X121451793Y-93845413D01*
X121424500Y-93947273D01*
X121424500Y-94052727D01*
X121451793Y-94154587D01*
X121471373Y-94188501D01*
X121487846Y-94256399D01*
X121464994Y-94322426D01*
X121410073Y-94365617D01*
X121363986Y-94374500D01*
X121322273Y-94374500D01*
X121220413Y-94401793D01*
X121220410Y-94401794D01*
X121129085Y-94454521D01*
X121054521Y-94529085D01*
X121001794Y-94620410D01*
X121001793Y-94620413D01*
X120974500Y-94722273D01*
X105969235Y-94722273D01*
X106820852Y-93247273D01*
X122374500Y-93247273D01*
X122374500Y-93352727D01*
X122401793Y-93454587D01*
X122454520Y-93545913D01*
X122529087Y-93620480D01*
X122620413Y-93673207D01*
X122722273Y-93700500D01*
X122722275Y-93700500D01*
X122827724Y-93700500D01*
X122827727Y-93700500D01*
X122925141Y-93674398D01*
X122994987Y-93676061D01*
X123052850Y-93715223D01*
X123077006Y-93762079D01*
X123101793Y-93854588D01*
X123101794Y-93854589D01*
X123154520Y-93945913D01*
X123229087Y-94020480D01*
X123320413Y-94073207D01*
X123422273Y-94100500D01*
X123422275Y-94100500D01*
X123527725Y-94100500D01*
X123527727Y-94100500D01*
X123629587Y-94073207D01*
X123720913Y-94020480D01*
X123795480Y-93945913D01*
X123848207Y-93854587D01*
X123875500Y-93752727D01*
X123875500Y-93647273D01*
X123863754Y-93603434D01*
X139083994Y-93603434D01*
X139083994Y-93708888D01*
X139111287Y-93810748D01*
X139164014Y-93902074D01*
X139238581Y-93976641D01*
X139329907Y-94029368D01*
X139431767Y-94056661D01*
X139431769Y-94056661D01*
X139537219Y-94056661D01*
X139537221Y-94056661D01*
X139639081Y-94029368D01*
X139730407Y-93976641D01*
X139804974Y-93902074D01*
X139857701Y-93810748D01*
X139884994Y-93708888D01*
X139884994Y-93603434D01*
X139857701Y-93501574D01*
X139804974Y-93410248D01*
X139730407Y-93335681D01*
X139639081Y-93282954D01*
X139537221Y-93255661D01*
X139431767Y-93255661D01*
X139329907Y-93282954D01*
X139329904Y-93282955D01*
X139238579Y-93335682D01*
X139164015Y-93410246D01*
X139111288Y-93501571D01*
X139111287Y-93501574D01*
X139083994Y-93603434D01*
X123863754Y-93603434D01*
X123848207Y-93545413D01*
X123795480Y-93454087D01*
X123720913Y-93379520D01*
X123644983Y-93335682D01*
X123629589Y-93326794D01*
X123629588Y-93326793D01*
X123629587Y-93326793D01*
X123527727Y-93299500D01*
X123422273Y-93299500D01*
X123324861Y-93325601D01*
X123255011Y-93323938D01*
X123197149Y-93284775D01*
X123172994Y-93237921D01*
X123148207Y-93145413D01*
X123095480Y-93054087D01*
X123020913Y-92979520D01*
X122929587Y-92926793D01*
X122827727Y-92899500D01*
X122722273Y-92899500D01*
X122620413Y-92926793D01*
X122620410Y-92926794D01*
X122529085Y-92979521D01*
X122454521Y-93054085D01*
X122401794Y-93145410D01*
X122401793Y-93145413D01*
X122374500Y-93247273D01*
X106820852Y-93247273D01*
X107210575Y-92572273D01*
X126599500Y-92572273D01*
X126599500Y-92677727D01*
X126626793Y-92779587D01*
X126679520Y-92870913D01*
X126754087Y-92945480D01*
X126845413Y-92998207D01*
X126947273Y-93025500D01*
X126947275Y-93025500D01*
X127052725Y-93025500D01*
X127052727Y-93025500D01*
X127154587Y-92998207D01*
X127206155Y-92968434D01*
X140183846Y-92968434D01*
X140183846Y-93073888D01*
X140197676Y-93125500D01*
X140211139Y-93175747D01*
X140211140Y-93175750D01*
X140225268Y-93200220D01*
X140263866Y-93267074D01*
X140338433Y-93341641D01*
X140429759Y-93394368D01*
X140531619Y-93421661D01*
X140531621Y-93421661D01*
X140637071Y-93421661D01*
X140637073Y-93421661D01*
X140738933Y-93394368D01*
X140830259Y-93341641D01*
X140904826Y-93267074D01*
X140930692Y-93222273D01*
X144549500Y-93222273D01*
X144549500Y-93327727D01*
X144576793Y-93429587D01*
X144629520Y-93520913D01*
X144704087Y-93595480D01*
X144795413Y-93648207D01*
X144897273Y-93675500D01*
X144897275Y-93675500D01*
X145002725Y-93675500D01*
X145002727Y-93675500D01*
X145104587Y-93648207D01*
X145195913Y-93595480D01*
X145270480Y-93520913D01*
X145323207Y-93429587D01*
X145350500Y-93327727D01*
X145350500Y-93222273D01*
X145323207Y-93120413D01*
X145270480Y-93029087D01*
X145195913Y-92954520D01*
X145104587Y-92901793D01*
X145002727Y-92874500D01*
X144897273Y-92874500D01*
X144795413Y-92901793D01*
X144795410Y-92901794D01*
X144704085Y-92954521D01*
X144629521Y-93029085D01*
X144576794Y-93120410D01*
X144576793Y-93120413D01*
X144549500Y-93222273D01*
X140930692Y-93222273D01*
X140957553Y-93175748D01*
X140984846Y-93073888D01*
X140984846Y-92968434D01*
X140957553Y-92866574D01*
X140904826Y-92775248D01*
X140830259Y-92700681D01*
X140781055Y-92672273D01*
X148674500Y-92672273D01*
X148674500Y-92777727D01*
X148701793Y-92879587D01*
X148754520Y-92970913D01*
X148829087Y-93045480D01*
X148920413Y-93098207D01*
X149022273Y-93125500D01*
X149022275Y-93125500D01*
X149127725Y-93125500D01*
X149127727Y-93125500D01*
X149229587Y-93098207D01*
X149320913Y-93045480D01*
X149395480Y-92970913D01*
X149448207Y-92879587D01*
X149475500Y-92777727D01*
X149475500Y-92672273D01*
X149468801Y-92647273D01*
X149799500Y-92647273D01*
X149799500Y-92752727D01*
X149826793Y-92854587D01*
X149879520Y-92945913D01*
X149954087Y-93020480D01*
X150045413Y-93073207D01*
X150147273Y-93100500D01*
X150147275Y-93100500D01*
X150252725Y-93100500D01*
X150252727Y-93100500D01*
X150354587Y-93073207D01*
X150445913Y-93020480D01*
X150520480Y-92945913D01*
X150573207Y-92854587D01*
X150600500Y-92752727D01*
X150600500Y-92672273D01*
X151049500Y-92672273D01*
X151049500Y-92777727D01*
X151076793Y-92879587D01*
X151129520Y-92970913D01*
X151204087Y-93045480D01*
X151295413Y-93098207D01*
X151397273Y-93125500D01*
X151397275Y-93125500D01*
X151502725Y-93125500D01*
X151502727Y-93125500D01*
X151604587Y-93098207D01*
X151695913Y-93045480D01*
X151770480Y-92970913D01*
X151823207Y-92879587D01*
X151850500Y-92777727D01*
X151850500Y-92672273D01*
X151823207Y-92570413D01*
X151770480Y-92479087D01*
X151695913Y-92404520D01*
X151604587Y-92351793D01*
X151502727Y-92324500D01*
X151397273Y-92324500D01*
X151295413Y-92351793D01*
X151295410Y-92351794D01*
X151204085Y-92404521D01*
X151129521Y-92479085D01*
X151076794Y-92570410D01*
X151076794Y-92570411D01*
X151076793Y-92570413D01*
X151049500Y-92672273D01*
X150600500Y-92672273D01*
X150600500Y-92647273D01*
X150573207Y-92545413D01*
X150520480Y-92454087D01*
X150445913Y-92379520D01*
X150359430Y-92329589D01*
X150354589Y-92326794D01*
X150354588Y-92326793D01*
X150354587Y-92326793D01*
X150252727Y-92299500D01*
X150147273Y-92299500D01*
X150045413Y-92326793D01*
X150045410Y-92326794D01*
X149954085Y-92379521D01*
X149879521Y-92454085D01*
X149826794Y-92545410D01*
X149826793Y-92545413D01*
X149799500Y-92647273D01*
X149468801Y-92647273D01*
X149448207Y-92570413D01*
X149395480Y-92479087D01*
X149320913Y-92404520D01*
X149229587Y-92351793D01*
X149127727Y-92324500D01*
X149022273Y-92324500D01*
X148920413Y-92351793D01*
X148920410Y-92351794D01*
X148829085Y-92404521D01*
X148754521Y-92479085D01*
X148701794Y-92570410D01*
X148701794Y-92570411D01*
X148701793Y-92570413D01*
X148674500Y-92672273D01*
X140781055Y-92672273D01*
X140738933Y-92647954D01*
X140637073Y-92620661D01*
X140531619Y-92620661D01*
X140429759Y-92647954D01*
X140429756Y-92647955D01*
X140338431Y-92700682D01*
X140263867Y-92775246D01*
X140211140Y-92866571D01*
X140211139Y-92866574D01*
X140183846Y-92968434D01*
X127206155Y-92968434D01*
X127245913Y-92945480D01*
X127320480Y-92870913D01*
X127373207Y-92779587D01*
X127400500Y-92677727D01*
X127400500Y-92572273D01*
X127373207Y-92470413D01*
X127320480Y-92379087D01*
X127245913Y-92304520D01*
X127154587Y-92251793D01*
X127052727Y-92224500D01*
X126947273Y-92224500D01*
X126845413Y-92251793D01*
X126845410Y-92251794D01*
X126754085Y-92304521D01*
X126679521Y-92379085D01*
X126626794Y-92470410D01*
X126626793Y-92470413D01*
X126599500Y-92572273D01*
X107210575Y-92572273D01*
X107470390Y-92122273D01*
X131249500Y-92122273D01*
X131249500Y-92227727D01*
X131276793Y-92329587D01*
X131329520Y-92420913D01*
X131404087Y-92495480D01*
X131495413Y-92548207D01*
X131597273Y-92575500D01*
X131597275Y-92575500D01*
X131702725Y-92575500D01*
X131702727Y-92575500D01*
X131804587Y-92548207D01*
X131820785Y-92538854D01*
X131888681Y-92522381D01*
X131954708Y-92545231D01*
X131997901Y-92600151D01*
X132002560Y-92614147D01*
X132026793Y-92704588D01*
X132026794Y-92704589D01*
X132079520Y-92795913D01*
X132154087Y-92870480D01*
X132245413Y-92923207D01*
X132347273Y-92950500D01*
X132347275Y-92950500D01*
X132452725Y-92950500D01*
X132452727Y-92950500D01*
X132554587Y-92923207D01*
X132645913Y-92870480D01*
X132720480Y-92795913D01*
X132773207Y-92704587D01*
X132800500Y-92602727D01*
X132800500Y-92497273D01*
X132773207Y-92395413D01*
X132720480Y-92304087D01*
X132645913Y-92229520D01*
X132559733Y-92179764D01*
X132554589Y-92176794D01*
X132554588Y-92176793D01*
X132554587Y-92176793D01*
X132452727Y-92149500D01*
X132347273Y-92149500D01*
X132245413Y-92176793D01*
X132245408Y-92176795D01*
X132229212Y-92186146D01*
X132161312Y-92202617D01*
X132095285Y-92179764D01*
X132052096Y-92124842D01*
X132047441Y-92110858D01*
X132023207Y-92020413D01*
X131970480Y-91929087D01*
X131895913Y-91854520D01*
X131804587Y-91801793D01*
X131702727Y-91774500D01*
X131597273Y-91774500D01*
X131495413Y-91801793D01*
X131495410Y-91801794D01*
X131404085Y-91854521D01*
X131329521Y-91929085D01*
X131276794Y-92020410D01*
X131276793Y-92020413D01*
X131249500Y-92122273D01*
X107470390Y-92122273D01*
X108291106Y-90700793D01*
X113054537Y-90700793D01*
X113086260Y-90860269D01*
X113086263Y-90860279D01*
X113148488Y-91010505D01*
X113148490Y-91010509D01*
X113238826Y-91145706D01*
X113238832Y-91145714D01*
X113353809Y-91260691D01*
X113353817Y-91260697D01*
X113489014Y-91351033D01*
X113489018Y-91351035D01*
X113624119Y-91406995D01*
X113639249Y-91413262D01*
X113639253Y-91413262D01*
X113639254Y-91413263D01*
X113798730Y-91444986D01*
X113798733Y-91444986D01*
X113961345Y-91444986D01*
X114090256Y-91419343D01*
X114120827Y-91413262D01*
X114271059Y-91351034D01*
X114271061Y-91351033D01*
X114314102Y-91322273D01*
X126999500Y-91322273D01*
X126999500Y-91427727D01*
X127026793Y-91529587D01*
X127079520Y-91620913D01*
X127154087Y-91695480D01*
X127245413Y-91748207D01*
X127347273Y-91775500D01*
X127347275Y-91775500D01*
X127452725Y-91775500D01*
X127452727Y-91775500D01*
X127554587Y-91748207D01*
X127645913Y-91695480D01*
X127720480Y-91620913D01*
X127773207Y-91529587D01*
X127790070Y-91466652D01*
X127826432Y-91406995D01*
X127889278Y-91376465D01*
X127941931Y-91378972D01*
X128022273Y-91400500D01*
X128022276Y-91400500D01*
X128127725Y-91400500D01*
X128127727Y-91400500D01*
X128229587Y-91373207D01*
X128231205Y-91372273D01*
X134924500Y-91372273D01*
X134924500Y-91477727D01*
X134951793Y-91579587D01*
X135004520Y-91670913D01*
X135079087Y-91745480D01*
X135170413Y-91798207D01*
X135272273Y-91825500D01*
X135272275Y-91825500D01*
X135377725Y-91825500D01*
X135377727Y-91825500D01*
X135479587Y-91798207D01*
X135570913Y-91745480D01*
X135645480Y-91670913D01*
X135698207Y-91579587D01*
X135725500Y-91477727D01*
X135725500Y-91477725D01*
X135727603Y-91469877D01*
X135730357Y-91470615D01*
X135753034Y-91419343D01*
X135811355Y-91380866D01*
X135881220Y-91380028D01*
X135909709Y-91392027D01*
X135920413Y-91398207D01*
X136022273Y-91425500D01*
X136022275Y-91425500D01*
X136127725Y-91425500D01*
X136127727Y-91425500D01*
X136229587Y-91398207D01*
X136320913Y-91345480D01*
X136395480Y-91270913D01*
X136448207Y-91179587D01*
X136475500Y-91077727D01*
X136475500Y-90972273D01*
X136448207Y-90870413D01*
X136395480Y-90779087D01*
X136320913Y-90704520D01*
X136314458Y-90700793D01*
X145294461Y-90700793D01*
X145326184Y-90860269D01*
X145326187Y-90860279D01*
X145388412Y-91010505D01*
X145388414Y-91010509D01*
X145478750Y-91145706D01*
X145478756Y-91145714D01*
X145593733Y-91260691D01*
X145593741Y-91260697D01*
X145728938Y-91351033D01*
X145728942Y-91351035D01*
X145864043Y-91406995D01*
X145879173Y-91413262D01*
X145879177Y-91413262D01*
X145879178Y-91413263D01*
X146038654Y-91444986D01*
X146038657Y-91444986D01*
X146201269Y-91444986D01*
X146330180Y-91419343D01*
X146360751Y-91413262D01*
X146510983Y-91351034D01*
X146510985Y-91351033D01*
X146578131Y-91306166D01*
X146646187Y-91260694D01*
X146761170Y-91145711D01*
X146823924Y-91051793D01*
X146851509Y-91010509D01*
X146851511Y-91010505D01*
X146909331Y-90870914D01*
X146913738Y-90860275D01*
X146936030Y-90748207D01*
X146945462Y-90700793D01*
X146945462Y-90538178D01*
X146913739Y-90378702D01*
X146913738Y-90378701D01*
X146913738Y-90378697D01*
X146913736Y-90378692D01*
X146851511Y-90228466D01*
X146851509Y-90228462D01*
X146761173Y-90093265D01*
X146761167Y-90093257D01*
X146646190Y-89978280D01*
X146646182Y-89978274D01*
X146510985Y-89887938D01*
X146510981Y-89887936D01*
X146360755Y-89825711D01*
X146360745Y-89825708D01*
X146201269Y-89793986D01*
X146201267Y-89793986D01*
X146038657Y-89793986D01*
X146038655Y-89793986D01*
X145879178Y-89825708D01*
X145879168Y-89825711D01*
X145728942Y-89887936D01*
X145728938Y-89887938D01*
X145593741Y-89978274D01*
X145593733Y-89978280D01*
X145478756Y-90093257D01*
X145478750Y-90093265D01*
X145388414Y-90228462D01*
X145388412Y-90228466D01*
X145326187Y-90378692D01*
X145326184Y-90378702D01*
X145294462Y-90538178D01*
X145294462Y-90538181D01*
X145294462Y-90700791D01*
X145294462Y-90700793D01*
X145294461Y-90700793D01*
X136314458Y-90700793D01*
X136229587Y-90651793D01*
X136127727Y-90624500D01*
X136022273Y-90624500D01*
X135920413Y-90651793D01*
X135920410Y-90651794D01*
X135829085Y-90704521D01*
X135754521Y-90779085D01*
X135701794Y-90870410D01*
X135701793Y-90870413D01*
X135672397Y-90980123D01*
X135669649Y-90979386D01*
X135646930Y-91030697D01*
X135588592Y-91069148D01*
X135518727Y-91069956D01*
X135490287Y-91057970D01*
X135479587Y-91051793D01*
X135377727Y-91024500D01*
X135272273Y-91024500D01*
X135170413Y-91051793D01*
X135170410Y-91051794D01*
X135079085Y-91104521D01*
X135004521Y-91179085D01*
X134951794Y-91270410D01*
X134951793Y-91270413D01*
X134924500Y-91372273D01*
X128231205Y-91372273D01*
X128320913Y-91320480D01*
X128395480Y-91245913D01*
X128448207Y-91154587D01*
X128475500Y-91052727D01*
X128475500Y-90947273D01*
X128448207Y-90845413D01*
X128395480Y-90754087D01*
X128320913Y-90679520D01*
X128229587Y-90626793D01*
X128127727Y-90599500D01*
X128022273Y-90599500D01*
X127920413Y-90626793D01*
X127920410Y-90626794D01*
X127829085Y-90679521D01*
X127754521Y-90754085D01*
X127701794Y-90845410D01*
X127701793Y-90845411D01*
X127684931Y-90908345D01*
X127648566Y-90968005D01*
X127585719Y-90998534D01*
X127533064Y-90996026D01*
X127452727Y-90974500D01*
X127347273Y-90974500D01*
X127245413Y-91001793D01*
X127245410Y-91001794D01*
X127154085Y-91054521D01*
X127079521Y-91129085D01*
X127026794Y-91220410D01*
X127026793Y-91220413D01*
X126999500Y-91322273D01*
X114314102Y-91322273D01*
X114338207Y-91306166D01*
X114406263Y-91260694D01*
X114421479Y-91245478D01*
X114440493Y-91226465D01*
X114521243Y-91145714D01*
X114521246Y-91145711D01*
X114584000Y-91051793D01*
X114611585Y-91010509D01*
X114611587Y-91010505D01*
X114669407Y-90870914D01*
X114673814Y-90860275D01*
X114696106Y-90748207D01*
X114705538Y-90700793D01*
X114705538Y-90572273D01*
X128849500Y-90572273D01*
X128849500Y-90677727D01*
X128876793Y-90779587D01*
X128929520Y-90870913D01*
X129004087Y-90945480D01*
X129095413Y-90998207D01*
X129197273Y-91025500D01*
X129197275Y-91025500D01*
X129302724Y-91025500D01*
X129302727Y-91025500D01*
X129302729Y-91025499D01*
X129306854Y-91024956D01*
X129310344Y-91025500D01*
X129310854Y-91025500D01*
X129310854Y-91025579D01*
X129375890Y-91035717D01*
X129428149Y-91082094D01*
X129430428Y-91085883D01*
X129479520Y-91170913D01*
X129554087Y-91245480D01*
X129645413Y-91298207D01*
X129747273Y-91325500D01*
X129747275Y-91325500D01*
X129852725Y-91325500D01*
X129852727Y-91325500D01*
X129954587Y-91298207D01*
X130045913Y-91245480D01*
X130120480Y-91170913D01*
X130173207Y-91079587D01*
X130200500Y-90977727D01*
X130200500Y-90872273D01*
X130173207Y-90770413D01*
X130120480Y-90679087D01*
X130045913Y-90604520D01*
X129979059Y-90565922D01*
X129954589Y-90551794D01*
X129954588Y-90551793D01*
X129954587Y-90551793D01*
X129852727Y-90524500D01*
X129747273Y-90524500D01*
X129747271Y-90524500D01*
X129743134Y-90525045D01*
X129739640Y-90524500D01*
X129739146Y-90524500D01*
X129739146Y-90524422D01*
X129730620Y-90523093D01*
X129718253Y-90525799D01*
X129696760Y-90517811D01*
X129674099Y-90514277D01*
X129663070Y-90505291D01*
X129652760Y-90501460D01*
X129638048Y-90484905D01*
X129627773Y-90476533D01*
X129623221Y-90470468D01*
X129623207Y-90470413D01*
X129570480Y-90379087D01*
X129507025Y-90315632D01*
X129501748Y-90308600D01*
X129492458Y-90283784D01*
X129479761Y-90260530D01*
X129480401Y-90251573D01*
X129477254Y-90243165D01*
X129482854Y-90217269D01*
X129484745Y-90190838D01*
X129490512Y-90181863D01*
X129492024Y-90174875D01*
X129500398Y-90166480D01*
X129513246Y-90146490D01*
X129518003Y-90141732D01*
X129518008Y-90141730D01*
X129592575Y-90067163D01*
X129645302Y-89975837D01*
X129672595Y-89873977D01*
X129672595Y-89768523D01*
X129645302Y-89666663D01*
X129645299Y-89666658D01*
X129644818Y-89664862D01*
X129646481Y-89595012D01*
X129685643Y-89537149D01*
X129732497Y-89512994D01*
X129791172Y-89497273D01*
X134224500Y-89497273D01*
X134224500Y-89602727D01*
X134251793Y-89704587D01*
X134304520Y-89795913D01*
X134379087Y-89870480D01*
X134470413Y-89923207D01*
X134572273Y-89950500D01*
X134572275Y-89950500D01*
X134576701Y-89951686D01*
X134636362Y-89988051D01*
X134666891Y-90050898D01*
X134658596Y-90120273D01*
X134651997Y-90133456D01*
X134636536Y-90160236D01*
X134601794Y-90220410D01*
X134601793Y-90220413D01*
X134574500Y-90322273D01*
X134574500Y-90427727D01*
X134601793Y-90529587D01*
X134654520Y-90620913D01*
X134729087Y-90695480D01*
X134820413Y-90748207D01*
X134922273Y-90775500D01*
X134922275Y-90775500D01*
X135027725Y-90775500D01*
X135027727Y-90775500D01*
X135129587Y-90748207D01*
X135220913Y-90695480D01*
X135295480Y-90620913D01*
X135348207Y-90529587D01*
X135375500Y-90427727D01*
X135375500Y-90322273D01*
X135375500Y-90315708D01*
X135395185Y-90248669D01*
X135447989Y-90202914D01*
X135517147Y-90192970D01*
X135574989Y-90217334D01*
X135579081Y-90220474D01*
X135579087Y-90220480D01*
X135670413Y-90273207D01*
X135772273Y-90300500D01*
X135772275Y-90300500D01*
X135877725Y-90300500D01*
X135877727Y-90300500D01*
X135979587Y-90273207D01*
X136070913Y-90220480D01*
X136145480Y-90145913D01*
X136198207Y-90054587D01*
X136225500Y-89952727D01*
X136225500Y-89847273D01*
X136198207Y-89745413D01*
X136145480Y-89654087D01*
X136070913Y-89579520D01*
X135979587Y-89526793D01*
X135877727Y-89499500D01*
X135838406Y-89499500D01*
X135771367Y-89479815D01*
X135725612Y-89427011D01*
X135715668Y-89357853D01*
X135721256Y-89337479D01*
X135721103Y-89337438D01*
X135723207Y-89329587D01*
X135750500Y-89227727D01*
X135750500Y-89122273D01*
X135723207Y-89020413D01*
X135670480Y-88929087D01*
X135595913Y-88854520D01*
X135504587Y-88801793D01*
X135402727Y-88774500D01*
X135297273Y-88774500D01*
X135195413Y-88801793D01*
X135195410Y-88801794D01*
X135104085Y-88854521D01*
X135029521Y-88929085D01*
X134976794Y-89020410D01*
X134976793Y-89020413D01*
X134955910Y-89098351D01*
X134919545Y-89158012D01*
X134856698Y-89188541D01*
X134787322Y-89180246D01*
X134784437Y-89178802D01*
X134779589Y-89176794D01*
X134779587Y-89176793D01*
X134677727Y-89149500D01*
X134572273Y-89149500D01*
X134470413Y-89176793D01*
X134470410Y-89176794D01*
X134379085Y-89229521D01*
X134304521Y-89304085D01*
X134251794Y-89395410D01*
X134251793Y-89395413D01*
X134224500Y-89497273D01*
X129791172Y-89497273D01*
X129801682Y-89494457D01*
X129893008Y-89441730D01*
X129967575Y-89367163D01*
X130020302Y-89275837D01*
X130047595Y-89173977D01*
X130047595Y-89068523D01*
X130020302Y-88966663D01*
X129967575Y-88875337D01*
X129893008Y-88800770D01*
X129801682Y-88748043D01*
X129699822Y-88720750D01*
X129594368Y-88720750D01*
X129492508Y-88748043D01*
X129492505Y-88748044D01*
X129401180Y-88800771D01*
X129326616Y-88875335D01*
X129273889Y-88966660D01*
X129273888Y-88966663D01*
X129246595Y-89068523D01*
X129246595Y-89173977D01*
X129254841Y-89204753D01*
X129274371Y-89277638D01*
X129272708Y-89347488D01*
X129233545Y-89405350D01*
X129186690Y-89429506D01*
X129117506Y-89448043D01*
X129117505Y-89448044D01*
X129026180Y-89500771D01*
X128951616Y-89575335D01*
X128898889Y-89666660D01*
X128898888Y-89666663D01*
X128871595Y-89768523D01*
X128871595Y-89873977D01*
X128898888Y-89975837D01*
X128944355Y-90054589D01*
X128951616Y-90067164D01*
X129008848Y-90124396D01*
X129042333Y-90185719D01*
X129037349Y-90255411D01*
X129008849Y-90299758D01*
X128929520Y-90379087D01*
X128876794Y-90470410D01*
X128876793Y-90470413D01*
X128849500Y-90572273D01*
X114705538Y-90572273D01*
X114705538Y-90538178D01*
X114673815Y-90378702D01*
X114673814Y-90378701D01*
X114673814Y-90378697D01*
X114673812Y-90378692D01*
X114611587Y-90228466D01*
X114611585Y-90228462D01*
X114521249Y-90093265D01*
X114521243Y-90093257D01*
X114406266Y-89978280D01*
X114406258Y-89978274D01*
X114271061Y-89887938D01*
X114271057Y-89887936D01*
X114120831Y-89825711D01*
X114120821Y-89825708D01*
X113961345Y-89793986D01*
X113961343Y-89793986D01*
X113798733Y-89793986D01*
X113798731Y-89793986D01*
X113639254Y-89825708D01*
X113639244Y-89825711D01*
X113489018Y-89887936D01*
X113489014Y-89887938D01*
X113353817Y-89978274D01*
X113353809Y-89978280D01*
X113238832Y-90093257D01*
X113238826Y-90093265D01*
X113148490Y-90228462D01*
X113148488Y-90228466D01*
X113086263Y-90378692D01*
X113086260Y-90378702D01*
X113054538Y-90538178D01*
X113054538Y-90538181D01*
X113054538Y-90700791D01*
X113054538Y-90700793D01*
X113054537Y-90700793D01*
X108291106Y-90700793D01*
X109327296Y-88906112D01*
X122827006Y-88906112D01*
X122827006Y-89011566D01*
X122854299Y-89113426D01*
X122907026Y-89204752D01*
X122981593Y-89279319D01*
X123072919Y-89332046D01*
X123174779Y-89359339D01*
X123174781Y-89359339D01*
X123280231Y-89359339D01*
X123280233Y-89359339D01*
X123382093Y-89332046D01*
X123473419Y-89279319D01*
X123547986Y-89204752D01*
X123600713Y-89113426D01*
X123628006Y-89011566D01*
X123628006Y-88906112D01*
X123600713Y-88804252D01*
X123547986Y-88712926D01*
X123473419Y-88638359D01*
X123382093Y-88585632D01*
X123280233Y-88558339D01*
X123174779Y-88558339D01*
X123072919Y-88585632D01*
X123072916Y-88585633D01*
X122981591Y-88638360D01*
X122907027Y-88712924D01*
X122854300Y-88804249D01*
X122854299Y-88804252D01*
X122827006Y-88906112D01*
X109327296Y-88906112D01*
X109693924Y-88271112D01*
X121727154Y-88271112D01*
X121727154Y-88376566D01*
X121754447Y-88478426D01*
X121807174Y-88569752D01*
X121881741Y-88644319D01*
X121973067Y-88697046D01*
X122074927Y-88724339D01*
X122074929Y-88724339D01*
X122180379Y-88724339D01*
X122180381Y-88724339D01*
X122282241Y-88697046D01*
X122373567Y-88644319D01*
X122448134Y-88569752D01*
X122500861Y-88478426D01*
X122528154Y-88376566D01*
X122528154Y-88271112D01*
X122511693Y-88209678D01*
X141744500Y-88209678D01*
X141744500Y-88315132D01*
X141771793Y-88416992D01*
X141824520Y-88508318D01*
X141899087Y-88582885D01*
X141990413Y-88635612D01*
X142092273Y-88662905D01*
X142092275Y-88662905D01*
X142197725Y-88662905D01*
X142197727Y-88662905D01*
X142299587Y-88635612D01*
X142390913Y-88582885D01*
X142465480Y-88508318D01*
X142518207Y-88416992D01*
X142545500Y-88315132D01*
X142545500Y-88209678D01*
X142518207Y-88107818D01*
X142465480Y-88016492D01*
X142390913Y-87941925D01*
X142299587Y-87889198D01*
X142197727Y-87861905D01*
X142092273Y-87861905D01*
X141990413Y-87889198D01*
X141990410Y-87889199D01*
X141899085Y-87941926D01*
X141824521Y-88016490D01*
X141771794Y-88107815D01*
X141771793Y-88107818D01*
X141744500Y-88209678D01*
X122511693Y-88209678D01*
X122500861Y-88169252D01*
X122448134Y-88077926D01*
X122373567Y-88003359D01*
X122293328Y-87957033D01*
X122282243Y-87950633D01*
X122282242Y-87950632D01*
X122282241Y-87950632D01*
X122180381Y-87923339D01*
X122074927Y-87923339D01*
X121973067Y-87950632D01*
X121973064Y-87950633D01*
X121881739Y-88003360D01*
X121807175Y-88077924D01*
X121754448Y-88169249D01*
X121754447Y-88169252D01*
X121727154Y-88271112D01*
X109693924Y-88271112D01*
X110354412Y-87127146D01*
X141119500Y-87127146D01*
X141119500Y-87232600D01*
X141146793Y-87334460D01*
X141199520Y-87425786D01*
X141274087Y-87500353D01*
X141365413Y-87553080D01*
X141467273Y-87580373D01*
X141467275Y-87580373D01*
X141572725Y-87580373D01*
X141572727Y-87580373D01*
X141674587Y-87553080D01*
X141765913Y-87500353D01*
X141840480Y-87425786D01*
X141893207Y-87334460D01*
X141920500Y-87232600D01*
X141920500Y-87127146D01*
X141893207Y-87025286D01*
X141840480Y-86933960D01*
X141765913Y-86859393D01*
X141674587Y-86806666D01*
X141572727Y-86779373D01*
X141467273Y-86779373D01*
X141365413Y-86806666D01*
X141365410Y-86806667D01*
X141274085Y-86859394D01*
X141199521Y-86933958D01*
X141146794Y-87025283D01*
X141146793Y-87025286D01*
X141119500Y-87127146D01*
X110354412Y-87127146D01*
X110979431Y-86044614D01*
X140494500Y-86044614D01*
X140494500Y-86150068D01*
X140521793Y-86251928D01*
X140574520Y-86343254D01*
X140649087Y-86417821D01*
X140740413Y-86470548D01*
X140842273Y-86497841D01*
X140842275Y-86497841D01*
X140947725Y-86497841D01*
X140947727Y-86497841D01*
X141049587Y-86470548D01*
X141140913Y-86417821D01*
X141215480Y-86343254D01*
X141268207Y-86251928D01*
X141291371Y-86165478D01*
X144942705Y-86165478D01*
X144942705Y-86270932D01*
X144969998Y-86372792D01*
X145022725Y-86464118D01*
X145097292Y-86538685D01*
X145188618Y-86591412D01*
X145263240Y-86611406D01*
X145322900Y-86647771D01*
X145353429Y-86710618D01*
X145350921Y-86763273D01*
X145322304Y-86870075D01*
X145322304Y-86870077D01*
X145322304Y-86975531D01*
X145349597Y-87077391D01*
X145402324Y-87168717D01*
X145476891Y-87243284D01*
X145568217Y-87296011D01*
X145631600Y-87312994D01*
X145691261Y-87349359D01*
X145721790Y-87412206D01*
X145714783Y-87473936D01*
X145715450Y-87474115D01*
X145714258Y-87478561D01*
X145714071Y-87480214D01*
X145713348Y-87481959D01*
X145713346Y-87481965D01*
X145713346Y-87481966D01*
X145686053Y-87583826D01*
X145686053Y-87689280D01*
X145713346Y-87791140D01*
X145766073Y-87882466D01*
X145840640Y-87957033D01*
X145931966Y-88009760D01*
X146033826Y-88037053D01*
X146033828Y-88037053D01*
X146139278Y-88037053D01*
X146139280Y-88037053D01*
X146241140Y-88009760D01*
X146332466Y-87957033D01*
X146407033Y-87882466D01*
X146459760Y-87791140D01*
X146487053Y-87689280D01*
X146487053Y-87583826D01*
X146459760Y-87481966D01*
X146407033Y-87390640D01*
X146332466Y-87316073D01*
X146241140Y-87263346D01*
X146177753Y-87246361D01*
X146118094Y-87209996D01*
X146087566Y-87147149D01*
X146094576Y-87085421D01*
X146093907Y-87085242D01*
X146095103Y-87080775D01*
X146095291Y-87079127D01*
X146096006Y-87077398D01*
X146096011Y-87077391D01*
X146123304Y-86975531D01*
X146123304Y-86870077D01*
X146096011Y-86768217D01*
X146043284Y-86676891D01*
X145968717Y-86602324D01*
X145877393Y-86549598D01*
X145877392Y-86549597D01*
X145802768Y-86529602D01*
X145743108Y-86493236D01*
X145712579Y-86430389D01*
X145715087Y-86377733D01*
X145716410Y-86372795D01*
X145716412Y-86372792D01*
X145743705Y-86270932D01*
X145743705Y-86165478D01*
X145716412Y-86063618D01*
X145663685Y-85972292D01*
X145589118Y-85897725D01*
X145497792Y-85844998D01*
X145395932Y-85817705D01*
X145290478Y-85817705D01*
X145188618Y-85844998D01*
X145188615Y-85844999D01*
X145097290Y-85897726D01*
X145022726Y-85972290D01*
X144969999Y-86063615D01*
X144969998Y-86063618D01*
X144942705Y-86165478D01*
X141291371Y-86165478D01*
X141295500Y-86150068D01*
X141295500Y-86044614D01*
X141268207Y-85942754D01*
X141215480Y-85851428D01*
X141140913Y-85776861D01*
X141049587Y-85724134D01*
X140947727Y-85696841D01*
X140842273Y-85696841D01*
X140740413Y-85724134D01*
X140740410Y-85724135D01*
X140649085Y-85776862D01*
X140574521Y-85851426D01*
X140521794Y-85942751D01*
X140521793Y-85942754D01*
X140494500Y-86044614D01*
X110979431Y-86044614D01*
X111691205Y-84811821D01*
X116454537Y-84811821D01*
X116486260Y-84971297D01*
X116486263Y-84971307D01*
X116548488Y-85121533D01*
X116548490Y-85121537D01*
X116638826Y-85256734D01*
X116638832Y-85256742D01*
X116753809Y-85371719D01*
X116753817Y-85371725D01*
X116889014Y-85462061D01*
X116889018Y-85462063D01*
X117039244Y-85524288D01*
X117039249Y-85524290D01*
X117039253Y-85524290D01*
X117039254Y-85524291D01*
X117198730Y-85556014D01*
X117198733Y-85556014D01*
X117361345Y-85556014D01*
X117468636Y-85534671D01*
X117520827Y-85524290D01*
X117671059Y-85462062D01*
X117671061Y-85462061D01*
X117738207Y-85417194D01*
X117806263Y-85371722D01*
X117921246Y-85256739D01*
X118011586Y-85121535D01*
X118073814Y-84971303D01*
X118084195Y-84919112D01*
X118105538Y-84811821D01*
X141894461Y-84811821D01*
X141926184Y-84971297D01*
X141926187Y-84971307D01*
X141988412Y-85121533D01*
X141988414Y-85121537D01*
X142078750Y-85256734D01*
X142078756Y-85256742D01*
X142193733Y-85371719D01*
X142193741Y-85371725D01*
X142328938Y-85462061D01*
X142328942Y-85462063D01*
X142479168Y-85524288D01*
X142479173Y-85524290D01*
X142479177Y-85524290D01*
X142479178Y-85524291D01*
X142638654Y-85556014D01*
X142638657Y-85556014D01*
X142801269Y-85556014D01*
X142908560Y-85534671D01*
X142960751Y-85524290D01*
X143110983Y-85462062D01*
X143110985Y-85462061D01*
X143178131Y-85417194D01*
X143246187Y-85371722D01*
X143361170Y-85256739D01*
X143451510Y-85121535D01*
X143513738Y-84971303D01*
X143524119Y-84919112D01*
X143545462Y-84811821D01*
X143545462Y-84649206D01*
X143518435Y-84513338D01*
X143515239Y-84497273D01*
X144099500Y-84497273D01*
X144099500Y-84602727D01*
X144126793Y-84704587D01*
X144179520Y-84795913D01*
X144254087Y-84870480D01*
X144345413Y-84923207D01*
X144447273Y-84950500D01*
X144447275Y-84950500D01*
X144552725Y-84950500D01*
X144552727Y-84950500D01*
X144654587Y-84923207D01*
X144745913Y-84870480D01*
X144820480Y-84795913D01*
X144873207Y-84704587D01*
X144900500Y-84602727D01*
X144900500Y-84497273D01*
X144873207Y-84395413D01*
X144820480Y-84304087D01*
X144745913Y-84229520D01*
X144654587Y-84176793D01*
X144552727Y-84149500D01*
X144447273Y-84149500D01*
X144345413Y-84176793D01*
X144345410Y-84176794D01*
X144254085Y-84229521D01*
X144179521Y-84304085D01*
X144126794Y-84395410D01*
X144126793Y-84395413D01*
X144099500Y-84497273D01*
X143515239Y-84497273D01*
X143513738Y-84489725D01*
X143474672Y-84395410D01*
X143451511Y-84339494D01*
X143451509Y-84339490D01*
X143361173Y-84204293D01*
X143361167Y-84204285D01*
X143246190Y-84089308D01*
X143246182Y-84089302D01*
X143110985Y-83998966D01*
X143110981Y-83998964D01*
X142960755Y-83936739D01*
X142960745Y-83936736D01*
X142801269Y-83905014D01*
X142801267Y-83905014D01*
X142638657Y-83905014D01*
X142638655Y-83905014D01*
X142479178Y-83936736D01*
X142479168Y-83936739D01*
X142328942Y-83998964D01*
X142328938Y-83998966D01*
X142193741Y-84089302D01*
X142193733Y-84089308D01*
X142078756Y-84204285D01*
X142078750Y-84204293D01*
X141988414Y-84339490D01*
X141988412Y-84339494D01*
X141926187Y-84489720D01*
X141926184Y-84489730D01*
X141894462Y-84649206D01*
X141894462Y-84649209D01*
X141894462Y-84811819D01*
X141894462Y-84811821D01*
X141894461Y-84811821D01*
X118105538Y-84811821D01*
X118105538Y-84649206D01*
X118073815Y-84489730D01*
X118073814Y-84489729D01*
X118073814Y-84489725D01*
X118034748Y-84395410D01*
X118011587Y-84339494D01*
X118011585Y-84339490D01*
X117921249Y-84204293D01*
X117921243Y-84204285D01*
X117806266Y-84089308D01*
X117806258Y-84089302D01*
X117671061Y-83998966D01*
X117671057Y-83998964D01*
X117520831Y-83936739D01*
X117520821Y-83936736D01*
X117361345Y-83905014D01*
X117361343Y-83905014D01*
X117198733Y-83905014D01*
X117198731Y-83905014D01*
X117039254Y-83936736D01*
X117039244Y-83936739D01*
X116889018Y-83998964D01*
X116889014Y-83998966D01*
X116753817Y-84089302D01*
X116753809Y-84089308D01*
X116638832Y-84204285D01*
X116638826Y-84204293D01*
X116548490Y-84339490D01*
X116548488Y-84339494D01*
X116486263Y-84489720D01*
X116486260Y-84489730D01*
X116454538Y-84649206D01*
X116454538Y-84649209D01*
X116454538Y-84811819D01*
X116454538Y-84811821D01*
X116454537Y-84811821D01*
X111691205Y-84811821D01*
X113287365Y-82047273D01*
X128599500Y-82047273D01*
X128599500Y-82152727D01*
X128626793Y-82254587D01*
X128679520Y-82345913D01*
X128754087Y-82420480D01*
X128845413Y-82473207D01*
X128947273Y-82500500D01*
X128947275Y-82500500D01*
X129052725Y-82500500D01*
X129052727Y-82500500D01*
X129154587Y-82473207D01*
X129245913Y-82420480D01*
X129320480Y-82345913D01*
X129373207Y-82254587D01*
X129400500Y-82152727D01*
X129400500Y-82047273D01*
X130599500Y-82047273D01*
X130599500Y-82152727D01*
X130626793Y-82254587D01*
X130679520Y-82345913D01*
X130754087Y-82420480D01*
X130845413Y-82473207D01*
X130947273Y-82500500D01*
X130947275Y-82500500D01*
X131052725Y-82500500D01*
X131052727Y-82500500D01*
X131154587Y-82473207D01*
X131245913Y-82420480D01*
X131320480Y-82345913D01*
X131373207Y-82254587D01*
X131400500Y-82152727D01*
X131400500Y-82047273D01*
X132599500Y-82047273D01*
X132599500Y-82152727D01*
X132626793Y-82254587D01*
X132679520Y-82345913D01*
X132754087Y-82420480D01*
X132845413Y-82473207D01*
X132947273Y-82500500D01*
X132947275Y-82500500D01*
X133052725Y-82500500D01*
X133052727Y-82500500D01*
X133154587Y-82473207D01*
X133245913Y-82420480D01*
X133320480Y-82345913D01*
X133373207Y-82254587D01*
X133400500Y-82152727D01*
X133400500Y-82047273D01*
X133373207Y-81945413D01*
X133320480Y-81854087D01*
X133245913Y-81779520D01*
X133154587Y-81726793D01*
X133052727Y-81699500D01*
X132947273Y-81699500D01*
X132845413Y-81726793D01*
X132845410Y-81726794D01*
X132754085Y-81779521D01*
X132679521Y-81854085D01*
X132626794Y-81945410D01*
X132626793Y-81945413D01*
X132599500Y-82047273D01*
X131400500Y-82047273D01*
X131373207Y-81945413D01*
X131320480Y-81854087D01*
X131245913Y-81779520D01*
X131154587Y-81726793D01*
X131052727Y-81699500D01*
X130947273Y-81699500D01*
X130845413Y-81726793D01*
X130845410Y-81726794D01*
X130754085Y-81779521D01*
X130679521Y-81854085D01*
X130626794Y-81945410D01*
X130626793Y-81945413D01*
X130599500Y-82047273D01*
X129400500Y-82047273D01*
X129373207Y-81945413D01*
X129320480Y-81854087D01*
X129245913Y-81779520D01*
X129154587Y-81726793D01*
X129052727Y-81699500D01*
X128947273Y-81699500D01*
X128845413Y-81726793D01*
X128845410Y-81726794D01*
X128754085Y-81779521D01*
X128679521Y-81854085D01*
X128626794Y-81945410D01*
X128626793Y-81945413D01*
X128599500Y-82047273D01*
X113287365Y-82047273D01*
X114961086Y-79148388D01*
X126424500Y-79148388D01*
X126424500Y-79253842D01*
X126451793Y-79355702D01*
X126504520Y-79447028D01*
X126579087Y-79521595D01*
X126670413Y-79574322D01*
X126772273Y-79601615D01*
X126772275Y-79601615D01*
X126877725Y-79601615D01*
X126877727Y-79601615D01*
X126979587Y-79574322D01*
X127070913Y-79521595D01*
X127145480Y-79447028D01*
X127198207Y-79355702D01*
X127225500Y-79253842D01*
X127225500Y-79148388D01*
X127198207Y-79046528D01*
X127145480Y-78955202D01*
X127070913Y-78880635D01*
X126979587Y-78827908D01*
X126877727Y-78800615D01*
X126772273Y-78800615D01*
X126670413Y-78827908D01*
X126670410Y-78827909D01*
X126579085Y-78880636D01*
X126504521Y-78955200D01*
X126451794Y-79046525D01*
X126451793Y-79046528D01*
X126424500Y-79148388D01*
X114961086Y-79148388D01*
X117652275Y-74487248D01*
X117666821Y-74468294D01*
X117669973Y-74463576D01*
X117669976Y-74463574D01*
X117669977Y-74463570D01*
X117676762Y-74453418D01*
X117677924Y-74454194D01*
X117713401Y-74410168D01*
X117779695Y-74388101D01*
X117784125Y-74388022D01*
X142215875Y-74388022D01*
X142223953Y-74390394D01*
G37*
%TD.AperFunction*%
%TD*%
M02*
