M48
; DRILL file {KiCad 9.0.6-rc1} date 2025-10-31T17:35:11+0100
; FORMAT={-:-/ absolute / metric / decimal}
; #@! TF.CreationDate,2025-10-31T17:35:11+01:00
; #@! TF.GenerationSoftware,Kicad,Pcbnew,9.0.6-rc1
; #@! TF.FileFunction,Plated,1,6,PTH
FMAT,2
METRIC
; #@! TA.AperFunction,Plated,PTH,ViaDrill
T1C0.300
; #@! TA.AperFunction,Plated,PTH,ComponentDrill
T2C0.500
; #@! TA.AperFunction,Plated,PTH,ComponentDrill
T3C2.500
%
G90
G05
T1
X105.53Y-96.01
X105.891Y-95.385
X105.891Y-96.635
X106.252Y-94.759
X106.252Y-97.261
X106.613Y-94.134
X106.613Y-97.886
X106.974Y-93.509
X106.974Y-98.511
X107.335Y-92.884
X107.335Y-99.136
X107.696Y-92.258
X107.696Y-99.762
X108.057Y-91.633
X108.057Y-100.387
X108.418Y-91.008
X108.418Y-101.012
X108.779Y-90.383
X108.779Y-101.637
X109.14Y-89.757
X109.14Y-102.263
X109.501Y-89.132
X109.501Y-102.888
X109.862Y-88.507
X109.862Y-103.513
X110.223Y-87.881
X110.223Y-104.139
X110.236Y-101.641
X110.584Y-87.256
X110.584Y-104.764
X110.945Y-86.631
X110.945Y-105.389
X111.306Y-86.006
X111.306Y-106.014
X111.667Y-85.38
X111.667Y-106.64
X111.836Y-87.361
X112.028Y-84.755
X112.028Y-107.265
X112.389Y-84.13
X112.389Y-107.89
X112.75Y-83.505
X112.75Y-108.515
X112.76Y-87.86
X112.83Y-93.24
X113.111Y-82.879
X113.111Y-109.141
X113.27Y-98.39
X113.472Y-82.254
X113.472Y-109.766
X113.833Y-81.629
X113.833Y-110.391
X113.84Y-100.57
X113.87Y-86.01
X113.932Y-101.643
X114.02Y-88.67
X114.18Y-97.06
X114.194Y-81.004
X114.194Y-111.016
X114.555Y-80.378
X114.555Y-111.642
X114.916Y-79.753
X114.916Y-112.267
X115.126Y-89.261
X115.17Y-94.89
X115.211Y-110.258
X115.26Y-86.81
X115.277Y-79.128
X115.277Y-112.892
X115.638Y-78.502
X115.638Y-113.518
X115.999Y-77.877
X115.999Y-114.143
X116.01Y-96.95
X116.342Y-114.739
X116.344Y-77.282
X116.4Y-90.7
X116.462Y-100.352
X116.717Y-115.389
X116.719Y-76.632
X116.72Y-88.62
X117.057Y-107.056
X117.082Y-76.001
X117.082Y-116.019
X117.4Y-91.34
X117.443Y-75.376
X117.443Y-116.644
X117.462Y-102.084
X118.396Y-74.749
X118.396Y-117.269
X118.462Y-103.816
X118.475Y-106.1
X118.64Y-97.31
X118.76Y-99.31
X118.8Y-94.54
X119.118Y-74.749
X119.118Y-117.269
X119.416Y-93.021
X119.462Y-105.548
X119.84Y-74.749
X119.84Y-117.269
X120.4Y-88.525
X120.45Y-105.0
X120.562Y-74.749
X120.562Y-117.269
X120.725Y-89.552
X120.94Y-103.86
X121.028Y-87.689
X121.284Y-74.749
X121.284Y-117.269
X121.375Y-94.775
X121.6Y-90.075
X121.642Y-112.925
X121.825Y-94.0
X121.85Y-96.25
X121.88Y-108.06
X122.006Y-74.749
X122.006Y-117.269
X122.128Y-88.324
X122.35Y-95.275
X122.45Y-90.552
X122.728Y-74.749
X122.728Y-117.269
X122.75Y-94.475
X122.775Y-93.3
X122.96Y-83.97
X123.09Y-79.55
X123.21Y-108.98
X123.228Y-88.959
X123.28Y-100.2
X123.3Y-91.05
X123.45Y-74.749
X123.45Y-117.269
X123.475Y-93.7
X123.6Y-113.725
X123.78Y-86.35
X124.172Y-74.749
X124.172Y-117.269
X124.178Y-91.542
X124.19Y-98.3
X124.25Y-102.84
X124.25Y-115.3
X124.35Y-116.475
X124.52Y-101.0
X124.525Y-113.0
X124.54Y-97.52
X124.55Y-109.875
X124.65Y-90.9
X124.894Y-74.749
X124.894Y-117.269
X124.975Y-76.001
X125.025Y-92.35
X125.2Y-96.925
X125.21Y-88.08
X125.45Y-97.575
X125.575Y-89.0
X125.616Y-74.749
X125.616Y-117.269
X125.7Y-79.29
X125.72Y-108.28
X125.75Y-105.47
X125.775Y-86.85
X125.775Y-95.55
X125.81Y-103.6
X126.075Y-101.425
X126.1Y-109.875
X126.3Y-94.725
X126.3Y-99.1
X126.338Y-74.749
X126.338Y-117.269
X126.47Y-91.31
X126.825Y-79.201
X126.825Y-109.875
X126.975Y-80.95
X126.975Y-83.125
X127.0Y-82.0
X127.0Y-92.625
X127.06Y-74.749
X127.06Y-117.269
X127.12Y-89.37
X127.279Y-100.647
X127.288Y-105.385
X127.288Y-106.655
X127.288Y-107.925
X127.4Y-91.375
X127.425Y-108.7
X127.55Y-109.85
X127.782Y-74.749
X127.782Y-117.269
X127.9Y-96.5
X127.93Y-84.26
X128.075Y-91.0
X128.125Y-99.675
X128.275Y-90.125
X128.504Y-74.749
X128.504Y-117.269
X128.6Y-95.275
X128.8Y-88.73
X129.0Y-82.1
X129.04Y-102.02
X129.05Y-103.27
X129.05Y-104.25
X129.05Y-105.275
X129.05Y-107.275
X129.075Y-106.275
X129.175Y-113.225
X129.226Y-74.749
X129.226Y-117.269
X129.25Y-90.625
X129.272Y-89.821
X129.55Y-97.85
X129.55Y-101.475
X129.647Y-89.121
X129.675Y-94.85
X129.8Y-90.925
X129.825Y-102.125
X129.948Y-74.749
X129.948Y-117.269
X129.95Y-113.2
X130.178Y-93.899
X130.67Y-74.749
X130.67Y-117.269
X130.725Y-113.225
X131.0Y-82.1
X131.375Y-96.925
X131.392Y-74.749
X131.392Y-117.269
X131.475Y-95.8
X131.65Y-92.175
X131.757Y-115.675
X132.075Y-109.85
X132.075Y-110.65
X132.114Y-74.749
X132.114Y-117.269
X132.2Y-102.9
X132.2Y-103.775
X132.4Y-92.55
X132.5Y-95.275
X132.712Y-106.655
X132.775Y-101.2
X132.775Y-109.85
X132.775Y-110.65
X132.836Y-74.749
X132.836Y-117.269
X133.0Y-82.1
X133.0Y-102.925
X133.0Y-103.725
X133.075Y-79.201
X133.2Y-99.025
X133.475Y-109.85
X133.475Y-110.65
X133.558Y-74.749
X133.558Y-117.269
X133.68Y-85.67
X133.7Y-96.975
X133.725Y-102.925
X133.725Y-103.75
X133.91Y-79.67
X134.28Y-74.749
X134.28Y-117.269
X134.34Y-106.34
X134.6Y-96.05
X134.6Y-103.88
X134.625Y-89.55
X134.628Y-99.129
X134.7Y-108.81
X134.82Y-86.19
X134.925Y-76.001
X134.96Y-102.89
X134.975Y-90.375
X135.002Y-74.749
X135.002Y-117.269
X135.003Y-98.504
X135.025Y-97.225
X135.05Y-109.85
X135.325Y-91.425
X135.35Y-89.175
X135.625Y-96.45
X135.724Y-74.749
X135.724Y-117.269
X135.825Y-89.9
X135.9Y-94.125
X135.925Y-95.5
X136.075Y-91.025
X136.24Y-97.87
X136.3Y-111.15
X136.43Y-105.76
X136.446Y-74.749
X136.446Y-117.269
X136.61Y-99.71
X137.168Y-74.749
X137.168Y-117.269
X137.18Y-87.33
X137.375Y-111.25
X137.46Y-98.35
X137.76Y-105.25
X137.872Y-88.324
X137.89Y-74.749
X137.89Y-117.269
X138.26Y-104.17
X138.475Y-92.173
X138.612Y-74.749
X138.612Y-117.269
X138.68Y-82.87
X139.3Y-74.75
X139.3Y-117.27
X139.375Y-91.675
X139.46Y-108.64
X139.484Y-93.656
X139.68Y-85.48
X139.94Y-100.58
X140.05Y-74.75
X140.05Y-117.27
X140.2Y-91.173
X140.43Y-97.16
X140.538Y-105.548
X140.584Y-93.021
X140.74Y-84.97
X140.778Y-74.749
X140.778Y-117.269
X140.895Y-86.097
X141.05Y-99.98
X141.17Y-109.01
X141.5Y-74.749
X141.5Y-117.269
X141.52Y-87.18
X141.538Y-103.816
X141.684Y-92.386
X141.73Y-96.49
X141.99Y-107.43
X142.145Y-88.262
X142.22Y-74.75
X142.22Y-117.27
X142.538Y-102.084
X142.587Y-116.644
X142.589Y-75.377
X142.741Y-82.895
X142.948Y-116.019
X142.95Y-76.003
X143.05Y-96.0
X143.274Y-86.489
X143.311Y-76.628
X143.311Y-115.388
X143.538Y-100.352
X143.672Y-77.253
X143.686Y-114.738
X143.77Y-83.73
X143.822Y-93.029
X144.031Y-114.143
X144.033Y-77.878
X144.24Y-107.78
X144.392Y-113.518
X144.394Y-78.504
X144.5Y-84.55
X144.63Y-96.38
X144.753Y-112.892
X144.755Y-79.129
X144.781Y-110.318
X144.95Y-93.275
X145.114Y-112.267
X145.116Y-79.754
X145.343Y-86.218
X145.43Y-105.87
X145.475Y-111.642
X145.477Y-80.38
X145.48Y-84.18
X145.58Y-85.26
X145.723Y-86.923
X145.775Y-93.3
X145.836Y-111.016
X145.838Y-81.005
X146.06Y-101.704
X146.07Y-100.59
X146.087Y-87.637
X146.197Y-110.391
X146.199Y-81.63
X146.55Y-104.34
X146.558Y-109.766
X146.56Y-82.255
X146.564Y-84.589
X146.919Y-109.141
X146.921Y-82.881
X147.28Y-108.515
X147.282Y-83.506
X147.57Y-102.29
X147.641Y-107.89
X147.643Y-84.131
X147.716Y-91.512
X148.002Y-107.265
X148.004Y-84.756
X148.1Y-95.7
X148.363Y-106.64
X148.365Y-85.382
X148.724Y-106.014
X148.726Y-86.007
X149.075Y-92.725
X149.085Y-105.389
X149.087Y-86.632
X149.446Y-104.764
X149.448Y-87.258
X149.756Y-101.702
X149.807Y-104.139
X149.809Y-87.883
X150.168Y-103.513
X150.17Y-88.508
X150.2Y-92.7
X150.425Y-91.725
X150.529Y-102.888
X150.531Y-89.133
X150.89Y-102.263
X150.892Y-89.759
X150.98Y-93.89
X151.251Y-101.637
X151.253Y-90.384
X151.45Y-92.725
X151.612Y-101.012
X151.614Y-91.009
X151.973Y-100.387
X151.975Y-91.634
X152.334Y-99.762
X152.336Y-92.26
X152.695Y-99.136
X152.697Y-92.885
X153.04Y-93.481
X153.056Y-98.511
X153.415Y-94.131
X153.417Y-97.886
X153.778Y-97.261
X153.78Y-94.761
X154.139Y-96.635
X154.141Y-95.386
X154.5Y-96.01
T2
X107.125Y-96.0
X107.674Y-94.674
X107.674Y-97.326
X109.0Y-94.125
X109.0Y-97.875
X110.326Y-94.674
X110.326Y-97.326
X110.875Y-96.0
X138.625Y-77.813
X138.625Y-114.187
X139.174Y-76.488
X139.174Y-79.139
X139.174Y-112.861
X139.174Y-115.512
X140.5Y-75.938
X140.5Y-79.688
X140.5Y-112.312
X140.5Y-116.062
X141.826Y-76.488
X141.826Y-79.139
X141.826Y-112.861
X141.826Y-115.512
X142.375Y-77.813
X142.375Y-114.187
T3
X109.0Y-96.0
X140.5Y-77.813
X140.5Y-114.187
M30
