%TF.GenerationSoftware,KiCad,Pcbnew,9.0.6-rc1*%
%TF.CreationDate,2025-10-31T17:35:14+01:00*%
%TF.ProjectId,PCB_BRUSHED,5043425f-4252-4555-9348-45442e6b6963,rev?*%
%TF.SameCoordinates,Original*%
%TF.FileFunction,Copper,L1,Top*%
%TF.FilePolarity,Positive*%
%FSLAX46Y46*%
G04 Gerber Fmt 4.6, Leading zero omitted, Abs format (unit mm)*
G04 Created by KiCad (PCBNEW 9.0.6-rc1) date 2025-10-31 17:35:14*
%MOMM*%
%LPD*%
G01*
G04 APERTURE LIST*
G04 Aperture macros list*
%AMRoundRect*
0 Rectangle with rounded corners*
0 $1 Rounding radius*
0 $2 $3 $4 $5 $6 $7 $8 $9 X,Y pos of 4 corners*
0 Add a 4 corners polygon primitive as box body*
4,1,4,$2,$3,$4,$5,$6,$7,$8,$9,$2,$3,0*
0 Add four circle primitives for the rounded corners*
1,1,$1+$1,$2,$3*
1,1,$1+$1,$4,$5*
1,1,$1+$1,$6,$7*
1,1,$1+$1,$8,$9*
0 Add four rect primitives between the rounded corners*
20,1,$1+$1,$2,$3,$4,$5,0*
20,1,$1+$1,$4,$5,$6,$7,0*
20,1,$1+$1,$6,$7,$8,$9,0*
20,1,$1+$1,$8,$9,$2,$3,0*%
%AMRotRect*
0 Rectangle, with rotation*
0 The origin of the aperture is its center*
0 $1 length*
0 $2 width*
0 $3 Rotation angle, in degrees counterclockwise*
0 Add horizontal line*
21,1,$1,$2,0,0,$3*%
G04 Aperture macros list end*
%TA.AperFunction,SMDPad,CuDef*%
%ADD10RoundRect,0.100000X-0.238361X0.022147X0.138361X-0.195353X0.238361X-0.022147X-0.138361X0.195353X0*%
%TD*%
%TA.AperFunction,SMDPad,CuDef*%
%ADD11RoundRect,0.100000X-0.217500X-0.100000X0.217500X-0.100000X0.217500X0.100000X-0.217500X0.100000X0*%
%TD*%
%TA.AperFunction,SMDPad,CuDef*%
%ADD12RoundRect,0.100000X0.022147X0.238361X-0.195353X-0.138361X-0.022147X-0.238361X0.195353X0.138361X0*%
%TD*%
%TA.AperFunction,SMDPad,CuDef*%
%ADD13RoundRect,0.250000X0.286362X-0.454006X0.536362X-0.020994X-0.286362X0.454006X-0.536362X0.020994X0*%
%TD*%
%TA.AperFunction,SMDPad,CuDef*%
%ADD14RoundRect,0.250000X-0.536362X-0.020994X-0.286362X-0.454006X0.536362X0.020994X0.286362X0.454006X0*%
%TD*%
%TA.AperFunction,SMDPad,CuDef*%
%ADD15RoundRect,0.100000X0.217500X0.100000X-0.217500X0.100000X-0.217500X-0.100000X0.217500X-0.100000X0*%
%TD*%
%TA.AperFunction,SMDPad,CuDef*%
%ADD16RoundRect,0.100000X-0.138361X-0.195353X0.238361X0.022147X0.138361X0.195353X-0.238361X-0.022147X0*%
%TD*%
%TA.AperFunction,SMDPad,CuDef*%
%ADD17RotRect,0.500000X1.100000X300.000000*%
%TD*%
%TA.AperFunction,SMDPad,CuDef*%
%ADD18RotRect,0.600000X1.700000X300.000000*%
%TD*%
%TA.AperFunction,SMDPad,CuDef*%
%ADD19RotRect,1.000000X2.700000X300.000000*%
%TD*%
%TA.AperFunction,SMDPad,CuDef*%
%ADD20RoundRect,0.250000X0.250000X0.475000X-0.250000X0.475000X-0.250000X-0.475000X0.250000X-0.475000X0*%
%TD*%
%TA.AperFunction,SMDPad,CuDef*%
%ADD21RoundRect,0.100000X0.238361X-0.022147X-0.138361X0.195353X-0.238361X0.022147X0.138361X-0.195353X0*%
%TD*%
%TA.AperFunction,ComponentPad*%
%ADD22C,0.800000*%
%TD*%
%TA.AperFunction,ComponentPad*%
%ADD23C,5.000000*%
%TD*%
%TA.AperFunction,SMDPad,CuDef*%
%ADD24RotRect,0.600000X1.700000X60.000000*%
%TD*%
%TA.AperFunction,SMDPad,CuDef*%
%ADD25RotRect,1.000000X2.700000X60.000000*%
%TD*%
%TA.AperFunction,SMDPad,CuDef*%
%ADD26RoundRect,0.100000X-0.022147X-0.238361X0.195353X0.138361X0.022147X0.238361X-0.195353X-0.138361X0*%
%TD*%
%TA.AperFunction,SMDPad,CuDef*%
%ADD27RoundRect,0.147500X0.075639X-0.213989X0.223139X0.041489X-0.075639X0.213989X-0.223139X-0.041489X0*%
%TD*%
%TA.AperFunction,SMDPad,CuDef*%
%ADD28RoundRect,0.062500X-0.133373X-0.356010X0.241627X0.293510X0.133373X0.356010X-0.241627X-0.293510X0*%
%TD*%
%TA.AperFunction,SMDPad,CuDef*%
%ADD29RoundRect,0.062500X0.293510X-0.241627X0.356010X-0.133373X-0.293510X0.241627X-0.356010X0.133373X0*%
%TD*%
%TA.AperFunction,HeatsinkPad*%
%ADD30RotRect,5.600000X5.600000X60.000000*%
%TD*%
%TA.AperFunction,SMDPad,CuDef*%
%ADD31RoundRect,0.100000X0.100000X-0.217500X0.100000X0.217500X-0.100000X0.217500X-0.100000X-0.217500X0*%
%TD*%
%TA.AperFunction,SMDPad,CuDef*%
%ADD32RotRect,0.550000X0.750000X60.000000*%
%TD*%
%TA.AperFunction,SMDPad,CuDef*%
%ADD33RoundRect,0.100000X0.138361X0.195353X-0.238361X-0.022147X-0.138361X-0.195353X0.238361X0.022147X0*%
%TD*%
%TA.AperFunction,SMDPad,CuDef*%
%ADD34RoundRect,0.147500X0.172500X-0.147500X0.172500X0.147500X-0.172500X0.147500X-0.172500X-0.147500X0*%
%TD*%
%TA.AperFunction,SMDPad,CuDef*%
%ADD35R,0.500000X1.100000*%
%TD*%
%TA.AperFunction,SMDPad,CuDef*%
%ADD36RotRect,0.500000X1.100000X60.000000*%
%TD*%
%TA.AperFunction,SMDPad,CuDef*%
%ADD37RoundRect,0.100000X-0.100000X0.217500X-0.100000X-0.217500X0.100000X-0.217500X0.100000X0.217500X0*%
%TD*%
%TA.AperFunction,SMDPad,CuDef*%
%ADD38R,0.600000X1.700000*%
%TD*%
%TA.AperFunction,SMDPad,CuDef*%
%ADD39R,1.000000X2.700000*%
%TD*%
%TA.AperFunction,ViaPad*%
%ADD40C,0.400000*%
%TD*%
%TA.AperFunction,Conductor*%
%ADD41C,0.300000*%
%TD*%
%TA.AperFunction,Conductor*%
%ADD42C,0.160000*%
%TD*%
G04 APERTURE END LIST*
D10*
%TO.P,R18,1*%
%TO.N,/MOT1_PWMB{slash}TIM3CH4*%
X134297095Y-98096250D03*
%TO.P,R18,2*%
%TO.N,Net-(IC3-IN1)*%
X135002905Y-98503750D03*
%TD*%
D11*
%TO.P,C8,1*%
%TO.N,/ADC_VBAT*%
X121635000Y-113700000D03*
%TO.P,C8,2*%
%TO.N,GND*%
X122450000Y-113700000D03*
%TD*%
D12*
%TO.P,R9,1*%
%TO.N,GND*%
X124570000Y-99022539D03*
%TO.P,R9,2*%
%TO.N,Net-(D1-K)*%
X124162500Y-99728349D03*
%TD*%
D13*
%TO.P,C36,1*%
%TO.N,VBAT+*%
X123228150Y-93187724D03*
%TO.P,C36,2*%
%TO.N,GND*%
X124178150Y-91542276D03*
%TD*%
D14*
%TO.P,C14,1*%
%TO.N,VBAT+*%
X139250000Y-89527276D03*
%TO.P,C14,2*%
%TO.N,GND*%
X140200000Y-91172724D03*
%TD*%
D15*
%TO.P,R8,1*%
%TO.N,VBAT+*%
X122450000Y-114475000D03*
%TO.P,R8,2*%
%TO.N,/ADC_VBAT*%
X121635000Y-114475000D03*
%TD*%
D16*
%TO.P,R21,1*%
%TO.N,GND*%
X143822095Y-93028750D03*
%TO.P,R21,2*%
%TO.N,/EXT_BTN_EXTI10*%
X144527905Y-92621250D03*
%TD*%
D17*
%TO.P,J5,01,01*%
%TO.N,GND*%
X146564448Y-84589359D03*
%TO.P,J5,02,02*%
X143273552Y-86489359D03*
%TO.P,J5,03,03*%
%TO.N,/UART_EXTI*%
X146964448Y-85282180D03*
%TO.P,J5,04,04*%
X143673552Y-87182180D03*
%TO.P,J5,05,05*%
%TO.N,/USART3_TX*%
X147364448Y-85975000D03*
%TO.P,J5,06,06*%
X144073552Y-87875000D03*
%TO.P,J5,07,07*%
%TO.N,/USART3_RX*%
X147764448Y-86667820D03*
%TO.P,J5,08,08*%
X144473552Y-88567820D03*
%TO.P,J5,09,09*%
%TO.N,VBAT+*%
X148164448Y-87360641D03*
%TO.P,J5,10,10*%
X144873552Y-89260641D03*
%TD*%
D18*
%TO.P,J9,1,1*%
%TO.N,GND*%
X113932147Y-101643255D03*
%TO.P,J9,2,2*%
%TO.N,/HALL3_CS*%
X114557147Y-102725786D03*
%TO.P,J9,3,3*%
%TO.N,Net-(J9-Pad3)*%
X115182147Y-103808318D03*
%TO.P,J9,4,4*%
%TO.N,/HALL3_MISO*%
X115807147Y-104890850D03*
%TO.P,J9,5,5*%
%TO.N,Net-(J9-Pad5)*%
X116432147Y-105973382D03*
%TO.P,J9,6,6*%
%TO.N,+3.3V*%
X117057147Y-107055913D03*
D19*
%TO.P,J9,7,7*%
%TO.N,GND*%
X110235865Y-101641108D03*
%TO.P,J9,8,8*%
X115210865Y-110258060D03*
%TD*%
D20*
%TO.P,C33,1*%
%TO.N,VBAT+*%
X130950000Y-103270000D03*
%TO.P,C33,2*%
%TO.N,GND*%
X129050000Y-103270000D03*
%TD*%
D21*
%TO.P,R20,1*%
%TO.N,Net-(J3-Pad5)*%
X143527905Y-101478750D03*
%TO.P,R20,2*%
%TO.N,/HALL1_MOSI*%
X142822095Y-101071250D03*
%TD*%
D16*
%TO.P,R26,1*%
%TO.N,Net-(J9-Pad5)*%
X118547095Y-104903750D03*
%TO.P,R26,2*%
%TO.N,/HALL3_MOSI*%
X119252905Y-104496250D03*
%TD*%
D20*
%TO.P,C32,1*%
%TO.N,VBAT+*%
X130950000Y-105275000D03*
%TO.P,C32,2*%
%TO.N,GND*%
X129050000Y-105275000D03*
%TD*%
D22*
%TO.P,TP1,1,1*%
%TO.N,GND*%
X138625000Y-77813467D03*
X139174175Y-76487642D03*
X139174175Y-79139292D03*
X140500000Y-75938467D03*
D23*
X140500000Y-77813467D03*
D22*
X140500000Y-79688467D03*
X141825825Y-76487642D03*
X141825825Y-79139292D03*
X142375000Y-77813467D03*
%TD*%
D24*
%TO.P,J3,1,1*%
%TO.N,GND*%
X142934526Y-107116329D03*
%TO.P,J3,2,2*%
%TO.N,/HALL1_CS*%
X143559526Y-106033798D03*
%TO.P,J3,3,3*%
%TO.N,Net-(J3-Pad3)*%
X144184526Y-104951266D03*
%TO.P,J3,4,4*%
%TO.N,/HALL1_MISO*%
X144809526Y-103868734D03*
%TO.P,J3,5,5*%
%TO.N,Net-(J3-Pad5)*%
X145434526Y-102786202D03*
%TO.P,J3,6,6*%
%TO.N,+3.3V*%
X146059526Y-101703671D03*
D25*
%TO.P,J3,7,7*%
%TO.N,GND*%
X144780808Y-110318476D03*
%TO.P,J3,8,8*%
X149755808Y-101701524D03*
%TD*%
D26*
%TO.P,R10,1*%
%TO.N,Net-(Y1-CRYSTAL_2)*%
X127571250Y-101752905D03*
%TO.P,R10,2*%
%TO.N,/HSE_OUT*%
X127978750Y-101047095D03*
%TD*%
D10*
%TO.P,C9,1*%
%TO.N,GND*%
X123997095Y-101696250D03*
%TO.P,C9,2*%
%TO.N,/HSE_IN*%
X124702905Y-102103750D03*
%TD*%
%TO.P,R16,1*%
%TO.N,/HALL1_CLK*%
X141685595Y-102746250D03*
%TO.P,R16,2*%
%TO.N,Net-(J3-Pad3)*%
X142391405Y-103153750D03*
%TD*%
D22*
%TO.P,TP3,1,1*%
%TO.N,GND*%
X138625000Y-114186533D03*
X139174175Y-112860708D03*
X139174175Y-115512358D03*
X140500000Y-112311533D03*
D23*
X140500000Y-114186533D03*
D22*
X140500000Y-116061533D03*
X141825825Y-112860708D03*
X141825825Y-115512358D03*
X142375000Y-114186533D03*
%TD*%
D27*
%TO.P,D1,1,K*%
%TO.N,Net-(D1-K)*%
X124990000Y-100240044D03*
%TO.P,D1,2,A*%
%TO.N,Net-(D1-A)*%
X125475000Y-99400000D03*
%TD*%
D28*
%TO.P,U1,1,VBAT*%
%TO.N,+3.3V*%
X125899680Y-97601962D03*
%TO.P,U1,2,PC13*%
%TO.N,Net-(D1-A)*%
X126332693Y-97851962D03*
%TO.P,U1,3,PC14*%
%TO.N,unconnected-(U1-PC14-Pad3)*%
X126765706Y-98101961D03*
%TO.P,U1,4,PC15*%
%TO.N,/ADC_VBAT*%
X127198718Y-98351962D03*
%TO.P,U1,5,PF0*%
%TO.N,/HSE_IN*%
X127631731Y-98601962D03*
%TO.P,U1,6,PF1*%
%TO.N,/HSE_OUT*%
X128064744Y-98851962D03*
%TO.P,U1,7,PG10*%
%TO.N,/NRST*%
X128497756Y-99101962D03*
%TO.P,U1,8,PA0*%
%TO.N,/MOT1_HALL_A{slash}TIM2CH1*%
X128930769Y-99351962D03*
%TO.P,U1,9,PA1*%
%TO.N,/MOT1_HALL_B{slash}TIM2CH2*%
X129363782Y-99601962D03*
%TO.P,U1,10,PA2*%
%TO.N,unconnected-(U1-PA2-Pad10)*%
X129796794Y-99851962D03*
%TO.P,U1,11,PA3*%
%TO.N,/HALL1_CS*%
X130229807Y-100101962D03*
%TO.P,U1,12,PA4*%
%TO.N,/MOT3_PWMB{slash}TIM3CH2*%
X130662820Y-100351962D03*
D29*
%TO.P,U1,13,PA5*%
%TO.N,/HALL1_CLK*%
X131601962Y-100100320D03*
%TO.P,U1,14,PA6*%
%TO.N,/HALL1_MISO*%
X131851962Y-99667307D03*
%TO.P,U1,15,PA7*%
%TO.N,/HALL1_MOSI*%
X132101961Y-99234294D03*
%TO.P,U1,16,PC4*%
%TO.N,/ADC2_IN5*%
X132351962Y-98801282D03*
%TO.P,U1,17,PB0*%
%TO.N,/MOT1_PWMA{slash}TIM3CH3*%
X132601962Y-98368269D03*
%TO.P,U1,18,PB1*%
%TO.N,/MOT1_PWMB{slash}TIM3CH4*%
X132851962Y-97935256D03*
%TO.P,U1,19,PB2*%
%TO.N,/UART_EXTI*%
X133101962Y-97502244D03*
%TO.P,U1,20,VREF+*%
%TO.N,+3.3V*%
X133351962Y-97069231D03*
%TO.P,U1,21,VDDA*%
X133601962Y-96636218D03*
%TO.P,U1,22,PB10*%
%TO.N,/USART3_TX*%
X133851962Y-96203206D03*
%TO.P,U1,23,VDD*%
%TO.N,+3.3V*%
X134101962Y-95770193D03*
%TO.P,U1,24,PB11*%
%TO.N,/USART3_RX*%
X134351962Y-95337180D03*
D28*
%TO.P,U1,25,PB12*%
%TO.N,/HALL2_CS*%
X134100320Y-94398038D03*
%TO.P,U1,26,PB13*%
%TO.N,/HALL2_CLK*%
X133667307Y-94148038D03*
%TO.P,U1,27,PB14*%
%TO.N,/HALL2_MISO*%
X133234294Y-93898039D03*
%TO.P,U1,28,PB15*%
%TO.N,/HALL2_MOSI*%
X132801282Y-93648038D03*
%TO.P,U1,29,PC6*%
%TO.N,/MOT3_PWMA{slash}TIM3CH1*%
X132368269Y-93398038D03*
%TO.P,U1,30,PA8*%
%TO.N,/MOT2_HALL_A{slash}TIM1CH1*%
X131935256Y-93148038D03*
%TO.P,U1,31,PA9*%
%TO.N,/MOT2_HALL_B{slash}TIM1CH2*%
X131502244Y-92898038D03*
%TO.P,U1,32,PA10*%
%TO.N,unconnected-(U1-PA10-Pad32)*%
X131069231Y-92648038D03*
%TO.P,U1,33,PA11*%
%TO.N,/MOT2_PWMA{slash}TIM4CH1*%
X130636218Y-92398038D03*
%TO.P,U1,34,PA12*%
%TO.N,/MOT2_PWMB{slash}TIM4CH2*%
X130203206Y-92148038D03*
%TO.P,U1,35,VDD*%
%TO.N,+3.3V*%
X129770193Y-91898038D03*
%TO.P,U1,36,PA13*%
%TO.N,/SWDIO*%
X129337180Y-91648038D03*
D29*
%TO.P,U1,37,PA14*%
%TO.N,/SWCLK*%
X128398038Y-91899680D03*
%TO.P,U1,38,PA15*%
%TO.N,/HALL3_CS*%
X128148038Y-92332693D03*
%TO.P,U1,39,PC10*%
%TO.N,/EXT_BTN_EXTI10*%
X127898039Y-92765706D03*
%TO.P,U1,40,PC11*%
%TO.N,unconnected-(U1-PC11-Pad40)*%
X127648038Y-93198718D03*
%TO.P,U1,41,PB3*%
%TO.N,/HALL3_CLK*%
X127398038Y-93631731D03*
%TO.P,U1,42,PB4*%
%TO.N,/HALL3_MISO*%
X127148038Y-94064744D03*
%TO.P,U1,43,PB5*%
%TO.N,/HALL3_MOSI*%
X126898038Y-94497756D03*
%TO.P,U1,44,PB6*%
%TO.N,/MOT3_HALL_A{slash}TIM8CH1*%
X126648038Y-94930769D03*
%TO.P,U1,45,PB7*%
%TO.N,unconnected-(U1-PB7-Pad45)*%
X126398038Y-95363782D03*
%TO.P,U1,46,PB8*%
%TO.N,/MOT3_HALL_B{slash}TIM8CH2*%
X126148038Y-95796794D03*
%TO.P,U1,47,PB9*%
%TO.N,unconnected-(U1-PB9-Pad47)*%
X125898038Y-96229807D03*
%TO.P,U1,48,VDD*%
%TO.N,+3.3V*%
X125648038Y-96662820D03*
D30*
%TO.P,U1,49,VSS*%
%TO.N,GND*%
X130000000Y-96000000D03*
%TD*%
D21*
%TO.P,R23,1*%
%TO.N,/MOT3_PWMA{slash}TIM3CH1*%
X130750000Y-88825000D03*
%TO.P,R23,2*%
%TO.N,Net-(IC4-IN2)*%
X130044190Y-88417500D03*
%TD*%
D31*
%TO.P,R6,1*%
%TO.N,+3.3V*%
X136300000Y-111150000D03*
%TO.P,R6,2*%
%TO.N,Net-(LEDRED1-A)*%
X136300000Y-110335000D03*
%TD*%
D32*
%TO.P,Y1,1,CRYSTAL_1*%
%TO.N,/HSE_IN*%
X125822372Y-102724520D03*
%TO.P,Y1,2,GND_1*%
%TO.N,GND*%
X126775000Y-103274520D03*
%TO.P,Y1,3,CRYSTAL_2*%
%TO.N,Net-(Y1-CRYSTAL_2)*%
X127150000Y-102625000D03*
%TO.P,Y1,4,GND_2*%
%TO.N,GND*%
X126197372Y-102075000D03*
%TD*%
D31*
%TO.P,R11,1*%
%TO.N,/HALL2_CLK*%
X130000000Y-82132500D03*
%TO.P,R11,2*%
%TO.N,Net-(J1-Pad3)*%
X130000000Y-81317500D03*
%TD*%
D33*
%TO.P,C34,1*%
%TO.N,/EXT_BTN_EXTI10*%
X144903349Y-93287500D03*
%TO.P,C34,2*%
%TO.N,GND*%
X144197539Y-93695000D03*
%TD*%
%TO.P,R22,1*%
%TO.N,/HALL3_CLK*%
X118314405Y-102746250D03*
%TO.P,R22,2*%
%TO.N,Net-(J9-Pad3)*%
X117608595Y-103153750D03*
%TD*%
D12*
%TO.P,C17,1*%
%TO.N,GND*%
X127278750Y-100647095D03*
%TO.P,C17,2*%
%TO.N,Net-(Y1-CRYSTAL_2)*%
X126871250Y-101352905D03*
%TD*%
D10*
%TO.P,R24,1*%
%TO.N,/MOT3_PWMB{slash}TIM3CH2*%
X131922095Y-101146250D03*
%TO.P,R24,2*%
%TO.N,Net-(IC4-IN1)*%
X132627905Y-101553750D03*
%TD*%
D14*
%TO.P,C29,1*%
%TO.N,VBAT+*%
X135801190Y-91506492D03*
%TO.P,C29,2*%
%TO.N,GND*%
X136751190Y-93151940D03*
%TD*%
D10*
%TO.P,R17,1*%
%TO.N,/MOT1_PWMA{slash}TIM3CH3*%
X133922095Y-98721250D03*
%TO.P,R17,2*%
%TO.N,Net-(IC3-IN2)*%
X134627905Y-99128750D03*
%TD*%
D34*
%TO.P,LEDRED1,1,K*%
%TO.N,GND*%
X137375000Y-111250000D03*
%TO.P,LEDRED1,2,A*%
%TO.N,Net-(LEDRED1-A)*%
X137375000Y-110280000D03*
%TD*%
D21*
%TO.P,R12,1*%
%TO.N,/MOT2_PWMA{slash}TIM4CH1*%
X130352905Y-89528750D03*
%TO.P,R12,2*%
%TO.N,Net-(IC2-IN2)*%
X129647095Y-89121250D03*
%TD*%
D11*
%TO.P,R7,1*%
%TO.N,/ADC_VBAT*%
X121642500Y-112925000D03*
%TO.P,R7,2*%
%TO.N,GND*%
X122457500Y-112925000D03*
%TD*%
D22*
%TO.P,TP2,1,1*%
%TO.N,GND*%
X107125000Y-96000000D03*
X107674175Y-94674175D03*
X107674175Y-97325825D03*
X109000000Y-94125000D03*
D23*
X109000000Y-96000000D03*
D22*
X109000000Y-97875000D03*
X110325825Y-94674175D03*
X110325825Y-97325825D03*
X110875000Y-96000000D03*
%TD*%
D35*
%TO.P,J7,01,01*%
%TO.N,GND*%
X131600000Y-116050000D03*
%TO.P,J7,02,02*%
X131600000Y-112250000D03*
%TO.P,J7,03,03*%
%TO.N,unconnected-(J7-Pad03)*%
X130800000Y-116050000D03*
%TO.P,J7,04,04*%
%TO.N,unconnected-(J7-Pad04)*%
X130800000Y-112250000D03*
%TO.P,J7,05,05*%
%TO.N,unconnected-(J7-Pad05)*%
X130000000Y-116050000D03*
%TO.P,J7,06,06*%
%TO.N,unconnected-(J7-Pad06)*%
X130000000Y-112250000D03*
%TO.P,J7,07,07*%
%TO.N,unconnected-(J7-Pad07)*%
X129200000Y-116050000D03*
%TO.P,J7,08,08*%
%TO.N,unconnected-(J7-Pad08)*%
X129200000Y-112250000D03*
%TO.P,J7,09,09*%
%TO.N,VBAT+*%
X128400000Y-116050000D03*
%TO.P,J7,10,10*%
X128400000Y-112250000D03*
%TD*%
D13*
%TO.P,C13,1*%
%TO.N,VBAT+*%
X119775000Y-91197724D03*
%TO.P,C13,2*%
%TO.N,GND*%
X120725000Y-89552276D03*
%TD*%
D14*
%TO.P,C30,1*%
%TO.N,VBAT+*%
X137525000Y-90527276D03*
%TO.P,C30,2*%
%TO.N,GND*%
X138475000Y-92172724D03*
%TD*%
D36*
%TO.P,J8,01,01*%
%TO.N,GND*%
X111835552Y-87360641D03*
%TO.P,J8,02,02*%
X115126448Y-89260641D03*
%TO.P,J8,03,03*%
%TO.N,unconnected-(J8-Pad03)*%
X112235552Y-86667820D03*
%TO.P,J8,04,04*%
%TO.N,unconnected-(J8-Pad04)*%
X115526448Y-88567820D03*
%TO.P,J8,05,05*%
%TO.N,unconnected-(J8-Pad05)*%
X112635552Y-85975000D03*
%TO.P,J8,06,06*%
%TO.N,unconnected-(J8-Pad06)*%
X115926448Y-87875000D03*
%TO.P,J8,07,07*%
%TO.N,unconnected-(J8-Pad07)*%
X113035552Y-85282180D03*
%TO.P,J8,08,08*%
%TO.N,unconnected-(J8-Pad08)*%
X116326448Y-87182180D03*
%TO.P,J8,09,09*%
%TO.N,VBAT+*%
X113435552Y-84589359D03*
%TO.P,J8,10,10*%
X116726448Y-86489359D03*
%TD*%
D21*
%TO.P,R13,1*%
%TO.N,/MOT2_PWMB{slash}TIM4CH2*%
X129977905Y-90228750D03*
%TO.P,R13,2*%
%TO.N,Net-(IC2-IN1)*%
X129272095Y-89821250D03*
%TD*%
D13*
%TO.P,C37,1*%
%TO.N,VBAT+*%
X121500000Y-92197724D03*
%TO.P,C37,2*%
%TO.N,GND*%
X122450000Y-90552276D03*
%TD*%
D37*
%TO.P,R15,1*%
%TO.N,Net-(J1-Pad5)*%
X128025000Y-81367500D03*
%TO.P,R15,2*%
%TO.N,/HALL2_MOSI*%
X128025000Y-82182500D03*
%TD*%
D20*
%TO.P,C12,1*%
%TO.N,VBAT+*%
X130950000Y-107275000D03*
%TO.P,C12,2*%
%TO.N,GND*%
X129050000Y-107275000D03*
%TD*%
D38*
%TO.P,J1,1,1*%
%TO.N,GND*%
X133075000Y-79201115D03*
%TO.P,J1,2,2*%
%TO.N,/HALL2_CS*%
X131825000Y-79201115D03*
%TO.P,J1,3,3*%
%TO.N,Net-(J1-Pad3)*%
X130575000Y-79201115D03*
%TO.P,J1,4,4*%
%TO.N,/HALL2_MISO*%
X129325000Y-79201115D03*
%TO.P,J1,5,5*%
%TO.N,Net-(J1-Pad5)*%
X128075000Y-79201115D03*
%TO.P,J1,6,6*%
%TO.N,+3.3V*%
X126825000Y-79201115D03*
D39*
%TO.P,J1,7,7*%
%TO.N,GND*%
X134925000Y-76001115D03*
%TO.P,J1,8,8*%
X124975000Y-76001115D03*
%TD*%
D40*
%TO.N,GND*%
X140050000Y-74750000D03*
X119840000Y-74749192D03*
X121284000Y-74749192D03*
X129948000Y-74749192D03*
X119118000Y-74749192D03*
X128504000Y-74749192D03*
X118396000Y-74749192D03*
X134280000Y-74749192D03*
X129226000Y-74749192D03*
X138612000Y-74749192D03*
X122006000Y-74749192D03*
X141500000Y-74749192D03*
X127060000Y-74749192D03*
X124894000Y-74749192D03*
X142220000Y-74750000D03*
X130670000Y-74749192D03*
X137168000Y-74749192D03*
X123450000Y-74749192D03*
X125616000Y-74749192D03*
X132114000Y-74749192D03*
X140778000Y-74749192D03*
X124172000Y-74749192D03*
X139300000Y-74750000D03*
X122728000Y-74749192D03*
X132836000Y-74749192D03*
X126338000Y-74749192D03*
X127782000Y-74749192D03*
X136446000Y-74749192D03*
X133558000Y-74749192D03*
X131392000Y-74749192D03*
X137890000Y-74749192D03*
X135724000Y-74749192D03*
X135002000Y-74749192D03*
X120562000Y-74749192D03*
X140050000Y-117270000D03*
X119840000Y-117269192D03*
X121284000Y-117269192D03*
X129948000Y-117269192D03*
X119118000Y-117269192D03*
X128504000Y-117269192D03*
X118396000Y-117269192D03*
X134280000Y-117269192D03*
X129226000Y-117269192D03*
X138612000Y-117269192D03*
X122006000Y-117269192D03*
X141500000Y-117269192D03*
X127060000Y-117269192D03*
X124894000Y-117269192D03*
X142220000Y-117270000D03*
X130670000Y-117269192D03*
X137168000Y-117269192D03*
X123450000Y-117269192D03*
X125616000Y-117269192D03*
X132114000Y-117269192D03*
X140778000Y-117269192D03*
X124172000Y-117269192D03*
X139300000Y-117270000D03*
X122728000Y-117269192D03*
X132836000Y-117269192D03*
X126338000Y-117269192D03*
X127782000Y-117269192D03*
X136446000Y-117269192D03*
X133558000Y-117269192D03*
X131392000Y-117269192D03*
X137890000Y-117269192D03*
X135724000Y-117269192D03*
X135002000Y-117269192D03*
X120562000Y-117269192D03*
X105530000Y-96010000D03*
X111667000Y-85380404D03*
X105891000Y-95384729D03*
X113833000Y-81628782D03*
X106613000Y-94134189D03*
X106252000Y-94759459D03*
X110945000Y-86630945D03*
X116718700Y-76632219D03*
X107335000Y-92883648D03*
X109501000Y-89132026D03*
X108779000Y-90382567D03*
X113472000Y-82254052D03*
X112389000Y-84129863D03*
X116343700Y-77281738D03*
X115638000Y-78502430D03*
X112028000Y-84755134D03*
X114555000Y-80378241D03*
X112750000Y-83504593D03*
X111306000Y-86005674D03*
X108057000Y-91633107D03*
X115999000Y-77877160D03*
X115277000Y-79127701D03*
X107696000Y-92258378D03*
X113111000Y-82879323D03*
X110584000Y-87256215D03*
X114194000Y-81003512D03*
X106974000Y-93508918D03*
X110223000Y-87881485D03*
X117082000Y-76001349D03*
X108418000Y-91007837D03*
X109140000Y-89757296D03*
X117443000Y-75376079D03*
X114916000Y-79752971D03*
X109862000Y-88506756D03*
X109862000Y-103513244D03*
X114916000Y-112267029D03*
X117443000Y-116643921D03*
X109140000Y-102262704D03*
X108418000Y-101012163D03*
X117082000Y-116018651D03*
X110223000Y-104138515D03*
X106974000Y-98511082D03*
X114194000Y-111016488D03*
X110584000Y-104763785D03*
X113111000Y-109140677D03*
X107696000Y-99761622D03*
X115277000Y-112892299D03*
X115999000Y-114142840D03*
X108057000Y-100386893D03*
X111306000Y-106014326D03*
X112750000Y-108515407D03*
X114555000Y-111641759D03*
X112028000Y-107264866D03*
X115638000Y-113517570D03*
X116342300Y-114739070D03*
X112389000Y-107890137D03*
X113472000Y-109765948D03*
X108779000Y-101637433D03*
X109501000Y-102887974D03*
X107335000Y-99136352D03*
X116717300Y-115388589D03*
X110945000Y-105389055D03*
X106252000Y-97260541D03*
X106613000Y-97885811D03*
X113833000Y-110391218D03*
X105891000Y-96635271D03*
X111667000Y-106639596D03*
X153040000Y-93481206D03*
X142588700Y-75377407D03*
X145476700Y-80379569D03*
X149086700Y-86632273D03*
X147281700Y-83505921D03*
X144393700Y-78503758D03*
X149808700Y-87882813D03*
X148003700Y-84756462D03*
X145837700Y-81004840D03*
X152335700Y-92259706D03*
X151613700Y-91009165D03*
X150891700Y-89758624D03*
X151252700Y-90383895D03*
X154140700Y-95386057D03*
X151974700Y-91634435D03*
X144754700Y-79129029D03*
X146559700Y-82255380D03*
X152696700Y-92884976D03*
X144032700Y-77878488D03*
X142949700Y-76002677D03*
X146198700Y-81630110D03*
X145115700Y-79754299D03*
X143310700Y-76627947D03*
X143671700Y-77253218D03*
X153779700Y-94760787D03*
X148725700Y-86007002D03*
X147642700Y-84131191D03*
X149447700Y-87257543D03*
X146920700Y-82880651D03*
X150169700Y-88508084D03*
X148364700Y-85381732D03*
X150530700Y-89133354D03*
X153415000Y-94130725D03*
X152334000Y-99761622D03*
X146919000Y-109140677D03*
X154139000Y-96635271D03*
X151251000Y-101637433D03*
X147641000Y-107890137D03*
X143686300Y-114738262D03*
X149446000Y-104763785D03*
X153417000Y-97885811D03*
X153056000Y-98511082D03*
X149085000Y-105389055D03*
X142948000Y-116018651D03*
X146558000Y-109765948D03*
X147280000Y-108515407D03*
X149807000Y-104138515D03*
X148002000Y-107264866D03*
X143311300Y-115387781D03*
X151612000Y-101012163D03*
X148363000Y-106639596D03*
X146197000Y-110391218D03*
X150529000Y-102887974D03*
X150890000Y-102262704D03*
X144392000Y-113517570D03*
X150168000Y-103513244D03*
X151973000Y-100386893D03*
X145475000Y-111641759D03*
X144753000Y-112892299D03*
X144031000Y-114142840D03*
X145114000Y-112267029D03*
X152695000Y-99136352D03*
X142587000Y-116643921D03*
X145836000Y-111016488D03*
X153778000Y-97260541D03*
X148724000Y-106014326D03*
X134600000Y-103880000D03*
X134960000Y-102890000D03*
X134700000Y-108810000D03*
X125775000Y-86850000D03*
X124350000Y-116475000D03*
X124250000Y-115300000D03*
X127425000Y-108700000D03*
X124525000Y-113000000D03*
X123600000Y-113725000D03*
X145775000Y-93300000D03*
X150425000Y-91725000D03*
X143822095Y-93028750D03*
X135900000Y-94125000D03*
X126975000Y-83125000D03*
X127000000Y-82000000D03*
X126975000Y-80950000D03*
X120450000Y-105000000D03*
X118475000Y-106100000D03*
X125025000Y-92350000D03*
X128275000Y-90125000D03*
X124650000Y-90900000D03*
X120400000Y-88525000D03*
X125575000Y-89000000D03*
X145430000Y-105870000D03*
X134820000Y-86190000D03*
X145480000Y-84180000D03*
X130178372Y-93898968D03*
X114180000Y-97060000D03*
X111835552Y-87360641D03*
X136430000Y-105760000D03*
X121880000Y-108060000D03*
X134925000Y-76001115D03*
X110235865Y-101641108D03*
X125700000Y-79290000D03*
X117400000Y-91340000D03*
X144630000Y-96380000D03*
X116720000Y-88620000D03*
X136240000Y-97870000D03*
X123280000Y-100200000D03*
X115126448Y-89260641D03*
X138680000Y-82870000D03*
X119415654Y-93021161D03*
X127900000Y-96500000D03*
X113870000Y-86010000D03*
X113840000Y-100570000D03*
X124178150Y-91542276D03*
X143050000Y-96000000D03*
X143770000Y-83730000D03*
X128600000Y-95275000D03*
X150980000Y-93890000D03*
X137375000Y-111250000D03*
X139460000Y-108640000D03*
X148100000Y-95700000D03*
X130725000Y-113225000D03*
X129050000Y-103270000D03*
X138475000Y-92172724D03*
X140200000Y-91172724D03*
X116010000Y-96950000D03*
X113932147Y-101643255D03*
X139375000Y-91675000D03*
X123210000Y-108980000D03*
X129050000Y-107275000D03*
X146564448Y-84589359D03*
X115260000Y-86810000D03*
X118760000Y-99310000D03*
X137460000Y-98350000D03*
X127288000Y-107925000D03*
X129050000Y-105275000D03*
X132712000Y-106655000D03*
X114020000Y-88670000D03*
X127120000Y-89370000D03*
X129075000Y-106275000D03*
X140430000Y-97160000D03*
X129175000Y-113225000D03*
X141684198Y-92386161D03*
X127930000Y-84260000D03*
X122450000Y-90552276D03*
X123090000Y-79550000D03*
X138260000Y-104170000D03*
X124550000Y-109875000D03*
X113270000Y-98390000D03*
X132500000Y-95275000D03*
X134340000Y-106340000D03*
X133680000Y-85670000D03*
X129675000Y-94850000D03*
X126470000Y-91310000D03*
X137872346Y-88323839D03*
X131757500Y-115675000D03*
X124190000Y-98300000D03*
X136610000Y-99710000D03*
X141990000Y-107430000D03*
X121027802Y-87688839D03*
X120725000Y-89552276D03*
X133075000Y-79201115D03*
X137180000Y-87330000D03*
X149755808Y-101701524D03*
X125210000Y-88080000D03*
X135050000Y-109850000D03*
X144240000Y-107780000D03*
X129950000Y-113200000D03*
X139940000Y-100580000D03*
X124520000Y-101000000D03*
X112830000Y-93240000D03*
X125750000Y-105470000D03*
X119461500Y-105548076D03*
X141170000Y-109010000D03*
X142741281Y-82895194D03*
X141730000Y-96490000D03*
X118800000Y-94540000D03*
X116400000Y-90700000D03*
X140740000Y-84970000D03*
X128800000Y-88730000D03*
X147716281Y-91512147D03*
X112760000Y-87860000D03*
X129040000Y-102020000D03*
X123300000Y-91050000D03*
X124975000Y-76001115D03*
X118640000Y-97310000D03*
X133910000Y-79670000D03*
X131375000Y-96925000D03*
X115210865Y-110258060D03*
X143538500Y-100351924D03*
X121600000Y-90075000D03*
X115170000Y-94890000D03*
X124540000Y-97520000D03*
X129550000Y-97850000D03*
X122960000Y-83970000D03*
X120940000Y-103860000D03*
X137760000Y-105250000D03*
X126075000Y-101425000D03*
X121850000Y-96250000D03*
X147570000Y-102290000D03*
X141050000Y-99980000D03*
X146070000Y-100590000D03*
X131475000Y-95800000D03*
X129050000Y-104250000D03*
X146550000Y-104340000D03*
X125720000Y-108280000D03*
X127278750Y-100647095D03*
X124250000Y-102840000D03*
X144780808Y-110318476D03*
X125810000Y-103600000D03*
X143273552Y-86489359D03*
X139680000Y-85480000D03*
X123780000Y-86350000D03*
X145580000Y-85260000D03*
%TO.N,VBAT+*%
X133000000Y-102925000D03*
X133000000Y-103725000D03*
X121375000Y-94775000D03*
X123475000Y-93700000D03*
X133725000Y-103750000D03*
X121825000Y-94000000D03*
X132200000Y-103775000D03*
X126100000Y-109875000D03*
X135825000Y-89900000D03*
X127550000Y-109850000D03*
X134625000Y-89550000D03*
X122750000Y-94475000D03*
X126825000Y-109875000D03*
X136075000Y-91025000D03*
X132200000Y-102900000D03*
X133725000Y-102925000D03*
X122775000Y-93300000D03*
X122350000Y-95275000D03*
X135350000Y-89175000D03*
X134975000Y-90375000D03*
X135325000Y-91425000D03*
%TO.N,+3.3V*%
X146059526Y-101703671D03*
X132775000Y-109850000D03*
X129250000Y-90625000D03*
X132075000Y-110650000D03*
X132075000Y-109850000D03*
X133475000Y-109850000D03*
X125450000Y-97575000D03*
X125200000Y-96925000D03*
X117057147Y-107055913D03*
X134600000Y-96050000D03*
X140538500Y-105548076D03*
X133000000Y-82100000D03*
X132775000Y-110650000D03*
X133475000Y-110650000D03*
X144500000Y-84550000D03*
X126825000Y-79201115D03*
X116461500Y-100351924D03*
X133700000Y-96975000D03*
X129800000Y-90925000D03*
X136300000Y-111150000D03*
%TO.N,/ADC2_IN5*%
X133200000Y-99025000D03*
%TO.N,/NRST*%
X128125000Y-99675000D03*
X140895000Y-86097341D03*
%TO.N,/ADC_VBAT*%
X126300000Y-99100000D03*
X121642500Y-112925000D03*
%TO.N,/EXT_BTN_EXTI10*%
X144950000Y-93275000D03*
X127000000Y-92625000D03*
%TO.N,Net-(IC2-IN1)*%
X129272095Y-89821250D03*
X139484494Y-93656161D03*
%TO.N,Net-(IC2-IN2)*%
X140584346Y-93021161D03*
X129647095Y-89121250D03*
%TO.N,Net-(IC3-IN2)*%
X127288000Y-106655000D03*
X134627905Y-99128750D03*
%TO.N,Net-(IC3-IN1)*%
X127288000Y-105385000D03*
X135002905Y-98503750D03*
%TO.N,Net-(IC4-IN1)*%
X132775000Y-101200000D03*
X123227506Y-88958839D03*
%TO.N,Net-(IC4-IN2)*%
X122127654Y-88323839D03*
%TO.N,/MOT2_HALL_B{slash}TIM1CH2*%
X131000000Y-82100000D03*
X131650000Y-92175000D03*
%TO.N,/MOT2_HALL_A{slash}TIM1CH1*%
X129000000Y-82100000D03*
X132400000Y-92550000D03*
%TO.N,/MOT1_HALL_B{slash}TIM2CH2*%
X129825000Y-102125000D03*
X141538500Y-103816025D03*
%TO.N,/MOT1_HALL_A{slash}TIM2CH1*%
X142538500Y-102083975D03*
X129550000Y-101475000D03*
%TO.N,/SWDIO*%
X142145000Y-88262405D03*
X128075000Y-91000000D03*
%TO.N,/SWCLK*%
X127400000Y-91375000D03*
X141520000Y-87179873D03*
%TO.N,/MOT3_HALL_B{slash}TIM8CH2*%
X117461500Y-102083975D03*
X125775000Y-95550000D03*
%TO.N,/MOT3_HALL_A{slash}TIM8CH1*%
X118461500Y-103816025D03*
X126300000Y-94725000D03*
%TO.N,/USART3_TX*%
X135625000Y-96450000D03*
X150200000Y-92700000D03*
X145722804Y-86922804D03*
%TO.N,/USART3_RX*%
X149075000Y-92725000D03*
X135925000Y-95500000D03*
X146086553Y-87636553D03*
%TO.N,/UART_EXTI*%
X135025000Y-97225000D03*
X145343205Y-86218205D03*
X151450000Y-92725000D03*
%TO.N,GND*%
X154500000Y-96010000D03*
%TD*%
D41*
%TO.N,+3.3V*%
X134101962Y-95770193D02*
X134600000Y-96050000D01*
X133601962Y-96636218D02*
X133700000Y-96975000D01*
X129800000Y-90925000D02*
X129500000Y-90625000D01*
X129500000Y-90625000D02*
X129250000Y-90625000D01*
X133351962Y-97069231D02*
X133700000Y-96975000D01*
X130098132Y-91362338D02*
X129800000Y-90925000D01*
X129770193Y-91898038D02*
X130098132Y-91362338D01*
D42*
%TO.N,/ADC2_IN5*%
X133075000Y-99150000D02*
X132950000Y-99150000D01*
X133200000Y-99025000D02*
X133075000Y-99150000D01*
X132950000Y-99150000D02*
X132351962Y-98801282D01*
%TO.N,/NRST*%
X128497756Y-99101962D02*
X128125000Y-99675000D01*
%TO.N,/ADC_VBAT*%
X121642500Y-112925000D02*
X121635000Y-114475000D01*
X127198718Y-98351962D02*
X126925000Y-98750000D01*
X126925000Y-98750000D02*
X126300000Y-99100000D01*
%TO.N,/HSE_IN*%
X124702905Y-102103750D02*
X125275000Y-101225000D01*
X126400000Y-100625000D02*
X127631731Y-98601962D01*
X125822372Y-102724520D02*
X124702905Y-102103750D01*
X125275000Y-101225000D02*
X126400000Y-100625000D01*
%TO.N,Net-(Y1-CRYSTAL_2)*%
X126871250Y-101352905D02*
X127571250Y-101752905D01*
X127571250Y-101752905D02*
X127150000Y-102625000D01*
X127521250Y-101752905D02*
X127571250Y-101752905D01*
%TO.N,/EXT_BTN_EXTI10*%
X127898039Y-92765706D02*
X127400000Y-92475000D01*
X144527905Y-92621250D02*
X144950000Y-93275000D01*
X127400000Y-92475000D02*
X127000000Y-92625000D01*
%TO.N,Net-(D1-A)*%
X126332693Y-97851962D02*
X125475000Y-99400000D01*
%TO.N,Net-(IC4-IN1)*%
X132627905Y-101553750D02*
X132775000Y-101200000D01*
%TO.N,Net-(IC4-IN2)*%
X130044190Y-88417500D02*
X127375000Y-87450000D01*
X127375000Y-87450000D02*
X123525000Y-87300000D01*
X123525000Y-87300000D02*
X122127654Y-88323839D01*
%TO.N,Net-(J1-Pad3)*%
X130550000Y-80450000D02*
X130575000Y-79201115D01*
X130000000Y-81317500D02*
X130550000Y-80450000D01*
%TO.N,/HALL2_CS*%
X132050000Y-80800000D02*
X131825000Y-79201115D01*
X134925000Y-92900000D02*
X132050000Y-83800000D01*
X132050000Y-83800000D02*
X132050000Y-80800000D01*
X134100320Y-94398038D02*
X134925000Y-92900000D01*
%TO.N,/HALL2_MISO*%
X129325000Y-79201115D02*
X129550000Y-80425000D01*
X129550000Y-80425000D02*
X129525000Y-82725000D01*
X133875000Y-92725000D02*
X132125000Y-87950000D01*
X133234294Y-93898039D02*
X133875000Y-92725000D01*
X129575000Y-83925000D02*
X132125000Y-87950000D01*
X129525000Y-82725000D02*
X129575000Y-83925000D01*
%TO.N,Net-(J1-Pad5)*%
X128025000Y-81367500D02*
X128075000Y-79201115D01*
%TO.N,/MOT2_HALL_B{slash}TIM1CH2*%
X131502244Y-92898038D02*
X131725000Y-92500000D01*
X131725000Y-92500000D02*
X131650000Y-92175000D01*
%TO.N,/MOT2_HALL_A{slash}TIM1CH1*%
X132400000Y-92550000D02*
X132275000Y-92675000D01*
X132200000Y-92675000D02*
X131935256Y-93148038D01*
X132275000Y-92675000D02*
X132200000Y-92675000D01*
%TO.N,Net-(J3-Pad3)*%
X142391405Y-103153750D02*
X142800000Y-104225000D01*
X142800000Y-104225000D02*
X144184526Y-104951266D01*
%TO.N,/HALL1_MISO*%
X141400000Y-101950000D02*
X144809526Y-103868734D01*
X138575000Y-102250000D02*
X141400000Y-101950000D01*
X131851962Y-99667307D02*
X138575000Y-102250000D01*
%TO.N,Net-(J3-Pad5)*%
X145434526Y-102786202D02*
X143527905Y-101478750D01*
%TO.N,/HALL1_CS*%
X130229807Y-100101962D02*
X130050000Y-100850000D01*
X142100000Y-105275000D02*
X143559526Y-106033798D01*
X130050000Y-100850000D02*
X132175000Y-102000000D01*
X138400000Y-103450000D02*
X142100000Y-105275000D01*
X132825000Y-102350000D02*
X134575000Y-102000000D01*
X134575000Y-102000000D02*
X138400000Y-103450000D01*
X132175000Y-102000000D02*
X132825000Y-102350000D01*
%TO.N,/MOT1_HALL_B{slash}TIM2CH2*%
X129150000Y-100425000D02*
X129150000Y-99975000D01*
X129825000Y-102125000D02*
X130125000Y-101825000D01*
X129150000Y-99975000D02*
X129363782Y-99601962D01*
X130125000Y-101825000D02*
X130125000Y-101400000D01*
X130125000Y-101400000D02*
X129150000Y-100425000D01*
%TO.N,/MOT1_HALL_A{slash}TIM2CH1*%
X129550000Y-101475000D02*
X128750000Y-100675000D01*
X128750000Y-100675000D02*
X128750000Y-99532731D01*
X128750000Y-99532731D02*
X128930769Y-99351962D01*
%TO.N,/SWDIO*%
X128075000Y-91000000D02*
X128325000Y-91000000D01*
X128973038Y-91648038D02*
X129337180Y-91648038D01*
X128325000Y-91000000D02*
X128973038Y-91648038D01*
%TO.N,/SWCLK*%
X127975000Y-91625000D02*
X128398038Y-91899680D01*
X127400000Y-91375000D02*
X127625000Y-91375000D01*
X127625000Y-91375000D02*
X127875000Y-91625000D01*
X127875000Y-91625000D02*
X127975000Y-91625000D01*
%TO.N,/HALL3_MISO*%
X126500000Y-93675000D02*
X125425000Y-94125000D01*
X127148038Y-94064744D02*
X126500000Y-93675000D01*
X117425000Y-103775000D02*
X119775000Y-102450000D01*
X119775000Y-102450000D02*
X120550000Y-101950000D01*
X115807147Y-104890850D02*
X117425000Y-103775000D01*
X120550000Y-101950000D02*
X125425000Y-94125000D01*
%TO.N,Net-(J9-Pad3)*%
X116400000Y-103125000D02*
X117608595Y-103153750D01*
X115182147Y-103808318D02*
X116400000Y-103125000D01*
%TO.N,/HALL3_CS*%
X121300000Y-98250000D02*
X124575000Y-93375000D01*
X127375000Y-91900000D02*
X124575000Y-93375000D01*
X128148038Y-92332693D02*
X127375000Y-91900000D01*
X118525000Y-100425000D02*
X121300000Y-98250000D01*
X114557147Y-102725786D02*
X118525000Y-100425000D01*
%TO.N,Net-(J9-Pad5)*%
X118547095Y-104903750D02*
X116432147Y-105973382D01*
%TO.N,/MOT3_HALL_B{slash}TIM8CH2*%
X126148038Y-95796794D02*
X125775000Y-95550000D01*
%TO.N,/MOT3_HALL_A{slash}TIM8CH1*%
X126648038Y-94930769D02*
X126300000Y-94725000D01*
%TO.N,Net-(LEDRED1-A)*%
X137375000Y-110280000D02*
X136300000Y-110335000D01*
%TO.N,/HSE_OUT*%
X127600000Y-99700000D02*
X128064744Y-98851962D01*
X127978750Y-101047095D02*
X128075000Y-100950845D01*
X127850000Y-100300000D02*
X127664654Y-100160347D01*
X127978750Y-101047095D02*
X127850000Y-100300000D01*
X127664654Y-100160347D02*
X127600000Y-99700000D01*
%TO.N,/HALL2_CLK*%
X132650000Y-87650000D02*
X129975000Y-83225000D01*
X134400000Y-92825000D02*
X132650000Y-87650000D01*
X133667307Y-94148038D02*
X134400000Y-92825000D01*
X129975000Y-83225000D02*
X130000000Y-82132500D01*
%TO.N,/MOT2_PWMA{slash}TIM4CH1*%
X130352905Y-89528750D02*
X131250000Y-91250000D01*
X131250000Y-91250000D02*
X130636218Y-92398038D01*
%TO.N,/MOT2_PWMB{slash}TIM4CH2*%
X129977905Y-90228750D02*
X130650000Y-91200000D01*
X130650000Y-91200000D02*
X130203206Y-92148038D01*
%TO.N,/HALL2_MOSI*%
X132801282Y-93648038D02*
X133350000Y-92675000D01*
X133350000Y-92675000D02*
X131775000Y-88525000D01*
X131775000Y-88525000D02*
X127975000Y-83100000D01*
X127975000Y-83100000D02*
X128025000Y-82182500D01*
%TO.N,Net-(D1-K)*%
X124990000Y-100240044D02*
X124162500Y-99728349D01*
%TO.N,/HALL1_CLK*%
X138600000Y-102725000D02*
X141685595Y-102746250D01*
X131601962Y-100100320D02*
X138600000Y-102725000D01*
%TO.N,/MOT1_PWMA{slash}TIM3CH3*%
X132758693Y-98525000D02*
X133725845Y-98525000D01*
X132601962Y-98368269D02*
X132758693Y-98525000D01*
X133725845Y-98525000D02*
X133922095Y-98721250D01*
%TO.N,/MOT1_PWMB{slash}TIM3CH4*%
X133012956Y-98096250D02*
X134297095Y-98096250D01*
X132851962Y-97935256D02*
X133012956Y-98096250D01*
%TO.N,/HALL1_MOSI*%
X138550000Y-101600000D02*
X142822095Y-101071250D01*
X132101961Y-99234294D02*
X138550000Y-101600000D01*
%TO.N,/HALL3_CLK*%
X119650000Y-101975000D02*
X118314405Y-102746250D01*
X125050000Y-93800000D02*
X119650000Y-101975000D01*
X127398038Y-93631731D02*
X126625000Y-93175000D01*
X126625000Y-93175000D02*
X125050000Y-93800000D01*
%TO.N,/MOT3_PWMA{slash}TIM3CH1*%
X132100000Y-91400000D02*
X132850000Y-92150000D01*
X132850000Y-92916307D02*
X132368269Y-93398038D01*
X132850000Y-92150000D02*
X132850000Y-92916307D01*
X132100000Y-91400000D02*
X130750000Y-88825000D01*
%TO.N,/MOT3_PWMB{slash}TIM3CH2*%
X131922095Y-101146250D02*
X130662820Y-100351962D01*
%TO.N,/HALL3_MOSI*%
X125800000Y-94400000D02*
X124425000Y-96600000D01*
X120200000Y-103900000D02*
X119252905Y-104496250D01*
X126300000Y-94175000D02*
X125800000Y-94400000D01*
X126898038Y-94497756D02*
X126300000Y-94175000D01*
X124425000Y-96600000D02*
X120200000Y-103900000D01*
%TO.N,/USART3_TX*%
X133851962Y-96203206D02*
X134700000Y-96675000D01*
X144073552Y-87875000D02*
X145722804Y-86922804D01*
X145722804Y-86922804D02*
X147364448Y-85975000D01*
X134700000Y-96675000D02*
X135625000Y-96450000D01*
%TO.N,/USART3_RX*%
X135150000Y-95775000D02*
X135925000Y-95500000D01*
X144473552Y-88567820D02*
X146086553Y-87636553D01*
X146086553Y-87636553D02*
X147764448Y-86667820D01*
X134351962Y-95337180D02*
X135150000Y-95775000D01*
%TO.N,/UART_EXTI*%
X133101962Y-97502244D02*
X133600000Y-97775000D01*
X133600000Y-97775000D02*
X134150000Y-97400000D01*
X134150000Y-97400000D02*
X135025000Y-97225000D01*
X145343205Y-86218205D02*
X146964448Y-85282180D01*
X143673552Y-87182180D02*
X145343205Y-86218205D01*
%TD*%
%TA.AperFunction,Conductor*%
%TO.N,GND*%
G36*
X126505902Y-100968571D02*
G01*
X126547221Y-101024914D01*
X126551519Y-101094651D01*
X126538005Y-101129101D01*
X126393233Y-101379855D01*
X126393218Y-101379884D01*
X126383186Y-101403085D01*
X126371098Y-101514781D01*
X126400175Y-101623299D01*
X126459991Y-101705097D01*
X126466491Y-101713986D01*
X126486793Y-101729074D01*
X126737706Y-101873937D01*
X126737713Y-101873940D01*
X126737715Y-101873941D01*
X126742606Y-101876056D01*
X126757929Y-101882682D01*
X126758154Y-101882779D01*
X126811874Y-101927455D01*
X126832913Y-101994082D01*
X126814590Y-102061506D01*
X126802171Y-102078347D01*
X126798982Y-102081983D01*
X126798974Y-102081994D01*
X126576351Y-102467587D01*
X126525784Y-102515803D01*
X126457177Y-102529025D01*
X126406964Y-102512974D01*
X125718261Y-102115351D01*
X125718258Y-102115350D01*
X125661798Y-102096184D01*
X125661796Y-102096184D01*
X125608734Y-102099662D01*
X125582202Y-102101401D01*
X125510658Y-102136681D01*
X125503864Y-102141895D01*
X125486196Y-102148724D01*
X125470960Y-102159976D01*
X125454284Y-102161059D01*
X125438694Y-102167086D01*
X125420137Y-102163278D01*
X125401238Y-102164507D01*
X125372099Y-102153422D01*
X125370250Y-102153043D01*
X125368250Y-102151958D01*
X125286365Y-102106551D01*
X125237282Y-102056825D01*
X125226724Y-102030202D01*
X125216987Y-101993863D01*
X125216666Y-101993424D01*
X125210470Y-101984951D01*
X125186789Y-101919220D01*
X125202404Y-101851117D01*
X125206627Y-101844135D01*
X125453280Y-101465271D01*
X125498841Y-101423517D01*
X126372267Y-100957689D01*
X126440681Y-100943511D01*
X126505902Y-100968571D01*
G37*
%TD.AperFunction*%
%TA.AperFunction,Conductor*%
G36*
X127316397Y-99931627D02*
G01*
X127355588Y-99989470D01*
X127360290Y-100010039D01*
X127380766Y-100155833D01*
X127380775Y-100155941D01*
X127387117Y-100201056D01*
X127387135Y-100201184D01*
X127387143Y-100201236D01*
X127392016Y-100235928D01*
X127392023Y-100235946D01*
X127392027Y-100235969D01*
X127408023Y-100273648D01*
X127420869Y-100303917D01*
X127420880Y-100303931D01*
X127420889Y-100303952D01*
X127429919Y-100315509D01*
X127445274Y-100335161D01*
X127445285Y-100335175D01*
X127466331Y-100362119D01*
X127466358Y-100362145D01*
X127466363Y-100362151D01*
X127466369Y-100362155D01*
X127466379Y-100362165D01*
X127466628Y-100362351D01*
X127497035Y-100385261D01*
X127497046Y-100385277D01*
X127497050Y-100385273D01*
X127532079Y-100411674D01*
X127532157Y-100411725D01*
X127553209Y-100427587D01*
X127594907Y-100483649D01*
X127600790Y-100505563D01*
X127645618Y-100765689D01*
X127637604Y-100835098D01*
X127630807Y-100848747D01*
X127523264Y-101035020D01*
X127472697Y-101083236D01*
X127404090Y-101096460D01*
X127339225Y-101070492D01*
X127315783Y-101046215D01*
X127295839Y-101018942D01*
X127276009Y-100991824D01*
X127255707Y-100976736D01*
X127004794Y-100831873D01*
X127004778Y-100831865D01*
X126981576Y-100821833D01*
X126981578Y-100821833D01*
X126925729Y-100815789D01*
X126869882Y-100809745D01*
X126869881Y-100809745D01*
X126869880Y-100809745D01*
X126869879Y-100809745D01*
X126865376Y-100810952D01*
X126795526Y-100809289D01*
X126737664Y-100770126D01*
X126710160Y-100705898D01*
X126721747Y-100636995D01*
X126727370Y-100626691D01*
X126736830Y-100611154D01*
X127131583Y-99962798D01*
X127183259Y-99915775D01*
X127252155Y-99904155D01*
X127316397Y-99931627D01*
G37*
%TD.AperFunction*%
%TA.AperFunction,Conductor*%
G36*
X129042736Y-92225036D02*
G01*
X129049936Y-92224694D01*
X129082698Y-92237810D01*
X129094737Y-92244761D01*
X129168806Y-92269905D01*
X129187996Y-92268647D01*
X129256179Y-92283904D01*
X129305290Y-92333601D01*
X129307319Y-92337536D01*
X129315461Y-92354045D01*
X129315827Y-92354788D01*
X129374635Y-92406362D01*
X129527750Y-92494761D01*
X129601819Y-92519905D01*
X129621009Y-92518647D01*
X129689192Y-92533904D01*
X129738303Y-92583601D01*
X129740332Y-92587536D01*
X129748840Y-92604788D01*
X129807648Y-92656362D01*
X129960763Y-92744761D01*
X130034832Y-92769905D01*
X130054021Y-92768647D01*
X130122204Y-92783903D01*
X130171315Y-92833601D01*
X130173344Y-92837536D01*
X130177865Y-92846704D01*
X130181852Y-92854788D01*
X130240660Y-92906362D01*
X130393775Y-92994761D01*
X130467844Y-93019905D01*
X130487034Y-93018647D01*
X130555217Y-93033904D01*
X130604328Y-93083601D01*
X130606357Y-93087536D01*
X130614865Y-93104788D01*
X130673673Y-93156362D01*
X130826788Y-93244761D01*
X130900857Y-93269905D01*
X130920047Y-93268647D01*
X130988230Y-93283904D01*
X131037341Y-93333601D01*
X131039370Y-93337536D01*
X131044482Y-93347902D01*
X131047878Y-93354788D01*
X131106686Y-93406362D01*
X131259801Y-93494761D01*
X131333870Y-93519905D01*
X131353059Y-93518647D01*
X131421242Y-93533903D01*
X131470353Y-93583601D01*
X131472382Y-93587536D01*
X131475705Y-93594274D01*
X131480890Y-93604788D01*
X131539698Y-93656362D01*
X131692813Y-93744761D01*
X131766882Y-93769905D01*
X131786072Y-93768647D01*
X131854255Y-93783904D01*
X131903366Y-93833601D01*
X131905395Y-93837536D01*
X131913903Y-93854788D01*
X131972711Y-93906362D01*
X132125826Y-93994761D01*
X132199895Y-94019905D01*
X132219085Y-94018647D01*
X132287268Y-94033904D01*
X132336379Y-94083601D01*
X132338408Y-94087536D01*
X132346916Y-94104788D01*
X132405724Y-94156362D01*
X132558839Y-94244761D01*
X132632908Y-94269905D01*
X132652097Y-94268647D01*
X132720280Y-94283903D01*
X132769391Y-94333601D01*
X132771420Y-94337538D01*
X132779925Y-94354784D01*
X132779927Y-94354788D01*
X132779928Y-94354789D01*
X132838736Y-94406363D01*
X132991851Y-94494762D01*
X133065920Y-94519906D01*
X133085111Y-94518648D01*
X133153294Y-94533905D01*
X133202405Y-94583603D01*
X133204435Y-94587539D01*
X133212940Y-94604787D01*
X133212941Y-94604788D01*
X133271749Y-94656362D01*
X133424864Y-94744761D01*
X133498933Y-94769905D01*
X133518123Y-94768647D01*
X133586306Y-94783904D01*
X133613831Y-94804615D01*
X133628365Y-94819121D01*
X133645954Y-94854788D01*
X133704762Y-94906362D01*
X133730886Y-94921444D01*
X133742398Y-94932934D01*
X133751678Y-94949891D01*
X133765016Y-94963879D01*
X133768105Y-94979905D01*
X133775942Y-94994225D01*
X133774581Y-95013506D01*
X133778240Y-95032486D01*
X133771827Y-95052547D01*
X133771025Y-95063921D01*
X133766073Y-95070549D01*
X133762190Y-95082697D01*
X133755238Y-95094737D01*
X133730095Y-95168804D01*
X133731353Y-95188000D01*
X133716093Y-95256183D01*
X133666394Y-95305292D01*
X133662464Y-95307318D01*
X133645215Y-95315824D01*
X133645212Y-95315826D01*
X133593636Y-95374636D01*
X133593636Y-95374637D01*
X133505238Y-95527752D01*
X133480095Y-95601817D01*
X133481353Y-95621013D01*
X133466093Y-95689196D01*
X133416394Y-95738305D01*
X133412464Y-95740331D01*
X133395215Y-95748837D01*
X133395212Y-95748839D01*
X133343636Y-95807649D01*
X133343636Y-95807650D01*
X133255238Y-95960765D01*
X133230095Y-96034830D01*
X133230095Y-96034831D01*
X133230095Y-96034832D01*
X133231200Y-96051700D01*
X133231353Y-96054024D01*
X133216093Y-96122208D01*
X133166394Y-96171317D01*
X133162464Y-96173343D01*
X133145215Y-96181849D01*
X133145212Y-96181851D01*
X133093636Y-96240661D01*
X133093636Y-96240662D01*
X133005238Y-96393777D01*
X132980095Y-96467842D01*
X132981353Y-96487038D01*
X132966093Y-96555221D01*
X132916394Y-96604330D01*
X132912464Y-96606356D01*
X132895215Y-96614862D01*
X132895212Y-96614864D01*
X132843636Y-96673674D01*
X132843636Y-96673675D01*
X132776368Y-96790191D01*
X132757307Y-96823207D01*
X132755238Y-96826790D01*
X132730095Y-96900855D01*
X132730095Y-96900856D01*
X132730095Y-96900857D01*
X132731190Y-96917568D01*
X132731353Y-96920051D01*
X132716093Y-96988234D01*
X132666394Y-97037343D01*
X132662464Y-97039369D01*
X132645215Y-97047875D01*
X132645212Y-97047877D01*
X132593636Y-97106687D01*
X132593636Y-97106688D01*
X132555772Y-97172273D01*
X132507874Y-97255238D01*
X132505238Y-97259803D01*
X132480095Y-97333868D01*
X132481353Y-97353062D01*
X132466093Y-97421246D01*
X132416394Y-97470355D01*
X132412464Y-97472381D01*
X132395215Y-97480887D01*
X132395212Y-97480889D01*
X132343636Y-97539699D01*
X132343636Y-97539700D01*
X132255238Y-97692815D01*
X132230095Y-97766880D01*
X132231353Y-97786076D01*
X132216093Y-97854259D01*
X132166394Y-97903368D01*
X132162464Y-97905394D01*
X132145215Y-97913900D01*
X132145212Y-97913902D01*
X132093636Y-97972712D01*
X132093636Y-97972713D01*
X132005238Y-98125828D01*
X131980095Y-98199893D01*
X131980095Y-98199894D01*
X131980095Y-98199895D01*
X131981331Y-98218749D01*
X131981353Y-98219089D01*
X131966093Y-98287272D01*
X131916394Y-98336381D01*
X131912464Y-98338407D01*
X131895215Y-98346913D01*
X131895212Y-98346915D01*
X131843636Y-98405725D01*
X131843636Y-98405726D01*
X131755238Y-98558841D01*
X131730095Y-98632906D01*
X131730095Y-98632907D01*
X131730095Y-98632908D01*
X131730901Y-98645212D01*
X131731353Y-98652100D01*
X131716093Y-98720284D01*
X131666394Y-98769393D01*
X131662466Y-98771418D01*
X131645212Y-98779927D01*
X131645211Y-98779928D01*
X131593635Y-98838737D01*
X131593635Y-98838738D01*
X131541088Y-98929756D01*
X131510113Y-98983408D01*
X131505237Y-98991853D01*
X131480094Y-99065918D01*
X131481352Y-99085115D01*
X131466092Y-99153298D01*
X131416393Y-99202407D01*
X131412465Y-99204432D01*
X131395213Y-99212940D01*
X131395212Y-99212941D01*
X131343636Y-99271750D01*
X131343636Y-99271751D01*
X131272359Y-99395210D01*
X131263925Y-99409820D01*
X131255238Y-99424866D01*
X131230095Y-99498931D01*
X131230095Y-99498932D01*
X131230095Y-99498933D01*
X131231353Y-99518127D01*
X131216093Y-99586310D01*
X131195384Y-99613830D01*
X131180875Y-99628366D01*
X131145212Y-99645954D01*
X131093638Y-99704762D01*
X131078556Y-99730884D01*
X131067066Y-99742397D01*
X131050106Y-99751679D01*
X131036116Y-99765018D01*
X131020093Y-99768105D01*
X131005776Y-99775942D01*
X130986489Y-99774581D01*
X130967509Y-99778239D01*
X130947451Y-99771827D01*
X130936079Y-99771025D01*
X130929450Y-99766073D01*
X130917303Y-99762190D01*
X130905262Y-99755238D01*
X130831194Y-99730095D01*
X130811998Y-99731353D01*
X130743815Y-99716093D01*
X130694706Y-99666393D01*
X130692691Y-99662486D01*
X130684173Y-99645212D01*
X130684172Y-99645211D01*
X130684172Y-99645210D01*
X130640351Y-99606781D01*
X130625365Y-99593638D01*
X130614993Y-99587650D01*
X130572903Y-99563350D01*
X130472250Y-99505239D01*
X130398181Y-99480095D01*
X130378985Y-99481353D01*
X130310802Y-99466093D01*
X130261693Y-99416393D01*
X130259678Y-99412486D01*
X130251160Y-99395212D01*
X130251159Y-99395211D01*
X130251159Y-99395210D01*
X130202092Y-99352180D01*
X130192352Y-99343638D01*
X130167562Y-99329326D01*
X130110003Y-99296095D01*
X130039237Y-99255239D01*
X130007075Y-99244321D01*
X129965169Y-99230095D01*
X129965168Y-99230095D01*
X129945972Y-99231352D01*
X129877790Y-99216093D01*
X129828681Y-99166394D01*
X129826666Y-99162486D01*
X129818148Y-99145212D01*
X129818147Y-99145211D01*
X129818147Y-99145210D01*
X129772462Y-99105146D01*
X129759340Y-99093638D01*
X129744577Y-99085115D01*
X129702001Y-99060534D01*
X129606225Y-99005239D01*
X129532156Y-98980095D01*
X129512960Y-98981353D01*
X129444777Y-98966093D01*
X129395668Y-98916393D01*
X129393653Y-98912486D01*
X129385135Y-98895212D01*
X129385134Y-98895211D01*
X129385134Y-98895210D01*
X129338792Y-98854570D01*
X129326327Y-98843638D01*
X129322835Y-98841622D01*
X129285291Y-98819946D01*
X129173212Y-98755239D01*
X129099143Y-98730095D01*
X129079947Y-98731353D01*
X129011764Y-98716093D01*
X128962655Y-98666393D01*
X128960640Y-98662486D01*
X128952122Y-98645212D01*
X128952121Y-98645211D01*
X128952121Y-98645210D01*
X128912296Y-98610285D01*
X128893314Y-98593638D01*
X128740199Y-98505239D01*
X128731780Y-98502381D01*
X128666131Y-98480095D01*
X128666130Y-98480095D01*
X128646934Y-98481352D01*
X128578752Y-98466093D01*
X128529643Y-98416394D01*
X128527628Y-98412486D01*
X128519110Y-98395212D01*
X128519109Y-98395211D01*
X128519109Y-98395210D01*
X128483923Y-98364353D01*
X128460302Y-98343638D01*
X128451241Y-98338407D01*
X128419266Y-98319946D01*
X128307187Y-98255239D01*
X128233118Y-98230095D01*
X128213922Y-98231353D01*
X128145739Y-98216093D01*
X128096630Y-98166393D01*
X128094615Y-98162486D01*
X128086097Y-98145212D01*
X128086096Y-98145211D01*
X128086096Y-98145210D01*
X128050910Y-98114353D01*
X128027289Y-98093638D01*
X127874174Y-98005239D01*
X127800105Y-97980095D01*
X127780909Y-97981353D01*
X127712726Y-97966093D01*
X127663617Y-97916393D01*
X127661602Y-97912486D01*
X127653084Y-97895212D01*
X127653083Y-97895211D01*
X127653083Y-97895210D01*
X127617897Y-97864353D01*
X127594276Y-97843638D01*
X127441161Y-97755239D01*
X127422037Y-97748747D01*
X127367093Y-97730095D01*
X127367092Y-97730095D01*
X127347897Y-97731352D01*
X127279715Y-97716093D01*
X127230606Y-97666394D01*
X127228578Y-97662460D01*
X127220072Y-97645210D01*
X127186542Y-97615806D01*
X127161264Y-97593637D01*
X127008149Y-97505238D01*
X126934080Y-97480094D01*
X126914884Y-97481352D01*
X126846701Y-97466092D01*
X126797592Y-97416392D01*
X126795564Y-97412459D01*
X126787059Y-97395211D01*
X126753529Y-97365807D01*
X126728251Y-97343638D01*
X126711328Y-97333868D01*
X126687215Y-97319946D01*
X126575136Y-97255239D01*
X126501067Y-97230095D01*
X126481871Y-97231353D01*
X126413688Y-97216093D01*
X126386167Y-97195384D01*
X126371635Y-97180880D01*
X126354046Y-97145212D01*
X126295238Y-97093638D01*
X126269113Y-97078555D01*
X126257601Y-97067065D01*
X126248320Y-97050106D01*
X126234982Y-97036118D01*
X126231893Y-97020092D01*
X126224057Y-97005774D01*
X126225417Y-96986490D01*
X126221760Y-96967511D01*
X126228172Y-96947454D01*
X126228975Y-96936077D01*
X126233929Y-96929444D01*
X126237813Y-96917296D01*
X126244761Y-96905263D01*
X126269905Y-96831194D01*
X126269381Y-96823207D01*
X126268647Y-96812002D01*
X126283904Y-96743818D01*
X126333602Y-96694708D01*
X126337495Y-96692700D01*
X126354788Y-96684173D01*
X126406362Y-96625365D01*
X126494761Y-96472250D01*
X126519905Y-96398181D01*
X126519845Y-96397273D01*
X126518647Y-96378989D01*
X126533904Y-96310805D01*
X126583602Y-96261695D01*
X126587495Y-96259687D01*
X126604788Y-96251160D01*
X126656362Y-96192352D01*
X126744761Y-96039237D01*
X126769905Y-95965168D01*
X126768647Y-95945976D01*
X126783904Y-95877794D01*
X126833602Y-95828683D01*
X126837495Y-95826675D01*
X126854788Y-95818148D01*
X126906362Y-95759340D01*
X126994761Y-95606225D01*
X127019905Y-95532156D01*
X127018647Y-95512963D01*
X127033904Y-95444780D01*
X127083602Y-95395670D01*
X127087495Y-95393662D01*
X127104788Y-95385135D01*
X127156362Y-95326327D01*
X127244761Y-95173212D01*
X127269905Y-95099143D01*
X127268647Y-95079950D01*
X127283904Y-95011767D01*
X127333602Y-94962657D01*
X127337495Y-94960649D01*
X127354788Y-94952122D01*
X127406362Y-94893314D01*
X127494761Y-94740199D01*
X127519905Y-94666130D01*
X127518647Y-94646938D01*
X127533904Y-94578756D01*
X127583602Y-94529645D01*
X127587495Y-94527637D01*
X127604788Y-94519110D01*
X127656362Y-94460302D01*
X127744761Y-94307187D01*
X127769905Y-94233118D01*
X127768647Y-94213925D01*
X127783904Y-94145742D01*
X127833602Y-94096632D01*
X127837495Y-94094624D01*
X127854788Y-94086097D01*
X127906362Y-94027289D01*
X127994761Y-93874174D01*
X128019905Y-93800105D01*
X128018647Y-93780912D01*
X128033904Y-93712729D01*
X128083602Y-93663619D01*
X128087495Y-93661611D01*
X128104788Y-93653084D01*
X128156362Y-93594276D01*
X128244761Y-93441161D01*
X128269905Y-93367092D01*
X128268647Y-93347901D01*
X128283904Y-93279719D01*
X128333601Y-93230608D01*
X128337512Y-93228591D01*
X128354789Y-93220072D01*
X128406363Y-93161264D01*
X128494762Y-93008149D01*
X128519906Y-92934080D01*
X128518648Y-92914887D01*
X128533905Y-92846704D01*
X128583603Y-92797594D01*
X128587513Y-92795577D01*
X128604788Y-92787059D01*
X128656362Y-92728251D01*
X128744761Y-92575136D01*
X128769905Y-92501067D01*
X128768647Y-92481874D01*
X128783904Y-92413691D01*
X128833602Y-92364581D01*
X128837495Y-92362573D01*
X128854788Y-92354046D01*
X128906362Y-92295238D01*
X128910312Y-92288395D01*
X128913311Y-92283202D01*
X128919865Y-92276952D01*
X128923231Y-92268545D01*
X128944753Y-92253219D01*
X128963876Y-92234984D01*
X128972768Y-92233269D01*
X128980145Y-92228017D01*
X129006537Y-92226760D01*
X129032483Y-92221759D01*
X129042736Y-92225036D01*
G37*
%TD.AperFunction*%
%TA.AperFunction,Conductor*%
G36*
X142223338Y-74386916D02*
G01*
X142232650Y-74385631D01*
X142256326Y-74396603D01*
X142281360Y-74403954D01*
X142287514Y-74411056D01*
X142296043Y-74415009D01*
X142319007Y-74441810D01*
X142324767Y-74450883D01*
X142330024Y-74463574D01*
X142337690Y-74471240D01*
X142345024Y-74482792D01*
X142347724Y-74487250D01*
X154732683Y-95937998D01*
X154749157Y-96005898D01*
X154732683Y-96062000D01*
X148564247Y-106745734D01*
X142347722Y-117512752D01*
X142347722Y-117512753D01*
X142339561Y-117526888D01*
X142330024Y-117536426D01*
X142319792Y-117561125D01*
X142315733Y-117568156D01*
X142315730Y-117568162D01*
X142309291Y-117579314D01*
X142258732Y-117627532D01*
X142201902Y-117641321D01*
X117798098Y-117641321D01*
X117731059Y-117621636D01*
X117690711Y-117579322D01*
X117684268Y-117568162D01*
X117677097Y-117553617D01*
X117669977Y-117536428D01*
X117666833Y-117531722D01*
X117652275Y-117512750D01*
X117253558Y-116822173D01*
X111725623Y-107247789D01*
X115968345Y-107247789D01*
X115987511Y-107304248D01*
X115987513Y-107304254D01*
X116307259Y-107858070D01*
X116307263Y-107858076D01*
X116346575Y-107902902D01*
X116346577Y-107902904D01*
X116418116Y-107938182D01*
X116497709Y-107943400D01*
X116554173Y-107924233D01*
X118060621Y-107054485D01*
X118105452Y-107015169D01*
X118140730Y-106943630D01*
X118145948Y-106864037D01*
X118143101Y-106855651D01*
X118127465Y-106809589D01*
X118126781Y-106807573D01*
X118069135Y-106707727D01*
X118039355Y-106656146D01*
X118008251Y-106602273D01*
X126887500Y-106602273D01*
X126887500Y-106707727D01*
X126914793Y-106809587D01*
X126967520Y-106900913D01*
X127042087Y-106975480D01*
X127133413Y-107028207D01*
X127235273Y-107055500D01*
X127235275Y-107055500D01*
X127340725Y-107055500D01*
X127340727Y-107055500D01*
X127442587Y-107028207D01*
X127533913Y-106975480D01*
X127608480Y-106900913D01*
X127661207Y-106809587D01*
X127688500Y-106707727D01*
X127688500Y-106602273D01*
X127661207Y-106500413D01*
X127608480Y-106409087D01*
X127533913Y-106334520D01*
X127442587Y-106281793D01*
X127340727Y-106254500D01*
X127235273Y-106254500D01*
X127133413Y-106281793D01*
X127133410Y-106281794D01*
X127042085Y-106334521D01*
X126967521Y-106409085D01*
X126914794Y-106500410D01*
X126914793Y-106500413D01*
X126887500Y-106602273D01*
X118008251Y-106602273D01*
X117807034Y-106253755D01*
X117807030Y-106253749D01*
X117767718Y-106208923D01*
X117767717Y-106208922D01*
X117696178Y-106173644D01*
X117690959Y-106173301D01*
X117616584Y-106168425D01*
X117560125Y-106187591D01*
X117560119Y-106187593D01*
X116053675Y-107057339D01*
X116053669Y-107057343D01*
X116008843Y-107096655D01*
X115973564Y-107168196D01*
X115968345Y-107247789D01*
X111725623Y-107247789D01*
X111167889Y-106281794D01*
X107744839Y-100353071D01*
X107713734Y-100299197D01*
X116061000Y-100299197D01*
X116061000Y-100404651D01*
X116088293Y-100506511D01*
X116141020Y-100597837D01*
X116215587Y-100672404D01*
X116306913Y-100725131D01*
X116408773Y-100752424D01*
X116408775Y-100752424D01*
X116514225Y-100752424D01*
X116514227Y-100752424D01*
X116616087Y-100725131D01*
X116707413Y-100672404D01*
X116781980Y-100597837D01*
X116834707Y-100506511D01*
X116862000Y-100404651D01*
X116862000Y-100299197D01*
X116834707Y-100197337D01*
X116781980Y-100106011D01*
X116707413Y-100031444D01*
X116616087Y-99978717D01*
X116514227Y-99951424D01*
X116408773Y-99951424D01*
X116306913Y-99978717D01*
X116306910Y-99978718D01*
X116215585Y-100031445D01*
X116141021Y-100106009D01*
X116088294Y-100197334D01*
X116088293Y-100197337D01*
X116061000Y-100299197D01*
X107713734Y-100299197D01*
X105267315Y-96062000D01*
X105250841Y-95994100D01*
X105267314Y-95938001D01*
X108291106Y-90700793D01*
X113054537Y-90700793D01*
X113086260Y-90860269D01*
X113086263Y-90860279D01*
X113148488Y-91010505D01*
X113148490Y-91010509D01*
X113238826Y-91145706D01*
X113238832Y-91145714D01*
X113353809Y-91260691D01*
X113353817Y-91260697D01*
X113489014Y-91351033D01*
X113489018Y-91351035D01*
X113639244Y-91413260D01*
X113639249Y-91413262D01*
X113639253Y-91413262D01*
X113639254Y-91413263D01*
X113798730Y-91444986D01*
X113798733Y-91444986D01*
X113961345Y-91444986D01*
X114068636Y-91423643D01*
X114120827Y-91413262D01*
X114251400Y-91359177D01*
X114271057Y-91351035D01*
X114271061Y-91351033D01*
X114365039Y-91288239D01*
X114406263Y-91260694D01*
X114521246Y-91145711D01*
X114593165Y-91038076D01*
X114611585Y-91010509D01*
X114611587Y-91010505D01*
X114662316Y-90888034D01*
X114673814Y-90860275D01*
X114689864Y-90779586D01*
X114705538Y-90700793D01*
X114705538Y-90538178D01*
X114673815Y-90378702D01*
X114673814Y-90378701D01*
X114673814Y-90378697D01*
X114658932Y-90342769D01*
X114611587Y-90228466D01*
X114611585Y-90228462D01*
X114521249Y-90093265D01*
X114521243Y-90093257D01*
X114406266Y-89978280D01*
X114406258Y-89978274D01*
X114271061Y-89887938D01*
X114271057Y-89887936D01*
X114120831Y-89825711D01*
X114120821Y-89825708D01*
X113961345Y-89793986D01*
X113961343Y-89793986D01*
X113798733Y-89793986D01*
X113798731Y-89793986D01*
X113639254Y-89825708D01*
X113639244Y-89825711D01*
X113489018Y-89887936D01*
X113489014Y-89887938D01*
X113353817Y-89978274D01*
X113353809Y-89978280D01*
X113238832Y-90093257D01*
X113238826Y-90093265D01*
X113148490Y-90228462D01*
X113148488Y-90228466D01*
X113086263Y-90378692D01*
X113086260Y-90378702D01*
X113054538Y-90538178D01*
X113054538Y-90538181D01*
X113054538Y-90700791D01*
X113054538Y-90700793D01*
X113054537Y-90700793D01*
X108291106Y-90700793D01*
X110668792Y-86582640D01*
X111431559Y-86582640D01*
X111431559Y-86582642D01*
X111431559Y-86582643D01*
X111436776Y-86662236D01*
X111472054Y-86733774D01*
X111516886Y-86773090D01*
X112503718Y-87342838D01*
X112560183Y-87362005D01*
X112639776Y-87356788D01*
X112711314Y-87321510D01*
X112750630Y-87276679D01*
X113020378Y-86809461D01*
X113039545Y-86752997D01*
X113039318Y-86749546D01*
X113040972Y-86742153D01*
X113041139Y-86740890D01*
X113041252Y-86740904D01*
X113054572Y-86681365D01*
X113104268Y-86632252D01*
X113108160Y-86630245D01*
X113111314Y-86628690D01*
X113150630Y-86583859D01*
X113420378Y-86116641D01*
X113439545Y-86060177D01*
X113439318Y-86056726D01*
X113440972Y-86049333D01*
X113441139Y-86048070D01*
X113441252Y-86048084D01*
X113454572Y-85988545D01*
X113504268Y-85939432D01*
X113508160Y-85937425D01*
X113511314Y-85935870D01*
X113550630Y-85891039D01*
X113701502Y-85629719D01*
X113752066Y-85581507D01*
X113820673Y-85568283D01*
X113870405Y-85584059D01*
X115651193Y-86601652D01*
X115699633Y-86652003D01*
X115713161Y-86720550D01*
X115697058Y-86771312D01*
X115541624Y-87040533D01*
X115541621Y-87040540D01*
X115522455Y-87097001D01*
X115522455Y-87097002D01*
X115522455Y-87097003D01*
X115522681Y-87100459D01*
X115521025Y-87107856D01*
X115520861Y-87109110D01*
X115520748Y-87109095D01*
X115507423Y-87168640D01*
X115457725Y-87217750D01*
X115453793Y-87219777D01*
X115450689Y-87221307D01*
X115450686Y-87221310D01*
X115411373Y-87266136D01*
X115411368Y-87266143D01*
X115141622Y-87733357D01*
X115141621Y-87733360D01*
X115122455Y-87789821D01*
X115122455Y-87789822D01*
X115122455Y-87789823D01*
X115122681Y-87793279D01*
X115121025Y-87800676D01*
X115120861Y-87801930D01*
X115120748Y-87801915D01*
X115107423Y-87861460D01*
X115057725Y-87910570D01*
X115053793Y-87912597D01*
X115050689Y-87914127D01*
X115050686Y-87914130D01*
X115011373Y-87958956D01*
X115011368Y-87958963D01*
X114741622Y-88426177D01*
X114741621Y-88426180D01*
X114722455Y-88482640D01*
X114722455Y-88482642D01*
X114722455Y-88482643D01*
X114727672Y-88562236D01*
X114762950Y-88633774D01*
X114807782Y-88673090D01*
X115794614Y-89242838D01*
X115851079Y-89262005D01*
X115930672Y-89256788D01*
X116002210Y-89221510D01*
X116041526Y-89176679D01*
X116311274Y-88709461D01*
X116330441Y-88652997D01*
X116330214Y-88649546D01*
X116331868Y-88642153D01*
X116332035Y-88640890D01*
X116332148Y-88640904D01*
X116345468Y-88581365D01*
X116395164Y-88532252D01*
X116399056Y-88530245D01*
X116402210Y-88528690D01*
X116441526Y-88483859D01*
X116711274Y-88016641D01*
X116730441Y-87960177D01*
X116730214Y-87956726D01*
X116731868Y-87949333D01*
X116732035Y-87948070D01*
X116732148Y-87948084D01*
X116745468Y-87888545D01*
X116783314Y-87846697D01*
X116790860Y-87841467D01*
X116802210Y-87835870D01*
X116807284Y-87830084D01*
X116819817Y-87821398D01*
X116839075Y-87815005D01*
X116856210Y-87804135D01*
X116871560Y-87804224D01*
X116886129Y-87799389D01*
X116905785Y-87804423D01*
X116926078Y-87804542D01*
X116938945Y-87812917D01*
X116953814Y-87816726D01*
X116967627Y-87831587D01*
X116984635Y-87842658D01*
X116990930Y-87856658D01*
X117001382Y-87867903D01*
X117004967Y-87887874D01*
X117013290Y-87906382D01*
X117014395Y-87919612D01*
X117025614Y-88295430D01*
X117092525Y-90536935D01*
X117098997Y-90582318D01*
X117112790Y-90635571D01*
X117116261Y-90647479D01*
X117116262Y-90647480D01*
X117163144Y-90726002D01*
X117163146Y-90726004D01*
X117211415Y-90776520D01*
X117246705Y-90804213D01*
X117257430Y-90812629D01*
X118602664Y-91587415D01*
X121061515Y-93003588D01*
X121109783Y-93054103D01*
X121110536Y-93055585D01*
X121284588Y-93403690D01*
X121296963Y-93472455D01*
X121279530Y-93523731D01*
X120541365Y-94733501D01*
X120541358Y-94733514D01*
X120521519Y-94776497D01*
X120521519Y-94776498D01*
X120503828Y-94830429D01*
X120499941Y-94843788D01*
X120497669Y-94935218D01*
X120511519Y-95003698D01*
X120518000Y-95027988D01*
X120565518Y-95106129D01*
X120614185Y-95156245D01*
X120614191Y-95156250D01*
X120614194Y-95156253D01*
X120660500Y-95191989D01*
X122175842Y-96048487D01*
X122206816Y-96062744D01*
X122214995Y-96065714D01*
X122238402Y-96074214D01*
X122294697Y-96115598D01*
X122319681Y-96180848D01*
X122305422Y-96249248D01*
X122299008Y-96259915D01*
X121102925Y-98040344D01*
X121076488Y-98068791D01*
X118374179Y-100186817D01*
X118359888Y-100196493D01*
X115420284Y-101901042D01*
X115352414Y-101917641D01*
X115286345Y-101894913D01*
X115272785Y-101882683D01*
X115267721Y-101878797D01*
X115257874Y-101873941D01*
X115196178Y-101843517D01*
X115190959Y-101843174D01*
X115116584Y-101838298D01*
X115060125Y-101857464D01*
X115060119Y-101857466D01*
X113553675Y-102727212D01*
X113553669Y-102727216D01*
X113508843Y-102766528D01*
X113473564Y-102838069D01*
X113468345Y-102917662D01*
X113487511Y-102974121D01*
X113487513Y-102974127D01*
X113807259Y-103527943D01*
X113807264Y-103527950D01*
X113848731Y-103575233D01*
X113862817Y-103594865D01*
X114081329Y-103972297D01*
X114091435Y-103994566D01*
X114112512Y-104056655D01*
X114112513Y-104056659D01*
X114432259Y-104610475D01*
X114432261Y-104610478D01*
X114452260Y-104633283D01*
X114478816Y-104663564D01*
X114492901Y-104683194D01*
X114704223Y-105048204D01*
X114712285Y-105071886D01*
X114714420Y-105071162D01*
X114737512Y-105139187D01*
X114737513Y-105139191D01*
X115004025Y-105600803D01*
X115057261Y-105693010D01*
X115057264Y-105693013D01*
X115104629Y-105747023D01*
X115103330Y-105748161D01*
X115121327Y-105768658D01*
X115328714Y-106126871D01*
X115338002Y-106154174D01*
X115339420Y-106153693D01*
X115362512Y-106221720D01*
X115362513Y-106221723D01*
X115682259Y-106775539D01*
X115682263Y-106775545D01*
X115721575Y-106820371D01*
X115721577Y-106820373D01*
X115793116Y-106855651D01*
X115872709Y-106860869D01*
X115929173Y-106841702D01*
X117435621Y-105971954D01*
X117480452Y-105932638D01*
X117515730Y-105861099D01*
X117519333Y-105806136D01*
X117543360Y-105740529D01*
X117587101Y-105703597D01*
X118208579Y-105389286D01*
X118277285Y-105376597D01*
X118296629Y-105380164D01*
X118385219Y-105403902D01*
X118496913Y-105391814D01*
X118520130Y-105381776D01*
X118605871Y-105332273D01*
X126887500Y-105332273D01*
X126887500Y-105437727D01*
X126914793Y-105539587D01*
X126967520Y-105630913D01*
X127042087Y-105705480D01*
X127133413Y-105758207D01*
X127235273Y-105785500D01*
X127235275Y-105785500D01*
X127340725Y-105785500D01*
X127340727Y-105785500D01*
X127442587Y-105758207D01*
X127533913Y-105705480D01*
X127608480Y-105630913D01*
X127661207Y-105539587D01*
X127688500Y-105437727D01*
X127688500Y-105332273D01*
X127661207Y-105230413D01*
X127608480Y-105139087D01*
X127533913Y-105064520D01*
X127442587Y-105011793D01*
X127340727Y-104984500D01*
X127235273Y-104984500D01*
X127133413Y-105011793D01*
X127133410Y-105011794D01*
X127042085Y-105064521D01*
X126967521Y-105139085D01*
X126914794Y-105230410D01*
X126914793Y-105230413D01*
X126887500Y-105332273D01*
X118605871Y-105332273D01*
X118974558Y-105119410D01*
X118994859Y-105104325D01*
X118994860Y-105104325D01*
X118994860Y-105104323D01*
X118994862Y-105104323D01*
X119039980Y-105042622D01*
X119095439Y-105000129D01*
X119126729Y-104992538D01*
X119202723Y-104984314D01*
X119225940Y-104974276D01*
X119680368Y-104711910D01*
X119700672Y-104696823D01*
X119766987Y-104606137D01*
X119787308Y-104530297D01*
X119823673Y-104470637D01*
X119841015Y-104457458D01*
X120344792Y-104140303D01*
X120371992Y-104124638D01*
X120375951Y-104120687D01*
X120380693Y-104117702D01*
X120402046Y-104094647D01*
X120424273Y-104072469D01*
X120427077Y-104067623D01*
X120430881Y-104063517D01*
X120444404Y-104037872D01*
X120446747Y-104033635D01*
X124544878Y-96952841D01*
X124595495Y-96904681D01*
X124664116Y-96891531D01*
X124728953Y-96917568D01*
X124769421Y-96974525D01*
X124772291Y-96984076D01*
X124962192Y-97722580D01*
X124962194Y-97722588D01*
X124970827Y-97748747D01*
X124970829Y-97748753D01*
X124983313Y-97779480D01*
X124983316Y-97779487D01*
X125031369Y-97850365D01*
X125031370Y-97850366D01*
X125031371Y-97850367D01*
X125081768Y-97898760D01*
X125129293Y-97932855D01*
X125599070Y-98177139D01*
X125599078Y-98177142D01*
X125599081Y-98177144D01*
X125636415Y-98192117D01*
X125636419Y-98192118D01*
X125636431Y-98192123D01*
X125645646Y-98194805D01*
X125653482Y-98197373D01*
X125656280Y-98198394D01*
X125658451Y-98199995D01*
X125662192Y-98200931D01*
X125662816Y-98201214D01*
X125662136Y-98202713D01*
X125683297Y-98218320D01*
X125710788Y-98237652D01*
X125711338Y-98239002D01*
X125712510Y-98239867D01*
X125724467Y-98271243D01*
X125737140Y-98302361D01*
X125736872Y-98303793D01*
X125737392Y-98305156D01*
X125730483Y-98338037D01*
X125724325Y-98371046D01*
X125723039Y-98373467D01*
X125723026Y-98373533D01*
X125722980Y-98373579D01*
X125722239Y-98374976D01*
X125501947Y-98772577D01*
X125452238Y-98821678D01*
X125384951Y-98836188D01*
X125365389Y-98834838D01*
X125365383Y-98834839D01*
X125332546Y-98843638D01*
X125253199Y-98864899D01*
X125253197Y-98864899D01*
X125253197Y-98864900D01*
X125156852Y-98929756D01*
X125114494Y-98983413D01*
X124933968Y-99296094D01*
X124933968Y-99296095D01*
X124908682Y-99359600D01*
X124901185Y-99468258D01*
X124900688Y-99475465D01*
X124916241Y-99533511D01*
X124917089Y-99536673D01*
X124915426Y-99606523D01*
X124876264Y-99664386D01*
X124829407Y-99688542D01*
X124818916Y-99691353D01*
X124749066Y-99689690D01*
X124691204Y-99650527D01*
X124663700Y-99586299D01*
X124663653Y-99577915D01*
X124663535Y-99577925D01*
X124662651Y-99566477D01*
X124662652Y-99566473D01*
X124633574Y-99457954D01*
X124567259Y-99367268D01*
X124546957Y-99352180D01*
X124296044Y-99207317D01*
X124296028Y-99207309D01*
X124272826Y-99197277D01*
X124272828Y-99197277D01*
X124216979Y-99191233D01*
X124161132Y-99185189D01*
X124161131Y-99185189D01*
X124161130Y-99185189D01*
X124052613Y-99214266D01*
X123961930Y-99280579D01*
X123961923Y-99280586D01*
X123946841Y-99300880D01*
X123684479Y-99755307D01*
X123684468Y-99755328D01*
X123674436Y-99778529D01*
X123662348Y-99890225D01*
X123691425Y-99998743D01*
X123754180Y-100084561D01*
X123757741Y-100089430D01*
X123778043Y-100104518D01*
X124028956Y-100249381D01*
X124028963Y-100249384D01*
X124028971Y-100249388D01*
X124039993Y-100254153D01*
X124052172Y-100259420D01*
X124052171Y-100259420D01*
X124052174Y-100259421D01*
X124163868Y-100271509D01*
X124268046Y-100243594D01*
X124337893Y-100245257D01*
X124395756Y-100284419D01*
X124419911Y-100331272D01*
X124445748Y-100427694D01*
X124510605Y-100524040D01*
X124564258Y-100566396D01*
X124564262Y-100566398D01*
X124564263Y-100566399D01*
X124676465Y-100631179D01*
X124920242Y-100771924D01*
X124983750Y-100797210D01*
X125014240Y-100799313D01*
X125033003Y-100806257D01*
X125052904Y-100808353D01*
X125065100Y-100818136D01*
X125079764Y-100823564D01*
X125091796Y-100839553D01*
X125107404Y-100852074D01*
X125112374Y-100866897D01*
X125121777Y-100879392D01*
X125123254Y-100899347D01*
X125129616Y-100918319D01*
X125125782Y-100933479D01*
X125126937Y-100949071D01*
X125117392Y-100966655D01*
X125112487Y-100986056D01*
X125095097Y-101007733D01*
X125093608Y-101010478D01*
X125090402Y-101013587D01*
X125086345Y-101017381D01*
X125084515Y-101019057D01*
X125059797Y-101041261D01*
X125059036Y-101042188D01*
X125057454Y-101044072D01*
X125056664Y-101044993D01*
X125039049Y-101073262D01*
X125037729Y-101075335D01*
X124725305Y-101555225D01*
X124672232Y-101600667D01*
X124608045Y-101610850D01*
X124541029Y-101603598D01*
X124541028Y-101603598D01*
X124432510Y-101632675D01*
X124341827Y-101698988D01*
X124341822Y-101698993D01*
X124326736Y-101719292D01*
X124181873Y-101970205D01*
X124181865Y-101970221D01*
X124171833Y-101993422D01*
X124159745Y-102105118D01*
X124188822Y-102213636D01*
X124237051Y-102279589D01*
X124255138Y-102304323D01*
X124275440Y-102319411D01*
X124729869Y-102581774D01*
X124729878Y-102581778D01*
X124729884Y-102581781D01*
X124739501Y-102585939D01*
X124753085Y-102591813D01*
X124753084Y-102591813D01*
X124753087Y-102591814D01*
X124864781Y-102603902D01*
X124925377Y-102587665D01*
X124955026Y-102588370D01*
X124984616Y-102586448D01*
X124991983Y-102589250D01*
X124995225Y-102589328D01*
X125017603Y-102598996D01*
X125093363Y-102641007D01*
X125142446Y-102690733D01*
X125156963Y-102741337D01*
X125162153Y-102820493D01*
X125162651Y-102828087D01*
X125197929Y-102899625D01*
X125242760Y-102938941D01*
X125408337Y-103034537D01*
X125811896Y-103267532D01*
X125926484Y-103333689D01*
X125982948Y-103352856D01*
X126062541Y-103347639D01*
X126134080Y-103312361D01*
X126173396Y-103267529D01*
X126396021Y-102881930D01*
X126446587Y-102833716D01*
X126515194Y-102820493D01*
X126565407Y-102836545D01*
X126570387Y-102839420D01*
X126570388Y-102839421D01*
X126803704Y-102974126D01*
X127139524Y-103168012D01*
X127254112Y-103234169D01*
X127310576Y-103253336D01*
X127390169Y-103248119D01*
X127461708Y-103212841D01*
X127501024Y-103168009D01*
X127795772Y-102657491D01*
X127814939Y-102601026D01*
X127809721Y-102521433D01*
X127774443Y-102449895D01*
X127734594Y-102414948D01*
X127697173Y-102355948D01*
X127697589Y-102286080D01*
X127735713Y-102227528D01*
X127743148Y-102221640D01*
X127771823Y-102200672D01*
X127786911Y-102180370D01*
X128049274Y-101725941D01*
X128059314Y-101702723D01*
X128067538Y-101626729D01*
X128094321Y-101562198D01*
X128117619Y-101539983D01*
X128179323Y-101494862D01*
X128194411Y-101474560D01*
X128456774Y-101020131D01*
X128457288Y-101018941D01*
X128457498Y-101018688D01*
X128458387Y-101016922D01*
X128458796Y-101017127D01*
X128501961Y-100965220D01*
X128568587Y-100944179D01*
X128636013Y-100962498D01*
X128658786Y-100980472D01*
X129113181Y-101434867D01*
X129146666Y-101496190D01*
X129149500Y-101522548D01*
X129149500Y-101527727D01*
X129176793Y-101629587D01*
X129229520Y-101720913D01*
X129304087Y-101795480D01*
X129377838Y-101838060D01*
X129390196Y-101845195D01*
X129438412Y-101895762D01*
X129451634Y-101964370D01*
X129447971Y-101984674D01*
X129424500Y-102072271D01*
X129424500Y-102072273D01*
X129424500Y-102177727D01*
X129451793Y-102279587D01*
X129504520Y-102370913D01*
X129579087Y-102445480D01*
X129670413Y-102498207D01*
X129734356Y-102515340D01*
X129794014Y-102551703D01*
X129824544Y-102614550D01*
X129824915Y-102653336D01*
X129823412Y-102663452D01*
X129819434Y-102690230D01*
X129819280Y-102691264D01*
X129795321Y-107799304D01*
X129775322Y-107866250D01*
X129740405Y-107901695D01*
X127993796Y-109073473D01*
X127927158Y-109094476D01*
X127924713Y-109094500D01*
X125562101Y-109094500D01*
X125543592Y-109095336D01*
X125521305Y-109097354D01*
X125447475Y-109118445D01*
X125447469Y-109118447D01*
X125385079Y-109149842D01*
X125385069Y-109149847D01*
X125385058Y-109149853D01*
X125363332Y-109162507D01*
X125300473Y-109228938D01*
X125300469Y-109228944D01*
X125264951Y-109289095D01*
X125264950Y-109289098D01*
X125242684Y-109343172D01*
X125242676Y-109343195D01*
X124804572Y-111074862D01*
X124804565Y-111074892D01*
X124799863Y-111099901D01*
X124796076Y-111130302D01*
X124794500Y-111155696D01*
X124794500Y-113610250D01*
X124774815Y-113677289D01*
X124744900Y-113709450D01*
X124393814Y-113972765D01*
X124364567Y-113994700D01*
X124299125Y-114019176D01*
X124290167Y-114019500D01*
X122273678Y-114019500D01*
X122273678Y-114018352D01*
X122210251Y-114003358D01*
X122161741Y-113953074D01*
X122148117Y-113884545D01*
X122149065Y-113879261D01*
X122149010Y-113879255D01*
X122150085Y-113869987D01*
X122153000Y-113844865D01*
X122152999Y-113555136D01*
X122152997Y-113555117D01*
X122150086Y-113530012D01*
X122150085Y-113530010D01*
X122150085Y-113530009D01*
X122104706Y-113427235D01*
X122081402Y-113403931D01*
X122047917Y-113342608D01*
X122052901Y-113272916D01*
X122081402Y-113228569D01*
X122094322Y-113215649D01*
X122112206Y-113197765D01*
X122157585Y-113094991D01*
X122160500Y-113069865D01*
X122160499Y-112780136D01*
X122160497Y-112780117D01*
X122157586Y-112755012D01*
X122157585Y-112755010D01*
X122157585Y-112755009D01*
X122112206Y-112652235D01*
X122032765Y-112572794D01*
X122023475Y-112568692D01*
X121929992Y-112527415D01*
X121904868Y-112524500D01*
X121904865Y-112524500D01*
X121695228Y-112524500D01*
X121695227Y-112524500D01*
X121589773Y-112524500D01*
X121589770Y-112524500D01*
X121380142Y-112524500D01*
X121380118Y-112524502D01*
X121355011Y-112527414D01*
X121355008Y-112527415D01*
X121252235Y-112572793D01*
X121172794Y-112652234D01*
X121127415Y-112755006D01*
X121127415Y-112755008D01*
X121124500Y-112780131D01*
X121124500Y-113069856D01*
X121124502Y-113069882D01*
X121127413Y-113094987D01*
X121127415Y-113094991D01*
X121172793Y-113197764D01*
X121196098Y-113221069D01*
X121229583Y-113282392D01*
X121224599Y-113352084D01*
X121196098Y-113396431D01*
X121165294Y-113427234D01*
X121119915Y-113530006D01*
X121119915Y-113530008D01*
X121117000Y-113555131D01*
X121117000Y-113844856D01*
X121117002Y-113844882D01*
X121119913Y-113869987D01*
X121119915Y-113869991D01*
X121165293Y-113972764D01*
X121192348Y-113999819D01*
X121225833Y-114061142D01*
X121220849Y-114130834D01*
X121192348Y-114175181D01*
X121165294Y-114202234D01*
X121119915Y-114305006D01*
X121119915Y-114305008D01*
X121117000Y-114330131D01*
X121117000Y-114619856D01*
X121117002Y-114619882D01*
X121119913Y-114644987D01*
X121119915Y-114644991D01*
X121165293Y-114747764D01*
X121165294Y-114747765D01*
X121244735Y-114827206D01*
X121347509Y-114872585D01*
X121372635Y-114875500D01*
X121897364Y-114875499D01*
X121897379Y-114875497D01*
X121897382Y-114875497D01*
X121922487Y-114872586D01*
X121922487Y-114872585D01*
X121922491Y-114872585D01*
X121992415Y-114841710D01*
X122061690Y-114832639D01*
X122070567Y-114834364D01*
X122081923Y-114837003D01*
X122162509Y-114872585D01*
X122187635Y-114875500D01*
X122242232Y-114875499D01*
X122277000Y-114880500D01*
X124290166Y-114880500D01*
X124357205Y-114900185D01*
X124364566Y-114905300D01*
X124744900Y-115190549D01*
X124786721Y-115246520D01*
X124794500Y-115289749D01*
X124794500Y-116243377D01*
X124796590Y-116272604D01*
X124796591Y-116272614D01*
X124801611Y-116307542D01*
X124832131Y-116389388D01*
X124861678Y-116435374D01*
X124869898Y-116448166D01*
X124908199Y-116492376D01*
X125122646Y-116678230D01*
X125205477Y-116750016D01*
X125216881Y-116759208D01*
X125231055Y-116769820D01*
X125296318Y-116802490D01*
X125363349Y-116822173D01*
X125363351Y-116822173D01*
X125363357Y-116822175D01*
X125421255Y-116830500D01*
X125421259Y-116830500D01*
X128603272Y-116830500D01*
X128603275Y-116830500D01*
X128645096Y-116826200D01*
X128694510Y-116815929D01*
X128702871Y-116814008D01*
X128755312Y-116787297D01*
X128823981Y-116774411D01*
X128859288Y-116787086D01*
X128860487Y-116784194D01*
X128871770Y-116788868D01*
X128930247Y-116800499D01*
X128930250Y-116800500D01*
X128930252Y-116800500D01*
X129469750Y-116800500D01*
X129469751Y-116800499D01*
X129484568Y-116797552D01*
X129528229Y-116788868D01*
X129528231Y-116788867D01*
X129531108Y-116786945D01*
X129538335Y-116784681D01*
X129539513Y-116784194D01*
X129539556Y-116784299D01*
X129597785Y-116766066D01*
X129665165Y-116784550D01*
X129668892Y-116786945D01*
X129671768Y-116788867D01*
X129671770Y-116788868D01*
X129730247Y-116800499D01*
X129730250Y-116800500D01*
X129730252Y-116800500D01*
X130269750Y-116800500D01*
X130269751Y-116800499D01*
X130284568Y-116797552D01*
X130328229Y-116788868D01*
X130328231Y-116788867D01*
X130331108Y-116786945D01*
X130338335Y-116784681D01*
X130339513Y-116784194D01*
X130339556Y-116784299D01*
X130397785Y-116766066D01*
X130465165Y-116784550D01*
X130468892Y-116786945D01*
X130471768Y-116788867D01*
X130471770Y-116788868D01*
X130530247Y-116800499D01*
X130530250Y-116800500D01*
X130530252Y-116800500D01*
X131069750Y-116800500D01*
X131069751Y-116800499D01*
X131084568Y-116797552D01*
X131128229Y-116788868D01*
X131128229Y-116788867D01*
X131128231Y-116788867D01*
X131194552Y-116744552D01*
X131238867Y-116678231D01*
X131238867Y-116678229D01*
X131238868Y-116678229D01*
X131250499Y-116619752D01*
X131250500Y-116619750D01*
X131250500Y-115480249D01*
X131250499Y-115480247D01*
X131238868Y-115421770D01*
X131238867Y-115421769D01*
X131194552Y-115355447D01*
X131128230Y-115311132D01*
X131128229Y-115311131D01*
X131069752Y-115299500D01*
X131069748Y-115299500D01*
X130530252Y-115299500D01*
X130530247Y-115299500D01*
X130471770Y-115311131D01*
X130471768Y-115311132D01*
X130468887Y-115313058D01*
X130461655Y-115315322D01*
X130460487Y-115315806D01*
X130460443Y-115315701D01*
X130402209Y-115333933D01*
X130334829Y-115315446D01*
X130331113Y-115313058D01*
X130328231Y-115311132D01*
X130328229Y-115311131D01*
X130269752Y-115299500D01*
X130269748Y-115299500D01*
X129730252Y-115299500D01*
X129730247Y-115299500D01*
X129671770Y-115311131D01*
X129671768Y-115311132D01*
X129668887Y-115313058D01*
X129661655Y-115315322D01*
X129660487Y-115315806D01*
X129660443Y-115315701D01*
X129602209Y-115333933D01*
X129534829Y-115315446D01*
X129531113Y-115313058D01*
X129528231Y-115311132D01*
X129528229Y-115311131D01*
X129469752Y-115299500D01*
X129469748Y-115299500D01*
X129081400Y-115299500D01*
X129014361Y-115279815D01*
X128968606Y-115227011D01*
X128957421Y-115173204D01*
X128967667Y-114619882D01*
X128991320Y-113342609D01*
X128989836Y-113313866D01*
X128985632Y-113279479D01*
X128984358Y-113272916D01*
X128982272Y-113262167D01*
X128980000Y-113238539D01*
X128980000Y-113215649D01*
X128984161Y-113184047D01*
X128984153Y-113184046D01*
X128984172Y-113183964D01*
X128984227Y-113183548D01*
X128984585Y-113182212D01*
X128985804Y-113176228D01*
X128989572Y-113157734D01*
X128993776Y-113127938D01*
X128994831Y-113114673D01*
X129019766Y-113049405D01*
X129076030Y-113007978D01*
X129118441Y-113000500D01*
X129469750Y-113000500D01*
X129469751Y-113000499D01*
X129484568Y-112997552D01*
X129528229Y-112988868D01*
X129528231Y-112988867D01*
X129531108Y-112986945D01*
X129538335Y-112984681D01*
X129539513Y-112984194D01*
X129539556Y-112984299D01*
X129597785Y-112966066D01*
X129665165Y-112984550D01*
X129668892Y-112986945D01*
X129671768Y-112988867D01*
X129671770Y-112988868D01*
X129730247Y-113000499D01*
X129730250Y-113000500D01*
X129730252Y-113000500D01*
X130269750Y-113000500D01*
X130269751Y-113000499D01*
X130284568Y-112997552D01*
X130328229Y-112988868D01*
X130328231Y-112988867D01*
X130331108Y-112986945D01*
X130338335Y-112984681D01*
X130339513Y-112984194D01*
X130339556Y-112984299D01*
X130397785Y-112966066D01*
X130465165Y-112984550D01*
X130468892Y-112986945D01*
X130471768Y-112988867D01*
X130471770Y-112988868D01*
X130530247Y-113000499D01*
X130530250Y-113000500D01*
X130530252Y-113000500D01*
X131069750Y-113000500D01*
X131069751Y-113000499D01*
X131084568Y-112997552D01*
X131128229Y-112988868D01*
X131128229Y-112988867D01*
X131128231Y-112988867D01*
X131194552Y-112944552D01*
X131238867Y-112878231D01*
X131238867Y-112878229D01*
X131238868Y-112878229D01*
X131250499Y-112819752D01*
X131250500Y-112819750D01*
X131250500Y-112731307D01*
X132574499Y-112731307D01*
X132606222Y-112890783D01*
X132606225Y-112890793D01*
X132668450Y-113041019D01*
X132668452Y-113041023D01*
X132758788Y-113176220D01*
X132758794Y-113176228D01*
X132873771Y-113291205D01*
X132873779Y-113291211D01*
X133008976Y-113381547D01*
X133008980Y-113381549D01*
X133119277Y-113427235D01*
X133159211Y-113443776D01*
X133159215Y-113443776D01*
X133159216Y-113443777D01*
X133318692Y-113475500D01*
X133318695Y-113475500D01*
X133481307Y-113475500D01*
X133588598Y-113454157D01*
X133640789Y-113443776D01*
X133791021Y-113381548D01*
X133791023Y-113381547D01*
X133892310Y-113313869D01*
X133926225Y-113291208D01*
X134041208Y-113176225D01*
X134131548Y-113041021D01*
X134193776Y-112890789D01*
X134204157Y-112838598D01*
X134225500Y-112731307D01*
X134225500Y-112568692D01*
X134193777Y-112409216D01*
X134193776Y-112409215D01*
X134193776Y-112409211D01*
X134193774Y-112409206D01*
X134131549Y-112258980D01*
X134131547Y-112258976D01*
X134041211Y-112123779D01*
X134041205Y-112123771D01*
X133926228Y-112008794D01*
X133926220Y-112008788D01*
X133791023Y-111918452D01*
X133791019Y-111918450D01*
X133640793Y-111856225D01*
X133640783Y-111856222D01*
X133481307Y-111824500D01*
X133481305Y-111824500D01*
X133318695Y-111824500D01*
X133318693Y-111824500D01*
X133159216Y-111856222D01*
X133159206Y-111856225D01*
X133008980Y-111918450D01*
X133008976Y-111918452D01*
X132873779Y-112008788D01*
X132873771Y-112008794D01*
X132758794Y-112123771D01*
X132758788Y-112123779D01*
X132668452Y-112258976D01*
X132668450Y-112258980D01*
X132606225Y-112409206D01*
X132606222Y-112409216D01*
X132574500Y-112568692D01*
X132574500Y-112568695D01*
X132574500Y-112731305D01*
X132574500Y-112731307D01*
X132574499Y-112731307D01*
X131250500Y-112731307D01*
X131250500Y-111680249D01*
X131250499Y-111680247D01*
X131238868Y-111621770D01*
X131238867Y-111621769D01*
X131194552Y-111555447D01*
X131128230Y-111511132D01*
X131128229Y-111511131D01*
X131069752Y-111499500D01*
X131069748Y-111499500D01*
X130530252Y-111499500D01*
X130530247Y-111499500D01*
X130471770Y-111511131D01*
X130471768Y-111511132D01*
X130468887Y-111513058D01*
X130461655Y-111515322D01*
X130460487Y-111515806D01*
X130460443Y-111515701D01*
X130402209Y-111533933D01*
X130334829Y-111515446D01*
X130331113Y-111513058D01*
X130328231Y-111511132D01*
X130328229Y-111511131D01*
X130269752Y-111499500D01*
X130269748Y-111499500D01*
X129730252Y-111499500D01*
X129730247Y-111499500D01*
X129671770Y-111511131D01*
X129671768Y-111511132D01*
X129668887Y-111513058D01*
X129661655Y-111515322D01*
X129660487Y-111515806D01*
X129660443Y-111515701D01*
X129602209Y-111533933D01*
X129534829Y-111515446D01*
X129531113Y-111513058D01*
X129528231Y-111511132D01*
X129528229Y-111511131D01*
X129469752Y-111499500D01*
X129469748Y-111499500D01*
X129164807Y-111499500D01*
X129097768Y-111479815D01*
X129052013Y-111427011D01*
X129042069Y-111357853D01*
X129071094Y-111294297D01*
X129087513Y-111278538D01*
X130487753Y-110162319D01*
X130945685Y-109797273D01*
X131674500Y-109797273D01*
X131674500Y-109902727D01*
X131701793Y-110004587D01*
X131741080Y-110072635D01*
X131754521Y-110095914D01*
X131820926Y-110162319D01*
X131854411Y-110223642D01*
X131849427Y-110293334D01*
X131820926Y-110337681D01*
X131754521Y-110404085D01*
X131701794Y-110495410D01*
X131701793Y-110495413D01*
X131674500Y-110597273D01*
X131674500Y-110702727D01*
X131701793Y-110804587D01*
X131754520Y-110895913D01*
X131829087Y-110970480D01*
X131920413Y-111023207D01*
X132022273Y-111050500D01*
X132022275Y-111050500D01*
X132127725Y-111050500D01*
X132127727Y-111050500D01*
X132229587Y-111023207D01*
X132320913Y-110970480D01*
X132337319Y-110954074D01*
X132398642Y-110920589D01*
X132468334Y-110925573D01*
X132512681Y-110954074D01*
X132529087Y-110970480D01*
X132620413Y-111023207D01*
X132722273Y-111050500D01*
X132722275Y-111050500D01*
X132827725Y-111050500D01*
X132827727Y-111050500D01*
X132929587Y-111023207D01*
X133020913Y-110970480D01*
X133037319Y-110954074D01*
X133098642Y-110920589D01*
X133168334Y-110925573D01*
X133212681Y-110954074D01*
X133229087Y-110970480D01*
X133320413Y-111023207D01*
X133422273Y-111050500D01*
X133422275Y-111050500D01*
X133527725Y-111050500D01*
X133527727Y-111050500D01*
X133629587Y-111023207D01*
X133720913Y-110970480D01*
X133795480Y-110895913D01*
X133848207Y-110804587D01*
X133875500Y-110702727D01*
X133875500Y-110597273D01*
X133848207Y-110495413D01*
X133795480Y-110404087D01*
X133729074Y-110337681D01*
X133728860Y-110337289D01*
X133728470Y-110337073D01*
X133712137Y-110306664D01*
X133695589Y-110276358D01*
X133695620Y-110275912D01*
X133695410Y-110275520D01*
X133698109Y-110241109D01*
X133700573Y-110206666D01*
X133700851Y-110206159D01*
X133700875Y-110205865D01*
X133701802Y-110204431D01*
X133718004Y-110175006D01*
X133723108Y-110168284D01*
X133795480Y-110095913D01*
X133808922Y-110072631D01*
X135899500Y-110072631D01*
X135899500Y-110597356D01*
X135899502Y-110597382D01*
X135902413Y-110622486D01*
X135902414Y-110622490D01*
X135902415Y-110622491D01*
X135933289Y-110692414D01*
X135942360Y-110761691D01*
X135933289Y-110792584D01*
X135902415Y-110862506D01*
X135902415Y-110862508D01*
X135899500Y-110887631D01*
X135899500Y-111412357D01*
X135899502Y-111412381D01*
X135902414Y-111437488D01*
X135902415Y-111437491D01*
X135947793Y-111540264D01*
X135947794Y-111540265D01*
X136027235Y-111619706D01*
X136130009Y-111665085D01*
X136155135Y-111668000D01*
X136444864Y-111667999D01*
X136444879Y-111667997D01*
X136444882Y-111667997D01*
X136469987Y-111665086D01*
X136469988Y-111665085D01*
X136469991Y-111665085D01*
X136572765Y-111619706D01*
X136652206Y-111540265D01*
X136697585Y-111437491D01*
X136700500Y-111412365D01*
X136700500Y-111155711D01*
X136700500Y-111097273D01*
X136700500Y-111087284D01*
X136700499Y-111087270D01*
X136700499Y-110887643D01*
X136700499Y-110887636D01*
X136700497Y-110887617D01*
X136697586Y-110862512D01*
X136697585Y-110862511D01*
X136697585Y-110862509D01*
X136666710Y-110792585D01*
X136662371Y-110759447D01*
X136657194Y-110726402D01*
X136657773Y-110724333D01*
X136657639Y-110723308D01*
X136666708Y-110692419D01*
X136678926Y-110664749D01*
X136724009Y-110611375D01*
X136786019Y-110590999D01*
X136814535Y-110589540D01*
X136882489Y-110605773D01*
X136908551Y-110625697D01*
X136915363Y-110632509D01*
X136915364Y-110632511D01*
X136997489Y-110714636D01*
X137101830Y-110765645D01*
X137169472Y-110775500D01*
X137169478Y-110775500D01*
X137580522Y-110775500D01*
X137580528Y-110775500D01*
X137648170Y-110765645D01*
X137752511Y-110714636D01*
X137834636Y-110632511D01*
X137885645Y-110528170D01*
X137895500Y-110460528D01*
X137895500Y-110099472D01*
X137885645Y-110031830D01*
X137834636Y-109927489D01*
X137834634Y-109927487D01*
X137834634Y-109927486D01*
X137752513Y-109845365D01*
X137648171Y-109794355D01*
X137638506Y-109792947D01*
X137580528Y-109784500D01*
X137169472Y-109784500D01*
X137118740Y-109791891D01*
X137101828Y-109794355D01*
X136997486Y-109845365D01*
X136915366Y-109927486D01*
X136915363Y-109927488D01*
X136899739Y-109959448D01*
X136890903Y-109969118D01*
X136886078Y-109981295D01*
X136867790Y-109994414D01*
X136852610Y-110011029D01*
X136838657Y-110015314D01*
X136829306Y-110022023D01*
X136794673Y-110028823D01*
X136776938Y-110029730D01*
X136708981Y-110013495D01*
X136660589Y-109963097D01*
X136657170Y-109955977D01*
X136652207Y-109944738D01*
X136652206Y-109944735D01*
X136572765Y-109865294D01*
X136527628Y-109845364D01*
X136469992Y-109819915D01*
X136444865Y-109817000D01*
X136155143Y-109817000D01*
X136155117Y-109817002D01*
X136130012Y-109819913D01*
X136130008Y-109819915D01*
X136027235Y-109865293D01*
X135947794Y-109944734D01*
X135902415Y-110047506D01*
X135902415Y-110047508D01*
X135899500Y-110072631D01*
X133808922Y-110072631D01*
X133848207Y-110004587D01*
X133875500Y-109902727D01*
X133875500Y-109797273D01*
X133848207Y-109695413D01*
X133795480Y-109604087D01*
X133720913Y-109529520D01*
X133629587Y-109476793D01*
X133527727Y-109449500D01*
X133422273Y-109449500D01*
X133320413Y-109476793D01*
X133320410Y-109476794D01*
X133229085Y-109529521D01*
X133212681Y-109545926D01*
X133151358Y-109579411D01*
X133081666Y-109574427D01*
X133037319Y-109545926D01*
X133020914Y-109529521D01*
X133020913Y-109529520D01*
X132929587Y-109476793D01*
X132827727Y-109449500D01*
X132722273Y-109449500D01*
X132620413Y-109476793D01*
X132620410Y-109476794D01*
X132529085Y-109529521D01*
X132512681Y-109545926D01*
X132451358Y-109579411D01*
X132381666Y-109574427D01*
X132337319Y-109545926D01*
X132320914Y-109529521D01*
X132320913Y-109529520D01*
X132229587Y-109476793D01*
X132127727Y-109449500D01*
X132022273Y-109449500D01*
X131920413Y-109476793D01*
X131920410Y-109476794D01*
X131829085Y-109529521D01*
X131754521Y-109604085D01*
X131701794Y-109695410D01*
X131701793Y-109695413D01*
X131674500Y-109797273D01*
X130945685Y-109797273D01*
X131781391Y-109131080D01*
X131805812Y-109108115D01*
X131832833Y-109078192D01*
X131832843Y-109078181D01*
X131877490Y-108998364D01*
X131897175Y-108931325D01*
X131905500Y-108873427D01*
X131905500Y-105495349D01*
X140138000Y-105495349D01*
X140138000Y-105600803D01*
X140165293Y-105702663D01*
X140218020Y-105793989D01*
X140292587Y-105868556D01*
X140383913Y-105921283D01*
X140485773Y-105948576D01*
X140485775Y-105948576D01*
X140591225Y-105948576D01*
X140591227Y-105948576D01*
X140693087Y-105921283D01*
X140784413Y-105868556D01*
X140858980Y-105793989D01*
X140911707Y-105702663D01*
X140939000Y-105600803D01*
X140939000Y-105495349D01*
X140911707Y-105393489D01*
X140858980Y-105302163D01*
X140784413Y-105227596D01*
X140693087Y-105174869D01*
X140591227Y-105147576D01*
X140485773Y-105147576D01*
X140383913Y-105174869D01*
X140383910Y-105174870D01*
X140292585Y-105227597D01*
X140218021Y-105302161D01*
X140165294Y-105393486D01*
X140165293Y-105393489D01*
X140138000Y-105495349D01*
X131905500Y-105495349D01*
X131905500Y-105311480D01*
X131925185Y-105244441D01*
X131941815Y-105223803D01*
X132348737Y-104816880D01*
X132410058Y-104783397D01*
X132436469Y-104780563D01*
X133594505Y-104781120D01*
X133602481Y-104781124D01*
X133602481Y-104781123D01*
X133602491Y-104781124D01*
X133651928Y-104775113D01*
X133709840Y-104760790D01*
X133725572Y-104756227D01*
X133803703Y-104708690D01*
X133853815Y-104660002D01*
X133889539Y-104613687D01*
X134486290Y-103557292D01*
X134507325Y-103503613D01*
X134523213Y-103436582D01*
X134528509Y-103379174D01*
X134487098Y-102530251D01*
X134476584Y-102474644D01*
X134476578Y-102474626D01*
X134475859Y-102471876D01*
X134475886Y-102470954D01*
X134475788Y-102470435D01*
X134475902Y-102470413D01*
X134477929Y-102402037D01*
X134517428Y-102344404D01*
X134581816Y-102317274D01*
X134639772Y-102324532D01*
X138282421Y-103705405D01*
X138293303Y-103710138D01*
X141972083Y-105524670D01*
X141974350Y-105525818D01*
X142404820Y-105749617D01*
X142455220Y-105798005D01*
X142471354Y-105851523D01*
X142475943Y-105921515D01*
X142511221Y-105993054D01*
X142511222Y-105993055D01*
X142556048Y-106032367D01*
X142556050Y-106032368D01*
X142556052Y-106032370D01*
X143079391Y-106334520D01*
X144060414Y-106900914D01*
X144062500Y-106902118D01*
X144091477Y-106911954D01*
X144118963Y-106921285D01*
X144118963Y-106921284D01*
X144118964Y-106921285D01*
X144198557Y-106916067D01*
X144270096Y-106880789D01*
X144309412Y-106835958D01*
X144629160Y-106282138D01*
X144646701Y-106230463D01*
X144656704Y-106208376D01*
X144883772Y-105814792D01*
X144897951Y-105795001D01*
X144900068Y-105792587D01*
X144934412Y-105753426D01*
X145254160Y-105199606D01*
X145272358Y-105145997D01*
X145282370Y-105123890D01*
X145284955Y-105119410D01*
X145507424Y-104733796D01*
X145521597Y-104714012D01*
X145559412Y-104670894D01*
X145879160Y-104117074D01*
X145898021Y-104061510D01*
X145908027Y-104039417D01*
X146131069Y-103652810D01*
X146145247Y-103633021D01*
X146184408Y-103588366D01*
X146184412Y-103588362D01*
X146504160Y-103034542D01*
X146523327Y-102978078D01*
X146518109Y-102898485D01*
X146482831Y-102826946D01*
X146452225Y-102800105D01*
X146438003Y-102787632D01*
X146437997Y-102787628D01*
X144931553Y-101917882D01*
X144931547Y-101917880D01*
X144875088Y-101898714D01*
X144795493Y-101903933D01*
X144772426Y-101915308D01*
X144703594Y-101927302D01*
X144647458Y-101906359D01*
X144643920Y-101903933D01*
X144119920Y-101544603D01*
X144093165Y-101511794D01*
X144970724Y-101511794D01*
X144973572Y-101555225D01*
X144975943Y-101591388D01*
X145011221Y-101662927D01*
X145011222Y-101662928D01*
X145056048Y-101702240D01*
X145056050Y-101702241D01*
X145056052Y-101702243D01*
X145625909Y-102031250D01*
X146525553Y-102550660D01*
X146562500Y-102571991D01*
X146570846Y-102574824D01*
X146618963Y-102591158D01*
X146618963Y-102591157D01*
X146618964Y-102591158D01*
X146698557Y-102585940D01*
X146770096Y-102550662D01*
X146809412Y-102505831D01*
X147129160Y-101952011D01*
X147148327Y-101895547D01*
X147143109Y-101815954D01*
X147107831Y-101744415D01*
X147098138Y-101735914D01*
X147063003Y-101705101D01*
X147062997Y-101705097D01*
X145556553Y-100835351D01*
X145556547Y-100835349D01*
X145500088Y-100816183D01*
X145420495Y-100821402D01*
X145348954Y-100856681D01*
X145309642Y-100901507D01*
X145309638Y-100901513D01*
X144989892Y-101455329D01*
X144989890Y-101455335D01*
X144970724Y-101511794D01*
X144093165Y-101511794D01*
X144075765Y-101490456D01*
X144070276Y-101474439D01*
X144041987Y-101368863D01*
X143975672Y-101278177D01*
X143955370Y-101263089D01*
X143500941Y-101000726D01*
X143500936Y-101000724D01*
X143500925Y-101000718D01*
X143477723Y-100990686D01*
X143477725Y-100990686D01*
X143424315Y-100984906D01*
X143401730Y-100982461D01*
X143337199Y-100955679D01*
X143314980Y-100932376D01*
X143280496Y-100885219D01*
X143269862Y-100870677D01*
X143251029Y-100856681D01*
X143249563Y-100855591D01*
X143243471Y-100852074D01*
X142795131Y-100593226D01*
X142795126Y-100593224D01*
X142795115Y-100593218D01*
X142771913Y-100583186D01*
X142771915Y-100583186D01*
X142716066Y-100577142D01*
X142660219Y-100571098D01*
X142660218Y-100571098D01*
X142660217Y-100571098D01*
X142551700Y-100600175D01*
X142461017Y-100666488D01*
X142461010Y-100666495D01*
X142445930Y-100686785D01*
X142384544Y-100793109D01*
X142333976Y-100841324D01*
X142292388Y-100854169D01*
X138612673Y-101309601D01*
X138554732Y-101302952D01*
X134601209Y-99852454D01*
X134601208Y-99852454D01*
X134584521Y-99846331D01*
X133623642Y-99493797D01*
X133567321Y-99473133D01*
X133511165Y-99431563D01*
X133486397Y-99366231D01*
X133500883Y-99297879D01*
X133515929Y-99277668D01*
X133515531Y-99277363D01*
X133520477Y-99270916D01*
X133520480Y-99270913D01*
X133573207Y-99179587D01*
X133577168Y-99164803D01*
X133613529Y-99105146D01*
X133676375Y-99074615D01*
X133745751Y-99082907D01*
X133758938Y-99089508D01*
X133949059Y-99199274D01*
X133949068Y-99199278D01*
X133949074Y-99199281D01*
X133956304Y-99202407D01*
X133972275Y-99209313D01*
X133972274Y-99209313D01*
X133972277Y-99209314D01*
X134048269Y-99217538D01*
X134112801Y-99244321D01*
X134135020Y-99267624D01*
X134155837Y-99296092D01*
X134180138Y-99329323D01*
X134200440Y-99344411D01*
X134288427Y-99395210D01*
X134374938Y-99445157D01*
X134374947Y-99445162D01*
X134381990Y-99449228D01*
X134381992Y-99449230D01*
X134473318Y-99501957D01*
X134473320Y-99501957D01*
X134654869Y-99606774D01*
X134654883Y-99606780D01*
X134654885Y-99606781D01*
X134673230Y-99614714D01*
X134673234Y-99614715D01*
X134678087Y-99616814D01*
X134789781Y-99628902D01*
X134898300Y-99599824D01*
X134988986Y-99533509D01*
X135004074Y-99513207D01*
X135148937Y-99262294D01*
X135158977Y-99239076D01*
X135171065Y-99127382D01*
X135171063Y-99127377D01*
X135170181Y-99115921D01*
X135172216Y-99115764D01*
X135173528Y-99060534D01*
X135212686Y-99002669D01*
X135259548Y-98978508D01*
X135273300Y-98974824D01*
X135363986Y-98908509D01*
X135379074Y-98888207D01*
X135523937Y-98637294D01*
X135533977Y-98614076D01*
X135546065Y-98502382D01*
X135516987Y-98393863D01*
X135450672Y-98303177D01*
X135430370Y-98288089D01*
X135248819Y-98183271D01*
X135248818Y-98183270D01*
X135157492Y-98130543D01*
X135157489Y-98130542D01*
X135152066Y-98127411D01*
X135152064Y-98127409D01*
X134975954Y-98025733D01*
X134975945Y-98025728D01*
X134975941Y-98025726D01*
X134975937Y-98025724D01*
X134975925Y-98025718D01*
X134952723Y-98015686D01*
X134952725Y-98015686D01*
X134899315Y-98009906D01*
X134876730Y-98007461D01*
X134871812Y-98005420D01*
X134866510Y-98005923D01*
X134839881Y-97992168D01*
X134812199Y-97980679D01*
X134807897Y-97975647D01*
X134804432Y-97973857D01*
X134789980Y-97957376D01*
X134757135Y-97912460D01*
X134744862Y-97895677D01*
X134744236Y-97895212D01*
X134724563Y-97880591D01*
X134611349Y-97815226D01*
X134563133Y-97764659D01*
X134549911Y-97696052D01*
X134575879Y-97631187D01*
X134632793Y-97590659D01*
X134649017Y-97586250D01*
X134752235Y-97565607D01*
X134776179Y-97567724D01*
X134800115Y-97565458D01*
X134810354Y-97570746D01*
X134821832Y-97571762D01*
X134838553Y-97579813D01*
X134870407Y-97598204D01*
X134870408Y-97598204D01*
X134870413Y-97598207D01*
X134972273Y-97625500D01*
X134972275Y-97625500D01*
X135077725Y-97625500D01*
X135077727Y-97625500D01*
X135179587Y-97598207D01*
X135270913Y-97545480D01*
X135345480Y-97470913D01*
X135398207Y-97379587D01*
X135425500Y-97277727D01*
X135425500Y-97172273D01*
X135398207Y-97070413D01*
X135365827Y-97014330D01*
X135349355Y-96946431D01*
X135372208Y-96880404D01*
X135427129Y-96837213D01*
X135496682Y-96830572D01*
X135505276Y-96832548D01*
X135572273Y-96850500D01*
X135572276Y-96850500D01*
X135677725Y-96850500D01*
X135677727Y-96850500D01*
X135779587Y-96823207D01*
X135870913Y-96770480D01*
X135945480Y-96695913D01*
X135998207Y-96604587D01*
X136025500Y-96502727D01*
X136025500Y-96397273D01*
X135998207Y-96295413D01*
X135945480Y-96204087D01*
X135870913Y-96129520D01*
X135870912Y-96129519D01*
X135864467Y-96124574D01*
X135866059Y-96122498D01*
X135826794Y-96081315D01*
X135813574Y-96012708D01*
X135839545Y-95947844D01*
X135896461Y-95907318D01*
X135937012Y-95900500D01*
X135977725Y-95900500D01*
X135977727Y-95900500D01*
X136079587Y-95873207D01*
X136170913Y-95820480D01*
X136245480Y-95745913D01*
X136298207Y-95654587D01*
X136325500Y-95552727D01*
X136325500Y-95447273D01*
X136298207Y-95345413D01*
X136245480Y-95254087D01*
X136170913Y-95179520D01*
X136079587Y-95126793D01*
X135977727Y-95099500D01*
X135872273Y-95099500D01*
X135770413Y-95126793D01*
X135770410Y-95126794D01*
X135679085Y-95179521D01*
X135604522Y-95254084D01*
X135604520Y-95254087D01*
X135582353Y-95292480D01*
X135531784Y-95340694D01*
X135516434Y-95347338D01*
X135227068Y-95450016D01*
X135193066Y-95451900D01*
X135159003Y-95454269D01*
X135157888Y-95453850D01*
X135157305Y-95453883D01*
X135125958Y-95441869D01*
X135041748Y-95395670D01*
X134969827Y-95356212D01*
X134929634Y-95315859D01*
X134928145Y-95317002D01*
X134920710Y-95307313D01*
X134861902Y-95255739D01*
X134859041Y-95254087D01*
X134308597Y-94936289D01*
X134260381Y-94885722D01*
X134247158Y-94817115D01*
X134263210Y-94766902D01*
X134582660Y-94213598D01*
X134607804Y-94139530D01*
X134605388Y-94102679D01*
X134620494Y-94034772D01*
X134857949Y-93603434D01*
X139083994Y-93603434D01*
X139083994Y-93708888D01*
X139111287Y-93810748D01*
X139164014Y-93902074D01*
X139238581Y-93976641D01*
X139329907Y-94029368D01*
X139431767Y-94056661D01*
X139431769Y-94056661D01*
X139537219Y-94056661D01*
X139537221Y-94056661D01*
X139639081Y-94029368D01*
X139730407Y-93976641D01*
X139804974Y-93902074D01*
X139857701Y-93810748D01*
X139884994Y-93708888D01*
X139884994Y-93603434D01*
X139857701Y-93501574D01*
X139804974Y-93410248D01*
X139730407Y-93335681D01*
X139655246Y-93292287D01*
X139639083Y-93282955D01*
X139639082Y-93282954D01*
X139639081Y-93282954D01*
X139537221Y-93255661D01*
X139431767Y-93255661D01*
X139329907Y-93282954D01*
X139329904Y-93282955D01*
X139238579Y-93335682D01*
X139164015Y-93410246D01*
X139111288Y-93501571D01*
X139111287Y-93501574D01*
X139083994Y-93603434D01*
X134857949Y-93603434D01*
X135154553Y-93064651D01*
X135156849Y-93062143D01*
X135172350Y-93032323D01*
X135188535Y-93002923D01*
X135188536Y-93002916D01*
X135188824Y-93002182D01*
X135189144Y-93001477D01*
X135189254Y-93001175D01*
X135189263Y-93001151D01*
X135190637Y-92997371D01*
X135190638Y-92997369D01*
X135190642Y-92997357D01*
X135190908Y-92996620D01*
X135190914Y-92996611D01*
X135197143Y-92968434D01*
X140183846Y-92968434D01*
X140183846Y-93073888D01*
X140207258Y-93161261D01*
X140211139Y-93175747D01*
X140211140Y-93175750D01*
X140211962Y-93177174D01*
X140263866Y-93267074D01*
X140338433Y-93341641D01*
X140429759Y-93394368D01*
X140531619Y-93421661D01*
X140531621Y-93421661D01*
X140637071Y-93421661D01*
X140637073Y-93421661D01*
X140738933Y-93394368D01*
X140830259Y-93341641D01*
X140904826Y-93267074D01*
X140957553Y-93175748D01*
X140984846Y-93073888D01*
X140984846Y-92968434D01*
X140957553Y-92866574D01*
X140904826Y-92775248D01*
X140830259Y-92700681D01*
X140738933Y-92647954D01*
X140637073Y-92620661D01*
X140531619Y-92620661D01*
X140429759Y-92647954D01*
X140429756Y-92647955D01*
X140338431Y-92700682D01*
X140263867Y-92775246D01*
X140211140Y-92866571D01*
X140211139Y-92866574D01*
X140183846Y-92968434D01*
X135197143Y-92968434D01*
X135197855Y-92965215D01*
X135198504Y-92962435D01*
X135202294Y-92947043D01*
X135237434Y-92886657D01*
X135299646Y-92854853D01*
X135369176Y-92861733D01*
X135389099Y-92871970D01*
X135406029Y-92882706D01*
X135417172Y-92886657D01*
X135471866Y-92906051D01*
X135471875Y-92906053D01*
X135471882Y-92906056D01*
X135496040Y-92912991D01*
X135587494Y-92912439D01*
X135655516Y-92896481D01*
X135709982Y-92875153D01*
X140312649Y-90263995D01*
X140380670Y-90248038D01*
X140427753Y-90260185D01*
X141045351Y-90558418D01*
X141723411Y-90885847D01*
X142967224Y-91486474D01*
X143294420Y-91644474D01*
X144240202Y-92101185D01*
X144292011Y-92148062D01*
X144310251Y-92215509D01*
X144289132Y-92282110D01*
X144248281Y-92320234D01*
X144100431Y-92405596D01*
X144100429Y-92405598D01*
X144080140Y-92420674D01*
X144080138Y-92420676D01*
X144013822Y-92511363D01*
X143984745Y-92619881D01*
X143996832Y-92731573D01*
X143996833Y-92731578D01*
X144006866Y-92754784D01*
X144006871Y-92754793D01*
X144151734Y-93005701D01*
X144151744Y-93005717D01*
X144166821Y-93026006D01*
X144166823Y-93026008D01*
X144166824Y-93026009D01*
X144232296Y-93073886D01*
X144257510Y-93092324D01*
X144281988Y-93098883D01*
X144341648Y-93135249D01*
X144372177Y-93198096D01*
X144369669Y-93250752D01*
X144360189Y-93286131D01*
X144372276Y-93397823D01*
X144372277Y-93397828D01*
X144382310Y-93421034D01*
X144382315Y-93421043D01*
X144527178Y-93671951D01*
X144527188Y-93671967D01*
X144542265Y-93692256D01*
X144542267Y-93692258D01*
X144542268Y-93692259D01*
X144632954Y-93758574D01*
X144741473Y-93787652D01*
X144853167Y-93775564D01*
X144876384Y-93765526D01*
X145057933Y-93660707D01*
X145104587Y-93648207D01*
X145195913Y-93595480D01*
X145230068Y-93561324D01*
X145330812Y-93503160D01*
X145351116Y-93488073D01*
X145417431Y-93397387D01*
X145446509Y-93288868D01*
X145434421Y-93177174D01*
X145434420Y-93177171D01*
X145424387Y-93153965D01*
X145424386Y-93153964D01*
X145424383Y-93153957D01*
X145304182Y-92945766D01*
X145287710Y-92877868D01*
X145310562Y-92811840D01*
X145365483Y-92768650D01*
X145435037Y-92762008D01*
X145473896Y-92776569D01*
X145699514Y-92907750D01*
X146360878Y-93292287D01*
X146360882Y-93292288D01*
X146360886Y-93292291D01*
X146404202Y-93311190D01*
X146458389Y-93327725D01*
X146471735Y-93331311D01*
X146563190Y-93331724D01*
X146631377Y-93316484D01*
X146686064Y-93295731D01*
X147812539Y-92672273D01*
X148674500Y-92672273D01*
X148674500Y-92777727D01*
X148701793Y-92879587D01*
X148754520Y-92970913D01*
X148829087Y-93045480D01*
X148920413Y-93098207D01*
X149022273Y-93125500D01*
X149022275Y-93125500D01*
X149127725Y-93125500D01*
X149127727Y-93125500D01*
X149229587Y-93098207D01*
X149320913Y-93045480D01*
X149395480Y-92970913D01*
X149448207Y-92879587D01*
X149475500Y-92777727D01*
X149475500Y-92672273D01*
X149468801Y-92647273D01*
X149799500Y-92647273D01*
X149799500Y-92752727D01*
X149826664Y-92854103D01*
X149826793Y-92854586D01*
X149826794Y-92854589D01*
X149828397Y-92857366D01*
X149879520Y-92945913D01*
X149954087Y-93020480D01*
X150045413Y-93073207D01*
X150147273Y-93100500D01*
X150147275Y-93100500D01*
X150252725Y-93100500D01*
X150252727Y-93100500D01*
X150354587Y-93073207D01*
X150445913Y-93020480D01*
X150520480Y-92945913D01*
X150573207Y-92854587D01*
X150600500Y-92752727D01*
X150600500Y-92672273D01*
X151049500Y-92672273D01*
X151049500Y-92777727D01*
X151076793Y-92879587D01*
X151129520Y-92970913D01*
X151204087Y-93045480D01*
X151295413Y-93098207D01*
X151397273Y-93125500D01*
X151397275Y-93125500D01*
X151502725Y-93125500D01*
X151502727Y-93125500D01*
X151604587Y-93098207D01*
X151695913Y-93045480D01*
X151770480Y-92970913D01*
X151823207Y-92879587D01*
X151850500Y-92777727D01*
X151850500Y-92672273D01*
X151823207Y-92570413D01*
X151770480Y-92479087D01*
X151695913Y-92404520D01*
X151609775Y-92354788D01*
X151604589Y-92351794D01*
X151604588Y-92351793D01*
X151604587Y-92351793D01*
X151502727Y-92324500D01*
X151397273Y-92324500D01*
X151295413Y-92351793D01*
X151295410Y-92351794D01*
X151204085Y-92404521D01*
X151129521Y-92479085D01*
X151076794Y-92570410D01*
X151076794Y-92570411D01*
X151076793Y-92570413D01*
X151049500Y-92672273D01*
X150600500Y-92672273D01*
X150600500Y-92647273D01*
X150573207Y-92545413D01*
X150520480Y-92454087D01*
X150445913Y-92379520D01*
X150379059Y-92340922D01*
X150354589Y-92326794D01*
X150354588Y-92326793D01*
X150354587Y-92326793D01*
X150252727Y-92299500D01*
X150147273Y-92299500D01*
X150045413Y-92326793D01*
X150045410Y-92326794D01*
X149954085Y-92379521D01*
X149879521Y-92454085D01*
X149826794Y-92545410D01*
X149826793Y-92545413D01*
X149799500Y-92647273D01*
X149468801Y-92647273D01*
X149448207Y-92570413D01*
X149395480Y-92479087D01*
X149320913Y-92404520D01*
X149234775Y-92354788D01*
X149229589Y-92351794D01*
X149229588Y-92351793D01*
X149229587Y-92351793D01*
X149127727Y-92324500D01*
X149022273Y-92324500D01*
X148920413Y-92351793D01*
X148920410Y-92351794D01*
X148829085Y-92404521D01*
X148754521Y-92479085D01*
X148701794Y-92570410D01*
X148701794Y-92570411D01*
X148701793Y-92570413D01*
X148674500Y-92672273D01*
X147812539Y-92672273D01*
X150563131Y-91149933D01*
X150569885Y-91146026D01*
X150577936Y-91141162D01*
X150628338Y-91098258D01*
X150673554Y-91044991D01*
X150704675Y-90995464D01*
X150862176Y-90641086D01*
X150874318Y-90605144D01*
X150884859Y-90560794D01*
X150885841Y-90556456D01*
X150884680Y-90465007D01*
X150868269Y-90397092D01*
X150846578Y-90342769D01*
X148775354Y-86747887D01*
X148775352Y-86747884D01*
X148775348Y-86747878D01*
X148749414Y-86712312D01*
X148713900Y-86673211D01*
X148706595Y-86665573D01*
X148649901Y-86630217D01*
X148628993Y-86617178D01*
X148628992Y-86617177D01*
X148628988Y-86617175D01*
X148622706Y-86614176D01*
X148623495Y-86612522D01*
X148574101Y-86577348D01*
X148554153Y-86540553D01*
X148549275Y-86526182D01*
X148549273Y-86526177D01*
X148414400Y-86292570D01*
X148279526Y-86058961D01*
X148277569Y-86056730D01*
X148266944Y-86044614D01*
X148240210Y-86014130D01*
X148240209Y-86014129D01*
X148237105Y-86012599D01*
X148231526Y-86007466D01*
X148230518Y-86006693D01*
X148230587Y-86006602D01*
X148185685Y-85965294D01*
X148168003Y-85897698D01*
X148168210Y-85893332D01*
X148168441Y-85889823D01*
X148149274Y-85833359D01*
X148141010Y-85819046D01*
X147967799Y-85519035D01*
X147879526Y-85366141D01*
X147840210Y-85321310D01*
X147840209Y-85321309D01*
X147837105Y-85319779D01*
X147831526Y-85314646D01*
X147830518Y-85313873D01*
X147830587Y-85313782D01*
X147785685Y-85272474D01*
X147768003Y-85204878D01*
X147768210Y-85200512D01*
X147768441Y-85197003D01*
X147749274Y-85140539D01*
X147479526Y-84673321D01*
X147440210Y-84628490D01*
X147368672Y-84593212D01*
X147289079Y-84587995D01*
X147232611Y-84607163D01*
X146245785Y-85176908D01*
X146245778Y-85176913D01*
X146200950Y-85216225D01*
X146180970Y-85256742D01*
X146165672Y-85287764D01*
X146161035Y-85358502D01*
X146137009Y-85424109D01*
X146099301Y-85457778D01*
X145495025Y-85806657D01*
X145427125Y-85823130D01*
X145400939Y-85819046D01*
X145395932Y-85817705D01*
X145290478Y-85817705D01*
X145188618Y-85844998D01*
X145188615Y-85844999D01*
X145097290Y-85897726D01*
X145022727Y-85972289D01*
X144969997Y-86063618D01*
X144969997Y-86063619D01*
X144968657Y-86068621D01*
X144932291Y-86128281D01*
X144910883Y-86143912D01*
X144258197Y-86520739D01*
X144190297Y-86537212D01*
X144141355Y-86524565D01*
X144077776Y-86493212D01*
X143998183Y-86487995D01*
X143941715Y-86507163D01*
X142954889Y-87076908D01*
X142954878Y-87076916D01*
X142947589Y-87083308D01*
X142884205Y-87112705D01*
X142838357Y-87110989D01*
X141806644Y-86876509D01*
X141772125Y-86862980D01*
X141765914Y-86859394D01*
X141765913Y-86859393D01*
X141674587Y-86806666D01*
X141572727Y-86779373D01*
X141467273Y-86779373D01*
X141365413Y-86806666D01*
X141365410Y-86806667D01*
X141274087Y-86859393D01*
X141199518Y-86933961D01*
X141184259Y-86960390D01*
X141162458Y-86988117D01*
X141150000Y-86999998D01*
X140809877Y-88405839D01*
X140774980Y-88466370D01*
X140712897Y-88498424D01*
X140668969Y-88498993D01*
X139651759Y-88329458D01*
X139641117Y-88327970D01*
X139628173Y-88326506D01*
X139628170Y-88326506D01*
X139576391Y-88329430D01*
X139559131Y-88330405D01*
X139559128Y-88330405D01*
X139491032Y-88346024D01*
X139491027Y-88346025D01*
X139436471Y-88367076D01*
X139436457Y-88367083D01*
X136921322Y-89777439D01*
X136853221Y-89793059D01*
X136825115Y-89788075D01*
X136497200Y-89689919D01*
X136438621Y-89651837D01*
X136428621Y-89638442D01*
X136285153Y-89416493D01*
X135637430Y-88414449D01*
X135611976Y-88382538D01*
X135577758Y-88347447D01*
X135572540Y-88342284D01*
X135572537Y-88342281D01*
X135494001Y-88295431D01*
X135427517Y-88273880D01*
X135427500Y-88273876D01*
X135403192Y-88267610D01*
X135403180Y-88267609D01*
X135402709Y-88267625D01*
X135402252Y-88267507D01*
X135394371Y-88266641D01*
X135394495Y-88265507D01*
X135335051Y-88250183D01*
X135299832Y-88218692D01*
X133648694Y-86044614D01*
X140494500Y-86044614D01*
X140494500Y-86150068D01*
X140521793Y-86251928D01*
X140574520Y-86343254D01*
X140649087Y-86417821D01*
X140740413Y-86470548D01*
X140842273Y-86497841D01*
X140842275Y-86497841D01*
X140947725Y-86497841D01*
X140947727Y-86497841D01*
X141049587Y-86470548D01*
X141140913Y-86417821D01*
X141215480Y-86343254D01*
X141268207Y-86251928D01*
X141295500Y-86150068D01*
X141295500Y-86044614D01*
X141268207Y-85942754D01*
X141215480Y-85851428D01*
X141140913Y-85776861D01*
X141049587Y-85724134D01*
X140947727Y-85696841D01*
X140842273Y-85696841D01*
X140740413Y-85724134D01*
X140740410Y-85724135D01*
X140649085Y-85776862D01*
X140574521Y-85851426D01*
X140521794Y-85942751D01*
X140521793Y-85942754D01*
X140494500Y-86044614D01*
X133648694Y-86044614D01*
X132712430Y-84811821D01*
X141894461Y-84811821D01*
X141926184Y-84971297D01*
X141926187Y-84971307D01*
X141988412Y-85121533D01*
X141988414Y-85121537D01*
X142078750Y-85256734D01*
X142078756Y-85256742D01*
X142193733Y-85371719D01*
X142193741Y-85371725D01*
X142328938Y-85462061D01*
X142328942Y-85462063D01*
X142466486Y-85519035D01*
X142479173Y-85524290D01*
X142479177Y-85524290D01*
X142479178Y-85524291D01*
X142638654Y-85556014D01*
X142638657Y-85556014D01*
X142801269Y-85556014D01*
X142908560Y-85534671D01*
X142960751Y-85524290D01*
X143110983Y-85462062D01*
X143110985Y-85462061D01*
X143183751Y-85413440D01*
X143246187Y-85371722D01*
X143361170Y-85256739D01*
X143414511Y-85176908D01*
X143451509Y-85121537D01*
X143451511Y-85121533D01*
X143513736Y-84971307D01*
X143513738Y-84971303D01*
X143524119Y-84919112D01*
X143545462Y-84811821D01*
X143545462Y-84649206D01*
X143518435Y-84513338D01*
X143515239Y-84497273D01*
X144099500Y-84497273D01*
X144099500Y-84602727D01*
X144126793Y-84704587D01*
X144179520Y-84795913D01*
X144254087Y-84870480D01*
X144345413Y-84923207D01*
X144447273Y-84950500D01*
X144447275Y-84950500D01*
X144552725Y-84950500D01*
X144552727Y-84950500D01*
X144654587Y-84923207D01*
X144745913Y-84870480D01*
X144820480Y-84795913D01*
X144873207Y-84704587D01*
X144900500Y-84602727D01*
X144900500Y-84497273D01*
X144873207Y-84395413D01*
X144820480Y-84304087D01*
X144745913Y-84229520D01*
X144654587Y-84176793D01*
X144552727Y-84149500D01*
X144447273Y-84149500D01*
X144345413Y-84176793D01*
X144345410Y-84176794D01*
X144254085Y-84229521D01*
X144179521Y-84304085D01*
X144126794Y-84395410D01*
X144126793Y-84395413D01*
X144099500Y-84497273D01*
X143515239Y-84497273D01*
X143513738Y-84489725D01*
X143497120Y-84449606D01*
X143451511Y-84339494D01*
X143451509Y-84339490D01*
X143361173Y-84204293D01*
X143361167Y-84204285D01*
X143246190Y-84089308D01*
X143246182Y-84089302D01*
X143110985Y-83998966D01*
X143110981Y-83998964D01*
X142960755Y-83936739D01*
X142960745Y-83936736D01*
X142801269Y-83905014D01*
X142801267Y-83905014D01*
X142638657Y-83905014D01*
X142638655Y-83905014D01*
X142479178Y-83936736D01*
X142479168Y-83936739D01*
X142328942Y-83998964D01*
X142328938Y-83998966D01*
X142193741Y-84089302D01*
X142193733Y-84089308D01*
X142078756Y-84204285D01*
X142078750Y-84204293D01*
X141988414Y-84339490D01*
X141988412Y-84339494D01*
X141926187Y-84489720D01*
X141926184Y-84489730D01*
X141894462Y-84649206D01*
X141894462Y-84649209D01*
X141894462Y-84811819D01*
X141894462Y-84811821D01*
X141894461Y-84811821D01*
X132712430Y-84811821D01*
X132642226Y-84719383D01*
X132640065Y-84715208D01*
X132638040Y-84713524D01*
X132630395Y-84697643D01*
X132627782Y-84694628D01*
X132623163Y-84682620D01*
X132622733Y-84681728D01*
X132336261Y-83774977D01*
X132330500Y-83737621D01*
X132330500Y-82047273D01*
X132599500Y-82047273D01*
X132599500Y-82152727D01*
X132626793Y-82254587D01*
X132679520Y-82345913D01*
X132754087Y-82420480D01*
X132845413Y-82473207D01*
X132947273Y-82500500D01*
X132947275Y-82500500D01*
X133052725Y-82500500D01*
X133052727Y-82500500D01*
X133154587Y-82473207D01*
X133245913Y-82420480D01*
X133320480Y-82345913D01*
X133373207Y-82254587D01*
X133400500Y-82152727D01*
X133400500Y-82047273D01*
X133373207Y-81945413D01*
X133320480Y-81854087D01*
X133245913Y-81779520D01*
X133154587Y-81726793D01*
X133052727Y-81699500D01*
X132947273Y-81699500D01*
X132845413Y-81726793D01*
X132845410Y-81726794D01*
X132754085Y-81779521D01*
X132679521Y-81854085D01*
X132626794Y-81945410D01*
X132626793Y-81945413D01*
X132599500Y-82047273D01*
X132330500Y-82047273D01*
X132330500Y-80824697D01*
X132331422Y-80809606D01*
X132332909Y-80797480D01*
X132331709Y-80788959D01*
X132330500Y-80771679D01*
X132330500Y-80763069D01*
X132327337Y-80751269D01*
X132324319Y-80736445D01*
X132269635Y-80347847D01*
X132258522Y-80268878D01*
X132268672Y-80199751D01*
X132278211Y-80182708D01*
X132313867Y-80129346D01*
X132313868Y-80129344D01*
X132325499Y-80070867D01*
X132325500Y-80070865D01*
X132325500Y-78331364D01*
X132325499Y-78331362D01*
X132313868Y-78272885D01*
X132313867Y-78272884D01*
X132269552Y-78206562D01*
X132203230Y-78162247D01*
X132203229Y-78162246D01*
X132144752Y-78150615D01*
X132144748Y-78150615D01*
X131577962Y-78150615D01*
X131576130Y-78150077D01*
X131524999Y-78150000D01*
X131525000Y-78150000D01*
X128025000Y-78144751D01*
X127999617Y-78144713D01*
X127997717Y-78145910D01*
X127963883Y-78150615D01*
X127755247Y-78150615D01*
X127696770Y-78162246D01*
X127696769Y-78162247D01*
X127630447Y-78206562D01*
X127586132Y-78272884D01*
X127586131Y-78272885D01*
X127574500Y-78331362D01*
X127574500Y-80070867D01*
X127586131Y-80129344D01*
X127586132Y-80129345D01*
X127630447Y-80195667D01*
X127706923Y-80246767D01*
X127705381Y-80249073D01*
X127745682Y-80281552D01*
X127767744Y-80347847D01*
X127767790Y-80355129D01*
X127756484Y-80845010D01*
X127735258Y-80911577D01*
X127720199Y-80929829D01*
X127672794Y-80977234D01*
X127627415Y-81080006D01*
X127627415Y-81080008D01*
X127624500Y-81105131D01*
X127624500Y-81629856D01*
X127624502Y-81629882D01*
X127627413Y-81654986D01*
X127627414Y-81654990D01*
X127627415Y-81654991D01*
X127658289Y-81724914D01*
X127667360Y-81794191D01*
X127658289Y-81825084D01*
X127627415Y-81895006D01*
X127627415Y-81895008D01*
X127624500Y-81920131D01*
X127624500Y-82444856D01*
X127624502Y-82444882D01*
X127627413Y-82469987D01*
X127627415Y-82469991D01*
X127672793Y-82572764D01*
X127681082Y-82581053D01*
X127714567Y-82642376D01*
X127717217Y-82675481D01*
X127695831Y-83067923D01*
X127692347Y-83087707D01*
X127693830Y-83104626D01*
X127693351Y-83113418D01*
X127693352Y-83113429D01*
X127692906Y-83121610D01*
X127695510Y-83133988D01*
X127695509Y-83133988D01*
X127697042Y-83141272D01*
X127698797Y-83161282D01*
X127704612Y-83177252D01*
X127708112Y-83193885D01*
X127713831Y-83205168D01*
X127719740Y-83218794D01*
X127724066Y-83230675D01*
X127724073Y-83230687D01*
X127728765Y-83237386D01*
X127728767Y-83237388D01*
X127733821Y-83244603D01*
X127741505Y-83259762D01*
X127754911Y-83274714D01*
X127759180Y-83280808D01*
X127759184Y-83280813D01*
X128403303Y-84200378D01*
X128425642Y-84266581D01*
X128408643Y-84334351D01*
X128404389Y-84341083D01*
X126549223Y-87078584D01*
X126495319Y-87123037D01*
X126441746Y-87132926D01*
X123559002Y-87020611D01*
X123559002Y-87020610D01*
X123551916Y-87020334D01*
X123531269Y-87017149D01*
X123515186Y-87018903D01*
X123506019Y-87018547D01*
X123506017Y-87018546D01*
X123499021Y-87018274D01*
X123499017Y-87018274D01*
X123485526Y-87021332D01*
X123485525Y-87021331D01*
X123478611Y-87022897D01*
X123457848Y-87025165D01*
X123442778Y-87031018D01*
X123433831Y-87033046D01*
X123433831Y-87033047D01*
X123426993Y-87034597D01*
X123426989Y-87034598D01*
X123426989Y-87034599D01*
X123415706Y-87040540D01*
X123414756Y-87041040D01*
X123401896Y-87046900D01*
X123389008Y-87051907D01*
X123388994Y-87051914D01*
X123383343Y-87056055D01*
X123367847Y-87065738D01*
X123361644Y-87069004D01*
X123361637Y-87069009D01*
X123351477Y-87078406D01*
X123340573Y-87087393D01*
X122660181Y-87585918D01*
X122247153Y-87888545D01*
X122232388Y-87899363D01*
X122166677Y-87923107D01*
X122159100Y-87923339D01*
X122074927Y-87923339D01*
X121973067Y-87950632D01*
X121973064Y-87950633D01*
X121881739Y-88003360D01*
X121807175Y-88077924D01*
X121754448Y-88169249D01*
X121754447Y-88169252D01*
X121727154Y-88271112D01*
X121727154Y-88376566D01*
X121754447Y-88478426D01*
X121807174Y-88569752D01*
X121881741Y-88644319D01*
X121973067Y-88697046D01*
X122074927Y-88724339D01*
X122074929Y-88724339D01*
X122180379Y-88724339D01*
X122180381Y-88724339D01*
X122282241Y-88697046D01*
X122373567Y-88644319D01*
X122448134Y-88569752D01*
X122500861Y-88478426D01*
X122504092Y-88466370D01*
X122516341Y-88420652D01*
X122552705Y-88360991D01*
X122562821Y-88352725D01*
X123576963Y-87609660D01*
X123642671Y-87585918D01*
X123655055Y-87585780D01*
X127301171Y-87727835D01*
X127338595Y-87735162D01*
X129108130Y-88376565D01*
X129319069Y-88453024D01*
X129375388Y-88494376D01*
X129400410Y-88559611D01*
X129386191Y-88628019D01*
X129350008Y-88669694D01*
X129312605Y-88697046D01*
X129286014Y-88716491D01*
X129286012Y-88716493D01*
X129270926Y-88736792D01*
X129126063Y-88987705D01*
X129126055Y-88987721D01*
X129116023Y-89010922D01*
X129103935Y-89122619D01*
X129103935Y-89122620D01*
X129121882Y-89189599D01*
X129120219Y-89259449D01*
X129081056Y-89317311D01*
X129034202Y-89341467D01*
X129001700Y-89350176D01*
X128911017Y-89416488D01*
X128911012Y-89416493D01*
X128895926Y-89436792D01*
X128751063Y-89687705D01*
X128751055Y-89687721D01*
X128741023Y-89710922D01*
X128728935Y-89822618D01*
X128758012Y-89931136D01*
X128758013Y-89931137D01*
X128824328Y-90021823D01*
X128844630Y-90036911D01*
X128975431Y-90112428D01*
X129023645Y-90162993D01*
X129036869Y-90231600D01*
X129010901Y-90296465D01*
X129001112Y-90307495D01*
X128929520Y-90379087D01*
X128876794Y-90470410D01*
X128876793Y-90470413D01*
X128849500Y-90572273D01*
X128849500Y-90677727D01*
X128876793Y-90779587D01*
X128914796Y-90845411D01*
X128918827Y-90852392D01*
X128923370Y-90871121D01*
X128932606Y-90888034D01*
X128931437Y-90904371D01*
X128935300Y-90920292D01*
X128928996Y-90938503D01*
X128927622Y-90957726D01*
X128917804Y-90970840D01*
X128912447Y-90986319D01*
X128897299Y-90998231D01*
X128885750Y-91013659D01*
X128870403Y-91019383D01*
X128857526Y-91029510D01*
X128838340Y-91031341D01*
X128820286Y-91038076D01*
X128804279Y-91034594D01*
X128787973Y-91036151D01*
X128770843Y-91027320D01*
X128752013Y-91023224D01*
X128727936Y-91005200D01*
X128725870Y-91004135D01*
X128723759Y-91002073D01*
X128556526Y-90834840D01*
X128556524Y-90834837D01*
X128497232Y-90775545D01*
X128497231Y-90775544D01*
X128433269Y-90738616D01*
X128433266Y-90738615D01*
X128392604Y-90727719D01*
X128337019Y-90695626D01*
X128320914Y-90679521D01*
X128320913Y-90679520D01*
X128229587Y-90626793D01*
X128127727Y-90599500D01*
X128022273Y-90599500D01*
X127920413Y-90626793D01*
X127920410Y-90626794D01*
X127829085Y-90679521D01*
X127754521Y-90754085D01*
X127701794Y-90845410D01*
X127701793Y-90845411D01*
X127692036Y-90881824D01*
X127685996Y-90904371D01*
X127684931Y-90908345D01*
X127648566Y-90968005D01*
X127585719Y-90998534D01*
X127533064Y-90996026D01*
X127452727Y-90974500D01*
X127347273Y-90974500D01*
X127245413Y-91001793D01*
X127245410Y-91001794D01*
X127154085Y-91054521D01*
X127079521Y-91129085D01*
X127026794Y-91220410D01*
X127026793Y-91220413D01*
X126999500Y-91322273D01*
X126999500Y-91427727D01*
X127019582Y-91502673D01*
X127026793Y-91529586D01*
X127026794Y-91529589D01*
X127067176Y-91599533D01*
X127083649Y-91667434D01*
X127060796Y-91733460D01*
X127017582Y-91771242D01*
X124816074Y-92930965D01*
X124747587Y-92944794D01*
X124682495Y-92919401D01*
X124641464Y-92862848D01*
X124636276Y-92843411D01*
X124634689Y-92834667D01*
X124628693Y-92810253D01*
X124582742Y-92731179D01*
X124535074Y-92680095D01*
X124524068Y-92671246D01*
X124489496Y-92643450D01*
X124489490Y-92643446D01*
X124489489Y-92643445D01*
X120414674Y-90231912D01*
X119725748Y-89824196D01*
X119678080Y-89773112D01*
X119665598Y-89704366D01*
X119666762Y-89696090D01*
X119805292Y-88906112D01*
X122827006Y-88906112D01*
X122827006Y-89011565D01*
X122854299Y-89113425D01*
X122854300Y-89113428D01*
X122859607Y-89122620D01*
X122907026Y-89204752D01*
X122981593Y-89279319D01*
X123072919Y-89332046D01*
X123174779Y-89359339D01*
X123174781Y-89359339D01*
X123280231Y-89359339D01*
X123280233Y-89359339D01*
X123382093Y-89332046D01*
X123473419Y-89279319D01*
X123547986Y-89204752D01*
X123600713Y-89113426D01*
X123628006Y-89011566D01*
X123628006Y-88906112D01*
X123600713Y-88804252D01*
X123547986Y-88712926D01*
X123473419Y-88638359D01*
X123382093Y-88585632D01*
X123280233Y-88558339D01*
X123174779Y-88558339D01*
X123072919Y-88585632D01*
X123072916Y-88585633D01*
X122981591Y-88638360D01*
X122907027Y-88712924D01*
X122854300Y-88804249D01*
X122854299Y-88804252D01*
X122827006Y-88906112D01*
X119805292Y-88906112D01*
X120587239Y-84447013D01*
X120588633Y-84437857D01*
X120590067Y-84426761D01*
X120587573Y-84359139D01*
X120573537Y-84290694D01*
X120566991Y-84266426D01*
X120519261Y-84188412D01*
X120470451Y-84138422D01*
X120470450Y-84138421D01*
X120470449Y-84138420D01*
X120470449Y-84138419D01*
X120424051Y-84102815D01*
X120424049Y-84102814D01*
X120424048Y-84102813D01*
X117544438Y-82485498D01*
X115066959Y-81094037D01*
X115052405Y-81086609D01*
X115034492Y-81078348D01*
X114962173Y-81059918D01*
X114956792Y-81059557D01*
X114892470Y-81055244D01*
X114892454Y-81055245D01*
X114834140Y-81059677D01*
X114484745Y-81137319D01*
X114484743Y-81137320D01*
X114457912Y-81145234D01*
X114457900Y-81145238D01*
X114426311Y-81156947D01*
X114353684Y-81203077D01*
X114353682Y-81203079D01*
X114303854Y-81252057D01*
X114303849Y-81252063D01*
X114268401Y-81298576D01*
X114268396Y-81298584D01*
X112566034Y-84353507D01*
X112549326Y-84392473D01*
X112535207Y-84437829D01*
X112534208Y-84441037D01*
X112532481Y-84447040D01*
X112531741Y-84449610D01*
X112528633Y-84541005D01*
X112528634Y-84541011D01*
X112536957Y-84584195D01*
X112530315Y-84653748D01*
X112522585Y-84669662D01*
X112250726Y-85140537D01*
X112250725Y-85140540D01*
X112231559Y-85197001D01*
X112231559Y-85197002D01*
X112231559Y-85197003D01*
X112231785Y-85200459D01*
X112230129Y-85207856D01*
X112229965Y-85209110D01*
X112229852Y-85209095D01*
X112216527Y-85268640D01*
X112166829Y-85317750D01*
X112162897Y-85319777D01*
X112159793Y-85321307D01*
X112159790Y-85321310D01*
X112120477Y-85366136D01*
X112120472Y-85366143D01*
X111850726Y-85833357D01*
X111850725Y-85833360D01*
X111831559Y-85889821D01*
X111831559Y-85889822D01*
X111831559Y-85889823D01*
X111831785Y-85893279D01*
X111830129Y-85900676D01*
X111829965Y-85901930D01*
X111829852Y-85901915D01*
X111816527Y-85961460D01*
X111766829Y-86010570D01*
X111762897Y-86012597D01*
X111759793Y-86014127D01*
X111759790Y-86014130D01*
X111720477Y-86058956D01*
X111720472Y-86058963D01*
X111450726Y-86526177D01*
X111450725Y-86526180D01*
X111431559Y-86582640D01*
X110668792Y-86582640D01*
X115432810Y-78331362D01*
X126324500Y-78331362D01*
X126324500Y-80070867D01*
X126336131Y-80129344D01*
X126336132Y-80129345D01*
X126380447Y-80195667D01*
X126446769Y-80239982D01*
X126446770Y-80239983D01*
X126505247Y-80251614D01*
X126505250Y-80251615D01*
X126505252Y-80251615D01*
X127144750Y-80251615D01*
X127144751Y-80251614D01*
X127169121Y-80246767D01*
X127203229Y-80239983D01*
X127203229Y-80239982D01*
X127203231Y-80239982D01*
X127269552Y-80195667D01*
X127313867Y-80129346D01*
X127313867Y-80129344D01*
X127313868Y-80129344D01*
X127325499Y-80070867D01*
X127325500Y-80070865D01*
X127325500Y-78331364D01*
X127325499Y-78331362D01*
X127313868Y-78272885D01*
X127313867Y-78272884D01*
X127269552Y-78206562D01*
X127203230Y-78162247D01*
X127203229Y-78162246D01*
X127144752Y-78150615D01*
X127144748Y-78150615D01*
X126505252Y-78150615D01*
X126505247Y-78150615D01*
X126446770Y-78162246D01*
X126446769Y-78162247D01*
X126380447Y-78206562D01*
X126336132Y-78272884D01*
X126336131Y-78272885D01*
X126324500Y-78331362D01*
X115432810Y-78331362D01*
X117652275Y-74487248D01*
X117666821Y-74468294D01*
X117669972Y-74463577D01*
X117669976Y-74463574D01*
X117670283Y-74462831D01*
X117671119Y-74460816D01*
X117675214Y-74455733D01*
X117676762Y-74453418D01*
X117676969Y-74453556D01*
X117714960Y-74406413D01*
X117781254Y-74384348D01*
X117785680Y-74384269D01*
X142214321Y-74384269D01*
X142223338Y-74386916D01*
G37*
%TD.AperFunction*%
%TD*%
%TA.AperFunction,Conductor*%
%TO.N,+3.3V*%
G36*
X125381846Y-96363440D02*
G01*
X125971396Y-96713485D01*
X126018990Y-96764637D01*
X126031374Y-96833400D01*
X126016485Y-96880327D01*
X125950000Y-97000000D01*
X126000000Y-97175000D01*
X126115685Y-97239269D01*
X126164727Y-97289033D01*
X126179080Y-97357413D01*
X126163347Y-97408798D01*
X125858969Y-97945935D01*
X125808791Y-97994556D01*
X125740293Y-98008330D01*
X125693878Y-97994816D01*
X125224101Y-97750532D01*
X125173704Y-97702139D01*
X125161217Y-97671402D01*
X124962791Y-96899742D01*
X124965160Y-96829915D01*
X124976129Y-96805781D01*
X124994318Y-96775000D01*
X125211785Y-96406978D01*
X125262836Y-96359278D01*
X125331573Y-96346749D01*
X125381846Y-96363440D01*
G37*
%TD.AperFunction*%
%TD*%
%TA.AperFunction,Conductor*%
%TO.N,VBAT+*%
G36*
X148561778Y-86811375D02*
G01*
X148597294Y-86850478D01*
X150668518Y-90445360D01*
X150684929Y-90513275D01*
X150674388Y-90557625D01*
X150516887Y-90912003D01*
X150471671Y-90965270D01*
X150463620Y-90970134D01*
X146586553Y-93115932D01*
X146518366Y-93131172D01*
X146464179Y-93114637D01*
X144762113Y-92125006D01*
X144762108Y-92125004D01*
X144762102Y-92125000D01*
X143383781Y-91459420D01*
X147315781Y-91459420D01*
X147315781Y-91564874D01*
X147343074Y-91666734D01*
X147395801Y-91758060D01*
X147470368Y-91832627D01*
X147561694Y-91885354D01*
X147663554Y-91912647D01*
X147663556Y-91912647D01*
X147769006Y-91912647D01*
X147769008Y-91912647D01*
X147870868Y-91885354D01*
X147962194Y-91832627D01*
X148036761Y-91758060D01*
X148089488Y-91666734D01*
X148116781Y-91564874D01*
X148116781Y-91459420D01*
X148089488Y-91357560D01*
X148036761Y-91266234D01*
X147962194Y-91191667D01*
X147870868Y-91138940D01*
X147769008Y-91111647D01*
X147663554Y-91111647D01*
X147561694Y-91138940D01*
X147561691Y-91138941D01*
X147470366Y-91191668D01*
X147395802Y-91266232D01*
X147343075Y-91357557D01*
X147343074Y-91357560D01*
X147315781Y-91459420D01*
X143383781Y-91459420D01*
X141812772Y-90700793D01*
X145294461Y-90700793D01*
X145326184Y-90860269D01*
X145326187Y-90860279D01*
X145388412Y-91010505D01*
X145388414Y-91010509D01*
X145478750Y-91145706D01*
X145478756Y-91145714D01*
X145593733Y-91260691D01*
X145593741Y-91260697D01*
X145728938Y-91351033D01*
X145728942Y-91351035D01*
X145858068Y-91404520D01*
X145879173Y-91413262D01*
X145879177Y-91413262D01*
X145879178Y-91413263D01*
X146038654Y-91444986D01*
X146038657Y-91444986D01*
X146201269Y-91444986D01*
X146308560Y-91423643D01*
X146360751Y-91413262D01*
X146510983Y-91351034D01*
X146646187Y-91260694D01*
X146761170Y-91145711D01*
X146851510Y-91010507D01*
X146913738Y-90860275D01*
X146945462Y-90700791D01*
X146945462Y-90538181D01*
X146945462Y-90538178D01*
X146913739Y-90378702D01*
X146913738Y-90378701D01*
X146913738Y-90378697D01*
X146894793Y-90332960D01*
X146851511Y-90228466D01*
X146851509Y-90228462D01*
X146761173Y-90093265D01*
X146761167Y-90093257D01*
X146646190Y-89978280D01*
X146646182Y-89978274D01*
X146510985Y-89887938D01*
X146510981Y-89887936D01*
X146360755Y-89825711D01*
X146360745Y-89825708D01*
X146201269Y-89793986D01*
X146201267Y-89793986D01*
X146038657Y-89793986D01*
X146038655Y-89793986D01*
X145879178Y-89825708D01*
X145879168Y-89825711D01*
X145728942Y-89887936D01*
X145728938Y-89887938D01*
X145593741Y-89978274D01*
X145593733Y-89978280D01*
X145478756Y-90093257D01*
X145478750Y-90093265D01*
X145388414Y-90228462D01*
X145388412Y-90228466D01*
X145326187Y-90378692D01*
X145326184Y-90378702D01*
X145294462Y-90538178D01*
X145294462Y-90538181D01*
X145294462Y-90700791D01*
X145294462Y-90700793D01*
X145294461Y-90700793D01*
X141812772Y-90700793D01*
X140361529Y-90000000D01*
X140361528Y-90000000D01*
X135608580Y-92696413D01*
X135540558Y-92712371D01*
X135474705Y-92689021D01*
X135439132Y-92649020D01*
X135027900Y-91912647D01*
X134756188Y-91426106D01*
X134746217Y-91403015D01*
X134397335Y-90298728D01*
X134396828Y-90297081D01*
X134102642Y-89317084D01*
X134102221Y-89247219D01*
X134139640Y-89188214D01*
X134157296Y-89175295D01*
X135296604Y-88487180D01*
X135364164Y-88469371D01*
X135430629Y-88490916D01*
X135464847Y-88526007D01*
X136321952Y-89851970D01*
X136900000Y-90025000D01*
X139536973Y-88546323D01*
X139605072Y-88530704D01*
X139617997Y-88532166D01*
X144075000Y-89275000D01*
X144075002Y-89274998D01*
X144096125Y-89271208D01*
X144096167Y-89271442D01*
X144138436Y-89261330D01*
X144140070Y-89261424D01*
X144148921Y-89262005D01*
X144205386Y-89242838D01*
X145192218Y-88673090D01*
X145237050Y-88633774D01*
X145237269Y-88633329D01*
X145238000Y-88632534D01*
X145244483Y-88624086D01*
X145245238Y-88624665D01*
X145284567Y-88581908D01*
X145286704Y-88580652D01*
X147384260Y-87378682D01*
X147429727Y-87363332D01*
X147439811Y-87362004D01*
X147439817Y-87362005D01*
X147496282Y-87342838D01*
X148427854Y-86804994D01*
X148495751Y-86788522D01*
X148561778Y-86811375D01*
G37*
%TD.AperFunction*%
%TD*%
%TA.AperFunction,Conductor*%
%TO.N,VBAT+*%
G36*
X130937057Y-101739401D02*
G01*
X130962045Y-101750394D01*
X132300000Y-102525000D01*
X132700000Y-102675000D01*
X134136662Y-102424154D01*
X134206087Y-102432014D01*
X134260242Y-102476161D01*
X134281842Y-102540264D01*
X134323253Y-103389187D01*
X134307365Y-103456218D01*
X133710614Y-104512613D01*
X133660502Y-104561301D01*
X133602590Y-104575624D01*
X132300000Y-104574999D01*
X131700000Y-105174999D01*
X131700000Y-108873427D01*
X131680315Y-108940466D01*
X131653294Y-108970389D01*
X128825000Y-111224999D01*
X128824999Y-111225001D01*
X128819936Y-111498414D01*
X128799059Y-111565009D01*
X128761132Y-111621769D01*
X128761131Y-111621770D01*
X128749500Y-111680247D01*
X128749500Y-112819752D01*
X128761131Y-112878226D01*
X128761132Y-112878229D01*
X128771891Y-112894331D01*
X128777875Y-112913445D01*
X128788392Y-112930495D01*
X128791829Y-112958011D01*
X128792768Y-112961009D01*
X128792767Y-112965517D01*
X128790291Y-113099228D01*
X128786087Y-113129024D01*
X128774500Y-113172267D01*
X128774500Y-113277730D01*
X128781651Y-113304417D01*
X128785855Y-113338804D01*
X128761338Y-114662759D01*
X128731421Y-116278302D01*
X128727254Y-116503296D01*
X128706331Y-116569959D01*
X128652689Y-116614729D01*
X128603275Y-116625000D01*
X125421255Y-116625000D01*
X125354216Y-116605315D01*
X125340052Y-116594711D01*
X125042787Y-116337082D01*
X125005020Y-116278302D01*
X125000000Y-116243378D01*
X125000000Y-115124999D01*
X124657142Y-114867856D01*
X124400000Y-114675000D01*
X124399999Y-114675000D01*
X122277000Y-114675000D01*
X122268314Y-114672449D01*
X122259354Y-114673738D01*
X122235315Y-114662759D01*
X122209961Y-114655315D01*
X122204033Y-114648473D01*
X122195798Y-114644713D01*
X122181510Y-114622480D01*
X122164206Y-114602511D01*
X122161918Y-114591996D01*
X122158023Y-114585935D01*
X122153000Y-114551001D01*
X122152999Y-114349001D01*
X122172683Y-114281961D01*
X122225487Y-114236206D01*
X122276999Y-114225000D01*
X124399999Y-114225000D01*
X124400000Y-114225000D01*
X125000000Y-113775000D01*
X125000000Y-112731307D01*
X125774499Y-112731307D01*
X125806222Y-112890783D01*
X125806225Y-112890793D01*
X125868450Y-113041019D01*
X125868452Y-113041023D01*
X125958788Y-113176220D01*
X125958794Y-113176228D01*
X126073771Y-113291205D01*
X126073779Y-113291211D01*
X126208976Y-113381547D01*
X126208980Y-113381549D01*
X126319277Y-113427235D01*
X126359211Y-113443776D01*
X126359215Y-113443776D01*
X126359216Y-113443777D01*
X126518692Y-113475500D01*
X126518695Y-113475500D01*
X126681307Y-113475500D01*
X126788598Y-113454157D01*
X126840789Y-113443776D01*
X126991021Y-113381548D01*
X126991023Y-113381547D01*
X127092497Y-113313744D01*
X127126225Y-113291208D01*
X127241208Y-113176225D01*
X127312276Y-113069864D01*
X127331547Y-113041023D01*
X127331549Y-113041019D01*
X127357202Y-112979087D01*
X127393776Y-112890789D01*
X127404157Y-112838598D01*
X127425500Y-112731307D01*
X127425500Y-112568692D01*
X127393777Y-112409216D01*
X127393776Y-112409215D01*
X127393776Y-112409211D01*
X127393774Y-112409206D01*
X127331549Y-112258980D01*
X127331547Y-112258976D01*
X127241211Y-112123779D01*
X127241205Y-112123771D01*
X127126228Y-112008794D01*
X127126220Y-112008788D01*
X126991023Y-111918452D01*
X126991019Y-111918450D01*
X126840793Y-111856225D01*
X126840783Y-111856222D01*
X126681307Y-111824500D01*
X126681305Y-111824500D01*
X126518695Y-111824500D01*
X126518693Y-111824500D01*
X126359216Y-111856222D01*
X126359206Y-111856225D01*
X126208980Y-111918450D01*
X126208976Y-111918452D01*
X126073779Y-112008788D01*
X126073771Y-112008794D01*
X125958794Y-112123771D01*
X125958788Y-112123779D01*
X125868452Y-112258976D01*
X125868450Y-112258980D01*
X125806225Y-112409206D01*
X125806222Y-112409216D01*
X125774500Y-112568692D01*
X125774500Y-112568695D01*
X125774500Y-112731305D01*
X125774500Y-112731307D01*
X125774499Y-112731307D01*
X125000000Y-112731307D01*
X125000000Y-111155711D01*
X125003788Y-111125298D01*
X125441903Y-109393587D01*
X125477428Y-109333423D01*
X125539842Y-109302017D01*
X125562115Y-109300000D01*
X128025001Y-109300000D01*
X129012500Y-108637500D01*
X130000000Y-107975000D01*
X130024778Y-102692226D01*
X130044777Y-102625282D01*
X130056578Y-102609891D01*
X130807733Y-101774784D01*
X130867199Y-101738107D01*
X130937057Y-101739401D01*
G37*
%TD.AperFunction*%
%TD*%
%TA.AperFunction,Conductor*%
%TO.N,VBAT+*%
G36*
X114948429Y-81264958D02*
G01*
X114966337Y-81273217D01*
X115189605Y-81398614D01*
X120323416Y-84281987D01*
X120372226Y-84331977D01*
X120386262Y-84400422D01*
X120384828Y-84411518D01*
X119898755Y-87183382D01*
X119425000Y-89885000D01*
X124384827Y-92820295D01*
X124432495Y-92871379D01*
X124444977Y-92940125D01*
X124423267Y-92998104D01*
X122439569Y-95832732D01*
X122385004Y-95876372D01*
X122315507Y-95883584D01*
X122276960Y-95869586D01*
X120761618Y-95013088D01*
X120712942Y-94962964D01*
X120699092Y-94894481D01*
X120716782Y-94840551D01*
X121550000Y-93475000D01*
X121250000Y-92875000D01*
X121249998Y-92874999D01*
X121249998Y-92874998D01*
X117359992Y-90634552D01*
X117311723Y-90584036D01*
X117297934Y-90530800D01*
X117278656Y-89885000D01*
X117200000Y-87250000D01*
X117199999Y-87249999D01*
X117171536Y-87233734D01*
X117123097Y-87183382D01*
X117121864Y-87180951D01*
X117089946Y-87116226D01*
X117045114Y-87076910D01*
X116095223Y-86528490D01*
X116058284Y-86507163D01*
X116058283Y-86507162D01*
X116058282Y-86507162D01*
X116001817Y-86487995D01*
X116001816Y-86487995D01*
X115980458Y-86489394D01*
X115922224Y-86493212D01*
X115922223Y-86493212D01*
X115917650Y-86493512D01*
X115849466Y-86478253D01*
X115848019Y-86477439D01*
X113891542Y-85359452D01*
X113843101Y-85309100D01*
X113836560Y-85292291D01*
X113834328Y-85287764D01*
X113799050Y-85216226D01*
X113754218Y-85176910D01*
X113121866Y-84811821D01*
X116454537Y-84811821D01*
X116486260Y-84971297D01*
X116486263Y-84971307D01*
X116548488Y-85121533D01*
X116548490Y-85121537D01*
X116638826Y-85256734D01*
X116638832Y-85256742D01*
X116753809Y-85371719D01*
X116753817Y-85371725D01*
X116889014Y-85462061D01*
X116889018Y-85462063D01*
X117039244Y-85524288D01*
X117039249Y-85524290D01*
X117039253Y-85524290D01*
X117039254Y-85524291D01*
X117198730Y-85556014D01*
X117198733Y-85556014D01*
X117361345Y-85556014D01*
X117468636Y-85534671D01*
X117520827Y-85524290D01*
X117671059Y-85462062D01*
X117671061Y-85462061D01*
X117738207Y-85417194D01*
X117806263Y-85371722D01*
X117921246Y-85256739D01*
X118011586Y-85121535D01*
X118073814Y-84971303D01*
X118105538Y-84811819D01*
X118105538Y-84649209D01*
X118105538Y-84649206D01*
X118073815Y-84489730D01*
X118073814Y-84489729D01*
X118073814Y-84489725D01*
X118058830Y-84453551D01*
X118011587Y-84339494D01*
X118011585Y-84339490D01*
X117921249Y-84204293D01*
X117921243Y-84204285D01*
X117806266Y-84089308D01*
X117806258Y-84089302D01*
X117671061Y-83998966D01*
X117671057Y-83998964D01*
X117520831Y-83936739D01*
X117520821Y-83936736D01*
X117361345Y-83905014D01*
X117361343Y-83905014D01*
X117198733Y-83905014D01*
X117198731Y-83905014D01*
X117039254Y-83936736D01*
X117039244Y-83936739D01*
X116889018Y-83998964D01*
X116889014Y-83998966D01*
X116753817Y-84089302D01*
X116753809Y-84089308D01*
X116638832Y-84204285D01*
X116638826Y-84204293D01*
X116548490Y-84339490D01*
X116548488Y-84339494D01*
X116486263Y-84489720D01*
X116486260Y-84489730D01*
X116454538Y-84649206D01*
X116454538Y-84649209D01*
X116454538Y-84811819D01*
X116454538Y-84811821D01*
X116454537Y-84811821D01*
X113121866Y-84811821D01*
X112791857Y-84621290D01*
X112743643Y-84570725D01*
X112730420Y-84502118D01*
X112745539Y-84453551D01*
X114447910Y-81398612D01*
X114497737Y-81349635D01*
X114529324Y-81337927D01*
X114878717Y-81260285D01*
X114948429Y-81264958D01*
G37*
%TD.AperFunction*%
%TD*%
M02*
