%TF.GenerationSoftware,KiCad,Pcbnew,9.0.6-rc1*%
%TF.CreationDate,2025-10-31T17:35:14+01:00*%
%TF.ProjectId,PCB_BRUSHED,5043425f-4252-4555-9348-45442e6b6963,rev?*%
%TF.SameCoordinates,Original*%
%TF.FileFunction,Copper,L6,Bot*%
%TF.FilePolarity,Positive*%
%FSLAX46Y46*%
G04 Gerber Fmt 4.6, Leading zero omitted, Abs format (unit mm)*
G04 Created by KiCad (PCBNEW 9.0.6-rc1) date 2025-10-31 17:35:14*
%MOMM*%
%LPD*%
G01*
G04 APERTURE LIST*
G04 Aperture macros list*
%AMRoundRect*
0 Rectangle with rounded corners*
0 $1 Rounding radius*
0 $2 $3 $4 $5 $6 $7 $8 $9 X,Y pos of 4 corners*
0 Add a 4 corners polygon primitive as box body*
4,1,4,$2,$3,$4,$5,$6,$7,$8,$9,$2,$3,0*
0 Add four circle primitives for the rounded corners*
1,1,$1+$1,$2,$3*
1,1,$1+$1,$4,$5*
1,1,$1+$1,$6,$7*
1,1,$1+$1,$8,$9*
0 Add four rect primitives between the rounded corners*
20,1,$1+$1,$2,$3,$4,$5,0*
20,1,$1+$1,$4,$5,$6,$7,0*
20,1,$1+$1,$6,$7,$8,$9,0*
20,1,$1+$1,$8,$9,$2,$3,0*%
%AMRotRect*
0 Rectangle, with rotation*
0 The origin of the aperture is its center*
0 $1 length*
0 $2 width*
0 $3 Rotation angle, in degrees counterclockwise*
0 Add horizontal line*
21,1,$1,$2,0,0,$3*%
G04 Aperture macros list end*
%TA.AperFunction,ComponentPad*%
%ADD10C,0.800000*%
%TD*%
%TA.AperFunction,ComponentPad*%
%ADD11C,5.000000*%
%TD*%
%TA.AperFunction,SMDPad,CuDef*%
%ADD12RoundRect,0.225000X-0.225000X-0.250000X0.225000X-0.250000X0.225000X0.250000X-0.225000X0.250000X0*%
%TD*%
%TA.AperFunction,SMDPad,CuDef*%
%ADD13RoundRect,0.100000X0.022147X0.238361X-0.195353X-0.138361X-0.022147X-0.238361X0.195353X0.138361X0*%
%TD*%
%TA.AperFunction,SMDPad,CuDef*%
%ADD14RoundRect,0.100000X-0.238361X0.022147X0.138361X-0.195353X0.238361X-0.022147X-0.138361X0.195353X0*%
%TD*%
%TA.AperFunction,SMDPad,CuDef*%
%ADD15RoundRect,0.100000X0.195353X-0.138361X-0.022147X0.238361X-0.195353X0.138361X0.022147X-0.238361X0*%
%TD*%
%TA.AperFunction,SMDPad,CuDef*%
%ADD16RoundRect,0.100000X-0.022147X-0.238361X0.195353X0.138361X0.022147X0.238361X-0.195353X-0.138361X0*%
%TD*%
%TA.AperFunction,SMDPad,CuDef*%
%ADD17RoundRect,0.155000X0.240484X-0.106530X0.027984X0.261530X-0.240484X0.106530X-0.027984X-0.261530X0*%
%TD*%
%TA.AperFunction,SMDPad,CuDef*%
%ADD18RoundRect,0.155000X-0.261530X-0.027984X0.106530X-0.240484X0.261530X0.027984X-0.106530X0.240484X0*%
%TD*%
%TA.AperFunction,SMDPad,CuDef*%
%ADD19RotRect,1.000000X3.500000X60.000000*%
%TD*%
%TA.AperFunction,SMDPad,CuDef*%
%ADD20RotRect,1.600000X3.500000X60.000000*%
%TD*%
%TA.AperFunction,SMDPad,CuDef*%
%ADD21RoundRect,0.155000X-0.027984X0.261530X-0.240484X-0.106530X0.027984X-0.261530X0.240484X0.106530X0*%
%TD*%
%TA.AperFunction,SMDPad,CuDef*%
%ADD22R,1.525000X0.650000*%
%TD*%
%TA.AperFunction,SMDPad,CuDef*%
%ADD23R,2.400000X3.100000*%
%TD*%
%TA.AperFunction,SMDPad,CuDef*%
%ADD24R,1.000000X3.500000*%
%TD*%
%TA.AperFunction,SMDPad,CuDef*%
%ADD25R,1.600000X3.500000*%
%TD*%
%TA.AperFunction,SMDPad,CuDef*%
%ADD26RoundRect,0.100000X0.217500X0.100000X-0.217500X0.100000X-0.217500X-0.100000X0.217500X-0.100000X0*%
%TD*%
%TA.AperFunction,SMDPad,CuDef*%
%ADD27RotRect,1.000000X3.500000X300.000000*%
%TD*%
%TA.AperFunction,SMDPad,CuDef*%
%ADD28RotRect,1.600000X3.500000X300.000000*%
%TD*%
%TA.AperFunction,SMDPad,CuDef*%
%ADD29R,0.410000X0.510000*%
%TD*%
%TA.AperFunction,SMDPad,CuDef*%
%ADD30R,2.000000X1.200000*%
%TD*%
%TA.AperFunction,SMDPad,CuDef*%
%ADD31RotRect,0.650000X1.525000X30.000000*%
%TD*%
%TA.AperFunction,SMDPad,CuDef*%
%ADD32RotRect,2.400000X3.100000X120.000000*%
%TD*%
%TA.AperFunction,SMDPad,CuDef*%
%ADD33RoundRect,0.100000X0.238361X-0.022147X-0.138361X0.195353X-0.238361X0.022147X0.138361X-0.195353X0*%
%TD*%
%TA.AperFunction,SMDPad,CuDef*%
%ADD34RotRect,0.600000X1.700000X300.000000*%
%TD*%
%TA.AperFunction,SMDPad,CuDef*%
%ADD35RotRect,1.000000X2.700000X300.000000*%
%TD*%
%TA.AperFunction,SMDPad,CuDef*%
%ADD36RoundRect,0.100000X-0.217500X-0.100000X0.217500X-0.100000X0.217500X0.100000X-0.217500X0.100000X0*%
%TD*%
%TA.AperFunction,SMDPad,CuDef*%
%ADD37RoundRect,0.100000X-0.100000X0.217500X-0.100000X-0.217500X0.100000X-0.217500X0.100000X0.217500X0*%
%TD*%
%TA.AperFunction,SMDPad,CuDef*%
%ADD38RoundRect,0.225000X0.225000X0.250000X-0.225000X0.250000X-0.225000X-0.250000X0.225000X-0.250000X0*%
%TD*%
%TA.AperFunction,SMDPad,CuDef*%
%ADD39RoundRect,0.100000X0.100000X-0.217500X0.100000X0.217500X-0.100000X0.217500X-0.100000X-0.217500X0*%
%TD*%
%TA.AperFunction,SMDPad,CuDef*%
%ADD40RoundRect,0.155000X-0.212500X-0.155000X0.212500X-0.155000X0.212500X0.155000X-0.212500X0.155000X0*%
%TD*%
%TA.AperFunction,SMDPad,CuDef*%
%ADD41RotRect,0.650000X1.525000X150.000000*%
%TD*%
%TA.AperFunction,SMDPad,CuDef*%
%ADD42RotRect,2.400000X3.100000X240.000000*%
%TD*%
%TA.AperFunction,ViaPad*%
%ADD43C,0.400000*%
%TD*%
%TA.AperFunction,Conductor*%
%ADD44C,0.300000*%
%TD*%
%TA.AperFunction,Conductor*%
%ADD45C,0.160000*%
%TD*%
G04 APERTURE END LIST*
D10*
%TO.P,TP1,1,1*%
%TO.N,GND*%
X138625000Y-77813467D03*
X139174175Y-76487642D03*
X139174175Y-79139292D03*
X140500000Y-75938467D03*
D11*
X140500000Y-77813467D03*
D10*
X140500000Y-79688467D03*
X141825825Y-76487642D03*
X141825825Y-79139292D03*
X142375000Y-77813467D03*
%TD*%
%TO.P,TP3,1,1*%
%TO.N,GND*%
X138625000Y-114186533D03*
X139174175Y-112860708D03*
X139174175Y-115512358D03*
X140500000Y-112311533D03*
D11*
X140500000Y-114186533D03*
D10*
X140500000Y-116061533D03*
X141825825Y-112860708D03*
X141825825Y-115512358D03*
X142375000Y-114186533D03*
%TD*%
%TO.P,TP2,1,1*%
%TO.N,GND*%
X107125000Y-96000000D03*
X107674175Y-94674175D03*
X107674175Y-97325825D03*
X109000000Y-94125000D03*
D11*
X109000000Y-96000000D03*
D10*
X109000000Y-97875000D03*
X110325825Y-94674175D03*
X110325825Y-97325825D03*
X110875000Y-96000000D03*
%TD*%
D12*
%TO.P,C5,1*%
%TO.N,+3.3V*%
X133500000Y-109850000D03*
%TO.P,C5,2*%
%TO.N,GND*%
X135050000Y-109850000D03*
%TD*%
D13*
%TO.P,R25,1*%
%TO.N,Net-(IC4-ILIM)*%
X125728750Y-89947095D03*
%TO.P,R25,2*%
%TO.N,GND*%
X125321250Y-90652905D03*
%TD*%
D14*
%TO.P,C18,1*%
%TO.N,GND*%
X133597095Y-95346250D03*
%TO.P,C18,2*%
%TO.N,+3.3V*%
X134302905Y-95753750D03*
%TD*%
D15*
%TO.P,R14,1*%
%TO.N,Net-(IC2-ILIM)*%
X137257500Y-95155810D03*
%TO.P,R14,2*%
%TO.N,GND*%
X136850000Y-94450000D03*
%TD*%
D16*
%TO.P,C7,1*%
%TO.N,/NRST*%
X128367500Y-99430810D03*
%TO.P,C7,2*%
%TO.N,GND*%
X128775000Y-98725000D03*
%TD*%
%TO.P,C21,1*%
%TO.N,GND*%
X129512500Y-92453349D03*
%TO.P,C21,2*%
%TO.N,+3.3V*%
X129920000Y-91747539D03*
%TD*%
D17*
%TO.P,C28,1*%
%TO.N,GND*%
X135783750Y-92691469D03*
%TO.P,C28,2*%
%TO.N,VBAT+*%
X135216250Y-91708531D03*
%TD*%
D12*
%TO.P,C2,1*%
%TO.N,VBAT+*%
X127550000Y-109850000D03*
%TO.P,C2,2*%
%TO.N,GND*%
X129100000Y-109850000D03*
%TD*%
D18*
%TO.P,C26,1*%
%TO.N,GND*%
X132858531Y-95891250D03*
%TO.P,C26,2*%
%TO.N,+3.3V*%
X133841469Y-96458750D03*
%TD*%
D19*
%TO.P,J4,1,1*%
%TO.N,/MOTOR1/MOT1*%
X144538500Y-98619873D03*
%TO.P,J4,2,2*%
%TO.N,GND*%
X143538500Y-100351924D03*
%TO.P,J4,3,3*%
%TO.N,/MOT1_HALL_A{slash}TIM2CH1*%
X142538500Y-102083975D03*
%TO.P,J4,4,4*%
%TO.N,/MOT1_HALL_B{slash}TIM2CH2*%
X141538500Y-103816025D03*
%TO.P,J4,5,5*%
%TO.N,+3.3V*%
X140538500Y-105548076D03*
%TO.P,J4,6,6*%
%TO.N,/MOTOR1/MOT2*%
X139538500Y-107280127D03*
D20*
%TO.P,J4,7,7*%
%TO.N,GND*%
X143274845Y-112208588D03*
%TO.P,J4,8,8*%
X150674845Y-99391412D03*
%TD*%
D21*
%TO.P,C35,1*%
%TO.N,GND*%
X124292048Y-92705000D03*
%TO.P,C35,2*%
%TO.N,VBAT+*%
X123724548Y-93687938D03*
%TD*%
D22*
%TO.P,IC3,1,GND*%
%TO.N,GND*%
X127288000Y-107925000D03*
%TO.P,IC3,2,IN2*%
%TO.N,Net-(IC3-IN2)*%
X127288000Y-106655000D03*
%TO.P,IC3,3,IN1*%
%TO.N,Net-(IC3-IN1)*%
X127288000Y-105385000D03*
%TO.P,IC3,4,ILIM*%
%TO.N,Net-(IC3-ILIM)*%
X127288000Y-104115000D03*
%TO.P,IC3,5,VM*%
%TO.N,VBAT+*%
X132712000Y-104115000D03*
%TO.P,IC3,6,OUT1*%
%TO.N,/MOTOR1/MOT1*%
X132712000Y-105385000D03*
%TO.P,IC3,7,PGND*%
%TO.N,GND*%
X132712000Y-106655000D03*
%TO.P,IC3,8,OUT2*%
%TO.N,/MOTOR1/MOT2*%
X132712000Y-107925000D03*
D23*
%TO.P,IC3,9,EP*%
%TO.N,GND*%
X130000000Y-106020000D03*
%TD*%
D24*
%TO.P,J2,1,1*%
%TO.N,/MOTOR2/MOT1*%
X125000000Y-82100000D03*
%TO.P,J2,2,2*%
%TO.N,GND*%
X127000000Y-82100000D03*
%TO.P,J2,3,3*%
%TO.N,/MOT2_HALL_A{slash}TIM1CH1*%
X129000000Y-82100000D03*
%TO.P,J2,4,4*%
%TO.N,/MOT2_HALL_B{slash}TIM1CH2*%
X131000000Y-82100000D03*
%TO.P,J2,5,5*%
%TO.N,+3.3V*%
X133000000Y-82100000D03*
%TO.P,J2,6,6*%
%TO.N,/MOTOR2/MOT2*%
X135000000Y-82100000D03*
D25*
%TO.P,J2,7,7*%
%TO.N,GND*%
X137400000Y-76400000D03*
%TO.P,J2,8,8*%
X122600000Y-76400000D03*
%TD*%
D26*
%TO.P,R1,1*%
%TO.N,/ADC2_IN5*%
X130450000Y-95250000D03*
%TO.P,R1,2*%
%TO.N,GND*%
X129635000Y-95250000D03*
%TD*%
D13*
%TO.P,C11,1*%
%TO.N,GND*%
X126803750Y-97622095D03*
%TO.P,C11,2*%
%TO.N,+3.3V*%
X126396250Y-98327905D03*
%TD*%
D27*
%TO.P,J10,1,1*%
%TO.N,/MOTOR3/MOT1*%
X120461500Y-107280127D03*
%TO.P,J10,2,2*%
%TO.N,GND*%
X119461500Y-105548076D03*
%TO.P,J10,3,3*%
%TO.N,/MOT3_HALL_A{slash}TIM8CH1*%
X118461500Y-103816025D03*
%TO.P,J10,4,4*%
%TO.N,/MOT3_HALL_B{slash}TIM8CH2*%
X117461500Y-102083975D03*
%TO.P,J10,5,5*%
%TO.N,+3.3V*%
X116461500Y-100351924D03*
%TO.P,J10,6,6*%
%TO.N,/MOTOR3/MOT2*%
X115461500Y-98619873D03*
D28*
%TO.P,J10,7,7*%
%TO.N,GND*%
X109325155Y-99391412D03*
%TO.P,J10,8,8*%
X116725155Y-112208588D03*
%TD*%
D29*
%TO.P,IC1,1,EN*%
%TO.N,VBAT+*%
X129000000Y-111800000D03*
%TO.P,IC1,2,VIN*%
X129650000Y-111800000D03*
%TO.P,IC1,3,GND*%
%TO.N,GND*%
X130300000Y-111800000D03*
%TO.P,IC1,4,VOUT_1*%
%TO.N,+3.3V*%
X130950000Y-111800000D03*
%TO.P,IC1,5,VOUT_2*%
X130950000Y-113900000D03*
%TO.P,IC1,6,FB*%
%TO.N,Net-(IC1-FB)*%
X130300000Y-113900000D03*
%TO.P,IC1,7,PG*%
%TO.N,Net-(IC1-PG)*%
X129650000Y-113900000D03*
%TO.P,IC1,8,SS/TR*%
%TO.N,Net-(IC1-SS{slash}TR)*%
X129000000Y-113900000D03*
D30*
%TO.P,IC1,9,EP*%
%TO.N,GND*%
X129975000Y-112850000D03*
%TD*%
D31*
%TO.P,IC2,1,GND*%
%TO.N,GND*%
X141684198Y-92386161D03*
%TO.P,IC2,2,IN2*%
%TO.N,Net-(IC2-IN2)*%
X140584346Y-93021161D03*
%TO.P,IC2,3,IN1*%
%TO.N,Net-(IC2-IN1)*%
X139484494Y-93656161D03*
%TO.P,IC2,4,ILIM*%
%TO.N,Net-(IC2-ILIM)*%
X138384642Y-94291161D03*
%TO.P,IC2,5,VM*%
%TO.N,VBAT+*%
X135672642Y-89593839D03*
%TO.P,IC2,6,OUT1*%
%TO.N,/MOTOR2/MOT1*%
X136772494Y-88958839D03*
%TO.P,IC2,7,PGND*%
%TO.N,GND*%
X137872346Y-88323839D03*
%TO.P,IC2,8,OUT2*%
%TO.N,/MOTOR2/MOT2*%
X138972198Y-87688839D03*
D32*
%TO.P,IC2,9,EP*%
%TO.N,GND*%
X138678420Y-90990000D03*
%TD*%
D21*
%TO.P,C16,1*%
%TO.N,+3.3V*%
X130608750Y-92233531D03*
%TO.P,C16,2*%
%TO.N,GND*%
X130041250Y-93216469D03*
%TD*%
D26*
%TO.P,R4,1*%
%TO.N,+3.3V*%
X131765000Y-114950000D03*
%TO.P,R4,2*%
%TO.N,Net-(IC1-FB)*%
X130950000Y-114950000D03*
%TD*%
D14*
%TO.P,C25,1*%
%TO.N,GND*%
X132800000Y-96800000D03*
%TO.P,C25,2*%
%TO.N,+3.3V*%
X133505810Y-97207500D03*
%TD*%
D21*
%TO.P,C10,1*%
%TO.N,GND*%
X127708750Y-97733531D03*
%TO.P,C10,2*%
%TO.N,+3.3V*%
X127141250Y-98716469D03*
%TD*%
D33*
%TO.P,C23,1*%
%TO.N,GND*%
X126175000Y-96975000D03*
%TO.P,C23,2*%
%TO.N,+3.3V*%
X125469190Y-96567500D03*
%TD*%
D34*
%TO.P,J6,1,1*%
%TO.N,/NRST*%
X140900000Y-86104937D03*
%TO.P,J6,2,2*%
%TO.N,/SWCLK*%
X141525000Y-87187468D03*
%TO.P,J6,3,3*%
%TO.N,/SWDIO*%
X142150000Y-88270000D03*
%TO.P,J6,4,4*%
%TO.N,+3.3V*%
X142775000Y-89352532D03*
%TO.P,J6,5,5*%
%TO.N,GND*%
X143400000Y-90435064D03*
%TO.P,J6,6,6*%
%TO.N,/EXT_BTN_EXTI10*%
X144025000Y-91517595D03*
D35*
%TO.P,J6,7,7*%
%TO.N,GND*%
X142746282Y-82902790D03*
%TO.P,J6,8,8*%
X147721282Y-91519742D03*
%TD*%
D36*
%TO.P,R2,1*%
%TO.N,+3.3V*%
X129642500Y-96725000D03*
%TO.P,R2,2*%
%TO.N,/ADC2_IN5*%
X130457500Y-96725000D03*
%TD*%
%TO.P,R5,1*%
%TO.N,Net-(IC1-FB)*%
X130942500Y-115675000D03*
%TO.P,R5,2*%
%TO.N,GND*%
X131757500Y-115675000D03*
%TD*%
D37*
%TO.P,C3,1*%
%TO.N,Net-(IC1-SS{slash}TR)*%
X128675000Y-115250000D03*
%TO.P,C3,2*%
%TO.N,GND*%
X128675000Y-116065000D03*
%TD*%
D38*
%TO.P,C6,1*%
%TO.N,+3.3V*%
X132075000Y-109850000D03*
%TO.P,C6,2*%
%TO.N,GND*%
X130525000Y-109850000D03*
%TD*%
%TO.P,C1,1*%
%TO.N,VBAT+*%
X126100000Y-109875000D03*
%TO.P,C1,2*%
%TO.N,GND*%
X124550000Y-109875000D03*
%TD*%
D39*
%TO.P,R3,1*%
%TO.N,+3.3V*%
X129400000Y-116065000D03*
%TO.P,R3,2*%
%TO.N,Net-(IC1-PG)*%
X129400000Y-115250000D03*
%TD*%
D40*
%TO.P,C31,1*%
%TO.N,GND*%
X130957500Y-102675000D03*
%TO.P,C31,2*%
%TO.N,VBAT+*%
X132092500Y-102675000D03*
%TD*%
D36*
%TO.P,R19,1*%
%TO.N,Net-(IC3-ILIM)*%
X127160000Y-102775000D03*
%TO.P,R19,2*%
%TO.N,GND*%
X127975000Y-102775000D03*
%TD*%
D41*
%TO.P,IC4,1,GND*%
%TO.N,GND*%
X121027802Y-87688839D03*
%TO.P,IC4,2,IN2*%
%TO.N,Net-(IC4-IN2)*%
X122127654Y-88323839D03*
%TO.P,IC4,3,IN1*%
%TO.N,Net-(IC4-IN1)*%
X123227506Y-88958839D03*
%TO.P,IC4,4,ILIM*%
%TO.N,Net-(IC4-ILIM)*%
X124327358Y-89593839D03*
%TO.P,IC4,5,VM*%
%TO.N,VBAT+*%
X121615358Y-94291161D03*
%TO.P,IC4,6,OUT1*%
%TO.N,/MOTOR3/MOT1*%
X120515506Y-93656161D03*
%TO.P,IC4,7,PGND*%
%TO.N,GND*%
X119415654Y-93021161D03*
%TO.P,IC4,8,OUT2*%
%TO.N,/MOTOR3/MOT2*%
X118315802Y-92386161D03*
D42*
%TO.P,IC4,9,EP*%
%TO.N,GND*%
X121321580Y-90990000D03*
%TD*%
D26*
%TO.P,C4,1*%
%TO.N,/ADC2_IN5*%
X130450000Y-95975000D03*
%TO.P,C4,2*%
%TO.N,GND*%
X129635000Y-95975000D03*
%TD*%
D43*
%TO.N,GND*%
X140050000Y-74750000D03*
X119840000Y-74749192D03*
X121284000Y-74749192D03*
X129948000Y-74749192D03*
X119118000Y-74749192D03*
X128504000Y-74749192D03*
X118396000Y-74749192D03*
X134280000Y-74749192D03*
X129226000Y-74749192D03*
X138612000Y-74749192D03*
X122006000Y-74749192D03*
X141500000Y-74749192D03*
X127060000Y-74749192D03*
X124894000Y-74749192D03*
X142220000Y-74750000D03*
X130670000Y-74749192D03*
X137168000Y-74749192D03*
X123450000Y-74749192D03*
X125616000Y-74749192D03*
X132114000Y-74749192D03*
X140778000Y-74749192D03*
X124172000Y-74749192D03*
X139300000Y-74750000D03*
X122728000Y-74749192D03*
X132836000Y-74749192D03*
X126338000Y-74749192D03*
X127782000Y-74749192D03*
X136446000Y-74749192D03*
X133558000Y-74749192D03*
X131392000Y-74749192D03*
X137890000Y-74749192D03*
X135724000Y-74749192D03*
X135002000Y-74749192D03*
X120562000Y-74749192D03*
X140050000Y-117270000D03*
X119840000Y-117269192D03*
X121284000Y-117269192D03*
X129948000Y-117269192D03*
X119118000Y-117269192D03*
X128504000Y-117269192D03*
X118396000Y-117269192D03*
X134280000Y-117269192D03*
X129226000Y-117269192D03*
X138612000Y-117269192D03*
X122006000Y-117269192D03*
X141500000Y-117269192D03*
X127060000Y-117269192D03*
X124894000Y-117269192D03*
X142220000Y-117270000D03*
X130670000Y-117269192D03*
X137168000Y-117269192D03*
X123450000Y-117269192D03*
X125616000Y-117269192D03*
X132114000Y-117269192D03*
X140778000Y-117269192D03*
X124172000Y-117269192D03*
X139300000Y-117270000D03*
X122728000Y-117269192D03*
X132836000Y-117269192D03*
X126338000Y-117269192D03*
X127782000Y-117269192D03*
X136446000Y-117269192D03*
X133558000Y-117269192D03*
X131392000Y-117269192D03*
X137890000Y-117269192D03*
X135724000Y-117269192D03*
X135002000Y-117269192D03*
X120562000Y-117269192D03*
X105530000Y-96010000D03*
X111667000Y-85380404D03*
X105891000Y-95384729D03*
X113833000Y-81628782D03*
X106613000Y-94134189D03*
X106252000Y-94759459D03*
X110945000Y-86630945D03*
X116718700Y-76632219D03*
X107335000Y-92883648D03*
X109501000Y-89132026D03*
X108779000Y-90382567D03*
X113472000Y-82254052D03*
X112389000Y-84129863D03*
X116343700Y-77281738D03*
X115638000Y-78502430D03*
X112028000Y-84755134D03*
X114555000Y-80378241D03*
X112750000Y-83504593D03*
X111306000Y-86005674D03*
X108057000Y-91633107D03*
X115999000Y-77877160D03*
X115277000Y-79127701D03*
X107696000Y-92258378D03*
X113111000Y-82879323D03*
X110584000Y-87256215D03*
X114194000Y-81003512D03*
X106974000Y-93508918D03*
X110223000Y-87881485D03*
X117082000Y-76001349D03*
X108418000Y-91007837D03*
X109140000Y-89757296D03*
X117443000Y-75376079D03*
X114916000Y-79752971D03*
X109862000Y-88506756D03*
X109862000Y-103513244D03*
X114916000Y-112267029D03*
X117443000Y-116643921D03*
X109140000Y-102262704D03*
X108418000Y-101012163D03*
X117082000Y-116018651D03*
X110223000Y-104138515D03*
X106974000Y-98511082D03*
X114194000Y-111016488D03*
X110584000Y-104763785D03*
X113111000Y-109140677D03*
X107696000Y-99761622D03*
X115277000Y-112892299D03*
X115999000Y-114142840D03*
X108057000Y-100386893D03*
X111306000Y-106014326D03*
X112750000Y-108515407D03*
X114555000Y-111641759D03*
X112028000Y-107264866D03*
X115638000Y-113517570D03*
X116342300Y-114739070D03*
X112389000Y-107890137D03*
X113472000Y-109765948D03*
X108779000Y-101637433D03*
X109501000Y-102887974D03*
X107335000Y-99136352D03*
X116717300Y-115388589D03*
X110945000Y-105389055D03*
X106252000Y-97260541D03*
X106613000Y-97885811D03*
X113833000Y-110391218D03*
X105891000Y-96635271D03*
X111667000Y-106639596D03*
X153040000Y-93481206D03*
X142588700Y-75377407D03*
X145476700Y-80379569D03*
X149086700Y-86632273D03*
X147281700Y-83505921D03*
X144393700Y-78503758D03*
X149808700Y-87882813D03*
X148003700Y-84756462D03*
X145837700Y-81004840D03*
X152335700Y-92259706D03*
X151613700Y-91009165D03*
X150891700Y-89758624D03*
X151252700Y-90383895D03*
X154140700Y-95386057D03*
X151974700Y-91634435D03*
X144754700Y-79129029D03*
X146559700Y-82255380D03*
X152696700Y-92884976D03*
X144032700Y-77878488D03*
X142949700Y-76002677D03*
X146198700Y-81630110D03*
X145115700Y-79754299D03*
X143310700Y-76627947D03*
X143671700Y-77253218D03*
X153779700Y-94760787D03*
X148725700Y-86007002D03*
X147642700Y-84131191D03*
X149447700Y-87257543D03*
X146920700Y-82880651D03*
X150169700Y-88508084D03*
X148364700Y-85381732D03*
X150530700Y-89133354D03*
X153415000Y-94130725D03*
X152334000Y-99761622D03*
X146919000Y-109140677D03*
X154139000Y-96635271D03*
X151251000Y-101637433D03*
X147641000Y-107890137D03*
X143686300Y-114738262D03*
X149446000Y-104763785D03*
X153417000Y-97885811D03*
X153056000Y-98511082D03*
X149085000Y-105389055D03*
X142948000Y-116018651D03*
X146558000Y-109765948D03*
X147280000Y-108515407D03*
X149807000Y-104138515D03*
X148002000Y-107264866D03*
X143311300Y-115387781D03*
X151612000Y-101012163D03*
X148363000Y-106639596D03*
X146197000Y-110391218D03*
X150529000Y-102887974D03*
X150890000Y-102262704D03*
X144392000Y-113517570D03*
X150168000Y-103513244D03*
X151973000Y-100386893D03*
X145475000Y-111641759D03*
X144753000Y-112892299D03*
X144031000Y-114142840D03*
X145114000Y-112267029D03*
X152695000Y-99136352D03*
X142587000Y-116643921D03*
X145836000Y-111016488D03*
X153778000Y-97260541D03*
X148724000Y-106014326D03*
X134600000Y-103880000D03*
X134960000Y-102890000D03*
X134700000Y-108810000D03*
X125775000Y-86850000D03*
X124350000Y-116475000D03*
X124250000Y-115300000D03*
X127425000Y-108700000D03*
X124525000Y-113000000D03*
X123600000Y-113725000D03*
X145775000Y-93300000D03*
X150425000Y-91725000D03*
X143822095Y-93028750D03*
X135900000Y-94125000D03*
X126975000Y-83125000D03*
X127000000Y-82000000D03*
X126975000Y-80950000D03*
X120450000Y-105000000D03*
X118475000Y-106100000D03*
X125025000Y-92350000D03*
X128275000Y-90125000D03*
X124650000Y-90900000D03*
X120400000Y-88525000D03*
X125575000Y-89000000D03*
X145430000Y-105870000D03*
X134820000Y-86190000D03*
X145480000Y-84180000D03*
X130178372Y-93898968D03*
X114180000Y-97060000D03*
X111835552Y-87360641D03*
X136430000Y-105760000D03*
X121880000Y-108060000D03*
X134925000Y-76001115D03*
X110235865Y-101641108D03*
X125700000Y-79290000D03*
X117400000Y-91340000D03*
X144630000Y-96380000D03*
X116720000Y-88620000D03*
X136240000Y-97870000D03*
X123280000Y-100200000D03*
X115126448Y-89260641D03*
X138680000Y-82870000D03*
X119415654Y-93021161D03*
X127900000Y-96500000D03*
X113870000Y-86010000D03*
X113840000Y-100570000D03*
X124178150Y-91542276D03*
X143050000Y-96000000D03*
X143770000Y-83730000D03*
X128600000Y-95275000D03*
X150980000Y-93890000D03*
X137375000Y-111250000D03*
X139460000Y-108640000D03*
X148100000Y-95700000D03*
X130725000Y-113225000D03*
X129050000Y-103270000D03*
X138475000Y-92172724D03*
X140200000Y-91172724D03*
X116010000Y-96950000D03*
X113932147Y-101643255D03*
X139375000Y-91675000D03*
X123210000Y-108980000D03*
X129050000Y-107275000D03*
X146564448Y-84589359D03*
X115260000Y-86810000D03*
X118760000Y-99310000D03*
X137460000Y-98350000D03*
X127288000Y-107925000D03*
X129050000Y-105275000D03*
X132712000Y-106655000D03*
X114020000Y-88670000D03*
X127120000Y-89370000D03*
X129075000Y-106275000D03*
X140430000Y-97160000D03*
X129175000Y-113225000D03*
X141684198Y-92386161D03*
X127930000Y-84260000D03*
X122450000Y-90552276D03*
X123090000Y-79550000D03*
X138260000Y-104170000D03*
X124550000Y-109875000D03*
X113270000Y-98390000D03*
X132500000Y-95275000D03*
X134340000Y-106340000D03*
X133680000Y-85670000D03*
X129675000Y-94850000D03*
X126470000Y-91310000D03*
X137872346Y-88323839D03*
X131757500Y-115675000D03*
X124190000Y-98300000D03*
X136610000Y-99710000D03*
X141990000Y-107430000D03*
X121027802Y-87688839D03*
X120725000Y-89552276D03*
X133075000Y-79201115D03*
X137180000Y-87330000D03*
X149755808Y-101701524D03*
X125210000Y-88080000D03*
X135050000Y-109850000D03*
X144240000Y-107780000D03*
X129950000Y-113200000D03*
X139940000Y-100580000D03*
X124520000Y-101000000D03*
X112830000Y-93240000D03*
X125750000Y-105470000D03*
X119461500Y-105548076D03*
X141170000Y-109010000D03*
X142741281Y-82895194D03*
X141730000Y-96490000D03*
X118800000Y-94540000D03*
X116400000Y-90700000D03*
X140740000Y-84970000D03*
X128800000Y-88730000D03*
X147716281Y-91512147D03*
X112760000Y-87860000D03*
X129040000Y-102020000D03*
X123300000Y-91050000D03*
X124975000Y-76001115D03*
X118640000Y-97310000D03*
X133910000Y-79670000D03*
X131375000Y-96925000D03*
X115210865Y-110258060D03*
X143538500Y-100351924D03*
X121600000Y-90075000D03*
X115170000Y-94890000D03*
X124540000Y-97520000D03*
X129550000Y-97850000D03*
X122960000Y-83970000D03*
X120940000Y-103860000D03*
X137760000Y-105250000D03*
X126075000Y-101425000D03*
X121850000Y-96250000D03*
X147570000Y-102290000D03*
X141050000Y-99980000D03*
X146070000Y-100590000D03*
X131475000Y-95800000D03*
X129050000Y-104250000D03*
X146550000Y-104340000D03*
X125720000Y-108280000D03*
X127278750Y-100647095D03*
X124250000Y-102840000D03*
X144780808Y-110318476D03*
X125810000Y-103600000D03*
X143273552Y-86489359D03*
X139680000Y-85480000D03*
X123780000Y-86350000D03*
X145580000Y-85260000D03*
%TO.N,VBAT+*%
X133000000Y-102925000D03*
X133000000Y-103725000D03*
X121375000Y-94775000D03*
X123475000Y-93700000D03*
X133725000Y-103750000D03*
X121825000Y-94000000D03*
X132200000Y-103775000D03*
X126100000Y-109875000D03*
X135825000Y-89900000D03*
X127550000Y-109850000D03*
X134625000Y-89550000D03*
X122750000Y-94475000D03*
X126825000Y-109875000D03*
X136075000Y-91025000D03*
X132200000Y-102900000D03*
X133725000Y-102925000D03*
X122775000Y-93300000D03*
X122350000Y-95275000D03*
X135350000Y-89175000D03*
X134975000Y-90375000D03*
X135325000Y-91425000D03*
%TO.N,+3.3V*%
X146059526Y-101703671D03*
X132775000Y-109850000D03*
X129250000Y-90625000D03*
X132075000Y-110650000D03*
X132075000Y-109850000D03*
X133475000Y-109850000D03*
X125450000Y-97575000D03*
X125200000Y-96925000D03*
X117057147Y-107055913D03*
X134600000Y-96050000D03*
X140538500Y-105548076D03*
X133000000Y-82100000D03*
X132775000Y-110650000D03*
X133475000Y-110650000D03*
X144500000Y-84550000D03*
X126825000Y-79201115D03*
X116461500Y-100351924D03*
X133700000Y-96975000D03*
X129800000Y-90925000D03*
X136300000Y-111150000D03*
%TO.N,/ADC2_IN5*%
X133200000Y-99025000D03*
%TO.N,/NRST*%
X128125000Y-99675000D03*
X140895000Y-86097341D03*
%TO.N,/ADC_VBAT*%
X126300000Y-99100000D03*
X121642500Y-112925000D03*
%TO.N,/EXT_BTN_EXTI10*%
X144950000Y-93275000D03*
X127000000Y-92625000D03*
%TO.N,Net-(IC2-IN1)*%
X129272095Y-89821250D03*
X139484494Y-93656161D03*
%TO.N,Net-(IC2-IN2)*%
X140584346Y-93021161D03*
X129647095Y-89121250D03*
%TO.N,Net-(IC3-IN2)*%
X127288000Y-106655000D03*
X134627905Y-99128750D03*
%TO.N,Net-(IC3-IN1)*%
X127288000Y-105385000D03*
X135002905Y-98503750D03*
%TO.N,Net-(IC4-IN1)*%
X132775000Y-101200000D03*
X123227506Y-88958839D03*
%TO.N,Net-(IC4-IN2)*%
X122127654Y-88323839D03*
%TO.N,/MOT2_HALL_B{slash}TIM1CH2*%
X131000000Y-82100000D03*
X131650000Y-92175000D03*
%TO.N,/MOT2_HALL_A{slash}TIM1CH1*%
X129000000Y-82100000D03*
X132400000Y-92550000D03*
%TO.N,/MOT1_HALL_B{slash}TIM2CH2*%
X129825000Y-102125000D03*
X141538500Y-103816025D03*
%TO.N,/MOT1_HALL_A{slash}TIM2CH1*%
X142538500Y-102083975D03*
X129550000Y-101475000D03*
%TO.N,/SWDIO*%
X142145000Y-88262405D03*
X128075000Y-91000000D03*
%TO.N,/SWCLK*%
X127400000Y-91375000D03*
X141520000Y-87179873D03*
%TO.N,/MOT3_HALL_B{slash}TIM8CH2*%
X117461500Y-102083975D03*
X125775000Y-95550000D03*
%TO.N,/MOT3_HALL_A{slash}TIM8CH1*%
X118461500Y-103816025D03*
X126300000Y-94725000D03*
%TO.N,/USART3_TX*%
X135625000Y-96450000D03*
X150200000Y-92700000D03*
X145722804Y-86922804D03*
%TO.N,/USART3_RX*%
X149075000Y-92725000D03*
X135925000Y-95500000D03*
X146086553Y-87636553D03*
%TO.N,/UART_EXTI*%
X135025000Y-97225000D03*
X145343205Y-86218205D03*
X151450000Y-92725000D03*
%TO.N,GND*%
X154500000Y-96010000D03*
%TD*%
D44*
%TO.N,+3.3V*%
X142770000Y-89344936D02*
X144675000Y-88225000D01*
X128000000Y-98800000D02*
X127141250Y-98716469D01*
X144675000Y-88225000D02*
X144500000Y-84550000D01*
X128575000Y-97725000D02*
X128000000Y-98800000D01*
X129642500Y-96725000D02*
X128575000Y-97725000D01*
D45*
%TO.N,Net-(IC1-SS{slash}TR)*%
X129000000Y-113900000D02*
X128675000Y-114775000D01*
X128675000Y-114775000D02*
X128675000Y-115250000D01*
%TO.N,/ADC2_IN5*%
X130850000Y-97925000D02*
X130457500Y-96725000D01*
X133200000Y-99025000D02*
X133100000Y-99125000D01*
X133100000Y-99125000D02*
X132925000Y-99125000D01*
X130450000Y-95250000D02*
X130457500Y-96725000D01*
X132925000Y-99125000D02*
X130850000Y-97925000D01*
%TO.N,/NRST*%
X128367500Y-99430810D02*
X128125000Y-99675000D01*
%TO.N,/EXT_BTN_EXTI10*%
X144550000Y-92600000D02*
X144950000Y-93275000D01*
X144020000Y-91510000D02*
X144550000Y-92600000D01*
%TO.N,Net-(IC1-FB)*%
X130950000Y-114950000D02*
X130942500Y-115675000D01*
X130300000Y-113900000D02*
X130300000Y-114475000D01*
X130300000Y-114475000D02*
X130950000Y-114950000D01*
%TO.N,Net-(IC1-PG)*%
X129400000Y-115250000D02*
X129650000Y-113900000D01*
%TO.N,Net-(IC2-ILIM)*%
X138384642Y-94291161D02*
X137257500Y-95155810D01*
%TO.N,Net-(IC3-ILIM)*%
X127288000Y-104115000D02*
X127160000Y-102775000D01*
%TO.N,Net-(IC4-ILIM)*%
X124327358Y-89593839D02*
X125728750Y-89947095D01*
%TO.N,/USART3_TX*%
X138475000Y-96825000D02*
X142875000Y-94575000D01*
X135625000Y-96450000D02*
X136350000Y-96300000D01*
X146900000Y-94625000D02*
X150200000Y-92700000D01*
X136350000Y-96300000D02*
X138475000Y-96825000D01*
X142875000Y-94575000D02*
X146900000Y-94625000D01*
%TO.N,/USART3_RX*%
X135925000Y-95500000D02*
X138650000Y-96175000D01*
X142925000Y-94000000D02*
X146750000Y-93925000D01*
X138650000Y-96175000D02*
X142925000Y-94000000D01*
X146750000Y-93925000D02*
X149075000Y-92725000D01*
%TO.N,/UART_EXTI*%
X142925000Y-95125000D02*
X147125000Y-95275000D01*
X138725000Y-97375000D02*
X142925000Y-95125000D01*
X147125000Y-95275000D02*
X151450000Y-92725000D01*
X135025000Y-97225000D02*
X136175000Y-97025000D01*
X138000000Y-97500000D02*
X138725000Y-97375000D01*
X136175000Y-97025000D02*
X138000000Y-97500000D01*
%TD*%
%TA.AperFunction,Conductor*%
%TO.N,/MOTOR3/MOT1*%
G36*
X120710175Y-92875331D02*
G01*
X121091006Y-93100367D01*
X121131485Y-93146248D01*
X121137266Y-93207160D01*
X121126602Y-93234710D01*
X120346580Y-94599999D01*
X120346580Y-94600000D01*
X121106706Y-96640000D01*
X123224087Y-102322549D01*
X123225786Y-102327507D01*
X123738342Y-103962807D01*
X123737705Y-104023989D01*
X123733172Y-104035157D01*
X122363784Y-106896200D01*
X122321987Y-106940319D01*
X119233454Y-108629360D01*
X119173328Y-108640692D01*
X119118023Y-108614518D01*
X119101061Y-108593435D01*
X118602383Y-107762305D01*
X118588657Y-107702679D01*
X118612600Y-107646373D01*
X118638737Y-107625085D01*
X121750000Y-105875000D01*
X121800000Y-104550000D01*
X119161189Y-96658508D01*
X119156298Y-96620527D01*
X119253431Y-95163530D01*
X119267010Y-95119704D01*
X120574614Y-92910141D01*
X120620520Y-92869694D01*
X120681435Y-92863954D01*
X120710175Y-92875331D01*
G37*
%TD.AperFunction*%
%TD*%
%TA.AperFunction,Conductor*%
%TO.N,+3.3V*%
G36*
X134250306Y-95483133D02*
G01*
X134818174Y-95764619D01*
X134829847Y-95775402D01*
X134844305Y-95782005D01*
X134854984Y-95798623D01*
X134869496Y-95812028D01*
X134873946Y-95828129D01*
X134882079Y-95840783D01*
X134887102Y-95875718D01*
X134887102Y-96056386D01*
X134870813Y-96117822D01*
X134085685Y-97494327D01*
X134035371Y-97542807D01*
X133977974Y-97556891D01*
X133759740Y-97556891D01*
X133708535Y-97545825D01*
X133245835Y-97336034D01*
X133192907Y-97290423D01*
X133173040Y-97223437D01*
X133189652Y-97161103D01*
X133321032Y-96933544D01*
X133331072Y-96910326D01*
X133337674Y-96849314D01*
X133348345Y-96810744D01*
X133399109Y-96700641D01*
X133339855Y-96469675D01*
X133342262Y-96399849D01*
X133350486Y-96380637D01*
X133540019Y-96024268D01*
X133588877Y-95974322D01*
X133649498Y-95958494D01*
X133799999Y-95958494D01*
X133800000Y-95958494D01*
X133885316Y-95816341D01*
X133918434Y-95780070D01*
X133958176Y-95751009D01*
X133973264Y-95730707D01*
X134087852Y-95532231D01*
X134138416Y-95484019D01*
X134207023Y-95470795D01*
X134250306Y-95483133D01*
G37*
%TD.AperFunction*%
%TD*%
%TA.AperFunction,Conductor*%
%TO.N,/MOTOR2/MOT2*%
G36*
X136114705Y-80224162D02*
G01*
X136172626Y-80243875D01*
X136201917Y-80278958D01*
X138663264Y-85212901D01*
X139250001Y-86389057D01*
X140053256Y-87887785D01*
X140064080Y-87948005D01*
X140037440Y-88003086D01*
X140012807Y-88021786D01*
X139159939Y-88479422D01*
X139099724Y-88490275D01*
X139044629Y-88463662D01*
X139027174Y-88441305D01*
X138745288Y-87948005D01*
X138275000Y-87125000D01*
X136733494Y-86389055D01*
X134456040Y-85301754D01*
X134411673Y-85259620D01*
X134399694Y-85212901D01*
X134375496Y-80300875D01*
X134394117Y-80242595D01*
X134443439Y-80206387D01*
X134475864Y-80201400D01*
X136114705Y-80224162D01*
G37*
%TD.AperFunction*%
%TD*%
%TA.AperFunction,Conductor*%
%TO.N,/MOTOR1/MOT1*%
G36*
X142525631Y-96805422D02*
G01*
X146287076Y-98901015D01*
X146328708Y-98945853D01*
X146336034Y-99006598D01*
X146324571Y-99037102D01*
X145827947Y-99894909D01*
X145821470Y-99904706D01*
X145730006Y-100026658D01*
X145679966Y-100061866D01*
X145618787Y-100060937D01*
X145597655Y-100050780D01*
X142650000Y-98175000D01*
X139599999Y-99899999D01*
X136769100Y-104866490D01*
X136723857Y-104907682D01*
X136713264Y-104911755D01*
X133639047Y-105895504D01*
X133610249Y-105900204D01*
X131925375Y-105923605D01*
X131866927Y-105905508D01*
X131830279Y-105856512D01*
X131825000Y-105824615D01*
X131825000Y-104975730D01*
X131843907Y-104917539D01*
X131893407Y-104881575D01*
X131925712Y-104876745D01*
X133675000Y-104907060D01*
X134870000Y-104370000D01*
X137995118Y-99035402D01*
X138036342Y-98996858D01*
X142433258Y-96803318D01*
X142493767Y-96794261D01*
X142525631Y-96805422D01*
G37*
%TD.AperFunction*%
%TD*%
%TA.AperFunction,Conductor*%
%TO.N,+3.3V*%
G36*
X129279710Y-90286091D02*
G01*
X130050355Y-90662948D01*
X130092259Y-90696320D01*
X130496660Y-91195874D01*
X130502977Y-91204402D01*
X130986465Y-91919122D01*
X131032313Y-91986897D01*
X131053572Y-92053454D01*
X131038002Y-92116595D01*
X130765270Y-92607513D01*
X130715505Y-92656556D01*
X130647125Y-92670909D01*
X130588138Y-92650499D01*
X130043673Y-92287880D01*
X129998788Y-92234335D01*
X129992634Y-92216767D01*
X129983573Y-92182952D01*
X129917261Y-92092271D01*
X129917259Y-92092268D01*
X129896957Y-92077180D01*
X129710770Y-91969686D01*
X129662557Y-91919122D01*
X129649333Y-91850515D01*
X129663084Y-91804470D01*
X129850000Y-91450000D01*
X128963889Y-90914472D01*
X128916695Y-90862949D01*
X128904848Y-90794091D01*
X128916237Y-90754688D01*
X129113451Y-90343825D01*
X129160206Y-90291908D01*
X129227610Y-90273509D01*
X129279710Y-90286091D01*
G37*
%TD.AperFunction*%
%TD*%
%TA.AperFunction,Conductor*%
%TO.N,/MOTOR1/MOT2*%
G36*
X138270920Y-105938736D02*
G01*
X138286195Y-105945893D01*
X141238145Y-107649864D01*
X141279089Y-107695329D01*
X141285489Y-107756179D01*
X141273745Y-107786200D01*
X140826508Y-108538371D01*
X140780517Y-108578725D01*
X140719589Y-108584339D01*
X140689305Y-108571951D01*
X140635060Y-108538371D01*
X140301035Y-108331593D01*
X139725001Y-107975000D01*
X139725000Y-107975000D01*
X133753044Y-108381093D01*
X133478353Y-108399772D01*
X133471637Y-108400000D01*
X132049000Y-108400000D01*
X131990809Y-108381093D01*
X131954845Y-108331593D01*
X131950000Y-108301000D01*
X131950000Y-107524000D01*
X131968907Y-107465809D01*
X132018407Y-107429845D01*
X132049000Y-107425000D01*
X132550000Y-107425000D01*
X133650000Y-107225000D01*
X138209781Y-105936366D01*
X138270920Y-105938736D01*
G37*
%TD.AperFunction*%
%TD*%
%TA.AperFunction,Conductor*%
%TO.N,VBAT+*%
G36*
X122726053Y-92780875D02*
G01*
X124082699Y-93482256D01*
X124133210Y-93530529D01*
X124149604Y-93598448D01*
X124131449Y-93657243D01*
X122787943Y-95847390D01*
X122736109Y-95894242D01*
X122667174Y-95905633D01*
X122620569Y-95890126D01*
X120957034Y-94936366D01*
X120908666Y-94885944D01*
X120895236Y-94817378D01*
X120910827Y-94767658D01*
X121604502Y-93543525D01*
X121685127Y-93401245D01*
X121725268Y-93358521D01*
X122601377Y-92787159D01*
X122668279Y-92767029D01*
X122726053Y-92780875D01*
G37*
%TD.AperFunction*%
%TD*%
%TA.AperFunction,Conductor*%
%TO.N,/MOTOR3/MOT2*%
G36*
X118208579Y-91421649D02*
G01*
X119113490Y-91926715D01*
X119155086Y-91971584D01*
X119162365Y-92032335D01*
X119151651Y-92061474D01*
X118325000Y-93539998D01*
X117855289Y-98039327D01*
X117830442Y-98095240D01*
X117805691Y-98115147D01*
X114293775Y-100108404D01*
X114233835Y-100120684D01*
X114178124Y-100095386D01*
X114155513Y-100064845D01*
X113663937Y-99031825D01*
X113656006Y-98971155D01*
X113685250Y-98917411D01*
X113703061Y-98903999D01*
X116425000Y-97300000D01*
X117171835Y-92968353D01*
X117184620Y-92934050D01*
X118075562Y-91456961D01*
X118121805Y-91416901D01*
X118182767Y-91411672D01*
X118208579Y-91421649D01*
G37*
%TD.AperFunction*%
%TD*%
%TA.AperFunction,Conductor*%
%TO.N,+3.3V*%
G36*
X134217864Y-109139780D02*
G01*
X134263708Y-109192507D01*
X134275000Y-109244208D01*
X134275000Y-110575000D01*
X134274999Y-110575000D01*
X136149992Y-110864255D01*
X136149993Y-110864255D01*
X136150000Y-110864256D01*
X136379806Y-110871310D01*
X136446209Y-110893043D01*
X136490322Y-110947226D01*
X136500000Y-110995252D01*
X136500000Y-111288950D01*
X136480672Y-111355431D01*
X133014457Y-116812875D01*
X132961899Y-116858911D01*
X132913216Y-116870347D01*
X132896618Y-116870806D01*
X132888727Y-116868692D01*
X132783273Y-116868692D01*
X132761412Y-116874549D01*
X132746838Y-116874953D01*
X132745814Y-116874683D01*
X132743407Y-116875000D01*
X132206593Y-116875000D01*
X132174501Y-116870775D01*
X132166728Y-116868692D01*
X132166727Y-116868692D01*
X132061273Y-116868692D01*
X132061271Y-116868692D01*
X132053499Y-116870775D01*
X132021407Y-116875000D01*
X131468269Y-116875000D01*
X131444727Y-116868692D01*
X131339273Y-116868692D01*
X131315731Y-116875000D01*
X130762593Y-116875000D01*
X130730501Y-116870775D01*
X130722728Y-116868692D01*
X130722727Y-116868692D01*
X130617273Y-116868692D01*
X130617271Y-116868692D01*
X130609499Y-116870775D01*
X130577407Y-116875000D01*
X130024269Y-116875000D01*
X130000727Y-116868692D01*
X129895273Y-116868692D01*
X129871731Y-116875000D01*
X129346334Y-116875000D01*
X129279295Y-116855315D01*
X129233540Y-116802511D01*
X129222363Y-116753695D01*
X129203689Y-115894694D01*
X129221912Y-115827243D01*
X129273709Y-115780351D01*
X129327656Y-115767999D01*
X129544864Y-115767999D01*
X129544879Y-115767997D01*
X129544882Y-115767997D01*
X129569987Y-115765086D01*
X129569987Y-115765085D01*
X129569991Y-115765085D01*
X129575913Y-115762469D01*
X129645192Y-115753398D01*
X129708377Y-115783221D01*
X129745408Y-115842471D01*
X129750000Y-115875904D01*
X129750000Y-116100000D01*
X132230000Y-116100000D01*
X132230000Y-115967593D01*
X132240565Y-115917508D01*
X132272585Y-115844991D01*
X132275500Y-115819865D01*
X132275499Y-115530136D01*
X132272585Y-115505009D01*
X132230000Y-115408562D01*
X132230000Y-115350000D01*
X132173361Y-115348390D01*
X132147765Y-115322794D01*
X132114560Y-115308132D01*
X132044992Y-115277415D01*
X132019868Y-115274500D01*
X132019865Y-115274500D01*
X131810228Y-115274500D01*
X131810227Y-115274500D01*
X131704773Y-115274500D01*
X131704770Y-115274500D01*
X131585291Y-115274500D01*
X131518252Y-115254815D01*
X131472497Y-115202011D01*
X131462553Y-115132853D01*
X131464915Y-115121451D01*
X131465084Y-115119992D01*
X131465085Y-115119991D01*
X131468000Y-115094865D01*
X131467999Y-114805136D01*
X131465720Y-114785484D01*
X131465086Y-114780012D01*
X131465085Y-114780010D01*
X131465085Y-114780009D01*
X131419706Y-114677235D01*
X131340265Y-114597794D01*
X131307369Y-114583269D01*
X131237492Y-114552415D01*
X131208806Y-114549087D01*
X131208961Y-114547744D01*
X131148370Y-114526086D01*
X131142117Y-114521224D01*
X130769803Y-114212188D01*
X130730790Y-114154224D01*
X130725000Y-114116774D01*
X130725000Y-113774500D01*
X130744685Y-113707461D01*
X130797489Y-113661706D01*
X130849000Y-113650500D01*
X130994750Y-113650500D01*
X130994751Y-113650499D01*
X131018592Y-113645757D01*
X131044384Y-113640627D01*
X131044384Y-113640626D01*
X131053231Y-113638867D01*
X131073984Y-113625000D01*
X131150000Y-113625000D01*
X131150000Y-113548984D01*
X131163867Y-113528231D01*
X131175500Y-113469748D01*
X131175500Y-112731307D01*
X132574499Y-112731307D01*
X132606222Y-112890783D01*
X132606225Y-112890793D01*
X132668450Y-113041019D01*
X132668452Y-113041023D01*
X132758788Y-113176220D01*
X132758794Y-113176228D01*
X132873771Y-113291205D01*
X132873779Y-113291211D01*
X133008976Y-113381547D01*
X133008980Y-113381549D01*
X133159206Y-113443774D01*
X133159211Y-113443776D01*
X133159215Y-113443776D01*
X133159216Y-113443777D01*
X133318692Y-113475500D01*
X133318695Y-113475500D01*
X133481307Y-113475500D01*
X133588598Y-113454157D01*
X133640789Y-113443776D01*
X133791021Y-113381548D01*
X133791023Y-113381547D01*
X133858169Y-113336680D01*
X133926225Y-113291208D01*
X134041208Y-113176225D01*
X134131548Y-113041021D01*
X134193776Y-112890789D01*
X134225500Y-112731305D01*
X134225500Y-112568695D01*
X134225500Y-112568692D01*
X134193777Y-112409216D01*
X134193776Y-112409215D01*
X134193776Y-112409211D01*
X134193774Y-112409206D01*
X134131549Y-112258980D01*
X134131547Y-112258976D01*
X134041211Y-112123779D01*
X134041205Y-112123771D01*
X133926228Y-112008794D01*
X133926220Y-112008788D01*
X133791023Y-111918452D01*
X133791019Y-111918450D01*
X133640793Y-111856225D01*
X133640783Y-111856222D01*
X133481307Y-111824500D01*
X133481305Y-111824500D01*
X133318695Y-111824500D01*
X133318693Y-111824500D01*
X133159216Y-111856222D01*
X133159206Y-111856225D01*
X133008980Y-111918450D01*
X133008976Y-111918452D01*
X132873779Y-112008788D01*
X132873771Y-112008794D01*
X132758794Y-112123771D01*
X132758788Y-112123779D01*
X132668452Y-112258976D01*
X132668450Y-112258980D01*
X132606225Y-112409206D01*
X132606222Y-112409216D01*
X132574500Y-112568692D01*
X132574500Y-112568695D01*
X132574500Y-112731305D01*
X132574500Y-112731307D01*
X132574499Y-112731307D01*
X131175500Y-112731307D01*
X131175500Y-112230252D01*
X131175500Y-112230249D01*
X131175499Y-112230247D01*
X131165627Y-112180615D01*
X131165626Y-112180614D01*
X131163867Y-112171769D01*
X131150000Y-112151015D01*
X131150000Y-112075000D01*
X131073984Y-112075000D01*
X131053231Y-112061133D01*
X131044384Y-112059373D01*
X131044383Y-112059372D01*
X130994752Y-112049500D01*
X130994748Y-112049500D01*
X130849000Y-112049500D01*
X130781961Y-112029815D01*
X130736206Y-111977011D01*
X130725000Y-111925500D01*
X130725000Y-111545691D01*
X130731718Y-111505430D01*
X130949401Y-110871310D01*
X131300000Y-109850000D01*
X131300000Y-109248791D01*
X131319685Y-109181752D01*
X131372489Y-109135997D01*
X131423787Y-109124791D01*
X134150794Y-109120208D01*
X134217864Y-109139780D01*
G37*
%TD.AperFunction*%
%TD*%
%TA.AperFunction,Conductor*%
%TO.N,/MOTOR2/MOT1*%
G36*
X125634944Y-80168907D02*
G01*
X125670908Y-80218407D01*
X125675750Y-80248244D01*
X125699999Y-83424998D01*
X126374999Y-84525000D01*
X136335908Y-87463468D01*
X136386371Y-87498067D01*
X136394641Y-87510712D01*
X137428866Y-89391120D01*
X137440343Y-89451219D01*
X137414302Y-89506587D01*
X137392717Y-89523924D01*
X136639219Y-89971950D01*
X136579539Y-89985438D01*
X136523329Y-89961272D01*
X136501232Y-89933373D01*
X135875727Y-88758141D01*
X135875725Y-88758139D01*
X135875724Y-88758138D01*
X135815734Y-88726199D01*
X135779278Y-88692805D01*
X135766670Y-88673427D01*
X135766663Y-88673417D01*
X135765271Y-88671511D01*
X135750877Y-88651806D01*
X135691679Y-88597420D01*
X135631975Y-88561127D01*
X135631972Y-88561125D01*
X135631973Y-88561125D01*
X135578182Y-88538168D01*
X135578184Y-88538168D01*
X135578180Y-88538167D01*
X135578177Y-88538166D01*
X135578171Y-88538164D01*
X135357516Y-88479323D01*
X135336501Y-88471053D01*
X135250000Y-88425000D01*
X135249999Y-88425000D01*
X133185531Y-88754321D01*
X133138591Y-88750464D01*
X123768971Y-85623021D01*
X123719760Y-85586662D01*
X123701319Y-85528322D01*
X123701330Y-85527507D01*
X123782321Y-81113452D01*
X123798217Y-80247184D01*
X123818188Y-80189350D01*
X123868340Y-80154300D01*
X123897200Y-80150000D01*
X125576753Y-80150000D01*
X125634944Y-80168907D01*
G37*
%TD.AperFunction*%
%TD*%
%TA.AperFunction,Conductor*%
%TO.N,VBAT+*%
G36*
X128267075Y-109445219D02*
G01*
X128313315Y-109497599D01*
X128325000Y-109550148D01*
X128325000Y-110300000D01*
X129803655Y-111487772D01*
X129843593Y-111545102D01*
X129850000Y-111584445D01*
X129850000Y-111925500D01*
X129830315Y-111992539D01*
X129777511Y-112038294D01*
X129726000Y-112049500D01*
X128954262Y-112049500D01*
X128944084Y-112050000D01*
X128706477Y-112050000D01*
X128647334Y-112034987D01*
X125672149Y-110420470D01*
X125622615Y-110371193D01*
X125607295Y-110310634D01*
X125612369Y-109572015D01*
X125632514Y-109505116D01*
X125685631Y-109459724D01*
X125735222Y-109448875D01*
X128199859Y-109426153D01*
X128267075Y-109445219D01*
G37*
%TD.AperFunction*%
%TD*%
%TA.AperFunction,Conductor*%
%TO.N,VBAT+*%
G36*
X134265605Y-102091725D02*
G01*
X134311420Y-102144477D01*
X134322663Y-102198407D01*
X134300559Y-103394704D01*
X134285529Y-103451625D01*
X133710211Y-104510212D01*
X133660904Y-104559714D01*
X133601262Y-104575000D01*
X131774000Y-104575000D01*
X131706961Y-104555315D01*
X131661206Y-104502511D01*
X131650000Y-104451000D01*
X131650000Y-102198859D01*
X131669685Y-102131820D01*
X131722489Y-102086065D01*
X131773856Y-102074859D01*
X134198544Y-102072116D01*
X134265605Y-102091725D01*
G37*
%TD.AperFunction*%
%TD*%
%TA.AperFunction,Conductor*%
%TO.N,VBAT+*%
G36*
X135246627Y-88662434D02*
G01*
X135525230Y-88736728D01*
X135584934Y-88773021D01*
X135600717Y-88794628D01*
X136400490Y-90182468D01*
X136416908Y-90250381D01*
X136413757Y-90272782D01*
X136325000Y-90650000D01*
X136657427Y-91190195D01*
X136675797Y-91257606D01*
X136654806Y-91324248D01*
X136612644Y-91363241D01*
X135904476Y-91761845D01*
X135218820Y-92147778D01*
X135150745Y-92163508D01*
X135084972Y-92139935D01*
X135047081Y-92095156D01*
X134594788Y-91190195D01*
X133878436Y-89756896D01*
X133866074Y-89688132D01*
X133879623Y-89643715D01*
X134081988Y-89259220D01*
X134130630Y-89209067D01*
X134134246Y-89207098D01*
X135157234Y-88672354D01*
X135225765Y-88658744D01*
X135246627Y-88662434D01*
G37*
%TD.AperFunction*%
%TD*%
%TA.AperFunction,Conductor*%
%TO.N,+3.3V*%
G36*
X125342271Y-96087142D02*
G01*
X125809665Y-96357887D01*
X125857808Y-96408523D01*
X125870932Y-96477149D01*
X125844871Y-96541976D01*
X125820708Y-96565276D01*
X125813923Y-96570237D01*
X125813917Y-96570243D01*
X125798831Y-96590542D01*
X125653968Y-96841455D01*
X125653960Y-96841471D01*
X125643928Y-96864672D01*
X125631840Y-96976368D01*
X125660917Y-97084886D01*
X125706187Y-97146793D01*
X125727233Y-97175573D01*
X125747535Y-97190661D01*
X125869391Y-97261014D01*
X126012528Y-97343654D01*
X126051984Y-97379748D01*
X126281078Y-97705766D01*
X126303516Y-97771934D01*
X126303261Y-97779606D01*
X126303598Y-97783972D01*
X126332675Y-97892489D01*
X126398988Y-97983172D01*
X126398991Y-97983176D01*
X126419293Y-97998264D01*
X126670206Y-98143127D01*
X126670213Y-98143130D01*
X126670221Y-98143134D01*
X126681243Y-98147899D01*
X126693422Y-98153166D01*
X126693421Y-98153166D01*
X126693424Y-98153167D01*
X126805118Y-98165255D01*
X126913637Y-98136177D01*
X126948761Y-98110491D01*
X127014491Y-98086809D01*
X127082591Y-98102422D01*
X127694489Y-98446062D01*
X127743302Y-98496050D01*
X127757340Y-98564495D01*
X127743336Y-98612240D01*
X127337768Y-99377547D01*
X127288983Y-99427566D01*
X127220901Y-99443269D01*
X127167668Y-99427704D01*
X126763966Y-99201888D01*
X126715067Y-99151981D01*
X126700500Y-99093668D01*
X126700500Y-99047275D01*
X126700500Y-99047273D01*
X126673207Y-98945413D01*
X126620480Y-98854087D01*
X126545913Y-98779520D01*
X126479059Y-98740922D01*
X126454589Y-98726794D01*
X126454588Y-98726793D01*
X126454587Y-98726793D01*
X126352727Y-98699500D01*
X126247273Y-98699500D01*
X126145413Y-98726793D01*
X126145408Y-98726795D01*
X126092867Y-98757129D01*
X126024967Y-98773600D01*
X125970335Y-98757961D01*
X125272959Y-98367875D01*
X125224060Y-98317968D01*
X125212383Y-98286268D01*
X125185791Y-98165253D01*
X124868660Y-96722077D01*
X124873497Y-96652378D01*
X124882479Y-96633301D01*
X125172832Y-96132264D01*
X125223475Y-96084133D01*
X125292103Y-96071021D01*
X125342271Y-96087142D01*
G37*
%TD.AperFunction*%
%TD*%
%TA.AperFunction,Conductor*%
%TO.N,GND*%
G36*
X132013038Y-115499685D02*
G01*
X132058793Y-115552489D01*
X132069999Y-115604000D01*
X132069999Y-115768881D01*
X132059430Y-115818976D01*
X132058715Y-115820595D01*
X132013625Y-115873967D01*
X131946837Y-115894490D01*
X131945284Y-115894500D01*
X131584500Y-115894500D01*
X131575814Y-115891949D01*
X131566854Y-115893238D01*
X131542815Y-115882259D01*
X131517461Y-115874815D01*
X131511533Y-115867973D01*
X131503298Y-115864213D01*
X131489009Y-115841979D01*
X131471706Y-115822011D01*
X131469418Y-115811497D01*
X131465523Y-115805436D01*
X131460500Y-115770501D01*
X131460499Y-115604001D01*
X131480183Y-115536961D01*
X131532987Y-115491206D01*
X131584499Y-115480000D01*
X131585291Y-115480000D01*
X131945999Y-115480000D01*
X132013038Y-115499685D01*
G37*
%TD.AperFunction*%
%TA.AperFunction,Conductor*%
G36*
X142281360Y-74403954D02*
G01*
X142327115Y-74456758D01*
X142328883Y-74460819D01*
X142330024Y-74463575D01*
X142333170Y-74468283D01*
X142347724Y-74487250D01*
X154732683Y-95937998D01*
X154749157Y-96005898D01*
X154732683Y-96062000D01*
X148586191Y-106707727D01*
X142347722Y-117512752D01*
X142347722Y-117512753D01*
X142339561Y-117526888D01*
X142330024Y-117536426D01*
X142319792Y-117561125D01*
X142315733Y-117568156D01*
X142315730Y-117568162D01*
X142309291Y-117579314D01*
X142258732Y-117627532D01*
X142201902Y-117641321D01*
X117798098Y-117641321D01*
X117731059Y-117621636D01*
X117690711Y-117579322D01*
X117684268Y-117568162D01*
X117677097Y-117553617D01*
X117669977Y-117536428D01*
X117666833Y-117531722D01*
X117652275Y-117512750D01*
X117401693Y-117078742D01*
X116194354Y-114987631D01*
X128274500Y-114987631D01*
X128274500Y-115512356D01*
X128274502Y-115512382D01*
X128277413Y-115537487D01*
X128277415Y-115537491D01*
X128322793Y-115640264D01*
X128322794Y-115640265D01*
X128402235Y-115719706D01*
X128505009Y-115765085D01*
X128530135Y-115768000D01*
X128819864Y-115767999D01*
X128819879Y-115767997D01*
X128819882Y-115767997D01*
X128854258Y-115764011D01*
X128854491Y-115766020D01*
X128867248Y-115766274D01*
X128891792Y-115762572D01*
X128901572Y-115766956D01*
X128912286Y-115767170D01*
X128932896Y-115781001D01*
X128955547Y-115791157D01*
X128961403Y-115800131D01*
X128970302Y-115806104D01*
X128980162Y-115828882D01*
X128993727Y-115849672D01*
X128994859Y-115862835D01*
X128998058Y-115870224D01*
X128998991Y-115884571D01*
X128999045Y-115892517D01*
X128998238Y-115899160D01*
X128999490Y-115956788D01*
X128999497Y-115957726D01*
X128999490Y-115957747D01*
X128999500Y-115958584D01*
X128999500Y-116327356D01*
X128999502Y-116327382D01*
X129002414Y-116352490D01*
X129004596Y-116360510D01*
X129008916Y-116390366D01*
X129016912Y-116758164D01*
X129016912Y-116758166D01*
X129022046Y-116799558D01*
X129022048Y-116799567D01*
X129033223Y-116848375D01*
X129035223Y-116856370D01*
X129035225Y-116856375D01*
X129078233Y-116937083D01*
X129078235Y-116937086D01*
X129123994Y-116989895D01*
X129141576Y-117007839D01*
X129141580Y-117007843D01*
X129141581Y-117007844D01*
X129141583Y-117007845D01*
X129221393Y-117052488D01*
X129221397Y-117052490D01*
X129288436Y-117072175D01*
X129346334Y-117080500D01*
X129346338Y-117080500D01*
X129871732Y-117080500D01*
X129911587Y-117075253D01*
X129927772Y-117074192D01*
X129968228Y-117074192D01*
X129984413Y-117075253D01*
X130024268Y-117080500D01*
X130024269Y-117080500D01*
X130577398Y-117080500D01*
X130577407Y-117080500D01*
X130604230Y-117078742D01*
X130630733Y-117075252D01*
X130646916Y-117074192D01*
X130693084Y-117074192D01*
X130709266Y-117075252D01*
X130735770Y-117078742D01*
X130762593Y-117080500D01*
X130762602Y-117080500D01*
X131315732Y-117080500D01*
X131355587Y-117075253D01*
X131371772Y-117074192D01*
X131412228Y-117074192D01*
X131428413Y-117075253D01*
X131468268Y-117080500D01*
X131468269Y-117080500D01*
X132021398Y-117080500D01*
X132021407Y-117080500D01*
X132048230Y-117078742D01*
X132074733Y-117075252D01*
X132090916Y-117074192D01*
X132137084Y-117074192D01*
X132153266Y-117075252D01*
X132179770Y-117078742D01*
X132206593Y-117080500D01*
X132206602Y-117080500D01*
X132742322Y-117080500D01*
X132743407Y-117080500D01*
X132749924Y-117080072D01*
X132752532Y-117080374D01*
X132767106Y-117079970D01*
X132801022Y-117075026D01*
X132804221Y-117074728D01*
X132805337Y-117074945D01*
X132815734Y-117074192D01*
X132877724Y-117074192D01*
X132892204Y-117075039D01*
X132902299Y-117076227D01*
X132918897Y-117075768D01*
X132960210Y-117070401D01*
X133008893Y-117058965D01*
X133016820Y-117056936D01*
X133097301Y-117013496D01*
X133149859Y-116967460D01*
X133187926Y-116923051D01*
X136654141Y-111465607D01*
X136678002Y-111412801D01*
X136697330Y-111346320D01*
X136705500Y-111288950D01*
X136705500Y-110995252D01*
X136705500Y-110995245D01*
X136703728Y-110977491D01*
X136701450Y-110954657D01*
X136691772Y-110906631D01*
X136690197Y-110899475D01*
X136649685Y-110817481D01*
X136605572Y-110763298D01*
X136605567Y-110763293D01*
X136605556Y-110763279D01*
X136588543Y-110744815D01*
X136588544Y-110744815D01*
X136510130Y-110697737D01*
X136510125Y-110697735D01*
X136443728Y-110676004D01*
X136429323Y-110673479D01*
X136386111Y-110665907D01*
X136366526Y-110665305D01*
X136176474Y-110659471D01*
X136161373Y-110658079D01*
X134585594Y-110414984D01*
X134522340Y-110385309D01*
X134485171Y-110326146D01*
X134480500Y-110292434D01*
X134480500Y-109244207D01*
X134479067Y-109230936D01*
X134475767Y-109200358D01*
X134464475Y-109148657D01*
X134461933Y-109138311D01*
X134418788Y-109057672D01*
X134372944Y-109004945D01*
X134355323Y-108987021D01*
X134355321Y-108987019D01*
X134275430Y-108942507D01*
X134275431Y-108942507D01*
X134208369Y-108922937D01*
X134208359Y-108922935D01*
X134150452Y-108914708D01*
X134150449Y-108914708D01*
X131423442Y-108919291D01*
X131419173Y-108919755D01*
X131379930Y-108924024D01*
X131328633Y-108935230D01*
X131318627Y-108937680D01*
X131318626Y-108937680D01*
X131237916Y-108980690D01*
X131237913Y-108980692D01*
X131185104Y-109026451D01*
X131167160Y-109044033D01*
X131167154Y-109044040D01*
X131122511Y-109123850D01*
X131122509Y-109123855D01*
X131102826Y-109190887D01*
X131102825Y-109190892D01*
X131102825Y-109190893D01*
X131094684Y-109247517D01*
X131094500Y-109248794D01*
X131094500Y-109795018D01*
X131087782Y-109835279D01*
X130537353Y-111438703D01*
X130529021Y-111471599D01*
X130529019Y-111471609D01*
X130522302Y-111511864D01*
X130519500Y-111545696D01*
X130519500Y-111925507D01*
X130524197Y-111969186D01*
X130535400Y-112020684D01*
X130539731Y-112038406D01*
X130538534Y-112038698D01*
X130544500Y-112071050D01*
X130544500Y-112074752D01*
X130556131Y-112133229D01*
X130556132Y-112133230D01*
X130600447Y-112199552D01*
X130666769Y-112243867D01*
X130666770Y-112243868D01*
X130725247Y-112255499D01*
X130725250Y-112255500D01*
X130725252Y-112255500D01*
X130846000Y-112255500D01*
X130913039Y-112275185D01*
X130958794Y-112327989D01*
X130970000Y-112379500D01*
X130970000Y-113320500D01*
X130968947Y-113324085D01*
X130969789Y-113327726D01*
X130959179Y-113357349D01*
X130950315Y-113387539D01*
X130947491Y-113389985D01*
X130946231Y-113393505D01*
X130921279Y-113412698D01*
X130897511Y-113433294D01*
X130892950Y-113434489D01*
X130890851Y-113436105D01*
X130876669Y-113438759D01*
X130856464Y-113444058D01*
X130851245Y-113444500D01*
X130725252Y-113444500D01*
X130666769Y-113456133D01*
X130659929Y-113460702D01*
X130635464Y-113462775D01*
X130619336Y-113459487D01*
X130602972Y-113461245D01*
X130590455Y-113457569D01*
X130524751Y-113444500D01*
X130524748Y-113444500D01*
X130075252Y-113444500D01*
X130075249Y-113444500D01*
X130004791Y-113458515D01*
X130004238Y-113455737D01*
X129952972Y-113461245D01*
X129940455Y-113457569D01*
X129874751Y-113444500D01*
X129874748Y-113444500D01*
X129425252Y-113444500D01*
X129425249Y-113444500D01*
X129354791Y-113458515D01*
X129354238Y-113455737D01*
X129302972Y-113461245D01*
X129290455Y-113457569D01*
X129224751Y-113444500D01*
X129224748Y-113444500D01*
X128775252Y-113444500D01*
X128775247Y-113444500D01*
X128716770Y-113456131D01*
X128716769Y-113456132D01*
X128650447Y-113500447D01*
X128606132Y-113566769D01*
X128606131Y-113566770D01*
X128594500Y-113625247D01*
X128594500Y-114163841D01*
X128586741Y-114207016D01*
X128423905Y-114645417D01*
X128420268Y-114655206D01*
X128413616Y-114666731D01*
X128407470Y-114689662D01*
X128405443Y-114695122D01*
X128399195Y-114711945D01*
X128399193Y-114711956D01*
X128398923Y-114714826D01*
X128398124Y-114721412D01*
X128397080Y-114728442D01*
X128394500Y-114738072D01*
X128394500Y-114745818D01*
X128393155Y-114754877D01*
X128382181Y-114778615D01*
X128374815Y-114803704D01*
X128364892Y-114816017D01*
X128363838Y-114818299D01*
X128362229Y-114819322D01*
X128358182Y-114824345D01*
X128322796Y-114859731D01*
X128322795Y-114859733D01*
X128277415Y-114962506D01*
X128277415Y-114962508D01*
X128274500Y-114987631D01*
X116194354Y-114987631D01*
X114973016Y-112872273D01*
X121242000Y-112872273D01*
X121242000Y-112977727D01*
X121269293Y-113079587D01*
X121322020Y-113170913D01*
X121396587Y-113245480D01*
X121487913Y-113298207D01*
X121589773Y-113325500D01*
X121589775Y-113325500D01*
X121695225Y-113325500D01*
X121695227Y-113325500D01*
X121797087Y-113298207D01*
X121888413Y-113245480D01*
X121962980Y-113170913D01*
X122015707Y-113079587D01*
X122043000Y-112977727D01*
X122043000Y-112872273D01*
X122015707Y-112770413D01*
X121993129Y-112731307D01*
X125774499Y-112731307D01*
X125806222Y-112890783D01*
X125806225Y-112890793D01*
X125868450Y-113041019D01*
X125868452Y-113041023D01*
X125958788Y-113176220D01*
X125958794Y-113176228D01*
X126073771Y-113291205D01*
X126073779Y-113291211D01*
X126208976Y-113381547D01*
X126208980Y-113381549D01*
X126347099Y-113438759D01*
X126359211Y-113443776D01*
X126359215Y-113443776D01*
X126359216Y-113443777D01*
X126518692Y-113475500D01*
X126518695Y-113475500D01*
X126681307Y-113475500D01*
X126788598Y-113454157D01*
X126840789Y-113443776D01*
X126970652Y-113389985D01*
X126991019Y-113381549D01*
X126991023Y-113381547D01*
X127115750Y-113298207D01*
X127126225Y-113291208D01*
X127241208Y-113176225D01*
X127331548Y-113041021D01*
X127393776Y-112890789D01*
X127417721Y-112770413D01*
X127425500Y-112731307D01*
X127425500Y-112568692D01*
X127393777Y-112409216D01*
X127393776Y-112409215D01*
X127393776Y-112409211D01*
X127338261Y-112275185D01*
X127331549Y-112258980D01*
X127331547Y-112258976D01*
X127241211Y-112123779D01*
X127241205Y-112123771D01*
X127126228Y-112008794D01*
X127126220Y-112008788D01*
X126991023Y-111918452D01*
X126991019Y-111918450D01*
X126840793Y-111856225D01*
X126840783Y-111856222D01*
X126681307Y-111824500D01*
X126681305Y-111824500D01*
X126518695Y-111824500D01*
X126518693Y-111824500D01*
X126359216Y-111856222D01*
X126359206Y-111856225D01*
X126208980Y-111918450D01*
X126208976Y-111918452D01*
X126073779Y-112008788D01*
X126073771Y-112008794D01*
X125958794Y-112123771D01*
X125958788Y-112123779D01*
X125868452Y-112258976D01*
X125868450Y-112258980D01*
X125806225Y-112409206D01*
X125806222Y-112409216D01*
X125774500Y-112568692D01*
X125774500Y-112568695D01*
X125774500Y-112731305D01*
X125774500Y-112731307D01*
X125774499Y-112731307D01*
X121993129Y-112731307D01*
X121962980Y-112679087D01*
X121888413Y-112604520D01*
X121797087Y-112551793D01*
X121695227Y-112524500D01*
X121589773Y-112524500D01*
X121487913Y-112551793D01*
X121487910Y-112551794D01*
X121396585Y-112604521D01*
X121322021Y-112679085D01*
X121269294Y-112770410D01*
X121269293Y-112770413D01*
X121242000Y-112872273D01*
X114973016Y-112872273D01*
X113493194Y-110309222D01*
X125401800Y-110309222D01*
X125403848Y-110326146D01*
X125408072Y-110361038D01*
X125423382Y-110421562D01*
X125423389Y-110421586D01*
X125428823Y-110439567D01*
X125428825Y-110439573D01*
X125477682Y-110516880D01*
X125477685Y-110516884D01*
X125527216Y-110566157D01*
X125527223Y-110566163D01*
X125574127Y-110601084D01*
X125574134Y-110601089D01*
X128549319Y-112215606D01*
X128549322Y-112215607D01*
X128549328Y-112215610D01*
X128581955Y-112228373D01*
X128596771Y-112234169D01*
X128596771Y-112234170D01*
X128655911Y-112249182D01*
X128655913Y-112249182D01*
X128655916Y-112249183D01*
X128706477Y-112255500D01*
X128706482Y-112255500D01*
X129225738Y-112255500D01*
X129235916Y-112255000D01*
X129414084Y-112255000D01*
X129424262Y-112255500D01*
X129425252Y-112255500D01*
X129874750Y-112255500D01*
X129874751Y-112255499D01*
X129889568Y-112252552D01*
X129933229Y-112243868D01*
X129933229Y-112243867D01*
X129933231Y-112243867D01*
X129999552Y-112199552D01*
X130043867Y-112133231D01*
X130043867Y-112133229D01*
X130043868Y-112133229D01*
X130055499Y-112074752D01*
X130055500Y-112074750D01*
X130055500Y-111525249D01*
X130055499Y-111525247D01*
X130043868Y-111466770D01*
X130043867Y-111466769D01*
X129999551Y-111400446D01*
X129990916Y-111391811D01*
X129992048Y-111390678D01*
X129974417Y-111373384D01*
X129972274Y-111370309D01*
X129972273Y-111370307D01*
X129932350Y-111327560D01*
X129518652Y-110995245D01*
X128576845Y-110238710D01*
X128536907Y-110181380D01*
X128530500Y-110142037D01*
X128530500Y-109550142D01*
X128525601Y-109505548D01*
X128525598Y-109505534D01*
X128513916Y-109452999D01*
X128513915Y-109452993D01*
X128511126Y-109441911D01*
X128496542Y-109415140D01*
X128467376Y-109361601D01*
X128456150Y-109348885D01*
X128421134Y-109309219D01*
X128421122Y-109309207D01*
X128421112Y-109309196D01*
X128403383Y-109291431D01*
X128403380Y-109291429D01*
X128403379Y-109291428D01*
X128323153Y-109247519D01*
X128323152Y-109247518D01*
X128323149Y-109247517D01*
X128278342Y-109234808D01*
X128255937Y-109228453D01*
X128255935Y-109228452D01*
X128255933Y-109228452D01*
X128197963Y-109220661D01*
X128002215Y-109222466D01*
X127944776Y-109208955D01*
X127908127Y-109190281D01*
X127908124Y-109190280D01*
X127808493Y-109174500D01*
X127808488Y-109174500D01*
X127291512Y-109174500D01*
X127291507Y-109174500D01*
X127191875Y-109190280D01*
X127191871Y-109190281D01*
X127138596Y-109217426D01*
X127083445Y-109230936D01*
X126529792Y-109236040D01*
X126472357Y-109222531D01*
X126458127Y-109215281D01*
X126458123Y-109215279D01*
X126358493Y-109199500D01*
X126358488Y-109199500D01*
X125841512Y-109199500D01*
X125841507Y-109199500D01*
X125741875Y-109215280D01*
X125741871Y-109215281D01*
X125681179Y-109246205D01*
X125651393Y-109256854D01*
X125641703Y-109258974D01*
X125633132Y-109261042D01*
X125552120Y-109303501D01*
X125499013Y-109348885D01*
X125480937Y-109366353D01*
X125435741Y-109445863D01*
X125435739Y-109445869D01*
X125415599Y-109512751D01*
X125415595Y-109512767D01*
X125406874Y-109570596D01*
X125406873Y-109570606D01*
X125402948Y-110142037D01*
X125401800Y-110309222D01*
X113493194Y-110309222D01*
X111962076Y-107657326D01*
X118388225Y-107657326D01*
X118388395Y-107748779D01*
X118402121Y-107808408D01*
X118426167Y-107868031D01*
X118426174Y-107868046D01*
X118924839Y-108699153D01*
X118924847Y-108699167D01*
X118940942Y-108722245D01*
X118940947Y-108722252D01*
X118957848Y-108743259D01*
X118958228Y-108743730D01*
X118958232Y-108743734D01*
X119018103Y-108790819D01*
X119030115Y-108800266D01*
X119085420Y-108826440D01*
X119119999Y-108839152D01*
X119211389Y-108842637D01*
X119271515Y-108831305D01*
X119332055Y-108809660D01*
X121682986Y-107523995D01*
X131744500Y-107523995D01*
X131744500Y-108301005D01*
X131747029Y-108333138D01*
X131751881Y-108363777D01*
X131752646Y-108368282D01*
X131752647Y-108368285D01*
X131752648Y-108368287D01*
X131788592Y-108452383D01*
X131824556Y-108501883D01*
X131848797Y-108529628D01*
X131927307Y-108576536D01*
X131985498Y-108595443D01*
X132014268Y-108599999D01*
X132048996Y-108605500D01*
X132049000Y-108605500D01*
X133471643Y-108605500D01*
X133473245Y-108605472D01*
X133478609Y-108605382D01*
X133485325Y-108605154D01*
X133492295Y-108604799D01*
X139633237Y-108187214D01*
X139701458Y-108202305D01*
X139706918Y-108205495D01*
X140581139Y-108746680D01*
X140611501Y-108762153D01*
X140611507Y-108762155D01*
X140611514Y-108762159D01*
X140611522Y-108762162D01*
X140641743Y-108774525D01*
X140644688Y-108775675D01*
X140647790Y-108776888D01*
X140738444Y-108788972D01*
X140739267Y-108788896D01*
X140766847Y-108789434D01*
X140777359Y-108790818D01*
X140777361Y-108790819D01*
X140777363Y-108790818D01*
X140777364Y-108790819D01*
X140789765Y-108790005D01*
X140856954Y-108785601D01*
X140928493Y-108750323D01*
X140967809Y-108705492D01*
X141020644Y-108613977D01*
X141021257Y-108612930D01*
X141450380Y-107891226D01*
X141465123Y-107861066D01*
X141476867Y-107831045D01*
X141478949Y-107825486D01*
X141478949Y-107825481D01*
X141481010Y-107819980D01*
X141485288Y-107810920D01*
X141485043Y-107810809D01*
X141487552Y-107805270D01*
X141487557Y-107805262D01*
X141506724Y-107748798D01*
X141501506Y-107669205D01*
X141466228Y-107597666D01*
X141458440Y-107590836D01*
X141436148Y-107563255D01*
X141435845Y-107563473D01*
X141432160Y-107558321D01*
X141431897Y-107557996D01*
X141431793Y-107557809D01*
X141390849Y-107512344D01*
X141390842Y-107512338D01*
X141390841Y-107512337D01*
X141340886Y-107471891D01*
X141340877Y-107471885D01*
X138388942Y-105767922D01*
X138384883Y-105765804D01*
X138373385Y-105759806D01*
X138358110Y-105752649D01*
X138358108Y-105752648D01*
X138358109Y-105752648D01*
X138278882Y-105733390D01*
X138217745Y-105731019D01*
X138217740Y-105731020D01*
X138153896Y-105738610D01*
X133609274Y-107022959D01*
X133597733Y-107025633D01*
X132542471Y-107217500D01*
X132520289Y-107219500D01*
X132048994Y-107219500D01*
X132016861Y-107222029D01*
X131986222Y-107226881D01*
X131981717Y-107227646D01*
X131981714Y-107227647D01*
X131897617Y-107263592D01*
X131848115Y-107299557D01*
X131820371Y-107323797D01*
X131773464Y-107402305D01*
X131754557Y-107460494D01*
X131754557Y-107460497D01*
X131744500Y-107523995D01*
X121682986Y-107523995D01*
X122420588Y-107120619D01*
X122471170Y-107081651D01*
X122512967Y-107037532D01*
X122549146Y-106984920D01*
X123871002Y-104223184D01*
X123918524Y-104123898D01*
X123918524Y-104123896D01*
X123918534Y-104123877D01*
X123923585Y-104112444D01*
X123928118Y-104101276D01*
X123943194Y-104026128D01*
X123943831Y-103964946D01*
X123934436Y-103901345D01*
X123893347Y-103770252D01*
X123893345Y-103770247D01*
X126325000Y-103770247D01*
X126325000Y-104459752D01*
X126336631Y-104518229D01*
X126336632Y-104518230D01*
X126380947Y-104584552D01*
X126447269Y-104628867D01*
X126458554Y-104633542D01*
X126457866Y-104635201D01*
X126506744Y-104660769D01*
X126541317Y-104721486D01*
X126537576Y-104791255D01*
X126496709Y-104847926D01*
X126458168Y-104865526D01*
X126458554Y-104866458D01*
X126447269Y-104871132D01*
X126380947Y-104915447D01*
X126336632Y-104981769D01*
X126336631Y-104981770D01*
X126325000Y-105040247D01*
X126325000Y-105729752D01*
X126336631Y-105788229D01*
X126336632Y-105788230D01*
X126380947Y-105854552D01*
X126447269Y-105898867D01*
X126458554Y-105903542D01*
X126457866Y-105905201D01*
X126506744Y-105930769D01*
X126541317Y-105991486D01*
X126537576Y-106061255D01*
X126496709Y-106117926D01*
X126458168Y-106135526D01*
X126458554Y-106136458D01*
X126447269Y-106141132D01*
X126380947Y-106185447D01*
X126336632Y-106251769D01*
X126336631Y-106251770D01*
X126325000Y-106310247D01*
X126325000Y-106999752D01*
X126336631Y-107058229D01*
X126336632Y-107058230D01*
X126380947Y-107124552D01*
X126447269Y-107168867D01*
X126447270Y-107168868D01*
X126505747Y-107180499D01*
X126505750Y-107180500D01*
X126505752Y-107180500D01*
X128070250Y-107180500D01*
X128070251Y-107180499D01*
X128085068Y-107177552D01*
X128128729Y-107168868D01*
X128128729Y-107168867D01*
X128128731Y-107168867D01*
X128195052Y-107124552D01*
X128239367Y-107058231D01*
X128239367Y-107058229D01*
X128239368Y-107058229D01*
X128250999Y-106999752D01*
X128251000Y-106999750D01*
X128251000Y-106310249D01*
X128250999Y-106310247D01*
X128239368Y-106251770D01*
X128239367Y-106251769D01*
X128195052Y-106185447D01*
X128128730Y-106141132D01*
X128117446Y-106136458D01*
X128118133Y-106134798D01*
X128069257Y-106109232D01*
X128034683Y-106048517D01*
X128038422Y-105978747D01*
X128079288Y-105922075D01*
X128117831Y-105904473D01*
X128117446Y-105903542D01*
X128128729Y-105898867D01*
X128128731Y-105898867D01*
X128195052Y-105854552D01*
X128239367Y-105788231D01*
X128239367Y-105788229D01*
X128239368Y-105788229D01*
X128249237Y-105738610D01*
X128251000Y-105729748D01*
X128251000Y-105040252D01*
X128251000Y-105040249D01*
X128250999Y-105040247D01*
X128239368Y-104981770D01*
X128239367Y-104981769D01*
X128195052Y-104915447D01*
X128128730Y-104871132D01*
X128117446Y-104866458D01*
X128118133Y-104864798D01*
X128069257Y-104839232D01*
X128034683Y-104778517D01*
X128038422Y-104708747D01*
X128079288Y-104652075D01*
X128117831Y-104634473D01*
X128117446Y-104633542D01*
X128128729Y-104628867D01*
X128128731Y-104628867D01*
X128195052Y-104584552D01*
X128239367Y-104518231D01*
X128239367Y-104518229D01*
X128239368Y-104518229D01*
X128250999Y-104459752D01*
X128251000Y-104459750D01*
X128251000Y-103770249D01*
X128250999Y-103770247D01*
X128239368Y-103711770D01*
X128239367Y-103711769D01*
X128195052Y-103645447D01*
X128128730Y-103601132D01*
X128128729Y-103601131D01*
X128070252Y-103589500D01*
X128070248Y-103589500D01*
X127632299Y-103589500D01*
X127629370Y-103588640D01*
X127626403Y-103589360D01*
X127596052Y-103578856D01*
X127565260Y-103569815D01*
X127563261Y-103567509D01*
X127560375Y-103566510D01*
X127540518Y-103541261D01*
X127519505Y-103517011D01*
X127518501Y-103513266D01*
X127517183Y-103511590D01*
X127508861Y-103477291D01*
X127506608Y-103453708D01*
X127486958Y-103247994D01*
X127500178Y-103179389D01*
X127542017Y-103135505D01*
X127540782Y-103133702D01*
X127550259Y-103127208D01*
X127550265Y-103127206D01*
X127629706Y-103047765D01*
X127675085Y-102944991D01*
X127678000Y-102919865D01*
X127677999Y-102630136D01*
X127677997Y-102630117D01*
X127675086Y-102605012D01*
X127675085Y-102605010D01*
X127675085Y-102605009D01*
X127629706Y-102502235D01*
X127550265Y-102422794D01*
X127550263Y-102422793D01*
X127447492Y-102377415D01*
X127422365Y-102374500D01*
X126897643Y-102374500D01*
X126897617Y-102374502D01*
X126872512Y-102377413D01*
X126872508Y-102377415D01*
X126769735Y-102422793D01*
X126690294Y-102502234D01*
X126644915Y-102605006D01*
X126644915Y-102605008D01*
X126642000Y-102630131D01*
X126642000Y-102919856D01*
X126642002Y-102919882D01*
X126644913Y-102944987D01*
X126644915Y-102944991D01*
X126690293Y-103047764D01*
X126690294Y-103047765D01*
X126769735Y-103127206D01*
X126851682Y-103163389D01*
X126861442Y-103171633D01*
X126873517Y-103175812D01*
X126887623Y-103193747D01*
X126905056Y-103208473D01*
X126909826Y-103221978D01*
X126916710Y-103230731D01*
X126925032Y-103265030D01*
X126927503Y-103290894D01*
X126942431Y-103447172D01*
X126943056Y-103453708D01*
X126929836Y-103522316D01*
X126881622Y-103572885D01*
X126819618Y-103589500D01*
X126505747Y-103589500D01*
X126447270Y-103601131D01*
X126447269Y-103601132D01*
X126380947Y-103645447D01*
X126336632Y-103711769D01*
X126336631Y-103711770D01*
X126325000Y-103770247D01*
X123893345Y-103770247D01*
X123421887Y-102266066D01*
X123421665Y-102265389D01*
X123420189Y-102260889D01*
X123418490Y-102255931D01*
X123416653Y-102250797D01*
X123107936Y-101422273D01*
X129149500Y-101422273D01*
X129149500Y-101527727D01*
X129176793Y-101629587D01*
X129229520Y-101720913D01*
X129304087Y-101795480D01*
X129387133Y-101843426D01*
X129390196Y-101845195D01*
X129438412Y-101895762D01*
X129451634Y-101964370D01*
X129447971Y-101984674D01*
X129424500Y-102072271D01*
X129424500Y-102072273D01*
X129424500Y-102177727D01*
X129451793Y-102279587D01*
X129504520Y-102370913D01*
X129579087Y-102445480D01*
X129670413Y-102498207D01*
X129772273Y-102525500D01*
X129772275Y-102525500D01*
X129877725Y-102525500D01*
X129877727Y-102525500D01*
X129979587Y-102498207D01*
X130070913Y-102445480D01*
X130145480Y-102370913D01*
X130198207Y-102279587D01*
X130219837Y-102198862D01*
X131444500Y-102198862D01*
X131444500Y-104451007D01*
X131449197Y-104494686D01*
X131460397Y-104546174D01*
X131462890Y-104556372D01*
X131462891Y-104556375D01*
X131505899Y-104637083D01*
X131505901Y-104637086D01*
X131551660Y-104689895D01*
X131569242Y-104707839D01*
X131569246Y-104707843D01*
X131587617Y-104718119D01*
X131636514Y-104768023D01*
X131650670Y-104836444D01*
X131645014Y-104864655D01*
X131629556Y-104912229D01*
X131619500Y-104975725D01*
X131619500Y-105824622D01*
X131622256Y-105858154D01*
X131622259Y-105858180D01*
X131627529Y-105890026D01*
X131628405Y-105894874D01*
X131628611Y-105896010D01*
X131665720Y-105979599D01*
X131693506Y-106016747D01*
X131702371Y-106028599D01*
X131720267Y-106048517D01*
X131726991Y-106056001D01*
X131806146Y-106101814D01*
X131864594Y-106119911D01*
X131928229Y-106129085D01*
X131928237Y-106129084D01*
X131928239Y-106129085D01*
X132111375Y-106126541D01*
X133613103Y-106105684D01*
X133643350Y-106103021D01*
X133672148Y-106098321D01*
X133701678Y-106091227D01*
X136775895Y-105107478D01*
X136787015Y-105103565D01*
X136797608Y-105099492D01*
X136830166Y-105079404D01*
X138570275Y-105079404D01*
X138572116Y-105107473D01*
X138575494Y-105158998D01*
X138610772Y-105230537D01*
X138610773Y-105230538D01*
X138655599Y-105269850D01*
X138655601Y-105269851D01*
X138655603Y-105269853D01*
X140188250Y-106154727D01*
X141717304Y-107037527D01*
X141720897Y-107039601D01*
X141749874Y-107049437D01*
X141777360Y-107058768D01*
X141777360Y-107058767D01*
X141777361Y-107058768D01*
X141856954Y-107053550D01*
X141928493Y-107018272D01*
X141967809Y-106973441D01*
X142487557Y-106073211D01*
X142506724Y-106016747D01*
X142501506Y-105937154D01*
X142466228Y-105865615D01*
X142457738Y-105858169D01*
X142421400Y-105826301D01*
X142421394Y-105826297D01*
X139356104Y-104056551D01*
X139356098Y-104056549D01*
X139299639Y-104037383D01*
X139220046Y-104042602D01*
X139148505Y-104077881D01*
X139109193Y-104122707D01*
X139109189Y-104122713D01*
X138589443Y-105022939D01*
X138589441Y-105022945D01*
X138570275Y-105079404D01*
X136830166Y-105079404D01*
X136862205Y-105059636D01*
X136907448Y-105018444D01*
X136947634Y-104968254D01*
X137871547Y-103347353D01*
X139570275Y-103347353D01*
X139573629Y-103398499D01*
X139575494Y-103426947D01*
X139610772Y-103498486D01*
X139610773Y-103498487D01*
X139655599Y-103537799D01*
X139655601Y-103537800D01*
X139655603Y-103537802D01*
X140818973Y-104209474D01*
X142683950Y-105286219D01*
X142720897Y-105307550D01*
X142749874Y-105317386D01*
X142777360Y-105326717D01*
X142777360Y-105326716D01*
X142777361Y-105326717D01*
X142856954Y-105321499D01*
X142928493Y-105286221D01*
X142967809Y-105241390D01*
X143487557Y-104341160D01*
X143506724Y-104284696D01*
X143501506Y-104205103D01*
X143466228Y-104133564D01*
X143466226Y-104133562D01*
X143421400Y-104094250D01*
X143421394Y-104094246D01*
X140356104Y-102324500D01*
X140356098Y-102324498D01*
X140299639Y-102305332D01*
X140220046Y-102310551D01*
X140148505Y-102345830D01*
X140109193Y-102390656D01*
X140109189Y-102390662D01*
X139589443Y-103290888D01*
X139589441Y-103290894D01*
X139570275Y-103347353D01*
X137871547Y-103347353D01*
X138858815Y-101615303D01*
X140570275Y-101615303D01*
X140575151Y-101689678D01*
X140575494Y-101694897D01*
X140610772Y-101766436D01*
X140610773Y-101766437D01*
X140655599Y-101805749D01*
X140655601Y-101805750D01*
X140655603Y-101805752D01*
X142083478Y-102630136D01*
X143716367Y-103572885D01*
X143720897Y-103575500D01*
X143749874Y-103585336D01*
X143777360Y-103594667D01*
X143777360Y-103594666D01*
X143777361Y-103594667D01*
X143856954Y-103589449D01*
X143928493Y-103554171D01*
X143967809Y-103509340D01*
X144487557Y-102609110D01*
X144506724Y-102552646D01*
X144501506Y-102473053D01*
X144466228Y-102401514D01*
X144453854Y-102390662D01*
X144421400Y-102362200D01*
X144421394Y-102362196D01*
X143408305Y-101777289D01*
X143189469Y-101650944D01*
X145659026Y-101650944D01*
X145659026Y-101756398D01*
X145686319Y-101858258D01*
X145739046Y-101949584D01*
X145813613Y-102024151D01*
X145904939Y-102076878D01*
X146006799Y-102104171D01*
X146006801Y-102104171D01*
X146112251Y-102104171D01*
X146112253Y-102104171D01*
X146214113Y-102076878D01*
X146305439Y-102024151D01*
X146380006Y-101949584D01*
X146432733Y-101858258D01*
X146460026Y-101756398D01*
X146460026Y-101650944D01*
X146432733Y-101549084D01*
X146380006Y-101457758D01*
X146305439Y-101383191D01*
X146214113Y-101330464D01*
X146112253Y-101303171D01*
X146006799Y-101303171D01*
X145904939Y-101330464D01*
X145904936Y-101330465D01*
X145813611Y-101383192D01*
X145739047Y-101457756D01*
X145686320Y-101549081D01*
X145686319Y-101549084D01*
X145659026Y-101650944D01*
X143189469Y-101650944D01*
X142976045Y-101527724D01*
X141356104Y-100592450D01*
X141356098Y-100592448D01*
X141299639Y-100573282D01*
X141220046Y-100578501D01*
X141148505Y-100613780D01*
X141109193Y-100658606D01*
X141109189Y-100658612D01*
X140589443Y-101558838D01*
X140589441Y-101558844D01*
X140570275Y-101615303D01*
X138858815Y-101615303D01*
X138896562Y-101549081D01*
X139007424Y-101354586D01*
X139733550Y-100080678D01*
X139780232Y-100034152D01*
X142578962Y-98451265D01*
X142647005Y-98435397D01*
X142706578Y-98454585D01*
X143560190Y-98997792D01*
X145487327Y-100224152D01*
X145508632Y-100235996D01*
X145529764Y-100246153D01*
X145615667Y-100266413D01*
X145676846Y-100267342D01*
X145676859Y-100267341D01*
X145676865Y-100267341D01*
X145696287Y-100265889D01*
X145713585Y-100264597D01*
X145798218Y-100229934D01*
X145848258Y-100194726D01*
X145894406Y-100149958D01*
X145985870Y-100028006D01*
X145992894Y-100018038D01*
X145999371Y-100008241D01*
X146005792Y-99997872D01*
X146502416Y-99140065D01*
X146516937Y-99109391D01*
X146528400Y-99078887D01*
X146530527Y-99072951D01*
X146540056Y-98981992D01*
X146532730Y-98921247D01*
X146525058Y-98885214D01*
X146479303Y-98806026D01*
X146469037Y-98794969D01*
X146437673Y-98761189D01*
X146387090Y-98721494D01*
X144179706Y-97491707D01*
X142625646Y-96625902D01*
X142593565Y-96611475D01*
X142561701Y-96600314D01*
X142561683Y-96600308D01*
X142554542Y-96597953D01*
X142518062Y-96595181D01*
X142463347Y-96591025D01*
X142463345Y-96591025D01*
X142463344Y-96591025D01*
X142402845Y-96600080D01*
X142402839Y-96600081D01*
X142402838Y-96600082D01*
X142366733Y-96611475D01*
X142341517Y-96619432D01*
X137944607Y-98812969D01*
X137944606Y-98812969D01*
X137895990Y-98846752D01*
X137854775Y-98885286D01*
X137817801Y-98931532D01*
X134745899Y-104175289D01*
X134695027Y-104223184D01*
X134689737Y-104225714D01*
X134243039Y-104426469D01*
X134173821Y-104435995D01*
X134110442Y-104406588D01*
X134073022Y-104347583D01*
X134073444Y-104277715D01*
X134083255Y-104254161D01*
X134466086Y-103549754D01*
X134484219Y-103504089D01*
X134499249Y-103447168D01*
X134506024Y-103398500D01*
X134528128Y-102202203D01*
X134523838Y-102156467D01*
X134523837Y-102156461D01*
X134512595Y-102102535D01*
X134509675Y-102090392D01*
X134509674Y-102090390D01*
X134502454Y-102076878D01*
X134466573Y-102009727D01*
X134420758Y-101956975D01*
X134403147Y-101939041D01*
X134323279Y-101894484D01*
X134256218Y-101874875D01*
X134256219Y-101874875D01*
X134241741Y-101872810D01*
X134198312Y-101866616D01*
X134198309Y-101866616D01*
X132379796Y-101868673D01*
X131773624Y-101869359D01*
X131773616Y-101869359D01*
X131730055Y-101874081D01*
X131678675Y-101885289D01*
X131668627Y-101887749D01*
X131668624Y-101887750D01*
X131587916Y-101930758D01*
X131587913Y-101930760D01*
X131535104Y-101976519D01*
X131517160Y-101994101D01*
X131517154Y-101994108D01*
X131472511Y-102073918D01*
X131472509Y-102073923D01*
X131452826Y-102140955D01*
X131452825Y-102140960D01*
X131452825Y-102140961D01*
X131450596Y-102156467D01*
X131444500Y-102198862D01*
X130219837Y-102198862D01*
X130225500Y-102177727D01*
X130225500Y-102072273D01*
X130198207Y-101970413D01*
X130145480Y-101879087D01*
X130070913Y-101804520D01*
X129984801Y-101754803D01*
X129936587Y-101704236D01*
X129923365Y-101635629D01*
X129927025Y-101615334D01*
X129950500Y-101527727D01*
X129950500Y-101422273D01*
X129923207Y-101320413D01*
X129870480Y-101229087D01*
X129795913Y-101154520D01*
X129783361Y-101147273D01*
X132374500Y-101147273D01*
X132374500Y-101252727D01*
X132401793Y-101354587D01*
X132454520Y-101445913D01*
X132529087Y-101520480D01*
X132620413Y-101573207D01*
X132722273Y-101600500D01*
X132722275Y-101600500D01*
X132827725Y-101600500D01*
X132827727Y-101600500D01*
X132929587Y-101573207D01*
X133020913Y-101520480D01*
X133095480Y-101445913D01*
X133148207Y-101354587D01*
X133175500Y-101252727D01*
X133175500Y-101147273D01*
X133148207Y-101045413D01*
X133095480Y-100954087D01*
X133020913Y-100879520D01*
X132929587Y-100826793D01*
X132827727Y-100799500D01*
X132722273Y-100799500D01*
X132620413Y-100826793D01*
X132620410Y-100826794D01*
X132529085Y-100879521D01*
X132454521Y-100954085D01*
X132401794Y-101045410D01*
X132401793Y-101045413D01*
X132374500Y-101147273D01*
X129783361Y-101147273D01*
X129704587Y-101101793D01*
X129602727Y-101074500D01*
X129497273Y-101074500D01*
X129395413Y-101101793D01*
X129395410Y-101101794D01*
X129304085Y-101154521D01*
X129229521Y-101229085D01*
X129176794Y-101320410D01*
X129176793Y-101320413D01*
X129149500Y-101422273D01*
X123107936Y-101422273D01*
X121351284Y-96707837D01*
X124663653Y-96707837D01*
X124663653Y-96707854D01*
X124667948Y-96766183D01*
X124667949Y-96766185D01*
X125011665Y-98330347D01*
X125011671Y-98330369D01*
X125011672Y-98330373D01*
X125017169Y-98349163D01*
X125019553Y-98357310D01*
X125031227Y-98389000D01*
X125031231Y-98389007D01*
X125077271Y-98461785D01*
X125077275Y-98461789D01*
X125126174Y-98511696D01*
X125172638Y-98547224D01*
X125587151Y-98779087D01*
X125837582Y-98919169D01*
X125886481Y-98969076D01*
X125900635Y-99037497D01*
X125899987Y-99043576D01*
X125899500Y-99047272D01*
X125899500Y-99047273D01*
X125899500Y-99152727D01*
X125926793Y-99254587D01*
X125979520Y-99345913D01*
X126054087Y-99420480D01*
X126145413Y-99473207D01*
X126247273Y-99500500D01*
X126247275Y-99500500D01*
X126352725Y-99500500D01*
X126352727Y-99500500D01*
X126454587Y-99473207D01*
X126545913Y-99420480D01*
X126546968Y-99419424D01*
X126548082Y-99418816D01*
X126552364Y-99415531D01*
X126552876Y-99416198D01*
X126608287Y-99385937D01*
X126677979Y-99390916D01*
X126695188Y-99398881D01*
X127067347Y-99607053D01*
X127109996Y-99624945D01*
X127110000Y-99624946D01*
X127110002Y-99624947D01*
X127119777Y-99627805D01*
X127163229Y-99640510D01*
X127175631Y-99643721D01*
X127267087Y-99643512D01*
X127335169Y-99627809D01*
X127359272Y-99620671D01*
X127436097Y-99571050D01*
X127484882Y-99521031D01*
X127514298Y-99480695D01*
X127569701Y-99438132D01*
X127639325Y-99432277D01*
X127701062Y-99464993D01*
X127735310Y-99525893D01*
X127734258Y-99585855D01*
X127724500Y-99622273D01*
X127724500Y-99727727D01*
X127751793Y-99829587D01*
X127804520Y-99920913D01*
X127879087Y-99995480D01*
X127970413Y-100048207D01*
X128072273Y-100075500D01*
X128072275Y-100075500D01*
X128177725Y-100075500D01*
X128177727Y-100075500D01*
X128279587Y-100048207D01*
X128370913Y-99995480D01*
X128377550Y-99988842D01*
X128433136Y-99956748D01*
X128477387Y-99944892D01*
X128568073Y-99878577D01*
X128583161Y-99858275D01*
X128845524Y-99403846D01*
X128855564Y-99380628D01*
X128867652Y-99268934D01*
X128838574Y-99160415D01*
X128772259Y-99069729D01*
X128751957Y-99054641D01*
X128501044Y-98909778D01*
X128501022Y-98909767D01*
X128492933Y-98906270D01*
X128439212Y-98861595D01*
X128418172Y-98794969D01*
X128432805Y-98733973D01*
X128847160Y-97959309D01*
X128871725Y-97927303D01*
X129691886Y-97159002D01*
X129754268Y-97127537D01*
X129776658Y-97125499D01*
X129904856Y-97125499D01*
X129904864Y-97125499D01*
X129904879Y-97125497D01*
X129904882Y-97125497D01*
X129929987Y-97122586D01*
X129929987Y-97122585D01*
X129929991Y-97122585D01*
X129999915Y-97091710D01*
X130025115Y-97088410D01*
X130049472Y-97081146D01*
X130061468Y-97083650D01*
X130069190Y-97082639D01*
X130084428Y-97086020D01*
X130092443Y-97088336D01*
X130170009Y-97122585D01*
X130195135Y-97125500D01*
X130221029Y-97125499D01*
X130237895Y-97130374D01*
X130253148Y-97140085D01*
X130270497Y-97145178D01*
X130282007Y-97158460D01*
X130296833Y-97167899D01*
X130304414Y-97184313D01*
X130316256Y-97197978D01*
X130321322Y-97210950D01*
X130579935Y-98001613D01*
X130581876Y-98008152D01*
X130588537Y-98033080D01*
X130592446Y-98039863D01*
X130594879Y-98047299D01*
X130610828Y-98071754D01*
X130625420Y-98097069D01*
X130630952Y-98102609D01*
X130635226Y-98109162D01*
X130656956Y-98128652D01*
X130659366Y-98131065D01*
X130677604Y-98149329D01*
X130677607Y-98149332D01*
X130684383Y-98153250D01*
X130690208Y-98158475D01*
X130716248Y-98171678D01*
X132638495Y-99283339D01*
X132745610Y-99345285D01*
X132746017Y-99345557D01*
X132752767Y-99349454D01*
X132752769Y-99349456D01*
X132784393Y-99367714D01*
X132784456Y-99367780D01*
X132784469Y-99367758D01*
X132816540Y-99386305D01*
X132816726Y-99386382D01*
X132816728Y-99386382D01*
X132816731Y-99386384D01*
X132852089Y-99395857D01*
X132852172Y-99395907D01*
X132852179Y-99395882D01*
X132878409Y-99402930D01*
X132887869Y-99405473D01*
X132887874Y-99405473D01*
X132888068Y-99405498D01*
X132888072Y-99405500D01*
X132888076Y-99405500D01*
X132924798Y-99405500D01*
X132961726Y-99405527D01*
X132961728Y-99405526D01*
X132969516Y-99405532D01*
X132970019Y-99405500D01*
X133056306Y-99405500D01*
X133088398Y-99409725D01*
X133110068Y-99415531D01*
X133147273Y-99425500D01*
X133147275Y-99425500D01*
X133252725Y-99425500D01*
X133252727Y-99425500D01*
X133354587Y-99398207D01*
X133445913Y-99345480D01*
X133520480Y-99270913D01*
X133573207Y-99179587D01*
X133600500Y-99077727D01*
X133600500Y-99076023D01*
X134227405Y-99076023D01*
X134227405Y-99181477D01*
X134254698Y-99283337D01*
X134307425Y-99374663D01*
X134381992Y-99449230D01*
X134473318Y-99501957D01*
X134575178Y-99529250D01*
X134575180Y-99529250D01*
X134680630Y-99529250D01*
X134680632Y-99529250D01*
X134782492Y-99501957D01*
X134873818Y-99449230D01*
X134948385Y-99374663D01*
X135001112Y-99283337D01*
X135028405Y-99181477D01*
X135028405Y-99076023D01*
X135019379Y-99042337D01*
X135021041Y-98972489D01*
X135060202Y-98914626D01*
X135107057Y-98890470D01*
X135157492Y-98876957D01*
X135248818Y-98824230D01*
X135323385Y-98749663D01*
X135376112Y-98658337D01*
X135403405Y-98556477D01*
X135403405Y-98451023D01*
X135376112Y-98349163D01*
X135323385Y-98257837D01*
X135248818Y-98183270D01*
X135157492Y-98130543D01*
X135055632Y-98103250D01*
X134950178Y-98103250D01*
X134848318Y-98130543D01*
X134848315Y-98130544D01*
X134756990Y-98183271D01*
X134682426Y-98257835D01*
X134629699Y-98349160D01*
X134629698Y-98349163D01*
X134602405Y-98451023D01*
X134602405Y-98556476D01*
X134611431Y-98590162D01*
X134609768Y-98660012D01*
X134570605Y-98717874D01*
X134523750Y-98742030D01*
X134473316Y-98755543D01*
X134473315Y-98755544D01*
X134381990Y-98808271D01*
X134307426Y-98882835D01*
X134254699Y-98974160D01*
X134254698Y-98974163D01*
X134227405Y-99076023D01*
X133600500Y-99076023D01*
X133600500Y-98972273D01*
X133573207Y-98870413D01*
X133520480Y-98779087D01*
X133445913Y-98704520D01*
X133354587Y-98651793D01*
X133252727Y-98624500D01*
X133147273Y-98624500D01*
X133045413Y-98651793D01*
X133045410Y-98651794D01*
X132954086Y-98704519D01*
X132949644Y-98708962D01*
X132888319Y-98742444D01*
X132818628Y-98737456D01*
X132799889Y-98728618D01*
X131124300Y-97759602D01*
X131076121Y-97709000D01*
X131068524Y-97690815D01*
X130910887Y-97208868D01*
X132962650Y-97208868D01*
X132962650Y-97208871D01*
X132970893Y-97239634D01*
X132974864Y-97263801D01*
X132976020Y-97281863D01*
X132976022Y-97281874D01*
X132995882Y-97348834D01*
X132995891Y-97348863D01*
X133004496Y-97372470D01*
X133004498Y-97372473D01*
X133058756Y-97446095D01*
X133087557Y-97470914D01*
X133111685Y-97491707D01*
X133125841Y-97500750D01*
X133160975Y-97523195D01*
X133623675Y-97732986D01*
X133665126Y-97746688D01*
X133716331Y-97757754D01*
X133759740Y-97762391D01*
X133759745Y-97762391D01*
X133977969Y-97762391D01*
X133977974Y-97762391D01*
X134026947Y-97756470D01*
X134084344Y-97742386D01*
X134099631Y-97738001D01*
X134177959Y-97690789D01*
X134228273Y-97642309D01*
X134264190Y-97596142D01*
X134417960Y-97326547D01*
X134468271Y-97278070D01*
X134536808Y-97264487D01*
X134601808Y-97290115D01*
X134642635Y-97346815D01*
X134645443Y-97355891D01*
X134651791Y-97379582D01*
X134651792Y-97379586D01*
X134651793Y-97379587D01*
X134704520Y-97470913D01*
X134779087Y-97545480D01*
X134870413Y-97598207D01*
X134972273Y-97625500D01*
X134972275Y-97625500D01*
X135077725Y-97625500D01*
X135077727Y-97625500D01*
X135179587Y-97598207D01*
X135270913Y-97545480D01*
X135338228Y-97478164D01*
X135399547Y-97444682D01*
X135404647Y-97443684D01*
X136136699Y-97316371D01*
X136189176Y-97318534D01*
X137916008Y-97767985D01*
X137937716Y-97775979D01*
X137951590Y-97777246D01*
X137965084Y-97780758D01*
X137988224Y-97780591D01*
X138011268Y-97782696D01*
X138025007Y-97780327D01*
X138038940Y-97780227D01*
X138055377Y-97775695D01*
X138067234Y-97773046D01*
X138744570Y-97656264D01*
X138752994Y-97656532D01*
X138780853Y-97650008D01*
X138809050Y-97645147D01*
X138809054Y-97645144D01*
X138816813Y-97642731D01*
X138816867Y-97642907D01*
X138817362Y-97642737D01*
X138817297Y-97642565D01*
X138824899Y-97639694D01*
X138824907Y-97639693D01*
X138846922Y-97627898D01*
X138853439Y-97624652D01*
X138876106Y-97614188D01*
X138876107Y-97614186D01*
X138876109Y-97614186D01*
X138882979Y-97609846D01*
X138883076Y-97609999D01*
X138893685Y-97602846D01*
X142961173Y-95423835D01*
X143024151Y-95409219D01*
X147084455Y-95554230D01*
X147090635Y-95555826D01*
X147121285Y-95555545D01*
X147151893Y-95556639D01*
X147151899Y-95556637D01*
X147158226Y-95556034D01*
X147164484Y-95555152D01*
X147164487Y-95555151D01*
X147164489Y-95555151D01*
X147191373Y-95547683D01*
X147196685Y-95546335D01*
X147223871Y-95540082D01*
X147229506Y-95537091D01*
X147235653Y-95535384D01*
X147262047Y-95519821D01*
X147289110Y-95505460D01*
X147289112Y-95505457D01*
X147295737Y-95500741D01*
X147296080Y-95501223D01*
X147305418Y-95494249D01*
X151301396Y-93138239D01*
X151369138Y-93121149D01*
X151396461Y-93125282D01*
X151397273Y-93125500D01*
X151397277Y-93125500D01*
X151502725Y-93125500D01*
X151502727Y-93125500D01*
X151604587Y-93098207D01*
X151695913Y-93045480D01*
X151770480Y-92970913D01*
X151823207Y-92879587D01*
X151850500Y-92777727D01*
X151850500Y-92672273D01*
X151823207Y-92570413D01*
X151770480Y-92479087D01*
X151695913Y-92404520D01*
X151604587Y-92351793D01*
X151502727Y-92324500D01*
X151397273Y-92324500D01*
X151295413Y-92351793D01*
X151295410Y-92351794D01*
X151204085Y-92404521D01*
X151129521Y-92479085D01*
X151076794Y-92570410D01*
X151076791Y-92570418D01*
X151074319Y-92579643D01*
X151037952Y-92639301D01*
X151017524Y-92654360D01*
X150787478Y-92789994D01*
X150719732Y-92807086D01*
X150653499Y-92784838D01*
X150609808Y-92730314D01*
X150600500Y-92683178D01*
X150600500Y-92647275D01*
X150600500Y-92647273D01*
X150573207Y-92545413D01*
X150520480Y-92454087D01*
X150445913Y-92379520D01*
X150366008Y-92333387D01*
X150354589Y-92326794D01*
X150354588Y-92326793D01*
X150354587Y-92326793D01*
X150252727Y-92299500D01*
X150147273Y-92299500D01*
X150045413Y-92326793D01*
X150045410Y-92326794D01*
X149954085Y-92379521D01*
X149879521Y-92454085D01*
X149826794Y-92545410D01*
X149826792Y-92545415D01*
X149824899Y-92552481D01*
X149809067Y-92578452D01*
X149795249Y-92605553D01*
X149790016Y-92609705D01*
X149788533Y-92612140D01*
X149767604Y-92627494D01*
X149644842Y-92699104D01*
X149577016Y-92715880D01*
X149510888Y-92693323D01*
X149467452Y-92638595D01*
X149462591Y-92624098D01*
X149448207Y-92570413D01*
X149395480Y-92479087D01*
X149320913Y-92404520D01*
X149229587Y-92351793D01*
X149127727Y-92324500D01*
X149022273Y-92324500D01*
X148920413Y-92351793D01*
X148920410Y-92351794D01*
X148829085Y-92404521D01*
X148754522Y-92479084D01*
X148754520Y-92479086D01*
X148754520Y-92479087D01*
X148716227Y-92545413D01*
X148697729Y-92577452D01*
X148696154Y-92576543D01*
X148658672Y-92623037D01*
X148644845Y-92631356D01*
X146704918Y-93632610D01*
X146650477Y-93646397D01*
X145401078Y-93670895D01*
X145333665Y-93652529D01*
X145286884Y-93600632D01*
X145275587Y-93531682D01*
X145291260Y-93484920D01*
X145323207Y-93429587D01*
X145350500Y-93327727D01*
X145350500Y-93222273D01*
X145323207Y-93120413D01*
X145270480Y-93029087D01*
X145195913Y-92954520D01*
X145104587Y-92901793D01*
X145094324Y-92899043D01*
X145034665Y-92862676D01*
X145019746Y-92842484D01*
X145007333Y-92821537D01*
X144799806Y-92471335D01*
X144794969Y-92462348D01*
X144771092Y-92413242D01*
X144537429Y-91932690D01*
X144525817Y-91863794D01*
X144553297Y-91799556D01*
X144586943Y-91771084D01*
X145028474Y-91516167D01*
X145073305Y-91476851D01*
X145108583Y-91405312D01*
X145113801Y-91325719D01*
X145112631Y-91322273D01*
X145094635Y-91269259D01*
X145094633Y-91269253D01*
X144797202Y-90754087D01*
X144774886Y-90715435D01*
X144774884Y-90715433D01*
X144774883Y-90715431D01*
X144762046Y-90700793D01*
X145294461Y-90700793D01*
X145326184Y-90860269D01*
X145326187Y-90860279D01*
X145388412Y-91010505D01*
X145388414Y-91010509D01*
X145478750Y-91145706D01*
X145478756Y-91145714D01*
X145593733Y-91260691D01*
X145593741Y-91260697D01*
X145728938Y-91351033D01*
X145728942Y-91351035D01*
X145859980Y-91405312D01*
X145879173Y-91413262D01*
X145879177Y-91413262D01*
X145879178Y-91413263D01*
X146038654Y-91444986D01*
X146038657Y-91444986D01*
X146201269Y-91444986D01*
X146308560Y-91423643D01*
X146360751Y-91413262D01*
X146510983Y-91351034D01*
X146510985Y-91351033D01*
X146584913Y-91301636D01*
X146646187Y-91260694D01*
X146761170Y-91145711D01*
X146822102Y-91054520D01*
X146851509Y-91010509D01*
X146851511Y-91010505D01*
X146896390Y-90902156D01*
X146913738Y-90860275D01*
X146934861Y-90754085D01*
X146945462Y-90700793D01*
X146945462Y-90538178D01*
X146913739Y-90378702D01*
X146913738Y-90378701D01*
X146913738Y-90378697D01*
X146890777Y-90323263D01*
X146851511Y-90228466D01*
X146851509Y-90228462D01*
X146761173Y-90093265D01*
X146761167Y-90093257D01*
X146646190Y-89978280D01*
X146646182Y-89978274D01*
X146510985Y-89887938D01*
X146510981Y-89887936D01*
X146360755Y-89825711D01*
X146360745Y-89825708D01*
X146201269Y-89793986D01*
X146201267Y-89793986D01*
X146038657Y-89793986D01*
X146038655Y-89793986D01*
X145879178Y-89825708D01*
X145879168Y-89825711D01*
X145728942Y-89887936D01*
X145728938Y-89887938D01*
X145593741Y-89978274D01*
X145593733Y-89978280D01*
X145478756Y-90093257D01*
X145478750Y-90093265D01*
X145388414Y-90228462D01*
X145388412Y-90228466D01*
X145326187Y-90378692D01*
X145326184Y-90378702D01*
X145294462Y-90538178D01*
X145294462Y-90538181D01*
X145294462Y-90700791D01*
X145294462Y-90700793D01*
X145294461Y-90700793D01*
X144762046Y-90700793D01*
X144735571Y-90670605D01*
X144735570Y-90670604D01*
X144680202Y-90643300D01*
X144664031Y-90635326D01*
X144584437Y-90630107D01*
X144527978Y-90649273D01*
X144527972Y-90649275D01*
X143021528Y-91519021D01*
X143021522Y-91519025D01*
X142976696Y-91558337D01*
X142941417Y-91629878D01*
X142936198Y-91709471D01*
X142955364Y-91765930D01*
X142955366Y-91765936D01*
X143275112Y-92319752D01*
X143275116Y-92319758D01*
X143314428Y-92364584D01*
X143314430Y-92364586D01*
X143385969Y-92399864D01*
X143465562Y-92405082D01*
X143522026Y-92385915D01*
X143884564Y-92176603D01*
X143952461Y-92160131D01*
X144018488Y-92182983D01*
X144058077Y-92229768D01*
X144279067Y-92684256D01*
X144286706Y-92699967D01*
X144289862Y-92711231D01*
X144302795Y-92733057D01*
X144309039Y-92745897D01*
X144313888Y-92755869D01*
X144314242Y-92756277D01*
X144327233Y-92774296D01*
X144536345Y-93127173D01*
X144553588Y-93194880D01*
X144549672Y-93220961D01*
X144549500Y-93222273D01*
X144549500Y-93327727D01*
X144564032Y-93381959D01*
X144576793Y-93429586D01*
X144576794Y-93429589D01*
X144618783Y-93502316D01*
X144635256Y-93570216D01*
X144612403Y-93636243D01*
X144557482Y-93679434D01*
X144513827Y-93688292D01*
X142934176Y-93719264D01*
X142934177Y-93719265D01*
X142929667Y-93719353D01*
X142902971Y-93717939D01*
X142892887Y-93720074D01*
X142882584Y-93720277D01*
X142882580Y-93720277D01*
X142882580Y-93720278D01*
X142861197Y-93726458D01*
X142852490Y-93728636D01*
X142830718Y-93733250D01*
X142830495Y-93733329D01*
X142827909Y-93734585D01*
X142819315Y-93738565D01*
X142811628Y-93740789D01*
X142802103Y-93746539D01*
X142795942Y-93749394D01*
X142767827Y-93753592D01*
X142740342Y-93760832D01*
X142728514Y-93759462D01*
X142726838Y-93759713D01*
X142725509Y-93759114D01*
X142718885Y-93758348D01*
X141521374Y-93512526D01*
X141459662Y-93479763D01*
X141434962Y-93440554D01*
X141433080Y-93441407D01*
X141430565Y-93435856D01*
X140992859Y-92677727D01*
X140648318Y-92080964D01*
X140609002Y-92036133D01*
X140537464Y-92000855D01*
X140457871Y-91995638D01*
X140457870Y-91995638D01*
X140457868Y-91995638D01*
X140401408Y-92014804D01*
X140401405Y-92014805D01*
X139804287Y-92359551D01*
X139804280Y-92359556D01*
X139763398Y-92395410D01*
X139759454Y-92398869D01*
X139724176Y-92470407D01*
X139719690Y-92538856D01*
X139718959Y-92550004D01*
X139720553Y-92562110D01*
X139718774Y-92562344D01*
X139721070Y-92617460D01*
X139685776Y-92677760D01*
X139623483Y-92709406D01*
X139553971Y-92702350D01*
X139519449Y-92677767D01*
X139518836Y-92678566D01*
X139509152Y-92671135D01*
X139509150Y-92671133D01*
X139437612Y-92635855D01*
X139358019Y-92630638D01*
X139358018Y-92630638D01*
X139358016Y-92630638D01*
X139301556Y-92649804D01*
X139301553Y-92649805D01*
X138704435Y-92994551D01*
X138704428Y-92994556D01*
X138669146Y-93025499D01*
X138659602Y-93033869D01*
X138624324Y-93105407D01*
X138622898Y-93127171D01*
X138619107Y-93185004D01*
X138620701Y-93197110D01*
X138618922Y-93197344D01*
X138621218Y-93252460D01*
X138585924Y-93312760D01*
X138523631Y-93344406D01*
X138454119Y-93337350D01*
X138419597Y-93312767D01*
X138418984Y-93313566D01*
X138409300Y-93306135D01*
X138409298Y-93306133D01*
X138337760Y-93270855D01*
X138258167Y-93265638D01*
X138258166Y-93265638D01*
X138258164Y-93265638D01*
X138201704Y-93284804D01*
X138201701Y-93284805D01*
X137604583Y-93629551D01*
X137604576Y-93629556D01*
X137559750Y-93668869D01*
X137524472Y-93740407D01*
X137519255Y-93820002D01*
X137538421Y-93876462D01*
X137538422Y-93876465D01*
X137768264Y-94274562D01*
X137784737Y-94342462D01*
X137761884Y-94408489D01*
X137736350Y-94434948D01*
X137488976Y-94624713D01*
X137423804Y-94649898D01*
X137379285Y-94641716D01*
X137378486Y-94644702D01*
X137258868Y-94612650D01*
X137147176Y-94624737D01*
X137147171Y-94624738D01*
X137123965Y-94634771D01*
X137123956Y-94634776D01*
X136873048Y-94779639D01*
X136873032Y-94779649D01*
X136852743Y-94794726D01*
X136852741Y-94794728D01*
X136786425Y-94885416D01*
X136786424Y-94885418D01*
X136764216Y-94968296D01*
X136727851Y-95027956D01*
X136677983Y-95055578D01*
X136242798Y-95177852D01*
X136172934Y-95177036D01*
X136147257Y-95165862D01*
X136079589Y-95126794D01*
X136079588Y-95126793D01*
X136079587Y-95126793D01*
X135977727Y-95099500D01*
X135872273Y-95099500D01*
X135770413Y-95126793D01*
X135770410Y-95126794D01*
X135679085Y-95179521D01*
X135604521Y-95254085D01*
X135551794Y-95345410D01*
X135551793Y-95345413D01*
X135524500Y-95447273D01*
X135524500Y-95552727D01*
X135551793Y-95654587D01*
X135599099Y-95736524D01*
X135604521Y-95745914D01*
X135679087Y-95820480D01*
X135685533Y-95825426D01*
X135683940Y-95827501D01*
X135723206Y-95868685D01*
X135736426Y-95937292D01*
X135710455Y-96002156D01*
X135653539Y-96042682D01*
X135612988Y-96049500D01*
X135572273Y-96049500D01*
X135470413Y-96076793D01*
X135470410Y-96076794D01*
X135379085Y-96129521D01*
X135298773Y-96209834D01*
X135297043Y-96208104D01*
X135250598Y-96242007D01*
X135180851Y-96246151D01*
X135119936Y-96211929D01*
X135087193Y-96150206D01*
X135085708Y-96109286D01*
X135085738Y-96109055D01*
X135085739Y-96109052D01*
X135091036Y-96068404D01*
X135092602Y-96056388D01*
X135092602Y-95875718D01*
X135092134Y-95869172D01*
X135090510Y-95846472D01*
X135085487Y-95811537D01*
X135083051Y-95805006D01*
X135077799Y-95790926D01*
X135077797Y-95790923D01*
X135071327Y-95773576D01*
X135072020Y-95773385D01*
X135067570Y-95757284D01*
X135060622Y-95736524D01*
X135035327Y-95699601D01*
X135034553Y-95697935D01*
X135017186Y-95670909D01*
X135002326Y-95650629D01*
X134990393Y-95641505D01*
X134979634Y-95633278D01*
X134970811Y-95625857D01*
X134957621Y-95613672D01*
X134957612Y-95613665D01*
X134909441Y-95580498D01*
X134536046Y-95395410D01*
X134341573Y-95299012D01*
X134306641Y-95285505D01*
X134306639Y-95285504D01*
X134306638Y-95285504D01*
X134290702Y-95280961D01*
X134275484Y-95275528D01*
X134252723Y-95265686D01*
X134141029Y-95253598D01*
X134141028Y-95253598D01*
X134141027Y-95253598D01*
X134032510Y-95282675D01*
X133941827Y-95348988D01*
X133941822Y-95348993D01*
X133926735Y-95369294D01*
X133781298Y-95621201D01*
X133769077Y-95638696D01*
X133766890Y-95641313D01*
X133766677Y-95641505D01*
X133733559Y-95677776D01*
X133709870Y-95709574D01*
X133707659Y-95712222D01*
X133681362Y-95729801D01*
X133656097Y-95748807D01*
X133651062Y-95750057D01*
X133649574Y-95751053D01*
X133646860Y-95751102D01*
X133628287Y-95755717D01*
X133597586Y-95759659D01*
X133536961Y-95775488D01*
X133518873Y-95781112D01*
X133518869Y-95781114D01*
X133441974Y-95830619D01*
X133393118Y-95880564D01*
X133358580Y-95927776D01*
X133169048Y-96284143D01*
X133161572Y-96299754D01*
X133153344Y-96318975D01*
X133153342Y-96318982D01*
X133136883Y-96392774D01*
X133134476Y-96462592D01*
X133140801Y-96520746D01*
X133170945Y-96638242D01*
X133170363Y-96655956D01*
X133174775Y-96672915D01*
X133169004Y-96697390D01*
X133168667Y-96707676D01*
X133166435Y-96714483D01*
X133161725Y-96724701D01*
X133150285Y-96755948D01*
X133139614Y-96794518D01*
X133138788Y-96798836D01*
X133136460Y-96805941D01*
X133133642Y-96810038D01*
X133126016Y-96829320D01*
X133039550Y-96979087D01*
X132991629Y-97062091D01*
X132984779Y-97073955D01*
X132984770Y-97073971D01*
X132974738Y-97097172D01*
X132962650Y-97208868D01*
X130910887Y-97208868D01*
X130886552Y-97134469D01*
X130884421Y-97064634D01*
X130916729Y-97008241D01*
X130927206Y-96997765D01*
X130972585Y-96894991D01*
X130975500Y-96869865D01*
X130975499Y-96580136D01*
X130975497Y-96580117D01*
X130972586Y-96555012D01*
X130972585Y-96555010D01*
X130972585Y-96555009D01*
X130927206Y-96452235D01*
X130908902Y-96433931D01*
X130875417Y-96372608D01*
X130880401Y-96302916D01*
X130908902Y-96258569D01*
X130913481Y-96253990D01*
X130919706Y-96247765D01*
X130965085Y-96144991D01*
X130968000Y-96119865D01*
X130967999Y-95830136D01*
X130967997Y-95830117D01*
X130965086Y-95805012D01*
X130965085Y-95805010D01*
X130965085Y-95805009D01*
X130919706Y-95702235D01*
X130917652Y-95700181D01*
X130915110Y-95695526D01*
X130913212Y-95692755D01*
X130913492Y-95692563D01*
X130884167Y-95638858D01*
X130889151Y-95569166D01*
X130917652Y-95524819D01*
X130919706Y-95522765D01*
X130965085Y-95419991D01*
X130968000Y-95394865D01*
X130967999Y-95105136D01*
X130967717Y-95102704D01*
X130965086Y-95080012D01*
X130965085Y-95080010D01*
X130965085Y-95080009D01*
X130919706Y-94977235D01*
X130840265Y-94897794D01*
X130817425Y-94887709D01*
X130737492Y-94852415D01*
X130712365Y-94849500D01*
X130187643Y-94849500D01*
X130187617Y-94849502D01*
X130162512Y-94852413D01*
X130162508Y-94852415D01*
X130059735Y-94897793D01*
X129980294Y-94977234D01*
X129934915Y-95080006D01*
X129934915Y-95080008D01*
X129932000Y-95105131D01*
X129932000Y-95394856D01*
X129932002Y-95394882D01*
X129934913Y-95419987D01*
X129934915Y-95419991D01*
X129980293Y-95522764D01*
X129982352Y-95524823D01*
X129984897Y-95529484D01*
X129986788Y-95532245D01*
X129986508Y-95532436D01*
X130015834Y-95586148D01*
X130010846Y-95655839D01*
X129982352Y-95700177D01*
X129980294Y-95702234D01*
X129934915Y-95805006D01*
X129934915Y-95805008D01*
X129932000Y-95830131D01*
X129932000Y-96119856D01*
X129932002Y-96119882D01*
X129934913Y-96144987D01*
X129934914Y-96144989D01*
X129937310Y-96150415D01*
X129946381Y-96219693D01*
X129916557Y-96282878D01*
X129857307Y-96319908D01*
X129823875Y-96324500D01*
X129380143Y-96324500D01*
X129380117Y-96324502D01*
X129355012Y-96327413D01*
X129355008Y-96327415D01*
X129252235Y-96372793D01*
X129172794Y-96452234D01*
X129127415Y-96555006D01*
X129127415Y-96555008D01*
X129124500Y-96580131D01*
X129124500Y-96676228D01*
X129104815Y-96743267D01*
X129085273Y-96766724D01*
X128369548Y-97437193D01*
X128360617Y-97445558D01*
X128350806Y-97451656D01*
X128327065Y-97476988D01*
X128324105Y-97479762D01*
X128301703Y-97500748D01*
X128300417Y-97502314D01*
X128288881Y-97517345D01*
X128287698Y-97518996D01*
X128273215Y-97546071D01*
X128269185Y-97553050D01*
X128252972Y-97579128D01*
X128252138Y-97580970D01*
X128243848Y-97600975D01*
X127925984Y-98195243D01*
X127877007Y-98245073D01*
X127808865Y-98260514D01*
X127755925Y-98244875D01*
X127334407Y-98008152D01*
X127183217Y-97923244D01*
X127183216Y-97923243D01*
X127183215Y-97923243D01*
X127183212Y-97923241D01*
X127128518Y-97902120D01*
X127128511Y-97902118D01*
X127060415Y-97886506D01*
X127060401Y-97886503D01*
X127035620Y-97882398D01*
X127035613Y-97882398D01*
X126944834Y-97893474D01*
X126879100Y-97917158D01*
X126879094Y-97917161D01*
X126857376Y-97928706D01*
X126847743Y-97930688D01*
X126839730Y-97936395D01*
X126814083Y-97937616D01*
X126788941Y-97942792D01*
X126777904Y-97939340D01*
X126769939Y-97939720D01*
X126737173Y-97926602D01*
X126565626Y-97827560D01*
X126517411Y-97776993D01*
X126507853Y-97752272D01*
X126503291Y-97735246D01*
X126500405Y-97721315D01*
X126498131Y-97705939D01*
X126475693Y-97639771D01*
X126449216Y-97587615D01*
X126220122Y-97261597D01*
X126190691Y-97228121D01*
X126160432Y-97200440D01*
X126151240Y-97192031D01*
X126151234Y-97192026D01*
X126115277Y-97165685D01*
X126115270Y-97165681D01*
X125927678Y-97057375D01*
X125879463Y-97006808D01*
X125866239Y-96938201D01*
X125882289Y-96887990D01*
X125990222Y-96701044D01*
X126000262Y-96677826D01*
X126000262Y-96677823D01*
X126003956Y-96669281D01*
X126014936Y-96649207D01*
X126035541Y-96618627D01*
X126041185Y-96604589D01*
X126061591Y-96553827D01*
X126061602Y-96553800D01*
X126069534Y-96529947D01*
X126072774Y-96438549D01*
X126059650Y-96369923D01*
X126053427Y-96345566D01*
X126006738Y-96266925D01*
X126006737Y-96266923D01*
X125958594Y-96216288D01*
X125958591Y-96216285D01*
X125912678Y-96180072D01*
X125912674Y-96180069D01*
X125912670Y-96180066D01*
X125873353Y-96157291D01*
X125825211Y-96106656D01*
X125812086Y-96038030D01*
X125838147Y-95973203D01*
X125895119Y-95932756D01*
X125903404Y-95930222D01*
X125929587Y-95923207D01*
X126020913Y-95870480D01*
X126095480Y-95795913D01*
X126148207Y-95704587D01*
X126175500Y-95602727D01*
X126175500Y-95497273D01*
X126148207Y-95395413D01*
X126095480Y-95304087D01*
X126095479Y-95304086D01*
X126095403Y-95303954D01*
X126078930Y-95236054D01*
X126101782Y-95170027D01*
X126156704Y-95126836D01*
X126226257Y-95120195D01*
X126234854Y-95122172D01*
X126247273Y-95125500D01*
X126247276Y-95125500D01*
X126352725Y-95125500D01*
X126352727Y-95125500D01*
X126454587Y-95098207D01*
X126545913Y-95045480D01*
X126620480Y-94970913D01*
X126673207Y-94879587D01*
X126700500Y-94777727D01*
X126700500Y-94672273D01*
X126673207Y-94570413D01*
X126620480Y-94479087D01*
X126545913Y-94404520D01*
X126454587Y-94351793D01*
X126352727Y-94324500D01*
X126247273Y-94324500D01*
X126145413Y-94351793D01*
X126145410Y-94351794D01*
X126054085Y-94404521D01*
X125979521Y-94479085D01*
X125926794Y-94570410D01*
X125926793Y-94570413D01*
X125899500Y-94672273D01*
X125899500Y-94777727D01*
X125923820Y-94868489D01*
X125926793Y-94879586D01*
X125926794Y-94879589D01*
X125979596Y-94971045D01*
X125996069Y-95038945D01*
X125973216Y-95104972D01*
X125918295Y-95148163D01*
X125848742Y-95154804D01*
X125840126Y-95152822D01*
X125827727Y-95149500D01*
X125722273Y-95149500D01*
X125620413Y-95176793D01*
X125620410Y-95176794D01*
X125529085Y-95229521D01*
X125454521Y-95304085D01*
X125401794Y-95395410D01*
X125401793Y-95395413D01*
X125374500Y-95497273D01*
X125374500Y-95602727D01*
X125400612Y-95700181D01*
X125403897Y-95712438D01*
X125400939Y-95713230D01*
X125406839Y-95768264D01*
X125375544Y-95830733D01*
X125315443Y-95866366D01*
X125280401Y-95870129D01*
X125253540Y-95869171D01*
X125253535Y-95869172D01*
X125184924Y-95882281D01*
X125184907Y-95882284D01*
X125160555Y-95888502D01*
X125081907Y-95935174D01*
X125081900Y-95935180D01*
X125031268Y-95983299D01*
X125031258Y-95983310D01*
X124995035Y-96029219D01*
X124995030Y-96029226D01*
X124704675Y-96530266D01*
X124696557Y-96545759D01*
X124687575Y-96564835D01*
X124687574Y-96564838D01*
X124668490Y-96638149D01*
X124668489Y-96638160D01*
X124663653Y-96707837D01*
X121351284Y-96707837D01*
X120851051Y-95365329D01*
X120846090Y-95295639D01*
X120879595Y-95234326D01*
X120940929Y-95200861D01*
X121010619Y-95205868D01*
X121028919Y-95214459D01*
X122518357Y-96068404D01*
X122518364Y-96068407D01*
X122518369Y-96068410D01*
X122555675Y-96085110D01*
X122555676Y-96085111D01*
X122555687Y-96085114D01*
X122555690Y-96085116D01*
X122602295Y-96100623D01*
X122609389Y-96102841D01*
X122700677Y-96108384D01*
X122769612Y-96096993D01*
X122794115Y-96091385D01*
X122873908Y-96046694D01*
X122925742Y-95999842D01*
X122963111Y-95954844D01*
X124306617Y-93764697D01*
X124327801Y-93717874D01*
X124345956Y-93659079D01*
X124350505Y-93641679D01*
X124349367Y-93550230D01*
X124332973Y-93482311D01*
X124325591Y-93458281D01*
X124314447Y-93441407D01*
X124275195Y-93381970D01*
X124275192Y-93381965D01*
X124240381Y-93348696D01*
X124233535Y-93340571D01*
X124233357Y-93340737D01*
X124226812Y-93333676D01*
X124226810Y-93333674D01*
X124172003Y-93290407D01*
X124171998Y-93290403D01*
X123908444Y-93138241D01*
X123845093Y-93101665D01*
X123780219Y-93075834D01*
X123780217Y-93075833D01*
X123780219Y-93075833D01*
X123764079Y-93074720D01*
X123715670Y-93061164D01*
X122967371Y-92674296D01*
X122820435Y-92598331D01*
X122820430Y-92598328D01*
X122792111Y-92587792D01*
X122773947Y-92581034D01*
X122773945Y-92581033D01*
X122773941Y-92581032D01*
X122737393Y-92572273D01*
X126599500Y-92572273D01*
X126599500Y-92677727D01*
X126626295Y-92777726D01*
X126626793Y-92779586D01*
X126626794Y-92779589D01*
X126632801Y-92789994D01*
X126679520Y-92870913D01*
X126754087Y-92945480D01*
X126845413Y-92998207D01*
X126947273Y-93025500D01*
X126947275Y-93025500D01*
X127052725Y-93025500D01*
X127052727Y-93025500D01*
X127154587Y-92998207D01*
X127245913Y-92945480D01*
X127320480Y-92870913D01*
X127373207Y-92779587D01*
X127400500Y-92677727D01*
X127400500Y-92572273D01*
X127373207Y-92470413D01*
X127320480Y-92379087D01*
X127245913Y-92304520D01*
X127154587Y-92251793D01*
X127052727Y-92224500D01*
X126947273Y-92224500D01*
X126845413Y-92251793D01*
X126845410Y-92251794D01*
X126754085Y-92304521D01*
X126679521Y-92379085D01*
X126626794Y-92470410D01*
X126626793Y-92470413D01*
X126599500Y-92572273D01*
X122737393Y-92572273D01*
X122716175Y-92567188D01*
X122700315Y-92564041D01*
X122700308Y-92564040D01*
X122609073Y-92570243D01*
X122609063Y-92570245D01*
X122542169Y-92590373D01*
X122489116Y-92615031D01*
X121613019Y-93186385D01*
X121613007Y-93186394D01*
X121580426Y-93213683D01*
X121516392Y-93241637D01*
X121447410Y-93230534D01*
X121395382Y-93183899D01*
X121377073Y-93126731D01*
X121375676Y-93105407D01*
X121340398Y-93033869D01*
X121299734Y-92998207D01*
X121295571Y-92994556D01*
X121295569Y-92994555D01*
X121295567Y-92994553D01*
X121258137Y-92972943D01*
X121241134Y-92961129D01*
X121195557Y-92923451D01*
X121195550Y-92923446D01*
X121158906Y-92901793D01*
X120814719Y-92698410D01*
X120814711Y-92698406D01*
X120814696Y-92698398D01*
X120785812Y-92684256D01*
X120757090Y-92672886D01*
X120752838Y-92671258D01*
X120752836Y-92671257D01*
X120752835Y-92671257D01*
X120752833Y-92671256D01*
X120745758Y-92669465D01*
X120746005Y-92668488D01*
X120709147Y-92655984D01*
X120698445Y-92649805D01*
X120698443Y-92649804D01*
X120641983Y-92630638D01*
X120641981Y-92630638D01*
X120562388Y-92635855D01*
X120490850Y-92671132D01*
X120451532Y-92715966D01*
X120409880Y-92788108D01*
X120398026Y-92805160D01*
X120397775Y-92805462D01*
X120397763Y-92805479D01*
X119090154Y-95015050D01*
X119070718Y-95058879D01*
X119070712Y-95058893D01*
X119058132Y-95099500D01*
X119057137Y-95102711D01*
X119056688Y-95105131D01*
X119048385Y-95149860D01*
X119048385Y-95149862D01*
X118951253Y-96606851D01*
X118951252Y-96606863D01*
X118952479Y-96646759D01*
X118952481Y-96646783D01*
X118957370Y-96684744D01*
X118957373Y-96684763D01*
X118966291Y-96723661D01*
X118966294Y-96723671D01*
X118966296Y-96723678D01*
X121572692Y-104518230D01*
X121586070Y-104558238D01*
X121592382Y-104602238D01*
X121551601Y-105682924D01*
X121529402Y-105749173D01*
X121488481Y-105786323D01*
X118538003Y-107445966D01*
X118537996Y-107445970D01*
X118508959Y-107465748D01*
X118508950Y-107465755D01*
X118482849Y-107487013D01*
X118477110Y-107491864D01*
X118477103Y-107491872D01*
X118423490Y-107565953D01*
X118423486Y-107565959D01*
X118399543Y-107622265D01*
X118388226Y-107657321D01*
X118388225Y-107657326D01*
X111962076Y-107657326D01*
X111584397Y-107003186D01*
X116656647Y-107003186D01*
X116656647Y-107108640D01*
X116683940Y-107210500D01*
X116736667Y-107301826D01*
X116811234Y-107376393D01*
X116902560Y-107429120D01*
X117004420Y-107456413D01*
X117004422Y-107456413D01*
X117109872Y-107456413D01*
X117109874Y-107456413D01*
X117211734Y-107429120D01*
X117303060Y-107376393D01*
X117377627Y-107301826D01*
X117430354Y-107210500D01*
X117457647Y-107108640D01*
X117457647Y-107003186D01*
X117430354Y-106901326D01*
X117377627Y-106810000D01*
X117303060Y-106735433D01*
X117211734Y-106682706D01*
X117109874Y-106655413D01*
X117004420Y-106655413D01*
X116902560Y-106682706D01*
X116902557Y-106682707D01*
X116811232Y-106735434D01*
X116736668Y-106809998D01*
X116683941Y-106901323D01*
X116683940Y-106901326D01*
X116656647Y-107003186D01*
X111584397Y-107003186D01*
X110014830Y-104284696D01*
X116493275Y-104284696D01*
X116512441Y-104341155D01*
X116512443Y-104341161D01*
X117032189Y-105241387D01*
X117032193Y-105241393D01*
X117057153Y-105269854D01*
X117071507Y-105286221D01*
X117143046Y-105321499D01*
X117222639Y-105326717D01*
X117279103Y-105307550D01*
X120344397Y-103537802D01*
X120389228Y-103498486D01*
X120424506Y-103426947D01*
X120429724Y-103347354D01*
X120410557Y-103290890D01*
X120354471Y-103193747D01*
X120150683Y-102840775D01*
X119890809Y-102390660D01*
X119890807Y-102390658D01*
X119890806Y-102390656D01*
X119851494Y-102345830D01*
X119851493Y-102345829D01*
X119779954Y-102310551D01*
X119774735Y-102310208D01*
X119700360Y-102305332D01*
X119643901Y-102324498D01*
X119643895Y-102324500D01*
X116578605Y-104094246D01*
X116578599Y-104094250D01*
X116533773Y-104133562D01*
X116498494Y-104205103D01*
X116493275Y-104284696D01*
X110014830Y-104284696D01*
X109014801Y-102552646D01*
X115493275Y-102552646D01*
X115512441Y-102609105D01*
X115512443Y-102609111D01*
X116032189Y-103509337D01*
X116032193Y-103509343D01*
X116071505Y-103554169D01*
X116071507Y-103554171D01*
X116143046Y-103589449D01*
X116222639Y-103594667D01*
X116279103Y-103575500D01*
X119344397Y-101805752D01*
X119389228Y-101766436D01*
X119424506Y-101694897D01*
X119429724Y-101615304D01*
X119424698Y-101600499D01*
X119415434Y-101573207D01*
X119410557Y-101558840D01*
X119404924Y-101549084D01*
X118890810Y-100658612D01*
X118890806Y-100658606D01*
X118851494Y-100613780D01*
X118851493Y-100613779D01*
X118779954Y-100578501D01*
X118774735Y-100578158D01*
X118700360Y-100573282D01*
X118643901Y-100592448D01*
X118643895Y-100592450D01*
X115578605Y-102362196D01*
X115578599Y-102362200D01*
X115533773Y-102401512D01*
X115498494Y-102473053D01*
X115493275Y-102552646D01*
X109014801Y-102552646D01*
X108014772Y-100820595D01*
X114493275Y-100820595D01*
X114512441Y-100877054D01*
X114512443Y-100877060D01*
X115032189Y-101777286D01*
X115032193Y-101777292D01*
X115057153Y-101805753D01*
X115071507Y-101822120D01*
X115143046Y-101857398D01*
X115222639Y-101862616D01*
X115279103Y-101843449D01*
X118344397Y-100073701D01*
X118389228Y-100034385D01*
X118424506Y-99962846D01*
X118429724Y-99883253D01*
X118428137Y-99878579D01*
X118411507Y-99829589D01*
X118410557Y-99826789D01*
X118294023Y-99624947D01*
X118021387Y-99152727D01*
X117890809Y-98926559D01*
X117890807Y-98926557D01*
X117890806Y-98926555D01*
X117851494Y-98881729D01*
X117851493Y-98881728D01*
X117779954Y-98846450D01*
X117774735Y-98846107D01*
X117700360Y-98841231D01*
X117643901Y-98860397D01*
X117643895Y-98860399D01*
X114578605Y-100630145D01*
X114578599Y-100630149D01*
X114533773Y-100669461D01*
X114498494Y-100741002D01*
X114493275Y-100820595D01*
X108014772Y-100820595D01*
X106962345Y-98997792D01*
X113452240Y-98997792D01*
X113460171Y-99058462D01*
X113478376Y-99120127D01*
X113478377Y-99120130D01*
X113478378Y-99120132D01*
X113727535Y-99643721D01*
X113968434Y-100149958D01*
X113969953Y-100153149D01*
X113969953Y-100153150D01*
X113990346Y-100187114D01*
X113990351Y-100187122D01*
X113990355Y-100187127D01*
X114012965Y-100217668D01*
X114020382Y-100227098D01*
X114020386Y-100227102D01*
X114020387Y-100227103D01*
X114056772Y-100254800D01*
X114093159Y-100282499D01*
X114103345Y-100287124D01*
X114148869Y-100307796D01*
X114183646Y-100319961D01*
X114267577Y-100321835D01*
X114275075Y-100322003D01*
X114275079Y-100322003D01*
X114335019Y-100309723D01*
X114395211Y-100287124D01*
X117907127Y-98293867D01*
X117934484Y-98275280D01*
X117959235Y-98255373D01*
X117963428Y-98251908D01*
X118018234Y-98178692D01*
X118043081Y-98122779D01*
X118059678Y-98060664D01*
X118522350Y-93628752D01*
X118537447Y-93581118D01*
X119331019Y-92161760D01*
X119344526Y-92132392D01*
X119355240Y-92103253D01*
X119356807Y-92098838D01*
X119366406Y-92007887D01*
X119359127Y-91947136D01*
X119351483Y-91911097D01*
X119305789Y-91831874D01*
X119264193Y-91787005D01*
X119213644Y-91747273D01*
X118846422Y-91542312D01*
X118631621Y-91422423D01*
X118452185Y-91322273D01*
X126999500Y-91322273D01*
X126999500Y-91427727D01*
X127026793Y-91529585D01*
X127026793Y-91529586D01*
X127026794Y-91529589D01*
X127034148Y-91542326D01*
X127079520Y-91620913D01*
X127154087Y-91695480D01*
X127245413Y-91748207D01*
X127347273Y-91775500D01*
X127347275Y-91775500D01*
X127452725Y-91775500D01*
X127452727Y-91775500D01*
X127554587Y-91748207D01*
X127645913Y-91695480D01*
X127720480Y-91620913D01*
X127773207Y-91529587D01*
X127790070Y-91466652D01*
X127826432Y-91406995D01*
X127889278Y-91376465D01*
X127941931Y-91378972D01*
X128022273Y-91400500D01*
X128022276Y-91400500D01*
X128127725Y-91400500D01*
X128127727Y-91400500D01*
X128229587Y-91373207D01*
X128320913Y-91320480D01*
X128395480Y-91245913D01*
X128448207Y-91154587D01*
X128475500Y-91052727D01*
X128475500Y-90947273D01*
X128448207Y-90845413D01*
X128438692Y-90828933D01*
X128702324Y-90828933D01*
X128706241Y-90851706D01*
X128706247Y-90851737D01*
X128714171Y-90897793D01*
X128719940Y-90922258D01*
X128765158Y-91001754D01*
X128812352Y-91053277D01*
X128857597Y-91090348D01*
X129477377Y-91464917D01*
X129477702Y-91465113D01*
X129481346Y-91469091D01*
X129486425Y-91470902D01*
X129504690Y-91494576D01*
X129524896Y-91516635D01*
X129525810Y-91521951D01*
X129529105Y-91526221D01*
X129531671Y-91556014D01*
X129536743Y-91585493D01*
X129534761Y-91591892D01*
X129535101Y-91595833D01*
X129523249Y-91629077D01*
X129496047Y-91680662D01*
X129493752Y-91684821D01*
X129479521Y-91709471D01*
X129446926Y-91765930D01*
X129441978Y-91774500D01*
X129441973Y-91774508D01*
X129431936Y-91797719D01*
X129419848Y-91909415D01*
X129448925Y-92017933D01*
X129495017Y-92080964D01*
X129515241Y-92108620D01*
X129535543Y-92123708D01*
X129645218Y-92187028D01*
X129756186Y-92251095D01*
X129800956Y-92298048D01*
X129802077Y-92297411D01*
X129804842Y-92302271D01*
X129804843Y-92302273D01*
X129806122Y-92304521D01*
X129841302Y-92366354D01*
X129886182Y-92419891D01*
X129886189Y-92419899D01*
X129918866Y-92449162D01*
X129929760Y-92458918D01*
X130072429Y-92553937D01*
X130099640Y-92581013D01*
X130099942Y-92580734D01*
X130106485Y-92587792D01*
X130106487Y-92587793D01*
X130106488Y-92587795D01*
X130161295Y-92631062D01*
X130161299Y-92631064D01*
X130161300Y-92631065D01*
X130175565Y-92639301D01*
X130345910Y-92737650D01*
X130360195Y-92745897D01*
X130366930Y-92750078D01*
X130408442Y-92777725D01*
X130474225Y-92821537D01*
X130520942Y-92844702D01*
X130579929Y-92865112D01*
X130597898Y-92870426D01*
X130689340Y-92872026D01*
X130689340Y-92872025D01*
X130689341Y-92872026D01*
X130735819Y-92862270D01*
X130757720Y-92857673D01*
X130781958Y-92851015D01*
X130859750Y-92802924D01*
X130909515Y-92753881D01*
X130944909Y-92707313D01*
X131108282Y-92413240D01*
X131158046Y-92364199D01*
X131226426Y-92349846D01*
X131291710Y-92374740D01*
X131324062Y-92411460D01*
X131329520Y-92420913D01*
X131404087Y-92495480D01*
X131495413Y-92548207D01*
X131597273Y-92575500D01*
X131597275Y-92575500D01*
X131702725Y-92575500D01*
X131702727Y-92575500D01*
X131804587Y-92548207D01*
X131820785Y-92538854D01*
X131888681Y-92522381D01*
X131954708Y-92545231D01*
X131997901Y-92600151D01*
X132002560Y-92614147D01*
X132026793Y-92704588D01*
X132026794Y-92704589D01*
X132033363Y-92715966D01*
X132079520Y-92795913D01*
X132154087Y-92870480D01*
X132245413Y-92923207D01*
X132347273Y-92950500D01*
X132347275Y-92950500D01*
X132452725Y-92950500D01*
X132452727Y-92950500D01*
X132554587Y-92923207D01*
X132645913Y-92870480D01*
X132720480Y-92795913D01*
X132773207Y-92704587D01*
X132800500Y-92602727D01*
X132800500Y-92497273D01*
X132773207Y-92395413D01*
X132720480Y-92304087D01*
X132645913Y-92229520D01*
X132570787Y-92186146D01*
X132554589Y-92176794D01*
X132554588Y-92176793D01*
X132554587Y-92176793D01*
X132452727Y-92149500D01*
X132347273Y-92149500D01*
X132245413Y-92176793D01*
X132245408Y-92176795D01*
X132229212Y-92186146D01*
X132161312Y-92202617D01*
X132095285Y-92179764D01*
X132052096Y-92124842D01*
X132047441Y-92110858D01*
X132023207Y-92020413D01*
X131970480Y-91929087D01*
X131895913Y-91854520D01*
X131804587Y-91801793D01*
X131702727Y-91774500D01*
X131597273Y-91774500D01*
X131495413Y-91801793D01*
X131495410Y-91801794D01*
X131404087Y-91854520D01*
X131383122Y-91875485D01*
X131321798Y-91908969D01*
X131252106Y-91903983D01*
X131196173Y-91862111D01*
X131192735Y-91857281D01*
X131145195Y-91787005D01*
X130673189Y-91089258D01*
X130668399Y-91082494D01*
X130668104Y-91082077D01*
X130661798Y-91073564D01*
X130656390Y-91066582D01*
X130656384Y-91066574D01*
X130251983Y-90567020D01*
X130249653Y-90564709D01*
X130220282Y-90535571D01*
X130220280Y-90535569D01*
X130178376Y-90502197D01*
X130154517Y-90487116D01*
X130140630Y-90478338D01*
X130140629Y-90478337D01*
X129647447Y-90237164D01*
X129595870Y-90190030D01*
X129577963Y-90122494D01*
X129594531Y-90063774D01*
X129645302Y-89975837D01*
X129672595Y-89873977D01*
X129672595Y-89768523D01*
X129645302Y-89666663D01*
X129645299Y-89666658D01*
X129644818Y-89664862D01*
X129646481Y-89595012D01*
X129685643Y-89537149D01*
X129732497Y-89512994D01*
X129801682Y-89494457D01*
X129893008Y-89441730D01*
X129967575Y-89367163D01*
X130020302Y-89275837D01*
X130047595Y-89173977D01*
X130047595Y-89068523D01*
X130020302Y-88966663D01*
X129967575Y-88875337D01*
X129893008Y-88800770D01*
X129801682Y-88748043D01*
X129699822Y-88720750D01*
X129594368Y-88720750D01*
X129492508Y-88748043D01*
X129492505Y-88748044D01*
X129401180Y-88800771D01*
X129326616Y-88875335D01*
X129273889Y-88966660D01*
X129273888Y-88966663D01*
X129246595Y-89068523D01*
X129246595Y-89173977D01*
X129264352Y-89240249D01*
X129274371Y-89277638D01*
X129272708Y-89347488D01*
X129233545Y-89405350D01*
X129186690Y-89429506D01*
X129117506Y-89448043D01*
X129117505Y-89448044D01*
X129026180Y-89500771D01*
X128951616Y-89575335D01*
X128898889Y-89666660D01*
X128898888Y-89666663D01*
X128871595Y-89768523D01*
X128871595Y-89873977D01*
X128896037Y-89965194D01*
X128898888Y-89975836D01*
X128898889Y-89975839D01*
X128951615Y-90067163D01*
X128952092Y-90067784D01*
X128952330Y-90068402D01*
X128955679Y-90074201D01*
X128954774Y-90074723D01*
X128977288Y-90132952D01*
X128963251Y-90201397D01*
X128956734Y-90212291D01*
X128928188Y-90254897D01*
X128928185Y-90254901D01*
X128730972Y-90665765D01*
X128718816Y-90697628D01*
X128707451Y-90736948D01*
X128707452Y-90736949D01*
X128707261Y-90737612D01*
X128702324Y-90828933D01*
X128438692Y-90828933D01*
X128395480Y-90754087D01*
X128320913Y-90679520D01*
X128229587Y-90626793D01*
X128127727Y-90599500D01*
X128022273Y-90599500D01*
X127920413Y-90626793D01*
X127920410Y-90626794D01*
X127829085Y-90679521D01*
X127754521Y-90754085D01*
X127701794Y-90845410D01*
X127701793Y-90845411D01*
X127684931Y-90908345D01*
X127648566Y-90968005D01*
X127585719Y-90998534D01*
X127533064Y-90996026D01*
X127452727Y-90974500D01*
X127347273Y-90974500D01*
X127245413Y-91001793D01*
X127245410Y-91001794D01*
X127154085Y-91054521D01*
X127079521Y-91129085D01*
X127026794Y-91220410D01*
X127026793Y-91220413D01*
X126999500Y-91322273D01*
X118452185Y-91322273D01*
X118308746Y-91242214D01*
X118308723Y-91242202D01*
X118282669Y-91229969D01*
X118282666Y-91229968D01*
X118277079Y-91227808D01*
X118256856Y-91219992D01*
X118255781Y-91219580D01*
X118165204Y-91206923D01*
X118104263Y-91212150D01*
X118104235Y-91212153D01*
X118067967Y-91218578D01*
X117987250Y-91261577D01*
X117941008Y-91301636D01*
X117899592Y-91350824D01*
X117008650Y-92827914D01*
X116992065Y-92862270D01*
X116992056Y-92862289D01*
X116979275Y-92896582D01*
X116969322Y-92933439D01*
X116248420Y-97114677D01*
X116217631Y-97177398D01*
X116189177Y-97200440D01*
X113598721Y-98726958D01*
X113579443Y-98739837D01*
X113561632Y-98753248D01*
X113504743Y-98819188D01*
X113475497Y-98872934D01*
X113460861Y-98906742D01*
X113460860Y-98906744D01*
X113454477Y-98974163D01*
X113452240Y-98997792D01*
X106962345Y-98997792D01*
X105992797Y-97318535D01*
X105267315Y-96062000D01*
X105250841Y-95994100D01*
X105267314Y-95938001D01*
X108291106Y-90700793D01*
X113054537Y-90700793D01*
X113086260Y-90860269D01*
X113086263Y-90860279D01*
X113148488Y-91010505D01*
X113148490Y-91010509D01*
X113238826Y-91145706D01*
X113238832Y-91145714D01*
X113353809Y-91260691D01*
X113353817Y-91260697D01*
X113489014Y-91351033D01*
X113489018Y-91351035D01*
X113620056Y-91405312D01*
X113639249Y-91413262D01*
X113639253Y-91413262D01*
X113639254Y-91413263D01*
X113798730Y-91444986D01*
X113798733Y-91444986D01*
X113961345Y-91444986D01*
X114068636Y-91423643D01*
X114120827Y-91413262D01*
X114271059Y-91351034D01*
X114271061Y-91351033D01*
X114344989Y-91301636D01*
X114406263Y-91260694D01*
X114521246Y-91145711D01*
X114582178Y-91054520D01*
X114611585Y-91010509D01*
X114611587Y-91010505D01*
X114656466Y-90902156D01*
X114673814Y-90860275D01*
X114694937Y-90754085D01*
X114705538Y-90700793D01*
X114705538Y-90538178D01*
X114673815Y-90378702D01*
X114673814Y-90378701D01*
X114673814Y-90378697D01*
X114650853Y-90323263D01*
X114611587Y-90228466D01*
X114611585Y-90228462D01*
X114521249Y-90093265D01*
X114521243Y-90093257D01*
X114406266Y-89978280D01*
X114406258Y-89978274D01*
X114271061Y-89887938D01*
X114271057Y-89887936D01*
X114120831Y-89825711D01*
X114120821Y-89825708D01*
X113961345Y-89793986D01*
X113961343Y-89793986D01*
X113798733Y-89793986D01*
X113798731Y-89793986D01*
X113639254Y-89825708D01*
X113639244Y-89825711D01*
X113489018Y-89887936D01*
X113489014Y-89887938D01*
X113353817Y-89978274D01*
X113353809Y-89978280D01*
X113238832Y-90093257D01*
X113238826Y-90093265D01*
X113148490Y-90228462D01*
X113148488Y-90228466D01*
X113086263Y-90378692D01*
X113086260Y-90378702D01*
X113054538Y-90538178D01*
X113054538Y-90538181D01*
X113054538Y-90700791D01*
X113054538Y-90700793D01*
X113054537Y-90700793D01*
X108291106Y-90700793D01*
X109391450Y-88794997D01*
X121262267Y-88794997D01*
X121262267Y-88794999D01*
X121262267Y-88795000D01*
X121267484Y-88874593D01*
X121302762Y-88946131D01*
X121347593Y-88985447D01*
X121612377Y-89138320D01*
X121878718Y-89292092D01*
X121944715Y-89330195D01*
X122001179Y-89349362D01*
X122080772Y-89344145D01*
X122152310Y-89308867D01*
X122152314Y-89308861D01*
X122161996Y-89301434D01*
X122163088Y-89302857D01*
X122209669Y-89273309D01*
X122279538Y-89273721D01*
X122338092Y-89311841D01*
X122366742Y-89375567D01*
X122362715Y-89417758D01*
X122363713Y-89417890D01*
X122362119Y-89429995D01*
X122362119Y-89429999D01*
X122362119Y-89430000D01*
X122367336Y-89509593D01*
X122402614Y-89581131D01*
X122447445Y-89620447D01*
X122615787Y-89717639D01*
X122926300Y-89896914D01*
X123044567Y-89965195D01*
X123101031Y-89984362D01*
X123180624Y-89979145D01*
X123252162Y-89943867D01*
X123252166Y-89943861D01*
X123261848Y-89936434D01*
X123262940Y-89937857D01*
X123309521Y-89908309D01*
X123379390Y-89908721D01*
X123437944Y-89946841D01*
X123466594Y-90010567D01*
X123462567Y-90052758D01*
X123463565Y-90052890D01*
X123461971Y-90064995D01*
X123461971Y-90064999D01*
X123461971Y-90065000D01*
X123467188Y-90144593D01*
X123502466Y-90216131D01*
X123529705Y-90240019D01*
X123546669Y-90254897D01*
X123547297Y-90255447D01*
X123638628Y-90308177D01*
X124127950Y-90590687D01*
X124144419Y-90600195D01*
X124200883Y-90619362D01*
X124280476Y-90614145D01*
X124352014Y-90578867D01*
X124391330Y-90534036D01*
X124664422Y-90061024D01*
X124714987Y-90012812D01*
X124783594Y-89999588D01*
X124802116Y-90002788D01*
X125158360Y-90092588D01*
X125218555Y-90128062D01*
X125247825Y-90180731D01*
X125257674Y-90217487D01*
X125257674Y-90217488D01*
X125319031Y-90301393D01*
X125323991Y-90308176D01*
X125344293Y-90323264D01*
X125595206Y-90468127D01*
X125595213Y-90468130D01*
X125595221Y-90468134D01*
X125606243Y-90472899D01*
X125618422Y-90478166D01*
X125618421Y-90478166D01*
X125618424Y-90478167D01*
X125730118Y-90490255D01*
X125838637Y-90461177D01*
X125929323Y-90394862D01*
X125944411Y-90374560D01*
X126206774Y-89920131D01*
X126216814Y-89896913D01*
X126228902Y-89785219D01*
X126199824Y-89676700D01*
X126133509Y-89586014D01*
X126113207Y-89570926D01*
X125862294Y-89426063D01*
X125862278Y-89426055D01*
X125839076Y-89416023D01*
X125839078Y-89416023D01*
X125783229Y-89409979D01*
X125727382Y-89403935D01*
X125727381Y-89403935D01*
X125727380Y-89403935D01*
X125618863Y-89433012D01*
X125528180Y-89499325D01*
X125528173Y-89499332D01*
X125510951Y-89522506D01*
X125509805Y-89521654D01*
X125496316Y-89533088D01*
X125481652Y-89551397D01*
X125470160Y-89555259D01*
X125460912Y-89563099D01*
X125437657Y-89566184D01*
X125415424Y-89573658D01*
X125396355Y-89571665D01*
X125391649Y-89572290D01*
X125380321Y-89569990D01*
X125161990Y-89514954D01*
X125101795Y-89479480D01*
X125070335Y-89417094D01*
X125077598Y-89347602D01*
X125084907Y-89332723D01*
X125173578Y-89179142D01*
X125192745Y-89122678D01*
X125187528Y-89043085D01*
X125152250Y-88971547D01*
X125123268Y-88946130D01*
X125107423Y-88932234D01*
X125107416Y-88932229D01*
X124510298Y-88587483D01*
X124510295Y-88587482D01*
X124453835Y-88568316D01*
X124453833Y-88568316D01*
X124374240Y-88573533D01*
X124302702Y-88608811D01*
X124293016Y-88616244D01*
X124291924Y-88614821D01*
X124245325Y-88644373D01*
X124175456Y-88643951D01*
X124116907Y-88605822D01*
X124088267Y-88542092D01*
X124092297Y-88499919D01*
X124091299Y-88499788D01*
X124092892Y-88487682D01*
X124092891Y-88487681D01*
X124092893Y-88487678D01*
X124087676Y-88408085D01*
X124052398Y-88336547D01*
X124022973Y-88310742D01*
X124007571Y-88297234D01*
X124007564Y-88297229D01*
X123410446Y-87952483D01*
X123410443Y-87952482D01*
X123353983Y-87933316D01*
X123353981Y-87933316D01*
X123274388Y-87938533D01*
X123202850Y-87973811D01*
X123193164Y-87981244D01*
X123192072Y-87979821D01*
X123145473Y-88009373D01*
X123075604Y-88008951D01*
X123017055Y-87970822D01*
X122988415Y-87907092D01*
X122992445Y-87864919D01*
X122991447Y-87864788D01*
X122993040Y-87852682D01*
X122993039Y-87852681D01*
X122993041Y-87852678D01*
X122987824Y-87773085D01*
X122952546Y-87701547D01*
X122924159Y-87676652D01*
X122907719Y-87662234D01*
X122907712Y-87662229D01*
X122310594Y-87317483D01*
X122310591Y-87317482D01*
X122254131Y-87298316D01*
X122254129Y-87298316D01*
X122174536Y-87303533D01*
X122102998Y-87338811D01*
X122063685Y-87383637D01*
X122063680Y-87383644D01*
X121281434Y-88738534D01*
X121281433Y-88738537D01*
X121262267Y-88794997D01*
X109391450Y-88794997D01*
X111691205Y-84811821D01*
X116454537Y-84811821D01*
X116486260Y-84971297D01*
X116486263Y-84971307D01*
X116548488Y-85121533D01*
X116548490Y-85121537D01*
X116638826Y-85256734D01*
X116638832Y-85256742D01*
X116753809Y-85371719D01*
X116753817Y-85371725D01*
X116889014Y-85462061D01*
X116889018Y-85462063D01*
X117037610Y-85523611D01*
X117039249Y-85524290D01*
X117039253Y-85524290D01*
X117039254Y-85524291D01*
X117198730Y-85556014D01*
X117198733Y-85556014D01*
X117361345Y-85556014D01*
X117468636Y-85534671D01*
X117514507Y-85525547D01*
X123495837Y-85525547D01*
X123495837Y-85525549D01*
X123505375Y-85590260D01*
X123523815Y-85648596D01*
X123538025Y-85682593D01*
X123597640Y-85751939D01*
X123597641Y-85751940D01*
X123597644Y-85751943D01*
X123646855Y-85788302D01*
X123703907Y-85817949D01*
X132423629Y-88728465D01*
X132459871Y-88747723D01*
X133596769Y-89620447D01*
X133615632Y-89634927D01*
X133656823Y-89691363D01*
X133662304Y-89717688D01*
X133662583Y-89717639D01*
X133676176Y-89793252D01*
X133676179Y-89793262D01*
X133694617Y-89848771D01*
X134863255Y-92187017D01*
X134863260Y-92187026D01*
X134863261Y-92187028D01*
X134890207Y-92227899D01*
X134910427Y-92251794D01*
X134928100Y-92272680D01*
X134938569Y-92284145D01*
X134938570Y-92284146D01*
X135015637Y-92333385D01*
X135015641Y-92333387D01*
X135081399Y-92356955D01*
X135081408Y-92356957D01*
X135081412Y-92356959D01*
X135105555Y-92363978D01*
X135197011Y-92363732D01*
X135265086Y-92348002D01*
X135319619Y-92326859D01*
X136713443Y-91542322D01*
X136752174Y-91514111D01*
X136794336Y-91475118D01*
X136804615Y-91464917D01*
X136850813Y-91385986D01*
X136871804Y-91319344D01*
X136877875Y-91294953D01*
X136876484Y-91261577D01*
X136874068Y-91203584D01*
X136874067Y-91203581D01*
X136874067Y-91203576D01*
X136855697Y-91136165D01*
X136855695Y-91136161D01*
X136855694Y-91136156D01*
X136832443Y-91082494D01*
X136832443Y-91082493D01*
X136597551Y-90700793D01*
X136571277Y-90658098D01*
X136552907Y-90590687D01*
X136556179Y-90564709D01*
X136563035Y-90535571D01*
X136613794Y-90319849D01*
X136617254Y-90301407D01*
X136620405Y-90279006D01*
X136620404Y-90278998D01*
X136620524Y-90276386D01*
X136620947Y-90275153D01*
X136621220Y-90273216D01*
X136621595Y-90273268D01*
X136643231Y-90210310D01*
X136698058Y-90166999D01*
X136698262Y-90166916D01*
X136744245Y-90148585D01*
X137497743Y-89700559D01*
X137521404Y-89684142D01*
X137542989Y-89666805D01*
X137543897Y-89666072D01*
X137600261Y-89594048D01*
X137623608Y-89544408D01*
X141686198Y-89544408D01*
X141705364Y-89600867D01*
X141705366Y-89600873D01*
X142025112Y-90154689D01*
X142025116Y-90154695D01*
X142064428Y-90199521D01*
X142064430Y-90199523D01*
X142135969Y-90234801D01*
X142215562Y-90240019D01*
X142272026Y-90220852D01*
X143778474Y-89351104D01*
X143823305Y-89311788D01*
X143858583Y-89240249D01*
X143863064Y-89171897D01*
X143887090Y-89106292D01*
X143923950Y-89073118D01*
X144818943Y-88546958D01*
X144825670Y-88544809D01*
X144858625Y-88523630D01*
X144892413Y-88503767D01*
X144892418Y-88503762D01*
X144892742Y-88503510D01*
X144897801Y-88498454D01*
X144903309Y-88494915D01*
X144922813Y-88473458D01*
X144924907Y-88471367D01*
X144936792Y-88464882D01*
X144969574Y-88442766D01*
X145326810Y-88310744D01*
X146046580Y-88044741D01*
X146089565Y-88037053D01*
X146139278Y-88037053D01*
X146139280Y-88037053D01*
X146241140Y-88009760D01*
X146332466Y-87957033D01*
X146407033Y-87882466D01*
X146459760Y-87791140D01*
X146487053Y-87689280D01*
X146487053Y-87583826D01*
X146459760Y-87481966D01*
X146407033Y-87390640D01*
X146332466Y-87316073D01*
X146241140Y-87263346D01*
X146177753Y-87246361D01*
X146118094Y-87209996D01*
X146087566Y-87147149D01*
X146094576Y-87085421D01*
X146093907Y-87085242D01*
X146095103Y-87080775D01*
X146095291Y-87079127D01*
X146096006Y-87077398D01*
X146096011Y-87077391D01*
X146123304Y-86975531D01*
X146123304Y-86870077D01*
X146096011Y-86768217D01*
X146043284Y-86676891D01*
X145968717Y-86602324D01*
X145877393Y-86549598D01*
X145877392Y-86549597D01*
X145802768Y-86529602D01*
X145743108Y-86493236D01*
X145712579Y-86430389D01*
X145715087Y-86377733D01*
X145716410Y-86372795D01*
X145716412Y-86372792D01*
X145743705Y-86270932D01*
X145743705Y-86165478D01*
X145716412Y-86063618D01*
X145663685Y-85972292D01*
X145589118Y-85897725D01*
X145545303Y-85872428D01*
X145497089Y-85821861D01*
X145496787Y-85821271D01*
X145461513Y-85751939D01*
X144913073Y-84673972D01*
X144901258Y-84610855D01*
X144900500Y-84610855D01*
X144900500Y-84606803D01*
X144900218Y-84605297D01*
X144900500Y-84602875D01*
X144900500Y-84497275D01*
X144900500Y-84497273D01*
X144873207Y-84395413D01*
X144820480Y-84304087D01*
X144745913Y-84229520D01*
X144654587Y-84176793D01*
X144552727Y-84149500D01*
X144447273Y-84149500D01*
X144345413Y-84176793D01*
X144345410Y-84176794D01*
X144254085Y-84229521D01*
X144179521Y-84304085D01*
X144126794Y-84395410D01*
X144126793Y-84395413D01*
X144099500Y-84497273D01*
X144099500Y-84602727D01*
X144118591Y-84673974D01*
X144126793Y-84704586D01*
X144126794Y-84704589D01*
X144144090Y-84734548D01*
X144160561Y-84790647D01*
X144311261Y-87955333D01*
X144294787Y-88023233D01*
X144250244Y-88068127D01*
X143554471Y-88477167D01*
X143486703Y-88494173D01*
X143436786Y-88481484D01*
X143414031Y-88470263D01*
X143408812Y-88469920D01*
X143334437Y-88465044D01*
X143277978Y-88484210D01*
X143277972Y-88484212D01*
X141771528Y-89353958D01*
X141771522Y-89353962D01*
X141726696Y-89393274D01*
X141691417Y-89464815D01*
X141686198Y-89544408D01*
X137623608Y-89544408D01*
X137626302Y-89538680D01*
X137638931Y-89504069D01*
X137642195Y-89412672D01*
X137630718Y-89352573D01*
X137608928Y-89292086D01*
X137599990Y-89275836D01*
X137280638Y-88695195D01*
X136574703Y-87411678D01*
X136571483Y-87406318D01*
X136566628Y-87398236D01*
X136563675Y-87393721D01*
X136558355Y-87385587D01*
X136558353Y-87385585D01*
X136558354Y-87385585D01*
X136512588Y-87338811D01*
X136502577Y-87328579D01*
X136452114Y-87293980D01*
X136452115Y-87293980D01*
X136452113Y-87293979D01*
X136452109Y-87293977D01*
X136394060Y-87266368D01*
X128073563Y-84811821D01*
X126554549Y-84363711D01*
X126495819Y-84325863D01*
X126483951Y-84309639D01*
X125923099Y-83395657D01*
X125904792Y-83331753D01*
X125881881Y-80330247D01*
X128299500Y-80330247D01*
X128299500Y-83869752D01*
X128311131Y-83928229D01*
X128311132Y-83928230D01*
X128355447Y-83994552D01*
X128421769Y-84038867D01*
X128421770Y-84038868D01*
X128480247Y-84050499D01*
X128480250Y-84050500D01*
X128480252Y-84050500D01*
X129519750Y-84050500D01*
X129519751Y-84050499D01*
X129534568Y-84047552D01*
X129578229Y-84038868D01*
X129578229Y-84038867D01*
X129578231Y-84038867D01*
X129644552Y-83994552D01*
X129688867Y-83928231D01*
X129688867Y-83928229D01*
X129688868Y-83928229D01*
X129700499Y-83869752D01*
X129700500Y-83869750D01*
X129700500Y-80330249D01*
X129700499Y-80330247D01*
X130299500Y-80330247D01*
X130299500Y-83869752D01*
X130311131Y-83928229D01*
X130311132Y-83928230D01*
X130355447Y-83994552D01*
X130421769Y-84038867D01*
X130421770Y-84038868D01*
X130480247Y-84050499D01*
X130480250Y-84050500D01*
X130480252Y-84050500D01*
X131519750Y-84050500D01*
X131519751Y-84050499D01*
X131534568Y-84047552D01*
X131578229Y-84038868D01*
X131578229Y-84038867D01*
X131578231Y-84038867D01*
X131644552Y-83994552D01*
X131688867Y-83928231D01*
X131688867Y-83928229D01*
X131688868Y-83928229D01*
X131700499Y-83869752D01*
X131700500Y-83869750D01*
X131700500Y-80330249D01*
X131700499Y-80330247D01*
X132299500Y-80330247D01*
X132299500Y-83869752D01*
X132311131Y-83928229D01*
X132311132Y-83928230D01*
X132355447Y-83994552D01*
X132421769Y-84038867D01*
X132421770Y-84038868D01*
X132480247Y-84050499D01*
X132480250Y-84050500D01*
X132480252Y-84050500D01*
X133519750Y-84050500D01*
X133519751Y-84050499D01*
X133534568Y-84047552D01*
X133578229Y-84038868D01*
X133578229Y-84038867D01*
X133578231Y-84038867D01*
X133644552Y-83994552D01*
X133688867Y-83928231D01*
X133688867Y-83928229D01*
X133688868Y-83928229D01*
X133700499Y-83869752D01*
X133700500Y-83869750D01*
X133700500Y-80330250D01*
X133698822Y-80321814D01*
X133698822Y-80321812D01*
X133694857Y-80301882D01*
X134169998Y-80301882D01*
X134169998Y-80301888D01*
X134194195Y-85213901D01*
X134194195Y-85213910D01*
X134200633Y-85263943D01*
X134207289Y-85289902D01*
X134210591Y-85302779D01*
X134212616Y-85310674D01*
X134212617Y-85310678D01*
X134219519Y-85332471D01*
X134219520Y-85332473D01*
X134219521Y-85332475D01*
X134270161Y-85408632D01*
X134314528Y-85450766D01*
X134367503Y-85487203D01*
X138093464Y-87266049D01*
X138145481Y-87312696D01*
X138147702Y-87316429D01*
X138848737Y-88543242D01*
X138848748Y-88543259D01*
X138865194Y-88567768D01*
X138880586Y-88587483D01*
X138882650Y-88590126D01*
X138883811Y-88591598D01*
X138883812Y-88591599D01*
X138888206Y-88597170D01*
X138887449Y-88597766D01*
X138898553Y-88612283D01*
X138908226Y-88629036D01*
X138947542Y-88673867D01*
X139019080Y-88709145D01*
X139098673Y-88714362D01*
X139155137Y-88695195D01*
X139155145Y-88695190D01*
X139160687Y-88692680D01*
X139161154Y-88693711D01*
X139191777Y-88682494D01*
X139196390Y-88681663D01*
X139257103Y-88660500D01*
X139627267Y-88461876D01*
X141061198Y-88461876D01*
X141080364Y-88518335D01*
X141080366Y-88518341D01*
X141400112Y-89072157D01*
X141400116Y-89072163D01*
X141430047Y-89106292D01*
X141439430Y-89116991D01*
X141510969Y-89152269D01*
X141590562Y-89157487D01*
X141647026Y-89138320D01*
X143153474Y-88268572D01*
X143198305Y-88229256D01*
X143233583Y-88157717D01*
X143238801Y-88078124D01*
X143237725Y-88074955D01*
X143224859Y-88037052D01*
X143219634Y-88021660D01*
X143212762Y-88009758D01*
X142966852Y-87583828D01*
X142899886Y-87467840D01*
X142899884Y-87467838D01*
X142899883Y-87467836D01*
X142860571Y-87423010D01*
X142860570Y-87423009D01*
X142789031Y-87387731D01*
X142783812Y-87387388D01*
X142709437Y-87382512D01*
X142652978Y-87401678D01*
X142652972Y-87401680D01*
X141146528Y-88271426D01*
X141146522Y-88271430D01*
X141101696Y-88310742D01*
X141066417Y-88382283D01*
X141061198Y-88461876D01*
X139627267Y-88461876D01*
X139860835Y-88336547D01*
X140109971Y-88202864D01*
X140137063Y-88185465D01*
X140161696Y-88166765D01*
X140165296Y-88163968D01*
X140222439Y-88092561D01*
X140249079Y-88037480D01*
X140262082Y-88003008D01*
X140266339Y-87911651D01*
X140255515Y-87851431D01*
X140234382Y-87790709D01*
X140013908Y-87379344D01*
X140436198Y-87379344D01*
X140455364Y-87435803D01*
X140455366Y-87435809D01*
X140775112Y-87989625D01*
X140775116Y-87989631D01*
X140814428Y-88034457D01*
X140814430Y-88034459D01*
X140885969Y-88069737D01*
X140965562Y-88074955D01*
X141022026Y-88055788D01*
X142528474Y-87186040D01*
X142573305Y-87146724D01*
X142608583Y-87075185D01*
X142613801Y-86995592D01*
X142610954Y-86987206D01*
X142594635Y-86939132D01*
X142594633Y-86939126D01*
X142337198Y-86493236D01*
X142274886Y-86385308D01*
X142274884Y-86385306D01*
X142274883Y-86385304D01*
X142235571Y-86340478D01*
X142235570Y-86340477D01*
X142164031Y-86305199D01*
X142158812Y-86304856D01*
X142084437Y-86299980D01*
X142027978Y-86319146D01*
X142027972Y-86319148D01*
X140521528Y-87188894D01*
X140521522Y-87188898D01*
X140476696Y-87228210D01*
X140476695Y-87228211D01*
X140476695Y-87228212D01*
X140459369Y-87263346D01*
X140441417Y-87299751D01*
X140436198Y-87379344D01*
X140013908Y-87379344D01*
X139433717Y-86296813D01*
X139811198Y-86296813D01*
X139830364Y-86353272D01*
X139830366Y-86353278D01*
X140150112Y-86907094D01*
X140150116Y-86907100D01*
X140178208Y-86939132D01*
X140189430Y-86951928D01*
X140260969Y-86987206D01*
X140340562Y-86992424D01*
X140397026Y-86973257D01*
X141903474Y-86103509D01*
X141948305Y-86064193D01*
X141983583Y-85992654D01*
X141988801Y-85913061D01*
X141969634Y-85856597D01*
X141649886Y-85302777D01*
X141649884Y-85302775D01*
X141649883Y-85302773D01*
X141610571Y-85257947D01*
X141610570Y-85257946D01*
X141539031Y-85222668D01*
X141533812Y-85222325D01*
X141459437Y-85217449D01*
X141402978Y-85236615D01*
X141402972Y-85236617D01*
X139896528Y-86106363D01*
X139896522Y-86106367D01*
X139851696Y-86145679D01*
X139816417Y-86217220D01*
X139811198Y-86296813D01*
X139433717Y-86296813D01*
X139433396Y-86296214D01*
X139431752Y-86293037D01*
X139420725Y-86270932D01*
X138692833Y-84811821D01*
X141894461Y-84811821D01*
X141926184Y-84971297D01*
X141926187Y-84971307D01*
X141988412Y-85121533D01*
X141988414Y-85121537D01*
X142078750Y-85256734D01*
X142078756Y-85256742D01*
X142193733Y-85371719D01*
X142193741Y-85371725D01*
X142328938Y-85462061D01*
X142328942Y-85462063D01*
X142477534Y-85523611D01*
X142479173Y-85524290D01*
X142479177Y-85524290D01*
X142479178Y-85524291D01*
X142638654Y-85556014D01*
X142638657Y-85556014D01*
X142801269Y-85556014D01*
X142908560Y-85534671D01*
X142960751Y-85524290D01*
X143110983Y-85462062D01*
X143110985Y-85462061D01*
X143190947Y-85408632D01*
X143246187Y-85371722D01*
X143361170Y-85256739D01*
X143451510Y-85121535D01*
X143513738Y-84971303D01*
X143545462Y-84811819D01*
X143545462Y-84649209D01*
X143545462Y-84649206D01*
X143513739Y-84489730D01*
X143513738Y-84489729D01*
X143513738Y-84489725D01*
X143461542Y-84363712D01*
X143451511Y-84339494D01*
X143451509Y-84339490D01*
X143361173Y-84204293D01*
X143361167Y-84204285D01*
X143246190Y-84089308D01*
X143246182Y-84089302D01*
X143110985Y-83998966D01*
X143110981Y-83998964D01*
X142960755Y-83936739D01*
X142960745Y-83936736D01*
X142801269Y-83905014D01*
X142801267Y-83905014D01*
X142638657Y-83905014D01*
X142638655Y-83905014D01*
X142479178Y-83936736D01*
X142479168Y-83936739D01*
X142328942Y-83998964D01*
X142328938Y-83998966D01*
X142193741Y-84089302D01*
X142193733Y-84089308D01*
X142078756Y-84204285D01*
X142078750Y-84204293D01*
X141988414Y-84339490D01*
X141988412Y-84339494D01*
X141926187Y-84489720D01*
X141926184Y-84489730D01*
X141894462Y-84649206D01*
X141894462Y-84649209D01*
X141894462Y-84811819D01*
X141894462Y-84811821D01*
X141894461Y-84811821D01*
X138692833Y-84811821D01*
X136385806Y-80187223D01*
X136359664Y-80147254D01*
X136330373Y-80112171D01*
X136320361Y-80101311D01*
X136316692Y-80097331D01*
X136316690Y-80097329D01*
X136316688Y-80097327D01*
X136283626Y-80076945D01*
X136238840Y-80049335D01*
X136180913Y-80029620D01*
X136117559Y-80018682D01*
X136117561Y-80018682D01*
X134478718Y-79995919D01*
X134444634Y-79998287D01*
X134444626Y-79998287D01*
X134444625Y-79998288D01*
X134444622Y-79998288D01*
X134444609Y-79998290D01*
X134412190Y-80003275D01*
X134405756Y-80004370D01*
X134405744Y-80004374D01*
X134321830Y-80040732D01*
X134272507Y-80076941D01*
X134272502Y-80076945D01*
X134244891Y-80101307D01*
X134244884Y-80101316D01*
X134198367Y-80180047D01*
X134198364Y-80180052D01*
X134179747Y-80238321D01*
X134179745Y-80238328D01*
X134169998Y-80301882D01*
X133694857Y-80301882D01*
X133688867Y-80271770D01*
X133688867Y-80271769D01*
X133644552Y-80205447D01*
X133578230Y-80161132D01*
X133578229Y-80161131D01*
X133519752Y-80149500D01*
X133519748Y-80149500D01*
X132480252Y-80149500D01*
X132480247Y-80149500D01*
X132421770Y-80161131D01*
X132421769Y-80161132D01*
X132355447Y-80205447D01*
X132311132Y-80271769D01*
X132311131Y-80271770D01*
X132299500Y-80330247D01*
X131700499Y-80330247D01*
X131688868Y-80271770D01*
X131688867Y-80271769D01*
X131644552Y-80205447D01*
X131578230Y-80161132D01*
X131578229Y-80161131D01*
X131519752Y-80149500D01*
X131519748Y-80149500D01*
X130480252Y-80149500D01*
X130480247Y-80149500D01*
X130421770Y-80161131D01*
X130421769Y-80161132D01*
X130355447Y-80205447D01*
X130311132Y-80271769D01*
X130311131Y-80271770D01*
X130299500Y-80330247D01*
X129700499Y-80330247D01*
X129688868Y-80271770D01*
X129688867Y-80271769D01*
X129644552Y-80205447D01*
X129578230Y-80161132D01*
X129578229Y-80161131D01*
X129519752Y-80149500D01*
X129519748Y-80149500D01*
X128480252Y-80149500D01*
X128480247Y-80149500D01*
X128421770Y-80161131D01*
X128421769Y-80161132D01*
X128355447Y-80205447D01*
X128311132Y-80271769D01*
X128311131Y-80271770D01*
X128299500Y-80330247D01*
X125881881Y-80330247D01*
X125881665Y-80301888D01*
X125881244Y-80246677D01*
X125880969Y-80243421D01*
X125878596Y-80215326D01*
X125873754Y-80185489D01*
X125873105Y-80181713D01*
X125837161Y-80097617D01*
X125801197Y-80048117D01*
X125776956Y-80020372D01*
X125776955Y-80020371D01*
X125698447Y-79973464D01*
X125640257Y-79954557D01*
X125576757Y-79944500D01*
X125576753Y-79944500D01*
X123897200Y-79944500D01*
X123897193Y-79944500D01*
X123866935Y-79946742D01*
X123866905Y-79946745D01*
X123838112Y-79951035D01*
X123835360Y-79951463D01*
X123750622Y-79985858D01*
X123700470Y-80020907D01*
X123700456Y-80020918D01*
X123672286Y-80044633D01*
X123672280Y-80044640D01*
X123623946Y-80122266D01*
X123623942Y-80122276D01*
X123603971Y-80180111D01*
X123592752Y-80243411D01*
X123592751Y-80243421D01*
X123576856Y-81109682D01*
X123495866Y-85523611D01*
X123495867Y-85523612D01*
X123495846Y-85524909D01*
X123495837Y-85525547D01*
X117514507Y-85525547D01*
X117520827Y-85524290D01*
X117671059Y-85462062D01*
X117696766Y-85444884D01*
X117725430Y-85425733D01*
X117725435Y-85425729D01*
X117806263Y-85371722D01*
X117921246Y-85256739D01*
X118011586Y-85121535D01*
X118073814Y-84971303D01*
X118105538Y-84811819D01*
X118105538Y-84649209D01*
X118105538Y-84649206D01*
X118073815Y-84489730D01*
X118073814Y-84489729D01*
X118073814Y-84489725D01*
X118021618Y-84363712D01*
X118011587Y-84339494D01*
X118011585Y-84339490D01*
X117921249Y-84204293D01*
X117921243Y-84204285D01*
X117806266Y-84089308D01*
X117806258Y-84089302D01*
X117671061Y-83998966D01*
X117671057Y-83998964D01*
X117520831Y-83936739D01*
X117520821Y-83936736D01*
X117361345Y-83905014D01*
X117361343Y-83905014D01*
X117198733Y-83905014D01*
X117198731Y-83905014D01*
X117039254Y-83936736D01*
X117039244Y-83936739D01*
X116889018Y-83998964D01*
X116889014Y-83998966D01*
X116753817Y-84089302D01*
X116753809Y-84089308D01*
X116638832Y-84204285D01*
X116638826Y-84204293D01*
X116548490Y-84339490D01*
X116548488Y-84339494D01*
X116486263Y-84489720D01*
X116486260Y-84489730D01*
X116454538Y-84649206D01*
X116454538Y-84649209D01*
X116454538Y-84811819D01*
X116454538Y-84811821D01*
X116454537Y-84811821D01*
X111691205Y-84811821D01*
X114961085Y-79148388D01*
X126424500Y-79148388D01*
X126424500Y-79253842D01*
X126451793Y-79355702D01*
X126504520Y-79447028D01*
X126579087Y-79521595D01*
X126670413Y-79574322D01*
X126772273Y-79601615D01*
X126772275Y-79601615D01*
X126877725Y-79601615D01*
X126877727Y-79601615D01*
X126979587Y-79574322D01*
X127070913Y-79521595D01*
X127145480Y-79447028D01*
X127198207Y-79355702D01*
X127225500Y-79253842D01*
X127225500Y-79148388D01*
X127198207Y-79046528D01*
X127145480Y-78955202D01*
X127070913Y-78880635D01*
X126979587Y-78827908D01*
X126877727Y-78800615D01*
X126772273Y-78800615D01*
X126670413Y-78827908D01*
X126670410Y-78827909D01*
X126579085Y-78880636D01*
X126504521Y-78955200D01*
X126451794Y-79046525D01*
X126451793Y-79046528D01*
X126424500Y-79148388D01*
X114961085Y-79148388D01*
X117652290Y-74487221D01*
X117654975Y-74482789D01*
X117662304Y-74471244D01*
X117669976Y-74463574D01*
X117675232Y-74450883D01*
X117680997Y-74441804D01*
X117699514Y-74425579D01*
X117714960Y-74406413D01*
X117725329Y-74402961D01*
X117733549Y-74395760D01*
X117757895Y-74392122D01*
X117781254Y-74384348D01*
X117785680Y-74384269D01*
X142214321Y-74384269D01*
X142281360Y-74403954D01*
G37*
%TD.AperFunction*%
%TD*%
M02*
