%TF.GenerationSoftware,KiCad,Pcbnew,9.0.6-rc1*%
%TF.CreationDate,2025-10-31T17:35:14+01:00*%
%TF.ProjectId,PCB_BRUSHED,5043425f-4252-4555-9348-45442e6b6963,rev?*%
%TF.SameCoordinates,Original*%
%TF.FileFunction,Soldermask,Top*%
%TF.FilePolarity,Negative*%
%FSLAX46Y46*%
G04 Gerber Fmt 4.6, Leading zero omitted, Abs format (unit mm)*
G04 Created by KiCad (PCBNEW 9.0.6-rc1) date 2025-10-31 17:35:14*
%MOMM*%
%LPD*%
G01*
G04 APERTURE LIST*
G04 Aperture macros list*
%AMRoundRect*
0 Rectangle with rounded corners*
0 $1 Rounding radius*
0 $2 $3 $4 $5 $6 $7 $8 $9 X,Y pos of 4 corners*
0 Add a 4 corners polygon primitive as box body*
4,1,4,$2,$3,$4,$5,$6,$7,$8,$9,$2,$3,0*
0 Add four circle primitives for the rounded corners*
1,1,$1+$1,$2,$3*
1,1,$1+$1,$4,$5*
1,1,$1+$1,$6,$7*
1,1,$1+$1,$8,$9*
0 Add four rect primitives between the rounded corners*
20,1,$1+$1,$2,$3,$4,$5,0*
20,1,$1+$1,$4,$5,$6,$7,0*
20,1,$1+$1,$6,$7,$8,$9,0*
20,1,$1+$1,$8,$9,$2,$3,0*%
%AMRotRect*
0 Rectangle, with rotation*
0 The origin of the aperture is its center*
0 $1 length*
0 $2 width*
0 $3 Rotation angle, in degrees counterclockwise*
0 Add horizontal line*
21,1,$1,$2,0,0,$3*%
G04 Aperture macros list end*
%ADD10C,0.500000*%
%ADD11RoundRect,0.100000X-0.238361X0.022147X0.138361X-0.195353X0.238361X-0.022147X-0.138361X0.195353X0*%
%ADD12RoundRect,0.100000X-0.217500X-0.100000X0.217500X-0.100000X0.217500X0.100000X-0.217500X0.100000X0*%
%ADD13RoundRect,0.100000X0.022147X0.238361X-0.195353X-0.138361X-0.022147X-0.238361X0.195353X0.138361X0*%
%ADD14RoundRect,0.250000X0.286362X-0.454006X0.536362X-0.020994X-0.286362X0.454006X-0.536362X0.020994X0*%
%ADD15RoundRect,0.250000X-0.536362X-0.020994X-0.286362X-0.454006X0.536362X0.020994X0.286362X0.454006X0*%
%ADD16RoundRect,0.100000X0.217500X0.100000X-0.217500X0.100000X-0.217500X-0.100000X0.217500X-0.100000X0*%
%ADD17RoundRect,0.100000X-0.138361X-0.195353X0.238361X0.022147X0.138361X0.195353X-0.238361X-0.022147X0*%
%ADD18C,1.450000*%
%ADD19RoundRect,0.102000X-0.601314X-0.058494X-0.351314X-0.491506X0.601314X0.058494X0.351314X0.491506X0*%
%ADD20RotRect,0.600000X1.700000X300.000000*%
%ADD21RotRect,1.000000X2.700000X300.000000*%
%ADD22RoundRect,0.250000X0.250000X0.475000X-0.250000X0.475000X-0.250000X-0.475000X0.250000X-0.475000X0*%
%ADD23RoundRect,0.100000X0.238361X-0.022147X-0.138361X0.195353X-0.238361X0.022147X0.138361X-0.195353X0*%
%ADD24C,0.800000*%
%ADD25C,5.000000*%
%ADD26RotRect,0.600000X1.700000X60.000000*%
%ADD27RotRect,1.000000X2.700000X60.000000*%
%ADD28RoundRect,0.100000X-0.022147X-0.238361X0.195353X0.138361X0.022147X0.238361X-0.195353X-0.138361X0*%
%ADD29RoundRect,0.147500X0.075639X-0.213989X0.223139X0.041489X-0.075639X0.213989X-0.223139X-0.041489X0*%
%ADD30RoundRect,0.062500X-0.133373X-0.356010X0.241627X0.293510X0.133373X0.356010X-0.241627X-0.293510X0*%
%ADD31RoundRect,0.062500X0.293510X-0.241627X0.356010X-0.133373X-0.293510X0.241627X-0.356010X0.133373X0*%
%ADD32RotRect,5.600000X5.600000X60.000000*%
%ADD33RoundRect,0.100000X0.100000X-0.217500X0.100000X0.217500X-0.100000X0.217500X-0.100000X-0.217500X0*%
%ADD34RotRect,0.550000X0.750000X60.000000*%
%ADD35RoundRect,0.100000X0.138361X0.195353X-0.238361X-0.022147X-0.138361X-0.195353X0.238361X0.022147X0*%
%ADD36RoundRect,0.147500X0.172500X-0.147500X0.172500X0.147500X-0.172500X0.147500X-0.172500X-0.147500X0*%
%ADD37RoundRect,0.102000X0.250000X0.550000X-0.250000X0.550000X-0.250000X-0.550000X0.250000X-0.550000X0*%
%ADD38RoundRect,0.102000X0.351314X-0.491506X0.601314X-0.058494X-0.351314X0.491506X-0.601314X0.058494X0*%
%ADD39RoundRect,0.100000X-0.100000X0.217500X-0.100000X-0.217500X0.100000X-0.217500X0.100000X0.217500X0*%
%ADD40R,0.600000X1.700000*%
%ADD41R,1.000000X2.700000*%
G04 APERTURE END LIST*
D10*
%TO.C,REF\u002A\u002A*%
X141075000Y-118025000D03*
X141925000Y-118025000D03*
%TD*%
%TO.C,REF\u002A\u002A*%
X139375000Y-118025000D03*
X140225000Y-118025000D03*
%TD*%
%TO.C,REF\u002A\u002A*%
X135125000Y-118025000D03*
X135975000Y-118025000D03*
X136825000Y-118025000D03*
X137675000Y-118025000D03*
X138525000Y-118025000D03*
%TD*%
%TO.C,REF\u002A\u002A*%
X118125000Y-118025000D03*
X118975000Y-118025000D03*
X119825000Y-118025000D03*
X120675000Y-118025000D03*
X121525000Y-118025000D03*
%TD*%
%TO.C,REF\u002A\u002A*%
X130875000Y-118025000D03*
X131725000Y-118025000D03*
X132575000Y-118025000D03*
X133425000Y-118025000D03*
X134275000Y-118025000D03*
%TD*%
%TO.C,REF\u002A\u002A*%
X126625000Y-118025000D03*
X127475000Y-118025000D03*
X128325000Y-118025000D03*
X129175000Y-118025000D03*
X130025000Y-118025000D03*
%TD*%
%TO.C,REF\u002A\u002A*%
X122375000Y-118025000D03*
X123225000Y-118025000D03*
X124075000Y-118025000D03*
X124925000Y-118025000D03*
X125775000Y-118025000D03*
%TD*%
%TO.C,REF\u002A\u002A*%
X141025000Y-74000000D03*
X141875000Y-74000000D03*
%TD*%
%TO.C,REF\u002A\u002A*%
X139325000Y-74000000D03*
X140175000Y-74000000D03*
%TD*%
%TO.C,REF\u002A\u002A*%
X135075000Y-74000000D03*
X135925000Y-74000000D03*
X136775000Y-74000000D03*
X137625000Y-74000000D03*
X138475000Y-74000000D03*
%TD*%
%TO.C,REF\u002A\u002A*%
X130825000Y-74000000D03*
X131675000Y-74000000D03*
X132525000Y-74000000D03*
X133375000Y-74000000D03*
X134225000Y-74000000D03*
%TD*%
%TO.C,REF\u002A\u002A*%
X126575000Y-74000000D03*
X127425000Y-74000000D03*
X128275000Y-74000000D03*
X129125000Y-74000000D03*
X129975000Y-74000000D03*
%TD*%
%TO.C,REF\u002A\u002A*%
X122325000Y-74000000D03*
X123175000Y-74000000D03*
X124025000Y-74000000D03*
X124875000Y-74000000D03*
X125725000Y-74000000D03*
%TD*%
%TO.C,REF\u002A\u002A*%
X118075000Y-74000000D03*
X118925000Y-74000000D03*
X119775000Y-74000000D03*
X120625000Y-74000000D03*
X121475000Y-74000000D03*
%TD*%
D11*
%TO.C,R18*%
X134297095Y-98096250D03*
X135002905Y-98503750D03*
%TD*%
D12*
%TO.C,C8*%
X121635000Y-113700000D03*
X122450000Y-113700000D03*
%TD*%
D13*
%TO.C,R9*%
X124570000Y-99022539D03*
X124162500Y-99728349D03*
%TD*%
D14*
%TO.C,C36*%
X123228150Y-93187724D03*
X124178150Y-91542276D03*
%TD*%
D15*
%TO.C,C14*%
X139250000Y-89527276D03*
X140200000Y-91172724D03*
%TD*%
D16*
%TO.C,R8*%
X122450000Y-114475000D03*
X121635000Y-114475000D03*
%TD*%
D17*
%TO.C,R21*%
X143822095Y-93028750D03*
X144527905Y-92621250D03*
%TD*%
D18*
%TO.C,J5*%
X142719962Y-84730514D03*
X146119962Y-90619486D03*
D19*
X146564448Y-84589359D03*
X143273552Y-86489359D03*
X146964448Y-85282180D03*
X143673552Y-87182180D03*
X147364448Y-85975000D03*
X144073552Y-87875000D03*
X147764448Y-86667820D03*
X144473552Y-88567820D03*
X148164448Y-87360641D03*
X144873552Y-89260641D03*
%TD*%
D20*
%TO.C,J9*%
X113932147Y-101643255D03*
X114557147Y-102725786D03*
X115182147Y-103808318D03*
X115807147Y-104890850D03*
X116432147Y-105973382D03*
X117057147Y-107055913D03*
D21*
X110235865Y-101641108D03*
X115210865Y-110258060D03*
%TD*%
D22*
%TO.C,C33*%
X130950000Y-103270000D03*
X129050000Y-103270000D03*
%TD*%
D23*
%TO.C,R20*%
X143527905Y-101478750D03*
X142822095Y-101071250D03*
%TD*%
D17*
%TO.C,R26*%
X118547095Y-104903750D03*
X119252905Y-104496250D03*
%TD*%
D22*
%TO.C,C32*%
X130950000Y-105275000D03*
X129050000Y-105275000D03*
%TD*%
D24*
%TO.C,TP1*%
X138625000Y-77813467D03*
X139174175Y-76487642D03*
X139174175Y-79139292D03*
X140500000Y-75938467D03*
D25*
X140500000Y-77813467D03*
D24*
X140500000Y-79688467D03*
X141825825Y-76487642D03*
X141825825Y-79139292D03*
X142375000Y-77813467D03*
%TD*%
D26*
%TO.C,J3*%
X142934526Y-107116329D03*
X143559526Y-106033798D03*
X144184526Y-104951266D03*
X144809526Y-103868734D03*
X145434526Y-102786202D03*
X146059526Y-101703671D03*
D27*
X144780808Y-110318476D03*
X149755808Y-101701524D03*
%TD*%
D28*
%TO.C,R10*%
X127571250Y-101752905D03*
X127978750Y-101047095D03*
%TD*%
D11*
%TO.C,C9*%
X123997095Y-101696250D03*
X124702905Y-102103750D03*
%TD*%
%TO.C,R16*%
X141685595Y-102746250D03*
X142391405Y-103153750D03*
%TD*%
D24*
%TO.C,TP3*%
X138625000Y-114186533D03*
X139174175Y-112860708D03*
X139174175Y-115512358D03*
X140500000Y-112311533D03*
D25*
X140500000Y-114186533D03*
D24*
X140500000Y-116061533D03*
X141825825Y-112860708D03*
X141825825Y-115512358D03*
X142375000Y-114186533D03*
%TD*%
D29*
%TO.C,D1*%
X124990000Y-100240044D03*
X125475000Y-99400000D03*
%TD*%
D30*
%TO.C,U1*%
X125899680Y-97601962D03*
X126332693Y-97851962D03*
X126765706Y-98101961D03*
X127198718Y-98351962D03*
X127631731Y-98601962D03*
X128064744Y-98851962D03*
X128497756Y-99101962D03*
X128930769Y-99351962D03*
X129363782Y-99601962D03*
X129796794Y-99851962D03*
X130229807Y-100101962D03*
X130662820Y-100351962D03*
D31*
X131601962Y-100100320D03*
X131851962Y-99667307D03*
X132101961Y-99234294D03*
X132351962Y-98801282D03*
X132601962Y-98368269D03*
X132851962Y-97935256D03*
X133101962Y-97502244D03*
X133351962Y-97069231D03*
X133601962Y-96636218D03*
X133851962Y-96203206D03*
X134101962Y-95770193D03*
X134351962Y-95337180D03*
D30*
X134100320Y-94398038D03*
X133667307Y-94148038D03*
X133234294Y-93898039D03*
X132801282Y-93648038D03*
X132368269Y-93398038D03*
X131935256Y-93148038D03*
X131502244Y-92898038D03*
X131069231Y-92648038D03*
X130636218Y-92398038D03*
X130203206Y-92148038D03*
X129770193Y-91898038D03*
X129337180Y-91648038D03*
D31*
X128398038Y-91899680D03*
X128148038Y-92332693D03*
X127898039Y-92765706D03*
X127648038Y-93198718D03*
X127398038Y-93631731D03*
X127148038Y-94064744D03*
X126898038Y-94497756D03*
X126648038Y-94930769D03*
X126398038Y-95363782D03*
X126148038Y-95796794D03*
X125898038Y-96229807D03*
X125648038Y-96662820D03*
D32*
X130000000Y-96000000D03*
%TD*%
D23*
%TO.C,R23*%
X130750000Y-88825000D03*
X130044190Y-88417500D03*
%TD*%
D33*
%TO.C,R6*%
X136300000Y-111150000D03*
X136300000Y-110335000D03*
%TD*%
D34*
%TO.C,Y1*%
X125822372Y-102724520D03*
X126775000Y-103274520D03*
X127150000Y-102625000D03*
X126197372Y-102075000D03*
%TD*%
D33*
%TO.C,R11*%
X130000000Y-82132500D03*
X130000000Y-81317500D03*
%TD*%
D35*
%TO.C,C34*%
X144903349Y-93287500D03*
X144197539Y-93695000D03*
%TD*%
%TO.C,R22*%
X118314405Y-102746250D03*
X117608595Y-103153750D03*
%TD*%
D13*
%TO.C,C17*%
X127278750Y-100647095D03*
X126871250Y-101352905D03*
%TD*%
D11*
%TO.C,R24*%
X131922095Y-101146250D03*
X132627905Y-101553750D03*
%TD*%
D15*
%TO.C,C29*%
X135801190Y-91506492D03*
X136751190Y-93151940D03*
%TD*%
D11*
%TO.C,R17*%
X133922095Y-98721250D03*
X134627905Y-99128750D03*
%TD*%
D36*
%TO.C,LEDRED1*%
X137375000Y-111250000D03*
X137375000Y-110280000D03*
%TD*%
D23*
%TO.C,R12*%
X130352905Y-89528750D03*
X129647095Y-89121250D03*
%TD*%
D12*
%TO.C,R7*%
X121642500Y-112925000D03*
X122457500Y-112925000D03*
%TD*%
D24*
%TO.C,TP2*%
X107125000Y-96000000D03*
X107674175Y-94674175D03*
X107674175Y-97325825D03*
X109000000Y-94125000D03*
D25*
X109000000Y-96000000D03*
D24*
X109000000Y-97875000D03*
X110325825Y-94674175D03*
X110325825Y-97325825D03*
X110875000Y-96000000D03*
%TD*%
D18*
%TO.C,J7*%
X133400000Y-112650000D03*
X126600000Y-112650000D03*
D37*
X131600000Y-116050000D03*
X131600000Y-112250000D03*
X130800000Y-116050000D03*
X130800000Y-112250000D03*
X130000000Y-116050000D03*
X130000000Y-112250000D03*
X129200000Y-116050000D03*
X129200000Y-112250000D03*
X128400000Y-116050000D03*
X128400000Y-112250000D03*
%TD*%
D14*
%TO.C,C13*%
X119775000Y-91197724D03*
X120725000Y-89552276D03*
%TD*%
D15*
%TO.C,C30*%
X137525000Y-90527276D03*
X138475000Y-92172724D03*
%TD*%
D18*
%TO.C,J8*%
X113880038Y-90619486D03*
X117280038Y-84730514D03*
D38*
X111835552Y-87360641D03*
X115126448Y-89260641D03*
X112235552Y-86667820D03*
X115526448Y-88567820D03*
X112635552Y-85975000D03*
X115926448Y-87875000D03*
X113035552Y-85282180D03*
X116326448Y-87182180D03*
X113435552Y-84589359D03*
X116726448Y-86489359D03*
%TD*%
D23*
%TO.C,R13*%
X129977905Y-90228750D03*
X129272095Y-89821250D03*
%TD*%
D14*
%TO.C,C37*%
X121500000Y-92197724D03*
X122450000Y-90552276D03*
%TD*%
D39*
%TO.C,R15*%
X128025000Y-81367500D03*
X128025000Y-82182500D03*
%TD*%
D22*
%TO.C,C12*%
X130950000Y-107275000D03*
X129050000Y-107275000D03*
%TD*%
D40*
%TO.C,J1*%
X133075000Y-79201115D03*
X131825000Y-79201115D03*
X130575000Y-79201115D03*
X129325000Y-79201115D03*
X128075000Y-79201115D03*
X126825000Y-79201115D03*
D41*
X134925000Y-76001115D03*
X124975000Y-76001115D03*
%TD*%
M02*
