%TF.GenerationSoftware,KiCad,Pcbnew,9.0.3*%
%TF.CreationDate,2025-09-12T00:22:29+02:00*%
%TF.ProjectId,FOC_CONTROLLER_V1,464f435f-434f-44e5-9452-4f4c4c45525f,rev?*%
%TF.SameCoordinates,Original*%
%TF.FileFunction,Soldermask,Bot*%
%TF.FilePolarity,Negative*%
%FSLAX46Y46*%
G04 Gerber Fmt 4.6, Leading zero omitted, Abs format (unit mm)*
G04 Created by KiCad (PCBNEW 9.0.3) date 2025-09-12 00:22:29*
%MOMM*%
%LPD*%
G01*
G04 APERTURE LIST*
G04 Aperture macros list*
%AMRoundRect*
0 Rectangle with rounded corners*
0 $1 Rounding radius*
0 $2 $3 $4 $5 $6 $7 $8 $9 X,Y pos of 4 corners*
0 Add a 4 corners polygon primitive as box body*
4,1,4,$2,$3,$4,$5,$6,$7,$8,$9,$2,$3,0*
0 Add four circle primitives for the rounded corners*
1,1,$1+$1,$2,$3*
1,1,$1+$1,$4,$5*
1,1,$1+$1,$6,$7*
1,1,$1+$1,$8,$9*
0 Add four rect primitives between the rounded corners*
20,1,$1+$1,$2,$3,$4,$5,0*
20,1,$1+$1,$4,$5,$6,$7,0*
20,1,$1+$1,$6,$7,$8,$9,0*
20,1,$1+$1,$8,$9,$2,$3,0*%
G04 Aperture macros list end*
%ADD10C,0.000000*%
%ADD11R,2.700000X1.000000*%
%ADD12R,1.700000X0.600000*%
%ADD13C,0.700000*%
%ADD14C,4.400000*%
%ADD15C,1.500000*%
%ADD16RoundRect,0.225000X0.250000X-0.225000X0.250000X0.225000X-0.250000X0.225000X-0.250000X-0.225000X0*%
%ADD17RoundRect,0.100000X0.217500X0.100000X-0.217500X0.100000X-0.217500X-0.100000X0.217500X-0.100000X0*%
%ADD18RoundRect,0.200000X-0.275000X0.200000X-0.275000X-0.200000X0.275000X-0.200000X0.275000X0.200000X0*%
%ADD19R,0.120000X0.500000*%
%ADD20RoundRect,0.100000X-0.217500X-0.100000X0.217500X-0.100000X0.217500X0.100000X-0.217500X0.100000X0*%
%ADD21R,0.300000X0.800000*%
%ADD22R,0.800000X0.300000*%
%ADD23R,1.800000X1.800000*%
%ADD24RoundRect,0.140000X0.170000X-0.140000X0.170000X0.140000X-0.170000X0.140000X-0.170000X-0.140000X0*%
G04 APERTURE END LIST*
D10*
%TO.C,G\u002A\u002A\u002A*%
G36*
X105026076Y-111512872D02*
G01*
X105023959Y-111514989D01*
X105021842Y-111512872D01*
X105023959Y-111510755D01*
X105026076Y-111512872D01*
G37*
G36*
X106101522Y-110280766D02*
G01*
X106099405Y-110282883D01*
X106097288Y-110280766D01*
X106099405Y-110278649D01*
X106101522Y-110280766D01*
G37*
G36*
X106224310Y-110348511D02*
G01*
X106222192Y-110350628D01*
X106220075Y-110348511D01*
X106222192Y-110346394D01*
X106224310Y-110348511D01*
G37*
G36*
X106245480Y-110361213D02*
G01*
X106243363Y-110363330D01*
X106241246Y-110361213D01*
X106243363Y-110359096D01*
X106245480Y-110361213D01*
G37*
G36*
X106266650Y-110373915D02*
G01*
X106264533Y-110376032D01*
X106262416Y-110373915D01*
X106264533Y-110371798D01*
X106266650Y-110373915D01*
G37*
G36*
X106275118Y-110378149D02*
G01*
X106273001Y-110380266D01*
X106270884Y-110378149D01*
X106273001Y-110376032D01*
X106275118Y-110378149D01*
G37*
G36*
X106287820Y-110386617D02*
G01*
X106285703Y-110388734D01*
X106283586Y-110386617D01*
X106285703Y-110384500D01*
X106287820Y-110386617D01*
G37*
G36*
X106296288Y-110390851D02*
G01*
X106294171Y-110392968D01*
X106292054Y-110390851D01*
X106294171Y-110388734D01*
X106296288Y-110390851D01*
G37*
G36*
X107261649Y-111161446D02*
G01*
X107259532Y-111163563D01*
X107257415Y-111161446D01*
X107259532Y-111159329D01*
X107261649Y-111161446D01*
G37*
G36*
X106086948Y-110270372D02*
G01*
X106090937Y-110274415D01*
X106091726Y-110275914D01*
X106091437Y-110278649D01*
X106090693Y-110278459D01*
X106086703Y-110274415D01*
X106085915Y-110272916D01*
X106086203Y-110270181D01*
X106086948Y-110270372D01*
G37*
G36*
X106230905Y-110350818D02*
G01*
X106234895Y-110354862D01*
X106235683Y-110356361D01*
X106235394Y-110359096D01*
X106234650Y-110358906D01*
X106230661Y-110354862D01*
X106229872Y-110353363D01*
X106230161Y-110350628D01*
X106230905Y-110350818D01*
G37*
G36*
X106252075Y-110363521D02*
G01*
X106256065Y-110367564D01*
X106256853Y-110369063D01*
X106256565Y-110371798D01*
X106255820Y-110371608D01*
X106251831Y-110367564D01*
X106251042Y-110366065D01*
X106251331Y-110363330D01*
X106252075Y-110363521D01*
G37*
G36*
X105216052Y-113141854D02*
G01*
X105337193Y-113142977D01*
X105359306Y-113207546D01*
X105381419Y-113272115D01*
X105216450Y-113272115D01*
X105207045Y-113272110D01*
X105171220Y-113271993D01*
X105138410Y-113271735D01*
X105109526Y-113271353D01*
X105085475Y-113270865D01*
X105067166Y-113270289D01*
X105055508Y-113269641D01*
X105051409Y-113268939D01*
X105051839Y-113267025D01*
X105054538Y-113258212D01*
X105059303Y-113243682D01*
X105065657Y-113224879D01*
X105073124Y-113203248D01*
X105094911Y-113140732D01*
X105216052Y-113141854D01*
G37*
G36*
X107199498Y-111899778D02*
G01*
X107197761Y-111904136D01*
X107189905Y-111916175D01*
X107177639Y-111930698D01*
X107162542Y-111945923D01*
X107146190Y-111960065D01*
X107136208Y-111967766D01*
X107127485Y-111974077D01*
X107123355Y-111976499D01*
X107124052Y-111974020D01*
X107129416Y-111966746D01*
X107138372Y-111956001D01*
X107149720Y-111943117D01*
X107162260Y-111929428D01*
X107174792Y-111916268D01*
X107186116Y-111904971D01*
X107195030Y-111896869D01*
X107196909Y-111895359D01*
X107200325Y-111894025D01*
X107199498Y-111899778D01*
G37*
G36*
X107297936Y-111597786D02*
G01*
X107298501Y-111607993D01*
X107297634Y-111626533D01*
X107292175Y-111667407D01*
X107278316Y-111718791D01*
X107257074Y-111769552D01*
X107228938Y-111818324D01*
X107221465Y-111829319D01*
X107215359Y-111837774D01*
X107212509Y-111841010D01*
X107212652Y-111839476D01*
X107215208Y-111832179D01*
X107219864Y-111820898D01*
X107220449Y-111819533D01*
X107226805Y-111803517D01*
X107234905Y-111781579D01*
X107244086Y-111755674D01*
X107253685Y-111727752D01*
X107263039Y-111699767D01*
X107271484Y-111673671D01*
X107278359Y-111651416D01*
X107282999Y-111634955D01*
X107287821Y-111617072D01*
X107292579Y-111602336D01*
X107295957Y-111595904D01*
X107297936Y-111597786D01*
G37*
G36*
X105216548Y-112793573D02*
G01*
X105219986Y-112802889D01*
X105225399Y-112818045D01*
X105232353Y-112837787D01*
X105240415Y-112860861D01*
X105249151Y-112886013D01*
X105258128Y-112911989D01*
X105266914Y-112937533D01*
X105275075Y-112961393D01*
X105282177Y-112982313D01*
X105287788Y-112999040D01*
X105291474Y-113010320D01*
X105292802Y-113014897D01*
X105288854Y-113015892D01*
X105277747Y-113016766D01*
X105260799Y-113017456D01*
X105239331Y-113017909D01*
X105214660Y-113018073D01*
X105136499Y-113018073D01*
X105175477Y-112904088D01*
X105177554Y-112898020D01*
X105187450Y-112869278D01*
X105196389Y-112843585D01*
X105204020Y-112821934D01*
X105209989Y-112805320D01*
X105213943Y-112794737D01*
X105215530Y-112791179D01*
X105216548Y-112793573D01*
G37*
G36*
X107634561Y-112832393D02*
G01*
X107635556Y-112836345D01*
X107636374Y-112843906D01*
X107637029Y-112855684D01*
X107637540Y-112872287D01*
X107637921Y-112894321D01*
X107638189Y-112922394D01*
X107638361Y-112957114D01*
X107638452Y-112999087D01*
X107638479Y-113048921D01*
X107638479Y-113272115D01*
X107498505Y-113272115D01*
X107472397Y-113272091D01*
X107438035Y-113271943D01*
X107411007Y-113271639D01*
X107390622Y-113271150D01*
X107376188Y-113270451D01*
X107367013Y-113269514D01*
X107362406Y-113268314D01*
X107361676Y-113266822D01*
X107366376Y-113259009D01*
X107375793Y-113243572D01*
X107388373Y-113223101D01*
X107403640Y-113198362D01*
X107421117Y-113170119D01*
X107440328Y-113139136D01*
X107460796Y-113106178D01*
X107482045Y-113072009D01*
X107503598Y-113037394D01*
X107524980Y-113003098D01*
X107545714Y-112969884D01*
X107565322Y-112938518D01*
X107583330Y-112909763D01*
X107599261Y-112884385D01*
X107612638Y-112863148D01*
X107622984Y-112846816D01*
X107629824Y-112836154D01*
X107632681Y-112831926D01*
X107633372Y-112831445D01*
X107634561Y-112832393D01*
G37*
G36*
X104873540Y-111434852D02*
G01*
X104881713Y-111438190D01*
X104895062Y-111444579D01*
X104912170Y-111453253D01*
X104931626Y-111463449D01*
X104952014Y-111474401D01*
X104971921Y-111485345D01*
X104989933Y-111495515D01*
X105004636Y-111504146D01*
X105014616Y-111510475D01*
X105018458Y-111513735D01*
X105020506Y-111515894D01*
X105029127Y-111521838D01*
X105043509Y-111530596D01*
X105062606Y-111541558D01*
X105085371Y-111554113D01*
X105110757Y-111567649D01*
X105127024Y-111576219D01*
X105152452Y-111589757D01*
X105175400Y-111602145D01*
X105194609Y-111612695D01*
X105208819Y-111620720D01*
X105216771Y-111625533D01*
X105224128Y-111629766D01*
X105238201Y-111637077D01*
X105257647Y-111646774D01*
X105281280Y-111658275D01*
X105307912Y-111670994D01*
X105336359Y-111684350D01*
X105338001Y-111685115D01*
X105365346Y-111697963D01*
X105389936Y-111709724D01*
X105410784Y-111719908D01*
X105426901Y-111728027D01*
X105437298Y-111733591D01*
X105440988Y-111736112D01*
X105440404Y-111737249D01*
X105437351Y-111737179D01*
X105430765Y-111735007D01*
X105419627Y-111730327D01*
X105402918Y-111722738D01*
X105379619Y-111711836D01*
X105366415Y-111705763D01*
X105347066Y-111697336D01*
X105330139Y-111690487D01*
X105318225Y-111686293D01*
X105311322Y-111684210D01*
X105288450Y-111676566D01*
X105266939Y-111668367D01*
X105249064Y-111660519D01*
X105237101Y-111653932D01*
X105233124Y-111651570D01*
X105220972Y-111645582D01*
X105204564Y-111638367D01*
X105186293Y-111631004D01*
X105176273Y-111626883D01*
X105157870Y-111618776D01*
X105134030Y-111607897D01*
X105105942Y-111594799D01*
X105074795Y-111580040D01*
X105041778Y-111564175D01*
X105008082Y-111547760D01*
X104869417Y-111479722D01*
X104869417Y-111457132D01*
X104869633Y-111448202D01*
X104870590Y-111438366D01*
X104872054Y-111434542D01*
X104873540Y-111434852D01*
G37*
G36*
X108870584Y-111273648D02*
G01*
X108870584Y-113272115D01*
X108688520Y-113272115D01*
X108506457Y-113272115D01*
X108506457Y-112941860D01*
X108506457Y-112611605D01*
X108267233Y-112611605D01*
X108028010Y-112611605D01*
X108028010Y-112677232D01*
X108028010Y-112742860D01*
X108182553Y-112742860D01*
X108337095Y-112742860D01*
X108337095Y-112797903D01*
X108337095Y-112852945D01*
X108193138Y-112852945D01*
X108049180Y-112852945D01*
X108049180Y-112918573D01*
X108049180Y-112984200D01*
X108193231Y-112984200D01*
X108337282Y-112984200D01*
X108336130Y-113063588D01*
X108334978Y-113142977D01*
X108181494Y-113144088D01*
X108028010Y-113145199D01*
X108028010Y-113208657D01*
X108028010Y-113272115D01*
X107911574Y-113272115D01*
X107795138Y-113272115D01*
X107795138Y-112941860D01*
X107795138Y-112611605D01*
X107691945Y-112611605D01*
X107588752Y-112611605D01*
X107470716Y-112796409D01*
X107352681Y-112981212D01*
X107351578Y-112796409D01*
X107350475Y-112611605D01*
X107270073Y-112611605D01*
X107189670Y-112611605D01*
X107189670Y-112941860D01*
X107189670Y-113272115D01*
X107023484Y-113271890D01*
X106857298Y-113271664D01*
X106891171Y-113261632D01*
X106893157Y-113261041D01*
X106912580Y-113255042D01*
X106931547Y-113248856D01*
X106946213Y-113243734D01*
X106967383Y-113235867D01*
X106968533Y-113154491D01*
X106968657Y-113145814D01*
X106968951Y-113117457D01*
X106968601Y-113096662D01*
X106967138Y-113082708D01*
X106964092Y-113074877D01*
X106958993Y-113072448D01*
X106951371Y-113074701D01*
X106940756Y-113080918D01*
X106926678Y-113090378D01*
X106900713Y-113106448D01*
X106866079Y-113123822D01*
X106830138Y-113137932D01*
X106793715Y-113148765D01*
X106757633Y-113156306D01*
X106722713Y-113160540D01*
X106689780Y-113161454D01*
X106659655Y-113159032D01*
X106633162Y-113153262D01*
X106611125Y-113144128D01*
X106594364Y-113131616D01*
X106583705Y-113115713D01*
X106579969Y-113096402D01*
X106580079Y-113092227D01*
X106582901Y-113077399D01*
X106590143Y-113065018D01*
X106602614Y-113054538D01*
X106621121Y-113045410D01*
X106646475Y-113037087D01*
X106679483Y-113029021D01*
X106690601Y-113026584D01*
X106722093Y-113019610D01*
X106747126Y-113013901D01*
X106767098Y-113009096D01*
X106783411Y-113004834D01*
X106797466Y-113000756D01*
X106810662Y-112996500D01*
X106824401Y-112991705D01*
X106851465Y-112980664D01*
X106888620Y-112959642D01*
X106918432Y-112934414D01*
X106940895Y-112904992D01*
X106955998Y-112871388D01*
X106963735Y-112833614D01*
X106964097Y-112791680D01*
X106961729Y-112773332D01*
X106950995Y-112737822D01*
X106932552Y-112705337D01*
X106906639Y-112676175D01*
X106873496Y-112650634D01*
X106833361Y-112629010D01*
X106832535Y-112628640D01*
X106806985Y-112618266D01*
X106782135Y-112610678D01*
X106755707Y-112605418D01*
X106725422Y-112602030D01*
X106689003Y-112600057D01*
X106677105Y-112599746D01*
X106626586Y-112600676D01*
X106576087Y-112604973D01*
X106527649Y-112612344D01*
X106483310Y-112622495D01*
X106445110Y-112635134D01*
X106427543Y-112642163D01*
X106427543Y-112720033D01*
X106427545Y-112730155D01*
X106427608Y-112754967D01*
X106427861Y-112772835D01*
X106428440Y-112784899D01*
X106429476Y-112792298D01*
X106431104Y-112796171D01*
X106433458Y-112797660D01*
X106436670Y-112797903D01*
X106438840Y-112797671D01*
X106448970Y-112793896D01*
X106460141Y-112786962D01*
X106472462Y-112778905D01*
X106491589Y-112768464D01*
X106514260Y-112757434D01*
X106538118Y-112746900D01*
X106560806Y-112737951D01*
X106579969Y-112731674D01*
X106588621Y-112729547D01*
X106608198Y-112726393D01*
X106632166Y-112724638D01*
X106662533Y-112724097D01*
X106664300Y-112724098D01*
X106687979Y-112724332D01*
X106705446Y-112725153D01*
X106718819Y-112726821D01*
X106730213Y-112729591D01*
X106741745Y-112733721D01*
X106751929Y-112738274D01*
X106771345Y-112751169D01*
X106783336Y-112766453D01*
X106787437Y-112783619D01*
X106787249Y-112789865D01*
X106785261Y-112801892D01*
X106780454Y-112812104D01*
X106772035Y-112820933D01*
X106759209Y-112828812D01*
X106741180Y-112836172D01*
X106717155Y-112843446D01*
X106686338Y-112851066D01*
X106647935Y-112859463D01*
X106639728Y-112861218D01*
X106585474Y-112874540D01*
X106539144Y-112889379D01*
X106500327Y-112906078D01*
X106468610Y-112924982D01*
X106443583Y-112946433D01*
X106424834Y-112970774D01*
X106411951Y-112998350D01*
X106404524Y-113029504D01*
X106402139Y-113064578D01*
X106403279Y-113086790D01*
X106411386Y-113125756D01*
X106427076Y-113161347D01*
X106450109Y-113193263D01*
X106480245Y-113221201D01*
X106517244Y-113244860D01*
X106560866Y-113263938D01*
X106563784Y-113264992D01*
X106567705Y-113266591D01*
X106569580Y-113267906D01*
X106568765Y-113268966D01*
X106564618Y-113269801D01*
X106556499Y-113270441D01*
X106543763Y-113270914D01*
X106525770Y-113271250D01*
X106501877Y-113271477D01*
X106471442Y-113271626D01*
X106433823Y-113271726D01*
X106388379Y-113271806D01*
X106194671Y-113272115D01*
X106194671Y-112941860D01*
X106194671Y-112611605D01*
X105955448Y-112611605D01*
X105716225Y-112611605D01*
X105716225Y-112677232D01*
X105716225Y-112742860D01*
X105868650Y-112742860D01*
X106021076Y-112742860D01*
X106021076Y-112797903D01*
X106021076Y-112852945D01*
X105879235Y-112852945D01*
X105737395Y-112852945D01*
X105737395Y-112918573D01*
X105737395Y-112984200D01*
X105879235Y-112984200D01*
X106021076Y-112984200D01*
X106021076Y-113064647D01*
X106021076Y-113145094D01*
X105868650Y-113145094D01*
X105716225Y-113145094D01*
X105716225Y-113208604D01*
X105716225Y-113272115D01*
X105636599Y-113272115D01*
X105556974Y-113272115D01*
X105434743Y-112941860D01*
X105312511Y-112611605D01*
X105212693Y-112611635D01*
X105112874Y-112611665D01*
X104992204Y-112937820D01*
X104871534Y-113263975D01*
X104870466Y-112382435D01*
X104870391Y-112316911D01*
X104870309Y-112232818D01*
X104870246Y-112151284D01*
X104870200Y-112072704D01*
X104870173Y-111997472D01*
X104870162Y-111925981D01*
X104870169Y-111858626D01*
X104870193Y-111795800D01*
X104870233Y-111737898D01*
X104870289Y-111685312D01*
X104870362Y-111638437D01*
X104870450Y-111597668D01*
X104870554Y-111563397D01*
X104870672Y-111536018D01*
X104870806Y-111515926D01*
X104870953Y-111503514D01*
X104871116Y-111499177D01*
X104873859Y-111499616D01*
X104882981Y-111503438D01*
X104897206Y-111510315D01*
X104915275Y-111519555D01*
X104935931Y-111530470D01*
X104957914Y-111542369D01*
X104979968Y-111554562D01*
X105000833Y-111566359D01*
X105019252Y-111577069D01*
X105033966Y-111586004D01*
X105043717Y-111592471D01*
X105047247Y-111595783D01*
X105047116Y-111596296D01*
X105042794Y-111596567D01*
X105034258Y-111593170D01*
X105033225Y-111592649D01*
X105023149Y-111588813D01*
X105016263Y-111588198D01*
X105015240Y-111588936D01*
X105015974Y-111590907D01*
X105019951Y-111594335D01*
X105027868Y-111599657D01*
X105040422Y-111607309D01*
X105058310Y-111617725D01*
X105082228Y-111631343D01*
X105112874Y-111648597D01*
X105130579Y-111658742D01*
X105147505Y-111668938D01*
X105159963Y-111677026D01*
X105166963Y-111682361D01*
X105167515Y-111684296D01*
X105167219Y-111684289D01*
X105159061Y-111681846D01*
X105146677Y-111675851D01*
X105132624Y-111667532D01*
X105118013Y-111658432D01*
X105102113Y-111649155D01*
X105089627Y-111642512D01*
X105080483Y-111638706D01*
X105073762Y-111637786D01*
X105073321Y-111640878D01*
X105079075Y-111647126D01*
X105090937Y-111655669D01*
X105102490Y-111663663D01*
X105117921Y-111675481D01*
X105132758Y-111687819D01*
X105134770Y-111689545D01*
X105151102Y-111702082D01*
X105170656Y-111715323D01*
X105189633Y-111726673D01*
X105194943Y-111729610D01*
X105211587Y-111739171D01*
X105226042Y-111747961D01*
X105235661Y-111754383D01*
X105242483Y-111758953D01*
X105256290Y-111767430D01*
X105274887Y-111778417D01*
X105296825Y-111791090D01*
X105320656Y-111804628D01*
X105344928Y-111818207D01*
X105368194Y-111831007D01*
X105389004Y-111842204D01*
X105405909Y-111850976D01*
X105409768Y-111852897D01*
X105431457Y-111863186D01*
X105459481Y-111875882D01*
X105492565Y-111890453D01*
X105529433Y-111906367D01*
X105568809Y-111923093D01*
X105609417Y-111940100D01*
X105649981Y-111956855D01*
X105689225Y-111972829D01*
X105725874Y-111987488D01*
X105758652Y-112000302D01*
X105786283Y-112010739D01*
X105807491Y-112018267D01*
X105846583Y-112031140D01*
X105884637Y-112042993D01*
X105920337Y-112053209D01*
X105955223Y-112062132D01*
X105990836Y-112070106D01*
X106028717Y-112077473D01*
X106070408Y-112084577D01*
X106117450Y-112091763D01*
X106171384Y-112099372D01*
X106175431Y-112099929D01*
X106199292Y-112103284D01*
X106221924Y-112106576D01*
X106240938Y-112109454D01*
X106253948Y-112111563D01*
X106267142Y-112113612D01*
X106287350Y-112116230D01*
X106306873Y-112118296D01*
X106308253Y-112118422D01*
X106327986Y-112120578D01*
X106350966Y-112123543D01*
X106372501Y-112126717D01*
X106390334Y-112129093D01*
X106414199Y-112131545D01*
X106440354Y-112133687D01*
X106465650Y-112135232D01*
X106468966Y-112135397D01*
X106491400Y-112136743D01*
X106511736Y-112138331D01*
X106527853Y-112139976D01*
X106537628Y-112141494D01*
X106544726Y-112143237D01*
X106547653Y-112144488D01*
X106543382Y-112145073D01*
X106531277Y-112145377D01*
X106527381Y-112145364D01*
X106512779Y-112144768D01*
X106492740Y-112143488D01*
X106469385Y-112141669D01*
X106444835Y-112139457D01*
X106422018Y-112137339D01*
X106401235Y-112135712D01*
X106387272Y-112135129D01*
X106379259Y-112135593D01*
X106376326Y-112137106D01*
X106377603Y-112139672D01*
X106378646Y-112140158D01*
X106386694Y-112141798D01*
X106401398Y-112143864D01*
X106421463Y-112146233D01*
X106445591Y-112148783D01*
X106472485Y-112151391D01*
X106500849Y-112153934D01*
X106529385Y-112156289D01*
X106556797Y-112158334D01*
X106581788Y-112159947D01*
X106603060Y-112161004D01*
X106612490Y-112161356D01*
X106632514Y-112161904D01*
X106649869Y-112161898D01*
X106666392Y-112161191D01*
X106683918Y-112159638D01*
X106704282Y-112157092D01*
X106729321Y-112153407D01*
X106760871Y-112148436D01*
X106786855Y-112144224D01*
X106822612Y-112138112D01*
X106852791Y-112132391D01*
X106879127Y-112126639D01*
X106903357Y-112120432D01*
X106927215Y-112113348D01*
X106952437Y-112104964D01*
X106980758Y-112094856D01*
X107000172Y-112087663D01*
X107039107Y-112072260D01*
X107071904Y-112057467D01*
X107100030Y-112042366D01*
X107124949Y-112026039D01*
X107148126Y-112007567D01*
X107171026Y-111986032D01*
X107195114Y-111960518D01*
X107197440Y-111957939D01*
X107237161Y-111910939D01*
X107269681Y-111865924D01*
X107295604Y-111821735D01*
X107315534Y-111777212D01*
X107330074Y-111731195D01*
X107339829Y-111682523D01*
X107341884Y-111666737D01*
X107344678Y-111637063D01*
X107346877Y-111603326D01*
X107348420Y-111567606D01*
X107349245Y-111531982D01*
X107349291Y-111498533D01*
X107348496Y-111469338D01*
X107346800Y-111446477D01*
X107346325Y-111442563D01*
X107340725Y-111410272D01*
X107332115Y-111374546D01*
X107321365Y-111338358D01*
X107309347Y-111304681D01*
X107296934Y-111276486D01*
X107293956Y-111270478D01*
X107285367Y-111252135D01*
X107277593Y-111234175D01*
X107271192Y-111218052D01*
X107266722Y-111205223D01*
X107264741Y-111197145D01*
X107265808Y-111195272D01*
X107267965Y-111195747D01*
X107270117Y-111191584D01*
X107269736Y-111188725D01*
X107265883Y-111182617D01*
X107262014Y-111177281D01*
X107262763Y-111170863D01*
X107268000Y-111167797D01*
X107268778Y-111167789D01*
X107272763Y-111167013D01*
X107273240Y-111164258D01*
X107269598Y-111158512D01*
X107261223Y-111148768D01*
X107247503Y-111134015D01*
X107242798Y-111128940D01*
X107226556Y-111110516D01*
X107209386Y-111089990D01*
X107194299Y-111070933D01*
X107183216Y-111057077D01*
X107165974Y-111036972D01*
X107147070Y-111016104D01*
X107128978Y-110997263D01*
X107128074Y-110996355D01*
X107112462Y-110980382D01*
X107098344Y-110965402D01*
X107087238Y-110953059D01*
X107080664Y-110944996D01*
X107071316Y-110931779D01*
X107165424Y-110929609D01*
X107169275Y-110929517D01*
X107220707Y-110927449D01*
X107265758Y-110923726D01*
X107306294Y-110917946D01*
X107344184Y-110909710D01*
X107381295Y-110898616D01*
X107419494Y-110884262D01*
X107460649Y-110866250D01*
X107482956Y-110855785D01*
X107505192Y-110844555D01*
X107523038Y-110833990D01*
X107538397Y-110822653D01*
X107553170Y-110809109D01*
X107569259Y-110791921D01*
X107588567Y-110769652D01*
X107618152Y-110732465D01*
X107651250Y-110682250D01*
X107676521Y-110631790D01*
X107694308Y-110580468D01*
X107696631Y-110570645D01*
X107700836Y-110543021D01*
X107703379Y-110510540D01*
X107704236Y-110475612D01*
X107703380Y-110440650D01*
X107700786Y-110408064D01*
X107696429Y-110380266D01*
X107687155Y-110343692D01*
X107672338Y-110297571D01*
X107653694Y-110248136D01*
X107632010Y-110197130D01*
X107608071Y-110146298D01*
X107582663Y-110097383D01*
X107556573Y-110052131D01*
X107530587Y-110012284D01*
X107507816Y-109980933D01*
X107450320Y-109909429D01*
X107384699Y-109837307D01*
X107311156Y-109764783D01*
X107229894Y-109692072D01*
X107168941Y-109641086D01*
X107095612Y-109583091D01*
X107022732Y-109529426D01*
X106948548Y-109478908D01*
X106871306Y-109430351D01*
X106789254Y-109382572D01*
X106700639Y-109334384D01*
X106698367Y-109333183D01*
X106677892Y-109322223D01*
X106658790Y-109311767D01*
X106643108Y-109302947D01*
X106632894Y-109296896D01*
X106629554Y-109294899D01*
X106613160Y-109286869D01*
X106596905Y-109280983D01*
X106596625Y-109280897D01*
X106596538Y-109280355D01*
X106599677Y-109279848D01*
X106606290Y-109279377D01*
X106616628Y-109278940D01*
X106630940Y-109278535D01*
X106649475Y-109278162D01*
X106672485Y-109277819D01*
X106700217Y-109277505D01*
X106732923Y-109277219D01*
X106770851Y-109276959D01*
X106814251Y-109276725D01*
X106863373Y-109276514D01*
X106918466Y-109276327D01*
X106979781Y-109276161D01*
X107047566Y-109276016D01*
X107122072Y-109275890D01*
X107203548Y-109275781D01*
X107292244Y-109275690D01*
X107388409Y-109275614D01*
X107492293Y-109275553D01*
X107604146Y-109275504D01*
X107724218Y-109275468D01*
X108870584Y-109275182D01*
X108870584Y-111273648D01*
G37*
G36*
X105676353Y-109275183D02*
G01*
X105764104Y-109275187D01*
X105844029Y-109275200D01*
X105916513Y-109275226D01*
X105981943Y-109275268D01*
X106040706Y-109275332D01*
X106093189Y-109275422D01*
X106139778Y-109275541D01*
X106180859Y-109275694D01*
X106216819Y-109275886D01*
X106248044Y-109276120D01*
X106274922Y-109276401D01*
X106297837Y-109276734D01*
X106317178Y-109277122D01*
X106333331Y-109277569D01*
X106346681Y-109278081D01*
X106357616Y-109278661D01*
X106366522Y-109279313D01*
X106373786Y-109280042D01*
X106379794Y-109280853D01*
X106384933Y-109281748D01*
X106389588Y-109282734D01*
X106394148Y-109283813D01*
X106398186Y-109284835D01*
X106426973Y-109293834D01*
X106462349Y-109307399D01*
X106503953Y-109325368D01*
X106551426Y-109347581D01*
X106604406Y-109373874D01*
X106662533Y-109404088D01*
X106683151Y-109415391D01*
X106721947Y-109438149D01*
X106764996Y-109464933D01*
X106810941Y-109494808D01*
X106858427Y-109526837D01*
X106906097Y-109560083D01*
X106952596Y-109593612D01*
X106996569Y-109626485D01*
X107036660Y-109657768D01*
X107071512Y-109686523D01*
X107100282Y-109711374D01*
X107146785Y-109752760D01*
X107187649Y-109790797D01*
X107222598Y-109825211D01*
X107251354Y-109855723D01*
X107273640Y-109882057D01*
X107289180Y-109903937D01*
X107292617Y-109909020D01*
X107302130Y-109921257D01*
X107312915Y-109933575D01*
X107317843Y-109938906D01*
X107339408Y-109963846D01*
X107361157Y-109991280D01*
X107381532Y-110019100D01*
X107398976Y-110045202D01*
X107411933Y-110067480D01*
X107422457Y-110089054D01*
X107434569Y-110116293D01*
X107447079Y-110146466D01*
X107459428Y-110178055D01*
X107471054Y-110209539D01*
X107481398Y-110239401D01*
X107489900Y-110266120D01*
X107496000Y-110288178D01*
X107499138Y-110304054D01*
X107502972Y-110337723D01*
X107505371Y-110364492D01*
X107506128Y-110385331D01*
X107505067Y-110401463D01*
X107502014Y-110414110D01*
X107496793Y-110424498D01*
X107489227Y-110433848D01*
X107479143Y-110443385D01*
X107473864Y-110447703D01*
X107456113Y-110459910D01*
X107433882Y-110473038D01*
X107409678Y-110485740D01*
X107386009Y-110496670D01*
X107365383Y-110504481D01*
X107358288Y-110506552D01*
X107341375Y-110510879D01*
X107320871Y-110515628D01*
X107299755Y-110520090D01*
X107283578Y-110523463D01*
X107263327Y-110528515D01*
X107249687Y-110533552D01*
X107241544Y-110539190D01*
X107237787Y-110546047D01*
X107237301Y-110554742D01*
X107237200Y-110563471D01*
X107233406Y-110568588D01*
X107223543Y-110572082D01*
X107216782Y-110573120D01*
X107201821Y-110574356D01*
X107180312Y-110575572D01*
X107153297Y-110576738D01*
X107121818Y-110577826D01*
X107086916Y-110578807D01*
X107049633Y-110579652D01*
X107011010Y-110580332D01*
X106972089Y-110580819D01*
X106933913Y-110581084D01*
X106897522Y-110581097D01*
X106866479Y-110580823D01*
X106839496Y-110580062D01*
X106816212Y-110578613D01*
X106794175Y-110576268D01*
X106770934Y-110572818D01*
X106744038Y-110568055D01*
X106735973Y-110567723D01*
X106732394Y-110570353D01*
X106732412Y-110570661D01*
X106736504Y-110575966D01*
X106745732Y-110581542D01*
X106757153Y-110585946D01*
X106767827Y-110587734D01*
X106768543Y-110587738D01*
X106780628Y-110589096D01*
X106788198Y-110592339D01*
X106789280Y-110596646D01*
X106789217Y-110596740D01*
X106783248Y-110599104D01*
X106771158Y-110600037D01*
X106755102Y-110599594D01*
X106737229Y-110597832D01*
X106719692Y-110594808D01*
X106714875Y-110593632D01*
X106702694Y-110589326D01*
X106689347Y-110582376D01*
X106673102Y-110571800D01*
X106652226Y-110556618D01*
X106639394Y-110547448D01*
X106621116Y-110535119D01*
X106599182Y-110520825D01*
X106574668Y-110505223D01*
X106548653Y-110488967D01*
X106522212Y-110472714D01*
X106496422Y-110457121D01*
X106472361Y-110442844D01*
X106451104Y-110430538D01*
X106433729Y-110420861D01*
X106421312Y-110414467D01*
X106414930Y-110412014D01*
X106409716Y-110410845D01*
X106395225Y-110404463D01*
X106374839Y-110392760D01*
X106348868Y-110375906D01*
X106347282Y-110374845D01*
X106331122Y-110364760D01*
X106310200Y-110352589D01*
X106287045Y-110339771D01*
X106264187Y-110327745D01*
X106240057Y-110315237D01*
X106211984Y-110300333D01*
X106184496Y-110285434D01*
X106161094Y-110272419D01*
X106159325Y-110271418D01*
X106134002Y-110257538D01*
X106108950Y-110244790D01*
X106082099Y-110232202D01*
X106051380Y-110218800D01*
X106014725Y-110203612D01*
X106002770Y-110198640D01*
X105985935Y-110191353D01*
X105972615Y-110185275D01*
X105967968Y-110183182D01*
X105958442Y-110179849D01*
X105953569Y-110179617D01*
X105953050Y-110180634D01*
X105955791Y-110184964D01*
X105965106Y-110191642D01*
X105981418Y-110200943D01*
X106005154Y-110213144D01*
X106010221Y-110215700D01*
X106030385Y-110226541D01*
X106047612Y-110236836D01*
X106060728Y-110245800D01*
X106068564Y-110252647D01*
X106069948Y-110256592D01*
X106070209Y-110259255D01*
X106075125Y-110264743D01*
X106075833Y-110265351D01*
X106075588Y-110266070D01*
X106069524Y-110263390D01*
X106057335Y-110257151D01*
X106038714Y-110247192D01*
X106013355Y-110233353D01*
X105980950Y-110215474D01*
X105971814Y-110210445D01*
X105952063Y-110199939D01*
X105938286Y-110193381D01*
X105929572Y-110190428D01*
X105925011Y-110190737D01*
X105923693Y-110193969D01*
X105923788Y-110194958D01*
X105927118Y-110198203D01*
X105931088Y-110199566D01*
X105938761Y-110204343D01*
X105943208Y-110207799D01*
X105943598Y-110209433D01*
X105936395Y-110208034D01*
X105925810Y-110205584D01*
X105934278Y-110214401D01*
X105941046Y-110220416D01*
X105952939Y-110229616D01*
X105966631Y-110239290D01*
X105972261Y-110243250D01*
X105986614Y-110254037D01*
X106004683Y-110268205D01*
X106024716Y-110284370D01*
X106044961Y-110301147D01*
X106053481Y-110308209D01*
X106076374Y-110326392D01*
X106099915Y-110344146D01*
X106121776Y-110359741D01*
X106139629Y-110371449D01*
X106149679Y-110377569D01*
X106170621Y-110390302D01*
X106195143Y-110405195D01*
X106220970Y-110420865D01*
X106245824Y-110435931D01*
X106252130Y-110439758D01*
X106280054Y-110456857D01*
X106307130Y-110473668D01*
X106332444Y-110489602D01*
X106355085Y-110504073D01*
X106374140Y-110516493D01*
X106388696Y-110526276D01*
X106397841Y-110532833D01*
X106400664Y-110535578D01*
X106400638Y-110535599D01*
X106395978Y-110535359D01*
X106385355Y-110533659D01*
X106371003Y-110530855D01*
X106354821Y-110527851D01*
X106342591Y-110527103D01*
X106330372Y-110528779D01*
X106314149Y-110533033D01*
X106299428Y-110536527D01*
X106278524Y-110539856D01*
X106260312Y-110541130D01*
X106246160Y-110540393D01*
X106219567Y-110536602D01*
X106190832Y-110530273D01*
X106163283Y-110522185D01*
X106140249Y-110513114D01*
X106130545Y-110508907D01*
X106114775Y-110503326D01*
X106102123Y-110500258D01*
X106101108Y-110500114D01*
X106088235Y-110497529D01*
X106078235Y-110494368D01*
X106074156Y-110492876D01*
X106062445Y-110489299D01*
X106046134Y-110484745D01*
X106027427Y-110479843D01*
X106005287Y-110474048D01*
X105977762Y-110466070D01*
X105956802Y-110458778D01*
X105941323Y-110451781D01*
X105930239Y-110444687D01*
X105929102Y-110443814D01*
X105919435Y-110437779D01*
X105912102Y-110435309D01*
X105908632Y-110434650D01*
X105898625Y-110430973D01*
X105886210Y-110425144D01*
X105885422Y-110424738D01*
X105869585Y-110417182D01*
X105852244Y-110409767D01*
X105835681Y-110403376D01*
X105822181Y-110398893D01*
X105814026Y-110397202D01*
X105812560Y-110397014D01*
X105804153Y-110393850D01*
X105793394Y-110388017D01*
X105786024Y-110383827D01*
X105770753Y-110376168D01*
X105754788Y-110369064D01*
X105744189Y-110364285D01*
X105738179Y-110360632D01*
X105738764Y-110359197D01*
X105743303Y-110358001D01*
X105745087Y-110351841D01*
X105744221Y-110349661D01*
X105739286Y-110345992D01*
X105728870Y-110342991D01*
X105711483Y-110340138D01*
X105708985Y-110339782D01*
X105692978Y-110336943D01*
X105680264Y-110333791D01*
X105673405Y-110330946D01*
X105672985Y-110330626D01*
X105664448Y-110326619D01*
X105652714Y-110323436D01*
X105647125Y-110322290D01*
X105627402Y-110317279D01*
X105604588Y-110310468D01*
X105581520Y-110302783D01*
X105561031Y-110295153D01*
X105545957Y-110288505D01*
X105539780Y-110285644D01*
X105522180Y-110279473D01*
X105505733Y-110275918D01*
X105493366Y-110275102D01*
X105483108Y-110276994D01*
X105473826Y-110282757D01*
X105471901Y-110284321D01*
X105464837Y-110291999D01*
X105463012Y-110300171D01*
X105466499Y-110310832D01*
X105475368Y-110325977D01*
X105480283Y-110333193D01*
X105501272Y-110357048D01*
X105528726Y-110379077D01*
X105563645Y-110400122D01*
X105579735Y-110408887D01*
X105602117Y-110421384D01*
X105626044Y-110434990D01*
X105648480Y-110447989D01*
X105668894Y-110459877D01*
X105691037Y-110472618D01*
X105711232Y-110484095D01*
X105726810Y-110492782D01*
X105739384Y-110499957D01*
X105758892Y-110511669D01*
X105780331Y-110525007D01*
X105800906Y-110538256D01*
X105801636Y-110538736D01*
X105826592Y-110554660D01*
X105851435Y-110569451D01*
X105877182Y-110583585D01*
X105904853Y-110597536D01*
X105935467Y-110611779D01*
X105970043Y-110626788D01*
X106009600Y-110643037D01*
X106055157Y-110661003D01*
X106107732Y-110681158D01*
X106113231Y-110683241D01*
X106147413Y-110696026D01*
X106174386Y-110705766D01*
X106194686Y-110712636D01*
X106208853Y-110716808D01*
X106217421Y-110718457D01*
X106220928Y-110717755D01*
X106221092Y-110717491D01*
X106223985Y-110708926D01*
X106223318Y-110701187D01*
X106219370Y-110697819D01*
X106217669Y-110697630D01*
X106216901Y-110695348D01*
X106217291Y-110695064D01*
X106223517Y-110695466D01*
X106233919Y-110699435D01*
X106246120Y-110705758D01*
X106257742Y-110713222D01*
X106266406Y-110720613D01*
X106271383Y-110724945D01*
X106285839Y-110733248D01*
X106304512Y-110740417D01*
X106306503Y-110741042D01*
X106326585Y-110748290D01*
X106348299Y-110757504D01*
X106369724Y-110767721D01*
X106388939Y-110777981D01*
X106404021Y-110787319D01*
X106413048Y-110794775D01*
X106417665Y-110799236D01*
X106425177Y-110803178D01*
X106436550Y-110805717D01*
X106454088Y-110807570D01*
X106459715Y-110808068D01*
X106476798Y-110810439D01*
X106488195Y-110813985D01*
X106496105Y-110819323D01*
X106499166Y-110821950D01*
X106513511Y-110830846D01*
X106533923Y-110839438D01*
X106560882Y-110847862D01*
X106594866Y-110856254D01*
X106636352Y-110864753D01*
X106685820Y-110873493D01*
X106695716Y-110875180D01*
X106720694Y-110879786D01*
X106744041Y-110884540D01*
X106763509Y-110888971D01*
X106776852Y-110892606D01*
X106788449Y-110896102D01*
X106806045Y-110900679D01*
X106820355Y-110903611D01*
X106827885Y-110905107D01*
X106835347Y-110908190D01*
X106842614Y-110913994D01*
X106851371Y-110923923D01*
X106863304Y-110939381D01*
X106866235Y-110943299D01*
X106886985Y-110972496D01*
X106908641Y-111005180D01*
X106930193Y-111039652D01*
X106950630Y-111074210D01*
X106968943Y-111107153D01*
X106984120Y-111136780D01*
X106995152Y-111161390D01*
X107001840Y-111178845D01*
X107010360Y-111204794D01*
X107016744Y-111230612D01*
X107021250Y-111258009D01*
X107024137Y-111288699D01*
X107025660Y-111324391D01*
X107026079Y-111366797D01*
X107026001Y-111391699D01*
X107025695Y-111417625D01*
X107025053Y-111437776D01*
X107023962Y-111453672D01*
X107022310Y-111466834D01*
X107019983Y-111478781D01*
X107016869Y-111491033D01*
X107003841Y-111528197D01*
X106984546Y-111568287D01*
X106960595Y-111608131D01*
X106933349Y-111645468D01*
X106904171Y-111678041D01*
X106892672Y-111689035D01*
X106881468Y-111698590D01*
X106869424Y-111707333D01*
X106855370Y-111715926D01*
X106838136Y-111725031D01*
X106816552Y-111735307D01*
X106789450Y-111747418D01*
X106755660Y-111762024D01*
X106741083Y-111768208D01*
X106720185Y-111776692D01*
X106701368Y-111783591D01*
X106682891Y-111789386D01*
X106663013Y-111794559D01*
X106639992Y-111799588D01*
X106612085Y-111804954D01*
X106577553Y-111811137D01*
X106569204Y-111812604D01*
X106530644Y-111819378D01*
X106498926Y-111824876D01*
X106472788Y-111829225D01*
X106450968Y-111832555D01*
X106432207Y-111834994D01*
X106415242Y-111836673D01*
X106398812Y-111837719D01*
X106381657Y-111838261D01*
X106362515Y-111838429D01*
X106340124Y-111838352D01*
X106313224Y-111838157D01*
X106293661Y-111837977D01*
X106265061Y-111837562D01*
X106239365Y-111837013D01*
X106217964Y-111836366D01*
X106202250Y-111835660D01*
X106193613Y-111834932D01*
X106192992Y-111834838D01*
X106182843Y-111834625D01*
X106177788Y-111836699D01*
X106178903Y-111839770D01*
X106187262Y-111842550D01*
X106189877Y-111843025D01*
X106200951Y-111845078D01*
X106216792Y-111848046D01*
X106234895Y-111851458D01*
X106263141Y-111855823D01*
X106297845Y-111859401D01*
X106335473Y-111861844D01*
X106374145Y-111863119D01*
X106411979Y-111863197D01*
X106447094Y-111862045D01*
X106477608Y-111859632D01*
X106501639Y-111855926D01*
X106509020Y-111854485D01*
X106510830Y-111855061D01*
X106505873Y-111858579D01*
X106500967Y-111861010D01*
X106488721Y-111865391D01*
X106474118Y-111869377D01*
X106466766Y-111870712D01*
X106452676Y-111872133D01*
X106433431Y-111873047D01*
X106408206Y-111873474D01*
X106376175Y-111873436D01*
X106336512Y-111872955D01*
X106333070Y-111872898D01*
X106228423Y-111869230D01*
X106130997Y-111861869D01*
X106040373Y-111850753D01*
X105956134Y-111835822D01*
X105877862Y-111817012D01*
X105805140Y-111794262D01*
X105793009Y-111790001D01*
X105768397Y-111781426D01*
X105740002Y-111771597D01*
X105710446Y-111761422D01*
X105682353Y-111751806D01*
X105659865Y-111744096D01*
X105637878Y-111736471D01*
X105619571Y-111730031D01*
X105606393Y-111725286D01*
X105599789Y-111722744D01*
X105598275Y-111722100D01*
X105588620Y-111718376D01*
X105574173Y-111713104D01*
X105557448Y-111707206D01*
X105552706Y-111705541D01*
X105536343Y-111699486D01*
X105522968Y-111694087D01*
X105515108Y-111690347D01*
X105507931Y-111686681D01*
X105496055Y-111682188D01*
X105495302Y-111681946D01*
X105487076Y-111678629D01*
X105472808Y-111672358D01*
X105453836Y-111663741D01*
X105431500Y-111653383D01*
X105407140Y-111641894D01*
X105405189Y-111640967D01*
X105379593Y-111628998D01*
X105354952Y-111617792D01*
X105332930Y-111608087D01*
X105315193Y-111600615D01*
X105303406Y-111596113D01*
X105292311Y-111592245D01*
X105273430Y-111585208D01*
X105257359Y-111578729D01*
X105248551Y-111575241D01*
X105237640Y-111572645D01*
X105231301Y-111574370D01*
X105228498Y-111576086D01*
X105222541Y-111576979D01*
X105213720Y-111575315D01*
X105200885Y-111570730D01*
X105182888Y-111562861D01*
X105158583Y-111551344D01*
X105154874Y-111549552D01*
X105137386Y-111541106D01*
X105114089Y-111529863D01*
X105086399Y-111516505D01*
X105055734Y-111501717D01*
X105023511Y-111486182D01*
X104991146Y-111470582D01*
X104869417Y-111411920D01*
X104869417Y-110343551D01*
X104869417Y-109275182D01*
X105614026Y-109275182D01*
X105676353Y-109275183D01*
G37*
G36*
X97362093Y-111898134D02*
G01*
X97360427Y-111899800D01*
X97358760Y-111898134D01*
X97360427Y-111896467D01*
X97362093Y-111898134D01*
G37*
G36*
X97392093Y-111818134D02*
G01*
X97390427Y-111819800D01*
X97388760Y-111818134D01*
X97390427Y-111816467D01*
X97392093Y-111818134D01*
G37*
G36*
X97398760Y-111801467D02*
G01*
X97397093Y-111803134D01*
X97395427Y-111801467D01*
X97397093Y-111799800D01*
X97398760Y-111801467D01*
G37*
G36*
X97402093Y-111794800D02*
G01*
X97400427Y-111796467D01*
X97398760Y-111794800D01*
X97400427Y-111793134D01*
X97402093Y-111794800D01*
G37*
G36*
X97408760Y-111778134D02*
G01*
X97407093Y-111779800D01*
X97405427Y-111778134D01*
X97407093Y-111776467D01*
X97408760Y-111778134D01*
G37*
G36*
X97412093Y-111771467D02*
G01*
X97410427Y-111773134D01*
X97408760Y-111771467D01*
X97410427Y-111769800D01*
X97412093Y-111771467D01*
G37*
G36*
X97418760Y-111754800D02*
G01*
X97417093Y-111756467D01*
X97415427Y-111754800D01*
X97417093Y-111753134D01*
X97418760Y-111754800D01*
G37*
G36*
X97422093Y-111748134D02*
G01*
X97420427Y-111749800D01*
X97418760Y-111748134D01*
X97420427Y-111746467D01*
X97422093Y-111748134D01*
G37*
G36*
X97428760Y-111734800D02*
G01*
X97427093Y-111736467D01*
X97425427Y-111734800D01*
X97427093Y-111733134D01*
X97428760Y-111734800D01*
G37*
G36*
X97438760Y-111711467D02*
G01*
X97437093Y-111713134D01*
X97435427Y-111711467D01*
X97437093Y-111709800D01*
X97438760Y-111711467D01*
G37*
G36*
X97442093Y-111704800D02*
G01*
X97440427Y-111706467D01*
X97438760Y-111704800D01*
X97440427Y-111703134D01*
X97442093Y-111704800D01*
G37*
G36*
X97445427Y-111698134D02*
G01*
X97443760Y-111699800D01*
X97442093Y-111698134D01*
X97443760Y-111696467D01*
X97445427Y-111698134D01*
G37*
G36*
X97448760Y-111691467D02*
G01*
X97447093Y-111693134D01*
X97445427Y-111691467D01*
X97447093Y-111689800D01*
X97448760Y-111691467D01*
G37*
G36*
X97452093Y-111684800D02*
G01*
X97450427Y-111686467D01*
X97448760Y-111684800D01*
X97450427Y-111683134D01*
X97452093Y-111684800D01*
G37*
G36*
X97455427Y-111678134D02*
G01*
X97453760Y-111679800D01*
X97452093Y-111678134D01*
X97453760Y-111676467D01*
X97455427Y-111678134D01*
G37*
G36*
X97458760Y-111671467D02*
G01*
X97457093Y-111673134D01*
X97455427Y-111671467D01*
X97457093Y-111669800D01*
X97458760Y-111671467D01*
G37*
G36*
X97462093Y-111664800D02*
G01*
X97460427Y-111666467D01*
X97458760Y-111664800D01*
X97460427Y-111663134D01*
X97462093Y-111664800D01*
G37*
G36*
X97465427Y-111658134D02*
G01*
X97463760Y-111659800D01*
X97462093Y-111658134D01*
X97463760Y-111656467D01*
X97465427Y-111658134D01*
G37*
G36*
X97475427Y-111641467D02*
G01*
X97473760Y-111643134D01*
X97472093Y-111641467D01*
X97473760Y-111639800D01*
X97475427Y-111641467D01*
G37*
G36*
X97478760Y-111634800D02*
G01*
X97477093Y-111636467D01*
X97475427Y-111634800D01*
X97477093Y-111633134D01*
X97478760Y-111634800D01*
G37*
G36*
X97482093Y-111628134D02*
G01*
X97480427Y-111629800D01*
X97478760Y-111628134D01*
X97480427Y-111626467D01*
X97482093Y-111628134D01*
G37*
G36*
X97485427Y-111621467D02*
G01*
X97483760Y-111623134D01*
X97482093Y-111621467D01*
X97483760Y-111619800D01*
X97485427Y-111621467D01*
G37*
G36*
X97495427Y-111604800D02*
G01*
X97493760Y-111606467D01*
X97492093Y-111604800D01*
X97493760Y-111603134D01*
X97495427Y-111604800D01*
G37*
G36*
X97498760Y-111598134D02*
G01*
X97497093Y-111599800D01*
X97495427Y-111598134D01*
X97497093Y-111596467D01*
X97498760Y-111598134D01*
G37*
G36*
X97505427Y-111588134D02*
G01*
X97503760Y-111589800D01*
X97502093Y-111588134D01*
X97503760Y-111586467D01*
X97505427Y-111588134D01*
G37*
G36*
X97535427Y-111541467D02*
G01*
X97533760Y-111543134D01*
X97532093Y-111541467D01*
X97533760Y-111539800D01*
X97535427Y-111541467D01*
G37*
G36*
X97558760Y-111508134D02*
G01*
X97557093Y-111509800D01*
X97555427Y-111508134D01*
X97557093Y-111506467D01*
X97558760Y-111508134D01*
G37*
G36*
X97578760Y-111481467D02*
G01*
X97577093Y-111483134D01*
X97575427Y-111481467D01*
X97577093Y-111479800D01*
X97578760Y-111481467D01*
G37*
G36*
X98032093Y-111018134D02*
G01*
X98030427Y-111019800D01*
X98028760Y-111018134D01*
X98030427Y-111016467D01*
X98032093Y-111018134D01*
G37*
G36*
X98052093Y-111004800D02*
G01*
X98050427Y-111006467D01*
X98048760Y-111004800D01*
X98050427Y-111003134D01*
X98052093Y-111004800D01*
G37*
G36*
X98062093Y-110998134D02*
G01*
X98060427Y-110999800D01*
X98058760Y-110998134D01*
X98060427Y-110996467D01*
X98062093Y-110998134D01*
G37*
G36*
X98072093Y-110991467D02*
G01*
X98070427Y-110993134D01*
X98068760Y-110991467D01*
X98070427Y-110989800D01*
X98072093Y-110991467D01*
G37*
G36*
X98098760Y-110974800D02*
G01*
X98097093Y-110976467D01*
X98095427Y-110974800D01*
X98097093Y-110973134D01*
X98098760Y-110974800D01*
G37*
G36*
X98108760Y-110968134D02*
G01*
X98107093Y-110969800D01*
X98105427Y-110968134D01*
X98107093Y-110966467D01*
X98108760Y-110968134D01*
G37*
G36*
X98115427Y-110964800D02*
G01*
X98113760Y-110966467D01*
X98112093Y-110964800D01*
X98113760Y-110963134D01*
X98115427Y-110964800D01*
G37*
G36*
X98132093Y-110954800D02*
G01*
X98130427Y-110956467D01*
X98128760Y-110954800D01*
X98130427Y-110953134D01*
X98132093Y-110954800D01*
G37*
G36*
X98142093Y-110948134D02*
G01*
X98140427Y-110949800D01*
X98138760Y-110948134D01*
X98140427Y-110946467D01*
X98142093Y-110948134D01*
G37*
G36*
X98148760Y-110944800D02*
G01*
X98147093Y-110946467D01*
X98145427Y-110944800D01*
X98147093Y-110943134D01*
X98148760Y-110944800D01*
G37*
G36*
X98155427Y-110941467D02*
G01*
X98153760Y-110943134D01*
X98152093Y-110941467D01*
X98153760Y-110939800D01*
X98155427Y-110941467D01*
G37*
G36*
X98162093Y-110938134D02*
G01*
X98160427Y-110939800D01*
X98158760Y-110938134D01*
X98160427Y-110936467D01*
X98162093Y-110938134D01*
G37*
G36*
X98172093Y-110931467D02*
G01*
X98170427Y-110933134D01*
X98168760Y-110931467D01*
X98170427Y-110929800D01*
X98172093Y-110931467D01*
G37*
G36*
X98178760Y-110928134D02*
G01*
X98177093Y-110929800D01*
X98175427Y-110928134D01*
X98177093Y-110926467D01*
X98178760Y-110928134D01*
G37*
G36*
X98192093Y-110921467D02*
G01*
X98190427Y-110923134D01*
X98188760Y-110921467D01*
X98190427Y-110919800D01*
X98192093Y-110921467D01*
G37*
G36*
X98198760Y-110918134D02*
G01*
X98197093Y-110919800D01*
X98195427Y-110918134D01*
X98197093Y-110916467D01*
X98198760Y-110918134D01*
G37*
G36*
X98205427Y-110914800D02*
G01*
X98203760Y-110916467D01*
X98202093Y-110914800D01*
X98203760Y-110913134D01*
X98205427Y-110914800D01*
G37*
G36*
X98212093Y-110911467D02*
G01*
X98210427Y-110913134D01*
X98208760Y-110911467D01*
X98210427Y-110909800D01*
X98212093Y-110911467D01*
G37*
G36*
X98218760Y-110908134D02*
G01*
X98217093Y-110909800D01*
X98215427Y-110908134D01*
X98217093Y-110906467D01*
X98218760Y-110908134D01*
G37*
G36*
X98228760Y-110904800D02*
G01*
X98227093Y-110906467D01*
X98225427Y-110904800D01*
X98227093Y-110903134D01*
X98228760Y-110904800D01*
G37*
G36*
X98242093Y-110898134D02*
G01*
X98240427Y-110899800D01*
X98238760Y-110898134D01*
X98240427Y-110896467D01*
X98242093Y-110898134D01*
G37*
G36*
X98248760Y-110894800D02*
G01*
X98247093Y-110896467D01*
X98245427Y-110894800D01*
X98247093Y-110893134D01*
X98248760Y-110894800D01*
G37*
G36*
X98255427Y-110891467D02*
G01*
X98253760Y-110893134D01*
X98252093Y-110891467D01*
X98253760Y-110889800D01*
X98255427Y-110891467D01*
G37*
G36*
X98282093Y-110881467D02*
G01*
X98280427Y-110883134D01*
X98278760Y-110881467D01*
X98280427Y-110879800D01*
X98282093Y-110881467D01*
G37*
G36*
X98288760Y-110878134D02*
G01*
X98287093Y-110879800D01*
X98285427Y-110878134D01*
X98287093Y-110876467D01*
X98288760Y-110878134D01*
G37*
G36*
X98305427Y-110871467D02*
G01*
X98303760Y-110873134D01*
X98302093Y-110871467D01*
X98303760Y-110869800D01*
X98305427Y-110871467D01*
G37*
G36*
X98352093Y-110854800D02*
G01*
X98350427Y-110856467D01*
X98348760Y-110854800D01*
X98350427Y-110853134D01*
X98352093Y-110854800D01*
G37*
G36*
X98372093Y-110848134D02*
G01*
X98370427Y-110849800D01*
X98368760Y-110848134D01*
X98370427Y-110846467D01*
X98372093Y-110848134D01*
G37*
G36*
X98972093Y-111191467D02*
G01*
X98970427Y-111193134D01*
X98968760Y-111191467D01*
X98970427Y-111189800D01*
X98972093Y-111191467D01*
G37*
G36*
X98982093Y-111184800D02*
G01*
X98980427Y-111186467D01*
X98978760Y-111184800D01*
X98980427Y-111183134D01*
X98982093Y-111184800D01*
G37*
G36*
X98992093Y-111178134D02*
G01*
X98990427Y-111179800D01*
X98988760Y-111178134D01*
X98990427Y-111176467D01*
X98992093Y-111178134D01*
G37*
G36*
X98998760Y-111174800D02*
G01*
X98997093Y-111176467D01*
X98995427Y-111174800D01*
X98997093Y-111173134D01*
X98998760Y-111174800D01*
G37*
G36*
X99022093Y-111161467D02*
G01*
X99020427Y-111163134D01*
X99018760Y-111161467D01*
X99020427Y-111159800D01*
X99022093Y-111161467D01*
G37*
G36*
X99028760Y-111158134D02*
G01*
X99027093Y-111159800D01*
X99025427Y-111158134D01*
X99027093Y-111156467D01*
X99028760Y-111158134D01*
G37*
G36*
X99035427Y-111154800D02*
G01*
X99033760Y-111156467D01*
X99032093Y-111154800D01*
X99033760Y-111153134D01*
X99035427Y-111154800D01*
G37*
G36*
X99042093Y-111151467D02*
G01*
X99040427Y-111153134D01*
X99038760Y-111151467D01*
X99040427Y-111149800D01*
X99042093Y-111151467D01*
G37*
G36*
X99078760Y-111134800D02*
G01*
X99077093Y-111136467D01*
X99075427Y-111134800D01*
X99077093Y-111133134D01*
X99078760Y-111134800D01*
G37*
G36*
X99085427Y-111131467D02*
G01*
X99083760Y-111133134D01*
X99082093Y-111131467D01*
X99083760Y-111129800D01*
X99085427Y-111131467D01*
G37*
G36*
X99112093Y-111121467D02*
G01*
X99110427Y-111123134D01*
X99108760Y-111121467D01*
X99110427Y-111119800D01*
X99112093Y-111121467D01*
G37*
G36*
X100478760Y-111168134D02*
G01*
X100477093Y-111169800D01*
X100475427Y-111168134D01*
X100477093Y-111166467D01*
X100478760Y-111168134D01*
G37*
G36*
X100488760Y-111171467D02*
G01*
X100487093Y-111173134D01*
X100485427Y-111171467D01*
X100487093Y-111169800D01*
X100488760Y-111171467D01*
G37*
G36*
X100505427Y-111178134D02*
G01*
X100503760Y-111179800D01*
X100502093Y-111178134D01*
X100503760Y-111176467D01*
X100505427Y-111178134D01*
G37*
G36*
X100522093Y-111184800D02*
G01*
X100520427Y-111186467D01*
X100518760Y-111184800D01*
X100520427Y-111183134D01*
X100522093Y-111184800D01*
G37*
G36*
X100528760Y-111188134D02*
G01*
X100527093Y-111189800D01*
X100525427Y-111188134D01*
X100527093Y-111186467D01*
X100528760Y-111188134D01*
G37*
G36*
X100538760Y-111191467D02*
G01*
X100537093Y-111193134D01*
X100535427Y-111191467D01*
X100537093Y-111189800D01*
X100538760Y-111191467D01*
G37*
G36*
X100568760Y-111204800D02*
G01*
X100567093Y-111206467D01*
X100565427Y-111204800D01*
X100567093Y-111203134D01*
X100568760Y-111204800D01*
G37*
G36*
X100575427Y-111208134D02*
G01*
X100573760Y-111209800D01*
X100572093Y-111208134D01*
X100573760Y-111206467D01*
X100575427Y-111208134D01*
G37*
G36*
X100608760Y-111224800D02*
G01*
X100607093Y-111226467D01*
X100605427Y-111224800D01*
X100607093Y-111223134D01*
X100608760Y-111224800D01*
G37*
G36*
X100615427Y-111228134D02*
G01*
X100613760Y-111229800D01*
X100612093Y-111228134D01*
X100613760Y-111226467D01*
X100615427Y-111228134D01*
G37*
G36*
X100628760Y-111234800D02*
G01*
X100627093Y-111236467D01*
X100625427Y-111234800D01*
X100627093Y-111233134D01*
X100628760Y-111234800D01*
G37*
G36*
X100635427Y-111238134D02*
G01*
X100633760Y-111239800D01*
X100632093Y-111238134D01*
X100633760Y-111236467D01*
X100635427Y-111238134D01*
G37*
G36*
X100642093Y-111241467D02*
G01*
X100640427Y-111243134D01*
X100638760Y-111241467D01*
X100640427Y-111239800D01*
X100642093Y-111241467D01*
G37*
G36*
X100648760Y-111244800D02*
G01*
X100647093Y-111246467D01*
X100645427Y-111244800D01*
X100647093Y-111243134D01*
X100648760Y-111244800D01*
G37*
G36*
X100672093Y-111258134D02*
G01*
X100670427Y-111259800D01*
X100668760Y-111258134D01*
X100670427Y-111256467D01*
X100672093Y-111258134D01*
G37*
G36*
X100688760Y-111268134D02*
G01*
X100687093Y-111269800D01*
X100685427Y-111268134D01*
X100687093Y-111266467D01*
X100688760Y-111268134D01*
G37*
G36*
X100695427Y-111271467D02*
G01*
X100693760Y-111273134D01*
X100692093Y-111271467D01*
X100693760Y-111269800D01*
X100695427Y-111271467D01*
G37*
G36*
X100705427Y-111278134D02*
G01*
X100703760Y-111279800D01*
X100702093Y-111278134D01*
X100703760Y-111276467D01*
X100705427Y-111278134D01*
G37*
G36*
X100722093Y-111288134D02*
G01*
X100720427Y-111289800D01*
X100718760Y-111288134D01*
X100720427Y-111286467D01*
X100722093Y-111288134D01*
G37*
G36*
X100735427Y-111294800D02*
G01*
X100733760Y-111296467D01*
X100732093Y-111294800D01*
X100733760Y-111293134D01*
X100735427Y-111294800D01*
G37*
G36*
X100742093Y-111298134D02*
G01*
X100740427Y-111299800D01*
X100738760Y-111298134D01*
X100740427Y-111296467D01*
X100742093Y-111298134D01*
G37*
G36*
X100758760Y-111308134D02*
G01*
X100757093Y-111309800D01*
X100755427Y-111308134D01*
X100757093Y-111306467D01*
X100758760Y-111308134D01*
G37*
G36*
X100765427Y-111311467D02*
G01*
X100763760Y-111313134D01*
X100762093Y-111311467D01*
X100763760Y-111309800D01*
X100765427Y-111311467D01*
G37*
G36*
X100772093Y-111314800D02*
G01*
X100770427Y-111316467D01*
X100768760Y-111314800D01*
X100770427Y-111313134D01*
X100772093Y-111314800D01*
G37*
G36*
X100788760Y-111324800D02*
G01*
X100787093Y-111326467D01*
X100785427Y-111324800D01*
X100787093Y-111323134D01*
X100788760Y-111324800D01*
G37*
G36*
X100798760Y-111331467D02*
G01*
X100797093Y-111333134D01*
X100795427Y-111331467D01*
X100797093Y-111329800D01*
X100798760Y-111331467D01*
G37*
G36*
X100805427Y-111334800D02*
G01*
X100803760Y-111336467D01*
X100802093Y-111334800D01*
X100803760Y-111333134D01*
X100805427Y-111334800D01*
G37*
G36*
X101425427Y-111014800D02*
G01*
X101423760Y-111016467D01*
X101422093Y-111014800D01*
X101423760Y-111013134D01*
X101425427Y-111014800D01*
G37*
G36*
X101442093Y-111021467D02*
G01*
X101440427Y-111023134D01*
X101438760Y-111021467D01*
X101440427Y-111019800D01*
X101442093Y-111021467D01*
G37*
G36*
X101468760Y-111031467D02*
G01*
X101467093Y-111033134D01*
X101465427Y-111031467D01*
X101467093Y-111029800D01*
X101468760Y-111031467D01*
G37*
G36*
X101498760Y-111044800D02*
G01*
X101497093Y-111046467D01*
X101495427Y-111044800D01*
X101497093Y-111043134D01*
X101498760Y-111044800D01*
G37*
G36*
X101522093Y-111054800D02*
G01*
X101520427Y-111056467D01*
X101518760Y-111054800D01*
X101520427Y-111053134D01*
X101522093Y-111054800D01*
G37*
G36*
X101542093Y-111064800D02*
G01*
X101540427Y-111066467D01*
X101538760Y-111064800D01*
X101540427Y-111063134D01*
X101542093Y-111064800D01*
G37*
G36*
X101555427Y-111071467D02*
G01*
X101553760Y-111073134D01*
X101552093Y-111071467D01*
X101553760Y-111069800D01*
X101555427Y-111071467D01*
G37*
G36*
X101562093Y-111074800D02*
G01*
X101560427Y-111076467D01*
X101558760Y-111074800D01*
X101560427Y-111073134D01*
X101562093Y-111074800D01*
G37*
G36*
X101578760Y-111084800D02*
G01*
X101577093Y-111086467D01*
X101575427Y-111084800D01*
X101577093Y-111083134D01*
X101578760Y-111084800D01*
G37*
G36*
X101585427Y-111088134D02*
G01*
X101583760Y-111089800D01*
X101582093Y-111088134D01*
X101583760Y-111086467D01*
X101585427Y-111088134D01*
G37*
G36*
X101592093Y-111091467D02*
G01*
X101590427Y-111093134D01*
X101588760Y-111091467D01*
X101590427Y-111089800D01*
X101592093Y-111091467D01*
G37*
G36*
X101598760Y-111094800D02*
G01*
X101597093Y-111096467D01*
X101595427Y-111094800D01*
X101597093Y-111093134D01*
X101598760Y-111094800D01*
G37*
G36*
X101615427Y-111104800D02*
G01*
X101613760Y-111106467D01*
X101612093Y-111104800D01*
X101613760Y-111103134D01*
X101615427Y-111104800D01*
G37*
G36*
X101638760Y-111118134D02*
G01*
X101637093Y-111119800D01*
X101635427Y-111118134D01*
X101637093Y-111116467D01*
X101638760Y-111118134D01*
G37*
G36*
X101648760Y-111124800D02*
G01*
X101647093Y-111126467D01*
X101645427Y-111124800D01*
X101647093Y-111123134D01*
X101648760Y-111124800D01*
G37*
G36*
X101665427Y-111134800D02*
G01*
X101663760Y-111136467D01*
X101662093Y-111134800D01*
X101663760Y-111133134D01*
X101665427Y-111134800D01*
G37*
G36*
X101675427Y-111141467D02*
G01*
X101673760Y-111143134D01*
X101672093Y-111141467D01*
X101673760Y-111139800D01*
X101675427Y-111141467D01*
G37*
G36*
X101685427Y-111148134D02*
G01*
X101683760Y-111149800D01*
X101682093Y-111148134D01*
X101683760Y-111146467D01*
X101685427Y-111148134D01*
G37*
G36*
X101715427Y-111168134D02*
G01*
X101713760Y-111169800D01*
X101712093Y-111168134D01*
X101713760Y-111166467D01*
X101715427Y-111168134D01*
G37*
G36*
X101895427Y-111318134D02*
G01*
X101893760Y-111319800D01*
X101892093Y-111318134D01*
X101893760Y-111316467D01*
X101895427Y-111318134D01*
G37*
G36*
X102075427Y-111521467D02*
G01*
X102073760Y-111523134D01*
X102072093Y-111521467D01*
X102073760Y-111519800D01*
X102075427Y-111521467D01*
G37*
G36*
X102092093Y-111544800D02*
G01*
X102090427Y-111546467D01*
X102088760Y-111544800D01*
X102090427Y-111543134D01*
X102092093Y-111544800D01*
G37*
G36*
X102138760Y-111614800D02*
G01*
X102137093Y-111616467D01*
X102135427Y-111614800D01*
X102137093Y-111613134D01*
X102138760Y-111614800D01*
G37*
G36*
X102155427Y-111641467D02*
G01*
X102153760Y-111643134D01*
X102152093Y-111641467D01*
X102153760Y-111639800D01*
X102155427Y-111641467D01*
G37*
G36*
X102158760Y-111648134D02*
G01*
X102157093Y-111649800D01*
X102155427Y-111648134D01*
X102157093Y-111646467D01*
X102158760Y-111648134D01*
G37*
G36*
X102168760Y-111664800D02*
G01*
X102167093Y-111666467D01*
X102165427Y-111664800D01*
X102167093Y-111663134D01*
X102168760Y-111664800D01*
G37*
G36*
X102182093Y-111688134D02*
G01*
X102180427Y-111689800D01*
X102178760Y-111688134D01*
X102180427Y-111686467D01*
X102182093Y-111688134D01*
G37*
G36*
X102185427Y-111694800D02*
G01*
X102183760Y-111696467D01*
X102182093Y-111694800D01*
X102183760Y-111693134D01*
X102185427Y-111694800D01*
G37*
G36*
X102195427Y-111711467D02*
G01*
X102193760Y-111713134D01*
X102192093Y-111711467D01*
X102193760Y-111709800D01*
X102195427Y-111711467D01*
G37*
G36*
X102198760Y-111718134D02*
G01*
X102197093Y-111719800D01*
X102195427Y-111718134D01*
X102197093Y-111716467D01*
X102198760Y-111718134D01*
G37*
G36*
X102202093Y-111724800D02*
G01*
X102200427Y-111726467D01*
X102198760Y-111724800D01*
X102200427Y-111723134D01*
X102202093Y-111724800D01*
G37*
G36*
X102205427Y-111731467D02*
G01*
X102203760Y-111733134D01*
X102202093Y-111731467D01*
X102203760Y-111729800D01*
X102205427Y-111731467D01*
G37*
G36*
X102208760Y-111738134D02*
G01*
X102207093Y-111739800D01*
X102205427Y-111738134D01*
X102207093Y-111736467D01*
X102208760Y-111738134D01*
G37*
G36*
X102232093Y-111781467D02*
G01*
X102230427Y-111783134D01*
X102228760Y-111781467D01*
X102230427Y-111779800D01*
X102232093Y-111781467D01*
G37*
G36*
X102238760Y-111798134D02*
G01*
X102237093Y-111799800D01*
X102235427Y-111798134D01*
X102237093Y-111796467D01*
X102238760Y-111798134D01*
G37*
G36*
X97520745Y-111562618D02*
G01*
X97520302Y-111563297D01*
X97517009Y-111566367D01*
X97515427Y-111564997D01*
X97515725Y-111564247D01*
X97519275Y-111561149D01*
X97521138Y-111560337D01*
X97520745Y-111562618D01*
G37*
G36*
X97540745Y-111532618D02*
G01*
X97540302Y-111533297D01*
X97537009Y-111536367D01*
X97535427Y-111534997D01*
X97535725Y-111534247D01*
X97539275Y-111531149D01*
X97541138Y-111530337D01*
X97540745Y-111532618D01*
G37*
G36*
X97550745Y-111519285D02*
G01*
X97550302Y-111519964D01*
X97547009Y-111523034D01*
X97545427Y-111521664D01*
X97545725Y-111520914D01*
X97549275Y-111517815D01*
X97551138Y-111517004D01*
X97550745Y-111519285D01*
G37*
G36*
X97650744Y-111388967D02*
G01*
X97648386Y-111391677D01*
X97643619Y-111396157D01*
X97642093Y-111395317D01*
X97644252Y-111392684D01*
X97649593Y-111387817D01*
X97657093Y-111381467D01*
X97650744Y-111388967D01*
G37*
G36*
X97934078Y-111089285D02*
G01*
X97933636Y-111089964D01*
X97930342Y-111093034D01*
X97928760Y-111091664D01*
X97929058Y-111090914D01*
X97932609Y-111087815D01*
X97934471Y-111087004D01*
X97934078Y-111089285D01*
G37*
G36*
X97987412Y-111049285D02*
G01*
X97986969Y-111049964D01*
X97983675Y-111053034D01*
X97982093Y-111051664D01*
X97982391Y-111050914D01*
X97985942Y-111047815D01*
X97987805Y-111047004D01*
X97987412Y-111049285D01*
G37*
G36*
X97997412Y-111042618D02*
G01*
X97996969Y-111043297D01*
X97993675Y-111046367D01*
X97992093Y-111044997D01*
X97992391Y-111044247D01*
X97995942Y-111041149D01*
X97997805Y-111040337D01*
X97997412Y-111042618D01*
G37*
G36*
X98010745Y-111032618D02*
G01*
X98010302Y-111033297D01*
X98007009Y-111036367D01*
X98005427Y-111034997D01*
X98005725Y-111034247D01*
X98009275Y-111031149D01*
X98011138Y-111030337D01*
X98010745Y-111032618D01*
G37*
G36*
X97569185Y-111493967D02*
G01*
X97566134Y-111497522D01*
X97563352Y-111499800D01*
X97562767Y-111499745D01*
X97562745Y-111497574D01*
X97567927Y-111492708D01*
X97570342Y-111490846D01*
X97572068Y-111490019D01*
X97569185Y-111493967D01*
G37*
G36*
X97602519Y-111450634D02*
G01*
X97601480Y-111451924D01*
X97597048Y-111456206D01*
X97595427Y-111455208D01*
X97596644Y-111453487D01*
X97601260Y-111449375D01*
X97603675Y-111447513D01*
X97605402Y-111446685D01*
X97602519Y-111450634D01*
G37*
G36*
X97615852Y-111433967D02*
G01*
X97612801Y-111437522D01*
X97610019Y-111439800D01*
X97609434Y-111439745D01*
X97609411Y-111437574D01*
X97614593Y-111432708D01*
X97617009Y-111430846D01*
X97618735Y-111430019D01*
X97615852Y-111433967D01*
G37*
G36*
X97705852Y-111320634D02*
G01*
X97704813Y-111321924D01*
X97700382Y-111326206D01*
X97698760Y-111325208D01*
X97699977Y-111323487D01*
X97704593Y-111319375D01*
X97707009Y-111317513D01*
X97708735Y-111316685D01*
X97705852Y-111320634D01*
G37*
G36*
X97815679Y-111200634D02*
G01*
X97810771Y-111206002D01*
X97806653Y-111209579D01*
X97805427Y-111208715D01*
X97805536Y-111208451D01*
X97808610Y-111205087D01*
X97814593Y-111199548D01*
X97823760Y-111191467D01*
X97815679Y-111200634D01*
G37*
G36*
X100747286Y-111299950D02*
G01*
X100750427Y-111303134D01*
X100751048Y-111304314D01*
X100750820Y-111306467D01*
X100750234Y-111306317D01*
X100747093Y-111303134D01*
X100746473Y-111301953D01*
X100746700Y-111299800D01*
X100747286Y-111299950D01*
G37*
G36*
X101603953Y-111096617D02*
G01*
X101607093Y-111099800D01*
X101607714Y-111100980D01*
X101607487Y-111103134D01*
X101606901Y-111102984D01*
X101603760Y-111099800D01*
X101603139Y-111098620D01*
X101603367Y-111096467D01*
X101603953Y-111096617D01*
G37*
G36*
X101627286Y-111109950D02*
G01*
X101630427Y-111113134D01*
X101631048Y-111114314D01*
X101630820Y-111116467D01*
X101630234Y-111116317D01*
X101627093Y-111113134D01*
X101626473Y-111111953D01*
X101626700Y-111109800D01*
X101627286Y-111109950D01*
G37*
G36*
X101723953Y-111173283D02*
G01*
X101727093Y-111176467D01*
X101727714Y-111177647D01*
X101727487Y-111179800D01*
X101726901Y-111179650D01*
X101723760Y-111176467D01*
X101723139Y-111175287D01*
X101723367Y-111173134D01*
X101723953Y-111173283D01*
G37*
G36*
X101737286Y-111183283D02*
G01*
X101740427Y-111186467D01*
X101741048Y-111187647D01*
X101740820Y-111189800D01*
X101740234Y-111189650D01*
X101737093Y-111186467D01*
X101736473Y-111185287D01*
X101736700Y-111183134D01*
X101737286Y-111183283D01*
G37*
G36*
X101749593Y-111192708D02*
G01*
X101753149Y-111195759D01*
X101755427Y-111198542D01*
X101755372Y-111199127D01*
X101753200Y-111199149D01*
X101748335Y-111193967D01*
X101746473Y-111191552D01*
X101745645Y-111189825D01*
X101749593Y-111192708D01*
G37*
G36*
X101938751Y-111361537D02*
G01*
X101943760Y-111366467D01*
X101947450Y-111371052D01*
X101948127Y-111373134D01*
X101945436Y-111371397D01*
X101940427Y-111366467D01*
X101936737Y-111361882D01*
X101936060Y-111359800D01*
X101938751Y-111361537D01*
G37*
G36*
X102009593Y-111439375D02*
G01*
X102013149Y-111442426D01*
X102015427Y-111445208D01*
X102015372Y-111445793D01*
X102013200Y-111445816D01*
X102008335Y-111440634D01*
X102006473Y-111438218D01*
X102005645Y-111436492D01*
X102009593Y-111439375D01*
G37*
G36*
X102026260Y-111459375D02*
G01*
X102029816Y-111462426D01*
X102032093Y-111465208D01*
X102032039Y-111465793D01*
X102029867Y-111465816D01*
X102025002Y-111460634D01*
X102023140Y-111458218D01*
X102022312Y-111456492D01*
X102026260Y-111459375D01*
G37*
G36*
X102035418Y-111471537D02*
G01*
X102040427Y-111476467D01*
X102044117Y-111481052D01*
X102044793Y-111483134D01*
X102042103Y-111481397D01*
X102037093Y-111476467D01*
X102033404Y-111471882D01*
X102032727Y-111469800D01*
X102035418Y-111471537D01*
G37*
G36*
X102050619Y-111489950D02*
G01*
X102053760Y-111493134D01*
X102054381Y-111494314D01*
X102054154Y-111496467D01*
X102053568Y-111496317D01*
X102050427Y-111493134D01*
X102049806Y-111491953D01*
X102050033Y-111489800D01*
X102050619Y-111489950D01*
G37*
G36*
X102079593Y-111529375D02*
G01*
X102083149Y-111532426D01*
X102085427Y-111535208D01*
X102085372Y-111535793D01*
X102083200Y-111535816D01*
X102078335Y-111530634D01*
X102076473Y-111528218D01*
X102075645Y-111526492D01*
X102079593Y-111529375D01*
G37*
G36*
X102110619Y-111573283D02*
G01*
X102113760Y-111576467D01*
X102114381Y-111577647D01*
X102114154Y-111579800D01*
X102113568Y-111579650D01*
X102110427Y-111576467D01*
X102109806Y-111575287D01*
X102110033Y-111573134D01*
X102110619Y-111573283D01*
G37*
G36*
X102123953Y-111593283D02*
G01*
X102127093Y-111596467D01*
X102127714Y-111597647D01*
X102127487Y-111599800D01*
X102126901Y-111599650D01*
X102123760Y-111596467D01*
X102123139Y-111595287D01*
X102123367Y-111593134D01*
X102123953Y-111593283D01*
G37*
G36*
X102140619Y-111619950D02*
G01*
X102143760Y-111623134D01*
X102144381Y-111624314D01*
X102144154Y-111626467D01*
X102143568Y-111626317D01*
X102140427Y-111623134D01*
X102139806Y-111621953D01*
X102140033Y-111619800D01*
X102140619Y-111619950D01*
G37*
G36*
X102160619Y-111653283D02*
G01*
X102163760Y-111656467D01*
X102164381Y-111657647D01*
X102164154Y-111659800D01*
X102163568Y-111659650D01*
X102160427Y-111656467D01*
X102159806Y-111655287D01*
X102160033Y-111653134D01*
X102160619Y-111653283D01*
G37*
G36*
X102170619Y-111669950D02*
G01*
X102173760Y-111673134D01*
X102174381Y-111674314D01*
X102174154Y-111676467D01*
X102173568Y-111676317D01*
X102170427Y-111673134D01*
X102169806Y-111671953D01*
X102170033Y-111669800D01*
X102170619Y-111669950D01*
G37*
G36*
X97782190Y-111233967D02*
G01*
X97776871Y-111239485D01*
X97768322Y-111248212D01*
X97762241Y-111254226D01*
X97759690Y-111256467D01*
X97759011Y-111256210D01*
X97759770Y-111254540D01*
X97763256Y-111250637D01*
X97770181Y-111243728D01*
X97781260Y-111233037D01*
X97803760Y-111211467D01*
X97782190Y-111233967D01*
G37*
G36*
X100269728Y-112792552D02*
G01*
X100304224Y-112804490D01*
X100332923Y-112816916D01*
X100356047Y-112829908D01*
X100373821Y-112843545D01*
X100379489Y-112849397D01*
X100389124Y-112860824D01*
X100399789Y-112874707D01*
X100410039Y-112889223D01*
X100426150Y-112914390D01*
X100442377Y-112942554D01*
X100456381Y-112969954D01*
X100464322Y-112987827D01*
X100467921Y-112995926D01*
X100476754Y-113019810D01*
X100482639Y-113040943D01*
X100485334Y-113058665D01*
X100484598Y-113072314D01*
X100480189Y-113081229D01*
X100474060Y-113085462D01*
X100466149Y-113085650D01*
X100456818Y-113080363D01*
X100445312Y-113069343D01*
X100429569Y-113052220D01*
X100397076Y-113082809D01*
X100394690Y-113085049D01*
X100370141Y-113107072D01*
X100347359Y-113125323D01*
X100324370Y-113141286D01*
X100299199Y-113156446D01*
X100289811Y-113161546D01*
X100255568Y-113177311D01*
X100217721Y-113191053D01*
X100178555Y-113202009D01*
X100140357Y-113209418D01*
X100120404Y-113211737D01*
X100072340Y-113212714D01*
X100024251Y-113207473D01*
X99976885Y-113196267D01*
X99930985Y-113179350D01*
X99887298Y-113156974D01*
X99846568Y-113129395D01*
X99814934Y-113101601D01*
X100289563Y-113101601D01*
X100290498Y-113101618D01*
X100295871Y-113098943D01*
X100304880Y-113093079D01*
X100316479Y-113084765D01*
X100329618Y-113074740D01*
X100343251Y-113063742D01*
X100343655Y-113063407D01*
X100360254Y-113048773D01*
X100375608Y-113033732D01*
X100388926Y-113019201D01*
X100399418Y-113006096D01*
X100406293Y-112995332D01*
X100408760Y-112987827D01*
X100407617Y-112983192D01*
X100403424Y-112973434D01*
X100396833Y-112960414D01*
X100388566Y-112945394D01*
X100379344Y-112929635D01*
X100369889Y-112914401D01*
X100360922Y-112900953D01*
X100353165Y-112890554D01*
X100351691Y-112888833D01*
X100343712Y-112881105D01*
X100334318Y-112873714D01*
X100325083Y-112867709D01*
X100317583Y-112864140D01*
X100313393Y-112864056D01*
X100313224Y-112864492D01*
X100314073Y-112869278D01*
X100316884Y-112877118D01*
X100317887Y-112879735D01*
X100321522Y-112891823D01*
X100325424Y-112907826D01*
X100329179Y-112925677D01*
X100332374Y-112943311D01*
X100334595Y-112958663D01*
X100335427Y-112969666D01*
X100334803Y-112981022D01*
X100329947Y-113006472D01*
X100320526Y-113034847D01*
X100309175Y-113059978D01*
X100306833Y-113065163D01*
X100306659Y-113065505D01*
X100299749Y-113079304D01*
X100294226Y-113090703D01*
X100290645Y-113098527D01*
X100289563Y-113101601D01*
X99814934Y-113101601D01*
X99809542Y-113096864D01*
X99796075Y-113082894D01*
X99767146Y-113048568D01*
X99760253Y-113038366D01*
X99910891Y-113038366D01*
X99916236Y-113050021D01*
X99927163Y-113062067D01*
X99943489Y-113074087D01*
X99965028Y-113085666D01*
X99977472Y-113089988D01*
X99996044Y-113093663D01*
X100016383Y-113095584D01*
X100035910Y-113095526D01*
X100052046Y-113093263D01*
X100056425Y-113091899D01*
X100069147Y-113084235D01*
X100077754Y-113073108D01*
X100081718Y-113059978D01*
X100080512Y-113046308D01*
X100073607Y-113033560D01*
X100062133Y-113023261D01*
X100044062Y-113013396D01*
X100022488Y-113006215D01*
X99998915Y-113001974D01*
X99974850Y-113000928D01*
X99951798Y-113003332D01*
X99931265Y-113009441D01*
X99930197Y-113009910D01*
X99917687Y-113017894D01*
X99911314Y-113027518D01*
X99910891Y-113038366D01*
X99760253Y-113038366D01*
X99743880Y-113014134D01*
X99726571Y-112980059D01*
X99715509Y-112946808D01*
X99713925Y-112938757D01*
X99712103Y-112914779D01*
X99713363Y-112890049D01*
X99769575Y-112890049D01*
X99770134Y-112917557D01*
X99776497Y-112945166D01*
X99788840Y-112974107D01*
X99794752Y-112984994D01*
X99800648Y-112994700D01*
X99804953Y-113000555D01*
X99806557Y-113002129D01*
X99808741Y-113003095D01*
X99810056Y-113000515D01*
X99810838Y-112993348D01*
X99811425Y-112980555D01*
X99812189Y-112967695D01*
X99818453Y-112928165D01*
X99830502Y-112891947D01*
X99848338Y-112859038D01*
X99871962Y-112829435D01*
X99901377Y-112803134D01*
X99925407Y-112784800D01*
X99911250Y-112782737D01*
X99903736Y-112781869D01*
X99890518Y-112780692D01*
X99874314Y-112779481D01*
X99857093Y-112778393D01*
X99817093Y-112776112D01*
X99806389Y-112792123D01*
X99793116Y-112814879D01*
X99781464Y-112840867D01*
X99773520Y-112865883D01*
X99769575Y-112890049D01*
X99713363Y-112890049D01*
X99713453Y-112888290D01*
X99717777Y-112861601D01*
X99724879Y-112837022D01*
X99735368Y-112811212D01*
X99748309Y-112785397D01*
X99761661Y-112764781D01*
X99775106Y-112749847D01*
X99788326Y-112741077D01*
X99795793Y-112738046D01*
X99807368Y-112734140D01*
X99819235Y-112731414D01*
X99832446Y-112729807D01*
X99848057Y-112729255D01*
X99867121Y-112729698D01*
X99890695Y-112731072D01*
X99919831Y-112733316D01*
X99959287Y-112736689D01*
X99995780Y-112740124D01*
X100027869Y-112743553D01*
X100056717Y-112747120D01*
X100083484Y-112750968D01*
X100109334Y-112755242D01*
X100135427Y-112760086D01*
X100182452Y-112769830D01*
X100229211Y-112781025D01*
X100242480Y-112784800D01*
X100269728Y-112792552D01*
G37*
G36*
X102080239Y-113089039D02*
G01*
X102073334Y-113126563D01*
X102061040Y-113160827D01*
X102043537Y-113193592D01*
X102018007Y-113230442D01*
X101993166Y-113258912D01*
X101987864Y-113264988D01*
X101953920Y-113296619D01*
X101916991Y-113324725D01*
X101877891Y-113348696D01*
X101837434Y-113367921D01*
X101796435Y-113381789D01*
X101755709Y-113389691D01*
X101746856Y-113390685D01*
X101729548Y-113392184D01*
X101714960Y-113392504D01*
X101700399Y-113391643D01*
X101683168Y-113389597D01*
X101671735Y-113387833D01*
X101627472Y-113376832D01*
X101585097Y-113359556D01*
X101544930Y-113336184D01*
X101507289Y-113306894D01*
X101472496Y-113271864D01*
X101466836Y-113265207D01*
X101455683Y-113251028D01*
X101444831Y-113236057D01*
X101435284Y-113221762D01*
X101428044Y-113209611D01*
X101424115Y-113201073D01*
X101421617Y-113195806D01*
X101415790Y-113188462D01*
X101412366Y-113185831D01*
X101408677Y-113185428D01*
X101403513Y-113188317D01*
X101395115Y-113195061D01*
X101392574Y-113197133D01*
X101381147Y-113205330D01*
X101370950Y-113211009D01*
X101363781Y-113213134D01*
X101361856Y-113211960D01*
X101357157Y-113207721D01*
X101355372Y-113205359D01*
X101353602Y-113195871D01*
X101356549Y-113182680D01*
X101363996Y-113166301D01*
X101375728Y-113147250D01*
X101386319Y-113133032D01*
X101453204Y-113133032D01*
X101456600Y-113145862D01*
X101463259Y-113161681D01*
X101472576Y-113179360D01*
X101483949Y-113197770D01*
X101496772Y-113215783D01*
X101510441Y-113232272D01*
X101511815Y-113233782D01*
X101523037Y-113245541D01*
X101533649Y-113255760D01*
X101542851Y-113263783D01*
X101549846Y-113268953D01*
X101553835Y-113270614D01*
X101554019Y-113268108D01*
X101550668Y-113259875D01*
X101550575Y-113259626D01*
X101648760Y-113259626D01*
X101649484Y-113266079D01*
X101654673Y-113276752D01*
X101665351Y-113286737D01*
X101682093Y-113296676D01*
X101684492Y-113297829D01*
X101704343Y-113303937D01*
X101726872Y-113306076D01*
X101749694Y-113304201D01*
X101770427Y-113298271D01*
X101780315Y-113294127D01*
X101787885Y-113291012D01*
X101790988Y-113289816D01*
X101791358Y-113289440D01*
X101794235Y-113285264D01*
X101798870Y-113277956D01*
X101801531Y-113272916D01*
X101804415Y-113258912D01*
X101800943Y-113245151D01*
X101791329Y-113232168D01*
X101775787Y-113220497D01*
X101769366Y-113216946D01*
X101762173Y-113214022D01*
X101753990Y-113212369D01*
X101742928Y-113211634D01*
X101727093Y-113211467D01*
X101713472Y-113211575D01*
X101701783Y-113212189D01*
X101693269Y-113213666D01*
X101686031Y-113216361D01*
X101678171Y-113220631D01*
X101673312Y-113223620D01*
X101659318Y-113234775D01*
X101651311Y-113246542D01*
X101648760Y-113259626D01*
X101550575Y-113259626D01*
X101540411Y-113232458D01*
X101533228Y-113208710D01*
X101528705Y-113187101D01*
X101526428Y-113166104D01*
X101526513Y-113132207D01*
X101531668Y-113099938D01*
X101542305Y-113069923D01*
X101558726Y-113041000D01*
X101563920Y-113033150D01*
X101566337Y-113028548D01*
X101565391Y-113027267D01*
X101561310Y-113028165D01*
X101559814Y-113028640D01*
X101547178Y-113035029D01*
X101530942Y-113046638D01*
X101511339Y-113063285D01*
X101488607Y-113084786D01*
X101485010Y-113088365D01*
X101473115Y-113100715D01*
X101463232Y-113111753D01*
X101456305Y-113120390D01*
X101453278Y-113125536D01*
X101453204Y-113133032D01*
X101386319Y-113133032D01*
X101391527Y-113126041D01*
X101399999Y-113116043D01*
X101412984Y-113101772D01*
X101428348Y-113085647D01*
X101445107Y-113068634D01*
X101462278Y-113051703D01*
X101478879Y-113035819D01*
X101493926Y-113021949D01*
X101506436Y-113011062D01*
X101515427Y-113004124D01*
X101515525Y-113004059D01*
X101518794Y-113002153D01*
X101972091Y-113002153D01*
X101973113Y-113004187D01*
X101976716Y-113010574D01*
X101982022Y-113019679D01*
X101986518Y-113028016D01*
X101986765Y-113028548D01*
X101993433Y-113042914D01*
X101999070Y-113057326D01*
X102003285Y-113073173D01*
X102006340Y-113093468D01*
X102008308Y-113119126D01*
X102008843Y-113129112D01*
X102009746Y-113142953D01*
X102010706Y-113151594D01*
X102011919Y-113155981D01*
X102013579Y-113157065D01*
X102015883Y-113155793D01*
X102017352Y-113154363D01*
X102022513Y-113145760D01*
X102027591Y-113132588D01*
X102032115Y-113116451D01*
X102035616Y-113098952D01*
X102037621Y-113081695D01*
X102037949Y-113074663D01*
X102037821Y-113057808D01*
X102036633Y-113041134D01*
X102034584Y-113026260D01*
X102031872Y-113014806D01*
X102028692Y-113008393D01*
X102024664Y-113007013D01*
X102016229Y-113005458D01*
X102005221Y-113003932D01*
X101993471Y-113002636D01*
X101982812Y-113001773D01*
X101975075Y-113001545D01*
X101972091Y-113002153D01*
X101518794Y-113002153D01*
X101532870Y-112993947D01*
X101554054Y-112983881D01*
X101576365Y-112975038D01*
X101597093Y-112968598D01*
X101610770Y-112965424D01*
X101643567Y-112959596D01*
X101681511Y-112954833D01*
X101723627Y-112951183D01*
X101768939Y-112948691D01*
X101816474Y-112947404D01*
X101865256Y-112947367D01*
X101914310Y-112948628D01*
X101962660Y-112951232D01*
X101965759Y-112951446D01*
X101987775Y-112953031D01*
X102004393Y-112954430D01*
X102016734Y-112955834D01*
X102025918Y-112957431D01*
X102033065Y-112959411D01*
X102039297Y-112961964D01*
X102045733Y-112965279D01*
X102048379Y-112966746D01*
X102061343Y-112975423D01*
X102069872Y-112985065D01*
X102075219Y-112997561D01*
X102078642Y-113014800D01*
X102081661Y-113049050D01*
X102080750Y-113074663D01*
X102080239Y-113089039D01*
G37*
G36*
X100553362Y-113397313D02*
G01*
X100555548Y-113399534D01*
X100559641Y-113409083D01*
X100561422Y-113423046D01*
X100560794Y-113440064D01*
X100557662Y-113458776D01*
X100551754Y-113487265D01*
X100547658Y-113516275D01*
X100546672Y-113540730D01*
X100548734Y-113561326D01*
X100554280Y-113582775D01*
X100565687Y-113607370D01*
X100581761Y-113627307D01*
X100602628Y-113642699D01*
X100628415Y-113653659D01*
X100659250Y-113660303D01*
X100662449Y-113660766D01*
X100676768Y-113663514D01*
X100689247Y-113666891D01*
X100697487Y-113670270D01*
X100698439Y-113670824D01*
X100706937Y-113674827D01*
X100713453Y-113676467D01*
X100719776Y-113677918D01*
X100730050Y-113682455D01*
X100742415Y-113689225D01*
X100755531Y-113697348D01*
X100768062Y-113705949D01*
X100778669Y-113714150D01*
X100786014Y-113721074D01*
X100788760Y-113725843D01*
X100789553Y-113728197D01*
X100793736Y-113733114D01*
X100798715Y-113740044D01*
X100803101Y-113753817D01*
X100805878Y-113773320D01*
X100806960Y-113798134D01*
X100806974Y-113799869D01*
X100807412Y-113816112D01*
X100808527Y-113827520D01*
X100810576Y-113835765D01*
X100813819Y-113842520D01*
X100814780Y-113844021D01*
X100824505Y-113854589D01*
X100839397Y-113865919D01*
X100858332Y-113877246D01*
X100880190Y-113887805D01*
X100889045Y-113891495D01*
X100899173Y-113894940D01*
X100909013Y-113896853D01*
X100920882Y-113897636D01*
X100937093Y-113897691D01*
X100949951Y-113897228D01*
X100982565Y-113892370D01*
X101011619Y-113882138D01*
X101037588Y-113866386D01*
X101039200Y-113865157D01*
X101046841Y-113858757D01*
X101053165Y-113851910D01*
X101059173Y-113843203D01*
X101065864Y-113831221D01*
X101074237Y-113814550D01*
X101074885Y-113813230D01*
X101084715Y-113793975D01*
X101093855Y-113778499D01*
X101103219Y-113766251D01*
X101113724Y-113756681D01*
X101126286Y-113749238D01*
X101141821Y-113743372D01*
X101161246Y-113738533D01*
X101185476Y-113734171D01*
X101215427Y-113729736D01*
X101231260Y-113727365D01*
X101254970Y-113723169D01*
X101274406Y-113718861D01*
X101288776Y-113714625D01*
X101297287Y-113710646D01*
X101305771Y-113701203D01*
X101310979Y-113686323D01*
X101312017Y-113667021D01*
X101308908Y-113643685D01*
X101301673Y-113616704D01*
X101290334Y-113586467D01*
X101287438Y-113579455D01*
X101279911Y-113559641D01*
X101274003Y-113541661D01*
X101270142Y-113526904D01*
X101268760Y-113516758D01*
X101270756Y-113506856D01*
X101276406Y-113497731D01*
X101284179Y-113491839D01*
X101292532Y-113490861D01*
X101302019Y-113495067D01*
X101311882Y-113503512D01*
X101322110Y-113516579D01*
X101333016Y-113534731D01*
X101344909Y-113558429D01*
X101358102Y-113588134D01*
X101364942Y-113608361D01*
X101370479Y-113633175D01*
X101374118Y-113659762D01*
X101375427Y-113685690D01*
X101373501Y-113706237D01*
X101365974Y-113728364D01*
X101352908Y-113746964D01*
X101334465Y-113761874D01*
X101310806Y-113772933D01*
X101282093Y-113779975D01*
X101276367Y-113780888D01*
X101262385Y-113783106D01*
X101245689Y-113785747D01*
X101228760Y-113788419D01*
X101219307Y-113790030D01*
X101202470Y-113793413D01*
X101187421Y-113797028D01*
X101176571Y-113800324D01*
X101168329Y-113804058D01*
X101150695Y-113816847D01*
X101135086Y-113834947D01*
X101122362Y-113857450D01*
X101110950Y-113879011D01*
X101092654Y-113903018D01*
X101070197Y-113922492D01*
X101043207Y-113937683D01*
X101011313Y-113948837D01*
X100974142Y-113956203D01*
X100960399Y-113958199D01*
X100949127Y-113960485D01*
X100943278Y-113963349D01*
X100942201Y-113967581D01*
X100945243Y-113973972D01*
X100951753Y-113983311D01*
X100953904Y-113986243D01*
X100964669Y-113999506D01*
X100975731Y-114010105D01*
X100988348Y-114018791D01*
X101003773Y-114026314D01*
X101023264Y-114033425D01*
X101048077Y-114040873D01*
X101064170Y-114045673D01*
X101079468Y-114050725D01*
X101091755Y-114055289D01*
X101099312Y-114058766D01*
X101105913Y-114063317D01*
X101109462Y-114069063D01*
X101109995Y-114078155D01*
X101108415Y-114087874D01*
X101103328Y-114095660D01*
X101102048Y-114096428D01*
X101093368Y-114098581D01*
X101080242Y-114099329D01*
X101064303Y-114098772D01*
X101047185Y-114097010D01*
X101030524Y-114094144D01*
X101015952Y-114090276D01*
X101006960Y-114087082D01*
X100970014Y-114069640D01*
X100936055Y-114046353D01*
X100905523Y-114017511D01*
X100903770Y-114015594D01*
X100895006Y-114006315D01*
X100887848Y-113999207D01*
X100883704Y-113995678D01*
X100883598Y-113995622D01*
X100878536Y-113996321D01*
X100869498Y-114000588D01*
X100857677Y-114007863D01*
X100836702Y-114019712D01*
X100812772Y-114027752D01*
X100811972Y-114027933D01*
X100789172Y-114032297D01*
X100764783Y-114035680D01*
X100740811Y-114037895D01*
X100719265Y-114038755D01*
X100702149Y-114038072D01*
X100692940Y-114036871D01*
X100672671Y-114032752D01*
X100653701Y-114027041D01*
X100637094Y-114020214D01*
X100623914Y-114012747D01*
X100615226Y-114005116D01*
X100612093Y-113997797D01*
X100612104Y-113997154D01*
X100614081Y-113990274D01*
X100619851Y-113985468D01*
X100629946Y-113982653D01*
X100644900Y-113981744D01*
X100665245Y-113982657D01*
X100691515Y-113985310D01*
X100692596Y-113985436D01*
X100721399Y-113987196D01*
X100748942Y-113985963D01*
X100773586Y-113981899D01*
X100793691Y-113975167D01*
X100796584Y-113973732D01*
X100808033Y-113966552D01*
X100819376Y-113957533D01*
X100829212Y-113947997D01*
X100836140Y-113939263D01*
X100838760Y-113932654D01*
X100837089Y-113928963D01*
X100830835Y-113922422D01*
X100821260Y-113915136D01*
X100809120Y-113906503D01*
X100784578Y-113884498D01*
X100765838Y-113859909D01*
X100752429Y-113832031D01*
X100743875Y-113800162D01*
X100743244Y-113796799D01*
X100739757Y-113781145D01*
X100735421Y-113768468D01*
X100729442Y-113758080D01*
X100721025Y-113749296D01*
X100709376Y-113741427D01*
X100693701Y-113733787D01*
X100673205Y-113725688D01*
X100647093Y-113716443D01*
X100646478Y-113716230D01*
X100608333Y-113701892D01*
X100576264Y-113687065D01*
X100549691Y-113671198D01*
X100528032Y-113653740D01*
X100510705Y-113634141D01*
X100497130Y-113611848D01*
X100486725Y-113586312D01*
X100478909Y-113556980D01*
X100476444Y-113544023D01*
X100474643Y-113528574D01*
X100474443Y-113512990D01*
X100475920Y-113495708D01*
X100479152Y-113475166D01*
X100484218Y-113449800D01*
X100485681Y-113443162D01*
X100490193Y-113426442D01*
X100495125Y-113414743D01*
X100501104Y-113406830D01*
X100508759Y-113401467D01*
X100519682Y-113397150D01*
X100533005Y-113394488D01*
X100544996Y-113394471D01*
X100553362Y-113397313D01*
G37*
G36*
X101007093Y-110841122D02*
G01*
X101011828Y-110845187D01*
X101025522Y-110856431D01*
X101037875Y-110865870D01*
X101047688Y-110872614D01*
X101053760Y-110875771D01*
X101056489Y-110876284D01*
X101066621Y-110876830D01*
X101080520Y-110876504D01*
X101096206Y-110875329D01*
X101102570Y-110874809D01*
X101126592Y-110874265D01*
X101155411Y-110875321D01*
X101187782Y-110877865D01*
X101222460Y-110881782D01*
X101258201Y-110886961D01*
X101293760Y-110893287D01*
X101309996Y-110896605D01*
X101388851Y-110916682D01*
X101468047Y-110943382D01*
X101547528Y-110976678D01*
X101627234Y-111016545D01*
X101707108Y-111062956D01*
X101787093Y-111115886D01*
X101791314Y-111118873D01*
X101805329Y-111129038D01*
X101821092Y-111140753D01*
X101837586Y-111153233D01*
X101853794Y-111165691D01*
X101868699Y-111177342D01*
X101881284Y-111187400D01*
X101890532Y-111195080D01*
X101895427Y-111199595D01*
X101897327Y-111201380D01*
X101903445Y-111206845D01*
X101912631Y-111214928D01*
X101923760Y-111224635D01*
X101923948Y-111224800D01*
X101927511Y-111227922D01*
X101938703Y-111238134D01*
X101947940Y-111246562D01*
X101956559Y-111254800D01*
X101971009Y-111268612D01*
X101995332Y-111292683D01*
X102019524Y-111317386D01*
X102042197Y-111341333D01*
X102061967Y-111363134D01*
X102107921Y-111417285D01*
X102166956Y-111493910D01*
X102219593Y-111571340D01*
X102265983Y-111649859D01*
X102306278Y-111729752D01*
X102340630Y-111811302D01*
X102351462Y-111842967D01*
X102369192Y-111894795D01*
X102392116Y-111980515D01*
X102396487Y-111999159D01*
X102401557Y-112020394D01*
X102406409Y-112040370D01*
X102410412Y-112056467D01*
X102416262Y-112080207D01*
X102436421Y-112174580D01*
X102453064Y-112274594D01*
X102466188Y-112380229D01*
X102475790Y-112491467D01*
X102476401Y-112501666D01*
X102477378Y-112524532D01*
X102478188Y-112552255D01*
X102478831Y-112583874D01*
X102479306Y-112618429D01*
X102479613Y-112654960D01*
X102479751Y-112692506D01*
X102479721Y-112730109D01*
X102479521Y-112766807D01*
X102479151Y-112801641D01*
X102478611Y-112833651D01*
X102477900Y-112861876D01*
X102477019Y-112885357D01*
X102475966Y-112903134D01*
X102474540Y-112920882D01*
X102469582Y-112976443D01*
X102463860Y-113032749D01*
X102461356Y-113054800D01*
X102457550Y-113088317D01*
X102450824Y-113141665D01*
X102443859Y-113191312D01*
X102436827Y-113235775D01*
X102434750Y-113248274D01*
X102431535Y-113269330D01*
X102429646Y-113285082D01*
X102429019Y-113296343D01*
X102429595Y-113303926D01*
X102431311Y-113308644D01*
X102431358Y-113308712D01*
X102435298Y-113311713D01*
X102443848Y-113317008D01*
X102455730Y-113323901D01*
X102469666Y-113331697D01*
X102484378Y-113339699D01*
X102498588Y-113347212D01*
X102511019Y-113353541D01*
X102520391Y-113357991D01*
X102525427Y-113359864D01*
X102529817Y-113360300D01*
X102537748Y-113359356D01*
X102546024Y-113355240D01*
X102556741Y-113347096D01*
X102560796Y-113343847D01*
X102580980Y-113329629D01*
X102604765Y-113315289D01*
X102629867Y-113302132D01*
X102654001Y-113291465D01*
X102659657Y-113289206D01*
X102672932Y-113283610D01*
X102683831Y-113278622D01*
X102690420Y-113275111D01*
X102692299Y-113273742D01*
X102695322Y-113270438D01*
X102697889Y-113265374D01*
X102700268Y-113257582D01*
X102702727Y-113246090D01*
X102705534Y-113229931D01*
X102708959Y-113208134D01*
X102710742Y-113198115D01*
X102714487Y-113180610D01*
X102719149Y-113161316D01*
X102724110Y-113142891D01*
X102730536Y-113121890D01*
X102744663Y-113084271D01*
X102760622Y-113052658D01*
X102778730Y-113026701D01*
X102799305Y-113006054D01*
X102822662Y-112990368D01*
X102849119Y-112979295D01*
X102878990Y-112972486D01*
X102894381Y-112970977D01*
X102920324Y-112971631D01*
X102945991Y-112975801D01*
X102969854Y-112983091D01*
X102990388Y-112993105D01*
X103006068Y-113005448D01*
X103020258Y-113023296D01*
X103035321Y-113050623D01*
X103048011Y-113084139D01*
X103058320Y-113123819D01*
X103066241Y-113169637D01*
X103071764Y-113221568D01*
X103072532Y-113231024D01*
X103074496Y-113251128D01*
X103076787Y-113266508D01*
X103079819Y-113278557D01*
X103084002Y-113288670D01*
X103089746Y-113298239D01*
X103097464Y-113308658D01*
X103110685Y-113327718D01*
X103124074Y-113351351D01*
X103135334Y-113375708D01*
X103143111Y-113398134D01*
X103145600Y-113408709D01*
X103149124Y-113427700D01*
X103152617Y-113450576D01*
X103155860Y-113475743D01*
X103158634Y-113501603D01*
X103158840Y-113504062D01*
X103160721Y-113526562D01*
X103160781Y-113527452D01*
X103161186Y-113547124D01*
X103160368Y-113572170D01*
X103158453Y-113601497D01*
X103155568Y-113634012D01*
X103151838Y-113668620D01*
X103147393Y-113704229D01*
X103142357Y-113739745D01*
X103136858Y-113774075D01*
X103131023Y-113806124D01*
X103124978Y-113834800D01*
X103113256Y-113880529D01*
X103094476Y-113937632D01*
X103072124Y-113989530D01*
X103045946Y-114036613D01*
X103015687Y-114079272D01*
X102981095Y-114117899D01*
X102941915Y-114152884D01*
X102897893Y-114184619D01*
X102886441Y-114191847D01*
X102839893Y-114216863D01*
X102792776Y-114235240D01*
X102745077Y-114246982D01*
X102696781Y-114252092D01*
X102647875Y-114250574D01*
X102644743Y-114250255D01*
X102604877Y-114243833D01*
X102567367Y-114232980D01*
X102530582Y-114217118D01*
X102492889Y-114195670D01*
X102490818Y-114194371D01*
X102471362Y-114183370D01*
X102452893Y-114175674D01*
X102432873Y-114170409D01*
X102408760Y-114166701D01*
X102407708Y-114166574D01*
X102393799Y-114164723D01*
X102374728Y-114161975D01*
X102351778Y-114158532D01*
X102326232Y-114154597D01*
X102299372Y-114150375D01*
X102272481Y-114146069D01*
X102246841Y-114141881D01*
X102223736Y-114138015D01*
X102204447Y-114134675D01*
X102190258Y-114132063D01*
X102189950Y-114132004D01*
X102177293Y-114130085D01*
X102166526Y-114129370D01*
X102159950Y-114130012D01*
X102155013Y-114134421D01*
X102148398Y-114145191D01*
X102140522Y-114161998D01*
X102132398Y-114180530D01*
X102095323Y-114256361D01*
X102051924Y-114332714D01*
X102002419Y-114409246D01*
X101947029Y-114485612D01*
X101885972Y-114561467D01*
X101877169Y-114571609D01*
X101858899Y-114591626D01*
X101837128Y-114614522D01*
X101812812Y-114639358D01*
X101786909Y-114665193D01*
X101760376Y-114691087D01*
X101734171Y-114716099D01*
X101709251Y-114739289D01*
X101686572Y-114759718D01*
X101667093Y-114776444D01*
X101665607Y-114777677D01*
X101650111Y-114790602D01*
X101636414Y-114802147D01*
X101625354Y-114811596D01*
X101617767Y-114818237D01*
X101614489Y-114821353D01*
X101613036Y-114825400D01*
X101612962Y-114825606D01*
X101613078Y-114835367D01*
X101615655Y-114850199D01*
X101620759Y-114870450D01*
X101628453Y-114896467D01*
X101630940Y-114904631D01*
X101636152Y-114922289D01*
X101642572Y-114944511D01*
X101649871Y-114970144D01*
X101657722Y-114998035D01*
X101665797Y-115027030D01*
X101673767Y-115055974D01*
X101680294Y-115079595D01*
X101687428Y-115104889D01*
X101694011Y-115127688D01*
X101699808Y-115147203D01*
X101704584Y-115162644D01*
X101708104Y-115173224D01*
X101710133Y-115178153D01*
X101714205Y-115182585D01*
X101722900Y-115189503D01*
X101733506Y-115196321D01*
X101749678Y-115207500D01*
X101769236Y-115226203D01*
X101786057Y-115248103D01*
X101798458Y-115271257D01*
X101799167Y-115272979D01*
X101809910Y-115306949D01*
X101814156Y-115340611D01*
X101812793Y-115361467D01*
X101811931Y-115374662D01*
X101803260Y-115409800D01*
X101802874Y-115410958D01*
X101789939Y-115443182D01*
X101773127Y-115473646D01*
X101751915Y-115502996D01*
X101725777Y-115531880D01*
X101694189Y-115560948D01*
X101656625Y-115590846D01*
X101605695Y-115626923D01*
X101531512Y-115672513D01*
X101454081Y-115712284D01*
X101373414Y-115746231D01*
X101289520Y-115774349D01*
X101202409Y-115796636D01*
X101112093Y-115813086D01*
X101086576Y-115816548D01*
X101049737Y-115820380D01*
X101016968Y-115822301D01*
X100989031Y-115822272D01*
X100966685Y-115820256D01*
X100953936Y-115817995D01*
X100917857Y-115808226D01*
X100885203Y-115793767D01*
X100855450Y-115774233D01*
X100828077Y-115749240D01*
X100802561Y-115718400D01*
X100778379Y-115681328D01*
X100749297Y-115630267D01*
X100701847Y-115539878D01*
X100656991Y-115445340D01*
X100615454Y-115348134D01*
X100589850Y-115284800D01*
X100535138Y-115285941D01*
X100512408Y-115286207D01*
X100484323Y-115285654D01*
X100458747Y-115283796D01*
X100433488Y-115280386D01*
X100406354Y-115275177D01*
X100375153Y-115267923D01*
X100359165Y-115264052D01*
X100342535Y-115260456D01*
X100329483Y-115258590D01*
X100318377Y-115258468D01*
X100307586Y-115260102D01*
X100295480Y-115263507D01*
X100280427Y-115268695D01*
X100266770Y-115273539D01*
X100191003Y-115299501D01*
X100120124Y-115322106D01*
X100053479Y-115341501D01*
X99990417Y-115357834D01*
X99930283Y-115371254D01*
X99872425Y-115381908D01*
X99816188Y-115389944D01*
X99760919Y-115395510D01*
X99705966Y-115398754D01*
X99696746Y-115399138D01*
X99675870Y-115400304D01*
X99660969Y-115401681D01*
X99651539Y-115403326D01*
X99647075Y-115405295D01*
X99644133Y-115409781D01*
X99640030Y-115421531D01*
X99636314Y-115438773D01*
X99633101Y-115460808D01*
X99630507Y-115486939D01*
X99628648Y-115516467D01*
X99627891Y-115530570D01*
X99625330Y-115560931D01*
X99621415Y-115587369D01*
X99615738Y-115611796D01*
X99607889Y-115636123D01*
X99597459Y-115662262D01*
X99594819Y-115668344D01*
X99571994Y-115714728D01*
X99547000Y-115754915D01*
X99519687Y-115789050D01*
X99489904Y-115817279D01*
X99457501Y-115839745D01*
X99422327Y-115856594D01*
X99384234Y-115867972D01*
X99379351Y-115868981D01*
X99364922Y-115871188D01*
X99349578Y-115872256D01*
X99332631Y-115872103D01*
X99313393Y-115870645D01*
X99291177Y-115867801D01*
X99265293Y-115863488D01*
X99235055Y-115857623D01*
X99199773Y-115850124D01*
X99158760Y-115840907D01*
X99067958Y-115818610D01*
X98973987Y-115791951D01*
X98886076Y-115762991D01*
X98804097Y-115731665D01*
X98727923Y-115697907D01*
X98657428Y-115661651D01*
X98592484Y-115622832D01*
X98532963Y-115581384D01*
X98478740Y-115537240D01*
X98429686Y-115490336D01*
X98385676Y-115440605D01*
X98368548Y-115418167D01*
X98345741Y-115383169D01*
X98326885Y-115347552D01*
X98312227Y-115312061D01*
X98302017Y-115277440D01*
X98298222Y-115254713D01*
X98396048Y-115254713D01*
X98396404Y-115262831D01*
X98397956Y-115271752D01*
X98399108Y-115276436D01*
X98404184Y-115291719D01*
X98411614Y-115310065D01*
X98420556Y-115329598D01*
X98430170Y-115348443D01*
X98439615Y-115364725D01*
X98446118Y-115374685D01*
X98476339Y-115414517D01*
X98512459Y-115453344D01*
X98553868Y-115490652D01*
X98599961Y-115525926D01*
X98650127Y-115558652D01*
X98703760Y-115588315D01*
X98704345Y-115588611D01*
X98737095Y-115604283D01*
X98774833Y-115620805D01*
X98816642Y-115637875D01*
X98861600Y-115655186D01*
X98908789Y-115672434D01*
X98957289Y-115689313D01*
X99006180Y-115705519D01*
X99054542Y-115720747D01*
X99101456Y-115734692D01*
X99146002Y-115747049D01*
X99187261Y-115757512D01*
X99224313Y-115765777D01*
X99256238Y-115771539D01*
X99260960Y-115772237D01*
X99297069Y-115776100D01*
X99328416Y-115776468D01*
X99355873Y-115773245D01*
X99380312Y-115766338D01*
X99402607Y-115755652D01*
X99437695Y-115731397D01*
X99469503Y-115701741D01*
X99496908Y-115667745D01*
X99519294Y-115630177D01*
X99536045Y-115589800D01*
X99538904Y-115580976D01*
X99542362Y-115568985D01*
X99544594Y-115558163D01*
X99545871Y-115546554D01*
X99546464Y-115532197D01*
X99546643Y-115513134D01*
X99546486Y-115494134D01*
X99545928Y-115473304D01*
X99545058Y-115454091D01*
X99543966Y-115439019D01*
X99543755Y-115436761D01*
X99542901Y-115424034D01*
X99542932Y-115412137D01*
X99544088Y-115400210D01*
X99546605Y-115387392D01*
X99550720Y-115372821D01*
X99556672Y-115355637D01*
X99564698Y-115334979D01*
X99575037Y-115309987D01*
X99587924Y-115279800D01*
X99589191Y-115276858D01*
X99599232Y-115253488D01*
X99604783Y-115240521D01*
X100693754Y-115240521D01*
X100694396Y-115243456D01*
X100695907Y-115248207D01*
X100698469Y-115255261D01*
X100702263Y-115265101D01*
X100707470Y-115278213D01*
X100714274Y-115295080D01*
X100722854Y-115316188D01*
X100733392Y-115342021D01*
X100746071Y-115373063D01*
X100761071Y-115409800D01*
X100764020Y-115417009D01*
X100789297Y-115477337D01*
X100813311Y-115531974D01*
X100835971Y-115580726D01*
X100857188Y-115623399D01*
X100876872Y-115659800D01*
X100885018Y-115672955D01*
X100905064Y-115697408D01*
X100928539Y-115716245D01*
X100955839Y-115729747D01*
X100987363Y-115738197D01*
X101002963Y-115740454D01*
X101039426Y-115742518D01*
X101079263Y-115740993D01*
X101121046Y-115736023D01*
X101163346Y-115727752D01*
X101204732Y-115716325D01*
X101209621Y-115714736D01*
X101237648Y-115704980D01*
X101270061Y-115692809D01*
X101305577Y-115678766D01*
X101342916Y-115663396D01*
X101380796Y-115647245D01*
X101417935Y-115630856D01*
X101453052Y-115614775D01*
X101484865Y-115599545D01*
X101512093Y-115585712D01*
X101523555Y-115579572D01*
X101545995Y-115567169D01*
X101569117Y-115553968D01*
X101591605Y-115540748D01*
X101612142Y-115528288D01*
X101629410Y-115517369D01*
X101642093Y-115508769D01*
X101648526Y-115504002D01*
X101676783Y-115479222D01*
X101698653Y-115452716D01*
X101714215Y-115424346D01*
X101723548Y-115393975D01*
X101726730Y-115361467D01*
X101725307Y-115339069D01*
X101720257Y-115319643D01*
X101710874Y-115302403D01*
X101696451Y-115286060D01*
X101676283Y-115269325D01*
X101669365Y-115263605D01*
X101658883Y-115252745D01*
X101651769Y-115242497D01*
X101649876Y-115238504D01*
X101646210Y-115229707D01*
X101641534Y-115217406D01*
X101635727Y-115201242D01*
X101628668Y-115180859D01*
X101620235Y-115155899D01*
X101610306Y-115126004D01*
X101598760Y-115090816D01*
X101585474Y-115049979D01*
X101570328Y-115003134D01*
X101568915Y-114998755D01*
X101560115Y-114971639D01*
X101551879Y-114946505D01*
X101544452Y-114924081D01*
X101538077Y-114905094D01*
X101532999Y-114890274D01*
X101529462Y-114880347D01*
X101527710Y-114876043D01*
X101527443Y-114875655D01*
X101525366Y-114874388D01*
X101521709Y-114874913D01*
X101515694Y-114877634D01*
X101506541Y-114882953D01*
X101493474Y-114891275D01*
X101475714Y-114903002D01*
X101463034Y-114911391D01*
X101440856Y-114925723D01*
X101419335Y-114939100D01*
X101397718Y-114951919D01*
X101375251Y-114964580D01*
X101351181Y-114977483D01*
X101324756Y-114991027D01*
X101295221Y-115005612D01*
X101261823Y-115021637D01*
X101223809Y-115039502D01*
X101180427Y-115059605D01*
X101174753Y-115062220D01*
X101153720Y-115071877D01*
X101135086Y-115080350D01*
X101117430Y-115088268D01*
X101099326Y-115096263D01*
X101079352Y-115104963D01*
X101056084Y-115114998D01*
X101028098Y-115126999D01*
X101010231Y-115134440D01*
X100975096Y-115148195D01*
X100936162Y-115162530D01*
X100895074Y-115176891D01*
X100853478Y-115190722D01*
X100813019Y-115203467D01*
X100775342Y-115214573D01*
X100742093Y-115223484D01*
X100740100Y-115223985D01*
X100724248Y-115228157D01*
X100710764Y-115232016D01*
X100701020Y-115235153D01*
X100696388Y-115237157D01*
X100696246Y-115237265D01*
X100695227Y-115237776D01*
X100694351Y-115238166D01*
X100693799Y-115238919D01*
X100693754Y-115240521D01*
X99604783Y-115240521D01*
X99608639Y-115231514D01*
X99617011Y-115211879D01*
X99623944Y-115195530D01*
X99629039Y-115183411D01*
X99631891Y-115176467D01*
X99634751Y-115169284D01*
X99639904Y-115156438D01*
X99646139Y-115140960D01*
X99652671Y-115124800D01*
X99660138Y-115106291D01*
X99668630Y-115085016D01*
X99677148Y-115063393D01*
X99686149Y-115040240D01*
X99696093Y-115014377D01*
X99707438Y-114984624D01*
X99720643Y-114949800D01*
X99729856Y-114925469D01*
X99739917Y-114898899D01*
X99747978Y-114877527D01*
X99754230Y-114860764D01*
X99758865Y-114848019D01*
X99762073Y-114838700D01*
X99764045Y-114832218D01*
X99764972Y-114827982D01*
X99765045Y-114825400D01*
X99764455Y-114823883D01*
X99763392Y-114822839D01*
X99762048Y-114821679D01*
X99758330Y-114819019D01*
X99749511Y-114813615D01*
X99736780Y-114806234D01*
X99721181Y-114797478D01*
X99703760Y-114787953D01*
X99703193Y-114787647D01*
X99678116Y-114774144D01*
X99648061Y-114758012D01*
X99613920Y-114739729D01*
X99576583Y-114719769D01*
X99536944Y-114698609D01*
X99495894Y-114676724D01*
X99454325Y-114654591D01*
X99413130Y-114632685D01*
X99373200Y-114611481D01*
X99335427Y-114591457D01*
X99327957Y-114587500D01*
X99304671Y-114575159D01*
X99278070Y-114561054D01*
X99250025Y-114546178D01*
X99222409Y-114531524D01*
X99197093Y-114518085D01*
X99183790Y-114511031D01*
X99159779Y-114498351D01*
X99135964Y-114485830D01*
X99113766Y-114474213D01*
X99094606Y-114464246D01*
X99079906Y-114456672D01*
X99075933Y-114454644D01*
X99060786Y-114447004D01*
X99050152Y-114441993D01*
X99042874Y-114439249D01*
X99037795Y-114438414D01*
X99033758Y-114439127D01*
X99029606Y-114441029D01*
X99024932Y-114444233D01*
X99015446Y-114452453D01*
X99002862Y-114464535D01*
X98987863Y-114479769D01*
X98971129Y-114497447D01*
X98953340Y-114516857D01*
X98935179Y-114537290D01*
X98917325Y-114558038D01*
X98910301Y-114566383D01*
X98896714Y-114582752D01*
X98882907Y-114599728D01*
X98868256Y-114618106D01*
X98852139Y-114638676D01*
X98833931Y-114662231D01*
X98813009Y-114689564D01*
X98788750Y-114721467D01*
X98778022Y-114735600D01*
X98764857Y-114752917D01*
X98752703Y-114768881D01*
X98742564Y-114782171D01*
X98735446Y-114791467D01*
X98732506Y-114795298D01*
X98723545Y-114807006D01*
X98712222Y-114821834D01*
X98699689Y-114838269D01*
X98687100Y-114854800D01*
X98677716Y-114867132D01*
X98659613Y-114890910D01*
X98644817Y-114910317D01*
X98632828Y-114926001D01*
X98623149Y-114938608D01*
X98615279Y-114948785D01*
X98608719Y-114957179D01*
X98602970Y-114964437D01*
X98597532Y-114971206D01*
X98591907Y-114978134D01*
X98584842Y-114986437D01*
X98569898Y-115002731D01*
X98552005Y-115021144D01*
X98532521Y-115040348D01*
X98512803Y-115059016D01*
X98494210Y-115075819D01*
X98478100Y-115089429D01*
X98458310Y-115107609D01*
X98440902Y-115129218D01*
X98426275Y-115154467D01*
X98413866Y-115184335D01*
X98403113Y-115219800D01*
X98399667Y-115233363D01*
X98397073Y-115245517D01*
X98396048Y-115254713D01*
X98298222Y-115254713D01*
X98296505Y-115244432D01*
X98295938Y-115213784D01*
X98300567Y-115186239D01*
X98305563Y-115171181D01*
X98312282Y-115156232D01*
X98321570Y-115139849D01*
X98334342Y-115120246D01*
X98335644Y-115118312D01*
X98342301Y-115107842D01*
X98346988Y-115099483D01*
X98348760Y-115094899D01*
X98347344Y-115092999D01*
X98341144Y-115087838D01*
X98330870Y-115080354D01*
X98317459Y-115071223D01*
X98301848Y-115061120D01*
X98262879Y-115035592D01*
X98215233Y-115001717D01*
X98168160Y-114965106D01*
X98120711Y-114924984D01*
X98071938Y-114880575D01*
X98020895Y-114831104D01*
X98018068Y-114828286D01*
X97948888Y-114757636D01*
X97885400Y-114689328D01*
X97827240Y-114622962D01*
X97774044Y-114558134D01*
X97773658Y-114557646D01*
X97761071Y-114541788D01*
X97749736Y-114527573D01*
X97740374Y-114515898D01*
X97733704Y-114507661D01*
X97730445Y-114503759D01*
X97728093Y-114502774D01*
X97724052Y-114504342D01*
X97717695Y-114509140D01*
X97708289Y-114517727D01*
X97695100Y-114530660D01*
X97677122Y-114547610D01*
X97649741Y-114569248D01*
X97621679Y-114586076D01*
X97591446Y-114599076D01*
X97572794Y-114604188D01*
X97545565Y-114607849D01*
X97516114Y-114608386D01*
X97486494Y-114605785D01*
X97458760Y-114600032D01*
X97419132Y-114586375D01*
X97377149Y-114565696D01*
X97338909Y-114539865D01*
X97304911Y-114509223D01*
X97275651Y-114474112D01*
X97273321Y-114470902D01*
X97265670Y-114461297D01*
X97258055Y-114454032D01*
X97248884Y-114448004D01*
X97236563Y-114442111D01*
X97219498Y-114435249D01*
X97186208Y-114419409D01*
X97152808Y-114396615D01*
X97122624Y-114368348D01*
X97095904Y-114334921D01*
X97072898Y-114296652D01*
X97053854Y-114253854D01*
X97039022Y-114206843D01*
X97034243Y-114186484D01*
X97027999Y-114153257D01*
X97023125Y-114118869D01*
X97019953Y-114085784D01*
X97018814Y-114056467D01*
X97018824Y-114053791D01*
X97019376Y-114039800D01*
X97106467Y-114039800D01*
X97107161Y-114054866D01*
X97112731Y-114108528D01*
X97122906Y-114159609D01*
X97137474Y-114207377D01*
X97156225Y-114251102D01*
X97178945Y-114290051D01*
X97185991Y-114299585D01*
X97202365Y-114317566D01*
X97221256Y-114334148D01*
X97241428Y-114348495D01*
X97261643Y-114359776D01*
X97280665Y-114367155D01*
X97297258Y-114369800D01*
X97297619Y-114369801D01*
X97308915Y-114371248D01*
X97319362Y-114375917D01*
X97329844Y-114384530D01*
X97341242Y-114397807D01*
X97354440Y-114416467D01*
X97365550Y-114432526D01*
X97383702Y-114455639D01*
X97401529Y-114473920D01*
X97420037Y-114488348D01*
X97440236Y-114499903D01*
X97454412Y-114506153D01*
X97472793Y-114512588D01*
X97488760Y-114516388D01*
X97497705Y-114517712D01*
X97510493Y-114519067D01*
X97521571Y-114519069D01*
X97533666Y-114517643D01*
X97549510Y-114514713D01*
X97551428Y-114514315D01*
X97578973Y-114505401D01*
X97606795Y-114490827D01*
X97633788Y-114471381D01*
X97658846Y-114447853D01*
X97680863Y-114421029D01*
X97688847Y-114409037D01*
X97705145Y-114379231D01*
X97719264Y-114345981D01*
X97730225Y-114311467D01*
X97733542Y-114299660D01*
X97739609Y-114282443D01*
X97747103Y-114267215D01*
X97756970Y-114252439D01*
X97770154Y-114236576D01*
X97787600Y-114218088D01*
X97809960Y-114196266D01*
X97842848Y-114166713D01*
X97879881Y-114135745D01*
X97920008Y-114104162D01*
X97962178Y-114072764D01*
X98005339Y-114042351D01*
X98048439Y-114013723D01*
X98090427Y-113987681D01*
X98100776Y-113981557D01*
X98125746Y-113967291D01*
X98148355Y-113955356D01*
X98170364Y-113944950D01*
X98193538Y-113935272D01*
X98219638Y-113925519D01*
X98250427Y-113914889D01*
X98253008Y-113914021D01*
X98272164Y-113907542D01*
X98286071Y-113902663D01*
X98295692Y-113898924D01*
X98301991Y-113895864D01*
X98305930Y-113893024D01*
X98308473Y-113889944D01*
X98310584Y-113886163D01*
X98312919Y-113879406D01*
X98314901Y-113864400D01*
X98315166Y-113843773D01*
X98313715Y-113818012D01*
X98310548Y-113787606D01*
X98305582Y-113747122D01*
X98299866Y-113699339D01*
X98294968Y-113656493D01*
X98290825Y-113617639D01*
X98287371Y-113581836D01*
X98284544Y-113548138D01*
X98282279Y-113515604D01*
X98280512Y-113483290D01*
X98279179Y-113450252D01*
X98278216Y-113415548D01*
X98277559Y-113378234D01*
X98277144Y-113337366D01*
X98276907Y-113292003D01*
X98276869Y-113281692D01*
X98276692Y-113242502D01*
X98276475Y-113209378D01*
X98276205Y-113181837D01*
X98275867Y-113159394D01*
X98275449Y-113141565D01*
X98274937Y-113127866D01*
X98274317Y-113117812D01*
X98273576Y-113110919D01*
X98272701Y-113106703D01*
X98271677Y-113104680D01*
X98270883Y-113103991D01*
X98262182Y-113100176D01*
X98247146Y-113097158D01*
X98226023Y-113094965D01*
X98199059Y-113093622D01*
X98166501Y-113093159D01*
X98147065Y-113093264D01*
X98119432Y-113094025D01*
X98095053Y-113095709D01*
X98071827Y-113098535D01*
X98047652Y-113102725D01*
X98020427Y-113108500D01*
X98004319Y-113112305D01*
X97938463Y-113131263D01*
X97870451Y-113156088D01*
X97800671Y-113186574D01*
X97729508Y-113222517D01*
X97657349Y-113263712D01*
X97584581Y-113309954D01*
X97511589Y-113361038D01*
X97438760Y-113416760D01*
X97404857Y-113444608D01*
X97355142Y-113488949D01*
X97311087Y-113533142D01*
X97272140Y-113577837D01*
X97237747Y-113623689D01*
X97207356Y-113671348D01*
X97180413Y-113721467D01*
X97169399Y-113744624D01*
X97144733Y-113804543D01*
X97126252Y-113863398D01*
X97113810Y-113921811D01*
X97107263Y-113980405D01*
X97106467Y-114039800D01*
X97019376Y-114039800D01*
X97019972Y-114024682D01*
X97022852Y-113991177D01*
X97027198Y-113955049D01*
X97032748Y-113918074D01*
X97039238Y-113882025D01*
X97046403Y-113848675D01*
X97053982Y-113819800D01*
X97061954Y-113794387D01*
X97083851Y-113735103D01*
X97110464Y-113674778D01*
X97141061Y-113615002D01*
X97174908Y-113557366D01*
X97182152Y-113545778D01*
X97193205Y-113527622D01*
X97201224Y-113513488D01*
X97206665Y-113502395D01*
X97209986Y-113493361D01*
X97211643Y-113485406D01*
X97212093Y-113477548D01*
X97211700Y-113473168D01*
X97209953Y-113462420D01*
X97207053Y-113447504D01*
X97203264Y-113429765D01*
X97198853Y-113410545D01*
X97190575Y-113374532D01*
X97174166Y-113294384D01*
X97160355Y-113213086D01*
X97149011Y-113129592D01*
X97140701Y-113049590D01*
X99022633Y-113049590D01*
X99022648Y-113080241D01*
X99023069Y-113108392D01*
X99023920Y-113132765D01*
X99025224Y-113152085D01*
X99027520Y-113174262D01*
X99037922Y-113247014D01*
X99052533Y-113319502D01*
X99071044Y-113390731D01*
X99093145Y-113459704D01*
X99118526Y-113525425D01*
X99146878Y-113586901D01*
X99177892Y-113643134D01*
X99178706Y-113644476D01*
X99189456Y-113661914D01*
X99201623Y-113681201D01*
X99214388Y-113701083D01*
X99226933Y-113720305D01*
X99238440Y-113737613D01*
X99248090Y-113751752D01*
X99255066Y-113761467D01*
X99266694Y-113776685D01*
X99285531Y-113800852D01*
X99305321Y-113825740D01*
X99319912Y-113843773D01*
X99325560Y-113850753D01*
X99345741Y-113875291D01*
X99365359Y-113898758D01*
X99383909Y-113920556D01*
X99400885Y-113940086D01*
X99415781Y-113956752D01*
X99428093Y-113969956D01*
X99437314Y-113979100D01*
X99442938Y-113983586D01*
X99445628Y-113985398D01*
X99453125Y-113991601D01*
X99463011Y-114000610D01*
X99473869Y-114011160D01*
X99489589Y-114026486D01*
X99525411Y-114058651D01*
X99562977Y-114089000D01*
X99600985Y-114116564D01*
X99638133Y-114140372D01*
X99673116Y-114159455D01*
X99692420Y-114168630D01*
X99717281Y-114179510D01*
X99742838Y-114189529D01*
X99770074Y-114199004D01*
X99799969Y-114208252D01*
X99833506Y-114217591D01*
X99871665Y-114227337D01*
X99915427Y-114237809D01*
X99937479Y-114242998D01*
X99972794Y-114251589D01*
X100003783Y-114259624D01*
X100031874Y-114267556D01*
X100058491Y-114275839D01*
X100085062Y-114284927D01*
X100113012Y-114295273D01*
X100143770Y-114307330D01*
X100178760Y-114321553D01*
X100187481Y-114325133D01*
X100225917Y-114340699D01*
X100259448Y-114353834D01*
X100289028Y-114364838D01*
X100315607Y-114374011D01*
X100340137Y-114381653D01*
X100363568Y-114388064D01*
X100386853Y-114393545D01*
X100410942Y-114398394D01*
X100436787Y-114402912D01*
X100438691Y-114403221D01*
X100459703Y-114406219D01*
X100486086Y-114409404D01*
X100516678Y-114412669D01*
X100550317Y-114415907D01*
X100585840Y-114419011D01*
X100622086Y-114421873D01*
X100657891Y-114424387D01*
X100692093Y-114426445D01*
X100710801Y-114427347D01*
X100742961Y-114428455D01*
X100776401Y-114429130D01*
X100809987Y-114429381D01*
X100842585Y-114429217D01*
X100873062Y-114428646D01*
X100900284Y-114427678D01*
X100923117Y-114426319D01*
X100940427Y-114424579D01*
X100972053Y-114419866D01*
X101006107Y-114413588D01*
X101038551Y-114406060D01*
X101070858Y-114396855D01*
X101104498Y-114385551D01*
X101140943Y-114371721D01*
X101181667Y-114354941D01*
X101187316Y-114352552D01*
X101211882Y-114342284D01*
X101240044Y-114330670D01*
X101269735Y-114318553D01*
X101298885Y-114306780D01*
X101325427Y-114296195D01*
X101351182Y-114285698D01*
X101380969Y-114272938D01*
X101411780Y-114259189D01*
X101442585Y-114244944D01*
X101472352Y-114230697D01*
X101500051Y-114216943D01*
X101524651Y-114204175D01*
X101545120Y-114192888D01*
X101560427Y-114183576D01*
X101560889Y-114183275D01*
X101572115Y-114176819D01*
X101587519Y-114169060D01*
X101605131Y-114160949D01*
X101622981Y-114153432D01*
X101667572Y-114134675D01*
X101717349Y-114110767D01*
X101762255Y-114085384D01*
X101803278Y-114057853D01*
X101837536Y-114030580D01*
X102190644Y-114030580D01*
X102191442Y-114034397D01*
X102191746Y-114034524D01*
X102196899Y-114035797D01*
X102207447Y-114038030D01*
X102222425Y-114041041D01*
X102240867Y-114044646D01*
X102261807Y-114048664D01*
X102284280Y-114052912D01*
X102307320Y-114057206D01*
X102329962Y-114061364D01*
X102351240Y-114065202D01*
X102370187Y-114068540D01*
X102385840Y-114071192D01*
X102394303Y-114072564D01*
X102407205Y-114074572D01*
X102416771Y-114075953D01*
X102421381Y-114076467D01*
X102421748Y-114076269D01*
X102421681Y-114072098D01*
X102419498Y-114063618D01*
X102415552Y-114052300D01*
X102396853Y-113997263D01*
X102383128Y-113941641D01*
X102374202Y-113884161D01*
X102369737Y-113823134D01*
X102369649Y-113820626D01*
X102369662Y-113819800D01*
X102424320Y-113819800D01*
X102424541Y-113835385D01*
X102427801Y-113884862D01*
X102434780Y-113932078D01*
X102445270Y-113976377D01*
X102459058Y-114017103D01*
X102475933Y-114053599D01*
X102495684Y-114085208D01*
X102518100Y-114111275D01*
X102524692Y-114117088D01*
X102542641Y-114129553D01*
X102564444Y-114141414D01*
X102588221Y-114151708D01*
X102612093Y-114159473D01*
X102625024Y-114162349D01*
X102649777Y-114165874D01*
X102676801Y-114167825D01*
X102703454Y-114168044D01*
X102727093Y-114166372D01*
X102751183Y-114162210D01*
X102789507Y-114151513D01*
X102827871Y-114136289D01*
X102864364Y-114117339D01*
X102897069Y-114095460D01*
X102903791Y-114090019D01*
X102921585Y-114073401D01*
X102940380Y-114053259D01*
X102958727Y-114031293D01*
X102975173Y-114009202D01*
X102988266Y-113988686D01*
X103005066Y-113956450D01*
X103025198Y-113908296D01*
X103042152Y-113855145D01*
X103055974Y-113796801D01*
X103066708Y-113733068D01*
X103074398Y-113663750D01*
X103079088Y-113588652D01*
X103079107Y-113588197D01*
X103080452Y-113543119D01*
X103080496Y-113504062D01*
X103079168Y-113470504D01*
X103076398Y-113441918D01*
X103072116Y-113417780D01*
X103066253Y-113397566D01*
X103058738Y-113380751D01*
X103049501Y-113366809D01*
X103040337Y-113354023D01*
X103027909Y-113332580D01*
X103017531Y-113309951D01*
X103010626Y-113288989D01*
X103008390Y-113277542D01*
X103006007Y-113255065D01*
X103005224Y-113228989D01*
X103005174Y-113220562D01*
X103003260Y-113185034D01*
X102998718Y-113152903D01*
X102991732Y-113124778D01*
X102982483Y-113101267D01*
X102971153Y-113082980D01*
X102957923Y-113070525D01*
X102956931Y-113069873D01*
X102950419Y-113066003D01*
X102944079Y-113063544D01*
X102936200Y-113062179D01*
X102925074Y-113061592D01*
X102908992Y-113061467D01*
X102887828Y-113062093D01*
X102868870Y-113064581D01*
X102853733Y-113069414D01*
X102840994Y-113077065D01*
X102829232Y-113088008D01*
X102821932Y-113096793D01*
X102808027Y-113119374D01*
X102795999Y-113147704D01*
X102785791Y-113181961D01*
X102777345Y-113222323D01*
X102770605Y-113268967D01*
X102768531Y-113286467D01*
X102791423Y-113286467D01*
X102795398Y-113286502D01*
X102815311Y-113287723D01*
X102833295Y-113290460D01*
X102847780Y-113294408D01*
X102857196Y-113299260D01*
X102858947Y-113300739D01*
X102870128Y-113313704D01*
X102875046Y-113327300D01*
X102873605Y-113340907D01*
X102865708Y-113353906D01*
X102855989Y-113364783D01*
X102794875Y-113364984D01*
X102792231Y-113364994D01*
X102769883Y-113365190D01*
X102752666Y-113365658D01*
X102739189Y-113366521D01*
X102728058Y-113367903D01*
X102717884Y-113369925D01*
X102707274Y-113372710D01*
X102685902Y-113379628D01*
X102644241Y-113398199D01*
X102604871Y-113422589D01*
X102578560Y-113444007D01*
X102568309Y-113452352D01*
X102535071Y-113487038D01*
X102505674Y-113526198D01*
X102480636Y-113569385D01*
X102470440Y-113590950D01*
X102450366Y-113644200D01*
X102435898Y-113700490D01*
X102427172Y-113759221D01*
X102424320Y-113819800D01*
X102369662Y-113819800D01*
X102370628Y-113758320D01*
X102377599Y-113697070D01*
X102390394Y-113637512D01*
X102408845Y-113580282D01*
X102432782Y-113526015D01*
X102462036Y-113475346D01*
X102465970Y-113469154D01*
X102472517Y-113457836D01*
X102476826Y-113448946D01*
X102478116Y-113444007D01*
X102476050Y-113440684D01*
X102468096Y-113434586D01*
X102454885Y-113427289D01*
X102437101Y-113419159D01*
X102415427Y-113410559D01*
X102406186Y-113407109D01*
X102392349Y-113402159D01*
X102383113Y-113399789D01*
X102377355Y-113400266D01*
X102373952Y-113403860D01*
X102371779Y-113410837D01*
X102369712Y-113421467D01*
X102366605Y-113437475D01*
X102349415Y-113517823D01*
X102328804Y-113602435D01*
X102305047Y-113690279D01*
X102278422Y-113780323D01*
X102249203Y-113871535D01*
X102245829Y-113881485D01*
X102240082Y-113897949D01*
X102233342Y-113916869D01*
X102226011Y-113937153D01*
X102218493Y-113957708D01*
X102211189Y-113977443D01*
X102204503Y-113995263D01*
X102198836Y-114010078D01*
X102194592Y-114020794D01*
X102192173Y-114026319D01*
X102190644Y-114030580D01*
X101837536Y-114030580D01*
X101841406Y-114027499D01*
X101877629Y-113993647D01*
X101912935Y-113955623D01*
X101918645Y-113948912D01*
X101933152Y-113930593D01*
X101947758Y-113910577D01*
X101961734Y-113890000D01*
X101974352Y-113869997D01*
X101984885Y-113851706D01*
X101992603Y-113836261D01*
X101996780Y-113824800D01*
X101999508Y-113816785D01*
X102004372Y-113805384D01*
X102010320Y-113793065D01*
X102013324Y-113786718D01*
X102020052Y-113770030D01*
X102027843Y-113748151D01*
X102036457Y-113721948D01*
X102045655Y-113692290D01*
X102055196Y-113660045D01*
X102064843Y-113626081D01*
X102074354Y-113591267D01*
X102083490Y-113556470D01*
X102092012Y-113522558D01*
X102099681Y-113490401D01*
X102106255Y-113460865D01*
X102111497Y-113434820D01*
X102115166Y-113413134D01*
X102121054Y-113372331D01*
X102127052Y-113329383D01*
X102132077Y-113291336D01*
X102136212Y-113257285D01*
X102139535Y-113226326D01*
X102142127Y-113197553D01*
X102144069Y-113170061D01*
X102145440Y-113142945D01*
X102146320Y-113115299D01*
X102146791Y-113086220D01*
X102146932Y-113054800D01*
X102146750Y-113016647D01*
X102146083Y-112981593D01*
X102144813Y-112950656D01*
X102142826Y-112922532D01*
X102140005Y-112895915D01*
X102136234Y-112869502D01*
X102131398Y-112841988D01*
X102125381Y-112812068D01*
X102124815Y-112809401D01*
X102105098Y-112732410D01*
X102079031Y-112655825D01*
X102046916Y-112580293D01*
X102009055Y-112506458D01*
X101965749Y-112434968D01*
X101917300Y-112366467D01*
X101915023Y-112363493D01*
X101873005Y-112312502D01*
X101825577Y-112261488D01*
X101773838Y-112211466D01*
X101718888Y-112163449D01*
X101661829Y-112118451D01*
X101603760Y-112077488D01*
X101543082Y-112039303D01*
X101463932Y-111995287D01*
X101381223Y-111955563D01*
X101294660Y-111920030D01*
X101203951Y-111888587D01*
X101108800Y-111861135D01*
X101008914Y-111837574D01*
X100903999Y-111817803D01*
X100793760Y-111801723D01*
X100786776Y-111800857D01*
X100717028Y-111793754D01*
X100644345Y-111788969D01*
X100570257Y-111786506D01*
X100496292Y-111786370D01*
X100423979Y-111788568D01*
X100354848Y-111793103D01*
X100290427Y-111799982D01*
X100258456Y-111804439D01*
X100159881Y-111821804D01*
X100063406Y-111844472D01*
X99968293Y-111872678D01*
X99873806Y-111906656D01*
X99779208Y-111946641D01*
X99683760Y-111992867D01*
X99672517Y-111998672D01*
X99640902Y-112015335D01*
X99611928Y-112031230D01*
X99584468Y-112047055D01*
X99557395Y-112063505D01*
X99529581Y-112081278D01*
X99499900Y-112101072D01*
X99467224Y-112123582D01*
X99430427Y-112149505D01*
X99410624Y-112163829D01*
X99384038Y-112184156D01*
X99359670Y-112204398D01*
X99336713Y-112225384D01*
X99314359Y-112247942D01*
X99291800Y-112272900D01*
X99268228Y-112301085D01*
X99242835Y-112333327D01*
X99214812Y-112370453D01*
X99210804Y-112375965D01*
X99192335Y-112404102D01*
X99173125Y-112437455D01*
X99153684Y-112474954D01*
X99134522Y-112515530D01*
X99116149Y-112558115D01*
X99099074Y-112601640D01*
X99083808Y-112645036D01*
X99075112Y-112672386D01*
X99061415Y-112720914D01*
X99049618Y-112770863D01*
X99039328Y-112823969D01*
X99030151Y-112881967D01*
X99029782Y-112884666D01*
X99027846Y-112903510D01*
X99026176Y-112927513D01*
X99024797Y-112955399D01*
X99023731Y-112985892D01*
X99023002Y-113017714D01*
X99022633Y-113049590D01*
X97140701Y-113049590D01*
X97140001Y-113042856D01*
X97133192Y-112951832D01*
X97128451Y-112855474D01*
X97127560Y-112827869D01*
X97126952Y-112715781D01*
X97131028Y-112602777D01*
X97132500Y-112583478D01*
X97232771Y-112583478D01*
X97233760Y-112608134D01*
X97239520Y-112583134D01*
X97241243Y-112575165D01*
X97244314Y-112559709D01*
X97247910Y-112540591D01*
X97251714Y-112519503D01*
X97255409Y-112498134D01*
X97269140Y-112424712D01*
X97295709Y-112311467D01*
X97301615Y-112289195D01*
X97313757Y-112243831D01*
X97324364Y-112204851D01*
X97333453Y-112172191D01*
X97341043Y-112145784D01*
X97347152Y-112125565D01*
X97351799Y-112111467D01*
X97352512Y-112109456D01*
X97357879Y-112094291D01*
X97363087Y-112079539D01*
X97367101Y-112068134D01*
X97373290Y-112050636D01*
X97385823Y-112015991D01*
X97398619Y-111981552D01*
X97411098Y-111948851D01*
X97422677Y-111919423D01*
X97432776Y-111894800D01*
X97448199Y-111859593D01*
X97472262Y-111808437D01*
X97499118Y-111754929D01*
X97527916Y-111700664D01*
X97557803Y-111647235D01*
X97587929Y-111596237D01*
X97617441Y-111549262D01*
X97625436Y-111537147D01*
X97644577Y-111509177D01*
X97665798Y-111479339D01*
X97688382Y-111448564D01*
X97711613Y-111417781D01*
X97734772Y-111387921D01*
X97757143Y-111359915D01*
X97778010Y-111334693D01*
X97796655Y-111313186D01*
X97812361Y-111296322D01*
X97823998Y-111284310D01*
X97838711Y-111268828D01*
X97854163Y-111252335D01*
X97868453Y-111236846D01*
X97885317Y-111219258D01*
X97885718Y-111218871D01*
X98926720Y-111218871D01*
X98929553Y-111218442D01*
X98936905Y-111215858D01*
X98946983Y-111211657D01*
X98947299Y-111211518D01*
X98963187Y-111204949D01*
X98980583Y-111198683D01*
X99000213Y-111192529D01*
X99022803Y-111186299D01*
X99049078Y-111179803D01*
X99079764Y-111172852D01*
X99115587Y-111165257D01*
X99157272Y-111156829D01*
X99165225Y-111155257D01*
X99195332Y-111149462D01*
X99222823Y-111144508D01*
X99248626Y-111140306D01*
X99273671Y-111136764D01*
X99298885Y-111133792D01*
X99325196Y-111131300D01*
X99353532Y-111129197D01*
X99384822Y-111127393D01*
X99419995Y-111125796D01*
X99459977Y-111124318D01*
X99505697Y-111122867D01*
X99554752Y-111121617D01*
X99602662Y-111120952D01*
X99649000Y-111120964D01*
X99696366Y-111121655D01*
X99747364Y-111123027D01*
X99750969Y-111123143D01*
X99805784Y-111124928D01*
X99854030Y-111126569D01*
X99895797Y-111128069D01*
X99931177Y-111129433D01*
X99960260Y-111130663D01*
X99983135Y-111131764D01*
X99999895Y-111132740D01*
X100010628Y-111133594D01*
X100015427Y-111134330D01*
X100018195Y-111134922D01*
X100027019Y-111136332D01*
X100040786Y-111138314D01*
X100058532Y-111140735D01*
X100079290Y-111143461D01*
X100102093Y-111146358D01*
X100117131Y-111148244D01*
X100149289Y-111152350D01*
X100176522Y-111155975D01*
X100200031Y-111159307D01*
X100221017Y-111162537D01*
X100240682Y-111165853D01*
X100260226Y-111169447D01*
X100280852Y-111173507D01*
X100303760Y-111178224D01*
X100305681Y-111178626D01*
X100395934Y-111198776D01*
X100479714Y-111220064D01*
X100557121Y-111242519D01*
X100628253Y-111266174D01*
X100693211Y-111291059D01*
X100752093Y-111317205D01*
X100753039Y-111317657D01*
X100770873Y-111326071D01*
X100788858Y-111334347D01*
X100804947Y-111341555D01*
X100817093Y-111346765D01*
X100840427Y-111356352D01*
X100828886Y-111346409D01*
X100822475Y-111341258D01*
X100816065Y-111337209D01*
X100812975Y-111336775D01*
X100814078Y-111340315D01*
X100814892Y-111342200D01*
X100812554Y-111341752D01*
X100811081Y-111340486D01*
X100810373Y-111336554D01*
X100810091Y-111334824D01*
X100805811Y-111330687D01*
X100798512Y-111325877D01*
X100790163Y-111321502D01*
X100782736Y-111318668D01*
X100778198Y-111318481D01*
X100776456Y-111319254D01*
X100776662Y-111317164D01*
X100775309Y-111314602D01*
X100769319Y-111309800D01*
X100759982Y-111303699D01*
X100748717Y-111297093D01*
X100736942Y-111290774D01*
X100726077Y-111285534D01*
X100717542Y-111282168D01*
X100712754Y-111281466D01*
X100710905Y-111281846D01*
X100710334Y-111279950D01*
X100710019Y-111278211D01*
X100705624Y-111273709D01*
X100697715Y-111268321D01*
X100690630Y-111264295D01*
X100682834Y-111260566D01*
X100679707Y-111260498D01*
X100680765Y-111263967D01*
X100681627Y-111265828D01*
X100680128Y-111265356D01*
X100679288Y-111264446D01*
X100677093Y-111258978D01*
X100677089Y-111258914D01*
X100674001Y-111255938D01*
X100665835Y-111250662D01*
X100653524Y-111243569D01*
X100638001Y-111235148D01*
X100620199Y-111225883D01*
X100601050Y-111216260D01*
X100581487Y-111206766D01*
X100562444Y-111197885D01*
X100544852Y-111190104D01*
X100522777Y-111180948D01*
X100460278Y-111157537D01*
X100391836Y-111135241D01*
X100317925Y-111114182D01*
X100239020Y-111094481D01*
X100155596Y-111076259D01*
X100068129Y-111059639D01*
X99977093Y-111044743D01*
X99966237Y-111043261D01*
X99942563Y-111040678D01*
X99913991Y-111038170D01*
X99881652Y-111035788D01*
X99846674Y-111033589D01*
X99810184Y-111031625D01*
X99773311Y-111029950D01*
X99737184Y-111028618D01*
X99702930Y-111027684D01*
X99671678Y-111027201D01*
X99644556Y-111027223D01*
X99622693Y-111027804D01*
X99537207Y-111033003D01*
X99449657Y-111041204D01*
X99367835Y-111052089D01*
X99291523Y-111065702D01*
X99220509Y-111082086D01*
X99154576Y-111101288D01*
X99093509Y-111123349D01*
X99037093Y-111148316D01*
X99018335Y-111157734D01*
X98999644Y-111167721D01*
X98984110Y-111176685D01*
X98972458Y-111184186D01*
X98965411Y-111189781D01*
X98963696Y-111193030D01*
X98963486Y-111195635D01*
X98959557Y-111200256D01*
X98957170Y-111202095D01*
X98955453Y-111202914D01*
X98958335Y-111198967D01*
X98960484Y-111195240D01*
X98959576Y-111193134D01*
X98959257Y-111193145D01*
X98954374Y-111195646D01*
X98951027Y-111200508D01*
X98951289Y-111204808D01*
X98951972Y-111205854D01*
X98949665Y-111205182D01*
X98945978Y-111205388D01*
X98939550Y-111208076D01*
X98932748Y-111212084D01*
X98927747Y-111216115D01*
X98926720Y-111218871D01*
X97885718Y-111218871D01*
X97909471Y-111195925D01*
X97937361Y-111170506D01*
X97967986Y-111143837D01*
X98000345Y-111116753D01*
X98033437Y-111090090D01*
X98066259Y-111064683D01*
X98097812Y-111041368D01*
X98127093Y-111020981D01*
X98136198Y-111014921D01*
X98175353Y-110990388D01*
X100925333Y-110990388D01*
X100929991Y-110991505D01*
X100940000Y-110992137D01*
X100955690Y-110992404D01*
X100977390Y-110992425D01*
X101005427Y-110992321D01*
X101006276Y-110992318D01*
X101038133Y-110992316D01*
X101064475Y-110992612D01*
X101086422Y-110993252D01*
X101105095Y-110994280D01*
X101121612Y-110995744D01*
X101137093Y-110997688D01*
X101170259Y-111003080D01*
X101242297Y-111018935D01*
X101315846Y-111040557D01*
X101390171Y-111067691D01*
X101464539Y-111100081D01*
X101538216Y-111137472D01*
X101540059Y-111138475D01*
X101560841Y-111149649D01*
X101583768Y-111161787D01*
X101606183Y-111173489D01*
X101625427Y-111183358D01*
X101662396Y-111203345D01*
X101710946Y-111232987D01*
X101761059Y-111267030D01*
X101811754Y-111304709D01*
X101862050Y-111345258D01*
X101874774Y-111356352D01*
X101910968Y-111387911D01*
X101957527Y-111431902D01*
X102000746Y-111476467D01*
X102039453Y-111519777D01*
X102086653Y-111576806D01*
X102130183Y-111634312D01*
X102169241Y-111691223D01*
X102203022Y-111746467D01*
X102203659Y-111747596D01*
X102208213Y-111755969D01*
X102214848Y-111768456D01*
X102222776Y-111783564D01*
X102231208Y-111799800D01*
X102240343Y-111817333D01*
X102247899Y-111831367D01*
X102253174Y-111840420D01*
X102256504Y-111845018D01*
X102258226Y-111845691D01*
X102258675Y-111842967D01*
X102258238Y-111840251D01*
X102255740Y-111832093D01*
X102251603Y-111820980D01*
X102246486Y-111808447D01*
X102241048Y-111796028D01*
X102235947Y-111785258D01*
X102231843Y-111777670D01*
X102229395Y-111774800D01*
X102228326Y-111774678D01*
X102223205Y-111771766D01*
X102222301Y-111770465D01*
X102224593Y-111771129D01*
X102226799Y-111772222D01*
X102228122Y-111771917D01*
X102227603Y-111769000D01*
X102224942Y-111762639D01*
X102219840Y-111752006D01*
X102211995Y-111736270D01*
X102207451Y-111727450D01*
X102200108Y-111714516D01*
X102194694Y-111706956D01*
X102191480Y-111705179D01*
X102189762Y-111705931D01*
X102190048Y-111703746D01*
X102190587Y-111701253D01*
X102189214Y-111694885D01*
X102185966Y-111687910D01*
X102182045Y-111682676D01*
X102178656Y-111681531D01*
X102177294Y-111681866D01*
X102177293Y-111678816D01*
X102177325Y-111676779D01*
X102175132Y-111670073D01*
X102170827Y-111661009D01*
X102165385Y-111651272D01*
X102159777Y-111642548D01*
X102154975Y-111636524D01*
X102151953Y-111634887D01*
X102150590Y-111635233D01*
X102146809Y-111632673D01*
X102145968Y-111630751D01*
X102148245Y-111631149D01*
X102148776Y-111631465D01*
X102151779Y-111631901D01*
X102150573Y-111627326D01*
X102145142Y-111617673D01*
X102143554Y-111615256D01*
X102138697Y-111609587D01*
X102135372Y-111608167D01*
X102133971Y-111608536D01*
X102130142Y-111606006D01*
X102129301Y-111604084D01*
X102131578Y-111604482D01*
X102132015Y-111604741D01*
X102135082Y-111605058D01*
X102134432Y-111601071D01*
X102130199Y-111593819D01*
X102125847Y-111589202D01*
X102122096Y-111588132D01*
X102120670Y-111588515D01*
X102116809Y-111586006D01*
X102115968Y-111584084D01*
X102118245Y-111584482D01*
X102118682Y-111584741D01*
X102121749Y-111585058D01*
X102121099Y-111581071D01*
X102116865Y-111573819D01*
X102112513Y-111569202D01*
X102108762Y-111568132D01*
X102107337Y-111568515D01*
X102103475Y-111566006D01*
X102102631Y-111563944D01*
X102105344Y-111564749D01*
X102107844Y-111565700D01*
X102108081Y-111562764D01*
X102107088Y-111560806D01*
X102102927Y-111558134D01*
X102101820Y-111558015D01*
X102096538Y-111555099D01*
X102095634Y-111553798D01*
X102097927Y-111554462D01*
X102099342Y-111555210D01*
X102101719Y-111555352D01*
X102100579Y-111551670D01*
X102095704Y-111543703D01*
X102086879Y-111530993D01*
X102084923Y-111528296D01*
X102077690Y-111519115D01*
X102071992Y-111513073D01*
X102068924Y-111511366D01*
X102066281Y-111511179D01*
X102061638Y-111507263D01*
X102059799Y-111504877D01*
X102058979Y-111503160D01*
X102062927Y-111506042D01*
X102066620Y-111508386D01*
X102068760Y-111508188D01*
X102067954Y-111506081D01*
X102063709Y-111499499D01*
X102056585Y-111489871D01*
X102047450Y-111478237D01*
X102037173Y-111465639D01*
X102026623Y-111453118D01*
X102016667Y-111441715D01*
X102008174Y-111432470D01*
X102002013Y-111426425D01*
X101999051Y-111424620D01*
X101997988Y-111424656D01*
X101993196Y-111421697D01*
X101986770Y-111415515D01*
X101977093Y-111404800D01*
X101987927Y-111414590D01*
X101991202Y-111417395D01*
X101996620Y-111421109D01*
X101998760Y-111421078D01*
X101998656Y-111420472D01*
X101995772Y-111415875D01*
X101990225Y-111409648D01*
X101983753Y-111403475D01*
X101978092Y-111399039D01*
X101974980Y-111398025D01*
X101973552Y-111397761D01*
X101968646Y-111394010D01*
X101961866Y-111387250D01*
X101950427Y-111374800D01*
X101962927Y-111386287D01*
X101967740Y-111390469D01*
X101973272Y-111394422D01*
X101975427Y-111394658D01*
X101974651Y-111393293D01*
X101969979Y-111387747D01*
X101961788Y-111378864D01*
X101950889Y-111367459D01*
X101938099Y-111354346D01*
X101924230Y-111340339D01*
X101910097Y-111326252D01*
X101896514Y-111312901D01*
X101884294Y-111301099D01*
X101874251Y-111291661D01*
X101867200Y-111285401D01*
X101863955Y-111283134D01*
X101863930Y-111284665D01*
X101867432Y-111289801D01*
X101873917Y-111297300D01*
X101887093Y-111311467D01*
X101872988Y-111298350D01*
X101866994Y-111292449D01*
X101861871Y-111286513D01*
X101860556Y-111283560D01*
X101860389Y-111282137D01*
X101857004Y-111277241D01*
X101851112Y-111270597D01*
X101844298Y-111263833D01*
X101838144Y-111258580D01*
X101834234Y-111256467D01*
X101834134Y-111256471D01*
X101833886Y-111258751D01*
X101837386Y-111263967D01*
X101837985Y-111264678D01*
X101841130Y-111268596D01*
X101840127Y-111268196D01*
X101834583Y-111263398D01*
X101833111Y-111262055D01*
X101828235Y-111256690D01*
X101827534Y-111254800D01*
X101828760Y-111254800D01*
X101830427Y-111256467D01*
X101832093Y-111254800D01*
X101830427Y-111253134D01*
X101828760Y-111254800D01*
X101827534Y-111254800D01*
X101827114Y-111253669D01*
X101826983Y-111251261D01*
X101823664Y-111246452D01*
X101818795Y-111241853D01*
X101814502Y-111239800D01*
X101813489Y-111241143D01*
X101815795Y-111245634D01*
X101817622Y-111248107D01*
X101817468Y-111248823D01*
X101812849Y-111245098D01*
X101808067Y-111240116D01*
X101807401Y-111238134D01*
X101808760Y-111238134D01*
X101810427Y-111239800D01*
X101812093Y-111238134D01*
X101810427Y-111236467D01*
X101808760Y-111238134D01*
X101807401Y-111238134D01*
X101807044Y-111237072D01*
X101807315Y-111236674D01*
X101806303Y-111232848D01*
X101802477Y-111228523D01*
X101798155Y-111226467D01*
X101796969Y-111226977D01*
X101797537Y-111230634D01*
X101798049Y-111232588D01*
X101794319Y-111230158D01*
X101791157Y-111226906D01*
X101790619Y-111224800D01*
X101792093Y-111224800D01*
X101793760Y-111226467D01*
X101795427Y-111224800D01*
X101793760Y-111223134D01*
X101792093Y-111224800D01*
X101790619Y-111224800D01*
X101790354Y-111223762D01*
X101790283Y-111221346D01*
X101787029Y-111216500D01*
X101782177Y-111211867D01*
X101777835Y-111209800D01*
X101776837Y-111211151D01*
X101779185Y-111215634D01*
X101781102Y-111218121D01*
X101781854Y-111219764D01*
X101777846Y-111216825D01*
X101774524Y-111213537D01*
X101773651Y-111210465D01*
X101773944Y-111210038D01*
X101772957Y-111206161D01*
X101769079Y-111201843D01*
X101764611Y-111199800D01*
X101763504Y-111201133D01*
X101765691Y-111205634D01*
X101767164Y-111207604D01*
X101768377Y-111209696D01*
X101765266Y-111207134D01*
X101762680Y-111204225D01*
X101760427Y-111198996D01*
X101759906Y-111197968D01*
X101755395Y-111193419D01*
X101747406Y-111186644D01*
X101737342Y-111178704D01*
X101726606Y-111170662D01*
X101716601Y-111163582D01*
X101708730Y-111158527D01*
X101704397Y-111156558D01*
X101703414Y-111157005D01*
X101704098Y-111160634D01*
X101704960Y-111162495D01*
X101703461Y-111162022D01*
X101702622Y-111161113D01*
X101700427Y-111155634D01*
X101699990Y-111153961D01*
X101695796Y-111150479D01*
X101693249Y-111150179D01*
X101693811Y-111153216D01*
X101694866Y-111155558D01*
X101692554Y-111155085D01*
X101691080Y-111153823D01*
X101690353Y-111149919D01*
X101690442Y-111149637D01*
X101687887Y-111146129D01*
X101680577Y-111140242D01*
X101669528Y-111132572D01*
X101655753Y-111123713D01*
X101640270Y-111114261D01*
X101624092Y-111104810D01*
X101608235Y-111095956D01*
X101593715Y-111088293D01*
X101581546Y-111082416D01*
X101572745Y-111078921D01*
X101568325Y-111078402D01*
X101566376Y-111079257D01*
X101566775Y-111076982D01*
X101565117Y-111073856D01*
X101557957Y-111068818D01*
X101546060Y-111062226D01*
X101530204Y-111054416D01*
X101511169Y-111045722D01*
X101489731Y-111036480D01*
X101466670Y-111027026D01*
X101442764Y-111017695D01*
X101418792Y-111008823D01*
X101395531Y-111000745D01*
X101373760Y-110993797D01*
X101371842Y-110993219D01*
X101318960Y-110978634D01*
X101269328Y-110967827D01*
X101220995Y-110960498D01*
X101172012Y-110956350D01*
X101120427Y-110955084D01*
X101114368Y-110955103D01*
X101082726Y-110955643D01*
X101055767Y-110957080D01*
X101031825Y-110959638D01*
X101009233Y-110963537D01*
X100986325Y-110968998D01*
X100961436Y-110976245D01*
X100953651Y-110978664D01*
X100940187Y-110982923D01*
X100930760Y-110986217D01*
X100925699Y-110988666D01*
X100925333Y-110990388D01*
X98175353Y-110990388D01*
X98195450Y-110977796D01*
X98253645Y-110945627D01*
X98312289Y-110917750D01*
X98372884Y-110893498D01*
X98436936Y-110872206D01*
X98505949Y-110853206D01*
X98519740Y-110849844D01*
X98554044Y-110842503D01*
X98587464Y-110837028D01*
X98621489Y-110833280D01*
X98657610Y-110831119D01*
X98697314Y-110830404D01*
X98742093Y-110830995D01*
X98757629Y-110831413D01*
X98780032Y-110832117D01*
X98800095Y-110832867D01*
X98816735Y-110833616D01*
X98828873Y-110834320D01*
X98835427Y-110834933D01*
X98841748Y-110835798D01*
X98843984Y-110835339D01*
X98841014Y-110833009D01*
X98832688Y-110829331D01*
X98818387Y-110825094D01*
X98799529Y-110820710D01*
X98777188Y-110816371D01*
X98752442Y-110812270D01*
X98726367Y-110808597D01*
X98700038Y-110805546D01*
X98674533Y-110803308D01*
X98624937Y-110801829D01*
X98564831Y-110804885D01*
X98502263Y-110812882D01*
X98438130Y-110825668D01*
X98373330Y-110843092D01*
X98308760Y-110865002D01*
X98300288Y-110868227D01*
X98275140Y-110878236D01*
X98249757Y-110888923D01*
X98224852Y-110899937D01*
X98201138Y-110910923D01*
X98179329Y-110921530D01*
X98160136Y-110931404D01*
X98144273Y-110940193D01*
X98132453Y-110947544D01*
X98125389Y-110953104D01*
X98123794Y-110956521D01*
X98124162Y-110957922D01*
X98121633Y-110961752D01*
X98119711Y-110962593D01*
X98120109Y-110960315D01*
X98121164Y-110958194D01*
X98119952Y-110956734D01*
X98114067Y-110958964D01*
X98103139Y-110964988D01*
X98097929Y-110968320D01*
X98091964Y-110973255D01*
X98090401Y-110976424D01*
X98090794Y-110977868D01*
X98088300Y-110981752D01*
X98086378Y-110982593D01*
X98086775Y-110980315D01*
X98087708Y-110978630D01*
X98087618Y-110976856D01*
X98084028Y-110977988D01*
X98076268Y-110982310D01*
X98063670Y-110990104D01*
X98061315Y-110991615D01*
X98051832Y-110998258D01*
X98045578Y-111003579D01*
X98043806Y-111006541D01*
X98044169Y-111007933D01*
X98041633Y-111011752D01*
X98039711Y-111012593D01*
X98040109Y-111010315D01*
X98040426Y-111009784D01*
X98040966Y-111006748D01*
X98036844Y-111007979D01*
X98028402Y-111013388D01*
X98027016Y-111014422D01*
X98021728Y-111019647D01*
X98020561Y-111023350D01*
X98020926Y-111024610D01*
X98018100Y-111024741D01*
X98016482Y-111024730D01*
X98010308Y-111027167D01*
X98001803Y-111032037D01*
X97992600Y-111038207D01*
X97984331Y-111044543D01*
X97978629Y-111049913D01*
X97977124Y-111053183D01*
X97977494Y-111054586D01*
X97974966Y-111058418D01*
X97973044Y-111059259D01*
X97973442Y-111056982D01*
X97974174Y-111055260D01*
X97972698Y-111053134D01*
X97970859Y-111053713D01*
X97966271Y-111057362D01*
X97962393Y-111062182D01*
X97961538Y-111065590D01*
X97961722Y-111065963D01*
X97960170Y-111069245D01*
X97959258Y-111069713D01*
X97960356Y-111066868D01*
X97961361Y-111064052D01*
X97958391Y-111063951D01*
X97956414Y-111065044D01*
X97954461Y-111068987D01*
X97952899Y-111073029D01*
X97947795Y-111078570D01*
X97940427Y-111084800D01*
X97946777Y-111077300D01*
X97946944Y-111077101D01*
X97950544Y-111071938D01*
X97950573Y-111069800D01*
X97950469Y-111069804D01*
X97946185Y-111071969D01*
X97939265Y-111077131D01*
X97931295Y-111083884D01*
X97923865Y-111090819D01*
X97918562Y-111096528D01*
X97916972Y-111099603D01*
X97916991Y-111100642D01*
X97914002Y-111105385D01*
X97907808Y-111111790D01*
X97897093Y-111121467D01*
X97907093Y-111110195D01*
X97907265Y-111110002D01*
X97912808Y-111103152D01*
X97913804Y-111100493D01*
X97910715Y-111101828D01*
X97904002Y-111106963D01*
X97894124Y-111115702D01*
X97893467Y-111116312D01*
X97884799Y-111124756D01*
X97879714Y-111130490D01*
X97878661Y-111132924D01*
X97882093Y-111131467D01*
X97883529Y-111130625D01*
X97885110Y-111130234D01*
X97883398Y-111132703D01*
X97881432Y-111134800D01*
X97878002Y-111138458D01*
X97868532Y-111147927D01*
X97854596Y-111161536D01*
X97823765Y-111191467D01*
X97850351Y-111163967D01*
X97860147Y-111153551D01*
X97867944Y-111144677D01*
X97872580Y-111138674D01*
X97873283Y-111136467D01*
X97870201Y-111138587D01*
X97863189Y-111144847D01*
X97853011Y-111154516D01*
X97840387Y-111166860D01*
X97826036Y-111181145D01*
X97810677Y-111196635D01*
X97795031Y-111212597D01*
X97779818Y-111228296D01*
X97765756Y-111242998D01*
X97753567Y-111255967D01*
X97743969Y-111266471D01*
X97737682Y-111273773D01*
X97735427Y-111277140D01*
X97735949Y-111277864D01*
X97739832Y-111276299D01*
X97746260Y-111271257D01*
X97757093Y-111261467D01*
X97747337Y-111272265D01*
X97744526Y-111275233D01*
X97738906Y-111280195D01*
X97735901Y-111281385D01*
X97733709Y-111281760D01*
X97728556Y-111285441D01*
X97722526Y-111291048D01*
X97717518Y-111296778D01*
X97715427Y-111300832D01*
X97716775Y-111301763D01*
X97721260Y-111299375D01*
X97723663Y-111297522D01*
X97725405Y-111296680D01*
X97722549Y-111300597D01*
X97719196Y-111303802D01*
X97715328Y-111304739D01*
X97715200Y-111304685D01*
X97711612Y-111306567D01*
X97705240Y-111312383D01*
X97697372Y-111320968D01*
X97692909Y-111326295D01*
X97685804Y-111335485D01*
X97682454Y-111341022D01*
X97683086Y-111342466D01*
X97687927Y-111339375D01*
X97690414Y-111337459D01*
X97692057Y-111336706D01*
X97689118Y-111340714D01*
X97685822Y-111344029D01*
X97682722Y-111344873D01*
X97680306Y-111344944D01*
X97675460Y-111348198D01*
X97670827Y-111353050D01*
X97668760Y-111357392D01*
X97670111Y-111358390D01*
X97674593Y-111356042D01*
X97677081Y-111354125D01*
X97678724Y-111353373D01*
X97675785Y-111357381D01*
X97672488Y-111360696D01*
X97669389Y-111361540D01*
X97666973Y-111361611D01*
X97662126Y-111364865D01*
X97657494Y-111369717D01*
X97655427Y-111374058D01*
X97656778Y-111375057D01*
X97661260Y-111372708D01*
X97663663Y-111370856D01*
X97665405Y-111370013D01*
X97662549Y-111373930D01*
X97659194Y-111377134D01*
X97655317Y-111378066D01*
X97653797Y-111378243D01*
X97648815Y-111381950D01*
X97642362Y-111388862D01*
X97637181Y-111395532D01*
X97632926Y-111402342D01*
X97632412Y-111405571D01*
X97635942Y-111404482D01*
X97637887Y-111403665D01*
X97637275Y-111406174D01*
X97635937Y-111407802D01*
X97632864Y-111408348D01*
X97630434Y-111408331D01*
X97625531Y-111411485D01*
X97620848Y-111416310D01*
X97618760Y-111420725D01*
X97620111Y-111421723D01*
X97624593Y-111419375D01*
X97626996Y-111417522D01*
X97628738Y-111416680D01*
X97625882Y-111420597D01*
X97622531Y-111423803D01*
X97618668Y-111424743D01*
X97618421Y-111424673D01*
X97614738Y-111426959D01*
X97608441Y-111433222D01*
X97600738Y-111442280D01*
X97596773Y-111447350D01*
X97589385Y-111457569D01*
X97585897Y-111463791D01*
X97586470Y-111465673D01*
X97591260Y-111462869D01*
X97593231Y-111461396D01*
X97595323Y-111460184D01*
X97592760Y-111463294D01*
X97589859Y-111465884D01*
X97584696Y-111468134D01*
X97584505Y-111468156D01*
X97580542Y-111471190D01*
X97573694Y-111478619D01*
X97564769Y-111489430D01*
X97554577Y-111502610D01*
X97543928Y-111517148D01*
X97533629Y-111532032D01*
X97527078Y-111542128D01*
X97522996Y-111549485D01*
X97522674Y-111552350D01*
X97525942Y-111551149D01*
X97527827Y-111550335D01*
X97527378Y-111552673D01*
X97526097Y-111554139D01*
X97522030Y-111554761D01*
X97519381Y-111555068D01*
X97515846Y-111559213D01*
X97513518Y-111565076D01*
X97513854Y-111569952D01*
X97514352Y-111571302D01*
X97511925Y-111572383D01*
X97509970Y-111572462D01*
X97506244Y-111576097D01*
X97505854Y-111578672D01*
X97508843Y-111578082D01*
X97511184Y-111577027D01*
X97510712Y-111579340D01*
X97509432Y-111580807D01*
X97505384Y-111581441D01*
X97503716Y-111581799D01*
X97499302Y-111586248D01*
X97493948Y-111594179D01*
X97490411Y-111600378D01*
X97486325Y-111608701D01*
X97485980Y-111612168D01*
X97489275Y-111611149D01*
X97491160Y-111610335D01*
X97490712Y-111612673D01*
X97489425Y-111614137D01*
X97485315Y-111614731D01*
X97482829Y-111615753D01*
X97478685Y-111621161D01*
X97474114Y-111629264D01*
X97470082Y-111638133D01*
X97467553Y-111645835D01*
X97467489Y-111650440D01*
X97468236Y-111652221D01*
X97465829Y-111651715D01*
X97463575Y-111652736D01*
X97458843Y-111659081D01*
X97452261Y-111670417D01*
X97444136Y-111686064D01*
X97434775Y-111705341D01*
X97424486Y-111727569D01*
X97413577Y-111752068D01*
X97402354Y-111778157D01*
X97391125Y-111805156D01*
X97380198Y-111832386D01*
X97369879Y-111859166D01*
X97360476Y-111884816D01*
X97358373Y-111890769D01*
X97333802Y-111966541D01*
X97311453Y-112047168D01*
X97291636Y-112131230D01*
X97274662Y-112217303D01*
X97260839Y-112303967D01*
X97250477Y-112389800D01*
X97249666Y-112397796D01*
X97247147Y-112421907D01*
X97244255Y-112448831D01*
X97241285Y-112475825D01*
X97238536Y-112500144D01*
X97237028Y-112514117D01*
X97235082Y-112535325D01*
X97233644Y-112555107D01*
X97232834Y-112571734D01*
X97232771Y-112583478D01*
X97132500Y-112583478D01*
X97139663Y-112489586D01*
X97152731Y-112376934D01*
X97170109Y-112265551D01*
X97191671Y-112156163D01*
X97217293Y-112049500D01*
X97246849Y-111946288D01*
X97280217Y-111847257D01*
X97317270Y-111753134D01*
X97323837Y-111737935D01*
X97353118Y-111675025D01*
X97386511Y-111609969D01*
X97423114Y-111544343D01*
X97462020Y-111479722D01*
X97502325Y-111417683D01*
X97543125Y-111359800D01*
X97565892Y-111329715D01*
X97601649Y-111285065D01*
X97640101Y-111239719D01*
X97680378Y-111194596D01*
X97721613Y-111150616D01*
X97737204Y-111134800D01*
X97875427Y-111134800D01*
X97877093Y-111136467D01*
X97878760Y-111134800D01*
X97877093Y-111133134D01*
X97875427Y-111134800D01*
X97737204Y-111134800D01*
X97762935Y-111108699D01*
X97803477Y-111069765D01*
X97842369Y-111034733D01*
X97878743Y-111004523D01*
X97926912Y-110967930D01*
X98002655Y-110915989D01*
X98079450Y-110869990D01*
X98157041Y-110830049D01*
X98235169Y-110796286D01*
X98313578Y-110768818D01*
X98392012Y-110747763D01*
X98470212Y-110733239D01*
X98479677Y-110731902D01*
X98535573Y-110725179D01*
X98587156Y-110721236D01*
X98635929Y-110720074D01*
X98683396Y-110721693D01*
X98731060Y-110726093D01*
X98780427Y-110733275D01*
X98793117Y-110735530D01*
X98827774Y-110742738D01*
X98861992Y-110751274D01*
X98894529Y-110760759D01*
X98924144Y-110770812D01*
X98949598Y-110781056D01*
X98969650Y-110791111D01*
X98986323Y-110798781D01*
X99002444Y-110802063D01*
X99015923Y-110800245D01*
X99020932Y-110797416D01*
X99030119Y-110790903D01*
X99041677Y-110781888D01*
X99054222Y-110771412D01*
X99081236Y-110748868D01*
X99126908Y-110713599D01*
X99175427Y-110679267D01*
X99187361Y-110671285D01*
X99242498Y-110637053D01*
X99297346Y-110607617D01*
X99353235Y-110582421D01*
X99411493Y-110560909D01*
X99473447Y-110542528D01*
X99540427Y-110526721D01*
X99572563Y-110520208D01*
X99615036Y-110512201D01*
X99659491Y-110504396D01*
X99704517Y-110497014D01*
X99748702Y-110490277D01*
X99790634Y-110484408D01*
X99828902Y-110479628D01*
X99862093Y-110476158D01*
X99863195Y-110476058D01*
X99879381Y-110474510D01*
X99893257Y-110473052D01*
X99903380Y-110471845D01*
X99908306Y-110471047D01*
X99910599Y-110469145D01*
X99911632Y-110463274D01*
X99910879Y-110452259D01*
X99910057Y-110444941D01*
X99908549Y-110431433D01*
X99906607Y-110413993D01*
X99904393Y-110394075D01*
X99902070Y-110373134D01*
X99899462Y-110350241D01*
X99895581Y-110319259D01*
X99891775Y-110293608D01*
X99887834Y-110272483D01*
X99883548Y-110255075D01*
X99878709Y-110240578D01*
X99873105Y-110228183D01*
X99866527Y-110217084D01*
X99858766Y-110206475D01*
X99856605Y-110203655D01*
X99845366Y-110184652D01*
X99839235Y-110165394D01*
X99838452Y-110147046D01*
X99843256Y-110130775D01*
X99851296Y-110119081D01*
X99864477Y-110105574D01*
X99880369Y-110093029D01*
X99897093Y-110083110D01*
X99904224Y-110080083D01*
X99922462Y-110074378D01*
X99947011Y-110068600D01*
X99977643Y-110062794D01*
X100014129Y-110057006D01*
X100056238Y-110051282D01*
X100061769Y-110050595D01*
X100080659Y-110048570D01*
X100094899Y-110047744D01*
X100106010Y-110048072D01*
X100115515Y-110049508D01*
X100126988Y-110052401D01*
X100145963Y-110060238D01*
X100159889Y-110071387D01*
X100169624Y-110086659D01*
X100176022Y-110106867D01*
X100176774Y-110111561D01*
X100177918Y-110124710D01*
X100178860Y-110143963D01*
X100179588Y-110168965D01*
X100180090Y-110199362D01*
X100180355Y-110234800D01*
X100180481Y-110251649D01*
X100181019Y-110283702D01*
X100181913Y-110316742D01*
X100183114Y-110349810D01*
X100184572Y-110381951D01*
X100186235Y-110412208D01*
X100188056Y-110439624D01*
X100189983Y-110463244D01*
X100191966Y-110482110D01*
X100193957Y-110495266D01*
X100194388Y-110497161D01*
X100195912Y-110500555D01*
X100199047Y-110503066D01*
X100204800Y-110504966D01*
X100214180Y-110506523D01*
X100228194Y-110508009D01*
X100247850Y-110509691D01*
X100302675Y-110515456D01*
X100365457Y-110525529D01*
X100428198Y-110539558D01*
X100493199Y-110557997D01*
X100517423Y-110565729D01*
X100608741Y-110598782D01*
X100695711Y-110636717D01*
X100778682Y-110679726D01*
X100858004Y-110728002D01*
X100934024Y-110781736D01*
X100999978Y-110835339D01*
X101007093Y-110841122D01*
G37*
%TD*%
D11*
%TO.C,J1*%
X85600000Y-95150000D03*
X85600000Y-105100000D03*
D12*
X88800000Y-97000000D03*
X88800000Y-98250000D03*
X88800000Y-99500000D03*
X88800000Y-100750000D03*
X88800000Y-102000000D03*
X88800000Y-103250000D03*
%TD*%
D13*
%TO.C,TP2*%
X91630000Y-93280000D03*
X92113274Y-92113274D03*
X92113274Y-94446726D03*
X93280000Y-91630000D03*
D14*
X93280000Y-93280000D03*
D13*
X93280000Y-94930000D03*
X94446726Y-92113274D03*
X94446726Y-94446726D03*
X94930000Y-93280000D03*
%TD*%
%TO.C,TP4*%
X91625000Y-106725000D03*
X92108274Y-105558274D03*
X92108274Y-107891726D03*
X93275000Y-105075000D03*
D14*
X93275000Y-106725000D03*
D13*
X93275000Y-108375000D03*
X94441726Y-105558274D03*
X94441726Y-107891726D03*
X94925000Y-106725000D03*
%TD*%
%TO.C,TP1*%
X105075000Y-93275000D03*
X105558274Y-92108274D03*
X105558274Y-94441726D03*
X106725000Y-91625000D03*
D14*
X106725000Y-93275000D03*
D13*
X106725000Y-94925000D03*
X107891726Y-92108274D03*
X107891726Y-94441726D03*
X108375000Y-93275000D03*
%TD*%
D15*
%TO.C,TP6*%
X100000000Y-83300000D03*
%TD*%
D13*
%TO.C,TP3*%
X105066726Y-106716726D03*
X105550000Y-105550000D03*
X105550000Y-107883452D03*
X106716726Y-105066726D03*
D14*
X106716726Y-106716726D03*
D13*
X106716726Y-108366726D03*
X107883452Y-105550000D03*
X107883452Y-107883452D03*
X108366726Y-106716726D03*
%TD*%
D15*
%TO.C,TP7*%
X104000000Y-83300000D03*
%TD*%
%TO.C,TP5*%
X96000000Y-83300000D03*
%TD*%
D16*
%TO.C,C20*%
X94960000Y-90375000D03*
X94960000Y-88825000D03*
%TD*%
D17*
%TO.C,R41*%
X100207500Y-85020000D03*
X99392500Y-85020000D03*
%TD*%
D12*
%TO.C,J2*%
X111323885Y-97086500D03*
X111323885Y-98336500D03*
X111323885Y-99586500D03*
X111323885Y-100836500D03*
X111323885Y-102086500D03*
X111323885Y-103336500D03*
D11*
X114523885Y-95236500D03*
X114523885Y-105186500D03*
%TD*%
D18*
%TO.C,R49*%
X102130000Y-86290000D03*
D19*
X102130000Y-86540000D03*
X102130000Y-87640000D03*
D18*
X102130000Y-87890000D03*
%TD*%
D13*
%TO.C,TP8*%
X97600000Y-103300000D03*
%TD*%
D20*
%TO.C,R39*%
X102722500Y-101460000D03*
X103537500Y-101460000D03*
%TD*%
D17*
%TO.C,R45*%
X105197500Y-85010000D03*
X104382500Y-85010000D03*
%TD*%
D13*
%TO.C,TP10*%
X96600000Y-101400000D03*
%TD*%
D16*
%TO.C,C17*%
X105010000Y-90375000D03*
X105010000Y-88825000D03*
%TD*%
D17*
%TO.C,R43*%
X98437500Y-85030000D03*
X97622500Y-85030000D03*
%TD*%
D13*
%TO.C,TP15*%
X96600000Y-103300000D03*
%TD*%
D20*
%TO.C,R38*%
X98682500Y-97070000D03*
X99497500Y-97070000D03*
%TD*%
D13*
%TO.C,TP12*%
X103600000Y-100600000D03*
%TD*%
%TO.C,TP9*%
X96600000Y-102300000D03*
%TD*%
D21*
%TO.C,IC2*%
X100750000Y-101500000D03*
X100250000Y-101500000D03*
X99750000Y-101500000D03*
X99250000Y-101500000D03*
D22*
X98500000Y-100750000D03*
X98500000Y-100250000D03*
X98500000Y-99750000D03*
X98500000Y-99250000D03*
D21*
X99250000Y-98500000D03*
X99750000Y-98500000D03*
X100250000Y-98500000D03*
X100750000Y-98500000D03*
D22*
X101500000Y-99250000D03*
X101500000Y-99750000D03*
X101500000Y-100250000D03*
X101500000Y-100750000D03*
D23*
X100000000Y-100000000D03*
%TD*%
D18*
%TO.C,R50*%
X107180000Y-86260000D03*
D19*
X107180000Y-86510000D03*
X107180000Y-87610000D03*
D18*
X107180000Y-87860000D03*
%TD*%
D17*
%TO.C,R44*%
X101977500Y-85010000D03*
X101162500Y-85010000D03*
%TD*%
D13*
%TO.C,TP13*%
X96600000Y-100500000D03*
%TD*%
%TO.C,TP11*%
X98700000Y-95900000D03*
%TD*%
D24*
%TO.C,C22*%
X102630000Y-99240000D03*
X102630000Y-98280000D03*
%TD*%
D18*
%TO.C,R48*%
X97170000Y-86250000D03*
D19*
X97170000Y-86500000D03*
X97170000Y-87600000D03*
D18*
X97170000Y-87850000D03*
%TD*%
D16*
%TO.C,C13*%
X100020000Y-90375000D03*
X100020000Y-88825000D03*
%TD*%
M02*
