%TF.GenerationSoftware,KiCad,Pcbnew,9.0.3*%
%TF.CreationDate,2025-09-12T00:22:28+02:00*%
%TF.ProjectId,FOC_CONTROLLER_V1,464f435f-434f-44e5-9452-4f4c4c45525f,rev?*%
%TF.SameCoordinates,Original*%
%TF.FileFunction,Paste,Bot*%
%TF.FilePolarity,Positive*%
%FSLAX46Y46*%
G04 Gerber Fmt 4.6, Leading zero omitted, Abs format (unit mm)*
G04 Created by KiCad (PCBNEW 9.0.3) date 2025-09-12 00:22:28*
%MOMM*%
%LPD*%
G01*
G04 APERTURE LIST*
G04 Aperture macros list*
%AMRoundRect*
0 Rectangle with rounded corners*
0 $1 Rounding radius*
0 $2 $3 $4 $5 $6 $7 $8 $9 X,Y pos of 4 corners*
0 Add a 4 corners polygon primitive as box body*
4,1,4,$2,$3,$4,$5,$6,$7,$8,$9,$2,$3,0*
0 Add four circle primitives for the rounded corners*
1,1,$1+$1,$2,$3*
1,1,$1+$1,$4,$5*
1,1,$1+$1,$6,$7*
1,1,$1+$1,$8,$9*
0 Add four rect primitives between the rounded corners*
20,1,$1+$1,$2,$3,$4,$5,0*
20,1,$1+$1,$4,$5,$6,$7,0*
20,1,$1+$1,$6,$7,$8,$9,0*
20,1,$1+$1,$8,$9,$2,$3,0*%
G04 Aperture macros list end*
%ADD10R,2.700000X1.000000*%
%ADD11R,1.700000X0.600000*%
%ADD12RoundRect,0.225000X0.250000X-0.225000X0.250000X0.225000X-0.250000X0.225000X-0.250000X-0.225000X0*%
%ADD13RoundRect,0.090000X0.139000X0.090000X-0.139000X0.090000X-0.139000X-0.090000X0.139000X-0.090000X0*%
%ADD14RoundRect,0.200000X-0.275000X0.200000X-0.275000X-0.200000X0.275000X-0.200000X0.275000X0.200000X0*%
%ADD15R,0.120000X0.500000*%
%ADD16C,0.700000*%
%ADD17RoundRect,0.090000X-0.139000X-0.090000X0.139000X-0.090000X0.139000X0.090000X-0.139000X0.090000X0*%
%ADD18R,0.300000X0.800000*%
%ADD19R,0.800000X0.300000*%
%ADD20R,1.800000X1.800000*%
%ADD21RoundRect,0.140000X0.170000X-0.140000X0.170000X0.140000X-0.170000X0.140000X-0.170000X-0.140000X0*%
G04 APERTURE END LIST*
D10*
%TO.C,J1*%
X85600000Y-95150000D03*
X85600000Y-105100000D03*
D11*
X88800000Y-97000000D03*
X88800000Y-98250000D03*
X88800000Y-99500000D03*
X88800000Y-100750000D03*
X88800000Y-102000000D03*
X88800000Y-103250000D03*
%TD*%
D12*
%TO.C,C20*%
X94960000Y-90375000D03*
X94960000Y-88825000D03*
%TD*%
D13*
%TO.C,R41*%
X100232500Y-85020000D03*
X99367500Y-85020000D03*
%TD*%
D11*
%TO.C,J2*%
X111323885Y-97086500D03*
X111323885Y-98336500D03*
X111323885Y-99586500D03*
X111323885Y-100836500D03*
X111323885Y-102086500D03*
X111323885Y-103336500D03*
D10*
X114523885Y-95236500D03*
X114523885Y-105186500D03*
%TD*%
D14*
%TO.C,R49*%
X102130000Y-86290000D03*
D15*
X102130000Y-86540000D03*
X102130000Y-87640000D03*
D14*
X102130000Y-87890000D03*
%TD*%
D16*
%TO.C,TP8*%
X97600000Y-103300000D03*
%TD*%
D17*
%TO.C,R39*%
X102697500Y-101460000D03*
X103562500Y-101460000D03*
%TD*%
D13*
%TO.C,R45*%
X105222500Y-85010000D03*
X104357500Y-85010000D03*
%TD*%
D16*
%TO.C,TP10*%
X96600000Y-101400000D03*
%TD*%
D12*
%TO.C,C17*%
X105010000Y-90375000D03*
X105010000Y-88825000D03*
%TD*%
D13*
%TO.C,R43*%
X98462500Y-85030000D03*
X97597500Y-85030000D03*
%TD*%
D16*
%TO.C,TP15*%
X96600000Y-103300000D03*
%TD*%
D17*
%TO.C,R38*%
X98657500Y-97070000D03*
X99522500Y-97070000D03*
%TD*%
D16*
%TO.C,TP12*%
X103600000Y-100600000D03*
%TD*%
%TO.C,TP9*%
X96600000Y-102300000D03*
%TD*%
D18*
%TO.C,IC2*%
X100750000Y-101500000D03*
X100250000Y-101500000D03*
X99750000Y-101500000D03*
X99250000Y-101500000D03*
D19*
X98500000Y-100750000D03*
X98500000Y-100250000D03*
X98500000Y-99750000D03*
X98500000Y-99250000D03*
D18*
X99250000Y-98500000D03*
X99750000Y-98500000D03*
X100250000Y-98500000D03*
X100750000Y-98500000D03*
D19*
X101500000Y-99250000D03*
X101500000Y-99750000D03*
X101500000Y-100250000D03*
X101500000Y-100750000D03*
D20*
X100000000Y-100000000D03*
%TD*%
D14*
%TO.C,R50*%
X107180000Y-86260000D03*
D15*
X107180000Y-86510000D03*
X107180000Y-87610000D03*
D14*
X107180000Y-87860000D03*
%TD*%
D13*
%TO.C,R44*%
X102002500Y-85010000D03*
X101137500Y-85010000D03*
%TD*%
D16*
%TO.C,TP13*%
X96600000Y-100500000D03*
%TD*%
%TO.C,TP11*%
X98700000Y-95900000D03*
%TD*%
D21*
%TO.C,C22*%
X102630000Y-99240000D03*
X102630000Y-98280000D03*
%TD*%
D14*
%TO.C,R48*%
X97170000Y-86250000D03*
D15*
X97170000Y-86500000D03*
X97170000Y-87600000D03*
D14*
X97170000Y-87850000D03*
%TD*%
D12*
%TO.C,C13*%
X100020000Y-90375000D03*
X100020000Y-88825000D03*
%TD*%
M02*
