%TF.GenerationSoftware,KiCad,Pcbnew,9.0.3*%
%TF.CreationDate,2025-09-12T00:22:28+02:00*%
%TF.ProjectId,FOC_CONTROLLER_V1,464f435f-434f-44e5-9452-4f4c4c45525f,rev?*%
%TF.SameCoordinates,Original*%
%TF.FileFunction,Copper,L7,Inr*%
%TF.FilePolarity,Positive*%
%FSLAX46Y46*%
G04 Gerber Fmt 4.6, Leading zero omitted, Abs format (unit mm)*
G04 Created by KiCad (PCBNEW 9.0.3) date 2025-09-12 00:22:28*
%MOMM*%
%LPD*%
G01*
G04 APERTURE LIST*
%TA.AperFunction,ComponentPad*%
%ADD10C,0.700000*%
%TD*%
%TA.AperFunction,ComponentPad*%
%ADD11C,4.400000*%
%TD*%
%TA.AperFunction,ComponentPad*%
%ADD12C,1.500000*%
%TD*%
%TA.AperFunction,ViaPad*%
%ADD13C,0.400000*%
%TD*%
G04 APERTURE END LIST*
D10*
%TO.N,GND*%
%TO.C,TP2*%
X91630000Y-93280000D03*
X92113274Y-92113274D03*
X92113274Y-94446726D03*
X93280000Y-91630000D03*
D11*
X93280000Y-93280000D03*
D10*
X93280000Y-94930000D03*
X94446726Y-92113274D03*
X94446726Y-94446726D03*
X94930000Y-93280000D03*
%TD*%
%TO.N,GND*%
%TO.C,TP4*%
X91625000Y-106725000D03*
X92108274Y-105558274D03*
X92108274Y-107891726D03*
X93275000Y-105075000D03*
D11*
X93275000Y-106725000D03*
D10*
X93275000Y-108375000D03*
X94441726Y-105558274D03*
X94441726Y-107891726D03*
X94925000Y-106725000D03*
%TD*%
%TO.N,GND*%
%TO.C,TP1*%
X105075000Y-93275000D03*
X105558274Y-92108274D03*
X105558274Y-94441726D03*
X106725000Y-91625000D03*
D11*
X106725000Y-93275000D03*
D10*
X106725000Y-94925000D03*
X107891726Y-92108274D03*
X107891726Y-94441726D03*
X108375000Y-93275000D03*
%TD*%
D12*
%TO.N,/OUTV*%
%TO.C,TP6*%
X100000000Y-83300000D03*
%TD*%
D10*
%TO.N,GND*%
%TO.C,TP3*%
X105066726Y-106716726D03*
X105550000Y-105550000D03*
X105550000Y-107883452D03*
X106716726Y-105066726D03*
D11*
X106716726Y-106716726D03*
D10*
X106716726Y-108366726D03*
X107883452Y-105550000D03*
X107883452Y-107883452D03*
X108366726Y-106716726D03*
%TD*%
D12*
%TO.N,/OUTW*%
%TO.C,TP7*%
X104000000Y-83300000D03*
%TD*%
%TO.N,/OUTU*%
%TO.C,TP5*%
X96000000Y-83300000D03*
%TD*%
D13*
%TO.N,GND*%
X87700000Y-92270000D03*
X87700000Y-94230000D03*
X87700000Y-98150000D03*
%TO.N,+3.3V*%
X98280000Y-104500000D03*
X100207500Y-85020000D03*
X103600000Y-106900000D03*
X103050000Y-110475000D03*
X98280000Y-105150000D03*
X103750000Y-110475000D03*
X101900000Y-105550000D03*
X108090000Y-96230000D03*
X102418225Y-99153663D03*
X92240000Y-97980000D03*
X103750000Y-109075000D03*
X103050000Y-109775000D03*
X101770000Y-99260000D03*
X98890000Y-104500000D03*
X103050000Y-109075000D03*
X95570000Y-99989232D03*
X92240000Y-98530003D03*
X102900000Y-106900000D03*
X104002500Y-96032500D03*
X103750000Y-109775000D03*
%TO.N,GND*%
X104300000Y-104700000D03*
X84121790Y-99167858D03*
X100000000Y-100700000D03*
X84878201Y-95086630D03*
X106800000Y-101100000D03*
X102630000Y-98280000D03*
X86665138Y-91340239D03*
X104913370Y-115121799D03*
X97512692Y-115704245D03*
X106467113Y-114525373D03*
X89360823Y-111816003D03*
X101662003Y-115812898D03*
X114167004Y-107218449D03*
X111242998Y-111242998D03*
X94301950Y-114843929D03*
X96400000Y-110500000D03*
X105900000Y-99000000D03*
X86230196Y-107950000D03*
X96694204Y-115552547D03*
X107800000Y-100000000D03*
X115358221Y-95884777D03*
X84641779Y-104115223D03*
X112356621Y-110006194D03*
X113334862Y-108659761D03*
X93000000Y-102200000D03*
X98170000Y-98260000D03*
X102487308Y-115704245D03*
X99300000Y-99300000D03*
X95884777Y-115358221D03*
X99167858Y-115878210D03*
X100700000Y-100000000D03*
X111300000Y-102100000D03*
X103934287Y-99755057D03*
X98700000Y-108100000D03*
X86665138Y-108659761D03*
X84100000Y-100000000D03*
X114167004Y-92781551D03*
X84447453Y-96694204D03*
X97900000Y-89900000D03*
X115812898Y-98337997D03*
X115878210Y-100832142D03*
X114843929Y-105698050D03*
X94270000Y-99792500D03*
X107970000Y-97680000D03*
X98337997Y-115812898D03*
X91430000Y-98230000D03*
X105698050Y-114843929D03*
X85832996Y-92781551D03*
X109345786Y-112863370D03*
X96400000Y-108100000D03*
X84121790Y-100832142D03*
X89993806Y-112356621D03*
X103305796Y-115552547D03*
X113334862Y-91340239D03*
X98700000Y-89900000D03*
X110006194Y-112356621D03*
X115552547Y-103305796D03*
X115121799Y-95086630D03*
X112200000Y-102100000D03*
X112863370Y-109345786D03*
X99300000Y-100700000D03*
X99300000Y-100000000D03*
X95230000Y-96560000D03*
X110400000Y-103350000D03*
X93532887Y-114525373D03*
X91300000Y-95900000D03*
X115358221Y-104115223D03*
X85156071Y-105698050D03*
X100000000Y-115900000D03*
X90110000Y-99430000D03*
X87643379Y-110006194D03*
X104115223Y-115358221D03*
X96420000Y-109750000D03*
X88183997Y-89360823D03*
X115704245Y-97512692D03*
X84447453Y-103305796D03*
X115812898Y-101662003D03*
X84641779Y-95884777D03*
X96630000Y-103490000D03*
X96400000Y-109000000D03*
X100700000Y-99300000D03*
X111300000Y-103350000D03*
X91540000Y-99770000D03*
X101900000Y-104717500D03*
X100832142Y-115878210D03*
X88183997Y-110639177D03*
X100000000Y-99300000D03*
X84295755Y-102487308D03*
X88757002Y-111242998D03*
X103400000Y-103300000D03*
X111816003Y-110639177D03*
X91340239Y-113334862D03*
X100407500Y-114100000D03*
X84187102Y-98337997D03*
X92050000Y-113769804D03*
X100010000Y-102530000D03*
X115704245Y-102487308D03*
X85832996Y-107218449D03*
X96000000Y-103500000D03*
X85474627Y-106467113D03*
X113769804Y-107950000D03*
X103400000Y-95900000D03*
X87136630Y-109345786D03*
X101860000Y-98050000D03*
X113769804Y-92050000D03*
X110400000Y-102100000D03*
X114525373Y-93532887D03*
X98100000Y-109800000D03*
X84878201Y-104913370D03*
X97580000Y-97400000D03*
X85474627Y-93532887D03*
X114843929Y-94301950D03*
X115121799Y-104913370D03*
X86230196Y-92050000D03*
X90080000Y-100620000D03*
X107218449Y-114167004D03*
X100700000Y-100700000D03*
X115878210Y-99167858D03*
X109500000Y-100200000D03*
X90150000Y-101910000D03*
X97550000Y-108050000D03*
X100000000Y-100000000D03*
X110639177Y-111816003D03*
X115900000Y-100000000D03*
X92960000Y-96780000D03*
X95086630Y-115121799D03*
X107950000Y-113769804D03*
X101000000Y-102600000D03*
X103000000Y-89800000D03*
X85156071Y-94301950D03*
X84187102Y-101662003D03*
X87643379Y-89993806D03*
X108659761Y-113334862D03*
X109500000Y-101400000D03*
X84295755Y-97512692D03*
X115552547Y-96694204D03*
X112200000Y-103350000D03*
X95800000Y-104800000D03*
X87136630Y-90654214D03*
X96500000Y-106100000D03*
X101590000Y-97350000D03*
X92781551Y-114167004D03*
X90654214Y-112863370D03*
X101870000Y-98600000D03*
X114525373Y-106467113D03*
%TO.N,/NRST*%
X88800000Y-103250000D03*
X107750000Y-103550000D03*
%TO.N,VBAT+*%
X110300000Y-95260000D03*
X99750000Y-106500000D03*
X103938000Y-87975000D03*
X89190000Y-88580000D03*
X100338000Y-87975000D03*
X110300000Y-97060000D03*
X93938000Y-87975000D03*
X111000000Y-96460000D03*
X111000000Y-94060000D03*
X89190000Y-95580000D03*
X110300000Y-97660000D03*
X111000000Y-93460000D03*
X89890000Y-91380000D03*
X111000000Y-94660000D03*
X110300000Y-94660000D03*
X111000000Y-92260000D03*
X89190000Y-89980000D03*
X89890000Y-89980000D03*
X94638000Y-87975000D03*
X89890000Y-92780000D03*
X110300000Y-94060000D03*
X109860000Y-89470000D03*
X110560000Y-88070000D03*
X101038000Y-87975000D03*
X111000000Y-92860000D03*
X111000000Y-97660000D03*
X110300000Y-96460000D03*
X104638000Y-87975000D03*
X89890000Y-94180000D03*
X110560000Y-89470000D03*
X110560000Y-90870000D03*
X89890000Y-95580000D03*
X110300000Y-92260000D03*
X98938000Y-87975000D03*
X110300000Y-93460000D03*
X105338000Y-87975000D03*
X89190000Y-91380000D03*
X110300000Y-95860000D03*
X109860000Y-88070000D03*
X111000000Y-97060000D03*
X106038000Y-87975000D03*
X95338000Y-87975000D03*
X111000000Y-95860000D03*
X110300000Y-92860000D03*
X89190000Y-92780000D03*
X96038000Y-87975000D03*
X111000000Y-95260000D03*
X99638000Y-87975000D03*
X89190000Y-94180000D03*
X89890000Y-88580000D03*
X99750000Y-105820000D03*
%TO.N,/ISNSU*%
X102250000Y-99979222D03*
X91672500Y-103550000D03*
%TO.N,/OP2O*%
X98750000Y-102700000D03*
X93610000Y-103270000D03*
%TO.N,/OP2N*%
X92800000Y-101530000D03*
X98200000Y-102430000D03*
%TO.N,/ISNSV*%
X94390000Y-103560000D03*
X102800000Y-100250000D03*
%TO.N,/BTN*%
X97420000Y-98030000D03*
X91350000Y-97427500D03*
%TO.N,Net-(IC1-PA5)*%
X104700000Y-101550000D03*
X99392500Y-85020000D03*
%TO.N,/SHUNT+AFTER*%
X103400000Y-96550000D03*
X103340000Y-85550000D03*
%TO.N,/LSU*%
X96450000Y-96380000D03*
X91480000Y-90457500D03*
%TO.N,/HSW*%
X102284266Y-97625734D03*
X108830000Y-90425000D03*
%TO.N,/LSW*%
X102650000Y-94030000D03*
X100286889Y-97324999D03*
%TO.N,/SPI2_CS*%
X97390000Y-99770000D03*
%TO.N,/OP2P*%
X97750000Y-102010000D03*
X92830000Y-100580000D03*
%TO.N,/SPI2_MOSI*%
X98780000Y-101870000D03*
%TO.N,/UART_TX*%
X102711830Y-102330000D03*
X111323885Y-100836500D03*
%TO.N,/SWCLK*%
X97419527Y-99152966D03*
X88800000Y-102000000D03*
%TO.N,Net-(D8-A)*%
X101664482Y-102724915D03*
X100000000Y-113500000D03*
%TO.N,/MGL*%
X102675141Y-100910002D03*
X98620000Y-97640000D03*
%TO.N,/UART_RX*%
X111323885Y-99586500D03*
X104670000Y-102460000D03*
%TO.N,/SWDIO*%
X97444761Y-98603543D03*
X88800000Y-100750000D03*
%TO.N,/SPI2_MISO*%
X97710000Y-100320000D03*
%TO.N,/MGH*%
X102301875Y-101963340D03*
%TO.N,Net-(IC2-SCLK)*%
X105505000Y-103550000D03*
X101200000Y-98000000D03*
%TO.N,/SHUNT+U*%
X90930000Y-98890000D03*
X98300000Y-86650000D03*
%TO.N,Net-(Q1-G2)*%
X91830000Y-87200000D03*
X93950000Y-86075000D03*
%TO.N,Net-(Q1-G1)*%
X93290000Y-89190000D03*
X98075000Y-92367500D03*
%TO.N,/SHUNT+V*%
X93570000Y-99782500D03*
X103250000Y-86710000D03*
%TO.N,Net-(Q2-G2)*%
X98567326Y-91927624D03*
X98950000Y-86075000D03*
%TO.N,Net-(Q2-G1)*%
X98270000Y-89260000D03*
X101270000Y-93680000D03*
%TO.N,/SHUNT+W*%
X108310000Y-97090000D03*
X108297464Y-86595515D03*
%TO.N,Net-(Q3-G2)*%
X103950000Y-86075000D03*
X101736608Y-91819688D03*
%TO.N,Net-(Q3-G1)*%
X103220000Y-89260000D03*
X108475000Y-89140000D03*
%TO.N,Net-(Q1-S2)*%
X95275000Y-86075000D03*
X94575000Y-86075000D03*
X95975000Y-86075000D03*
%TO.N,Net-(Q2-S2)*%
X99575000Y-86075000D03*
X100275000Y-86075000D03*
X100975000Y-86075000D03*
%TO.N,Net-(Q3-S2)*%
X105975000Y-86075000D03*
X105275000Y-86075000D03*
X104575000Y-86075000D03*
%TO.N,/SHUNT-W*%
X108320000Y-87120000D03*
X107280000Y-98320000D03*
%TO.N,/SHUNT-U*%
X90840000Y-102345000D03*
X98220000Y-87230000D03*
%TO.N,/SHUNT-V*%
X103260000Y-87270000D03*
X93580000Y-102367500D03*
%TD*%
%TA.AperFunction,Conductor*%
%TO.N,GND*%
G36*
X95294473Y-82499407D02*
G01*
X95330437Y-82548907D01*
X95330437Y-82610093D01*
X95306286Y-82649504D01*
X95261701Y-82694088D01*
X95261698Y-82694092D01*
X95157681Y-82849761D01*
X95157677Y-82849770D01*
X95086026Y-83022750D01*
X95049500Y-83206381D01*
X95049500Y-83393618D01*
X95086026Y-83577249D01*
X95157677Y-83750229D01*
X95157681Y-83750238D01*
X95232065Y-83861559D01*
X95261698Y-83905908D01*
X95394092Y-84038302D01*
X95460463Y-84082649D01*
X95549761Y-84142318D01*
X95549767Y-84142320D01*
X95549769Y-84142322D01*
X95722749Y-84213973D01*
X95906384Y-84250500D01*
X95906385Y-84250500D01*
X96093615Y-84250500D01*
X96093616Y-84250500D01*
X96277251Y-84213973D01*
X96450231Y-84142322D01*
X96450234Y-84142319D01*
X96450238Y-84142318D01*
X96495187Y-84112282D01*
X96605908Y-84038302D01*
X96738302Y-83905908D01*
X96812282Y-83795187D01*
X96842318Y-83750238D01*
X96842319Y-83750234D01*
X96842322Y-83750231D01*
X96913973Y-83577251D01*
X96950500Y-83393616D01*
X96950500Y-83206384D01*
X96913973Y-83022749D01*
X96842322Y-82849769D01*
X96842320Y-82849767D01*
X96842318Y-82849761D01*
X96782649Y-82760463D01*
X96738302Y-82694092D01*
X96693714Y-82649504D01*
X96665937Y-82594987D01*
X96675508Y-82534555D01*
X96718773Y-82491290D01*
X96763718Y-82480500D01*
X99236282Y-82480500D01*
X99294473Y-82499407D01*
X99330437Y-82548907D01*
X99330437Y-82610093D01*
X99306286Y-82649504D01*
X99261701Y-82694088D01*
X99261698Y-82694092D01*
X99157681Y-82849761D01*
X99157677Y-82849770D01*
X99086026Y-83022750D01*
X99049500Y-83206381D01*
X99049500Y-83393618D01*
X99086026Y-83577249D01*
X99157677Y-83750229D01*
X99157681Y-83750238D01*
X99232065Y-83861559D01*
X99261698Y-83905908D01*
X99394092Y-84038302D01*
X99460463Y-84082649D01*
X99549761Y-84142318D01*
X99549767Y-84142320D01*
X99549769Y-84142322D01*
X99722749Y-84213973D01*
X99906384Y-84250500D01*
X99906385Y-84250500D01*
X100093615Y-84250500D01*
X100093616Y-84250500D01*
X100277251Y-84213973D01*
X100450231Y-84142322D01*
X100450234Y-84142319D01*
X100450238Y-84142318D01*
X100495187Y-84112282D01*
X100605908Y-84038302D01*
X100738302Y-83905908D01*
X100812282Y-83795187D01*
X100842318Y-83750238D01*
X100842319Y-83750234D01*
X100842322Y-83750231D01*
X100913973Y-83577251D01*
X100950500Y-83393616D01*
X100950500Y-83206384D01*
X100913973Y-83022749D01*
X100842322Y-82849769D01*
X100842320Y-82849767D01*
X100842318Y-82849761D01*
X100782649Y-82760463D01*
X100738302Y-82694092D01*
X100693714Y-82649504D01*
X100665937Y-82594987D01*
X100675508Y-82534555D01*
X100718773Y-82491290D01*
X100763718Y-82480500D01*
X103236282Y-82480500D01*
X103294473Y-82499407D01*
X103330437Y-82548907D01*
X103330437Y-82610093D01*
X103306286Y-82649504D01*
X103261701Y-82694088D01*
X103261698Y-82694092D01*
X103157681Y-82849761D01*
X103157677Y-82849770D01*
X103086026Y-83022750D01*
X103049500Y-83206381D01*
X103049500Y-83393618D01*
X103086026Y-83577249D01*
X103157677Y-83750229D01*
X103157681Y-83750238D01*
X103232065Y-83861559D01*
X103261698Y-83905908D01*
X103394092Y-84038302D01*
X103460463Y-84082649D01*
X103549761Y-84142318D01*
X103549767Y-84142320D01*
X103549769Y-84142322D01*
X103722749Y-84213973D01*
X103906384Y-84250500D01*
X103906385Y-84250500D01*
X104093615Y-84250500D01*
X104093616Y-84250500D01*
X104277251Y-84213973D01*
X104450231Y-84142322D01*
X104450234Y-84142319D01*
X104450238Y-84142318D01*
X104495187Y-84112282D01*
X104605908Y-84038302D01*
X104738302Y-83905908D01*
X104812282Y-83795187D01*
X104842318Y-83750238D01*
X104842319Y-83750234D01*
X104842322Y-83750231D01*
X104913973Y-83577251D01*
X104950500Y-83393616D01*
X104950500Y-83206384D01*
X104913973Y-83022749D01*
X104842322Y-82849769D01*
X104842320Y-82849767D01*
X104842318Y-82849761D01*
X104782649Y-82760463D01*
X104738302Y-82694092D01*
X104693714Y-82649504D01*
X104665937Y-82594987D01*
X104675508Y-82534555D01*
X104718773Y-82491290D01*
X104763718Y-82480500D01*
X105865481Y-82480500D01*
X105923672Y-82499407D01*
X105942569Y-82517384D01*
X107818831Y-84845895D01*
X107818832Y-84845896D01*
X107825592Y-84854285D01*
X107826093Y-84855894D01*
X107850536Y-84885243D01*
X107851019Y-84885842D01*
X107851055Y-84885886D01*
X107874658Y-84915178D01*
X107875207Y-84915622D01*
X107876412Y-84916613D01*
X107877025Y-84917125D01*
X107910250Y-84934575D01*
X107911673Y-84935337D01*
X107915040Y-84937176D01*
X107915659Y-84937517D01*
X108158751Y-85072725D01*
X108622595Y-85330715D01*
X108626683Y-85333118D01*
X109308510Y-85756318D01*
X109315126Y-85760424D01*
X109319087Y-85763017D01*
X109985571Y-86222309D01*
X109986238Y-86222768D01*
X109990070Y-86225546D01*
X110426725Y-86558382D01*
X110634475Y-86716738D01*
X110638176Y-86719702D01*
X111258316Y-87241183D01*
X111261851Y-87244303D01*
X111741566Y-87688604D01*
X111856301Y-87794869D01*
X111859701Y-87798172D01*
X112314120Y-88261396D01*
X112427126Y-88376591D01*
X112430364Y-88380055D01*
X112969398Y-88984929D01*
X112972467Y-88988543D01*
X113481969Y-89618594D01*
X113484857Y-89622345D01*
X113959464Y-90270413D01*
X113963578Y-90276031D01*
X113966287Y-90279922D01*
X114413164Y-90955788D01*
X114415684Y-90959805D01*
X114829694Y-91656305D01*
X114832018Y-91660438D01*
X115212191Y-92375937D01*
X115214315Y-92380176D01*
X115559795Y-93113066D01*
X115561714Y-93117402D01*
X115871716Y-93866020D01*
X115873424Y-93870443D01*
X116147214Y-94633014D01*
X116148709Y-94637514D01*
X116385674Y-95412325D01*
X116386952Y-95416891D01*
X116586547Y-96202168D01*
X116587605Y-96206791D01*
X116749371Y-97000726D01*
X116750206Y-97005393D01*
X116873770Y-97806151D01*
X116874381Y-97810854D01*
X116959461Y-98616622D01*
X116959846Y-98621347D01*
X117006248Y-99430266D01*
X117006406Y-99435005D01*
X117014022Y-100245210D01*
X117013953Y-100249952D01*
X116982766Y-101059596D01*
X116982470Y-101064328D01*
X116912552Y-101871543D01*
X116912030Y-101876256D01*
X116803537Y-102679224D01*
X116802789Y-102683906D01*
X116655982Y-103480706D01*
X116655012Y-103485348D01*
X116470209Y-104274259D01*
X116469017Y-104278848D01*
X116246661Y-105057973D01*
X116245251Y-105062500D01*
X115985842Y-105830086D01*
X115984217Y-105834541D01*
X115688343Y-106588852D01*
X115686506Y-106593223D01*
X115354866Y-107332472D01*
X115352822Y-107336751D01*
X114986164Y-108059276D01*
X114983918Y-108063452D01*
X114583071Y-108767616D01*
X114580627Y-108771679D01*
X114146536Y-109455823D01*
X114143900Y-109459765D01*
X113677552Y-110122334D01*
X113674731Y-110126145D01*
X113177174Y-110765648D01*
X113174173Y-110769319D01*
X112646600Y-111384223D01*
X112643428Y-111387747D01*
X112086985Y-111976721D01*
X112083647Y-111980089D01*
X111499643Y-112541741D01*
X111496147Y-112544945D01*
X110885944Y-113077969D01*
X110882300Y-113081002D01*
X110247249Y-113584217D01*
X110243463Y-113587072D01*
X109585054Y-114059297D01*
X109581136Y-114061967D01*
X108900876Y-114502120D01*
X108896834Y-114504600D01*
X108196267Y-114911683D01*
X108192111Y-114913966D01*
X107472880Y-115287025D01*
X107468620Y-115289107D01*
X106732340Y-115627304D01*
X106727985Y-115629180D01*
X105976346Y-115931741D01*
X105971906Y-115933406D01*
X105206641Y-116199628D01*
X105202127Y-116201078D01*
X104424991Y-116430354D01*
X104420412Y-116431586D01*
X103633214Y-116623382D01*
X103628582Y-116624394D01*
X102833082Y-116778281D01*
X102828406Y-116779070D01*
X102026452Y-116894690D01*
X102021744Y-116895254D01*
X101215177Y-116972343D01*
X101210447Y-116972681D01*
X100401111Y-117011060D01*
X100396371Y-117011171D01*
X99586130Y-117010755D01*
X99581390Y-117010639D01*
X98772091Y-116971426D01*
X98767362Y-116971083D01*
X97960877Y-116893165D01*
X97956169Y-116892596D01*
X97154352Y-116776154D01*
X97149677Y-116775361D01*
X96354317Y-116620652D01*
X96349686Y-116619635D01*
X95562684Y-116427030D01*
X95558106Y-116425793D01*
X94781202Y-116195717D01*
X94776699Y-116194265D01*
X94423313Y-116070920D01*
X94011723Y-115927260D01*
X94007285Y-115925591D01*
X93255950Y-115622256D01*
X93251597Y-115620376D01*
X92515665Y-115281420D01*
X92511407Y-115279334D01*
X91792534Y-114905523D01*
X91788381Y-114903235D01*
X91088244Y-114495437D01*
X91084210Y-114492956D01*
X90404390Y-114052094D01*
X90400475Y-114049419D01*
X89742577Y-113576537D01*
X89738794Y-113573679D01*
X89579608Y-113447273D01*
X99599500Y-113447273D01*
X99599500Y-113552727D01*
X99608703Y-113587072D01*
X99626794Y-113654589D01*
X99626794Y-113654590D01*
X99679518Y-113745910D01*
X99679520Y-113745913D01*
X99754087Y-113820480D01*
X99845413Y-113873207D01*
X99947273Y-113900500D01*
X99947275Y-113900500D01*
X100052725Y-113900500D01*
X100052727Y-113900500D01*
X100154587Y-113873207D01*
X100245913Y-113820480D01*
X100320480Y-113745913D01*
X100373207Y-113654587D01*
X100400500Y-113552727D01*
X100400500Y-113447273D01*
X100373207Y-113345413D01*
X100320480Y-113254087D01*
X100245913Y-113179520D01*
X100154587Y-113126793D01*
X100052727Y-113099500D01*
X99947273Y-113099500D01*
X99845413Y-113126793D01*
X99845412Y-113126793D01*
X99845410Y-113126794D01*
X99845409Y-113126794D01*
X99754089Y-113179518D01*
X99679518Y-113254089D01*
X99626794Y-113345409D01*
X99626794Y-113345410D01*
X99626793Y-113345412D01*
X99626793Y-113345413D01*
X99599500Y-113447273D01*
X89579608Y-113447273D01*
X89104248Y-113069801D01*
X89100628Y-113066782D01*
X88684555Y-112702580D01*
X88490942Y-112533103D01*
X88487450Y-112529895D01*
X87904046Y-111967663D01*
X87900711Y-111964292D01*
X87357131Y-111387747D01*
X87344863Y-111374734D01*
X87341717Y-111371233D01*
X86814747Y-110755751D01*
X86811751Y-110752076D01*
X86314860Y-110112073D01*
X86312042Y-110108259D01*
X85846372Y-109445205D01*
X85843741Y-109441261D01*
X85607911Y-109068738D01*
X85578496Y-109022273D01*
X102649500Y-109022273D01*
X102649500Y-109127727D01*
X102676793Y-109229587D01*
X102676794Y-109229589D01*
X102676794Y-109229590D01*
X102729518Y-109320910D01*
X102729520Y-109320913D01*
X102763605Y-109354998D01*
X102791381Y-109409513D01*
X102781810Y-109469945D01*
X102763606Y-109495000D01*
X102729520Y-109529087D01*
X102729518Y-109529089D01*
X102676794Y-109620409D01*
X102676794Y-109620410D01*
X102676793Y-109620412D01*
X102676793Y-109620413D01*
X102649500Y-109722273D01*
X102649500Y-109827727D01*
X102676793Y-109929587D01*
X102676794Y-109929589D01*
X102676794Y-109929590D01*
X102729518Y-110020910D01*
X102729520Y-110020913D01*
X102763605Y-110054998D01*
X102791381Y-110109513D01*
X102781810Y-110169945D01*
X102763606Y-110195000D01*
X102729520Y-110229087D01*
X102729518Y-110229089D01*
X102676794Y-110320409D01*
X102676794Y-110320410D01*
X102676793Y-110320412D01*
X102676793Y-110320413D01*
X102649500Y-110422273D01*
X102649500Y-110527727D01*
X102676793Y-110629587D01*
X102676794Y-110629589D01*
X102676794Y-110629590D01*
X102729518Y-110720910D01*
X102729520Y-110720913D01*
X102804087Y-110795480D01*
X102895413Y-110848207D01*
X102997273Y-110875500D01*
X102997275Y-110875500D01*
X103102725Y-110875500D01*
X103102727Y-110875500D01*
X103204587Y-110848207D01*
X103295913Y-110795480D01*
X103329998Y-110761394D01*
X103384513Y-110733619D01*
X103444945Y-110743190D01*
X103470000Y-110761393D01*
X103504087Y-110795480D01*
X103595413Y-110848207D01*
X103697273Y-110875500D01*
X103697275Y-110875500D01*
X103802725Y-110875500D01*
X103802727Y-110875500D01*
X103904587Y-110848207D01*
X103995913Y-110795480D01*
X104070480Y-110720913D01*
X104123207Y-110629587D01*
X104150500Y-110527727D01*
X104150500Y-110422273D01*
X104123207Y-110320413D01*
X104070480Y-110229087D01*
X104036394Y-110195001D01*
X104008619Y-110140487D01*
X104018190Y-110080055D01*
X104036393Y-110054999D01*
X104070480Y-110020913D01*
X104123207Y-109929587D01*
X104150500Y-109827727D01*
X104150500Y-109722273D01*
X104123207Y-109620413D01*
X104070480Y-109529087D01*
X104036394Y-109495001D01*
X104008619Y-109440487D01*
X104018190Y-109380055D01*
X104036393Y-109354999D01*
X104070480Y-109320913D01*
X104123207Y-109229587D01*
X104150500Y-109127727D01*
X104150500Y-109022273D01*
X104123207Y-108920413D01*
X104070480Y-108829087D01*
X103995913Y-108754520D01*
X103904587Y-108701793D01*
X103802727Y-108674500D01*
X103697273Y-108674500D01*
X103595413Y-108701793D01*
X103595412Y-108701793D01*
X103595410Y-108701794D01*
X103595409Y-108701794D01*
X103504089Y-108754518D01*
X103504087Y-108754519D01*
X103504087Y-108754520D01*
X103470001Y-108788605D01*
X103415487Y-108816381D01*
X103355055Y-108806810D01*
X103329999Y-108788606D01*
X103295913Y-108754520D01*
X103204587Y-108701793D01*
X103102727Y-108674500D01*
X102997273Y-108674500D01*
X102895413Y-108701793D01*
X102895412Y-108701793D01*
X102895410Y-108701794D01*
X102895409Y-108701794D01*
X102804089Y-108754518D01*
X102729518Y-108829089D01*
X102676794Y-108920409D01*
X102676794Y-108920410D01*
X102676793Y-108920412D01*
X102676793Y-108920413D01*
X102649500Y-109022273D01*
X85578496Y-109022273D01*
X85410356Y-108756676D01*
X85407916Y-108752610D01*
X85007799Y-108048044D01*
X85005557Y-108043866D01*
X84814913Y-107667229D01*
X84639641Y-107320960D01*
X84637603Y-107316683D01*
X84594564Y-107220481D01*
X84306714Y-106577071D01*
X84304884Y-106572703D01*
X84297071Y-106552725D01*
X84070987Y-105974590D01*
X84009788Y-105818094D01*
X84008168Y-105813640D01*
X83992551Y-105767273D01*
X99349500Y-105767273D01*
X99349500Y-105872727D01*
X99363026Y-105923207D01*
X99376794Y-105974589D01*
X99376794Y-105974590D01*
X99429518Y-106065910D01*
X99429520Y-106065913D01*
X99453605Y-106089998D01*
X99481381Y-106144513D01*
X99471810Y-106204945D01*
X99453606Y-106230000D01*
X99429520Y-106254087D01*
X99429518Y-106254089D01*
X99376794Y-106345409D01*
X99376794Y-106345410D01*
X99376793Y-106345412D01*
X99376793Y-106345413D01*
X99349500Y-106447273D01*
X99349500Y-106552727D01*
X99359180Y-106588852D01*
X99376794Y-106654589D01*
X99376794Y-106654590D01*
X99429231Y-106745413D01*
X99429520Y-106745913D01*
X99504087Y-106820480D01*
X99595413Y-106873207D01*
X99697273Y-106900500D01*
X99697275Y-106900500D01*
X99802725Y-106900500D01*
X99802727Y-106900500D01*
X99904587Y-106873207D01*
X99949506Y-106847273D01*
X102499500Y-106847273D01*
X102499500Y-106952727D01*
X102526793Y-107054587D01*
X102526794Y-107054589D01*
X102526794Y-107054590D01*
X102579518Y-107145910D01*
X102579520Y-107145913D01*
X102654087Y-107220480D01*
X102745413Y-107273207D01*
X102847273Y-107300500D01*
X102847275Y-107300500D01*
X102952725Y-107300500D01*
X102952727Y-107300500D01*
X103054587Y-107273207D01*
X103145913Y-107220480D01*
X103179998Y-107186394D01*
X103234513Y-107158619D01*
X103294945Y-107168190D01*
X103320000Y-107186393D01*
X103354087Y-107220480D01*
X103445413Y-107273207D01*
X103547273Y-107300500D01*
X103547275Y-107300500D01*
X103652725Y-107300500D01*
X103652727Y-107300500D01*
X103754587Y-107273207D01*
X103845913Y-107220480D01*
X103920480Y-107145913D01*
X103973207Y-107054587D01*
X104000500Y-106952727D01*
X104000500Y-106847273D01*
X103973207Y-106745413D01*
X103920480Y-106654087D01*
X103845913Y-106579520D01*
X103754587Y-106526793D01*
X103652727Y-106499500D01*
X103547273Y-106499500D01*
X103445413Y-106526793D01*
X103445412Y-106526793D01*
X103445410Y-106526794D01*
X103445409Y-106526794D01*
X103354089Y-106579518D01*
X103354087Y-106579519D01*
X103354087Y-106579520D01*
X103320001Y-106613605D01*
X103265487Y-106641381D01*
X103205055Y-106631810D01*
X103179999Y-106613606D01*
X103145913Y-106579520D01*
X103054587Y-106526793D01*
X102952727Y-106499500D01*
X102847273Y-106499500D01*
X102745413Y-106526793D01*
X102745412Y-106526793D01*
X102745410Y-106526794D01*
X102745409Y-106526794D01*
X102654089Y-106579518D01*
X102579518Y-106654089D01*
X102526794Y-106745409D01*
X102526794Y-106745410D01*
X102526793Y-106745412D01*
X102526793Y-106745413D01*
X102499500Y-106847273D01*
X99949506Y-106847273D01*
X99995913Y-106820480D01*
X100070480Y-106745913D01*
X100123207Y-106654587D01*
X100150500Y-106552727D01*
X100150500Y-106447273D01*
X100123207Y-106345413D01*
X100070480Y-106254087D01*
X100046394Y-106230001D01*
X100018619Y-106175487D01*
X100028190Y-106115055D01*
X100046393Y-106089999D01*
X100070480Y-106065913D01*
X100123207Y-105974587D01*
X100150500Y-105872727D01*
X100150500Y-105767273D01*
X100123207Y-105665413D01*
X100070480Y-105574087D01*
X99995913Y-105499520D01*
X99992021Y-105497273D01*
X101499500Y-105497273D01*
X101499500Y-105602727D01*
X101526793Y-105704587D01*
X101526794Y-105704589D01*
X101526794Y-105704590D01*
X101579518Y-105795910D01*
X101579520Y-105795913D01*
X101654087Y-105870480D01*
X101745413Y-105923207D01*
X101847273Y-105950500D01*
X101847275Y-105950500D01*
X101952725Y-105950500D01*
X101952727Y-105950500D01*
X102054587Y-105923207D01*
X102145913Y-105870480D01*
X102220480Y-105795913D01*
X102273207Y-105704587D01*
X102300500Y-105602727D01*
X102300500Y-105497273D01*
X102273207Y-105395413D01*
X102220480Y-105304087D01*
X102145913Y-105229520D01*
X102054587Y-105176793D01*
X101952727Y-105149500D01*
X101847273Y-105149500D01*
X101745413Y-105176793D01*
X101745412Y-105176793D01*
X101745410Y-105176794D01*
X101745409Y-105176794D01*
X101654089Y-105229518D01*
X101579518Y-105304089D01*
X101526794Y-105395409D01*
X101526794Y-105395410D01*
X101526793Y-105395412D01*
X101526793Y-105395413D01*
X101499500Y-105497273D01*
X99992021Y-105497273D01*
X99904589Y-105446794D01*
X99904588Y-105446793D01*
X99904587Y-105446793D01*
X99802727Y-105419500D01*
X99697273Y-105419500D01*
X99595413Y-105446793D01*
X99595412Y-105446793D01*
X99595410Y-105446794D01*
X99595409Y-105446794D01*
X99504089Y-105499518D01*
X99429518Y-105574089D01*
X99376794Y-105665409D01*
X99376794Y-105665410D01*
X99376793Y-105665412D01*
X99376793Y-105665413D01*
X99349500Y-105767273D01*
X83992551Y-105767273D01*
X83749547Y-105045778D01*
X83748153Y-105041289D01*
X83579286Y-104447273D01*
X97879500Y-104447273D01*
X97879500Y-104552727D01*
X97885897Y-104576600D01*
X97906794Y-104654589D01*
X97906794Y-104654590D01*
X97959518Y-104745910D01*
X97959520Y-104745913D01*
X97968605Y-104754998D01*
X97996381Y-104809513D01*
X97986810Y-104869945D01*
X97968606Y-104895000D01*
X97963107Y-104900500D01*
X97959518Y-104904089D01*
X97906794Y-104995409D01*
X97906794Y-104995410D01*
X97906793Y-104995412D01*
X97906793Y-104995413D01*
X97879500Y-105097273D01*
X97879500Y-105202727D01*
X97906659Y-105304087D01*
X97906794Y-105304589D01*
X97906794Y-105304590D01*
X97959231Y-105395413D01*
X97959520Y-105395913D01*
X98034087Y-105470480D01*
X98125413Y-105523207D01*
X98227273Y-105550500D01*
X98227275Y-105550500D01*
X98332725Y-105550500D01*
X98332727Y-105550500D01*
X98434587Y-105523207D01*
X98525913Y-105470480D01*
X98600480Y-105395913D01*
X98653207Y-105304587D01*
X98680500Y-105202727D01*
X98680500Y-105097273D01*
X98655950Y-105005650D01*
X98659153Y-104944552D01*
X98697658Y-104897002D01*
X98756758Y-104881166D01*
X98777193Y-104884402D01*
X98837273Y-104900500D01*
X98837275Y-104900500D01*
X98942725Y-104900500D01*
X98942727Y-104900500D01*
X99044587Y-104873207D01*
X99135913Y-104820480D01*
X99210480Y-104745913D01*
X99263207Y-104654587D01*
X99290500Y-104552727D01*
X99290500Y-104447273D01*
X99263207Y-104345413D01*
X99210480Y-104254087D01*
X99135913Y-104179520D01*
X99044587Y-104126793D01*
X98942727Y-104099500D01*
X98837273Y-104099500D01*
X98735413Y-104126793D01*
X98735412Y-104126793D01*
X98735410Y-104126794D01*
X98735409Y-104126794D01*
X98638468Y-104182764D01*
X98637634Y-104181319D01*
X98587580Y-104199038D01*
X98531697Y-104182478D01*
X98531532Y-104182764D01*
X98530340Y-104182076D01*
X98528916Y-104181654D01*
X98526234Y-104179705D01*
X98434589Y-104126794D01*
X98434588Y-104126793D01*
X98434587Y-104126793D01*
X98332727Y-104099500D01*
X98227273Y-104099500D01*
X98125413Y-104126793D01*
X98125412Y-104126793D01*
X98125410Y-104126794D01*
X98125409Y-104126794D01*
X98034089Y-104179518D01*
X97959518Y-104254089D01*
X97906794Y-104345409D01*
X97906794Y-104345410D01*
X97906793Y-104345412D01*
X97906793Y-104345413D01*
X97879500Y-104447273D01*
X83579286Y-104447273D01*
X83526587Y-104261897D01*
X83525400Y-104257306D01*
X83449831Y-103933207D01*
X83341410Y-103468213D01*
X83340453Y-103463615D01*
X83291664Y-103197273D01*
X88399500Y-103197273D01*
X88399500Y-103302727D01*
X88424335Y-103395413D01*
X88426794Y-103404589D01*
X88426794Y-103404590D01*
X88460860Y-103463593D01*
X88479520Y-103495913D01*
X88554087Y-103570480D01*
X88645413Y-103623207D01*
X88747273Y-103650500D01*
X88747275Y-103650500D01*
X88852725Y-103650500D01*
X88852727Y-103650500D01*
X88954587Y-103623207D01*
X89045913Y-103570480D01*
X89119120Y-103497273D01*
X91272000Y-103497273D01*
X91272000Y-103602727D01*
X91290160Y-103670500D01*
X91299294Y-103704589D01*
X91299294Y-103704590D01*
X91305068Y-103714590D01*
X91352020Y-103795913D01*
X91426587Y-103870480D01*
X91517913Y-103923207D01*
X91619773Y-103950500D01*
X91619775Y-103950500D01*
X91725225Y-103950500D01*
X91725227Y-103950500D01*
X91827087Y-103923207D01*
X91918413Y-103870480D01*
X91992980Y-103795913D01*
X92045707Y-103704587D01*
X92073000Y-103602727D01*
X92073000Y-103497273D01*
X92045707Y-103395413D01*
X91992980Y-103304087D01*
X91918413Y-103229520D01*
X91897202Y-103217274D01*
X91827089Y-103176794D01*
X91827088Y-103176793D01*
X91827087Y-103176793D01*
X91725227Y-103149500D01*
X91619773Y-103149500D01*
X91517913Y-103176793D01*
X91517912Y-103176793D01*
X91517910Y-103176794D01*
X91517909Y-103176794D01*
X91426589Y-103229518D01*
X91352018Y-103304089D01*
X91299294Y-103395409D01*
X91299294Y-103395410D01*
X91299293Y-103395412D01*
X91299293Y-103395413D01*
X91272000Y-103497273D01*
X89119120Y-103497273D01*
X89120480Y-103495913D01*
X89173207Y-103404587D01*
X89200500Y-103302727D01*
X89200500Y-103197273D01*
X89173207Y-103095413D01*
X89160386Y-103073207D01*
X89120481Y-103004089D01*
X89120480Y-103004087D01*
X89045913Y-102929520D01*
X89017552Y-102913146D01*
X88954589Y-102876794D01*
X88954588Y-102876793D01*
X88954587Y-102876793D01*
X88852727Y-102849500D01*
X88747273Y-102849500D01*
X88645413Y-102876793D01*
X88645412Y-102876793D01*
X88645410Y-102876794D01*
X88645409Y-102876794D01*
X88554089Y-102929518D01*
X88479518Y-103004089D01*
X88426794Y-103095409D01*
X88426794Y-103095410D01*
X88426793Y-103095412D01*
X88426793Y-103095413D01*
X88399500Y-103197273D01*
X83291664Y-103197273D01*
X83194449Y-102666569D01*
X83193716Y-102661945D01*
X83097902Y-101947273D01*
X88399500Y-101947273D01*
X88399500Y-102052727D01*
X88426793Y-102154587D01*
X88426794Y-102154589D01*
X88426794Y-102154590D01*
X88479518Y-102245910D01*
X88479520Y-102245913D01*
X88554087Y-102320480D01*
X88645413Y-102373207D01*
X88747273Y-102400500D01*
X88747275Y-102400500D01*
X88852725Y-102400500D01*
X88852727Y-102400500D01*
X88954587Y-102373207D01*
X89045913Y-102320480D01*
X89074120Y-102292273D01*
X90439500Y-102292273D01*
X90439500Y-102397727D01*
X90462775Y-102484590D01*
X90466794Y-102499589D01*
X90466794Y-102499590D01*
X90515869Y-102584589D01*
X90519520Y-102590913D01*
X90594087Y-102665480D01*
X90685413Y-102718207D01*
X90787273Y-102745500D01*
X90787275Y-102745500D01*
X90892725Y-102745500D01*
X90892727Y-102745500D01*
X90994587Y-102718207D01*
X91085913Y-102665480D01*
X91160480Y-102590913D01*
X91213207Y-102499587D01*
X91240500Y-102397727D01*
X91240500Y-102314773D01*
X93179500Y-102314773D01*
X93179500Y-102420227D01*
X93204285Y-102512727D01*
X93206794Y-102522089D01*
X93206794Y-102522090D01*
X93259518Y-102613410D01*
X93259520Y-102613413D01*
X93334087Y-102687980D01*
X93334089Y-102687981D01*
X93427087Y-102741674D01*
X93468028Y-102787143D01*
X93474424Y-102847993D01*
X93443831Y-102900981D01*
X93427088Y-102913146D01*
X93364088Y-102949519D01*
X93289518Y-103024089D01*
X93236794Y-103115409D01*
X93236794Y-103115410D01*
X93236793Y-103115412D01*
X93236793Y-103115413D01*
X93209500Y-103217273D01*
X93209500Y-103322727D01*
X93236793Y-103424587D01*
X93236794Y-103424589D01*
X93236794Y-103424590D01*
X93284532Y-103507274D01*
X93289520Y-103515913D01*
X93364087Y-103590480D01*
X93455413Y-103643207D01*
X93557273Y-103670500D01*
X93557275Y-103670500D01*
X93662725Y-103670500D01*
X93662727Y-103670500D01*
X93764587Y-103643207D01*
X93854708Y-103591175D01*
X93914553Y-103578454D01*
X93970449Y-103603340D01*
X93999832Y-103651287D01*
X94014114Y-103704590D01*
X94016794Y-103714589D01*
X94016794Y-103714590D01*
X94069518Y-103805910D01*
X94069520Y-103805913D01*
X94144087Y-103880480D01*
X94235413Y-103933207D01*
X94337273Y-103960500D01*
X94337275Y-103960500D01*
X94442725Y-103960500D01*
X94442727Y-103960500D01*
X94544587Y-103933207D01*
X94635913Y-103880480D01*
X94710480Y-103805913D01*
X94763207Y-103714587D01*
X94790500Y-103612727D01*
X94790500Y-103507273D01*
X94787821Y-103497273D01*
X105104500Y-103497273D01*
X105104500Y-103602727D01*
X105122660Y-103670500D01*
X105131794Y-103704589D01*
X105131794Y-103704590D01*
X105137568Y-103714590D01*
X105184520Y-103795913D01*
X105259087Y-103870480D01*
X105350413Y-103923207D01*
X105452273Y-103950500D01*
X105452275Y-103950500D01*
X105557725Y-103950500D01*
X105557727Y-103950500D01*
X105659587Y-103923207D01*
X105750913Y-103870480D01*
X105825480Y-103795913D01*
X105878207Y-103704587D01*
X105905500Y-103602727D01*
X105905500Y-103497273D01*
X107349500Y-103497273D01*
X107349500Y-103602727D01*
X107367660Y-103670500D01*
X107376794Y-103704589D01*
X107376794Y-103704590D01*
X107382568Y-103714590D01*
X107429520Y-103795913D01*
X107504087Y-103870480D01*
X107595413Y-103923207D01*
X107697273Y-103950500D01*
X107697275Y-103950500D01*
X107802725Y-103950500D01*
X107802727Y-103950500D01*
X107904587Y-103923207D01*
X107995913Y-103870480D01*
X108070480Y-103795913D01*
X108123207Y-103704587D01*
X108150500Y-103602727D01*
X108150500Y-103497273D01*
X108123207Y-103395413D01*
X108070480Y-103304087D01*
X107995913Y-103229520D01*
X107974702Y-103217274D01*
X107904589Y-103176794D01*
X107904588Y-103176793D01*
X107904587Y-103176793D01*
X107802727Y-103149500D01*
X107697273Y-103149500D01*
X107595413Y-103176793D01*
X107595412Y-103176793D01*
X107595410Y-103176794D01*
X107595409Y-103176794D01*
X107504089Y-103229518D01*
X107429518Y-103304089D01*
X107376794Y-103395409D01*
X107376794Y-103395410D01*
X107376793Y-103395412D01*
X107376793Y-103395413D01*
X107349500Y-103497273D01*
X105905500Y-103497273D01*
X105878207Y-103395413D01*
X105825480Y-103304087D01*
X105750913Y-103229520D01*
X105729702Y-103217274D01*
X105659589Y-103176794D01*
X105659588Y-103176793D01*
X105659587Y-103176793D01*
X105557727Y-103149500D01*
X105452273Y-103149500D01*
X105350413Y-103176793D01*
X105350412Y-103176793D01*
X105350410Y-103176794D01*
X105350409Y-103176794D01*
X105259089Y-103229518D01*
X105184518Y-103304089D01*
X105131794Y-103395409D01*
X105131794Y-103395410D01*
X105131793Y-103395412D01*
X105131793Y-103395413D01*
X105104500Y-103497273D01*
X94787821Y-103497273D01*
X94763207Y-103405413D01*
X94762731Y-103404589D01*
X94710481Y-103314089D01*
X94710480Y-103314087D01*
X94635913Y-103239520D01*
X94634707Y-103238824D01*
X94544589Y-103186794D01*
X94544588Y-103186793D01*
X94544587Y-103186793D01*
X94442727Y-103159500D01*
X94337273Y-103159500D01*
X94235413Y-103186793D01*
X94182619Y-103217274D01*
X94145293Y-103238824D01*
X94085444Y-103251545D01*
X94029549Y-103226658D01*
X94000167Y-103178711D01*
X93983207Y-103115413D01*
X93930480Y-103024087D01*
X93855913Y-102949520D01*
X93855910Y-102949518D01*
X93762912Y-102895825D01*
X93721971Y-102850355D01*
X93715575Y-102789505D01*
X93746168Y-102736517D01*
X93762906Y-102724356D01*
X93825913Y-102687980D01*
X93900480Y-102613413D01*
X93953207Y-102522087D01*
X93980500Y-102420227D01*
X93980500Y-102314773D01*
X93953207Y-102212913D01*
X93940255Y-102190480D01*
X93900481Y-102121589D01*
X93900480Y-102121587D01*
X93825913Y-102047020D01*
X93825910Y-102047018D01*
X93807730Y-102036521D01*
X93807728Y-102036521D01*
X93734587Y-101994293D01*
X93632727Y-101967000D01*
X93527273Y-101967000D01*
X93425413Y-101994293D01*
X93425412Y-101994293D01*
X93425410Y-101994294D01*
X93425409Y-101994294D01*
X93334089Y-102047018D01*
X93259518Y-102121589D01*
X93206794Y-102212909D01*
X93206794Y-102212910D01*
X93206793Y-102212912D01*
X93206793Y-102212913D01*
X93179500Y-102314773D01*
X91240500Y-102314773D01*
X91240500Y-102292273D01*
X91213207Y-102190413D01*
X91204544Y-102175409D01*
X91178055Y-102129529D01*
X91160480Y-102099087D01*
X91085913Y-102024520D01*
X91085007Y-102023997D01*
X90994589Y-101971794D01*
X90994588Y-101971793D01*
X90994587Y-101971793D01*
X90940397Y-101957273D01*
X97349500Y-101957273D01*
X97349500Y-102062727D01*
X97376793Y-102164587D01*
X97376794Y-102164589D01*
X97376794Y-102164590D01*
X97429518Y-102255910D01*
X97429520Y-102255913D01*
X97504087Y-102330480D01*
X97595413Y-102383207D01*
X97697273Y-102410500D01*
X97704182Y-102410500D01*
X97762373Y-102429407D01*
X97798337Y-102478907D01*
X97799799Y-102483846D01*
X97824469Y-102575913D01*
X97826794Y-102584589D01*
X97826794Y-102584590D01*
X97873497Y-102665481D01*
X97879520Y-102675913D01*
X97954087Y-102750480D01*
X98045413Y-102803207D01*
X98147273Y-102830500D01*
X98147275Y-102830500D01*
X98252724Y-102830500D01*
X98252727Y-102830500D01*
X98274753Y-102824598D01*
X98335852Y-102827800D01*
X98383402Y-102866305D01*
X98386110Y-102870725D01*
X98420055Y-102929520D01*
X98429520Y-102945913D01*
X98504087Y-103020480D01*
X98595413Y-103073207D01*
X98697273Y-103100500D01*
X98697275Y-103100500D01*
X98802725Y-103100500D01*
X98802727Y-103100500D01*
X98904587Y-103073207D01*
X98995913Y-103020480D01*
X99070480Y-102945913D01*
X99123207Y-102854587D01*
X99150500Y-102752727D01*
X99150500Y-102672188D01*
X101263982Y-102672188D01*
X101263982Y-102777642D01*
X101291275Y-102879502D01*
X101291276Y-102879504D01*
X101291276Y-102879505D01*
X101344000Y-102970825D01*
X101344002Y-102970828D01*
X101418569Y-103045395D01*
X101509895Y-103098122D01*
X101611755Y-103125415D01*
X101611757Y-103125415D01*
X101717207Y-103125415D01*
X101717209Y-103125415D01*
X101819069Y-103098122D01*
X101910395Y-103045395D01*
X101984962Y-102970828D01*
X102037689Y-102879502D01*
X102064982Y-102777642D01*
X102064982Y-102672188D01*
X102037689Y-102570328D01*
X102023304Y-102545413D01*
X101988186Y-102484587D01*
X101984962Y-102479002D01*
X101910395Y-102404435D01*
X101819069Y-102351708D01*
X101717209Y-102324415D01*
X101611755Y-102324415D01*
X101509895Y-102351708D01*
X101509894Y-102351708D01*
X101509892Y-102351709D01*
X101509891Y-102351709D01*
X101418571Y-102404433D01*
X101344000Y-102479004D01*
X101291276Y-102570324D01*
X101291276Y-102570325D01*
X101291275Y-102570327D01*
X101291275Y-102570328D01*
X101263982Y-102672188D01*
X99150500Y-102672188D01*
X99150500Y-102647273D01*
X99123207Y-102545413D01*
X99109741Y-102522090D01*
X99070481Y-102454089D01*
X99070480Y-102454087D01*
X98995913Y-102379520D01*
X98995700Y-102379397D01*
X98995580Y-102379264D01*
X98990767Y-102375571D01*
X98991451Y-102374678D01*
X98954758Y-102333930D01*
X98948361Y-102273080D01*
X98978952Y-102220091D01*
X98995692Y-102207928D01*
X99025913Y-102190480D01*
X99100480Y-102115913D01*
X99153207Y-102024587D01*
X99180500Y-101922727D01*
X99180500Y-101910613D01*
X101901375Y-101910613D01*
X101901375Y-102016067D01*
X101928668Y-102117927D01*
X101928669Y-102117929D01*
X101928669Y-102117930D01*
X101970556Y-102190480D01*
X101981395Y-102209253D01*
X102055962Y-102283820D01*
X102085058Y-102300619D01*
X102085060Y-102300620D01*
X102093355Y-102305409D01*
X102147288Y-102336547D01*
X102249148Y-102363840D01*
X102249150Y-102363840D01*
X102255416Y-102365519D01*
X102254524Y-102368844D01*
X102297074Y-102388474D01*
X102325477Y-102435528D01*
X102338125Y-102482727D01*
X102338624Y-102484589D01*
X102338624Y-102484590D01*
X102391348Y-102575910D01*
X102391350Y-102575913D01*
X102465917Y-102650480D01*
X102557243Y-102703207D01*
X102659103Y-102730500D01*
X102659105Y-102730500D01*
X102764555Y-102730500D01*
X102764557Y-102730500D01*
X102866417Y-102703207D01*
X102957743Y-102650480D01*
X103032310Y-102575913D01*
X103085037Y-102484587D01*
X103105753Y-102407273D01*
X104269500Y-102407273D01*
X104269500Y-102512727D01*
X104296793Y-102614587D01*
X104296794Y-102614589D01*
X104296794Y-102614590D01*
X104349518Y-102705910D01*
X104349520Y-102705913D01*
X104424087Y-102780480D01*
X104515413Y-102833207D01*
X104617273Y-102860500D01*
X104617275Y-102860500D01*
X104722725Y-102860500D01*
X104722727Y-102860500D01*
X104824587Y-102833207D01*
X104915913Y-102780480D01*
X104990480Y-102705913D01*
X105043207Y-102614587D01*
X105070500Y-102512727D01*
X105070500Y-102407273D01*
X105043207Y-102305413D01*
X105026960Y-102277273D01*
X104990481Y-102214089D01*
X104990480Y-102214087D01*
X104915913Y-102139520D01*
X104845995Y-102099153D01*
X104805056Y-102053685D01*
X104798660Y-101992835D01*
X104829253Y-101939847D01*
X104849372Y-101927153D01*
X104848967Y-101926452D01*
X104889228Y-101903207D01*
X104945913Y-101870480D01*
X105020480Y-101795913D01*
X105073207Y-101704587D01*
X105100500Y-101602727D01*
X105100500Y-101497273D01*
X105073207Y-101395413D01*
X105020480Y-101304087D01*
X104945913Y-101229520D01*
X104911592Y-101209705D01*
X104854589Y-101176794D01*
X104854588Y-101176793D01*
X104854587Y-101176793D01*
X104752727Y-101149500D01*
X104647273Y-101149500D01*
X104545413Y-101176793D01*
X104545412Y-101176793D01*
X104545410Y-101176794D01*
X104545409Y-101176794D01*
X104454089Y-101229518D01*
X104379518Y-101304089D01*
X104326794Y-101395409D01*
X104326794Y-101395410D01*
X104326793Y-101395412D01*
X104326793Y-101395413D01*
X104299500Y-101497273D01*
X104299500Y-101602727D01*
X104322756Y-101689520D01*
X104326794Y-101704589D01*
X104326794Y-101704590D01*
X104361145Y-101764087D01*
X104379520Y-101795913D01*
X104454087Y-101870480D01*
X104524004Y-101910846D01*
X104564943Y-101956314D01*
X104571339Y-102017164D01*
X104540746Y-102070152D01*
X104520629Y-102082849D01*
X104521033Y-102083548D01*
X104424089Y-102139518D01*
X104349518Y-102214089D01*
X104296794Y-102305409D01*
X104296794Y-102305410D01*
X104296793Y-102305412D01*
X104296793Y-102305413D01*
X104269500Y-102407273D01*
X103105753Y-102407273D01*
X103112330Y-102382727D01*
X103112330Y-102277273D01*
X103085037Y-102175413D01*
X103078788Y-102164590D01*
X103032311Y-102084089D01*
X103032310Y-102084087D01*
X102957743Y-102009520D01*
X102946952Y-102003290D01*
X102866419Y-101956794D01*
X102866418Y-101956793D01*
X102866417Y-101956793D01*
X102764557Y-101929500D01*
X102764555Y-101929500D01*
X102758289Y-101927821D01*
X102759115Y-101924736D01*
X102715586Y-101903885D01*
X102688226Y-101857809D01*
X102675082Y-101808753D01*
X102622355Y-101717427D01*
X102547788Y-101642860D01*
X102537281Y-101636794D01*
X102456464Y-101590134D01*
X102456463Y-101590133D01*
X102456462Y-101590133D01*
X102354602Y-101562840D01*
X102249148Y-101562840D01*
X102147288Y-101590133D01*
X102147287Y-101590133D01*
X102147285Y-101590134D01*
X102147284Y-101590134D01*
X102055964Y-101642858D01*
X101981393Y-101717429D01*
X101928669Y-101808749D01*
X101928669Y-101808750D01*
X101928668Y-101808752D01*
X101928668Y-101808753D01*
X101901375Y-101910613D01*
X99180500Y-101910613D01*
X99180500Y-101817273D01*
X99153207Y-101715413D01*
X99146958Y-101704590D01*
X99100481Y-101624089D01*
X99100480Y-101624087D01*
X99025913Y-101549520D01*
X98935418Y-101497273D01*
X98934589Y-101496794D01*
X98934588Y-101496793D01*
X98934587Y-101496793D01*
X98832727Y-101469500D01*
X98727273Y-101469500D01*
X98625413Y-101496793D01*
X98625412Y-101496793D01*
X98625410Y-101496794D01*
X98625409Y-101496794D01*
X98534089Y-101549518D01*
X98459518Y-101624089D01*
X98406794Y-101715409D01*
X98406794Y-101715410D01*
X98406793Y-101715412D01*
X98406793Y-101715413D01*
X98385224Y-101795913D01*
X98379500Y-101817274D01*
X98379500Y-101929216D01*
X98377977Y-101929216D01*
X98368216Y-101981880D01*
X98323833Y-102023997D01*
X98269713Y-102032970D01*
X98262551Y-102032132D01*
X98252727Y-102029500D01*
X98240045Y-102029500D01*
X98234317Y-102028830D01*
X98211505Y-102018351D01*
X98187627Y-102010593D01*
X98184126Y-102005774D01*
X98178717Y-102003290D01*
X98166422Y-101981407D01*
X98151663Y-101961093D01*
X98150200Y-101956153D01*
X98123207Y-101855413D01*
X98122475Y-101854146D01*
X98070481Y-101764089D01*
X98070480Y-101764087D01*
X97995913Y-101689520D01*
X97987372Y-101684589D01*
X97904589Y-101636794D01*
X97904588Y-101636793D01*
X97904587Y-101636793D01*
X97802727Y-101609500D01*
X97697273Y-101609500D01*
X97595413Y-101636793D01*
X97595412Y-101636793D01*
X97595410Y-101636794D01*
X97595409Y-101636794D01*
X97504089Y-101689518D01*
X97429518Y-101764089D01*
X97376794Y-101855409D01*
X97376794Y-101855410D01*
X97376793Y-101855412D01*
X97376793Y-101855413D01*
X97349500Y-101957273D01*
X90940397Y-101957273D01*
X90892727Y-101944500D01*
X90787273Y-101944500D01*
X90685413Y-101971793D01*
X90685412Y-101971793D01*
X90685410Y-101971794D01*
X90685409Y-101971794D01*
X90594089Y-102024518D01*
X90519518Y-102099089D01*
X90466794Y-102190409D01*
X90466794Y-102190410D01*
X90466793Y-102190412D01*
X90466793Y-102190413D01*
X90439500Y-102292273D01*
X89074120Y-102292273D01*
X89120480Y-102245913D01*
X89173207Y-102154587D01*
X89200500Y-102052727D01*
X89200500Y-101947273D01*
X89173207Y-101845413D01*
X89156960Y-101817273D01*
X89120481Y-101754089D01*
X89120480Y-101754087D01*
X89045913Y-101679520D01*
X88982412Y-101642858D01*
X88954589Y-101626794D01*
X88954588Y-101626793D01*
X88954587Y-101626793D01*
X88852727Y-101599500D01*
X88747273Y-101599500D01*
X88645413Y-101626793D01*
X88645412Y-101626793D01*
X88645410Y-101626794D01*
X88645409Y-101626794D01*
X88554089Y-101679518D01*
X88479518Y-101754089D01*
X88426794Y-101845409D01*
X88426794Y-101845410D01*
X88426793Y-101845412D01*
X88426793Y-101845413D01*
X88399500Y-101947273D01*
X83097902Y-101947273D01*
X83086047Y-101858848D01*
X83085532Y-101854146D01*
X83053279Y-101477273D01*
X92399500Y-101477273D01*
X92399500Y-101582727D01*
X92426793Y-101684587D01*
X92426794Y-101684589D01*
X92426794Y-101684590D01*
X92466920Y-101754089D01*
X92479520Y-101775913D01*
X92554087Y-101850480D01*
X92645413Y-101903207D01*
X92747273Y-101930500D01*
X92747275Y-101930500D01*
X92852725Y-101930500D01*
X92852727Y-101930500D01*
X92954587Y-101903207D01*
X93045913Y-101850480D01*
X93120480Y-101775913D01*
X93173207Y-101684587D01*
X93200500Y-101582727D01*
X93200500Y-101477273D01*
X93173207Y-101375413D01*
X93120480Y-101284087D01*
X93045913Y-101209520D01*
X93045910Y-101209518D01*
X92954590Y-101156794D01*
X92954583Y-101156791D01*
X92946572Y-101154645D01*
X92895258Y-101121321D01*
X92873332Y-101064199D01*
X92889168Y-101005099D01*
X92936718Y-100966594D01*
X92946566Y-100963394D01*
X92984587Y-100953207D01*
X93075913Y-100900480D01*
X93150480Y-100825913D01*
X93203207Y-100734587D01*
X93230500Y-100632727D01*
X93230500Y-100527273D01*
X93203207Y-100425413D01*
X93150480Y-100334087D01*
X93075913Y-100259520D01*
X93051127Y-100245210D01*
X92984589Y-100206794D01*
X92984588Y-100206793D01*
X92984587Y-100206793D01*
X92882727Y-100179500D01*
X92777273Y-100179500D01*
X92675413Y-100206793D01*
X92675412Y-100206793D01*
X92675410Y-100206794D01*
X92675409Y-100206794D01*
X92584089Y-100259518D01*
X92509518Y-100334089D01*
X92456794Y-100425409D01*
X92456794Y-100425410D01*
X92456793Y-100425412D01*
X92456793Y-100425413D01*
X92429500Y-100527273D01*
X92429500Y-100632727D01*
X92456793Y-100734587D01*
X92456794Y-100734589D01*
X92456794Y-100734590D01*
X92509518Y-100825910D01*
X92509520Y-100825913D01*
X92584087Y-100900480D01*
X92584089Y-100900481D01*
X92675409Y-100953205D01*
X92675413Y-100953207D01*
X92683424Y-100955353D01*
X92734738Y-100988674D01*
X92756667Y-101045795D01*
X92740833Y-101104896D01*
X92693285Y-101143403D01*
X92683428Y-101146606D01*
X92645415Y-101156792D01*
X92645409Y-101156794D01*
X92554089Y-101209518D01*
X92479518Y-101284089D01*
X92426794Y-101375409D01*
X92426794Y-101375410D01*
X92426793Y-101375412D01*
X92426793Y-101375413D01*
X92399500Y-101477273D01*
X83053279Y-101477273D01*
X83016442Y-101046842D01*
X83016155Y-101042180D01*
X83003224Y-100697273D01*
X88399500Y-100697273D01*
X88399500Y-100802727D01*
X88425693Y-100900480D01*
X88426794Y-100904589D01*
X88426794Y-100904590D01*
X88476735Y-100991089D01*
X88479520Y-100995913D01*
X88554087Y-101070480D01*
X88645413Y-101123207D01*
X88747273Y-101150500D01*
X88747275Y-101150500D01*
X88852725Y-101150500D01*
X88852727Y-101150500D01*
X88954587Y-101123207D01*
X89045913Y-101070480D01*
X89120480Y-100995913D01*
X89173207Y-100904587D01*
X89200500Y-100802727D01*
X89200500Y-100697273D01*
X89173207Y-100595413D01*
X89169802Y-100589516D01*
X89128916Y-100518698D01*
X89120480Y-100504087D01*
X89045913Y-100429520D01*
X89038799Y-100425413D01*
X88954589Y-100376794D01*
X88954588Y-100376793D01*
X88954587Y-100376793D01*
X88852727Y-100349500D01*
X88747273Y-100349500D01*
X88645413Y-100376793D01*
X88645412Y-100376793D01*
X88645410Y-100376794D01*
X88645409Y-100376794D01*
X88554089Y-100429518D01*
X88479518Y-100504089D01*
X88426794Y-100595409D01*
X88426794Y-100595410D01*
X88426793Y-100595412D01*
X88426793Y-100595413D01*
X88399500Y-100697273D01*
X83003224Y-100697273D01*
X82985797Y-100232418D01*
X82985734Y-100227739D01*
X82990927Y-99729773D01*
X93169500Y-99729773D01*
X93169500Y-99835227D01*
X93196793Y-99937087D01*
X93196794Y-99937089D01*
X93196794Y-99937090D01*
X93242301Y-100015910D01*
X93249520Y-100028413D01*
X93324087Y-100102980D01*
X93415413Y-100155707D01*
X93517273Y-100183000D01*
X93517275Y-100183000D01*
X93622725Y-100183000D01*
X93622727Y-100183000D01*
X93724587Y-100155707D01*
X93815913Y-100102980D01*
X93890480Y-100028413D01*
X93943207Y-99937087D01*
X93943363Y-99936505D01*
X95169500Y-99936505D01*
X95169500Y-100041959D01*
X95196629Y-100143207D01*
X95196794Y-100143821D01*
X95196794Y-100143822D01*
X95245226Y-100227708D01*
X95249520Y-100235145D01*
X95324087Y-100309712D01*
X95415413Y-100362439D01*
X95517273Y-100389732D01*
X95517275Y-100389732D01*
X95622725Y-100389732D01*
X95622727Y-100389732D01*
X95724587Y-100362439D01*
X95815913Y-100309712D01*
X95890480Y-100235145D01*
X95943207Y-100143819D01*
X95970500Y-100041959D01*
X95970500Y-99936505D01*
X95943207Y-99834645D01*
X95890480Y-99743319D01*
X95864434Y-99717273D01*
X96989500Y-99717273D01*
X96989500Y-99822727D01*
X97016793Y-99924587D01*
X97016794Y-99924589D01*
X97016794Y-99924590D01*
X97062692Y-100004087D01*
X97069520Y-100015913D01*
X97144087Y-100090480D01*
X97235413Y-100143207D01*
X97239923Y-100144415D01*
X97291237Y-100177734D01*
X97313168Y-100234854D01*
X97309932Y-100265660D01*
X97309500Y-100267273D01*
X97309500Y-100372727D01*
X97336793Y-100474587D01*
X97336794Y-100474589D01*
X97336794Y-100474590D01*
X97372740Y-100536850D01*
X97389520Y-100565913D01*
X97464087Y-100640480D01*
X97555413Y-100693207D01*
X97657273Y-100720500D01*
X97657275Y-100720500D01*
X97762725Y-100720500D01*
X97762727Y-100720500D01*
X97864587Y-100693207D01*
X97955913Y-100640480D01*
X98030480Y-100565913D01*
X98083207Y-100474587D01*
X98110500Y-100372727D01*
X98110500Y-100267273D01*
X98083207Y-100165413D01*
X98077603Y-100155707D01*
X98030481Y-100074089D01*
X98030480Y-100074087D01*
X97955913Y-99999520D01*
X97934228Y-99987000D01*
X97864590Y-99946794D01*
X97864589Y-99946793D01*
X97860065Y-99945581D01*
X97808753Y-99912252D01*
X97786831Y-99855129D01*
X97790071Y-99824328D01*
X97790500Y-99822727D01*
X97790500Y-99717274D01*
X97790500Y-99717273D01*
X97763207Y-99615413D01*
X97713439Y-99529213D01*
X97700719Y-99469367D01*
X97725606Y-99413471D01*
X97729157Y-99409728D01*
X97740007Y-99398879D01*
X97792734Y-99307553D01*
X97819604Y-99207273D01*
X101369500Y-99207273D01*
X101369500Y-99312727D01*
X101395375Y-99409294D01*
X101396794Y-99414589D01*
X101396794Y-99414590D01*
X101449518Y-99505910D01*
X101449520Y-99505913D01*
X101524087Y-99580480D01*
X101615413Y-99633207D01*
X101717273Y-99660500D01*
X101717275Y-99660500D01*
X101800084Y-99660500D01*
X101858275Y-99679407D01*
X101894239Y-99728907D01*
X101894239Y-99790093D01*
X101885822Y-99808995D01*
X101880805Y-99817684D01*
X101876793Y-99824634D01*
X101868943Y-99853933D01*
X101849500Y-99926495D01*
X101849500Y-100031949D01*
X101868533Y-100102981D01*
X101876794Y-100133811D01*
X101876794Y-100133812D01*
X101929518Y-100225132D01*
X101929520Y-100225135D01*
X102004087Y-100299702D01*
X102095413Y-100352429D01*
X102197273Y-100379722D01*
X102197275Y-100379722D01*
X102302726Y-100379722D01*
X102302727Y-100379722D01*
X102324361Y-100373925D01*
X102327058Y-100374066D01*
X102329399Y-100372715D01*
X102357375Y-100375654D01*
X102385460Y-100377126D01*
X102387559Y-100378826D01*
X102390250Y-100379109D01*
X102411160Y-100397936D01*
X102433011Y-100415630D01*
X102435720Y-100420050D01*
X102458122Y-100458850D01*
X102470844Y-100518698D01*
X102445958Y-100574594D01*
X102432657Y-100586890D01*
X102429234Y-100589516D01*
X102354659Y-100664091D01*
X102301935Y-100755411D01*
X102301935Y-100755412D01*
X102301934Y-100755414D01*
X102301934Y-100755415D01*
X102274641Y-100857275D01*
X102274641Y-100962729D01*
X102301934Y-101064589D01*
X102301935Y-101064591D01*
X102301935Y-101064592D01*
X102354659Y-101155912D01*
X102354661Y-101155915D01*
X102429228Y-101230482D01*
X102520554Y-101283209D01*
X102622414Y-101310502D01*
X102622416Y-101310502D01*
X102727866Y-101310502D01*
X102727868Y-101310502D01*
X102829728Y-101283209D01*
X102921054Y-101230482D01*
X102995621Y-101155915D01*
X103048348Y-101064589D01*
X103075641Y-100962729D01*
X103075641Y-100857275D01*
X103055946Y-100783773D01*
X110923385Y-100783773D01*
X110923385Y-100889227D01*
X110950678Y-100991087D01*
X110950679Y-100991089D01*
X110950679Y-100991090D01*
X110993114Y-101064589D01*
X111003405Y-101082413D01*
X111077972Y-101156980D01*
X111169298Y-101209707D01*
X111271158Y-101237000D01*
X111271160Y-101237000D01*
X111376610Y-101237000D01*
X111376612Y-101237000D01*
X111478472Y-101209707D01*
X111569798Y-101156980D01*
X111644365Y-101082413D01*
X111697092Y-100991087D01*
X111724385Y-100889227D01*
X111724385Y-100783773D01*
X111697092Y-100681913D01*
X111686802Y-100664091D01*
X111647151Y-100595413D01*
X111644365Y-100590587D01*
X111569798Y-100516020D01*
X111549129Y-100504087D01*
X111478474Y-100463294D01*
X111478473Y-100463293D01*
X111478472Y-100463293D01*
X111376612Y-100436000D01*
X111271158Y-100436000D01*
X111169298Y-100463293D01*
X111169297Y-100463293D01*
X111169295Y-100463294D01*
X111169294Y-100463294D01*
X111077974Y-100516018D01*
X111003403Y-100590589D01*
X110950679Y-100681909D01*
X110950679Y-100681910D01*
X110950678Y-100681912D01*
X110950678Y-100681913D01*
X110923385Y-100783773D01*
X103055946Y-100783773D01*
X103048348Y-100755415D01*
X103014092Y-100696082D01*
X103011786Y-100690711D01*
X103009501Y-100665788D01*
X103004296Y-100641302D01*
X103006750Y-100635788D01*
X103006200Y-100629781D01*
X103018999Y-100608276D01*
X103029182Y-100585406D01*
X103036806Y-100578358D01*
X103037494Y-100577204D01*
X103038543Y-100576753D01*
X103042493Y-100573103D01*
X103045903Y-100570485D01*
X103045913Y-100570480D01*
X103120480Y-100495913D01*
X103173207Y-100404587D01*
X103200500Y-100302727D01*
X103200500Y-100197273D01*
X103173207Y-100095413D01*
X103160894Y-100074087D01*
X103120481Y-100004089D01*
X103120480Y-100004087D01*
X103045913Y-99929520D01*
X103040675Y-99926496D01*
X102954589Y-99876794D01*
X102954588Y-99876793D01*
X102954587Y-99876793D01*
X102852727Y-99849500D01*
X102747273Y-99849500D01*
X102747268Y-99849500D01*
X102725634Y-99855297D01*
X102697722Y-99853833D01*
X102669756Y-99853933D01*
X102667680Y-99852258D01*
X102664533Y-99852093D01*
X102620129Y-99818145D01*
X102616962Y-99813818D01*
X102570480Y-99733309D01*
X102524025Y-99686854D01*
X102519527Y-99680709D01*
X102512233Y-99658529D01*
X102501631Y-99637721D01*
X102502852Y-99630005D01*
X102500413Y-99622586D01*
X102507548Y-99600355D01*
X102511202Y-99577289D01*
X102516726Y-99571764D01*
X102519113Y-99564329D01*
X102537952Y-99550538D01*
X102554467Y-99534024D01*
X102555121Y-99533773D01*
X110923385Y-99533773D01*
X110923385Y-99639227D01*
X110947647Y-99729774D01*
X110950679Y-99741089D01*
X110950679Y-99741090D01*
X110998914Y-99824635D01*
X111003405Y-99832413D01*
X111077972Y-99906980D01*
X111169298Y-99959707D01*
X111271158Y-99987000D01*
X111271160Y-99987000D01*
X111376610Y-99987000D01*
X111376612Y-99987000D01*
X111478472Y-99959707D01*
X111569798Y-99906980D01*
X111644365Y-99832413D01*
X111697092Y-99741087D01*
X111724385Y-99639227D01*
X111724385Y-99533773D01*
X111697092Y-99431913D01*
X111684032Y-99409293D01*
X111644366Y-99340589D01*
X111644365Y-99340587D01*
X111569798Y-99266020D01*
X111564922Y-99263205D01*
X111478474Y-99213294D01*
X111478473Y-99213293D01*
X111478472Y-99213293D01*
X111376612Y-99186000D01*
X111271158Y-99186000D01*
X111169298Y-99213293D01*
X111169297Y-99213293D01*
X111169295Y-99213294D01*
X111169294Y-99213294D01*
X111077974Y-99266018D01*
X111003403Y-99340589D01*
X110950679Y-99431909D01*
X110950679Y-99431910D01*
X110950678Y-99431912D01*
X110950678Y-99431913D01*
X110923385Y-99533773D01*
X102555121Y-99533773D01*
X102567177Y-99529145D01*
X102568485Y-99528189D01*
X102569637Y-99528184D01*
X102572806Y-99526871D01*
X102572812Y-99526870D01*
X102664138Y-99474143D01*
X102738705Y-99399576D01*
X102791432Y-99308250D01*
X102818725Y-99206390D01*
X102818725Y-99100936D01*
X102791432Y-98999076D01*
X102791028Y-98998377D01*
X102738706Y-98907752D01*
X102738705Y-98907750D01*
X102664138Y-98833183D01*
X102649987Y-98825013D01*
X102572814Y-98780457D01*
X102572813Y-98780456D01*
X102572812Y-98780456D01*
X102470952Y-98753163D01*
X102365498Y-98753163D01*
X102263638Y-98780456D01*
X102263637Y-98780456D01*
X102263635Y-98780457D01*
X102263634Y-98780457D01*
X102172312Y-98833182D01*
X102101365Y-98904128D01*
X102046848Y-98931905D01*
X101986416Y-98922333D01*
X101981871Y-98919866D01*
X101924587Y-98886793D01*
X101822727Y-98859500D01*
X101717273Y-98859500D01*
X101615413Y-98886793D01*
X101615412Y-98886793D01*
X101615410Y-98886794D01*
X101615409Y-98886794D01*
X101524089Y-98939518D01*
X101449518Y-99014089D01*
X101396794Y-99105409D01*
X101396794Y-99105410D01*
X101396793Y-99105412D01*
X101396793Y-99105413D01*
X101369500Y-99207273D01*
X97819604Y-99207273D01*
X97820027Y-99205693D01*
X97820027Y-99100239D01*
X97792734Y-98998379D01*
X97764575Y-98949607D01*
X97751854Y-98889760D01*
X97764576Y-98850608D01*
X97779747Y-98824330D01*
X97817968Y-98758130D01*
X97845261Y-98656270D01*
X97845261Y-98550816D01*
X97817968Y-98448956D01*
X97775510Y-98375416D01*
X97765241Y-98357629D01*
X97764454Y-98356604D01*
X97764145Y-98355731D01*
X97761997Y-98352011D01*
X97762686Y-98351612D01*
X97744034Y-98298927D01*
X97757264Y-98246842D01*
X97769347Y-98225913D01*
X97793207Y-98184587D01*
X97820500Y-98082727D01*
X97820500Y-97977273D01*
X97793207Y-97875413D01*
X97740480Y-97784087D01*
X97665913Y-97709520D01*
X97591434Y-97666519D01*
X97591433Y-97666518D01*
X97574589Y-97656794D01*
X97574588Y-97656793D01*
X97574587Y-97656793D01*
X97472727Y-97629500D01*
X97367273Y-97629500D01*
X97265413Y-97656793D01*
X97265412Y-97656793D01*
X97265410Y-97656794D01*
X97265409Y-97656794D01*
X97174089Y-97709518D01*
X97099518Y-97784089D01*
X97046794Y-97875409D01*
X97046794Y-97875410D01*
X97046793Y-97875412D01*
X97046793Y-97875413D01*
X97019500Y-97977273D01*
X97019500Y-98082727D01*
X97046793Y-98184587D01*
X97046794Y-98184589D01*
X97046794Y-98184590D01*
X97099522Y-98275917D01*
X97100307Y-98276940D01*
X97100614Y-98277809D01*
X97102764Y-98281532D01*
X97102073Y-98281930D01*
X97120726Y-98334617D01*
X97107497Y-98386699D01*
X97071554Y-98448954D01*
X97063965Y-98477277D01*
X97044261Y-98550816D01*
X97044261Y-98656270D01*
X97051850Y-98684592D01*
X97071554Y-98758131D01*
X97099712Y-98806902D01*
X97112433Y-98866750D01*
X97099712Y-98905900D01*
X97046320Y-98998377D01*
X97033939Y-99044587D01*
X97019027Y-99100239D01*
X97019027Y-99205693D01*
X97046320Y-99307553D01*
X97089302Y-99382000D01*
X97096086Y-99393750D01*
X97108807Y-99453599D01*
X97083920Y-99509494D01*
X97080355Y-99513251D01*
X97069520Y-99524086D01*
X97016794Y-99615409D01*
X97016794Y-99615410D01*
X97016793Y-99615412D01*
X97016793Y-99615413D01*
X96989500Y-99717273D01*
X95864434Y-99717273D01*
X95815913Y-99668752D01*
X95815677Y-99668616D01*
X95724589Y-99616026D01*
X95724588Y-99616025D01*
X95724587Y-99616025D01*
X95622727Y-99588732D01*
X95517273Y-99588732D01*
X95415413Y-99616025D01*
X95415412Y-99616025D01*
X95415410Y-99616026D01*
X95415409Y-99616026D01*
X95324089Y-99668750D01*
X95249518Y-99743321D01*
X95196794Y-99834641D01*
X95196794Y-99834642D01*
X95196793Y-99834644D01*
X95196793Y-99834645D01*
X95169500Y-99936505D01*
X93943363Y-99936505D01*
X93970500Y-99835227D01*
X93970500Y-99729773D01*
X93943207Y-99627913D01*
X93940131Y-99622586D01*
X93890481Y-99536589D01*
X93890480Y-99536587D01*
X93815913Y-99462020D01*
X93807703Y-99457280D01*
X93724589Y-99409294D01*
X93724588Y-99409293D01*
X93724587Y-99409293D01*
X93622727Y-99382000D01*
X93517273Y-99382000D01*
X93415413Y-99409293D01*
X93415412Y-99409293D01*
X93415410Y-99409294D01*
X93415409Y-99409294D01*
X93324089Y-99462018D01*
X93249518Y-99536589D01*
X93196794Y-99627909D01*
X93196794Y-99627910D01*
X93196793Y-99627912D01*
X93196793Y-99627913D01*
X93169500Y-99729773D01*
X82990927Y-99729773D01*
X82994183Y-99417499D01*
X82994346Y-99412772D01*
X82995117Y-99399573D01*
X83027952Y-98837273D01*
X90529500Y-98837273D01*
X90529500Y-98942727D01*
X90556793Y-99044587D01*
X90556794Y-99044589D01*
X90556794Y-99044590D01*
X90609518Y-99135910D01*
X90609520Y-99135913D01*
X90684087Y-99210480D01*
X90775413Y-99263207D01*
X90877273Y-99290500D01*
X90877275Y-99290500D01*
X90982725Y-99290500D01*
X90982727Y-99290500D01*
X91084587Y-99263207D01*
X91175913Y-99210480D01*
X91250480Y-99135913D01*
X91303207Y-99044587D01*
X91330500Y-98942727D01*
X91330500Y-98837273D01*
X91303207Y-98735413D01*
X91250480Y-98644087D01*
X91175913Y-98569520D01*
X91169665Y-98565913D01*
X91084589Y-98516794D01*
X91084588Y-98516793D01*
X91084587Y-98516793D01*
X90982727Y-98489500D01*
X90877273Y-98489500D01*
X90775413Y-98516793D01*
X90775412Y-98516793D01*
X90775410Y-98516794D01*
X90775409Y-98516794D01*
X90684089Y-98569518D01*
X90609518Y-98644089D01*
X90556794Y-98735409D01*
X90556794Y-98735410D01*
X90556793Y-98735412D01*
X90556793Y-98735413D01*
X90529500Y-98837273D01*
X83027952Y-98837273D01*
X83041580Y-98603899D01*
X83041970Y-98599176D01*
X83045517Y-98565910D01*
X83113614Y-97927273D01*
X91839500Y-97927273D01*
X91839500Y-98032727D01*
X91866793Y-98134587D01*
X91866794Y-98134589D01*
X91866794Y-98134590D01*
X91907735Y-98205501D01*
X91920457Y-98265349D01*
X91907736Y-98304499D01*
X91866793Y-98375416D01*
X91839500Y-98477276D01*
X91839500Y-98582730D01*
X91859205Y-98656270D01*
X91866794Y-98684592D01*
X91866794Y-98684593D01*
X91909252Y-98758132D01*
X91919520Y-98775916D01*
X91994087Y-98850483D01*
X92085413Y-98903210D01*
X92187273Y-98930503D01*
X92187275Y-98930503D01*
X92292725Y-98930503D01*
X92292727Y-98930503D01*
X92394587Y-98903210D01*
X92485913Y-98850483D01*
X92560480Y-98775916D01*
X92613207Y-98684590D01*
X92640500Y-98582730D01*
X92640500Y-98477276D01*
X92613207Y-98375416D01*
X92572263Y-98304500D01*
X92559542Y-98244653D01*
X92572262Y-98205505D01*
X92613207Y-98134587D01*
X92640500Y-98032727D01*
X92640500Y-97927273D01*
X92613207Y-97825413D01*
X92613059Y-97825157D01*
X92560481Y-97734089D01*
X92560480Y-97734087D01*
X92485913Y-97659520D01*
X92481191Y-97656794D01*
X92394589Y-97606794D01*
X92394588Y-97606793D01*
X92394587Y-97606793D01*
X92321737Y-97587273D01*
X98219500Y-97587273D01*
X98219500Y-97692727D01*
X98246501Y-97793496D01*
X98246794Y-97794589D01*
X98246794Y-97794590D01*
X98293456Y-97875410D01*
X98299520Y-97885913D01*
X98374087Y-97960480D01*
X98465413Y-98013207D01*
X98567273Y-98040500D01*
X98567275Y-98040500D01*
X98672725Y-98040500D01*
X98672727Y-98040500D01*
X98774587Y-98013207D01*
X98865913Y-97960480D01*
X98879120Y-97947273D01*
X100799500Y-97947273D01*
X100799500Y-98052727D01*
X100821435Y-98134589D01*
X100826794Y-98154589D01*
X100826794Y-98154590D01*
X100879518Y-98245910D01*
X100879520Y-98245913D01*
X100954087Y-98320480D01*
X101045413Y-98373207D01*
X101147273Y-98400500D01*
X101147275Y-98400500D01*
X101252725Y-98400500D01*
X101252727Y-98400500D01*
X101354587Y-98373207D01*
X101445913Y-98320480D01*
X101499120Y-98267273D01*
X106879500Y-98267273D01*
X106879500Y-98372727D01*
X106906793Y-98474587D01*
X106906794Y-98474589D01*
X106906794Y-98474590D01*
X106950804Y-98550817D01*
X106959520Y-98565913D01*
X107034087Y-98640480D01*
X107125413Y-98693207D01*
X107227273Y-98720500D01*
X107227275Y-98720500D01*
X107332725Y-98720500D01*
X107332727Y-98720500D01*
X107434587Y-98693207D01*
X107525913Y-98640480D01*
X107600480Y-98565913D01*
X107653207Y-98474587D01*
X107680500Y-98372727D01*
X107680500Y-98267273D01*
X107653207Y-98165413D01*
X107646958Y-98154590D01*
X107600481Y-98074089D01*
X107600480Y-98074087D01*
X107525913Y-97999520D01*
X107524910Y-97998941D01*
X107434589Y-97946794D01*
X107434588Y-97946793D01*
X107434587Y-97946793D01*
X107332727Y-97919500D01*
X107227273Y-97919500D01*
X107125413Y-97946793D01*
X107125412Y-97946793D01*
X107125410Y-97946794D01*
X107125409Y-97946794D01*
X107034089Y-97999518D01*
X106959518Y-98074089D01*
X106906794Y-98165409D01*
X106906794Y-98165410D01*
X106906793Y-98165412D01*
X106906793Y-98165413D01*
X106879500Y-98267273D01*
X101499120Y-98267273D01*
X101520480Y-98245913D01*
X101573207Y-98154587D01*
X101600500Y-98052727D01*
X101600500Y-97947273D01*
X101573207Y-97845413D01*
X101555411Y-97814590D01*
X101520481Y-97754089D01*
X101520480Y-97754087D01*
X101445913Y-97679520D01*
X101398686Y-97652253D01*
X101398685Y-97652252D01*
X101354589Y-97626794D01*
X101354588Y-97626793D01*
X101354587Y-97626793D01*
X101252727Y-97599500D01*
X101147273Y-97599500D01*
X101045413Y-97626793D01*
X101045412Y-97626793D01*
X101045410Y-97626794D01*
X101045409Y-97626794D01*
X100954089Y-97679518D01*
X100879518Y-97754089D01*
X100826794Y-97845409D01*
X100826794Y-97845410D01*
X100826793Y-97845412D01*
X100826793Y-97845413D01*
X100799500Y-97947273D01*
X98879120Y-97947273D01*
X98940480Y-97885913D01*
X98993207Y-97794587D01*
X99020500Y-97692727D01*
X99020500Y-97587273D01*
X98993207Y-97485413D01*
X98980386Y-97463207D01*
X98940481Y-97394089D01*
X98940480Y-97394087D01*
X98865913Y-97319520D01*
X98850288Y-97310499D01*
X98784077Y-97272272D01*
X99886389Y-97272272D01*
X99886389Y-97377726D01*
X99909832Y-97465217D01*
X99913683Y-97479588D01*
X99913683Y-97479589D01*
X99928593Y-97505413D01*
X99966409Y-97570912D01*
X100040976Y-97645479D01*
X100132302Y-97698206D01*
X100234162Y-97725499D01*
X100234164Y-97725499D01*
X100339614Y-97725499D01*
X100339616Y-97725499D01*
X100441476Y-97698206D01*
X100532802Y-97645479D01*
X100605274Y-97573007D01*
X101883766Y-97573007D01*
X101883766Y-97678461D01*
X101911059Y-97780321D01*
X101911060Y-97780323D01*
X101911060Y-97780324D01*
X101954049Y-97854782D01*
X101963786Y-97871647D01*
X102038353Y-97946214D01*
X102129679Y-97998941D01*
X102231539Y-98026234D01*
X102231541Y-98026234D01*
X102336991Y-98026234D01*
X102336993Y-98026234D01*
X102438853Y-97998941D01*
X102530179Y-97946214D01*
X102604746Y-97871647D01*
X102657473Y-97780321D01*
X102684766Y-97678461D01*
X102684766Y-97573007D01*
X102657473Y-97471147D01*
X102654049Y-97465217D01*
X102604747Y-97379823D01*
X102604746Y-97379821D01*
X102530179Y-97305254D01*
X102474157Y-97272910D01*
X102438855Y-97252528D01*
X102438854Y-97252527D01*
X102438853Y-97252527D01*
X102336993Y-97225234D01*
X102231539Y-97225234D01*
X102129679Y-97252527D01*
X102129678Y-97252527D01*
X102129676Y-97252528D01*
X102129675Y-97252528D01*
X102038355Y-97305252D01*
X101963784Y-97379823D01*
X101911060Y-97471143D01*
X101911060Y-97471144D01*
X101911059Y-97471146D01*
X101911059Y-97471147D01*
X101883766Y-97573007D01*
X100605274Y-97573007D01*
X100607369Y-97570912D01*
X100660096Y-97479586D01*
X100687389Y-97377726D01*
X100687389Y-97272272D01*
X100660096Y-97170412D01*
X100607369Y-97079086D01*
X100532802Y-97004519D01*
X100526232Y-97000726D01*
X100441478Y-96951793D01*
X100441477Y-96951792D01*
X100441476Y-96951792D01*
X100339616Y-96924499D01*
X100234162Y-96924499D01*
X100132302Y-96951792D01*
X100132301Y-96951792D01*
X100132299Y-96951793D01*
X100132298Y-96951793D01*
X100040978Y-97004517D01*
X99966407Y-97079088D01*
X99913683Y-97170408D01*
X99913683Y-97170409D01*
X99913682Y-97170411D01*
X99913682Y-97170412D01*
X99886389Y-97272272D01*
X98784077Y-97272272D01*
X98774589Y-97266794D01*
X98774588Y-97266793D01*
X98774587Y-97266793D01*
X98672727Y-97239500D01*
X98567273Y-97239500D01*
X98465413Y-97266793D01*
X98465412Y-97266793D01*
X98465410Y-97266794D01*
X98465409Y-97266794D01*
X98374089Y-97319518D01*
X98299518Y-97394089D01*
X98246794Y-97485409D01*
X98246794Y-97485410D01*
X98246793Y-97485412D01*
X98246793Y-97485413D01*
X98219500Y-97587273D01*
X92321737Y-97587273D01*
X92292727Y-97579500D01*
X92187273Y-97579500D01*
X92085413Y-97606793D01*
X92085412Y-97606793D01*
X92085410Y-97606794D01*
X92085409Y-97606794D01*
X91994089Y-97659518D01*
X91919518Y-97734089D01*
X91866794Y-97825409D01*
X91866794Y-97825410D01*
X91866793Y-97825412D01*
X91866793Y-97825413D01*
X91839500Y-97927273D01*
X83113614Y-97927273D01*
X83127881Y-97793474D01*
X83128491Y-97788817D01*
X83192818Y-97374773D01*
X90949500Y-97374773D01*
X90949500Y-97480227D01*
X90976100Y-97579500D01*
X90976794Y-97582089D01*
X90976794Y-97582090D01*
X91021499Y-97659520D01*
X91029520Y-97673413D01*
X91104087Y-97747980D01*
X91195413Y-97800707D01*
X91297273Y-97828000D01*
X91297275Y-97828000D01*
X91402726Y-97828000D01*
X91402727Y-97828000D01*
X91504587Y-97800707D01*
X91595913Y-97747980D01*
X91670480Y-97673413D01*
X91723207Y-97582087D01*
X91750500Y-97480227D01*
X91750500Y-97374773D01*
X91723207Y-97272913D01*
X91722837Y-97272273D01*
X91670481Y-97181589D01*
X91670480Y-97181587D01*
X91595913Y-97107020D01*
X91547533Y-97079088D01*
X91504589Y-97054294D01*
X91504588Y-97054293D01*
X91504587Y-97054293D01*
X91402727Y-97027000D01*
X91297273Y-97027000D01*
X91195413Y-97054293D01*
X91195412Y-97054293D01*
X91195410Y-97054294D01*
X91195409Y-97054294D01*
X91104089Y-97107018D01*
X91029518Y-97181589D01*
X90976794Y-97272909D01*
X90976794Y-97272910D01*
X90976793Y-97272912D01*
X90976793Y-97272913D01*
X90949500Y-97374773D01*
X83192818Y-97374773D01*
X83252886Y-96988143D01*
X83253718Y-96983520D01*
X83388133Y-96327273D01*
X96049500Y-96327273D01*
X96049500Y-96432727D01*
X96070936Y-96512727D01*
X96076794Y-96534589D01*
X96076794Y-96534590D01*
X96129518Y-96625910D01*
X96129520Y-96625913D01*
X96204087Y-96700480D01*
X96295413Y-96753207D01*
X96397273Y-96780500D01*
X96397275Y-96780500D01*
X96502725Y-96780500D01*
X96502727Y-96780500D01*
X96604587Y-96753207D01*
X96695913Y-96700480D01*
X96770480Y-96625913D01*
X96823207Y-96534587D01*
X96833205Y-96497273D01*
X102999500Y-96497273D01*
X102999500Y-96602727D01*
X103025693Y-96700480D01*
X103026794Y-96704589D01*
X103026794Y-96704590D01*
X103079518Y-96795910D01*
X103079520Y-96795913D01*
X103154087Y-96870480D01*
X103245413Y-96923207D01*
X103347273Y-96950500D01*
X103347275Y-96950500D01*
X103452725Y-96950500D01*
X103452727Y-96950500D01*
X103554587Y-96923207D01*
X103645913Y-96870480D01*
X103720480Y-96795913D01*
X103773207Y-96704587D01*
X103800500Y-96602727D01*
X103800500Y-96522021D01*
X103819407Y-96463830D01*
X103868907Y-96427866D01*
X103925122Y-96426395D01*
X103949773Y-96433000D01*
X103949774Y-96433000D01*
X104055225Y-96433000D01*
X104055227Y-96433000D01*
X104157087Y-96405707D01*
X104248413Y-96352980D01*
X104322980Y-96278413D01*
X104375707Y-96187087D01*
X104378337Y-96177273D01*
X107689500Y-96177273D01*
X107689500Y-96282727D01*
X107712685Y-96369255D01*
X107716794Y-96384589D01*
X107716794Y-96384590D01*
X107744744Y-96433000D01*
X107769520Y-96475913D01*
X107844087Y-96550480D01*
X107844089Y-96550481D01*
X107935409Y-96603205D01*
X107935410Y-96603205D01*
X107935413Y-96603207D01*
X108002434Y-96621165D01*
X108053746Y-96654486D01*
X108075673Y-96711607D01*
X108059838Y-96770708D01*
X108046813Y-96786793D01*
X107989519Y-96844087D01*
X107936794Y-96935409D01*
X107936794Y-96935410D01*
X107936793Y-96935412D01*
X107936793Y-96935413D01*
X107909500Y-97037273D01*
X107909500Y-97142727D01*
X107935430Y-97239500D01*
X107936794Y-97244589D01*
X107936794Y-97244590D01*
X107989518Y-97335910D01*
X107989520Y-97335913D01*
X108064087Y-97410480D01*
X108155413Y-97463207D01*
X108257273Y-97490500D01*
X108257275Y-97490500D01*
X108362725Y-97490500D01*
X108362727Y-97490500D01*
X108464587Y-97463207D01*
X108555913Y-97410480D01*
X108630480Y-97335913D01*
X108683207Y-97244587D01*
X108710500Y-97142727D01*
X108710500Y-97037273D01*
X108683207Y-96935413D01*
X108630480Y-96844087D01*
X108555913Y-96769520D01*
X108464587Y-96716793D01*
X108397565Y-96698834D01*
X108346253Y-96665512D01*
X108324326Y-96608391D01*
X108340161Y-96549290D01*
X108353182Y-96533210D01*
X108410480Y-96475913D01*
X108463207Y-96384587D01*
X108490500Y-96282727D01*
X108490500Y-96177273D01*
X108463207Y-96075413D01*
X108454584Y-96060478D01*
X108410481Y-95984089D01*
X108410480Y-95984087D01*
X108335913Y-95909520D01*
X108320255Y-95900480D01*
X108244589Y-95856794D01*
X108244588Y-95856793D01*
X108244587Y-95856793D01*
X108142727Y-95829500D01*
X108037273Y-95829500D01*
X107935413Y-95856793D01*
X107935412Y-95856793D01*
X107935410Y-95856794D01*
X107935409Y-95856794D01*
X107844089Y-95909518D01*
X107769518Y-95984089D01*
X107716794Y-96075409D01*
X107716794Y-96075410D01*
X107716793Y-96075412D01*
X107716793Y-96075413D01*
X107689500Y-96177273D01*
X104378337Y-96177273D01*
X104403000Y-96085227D01*
X104403000Y-95979773D01*
X104375707Y-95877913D01*
X104363513Y-95856793D01*
X104322981Y-95786589D01*
X104322980Y-95786587D01*
X104248413Y-95712020D01*
X104236969Y-95705413D01*
X104157089Y-95659294D01*
X104157088Y-95659293D01*
X104157087Y-95659293D01*
X104055227Y-95632000D01*
X103949773Y-95632000D01*
X103847913Y-95659293D01*
X103847912Y-95659293D01*
X103847910Y-95659294D01*
X103847909Y-95659294D01*
X103756589Y-95712018D01*
X103682018Y-95786589D01*
X103629294Y-95877909D01*
X103629294Y-95877910D01*
X103629293Y-95877912D01*
X103629293Y-95877913D01*
X103609119Y-95953207D01*
X103602000Y-95979774D01*
X103602000Y-96060478D01*
X103583093Y-96118669D01*
X103533593Y-96154633D01*
X103477378Y-96156105D01*
X103468847Y-96153819D01*
X103452727Y-96149500D01*
X103347273Y-96149500D01*
X103245413Y-96176793D01*
X103245412Y-96176793D01*
X103245410Y-96176794D01*
X103245409Y-96176794D01*
X103154089Y-96229518D01*
X103079518Y-96304089D01*
X103026794Y-96395409D01*
X103026794Y-96395410D01*
X103026793Y-96395412D01*
X103026793Y-96395413D01*
X102999500Y-96497273D01*
X96833205Y-96497273D01*
X96850500Y-96432727D01*
X96850500Y-96327273D01*
X96823207Y-96225413D01*
X96770480Y-96134087D01*
X96695913Y-96059520D01*
X96604587Y-96006793D01*
X96502727Y-95979500D01*
X96397273Y-95979500D01*
X96295413Y-96006793D01*
X96295412Y-96006793D01*
X96295410Y-96006794D01*
X96295409Y-96006794D01*
X96204089Y-96059518D01*
X96129518Y-96134089D01*
X96076794Y-96225409D01*
X96076794Y-96225410D01*
X96076793Y-96225412D01*
X96076793Y-96225413D01*
X96049500Y-96327273D01*
X83388133Y-96327273D01*
X83416315Y-96189681D01*
X83417358Y-96185144D01*
X83585291Y-95527273D01*
X88789500Y-95527273D01*
X88789500Y-95632727D01*
X88816793Y-95734587D01*
X88816794Y-95734589D01*
X88816794Y-95734590D01*
X88869518Y-95825910D01*
X88869520Y-95825913D01*
X88944087Y-95900480D01*
X89035413Y-95953207D01*
X89137273Y-95980500D01*
X89137275Y-95980500D01*
X89242725Y-95980500D01*
X89242727Y-95980500D01*
X89344587Y-95953207D01*
X89435913Y-95900480D01*
X89469998Y-95866394D01*
X89524513Y-95838619D01*
X89584945Y-95848190D01*
X89610000Y-95866393D01*
X89644087Y-95900480D01*
X89735413Y-95953207D01*
X89837273Y-95980500D01*
X89837275Y-95980500D01*
X89942725Y-95980500D01*
X89942727Y-95980500D01*
X90044587Y-95953207D01*
X90135913Y-95900480D01*
X90210480Y-95825913D01*
X90263207Y-95734587D01*
X90290500Y-95632727D01*
X90290500Y-95527273D01*
X90263207Y-95425413D01*
X90245930Y-95395489D01*
X90210481Y-95334089D01*
X90210480Y-95334087D01*
X90135913Y-95259520D01*
X90045418Y-95207273D01*
X90044589Y-95206794D01*
X90044588Y-95206793D01*
X90044587Y-95206793D01*
X89942727Y-95179500D01*
X89837273Y-95179500D01*
X89735413Y-95206793D01*
X89735412Y-95206793D01*
X89735410Y-95206794D01*
X89735409Y-95206794D01*
X89644089Y-95259518D01*
X89644087Y-95259519D01*
X89644087Y-95259520D01*
X89610001Y-95293605D01*
X89555487Y-95321381D01*
X89495055Y-95311810D01*
X89469999Y-95293606D01*
X89435913Y-95259520D01*
X89345418Y-95207273D01*
X89344589Y-95206794D01*
X89344588Y-95206793D01*
X89344587Y-95206793D01*
X89242727Y-95179500D01*
X89137273Y-95179500D01*
X89035413Y-95206793D01*
X89035412Y-95206793D01*
X89035410Y-95206794D01*
X89035409Y-95206794D01*
X88944089Y-95259518D01*
X88869518Y-95334089D01*
X88816794Y-95425409D01*
X88816794Y-95425410D01*
X88816793Y-95425412D01*
X88816793Y-95425413D01*
X88789500Y-95527273D01*
X83585291Y-95527273D01*
X83617767Y-95400050D01*
X83619048Y-95395489D01*
X83720429Y-95065217D01*
X83856815Y-94620902D01*
X83858315Y-94616405D01*
X83881079Y-94553207D01*
X84034499Y-94127273D01*
X88789500Y-94127273D01*
X88789500Y-94232727D01*
X88795410Y-94254782D01*
X88816794Y-94334589D01*
X88816794Y-94334590D01*
X88862692Y-94414087D01*
X88869520Y-94425913D01*
X88944087Y-94500480D01*
X89035413Y-94553207D01*
X89137273Y-94580500D01*
X89137275Y-94580500D01*
X89242725Y-94580500D01*
X89242727Y-94580500D01*
X89344587Y-94553207D01*
X89435913Y-94500480D01*
X89469998Y-94466394D01*
X89524513Y-94438619D01*
X89584945Y-94448190D01*
X89610000Y-94466393D01*
X89644087Y-94500480D01*
X89735413Y-94553207D01*
X89837273Y-94580500D01*
X89837275Y-94580500D01*
X89942725Y-94580500D01*
X89942727Y-94580500D01*
X90044587Y-94553207D01*
X90135913Y-94500480D01*
X90210480Y-94425913D01*
X90263207Y-94334587D01*
X90290500Y-94232727D01*
X90290500Y-94127273D01*
X90263207Y-94025413D01*
X90252734Y-94007274D01*
X90210481Y-93934089D01*
X90210480Y-93934087D01*
X90135913Y-93859520D01*
X90092731Y-93834589D01*
X90044589Y-93806794D01*
X90044588Y-93806793D01*
X90044587Y-93806793D01*
X89942727Y-93779500D01*
X89837273Y-93779500D01*
X89735413Y-93806793D01*
X89735412Y-93806793D01*
X89735410Y-93806794D01*
X89735409Y-93806794D01*
X89644089Y-93859518D01*
X89644087Y-93859519D01*
X89644087Y-93859520D01*
X89610001Y-93893605D01*
X89555487Y-93921381D01*
X89495055Y-93911810D01*
X89469999Y-93893606D01*
X89435913Y-93859520D01*
X89392731Y-93834589D01*
X89344589Y-93806794D01*
X89344588Y-93806793D01*
X89344587Y-93806793D01*
X89242727Y-93779500D01*
X89137273Y-93779500D01*
X89035413Y-93806793D01*
X89035412Y-93806793D01*
X89035410Y-93806794D01*
X89035409Y-93806794D01*
X88944089Y-93859518D01*
X88869518Y-93934089D01*
X88816794Y-94025409D01*
X88816794Y-94025410D01*
X88816793Y-94025412D01*
X88816793Y-94025413D01*
X88789500Y-94127273D01*
X84034499Y-94127273D01*
X84132895Y-93854100D01*
X84134594Y-93849714D01*
X84226975Y-93627273D01*
X100869500Y-93627273D01*
X100869500Y-93732727D01*
X100896793Y-93834586D01*
X100896794Y-93834589D01*
X100896794Y-93834590D01*
X100946847Y-93921284D01*
X100949520Y-93925913D01*
X101024087Y-94000480D01*
X101115413Y-94053207D01*
X101217273Y-94080500D01*
X101217275Y-94080500D01*
X101322725Y-94080500D01*
X101322727Y-94080500D01*
X101424587Y-94053207D01*
X101515913Y-94000480D01*
X101539120Y-93977273D01*
X102249500Y-93977273D01*
X102249500Y-94082727D01*
X102276793Y-94184587D01*
X102276794Y-94184589D01*
X102276794Y-94184590D01*
X102317320Y-94254782D01*
X102329520Y-94275913D01*
X102404087Y-94350480D01*
X102495413Y-94403207D01*
X102597273Y-94430500D01*
X102597275Y-94430500D01*
X102702725Y-94430500D01*
X102702727Y-94430500D01*
X102804587Y-94403207D01*
X102895913Y-94350480D01*
X102970480Y-94275913D01*
X103023207Y-94184587D01*
X103050500Y-94082727D01*
X103050500Y-93977273D01*
X103023207Y-93875413D01*
X103017320Y-93865217D01*
X102970481Y-93784089D01*
X102970480Y-93784087D01*
X102895913Y-93709520D01*
X102889665Y-93705913D01*
X102804589Y-93656794D01*
X102804588Y-93656793D01*
X102804587Y-93656793D01*
X102702727Y-93629500D01*
X102597273Y-93629500D01*
X102495413Y-93656793D01*
X102495412Y-93656793D01*
X102495410Y-93656794D01*
X102495409Y-93656794D01*
X102404089Y-93709518D01*
X102329518Y-93784089D01*
X102276794Y-93875409D01*
X102276794Y-93875410D01*
X102276793Y-93875412D01*
X102276793Y-93875413D01*
X102249500Y-93977273D01*
X101539120Y-93977273D01*
X101590480Y-93925913D01*
X101643207Y-93834587D01*
X101670500Y-93732727D01*
X101670500Y-93627273D01*
X101643207Y-93525413D01*
X101590480Y-93434087D01*
X101515913Y-93359520D01*
X101424587Y-93306793D01*
X101322727Y-93279500D01*
X101217273Y-93279500D01*
X101115413Y-93306793D01*
X101115412Y-93306793D01*
X101115410Y-93306794D01*
X101115409Y-93306794D01*
X101024089Y-93359518D01*
X100949518Y-93434089D01*
X100896794Y-93525409D01*
X100896794Y-93525410D01*
X100896793Y-93525412D01*
X100896793Y-93525413D01*
X100869500Y-93627273D01*
X84226975Y-93627273D01*
X84445381Y-93101381D01*
X84447280Y-93097100D01*
X84622080Y-92727273D01*
X88789500Y-92727273D01*
X88789500Y-92832727D01*
X88810936Y-92912727D01*
X88816794Y-92934589D01*
X88816794Y-92934590D01*
X88862980Y-93014586D01*
X88869520Y-93025913D01*
X88944087Y-93100480D01*
X89035413Y-93153207D01*
X89137273Y-93180500D01*
X89137275Y-93180500D01*
X89242725Y-93180500D01*
X89242727Y-93180500D01*
X89344587Y-93153207D01*
X89435913Y-93100480D01*
X89469998Y-93066394D01*
X89524513Y-93038619D01*
X89584945Y-93048190D01*
X89610000Y-93066393D01*
X89644087Y-93100480D01*
X89735413Y-93153207D01*
X89837273Y-93180500D01*
X89837275Y-93180500D01*
X89942725Y-93180500D01*
X89942727Y-93180500D01*
X90044587Y-93153207D01*
X90135913Y-93100480D01*
X90210480Y-93025913D01*
X90263207Y-92934587D01*
X90290500Y-92832727D01*
X90290500Y-92727273D01*
X90263207Y-92625413D01*
X90210480Y-92534087D01*
X90135913Y-92459520D01*
X90067855Y-92420227D01*
X90044589Y-92406794D01*
X90044588Y-92406793D01*
X90044587Y-92406793D01*
X89942727Y-92379500D01*
X89837273Y-92379500D01*
X89735413Y-92406793D01*
X89735412Y-92406793D01*
X89735410Y-92406794D01*
X89735409Y-92406794D01*
X89644089Y-92459518D01*
X89644087Y-92459519D01*
X89644087Y-92459520D01*
X89610001Y-92493605D01*
X89555487Y-92521381D01*
X89495055Y-92511810D01*
X89469999Y-92493606D01*
X89435913Y-92459520D01*
X89367855Y-92420227D01*
X89344589Y-92406794D01*
X89344588Y-92406793D01*
X89344587Y-92406793D01*
X89242727Y-92379500D01*
X89137273Y-92379500D01*
X89035413Y-92406793D01*
X89035412Y-92406793D01*
X89035410Y-92406794D01*
X89035409Y-92406794D01*
X88944089Y-92459518D01*
X88869518Y-92534089D01*
X88816794Y-92625409D01*
X88816794Y-92625410D01*
X88816793Y-92625412D01*
X88816793Y-92625413D01*
X88789500Y-92727273D01*
X84622080Y-92727273D01*
X84793555Y-92364480D01*
X84795641Y-92360328D01*
X84819906Y-92314773D01*
X97674500Y-92314773D01*
X97674500Y-92420227D01*
X97701604Y-92521381D01*
X97701794Y-92522089D01*
X97701794Y-92522090D01*
X97723682Y-92560000D01*
X97754520Y-92613413D01*
X97829087Y-92687980D01*
X97920413Y-92740707D01*
X98022273Y-92768000D01*
X98022275Y-92768000D01*
X98127725Y-92768000D01*
X98127727Y-92768000D01*
X98229587Y-92740707D01*
X98320913Y-92687980D01*
X98395480Y-92613413D01*
X98448207Y-92522087D01*
X98475500Y-92420227D01*
X98475500Y-92420223D01*
X98476293Y-92414203D01*
X98502633Y-92358978D01*
X98556404Y-92329782D01*
X98574446Y-92328124D01*
X98620051Y-92328124D01*
X98620053Y-92328124D01*
X98721913Y-92300831D01*
X98813239Y-92248104D01*
X98887806Y-92173537D01*
X98940533Y-92082211D01*
X98967826Y-91980351D01*
X98967826Y-91874897D01*
X98940533Y-91773037D01*
X98937025Y-91766961D01*
X101336108Y-91766961D01*
X101336108Y-91872415D01*
X101363401Y-91974275D01*
X101363402Y-91974277D01*
X101363402Y-91974278D01*
X101405399Y-92047018D01*
X101416128Y-92065601D01*
X101490695Y-92140168D01*
X101582021Y-92192895D01*
X101683881Y-92220188D01*
X101683883Y-92220188D01*
X101789333Y-92220188D01*
X101789335Y-92220188D01*
X101837535Y-92207273D01*
X109899500Y-92207273D01*
X109899500Y-92312727D01*
X109926793Y-92414587D01*
X109979520Y-92505913D01*
X109979521Y-92505914D01*
X109982169Y-92510500D01*
X109994890Y-92570348D01*
X109982169Y-92609500D01*
X109979521Y-92614085D01*
X109979520Y-92614087D01*
X109926793Y-92705413D01*
X109899500Y-92807273D01*
X109899500Y-92912727D01*
X109926793Y-93014587D01*
X109979520Y-93105913D01*
X109979521Y-93105914D01*
X109982169Y-93110500D01*
X109994890Y-93170348D01*
X109982169Y-93209500D01*
X109979521Y-93214085D01*
X109979520Y-93214087D01*
X109926793Y-93305413D01*
X109899500Y-93407273D01*
X109899500Y-93512727D01*
X109926793Y-93614587D01*
X109979520Y-93705913D01*
X109979521Y-93705914D01*
X109982169Y-93710500D01*
X109994890Y-93770348D01*
X109982169Y-93809500D01*
X109979521Y-93814085D01*
X109979520Y-93814087D01*
X109926793Y-93905413D01*
X109899500Y-94007273D01*
X109899500Y-94112727D01*
X109926793Y-94214587D01*
X109979520Y-94305913D01*
X109979521Y-94305914D01*
X109982169Y-94310500D01*
X109994890Y-94370348D01*
X109982169Y-94409500D01*
X109979521Y-94414085D01*
X109979520Y-94414087D01*
X109926793Y-94505413D01*
X109899500Y-94607273D01*
X109899500Y-94712727D01*
X109926793Y-94814587D01*
X109979520Y-94905913D01*
X109979521Y-94905914D01*
X109982169Y-94910500D01*
X109994890Y-94970348D01*
X109982169Y-95009500D01*
X109979521Y-95014085D01*
X109979520Y-95014087D01*
X109926793Y-95105413D01*
X109899500Y-95207273D01*
X109899500Y-95312727D01*
X109926793Y-95414587D01*
X109979520Y-95505913D01*
X109979521Y-95505914D01*
X109982169Y-95510500D01*
X109994890Y-95570348D01*
X109982169Y-95609500D01*
X109979521Y-95614085D01*
X109979520Y-95614087D01*
X109926793Y-95705413D01*
X109899500Y-95807273D01*
X109899500Y-95912727D01*
X109926793Y-96014587D01*
X109979520Y-96105913D01*
X109979521Y-96105914D01*
X109982169Y-96110500D01*
X109994890Y-96170348D01*
X109982169Y-96209500D01*
X109979521Y-96214085D01*
X109979520Y-96214087D01*
X109926793Y-96305413D01*
X109899500Y-96407273D01*
X109899500Y-96512727D01*
X109926793Y-96614587D01*
X109979520Y-96705913D01*
X109979521Y-96705914D01*
X109982169Y-96710500D01*
X109994890Y-96770348D01*
X109982169Y-96809500D01*
X109979521Y-96814085D01*
X109979520Y-96814087D01*
X109926793Y-96905413D01*
X109899500Y-97007273D01*
X109899500Y-97112727D01*
X109926793Y-97214587D01*
X109979520Y-97305913D01*
X109979521Y-97305914D01*
X109982169Y-97310500D01*
X109994890Y-97370348D01*
X109982169Y-97409500D01*
X109979521Y-97414085D01*
X109979520Y-97414087D01*
X109926793Y-97505413D01*
X109899500Y-97607273D01*
X109899500Y-97712727D01*
X109923074Y-97800707D01*
X109926794Y-97814589D01*
X109926794Y-97814590D01*
X109967971Y-97885910D01*
X109979520Y-97905913D01*
X110054087Y-97980480D01*
X110145413Y-98033207D01*
X110247273Y-98060500D01*
X110247275Y-98060500D01*
X110352725Y-98060500D01*
X110352727Y-98060500D01*
X110454587Y-98033207D01*
X110545913Y-97980480D01*
X110579998Y-97946394D01*
X110634513Y-97918619D01*
X110694945Y-97928190D01*
X110720000Y-97946393D01*
X110754087Y-97980480D01*
X110845413Y-98033207D01*
X110947273Y-98060500D01*
X110947275Y-98060500D01*
X111052725Y-98060500D01*
X111052727Y-98060500D01*
X111154587Y-98033207D01*
X111245913Y-97980480D01*
X111320480Y-97905913D01*
X111373207Y-97814587D01*
X111400500Y-97712727D01*
X111400500Y-97607273D01*
X111373207Y-97505413D01*
X111320480Y-97414087D01*
X111320477Y-97414084D01*
X111317831Y-97409501D01*
X111305109Y-97349652D01*
X111317831Y-97310499D01*
X111320477Y-97305915D01*
X111320480Y-97305913D01*
X111373207Y-97214587D01*
X111400500Y-97112727D01*
X111400500Y-97007273D01*
X111373207Y-96905413D01*
X111320480Y-96814087D01*
X111320477Y-96814084D01*
X111317831Y-96809501D01*
X111305109Y-96749652D01*
X111317831Y-96710499D01*
X111320477Y-96705915D01*
X111320480Y-96705913D01*
X111373207Y-96614587D01*
X111400500Y-96512727D01*
X111400500Y-96407273D01*
X111373207Y-96305413D01*
X111320480Y-96214087D01*
X111320477Y-96214084D01*
X111317831Y-96209501D01*
X111305109Y-96149652D01*
X111317831Y-96110499D01*
X111320477Y-96105915D01*
X111320480Y-96105913D01*
X111373207Y-96014587D01*
X111400500Y-95912727D01*
X111400500Y-95807273D01*
X111373207Y-95705413D01*
X111320480Y-95614087D01*
X111320477Y-95614084D01*
X111317831Y-95609501D01*
X111305109Y-95549652D01*
X111317831Y-95510499D01*
X111320477Y-95505915D01*
X111320480Y-95505913D01*
X111373207Y-95414587D01*
X111400500Y-95312727D01*
X111400500Y-95207273D01*
X111373207Y-95105413D01*
X111320480Y-95014087D01*
X111320477Y-95014084D01*
X111317831Y-95009501D01*
X111305109Y-94949652D01*
X111317831Y-94910499D01*
X111320477Y-94905915D01*
X111320480Y-94905913D01*
X111373207Y-94814587D01*
X111400500Y-94712727D01*
X111400500Y-94607273D01*
X111373207Y-94505413D01*
X111320480Y-94414087D01*
X111320477Y-94414084D01*
X111317831Y-94409501D01*
X111305109Y-94349652D01*
X111317831Y-94310499D01*
X111320477Y-94305915D01*
X111320480Y-94305913D01*
X111373207Y-94214587D01*
X111400500Y-94112727D01*
X111400500Y-94007273D01*
X111373207Y-93905413D01*
X111320480Y-93814087D01*
X111320477Y-93814084D01*
X111317831Y-93809501D01*
X111305109Y-93749652D01*
X111317831Y-93710499D01*
X111320477Y-93705915D01*
X111320480Y-93705913D01*
X111373207Y-93614587D01*
X111400500Y-93512727D01*
X111400500Y-93407273D01*
X111373207Y-93305413D01*
X111320480Y-93214087D01*
X111320477Y-93214084D01*
X111317831Y-93209501D01*
X111305109Y-93149652D01*
X111317831Y-93110499D01*
X111320477Y-93105915D01*
X111320480Y-93105913D01*
X111373207Y-93014587D01*
X111400500Y-92912727D01*
X111400500Y-92807273D01*
X111373207Y-92705413D01*
X111320480Y-92614087D01*
X111320477Y-92614084D01*
X111317831Y-92609501D01*
X111305109Y-92549652D01*
X111317831Y-92510499D01*
X111320477Y-92505915D01*
X111320480Y-92505913D01*
X111373207Y-92414587D01*
X111400500Y-92312727D01*
X111400500Y-92207273D01*
X111373207Y-92105413D01*
X111359812Y-92082213D01*
X111320481Y-92014089D01*
X111320480Y-92014087D01*
X111245913Y-91939520D01*
X111240069Y-91936146D01*
X111154589Y-91886794D01*
X111154588Y-91886793D01*
X111154587Y-91886793D01*
X111052727Y-91859500D01*
X110947273Y-91859500D01*
X110845413Y-91886793D01*
X110845412Y-91886793D01*
X110845410Y-91886794D01*
X110845409Y-91886794D01*
X110754089Y-91939518D01*
X110754087Y-91939519D01*
X110754087Y-91939520D01*
X110720001Y-91973605D01*
X110665487Y-92001381D01*
X110605055Y-91991810D01*
X110579999Y-91973606D01*
X110545913Y-91939520D01*
X110540069Y-91936146D01*
X110454589Y-91886794D01*
X110454588Y-91886793D01*
X110454587Y-91886793D01*
X110352727Y-91859500D01*
X110247273Y-91859500D01*
X110145413Y-91886793D01*
X110145412Y-91886793D01*
X110145410Y-91886794D01*
X110145409Y-91886794D01*
X110054089Y-91939518D01*
X109979518Y-92014089D01*
X109926794Y-92105409D01*
X109926794Y-92105410D01*
X109926793Y-92105412D01*
X109926793Y-92105413D01*
X109899500Y-92207273D01*
X101837535Y-92207273D01*
X101891195Y-92192895D01*
X101982521Y-92140168D01*
X102057088Y-92065601D01*
X102109815Y-91974275D01*
X102137108Y-91872415D01*
X102137108Y-91766961D01*
X102109815Y-91665101D01*
X102100051Y-91648190D01*
X102057089Y-91573777D01*
X102057088Y-91573775D01*
X101982521Y-91499208D01*
X101891195Y-91446481D01*
X101789335Y-91419188D01*
X101683881Y-91419188D01*
X101582021Y-91446481D01*
X101582020Y-91446481D01*
X101582018Y-91446482D01*
X101582017Y-91446482D01*
X101490697Y-91499206D01*
X101416126Y-91573777D01*
X101363402Y-91665097D01*
X101363402Y-91665098D01*
X101363401Y-91665100D01*
X101363401Y-91665101D01*
X101336108Y-91766961D01*
X98937025Y-91766961D01*
X98887806Y-91681711D01*
X98813239Y-91607144D01*
X98757186Y-91574782D01*
X98721915Y-91554418D01*
X98721914Y-91554417D01*
X98721913Y-91554417D01*
X98620053Y-91527124D01*
X98514599Y-91527124D01*
X98412739Y-91554417D01*
X98412738Y-91554417D01*
X98412736Y-91554418D01*
X98412735Y-91554418D01*
X98321415Y-91607142D01*
X98246844Y-91681713D01*
X98194120Y-91773033D01*
X98194120Y-91773034D01*
X98166825Y-91874900D01*
X98166033Y-91880921D01*
X98139693Y-91936146D01*
X98085922Y-91965342D01*
X98067880Y-91967000D01*
X98022273Y-91967000D01*
X97920413Y-91994293D01*
X97920412Y-91994293D01*
X97920410Y-91994294D01*
X97920409Y-91994294D01*
X97829089Y-92047018D01*
X97754518Y-92121589D01*
X97701794Y-92212909D01*
X97701794Y-92212910D01*
X97701793Y-92212912D01*
X97701793Y-92212913D01*
X97674500Y-92314773D01*
X84819906Y-92314773D01*
X85176581Y-91645158D01*
X85178870Y-91641097D01*
X85365849Y-91327273D01*
X88789500Y-91327273D01*
X88789500Y-91432727D01*
X88816793Y-91534587D01*
X88816794Y-91534589D01*
X88816794Y-91534590D01*
X88869518Y-91625910D01*
X88869520Y-91625913D01*
X88944087Y-91700480D01*
X89035413Y-91753207D01*
X89137273Y-91780500D01*
X89137275Y-91780500D01*
X89242725Y-91780500D01*
X89242727Y-91780500D01*
X89344587Y-91753207D01*
X89435913Y-91700480D01*
X89469998Y-91666394D01*
X89524513Y-91638619D01*
X89584945Y-91648190D01*
X89610000Y-91666393D01*
X89644087Y-91700480D01*
X89735413Y-91753207D01*
X89837273Y-91780500D01*
X89837275Y-91780500D01*
X89942725Y-91780500D01*
X89942727Y-91780500D01*
X90044587Y-91753207D01*
X90135913Y-91700480D01*
X90210480Y-91625913D01*
X90263207Y-91534587D01*
X90290500Y-91432727D01*
X90290500Y-91327273D01*
X90263207Y-91225413D01*
X90243038Y-91190480D01*
X90210481Y-91134089D01*
X90210480Y-91134087D01*
X90135913Y-91059520D01*
X90075412Y-91024590D01*
X90044589Y-91006794D01*
X90044588Y-91006793D01*
X90044587Y-91006793D01*
X89942727Y-90979500D01*
X89837273Y-90979500D01*
X89735413Y-91006793D01*
X89735412Y-91006793D01*
X89735410Y-91006794D01*
X89735409Y-91006794D01*
X89644089Y-91059518D01*
X89644087Y-91059519D01*
X89644087Y-91059520D01*
X89610001Y-91093605D01*
X89555487Y-91121381D01*
X89495055Y-91111810D01*
X89469999Y-91093606D01*
X89435913Y-91059520D01*
X89375412Y-91024590D01*
X89344589Y-91006794D01*
X89344588Y-91006793D01*
X89344587Y-91006793D01*
X89242727Y-90979500D01*
X89137273Y-90979500D01*
X89035413Y-91006793D01*
X89035412Y-91006793D01*
X89035410Y-91006794D01*
X89035409Y-91006794D01*
X88944089Y-91059518D01*
X88869518Y-91134089D01*
X88816794Y-91225409D01*
X88816794Y-91225410D01*
X88816793Y-91225412D01*
X88816793Y-91225413D01*
X88789500Y-91327273D01*
X85365849Y-91327273D01*
X85593635Y-90944959D01*
X85596132Y-90940989D01*
X85951466Y-90404773D01*
X91079500Y-90404773D01*
X91079500Y-90510227D01*
X91098086Y-90579590D01*
X91106794Y-90612089D01*
X91106794Y-90612090D01*
X91113721Y-90624087D01*
X91159520Y-90703413D01*
X91234087Y-90777980D01*
X91325413Y-90830707D01*
X91427273Y-90858000D01*
X91427275Y-90858000D01*
X91532725Y-90858000D01*
X91532727Y-90858000D01*
X91634587Y-90830707D01*
X91725913Y-90777980D01*
X91800480Y-90703413D01*
X91853207Y-90612087D01*
X91880500Y-90510227D01*
X91880500Y-90404773D01*
X91871792Y-90372273D01*
X108429500Y-90372273D01*
X108429500Y-90477727D01*
X108448737Y-90549520D01*
X108456794Y-90579589D01*
X108456794Y-90579590D01*
X108482485Y-90624087D01*
X108509520Y-90670913D01*
X108584087Y-90745480D01*
X108675413Y-90798207D01*
X108777273Y-90825500D01*
X108777275Y-90825500D01*
X108882725Y-90825500D01*
X108882727Y-90825500D01*
X108913431Y-90817273D01*
X110159500Y-90817273D01*
X110159500Y-90922727D01*
X110182681Y-91009240D01*
X110186794Y-91024589D01*
X110186794Y-91024590D01*
X110226640Y-91093604D01*
X110239520Y-91115913D01*
X110314087Y-91190480D01*
X110405413Y-91243207D01*
X110507273Y-91270500D01*
X110507275Y-91270500D01*
X110612725Y-91270500D01*
X110612727Y-91270500D01*
X110714587Y-91243207D01*
X110805913Y-91190480D01*
X110880480Y-91115913D01*
X110933207Y-91024587D01*
X110960500Y-90922727D01*
X110960500Y-90817273D01*
X110933207Y-90715413D01*
X110880480Y-90624087D01*
X110805913Y-90549520D01*
X110737855Y-90510227D01*
X110714589Y-90496794D01*
X110714588Y-90496793D01*
X110714587Y-90496793D01*
X110612727Y-90469500D01*
X110507273Y-90469500D01*
X110405413Y-90496793D01*
X110405412Y-90496793D01*
X110405410Y-90496794D01*
X110405409Y-90496794D01*
X110314089Y-90549518D01*
X110239518Y-90624089D01*
X110186794Y-90715409D01*
X110186794Y-90715410D01*
X110186793Y-90715412D01*
X110186793Y-90715413D01*
X110159500Y-90817273D01*
X108913431Y-90817273D01*
X108984587Y-90798207D01*
X109075913Y-90745480D01*
X109150480Y-90670913D01*
X109203207Y-90579587D01*
X109230500Y-90477727D01*
X109230500Y-90372273D01*
X109203207Y-90270413D01*
X109150480Y-90179087D01*
X109075913Y-90104520D01*
X109040880Y-90084294D01*
X108984589Y-90051794D01*
X108984588Y-90051793D01*
X108984587Y-90051793D01*
X108882727Y-90024500D01*
X108777273Y-90024500D01*
X108675413Y-90051793D01*
X108675412Y-90051793D01*
X108675410Y-90051794D01*
X108675409Y-90051794D01*
X108584089Y-90104518D01*
X108509518Y-90179089D01*
X108456794Y-90270409D01*
X108456794Y-90270410D01*
X108456793Y-90270412D01*
X108456793Y-90270413D01*
X108429500Y-90372273D01*
X91871792Y-90372273D01*
X91853207Y-90302913D01*
X91851802Y-90300480D01*
X91800481Y-90211589D01*
X91800480Y-90211587D01*
X91725913Y-90137020D01*
X91721704Y-90134590D01*
X91634589Y-90084294D01*
X91634588Y-90084293D01*
X91634587Y-90084293D01*
X91532727Y-90057000D01*
X91427273Y-90057000D01*
X91325413Y-90084293D01*
X91325412Y-90084293D01*
X91325410Y-90084294D01*
X91325409Y-90084294D01*
X91234089Y-90137018D01*
X91159518Y-90211589D01*
X91106794Y-90302909D01*
X91106794Y-90302910D01*
X91106793Y-90302912D01*
X91106793Y-90302913D01*
X91079500Y-90404773D01*
X85951466Y-90404773D01*
X86043723Y-90265553D01*
X86046413Y-90261697D01*
X86291854Y-89927273D01*
X88789500Y-89927273D01*
X88789500Y-90032727D01*
X88808737Y-90104520D01*
X88816794Y-90134589D01*
X88816794Y-90134590D01*
X88842485Y-90179087D01*
X88869520Y-90225913D01*
X88944087Y-90300480D01*
X89035413Y-90353207D01*
X89137273Y-90380500D01*
X89137275Y-90380500D01*
X89242725Y-90380500D01*
X89242727Y-90380500D01*
X89344587Y-90353207D01*
X89435913Y-90300480D01*
X89469998Y-90266394D01*
X89524513Y-90238619D01*
X89584945Y-90248190D01*
X89610000Y-90266393D01*
X89644087Y-90300480D01*
X89735413Y-90353207D01*
X89837273Y-90380500D01*
X89837275Y-90380500D01*
X89942725Y-90380500D01*
X89942727Y-90380500D01*
X90044587Y-90353207D01*
X90135913Y-90300480D01*
X90210480Y-90225913D01*
X90263207Y-90134587D01*
X90290500Y-90032727D01*
X90290500Y-89927273D01*
X90263207Y-89825413D01*
X90243038Y-89790480D01*
X90210481Y-89734089D01*
X90210480Y-89734087D01*
X90135913Y-89659520D01*
X90093493Y-89635029D01*
X90044589Y-89606794D01*
X90044588Y-89606793D01*
X90044587Y-89606793D01*
X89942727Y-89579500D01*
X89837273Y-89579500D01*
X89735413Y-89606793D01*
X89735412Y-89606793D01*
X89735410Y-89606794D01*
X89735409Y-89606794D01*
X89644089Y-89659518D01*
X89644087Y-89659519D01*
X89644087Y-89659520D01*
X89610001Y-89693605D01*
X89555487Y-89721381D01*
X89495055Y-89711810D01*
X89469999Y-89693606D01*
X89435913Y-89659520D01*
X89393493Y-89635029D01*
X89344589Y-89606794D01*
X89344588Y-89606793D01*
X89344587Y-89606793D01*
X89242727Y-89579500D01*
X89137273Y-89579500D01*
X89035413Y-89606793D01*
X89035412Y-89606793D01*
X89035410Y-89606794D01*
X89035409Y-89606794D01*
X88944089Y-89659518D01*
X88869518Y-89734089D01*
X88816794Y-89825409D01*
X88816794Y-89825410D01*
X88816793Y-89825412D01*
X88816793Y-89825413D01*
X88789500Y-89927273D01*
X86291854Y-89927273D01*
X86525857Y-89608435D01*
X86528713Y-89604735D01*
X86907530Y-89137273D01*
X92889500Y-89137273D01*
X92889500Y-89242727D01*
X92908976Y-89315413D01*
X92916794Y-89344589D01*
X92916794Y-89344590D01*
X92969518Y-89435910D01*
X92969520Y-89435913D01*
X93044087Y-89510480D01*
X93135413Y-89563207D01*
X93237273Y-89590500D01*
X93237275Y-89590500D01*
X93342725Y-89590500D01*
X93342727Y-89590500D01*
X93444587Y-89563207D01*
X93535913Y-89510480D01*
X93610480Y-89435913D01*
X93663207Y-89344587D01*
X93690500Y-89242727D01*
X93690500Y-89207273D01*
X97869500Y-89207273D01*
X97869500Y-89312727D01*
X97889110Y-89385913D01*
X97896794Y-89414589D01*
X97896794Y-89414590D01*
X97949518Y-89505910D01*
X97949520Y-89505913D01*
X98024087Y-89580480D01*
X98115413Y-89633207D01*
X98217273Y-89660500D01*
X98217275Y-89660500D01*
X98322725Y-89660500D01*
X98322727Y-89660500D01*
X98424587Y-89633207D01*
X98515913Y-89580480D01*
X98590480Y-89505913D01*
X98643207Y-89414587D01*
X98670500Y-89312727D01*
X98670500Y-89207273D01*
X102819500Y-89207273D01*
X102819500Y-89312727D01*
X102839110Y-89385913D01*
X102846794Y-89414589D01*
X102846794Y-89414590D01*
X102899518Y-89505910D01*
X102899520Y-89505913D01*
X102974087Y-89580480D01*
X103065413Y-89633207D01*
X103167273Y-89660500D01*
X103167275Y-89660500D01*
X103272725Y-89660500D01*
X103272727Y-89660500D01*
X103374587Y-89633207D01*
X103465913Y-89580480D01*
X103540480Y-89505913D01*
X103593207Y-89414587D01*
X103620500Y-89312727D01*
X103620500Y-89207273D01*
X103593207Y-89105413D01*
X103588230Y-89096793D01*
X103582734Y-89087273D01*
X108074500Y-89087273D01*
X108074500Y-89192727D01*
X108096603Y-89275217D01*
X108101794Y-89294589D01*
X108101794Y-89294590D01*
X108154518Y-89385910D01*
X108154520Y-89385913D01*
X108229087Y-89460480D01*
X108320413Y-89513207D01*
X108422273Y-89540500D01*
X108422275Y-89540500D01*
X108527725Y-89540500D01*
X108527727Y-89540500D01*
X108629587Y-89513207D01*
X108720913Y-89460480D01*
X108764120Y-89417273D01*
X109459500Y-89417273D01*
X109459500Y-89522727D01*
X109486793Y-89624587D01*
X109486794Y-89624589D01*
X109486794Y-89624590D01*
X109526640Y-89693604D01*
X109539520Y-89715913D01*
X109614087Y-89790480D01*
X109705413Y-89843207D01*
X109807273Y-89870500D01*
X109807275Y-89870500D01*
X109912725Y-89870500D01*
X109912727Y-89870500D01*
X110014587Y-89843207D01*
X110105913Y-89790480D01*
X110139998Y-89756394D01*
X110194513Y-89728619D01*
X110254945Y-89738190D01*
X110280000Y-89756393D01*
X110314087Y-89790480D01*
X110405413Y-89843207D01*
X110507273Y-89870500D01*
X110507275Y-89870500D01*
X110612725Y-89870500D01*
X110612727Y-89870500D01*
X110714587Y-89843207D01*
X110805913Y-89790480D01*
X110880480Y-89715913D01*
X110933207Y-89624587D01*
X110960500Y-89522727D01*
X110960500Y-89417273D01*
X110933207Y-89315413D01*
X110931656Y-89312727D01*
X110880481Y-89224089D01*
X110880480Y-89224087D01*
X110805913Y-89149520D01*
X110784702Y-89137274D01*
X110714589Y-89096794D01*
X110714588Y-89096793D01*
X110714587Y-89096793D01*
X110612727Y-89069500D01*
X110507273Y-89069500D01*
X110405413Y-89096793D01*
X110405412Y-89096793D01*
X110405410Y-89096794D01*
X110405409Y-89096794D01*
X110314089Y-89149518D01*
X110314087Y-89149519D01*
X110314087Y-89149520D01*
X110280001Y-89183605D01*
X110225487Y-89211381D01*
X110165055Y-89201810D01*
X110139999Y-89183606D01*
X110105913Y-89149520D01*
X110084702Y-89137274D01*
X110014589Y-89096794D01*
X110014588Y-89096793D01*
X110014587Y-89096793D01*
X109912727Y-89069500D01*
X109807273Y-89069500D01*
X109705413Y-89096793D01*
X109705412Y-89096793D01*
X109705410Y-89096794D01*
X109705409Y-89096794D01*
X109614089Y-89149518D01*
X109539518Y-89224089D01*
X109486794Y-89315409D01*
X109486794Y-89315410D01*
X109486793Y-89315412D01*
X109486793Y-89315413D01*
X109459500Y-89417273D01*
X108764120Y-89417273D01*
X108795480Y-89385913D01*
X108848207Y-89294587D01*
X108875500Y-89192727D01*
X108875500Y-89087273D01*
X108848207Y-88985413D01*
X108845370Y-88980500D01*
X108813055Y-88924529D01*
X108795480Y-88894087D01*
X108720913Y-88819520D01*
X108716191Y-88816794D01*
X108629589Y-88766794D01*
X108629588Y-88766793D01*
X108629587Y-88766793D01*
X108527727Y-88739500D01*
X108422273Y-88739500D01*
X108320413Y-88766793D01*
X108320412Y-88766793D01*
X108320410Y-88766794D01*
X108320409Y-88766794D01*
X108229089Y-88819518D01*
X108154518Y-88894089D01*
X108101794Y-88985409D01*
X108101794Y-88985410D01*
X108101793Y-88985412D01*
X108101793Y-88985413D01*
X108074500Y-89087273D01*
X103582734Y-89087273D01*
X103540481Y-89014089D01*
X103540480Y-89014087D01*
X103465913Y-88939520D01*
X103398295Y-88900481D01*
X103374589Y-88886794D01*
X103374588Y-88886793D01*
X103374587Y-88886793D01*
X103272727Y-88859500D01*
X103167273Y-88859500D01*
X103065413Y-88886793D01*
X103065412Y-88886793D01*
X103065410Y-88886794D01*
X103065409Y-88886794D01*
X102974089Y-88939518D01*
X102899518Y-89014089D01*
X102846794Y-89105409D01*
X102846794Y-89105410D01*
X102846793Y-89105412D01*
X102846793Y-89105413D01*
X102819500Y-89207273D01*
X98670500Y-89207273D01*
X98643207Y-89105413D01*
X98638230Y-89096793D01*
X98590481Y-89014089D01*
X98590480Y-89014087D01*
X98515913Y-88939520D01*
X98448295Y-88900481D01*
X98424589Y-88886794D01*
X98424588Y-88886793D01*
X98424587Y-88886793D01*
X98322727Y-88859500D01*
X98217273Y-88859500D01*
X98115413Y-88886793D01*
X98115412Y-88886793D01*
X98115410Y-88886794D01*
X98115409Y-88886794D01*
X98024089Y-88939518D01*
X97949518Y-89014089D01*
X97896794Y-89105409D01*
X97896794Y-89105410D01*
X97896793Y-89105412D01*
X97896793Y-89105413D01*
X97869500Y-89207273D01*
X93690500Y-89207273D01*
X93690500Y-89137273D01*
X93663207Y-89035413D01*
X93650894Y-89014087D01*
X93610481Y-88944089D01*
X93610480Y-88944087D01*
X93535913Y-88869520D01*
X93530502Y-88866396D01*
X93444589Y-88816794D01*
X93444588Y-88816793D01*
X93444587Y-88816793D01*
X93342727Y-88789500D01*
X93237273Y-88789500D01*
X93135413Y-88816793D01*
X93135412Y-88816793D01*
X93135410Y-88816794D01*
X93135409Y-88816794D01*
X93044089Y-88869518D01*
X92969518Y-88944089D01*
X92916794Y-89035409D01*
X92916794Y-89035410D01*
X92916793Y-89035412D01*
X92916793Y-89035413D01*
X92889500Y-89137273D01*
X86907530Y-89137273D01*
X87038851Y-88975222D01*
X87041918Y-88971618D01*
X87058361Y-88953205D01*
X87438717Y-88527273D01*
X88789500Y-88527273D01*
X88789500Y-88632727D01*
X88816793Y-88734587D01*
X88816794Y-88734589D01*
X88816794Y-88734590D01*
X88864255Y-88816794D01*
X88869520Y-88825913D01*
X88944087Y-88900480D01*
X89035413Y-88953207D01*
X89137273Y-88980500D01*
X89137275Y-88980500D01*
X89242725Y-88980500D01*
X89242727Y-88980500D01*
X89344587Y-88953207D01*
X89435913Y-88900480D01*
X89469998Y-88866394D01*
X89524513Y-88838619D01*
X89584945Y-88848190D01*
X89610000Y-88866393D01*
X89644087Y-88900480D01*
X89735413Y-88953207D01*
X89837273Y-88980500D01*
X89837275Y-88980500D01*
X89942725Y-88980500D01*
X89942727Y-88980500D01*
X90044587Y-88953207D01*
X90135913Y-88900480D01*
X90210480Y-88825913D01*
X90263207Y-88734587D01*
X90290500Y-88632727D01*
X90290500Y-88527273D01*
X90263207Y-88425413D01*
X90243038Y-88390480D01*
X90210481Y-88334089D01*
X90210480Y-88334087D01*
X90135913Y-88259520D01*
X90075412Y-88224590D01*
X90044589Y-88206794D01*
X90044588Y-88206793D01*
X90044587Y-88206793D01*
X89942727Y-88179500D01*
X89837273Y-88179500D01*
X89735413Y-88206793D01*
X89735412Y-88206793D01*
X89735410Y-88206794D01*
X89735409Y-88206794D01*
X89644089Y-88259518D01*
X89644087Y-88259519D01*
X89644087Y-88259520D01*
X89610001Y-88293605D01*
X89555487Y-88321381D01*
X89495055Y-88311810D01*
X89469999Y-88293606D01*
X89435913Y-88259520D01*
X89375412Y-88224590D01*
X89344589Y-88206794D01*
X89344588Y-88206793D01*
X89344587Y-88206793D01*
X89242727Y-88179500D01*
X89137273Y-88179500D01*
X89035413Y-88206793D01*
X89035412Y-88206793D01*
X89035410Y-88206794D01*
X89035409Y-88206794D01*
X88944089Y-88259518D01*
X88869518Y-88334089D01*
X88816794Y-88425409D01*
X88816794Y-88425410D01*
X88816793Y-88425412D01*
X88816793Y-88425413D01*
X88789500Y-88527273D01*
X87438717Y-88527273D01*
X87581629Y-88367236D01*
X87584820Y-88363830D01*
X88018877Y-87922273D01*
X93537500Y-87922273D01*
X93537500Y-88027727D01*
X93562955Y-88122727D01*
X93564794Y-88129589D01*
X93564794Y-88129590D01*
X93609368Y-88206794D01*
X93617520Y-88220913D01*
X93692087Y-88295480D01*
X93783413Y-88348207D01*
X93885273Y-88375500D01*
X93885275Y-88375500D01*
X93990725Y-88375500D01*
X93990727Y-88375500D01*
X94092587Y-88348207D01*
X94183913Y-88295480D01*
X94217998Y-88261394D01*
X94272513Y-88233619D01*
X94332945Y-88243190D01*
X94358000Y-88261393D01*
X94392087Y-88295480D01*
X94483413Y-88348207D01*
X94585273Y-88375500D01*
X94585275Y-88375500D01*
X94690725Y-88375500D01*
X94690727Y-88375500D01*
X94792587Y-88348207D01*
X94883913Y-88295480D01*
X94917998Y-88261394D01*
X94972513Y-88233619D01*
X95032945Y-88243190D01*
X95058000Y-88261393D01*
X95092087Y-88295480D01*
X95183413Y-88348207D01*
X95285273Y-88375500D01*
X95285275Y-88375500D01*
X95390725Y-88375500D01*
X95390727Y-88375500D01*
X95492587Y-88348207D01*
X95583913Y-88295480D01*
X95617998Y-88261394D01*
X95672513Y-88233619D01*
X95732945Y-88243190D01*
X95758000Y-88261393D01*
X95792087Y-88295480D01*
X95883413Y-88348207D01*
X95985273Y-88375500D01*
X95985275Y-88375500D01*
X96090725Y-88375500D01*
X96090727Y-88375500D01*
X96192587Y-88348207D01*
X96283913Y-88295480D01*
X96358480Y-88220913D01*
X96411207Y-88129587D01*
X96438500Y-88027727D01*
X96438500Y-87922273D01*
X98537500Y-87922273D01*
X98537500Y-88027727D01*
X98562955Y-88122727D01*
X98564794Y-88129589D01*
X98564794Y-88129590D01*
X98609368Y-88206794D01*
X98617520Y-88220913D01*
X98692087Y-88295480D01*
X98783413Y-88348207D01*
X98885273Y-88375500D01*
X98885275Y-88375500D01*
X98990725Y-88375500D01*
X98990727Y-88375500D01*
X99092587Y-88348207D01*
X99183913Y-88295480D01*
X99217998Y-88261394D01*
X99272513Y-88233619D01*
X99332945Y-88243190D01*
X99358000Y-88261393D01*
X99392087Y-88295480D01*
X99483413Y-88348207D01*
X99585273Y-88375500D01*
X99585275Y-88375500D01*
X99690725Y-88375500D01*
X99690727Y-88375500D01*
X99792587Y-88348207D01*
X99883913Y-88295480D01*
X99917998Y-88261394D01*
X99972513Y-88233619D01*
X100032945Y-88243190D01*
X100058000Y-88261393D01*
X100092087Y-88295480D01*
X100183413Y-88348207D01*
X100285273Y-88375500D01*
X100285275Y-88375500D01*
X100390725Y-88375500D01*
X100390727Y-88375500D01*
X100492587Y-88348207D01*
X100583913Y-88295480D01*
X100617998Y-88261394D01*
X100672513Y-88233619D01*
X100732945Y-88243190D01*
X100758000Y-88261393D01*
X100792087Y-88295480D01*
X100883413Y-88348207D01*
X100985273Y-88375500D01*
X100985275Y-88375500D01*
X101090725Y-88375500D01*
X101090727Y-88375500D01*
X101192587Y-88348207D01*
X101283913Y-88295480D01*
X101358480Y-88220913D01*
X101411207Y-88129587D01*
X101438500Y-88027727D01*
X101438500Y-87922273D01*
X101411207Y-87820413D01*
X101405992Y-87811381D01*
X101358481Y-87729089D01*
X101358480Y-87729087D01*
X101283913Y-87654520D01*
X101264318Y-87643207D01*
X101192589Y-87601794D01*
X101192588Y-87601793D01*
X101192587Y-87601793D01*
X101090727Y-87574500D01*
X100985273Y-87574500D01*
X100883413Y-87601793D01*
X100883412Y-87601793D01*
X100883410Y-87601794D01*
X100883409Y-87601794D01*
X100792089Y-87654518D01*
X100792087Y-87654519D01*
X100792087Y-87654520D01*
X100758001Y-87688605D01*
X100703487Y-87716381D01*
X100643055Y-87706810D01*
X100617999Y-87688606D01*
X100583913Y-87654520D01*
X100564318Y-87643207D01*
X100492589Y-87601794D01*
X100492588Y-87601793D01*
X100492587Y-87601793D01*
X100390727Y-87574500D01*
X100285273Y-87574500D01*
X100183413Y-87601793D01*
X100183412Y-87601793D01*
X100183410Y-87601794D01*
X100183409Y-87601794D01*
X100092089Y-87654518D01*
X100092087Y-87654519D01*
X100092087Y-87654520D01*
X100058001Y-87688605D01*
X100003487Y-87716381D01*
X99943055Y-87706810D01*
X99917999Y-87688606D01*
X99883913Y-87654520D01*
X99864318Y-87643207D01*
X99792589Y-87601794D01*
X99792588Y-87601793D01*
X99792587Y-87601793D01*
X99690727Y-87574500D01*
X99585273Y-87574500D01*
X99483413Y-87601793D01*
X99483412Y-87601793D01*
X99483410Y-87601794D01*
X99483409Y-87601794D01*
X99392089Y-87654518D01*
X99392087Y-87654519D01*
X99392087Y-87654520D01*
X99358001Y-87688605D01*
X99303487Y-87716381D01*
X99243055Y-87706810D01*
X99217999Y-87688606D01*
X99183913Y-87654520D01*
X99164318Y-87643207D01*
X99092589Y-87601794D01*
X99092588Y-87601793D01*
X99092587Y-87601793D01*
X98990727Y-87574500D01*
X98885273Y-87574500D01*
X98783413Y-87601793D01*
X98783412Y-87601793D01*
X98783410Y-87601794D01*
X98783409Y-87601794D01*
X98692089Y-87654518D01*
X98617518Y-87729089D01*
X98564794Y-87820409D01*
X98564794Y-87820410D01*
X98564793Y-87820412D01*
X98564793Y-87820413D01*
X98537500Y-87922273D01*
X96438500Y-87922273D01*
X96411207Y-87820413D01*
X96405992Y-87811381D01*
X96358481Y-87729089D01*
X96358480Y-87729087D01*
X96283913Y-87654520D01*
X96264318Y-87643207D01*
X96192589Y-87601794D01*
X96192588Y-87601793D01*
X96192587Y-87601793D01*
X96090727Y-87574500D01*
X95985273Y-87574500D01*
X95883413Y-87601793D01*
X95883412Y-87601793D01*
X95883410Y-87601794D01*
X95883409Y-87601794D01*
X95792089Y-87654518D01*
X95792087Y-87654519D01*
X95792087Y-87654520D01*
X95758001Y-87688605D01*
X95703487Y-87716381D01*
X95643055Y-87706810D01*
X95617999Y-87688606D01*
X95583913Y-87654520D01*
X95564318Y-87643207D01*
X95492589Y-87601794D01*
X95492588Y-87601793D01*
X95492587Y-87601793D01*
X95390727Y-87574500D01*
X95285273Y-87574500D01*
X95183413Y-87601793D01*
X95183412Y-87601793D01*
X95183410Y-87601794D01*
X95183409Y-87601794D01*
X95092089Y-87654518D01*
X95092087Y-87654519D01*
X95092087Y-87654520D01*
X95058001Y-87688605D01*
X95003487Y-87716381D01*
X94943055Y-87706810D01*
X94917999Y-87688606D01*
X94883913Y-87654520D01*
X94864318Y-87643207D01*
X94792589Y-87601794D01*
X94792588Y-87601793D01*
X94792587Y-87601793D01*
X94690727Y-87574500D01*
X94585273Y-87574500D01*
X94483413Y-87601793D01*
X94483412Y-87601793D01*
X94483410Y-87601794D01*
X94483409Y-87601794D01*
X94392089Y-87654518D01*
X94392087Y-87654519D01*
X94392087Y-87654520D01*
X94358001Y-87688605D01*
X94303487Y-87716381D01*
X94243055Y-87706810D01*
X94217999Y-87688606D01*
X94183913Y-87654520D01*
X94164318Y-87643207D01*
X94092589Y-87601794D01*
X94092588Y-87601793D01*
X94092587Y-87601793D01*
X93990727Y-87574500D01*
X93885273Y-87574500D01*
X93783413Y-87601793D01*
X93783412Y-87601793D01*
X93783410Y-87601794D01*
X93783409Y-87601794D01*
X93692089Y-87654518D01*
X93617518Y-87729089D01*
X93564794Y-87820409D01*
X93564794Y-87820410D01*
X93564793Y-87820412D01*
X93564793Y-87820413D01*
X93537500Y-87922273D01*
X88018877Y-87922273D01*
X88152881Y-87785954D01*
X88156231Y-87782705D01*
X88729637Y-87252725D01*
X88751276Y-87232725D01*
X88754793Y-87229625D01*
X88852930Y-87147273D01*
X91429500Y-87147273D01*
X91429500Y-87252727D01*
X91456793Y-87354587D01*
X91456794Y-87354589D01*
X91456794Y-87354590D01*
X91497209Y-87424590D01*
X91509520Y-87445913D01*
X91584087Y-87520480D01*
X91675413Y-87573207D01*
X91777273Y-87600500D01*
X91777275Y-87600500D01*
X91882725Y-87600500D01*
X91882727Y-87600500D01*
X91984587Y-87573207D01*
X92075913Y-87520480D01*
X92150480Y-87445913D01*
X92203207Y-87354587D01*
X92230500Y-87252727D01*
X92230500Y-87177273D01*
X97819500Y-87177273D01*
X97819500Y-87282727D01*
X97846793Y-87384587D01*
X97846794Y-87384589D01*
X97846794Y-87384590D01*
X97899518Y-87475910D01*
X97899520Y-87475913D01*
X97974087Y-87550480D01*
X98065413Y-87603207D01*
X98167273Y-87630500D01*
X98167275Y-87630500D01*
X98272725Y-87630500D01*
X98272727Y-87630500D01*
X98374587Y-87603207D01*
X98465913Y-87550480D01*
X98540480Y-87475913D01*
X98593207Y-87384587D01*
X98620500Y-87282727D01*
X98620500Y-87177273D01*
X98593207Y-87075413D01*
X98588508Y-87067274D01*
X98575470Y-87044691D01*
X98562749Y-86984843D01*
X98587636Y-86928947D01*
X98591166Y-86925226D01*
X98620480Y-86895913D01*
X98673207Y-86804587D01*
X98700500Y-86702727D01*
X98700500Y-86657273D01*
X102849500Y-86657273D01*
X102849500Y-86762727D01*
X102870588Y-86841428D01*
X102876794Y-86864589D01*
X102876794Y-86864590D01*
X102925621Y-86949160D01*
X102938343Y-87009008D01*
X102925622Y-87048157D01*
X102886793Y-87115413D01*
X102859500Y-87217273D01*
X102859500Y-87322727D01*
X102876076Y-87384589D01*
X102886794Y-87424589D01*
X102886794Y-87424590D01*
X102935954Y-87509737D01*
X102939520Y-87515913D01*
X103014087Y-87590480D01*
X103105413Y-87643207D01*
X103207273Y-87670500D01*
X103207275Y-87670500D01*
X103312725Y-87670500D01*
X103312727Y-87670500D01*
X103414587Y-87643207D01*
X103473389Y-87609257D01*
X103533236Y-87596536D01*
X103589131Y-87621422D01*
X103619724Y-87674410D01*
X103613329Y-87735260D01*
X103608626Y-87744490D01*
X103564793Y-87820413D01*
X103537500Y-87922273D01*
X103537500Y-88027727D01*
X103562955Y-88122727D01*
X103564794Y-88129589D01*
X103564794Y-88129590D01*
X103609368Y-88206794D01*
X103617520Y-88220913D01*
X103692087Y-88295480D01*
X103783413Y-88348207D01*
X103885273Y-88375500D01*
X103885275Y-88375500D01*
X103990725Y-88375500D01*
X103990727Y-88375500D01*
X104092587Y-88348207D01*
X104183913Y-88295480D01*
X104217998Y-88261394D01*
X104272513Y-88233619D01*
X104332945Y-88243190D01*
X104358000Y-88261393D01*
X104392087Y-88295480D01*
X104483413Y-88348207D01*
X104585273Y-88375500D01*
X104585275Y-88375500D01*
X104690725Y-88375500D01*
X104690727Y-88375500D01*
X104792587Y-88348207D01*
X104883913Y-88295480D01*
X104917998Y-88261394D01*
X104972513Y-88233619D01*
X105032945Y-88243190D01*
X105058000Y-88261393D01*
X105092087Y-88295480D01*
X105183413Y-88348207D01*
X105285273Y-88375500D01*
X105285275Y-88375500D01*
X105390725Y-88375500D01*
X105390727Y-88375500D01*
X105492587Y-88348207D01*
X105583913Y-88295480D01*
X105617998Y-88261394D01*
X105672513Y-88233619D01*
X105732945Y-88243190D01*
X105758000Y-88261393D01*
X105792087Y-88295480D01*
X105883413Y-88348207D01*
X105985273Y-88375500D01*
X105985275Y-88375500D01*
X106090725Y-88375500D01*
X106090727Y-88375500D01*
X106192587Y-88348207D01*
X106283913Y-88295480D01*
X106358480Y-88220913D01*
X106411207Y-88129587D01*
X106438500Y-88027727D01*
X106438500Y-88017273D01*
X109459500Y-88017273D01*
X109459500Y-88122727D01*
X109485808Y-88220910D01*
X109486794Y-88224589D01*
X109486794Y-88224590D01*
X109537151Y-88311810D01*
X109539520Y-88315913D01*
X109614087Y-88390480D01*
X109705413Y-88443207D01*
X109807273Y-88470500D01*
X109807275Y-88470500D01*
X109912725Y-88470500D01*
X109912727Y-88470500D01*
X110014587Y-88443207D01*
X110105913Y-88390480D01*
X110139998Y-88356394D01*
X110194513Y-88328619D01*
X110254945Y-88338190D01*
X110280000Y-88356393D01*
X110314087Y-88390480D01*
X110405413Y-88443207D01*
X110507273Y-88470500D01*
X110507275Y-88470500D01*
X110612725Y-88470500D01*
X110612727Y-88470500D01*
X110714587Y-88443207D01*
X110805913Y-88390480D01*
X110880480Y-88315913D01*
X110933207Y-88224587D01*
X110960500Y-88122727D01*
X110960500Y-88017273D01*
X110933207Y-87915413D01*
X110880480Y-87824087D01*
X110805913Y-87749520D01*
X110770525Y-87729089D01*
X110714589Y-87696794D01*
X110714588Y-87696793D01*
X110714587Y-87696793D01*
X110612727Y-87669500D01*
X110507273Y-87669500D01*
X110405413Y-87696793D01*
X110405412Y-87696793D01*
X110405410Y-87696794D01*
X110405409Y-87696794D01*
X110314089Y-87749518D01*
X110314087Y-87749519D01*
X110314087Y-87749520D01*
X110280001Y-87783605D01*
X110225487Y-87811381D01*
X110165055Y-87801810D01*
X110139999Y-87783606D01*
X110105913Y-87749520D01*
X110070525Y-87729089D01*
X110014589Y-87696794D01*
X110014588Y-87696793D01*
X110014587Y-87696793D01*
X109912727Y-87669500D01*
X109807273Y-87669500D01*
X109705413Y-87696793D01*
X109705412Y-87696793D01*
X109705410Y-87696794D01*
X109705409Y-87696794D01*
X109614089Y-87749518D01*
X109539518Y-87824089D01*
X109486794Y-87915409D01*
X109486794Y-87915410D01*
X109486793Y-87915412D01*
X109486793Y-87915413D01*
X109459500Y-88017273D01*
X106438500Y-88017273D01*
X106438500Y-87922273D01*
X106411207Y-87820413D01*
X106405992Y-87811381D01*
X106358481Y-87729089D01*
X106358480Y-87729087D01*
X106283913Y-87654520D01*
X106264318Y-87643207D01*
X106192589Y-87601794D01*
X106192588Y-87601793D01*
X106192587Y-87601793D01*
X106090727Y-87574500D01*
X105985273Y-87574500D01*
X105883413Y-87601793D01*
X105883412Y-87601793D01*
X105883410Y-87601794D01*
X105883409Y-87601794D01*
X105792089Y-87654518D01*
X105792087Y-87654519D01*
X105792087Y-87654520D01*
X105758001Y-87688605D01*
X105703487Y-87716381D01*
X105643055Y-87706810D01*
X105617999Y-87688606D01*
X105583913Y-87654520D01*
X105564318Y-87643207D01*
X105492589Y-87601794D01*
X105492588Y-87601793D01*
X105492587Y-87601793D01*
X105390727Y-87574500D01*
X105285273Y-87574500D01*
X105183413Y-87601793D01*
X105183412Y-87601793D01*
X105183410Y-87601794D01*
X105183409Y-87601794D01*
X105092089Y-87654518D01*
X105092087Y-87654519D01*
X105092087Y-87654520D01*
X105058001Y-87688605D01*
X105003487Y-87716381D01*
X104943055Y-87706810D01*
X104917999Y-87688606D01*
X104883913Y-87654520D01*
X104864318Y-87643207D01*
X104792589Y-87601794D01*
X104792588Y-87601793D01*
X104792587Y-87601793D01*
X104690727Y-87574500D01*
X104585273Y-87574500D01*
X104483413Y-87601793D01*
X104483412Y-87601793D01*
X104483410Y-87601794D01*
X104483409Y-87601794D01*
X104392089Y-87654518D01*
X104392087Y-87654519D01*
X104392087Y-87654520D01*
X104358001Y-87688605D01*
X104303487Y-87716381D01*
X104243055Y-87706810D01*
X104217999Y-87688606D01*
X104183913Y-87654520D01*
X104164318Y-87643207D01*
X104092589Y-87601794D01*
X104092588Y-87601793D01*
X104092587Y-87601793D01*
X103990727Y-87574500D01*
X103885273Y-87574500D01*
X103834343Y-87588146D01*
X103783411Y-87601793D01*
X103724610Y-87635742D01*
X103664761Y-87648463D01*
X103608866Y-87623576D01*
X103578274Y-87570587D01*
X103584670Y-87509737D01*
X103589364Y-87500524D01*
X103633207Y-87424587D01*
X103660500Y-87322727D01*
X103660500Y-87217273D01*
X103633207Y-87115413D01*
X103584377Y-87030838D01*
X103571656Y-86970991D01*
X103584375Y-86931844D01*
X103623207Y-86864587D01*
X103650500Y-86762727D01*
X103650500Y-86657273D01*
X103623207Y-86555413D01*
X103623206Y-86555411D01*
X103623205Y-86555407D01*
X103622323Y-86553278D01*
X103622193Y-86551632D01*
X103621527Y-86549145D01*
X103621988Y-86549021D01*
X103621498Y-86542788D01*
X107896964Y-86542788D01*
X107896964Y-86648242D01*
X107911563Y-86702725D01*
X107924257Y-86750103D01*
X107969101Y-86827775D01*
X107981822Y-86887623D01*
X107969101Y-86926773D01*
X107946793Y-86965411D01*
X107929262Y-87030839D01*
X107919500Y-87067273D01*
X107919500Y-87172727D01*
X107940936Y-87252727D01*
X107946794Y-87274589D01*
X107946794Y-87274590D01*
X107999518Y-87365910D01*
X107999520Y-87365913D01*
X108074087Y-87440480D01*
X108165413Y-87493207D01*
X108267273Y-87520500D01*
X108267275Y-87520500D01*
X108372725Y-87520500D01*
X108372727Y-87520500D01*
X108474587Y-87493207D01*
X108565913Y-87440480D01*
X108640480Y-87365913D01*
X108693207Y-87274587D01*
X108720500Y-87172727D01*
X108720500Y-87067273D01*
X108693207Y-86965413D01*
X108648362Y-86887740D01*
X108635641Y-86827893D01*
X108648363Y-86788741D01*
X108670669Y-86750105D01*
X108670671Y-86750102D01*
X108697964Y-86648242D01*
X108697964Y-86542788D01*
X108670671Y-86440928D01*
X108670200Y-86440113D01*
X108617945Y-86349604D01*
X108617944Y-86349602D01*
X108543377Y-86275035D01*
X108542587Y-86274579D01*
X108452053Y-86222309D01*
X108452052Y-86222308D01*
X108452051Y-86222308D01*
X108350191Y-86195015D01*
X108244737Y-86195015D01*
X108142877Y-86222308D01*
X108142876Y-86222308D01*
X108142874Y-86222309D01*
X108142873Y-86222309D01*
X108051553Y-86275033D01*
X107976982Y-86349604D01*
X107924258Y-86440924D01*
X107924258Y-86440925D01*
X107924257Y-86440927D01*
X107924257Y-86440928D01*
X107896964Y-86542788D01*
X103621498Y-86542788D01*
X103617524Y-86492281D01*
X103649495Y-86440113D01*
X103706024Y-86416700D01*
X103763284Y-86429657D01*
X103795413Y-86448207D01*
X103897273Y-86475500D01*
X103897275Y-86475500D01*
X104002725Y-86475500D01*
X104002727Y-86475500D01*
X104104587Y-86448207D01*
X104195913Y-86395480D01*
X104195915Y-86395478D01*
X104201063Y-86391529D01*
X104202719Y-86393687D01*
X104247013Y-86371119D01*
X104307445Y-86380690D01*
X104323373Y-86392262D01*
X104323937Y-86391529D01*
X104329084Y-86395478D01*
X104329086Y-86395479D01*
X104329087Y-86395480D01*
X104420413Y-86448207D01*
X104522273Y-86475500D01*
X104522275Y-86475500D01*
X104627725Y-86475500D01*
X104627727Y-86475500D01*
X104729587Y-86448207D01*
X104820913Y-86395480D01*
X104854998Y-86361394D01*
X104909513Y-86333619D01*
X104969945Y-86343190D01*
X104995000Y-86361393D01*
X105029087Y-86395480D01*
X105120413Y-86448207D01*
X105222273Y-86475500D01*
X105222275Y-86475500D01*
X105327725Y-86475500D01*
X105327727Y-86475500D01*
X105429587Y-86448207D01*
X105520913Y-86395480D01*
X105554998Y-86361394D01*
X105609513Y-86333619D01*
X105669945Y-86343190D01*
X105695000Y-86361393D01*
X105729087Y-86395480D01*
X105820413Y-86448207D01*
X105922273Y-86475500D01*
X105922275Y-86475500D01*
X106027725Y-86475500D01*
X106027727Y-86475500D01*
X106129587Y-86448207D01*
X106220913Y-86395480D01*
X106295480Y-86320913D01*
X106348207Y-86229587D01*
X106375500Y-86127727D01*
X106375500Y-86022273D01*
X106348207Y-85920413D01*
X106295480Y-85829087D01*
X106220913Y-85754520D01*
X106219018Y-85753426D01*
X106129589Y-85701794D01*
X106129588Y-85701793D01*
X106129587Y-85701793D01*
X106027727Y-85674500D01*
X105922273Y-85674500D01*
X105820413Y-85701793D01*
X105820412Y-85701793D01*
X105820410Y-85701794D01*
X105820409Y-85701794D01*
X105729089Y-85754518D01*
X105729087Y-85754519D01*
X105729087Y-85754520D01*
X105695001Y-85788605D01*
X105640487Y-85816381D01*
X105580055Y-85806810D01*
X105554999Y-85788606D01*
X105520913Y-85754520D01*
X105519018Y-85753426D01*
X105429589Y-85701794D01*
X105429588Y-85701793D01*
X105429587Y-85701793D01*
X105327727Y-85674500D01*
X105222273Y-85674500D01*
X105120413Y-85701793D01*
X105120412Y-85701793D01*
X105120410Y-85701794D01*
X105120409Y-85701794D01*
X105029089Y-85754518D01*
X105029087Y-85754519D01*
X105029087Y-85754520D01*
X104995001Y-85788605D01*
X104940487Y-85816381D01*
X104880055Y-85806810D01*
X104854999Y-85788606D01*
X104820913Y-85754520D01*
X104819018Y-85753426D01*
X104729589Y-85701794D01*
X104729588Y-85701793D01*
X104729587Y-85701793D01*
X104627727Y-85674500D01*
X104522273Y-85674500D01*
X104420413Y-85701793D01*
X104420412Y-85701793D01*
X104420410Y-85701794D01*
X104420409Y-85701794D01*
X104329084Y-85754521D01*
X104323937Y-85758471D01*
X104322285Y-85756318D01*
X104277945Y-85778887D01*
X104217517Y-85769289D01*
X104201622Y-85757741D01*
X104201063Y-85758471D01*
X104195915Y-85754521D01*
X104104589Y-85701794D01*
X104104588Y-85701793D01*
X104104587Y-85701793D01*
X104002727Y-85674500D01*
X103897273Y-85674500D01*
X103897270Y-85674500D01*
X103865121Y-85683114D01*
X103804019Y-85679911D01*
X103756470Y-85641404D01*
X103740500Y-85587487D01*
X103740500Y-85497274D01*
X103740500Y-85497273D01*
X103713207Y-85395413D01*
X103711933Y-85393207D01*
X103660481Y-85304089D01*
X103660480Y-85304087D01*
X103585913Y-85229520D01*
X103574185Y-85222749D01*
X103494589Y-85176794D01*
X103494588Y-85176793D01*
X103494587Y-85176793D01*
X103392727Y-85149500D01*
X103287273Y-85149500D01*
X103185413Y-85176793D01*
X103185412Y-85176793D01*
X103185410Y-85176794D01*
X103185409Y-85176794D01*
X103094089Y-85229518D01*
X103019518Y-85304089D01*
X102966794Y-85395409D01*
X102966794Y-85395410D01*
X102966793Y-85395412D01*
X102966793Y-85395413D01*
X102939500Y-85497273D01*
X102939500Y-85602727D01*
X102966045Y-85701794D01*
X102966794Y-85704589D01*
X102966794Y-85704590D01*
X103009690Y-85778887D01*
X103019520Y-85795913D01*
X103094087Y-85870480D01*
X103185413Y-85923207D01*
X103287273Y-85950500D01*
X103287275Y-85950500D01*
X103392725Y-85950500D01*
X103392727Y-85950500D01*
X103424878Y-85941885D01*
X103485979Y-85945088D01*
X103533528Y-85983593D01*
X103549500Y-86037512D01*
X103549500Y-86127727D01*
X103555493Y-86150093D01*
X103576794Y-86229591D01*
X103577679Y-86231727D01*
X103577808Y-86233375D01*
X103578473Y-86235855D01*
X103578013Y-86235978D01*
X103582473Y-86292724D01*
X103550499Y-86344890D01*
X103493969Y-86368300D01*
X103436712Y-86355340D01*
X103404587Y-86336793D01*
X103302727Y-86309500D01*
X103197273Y-86309500D01*
X103095413Y-86336793D01*
X103095412Y-86336793D01*
X103095410Y-86336794D01*
X103095409Y-86336794D01*
X103004089Y-86389518D01*
X102929518Y-86464089D01*
X102876794Y-86555409D01*
X102876794Y-86555410D01*
X102876793Y-86555412D01*
X102876793Y-86555413D01*
X102849500Y-86657273D01*
X98700500Y-86657273D01*
X98700500Y-86597273D01*
X98692325Y-86566765D01*
X98691552Y-86558382D01*
X98696526Y-86536356D01*
X98697708Y-86513807D01*
X98703133Y-86507107D01*
X98705032Y-86498700D01*
X98722002Y-86483805D01*
X98736212Y-86466257D01*
X98744537Y-86464026D01*
X98751017Y-86458339D01*
X98773506Y-86456263D01*
X98795313Y-86450420D01*
X98810597Y-86452840D01*
X98811944Y-86452716D01*
X98812717Y-86453175D01*
X98815748Y-86453655D01*
X98897273Y-86475500D01*
X98897275Y-86475500D01*
X99002725Y-86475500D01*
X99002727Y-86475500D01*
X99104587Y-86448207D01*
X99195913Y-86395480D01*
X99195915Y-86395478D01*
X99201063Y-86391529D01*
X99202719Y-86393687D01*
X99247013Y-86371119D01*
X99307445Y-86380690D01*
X99323373Y-86392262D01*
X99323937Y-86391529D01*
X99329084Y-86395478D01*
X99329086Y-86395479D01*
X99329087Y-86395480D01*
X99420413Y-86448207D01*
X99522273Y-86475500D01*
X99522275Y-86475500D01*
X99627725Y-86475500D01*
X99627727Y-86475500D01*
X99729587Y-86448207D01*
X99820913Y-86395480D01*
X99854998Y-86361394D01*
X99909513Y-86333619D01*
X99969945Y-86343190D01*
X99995000Y-86361393D01*
X100029087Y-86395480D01*
X100120413Y-86448207D01*
X100222273Y-86475500D01*
X100222275Y-86475500D01*
X100327725Y-86475500D01*
X100327727Y-86475500D01*
X100429587Y-86448207D01*
X100520913Y-86395480D01*
X100554998Y-86361394D01*
X100609513Y-86333619D01*
X100669945Y-86343190D01*
X100695000Y-86361393D01*
X100729087Y-86395480D01*
X100820413Y-86448207D01*
X100922273Y-86475500D01*
X100922275Y-86475500D01*
X101027725Y-86475500D01*
X101027727Y-86475500D01*
X101129587Y-86448207D01*
X101220913Y-86395480D01*
X101295480Y-86320913D01*
X101348207Y-86229587D01*
X101375500Y-86127727D01*
X101375500Y-86022273D01*
X101348207Y-85920413D01*
X101295480Y-85829087D01*
X101220913Y-85754520D01*
X101219018Y-85753426D01*
X101129589Y-85701794D01*
X101129588Y-85701793D01*
X101129587Y-85701793D01*
X101027727Y-85674500D01*
X100922273Y-85674500D01*
X100820413Y-85701793D01*
X100820412Y-85701793D01*
X100820410Y-85701794D01*
X100820409Y-85701794D01*
X100729089Y-85754518D01*
X100729087Y-85754519D01*
X100729087Y-85754520D01*
X100695001Y-85788605D01*
X100640487Y-85816381D01*
X100580055Y-85806810D01*
X100554999Y-85788606D01*
X100520913Y-85754520D01*
X100519018Y-85753426D01*
X100429589Y-85701794D01*
X100429588Y-85701793D01*
X100429587Y-85701793D01*
X100327727Y-85674500D01*
X100222273Y-85674500D01*
X100120413Y-85701793D01*
X100120412Y-85701793D01*
X100120410Y-85701794D01*
X100120409Y-85701794D01*
X100029089Y-85754518D01*
X100029087Y-85754519D01*
X100029087Y-85754520D01*
X99995001Y-85788605D01*
X99940487Y-85816381D01*
X99880055Y-85806810D01*
X99854999Y-85788606D01*
X99820913Y-85754520D01*
X99819018Y-85753426D01*
X99729589Y-85701794D01*
X99729588Y-85701793D01*
X99729587Y-85701793D01*
X99627727Y-85674500D01*
X99522273Y-85674500D01*
X99420413Y-85701793D01*
X99420412Y-85701793D01*
X99420410Y-85701794D01*
X99420409Y-85701794D01*
X99329084Y-85754521D01*
X99323937Y-85758471D01*
X99322285Y-85756318D01*
X99277945Y-85778887D01*
X99217517Y-85769289D01*
X99201622Y-85757741D01*
X99201063Y-85758471D01*
X99195915Y-85754521D01*
X99104589Y-85701794D01*
X99104588Y-85701793D01*
X99104587Y-85701793D01*
X99002727Y-85674500D01*
X98897273Y-85674500D01*
X98795413Y-85701793D01*
X98795412Y-85701793D01*
X98795410Y-85701794D01*
X98795409Y-85701794D01*
X98704089Y-85754518D01*
X98629518Y-85829089D01*
X98576794Y-85920409D01*
X98576794Y-85920410D01*
X98576793Y-85920412D01*
X98576793Y-85920413D01*
X98549500Y-86022273D01*
X98549500Y-86127727D01*
X98555493Y-86150093D01*
X98552290Y-86211194D01*
X98513785Y-86258744D01*
X98454684Y-86274579D01*
X98434244Y-86271342D01*
X98387226Y-86258744D01*
X98352727Y-86249500D01*
X98247273Y-86249500D01*
X98145413Y-86276793D01*
X98145412Y-86276793D01*
X98145410Y-86276794D01*
X98145409Y-86276794D01*
X98054089Y-86329518D01*
X97979518Y-86404089D01*
X97926794Y-86495409D01*
X97926794Y-86495410D01*
X97926793Y-86495412D01*
X97926793Y-86495413D01*
X97899500Y-86597273D01*
X97899500Y-86702727D01*
X97925430Y-86799500D01*
X97926794Y-86804589D01*
X97926795Y-86804591D01*
X97944529Y-86835309D01*
X97957249Y-86895157D01*
X97932362Y-86951052D01*
X97928797Y-86954810D01*
X97899518Y-86984089D01*
X97846794Y-87075409D01*
X97846794Y-87075410D01*
X97846794Y-87075411D01*
X97846793Y-87075413D01*
X97819500Y-87177273D01*
X92230500Y-87177273D01*
X92230500Y-87147273D01*
X92203207Y-87045413D01*
X92190894Y-87024087D01*
X92163968Y-86977449D01*
X92150480Y-86954087D01*
X92075913Y-86879520D01*
X92057735Y-86869025D01*
X91984589Y-86826794D01*
X91984588Y-86826793D01*
X91984587Y-86826793D01*
X91882727Y-86799500D01*
X91777273Y-86799500D01*
X91675413Y-86826793D01*
X91675412Y-86826793D01*
X91675410Y-86826794D01*
X91675409Y-86826794D01*
X91584089Y-86879518D01*
X91509518Y-86954089D01*
X91456794Y-87045409D01*
X91456794Y-87045410D01*
X91456793Y-87045412D01*
X91456793Y-87045413D01*
X91429500Y-87147273D01*
X88852930Y-87147273D01*
X89375494Y-86708763D01*
X89379166Y-86705828D01*
X90024108Y-86215273D01*
X90027929Y-86212510D01*
X90304593Y-86022273D01*
X93549500Y-86022273D01*
X93549500Y-86127727D01*
X93572962Y-86215289D01*
X93576794Y-86229589D01*
X93576794Y-86229590D01*
X93629518Y-86320910D01*
X93629520Y-86320913D01*
X93704087Y-86395480D01*
X93795413Y-86448207D01*
X93897273Y-86475500D01*
X93897275Y-86475500D01*
X94002725Y-86475500D01*
X94002727Y-86475500D01*
X94104587Y-86448207D01*
X94195913Y-86395480D01*
X94195915Y-86395478D01*
X94201063Y-86391529D01*
X94202719Y-86393687D01*
X94247013Y-86371119D01*
X94307445Y-86380690D01*
X94323373Y-86392262D01*
X94323937Y-86391529D01*
X94329084Y-86395478D01*
X94329086Y-86395479D01*
X94329087Y-86395480D01*
X94420413Y-86448207D01*
X94522273Y-86475500D01*
X94522275Y-86475500D01*
X94627725Y-86475500D01*
X94627727Y-86475500D01*
X94729587Y-86448207D01*
X94820913Y-86395480D01*
X94854998Y-86361394D01*
X94909513Y-86333619D01*
X94969945Y-86343190D01*
X94995000Y-86361393D01*
X95029087Y-86395480D01*
X95120413Y-86448207D01*
X95222273Y-86475500D01*
X95222275Y-86475500D01*
X95327725Y-86475500D01*
X95327727Y-86475500D01*
X95429587Y-86448207D01*
X95520913Y-86395480D01*
X95554998Y-86361394D01*
X95609513Y-86333619D01*
X95669945Y-86343190D01*
X95695000Y-86361393D01*
X95729087Y-86395480D01*
X95820413Y-86448207D01*
X95922273Y-86475500D01*
X95922275Y-86475500D01*
X96027725Y-86475500D01*
X96027727Y-86475500D01*
X96129587Y-86448207D01*
X96220913Y-86395480D01*
X96295480Y-86320913D01*
X96348207Y-86229587D01*
X96375500Y-86127727D01*
X96375500Y-86022273D01*
X96348207Y-85920413D01*
X96295480Y-85829087D01*
X96220913Y-85754520D01*
X96219018Y-85753426D01*
X96129589Y-85701794D01*
X96129588Y-85701793D01*
X96129587Y-85701793D01*
X96027727Y-85674500D01*
X95922273Y-85674500D01*
X95820413Y-85701793D01*
X95820412Y-85701793D01*
X95820410Y-85701794D01*
X95820409Y-85701794D01*
X95729089Y-85754518D01*
X95729087Y-85754519D01*
X95729087Y-85754520D01*
X95695001Y-85788605D01*
X95640487Y-85816381D01*
X95580055Y-85806810D01*
X95554999Y-85788606D01*
X95520913Y-85754520D01*
X95519018Y-85753426D01*
X95429589Y-85701794D01*
X95429588Y-85701793D01*
X95429587Y-85701793D01*
X95327727Y-85674500D01*
X95222273Y-85674500D01*
X95120413Y-85701793D01*
X95120412Y-85701793D01*
X95120410Y-85701794D01*
X95120409Y-85701794D01*
X95029089Y-85754518D01*
X95029087Y-85754519D01*
X95029087Y-85754520D01*
X94995001Y-85788605D01*
X94940487Y-85816381D01*
X94880055Y-85806810D01*
X94854999Y-85788606D01*
X94820913Y-85754520D01*
X94819018Y-85753426D01*
X94729589Y-85701794D01*
X94729588Y-85701793D01*
X94729587Y-85701793D01*
X94627727Y-85674500D01*
X94522273Y-85674500D01*
X94420413Y-85701793D01*
X94420412Y-85701793D01*
X94420410Y-85701794D01*
X94420409Y-85701794D01*
X94329084Y-85754521D01*
X94323937Y-85758471D01*
X94322285Y-85756318D01*
X94277945Y-85778887D01*
X94217517Y-85769289D01*
X94201622Y-85757741D01*
X94201063Y-85758471D01*
X94195915Y-85754521D01*
X94104589Y-85701794D01*
X94104588Y-85701793D01*
X94104587Y-85701793D01*
X94002727Y-85674500D01*
X93897273Y-85674500D01*
X93795413Y-85701793D01*
X93795412Y-85701793D01*
X93795410Y-85701794D01*
X93795409Y-85701794D01*
X93704089Y-85754518D01*
X93629518Y-85829089D01*
X93576794Y-85920409D01*
X93576794Y-85920410D01*
X93576793Y-85920412D01*
X93576793Y-85920413D01*
X93549500Y-86022273D01*
X90304593Y-86022273D01*
X90408973Y-85950500D01*
X90695590Y-85753418D01*
X90699538Y-85750841D01*
X91388417Y-85324246D01*
X91392472Y-85321868D01*
X92031548Y-84967273D01*
X98992000Y-84967273D01*
X98992000Y-85072727D01*
X99019293Y-85174587D01*
X99019294Y-85174589D01*
X99019294Y-85174590D01*
X99072018Y-85265910D01*
X99072020Y-85265913D01*
X99146587Y-85340480D01*
X99237913Y-85393207D01*
X99339773Y-85420500D01*
X99339775Y-85420500D01*
X99445225Y-85420500D01*
X99445227Y-85420500D01*
X99547087Y-85393207D01*
X99638413Y-85340480D01*
X99712980Y-85265913D01*
X99714263Y-85263689D01*
X99715632Y-85262457D01*
X99716929Y-85260767D01*
X99717242Y-85261007D01*
X99759732Y-85222749D01*
X99820582Y-85216352D01*
X99873570Y-85246944D01*
X99885734Y-85263687D01*
X99887020Y-85265913D01*
X99961587Y-85340480D01*
X100052913Y-85393207D01*
X100154773Y-85420500D01*
X100154775Y-85420500D01*
X100260225Y-85420500D01*
X100260227Y-85420500D01*
X100362087Y-85393207D01*
X100453413Y-85340480D01*
X100527980Y-85265913D01*
X100580707Y-85174587D01*
X100608000Y-85072727D01*
X100608000Y-84967273D01*
X100580707Y-84865413D01*
X100574282Y-84854285D01*
X100527981Y-84774089D01*
X100527980Y-84774087D01*
X100453413Y-84699520D01*
X100362087Y-84646793D01*
X100260227Y-84619500D01*
X100154773Y-84619500D01*
X100052913Y-84646793D01*
X100052912Y-84646793D01*
X100052910Y-84646794D01*
X100052909Y-84646794D01*
X99961589Y-84699518D01*
X99887019Y-84774088D01*
X99885735Y-84776313D01*
X99884365Y-84777546D01*
X99883071Y-84779233D01*
X99882758Y-84778993D01*
X99840263Y-84817253D01*
X99779413Y-84823646D01*
X99726426Y-84793051D01*
X99714265Y-84776313D01*
X99712981Y-84774089D01*
X99712980Y-84774087D01*
X99638413Y-84699520D01*
X99547087Y-84646793D01*
X99445227Y-84619500D01*
X99339773Y-84619500D01*
X99237913Y-84646793D01*
X99237912Y-84646793D01*
X99237910Y-84646794D01*
X99237909Y-84646794D01*
X99146589Y-84699518D01*
X99072018Y-84774089D01*
X99019294Y-84865409D01*
X99019294Y-84865410D01*
X99019293Y-84865412D01*
X99019293Y-84865413D01*
X98992000Y-84967273D01*
X92031548Y-84967273D01*
X92098854Y-84929928D01*
X92099269Y-84929700D01*
X92103933Y-84927153D01*
X92105365Y-84926387D01*
X92138378Y-84909091D01*
X92138379Y-84909089D01*
X92138508Y-84909022D01*
X92139160Y-84908478D01*
X92139167Y-84908471D01*
X92141104Y-84906851D01*
X92141112Y-84906847D01*
X92164591Y-84877703D01*
X92165599Y-84876473D01*
X92189487Y-84847853D01*
X92189488Y-84847849D01*
X92192280Y-84844504D01*
X92196832Y-84837684D01*
X94003702Y-82594987D01*
X94066220Y-82517389D01*
X94117451Y-82483937D01*
X94143312Y-82480500D01*
X95236282Y-82480500D01*
X95294473Y-82499407D01*
G37*
%TD.AperFunction*%
%TD*%
M02*
