%TF.GenerationSoftware,KiCad,Pcbnew,9.0.3*%
%TF.CreationDate,2025-09-12T00:22:28+02:00*%
%TF.ProjectId,FOC_CONTROLLER_V1,464f435f-434f-44e5-9452-4f4c4c45525f,rev?*%
%TF.SameCoordinates,Original*%
%TF.FileFunction,Paste,Top*%
%TF.FilePolarity,Positive*%
%FSLAX46Y46*%
G04 Gerber Fmt 4.6, Leading zero omitted, Abs format (unit mm)*
G04 Created by KiCad (PCBNEW 9.0.3) date 2025-09-12 00:22:28*
%MOMM*%
%LPD*%
G01*
G04 APERTURE LIST*
G04 Aperture macros list*
%AMRoundRect*
0 Rectangle with rounded corners*
0 $1 Rounding radius*
0 $2 $3 $4 $5 $6 $7 $8 $9 X,Y pos of 4 corners*
0 Add a 4 corners polygon primitive as box body*
4,1,4,$2,$3,$4,$5,$6,$7,$8,$9,$2,$3,0*
0 Add four circle primitives for the rounded corners*
1,1,$1+$1,$2,$3*
1,1,$1+$1,$4,$5*
1,1,$1+$1,$6,$7*
1,1,$1+$1,$8,$9*
0 Add four rect primitives between the rounded corners*
20,1,$1+$1,$2,$3,$4,$5,0*
20,1,$1+$1,$4,$5,$6,$7,0*
20,1,$1+$1,$6,$7,$8,$9,0*
20,1,$1+$1,$8,$9,$2,$3,0*%
G04 Aperture macros list end*
%ADD10RoundRect,0.067500X0.067500X-0.137500X0.067500X0.137500X-0.067500X0.137500X-0.067500X-0.137500X0*%
%ADD11RoundRect,0.250000X-0.250000X-0.475000X0.250000X-0.475000X0.250000X0.475000X-0.250000X0.475000X0*%
%ADD12R,0.970000X0.650000*%
%ADD13RoundRect,0.090000X0.139000X0.090000X-0.139000X0.090000X-0.139000X-0.090000X0.139000X-0.090000X0*%
%ADD14RoundRect,0.090000X0.090000X-0.139000X0.090000X0.139000X-0.090000X0.139000X-0.090000X-0.139000X0*%
%ADD15RoundRect,0.090000X-0.090000X0.139000X-0.090000X-0.139000X0.090000X-0.139000X0.090000X0.139000X0*%
%ADD16R,0.600000X0.650000*%
%ADD17R,0.700000X0.350000*%
%ADD18RoundRect,0.090000X-0.139000X-0.090000X0.139000X-0.090000X0.139000X0.090000X-0.139000X0.090000X0*%
%ADD19RoundRect,0.225000X0.250000X-0.225000X0.250000X0.225000X-0.250000X0.225000X-0.250000X-0.225000X0*%
%ADD20RoundRect,0.250000X0.475000X-0.250000X0.475000X0.250000X-0.475000X0.250000X-0.475000X-0.250000X0*%
%ADD21RoundRect,0.250000X0.250000X0.475000X-0.250000X0.475000X-0.250000X-0.475000X0.250000X-0.475000X0*%
%ADD22R,0.420000X0.550000*%
%ADD23R,1.920000X0.550000*%
%ADD24R,2.700000X0.790000*%
%ADD25R,1.300000X3.400000*%
%ADD26RoundRect,0.140000X0.140000X0.170000X-0.140000X0.170000X-0.140000X-0.170000X0.140000X-0.170000X0*%
%ADD27RoundRect,0.147500X-0.147500X-0.172500X0.147500X-0.172500X0.147500X0.172500X-0.147500X0.172500X0*%
%ADD28R,0.300000X0.850000*%
%ADD29R,0.850000X0.300000*%
%ADD30R,2.700000X2.700000*%
G04 APERTURE END LIST*
D10*
%TO.C,D2*%
X98725000Y-94912500D03*
X98725000Y-94187500D03*
%TD*%
D11*
%TO.C,C36*%
X110300000Y-98140000D03*
X112200000Y-98140000D03*
%TD*%
D12*
%TO.C,D1*%
X99900000Y-109750000D03*
X96420000Y-109750000D03*
%TD*%
D13*
%TO.C,R47*%
X100432500Y-114100000D03*
X99567500Y-114100000D03*
%TD*%
D14*
%TO.C,R30*%
X102120000Y-93162500D03*
X102120000Y-92297500D03*
%TD*%
D15*
%TO.C,R31*%
X108475000Y-87810000D03*
X108475000Y-88675000D03*
%TD*%
D16*
%TO.C,S1*%
X108500000Y-99325000D03*
X108500000Y-102475000D03*
X106800000Y-99325000D03*
X106800000Y-102475000D03*
D17*
X107650000Y-99175000D03*
X107650000Y-102625000D03*
%TD*%
D18*
%TO.C,R37*%
X104665000Y-103550000D03*
X105530000Y-103550000D03*
%TD*%
D15*
%TO.C,R34*%
X94280000Y-101527500D03*
X94280000Y-102392500D03*
%TD*%
D13*
%TO.C,C1*%
X97565000Y-104475000D03*
X96700000Y-104475000D03*
%TD*%
D14*
%TO.C,C30*%
X105260000Y-96872500D03*
X105260000Y-96007500D03*
%TD*%
D13*
%TO.C,C15*%
X105532500Y-100500000D03*
X104667500Y-100500000D03*
%TD*%
D10*
%TO.C,D3*%
X91175000Y-90362500D03*
X91175000Y-89637500D03*
%TD*%
%TO.C,D4*%
X102100000Y-94762500D03*
X102100000Y-94037500D03*
%TD*%
D15*
%TO.C,R15*%
X90840000Y-99745000D03*
X90840000Y-100610000D03*
%TD*%
D19*
%TO.C,C2*%
X96510000Y-92435000D03*
X96510000Y-90885000D03*
%TD*%
D20*
%TO.C,C7*%
X103250000Y-106875000D03*
X103250000Y-104975000D03*
%TD*%
D21*
%TO.C,C33*%
X89600000Y-96190000D03*
X87700000Y-96190000D03*
%TD*%
%TO.C,C27*%
X89590000Y-90290000D03*
X87690000Y-90290000D03*
%TD*%
D15*
%TO.C,C19*%
X94980000Y-101527500D03*
X94980000Y-102392500D03*
%TD*%
D18*
%TO.C,R3*%
X106442500Y-103550000D03*
X107307500Y-103550000D03*
%TD*%
D15*
%TO.C,R21*%
X98075000Y-90567500D03*
X98075000Y-91432500D03*
%TD*%
D21*
%TO.C,C26*%
X89600000Y-92270000D03*
X87700000Y-92270000D03*
%TD*%
D13*
%TO.C,R12*%
X107302500Y-96220000D03*
X106437500Y-96220000D03*
%TD*%
D14*
%TO.C,R19*%
X98800000Y-93212500D03*
X98800000Y-92347500D03*
%TD*%
D10*
%TO.C,D6*%
X109150000Y-90415000D03*
X109150000Y-89690000D03*
%TD*%
D15*
%TO.C,R27*%
X94970000Y-99767500D03*
X94970000Y-100632500D03*
%TD*%
D22*
%TO.C,Q1*%
X93950000Y-88825000D03*
D23*
X95275000Y-88825000D03*
X95275000Y-86075000D03*
D22*
X93950000Y-86075000D03*
D24*
X94988000Y-87975000D03*
X94988000Y-86925000D03*
%TD*%
D13*
%TO.C,R10*%
X107302500Y-96920000D03*
X106437500Y-96920000D03*
%TD*%
D14*
%TO.C,R29*%
X108475000Y-90450000D03*
X108475000Y-89585000D03*
%TD*%
D25*
%TO.C,L2*%
X103400000Y-109775000D03*
X101300000Y-109775000D03*
%TD*%
D14*
%TO.C,R22*%
X90840000Y-102370000D03*
X90840000Y-101505000D03*
%TD*%
D11*
%TO.C,C31*%
X110300000Y-94220000D03*
X112200000Y-94220000D03*
%TD*%
%TO.C,C24*%
X110300000Y-90290000D03*
X112200000Y-90290000D03*
%TD*%
D15*
%TO.C,R23*%
X91540000Y-101507500D03*
X91540000Y-102372500D03*
%TD*%
D19*
%TO.C,C4*%
X103280000Y-92435000D03*
X103280000Y-90885000D03*
%TD*%
D15*
%TO.C,R32*%
X101270000Y-90577500D03*
X101270000Y-91442500D03*
%TD*%
D19*
%TO.C,C10*%
X99750000Y-108050000D03*
X99750000Y-106500000D03*
%TD*%
D13*
%TO.C,C8*%
X94732500Y-97375000D03*
X93867500Y-97375000D03*
%TD*%
D15*
%TO.C,C12*%
X98650000Y-106275000D03*
X98650000Y-107140000D03*
%TD*%
D14*
%TO.C,R7*%
X91825000Y-88707500D03*
X91825000Y-87842500D03*
%TD*%
%TO.C,C6*%
X101900000Y-105557500D03*
X101900000Y-104692500D03*
%TD*%
D15*
%TO.C,R20*%
X101270000Y-92342500D03*
X101270000Y-93207500D03*
%TD*%
D26*
%TO.C,C5*%
X97587500Y-105300000D03*
X96627500Y-105300000D03*
%TD*%
D14*
%TO.C,R28*%
X94270000Y-100632500D03*
X94270000Y-99767500D03*
%TD*%
D18*
%TO.C,R42*%
X104667500Y-101900000D03*
X105532500Y-101900000D03*
%TD*%
D14*
%TO.C,R40*%
X92240000Y-97452500D03*
X92240000Y-96587500D03*
%TD*%
D27*
%TO.C,D8*%
X99515000Y-112820000D03*
X100485000Y-112820000D03*
%TD*%
D21*
%TO.C,C23*%
X89600000Y-94230000D03*
X87700000Y-94230000D03*
%TD*%
D11*
%TO.C,C25*%
X110300000Y-92260000D03*
X112200000Y-92260000D03*
%TD*%
D13*
%TO.C,C18*%
X92512500Y-103897500D03*
X91647500Y-103897500D03*
%TD*%
D10*
%TO.C,D7*%
X102110000Y-91327500D03*
X102110000Y-90602500D03*
%TD*%
D13*
%TO.C,R25*%
X92512500Y-103177500D03*
X91647500Y-103177500D03*
%TD*%
%TO.C,R14*%
X105532500Y-99800000D03*
X104667500Y-99800000D03*
%TD*%
D15*
%TO.C,R46*%
X104550000Y-96007500D03*
X104550000Y-96872500D03*
%TD*%
D22*
%TO.C,Q3*%
X103950000Y-88825000D03*
D23*
X105275000Y-88825000D03*
X105275000Y-86075000D03*
D22*
X103950000Y-86075000D03*
D24*
X104988000Y-87975000D03*
X104988000Y-86925000D03*
%TD*%
D11*
%TO.C,C35*%
X110300000Y-96180000D03*
X112200000Y-96180000D03*
%TD*%
D18*
%TO.C,R11*%
X106437500Y-97620000D03*
X107302500Y-97620000D03*
%TD*%
D14*
%TO.C,R5*%
X98075000Y-94982500D03*
X98075000Y-94117500D03*
%TD*%
%TO.C,R33*%
X93580000Y-102392500D03*
X93580000Y-101527500D03*
%TD*%
D18*
%TO.C,R2*%
X93867500Y-98075000D03*
X94732500Y-98075000D03*
%TD*%
D15*
%TO.C,R13*%
X104540000Y-98107500D03*
X104540000Y-98972500D03*
%TD*%
D13*
%TO.C,R9*%
X107305000Y-98320000D03*
X106440000Y-98320000D03*
%TD*%
D10*
%TO.C,D5*%
X98820000Y-91352500D03*
X98820000Y-90627500D03*
%TD*%
D18*
%TO.C,C9*%
X108217500Y-103550000D03*
X109082500Y-103550000D03*
%TD*%
D14*
%TO.C,R4*%
X98075000Y-93207500D03*
X98075000Y-92342500D03*
%TD*%
D19*
%TO.C,C3*%
X99950000Y-92435000D03*
X99950000Y-90885000D03*
%TD*%
D14*
%TO.C,R18*%
X101270000Y-94965000D03*
X101270000Y-94100000D03*
%TD*%
%TO.C,R6*%
X91825000Y-90482500D03*
X91825000Y-89617500D03*
%TD*%
D22*
%TO.C,Q2*%
X98950000Y-88825000D03*
D23*
X100275000Y-88825000D03*
X100275000Y-86075000D03*
D22*
X98950000Y-86075000D03*
D24*
X99988000Y-87975000D03*
X99988000Y-86925000D03*
%TD*%
D21*
%TO.C,C34*%
X89600000Y-98150000D03*
X87700000Y-98150000D03*
%TD*%
D15*
%TO.C,C14*%
X105240000Y-98117500D03*
X105240000Y-98982500D03*
%TD*%
D14*
%TO.C,C28*%
X91340000Y-97452500D03*
X91340000Y-96587500D03*
%TD*%
D18*
%TO.C,C29*%
X104667500Y-101200000D03*
X105532500Y-101200000D03*
%TD*%
D15*
%TO.C,C16*%
X92240000Y-101505000D03*
X92240000Y-102370000D03*
%TD*%
D19*
%TO.C,C11*%
X97550000Y-108050000D03*
X97550000Y-106500000D03*
%TD*%
D13*
%TO.C,C21*%
X95227500Y-103900000D03*
X94362500Y-103900000D03*
%TD*%
D15*
%TO.C,R16*%
X92240000Y-99745000D03*
X92240000Y-100610000D03*
%TD*%
D14*
%TO.C,R17*%
X91540000Y-100610000D03*
X91540000Y-99745000D03*
%TD*%
D13*
%TO.C,R1*%
X94730000Y-98770000D03*
X93865000Y-98770000D03*
%TD*%
D15*
%TO.C,R26*%
X93570000Y-99757500D03*
X93570000Y-100622500D03*
%TD*%
D28*
%TO.C,IC1*%
X97250000Y-103450000D03*
X97750000Y-103450000D03*
X98250000Y-103450000D03*
X98750000Y-103450000D03*
X99250000Y-103450000D03*
X99750000Y-103450000D03*
X100250000Y-103450000D03*
X100750000Y-103450000D03*
X101250000Y-103450000D03*
X101750000Y-103450000D03*
X102250000Y-103450000D03*
X102750000Y-103450000D03*
D29*
X103450000Y-102750000D03*
X103450000Y-102250000D03*
X103450000Y-101750000D03*
X103450000Y-101250000D03*
X103450000Y-100750000D03*
X103450000Y-100250000D03*
X103450000Y-99750000D03*
X103450000Y-99250000D03*
X103450000Y-98750000D03*
X103450000Y-98250000D03*
X103450000Y-97750000D03*
X103450000Y-97250000D03*
D28*
X102750000Y-96550000D03*
X102250000Y-96550000D03*
X101750000Y-96550000D03*
X101250000Y-96550000D03*
X100750000Y-96550000D03*
X100250000Y-96550000D03*
X99750000Y-96550000D03*
X99250000Y-96550000D03*
X98750000Y-96550000D03*
X98250000Y-96550000D03*
X97750000Y-96550000D03*
X97250000Y-96550000D03*
D29*
X96550000Y-97250000D03*
X96550000Y-97750000D03*
X96550000Y-98250000D03*
X96550000Y-98750000D03*
X96550000Y-99250000D03*
X96550000Y-99750000D03*
X96550000Y-100250000D03*
X96550000Y-100750000D03*
X96550000Y-101250000D03*
X96550000Y-101750000D03*
X96550000Y-102250000D03*
X96550000Y-102750000D03*
D30*
X100000000Y-100000000D03*
%TD*%
D13*
%TO.C,R36*%
X95230000Y-103200000D03*
X94365000Y-103200000D03*
%TD*%
M02*
