%TF.GenerationSoftware,KiCad,Pcbnew,9.0.3*%
%TF.CreationDate,2025-09-12T10:42:05+02:00*%
%TF.ProjectId,FOC_CONTROLLER_V1,464f435f-434f-44e5-9452-4f4c4c45525f,rev?*%
%TF.SameCoordinates,Original*%
%TF.FileFunction,Copper,L3,Inr*%
%TF.FilePolarity,Positive*%
%FSLAX46Y46*%
G04 Gerber Fmt 4.6, Leading zero omitted, Abs format (unit mm)*
G04 Created by KiCad (PCBNEW 9.0.3) date 2025-09-12 10:42:05*
%MOMM*%
%LPD*%
G01*
G04 APERTURE LIST*
%TA.AperFunction,ComponentPad*%
%ADD10C,3.600000*%
%TD*%
%TA.AperFunction,ComponentPad*%
%ADD11C,1.500000*%
%TD*%
%TA.AperFunction,ViaPad*%
%ADD12C,0.400000*%
%TD*%
%TA.AperFunction,Conductor*%
%ADD13C,0.160000*%
%TD*%
%TA.AperFunction,Conductor*%
%ADD14C,0.200000*%
%TD*%
G04 APERTURE END LIST*
D10*
%TO.N,GND*%
%TO.C,TP1*%
X106717500Y-106717500D03*
%TD*%
%TO.N,GND*%
%TO.C,TP1*%
X93282500Y-106717500D03*
%TD*%
D11*
%TO.N,/OUTV*%
%TO.C,TP6*%
X100000000Y-83300000D03*
%TD*%
%TO.N,/OUTW*%
%TO.C,TP7*%
X104000000Y-83300000D03*
%TD*%
%TO.N,/OUTU*%
%TO.C,TP5*%
X96000000Y-83300000D03*
%TD*%
D10*
%TO.N,GND*%
%TO.C,TP1*%
X106717500Y-93282500D03*
%TD*%
%TO.N,GND*%
%TO.C,TP1*%
X93282500Y-93282500D03*
%TD*%
D12*
%TO.N,+3.3V*%
X98280000Y-104500000D03*
X100207500Y-85020000D03*
X103600000Y-106900000D03*
X103050000Y-110475000D03*
X98280000Y-105150000D03*
X103750000Y-110475000D03*
X101900000Y-105550000D03*
X108090000Y-96230000D03*
X102418225Y-99153663D03*
X92240000Y-97980000D03*
X103750000Y-109075000D03*
X103050000Y-109775000D03*
X101770000Y-99260000D03*
X98890000Y-104500000D03*
X103050000Y-109075000D03*
X95570000Y-99989232D03*
X92240000Y-98530003D03*
X102900000Y-106900000D03*
X104002500Y-96032500D03*
X103750000Y-109775000D03*
%TO.N,GND*%
X104300000Y-104700000D03*
X84121790Y-99167858D03*
X100000000Y-100700000D03*
X84878201Y-95086630D03*
X106800000Y-101100000D03*
X102630000Y-98280000D03*
X86665138Y-91340239D03*
X104913370Y-115121799D03*
X97512692Y-115704245D03*
X87700000Y-98150000D03*
X106467113Y-114525373D03*
X89360823Y-111816003D03*
X101662003Y-115812898D03*
X114167004Y-107218449D03*
X111242998Y-111242998D03*
X94301950Y-114843929D03*
X96400000Y-110500000D03*
X105900000Y-99000000D03*
X86230196Y-107950000D03*
X96694204Y-115552547D03*
X107800000Y-100000000D03*
X115358221Y-95884777D03*
X84641779Y-104115223D03*
X112356621Y-110006194D03*
X113334862Y-108659761D03*
X93000000Y-102200000D03*
X98170000Y-98260000D03*
X87700000Y-94230000D03*
X102487308Y-115704245D03*
X99300000Y-99300000D03*
X95884777Y-115358221D03*
X99167858Y-115878210D03*
X100700000Y-100000000D03*
X111300000Y-102100000D03*
X103934287Y-99755057D03*
X98700000Y-108100000D03*
X86665138Y-108659761D03*
X84100000Y-100000000D03*
X114167004Y-92781551D03*
X84447453Y-96694204D03*
X97900000Y-89900000D03*
X115812898Y-98337997D03*
X115878210Y-100832142D03*
X114843929Y-105698050D03*
X94270000Y-99792500D03*
X107970000Y-97680000D03*
X98337997Y-115812898D03*
X91430000Y-98230000D03*
X105698050Y-114843929D03*
X85832996Y-92781551D03*
X109345786Y-112863370D03*
X96400000Y-108100000D03*
X84121790Y-100832142D03*
X89993806Y-112356621D03*
X103305796Y-115552547D03*
X113334862Y-91340239D03*
X98700000Y-89900000D03*
X110006194Y-112356621D03*
X115552547Y-103305796D03*
X115121799Y-95086630D03*
X112200000Y-102100000D03*
X112863370Y-109345786D03*
X99300000Y-100700000D03*
X99300000Y-100000000D03*
X95230000Y-96560000D03*
X110400000Y-103350000D03*
X93532887Y-114525373D03*
X91300000Y-95900000D03*
X115358221Y-104115223D03*
X85156071Y-105698050D03*
X100000000Y-115900000D03*
X90110000Y-99430000D03*
X87643379Y-110006194D03*
X104115223Y-115358221D03*
X96420000Y-109750000D03*
X88183997Y-89360823D03*
X115704245Y-97512692D03*
X84447453Y-103305796D03*
X115812898Y-101662003D03*
X84641779Y-95884777D03*
X96630000Y-103490000D03*
X96400000Y-109000000D03*
X100700000Y-99300000D03*
X111300000Y-103350000D03*
X91540000Y-99770000D03*
X101900000Y-104717500D03*
X100832142Y-115878210D03*
X88183997Y-110639177D03*
X100000000Y-99300000D03*
X84295755Y-102487308D03*
X87700000Y-92270000D03*
X88757002Y-111242998D03*
X103400000Y-103300000D03*
X111816003Y-110639177D03*
X91340239Y-113334862D03*
X100407500Y-114100000D03*
X94150000Y-91100000D03*
X84187102Y-98337997D03*
X92050000Y-113769804D03*
X100010000Y-102530000D03*
X115704245Y-102487308D03*
X85832996Y-107218449D03*
X96000000Y-103500000D03*
X85474627Y-106467113D03*
X113769804Y-107950000D03*
X103400000Y-95900000D03*
X87136630Y-109345786D03*
X101860000Y-98050000D03*
X113769804Y-92050000D03*
X110400000Y-102100000D03*
X114525373Y-93532887D03*
X98100000Y-109800000D03*
X84878201Y-104913370D03*
X97580000Y-97400000D03*
X85474627Y-93532887D03*
X114843929Y-94301950D03*
X115121799Y-104913370D03*
X86230196Y-92050000D03*
X90080000Y-100620000D03*
X107218449Y-114167004D03*
X100700000Y-100700000D03*
X115878210Y-99167858D03*
X109500000Y-100200000D03*
X90150000Y-101910000D03*
X97550000Y-108050000D03*
X100000000Y-100000000D03*
X110639177Y-111816003D03*
X115900000Y-100000000D03*
X92960000Y-96780000D03*
X95086630Y-115121799D03*
X107950000Y-113769804D03*
X101000000Y-102600000D03*
X103000000Y-89800000D03*
X85156071Y-94301950D03*
X84187102Y-101662003D03*
X87643379Y-89993806D03*
X108659761Y-113334862D03*
X109500000Y-101400000D03*
X84295755Y-97512692D03*
X92400000Y-91100000D03*
X115552547Y-96694204D03*
X112200000Y-103350000D03*
X95800000Y-104800000D03*
X87136630Y-90654214D03*
X96500000Y-106100000D03*
X101590000Y-97350000D03*
X92781551Y-114167004D03*
X90654214Y-112863370D03*
X101870000Y-98600000D03*
X114525373Y-106467113D03*
%TO.N,/NRST*%
X88800000Y-103250000D03*
X107750000Y-103550000D03*
%TO.N,VBAT+*%
X110300000Y-95260000D03*
X99750000Y-106500000D03*
X103938000Y-87975000D03*
X89190000Y-88580000D03*
X100338000Y-87975000D03*
X110300000Y-97060000D03*
X93938000Y-87975000D03*
X111000000Y-96460000D03*
X111000000Y-94060000D03*
X89190000Y-95580000D03*
X110300000Y-97660000D03*
X111000000Y-93460000D03*
X89890000Y-91380000D03*
X111000000Y-94660000D03*
X110300000Y-94660000D03*
X111000000Y-92260000D03*
X89190000Y-89980000D03*
X89890000Y-89980000D03*
X94638000Y-87975000D03*
X89890000Y-92780000D03*
X110300000Y-94060000D03*
X109860000Y-89470000D03*
X110560000Y-88070000D03*
X101038000Y-87975000D03*
X111000000Y-92860000D03*
X111000000Y-97660000D03*
X110300000Y-96460000D03*
X104638000Y-87975000D03*
X89890000Y-94180000D03*
X110560000Y-89470000D03*
X110560000Y-90870000D03*
X89890000Y-95580000D03*
X110300000Y-92260000D03*
X98938000Y-87975000D03*
X110300000Y-93460000D03*
X105338000Y-87975000D03*
X89190000Y-91380000D03*
X110300000Y-95860000D03*
X109860000Y-88070000D03*
X111000000Y-97060000D03*
X106038000Y-87975000D03*
X95338000Y-87975000D03*
X111000000Y-95860000D03*
X110300000Y-92860000D03*
X89190000Y-92780000D03*
X96038000Y-87975000D03*
X111000000Y-95260000D03*
X99638000Y-87975000D03*
X89190000Y-94180000D03*
X89890000Y-88580000D03*
X99750000Y-105820000D03*
%TO.N,/ISNSU*%
X102250000Y-99979222D03*
X91672500Y-103550000D03*
%TO.N,/OP2O*%
X98750000Y-102700000D03*
X93610000Y-103270000D03*
%TO.N,/OP2N*%
X92800000Y-101530000D03*
X98200000Y-102430000D03*
%TO.N,/ISNSV*%
X94390000Y-103560000D03*
X102800000Y-100250000D03*
%TO.N,/BTN*%
X97420000Y-98030000D03*
X91350000Y-97427500D03*
%TO.N,Net-(IC1-PA5)*%
X104700000Y-101550000D03*
X99392500Y-85020000D03*
%TO.N,/SHUNT+AFTER*%
X103400000Y-96550000D03*
X103340000Y-85550000D03*
%TO.N,/LSU*%
X96450000Y-96380000D03*
X91480000Y-90457500D03*
%TO.N,/HSW*%
X102284266Y-97625734D03*
X108830000Y-90425000D03*
%TO.N,/LSW*%
X102650000Y-94030000D03*
X100286889Y-97324999D03*
%TO.N,/SPI2_CS*%
X97390000Y-99770000D03*
%TO.N,/OP2P*%
X97750000Y-102010000D03*
X92830000Y-100580000D03*
%TO.N,/SPI2_MOSI*%
X98780000Y-101870000D03*
%TO.N,/UART_TX*%
X102711830Y-102330000D03*
X111323885Y-100836500D03*
%TO.N,/SWCLK*%
X97419527Y-99152966D03*
X88800000Y-102000000D03*
%TO.N,Net-(D8-A)*%
X101664482Y-102724915D03*
X100000000Y-113500000D03*
%TO.N,/MGL*%
X102675141Y-100910002D03*
X98620000Y-97640000D03*
%TO.N,/UART_RX*%
X111323885Y-99586500D03*
X104670000Y-102460000D03*
%TO.N,/SWDIO*%
X97444761Y-98603543D03*
X88800000Y-100750000D03*
%TO.N,/SPI2_MISO*%
X97710000Y-100320000D03*
%TO.N,/MGH*%
X102301875Y-101963340D03*
%TO.N,Net-(IC2-SCLK)*%
X105505000Y-103550000D03*
X101200000Y-98000000D03*
%TO.N,/SHUNT+U*%
X90930000Y-98890000D03*
X98300000Y-86650000D03*
%TO.N,Net-(Q1-G2)*%
X91830000Y-87200000D03*
X93950000Y-86075000D03*
%TO.N,Net-(Q1-G1)*%
X93290000Y-89190000D03*
X98075000Y-92367500D03*
%TO.N,/SHUNT+V*%
X93570000Y-99782500D03*
X103250000Y-86710000D03*
%TO.N,Net-(Q2-G2)*%
X98567326Y-91927624D03*
X98950000Y-86075000D03*
%TO.N,Net-(Q2-G1)*%
X98270000Y-89260000D03*
X101270000Y-93680000D03*
%TO.N,/SHUNT+W*%
X108310000Y-97090000D03*
X108297464Y-86595515D03*
%TO.N,Net-(Q3-G2)*%
X103950000Y-86075000D03*
X101736608Y-91819688D03*
%TO.N,Net-(Q3-G1)*%
X103220000Y-89260000D03*
X108475000Y-89140000D03*
%TO.N,Net-(Q1-S2)*%
X95275000Y-86075000D03*
X94575000Y-86075000D03*
X95975000Y-86075000D03*
%TO.N,Net-(Q2-S2)*%
X99575000Y-86075000D03*
X100275000Y-86075000D03*
X100975000Y-86075000D03*
%TO.N,Net-(Q3-S2)*%
X105975000Y-86075000D03*
X105275000Y-86075000D03*
X104575000Y-86075000D03*
%TO.N,/SHUNT-W*%
X108320000Y-87120000D03*
X107280000Y-98320000D03*
%TO.N,/SHUNT-U*%
X90840000Y-102345000D03*
X98220000Y-87230000D03*
%TO.N,/SHUNT-V*%
X103260000Y-87270000D03*
X93580000Y-102367500D03*
%TD*%
D13*
%TO.N,/OP2O*%
X94010000Y-102870000D02*
X98580000Y-102870000D01*
X93610000Y-103270000D02*
X94010000Y-102870000D01*
X98580000Y-102870000D02*
X98750000Y-102700000D01*
D14*
%TO.N,/OP2N*%
X94400000Y-102530000D02*
X98100000Y-102530000D01*
X93400000Y-101530000D02*
X94400000Y-102530000D01*
X92800000Y-101530000D02*
X93400000Y-101530000D01*
X98100000Y-102530000D02*
X98200000Y-102430000D01*
D13*
%TO.N,/BTN*%
X91417500Y-97360000D02*
X91350000Y-97427500D01*
X97420000Y-98030000D02*
X96750000Y-97360000D01*
X96750000Y-97360000D02*
X91417500Y-97360000D01*
%TO.N,/LSU*%
X96450000Y-92510000D02*
X96450000Y-96380000D01*
X94397500Y-90457500D02*
X95570000Y-91630000D01*
X93800000Y-90457500D02*
X94397500Y-90457500D01*
X95570000Y-91630000D02*
X96450000Y-92510000D01*
X91480000Y-90457500D02*
X93800000Y-90457500D01*
%TO.N,/HSW*%
X105415000Y-90425000D02*
X107700000Y-90425000D01*
X102284266Y-97625734D02*
X102284266Y-95865734D01*
X102284266Y-95865734D02*
X103081000Y-95069000D01*
X107700000Y-90425000D02*
X108830000Y-90425000D01*
X103081000Y-95069000D02*
X103081000Y-92759000D01*
X103081000Y-92759000D02*
X105415000Y-90425000D01*
%TO.N,/LSW*%
X102650000Y-94750000D02*
X102650000Y-94030000D01*
X100286889Y-97113111D02*
X102650000Y-94750000D01*
X100286889Y-97324999D02*
X100286889Y-97113111D01*
D14*
%TO.N,/OP2P*%
X94410000Y-100580000D02*
X92830000Y-100580000D01*
X97750000Y-102010000D02*
X95840000Y-102010000D01*
X95840000Y-102010000D02*
X94410000Y-100580000D01*
D13*
%TO.N,/UART_TX*%
X103272830Y-102891000D02*
X106639000Y-102891000D01*
X106639000Y-102891000D02*
X108693500Y-100836500D01*
X108693500Y-100836500D02*
X111323885Y-100836500D01*
X102711830Y-102330000D02*
X103272830Y-102891000D01*
%TO.N,/SWCLK*%
X90759820Y-101260000D02*
X93105277Y-98914543D01*
X89540000Y-101260000D02*
X90759820Y-101260000D01*
X93105277Y-98914543D02*
X96794543Y-98914543D01*
X88800000Y-102000000D02*
X89540000Y-101260000D01*
X96794543Y-98914543D02*
X97032966Y-99152966D01*
X97032966Y-99152966D02*
X97419527Y-99152966D01*
%TO.N,Net-(D8-A)*%
X100380000Y-112200000D02*
X100750000Y-111830000D01*
X100000000Y-113500000D02*
X100380000Y-113120000D01*
X100750000Y-103639397D02*
X101664482Y-102724915D01*
X100750000Y-111830000D02*
X100750000Y-103639397D01*
X100380000Y-113120000D02*
X100380000Y-112200000D01*
%TO.N,/UART_RX*%
X109113500Y-99586500D02*
X111323885Y-99586500D01*
X104670000Y-102460000D02*
X106240000Y-102460000D01*
X106240000Y-102460000D02*
X109113500Y-99586500D01*
%TO.N,/SWDIO*%
X88800000Y-100750000D02*
X89540000Y-100010000D01*
X92960000Y-98510000D02*
X97351218Y-98510000D01*
X92375000Y-99095000D02*
X92960000Y-98510000D01*
X91335000Y-99095000D02*
X92375000Y-99095000D01*
X97351218Y-98510000D02*
X97444761Y-98603543D01*
X90420000Y-100010000D02*
X91335000Y-99095000D01*
X89540000Y-100010000D02*
X90420000Y-100010000D01*
%TO.N,Net-(IC2-SCLK)*%
X101180000Y-98020000D02*
X101180000Y-101680000D01*
X103000000Y-103800000D02*
X105255000Y-103800000D01*
X102600000Y-103100000D02*
X102600000Y-103400000D01*
X101180000Y-101680000D02*
X102600000Y-103100000D01*
X101200000Y-98000000D02*
X101180000Y-98020000D01*
X105255000Y-103800000D02*
X105505000Y-103550000D01*
X102600000Y-103400000D02*
X103000000Y-103800000D01*
%TO.N,Net-(Q1-G2)*%
X92955000Y-86075000D02*
X91830000Y-87200000D01*
X93950000Y-86075000D02*
X92955000Y-86075000D01*
%TO.N,Net-(Q1-G1)*%
X93290000Y-89190000D02*
X93350000Y-89250000D01*
X94957500Y-89250000D02*
X98075000Y-92367500D01*
X93350000Y-89250000D02*
X94957500Y-89250000D01*
%TO.N,Net-(Q2-G2)*%
X98950000Y-86075000D02*
X98075000Y-86075000D01*
X97400000Y-86750000D02*
X97400000Y-90200000D01*
X97400000Y-90200000D02*
X98567326Y-91367326D01*
X98075000Y-86075000D02*
X97400000Y-86750000D01*
X98567326Y-91367326D02*
X98567326Y-91927624D01*
%TO.N,Net-(Q2-G1)*%
X98920000Y-89420000D02*
X101270000Y-91770000D01*
X98430000Y-89420000D02*
X98920000Y-89420000D01*
X98270000Y-89260000D02*
X98430000Y-89420000D01*
X101270000Y-91770000D02*
X101270000Y-93680000D01*
%TO.N,Net-(Q3-G2)*%
X103500000Y-88200000D02*
X101736608Y-89963392D01*
X103950000Y-86075000D02*
X103950000Y-87300000D01*
X103500000Y-87750000D02*
X103500000Y-88200000D01*
X101736608Y-89963392D02*
X101736608Y-91819688D01*
X103950000Y-87300000D02*
X103500000Y-87750000D01*
%TO.N,Net-(Q3-G1)*%
X103510000Y-89260000D02*
X103800000Y-89550000D01*
X103800000Y-89550000D02*
X108065000Y-89550000D01*
X103220000Y-89260000D02*
X103510000Y-89260000D01*
X108065000Y-89550000D02*
X108475000Y-89140000D01*
%TD*%
%TA.AperFunction,Conductor*%
%TO.N,GND*%
G36*
X103049501Y-103064358D02*
G01*
X103100599Y-103115456D01*
X103164561Y-103152384D01*
X103164563Y-103152384D01*
X103164564Y-103152385D01*
X103200231Y-103161942D01*
X103235898Y-103171499D01*
X103235900Y-103171500D01*
X103235901Y-103171500D01*
X103235902Y-103171500D01*
X105089596Y-103171500D01*
X105094760Y-103173177D01*
X105100072Y-103172056D01*
X105123441Y-103182496D01*
X105147787Y-103190407D01*
X105150978Y-103194799D01*
X105155935Y-103197014D01*
X105168703Y-103219195D01*
X105183751Y-103239907D01*
X105183751Y-103245337D01*
X105186459Y-103250042D01*
X105183751Y-103267069D01*
X105183751Y-103301093D01*
X105179985Y-103310884D01*
X105177895Y-103315561D01*
X105131793Y-103395413D01*
X105116171Y-103453713D01*
X105112968Y-103460884D01*
X105097474Y-103478045D01*
X105084882Y-103497437D01*
X105077363Y-103500322D01*
X105071968Y-103506300D01*
X105049347Y-103511077D01*
X105027761Y-103519364D01*
X105022579Y-103519500D01*
X103157195Y-103519500D01*
X103099004Y-103500593D01*
X103087191Y-103490504D01*
X102909496Y-103312809D01*
X102881719Y-103258292D01*
X102880500Y-103242805D01*
X102880500Y-103134363D01*
X102899407Y-103076172D01*
X102948907Y-103040208D01*
X103010093Y-103040208D01*
X103049501Y-103064358D01*
G37*
%TD.AperFunction*%
%TA.AperFunction,Conductor*%
G36*
X108347721Y-85177829D02*
G01*
X108503639Y-85264551D01*
X108622595Y-85330715D01*
X108626683Y-85333118D01*
X109127647Y-85644059D01*
X109315126Y-85760424D01*
X109319087Y-85763017D01*
X109985571Y-86222309D01*
X109986238Y-86222768D01*
X109990070Y-86225546D01*
X110506291Y-86619030D01*
X110634475Y-86716738D01*
X110638176Y-86719702D01*
X111258316Y-87241183D01*
X111261851Y-87244303D01*
X111764915Y-87710229D01*
X111856301Y-87794869D01*
X111859701Y-87798172D01*
X112314120Y-88261396D01*
X112427126Y-88376591D01*
X112430364Y-88380055D01*
X112969398Y-88984929D01*
X112972467Y-88988543D01*
X113481969Y-89618594D01*
X113484857Y-89622345D01*
X113959464Y-90270413D01*
X113963578Y-90276031D01*
X113966287Y-90279922D01*
X114413164Y-90955788D01*
X114415684Y-90959805D01*
X114829694Y-91656305D01*
X114832018Y-91660438D01*
X115212191Y-92375937D01*
X115214315Y-92380176D01*
X115559795Y-93113066D01*
X115561714Y-93117402D01*
X115871716Y-93866020D01*
X115873424Y-93870443D01*
X116147214Y-94633014D01*
X116148709Y-94637514D01*
X116385674Y-95412325D01*
X116386952Y-95416891D01*
X116586547Y-96202168D01*
X116587605Y-96206791D01*
X116749371Y-97000726D01*
X116750206Y-97005393D01*
X116873770Y-97806151D01*
X116874381Y-97810854D01*
X116959461Y-98616622D01*
X116959846Y-98621347D01*
X117006248Y-99430266D01*
X117006406Y-99435005D01*
X117014022Y-100245210D01*
X117013953Y-100249952D01*
X116982766Y-101059596D01*
X116982470Y-101064328D01*
X116912552Y-101871543D01*
X116912030Y-101876256D01*
X116803537Y-102679224D01*
X116802789Y-102683906D01*
X116655982Y-103480706D01*
X116655012Y-103485348D01*
X116470209Y-104274259D01*
X116469017Y-104278848D01*
X116246661Y-105057973D01*
X116245251Y-105062500D01*
X115985842Y-105830086D01*
X115984217Y-105834541D01*
X115688343Y-106588852D01*
X115686506Y-106593223D01*
X115354866Y-107332472D01*
X115352822Y-107336751D01*
X114986164Y-108059276D01*
X114983918Y-108063452D01*
X114583071Y-108767616D01*
X114580627Y-108771679D01*
X114146536Y-109455823D01*
X114143900Y-109459765D01*
X113677552Y-110122334D01*
X113674731Y-110126145D01*
X113177174Y-110765648D01*
X113174173Y-110769319D01*
X112646600Y-111384223D01*
X112643428Y-111387747D01*
X112086985Y-111976721D01*
X112083647Y-111980089D01*
X111499643Y-112541741D01*
X111496147Y-112544945D01*
X110885944Y-113077969D01*
X110882300Y-113081002D01*
X110247249Y-113584217D01*
X110243463Y-113587072D01*
X109585054Y-114059297D01*
X109581136Y-114061967D01*
X108900876Y-114502120D01*
X108896834Y-114504600D01*
X108196267Y-114911683D01*
X108192111Y-114913966D01*
X107472880Y-115287025D01*
X107468620Y-115289107D01*
X106732340Y-115627304D01*
X106727985Y-115629180D01*
X105976346Y-115931741D01*
X105971906Y-115933406D01*
X105206641Y-116199628D01*
X105202127Y-116201078D01*
X104424991Y-116430354D01*
X104420412Y-116431586D01*
X103633214Y-116623382D01*
X103628582Y-116624394D01*
X102833082Y-116778281D01*
X102828406Y-116779070D01*
X102026452Y-116894690D01*
X102021744Y-116895254D01*
X101215177Y-116972343D01*
X101210447Y-116972681D01*
X100401111Y-117011060D01*
X100396371Y-117011171D01*
X99586130Y-117010755D01*
X99581390Y-117010639D01*
X98772091Y-116971426D01*
X98767362Y-116971083D01*
X97960877Y-116893165D01*
X97956169Y-116892596D01*
X97154352Y-116776154D01*
X97149677Y-116775361D01*
X96354317Y-116620652D01*
X96349686Y-116619635D01*
X95562684Y-116427030D01*
X95558106Y-116425793D01*
X94781202Y-116195717D01*
X94776699Y-116194265D01*
X94423313Y-116070920D01*
X94011723Y-115927260D01*
X94007285Y-115925591D01*
X93255950Y-115622256D01*
X93251597Y-115620376D01*
X92515665Y-115281420D01*
X92511407Y-115279334D01*
X91792534Y-114905523D01*
X91788381Y-114903235D01*
X91088244Y-114495437D01*
X91084210Y-114492956D01*
X90404390Y-114052094D01*
X90400475Y-114049419D01*
X89742577Y-113576537D01*
X89738794Y-113573679D01*
X89579608Y-113447273D01*
X99599500Y-113447273D01*
X99599500Y-113552727D01*
X99608703Y-113587072D01*
X99626794Y-113654589D01*
X99626794Y-113654590D01*
X99679518Y-113745910D01*
X99679520Y-113745913D01*
X99754087Y-113820480D01*
X99845413Y-113873207D01*
X99947273Y-113900500D01*
X99947275Y-113900500D01*
X100052725Y-113900500D01*
X100052727Y-113900500D01*
X100154587Y-113873207D01*
X100245913Y-113820480D01*
X100320480Y-113745913D01*
X100373207Y-113654587D01*
X100400500Y-113552727D01*
X100400500Y-113537193D01*
X100419407Y-113479002D01*
X100429497Y-113467189D01*
X100449413Y-113447273D01*
X100604455Y-113292232D01*
X100641384Y-113228269D01*
X100660500Y-113156929D01*
X100660500Y-113083071D01*
X100660500Y-112357192D01*
X100679407Y-112299001D01*
X100689490Y-112287195D01*
X100922228Y-112054457D01*
X100922231Y-112054456D01*
X100974456Y-112002231D01*
X101011384Y-111938269D01*
X101030500Y-111866928D01*
X101030500Y-109022273D01*
X102649500Y-109022273D01*
X102649500Y-109127727D01*
X102676793Y-109229587D01*
X102676794Y-109229589D01*
X102676794Y-109229590D01*
X102729518Y-109320910D01*
X102729520Y-109320913D01*
X102763605Y-109354998D01*
X102791381Y-109409513D01*
X102781810Y-109469945D01*
X102763606Y-109495000D01*
X102729520Y-109529087D01*
X102729518Y-109529089D01*
X102676794Y-109620409D01*
X102676794Y-109620410D01*
X102676793Y-109620412D01*
X102676793Y-109620413D01*
X102649500Y-109722273D01*
X102649500Y-109827727D01*
X102676793Y-109929587D01*
X102676794Y-109929589D01*
X102676794Y-109929590D01*
X102729518Y-110020910D01*
X102729520Y-110020913D01*
X102763605Y-110054998D01*
X102791381Y-110109513D01*
X102781810Y-110169945D01*
X102763606Y-110195000D01*
X102729520Y-110229087D01*
X102729518Y-110229089D01*
X102676794Y-110320409D01*
X102676794Y-110320410D01*
X102676793Y-110320412D01*
X102676793Y-110320413D01*
X102649500Y-110422273D01*
X102649500Y-110527727D01*
X102676793Y-110629587D01*
X102676794Y-110629589D01*
X102676794Y-110629590D01*
X102729518Y-110720910D01*
X102729520Y-110720913D01*
X102804087Y-110795480D01*
X102895413Y-110848207D01*
X102997273Y-110875500D01*
X102997275Y-110875500D01*
X103102725Y-110875500D01*
X103102727Y-110875500D01*
X103204587Y-110848207D01*
X103295913Y-110795480D01*
X103329998Y-110761394D01*
X103384513Y-110733619D01*
X103444945Y-110743190D01*
X103470000Y-110761393D01*
X103504087Y-110795480D01*
X103595413Y-110848207D01*
X103697273Y-110875500D01*
X103697275Y-110875500D01*
X103802725Y-110875500D01*
X103802727Y-110875500D01*
X103904587Y-110848207D01*
X103995913Y-110795480D01*
X104070480Y-110720913D01*
X104123207Y-110629587D01*
X104150500Y-110527727D01*
X104150500Y-110422273D01*
X104123207Y-110320413D01*
X104070480Y-110229087D01*
X104036394Y-110195001D01*
X104008619Y-110140487D01*
X104018190Y-110080055D01*
X104036393Y-110054999D01*
X104070480Y-110020913D01*
X104123207Y-109929587D01*
X104150500Y-109827727D01*
X104150500Y-109722273D01*
X104123207Y-109620413D01*
X104070480Y-109529087D01*
X104036394Y-109495001D01*
X104008619Y-109440487D01*
X104018190Y-109380055D01*
X104036393Y-109354999D01*
X104070480Y-109320913D01*
X104123207Y-109229587D01*
X104150500Y-109127727D01*
X104150500Y-109022273D01*
X104123207Y-108920413D01*
X104070480Y-108829087D01*
X103995913Y-108754520D01*
X103904587Y-108701793D01*
X103802727Y-108674500D01*
X103697273Y-108674500D01*
X103595413Y-108701793D01*
X103595412Y-108701793D01*
X103595410Y-108701794D01*
X103595409Y-108701794D01*
X103504089Y-108754518D01*
X103504087Y-108754519D01*
X103504087Y-108754520D01*
X103470001Y-108788605D01*
X103415487Y-108816381D01*
X103355055Y-108806810D01*
X103329999Y-108788606D01*
X103295913Y-108754520D01*
X103204587Y-108701793D01*
X103102727Y-108674500D01*
X102997273Y-108674500D01*
X102895413Y-108701793D01*
X102895412Y-108701793D01*
X102895410Y-108701794D01*
X102895409Y-108701794D01*
X102804089Y-108754518D01*
X102729518Y-108829089D01*
X102676794Y-108920409D01*
X102676794Y-108920410D01*
X102676793Y-108920412D01*
X102676793Y-108920413D01*
X102649500Y-109022273D01*
X101030500Y-109022273D01*
X101030500Y-106847273D01*
X102499500Y-106847273D01*
X102499500Y-106952727D01*
X102526793Y-107054587D01*
X102526794Y-107054589D01*
X102526794Y-107054590D01*
X102579518Y-107145910D01*
X102579520Y-107145913D01*
X102654087Y-107220480D01*
X102745413Y-107273207D01*
X102847273Y-107300500D01*
X102847275Y-107300500D01*
X102952725Y-107300500D01*
X102952727Y-107300500D01*
X103054587Y-107273207D01*
X103145913Y-107220480D01*
X103179998Y-107186394D01*
X103234513Y-107158619D01*
X103294945Y-107168190D01*
X103320000Y-107186393D01*
X103354087Y-107220480D01*
X103445413Y-107273207D01*
X103547273Y-107300500D01*
X103547275Y-107300500D01*
X103652725Y-107300500D01*
X103652727Y-107300500D01*
X103754587Y-107273207D01*
X103845913Y-107220480D01*
X103920480Y-107145913D01*
X103973207Y-107054587D01*
X104000500Y-106952727D01*
X104000500Y-106847273D01*
X103973207Y-106745413D01*
X103920480Y-106654087D01*
X103845913Y-106579520D01*
X103754587Y-106526793D01*
X103652727Y-106499500D01*
X103547273Y-106499500D01*
X103445413Y-106526793D01*
X103445412Y-106526793D01*
X103445410Y-106526794D01*
X103445409Y-106526794D01*
X103354089Y-106579518D01*
X103354087Y-106579519D01*
X103354087Y-106579520D01*
X103320001Y-106613605D01*
X103265487Y-106641381D01*
X103205055Y-106631810D01*
X103179999Y-106613606D01*
X103145913Y-106579520D01*
X103054587Y-106526793D01*
X102952727Y-106499500D01*
X102847273Y-106499500D01*
X102745413Y-106526793D01*
X102745412Y-106526793D01*
X102745410Y-106526794D01*
X102745409Y-106526794D01*
X102654089Y-106579518D01*
X102579518Y-106654089D01*
X102526794Y-106745409D01*
X102526794Y-106745410D01*
X102526793Y-106745412D01*
X102526793Y-106745413D01*
X102499500Y-106847273D01*
X101030500Y-106847273D01*
X101030500Y-105497273D01*
X101499500Y-105497273D01*
X101499500Y-105602727D01*
X101526793Y-105704587D01*
X101526794Y-105704589D01*
X101526794Y-105704590D01*
X101579518Y-105795910D01*
X101579520Y-105795913D01*
X101654087Y-105870480D01*
X101745413Y-105923207D01*
X101847273Y-105950500D01*
X101847275Y-105950500D01*
X101952725Y-105950500D01*
X101952727Y-105950500D01*
X102054587Y-105923207D01*
X102145913Y-105870480D01*
X102220480Y-105795913D01*
X102273207Y-105704587D01*
X102300500Y-105602727D01*
X102300500Y-105497273D01*
X102273207Y-105395413D01*
X102220480Y-105304087D01*
X102145913Y-105229520D01*
X102054587Y-105176793D01*
X101952727Y-105149500D01*
X101847273Y-105149500D01*
X101745413Y-105176793D01*
X101745412Y-105176793D01*
X101745410Y-105176794D01*
X101745409Y-105176794D01*
X101654089Y-105229518D01*
X101579518Y-105304089D01*
X101526794Y-105395409D01*
X101526794Y-105395410D01*
X101526793Y-105395412D01*
X101526793Y-105395413D01*
X101499500Y-105497273D01*
X101030500Y-105497273D01*
X101030500Y-103796591D01*
X101049407Y-103738400D01*
X101059496Y-103726587D01*
X101631673Y-103154411D01*
X101686190Y-103126634D01*
X101701677Y-103125415D01*
X101717207Y-103125415D01*
X101717209Y-103125415D01*
X101819069Y-103098122D01*
X101910395Y-103045395D01*
X101959549Y-102996240D01*
X102014063Y-102968464D01*
X102074495Y-102978035D01*
X102099554Y-102996241D01*
X102290503Y-103187189D01*
X102318281Y-103241706D01*
X102319500Y-103257193D01*
X102319500Y-103436931D01*
X102330517Y-103478045D01*
X102335305Y-103495913D01*
X102336559Y-103500593D01*
X102338616Y-103508270D01*
X102338617Y-103508272D01*
X102375542Y-103572228D01*
X102375544Y-103572231D01*
X102427769Y-103624456D01*
X102427771Y-103624457D01*
X102433413Y-103630099D01*
X102433412Y-103630099D01*
X102433416Y-103630102D01*
X102775542Y-103972230D01*
X102775543Y-103972230D01*
X102775544Y-103972231D01*
X102775543Y-103972231D01*
X102827766Y-104024453D01*
X102827769Y-104024456D01*
X102891731Y-104061384D01*
X102891733Y-104061384D01*
X102891734Y-104061385D01*
X102927401Y-104070942D01*
X102963068Y-104080499D01*
X102963070Y-104080500D01*
X102963071Y-104080500D01*
X105291930Y-104080500D01*
X105291930Y-104080499D01*
X105363265Y-104061385D01*
X105363266Y-104061385D01*
X105363266Y-104061384D01*
X105363269Y-104061384D01*
X105427231Y-104024456D01*
X105472192Y-103979494D01*
X105526707Y-103951719D01*
X105542194Y-103950500D01*
X105557725Y-103950500D01*
X105557727Y-103950500D01*
X105659587Y-103923207D01*
X105750913Y-103870480D01*
X105825480Y-103795913D01*
X105878207Y-103704587D01*
X105905500Y-103602727D01*
X105905500Y-103497273D01*
X107349500Y-103497273D01*
X107349500Y-103602727D01*
X107367660Y-103670500D01*
X107376794Y-103704589D01*
X107376794Y-103704590D01*
X107406613Y-103756237D01*
X107429520Y-103795913D01*
X107504087Y-103870480D01*
X107595413Y-103923207D01*
X107697273Y-103950500D01*
X107697275Y-103950500D01*
X107802725Y-103950500D01*
X107802727Y-103950500D01*
X107904587Y-103923207D01*
X107995913Y-103870480D01*
X108070480Y-103795913D01*
X108123207Y-103704587D01*
X108150500Y-103602727D01*
X108150500Y-103497273D01*
X108123207Y-103395413D01*
X108104534Y-103363071D01*
X108070481Y-103304089D01*
X108070480Y-103304087D01*
X107995913Y-103229520D01*
X107974702Y-103217274D01*
X107904589Y-103176794D01*
X107904588Y-103176793D01*
X107904587Y-103176793D01*
X107802727Y-103149500D01*
X107697273Y-103149500D01*
X107595413Y-103176793D01*
X107595412Y-103176793D01*
X107595410Y-103176794D01*
X107595409Y-103176794D01*
X107504089Y-103229518D01*
X107429518Y-103304089D01*
X107376794Y-103395409D01*
X107376794Y-103395410D01*
X107376793Y-103395412D01*
X107376793Y-103395413D01*
X107349500Y-103497273D01*
X105905500Y-103497273D01*
X105878207Y-103395413D01*
X105834666Y-103319999D01*
X105821946Y-103260151D01*
X105846833Y-103204256D01*
X105899821Y-103173663D01*
X105920404Y-103171500D01*
X106675930Y-103171500D01*
X106675930Y-103171499D01*
X106747269Y-103152384D01*
X106771116Y-103138616D01*
X106811231Y-103115456D01*
X106863456Y-103063231D01*
X106863457Y-103063228D01*
X108780691Y-101145996D01*
X108835208Y-101118219D01*
X108850695Y-101117000D01*
X110996985Y-101117000D01*
X111055176Y-101135907D01*
X111066982Y-101145990D01*
X111077972Y-101156980D01*
X111169298Y-101209707D01*
X111271158Y-101237000D01*
X111271160Y-101237000D01*
X111376610Y-101237000D01*
X111376612Y-101237000D01*
X111478472Y-101209707D01*
X111569798Y-101156980D01*
X111644365Y-101082413D01*
X111697092Y-100991087D01*
X111724385Y-100889227D01*
X111724385Y-100783773D01*
X111697092Y-100681913D01*
X111668694Y-100632727D01*
X111647151Y-100595413D01*
X111644365Y-100590587D01*
X111569798Y-100516020D01*
X111549129Y-100504087D01*
X111478474Y-100463294D01*
X111478473Y-100463293D01*
X111478472Y-100463293D01*
X111376612Y-100436000D01*
X111271158Y-100436000D01*
X111169298Y-100463293D01*
X111169297Y-100463293D01*
X111169295Y-100463294D01*
X111169294Y-100463294D01*
X111077974Y-100516018D01*
X111077972Y-100516019D01*
X111077972Y-100516020D01*
X111066986Y-100527005D01*
X111012472Y-100554781D01*
X110996985Y-100556000D01*
X108779695Y-100556000D01*
X108721504Y-100537093D01*
X108685540Y-100487593D01*
X108685540Y-100426407D01*
X108709691Y-100386996D01*
X109200691Y-99895996D01*
X109255208Y-99868219D01*
X109270695Y-99867000D01*
X110996985Y-99867000D01*
X111055176Y-99885907D01*
X111066982Y-99895990D01*
X111077972Y-99906980D01*
X111169298Y-99959707D01*
X111271158Y-99987000D01*
X111271160Y-99987000D01*
X111376610Y-99987000D01*
X111376612Y-99987000D01*
X111478472Y-99959707D01*
X111569798Y-99906980D01*
X111644365Y-99832413D01*
X111697092Y-99741087D01*
X111724385Y-99639227D01*
X111724385Y-99533773D01*
X111697092Y-99431913D01*
X111696628Y-99431110D01*
X111644366Y-99340589D01*
X111644365Y-99340587D01*
X111569798Y-99266020D01*
X111566931Y-99264365D01*
X111478474Y-99213294D01*
X111478473Y-99213293D01*
X111478472Y-99213293D01*
X111376612Y-99186000D01*
X111271158Y-99186000D01*
X111169298Y-99213293D01*
X111169297Y-99213293D01*
X111169295Y-99213294D01*
X111169294Y-99213294D01*
X111077974Y-99266018D01*
X111077972Y-99266019D01*
X111077972Y-99266020D01*
X111066986Y-99277005D01*
X111012472Y-99304781D01*
X110996985Y-99306000D01*
X109076572Y-99306000D01*
X109005231Y-99325116D01*
X109005230Y-99325116D01*
X109005228Y-99325117D01*
X108951074Y-99356382D01*
X108951075Y-99356383D01*
X108941271Y-99362043D01*
X108941269Y-99362044D01*
X106560824Y-101742488D01*
X106506307Y-101770265D01*
X106481857Y-101771077D01*
X105190537Y-101653684D01*
X105134297Y-101629586D01*
X105102962Y-101577034D01*
X105100500Y-101555091D01*
X105100500Y-101497274D01*
X105100500Y-101497273D01*
X105073207Y-101395413D01*
X105020480Y-101304087D01*
X104945913Y-101229520D01*
X104945878Y-101229500D01*
X104854589Y-101176794D01*
X104854588Y-101176793D01*
X104854587Y-101176793D01*
X104752727Y-101149500D01*
X104647273Y-101149500D01*
X104545413Y-101176793D01*
X104545412Y-101176793D01*
X104545410Y-101176794D01*
X104545409Y-101176794D01*
X104454086Y-101229519D01*
X104394628Y-101288977D01*
X104340111Y-101316753D01*
X104279680Y-101307181D01*
X104258399Y-101292558D01*
X103612287Y-100711058D01*
X103591974Y-100685554D01*
X102822391Y-99300305D01*
X102810660Y-99240257D01*
X102813304Y-99226617D01*
X102818725Y-99206390D01*
X102818725Y-99100936D01*
X102791432Y-98999076D01*
X102738705Y-98907750D01*
X102664138Y-98833183D01*
X102649121Y-98824513D01*
X102572814Y-98780457D01*
X102572813Y-98780456D01*
X102572812Y-98780456D01*
X102470952Y-98753163D01*
X102365498Y-98753163D01*
X102263638Y-98780456D01*
X102263637Y-98780456D01*
X102263635Y-98780457D01*
X102263634Y-98780457D01*
X102172312Y-98833182D01*
X102134490Y-98871004D01*
X102127373Y-98874629D01*
X102122678Y-98881093D01*
X102100626Y-98888257D01*
X102079973Y-98898781D01*
X102064487Y-98900000D01*
X101973989Y-98900000D01*
X101930923Y-98888458D01*
X101930585Y-98889277D01*
X101924592Y-98886794D01*
X101879190Y-98874629D01*
X101822727Y-98859500D01*
X101717273Y-98859500D01*
X101674339Y-98871004D01*
X101615407Y-98886794D01*
X101609415Y-98889277D01*
X101609076Y-98888458D01*
X101566011Y-98900000D01*
X101559500Y-98900000D01*
X101501309Y-98881093D01*
X101465345Y-98831593D01*
X101460500Y-98801000D01*
X101460500Y-98346900D01*
X101479407Y-98288709D01*
X101489490Y-98276902D01*
X101499119Y-98267273D01*
X106879500Y-98267273D01*
X106879500Y-98372727D01*
X106906793Y-98474587D01*
X106906794Y-98474589D01*
X106906794Y-98474590D01*
X106950804Y-98550817D01*
X106959520Y-98565913D01*
X107034087Y-98640480D01*
X107125413Y-98693207D01*
X107227273Y-98720500D01*
X107227275Y-98720500D01*
X107332725Y-98720500D01*
X107332727Y-98720500D01*
X107434587Y-98693207D01*
X107525913Y-98640480D01*
X107600480Y-98565913D01*
X107653207Y-98474587D01*
X107680500Y-98372727D01*
X107680500Y-98267273D01*
X107653207Y-98165413D01*
X107646958Y-98154590D01*
X107600481Y-98074089D01*
X107600480Y-98074087D01*
X107525913Y-97999520D01*
X107524910Y-97998941D01*
X107434589Y-97946794D01*
X107434588Y-97946793D01*
X107434587Y-97946793D01*
X107332727Y-97919500D01*
X107227273Y-97919500D01*
X107125413Y-97946793D01*
X107125412Y-97946793D01*
X107125410Y-97946794D01*
X107125409Y-97946794D01*
X107034089Y-97999518D01*
X106959518Y-98074089D01*
X106906794Y-98165409D01*
X106906794Y-98165410D01*
X106906793Y-98165412D01*
X106906793Y-98165413D01*
X106879500Y-98267273D01*
X101499119Y-98267273D01*
X101520480Y-98245913D01*
X101573207Y-98154587D01*
X101600500Y-98052727D01*
X101600500Y-97947273D01*
X101573207Y-97845413D01*
X101555411Y-97814590D01*
X101520481Y-97754089D01*
X101520480Y-97754087D01*
X101445913Y-97679520D01*
X101444075Y-97678459D01*
X101354589Y-97626794D01*
X101354588Y-97626793D01*
X101354587Y-97626793D01*
X101252727Y-97599500D01*
X101147273Y-97599500D01*
X101045413Y-97626793D01*
X101045412Y-97626793D01*
X101045410Y-97626794D01*
X101045409Y-97626794D01*
X100954089Y-97679518D01*
X100879518Y-97754089D01*
X100826794Y-97845409D01*
X100826794Y-97845410D01*
X100826793Y-97845412D01*
X100826793Y-97845413D01*
X100799500Y-97947273D01*
X100799500Y-98052727D01*
X100826793Y-98154587D01*
X100826794Y-98154589D01*
X100826794Y-98154590D01*
X100882764Y-98251532D01*
X100881509Y-98252256D01*
X100899466Y-98302968D01*
X100899500Y-98305557D01*
X100899500Y-101716928D01*
X100913791Y-101770265D01*
X100913844Y-101770460D01*
X100918616Y-101788269D01*
X100955544Y-101852231D01*
X101007769Y-101904456D01*
X101007771Y-101904457D01*
X101013413Y-101910099D01*
X101013412Y-101910099D01*
X101013416Y-101910102D01*
X101393155Y-102289842D01*
X101420932Y-102344358D01*
X101411361Y-102404790D01*
X101393155Y-102429848D01*
X101344001Y-102479002D01*
X101291276Y-102570324D01*
X101291276Y-102570325D01*
X101291275Y-102570327D01*
X101291275Y-102570328D01*
X101265780Y-102665480D01*
X101263982Y-102672189D01*
X101263982Y-102687720D01*
X101245075Y-102745911D01*
X101234986Y-102757724D01*
X100577771Y-103414939D01*
X100577769Y-103414941D01*
X100577768Y-103414940D01*
X100525545Y-103467164D01*
X100488982Y-103530493D01*
X100488616Y-103531126D01*
X100470033Y-103600481D01*
X100470027Y-103600501D01*
X100469500Y-103602466D01*
X100469500Y-111672806D01*
X100450593Y-111730997D01*
X100440503Y-111742810D01*
X100207770Y-111975541D01*
X100207771Y-111975542D01*
X100207769Y-111975544D01*
X100207768Y-111975543D01*
X100155546Y-112027766D01*
X100118616Y-112091730D01*
X100118616Y-112091731D01*
X100099500Y-112163072D01*
X100099500Y-112163074D01*
X100099500Y-112962805D01*
X100097031Y-112970402D01*
X100098281Y-112978292D01*
X100087756Y-112998947D01*
X100080593Y-113020996D01*
X100070504Y-113032809D01*
X100032809Y-113070504D01*
X99978292Y-113098281D01*
X99962805Y-113099500D01*
X99947273Y-113099500D01*
X99845413Y-113126793D01*
X99845412Y-113126793D01*
X99845410Y-113126794D01*
X99845409Y-113126794D01*
X99754089Y-113179518D01*
X99679518Y-113254089D01*
X99626794Y-113345409D01*
X99626794Y-113345410D01*
X99626793Y-113345412D01*
X99626793Y-113345413D01*
X99599500Y-113447273D01*
X89579608Y-113447273D01*
X89104248Y-113069801D01*
X89100628Y-113066782D01*
X88684555Y-112702580D01*
X88490942Y-112533103D01*
X88487450Y-112529895D01*
X87904046Y-111967663D01*
X87900711Y-111964292D01*
X87357131Y-111387747D01*
X87344863Y-111374734D01*
X87341717Y-111371233D01*
X86814747Y-110755751D01*
X86811751Y-110752076D01*
X86314860Y-110112073D01*
X86312042Y-110108259D01*
X85846372Y-109445205D01*
X85843741Y-109441261D01*
X85410356Y-108756676D01*
X85407916Y-108752610D01*
X85007799Y-108048044D01*
X85005557Y-108043866D01*
X84814913Y-107667229D01*
X84639641Y-107320960D01*
X84637603Y-107316683D01*
X84594564Y-107220481D01*
X84306714Y-106577071D01*
X84304884Y-106572703D01*
X84297071Y-106552725D01*
X84070987Y-105974590D01*
X84009788Y-105818094D01*
X84008168Y-105813640D01*
X83992551Y-105767273D01*
X99349500Y-105767273D01*
X99349500Y-105872727D01*
X99363026Y-105923207D01*
X99376794Y-105974589D01*
X99376794Y-105974590D01*
X99429518Y-106065910D01*
X99429520Y-106065913D01*
X99453605Y-106089998D01*
X99481381Y-106144513D01*
X99471810Y-106204945D01*
X99453606Y-106230000D01*
X99429520Y-106254087D01*
X99429518Y-106254089D01*
X99376794Y-106345409D01*
X99376794Y-106345410D01*
X99376793Y-106345412D01*
X99376793Y-106345413D01*
X99349500Y-106447273D01*
X99349500Y-106552727D01*
X99359180Y-106588852D01*
X99376794Y-106654589D01*
X99376794Y-106654590D01*
X99429231Y-106745413D01*
X99429520Y-106745913D01*
X99504087Y-106820480D01*
X99595413Y-106873207D01*
X99697273Y-106900500D01*
X99697275Y-106900500D01*
X99802725Y-106900500D01*
X99802727Y-106900500D01*
X99904587Y-106873207D01*
X99995913Y-106820480D01*
X100070480Y-106745913D01*
X100123207Y-106654587D01*
X100150500Y-106552727D01*
X100150500Y-106447273D01*
X100123207Y-106345413D01*
X100070480Y-106254087D01*
X100046394Y-106230001D01*
X100018619Y-106175487D01*
X100028190Y-106115055D01*
X100046393Y-106089999D01*
X100070480Y-106065913D01*
X100123207Y-105974587D01*
X100150500Y-105872727D01*
X100150500Y-105767273D01*
X100123207Y-105665413D01*
X100070480Y-105574087D01*
X99995913Y-105499520D01*
X99992021Y-105497273D01*
X99904589Y-105446794D01*
X99904588Y-105446793D01*
X99904587Y-105446793D01*
X99802727Y-105419500D01*
X99697273Y-105419500D01*
X99595413Y-105446793D01*
X99595412Y-105446793D01*
X99595410Y-105446794D01*
X99595409Y-105446794D01*
X99504089Y-105499518D01*
X99429518Y-105574089D01*
X99376794Y-105665409D01*
X99376794Y-105665410D01*
X99376793Y-105665412D01*
X99376793Y-105665413D01*
X99349500Y-105767273D01*
X83992551Y-105767273D01*
X83749547Y-105045778D01*
X83748153Y-105041289D01*
X83579286Y-104447273D01*
X97879500Y-104447273D01*
X97879500Y-104552727D01*
X97885897Y-104576600D01*
X97906794Y-104654589D01*
X97906794Y-104654590D01*
X97959518Y-104745910D01*
X97959520Y-104745913D01*
X97968605Y-104754998D01*
X97996381Y-104809513D01*
X97986810Y-104869945D01*
X97968606Y-104895000D01*
X97963107Y-104900500D01*
X97959518Y-104904089D01*
X97906794Y-104995409D01*
X97906794Y-104995410D01*
X97906793Y-104995412D01*
X97906793Y-104995413D01*
X97879500Y-105097273D01*
X97879500Y-105202727D01*
X97906659Y-105304087D01*
X97906794Y-105304589D01*
X97906794Y-105304590D01*
X97959231Y-105395413D01*
X97959520Y-105395913D01*
X98034087Y-105470480D01*
X98125413Y-105523207D01*
X98227273Y-105550500D01*
X98227275Y-105550500D01*
X98332725Y-105550500D01*
X98332727Y-105550500D01*
X98434587Y-105523207D01*
X98525913Y-105470480D01*
X98600480Y-105395913D01*
X98653207Y-105304587D01*
X98680500Y-105202727D01*
X98680500Y-105097273D01*
X98655950Y-105005650D01*
X98659153Y-104944552D01*
X98697658Y-104897002D01*
X98756758Y-104881166D01*
X98777193Y-104884402D01*
X98837273Y-104900500D01*
X98837275Y-104900500D01*
X98942725Y-104900500D01*
X98942727Y-104900500D01*
X99044587Y-104873207D01*
X99135913Y-104820480D01*
X99210480Y-104745913D01*
X99263207Y-104654587D01*
X99290500Y-104552727D01*
X99290500Y-104447273D01*
X99263207Y-104345413D01*
X99210480Y-104254087D01*
X99135913Y-104179520D01*
X99044587Y-104126793D01*
X98942727Y-104099500D01*
X98837273Y-104099500D01*
X98735413Y-104126793D01*
X98735412Y-104126793D01*
X98735410Y-104126794D01*
X98735409Y-104126794D01*
X98638468Y-104182764D01*
X98637634Y-104181319D01*
X98587580Y-104199038D01*
X98531697Y-104182478D01*
X98531532Y-104182764D01*
X98530340Y-104182076D01*
X98528916Y-104181654D01*
X98526234Y-104179705D01*
X98434589Y-104126794D01*
X98434588Y-104126793D01*
X98434587Y-104126793D01*
X98332727Y-104099500D01*
X98227273Y-104099500D01*
X98125413Y-104126793D01*
X98125412Y-104126793D01*
X98125410Y-104126794D01*
X98125409Y-104126794D01*
X98034089Y-104179518D01*
X97959518Y-104254089D01*
X97906794Y-104345409D01*
X97906794Y-104345410D01*
X97906793Y-104345412D01*
X97906793Y-104345413D01*
X97879500Y-104447273D01*
X83579286Y-104447273D01*
X83526587Y-104261897D01*
X83525400Y-104257306D01*
X83471107Y-104024455D01*
X83341410Y-103468213D01*
X83340453Y-103463615D01*
X83291664Y-103197273D01*
X88399500Y-103197273D01*
X88399500Y-103302727D01*
X88424335Y-103395413D01*
X88426794Y-103404589D01*
X88426794Y-103404590D01*
X88462923Y-103467166D01*
X88479520Y-103495913D01*
X88554087Y-103570480D01*
X88645413Y-103623207D01*
X88747273Y-103650500D01*
X88747275Y-103650500D01*
X88852725Y-103650500D01*
X88852727Y-103650500D01*
X88954587Y-103623207D01*
X89045913Y-103570480D01*
X89119120Y-103497273D01*
X91272000Y-103497273D01*
X91272000Y-103602727D01*
X91290160Y-103670500D01*
X91299294Y-103704589D01*
X91299294Y-103704590D01*
X91329113Y-103756237D01*
X91352020Y-103795913D01*
X91426587Y-103870480D01*
X91517913Y-103923207D01*
X91619773Y-103950500D01*
X91619775Y-103950500D01*
X91725225Y-103950500D01*
X91725227Y-103950500D01*
X91827087Y-103923207D01*
X91918413Y-103870480D01*
X91992980Y-103795913D01*
X92045707Y-103704587D01*
X92073000Y-103602727D01*
X92073000Y-103497273D01*
X92045707Y-103395413D01*
X92027034Y-103363071D01*
X91992981Y-103304089D01*
X91992980Y-103304087D01*
X91918413Y-103229520D01*
X91897202Y-103217274D01*
X91827089Y-103176794D01*
X91827088Y-103176793D01*
X91827087Y-103176793D01*
X91725227Y-103149500D01*
X91619773Y-103149500D01*
X91517913Y-103176793D01*
X91517912Y-103176793D01*
X91517910Y-103176794D01*
X91517909Y-103176794D01*
X91426589Y-103229518D01*
X91352018Y-103304089D01*
X91299294Y-103395409D01*
X91299294Y-103395410D01*
X91299293Y-103395412D01*
X91299293Y-103395413D01*
X91272000Y-103497273D01*
X89119120Y-103497273D01*
X89120480Y-103495913D01*
X89173207Y-103404587D01*
X89200500Y-103302727D01*
X89200500Y-103197273D01*
X89173207Y-103095413D01*
X89160386Y-103073207D01*
X89120481Y-103004089D01*
X89120480Y-103004087D01*
X89045913Y-102929520D01*
X89042880Y-102927769D01*
X88954589Y-102876794D01*
X88954588Y-102876793D01*
X88954587Y-102876793D01*
X88852727Y-102849500D01*
X88747273Y-102849500D01*
X88645413Y-102876793D01*
X88645412Y-102876793D01*
X88645410Y-102876794D01*
X88645409Y-102876794D01*
X88554089Y-102929518D01*
X88479518Y-103004089D01*
X88426794Y-103095409D01*
X88426794Y-103095410D01*
X88426793Y-103095412D01*
X88426793Y-103095413D01*
X88399500Y-103197273D01*
X83291664Y-103197273D01*
X83194449Y-102666569D01*
X83193716Y-102661945D01*
X83086047Y-101858848D01*
X83085532Y-101854146D01*
X83085368Y-101852230D01*
X83016442Y-101046842D01*
X83016155Y-101042180D01*
X83003224Y-100697273D01*
X88399500Y-100697273D01*
X88399500Y-100802727D01*
X88425693Y-100900480D01*
X88426794Y-100904589D01*
X88426794Y-100904590D01*
X88476735Y-100991089D01*
X88479520Y-100995913D01*
X88554087Y-101070480D01*
X88645413Y-101123207D01*
X88747273Y-101150500D01*
X88747275Y-101150500D01*
X88852725Y-101150500D01*
X88852727Y-101150500D01*
X88954587Y-101123207D01*
X89045913Y-101070480D01*
X89120480Y-100995913D01*
X89173207Y-100904587D01*
X89200500Y-100802727D01*
X89200500Y-100787194D01*
X89219407Y-100729003D01*
X89229496Y-100717190D01*
X89627190Y-100319496D01*
X89681707Y-100291719D01*
X89697194Y-100290500D01*
X90456930Y-100290500D01*
X90456930Y-100290499D01*
X90528269Y-100271384D01*
X90531184Y-100269701D01*
X90592231Y-100234456D01*
X90644456Y-100182231D01*
X90644457Y-100182228D01*
X91422191Y-99404496D01*
X91476707Y-99376719D01*
X91492194Y-99375500D01*
X92008626Y-99375500D01*
X92066817Y-99394407D01*
X92102781Y-99443907D01*
X92102781Y-99505093D01*
X92078630Y-99544504D01*
X90672630Y-100950504D01*
X90618113Y-100978281D01*
X90602626Y-100979500D01*
X89503068Y-100979500D01*
X89431734Y-100998614D01*
X89431733Y-100998614D01*
X89367766Y-101035546D01*
X89315543Y-101087768D01*
X89315544Y-101087769D01*
X89315542Y-101087771D01*
X89315541Y-101087770D01*
X88832810Y-101570503D01*
X88778293Y-101598281D01*
X88762806Y-101599500D01*
X88747273Y-101599500D01*
X88645413Y-101626793D01*
X88645412Y-101626793D01*
X88645410Y-101626794D01*
X88645409Y-101626794D01*
X88554089Y-101679518D01*
X88479518Y-101754089D01*
X88426794Y-101845409D01*
X88426794Y-101845410D01*
X88426793Y-101845412D01*
X88426793Y-101845413D01*
X88399500Y-101947273D01*
X88399500Y-102052727D01*
X88426793Y-102154587D01*
X88426794Y-102154589D01*
X88426794Y-102154590D01*
X88479518Y-102245910D01*
X88479520Y-102245913D01*
X88554087Y-102320480D01*
X88645413Y-102373207D01*
X88747273Y-102400500D01*
X88747275Y-102400500D01*
X88852725Y-102400500D01*
X88852727Y-102400500D01*
X88954587Y-102373207D01*
X89045913Y-102320480D01*
X89074120Y-102292273D01*
X90439500Y-102292273D01*
X90439500Y-102397727D01*
X90466793Y-102499587D01*
X90466794Y-102499589D01*
X90466794Y-102499590D01*
X90507635Y-102570328D01*
X90519520Y-102590913D01*
X90594087Y-102665480D01*
X90685413Y-102718207D01*
X90787273Y-102745500D01*
X90787275Y-102745500D01*
X90892725Y-102745500D01*
X90892727Y-102745500D01*
X90994587Y-102718207D01*
X91085913Y-102665480D01*
X91160480Y-102590913D01*
X91213207Y-102499587D01*
X91240500Y-102397727D01*
X91240500Y-102292273D01*
X91213207Y-102190413D01*
X91206906Y-102179500D01*
X91178055Y-102129529D01*
X91160480Y-102099087D01*
X91085913Y-102024520D01*
X91085007Y-102023997D01*
X90994589Y-101971794D01*
X90994588Y-101971793D01*
X90994587Y-101971793D01*
X90892727Y-101944500D01*
X90787273Y-101944500D01*
X90685413Y-101971793D01*
X90685412Y-101971793D01*
X90685410Y-101971794D01*
X90685409Y-101971794D01*
X90594089Y-102024518D01*
X90519518Y-102099089D01*
X90466794Y-102190409D01*
X90466794Y-102190410D01*
X90466793Y-102190412D01*
X90466793Y-102190413D01*
X90439500Y-102292273D01*
X89074120Y-102292273D01*
X89120480Y-102245913D01*
X89173207Y-102154587D01*
X89200500Y-102052727D01*
X89200500Y-102037194D01*
X89219407Y-101979003D01*
X89229496Y-101967190D01*
X89627190Y-101569496D01*
X89681707Y-101541719D01*
X89697194Y-101540500D01*
X90796750Y-101540500D01*
X90796750Y-101540499D01*
X90868089Y-101521384D01*
X90891671Y-101507769D01*
X90932051Y-101484456D01*
X90984276Y-101432231D01*
X90984277Y-101432228D01*
X93192467Y-99224039D01*
X93246984Y-99196262D01*
X93262471Y-99195043D01*
X93463027Y-99195043D01*
X93521218Y-99213950D01*
X93557182Y-99263450D01*
X93557182Y-99324636D01*
X93521218Y-99374136D01*
X93488652Y-99389668D01*
X93415413Y-99409293D01*
X93415412Y-99409293D01*
X93415410Y-99409294D01*
X93324089Y-99462018D01*
X93249518Y-99536589D01*
X93196794Y-99627909D01*
X93196794Y-99627910D01*
X93196793Y-99627912D01*
X93196793Y-99627913D01*
X93169500Y-99729773D01*
X93169500Y-99835227D01*
X93196793Y-99937087D01*
X93196794Y-99937089D01*
X93196794Y-99937090D01*
X93242301Y-100015910D01*
X93249520Y-100028413D01*
X93324087Y-100102980D01*
X93324089Y-100102981D01*
X93328676Y-100107568D01*
X93327451Y-100108792D01*
X93339376Y-100126141D01*
X93356643Y-100149907D01*
X93356643Y-100151263D01*
X93357411Y-100152381D01*
X93356643Y-100181721D01*
X93356643Y-100211093D01*
X93355845Y-100212190D01*
X93355810Y-100213545D01*
X93337950Y-100236821D01*
X93320679Y-100260593D01*
X93319388Y-100261012D01*
X93318564Y-100262087D01*
X93262488Y-100279500D01*
X93135557Y-100279500D01*
X93081929Y-100262075D01*
X93081532Y-100262764D01*
X93078293Y-100260894D01*
X93077366Y-100260593D01*
X93075985Y-100259561D01*
X92984589Y-100206794D01*
X92984588Y-100206793D01*
X92984587Y-100206793D01*
X92882727Y-100179500D01*
X92777273Y-100179500D01*
X92675413Y-100206793D01*
X92675412Y-100206793D01*
X92675410Y-100206794D01*
X92675409Y-100206794D01*
X92584089Y-100259518D01*
X92509518Y-100334089D01*
X92456794Y-100425409D01*
X92456794Y-100425410D01*
X92456793Y-100425412D01*
X92456793Y-100425413D01*
X92429500Y-100527273D01*
X92429500Y-100632727D01*
X92455297Y-100729003D01*
X92456794Y-100734589D01*
X92456794Y-100734590D01*
X92509518Y-100825910D01*
X92509520Y-100825913D01*
X92584087Y-100900480D01*
X92584089Y-100900481D01*
X92675409Y-100953205D01*
X92675413Y-100953207D01*
X92683424Y-100955353D01*
X92734738Y-100988674D01*
X92756667Y-101045795D01*
X92740833Y-101104896D01*
X92693285Y-101143403D01*
X92683428Y-101146606D01*
X92645415Y-101156792D01*
X92645409Y-101156794D01*
X92554089Y-101209518D01*
X92479518Y-101284089D01*
X92426794Y-101375409D01*
X92426794Y-101375410D01*
X92426793Y-101375412D01*
X92426793Y-101375413D01*
X92399500Y-101477273D01*
X92399500Y-101582727D01*
X92425699Y-101680504D01*
X92426794Y-101684589D01*
X92426794Y-101684590D01*
X92476728Y-101771077D01*
X92479520Y-101775913D01*
X92554087Y-101850480D01*
X92645413Y-101903207D01*
X92747273Y-101930500D01*
X92747275Y-101930500D01*
X92852725Y-101930500D01*
X92852727Y-101930500D01*
X92954587Y-101903207D01*
X93045913Y-101850480D01*
X93045914Y-101850478D01*
X93047072Y-101849810D01*
X93047366Y-101849407D01*
X93048293Y-101849105D01*
X93051532Y-101847236D01*
X93051929Y-101847924D01*
X93075305Y-101840329D01*
X93102968Y-101830534D01*
X93105557Y-101830500D01*
X93234521Y-101830500D01*
X93292712Y-101849407D01*
X93304525Y-101859496D01*
X93343642Y-101898613D01*
X93371419Y-101953130D01*
X93361848Y-102013562D01*
X93338218Y-102041974D01*
X93338676Y-102042432D01*
X93334089Y-102047018D01*
X93334087Y-102047020D01*
X93282020Y-102099087D01*
X93259518Y-102121589D01*
X93206794Y-102212909D01*
X93206794Y-102212910D01*
X93206793Y-102212912D01*
X93206793Y-102212913D01*
X93179500Y-102314773D01*
X93179500Y-102420227D01*
X93200765Y-102499589D01*
X93206794Y-102522089D01*
X93206794Y-102522090D01*
X93256472Y-102608134D01*
X93259520Y-102613413D01*
X93334087Y-102687980D01*
X93334089Y-102687981D01*
X93427087Y-102741674D01*
X93468028Y-102787143D01*
X93474424Y-102847993D01*
X93443831Y-102900981D01*
X93427088Y-102913146D01*
X93364088Y-102949519D01*
X93289518Y-103024089D01*
X93236794Y-103115409D01*
X93236794Y-103115410D01*
X93236793Y-103115412D01*
X93236793Y-103115413D01*
X93209500Y-103217273D01*
X93209500Y-103322727D01*
X93236793Y-103424587D01*
X93236794Y-103424589D01*
X93236794Y-103424590D01*
X93285107Y-103508270D01*
X93289520Y-103515913D01*
X93364087Y-103590480D01*
X93455413Y-103643207D01*
X93557273Y-103670500D01*
X93557275Y-103670500D01*
X93662725Y-103670500D01*
X93662727Y-103670500D01*
X93764587Y-103643207D01*
X93854708Y-103591175D01*
X93914553Y-103578454D01*
X93970449Y-103603340D01*
X93999832Y-103651287D01*
X94014114Y-103704590D01*
X94016794Y-103714589D01*
X94016794Y-103714590D01*
X94064138Y-103796591D01*
X94069520Y-103805913D01*
X94144087Y-103880480D01*
X94235413Y-103933207D01*
X94337273Y-103960500D01*
X94337275Y-103960500D01*
X94442725Y-103960500D01*
X94442727Y-103960500D01*
X94544587Y-103933207D01*
X94635913Y-103880480D01*
X94710480Y-103805913D01*
X94763207Y-103714587D01*
X94790500Y-103612727D01*
X94790500Y-103507273D01*
X94763207Y-103405413D01*
X94762732Y-103404590D01*
X94710481Y-103314088D01*
X94707165Y-103309767D01*
X94686741Y-103252091D01*
X94704119Y-103193426D01*
X94752660Y-103156178D01*
X94785707Y-103150500D01*
X98616930Y-103150500D01*
X98616930Y-103150499D01*
X98688269Y-103131384D01*
X98718790Y-103113763D01*
X98768289Y-103100500D01*
X98802725Y-103100500D01*
X98802727Y-103100500D01*
X98904587Y-103073207D01*
X98995913Y-103020480D01*
X99070480Y-102945913D01*
X99123207Y-102854587D01*
X99150500Y-102752727D01*
X99150500Y-102647273D01*
X99123207Y-102545413D01*
X99109741Y-102522090D01*
X99070481Y-102454089D01*
X99070480Y-102454087D01*
X98995913Y-102379520D01*
X98995700Y-102379397D01*
X98995580Y-102379264D01*
X98990767Y-102375571D01*
X98991451Y-102374678D01*
X98954758Y-102333930D01*
X98948361Y-102273080D01*
X98978952Y-102220091D01*
X98995692Y-102207928D01*
X99025913Y-102190480D01*
X99100480Y-102115913D01*
X99153207Y-102024587D01*
X99180500Y-101922727D01*
X99180500Y-101817273D01*
X99153207Y-101715413D01*
X99135411Y-101684590D01*
X99100481Y-101624089D01*
X99100480Y-101624087D01*
X99025913Y-101549520D01*
X99012401Y-101541719D01*
X98934589Y-101496794D01*
X98934588Y-101496793D01*
X98934587Y-101496793D01*
X98832727Y-101469500D01*
X98727273Y-101469500D01*
X98625413Y-101496793D01*
X98625412Y-101496793D01*
X98625410Y-101496794D01*
X98625409Y-101496794D01*
X98534089Y-101549518D01*
X98459518Y-101624089D01*
X98406794Y-101715409D01*
X98406794Y-101715410D01*
X98406793Y-101715412D01*
X98406793Y-101715413D01*
X98392044Y-101770460D01*
X98379500Y-101817274D01*
X98379500Y-101929216D01*
X98377977Y-101929216D01*
X98368216Y-101981880D01*
X98323833Y-102023997D01*
X98269713Y-102032970D01*
X98262551Y-102032132D01*
X98252727Y-102029500D01*
X98240045Y-102029500D01*
X98234317Y-102028830D01*
X98211505Y-102018351D01*
X98187627Y-102010593D01*
X98184126Y-102005774D01*
X98178717Y-102003290D01*
X98166422Y-101981407D01*
X98151663Y-101961093D01*
X98150200Y-101956153D01*
X98123207Y-101855413D01*
X98122475Y-101854146D01*
X98070481Y-101764089D01*
X98070480Y-101764087D01*
X97995913Y-101689520D01*
X97987372Y-101684589D01*
X97904589Y-101636794D01*
X97904588Y-101636793D01*
X97904587Y-101636793D01*
X97802727Y-101609500D01*
X97697273Y-101609500D01*
X97595413Y-101636793D01*
X97595412Y-101636793D01*
X97595410Y-101636794D01*
X97595409Y-101636794D01*
X97498468Y-101692764D01*
X97497743Y-101691509D01*
X97447032Y-101709466D01*
X97444443Y-101709500D01*
X96005479Y-101709500D01*
X95947288Y-101690593D01*
X95935475Y-101680504D01*
X95279105Y-101024134D01*
X94594511Y-100339540D01*
X94585066Y-100334087D01*
X94525989Y-100299979D01*
X94525988Y-100299978D01*
X94525987Y-100299978D01*
X94449564Y-100279500D01*
X94449562Y-100279500D01*
X93877512Y-100279500D01*
X93819321Y-100260593D01*
X93783357Y-100211093D01*
X93783357Y-100149907D01*
X93812470Y-100108714D01*
X93811324Y-100107568D01*
X93815910Y-100102981D01*
X93815913Y-100102980D01*
X93890480Y-100028413D01*
X93943207Y-99937087D01*
X93943363Y-99936505D01*
X95169500Y-99936505D01*
X95169500Y-100041959D01*
X95196629Y-100143207D01*
X95196794Y-100143821D01*
X95196794Y-100143822D01*
X95236267Y-100212190D01*
X95249520Y-100235145D01*
X95324087Y-100309712D01*
X95415413Y-100362439D01*
X95517273Y-100389732D01*
X95517275Y-100389732D01*
X95622725Y-100389732D01*
X95622727Y-100389732D01*
X95724587Y-100362439D01*
X95815913Y-100309712D01*
X95890480Y-100235145D01*
X95943207Y-100143819D01*
X95970500Y-100041959D01*
X95970500Y-99936505D01*
X95943207Y-99834645D01*
X95941918Y-99832413D01*
X95890481Y-99743321D01*
X95890480Y-99743319D01*
X95815913Y-99668752D01*
X95815677Y-99668616D01*
X95724589Y-99616026D01*
X95724588Y-99616025D01*
X95724587Y-99616025D01*
X95622727Y-99588732D01*
X95517273Y-99588732D01*
X95415413Y-99616025D01*
X95415412Y-99616025D01*
X95415410Y-99616026D01*
X95415409Y-99616026D01*
X95324089Y-99668750D01*
X95249518Y-99743321D01*
X95196794Y-99834641D01*
X95196794Y-99834642D01*
X95196793Y-99834644D01*
X95196793Y-99834645D01*
X95169500Y-99936505D01*
X93943363Y-99936505D01*
X93970500Y-99835227D01*
X93970500Y-99729773D01*
X93943207Y-99627913D01*
X93936343Y-99616025D01*
X93890481Y-99536589D01*
X93890480Y-99536587D01*
X93815913Y-99462020D01*
X93794262Y-99449520D01*
X93724589Y-99409294D01*
X93724588Y-99409293D01*
X93724587Y-99409293D01*
X93651348Y-99389669D01*
X93600036Y-99356346D01*
X93578109Y-99299225D01*
X93593944Y-99240124D01*
X93641494Y-99201619D01*
X93676973Y-99195043D01*
X96637349Y-99195043D01*
X96695540Y-99213950D01*
X96707353Y-99224039D01*
X96808508Y-99325194D01*
X96808510Y-99325197D01*
X96860735Y-99377422D01*
X96915938Y-99409293D01*
X96924697Y-99414350D01*
X96983447Y-99430092D01*
X96986456Y-99431110D01*
X97008558Y-99447575D01*
X97031677Y-99462589D01*
X97032864Y-99465683D01*
X97035522Y-99467663D01*
X97043725Y-99493979D01*
X97053603Y-99519711D01*
X97052795Y-99523073D01*
X97053732Y-99526076D01*
X97048020Y-99542964D01*
X97040476Y-99574390D01*
X97016795Y-99615408D01*
X97016794Y-99615410D01*
X97016793Y-99615412D01*
X97016793Y-99615413D01*
X96989500Y-99717273D01*
X96989500Y-99822727D01*
X97016793Y-99924587D01*
X97016794Y-99924589D01*
X97016794Y-99924590D01*
X97069518Y-100015910D01*
X97069520Y-100015913D01*
X97144087Y-100090480D01*
X97235413Y-100143207D01*
X97239923Y-100144415D01*
X97291237Y-100177734D01*
X97313168Y-100234854D01*
X97309932Y-100265660D01*
X97309500Y-100267273D01*
X97309500Y-100372727D01*
X97336793Y-100474587D01*
X97336794Y-100474589D01*
X97336794Y-100474590D01*
X97389518Y-100565910D01*
X97389520Y-100565913D01*
X97464087Y-100640480D01*
X97555413Y-100693207D01*
X97657273Y-100720500D01*
X97657275Y-100720500D01*
X97762725Y-100720500D01*
X97762727Y-100720500D01*
X97864587Y-100693207D01*
X97955913Y-100640480D01*
X98030480Y-100565913D01*
X98083207Y-100474587D01*
X98110500Y-100372727D01*
X98110500Y-100267273D01*
X98083207Y-100165413D01*
X98077603Y-100155707D01*
X98030481Y-100074089D01*
X98030480Y-100074087D01*
X97955913Y-99999520D01*
X97934228Y-99987000D01*
X97864590Y-99946794D01*
X97864589Y-99946793D01*
X97860065Y-99945581D01*
X97808753Y-99912252D01*
X97786831Y-99855129D01*
X97790071Y-99824328D01*
X97790500Y-99822727D01*
X97790500Y-99717274D01*
X97790500Y-99717273D01*
X97763207Y-99615413D01*
X97713439Y-99529213D01*
X97700719Y-99469367D01*
X97725606Y-99413471D01*
X97729157Y-99409728D01*
X97740007Y-99398879D01*
X97792734Y-99307553D01*
X97820027Y-99205693D01*
X97820027Y-99100239D01*
X97792734Y-98998379D01*
X97764575Y-98949607D01*
X97751854Y-98889760D01*
X97764576Y-98850608D01*
X97799279Y-98790500D01*
X97817968Y-98758130D01*
X97845261Y-98656270D01*
X97845261Y-98550816D01*
X97817968Y-98448956D01*
X97775510Y-98375416D01*
X97765241Y-98357629D01*
X97764454Y-98356604D01*
X97764145Y-98355731D01*
X97761997Y-98352011D01*
X97762686Y-98351612D01*
X97744034Y-98298927D01*
X97757264Y-98246842D01*
X97758527Y-98244655D01*
X97793207Y-98184587D01*
X97820500Y-98082727D01*
X97820500Y-97977273D01*
X97793207Y-97875413D01*
X97740480Y-97784087D01*
X97665913Y-97709520D01*
X97574587Y-97656793D01*
X97472727Y-97629500D01*
X97443891Y-97629500D01*
X97431062Y-97625989D01*
X97416067Y-97616137D01*
X97399003Y-97610593D01*
X97387190Y-97600504D01*
X97373959Y-97587273D01*
X98219500Y-97587273D01*
X98219500Y-97692727D01*
X98246501Y-97793496D01*
X98246794Y-97794589D01*
X98246794Y-97794590D01*
X98293456Y-97875410D01*
X98299520Y-97885913D01*
X98374087Y-97960480D01*
X98465413Y-98013207D01*
X98567273Y-98040500D01*
X98567275Y-98040500D01*
X98672725Y-98040500D01*
X98672727Y-98040500D01*
X98774587Y-98013207D01*
X98865913Y-97960480D01*
X98940480Y-97885913D01*
X98993207Y-97794587D01*
X99020500Y-97692727D01*
X99020500Y-97587273D01*
X98993207Y-97485413D01*
X98980386Y-97463207D01*
X98940481Y-97394089D01*
X98940480Y-97394087D01*
X98865913Y-97319520D01*
X98856901Y-97314317D01*
X98784077Y-97272272D01*
X99886389Y-97272272D01*
X99886389Y-97377726D01*
X99909832Y-97465217D01*
X99913683Y-97479588D01*
X99913683Y-97479589D01*
X99928593Y-97505413D01*
X99966409Y-97570912D01*
X100040976Y-97645479D01*
X100132302Y-97698206D01*
X100234162Y-97725499D01*
X100234164Y-97725499D01*
X100339614Y-97725499D01*
X100339616Y-97725499D01*
X100441476Y-97698206D01*
X100532802Y-97645479D01*
X100607369Y-97570912D01*
X100660096Y-97479586D01*
X100687389Y-97377726D01*
X100687389Y-97272272D01*
X100667741Y-97198944D01*
X100670943Y-97137846D01*
X100693362Y-97103322D01*
X101834763Y-95961922D01*
X101889279Y-95934146D01*
X101949711Y-95943717D01*
X101992976Y-95986982D01*
X102003766Y-96031927D01*
X102003766Y-97298833D01*
X101984859Y-97357024D01*
X101974772Y-97368834D01*
X101963786Y-97379820D01*
X101911060Y-97471143D01*
X101911060Y-97471144D01*
X101911059Y-97471146D01*
X101911059Y-97471147D01*
X101883766Y-97573007D01*
X101883766Y-97678461D01*
X101911059Y-97780321D01*
X101911060Y-97780323D01*
X101911060Y-97780324D01*
X101954049Y-97854782D01*
X101963786Y-97871647D01*
X102038353Y-97946214D01*
X102129679Y-97998941D01*
X102231539Y-98026234D01*
X102231541Y-98026234D01*
X102336991Y-98026234D01*
X102336993Y-98026234D01*
X102438853Y-97998941D01*
X102530179Y-97946214D01*
X102604746Y-97871647D01*
X102657473Y-97780321D01*
X102684766Y-97678461D01*
X102684766Y-97573007D01*
X102657473Y-97471147D01*
X102654049Y-97465217D01*
X102624529Y-97414087D01*
X102604746Y-97379821D01*
X102599698Y-97374773D01*
X102593760Y-97368834D01*
X102565984Y-97314317D01*
X102564766Y-97298833D01*
X102564766Y-96497273D01*
X102999500Y-96497273D01*
X102999500Y-96602727D01*
X103025693Y-96700480D01*
X103026794Y-96704589D01*
X103026794Y-96704590D01*
X103079518Y-96795910D01*
X103079520Y-96795913D01*
X103154087Y-96870480D01*
X103245413Y-96923207D01*
X103347273Y-96950500D01*
X103347275Y-96950500D01*
X103452725Y-96950500D01*
X103452727Y-96950500D01*
X103554587Y-96923207D01*
X103645913Y-96870480D01*
X103720480Y-96795913D01*
X103773207Y-96704587D01*
X103800500Y-96602727D01*
X103800500Y-96522021D01*
X103819407Y-96463830D01*
X103868907Y-96427866D01*
X103925122Y-96426395D01*
X103949773Y-96433000D01*
X103949774Y-96433000D01*
X104055225Y-96433000D01*
X104055227Y-96433000D01*
X104157087Y-96405707D01*
X104248413Y-96352980D01*
X104322980Y-96278413D01*
X104375707Y-96187087D01*
X104378337Y-96177273D01*
X107689500Y-96177273D01*
X107689500Y-96282727D01*
X107712685Y-96369255D01*
X107716794Y-96384589D01*
X107716794Y-96384590D01*
X107744744Y-96433000D01*
X107769520Y-96475913D01*
X107844087Y-96550480D01*
X107844089Y-96550481D01*
X107935409Y-96603205D01*
X107935410Y-96603205D01*
X107935413Y-96603207D01*
X108002434Y-96621165D01*
X108053746Y-96654486D01*
X108075673Y-96711607D01*
X108059838Y-96770708D01*
X108046813Y-96786793D01*
X107989519Y-96844087D01*
X107936794Y-96935409D01*
X107936794Y-96935410D01*
X107936793Y-96935412D01*
X107936793Y-96935413D01*
X107909500Y-97037273D01*
X107909500Y-97142727D01*
X107928755Y-97214587D01*
X107936794Y-97244589D01*
X107936794Y-97244590D01*
X107989518Y-97335910D01*
X107989520Y-97335913D01*
X108064087Y-97410480D01*
X108155413Y-97463207D01*
X108257273Y-97490500D01*
X108257275Y-97490500D01*
X108362725Y-97490500D01*
X108362727Y-97490500D01*
X108464587Y-97463207D01*
X108555913Y-97410480D01*
X108630480Y-97335913D01*
X108683207Y-97244587D01*
X108710500Y-97142727D01*
X108710500Y-97037273D01*
X108683207Y-96935413D01*
X108630480Y-96844087D01*
X108555913Y-96769520D01*
X108464587Y-96716793D01*
X108397565Y-96698834D01*
X108346253Y-96665512D01*
X108324326Y-96608391D01*
X108340161Y-96549290D01*
X108353182Y-96533210D01*
X108410480Y-96475913D01*
X108463207Y-96384587D01*
X108490500Y-96282727D01*
X108490500Y-96177273D01*
X108463207Y-96075413D01*
X108454584Y-96060478D01*
X108410481Y-95984089D01*
X108410480Y-95984087D01*
X108335913Y-95909520D01*
X108320255Y-95900480D01*
X108244589Y-95856794D01*
X108244588Y-95856793D01*
X108244587Y-95856793D01*
X108142727Y-95829500D01*
X108037273Y-95829500D01*
X107935413Y-95856793D01*
X107935412Y-95856793D01*
X107935410Y-95856794D01*
X107935409Y-95856794D01*
X107844089Y-95909518D01*
X107769518Y-95984089D01*
X107716794Y-96075409D01*
X107716794Y-96075410D01*
X107716793Y-96075412D01*
X107716793Y-96075413D01*
X107689500Y-96177273D01*
X104378337Y-96177273D01*
X104403000Y-96085227D01*
X104403000Y-95979773D01*
X104375707Y-95877913D01*
X104363513Y-95856793D01*
X104322981Y-95786589D01*
X104322980Y-95786587D01*
X104248413Y-95712020D01*
X104236969Y-95705413D01*
X104157089Y-95659294D01*
X104157088Y-95659293D01*
X104157087Y-95659293D01*
X104055227Y-95632000D01*
X103949773Y-95632000D01*
X103847913Y-95659293D01*
X103847912Y-95659293D01*
X103847910Y-95659294D01*
X103847909Y-95659294D01*
X103756589Y-95712018D01*
X103682018Y-95786589D01*
X103629294Y-95877909D01*
X103629294Y-95877910D01*
X103629293Y-95877912D01*
X103629293Y-95877913D01*
X103609119Y-95953207D01*
X103602000Y-95979774D01*
X103602000Y-96060478D01*
X103583093Y-96118669D01*
X103533593Y-96154633D01*
X103477378Y-96156105D01*
X103468847Y-96153819D01*
X103452727Y-96149500D01*
X103347273Y-96149500D01*
X103245413Y-96176793D01*
X103245412Y-96176793D01*
X103245410Y-96176794D01*
X103245409Y-96176794D01*
X103154089Y-96229518D01*
X103079518Y-96304089D01*
X103026794Y-96395409D01*
X103026794Y-96395410D01*
X103026793Y-96395412D01*
X103026793Y-96395413D01*
X102999500Y-96497273D01*
X102564766Y-96497273D01*
X102564766Y-96022927D01*
X102583673Y-95964736D01*
X102593756Y-95952929D01*
X103253228Y-95293457D01*
X103253231Y-95293456D01*
X103305456Y-95241231D01*
X103342384Y-95177269D01*
X103361500Y-95105928D01*
X103361500Y-92916194D01*
X103380407Y-92858003D01*
X103390496Y-92846190D01*
X104029413Y-92207273D01*
X109899500Y-92207273D01*
X109899500Y-92312727D01*
X109926793Y-92414587D01*
X109979520Y-92505913D01*
X109979521Y-92505914D01*
X109982169Y-92510500D01*
X109994890Y-92570348D01*
X109982169Y-92609500D01*
X109979521Y-92614085D01*
X109979520Y-92614087D01*
X109926793Y-92705413D01*
X109899500Y-92807273D01*
X109899500Y-92912727D01*
X109926793Y-93014587D01*
X109979520Y-93105913D01*
X109979521Y-93105914D01*
X109982169Y-93110500D01*
X109994890Y-93170348D01*
X109982169Y-93209500D01*
X109979521Y-93214085D01*
X109979520Y-93214087D01*
X109926793Y-93305413D01*
X109899500Y-93407273D01*
X109899500Y-93512727D01*
X109926793Y-93614587D01*
X109979520Y-93705913D01*
X109979521Y-93705914D01*
X109982169Y-93710500D01*
X109994890Y-93770348D01*
X109982169Y-93809500D01*
X109979521Y-93814085D01*
X109979520Y-93814087D01*
X109926793Y-93905413D01*
X109899500Y-94007273D01*
X109899500Y-94112727D01*
X109926793Y-94214587D01*
X109979520Y-94305913D01*
X109979521Y-94305914D01*
X109982169Y-94310500D01*
X109994890Y-94370348D01*
X109982169Y-94409500D01*
X109979521Y-94414085D01*
X109979520Y-94414087D01*
X109926793Y-94505413D01*
X109899500Y-94607273D01*
X109899500Y-94712727D01*
X109926793Y-94814587D01*
X109979520Y-94905913D01*
X109979521Y-94905914D01*
X109982169Y-94910500D01*
X109994890Y-94970348D01*
X109982169Y-95009500D01*
X109979521Y-95014085D01*
X109979520Y-95014087D01*
X109926793Y-95105413D01*
X109899500Y-95207273D01*
X109899500Y-95312727D01*
X109926793Y-95414587D01*
X109979520Y-95505913D01*
X109979521Y-95505914D01*
X109982169Y-95510500D01*
X109994890Y-95570348D01*
X109982169Y-95609500D01*
X109979521Y-95614085D01*
X109979520Y-95614087D01*
X109926793Y-95705413D01*
X109899500Y-95807273D01*
X109899500Y-95912727D01*
X109926793Y-96014587D01*
X109979520Y-96105913D01*
X109979521Y-96105914D01*
X109982169Y-96110500D01*
X109994890Y-96170348D01*
X109982169Y-96209500D01*
X109979521Y-96214085D01*
X109979520Y-96214087D01*
X109926793Y-96305413D01*
X109899500Y-96407273D01*
X109899500Y-96512727D01*
X109926793Y-96614587D01*
X109979520Y-96705913D01*
X109979521Y-96705914D01*
X109982169Y-96710500D01*
X109994890Y-96770348D01*
X109982169Y-96809500D01*
X109979521Y-96814085D01*
X109979520Y-96814087D01*
X109926793Y-96905413D01*
X109899500Y-97007273D01*
X109899500Y-97112727D01*
X109926793Y-97214587D01*
X109979520Y-97305913D01*
X109979521Y-97305914D01*
X109982169Y-97310500D01*
X109994890Y-97370348D01*
X109982169Y-97409500D01*
X109979521Y-97414085D01*
X109979520Y-97414087D01*
X109926793Y-97505413D01*
X109899500Y-97607273D01*
X109899500Y-97712727D01*
X109923074Y-97800707D01*
X109926794Y-97814589D01*
X109926794Y-97814590D01*
X109967971Y-97885910D01*
X109979520Y-97905913D01*
X110054087Y-97980480D01*
X110145413Y-98033207D01*
X110247273Y-98060500D01*
X110247275Y-98060500D01*
X110352725Y-98060500D01*
X110352727Y-98060500D01*
X110454587Y-98033207D01*
X110545913Y-97980480D01*
X110579998Y-97946394D01*
X110634513Y-97918619D01*
X110694945Y-97928190D01*
X110720000Y-97946393D01*
X110754087Y-97980480D01*
X110845413Y-98033207D01*
X110947273Y-98060500D01*
X110947275Y-98060500D01*
X111052725Y-98060500D01*
X111052727Y-98060500D01*
X111154587Y-98033207D01*
X111245913Y-97980480D01*
X111320480Y-97905913D01*
X111373207Y-97814587D01*
X111400500Y-97712727D01*
X111400500Y-97607273D01*
X111373207Y-97505413D01*
X111320480Y-97414087D01*
X111320477Y-97414084D01*
X111317831Y-97409501D01*
X111305109Y-97349652D01*
X111317831Y-97310499D01*
X111320477Y-97305915D01*
X111320480Y-97305913D01*
X111373207Y-97214587D01*
X111400500Y-97112727D01*
X111400500Y-97007273D01*
X111373207Y-96905413D01*
X111320480Y-96814087D01*
X111320477Y-96814084D01*
X111317831Y-96809501D01*
X111305109Y-96749652D01*
X111317831Y-96710499D01*
X111320477Y-96705915D01*
X111320480Y-96705913D01*
X111373207Y-96614587D01*
X111400500Y-96512727D01*
X111400500Y-96407273D01*
X111373207Y-96305413D01*
X111320480Y-96214087D01*
X111320477Y-96214084D01*
X111317831Y-96209501D01*
X111305109Y-96149652D01*
X111317831Y-96110499D01*
X111320477Y-96105915D01*
X111320480Y-96105913D01*
X111373207Y-96014587D01*
X111400500Y-95912727D01*
X111400500Y-95807273D01*
X111373207Y-95705413D01*
X111320480Y-95614087D01*
X111320477Y-95614084D01*
X111317831Y-95609501D01*
X111305109Y-95549652D01*
X111317831Y-95510499D01*
X111320477Y-95505915D01*
X111320480Y-95505913D01*
X111373207Y-95414587D01*
X111400500Y-95312727D01*
X111400500Y-95207273D01*
X111373207Y-95105413D01*
X111320480Y-95014087D01*
X111320477Y-95014084D01*
X111317831Y-95009501D01*
X111305109Y-94949652D01*
X111317831Y-94910499D01*
X111320477Y-94905915D01*
X111320480Y-94905913D01*
X111373207Y-94814587D01*
X111400500Y-94712727D01*
X111400500Y-94607273D01*
X111373207Y-94505413D01*
X111320480Y-94414087D01*
X111320477Y-94414084D01*
X111317831Y-94409501D01*
X111305109Y-94349652D01*
X111317831Y-94310499D01*
X111320477Y-94305915D01*
X111320480Y-94305913D01*
X111373207Y-94214587D01*
X111400500Y-94112727D01*
X111400500Y-94007273D01*
X111373207Y-93905413D01*
X111320480Y-93814087D01*
X111320477Y-93814084D01*
X111317831Y-93809501D01*
X111305109Y-93749652D01*
X111317831Y-93710499D01*
X111320477Y-93705915D01*
X111320480Y-93705913D01*
X111373207Y-93614587D01*
X111400500Y-93512727D01*
X111400500Y-93407273D01*
X111373207Y-93305413D01*
X111320480Y-93214087D01*
X111320477Y-93214084D01*
X111317831Y-93209501D01*
X111305109Y-93149652D01*
X111317831Y-93110499D01*
X111320477Y-93105915D01*
X111320480Y-93105913D01*
X111373207Y-93014587D01*
X111400500Y-92912727D01*
X111400500Y-92807273D01*
X111373207Y-92705413D01*
X111320480Y-92614087D01*
X111320477Y-92614084D01*
X111317831Y-92609501D01*
X111305109Y-92549652D01*
X111317831Y-92510499D01*
X111320477Y-92505915D01*
X111320480Y-92505913D01*
X111373207Y-92414587D01*
X111400500Y-92312727D01*
X111400500Y-92207273D01*
X111373207Y-92105413D01*
X111320480Y-92014087D01*
X111245913Y-91939520D01*
X111154587Y-91886793D01*
X111052727Y-91859500D01*
X110947273Y-91859500D01*
X110845413Y-91886793D01*
X110845412Y-91886793D01*
X110845410Y-91886794D01*
X110845409Y-91886794D01*
X110754089Y-91939518D01*
X110754087Y-91939519D01*
X110754087Y-91939520D01*
X110720001Y-91973605D01*
X110665487Y-92001381D01*
X110605055Y-91991810D01*
X110579999Y-91973606D01*
X110545913Y-91939520D01*
X110454587Y-91886793D01*
X110352727Y-91859500D01*
X110247273Y-91859500D01*
X110145413Y-91886793D01*
X110145412Y-91886793D01*
X110145410Y-91886794D01*
X110145409Y-91886794D01*
X110054089Y-91939518D01*
X109979518Y-92014089D01*
X109926794Y-92105409D01*
X109926794Y-92105410D01*
X109926793Y-92105412D01*
X109926793Y-92105413D01*
X109899500Y-92207273D01*
X104029413Y-92207273D01*
X104105906Y-92130780D01*
X104456187Y-91780500D01*
X105502191Y-90734496D01*
X105556708Y-90706719D01*
X105572195Y-90705500D01*
X107663072Y-90705500D01*
X108503100Y-90705500D01*
X108561291Y-90724407D01*
X108573097Y-90734490D01*
X108584087Y-90745480D01*
X108675413Y-90798207D01*
X108777273Y-90825500D01*
X108777275Y-90825500D01*
X108882725Y-90825500D01*
X108882727Y-90825500D01*
X108913431Y-90817273D01*
X110159500Y-90817273D01*
X110159500Y-90922727D01*
X110182681Y-91009240D01*
X110186794Y-91024589D01*
X110186794Y-91024590D01*
X110226640Y-91093604D01*
X110239520Y-91115913D01*
X110314087Y-91190480D01*
X110405413Y-91243207D01*
X110507273Y-91270500D01*
X110507275Y-91270500D01*
X110612725Y-91270500D01*
X110612727Y-91270500D01*
X110714587Y-91243207D01*
X110805913Y-91190480D01*
X110880480Y-91115913D01*
X110933207Y-91024587D01*
X110960500Y-90922727D01*
X110960500Y-90817273D01*
X110933207Y-90715413D01*
X110880480Y-90624087D01*
X110805913Y-90549520D01*
X110737855Y-90510227D01*
X110714589Y-90496794D01*
X110714588Y-90496793D01*
X110714587Y-90496793D01*
X110612727Y-90469500D01*
X110507273Y-90469500D01*
X110405413Y-90496793D01*
X110405412Y-90496793D01*
X110405410Y-90496794D01*
X110405409Y-90496794D01*
X110314089Y-90549518D01*
X110239518Y-90624089D01*
X110186794Y-90715409D01*
X110186794Y-90715410D01*
X110186793Y-90715412D01*
X110186793Y-90715413D01*
X110159500Y-90817273D01*
X108913431Y-90817273D01*
X108984587Y-90798207D01*
X109075913Y-90745480D01*
X109150480Y-90670913D01*
X109203207Y-90579587D01*
X109230500Y-90477727D01*
X109230500Y-90372273D01*
X109203207Y-90270413D01*
X109150480Y-90179087D01*
X109075913Y-90104520D01*
X109040880Y-90084294D01*
X108984589Y-90051794D01*
X108984588Y-90051793D01*
X108984587Y-90051793D01*
X108882727Y-90024500D01*
X108777273Y-90024500D01*
X108675413Y-90051793D01*
X108675412Y-90051793D01*
X108675410Y-90051794D01*
X108675409Y-90051794D01*
X108584089Y-90104518D01*
X108584087Y-90104519D01*
X108584087Y-90104520D01*
X108573101Y-90115505D01*
X108518587Y-90143281D01*
X108503100Y-90144500D01*
X107736928Y-90144500D01*
X105451928Y-90144500D01*
X105378071Y-90144500D01*
X105308765Y-90163071D01*
X105308764Y-90163070D01*
X105306736Y-90163613D01*
X105306734Y-90163614D01*
X105242766Y-90200546D01*
X102908769Y-92534544D01*
X102908768Y-92534543D01*
X102856546Y-92586766D01*
X102819616Y-92650730D01*
X102819616Y-92650731D01*
X102800500Y-92722072D01*
X102800500Y-92722074D01*
X102800500Y-93530500D01*
X102781593Y-93588691D01*
X102732093Y-93624655D01*
X102701500Y-93629500D01*
X102597273Y-93629500D01*
X102495413Y-93656793D01*
X102495412Y-93656793D01*
X102495410Y-93656794D01*
X102495409Y-93656794D01*
X102404089Y-93709518D01*
X102329518Y-93784089D01*
X102276794Y-93875409D01*
X102276794Y-93875410D01*
X102276793Y-93875412D01*
X102276793Y-93875413D01*
X102249500Y-93977273D01*
X102249500Y-94082727D01*
X102276793Y-94184587D01*
X102276794Y-94184589D01*
X102276794Y-94184590D01*
X102317320Y-94254782D01*
X102329520Y-94275913D01*
X102340505Y-94286898D01*
X102368281Y-94341413D01*
X102369500Y-94356900D01*
X102369500Y-94592805D01*
X102350593Y-94650996D01*
X102340504Y-94662809D01*
X100114660Y-96888653D01*
X100114658Y-96888655D01*
X100114657Y-96888654D01*
X100062435Y-96940877D01*
X100062433Y-96940879D01*
X100062433Y-96940880D01*
X100036486Y-96985822D01*
X100025505Y-97004842D01*
X100024078Y-97010163D01*
X100019214Y-97019611D01*
X100010427Y-97028321D01*
X100001204Y-97044289D01*
X99966408Y-97079085D01*
X99913683Y-97170408D01*
X99913683Y-97170409D01*
X99913682Y-97170411D01*
X99913682Y-97170412D01*
X99886389Y-97272272D01*
X98784077Y-97272272D01*
X98774589Y-97266794D01*
X98774588Y-97266793D01*
X98774587Y-97266793D01*
X98672727Y-97239500D01*
X98567273Y-97239500D01*
X98465413Y-97266793D01*
X98465412Y-97266793D01*
X98465410Y-97266794D01*
X98465409Y-97266794D01*
X98374089Y-97319518D01*
X98299518Y-97394089D01*
X98246794Y-97485409D01*
X98246794Y-97485410D01*
X98246793Y-97485412D01*
X98246793Y-97485413D01*
X98219500Y-97587273D01*
X97373959Y-97587273D01*
X96974457Y-97187771D01*
X96974456Y-97187769D01*
X96922231Y-97135544D01*
X96858269Y-97098616D01*
X96858268Y-97098615D01*
X96858265Y-97098614D01*
X96786931Y-97079500D01*
X96786929Y-97079500D01*
X96786928Y-97079500D01*
X91574774Y-97079500D01*
X91525275Y-97066237D01*
X91504588Y-97054293D01*
X91467251Y-97044289D01*
X91402727Y-97027000D01*
X91297273Y-97027000D01*
X91195413Y-97054293D01*
X91195412Y-97054293D01*
X91195410Y-97054294D01*
X91195409Y-97054294D01*
X91104089Y-97107018D01*
X91029518Y-97181589D01*
X90976794Y-97272909D01*
X90976794Y-97272910D01*
X90976793Y-97272912D01*
X90976793Y-97272913D01*
X90949500Y-97374773D01*
X90949500Y-97480227D01*
X90976793Y-97582087D01*
X90976794Y-97582089D01*
X90976794Y-97582090D01*
X91029429Y-97673256D01*
X91029520Y-97673413D01*
X91104087Y-97747980D01*
X91195413Y-97800707D01*
X91297273Y-97828000D01*
X91297275Y-97828000D01*
X91402725Y-97828000D01*
X91402727Y-97828000D01*
X91504587Y-97800707D01*
X91595913Y-97747980D01*
X91670480Y-97673413D01*
X91670481Y-97673410D01*
X91674396Y-97669496D01*
X91681513Y-97665869D01*
X91686209Y-97659407D01*
X91708257Y-97652243D01*
X91728913Y-97641719D01*
X91744400Y-97640500D01*
X91802080Y-97640500D01*
X91860271Y-97659407D01*
X91896235Y-97708907D01*
X91896235Y-97770093D01*
X91887816Y-97789000D01*
X91866794Y-97825410D01*
X91866793Y-97825412D01*
X91866793Y-97825413D01*
X91839500Y-97927273D01*
X91839500Y-98032727D01*
X91861839Y-98116097D01*
X91866794Y-98134589D01*
X91866794Y-98134590D01*
X91907735Y-98205501D01*
X91920457Y-98265349D01*
X91907736Y-98304499D01*
X91866793Y-98375416D01*
X91839500Y-98477276D01*
X91839500Y-98582730D01*
X91859205Y-98656270D01*
X91868210Y-98689877D01*
X91865007Y-98750979D01*
X91826502Y-98798529D01*
X91772583Y-98814500D01*
X91400364Y-98814500D01*
X91342173Y-98795593D01*
X91306209Y-98746093D01*
X91304738Y-98741127D01*
X91303207Y-98735413D01*
X91250480Y-98644087D01*
X91175913Y-98569520D01*
X91169665Y-98565913D01*
X91084589Y-98516794D01*
X91084588Y-98516793D01*
X91084587Y-98516793D01*
X90982727Y-98489500D01*
X90877273Y-98489500D01*
X90775413Y-98516793D01*
X90775412Y-98516793D01*
X90775410Y-98516794D01*
X90775409Y-98516794D01*
X90684089Y-98569518D01*
X90609518Y-98644089D01*
X90556794Y-98735409D01*
X90556794Y-98735410D01*
X90556793Y-98735412D01*
X90556793Y-98735413D01*
X90529500Y-98837273D01*
X90529500Y-98942727D01*
X90544598Y-98999073D01*
X90556794Y-99044589D01*
X90556794Y-99044590D01*
X90609518Y-99135910D01*
X90609520Y-99135913D01*
X90683457Y-99209850D01*
X90711233Y-99264365D01*
X90701662Y-99324797D01*
X90683456Y-99349855D01*
X90332811Y-99700503D01*
X90278294Y-99728281D01*
X90262807Y-99729500D01*
X89503071Y-99729500D01*
X89477483Y-99736356D01*
X89477482Y-99736355D01*
X89431733Y-99748615D01*
X89367766Y-99785546D01*
X89315543Y-99837768D01*
X89315544Y-99837769D01*
X89315542Y-99837771D01*
X89315541Y-99837770D01*
X88832810Y-100320503D01*
X88778293Y-100348281D01*
X88762806Y-100349500D01*
X88747273Y-100349500D01*
X88645413Y-100376793D01*
X88645412Y-100376793D01*
X88645410Y-100376794D01*
X88645409Y-100376794D01*
X88554089Y-100429518D01*
X88479518Y-100504089D01*
X88426794Y-100595409D01*
X88426794Y-100595410D01*
X88426793Y-100595412D01*
X88426793Y-100595413D01*
X88399500Y-100697273D01*
X83003224Y-100697273D01*
X82985797Y-100232418D01*
X82985734Y-100227739D01*
X82994183Y-99417499D01*
X82994346Y-99412772D01*
X82994830Y-99404496D01*
X83041580Y-98603899D01*
X83041970Y-98599176D01*
X83045517Y-98565910D01*
X83127881Y-97793474D01*
X83128491Y-97788817D01*
X83252887Y-96988136D01*
X83253718Y-96983520D01*
X83416307Y-96189720D01*
X83417358Y-96185144D01*
X83585291Y-95527273D01*
X88789500Y-95527273D01*
X88789500Y-95632727D01*
X88816793Y-95734587D01*
X88816794Y-95734589D01*
X88816794Y-95734590D01*
X88869518Y-95825910D01*
X88869520Y-95825913D01*
X88944087Y-95900480D01*
X89035413Y-95953207D01*
X89137273Y-95980500D01*
X89137275Y-95980500D01*
X89242725Y-95980500D01*
X89242727Y-95980500D01*
X89344587Y-95953207D01*
X89435913Y-95900480D01*
X89469998Y-95866394D01*
X89524513Y-95838619D01*
X89584945Y-95848190D01*
X89610000Y-95866393D01*
X89644087Y-95900480D01*
X89735413Y-95953207D01*
X89837273Y-95980500D01*
X89837275Y-95980500D01*
X89942725Y-95980500D01*
X89942727Y-95980500D01*
X90044587Y-95953207D01*
X90135913Y-95900480D01*
X90210480Y-95825913D01*
X90263207Y-95734587D01*
X90290500Y-95632727D01*
X90290500Y-95527273D01*
X90263207Y-95425413D01*
X90245930Y-95395489D01*
X90210481Y-95334089D01*
X90210480Y-95334087D01*
X90135913Y-95259520D01*
X90104235Y-95241231D01*
X90044589Y-95206794D01*
X90044588Y-95206793D01*
X90044587Y-95206793D01*
X89942727Y-95179500D01*
X89837273Y-95179500D01*
X89735413Y-95206793D01*
X89735412Y-95206793D01*
X89735410Y-95206794D01*
X89735409Y-95206794D01*
X89644089Y-95259518D01*
X89644087Y-95259519D01*
X89644087Y-95259520D01*
X89610001Y-95293605D01*
X89555487Y-95321381D01*
X89495055Y-95311810D01*
X89469999Y-95293606D01*
X89435913Y-95259520D01*
X89404235Y-95241231D01*
X89344589Y-95206794D01*
X89344588Y-95206793D01*
X89344587Y-95206793D01*
X89242727Y-95179500D01*
X89137273Y-95179500D01*
X89035413Y-95206793D01*
X89035412Y-95206793D01*
X89035410Y-95206794D01*
X89035409Y-95206794D01*
X88944089Y-95259518D01*
X88869518Y-95334089D01*
X88816794Y-95425409D01*
X88816794Y-95425410D01*
X88816793Y-95425412D01*
X88816793Y-95425413D01*
X88789500Y-95527273D01*
X83585291Y-95527273D01*
X83617767Y-95400050D01*
X83619048Y-95395489D01*
X83666400Y-95241230D01*
X83856815Y-94620902D01*
X83858315Y-94616405D01*
X83881079Y-94553207D01*
X84034499Y-94127273D01*
X88789500Y-94127273D01*
X88789500Y-94232727D01*
X88809110Y-94305913D01*
X88816794Y-94334589D01*
X88816794Y-94334590D01*
X88862692Y-94414087D01*
X88869520Y-94425913D01*
X88944087Y-94500480D01*
X89035413Y-94553207D01*
X89137273Y-94580500D01*
X89137275Y-94580500D01*
X89242725Y-94580500D01*
X89242727Y-94580500D01*
X89344587Y-94553207D01*
X89435913Y-94500480D01*
X89469998Y-94466394D01*
X89524513Y-94438619D01*
X89584945Y-94448190D01*
X89610000Y-94466393D01*
X89644087Y-94500480D01*
X89735413Y-94553207D01*
X89837273Y-94580500D01*
X89837275Y-94580500D01*
X89942725Y-94580500D01*
X89942727Y-94580500D01*
X90044587Y-94553207D01*
X90135913Y-94500480D01*
X90210480Y-94425913D01*
X90263207Y-94334587D01*
X90290500Y-94232727D01*
X90290500Y-94127273D01*
X90263207Y-94025413D01*
X90252734Y-94007274D01*
X90210481Y-93934089D01*
X90210480Y-93934087D01*
X90135913Y-93859520D01*
X90092731Y-93834589D01*
X90044589Y-93806794D01*
X90044588Y-93806793D01*
X90044587Y-93806793D01*
X89942727Y-93779500D01*
X89837273Y-93779500D01*
X89735413Y-93806793D01*
X89735412Y-93806793D01*
X89735410Y-93806794D01*
X89735409Y-93806794D01*
X89644089Y-93859518D01*
X89644087Y-93859519D01*
X89644087Y-93859520D01*
X89610001Y-93893605D01*
X89555487Y-93921381D01*
X89495055Y-93911810D01*
X89469999Y-93893606D01*
X89435913Y-93859520D01*
X89392731Y-93834589D01*
X89344589Y-93806794D01*
X89344588Y-93806793D01*
X89344587Y-93806793D01*
X89242727Y-93779500D01*
X89137273Y-93779500D01*
X89035413Y-93806793D01*
X89035412Y-93806793D01*
X89035410Y-93806794D01*
X89035409Y-93806794D01*
X88944089Y-93859518D01*
X88869518Y-93934089D01*
X88816794Y-94025409D01*
X88816794Y-94025410D01*
X88816793Y-94025412D01*
X88816793Y-94025413D01*
X88789500Y-94127273D01*
X84034499Y-94127273D01*
X84132895Y-93854100D01*
X84134594Y-93849714D01*
X84445381Y-93101381D01*
X84447280Y-93097100D01*
X84622080Y-92727273D01*
X88789500Y-92727273D01*
X88789500Y-92832727D01*
X88810936Y-92912727D01*
X88816794Y-92934589D01*
X88816794Y-92934590D01*
X88869518Y-93025910D01*
X88869520Y-93025913D01*
X88944087Y-93100480D01*
X89035413Y-93153207D01*
X89137273Y-93180500D01*
X89137275Y-93180500D01*
X89242725Y-93180500D01*
X89242727Y-93180500D01*
X89344587Y-93153207D01*
X89435913Y-93100480D01*
X89469998Y-93066394D01*
X89524513Y-93038619D01*
X89584945Y-93048190D01*
X89610000Y-93066393D01*
X89644087Y-93100480D01*
X89735413Y-93153207D01*
X89837273Y-93180500D01*
X89837275Y-93180500D01*
X89942725Y-93180500D01*
X89942727Y-93180500D01*
X90044587Y-93153207D01*
X90135913Y-93100480D01*
X90210480Y-93025913D01*
X90263207Y-92934587D01*
X90290500Y-92832727D01*
X90290500Y-92727273D01*
X90263207Y-92625413D01*
X90246912Y-92597190D01*
X90210481Y-92534089D01*
X90210480Y-92534087D01*
X90135913Y-92459520D01*
X90067855Y-92420227D01*
X90044589Y-92406794D01*
X90044588Y-92406793D01*
X90044587Y-92406793D01*
X89942727Y-92379500D01*
X89837273Y-92379500D01*
X89735413Y-92406793D01*
X89735412Y-92406793D01*
X89735410Y-92406794D01*
X89735409Y-92406794D01*
X89644089Y-92459518D01*
X89644087Y-92459519D01*
X89644087Y-92459520D01*
X89610001Y-92493605D01*
X89555487Y-92521381D01*
X89495055Y-92511810D01*
X89469999Y-92493606D01*
X89435913Y-92459520D01*
X89367855Y-92420227D01*
X89344589Y-92406794D01*
X89344588Y-92406793D01*
X89344587Y-92406793D01*
X89242727Y-92379500D01*
X89137273Y-92379500D01*
X89035413Y-92406793D01*
X89035412Y-92406793D01*
X89035410Y-92406794D01*
X89035409Y-92406794D01*
X88944089Y-92459518D01*
X88869518Y-92534089D01*
X88816794Y-92625409D01*
X88816794Y-92625410D01*
X88816793Y-92625412D01*
X88816793Y-92625413D01*
X88789500Y-92727273D01*
X84622080Y-92727273D01*
X84793555Y-92364480D01*
X84795641Y-92360328D01*
X85176581Y-91645158D01*
X85178870Y-91641097D01*
X85365849Y-91327273D01*
X88789500Y-91327273D01*
X88789500Y-91432727D01*
X88805593Y-91492787D01*
X88816794Y-91534589D01*
X88816794Y-91534590D01*
X88869518Y-91625910D01*
X88869520Y-91625913D01*
X88944087Y-91700480D01*
X89035413Y-91753207D01*
X89137273Y-91780500D01*
X89137275Y-91780500D01*
X89242725Y-91780500D01*
X89242727Y-91780500D01*
X89344587Y-91753207D01*
X89435913Y-91700480D01*
X89469998Y-91666394D01*
X89524513Y-91638619D01*
X89584945Y-91648190D01*
X89610000Y-91666393D01*
X89644087Y-91700480D01*
X89735413Y-91753207D01*
X89837273Y-91780500D01*
X89837275Y-91780500D01*
X89942725Y-91780500D01*
X89942727Y-91780500D01*
X90044587Y-91753207D01*
X90135913Y-91700480D01*
X90210480Y-91625913D01*
X90263207Y-91534587D01*
X90290500Y-91432727D01*
X90290500Y-91327273D01*
X90263207Y-91225413D01*
X90243038Y-91190480D01*
X90210481Y-91134089D01*
X90210480Y-91134087D01*
X90135913Y-91059520D01*
X90075412Y-91024590D01*
X90044589Y-91006794D01*
X90044588Y-91006793D01*
X90044587Y-91006793D01*
X89942727Y-90979500D01*
X89837273Y-90979500D01*
X89735413Y-91006793D01*
X89735412Y-91006793D01*
X89735410Y-91006794D01*
X89735409Y-91006794D01*
X89644089Y-91059518D01*
X89644087Y-91059519D01*
X89644087Y-91059520D01*
X89610001Y-91093605D01*
X89555487Y-91121381D01*
X89495055Y-91111810D01*
X89469999Y-91093606D01*
X89435913Y-91059520D01*
X89375412Y-91024590D01*
X89344589Y-91006794D01*
X89344588Y-91006793D01*
X89344587Y-91006793D01*
X89242727Y-90979500D01*
X89137273Y-90979500D01*
X89035413Y-91006793D01*
X89035412Y-91006793D01*
X89035410Y-91006794D01*
X89035409Y-91006794D01*
X88944089Y-91059518D01*
X88869518Y-91134089D01*
X88816794Y-91225409D01*
X88816794Y-91225410D01*
X88816793Y-91225412D01*
X88816793Y-91225413D01*
X88789500Y-91327273D01*
X85365849Y-91327273D01*
X85593635Y-90944959D01*
X85596132Y-90940989D01*
X85951466Y-90404773D01*
X91079500Y-90404773D01*
X91079500Y-90510227D01*
X91098086Y-90579590D01*
X91106794Y-90612089D01*
X91106794Y-90612090D01*
X91113721Y-90624087D01*
X91159520Y-90703413D01*
X91234087Y-90777980D01*
X91325413Y-90830707D01*
X91427273Y-90858000D01*
X91427275Y-90858000D01*
X91532725Y-90858000D01*
X91532727Y-90858000D01*
X91634587Y-90830707D01*
X91725913Y-90777980D01*
X91736898Y-90766994D01*
X91791413Y-90739219D01*
X91806900Y-90738000D01*
X93763072Y-90738000D01*
X94240306Y-90738000D01*
X94298497Y-90756907D01*
X94310309Y-90766995D01*
X95397768Y-91854455D01*
X95397770Y-91854456D01*
X96140504Y-92597190D01*
X96168281Y-92651707D01*
X96169500Y-92667194D01*
X96169500Y-96053099D01*
X96150593Y-96111290D01*
X96140506Y-96123100D01*
X96129520Y-96134086D01*
X96076794Y-96225409D01*
X96076794Y-96225410D01*
X96076793Y-96225412D01*
X96076793Y-96225413D01*
X96049500Y-96327273D01*
X96049500Y-96432727D01*
X96070936Y-96512727D01*
X96076794Y-96534589D01*
X96076794Y-96534590D01*
X96129518Y-96625910D01*
X96129520Y-96625913D01*
X96204087Y-96700480D01*
X96295413Y-96753207D01*
X96397273Y-96780500D01*
X96397275Y-96780500D01*
X96502725Y-96780500D01*
X96502727Y-96780500D01*
X96604587Y-96753207D01*
X96695913Y-96700480D01*
X96770480Y-96625913D01*
X96823207Y-96534587D01*
X96850500Y-96432727D01*
X96850500Y-96327273D01*
X96823207Y-96225413D01*
X96770480Y-96134087D01*
X96770479Y-96134086D01*
X96759494Y-96123100D01*
X96731718Y-96068583D01*
X96730500Y-96053099D01*
X96730500Y-92473071D01*
X96728186Y-92464437D01*
X96728184Y-92464432D01*
X96726868Y-92459520D01*
X96711384Y-92401731D01*
X96674456Y-92337769D01*
X95794456Y-91457770D01*
X95794455Y-91457768D01*
X94621957Y-90285271D01*
X94621956Y-90285269D01*
X94569731Y-90233044D01*
X94505769Y-90196116D01*
X94505768Y-90196115D01*
X94505765Y-90196114D01*
X94474908Y-90187846D01*
X94474907Y-90187846D01*
X94434431Y-90177000D01*
X94434429Y-90177000D01*
X94434428Y-90177000D01*
X93836928Y-90177000D01*
X91806900Y-90177000D01*
X91748709Y-90158093D01*
X91736902Y-90148009D01*
X91725913Y-90137020D01*
X91721704Y-90134590D01*
X91634589Y-90084294D01*
X91634588Y-90084293D01*
X91634587Y-90084293D01*
X91532727Y-90057000D01*
X91427273Y-90057000D01*
X91325413Y-90084293D01*
X91325412Y-90084293D01*
X91325410Y-90084294D01*
X91325409Y-90084294D01*
X91234089Y-90137018D01*
X91159518Y-90211589D01*
X91106794Y-90302909D01*
X91106794Y-90302910D01*
X91106793Y-90302912D01*
X91106793Y-90302913D01*
X91079500Y-90404773D01*
X85951466Y-90404773D01*
X86043723Y-90265553D01*
X86046413Y-90261697D01*
X86291854Y-89927273D01*
X88789500Y-89927273D01*
X88789500Y-90032727D01*
X88816793Y-90134587D01*
X88816794Y-90134589D01*
X88816794Y-90134590D01*
X88854874Y-90200546D01*
X88869520Y-90225913D01*
X88944087Y-90300480D01*
X89035413Y-90353207D01*
X89137273Y-90380500D01*
X89137275Y-90380500D01*
X89242725Y-90380500D01*
X89242727Y-90380500D01*
X89344587Y-90353207D01*
X89435913Y-90300480D01*
X89469998Y-90266394D01*
X89524513Y-90238619D01*
X89584945Y-90248190D01*
X89610000Y-90266393D01*
X89644087Y-90300480D01*
X89735413Y-90353207D01*
X89837273Y-90380500D01*
X89837275Y-90380500D01*
X89942725Y-90380500D01*
X89942727Y-90380500D01*
X90044587Y-90353207D01*
X90135913Y-90300480D01*
X90210480Y-90225913D01*
X90263207Y-90134587D01*
X90290500Y-90032727D01*
X90290500Y-89927273D01*
X90263207Y-89825413D01*
X90255107Y-89811384D01*
X90210481Y-89734089D01*
X90210480Y-89734087D01*
X90135913Y-89659520D01*
X90112412Y-89645952D01*
X90044589Y-89606794D01*
X90044588Y-89606793D01*
X90044587Y-89606793D01*
X89942727Y-89579500D01*
X89837273Y-89579500D01*
X89735413Y-89606793D01*
X89735412Y-89606793D01*
X89735410Y-89606794D01*
X89735409Y-89606794D01*
X89644089Y-89659518D01*
X89644087Y-89659519D01*
X89644087Y-89659520D01*
X89610001Y-89693605D01*
X89555487Y-89721381D01*
X89495055Y-89711810D01*
X89469999Y-89693606D01*
X89435913Y-89659520D01*
X89412412Y-89645952D01*
X89344589Y-89606794D01*
X89344588Y-89606793D01*
X89344587Y-89606793D01*
X89242727Y-89579500D01*
X89137273Y-89579500D01*
X89035413Y-89606793D01*
X89035412Y-89606793D01*
X89035410Y-89606794D01*
X89035409Y-89606794D01*
X88944089Y-89659518D01*
X88869518Y-89734089D01*
X88816794Y-89825409D01*
X88816794Y-89825410D01*
X88816793Y-89825412D01*
X88816793Y-89825413D01*
X88789500Y-89927273D01*
X86291854Y-89927273D01*
X86525857Y-89608435D01*
X86528713Y-89604735D01*
X87038851Y-88975222D01*
X87041918Y-88971618D01*
X87581629Y-88367236D01*
X87584820Y-88363830D01*
X88060346Y-87880085D01*
X88114622Y-87851843D01*
X88175134Y-87860897D01*
X88191725Y-87871341D01*
X88248385Y-87915410D01*
X88780004Y-88328892D01*
X88814329Y-88379542D01*
X88814851Y-88432660D01*
X88789500Y-88527273D01*
X88789500Y-88632727D01*
X88816793Y-88734587D01*
X88816794Y-88734589D01*
X88816794Y-88734590D01*
X88865828Y-88819518D01*
X88869520Y-88825913D01*
X88944087Y-88900480D01*
X89035413Y-88953207D01*
X89137273Y-88980500D01*
X89137275Y-88980500D01*
X89242725Y-88980500D01*
X89242727Y-88980500D01*
X89344587Y-88953207D01*
X89435913Y-88900480D01*
X89469998Y-88866394D01*
X89524513Y-88838619D01*
X89584945Y-88848190D01*
X89610000Y-88866393D01*
X89644087Y-88900480D01*
X89735413Y-88953207D01*
X89837273Y-88980500D01*
X89837275Y-88980500D01*
X89942725Y-88980500D01*
X89942727Y-88980500D01*
X90044587Y-88953207D01*
X90135913Y-88900480D01*
X90210480Y-88825913D01*
X90258608Y-88742551D01*
X90304075Y-88701612D01*
X90358341Y-88694048D01*
X92804503Y-89043500D01*
X92859433Y-89070446D01*
X92888035Y-89124534D01*
X92889500Y-89141504D01*
X92889500Y-89242727D01*
X92908976Y-89315413D01*
X92916794Y-89344589D01*
X92916794Y-89344590D01*
X92969518Y-89435910D01*
X92969520Y-89435913D01*
X93044087Y-89510480D01*
X93135413Y-89563207D01*
X93237273Y-89590500D01*
X93237275Y-89590500D01*
X93342725Y-89590500D01*
X93342727Y-89590500D01*
X93444587Y-89563207D01*
X93478263Y-89543763D01*
X93527764Y-89530500D01*
X94800306Y-89530500D01*
X94858497Y-89549407D01*
X94870310Y-89559496D01*
X97645504Y-92334690D01*
X97673281Y-92389207D01*
X97674500Y-92404694D01*
X97674500Y-92420227D01*
X97701604Y-92521381D01*
X97701794Y-92522089D01*
X97701794Y-92522090D01*
X97752261Y-92609500D01*
X97754520Y-92613413D01*
X97829087Y-92687980D01*
X97920413Y-92740707D01*
X98022273Y-92768000D01*
X98022275Y-92768000D01*
X98127725Y-92768000D01*
X98127727Y-92768000D01*
X98229587Y-92740707D01*
X98320913Y-92687980D01*
X98395480Y-92613413D01*
X98435557Y-92543996D01*
X98481024Y-92503057D01*
X98541874Y-92496661D01*
X98542448Y-92496785D01*
X98658128Y-92522090D01*
X100911657Y-93015049D01*
X100964462Y-93045955D01*
X100989017Y-93101997D01*
X100989500Y-93111762D01*
X100989500Y-93353099D01*
X100970593Y-93411290D01*
X100960506Y-93423100D01*
X100949520Y-93434086D01*
X100896794Y-93525409D01*
X100896794Y-93525410D01*
X100896793Y-93525412D01*
X100896793Y-93525413D01*
X100869500Y-93627273D01*
X100869500Y-93732727D01*
X100896793Y-93834587D01*
X100896794Y-93834589D01*
X100896794Y-93834590D01*
X100946903Y-93921381D01*
X100949520Y-93925913D01*
X101024087Y-94000480D01*
X101115413Y-94053207D01*
X101217273Y-94080500D01*
X101217275Y-94080500D01*
X101322725Y-94080500D01*
X101322727Y-94080500D01*
X101424587Y-94053207D01*
X101515913Y-94000480D01*
X101590480Y-93925913D01*
X101643207Y-93834587D01*
X101670500Y-93732727D01*
X101670500Y-93627273D01*
X101643207Y-93525413D01*
X101590480Y-93434087D01*
X101590479Y-93434086D01*
X101579494Y-93423100D01*
X101551718Y-93368583D01*
X101550500Y-93353099D01*
X101550500Y-92313467D01*
X101569407Y-92255276D01*
X101618907Y-92219312D01*
X101675125Y-92217842D01*
X101683881Y-92220188D01*
X101683882Y-92220188D01*
X101789333Y-92220188D01*
X101789335Y-92220188D01*
X101891195Y-92192895D01*
X101982521Y-92140168D01*
X102057088Y-92065601D01*
X102109815Y-91974275D01*
X102137108Y-91872415D01*
X102137108Y-91766961D01*
X102109815Y-91665101D01*
X102100051Y-91648190D01*
X102057087Y-91573774D01*
X102046102Y-91562788D01*
X102018326Y-91508271D01*
X102017108Y-91492787D01*
X102017108Y-90120586D01*
X102036015Y-90062395D01*
X102046104Y-90050582D01*
X102368067Y-89728619D01*
X102695282Y-89401403D01*
X102749797Y-89373628D01*
X102810229Y-89383199D01*
X102851020Y-89421909D01*
X102899518Y-89505910D01*
X102899520Y-89505913D01*
X102974087Y-89580480D01*
X103065413Y-89633207D01*
X103167273Y-89660500D01*
X103167275Y-89660500D01*
X103272725Y-89660500D01*
X103272727Y-89660500D01*
X103374587Y-89633207D01*
X103379757Y-89630221D01*
X103439603Y-89617497D01*
X103495500Y-89642379D01*
X103499260Y-89645946D01*
X103627769Y-89774456D01*
X103691731Y-89811384D01*
X103691733Y-89811384D01*
X103691734Y-89811385D01*
X103727401Y-89820942D01*
X103763068Y-89830499D01*
X103763070Y-89830500D01*
X103763071Y-89830500D01*
X108101930Y-89830500D01*
X108101930Y-89830499D01*
X108173265Y-89811385D01*
X108173266Y-89811385D01*
X108173266Y-89811384D01*
X108173269Y-89811384D01*
X108237231Y-89774456D01*
X108289456Y-89722231D01*
X108289456Y-89722229D01*
X108297606Y-89714080D01*
X108297607Y-89714077D01*
X108409442Y-89602243D01*
X108442191Y-89569496D01*
X108496708Y-89541719D01*
X108512194Y-89540500D01*
X108527725Y-89540500D01*
X108527727Y-89540500D01*
X108629587Y-89513207D01*
X108720913Y-89460480D01*
X108764120Y-89417273D01*
X109459500Y-89417273D01*
X109459500Y-89522727D01*
X109486793Y-89624587D01*
X109486794Y-89624589D01*
X109486794Y-89624590D01*
X109539518Y-89715910D01*
X109539520Y-89715913D01*
X109614087Y-89790480D01*
X109705413Y-89843207D01*
X109807273Y-89870500D01*
X109807275Y-89870500D01*
X109912725Y-89870500D01*
X109912727Y-89870500D01*
X110014587Y-89843207D01*
X110105913Y-89790480D01*
X110139998Y-89756394D01*
X110194513Y-89728619D01*
X110254945Y-89738190D01*
X110280000Y-89756393D01*
X110314087Y-89790480D01*
X110405413Y-89843207D01*
X110507273Y-89870500D01*
X110507275Y-89870500D01*
X110612725Y-89870500D01*
X110612727Y-89870500D01*
X110714587Y-89843207D01*
X110805913Y-89790480D01*
X110880480Y-89715913D01*
X110933207Y-89624587D01*
X110960500Y-89522727D01*
X110960500Y-89417273D01*
X110933207Y-89315413D01*
X110931656Y-89312727D01*
X110880481Y-89224089D01*
X110880480Y-89224087D01*
X110805913Y-89149520D01*
X110796028Y-89143813D01*
X110714589Y-89096794D01*
X110714588Y-89096793D01*
X110714587Y-89096793D01*
X110612727Y-89069500D01*
X110507273Y-89069500D01*
X110405413Y-89096793D01*
X110405412Y-89096793D01*
X110405410Y-89096794D01*
X110405409Y-89096794D01*
X110314089Y-89149518D01*
X110314087Y-89149519D01*
X110314087Y-89149520D01*
X110280001Y-89183605D01*
X110225487Y-89211381D01*
X110165055Y-89201810D01*
X110139999Y-89183606D01*
X110105913Y-89149520D01*
X110096028Y-89143813D01*
X110014589Y-89096794D01*
X110014588Y-89096793D01*
X110014587Y-89096793D01*
X109912727Y-89069500D01*
X109807273Y-89069500D01*
X109705413Y-89096793D01*
X109705412Y-89096793D01*
X109705410Y-89096794D01*
X109705409Y-89096794D01*
X109614089Y-89149518D01*
X109539518Y-89224089D01*
X109486794Y-89315409D01*
X109486794Y-89315410D01*
X109486793Y-89315412D01*
X109486793Y-89315413D01*
X109459500Y-89417273D01*
X108764120Y-89417273D01*
X108795480Y-89385913D01*
X108848207Y-89294587D01*
X108875500Y-89192727D01*
X108875500Y-89087273D01*
X108848207Y-88985413D01*
X108845370Y-88980500D01*
X108813055Y-88924529D01*
X108795480Y-88894087D01*
X108720913Y-88819520D01*
X108643424Y-88774782D01*
X108629589Y-88766794D01*
X108629588Y-88766793D01*
X108629587Y-88766793D01*
X108527727Y-88739500D01*
X108422273Y-88739500D01*
X108320413Y-88766793D01*
X108320412Y-88766793D01*
X108320410Y-88766794D01*
X108320409Y-88766794D01*
X108229089Y-88819518D01*
X108154518Y-88894089D01*
X108101794Y-88985409D01*
X108101794Y-88985410D01*
X108101793Y-88985412D01*
X108101793Y-88985413D01*
X108098256Y-88998616D01*
X108074500Y-89087274D01*
X108074500Y-89102806D01*
X108072031Y-89110403D01*
X108073281Y-89118292D01*
X108062757Y-89138945D01*
X108055593Y-89160997D01*
X108045504Y-89172809D01*
X107977811Y-89240503D01*
X107923295Y-89268281D01*
X107907807Y-89269500D01*
X103957194Y-89269500D01*
X103899003Y-89250593D01*
X103887191Y-89240504D01*
X103740102Y-89093416D01*
X103740099Y-89093412D01*
X103740099Y-89093413D01*
X103734457Y-89087771D01*
X103734456Y-89087769D01*
X103682231Y-89035544D01*
X103618269Y-88998616D01*
X103618268Y-88998615D01*
X103618265Y-88998614D01*
X103576879Y-88987524D01*
X103576857Y-88987519D01*
X103573862Y-88986717D01*
X103546929Y-88979500D01*
X103546928Y-88979500D01*
X103537033Y-88979500D01*
X103527355Y-88977551D01*
X103508879Y-88967146D01*
X103488709Y-88960593D01*
X103476902Y-88950509D01*
X103465913Y-88939520D01*
X103440234Y-88924694D01*
X103381909Y-88891020D01*
X103340969Y-88845550D01*
X103334574Y-88784700D01*
X103361406Y-88735281D01*
X103463962Y-88632725D01*
X103715447Y-88381239D01*
X103769962Y-88353463D01*
X103811066Y-88355616D01*
X103885273Y-88375500D01*
X103885276Y-88375500D01*
X103990725Y-88375500D01*
X103990727Y-88375500D01*
X104092587Y-88348207D01*
X104183913Y-88295480D01*
X104217998Y-88261394D01*
X104272513Y-88233619D01*
X104332945Y-88243190D01*
X104358000Y-88261393D01*
X104392087Y-88295480D01*
X104483413Y-88348207D01*
X104585273Y-88375500D01*
X104585275Y-88375500D01*
X104690725Y-88375500D01*
X104690727Y-88375500D01*
X104792587Y-88348207D01*
X104883913Y-88295480D01*
X104917998Y-88261394D01*
X104972513Y-88233619D01*
X105032945Y-88243190D01*
X105058000Y-88261393D01*
X105092087Y-88295480D01*
X105183413Y-88348207D01*
X105285273Y-88375500D01*
X105285275Y-88375500D01*
X105390725Y-88375500D01*
X105390727Y-88375500D01*
X105492587Y-88348207D01*
X105583913Y-88295480D01*
X105617998Y-88261394D01*
X105672513Y-88233619D01*
X105732945Y-88243190D01*
X105758000Y-88261393D01*
X105792087Y-88295480D01*
X105883413Y-88348207D01*
X105985273Y-88375500D01*
X105985275Y-88375500D01*
X106090725Y-88375500D01*
X106090727Y-88375500D01*
X106192587Y-88348207D01*
X106283913Y-88295480D01*
X106358480Y-88220913D01*
X106411207Y-88129587D01*
X106438500Y-88027727D01*
X106438500Y-88017273D01*
X109459500Y-88017273D01*
X109459500Y-88122727D01*
X109485808Y-88220910D01*
X109486794Y-88224589D01*
X109486794Y-88224590D01*
X109539518Y-88315910D01*
X109539520Y-88315913D01*
X109614087Y-88390480D01*
X109705413Y-88443207D01*
X109807273Y-88470500D01*
X109807275Y-88470500D01*
X109912725Y-88470500D01*
X109912727Y-88470500D01*
X110014587Y-88443207D01*
X110105913Y-88390480D01*
X110139998Y-88356394D01*
X110194513Y-88328619D01*
X110254945Y-88338190D01*
X110280000Y-88356393D01*
X110314087Y-88390480D01*
X110405413Y-88443207D01*
X110507273Y-88470500D01*
X110507275Y-88470500D01*
X110612725Y-88470500D01*
X110612727Y-88470500D01*
X110714587Y-88443207D01*
X110805913Y-88390480D01*
X110880480Y-88315913D01*
X110933207Y-88224587D01*
X110960500Y-88122727D01*
X110960500Y-88017273D01*
X110933207Y-87915413D01*
X110880480Y-87824087D01*
X110805913Y-87749520D01*
X110770525Y-87729089D01*
X110714589Y-87696794D01*
X110714588Y-87696793D01*
X110714587Y-87696793D01*
X110612727Y-87669500D01*
X110507273Y-87669500D01*
X110405413Y-87696793D01*
X110405412Y-87696793D01*
X110405410Y-87696794D01*
X110405409Y-87696794D01*
X110314089Y-87749518D01*
X110314087Y-87749519D01*
X110314087Y-87749520D01*
X110280001Y-87783605D01*
X110225487Y-87811381D01*
X110165055Y-87801810D01*
X110139999Y-87783606D01*
X110105913Y-87749520D01*
X110070525Y-87729089D01*
X110014589Y-87696794D01*
X110014588Y-87696793D01*
X110014587Y-87696793D01*
X109912727Y-87669500D01*
X109807273Y-87669500D01*
X109705413Y-87696793D01*
X109705412Y-87696793D01*
X109705410Y-87696794D01*
X109705409Y-87696794D01*
X109614089Y-87749518D01*
X109539518Y-87824089D01*
X109486794Y-87915409D01*
X109486794Y-87915410D01*
X109486793Y-87915412D01*
X109486793Y-87915413D01*
X109459500Y-88017273D01*
X106438500Y-88017273D01*
X106438500Y-87922273D01*
X106411207Y-87820413D01*
X106405992Y-87811381D01*
X106358481Y-87729089D01*
X106358480Y-87729087D01*
X106283913Y-87654520D01*
X106264318Y-87643207D01*
X106192589Y-87601794D01*
X106192588Y-87601793D01*
X106192587Y-87601793D01*
X106090727Y-87574500D01*
X105985273Y-87574500D01*
X105883413Y-87601793D01*
X105883412Y-87601793D01*
X105883410Y-87601794D01*
X105883409Y-87601794D01*
X105792089Y-87654518D01*
X105792087Y-87654519D01*
X105792087Y-87654520D01*
X105758001Y-87688605D01*
X105703487Y-87716381D01*
X105643055Y-87706810D01*
X105617999Y-87688606D01*
X105583913Y-87654520D01*
X105564318Y-87643207D01*
X105492589Y-87601794D01*
X105492588Y-87601793D01*
X105492587Y-87601793D01*
X105390727Y-87574500D01*
X105285273Y-87574500D01*
X105183413Y-87601793D01*
X105183412Y-87601793D01*
X105183410Y-87601794D01*
X105183409Y-87601794D01*
X105092089Y-87654518D01*
X105092087Y-87654519D01*
X105092087Y-87654520D01*
X105058001Y-87688605D01*
X105003487Y-87716381D01*
X104943055Y-87706810D01*
X104917999Y-87688606D01*
X104883913Y-87654520D01*
X104864318Y-87643207D01*
X104792589Y-87601794D01*
X104792588Y-87601793D01*
X104792587Y-87601793D01*
X104690727Y-87574500D01*
X104585273Y-87574500D01*
X104483413Y-87601793D01*
X104483412Y-87601793D01*
X104483410Y-87601794D01*
X104483409Y-87601794D01*
X104392089Y-87654518D01*
X104392087Y-87654519D01*
X104392087Y-87654520D01*
X104358001Y-87688605D01*
X104347247Y-87694084D01*
X104339369Y-87703230D01*
X104320635Y-87707643D01*
X104303487Y-87716381D01*
X104291564Y-87714492D01*
X104279814Y-87717261D01*
X104264645Y-87710229D01*
X104243055Y-87706810D01*
X104223386Y-87693607D01*
X104220600Y-87691207D01*
X104183913Y-87654520D01*
X104166021Y-87644190D01*
X104158970Y-87638116D01*
X104147689Y-87619531D01*
X104133143Y-87603376D01*
X104132150Y-87593930D01*
X104127222Y-87585811D01*
X104129019Y-87564147D01*
X104126747Y-87542525D01*
X104131547Y-87533683D01*
X104132282Y-87524835D01*
X104143292Y-87512053D01*
X104153580Y-87493106D01*
X104174456Y-87472231D01*
X104211384Y-87408269D01*
X104217730Y-87384587D01*
X104230500Y-87336929D01*
X104230500Y-87263071D01*
X104230500Y-86542788D01*
X107896964Y-86542788D01*
X107896964Y-86648242D01*
X107899384Y-86657273D01*
X107924257Y-86750103D01*
X107969101Y-86827775D01*
X107981822Y-86887623D01*
X107969101Y-86926773D01*
X107946793Y-86965411D01*
X107930094Y-87027736D01*
X107919500Y-87067273D01*
X107919500Y-87172727D01*
X107946793Y-87274587D01*
X107946794Y-87274589D01*
X107946794Y-87274590D01*
X107982786Y-87336929D01*
X107999520Y-87365913D01*
X108074087Y-87440480D01*
X108165413Y-87493207D01*
X108267273Y-87520500D01*
X108267275Y-87520500D01*
X108372725Y-87520500D01*
X108372727Y-87520500D01*
X108474587Y-87493207D01*
X108565913Y-87440480D01*
X108640480Y-87365913D01*
X108693207Y-87274587D01*
X108720500Y-87172727D01*
X108720500Y-87067273D01*
X108693207Y-86965413D01*
X108648362Y-86887740D01*
X108635641Y-86827893D01*
X108648363Y-86788741D01*
X108670669Y-86750105D01*
X108670671Y-86750102D01*
X108697964Y-86648242D01*
X108697964Y-86542788D01*
X108670671Y-86440928D01*
X108656208Y-86415878D01*
X108617945Y-86349604D01*
X108617944Y-86349602D01*
X108543377Y-86275035D01*
X108452051Y-86222308D01*
X108350191Y-86195015D01*
X108244737Y-86195015D01*
X108142877Y-86222308D01*
X108142876Y-86222308D01*
X108142874Y-86222309D01*
X108142873Y-86222309D01*
X108051553Y-86275033D01*
X107976982Y-86349604D01*
X107924258Y-86440924D01*
X107924258Y-86440925D01*
X107924257Y-86440927D01*
X107924257Y-86440928D01*
X107896964Y-86542788D01*
X104230500Y-86542788D01*
X104230500Y-86510033D01*
X104249407Y-86451842D01*
X104298907Y-86415878D01*
X104360093Y-86415878D01*
X104378994Y-86424294D01*
X104420413Y-86448207D01*
X104522273Y-86475500D01*
X104522275Y-86475500D01*
X104627725Y-86475500D01*
X104627727Y-86475500D01*
X104729587Y-86448207D01*
X104820913Y-86395480D01*
X104853748Y-86362643D01*
X104856533Y-86361224D01*
X104858121Y-86358527D01*
X104883547Y-86347459D01*
X104908261Y-86334866D01*
X104914222Y-86334107D01*
X104916497Y-86333887D01*
X104976237Y-86347105D01*
X104996029Y-86362422D01*
X105029087Y-86395480D01*
X105120413Y-86448207D01*
X105222273Y-86475500D01*
X105222275Y-86475500D01*
X105327725Y-86475500D01*
X105327727Y-86475500D01*
X105429587Y-86448207D01*
X105520913Y-86395480D01*
X105554998Y-86361394D01*
X105609513Y-86333619D01*
X105669945Y-86343190D01*
X105695000Y-86361393D01*
X105729087Y-86395480D01*
X105820413Y-86448207D01*
X105922273Y-86475500D01*
X105922275Y-86475500D01*
X106027725Y-86475500D01*
X106027727Y-86475500D01*
X106129587Y-86448207D01*
X106220913Y-86395480D01*
X106295480Y-86320913D01*
X106348207Y-86229587D01*
X106354063Y-86207727D01*
X106387385Y-86156413D01*
X106403747Y-86145655D01*
X108253664Y-85176650D01*
X108313985Y-85166398D01*
X108347721Y-85177829D01*
G37*
%TD.AperFunction*%
%TD*%
M02*
