%TF.GenerationSoftware,KiCad,Pcbnew,9.0.3*%
%TF.CreationDate,2025-09-12T10:42:05+02:00*%
%TF.ProjectId,FOC_CONTROLLER_V1,464f435f-434f-44e5-9452-4f4c4c45525f,rev?*%
%TF.SameCoordinates,Original*%
%TF.FileFunction,Copper,L8,Bot*%
%TF.FilePolarity,Positive*%
%FSLAX46Y46*%
G04 Gerber Fmt 4.6, Leading zero omitted, Abs format (unit mm)*
G04 Created by KiCad (PCBNEW 9.0.3) date 2025-09-12 10:42:05*
%MOMM*%
%LPD*%
G01*
G04 APERTURE LIST*
G04 Aperture macros list*
%AMRoundRect*
0 Rectangle with rounded corners*
0 $1 Rounding radius*
0 $2 $3 $4 $5 $6 $7 $8 $9 X,Y pos of 4 corners*
0 Add a 4 corners polygon primitive as box body*
4,1,4,$2,$3,$4,$5,$6,$7,$8,$9,$2,$3,0*
0 Add four circle primitives for the rounded corners*
1,1,$1+$1,$2,$3*
1,1,$1+$1,$4,$5*
1,1,$1+$1,$6,$7*
1,1,$1+$1,$8,$9*
0 Add four rect primitives between the rounded corners*
20,1,$1+$1,$2,$3,$4,$5,0*
20,1,$1+$1,$4,$5,$6,$7,0*
20,1,$1+$1,$6,$7,$8,$9,0*
20,1,$1+$1,$8,$9,$2,$3,0*%
G04 Aperture macros list end*
%TA.AperFunction,ComponentPad*%
%ADD10C,3.600000*%
%TD*%
%TA.AperFunction,ComponentPad*%
%ADD11C,1.500000*%
%TD*%
%TA.AperFunction,SMDPad,CuDef*%
%ADD12RoundRect,0.225000X0.250000X-0.225000X0.250000X0.225000X-0.250000X0.225000X-0.250000X-0.225000X0*%
%TD*%
%TA.AperFunction,SMDPad,CuDef*%
%ADD13RoundRect,0.100000X0.217500X0.100000X-0.217500X0.100000X-0.217500X-0.100000X0.217500X-0.100000X0*%
%TD*%
%TA.AperFunction,SMDPad,CuDef*%
%ADD14R,1.700000X0.600000*%
%TD*%
%TA.AperFunction,SMDPad,CuDef*%
%ADD15R,2.700000X1.000000*%
%TD*%
%TA.AperFunction,SMDPad,CuDef*%
%ADD16RoundRect,0.200000X-0.275000X0.200000X-0.275000X-0.200000X0.275000X-0.200000X0.275000X0.200000X0*%
%TD*%
%TA.AperFunction,SMDPad,CuDef*%
%ADD17R,0.120000X0.500000*%
%TD*%
%TA.AperFunction,SMDPad,CuDef*%
%ADD18C,0.700000*%
%TD*%
%TA.AperFunction,SMDPad,CuDef*%
%ADD19RoundRect,0.100000X-0.217500X-0.100000X0.217500X-0.100000X0.217500X0.100000X-0.217500X0.100000X0*%
%TD*%
%TA.AperFunction,SMDPad,CuDef*%
%ADD20R,0.300000X0.800000*%
%TD*%
%TA.AperFunction,SMDPad,CuDef*%
%ADD21R,0.800000X0.300000*%
%TD*%
%TA.AperFunction,SMDPad,CuDef*%
%ADD22R,1.800000X1.800000*%
%TD*%
%TA.AperFunction,SMDPad,CuDef*%
%ADD23RoundRect,0.140000X0.170000X-0.140000X0.170000X0.140000X-0.170000X0.140000X-0.170000X-0.140000X0*%
%TD*%
%TA.AperFunction,ViaPad*%
%ADD24C,0.400000*%
%TD*%
%TA.AperFunction,Conductor*%
%ADD25C,0.300000*%
%TD*%
%TA.AperFunction,Conductor*%
%ADD26C,0.160000*%
%TD*%
%TA.AperFunction,Conductor*%
%ADD27C,0.200000*%
%TD*%
%TA.AperFunction,Conductor*%
%ADD28C,0.120000*%
%TD*%
G04 APERTURE END LIST*
D10*
%TO.P,TP1,1,1*%
%TO.N,GND*%
X106717500Y-106717500D03*
%TD*%
%TO.P,TP1,1,1*%
%TO.N,GND*%
X93282500Y-106717500D03*
%TD*%
D11*
%TO.P,TP6,1,1*%
%TO.N,/OUTV*%
X100000000Y-83300000D03*
%TD*%
%TO.P,TP7,1,1*%
%TO.N,/OUTW*%
X104000000Y-83300000D03*
%TD*%
%TO.P,TP5,1,1*%
%TO.N,/OUTU*%
X96000000Y-83300000D03*
%TD*%
D10*
%TO.P,TP1,1,1*%
%TO.N,GND*%
X106717500Y-93282500D03*
%TD*%
%TO.P,TP1,1,1*%
%TO.N,GND*%
X93282500Y-93282500D03*
%TD*%
D12*
%TO.P,C20,1*%
%TO.N,GND*%
X94960000Y-90375000D03*
%TO.P,C20,2*%
%TO.N,VBAT+*%
X94960000Y-88825000D03*
%TD*%
D13*
%TO.P,R41,1*%
%TO.N,+3.3V*%
X100207500Y-85020000D03*
%TO.P,R41,2*%
%TO.N,Net-(IC1-PA5)*%
X99392500Y-85020000D03*
%TD*%
D14*
%TO.P,J1,1,1*%
%TO.N,/NRST*%
X88800000Y-103250000D03*
%TO.P,J1,2,2*%
%TO.N,/SWCLK*%
X88800000Y-102000000D03*
%TO.P,J1,3,3*%
%TO.N,/SWDIO*%
X88800000Y-100750000D03*
%TO.P,J1,4,4*%
%TO.N,+3.3V*%
X88800000Y-99500000D03*
%TO.P,J1,5,5*%
%TO.N,GND*%
X88800000Y-98250000D03*
%TO.P,J1,6,6*%
%TO.N,/BTN*%
X88800000Y-97000000D03*
D15*
%TO.P,J1,7,7*%
%TO.N,GND*%
X85600000Y-105100000D03*
%TO.P,J1,8,8*%
X85600000Y-95150000D03*
%TD*%
D14*
%TO.P,J2,1,1*%
%TO.N,VBAT+*%
X111323885Y-97086500D03*
%TO.P,J2,2,2*%
X111323885Y-98336500D03*
%TO.P,J2,3,3*%
%TO.N,/UART_RX*%
X111323885Y-99586500D03*
%TO.P,J2,4,4*%
%TO.N,/UART_TX*%
X111323885Y-100836500D03*
%TO.P,J2,5,5*%
%TO.N,GND*%
X111323885Y-102086500D03*
%TO.P,J2,6,6*%
X111323885Y-103336500D03*
D15*
%TO.P,J2,7,7*%
X114523885Y-95236500D03*
%TO.P,J2,8,8*%
X114523885Y-105186500D03*
%TD*%
D16*
%TO.P,R49,1,1*%
%TO.N,Net-(Q2-S2)*%
X102130000Y-86290000D03*
D17*
%TO.P,R49,2,2*%
%TO.N,/SHUNT+V*%
X102130000Y-86540000D03*
%TO.P,R49,3,3*%
%TO.N,/SHUNT-V*%
X102130000Y-87640000D03*
D16*
%TO.P,R49,4,4*%
%TO.N,GND*%
X102130000Y-87890000D03*
%TD*%
D18*
%TO.P,TP8,1,1*%
%TO.N,/OP2O*%
X97600000Y-103300000D03*
%TD*%
D19*
%TO.P,R39,1*%
%TO.N,Net-(IC2-MGH)*%
X102722500Y-101460000D03*
%TO.P,R39,2*%
%TO.N,/MGH*%
X103537500Y-101460000D03*
%TD*%
D13*
%TO.P,R45,1*%
%TO.N,/SHUNT+W*%
X105197500Y-85010000D03*
%TO.P,R45,2*%
%TO.N,/SHUNT+AFTER*%
X104382500Y-85010000D03*
%TD*%
D18*
%TO.P,TP10,1,1*%
%TO.N,/OP2P*%
X96600000Y-101400000D03*
%TD*%
D12*
%TO.P,C17,1*%
%TO.N,GND*%
X105010000Y-90375000D03*
%TO.P,C17,2*%
%TO.N,VBAT+*%
X105010000Y-88825000D03*
%TD*%
D13*
%TO.P,R43,1*%
%TO.N,/SHUNT+U*%
X98437500Y-85030000D03*
%TO.P,R43,2*%
%TO.N,/SHUNT+AFTER*%
X97622500Y-85030000D03*
%TD*%
D18*
%TO.P,TP15,1,1*%
%TO.N,GND*%
X96600000Y-103300000D03*
%TD*%
D19*
%TO.P,R38,1*%
%TO.N,/MGL*%
X98682500Y-97070000D03*
%TO.P,R38,2*%
%TO.N,Net-(IC2-MGL)*%
X99497500Y-97070000D03*
%TD*%
D18*
%TO.P,TP12,1,1*%
%TO.N,/MGH*%
X103600000Y-100600000D03*
%TD*%
%TO.P,TP9,1,1*%
%TO.N,/OP2N*%
X96600000Y-102300000D03*
%TD*%
D20*
%TO.P,IC2,1,V*%
%TO.N,unconnected-(IC2-V-Pad1)*%
X100750000Y-101500000D03*
%TO.P,IC2,2,A*%
%TO.N,unconnected-(IC2-A-Pad2)*%
X100250000Y-101500000D03*
%TO.P,IC2,3,Z*%
%TO.N,unconnected-(IC2-Z-Pad3)*%
X99750000Y-101500000D03*
%TO.P,IC2,4,MOSI*%
%TO.N,/SPI2_MOSI*%
X99250000Y-101500000D03*
D21*
%TO.P,IC2,5,CS*%
%TO.N,/SPI2_CS*%
X98500000Y-100750000D03*
%TO.P,IC2,6,B*%
%TO.N,unconnected-(IC2-B-Pad6)*%
X98500000Y-100250000D03*
%TO.P,IC2,7,MISO*%
%TO.N,/SPI2_MISO*%
X98500000Y-99750000D03*
%TO.P,IC2,8,GND*%
%TO.N,GND*%
X98500000Y-99250000D03*
D20*
%TO.P,IC2,9,W*%
%TO.N,unconnected-(IC2-W-Pad9)*%
X99250000Y-98500000D03*
%TO.P,IC2,10,TEST*%
%TO.N,GND*%
X99750000Y-98500000D03*
%TO.P,IC2,11,MGL*%
%TO.N,Net-(IC2-MGL)*%
X100250000Y-98500000D03*
%TO.P,IC2,12,SCLK*%
%TO.N,Net-(IC2-SCLK)*%
X100750000Y-98500000D03*
D21*
%TO.P,IC2,13,VDD*%
%TO.N,+3.3V*%
X101500000Y-99250000D03*
%TO.P,IC2,14,N/C*%
%TO.N,unconnected-(IC2-N{slash}C-Pad14)*%
X101500000Y-99750000D03*
%TO.P,IC2,15,U*%
%TO.N,unconnected-(IC2-U-Pad15)*%
X101500000Y-100250000D03*
%TO.P,IC2,16,MGH*%
%TO.N,Net-(IC2-MGH)*%
X101500000Y-100750000D03*
D22*
%TO.P,IC2,17,EP*%
%TO.N,GND*%
X100000000Y-100000000D03*
%TD*%
D16*
%TO.P,R50,1,1*%
%TO.N,Net-(Q3-S2)*%
X107180000Y-86260000D03*
D17*
%TO.P,R50,2,2*%
%TO.N,/SHUNT+W*%
X107180000Y-86510000D03*
%TO.P,R50,3,3*%
%TO.N,/SHUNT-W*%
X107180000Y-87610000D03*
D16*
%TO.P,R50,4,4*%
%TO.N,GND*%
X107180000Y-87860000D03*
%TD*%
D13*
%TO.P,R44,1*%
%TO.N,/SHUNT+V*%
X101977500Y-85010000D03*
%TO.P,R44,2*%
%TO.N,/SHUNT+AFTER*%
X101162500Y-85010000D03*
%TD*%
D18*
%TO.P,TP13,1,1*%
%TO.N,/SPI2_MOSI*%
X96600000Y-100500000D03*
%TD*%
%TO.P,TP11,1,1*%
%TO.N,/MGL*%
X98700000Y-95900000D03*
%TD*%
D23*
%TO.P,C22,1*%
%TO.N,+3.3V*%
X102630000Y-99240000D03*
%TO.P,C22,2*%
%TO.N,GND*%
X102630000Y-98280000D03*
%TD*%
D16*
%TO.P,R48,1,1*%
%TO.N,Net-(Q1-S2)*%
X97170000Y-86250000D03*
D17*
%TO.P,R48,2,2*%
%TO.N,/SHUNT+U*%
X97170000Y-86500000D03*
%TO.P,R48,3,3*%
%TO.N,/SHUNT-U*%
X97170000Y-87600000D03*
D16*
%TO.P,R48,4,4*%
%TO.N,GND*%
X97170000Y-87850000D03*
%TD*%
D12*
%TO.P,C13,1*%
%TO.N,GND*%
X100020000Y-90375000D03*
%TO.P,C13,2*%
%TO.N,VBAT+*%
X100020000Y-88825000D03*
%TD*%
D24*
%TO.N,+3.3V*%
X98280000Y-104500000D03*
X100207500Y-85020000D03*
X103600000Y-106900000D03*
X103050000Y-110475000D03*
X98280000Y-105150000D03*
X103750000Y-110475000D03*
X101900000Y-105550000D03*
X108090000Y-96230000D03*
X102418225Y-99153663D03*
X92240000Y-97980000D03*
X103750000Y-109075000D03*
X103050000Y-109775000D03*
X101770000Y-99260000D03*
X98890000Y-104500000D03*
X103050000Y-109075000D03*
X95570000Y-99989232D03*
X92240000Y-98530003D03*
X102900000Y-106900000D03*
X104002500Y-96032500D03*
X103750000Y-109775000D03*
%TO.N,GND*%
X104300000Y-104700000D03*
X84121790Y-99167858D03*
X100000000Y-100700000D03*
X84878201Y-95086630D03*
X106800000Y-101100000D03*
X102630000Y-98280000D03*
X86665138Y-91340239D03*
X104913370Y-115121799D03*
X97512692Y-115704245D03*
X87700000Y-98150000D03*
X106467113Y-114525373D03*
X89360823Y-111816003D03*
X101662003Y-115812898D03*
X114167004Y-107218449D03*
X111242998Y-111242998D03*
X94301950Y-114843929D03*
X96400000Y-110500000D03*
X105900000Y-99000000D03*
X86230196Y-107950000D03*
X96694204Y-115552547D03*
X107800000Y-100000000D03*
X115358221Y-95884777D03*
X84641779Y-104115223D03*
X112356621Y-110006194D03*
X113334862Y-108659761D03*
X93000000Y-102200000D03*
X98170000Y-98260000D03*
X87700000Y-94230000D03*
X102487308Y-115704245D03*
X99300000Y-99300000D03*
X95884777Y-115358221D03*
X99167858Y-115878210D03*
X100700000Y-100000000D03*
X111300000Y-102100000D03*
X103934287Y-99755057D03*
X98700000Y-108100000D03*
X86665138Y-108659761D03*
X84100000Y-100000000D03*
X114167004Y-92781551D03*
X84447453Y-96694204D03*
X97900000Y-89900000D03*
X115812898Y-98337997D03*
X115878210Y-100832142D03*
X114843929Y-105698050D03*
X94270000Y-99792500D03*
X107970000Y-97680000D03*
X98337997Y-115812898D03*
X91430000Y-98230000D03*
X105698050Y-114843929D03*
X85832996Y-92781551D03*
X109345786Y-112863370D03*
X96400000Y-108100000D03*
X84121790Y-100832142D03*
X89993806Y-112356621D03*
X103305796Y-115552547D03*
X113334862Y-91340239D03*
X98700000Y-89900000D03*
X110006194Y-112356621D03*
X115552547Y-103305796D03*
X115121799Y-95086630D03*
X112200000Y-102100000D03*
X112863370Y-109345786D03*
X99300000Y-100700000D03*
X99300000Y-100000000D03*
X95230000Y-96560000D03*
X110400000Y-103350000D03*
X93532887Y-114525373D03*
X91300000Y-95900000D03*
X115358221Y-104115223D03*
X85156071Y-105698050D03*
X100000000Y-115900000D03*
X90110000Y-99430000D03*
X87643379Y-110006194D03*
X104115223Y-115358221D03*
X96420000Y-109750000D03*
X88183997Y-89360823D03*
X115704245Y-97512692D03*
X84447453Y-103305796D03*
X115812898Y-101662003D03*
X84641779Y-95884777D03*
X96630000Y-103490000D03*
X96400000Y-109000000D03*
X100700000Y-99300000D03*
X111300000Y-103350000D03*
X91540000Y-99770000D03*
X101900000Y-104717500D03*
X100832142Y-115878210D03*
X88183997Y-110639177D03*
X100000000Y-99300000D03*
X84295755Y-102487308D03*
X87700000Y-92270000D03*
X88757002Y-111242998D03*
X103400000Y-103300000D03*
X111816003Y-110639177D03*
X91340239Y-113334862D03*
X100407500Y-114100000D03*
X94150000Y-91100000D03*
X84187102Y-98337997D03*
X92050000Y-113769804D03*
X100010000Y-102530000D03*
X115704245Y-102487308D03*
X85832996Y-107218449D03*
X96000000Y-103500000D03*
X85474627Y-106467113D03*
X113769804Y-107950000D03*
X103400000Y-95900000D03*
X87136630Y-109345786D03*
X101860000Y-98050000D03*
X113769804Y-92050000D03*
X110400000Y-102100000D03*
X114525373Y-93532887D03*
X98100000Y-109800000D03*
X84878201Y-104913370D03*
X97580000Y-97400000D03*
X85474627Y-93532887D03*
X114843929Y-94301950D03*
X115121799Y-104913370D03*
X86230196Y-92050000D03*
X90080000Y-100620000D03*
X107218449Y-114167004D03*
X100700000Y-100700000D03*
X115878210Y-99167858D03*
X109500000Y-100200000D03*
X90150000Y-101910000D03*
X97550000Y-108050000D03*
X100000000Y-100000000D03*
X110639177Y-111816003D03*
X115900000Y-100000000D03*
X92960000Y-96780000D03*
X95086630Y-115121799D03*
X107950000Y-113769804D03*
X101000000Y-102600000D03*
X103000000Y-89800000D03*
X85156071Y-94301950D03*
X84187102Y-101662003D03*
X87643379Y-89993806D03*
X108659761Y-113334862D03*
X109500000Y-101400000D03*
X84295755Y-97512692D03*
X92400000Y-91100000D03*
X115552547Y-96694204D03*
X112200000Y-103350000D03*
X95800000Y-104800000D03*
X87136630Y-90654214D03*
X96500000Y-106100000D03*
X101590000Y-97350000D03*
X92781551Y-114167004D03*
X90654214Y-112863370D03*
X101870000Y-98600000D03*
X114525373Y-106467113D03*
%TO.N,/NRST*%
X88800000Y-103250000D03*
X107750000Y-103550000D03*
%TO.N,VBAT+*%
X110300000Y-95260000D03*
X99750000Y-106500000D03*
X103938000Y-87975000D03*
X89190000Y-88580000D03*
X100338000Y-87975000D03*
X110300000Y-97060000D03*
X93938000Y-87975000D03*
X111000000Y-96460000D03*
X111000000Y-94060000D03*
X89190000Y-95580000D03*
X110300000Y-97660000D03*
X111000000Y-93460000D03*
X89890000Y-91380000D03*
X111000000Y-94660000D03*
X110300000Y-94660000D03*
X111000000Y-92260000D03*
X89190000Y-89980000D03*
X89890000Y-89980000D03*
X94638000Y-87975000D03*
X89890000Y-92780000D03*
X110300000Y-94060000D03*
X109860000Y-89470000D03*
X110560000Y-88070000D03*
X101038000Y-87975000D03*
X111000000Y-92860000D03*
X111000000Y-97660000D03*
X110300000Y-96460000D03*
X104638000Y-87975000D03*
X89890000Y-94180000D03*
X110560000Y-89470000D03*
X110560000Y-90870000D03*
X89890000Y-95580000D03*
X110300000Y-92260000D03*
X98938000Y-87975000D03*
X110300000Y-93460000D03*
X105338000Y-87975000D03*
X89190000Y-91380000D03*
X110300000Y-95860000D03*
X109860000Y-88070000D03*
X111000000Y-97060000D03*
X106038000Y-87975000D03*
X95338000Y-87975000D03*
X111000000Y-95860000D03*
X110300000Y-92860000D03*
X89190000Y-92780000D03*
X96038000Y-87975000D03*
X111000000Y-95260000D03*
X99638000Y-87975000D03*
X89190000Y-94180000D03*
X89890000Y-88580000D03*
X99750000Y-105820000D03*
%TO.N,/ISNSU*%
X102250000Y-99979222D03*
X91672500Y-103550000D03*
%TO.N,/OP2O*%
X98750000Y-102700000D03*
X93610000Y-103270000D03*
%TO.N,/OP2N*%
X92800000Y-101530000D03*
X98200000Y-102430000D03*
%TO.N,/ISNSV*%
X94390000Y-103560000D03*
X102800000Y-100250000D03*
%TO.N,/BTN*%
X97420000Y-98030000D03*
X91350000Y-97427500D03*
%TO.N,Net-(IC1-PA5)*%
X104700000Y-101550000D03*
X99392500Y-85020000D03*
%TO.N,/SHUNT+AFTER*%
X103400000Y-96550000D03*
X103340000Y-85550000D03*
%TO.N,/LSU*%
X96450000Y-96380000D03*
X91480000Y-90457500D03*
%TO.N,/HSW*%
X102284266Y-97625734D03*
X108830000Y-90425000D03*
%TO.N,/LSW*%
X102650000Y-94030000D03*
X100286889Y-97324999D03*
%TO.N,/SPI2_CS*%
X97390000Y-99770000D03*
%TO.N,/OP2P*%
X97750000Y-102010000D03*
X92830000Y-100580000D03*
%TO.N,/SPI2_MOSI*%
X98780000Y-101870000D03*
%TO.N,/UART_TX*%
X102711830Y-102330000D03*
X111323885Y-100836500D03*
%TO.N,/SWCLK*%
X97419527Y-99152966D03*
X88800000Y-102000000D03*
%TO.N,Net-(D8-A)*%
X101664482Y-102724915D03*
X100000000Y-113500000D03*
%TO.N,/MGL*%
X102675141Y-100910002D03*
X98620000Y-97640000D03*
%TO.N,/UART_RX*%
X111323885Y-99586500D03*
X104670000Y-102460000D03*
%TO.N,/SWDIO*%
X97444761Y-98603543D03*
X88800000Y-100750000D03*
%TO.N,/SPI2_MISO*%
X97710000Y-100320000D03*
%TO.N,/MGH*%
X102301875Y-101963340D03*
%TO.N,Net-(IC2-SCLK)*%
X105505000Y-103550000D03*
X101200000Y-98000000D03*
%TO.N,/SHUNT+U*%
X90930000Y-98890000D03*
X98300000Y-86650000D03*
%TO.N,Net-(Q1-G2)*%
X91830000Y-87200000D03*
X93950000Y-86075000D03*
%TO.N,Net-(Q1-G1)*%
X93290000Y-89190000D03*
X98075000Y-92367500D03*
%TO.N,/SHUNT+V*%
X93570000Y-99782500D03*
X103250000Y-86710000D03*
%TO.N,Net-(Q2-G2)*%
X98567326Y-91927624D03*
X98950000Y-86075000D03*
%TO.N,Net-(Q2-G1)*%
X98270000Y-89260000D03*
X101270000Y-93680000D03*
%TO.N,/SHUNT+W*%
X108310000Y-97090000D03*
X108297464Y-86595515D03*
%TO.N,Net-(Q3-G2)*%
X103950000Y-86075000D03*
X101736608Y-91819688D03*
%TO.N,Net-(Q3-G1)*%
X103220000Y-89260000D03*
X108475000Y-89140000D03*
%TO.N,Net-(Q1-S2)*%
X95275000Y-86075000D03*
X94575000Y-86075000D03*
X95975000Y-86075000D03*
%TO.N,Net-(Q2-S2)*%
X99575000Y-86075000D03*
X100275000Y-86075000D03*
X100975000Y-86075000D03*
%TO.N,Net-(Q3-S2)*%
X105975000Y-86075000D03*
X105275000Y-86075000D03*
X104575000Y-86075000D03*
%TO.N,/SHUNT-W*%
X108320000Y-87120000D03*
X107280000Y-98320000D03*
%TO.N,/SHUNT-U*%
X90840000Y-102345000D03*
X98220000Y-87230000D03*
%TO.N,/SHUNT-V*%
X103260000Y-87270000D03*
X93580000Y-102367500D03*
%TD*%
D25*
%TO.N,+3.3V*%
X91994997Y-98530003D02*
X92240000Y-98530003D01*
X89850000Y-99881000D02*
X90644000Y-99881000D01*
X90644000Y-99881000D02*
X91994997Y-98530003D01*
X92240000Y-97980000D02*
X92240000Y-98530003D01*
X88800000Y-99500000D02*
X89469000Y-99500000D01*
X89469000Y-99500000D02*
X89850000Y-99881000D01*
D26*
%TO.N,/OP2O*%
X98150000Y-103300000D02*
X97600000Y-103300000D01*
X98750000Y-102700000D02*
X98150000Y-103300000D01*
D27*
%TO.N,/OP2N*%
X97530000Y-102430000D02*
X97400000Y-102300000D01*
X97400000Y-102300000D02*
X96600000Y-102300000D01*
X98200000Y-102430000D02*
X97530000Y-102430000D01*
D26*
%TO.N,/BTN*%
X88800000Y-97000000D02*
X90922500Y-97000000D01*
X90922500Y-97000000D02*
X91350000Y-97427500D01*
D28*
%TO.N,/SHUNT+AFTER*%
X100925000Y-84480000D02*
X98090000Y-84480000D01*
X98090000Y-84480000D02*
X97622500Y-84947500D01*
X104362500Y-84990000D02*
X104362500Y-84722500D01*
X101162500Y-84717500D02*
X101162500Y-85010000D01*
X104382500Y-85010000D02*
X104372500Y-85000000D01*
X97622500Y-84947500D02*
X97622500Y-85030000D01*
X101162500Y-84717500D02*
X100925000Y-84480000D01*
X104120000Y-84480000D02*
X101400000Y-84480000D01*
X103890000Y-85000000D02*
X103340000Y-85550000D01*
X101400000Y-84480000D02*
X101162500Y-84717500D01*
X104382500Y-85010000D02*
X104362500Y-84990000D01*
X104372500Y-85000000D02*
X103890000Y-85000000D01*
X104362500Y-84722500D02*
X104120000Y-84480000D01*
D26*
%TO.N,/SPI2_CS*%
X97888527Y-100751000D02*
X97889527Y-100750000D01*
X97279000Y-100141473D02*
X97279000Y-100498527D01*
X97279000Y-100498527D02*
X97531473Y-100751000D01*
X97390000Y-99770000D02*
X97390000Y-100030473D01*
X97889527Y-100750000D02*
X98500000Y-100750000D01*
X97531473Y-100751000D02*
X97888527Y-100751000D01*
X97390000Y-100030473D02*
X97279000Y-100141473D01*
D27*
%TO.N,/OP2P*%
X97710000Y-102010000D02*
X97100000Y-101400000D01*
X97750000Y-102010000D02*
X97710000Y-102010000D01*
X97100000Y-101400000D02*
X96600000Y-101400000D01*
D26*
%TO.N,/SPI2_MOSI*%
X98270000Y-101870000D02*
X97200000Y-100800000D01*
X99120000Y-101870000D02*
X99250000Y-101740000D01*
X98780000Y-101870000D02*
X98270000Y-101870000D01*
X99250000Y-101740000D02*
X99250000Y-101500000D01*
X98780000Y-101870000D02*
X99120000Y-101870000D01*
X97200000Y-100800000D02*
X96900000Y-100800000D01*
X96900000Y-100800000D02*
X96600000Y-100500000D01*
%TO.N,/UART_TX*%
X102746896Y-102294934D02*
X102746896Y-102376896D01*
%TO.N,/SWCLK*%
X97419527Y-99152966D02*
X97384657Y-99152966D01*
%TO.N,/MGL*%
X98682500Y-97070000D02*
X98682500Y-97577500D01*
X98682500Y-95917500D02*
X98700000Y-95900000D01*
X98682500Y-97577500D02*
X98620000Y-97640000D01*
X102675141Y-100910002D02*
X102749525Y-100910002D01*
X98682500Y-97070000D02*
X98682500Y-95917500D01*
%TO.N,/SPI2_MISO*%
X98070000Y-99750000D02*
X98500000Y-99750000D01*
X97869000Y-100161000D02*
X97869000Y-99951000D01*
X97869000Y-99951000D02*
X98070000Y-99750000D01*
X97710000Y-100320000D02*
X97869000Y-100161000D01*
%TO.N,/MGH*%
X102301875Y-101958125D02*
X102361000Y-101899000D01*
X103098500Y-101899000D02*
X103537500Y-101460000D01*
X103537500Y-101460000D02*
X103537500Y-100662500D01*
X103537500Y-100662500D02*
X103600000Y-100600000D01*
X102301875Y-101963340D02*
X102301875Y-101958125D01*
X102361000Y-101899000D02*
X103098500Y-101899000D01*
%TO.N,Net-(IC2-SCLK)*%
X100750000Y-98370000D02*
X100750000Y-98500000D01*
X101120000Y-98000000D02*
X100750000Y-98370000D01*
X101200000Y-98000000D02*
X101120000Y-98000000D01*
D28*
%TO.N,/SHUNT+U*%
X97230000Y-86900000D02*
X98050000Y-86900000D01*
X97170000Y-86840000D02*
X97230000Y-86900000D01*
X98437500Y-85240000D02*
X98437500Y-85030000D01*
X97170000Y-86500000D02*
X97170000Y-86840000D01*
X98300000Y-86650000D02*
X98337998Y-86687998D01*
X98300000Y-86650000D02*
X98455000Y-86495000D01*
X98455000Y-86495000D02*
X98455000Y-85257500D01*
X98455000Y-85257500D02*
X98437500Y-85240000D01*
X98050000Y-86900000D02*
X98300000Y-86650000D01*
%TO.N,/SHUNT+V*%
X103000000Y-86950000D02*
X102230000Y-86950000D01*
X102910000Y-85510000D02*
X102410000Y-85010000D01*
X102410000Y-85010000D02*
X101977500Y-85010000D01*
X103240000Y-86710000D02*
X103000000Y-86950000D01*
X102130000Y-86850000D02*
X102130000Y-86540000D01*
X102910000Y-85710000D02*
X102910000Y-85510000D01*
X103250000Y-86710000D02*
X103240000Y-86710000D01*
X102230000Y-86950000D02*
X102130000Y-86850000D01*
X103250000Y-86050000D02*
X102910000Y-85710000D01*
X103250000Y-86710000D02*
X103250000Y-86050000D01*
%TO.N,/SHUNT+W*%
X105207500Y-85000000D02*
X105197500Y-85010000D01*
X108254485Y-86595515D02*
X108297464Y-86595515D01*
X108297464Y-85727464D02*
X107570000Y-85000000D01*
X107570000Y-85000000D02*
X105207500Y-85000000D01*
X107910000Y-86940000D02*
X108254485Y-86595515D01*
X107180000Y-86830000D02*
X107290000Y-86940000D01*
X107290000Y-86940000D02*
X107910000Y-86940000D01*
X107180000Y-86510000D02*
X107180000Y-86830000D01*
X108297464Y-86595515D02*
X108297464Y-85727464D01*
D26*
%TO.N,Net-(IC2-MGH)*%
X102722500Y-101460000D02*
X102280000Y-101460000D01*
X101570000Y-100750000D02*
X101500000Y-100750000D01*
X102280000Y-101460000D02*
X101570000Y-100750000D01*
%TO.N,Net-(IC2-MGL)*%
X100250000Y-98500000D02*
X100250000Y-97970000D01*
X99497500Y-97217500D02*
X99497500Y-97070000D01*
X100250000Y-97970000D02*
X99497500Y-97217500D01*
D28*
%TO.N,/SHUNT-W*%
X107240000Y-87180000D02*
X108260000Y-87180000D01*
X108260000Y-87180000D02*
X108320000Y-87120000D01*
X107180000Y-87610000D02*
X107180000Y-87240000D01*
X107180000Y-87240000D02*
X107240000Y-87180000D01*
%TO.N,/SHUNT-U*%
X98220000Y-87230000D02*
X98170000Y-87180000D01*
X97240000Y-87180000D02*
X97170000Y-87250000D01*
X98170000Y-87180000D02*
X97240000Y-87180000D01*
X97170000Y-87250000D02*
X97170000Y-87600000D01*
%TO.N,/SHUNT-V*%
X102130000Y-87280000D02*
X102190000Y-87220000D01*
X102130000Y-87640000D02*
X102130000Y-87280000D01*
X103210000Y-87220000D02*
X103260000Y-87270000D01*
X102190000Y-87220000D02*
X103210000Y-87220000D01*
%TD*%
%TA.AperFunction,Conductor*%
%TO.N,GND*%
G36*
X109390309Y-85812097D02*
G01*
X109884986Y-86152993D01*
X109986238Y-86222768D01*
X109990070Y-86225546D01*
X110406268Y-86542789D01*
X110634475Y-86716738D01*
X110638176Y-86719702D01*
X111258316Y-87241183D01*
X111261851Y-87244303D01*
X111695414Y-87645859D01*
X111856301Y-87794869D01*
X111859701Y-87798172D01*
X111939726Y-87879748D01*
X112427126Y-88376591D01*
X112430364Y-88380055D01*
X112969398Y-88984929D01*
X112972467Y-88988543D01*
X113481969Y-89618594D01*
X113484857Y-89622345D01*
X113959464Y-90270413D01*
X113963578Y-90276031D01*
X113966284Y-90279917D01*
X113986980Y-90311219D01*
X114413164Y-90955788D01*
X114415684Y-90959805D01*
X114829694Y-91656305D01*
X114832018Y-91660438D01*
X115212191Y-92375937D01*
X115214315Y-92380176D01*
X115559795Y-93113066D01*
X115561714Y-93117402D01*
X115871716Y-93866020D01*
X115873424Y-93870443D01*
X116147214Y-94633014D01*
X116148709Y-94637514D01*
X116385674Y-95412325D01*
X116386952Y-95416891D01*
X116586547Y-96202168D01*
X116587605Y-96206791D01*
X116749371Y-97000726D01*
X116750206Y-97005393D01*
X116873770Y-97806151D01*
X116874381Y-97810854D01*
X116959461Y-98616622D01*
X116959846Y-98621347D01*
X117006248Y-99430266D01*
X117006406Y-99435005D01*
X117014022Y-100245210D01*
X117013953Y-100249952D01*
X116982766Y-101059596D01*
X116982470Y-101064328D01*
X116912552Y-101871543D01*
X116912030Y-101876256D01*
X116803537Y-102679224D01*
X116802789Y-102683906D01*
X116655982Y-103480706D01*
X116655012Y-103485348D01*
X116470209Y-104274259D01*
X116469017Y-104278848D01*
X116246661Y-105057973D01*
X116245251Y-105062500D01*
X115985842Y-105830086D01*
X115984217Y-105834541D01*
X115688343Y-106588852D01*
X115686506Y-106593223D01*
X115354866Y-107332472D01*
X115352822Y-107336751D01*
X114986164Y-108059276D01*
X114983918Y-108063452D01*
X114583071Y-108767616D01*
X114580627Y-108771679D01*
X114146536Y-109455823D01*
X114143900Y-109459765D01*
X113677552Y-110122334D01*
X113674731Y-110126145D01*
X113177174Y-110765648D01*
X113174173Y-110769319D01*
X112646600Y-111384223D01*
X112643428Y-111387747D01*
X112086985Y-111976721D01*
X112083647Y-111980089D01*
X111499643Y-112541741D01*
X111496147Y-112544945D01*
X110885944Y-113077969D01*
X110882300Y-113081002D01*
X110247249Y-113584217D01*
X110243463Y-113587072D01*
X109585054Y-114059297D01*
X109581136Y-114061967D01*
X108900876Y-114502120D01*
X108896834Y-114504600D01*
X108196267Y-114911683D01*
X108192111Y-114913966D01*
X107472880Y-115287025D01*
X107468620Y-115289107D01*
X106732340Y-115627304D01*
X106727985Y-115629180D01*
X105976346Y-115931741D01*
X105971906Y-115933406D01*
X105206641Y-116199628D01*
X105202127Y-116201078D01*
X104424991Y-116430354D01*
X104420412Y-116431586D01*
X103633214Y-116623382D01*
X103628582Y-116624394D01*
X102833082Y-116778281D01*
X102828406Y-116779070D01*
X102026452Y-116894690D01*
X102021744Y-116895254D01*
X101215177Y-116972343D01*
X101210447Y-116972681D01*
X100401111Y-117011060D01*
X100396371Y-117011171D01*
X99586130Y-117010755D01*
X99581390Y-117010639D01*
X98772091Y-116971426D01*
X98767362Y-116971083D01*
X97960877Y-116893165D01*
X97956169Y-116892596D01*
X97154352Y-116776154D01*
X97149677Y-116775361D01*
X96354317Y-116620652D01*
X96349686Y-116619635D01*
X95562684Y-116427030D01*
X95558106Y-116425793D01*
X94781202Y-116195717D01*
X94776699Y-116194265D01*
X94423313Y-116070920D01*
X94011723Y-115927260D01*
X94007285Y-115925591D01*
X93255950Y-115622256D01*
X93251597Y-115620376D01*
X92515665Y-115281420D01*
X92511407Y-115279334D01*
X91792534Y-114905523D01*
X91788381Y-114903235D01*
X91088244Y-114495437D01*
X91084210Y-114492956D01*
X90404390Y-114052094D01*
X90400475Y-114049419D01*
X89742577Y-113576537D01*
X89738794Y-113573679D01*
X89579608Y-113447273D01*
X99599500Y-113447273D01*
X99599500Y-113552727D01*
X99608703Y-113587072D01*
X99626794Y-113654589D01*
X99626794Y-113654590D01*
X99679518Y-113745910D01*
X99679520Y-113745913D01*
X99754087Y-113820480D01*
X99845413Y-113873207D01*
X99947273Y-113900500D01*
X99947275Y-113900500D01*
X100052725Y-113900500D01*
X100052727Y-113900500D01*
X100154587Y-113873207D01*
X100245913Y-113820480D01*
X100320480Y-113745913D01*
X100373207Y-113654587D01*
X100400500Y-113552727D01*
X100400500Y-113447273D01*
X100373207Y-113345413D01*
X100320480Y-113254087D01*
X100245913Y-113179520D01*
X100154587Y-113126793D01*
X100052727Y-113099500D01*
X99947273Y-113099500D01*
X99845413Y-113126793D01*
X99845412Y-113126793D01*
X99845410Y-113126794D01*
X99845409Y-113126794D01*
X99754089Y-113179518D01*
X99679518Y-113254089D01*
X99626794Y-113345409D01*
X99626794Y-113345410D01*
X99626793Y-113345412D01*
X99626793Y-113345413D01*
X99599500Y-113447273D01*
X89579608Y-113447273D01*
X89104248Y-113069801D01*
X89100628Y-113066782D01*
X88684555Y-112702580D01*
X88490942Y-112533103D01*
X88487450Y-112529895D01*
X87904046Y-111967663D01*
X87900711Y-111964292D01*
X87357131Y-111387747D01*
X87344863Y-111374734D01*
X87341717Y-111371233D01*
X86814747Y-110755751D01*
X86811751Y-110752076D01*
X86314860Y-110112073D01*
X86312042Y-110108259D01*
X85846372Y-109445205D01*
X85843741Y-109441261D01*
X85607911Y-109068738D01*
X85578496Y-109022273D01*
X102649500Y-109022273D01*
X102649500Y-109127727D01*
X102676793Y-109229587D01*
X102676794Y-109229589D01*
X102676794Y-109229590D01*
X102729518Y-109320910D01*
X102729520Y-109320913D01*
X102763605Y-109354998D01*
X102791381Y-109409513D01*
X102781810Y-109469945D01*
X102763606Y-109495000D01*
X102729520Y-109529087D01*
X102729518Y-109529089D01*
X102676794Y-109620409D01*
X102676794Y-109620410D01*
X102676793Y-109620412D01*
X102676793Y-109620413D01*
X102649500Y-109722273D01*
X102649500Y-109827727D01*
X102676793Y-109929587D01*
X102676794Y-109929589D01*
X102676794Y-109929590D01*
X102729518Y-110020910D01*
X102729520Y-110020913D01*
X102763605Y-110054998D01*
X102791381Y-110109513D01*
X102781810Y-110169945D01*
X102763606Y-110195000D01*
X102729520Y-110229087D01*
X102729518Y-110229089D01*
X102676794Y-110320409D01*
X102676794Y-110320410D01*
X102676793Y-110320412D01*
X102676793Y-110320413D01*
X102649500Y-110422273D01*
X102649500Y-110527727D01*
X102676793Y-110629587D01*
X102676794Y-110629589D01*
X102676794Y-110629590D01*
X102729518Y-110720910D01*
X102729520Y-110720913D01*
X102804087Y-110795480D01*
X102895413Y-110848207D01*
X102997273Y-110875500D01*
X102997275Y-110875500D01*
X103102725Y-110875500D01*
X103102727Y-110875500D01*
X103204587Y-110848207D01*
X103295913Y-110795480D01*
X103329998Y-110761394D01*
X103384513Y-110733619D01*
X103444945Y-110743190D01*
X103470000Y-110761393D01*
X103504087Y-110795480D01*
X103595413Y-110848207D01*
X103697273Y-110875500D01*
X103697275Y-110875500D01*
X103802725Y-110875500D01*
X103802727Y-110875500D01*
X103904587Y-110848207D01*
X103995913Y-110795480D01*
X104070480Y-110720913D01*
X104123207Y-110629587D01*
X104150500Y-110527727D01*
X104150500Y-110422273D01*
X104123207Y-110320413D01*
X104070480Y-110229087D01*
X104036394Y-110195001D01*
X104008619Y-110140487D01*
X104018190Y-110080055D01*
X104036393Y-110054999D01*
X104070480Y-110020913D01*
X104123207Y-109929587D01*
X104150500Y-109827727D01*
X104150500Y-109722273D01*
X104123207Y-109620413D01*
X104070480Y-109529087D01*
X104036394Y-109495001D01*
X104008619Y-109440487D01*
X104018190Y-109380055D01*
X104036393Y-109354999D01*
X104070480Y-109320913D01*
X104123207Y-109229587D01*
X104150500Y-109127727D01*
X104150500Y-109022273D01*
X104123207Y-108920413D01*
X104070480Y-108829087D01*
X103995913Y-108754520D01*
X103904587Y-108701793D01*
X103802727Y-108674500D01*
X103697273Y-108674500D01*
X103595413Y-108701793D01*
X103595412Y-108701793D01*
X103595410Y-108701794D01*
X103595409Y-108701794D01*
X103504089Y-108754518D01*
X103504087Y-108754519D01*
X103504087Y-108754520D01*
X103470001Y-108788605D01*
X103415487Y-108816381D01*
X103355055Y-108806810D01*
X103329999Y-108788606D01*
X103295913Y-108754520D01*
X103204587Y-108701793D01*
X103102727Y-108674500D01*
X102997273Y-108674500D01*
X102895413Y-108701793D01*
X102895412Y-108701793D01*
X102895410Y-108701794D01*
X102895409Y-108701794D01*
X102804089Y-108754518D01*
X102729518Y-108829089D01*
X102676794Y-108920409D01*
X102676794Y-108920410D01*
X102676793Y-108920412D01*
X102676793Y-108920413D01*
X102649500Y-109022273D01*
X85578496Y-109022273D01*
X85410356Y-108756676D01*
X85407916Y-108752610D01*
X85007799Y-108048044D01*
X85005557Y-108043866D01*
X84814913Y-107667229D01*
X84639641Y-107320960D01*
X84637603Y-107316683D01*
X84594564Y-107220481D01*
X84306714Y-106577071D01*
X84304884Y-106572703D01*
X84297071Y-106552725D01*
X84070987Y-105974590D01*
X84009788Y-105818094D01*
X84008168Y-105813640D01*
X83992551Y-105767273D01*
X99349500Y-105767273D01*
X99349500Y-105872727D01*
X99363026Y-105923207D01*
X99376794Y-105974589D01*
X99376794Y-105974590D01*
X99429518Y-106065910D01*
X99429520Y-106065913D01*
X99453605Y-106089998D01*
X99481381Y-106144513D01*
X99471810Y-106204945D01*
X99453606Y-106230000D01*
X99429520Y-106254087D01*
X99429518Y-106254089D01*
X99376794Y-106345409D01*
X99376794Y-106345410D01*
X99376793Y-106345412D01*
X99376793Y-106345413D01*
X99349500Y-106447273D01*
X99349500Y-106552727D01*
X99359180Y-106588852D01*
X99376794Y-106654589D01*
X99376794Y-106654590D01*
X99429231Y-106745413D01*
X99429520Y-106745913D01*
X99504087Y-106820480D01*
X99595413Y-106873207D01*
X99697273Y-106900500D01*
X99697275Y-106900500D01*
X99802725Y-106900500D01*
X99802727Y-106900500D01*
X99904587Y-106873207D01*
X99949506Y-106847273D01*
X102499500Y-106847273D01*
X102499500Y-106952727D01*
X102526793Y-107054587D01*
X102526794Y-107054589D01*
X102526794Y-107054590D01*
X102579518Y-107145910D01*
X102579520Y-107145913D01*
X102654087Y-107220480D01*
X102745413Y-107273207D01*
X102847273Y-107300500D01*
X102847275Y-107300500D01*
X102952725Y-107300500D01*
X102952727Y-107300500D01*
X103054587Y-107273207D01*
X103145913Y-107220480D01*
X103179998Y-107186394D01*
X103234513Y-107158619D01*
X103294945Y-107168190D01*
X103320000Y-107186393D01*
X103354087Y-107220480D01*
X103445413Y-107273207D01*
X103547273Y-107300500D01*
X103547275Y-107300500D01*
X103652725Y-107300500D01*
X103652727Y-107300500D01*
X103754587Y-107273207D01*
X103845913Y-107220480D01*
X103920480Y-107145913D01*
X103973207Y-107054587D01*
X104000500Y-106952727D01*
X104000500Y-106847273D01*
X103973207Y-106745413D01*
X103920480Y-106654087D01*
X103845913Y-106579520D01*
X103754587Y-106526793D01*
X103652727Y-106499500D01*
X103547273Y-106499500D01*
X103445413Y-106526793D01*
X103445412Y-106526793D01*
X103445410Y-106526794D01*
X103445409Y-106526794D01*
X103354089Y-106579518D01*
X103354087Y-106579519D01*
X103354087Y-106579520D01*
X103320001Y-106613605D01*
X103265487Y-106641381D01*
X103205055Y-106631810D01*
X103179999Y-106613606D01*
X103145913Y-106579520D01*
X103054587Y-106526793D01*
X102952727Y-106499500D01*
X102847273Y-106499500D01*
X102745413Y-106526793D01*
X102745412Y-106526793D01*
X102745410Y-106526794D01*
X102745409Y-106526794D01*
X102654089Y-106579518D01*
X102579518Y-106654089D01*
X102526794Y-106745409D01*
X102526794Y-106745410D01*
X102526793Y-106745412D01*
X102526793Y-106745413D01*
X102499500Y-106847273D01*
X99949506Y-106847273D01*
X99995913Y-106820480D01*
X100070480Y-106745913D01*
X100123207Y-106654587D01*
X100150500Y-106552727D01*
X100150500Y-106447273D01*
X100123207Y-106345413D01*
X100070480Y-106254087D01*
X100046394Y-106230001D01*
X100018619Y-106175487D01*
X100028190Y-106115055D01*
X100046393Y-106089999D01*
X100070480Y-106065913D01*
X100123207Y-105974587D01*
X100150500Y-105872727D01*
X100150500Y-105767273D01*
X100123207Y-105665413D01*
X100070480Y-105574087D01*
X99995913Y-105499520D01*
X99992021Y-105497273D01*
X101499500Y-105497273D01*
X101499500Y-105602727D01*
X101526793Y-105704587D01*
X101526794Y-105704589D01*
X101526794Y-105704590D01*
X101579518Y-105795910D01*
X101579520Y-105795913D01*
X101654087Y-105870480D01*
X101745413Y-105923207D01*
X101847273Y-105950500D01*
X101847275Y-105950500D01*
X101952725Y-105950500D01*
X101952727Y-105950500D01*
X102054587Y-105923207D01*
X102145913Y-105870480D01*
X102220480Y-105795913D01*
X102273207Y-105704587D01*
X102300500Y-105602727D01*
X102300500Y-105497273D01*
X102273207Y-105395413D01*
X102220480Y-105304087D01*
X102145913Y-105229520D01*
X102054587Y-105176793D01*
X101952727Y-105149500D01*
X101847273Y-105149500D01*
X101745413Y-105176793D01*
X101745412Y-105176793D01*
X101745410Y-105176794D01*
X101745409Y-105176794D01*
X101654089Y-105229518D01*
X101579518Y-105304089D01*
X101526794Y-105395409D01*
X101526794Y-105395410D01*
X101526793Y-105395412D01*
X101526793Y-105395413D01*
X101499500Y-105497273D01*
X99992021Y-105497273D01*
X99904589Y-105446794D01*
X99904588Y-105446793D01*
X99904587Y-105446793D01*
X99802727Y-105419500D01*
X99697273Y-105419500D01*
X99595413Y-105446793D01*
X99595412Y-105446793D01*
X99595410Y-105446794D01*
X99595409Y-105446794D01*
X99504089Y-105499518D01*
X99429518Y-105574089D01*
X99376794Y-105665409D01*
X99376794Y-105665410D01*
X99376793Y-105665412D01*
X99376793Y-105665413D01*
X99349500Y-105767273D01*
X83992551Y-105767273D01*
X83749547Y-105045778D01*
X83748153Y-105041289D01*
X83579286Y-104447273D01*
X97879500Y-104447273D01*
X97879500Y-104552727D01*
X97885897Y-104576600D01*
X97906794Y-104654589D01*
X97906794Y-104654590D01*
X97959518Y-104745910D01*
X97959520Y-104745913D01*
X97968605Y-104754998D01*
X97996381Y-104809513D01*
X97986810Y-104869945D01*
X97968606Y-104895000D01*
X97963107Y-104900500D01*
X97959518Y-104904089D01*
X97906794Y-104995409D01*
X97906794Y-104995410D01*
X97906793Y-104995412D01*
X97906793Y-104995413D01*
X97879500Y-105097273D01*
X97879500Y-105202727D01*
X97906659Y-105304087D01*
X97906794Y-105304589D01*
X97906794Y-105304590D01*
X97959231Y-105395413D01*
X97959520Y-105395913D01*
X98034087Y-105470480D01*
X98125413Y-105523207D01*
X98227273Y-105550500D01*
X98227275Y-105550500D01*
X98332725Y-105550500D01*
X98332727Y-105550500D01*
X98434587Y-105523207D01*
X98525913Y-105470480D01*
X98600480Y-105395913D01*
X98653207Y-105304587D01*
X98680500Y-105202727D01*
X98680500Y-105097273D01*
X98655950Y-105005650D01*
X98659153Y-104944552D01*
X98697658Y-104897002D01*
X98756758Y-104881166D01*
X98777193Y-104884402D01*
X98837273Y-104900500D01*
X98837275Y-104900500D01*
X98942725Y-104900500D01*
X98942727Y-104900500D01*
X99044587Y-104873207D01*
X99135913Y-104820480D01*
X99210480Y-104745913D01*
X99263207Y-104654587D01*
X99290500Y-104552727D01*
X99290500Y-104447273D01*
X99263207Y-104345413D01*
X99210480Y-104254087D01*
X99135913Y-104179520D01*
X99044587Y-104126793D01*
X98942727Y-104099500D01*
X98837273Y-104099500D01*
X98735413Y-104126793D01*
X98735412Y-104126793D01*
X98735410Y-104126794D01*
X98735409Y-104126794D01*
X98638468Y-104182764D01*
X98637634Y-104181319D01*
X98587580Y-104199038D01*
X98531697Y-104182478D01*
X98531532Y-104182764D01*
X98530340Y-104182076D01*
X98528916Y-104181654D01*
X98526234Y-104179705D01*
X98434589Y-104126794D01*
X98434588Y-104126793D01*
X98434587Y-104126793D01*
X98332727Y-104099500D01*
X98227273Y-104099500D01*
X98125413Y-104126793D01*
X98125412Y-104126793D01*
X98125410Y-104126794D01*
X98125409Y-104126794D01*
X98034089Y-104179518D01*
X97959518Y-104254089D01*
X97906794Y-104345409D01*
X97906794Y-104345410D01*
X97906793Y-104345412D01*
X97906793Y-104345413D01*
X97879500Y-104447273D01*
X83579286Y-104447273D01*
X83526587Y-104261897D01*
X83525400Y-104257306D01*
X83449831Y-103933207D01*
X83341410Y-103468213D01*
X83340453Y-103463615D01*
X83242751Y-102930253D01*
X87749500Y-102930253D01*
X87749500Y-103569746D01*
X87749501Y-103569758D01*
X87761132Y-103628227D01*
X87761134Y-103628233D01*
X87805445Y-103694548D01*
X87805448Y-103694552D01*
X87871769Y-103738867D01*
X87916231Y-103747711D01*
X87930241Y-103750498D01*
X87930246Y-103750498D01*
X87930252Y-103750500D01*
X87930253Y-103750500D01*
X89669747Y-103750500D01*
X89669748Y-103750500D01*
X89728231Y-103738867D01*
X89794552Y-103694552D01*
X89838867Y-103628231D01*
X89850500Y-103569748D01*
X89850500Y-103497273D01*
X91272000Y-103497273D01*
X91272000Y-103602727D01*
X91296605Y-103694554D01*
X91299294Y-103704589D01*
X91299294Y-103704590D01*
X91329113Y-103756237D01*
X91352020Y-103795913D01*
X91426587Y-103870480D01*
X91517913Y-103923207D01*
X91619773Y-103950500D01*
X91619775Y-103950500D01*
X91725225Y-103950500D01*
X91725227Y-103950500D01*
X91827087Y-103923207D01*
X91918413Y-103870480D01*
X91992980Y-103795913D01*
X92045707Y-103704587D01*
X92073000Y-103602727D01*
X92073000Y-103497273D01*
X92045707Y-103395413D01*
X91992980Y-103304087D01*
X91918413Y-103229520D01*
X91897202Y-103217274D01*
X91827089Y-103176794D01*
X91827088Y-103176793D01*
X91827087Y-103176793D01*
X91725227Y-103149500D01*
X91619773Y-103149500D01*
X91517913Y-103176793D01*
X91517912Y-103176793D01*
X91517910Y-103176794D01*
X91517909Y-103176794D01*
X91426589Y-103229518D01*
X91352018Y-103304089D01*
X91299294Y-103395409D01*
X91299294Y-103395410D01*
X91299293Y-103395412D01*
X91299293Y-103395413D01*
X91272000Y-103497273D01*
X89850500Y-103497273D01*
X89850500Y-102930252D01*
X89838867Y-102871769D01*
X89794552Y-102805448D01*
X89794548Y-102805445D01*
X89728233Y-102761134D01*
X89728231Y-102761133D01*
X89728228Y-102761132D01*
X89728227Y-102761132D01*
X89669758Y-102749501D01*
X89669748Y-102749500D01*
X87930252Y-102749500D01*
X87930251Y-102749500D01*
X87930241Y-102749501D01*
X87871772Y-102761132D01*
X87871766Y-102761134D01*
X87805451Y-102805445D01*
X87805445Y-102805451D01*
X87761134Y-102871766D01*
X87761132Y-102871772D01*
X87749501Y-102930241D01*
X87749500Y-102930253D01*
X83242751Y-102930253D01*
X83194449Y-102666569D01*
X83193716Y-102661945D01*
X83086047Y-101858848D01*
X83085532Y-101854146D01*
X83070650Y-101680253D01*
X87749500Y-101680253D01*
X87749500Y-102319746D01*
X87749501Y-102319758D01*
X87761132Y-102378227D01*
X87761134Y-102378233D01*
X87805445Y-102444548D01*
X87805448Y-102444552D01*
X87871769Y-102488867D01*
X87916231Y-102497711D01*
X87930241Y-102500498D01*
X87930246Y-102500498D01*
X87930252Y-102500500D01*
X87930253Y-102500500D01*
X89669747Y-102500500D01*
X89669748Y-102500500D01*
X89728231Y-102488867D01*
X89794552Y-102444552D01*
X89838867Y-102378231D01*
X89850500Y-102319748D01*
X89850500Y-102292273D01*
X90439500Y-102292273D01*
X90439500Y-102397727D01*
X90463921Y-102488867D01*
X90466794Y-102499589D01*
X90466794Y-102499590D01*
X90519518Y-102590910D01*
X90519520Y-102590913D01*
X90594087Y-102665480D01*
X90685413Y-102718207D01*
X90787273Y-102745500D01*
X90787275Y-102745500D01*
X90892725Y-102745500D01*
X90892727Y-102745500D01*
X90994587Y-102718207D01*
X91085913Y-102665480D01*
X91160480Y-102590913D01*
X91213207Y-102499587D01*
X91240500Y-102397727D01*
X91240500Y-102314773D01*
X93179500Y-102314773D01*
X93179500Y-102420227D01*
X93204285Y-102512727D01*
X93206794Y-102522089D01*
X93206794Y-102522090D01*
X93254420Y-102604580D01*
X93259520Y-102613413D01*
X93334087Y-102687980D01*
X93334089Y-102687981D01*
X93427087Y-102741674D01*
X93468028Y-102787143D01*
X93474424Y-102847993D01*
X93443831Y-102900981D01*
X93427088Y-102913146D01*
X93364088Y-102949519D01*
X93289518Y-103024089D01*
X93236794Y-103115409D01*
X93236794Y-103115410D01*
X93236793Y-103115412D01*
X93236793Y-103115413D01*
X93209500Y-103217273D01*
X93209500Y-103322727D01*
X93236793Y-103424587D01*
X93236794Y-103424589D01*
X93236794Y-103424590D01*
X93284532Y-103507274D01*
X93289520Y-103515913D01*
X93364087Y-103590480D01*
X93455413Y-103643207D01*
X93557273Y-103670500D01*
X93557275Y-103670500D01*
X93662725Y-103670500D01*
X93662727Y-103670500D01*
X93764587Y-103643207D01*
X93854708Y-103591175D01*
X93914553Y-103578454D01*
X93970449Y-103603340D01*
X93999832Y-103651287D01*
X94014114Y-103704590D01*
X94016794Y-103714589D01*
X94016794Y-103714590D01*
X94069518Y-103805910D01*
X94069520Y-103805913D01*
X94144087Y-103880480D01*
X94235413Y-103933207D01*
X94337273Y-103960500D01*
X94337275Y-103960500D01*
X94442725Y-103960500D01*
X94442727Y-103960500D01*
X94544587Y-103933207D01*
X94635913Y-103880480D01*
X94710480Y-103805913D01*
X94763207Y-103714587D01*
X94790500Y-103612727D01*
X94790500Y-103507273D01*
X94763207Y-103405413D01*
X94710480Y-103314087D01*
X94635913Y-103239520D01*
X94634707Y-103238824D01*
X94544589Y-103186794D01*
X94544588Y-103186793D01*
X94544587Y-103186793D01*
X94442727Y-103159500D01*
X94337273Y-103159500D01*
X94235413Y-103186793D01*
X94182619Y-103217274D01*
X94145293Y-103238824D01*
X94085444Y-103251545D01*
X94029549Y-103226658D01*
X94000167Y-103178711D01*
X93983207Y-103115413D01*
X93930480Y-103024087D01*
X93855913Y-102949520D01*
X93855910Y-102949518D01*
X93762912Y-102895825D01*
X93721971Y-102850355D01*
X93715575Y-102789505D01*
X93746168Y-102736517D01*
X93762906Y-102724356D01*
X93825913Y-102687980D01*
X93900480Y-102613413D01*
X93953207Y-102522087D01*
X93980500Y-102420227D01*
X93980500Y-102314773D01*
X93953207Y-102212913D01*
X93940255Y-102190480D01*
X93900481Y-102121589D01*
X93900480Y-102121587D01*
X93825913Y-102047020D01*
X93786938Y-102024518D01*
X93734589Y-101994294D01*
X93734588Y-101994293D01*
X93734587Y-101994293D01*
X93632727Y-101967000D01*
X93527273Y-101967000D01*
X93425413Y-101994293D01*
X93425412Y-101994293D01*
X93425410Y-101994294D01*
X93425409Y-101994294D01*
X93334089Y-102047018D01*
X93259518Y-102121589D01*
X93206794Y-102212909D01*
X93206794Y-102212910D01*
X93206793Y-102212912D01*
X93206793Y-102212913D01*
X93179500Y-102314773D01*
X91240500Y-102314773D01*
X91240500Y-102292273D01*
X91213207Y-102190413D01*
X91206906Y-102179500D01*
X91178055Y-102129529D01*
X91160480Y-102099087D01*
X91085913Y-102024520D01*
X91078948Y-102020499D01*
X90994589Y-101971794D01*
X90994588Y-101971793D01*
X90994587Y-101971793D01*
X90892727Y-101944500D01*
X90787273Y-101944500D01*
X90685413Y-101971793D01*
X90685412Y-101971793D01*
X90685410Y-101971794D01*
X90685409Y-101971794D01*
X90594089Y-102024518D01*
X90519518Y-102099089D01*
X90466794Y-102190409D01*
X90466794Y-102190410D01*
X90466793Y-102190412D01*
X90466793Y-102190413D01*
X90439500Y-102292273D01*
X89850500Y-102292273D01*
X89850500Y-101680252D01*
X89838867Y-101621769D01*
X89794552Y-101555448D01*
X89791034Y-101553097D01*
X89728233Y-101511134D01*
X89728231Y-101511133D01*
X89728228Y-101511132D01*
X89728227Y-101511132D01*
X89669758Y-101499501D01*
X89669748Y-101499500D01*
X87930252Y-101499500D01*
X87930251Y-101499500D01*
X87930241Y-101499501D01*
X87871772Y-101511132D01*
X87871766Y-101511134D01*
X87805451Y-101555445D01*
X87805445Y-101555451D01*
X87761134Y-101621766D01*
X87761132Y-101621772D01*
X87749501Y-101680241D01*
X87749500Y-101680253D01*
X83070650Y-101680253D01*
X83053279Y-101477273D01*
X92399500Y-101477273D01*
X92399500Y-101582727D01*
X92426793Y-101684587D01*
X92426794Y-101684589D01*
X92426794Y-101684590D01*
X92479518Y-101775910D01*
X92479520Y-101775913D01*
X92554087Y-101850480D01*
X92645413Y-101903207D01*
X92747273Y-101930500D01*
X92747275Y-101930500D01*
X92852725Y-101930500D01*
X92852727Y-101930500D01*
X92954587Y-101903207D01*
X93045913Y-101850480D01*
X93120480Y-101775913D01*
X93173207Y-101684587D01*
X93200500Y-101582727D01*
X93200500Y-101477273D01*
X93173207Y-101375413D01*
X93170370Y-101370500D01*
X93120481Y-101284089D01*
X93120480Y-101284087D01*
X93045913Y-101209520D01*
X93028558Y-101199500D01*
X92954590Y-101156794D01*
X92954583Y-101156791D01*
X92946572Y-101154645D01*
X92895258Y-101121321D01*
X92873332Y-101064199D01*
X92889168Y-101005099D01*
X92936718Y-100966594D01*
X92946566Y-100963394D01*
X92984587Y-100953207D01*
X93075913Y-100900480D01*
X93150480Y-100825913D01*
X93203207Y-100734587D01*
X93230500Y-100632727D01*
X93230500Y-100527273D01*
X93203773Y-100427525D01*
X96049500Y-100427525D01*
X96049500Y-100572474D01*
X96087017Y-100712489D01*
X96159487Y-100838010D01*
X96159489Y-100838012D01*
X96159491Y-100838015D01*
X96201474Y-100879998D01*
X96229250Y-100934513D01*
X96219679Y-100994945D01*
X96201475Y-101020000D01*
X96179331Y-101042145D01*
X96159488Y-101061988D01*
X96159487Y-101061989D01*
X96087017Y-101187510D01*
X96061952Y-101281054D01*
X96049500Y-101327525D01*
X96049500Y-101472475D01*
X96059859Y-101511134D01*
X96087017Y-101612489D01*
X96159487Y-101738010D01*
X96159489Y-101738012D01*
X96159491Y-101738015D01*
X96201474Y-101779998D01*
X96229250Y-101834513D01*
X96219679Y-101894945D01*
X96201475Y-101920000D01*
X96176976Y-101944500D01*
X96159488Y-101961988D01*
X96159487Y-101961989D01*
X96087017Y-102087510D01*
X96062368Y-102179500D01*
X96049500Y-102227525D01*
X96049500Y-102372475D01*
X96062295Y-102420225D01*
X96087017Y-102512489D01*
X96159487Y-102638010D01*
X96159489Y-102638012D01*
X96159491Y-102638015D01*
X96261985Y-102740509D01*
X96261987Y-102740510D01*
X96261989Y-102740512D01*
X96387511Y-102812982D01*
X96387512Y-102812982D01*
X96387515Y-102812984D01*
X96527525Y-102850500D01*
X96527526Y-102850500D01*
X96672474Y-102850500D01*
X96672475Y-102850500D01*
X96812485Y-102812984D01*
X96812487Y-102812982D01*
X96812489Y-102812982D01*
X96938010Y-102740512D01*
X96938010Y-102740511D01*
X96938015Y-102740509D01*
X97040509Y-102638015D01*
X97040510Y-102638012D01*
X97045097Y-102633426D01*
X97046290Y-102634619D01*
X97051449Y-102631072D01*
X97059925Y-102619407D01*
X97076033Y-102614173D01*
X97089989Y-102604580D01*
X97118116Y-102600500D01*
X97234521Y-102600500D01*
X97292712Y-102619407D01*
X97304524Y-102629496D01*
X97343534Y-102668505D01*
X97371312Y-102723021D01*
X97361741Y-102783453D01*
X97323031Y-102824245D01*
X97261989Y-102859487D01*
X97159487Y-102961989D01*
X97087017Y-103087510D01*
X97075767Y-103129496D01*
X97049500Y-103227525D01*
X97049500Y-103372475D01*
X97058325Y-103405409D01*
X97087017Y-103512489D01*
X97159487Y-103638010D01*
X97159489Y-103638012D01*
X97159491Y-103638015D01*
X97261985Y-103740509D01*
X97261987Y-103740510D01*
X97261989Y-103740512D01*
X97387511Y-103812982D01*
X97387512Y-103812982D01*
X97387515Y-103812984D01*
X97527525Y-103850500D01*
X97527526Y-103850500D01*
X97672474Y-103850500D01*
X97672475Y-103850500D01*
X97812485Y-103812984D01*
X97812487Y-103812982D01*
X97812489Y-103812982D01*
X97938010Y-103740512D01*
X97938010Y-103740511D01*
X97938015Y-103740509D01*
X98040509Y-103638015D01*
X98045138Y-103629998D01*
X98090608Y-103589058D01*
X98130873Y-103580500D01*
X98186930Y-103580500D01*
X98186930Y-103580499D01*
X98258265Y-103561385D01*
X98258266Y-103561385D01*
X98258266Y-103561384D01*
X98258269Y-103561384D01*
X98322231Y-103524456D01*
X98349414Y-103497273D01*
X105104500Y-103497273D01*
X105104500Y-103602727D01*
X105129105Y-103694554D01*
X105131794Y-103704589D01*
X105131794Y-103704590D01*
X105161613Y-103756237D01*
X105184520Y-103795913D01*
X105259087Y-103870480D01*
X105350413Y-103923207D01*
X105452273Y-103950500D01*
X105452275Y-103950500D01*
X105557725Y-103950500D01*
X105557727Y-103950500D01*
X105659587Y-103923207D01*
X105750913Y-103870480D01*
X105825480Y-103795913D01*
X105878207Y-103704587D01*
X105905500Y-103602727D01*
X105905500Y-103497273D01*
X107349500Y-103497273D01*
X107349500Y-103602727D01*
X107374105Y-103694554D01*
X107376794Y-103704589D01*
X107376794Y-103704590D01*
X107406613Y-103756237D01*
X107429520Y-103795913D01*
X107504087Y-103870480D01*
X107595413Y-103923207D01*
X107697273Y-103950500D01*
X107697275Y-103950500D01*
X107802725Y-103950500D01*
X107802727Y-103950500D01*
X107904587Y-103923207D01*
X107995913Y-103870480D01*
X108070480Y-103795913D01*
X108123207Y-103704587D01*
X108150500Y-103602727D01*
X108150500Y-103497273D01*
X108123207Y-103395413D01*
X108070480Y-103304087D01*
X107995913Y-103229520D01*
X107974702Y-103217274D01*
X107904589Y-103176794D01*
X107904588Y-103176793D01*
X107904587Y-103176793D01*
X107802727Y-103149500D01*
X107697273Y-103149500D01*
X107595413Y-103176793D01*
X107595412Y-103176793D01*
X107595410Y-103176794D01*
X107595409Y-103176794D01*
X107504089Y-103229518D01*
X107429518Y-103304089D01*
X107376794Y-103395409D01*
X107376794Y-103395410D01*
X107376793Y-103395412D01*
X107376793Y-103395413D01*
X107349500Y-103497273D01*
X105905500Y-103497273D01*
X105878207Y-103395413D01*
X105825480Y-103304087D01*
X105750913Y-103229520D01*
X105729702Y-103217274D01*
X105659589Y-103176794D01*
X105659588Y-103176793D01*
X105659587Y-103176793D01*
X105557727Y-103149500D01*
X105452273Y-103149500D01*
X105350413Y-103176793D01*
X105350412Y-103176793D01*
X105350410Y-103176794D01*
X105350409Y-103176794D01*
X105259089Y-103229518D01*
X105184518Y-103304089D01*
X105131794Y-103395409D01*
X105131794Y-103395410D01*
X105131793Y-103395412D01*
X105131793Y-103395413D01*
X105104500Y-103497273D01*
X98349414Y-103497273D01*
X98374456Y-103472231D01*
X98374457Y-103472228D01*
X98717191Y-103129496D01*
X98771707Y-103101719D01*
X98787194Y-103100500D01*
X98802725Y-103100500D01*
X98802727Y-103100500D01*
X98904587Y-103073207D01*
X98995913Y-103020480D01*
X99070480Y-102945913D01*
X99123207Y-102854587D01*
X99150500Y-102752727D01*
X99150500Y-102699000D01*
X99159212Y-102672188D01*
X101263982Y-102672188D01*
X101263982Y-102777642D01*
X101289203Y-102871769D01*
X101291276Y-102879504D01*
X101291276Y-102879505D01*
X101344000Y-102970825D01*
X101344002Y-102970828D01*
X101418569Y-103045395D01*
X101509895Y-103098122D01*
X101611755Y-103125415D01*
X101611757Y-103125415D01*
X101717207Y-103125415D01*
X101717209Y-103125415D01*
X101819069Y-103098122D01*
X101910395Y-103045395D01*
X101984962Y-102970828D01*
X102037689Y-102879502D01*
X102064982Y-102777642D01*
X102064982Y-102672188D01*
X102037689Y-102570328D01*
X101984962Y-102479002D01*
X101910395Y-102404435D01*
X101819069Y-102351708D01*
X101717209Y-102324415D01*
X101611755Y-102324415D01*
X101509895Y-102351708D01*
X101509894Y-102351708D01*
X101509892Y-102351709D01*
X101509891Y-102351709D01*
X101418571Y-102404433D01*
X101344000Y-102479004D01*
X101291276Y-102570324D01*
X101291276Y-102570325D01*
X101291275Y-102570327D01*
X101291275Y-102570328D01*
X101263982Y-102672188D01*
X99159212Y-102672188D01*
X99169407Y-102640809D01*
X99218907Y-102604845D01*
X99249500Y-102600000D01*
X99599999Y-102600000D01*
X99600000Y-102600000D01*
X99877568Y-102322431D01*
X99931293Y-102294784D01*
X101097362Y-102100439D01*
X101102675Y-102099702D01*
X101815502Y-102020499D01*
X101875424Y-102032864D01*
X101916634Y-102078090D01*
X101922060Y-102093268D01*
X101928667Y-102117924D01*
X101928669Y-102117930D01*
X101981393Y-102209250D01*
X101981395Y-102209253D01*
X102055962Y-102283820D01*
X102085058Y-102300619D01*
X102085060Y-102300620D01*
X102093355Y-102305409D01*
X102147288Y-102336547D01*
X102249148Y-102363840D01*
X102249150Y-102363840D01*
X102255416Y-102365519D01*
X102254524Y-102368844D01*
X102297074Y-102388474D01*
X102325477Y-102435528D01*
X102338623Y-102484587D01*
X102338624Y-102484589D01*
X102338624Y-102484590D01*
X102391348Y-102575910D01*
X102391350Y-102575913D01*
X102465917Y-102650480D01*
X102557243Y-102703207D01*
X102659103Y-102730500D01*
X102659105Y-102730500D01*
X102764555Y-102730500D01*
X102764557Y-102730500D01*
X102866417Y-102703207D01*
X102957743Y-102650480D01*
X103032310Y-102575913D01*
X103085037Y-102484587D01*
X103105753Y-102407273D01*
X104269500Y-102407273D01*
X104269500Y-102512727D01*
X104296793Y-102614587D01*
X104296794Y-102614589D01*
X104296794Y-102614590D01*
X104349518Y-102705910D01*
X104349520Y-102705913D01*
X104424087Y-102780480D01*
X104515413Y-102833207D01*
X104617273Y-102860500D01*
X104617275Y-102860500D01*
X104722725Y-102860500D01*
X104722727Y-102860500D01*
X104824587Y-102833207D01*
X104915913Y-102780480D01*
X104990480Y-102705913D01*
X105043207Y-102614587D01*
X105070500Y-102512727D01*
X105070500Y-102407273D01*
X105043207Y-102305413D01*
X105037070Y-102294784D01*
X104990481Y-102214089D01*
X104990480Y-102214087D01*
X104915913Y-102139520D01*
X104845995Y-102099153D01*
X104805056Y-102053685D01*
X104798660Y-101992835D01*
X104829253Y-101939847D01*
X104849372Y-101927153D01*
X104848967Y-101926452D01*
X104889228Y-101903207D01*
X104945913Y-101870480D01*
X105020480Y-101795913D01*
X105073207Y-101704587D01*
X105100500Y-101602727D01*
X105100500Y-101497273D01*
X105073207Y-101395413D01*
X105058823Y-101370500D01*
X105026859Y-101315136D01*
X105020480Y-101304087D01*
X104945913Y-101229520D01*
X104920301Y-101214733D01*
X104854589Y-101176794D01*
X104854588Y-101176793D01*
X104854587Y-101176793D01*
X104752727Y-101149500D01*
X104647273Y-101149500D01*
X104545413Y-101176793D01*
X104545412Y-101176793D01*
X104545410Y-101176794D01*
X104545409Y-101176794D01*
X104454089Y-101229518D01*
X104379518Y-101304089D01*
X104326794Y-101395409D01*
X104326794Y-101395410D01*
X104326793Y-101395412D01*
X104326793Y-101395413D01*
X104299500Y-101497273D01*
X104299500Y-101602727D01*
X104321435Y-101684589D01*
X104326794Y-101704589D01*
X104326794Y-101704590D01*
X104367971Y-101775910D01*
X104379520Y-101795913D01*
X104454087Y-101870480D01*
X104524004Y-101910846D01*
X104564943Y-101956314D01*
X104571339Y-102017164D01*
X104540746Y-102070152D01*
X104520629Y-102082849D01*
X104521033Y-102083548D01*
X104424089Y-102139518D01*
X104349518Y-102214089D01*
X104296794Y-102305409D01*
X104296794Y-102305410D01*
X104296793Y-102305412D01*
X104296793Y-102305413D01*
X104269500Y-102407273D01*
X103105753Y-102407273D01*
X103112330Y-102382727D01*
X103112330Y-102277273D01*
X103111139Y-102272828D01*
X103111168Y-102261708D01*
X103118735Y-102238622D01*
X103123160Y-102214736D01*
X103128103Y-102210043D01*
X103130227Y-102203566D01*
X103149920Y-102189335D01*
X103167538Y-102172614D01*
X103178827Y-102168448D01*
X103179820Y-102167731D01*
X103180764Y-102167733D01*
X103184538Y-102166340D01*
X103206769Y-102160384D01*
X103216810Y-102154587D01*
X103270731Y-102123456D01*
X103322956Y-102071231D01*
X103322956Y-102071229D01*
X103331106Y-102063080D01*
X103331107Y-102063077D01*
X103504691Y-101889495D01*
X103559208Y-101861718D01*
X103574694Y-101860499D01*
X103799861Y-101860499D01*
X103799864Y-101860499D01*
X103824991Y-101857585D01*
X103927765Y-101812206D01*
X104007206Y-101732765D01*
X104052585Y-101629991D01*
X104055500Y-101604865D01*
X104055499Y-101315136D01*
X104052585Y-101290009D01*
X104007206Y-101187235D01*
X103969248Y-101149277D01*
X103941473Y-101094763D01*
X103951044Y-101034331D01*
X103969248Y-101009275D01*
X104040509Y-100938015D01*
X104055748Y-100911621D01*
X104112982Y-100812489D01*
X104112982Y-100812487D01*
X104112984Y-100812485D01*
X104150500Y-100672475D01*
X104150500Y-100527525D01*
X104147614Y-100516753D01*
X110273385Y-100516753D01*
X110273385Y-101156246D01*
X110273386Y-101156258D01*
X110285017Y-101214727D01*
X110285019Y-101214733D01*
X110329330Y-101281048D01*
X110329333Y-101281052D01*
X110395654Y-101325367D01*
X110440116Y-101334211D01*
X110454126Y-101336998D01*
X110454131Y-101336998D01*
X110454137Y-101337000D01*
X110454138Y-101337000D01*
X112193632Y-101337000D01*
X112193633Y-101337000D01*
X112252116Y-101325367D01*
X112318437Y-101281052D01*
X112362752Y-101214731D01*
X112374385Y-101156248D01*
X112374385Y-100516752D01*
X112362752Y-100458269D01*
X112318437Y-100391948D01*
X112311803Y-100387515D01*
X112252118Y-100347634D01*
X112252116Y-100347633D01*
X112252113Y-100347632D01*
X112252112Y-100347632D01*
X112193643Y-100336001D01*
X112193633Y-100336000D01*
X110454137Y-100336000D01*
X110454136Y-100336000D01*
X110454126Y-100336001D01*
X110395657Y-100347632D01*
X110395651Y-100347634D01*
X110329336Y-100391945D01*
X110329330Y-100391951D01*
X110285019Y-100458266D01*
X110285017Y-100458272D01*
X110273386Y-100516741D01*
X110273385Y-100516753D01*
X104147614Y-100516753D01*
X104112984Y-100387515D01*
X104112982Y-100387512D01*
X104112982Y-100387510D01*
X104040512Y-100261989D01*
X104040510Y-100261987D01*
X104040509Y-100261985D01*
X103938015Y-100159491D01*
X103938012Y-100159489D01*
X103938010Y-100159487D01*
X103812488Y-100087017D01*
X103812489Y-100087017D01*
X103709761Y-100059491D01*
X103672475Y-100049500D01*
X103527525Y-100049500D01*
X103490239Y-100059491D01*
X103387511Y-100087017D01*
X103308883Y-100132413D01*
X103294677Y-100135432D01*
X103282277Y-100142993D01*
X103265499Y-100141634D01*
X103249035Y-100145134D01*
X103235766Y-100139226D01*
X103221291Y-100138054D01*
X103209134Y-100127368D01*
X103193140Y-100120247D01*
X103174856Y-100098212D01*
X103173252Y-100095581D01*
X103173207Y-100095413D01*
X103120480Y-100004087D01*
X103112765Y-99996372D01*
X103106606Y-99986270D01*
X103102133Y-99967454D01*
X103093353Y-99950221D01*
X103095226Y-99938393D01*
X103092457Y-99926743D01*
X103099898Y-99908892D01*
X103102924Y-99889789D01*
X103111392Y-99881320D01*
X103116000Y-99870268D01*
X103132512Y-99860200D01*
X103146189Y-99846524D01*
X103149082Y-99845190D01*
X103150490Y-99844413D01*
X103150491Y-99844411D01*
X103150496Y-99844410D01*
X103200407Y-99809017D01*
X103228430Y-99785096D01*
X103276236Y-99707129D01*
X103295810Y-99649160D01*
X103306596Y-99585779D01*
X103310263Y-99266741D01*
X103314335Y-98912526D01*
X103314334Y-98912517D01*
X103314335Y-98912500D01*
X103313685Y-98903210D01*
X103312002Y-98879170D01*
X103310108Y-98866750D01*
X103307163Y-98847433D01*
X103306208Y-98841713D01*
X103270264Y-98757617D01*
X103234300Y-98708117D01*
X103210059Y-98680372D01*
X103131549Y-98633464D01*
X103131547Y-98633463D01*
X103131545Y-98633462D01*
X103073355Y-98614556D01*
X103073356Y-98614556D01*
X103009859Y-98604500D01*
X103009856Y-98604500D01*
X102349975Y-98604500D01*
X102339625Y-98606032D01*
X102290426Y-98613317D01*
X102235506Y-98629946D01*
X102181062Y-98655644D01*
X102181060Y-98655646D01*
X101897482Y-98844697D01*
X101838576Y-98861244D01*
X101829228Y-98859820D01*
X101829159Y-98860347D01*
X101822727Y-98859500D01*
X101717273Y-98859500D01*
X101622510Y-98884891D01*
X101598126Y-98888256D01*
X101200737Y-98893223D01*
X101142315Y-98875045D01*
X101105735Y-98825998D01*
X101100500Y-98794231D01*
X101100500Y-98499500D01*
X101119407Y-98441309D01*
X101168907Y-98405345D01*
X101199500Y-98400500D01*
X101252725Y-98400500D01*
X101252727Y-98400500D01*
X101354587Y-98373207D01*
X101445913Y-98320480D01*
X101499120Y-98267273D01*
X106879500Y-98267273D01*
X106879500Y-98372727D01*
X106906793Y-98474587D01*
X106906794Y-98474589D01*
X106906794Y-98474590D01*
X106950804Y-98550817D01*
X106959520Y-98565913D01*
X107034087Y-98640480D01*
X107125413Y-98693207D01*
X107227273Y-98720500D01*
X107227275Y-98720500D01*
X107332725Y-98720500D01*
X107332727Y-98720500D01*
X107434587Y-98693207D01*
X107525913Y-98640480D01*
X107600480Y-98565913D01*
X107653207Y-98474587D01*
X107680500Y-98372727D01*
X107680500Y-98267273D01*
X107653207Y-98165413D01*
X107647611Y-98155721D01*
X107600481Y-98074089D01*
X107600480Y-98074087D01*
X107525913Y-97999520D01*
X107524910Y-97998941D01*
X107434589Y-97946794D01*
X107434588Y-97946793D01*
X107434587Y-97946793D01*
X107332727Y-97919500D01*
X107227273Y-97919500D01*
X107125413Y-97946793D01*
X107125412Y-97946793D01*
X107125410Y-97946794D01*
X107125409Y-97946794D01*
X107034089Y-97999518D01*
X106959518Y-98074089D01*
X106906794Y-98165409D01*
X106906794Y-98165410D01*
X106906793Y-98165412D01*
X106906793Y-98165413D01*
X106879500Y-98267273D01*
X101499120Y-98267273D01*
X101520480Y-98245913D01*
X101573207Y-98154587D01*
X101600500Y-98052727D01*
X101600500Y-97947273D01*
X101573207Y-97845413D01*
X101553254Y-97810854D01*
X101520481Y-97754089D01*
X101520480Y-97754087D01*
X101445913Y-97679520D01*
X101398686Y-97652253D01*
X101398685Y-97652252D01*
X101354589Y-97626794D01*
X101354588Y-97626793D01*
X101354587Y-97626793D01*
X101252727Y-97599500D01*
X101147273Y-97599500D01*
X101084779Y-97616245D01*
X101023678Y-97613042D01*
X100999757Y-97599818D01*
X100983030Y-97587273D01*
X100964009Y-97573007D01*
X101883766Y-97573007D01*
X101883766Y-97678461D01*
X101911059Y-97780321D01*
X101911060Y-97780323D01*
X101911060Y-97780324D01*
X101963784Y-97871644D01*
X101963786Y-97871647D01*
X102038353Y-97946214D01*
X102129679Y-97998941D01*
X102231539Y-98026234D01*
X102231541Y-98026234D01*
X102336991Y-98026234D01*
X102336993Y-98026234D01*
X102438853Y-97998941D01*
X102530179Y-97946214D01*
X102604746Y-97871647D01*
X102657473Y-97780321D01*
X102684766Y-97678461D01*
X102684766Y-97573007D01*
X102657473Y-97471147D01*
X102653747Y-97464694D01*
X102604747Y-97379823D01*
X102604746Y-97379821D01*
X102530179Y-97305254D01*
X102507643Y-97292243D01*
X102438855Y-97252528D01*
X102438854Y-97252527D01*
X102438853Y-97252527D01*
X102336993Y-97225234D01*
X102231539Y-97225234D01*
X102129679Y-97252527D01*
X102129678Y-97252527D01*
X102129676Y-97252528D01*
X102129675Y-97252528D01*
X102038355Y-97305252D01*
X101963784Y-97379823D01*
X101911060Y-97471143D01*
X101911060Y-97471144D01*
X101911059Y-97471146D01*
X101911059Y-97471147D01*
X101883766Y-97573007D01*
X100964009Y-97573007D01*
X100747309Y-97410481D01*
X100726989Y-97395241D01*
X100691781Y-97345200D01*
X100687389Y-97316041D01*
X100687389Y-97272273D01*
X100687389Y-97272272D01*
X100660096Y-97170412D01*
X100607369Y-97079086D01*
X100532802Y-97004519D01*
X100526232Y-97000726D01*
X100441478Y-96951793D01*
X100441477Y-96951792D01*
X100441476Y-96951792D01*
X100339616Y-96924499D01*
X100234162Y-96924499D01*
X100132302Y-96951792D01*
X100132301Y-96951792D01*
X100127623Y-96953046D01*
X100066521Y-96949843D01*
X100018971Y-96911338D01*
X100011441Y-96897418D01*
X99967206Y-96797235D01*
X99887765Y-96717794D01*
X99784991Y-96672415D01*
X99784990Y-96672414D01*
X99784988Y-96672414D01*
X99759868Y-96669500D01*
X99235139Y-96669500D01*
X99235136Y-96669501D01*
X99210009Y-96672414D01*
X99129987Y-96707748D01*
X99119762Y-96708790D01*
X99110877Y-96713957D01*
X99089997Y-96711826D01*
X99069117Y-96713956D01*
X99050012Y-96707747D01*
X99033555Y-96700481D01*
X99022008Y-96695382D01*
X98976415Y-96654580D01*
X98963000Y-96604819D01*
X98963000Y-96497273D01*
X102999500Y-96497273D01*
X102999500Y-96602727D01*
X103025693Y-96700480D01*
X103026794Y-96704589D01*
X103026794Y-96704590D01*
X103079107Y-96795198D01*
X103079520Y-96795913D01*
X103154087Y-96870480D01*
X103245413Y-96923207D01*
X103347273Y-96950500D01*
X103347275Y-96950500D01*
X103452725Y-96950500D01*
X103452727Y-96950500D01*
X103554587Y-96923207D01*
X103645913Y-96870480D01*
X103720480Y-96795913D01*
X103773207Y-96704587D01*
X103800500Y-96602727D01*
X103800500Y-96522021D01*
X103819407Y-96463830D01*
X103868907Y-96427866D01*
X103925122Y-96426395D01*
X103949773Y-96433000D01*
X103949774Y-96433000D01*
X104055225Y-96433000D01*
X104055227Y-96433000D01*
X104157087Y-96405707D01*
X104248413Y-96352980D01*
X104322980Y-96278413D01*
X104375707Y-96187087D01*
X104378337Y-96177273D01*
X107689500Y-96177273D01*
X107689500Y-96282727D01*
X107716793Y-96384587D01*
X107716794Y-96384589D01*
X107716794Y-96384590D01*
X107759576Y-96458690D01*
X107769520Y-96475913D01*
X107844087Y-96550480D01*
X107844089Y-96550481D01*
X107935409Y-96603205D01*
X107935410Y-96603205D01*
X107935413Y-96603207D01*
X108002434Y-96621165D01*
X108053746Y-96654486D01*
X108075673Y-96711607D01*
X108059838Y-96770708D01*
X108046813Y-96786793D01*
X107989519Y-96844087D01*
X107936794Y-96935409D01*
X107936794Y-96935410D01*
X107936793Y-96935412D01*
X107936793Y-96935413D01*
X107909500Y-97037273D01*
X107909500Y-97142727D01*
X107935562Y-97239991D01*
X107936794Y-97244589D01*
X107936794Y-97244590D01*
X107971819Y-97305254D01*
X107989520Y-97335913D01*
X108064087Y-97410480D01*
X108155413Y-97463207D01*
X108257273Y-97490500D01*
X108257275Y-97490500D01*
X108362725Y-97490500D01*
X108362727Y-97490500D01*
X108464587Y-97463207D01*
X108555913Y-97410480D01*
X108630480Y-97335913D01*
X108683207Y-97244587D01*
X108710500Y-97142727D01*
X108710500Y-97037273D01*
X108683207Y-96935413D01*
X108669307Y-96911338D01*
X108630481Y-96844089D01*
X108630480Y-96844087D01*
X108555913Y-96769520D01*
X108488328Y-96730500D01*
X108464589Y-96716794D01*
X108464588Y-96716793D01*
X108464587Y-96716793D01*
X108397565Y-96698834D01*
X108346253Y-96665512D01*
X108324326Y-96608391D01*
X108340161Y-96549290D01*
X108353182Y-96533210D01*
X108410480Y-96475913D01*
X108463207Y-96384587D01*
X108490500Y-96282727D01*
X108490500Y-96177273D01*
X108463207Y-96075413D01*
X108454584Y-96060478D01*
X108410481Y-95984089D01*
X108410480Y-95984087D01*
X108335913Y-95909520D01*
X108244587Y-95856793D01*
X108142727Y-95829500D01*
X108037273Y-95829500D01*
X107935413Y-95856793D01*
X107935412Y-95856793D01*
X107935410Y-95856794D01*
X107935409Y-95856794D01*
X107844089Y-95909518D01*
X107769518Y-95984089D01*
X107716794Y-96075409D01*
X107716794Y-96075410D01*
X107716793Y-96075412D01*
X107716793Y-96075413D01*
X107689500Y-96177273D01*
X104378337Y-96177273D01*
X104403000Y-96085227D01*
X104403000Y-95979773D01*
X104375707Y-95877913D01*
X104363513Y-95856793D01*
X104322981Y-95786589D01*
X104322980Y-95786587D01*
X104248413Y-95712020D01*
X104205960Y-95687510D01*
X104157089Y-95659294D01*
X104157088Y-95659293D01*
X104157087Y-95659293D01*
X104055227Y-95632000D01*
X103949773Y-95632000D01*
X103847913Y-95659293D01*
X103847912Y-95659293D01*
X103847910Y-95659294D01*
X103847909Y-95659294D01*
X103756589Y-95712018D01*
X103682018Y-95786589D01*
X103629294Y-95877909D01*
X103629294Y-95877910D01*
X103629293Y-95877912D01*
X103629293Y-95877913D01*
X103603956Y-95972475D01*
X103602000Y-95979774D01*
X103602000Y-96060478D01*
X103583093Y-96118669D01*
X103533593Y-96154633D01*
X103477378Y-96156105D01*
X103468847Y-96153819D01*
X103452727Y-96149500D01*
X103347273Y-96149500D01*
X103245413Y-96176793D01*
X103245412Y-96176793D01*
X103245410Y-96176794D01*
X103245409Y-96176794D01*
X103154089Y-96229518D01*
X103079518Y-96304089D01*
X103026794Y-96395409D01*
X103026794Y-96395410D01*
X103026793Y-96395412D01*
X103026793Y-96395413D01*
X102999500Y-96497273D01*
X98963000Y-96497273D01*
X98963000Y-96440976D01*
X98981907Y-96382785D01*
X99012502Y-96355239D01*
X99038010Y-96340512D01*
X99038010Y-96340511D01*
X99038015Y-96340509D01*
X99140509Y-96238015D01*
X99146124Y-96228289D01*
X99212982Y-96112489D01*
X99212982Y-96112487D01*
X99212984Y-96112485D01*
X99250500Y-95972475D01*
X99250500Y-95827525D01*
X99212984Y-95687515D01*
X99212982Y-95687512D01*
X99212982Y-95687510D01*
X99140512Y-95561989D01*
X99140510Y-95561987D01*
X99140509Y-95561985D01*
X99038015Y-95459491D01*
X99038012Y-95459489D01*
X99038010Y-95459487D01*
X98912488Y-95387017D01*
X98912489Y-95387017D01*
X98882896Y-95379087D01*
X98772475Y-95349500D01*
X98627525Y-95349500D01*
X98565790Y-95366041D01*
X98487510Y-95387017D01*
X98361989Y-95459487D01*
X98259487Y-95561989D01*
X98187017Y-95687510D01*
X98187016Y-95687515D01*
X98149500Y-95827525D01*
X98149500Y-95972475D01*
X98152612Y-95984089D01*
X98187017Y-96112489D01*
X98259487Y-96238010D01*
X98259489Y-96238012D01*
X98259491Y-96238015D01*
X98361985Y-96340509D01*
X98361987Y-96340510D01*
X98361991Y-96340514D01*
X98363268Y-96341494D01*
X98363920Y-96342443D01*
X98366574Y-96345097D01*
X98366082Y-96345588D01*
X98371430Y-96353370D01*
X98383093Y-96361844D01*
X98388328Y-96377957D01*
X98397923Y-96391918D01*
X98402000Y-96420035D01*
X98402000Y-96604820D01*
X98383093Y-96663011D01*
X98342989Y-96695383D01*
X98300927Y-96713956D01*
X98292235Y-96717794D01*
X98212794Y-96797235D01*
X98167414Y-96900011D01*
X98164500Y-96925130D01*
X98164500Y-97214859D01*
X98164501Y-97214864D01*
X98167414Y-97239990D01*
X98186391Y-97282968D01*
X98212794Y-97342765D01*
X98232847Y-97362818D01*
X98260623Y-97417333D01*
X98251052Y-97477765D01*
X98248580Y-97482317D01*
X98246794Y-97485409D01*
X98245430Y-97490500D01*
X98219500Y-97587273D01*
X98219500Y-97692727D01*
X98246501Y-97793496D01*
X98246794Y-97794589D01*
X98246794Y-97794590D01*
X98293456Y-97875410D01*
X98299520Y-97885913D01*
X98374087Y-97960480D01*
X98465413Y-98013207D01*
X98567273Y-98040500D01*
X98567275Y-98040500D01*
X98672725Y-98040500D01*
X98672727Y-98040500D01*
X98774587Y-98013207D01*
X98774591Y-98013204D01*
X98774877Y-98013128D01*
X98835978Y-98016330D01*
X98883528Y-98054835D01*
X98899500Y-98108755D01*
X98899500Y-98919746D01*
X98899501Y-98919758D01*
X98911132Y-98978227D01*
X98911134Y-98978233D01*
X98947624Y-99032843D01*
X98955448Y-99044552D01*
X99021769Y-99088867D01*
X99063526Y-99097173D01*
X99080241Y-99100498D01*
X99080246Y-99100498D01*
X99080252Y-99100500D01*
X99080253Y-99100500D01*
X99419747Y-99100500D01*
X99419748Y-99100500D01*
X99478231Y-99088867D01*
X99544552Y-99044552D01*
X99588867Y-98978231D01*
X99600500Y-98919748D01*
X99600500Y-98199000D01*
X99605345Y-98184088D01*
X99605345Y-98168407D01*
X99614561Y-98155721D01*
X99619407Y-98140809D01*
X99632092Y-98131592D01*
X99641309Y-98118907D01*
X99656221Y-98114061D01*
X99668907Y-98104845D01*
X99699500Y-98100000D01*
X99800500Y-98100000D01*
X99858691Y-98118907D01*
X99894655Y-98168407D01*
X99899500Y-98199000D01*
X99899500Y-98919746D01*
X99899501Y-98919758D01*
X99911132Y-98978227D01*
X99911134Y-98978233D01*
X99947624Y-99032843D01*
X99955448Y-99044552D01*
X100021769Y-99088867D01*
X100063526Y-99097173D01*
X100080241Y-99100498D01*
X100080246Y-99100498D01*
X100080252Y-99100500D01*
X100080253Y-99100500D01*
X100419747Y-99100500D01*
X100419748Y-99100500D01*
X100436474Y-99097173D01*
X100480685Y-99088379D01*
X100519315Y-99088379D01*
X100580241Y-99100498D01*
X100580246Y-99100498D01*
X100580252Y-99100500D01*
X100796000Y-99100500D01*
X100809564Y-99104907D01*
X100823818Y-99104489D01*
X100837933Y-99114124D01*
X100854191Y-99119407D01*
X100862573Y-99130944D01*
X100874352Y-99138985D01*
X100879608Y-99154391D01*
X100890155Y-99168907D01*
X100894957Y-99196597D01*
X100895000Y-99198062D01*
X100895000Y-99300500D01*
X100897530Y-99332644D01*
X100899271Y-99343638D01*
X100899457Y-99349968D01*
X100899310Y-99350467D01*
X100899500Y-99352871D01*
X100899500Y-99419751D01*
X100911621Y-99480686D01*
X100911621Y-99519314D01*
X100899500Y-99580248D01*
X100899500Y-99919751D01*
X100911621Y-99980686D01*
X100911621Y-100019314D01*
X100899500Y-100080248D01*
X100899500Y-100419751D01*
X100911621Y-100480686D01*
X100911621Y-100519314D01*
X100899500Y-100580248D01*
X100899500Y-100800500D01*
X100880593Y-100858691D01*
X100831093Y-100894655D01*
X100800500Y-100899500D01*
X100580248Y-100899500D01*
X100519314Y-100911621D01*
X100480686Y-100911621D01*
X100419751Y-100899500D01*
X100419748Y-100899500D01*
X100080252Y-100899500D01*
X100080248Y-100899500D01*
X100019314Y-100911621D01*
X99980686Y-100911621D01*
X99919751Y-100899500D01*
X99919748Y-100899500D01*
X99580252Y-100899500D01*
X99580248Y-100899500D01*
X99519314Y-100911621D01*
X99480686Y-100911621D01*
X99419751Y-100899500D01*
X99419748Y-100899500D01*
X99199500Y-100899500D01*
X99141309Y-100880593D01*
X99105345Y-100831093D01*
X99100500Y-100800500D01*
X99100500Y-100580253D01*
X99100498Y-100580241D01*
X99088379Y-100519315D01*
X99088379Y-100480685D01*
X99100498Y-100419758D01*
X99100500Y-100419746D01*
X99100500Y-100080253D01*
X99100498Y-100080241D01*
X99088379Y-100019315D01*
X99088379Y-99980685D01*
X99100498Y-99919758D01*
X99100500Y-99919746D01*
X99100500Y-99580253D01*
X99100498Y-99580241D01*
X99094983Y-99552518D01*
X99088867Y-99521769D01*
X99044552Y-99455448D01*
X99041785Y-99453599D01*
X98978233Y-99411134D01*
X98978231Y-99411133D01*
X98978228Y-99411132D01*
X98978227Y-99411132D01*
X98919758Y-99399501D01*
X98919748Y-99399500D01*
X98080252Y-99399500D01*
X98080251Y-99399500D01*
X98080241Y-99399501D01*
X98021772Y-99411132D01*
X98021766Y-99411134D01*
X97955451Y-99455445D01*
X97955446Y-99455450D01*
X97928242Y-99496162D01*
X97908918Y-99517534D01*
X97902558Y-99522778D01*
X97897769Y-99525544D01*
X97891011Y-99532301D01*
X97891006Y-99532306D01*
X97870794Y-99552518D01*
X97816277Y-99580294D01*
X97755846Y-99570722D01*
X97748670Y-99563912D01*
X97746004Y-99563223D01*
X97739011Y-99554744D01*
X97715050Y-99532003D01*
X97714182Y-99530500D01*
X97713435Y-99529205D01*
X97711869Y-99521834D01*
X97707074Y-99516020D01*
X97705627Y-99492449D01*
X97700721Y-99469355D01*
X97703786Y-99462471D01*
X97703325Y-99454950D01*
X97716006Y-99435033D01*
X97725613Y-99413463D01*
X97729157Y-99409728D01*
X97740007Y-99398879D01*
X97792734Y-99307553D01*
X97820027Y-99205693D01*
X97820027Y-99100239D01*
X97792734Y-98998379D01*
X97764575Y-98949607D01*
X97751854Y-98889760D01*
X97764576Y-98850608D01*
X97782430Y-98819684D01*
X97817968Y-98758130D01*
X97845261Y-98656270D01*
X97845261Y-98550816D01*
X97817968Y-98448956D01*
X97813553Y-98441309D01*
X97765241Y-98357629D01*
X97764454Y-98356604D01*
X97764145Y-98355731D01*
X97761997Y-98352011D01*
X97762686Y-98351612D01*
X97744034Y-98298927D01*
X97757264Y-98246842D01*
X97767790Y-98228610D01*
X97793207Y-98184587D01*
X97820500Y-98082727D01*
X97820500Y-97977273D01*
X97793207Y-97875413D01*
X97740480Y-97784087D01*
X97665913Y-97709520D01*
X97636823Y-97692725D01*
X97574589Y-97656794D01*
X97574588Y-97656793D01*
X97574587Y-97656793D01*
X97472727Y-97629500D01*
X97367273Y-97629500D01*
X97265413Y-97656793D01*
X97265412Y-97656793D01*
X97265410Y-97656794D01*
X97265409Y-97656794D01*
X97174089Y-97709518D01*
X97099518Y-97784089D01*
X97046794Y-97875409D01*
X97046794Y-97875410D01*
X97046793Y-97875412D01*
X97046793Y-97875413D01*
X97019500Y-97977273D01*
X97019500Y-98082727D01*
X97046793Y-98184587D01*
X97046794Y-98184589D01*
X97046794Y-98184590D01*
X97099522Y-98275917D01*
X97100307Y-98276940D01*
X97100614Y-98277809D01*
X97102764Y-98281532D01*
X97102073Y-98281930D01*
X97120726Y-98334617D01*
X97107497Y-98386699D01*
X97071554Y-98448954D01*
X97063965Y-98477277D01*
X97044261Y-98550816D01*
X97044261Y-98656270D01*
X97061471Y-98720500D01*
X97071554Y-98758131D01*
X97099712Y-98806902D01*
X97112433Y-98866750D01*
X97099712Y-98905900D01*
X97046320Y-98998377D01*
X97031028Y-99055451D01*
X97019027Y-99100239D01*
X97019027Y-99205693D01*
X97046320Y-99307553D01*
X97076772Y-99360297D01*
X97096086Y-99393750D01*
X97108807Y-99453599D01*
X97083920Y-99509494D01*
X97080355Y-99513251D01*
X97069520Y-99524086D01*
X97016794Y-99615409D01*
X97016794Y-99615410D01*
X97016793Y-99615412D01*
X97016793Y-99615413D01*
X96989500Y-99717273D01*
X96989500Y-99822727D01*
X97011882Y-99906258D01*
X97012114Y-99907123D01*
X97008911Y-99968225D01*
X96970406Y-100015775D01*
X96911305Y-100031610D01*
X96866987Y-100018482D01*
X96812488Y-99987017D01*
X96812489Y-99987017D01*
X96779699Y-99978231D01*
X96672475Y-99949500D01*
X96527525Y-99949500D01*
X96470698Y-99964727D01*
X96387510Y-99987017D01*
X96261989Y-100059487D01*
X96159489Y-100161987D01*
X96123072Y-100225061D01*
X96123026Y-100225143D01*
X96087016Y-100287515D01*
X96055646Y-100404587D01*
X96049500Y-100427525D01*
X93203773Y-100427525D01*
X93203207Y-100425413D01*
X93150480Y-100334087D01*
X93075913Y-100259520D01*
X93068465Y-100255220D01*
X92984589Y-100206794D01*
X92984588Y-100206793D01*
X92984587Y-100206793D01*
X92882727Y-100179500D01*
X92777273Y-100179500D01*
X92675413Y-100206793D01*
X92675412Y-100206793D01*
X92675410Y-100206794D01*
X92675409Y-100206794D01*
X92584089Y-100259518D01*
X92509518Y-100334089D01*
X92456794Y-100425410D01*
X92456793Y-100425412D01*
X92456793Y-100425413D01*
X92429500Y-100527273D01*
X92429500Y-100632727D01*
X92450871Y-100712485D01*
X92456794Y-100734589D01*
X92456794Y-100734590D01*
X92509518Y-100825910D01*
X92509520Y-100825913D01*
X92584087Y-100900480D01*
X92584089Y-100900481D01*
X92675409Y-100953205D01*
X92675413Y-100953207D01*
X92683424Y-100955353D01*
X92734738Y-100988674D01*
X92756667Y-101045795D01*
X92740833Y-101104896D01*
X92693285Y-101143403D01*
X92683428Y-101146606D01*
X92645415Y-101156792D01*
X92645409Y-101156794D01*
X92554089Y-101209518D01*
X92479518Y-101284089D01*
X92426794Y-101375409D01*
X92426794Y-101375410D01*
X92426793Y-101375412D01*
X92426793Y-101375413D01*
X92399500Y-101477273D01*
X83053279Y-101477273D01*
X83016442Y-101046842D01*
X83016155Y-101042180D01*
X82985797Y-100232418D01*
X82985734Y-100227739D01*
X82994183Y-99417499D01*
X82994346Y-99412772D01*
X82995158Y-99398879D01*
X83007924Y-99180253D01*
X87749500Y-99180253D01*
X87749500Y-99819744D01*
X87749524Y-99819988D01*
X87750000Y-99829689D01*
X87750000Y-100420310D01*
X87749524Y-100430009D01*
X87749500Y-100430252D01*
X87749500Y-101069746D01*
X87749501Y-101069758D01*
X87761132Y-101128227D01*
X87761134Y-101128233D01*
X87800746Y-101187515D01*
X87805448Y-101194552D01*
X87871769Y-101238867D01*
X87916231Y-101247711D01*
X87930241Y-101250498D01*
X87930246Y-101250498D01*
X87930252Y-101250500D01*
X87930253Y-101250500D01*
X89669747Y-101250500D01*
X89669748Y-101250500D01*
X89728231Y-101238867D01*
X89794552Y-101194552D01*
X89838867Y-101128231D01*
X89850500Y-101069748D01*
X89850500Y-100430252D01*
X89849537Y-100425413D01*
X89847711Y-100416231D01*
X89838867Y-100371769D01*
X89838863Y-100371764D01*
X89837465Y-100368386D01*
X89836987Y-100362320D01*
X89836965Y-100362207D01*
X89836978Y-100362204D01*
X89832664Y-100307389D01*
X89864633Y-100255220D01*
X89921161Y-100231805D01*
X89928929Y-100231500D01*
X90690142Y-100231500D01*
X90690144Y-100231500D01*
X90779288Y-100207614D01*
X90780699Y-100206798D01*
X90780710Y-100206796D01*
X90780709Y-100206794D01*
X90801743Y-100194649D01*
X90859212Y-100161470D01*
X91290908Y-99729773D01*
X93169500Y-99729773D01*
X93169500Y-99835227D01*
X93196793Y-99937087D01*
X93196794Y-99937089D01*
X93196794Y-99937090D01*
X93244267Y-100019315D01*
X93249520Y-100028413D01*
X93324087Y-100102980D01*
X93415413Y-100155707D01*
X93517273Y-100183000D01*
X93517275Y-100183000D01*
X93622725Y-100183000D01*
X93622727Y-100183000D01*
X93724587Y-100155707D01*
X93815913Y-100102980D01*
X93890480Y-100028413D01*
X93943207Y-99937087D01*
X93943363Y-99936505D01*
X95169500Y-99936505D01*
X95169500Y-100041959D01*
X95196208Y-100141634D01*
X95196794Y-100143821D01*
X95196794Y-100143822D01*
X95247963Y-100232449D01*
X95249520Y-100235145D01*
X95324087Y-100309712D01*
X95415413Y-100362439D01*
X95517273Y-100389732D01*
X95517275Y-100389732D01*
X95622725Y-100389732D01*
X95622727Y-100389732D01*
X95724587Y-100362439D01*
X95815913Y-100309712D01*
X95890480Y-100235145D01*
X95943207Y-100143819D01*
X95970500Y-100041959D01*
X95970500Y-99936505D01*
X95943207Y-99834645D01*
X95890480Y-99743319D01*
X95815913Y-99668752D01*
X95815677Y-99668616D01*
X95724589Y-99616026D01*
X95724588Y-99616025D01*
X95724587Y-99616025D01*
X95622727Y-99588732D01*
X95517273Y-99588732D01*
X95415413Y-99616025D01*
X95415412Y-99616025D01*
X95415410Y-99616026D01*
X95415409Y-99616026D01*
X95324089Y-99668750D01*
X95249518Y-99743321D01*
X95196794Y-99834641D01*
X95196794Y-99834642D01*
X95196793Y-99834644D01*
X95196793Y-99834645D01*
X95169500Y-99936505D01*
X93943363Y-99936505D01*
X93970500Y-99835227D01*
X93970500Y-99729773D01*
X93943207Y-99627913D01*
X93936343Y-99616025D01*
X93890481Y-99536589D01*
X93890480Y-99536587D01*
X93815913Y-99462020D01*
X93804535Y-99455451D01*
X93724589Y-99409294D01*
X93724588Y-99409293D01*
X93724587Y-99409293D01*
X93622727Y-99382000D01*
X93517273Y-99382000D01*
X93415413Y-99409293D01*
X93415412Y-99409293D01*
X93415410Y-99409294D01*
X93415409Y-99409294D01*
X93324089Y-99462018D01*
X93249518Y-99536589D01*
X93196794Y-99627909D01*
X93196794Y-99627910D01*
X93196793Y-99627912D01*
X93196793Y-99627913D01*
X93169500Y-99729773D01*
X91290908Y-99729773D01*
X92070281Y-98950398D01*
X92124796Y-98922623D01*
X92165907Y-98924777D01*
X92187273Y-98930503D01*
X92292725Y-98930503D01*
X92292727Y-98930503D01*
X92394587Y-98903210D01*
X92485913Y-98850483D01*
X92560480Y-98775916D01*
X92613207Y-98684590D01*
X92640500Y-98582730D01*
X92640500Y-98477276D01*
X92613207Y-98375416D01*
X92611128Y-98371815D01*
X92603762Y-98359055D01*
X92590500Y-98309558D01*
X92590500Y-98200443D01*
X92603765Y-98150941D01*
X92613205Y-98134590D01*
X92613204Y-98134590D01*
X92613207Y-98134587D01*
X92640500Y-98032727D01*
X92640500Y-97927273D01*
X92613207Y-97825413D01*
X92604801Y-97810854D01*
X92560481Y-97734089D01*
X92560480Y-97734087D01*
X92485913Y-97659520D01*
X92481191Y-97656794D01*
X92394589Y-97606794D01*
X92394588Y-97606793D01*
X92394587Y-97606793D01*
X92292727Y-97579500D01*
X92187273Y-97579500D01*
X92085413Y-97606793D01*
X92085412Y-97606793D01*
X92085410Y-97606794D01*
X92085409Y-97606794D01*
X91994089Y-97659518D01*
X91919518Y-97734089D01*
X91866794Y-97825409D01*
X91866794Y-97825410D01*
X91866793Y-97825412D01*
X91866793Y-97825413D01*
X91853397Y-97875410D01*
X91839500Y-97927274D01*
X91839500Y-98032726D01*
X91862148Y-98117253D01*
X91858945Y-98178354D01*
X91820439Y-98225904D01*
X91816023Y-98228610D01*
X91779789Y-98249530D01*
X91779784Y-98249534D01*
X91387858Y-98641459D01*
X91333342Y-98669236D01*
X91272910Y-98659665D01*
X91247854Y-98641461D01*
X91175913Y-98569520D01*
X91169665Y-98565913D01*
X91084589Y-98516794D01*
X91084588Y-98516793D01*
X91084587Y-98516793D01*
X90982727Y-98489500D01*
X90877273Y-98489500D01*
X90775413Y-98516793D01*
X90775412Y-98516793D01*
X90775410Y-98516794D01*
X90775409Y-98516794D01*
X90684089Y-98569518D01*
X90609518Y-98644089D01*
X90556794Y-98735409D01*
X90556794Y-98735410D01*
X90556793Y-98735412D01*
X90556793Y-98735413D01*
X90529500Y-98837273D01*
X90529500Y-98942727D01*
X90556793Y-99044587D01*
X90556794Y-99044589D01*
X90556794Y-99044590D01*
X90602877Y-99124407D01*
X90609520Y-99135913D01*
X90681460Y-99207853D01*
X90709236Y-99262368D01*
X90699665Y-99322800D01*
X90681459Y-99347858D01*
X90527815Y-99501503D01*
X90473298Y-99529281D01*
X90457811Y-99530500D01*
X90036188Y-99530500D01*
X90028590Y-99528031D01*
X90020700Y-99529281D01*
X90000046Y-99518757D01*
X89977997Y-99511593D01*
X89966184Y-99501503D01*
X89879496Y-99414814D01*
X89851719Y-99360297D01*
X89850500Y-99344811D01*
X89850500Y-99180253D01*
X89850498Y-99180241D01*
X89841680Y-99135913D01*
X89838867Y-99121769D01*
X89794552Y-99055448D01*
X89794548Y-99055445D01*
X89728233Y-99011134D01*
X89728231Y-99011133D01*
X89728228Y-99011132D01*
X89728227Y-99011132D01*
X89669758Y-98999501D01*
X89669748Y-98999500D01*
X87930252Y-98999500D01*
X87930251Y-98999500D01*
X87930241Y-98999501D01*
X87871772Y-99011132D01*
X87871766Y-99011134D01*
X87805451Y-99055445D01*
X87805445Y-99055451D01*
X87761134Y-99121766D01*
X87761132Y-99121772D01*
X87749501Y-99180241D01*
X87749500Y-99180253D01*
X83007924Y-99180253D01*
X83041580Y-98603899D01*
X83041970Y-98599176D01*
X83045517Y-98565910D01*
X83127881Y-97793474D01*
X83128491Y-97788817D01*
X83252887Y-96988136D01*
X83253718Y-96983520D01*
X83416307Y-96189720D01*
X83417358Y-96185144D01*
X83617767Y-95400050D01*
X83619048Y-95395489D01*
X83856815Y-94620904D01*
X83858315Y-94616406D01*
X84078781Y-94004336D01*
X84132895Y-93854100D01*
X84134594Y-93849714D01*
X84445381Y-93101381D01*
X84447280Y-93097100D01*
X84793555Y-92364480D01*
X84795641Y-92360328D01*
X85176581Y-91645158D01*
X85178870Y-91641097D01*
X85593635Y-90944959D01*
X85596132Y-90940989D01*
X86043723Y-90265553D01*
X86046413Y-90261697D01*
X86525857Y-89608435D01*
X86528713Y-89604735D01*
X87038851Y-88975222D01*
X87041918Y-88971618D01*
X87581629Y-88367236D01*
X87584820Y-88363830D01*
X87814643Y-88130034D01*
X87868920Y-88101791D01*
X87916549Y-88105515D01*
X88394348Y-88264782D01*
X88640582Y-88346860D01*
X88689807Y-88383199D01*
X88708272Y-88441532D01*
X88707032Y-88456417D01*
X88704416Y-88472770D01*
X88704415Y-88472774D01*
X88703366Y-89136948D01*
X88703323Y-89164325D01*
X88703323Y-89164326D01*
X88692267Y-96160520D01*
X88694770Y-96192822D01*
X88694774Y-96192857D01*
X88699605Y-96223519D01*
X88700415Y-96228289D01*
X88736358Y-96312382D01*
X88736359Y-96312383D01*
X88757509Y-96341494D01*
X88758101Y-96342308D01*
X88777009Y-96400499D01*
X88758102Y-96458690D01*
X88708603Y-96494654D01*
X88678009Y-96499500D01*
X87930252Y-96499500D01*
X87930251Y-96499500D01*
X87930241Y-96499501D01*
X87871772Y-96511132D01*
X87871766Y-96511134D01*
X87805451Y-96555445D01*
X87805445Y-96555451D01*
X87761134Y-96621766D01*
X87761132Y-96621772D01*
X87749501Y-96680241D01*
X87749500Y-96680253D01*
X87749500Y-97319746D01*
X87749501Y-97319758D01*
X87761132Y-97378227D01*
X87761134Y-97378233D01*
X87805445Y-97444548D01*
X87805448Y-97444552D01*
X87871769Y-97488867D01*
X87916231Y-97497711D01*
X87930241Y-97500498D01*
X87930246Y-97500498D01*
X87930252Y-97500500D01*
X87930253Y-97500500D01*
X89669747Y-97500500D01*
X89669748Y-97500500D01*
X89728231Y-97488867D01*
X89794552Y-97444552D01*
X89838867Y-97378231D01*
X89842457Y-97360185D01*
X89872354Y-97306801D01*
X89927919Y-97281186D01*
X89939554Y-97280500D01*
X90765306Y-97280500D01*
X90772903Y-97282968D01*
X90780793Y-97281719D01*
X90801448Y-97292243D01*
X90823497Y-97299407D01*
X90835310Y-97309496D01*
X90920504Y-97394690D01*
X90948281Y-97449207D01*
X90949500Y-97464694D01*
X90949500Y-97480227D01*
X90976100Y-97579500D01*
X90976794Y-97582089D01*
X90976794Y-97582090D01*
X91029518Y-97673410D01*
X91029520Y-97673413D01*
X91104087Y-97747980D01*
X91195413Y-97800707D01*
X91297273Y-97828000D01*
X91297275Y-97828000D01*
X91402725Y-97828000D01*
X91402727Y-97828000D01*
X91504587Y-97800707D01*
X91595913Y-97747980D01*
X91670480Y-97673413D01*
X91723207Y-97582087D01*
X91750500Y-97480227D01*
X91750500Y-97374773D01*
X91723207Y-97272913D01*
X91722837Y-97272273D01*
X91670481Y-97181589D01*
X91670480Y-97181587D01*
X91595913Y-97107020D01*
X91547533Y-97079088D01*
X91504589Y-97054294D01*
X91504588Y-97054293D01*
X91504587Y-97054293D01*
X91402727Y-97027000D01*
X91402725Y-97027000D01*
X91387194Y-97027000D01*
X91329003Y-97008093D01*
X91317191Y-96998004D01*
X91156723Y-96837537D01*
X91146957Y-96827771D01*
X91146956Y-96827769D01*
X91094731Y-96775544D01*
X91032648Y-96739700D01*
X91027034Y-96735274D01*
X91013816Y-96715488D01*
X90997892Y-96697802D01*
X90995386Y-96687897D01*
X90993047Y-96684396D01*
X90993242Y-96679426D01*
X90989625Y-96665128D01*
X90986961Y-96630500D01*
X90963636Y-96327273D01*
X96049500Y-96327273D01*
X96049500Y-96432727D01*
X96070509Y-96511133D01*
X96076794Y-96534589D01*
X96076794Y-96534590D01*
X96127127Y-96621769D01*
X96129520Y-96625913D01*
X96204087Y-96700480D01*
X96295413Y-96753207D01*
X96397273Y-96780500D01*
X96397275Y-96780500D01*
X96502725Y-96780500D01*
X96502727Y-96780500D01*
X96604587Y-96753207D01*
X96695913Y-96700480D01*
X96770480Y-96625913D01*
X96823207Y-96534587D01*
X96850500Y-96432727D01*
X96850500Y-96327273D01*
X96823207Y-96225413D01*
X96770480Y-96134087D01*
X96695913Y-96059520D01*
X96604587Y-96006793D01*
X96502727Y-95979500D01*
X96397273Y-95979500D01*
X96295413Y-96006793D01*
X96295412Y-96006793D01*
X96295410Y-96006794D01*
X96295409Y-96006794D01*
X96204089Y-96059518D01*
X96129518Y-96134089D01*
X96076794Y-96225409D01*
X96076794Y-96225410D01*
X96076793Y-96225412D01*
X96076793Y-96225413D01*
X96049500Y-96327273D01*
X90963636Y-96327273D01*
X90955945Y-96227288D01*
X90956926Y-96203874D01*
X90963699Y-96162069D01*
X90964586Y-95909518D01*
X90972598Y-93627273D01*
X100869500Y-93627273D01*
X100869500Y-93732727D01*
X100896793Y-93834586D01*
X100896794Y-93834589D01*
X100896794Y-93834590D01*
X100946847Y-93921284D01*
X100949520Y-93925913D01*
X101024087Y-94000480D01*
X101115413Y-94053207D01*
X101217273Y-94080500D01*
X101217275Y-94080500D01*
X101322725Y-94080500D01*
X101322727Y-94080500D01*
X101424587Y-94053207D01*
X101515913Y-94000480D01*
X101539120Y-93977273D01*
X102249500Y-93977273D01*
X102249500Y-94082727D01*
X102276793Y-94184587D01*
X102276794Y-94184589D01*
X102276794Y-94184590D01*
X102329518Y-94275910D01*
X102329520Y-94275913D01*
X102404087Y-94350480D01*
X102495413Y-94403207D01*
X102597273Y-94430500D01*
X102597275Y-94430500D01*
X102702725Y-94430500D01*
X102702727Y-94430500D01*
X102804587Y-94403207D01*
X102895913Y-94350480D01*
X102970480Y-94275913D01*
X103023207Y-94184587D01*
X103050500Y-94082727D01*
X103050500Y-93977273D01*
X103023207Y-93875413D01*
X102970480Y-93784087D01*
X102895913Y-93709520D01*
X102804587Y-93656793D01*
X102702727Y-93629500D01*
X102597273Y-93629500D01*
X102495413Y-93656793D01*
X102495412Y-93656793D01*
X102495410Y-93656794D01*
X102495409Y-93656794D01*
X102404089Y-93709518D01*
X102329518Y-93784089D01*
X102276794Y-93875409D01*
X102276794Y-93875410D01*
X102276793Y-93875412D01*
X102276793Y-93875413D01*
X102249500Y-93977273D01*
X101539120Y-93977273D01*
X101590480Y-93925913D01*
X101643207Y-93834587D01*
X101670500Y-93732727D01*
X101670500Y-93627273D01*
X101643207Y-93525413D01*
X101590480Y-93434087D01*
X101515913Y-93359520D01*
X101424587Y-93306793D01*
X101322727Y-93279500D01*
X101217273Y-93279500D01*
X101115413Y-93306793D01*
X101115412Y-93306793D01*
X101115410Y-93306794D01*
X101115409Y-93306794D01*
X101024089Y-93359518D01*
X100949518Y-93434089D01*
X100896794Y-93525409D01*
X100896794Y-93525410D01*
X100896793Y-93525412D01*
X100896793Y-93525413D01*
X100869500Y-93627273D01*
X90972598Y-93627273D01*
X90972622Y-93620436D01*
X90972622Y-93620435D01*
X90977205Y-92314773D01*
X97674500Y-92314773D01*
X97674500Y-92420227D01*
X97701793Y-92522087D01*
X97701794Y-92522089D01*
X97701794Y-92522090D01*
X97754518Y-92613410D01*
X97754520Y-92613413D01*
X97829087Y-92687980D01*
X97920413Y-92740707D01*
X98022273Y-92768000D01*
X98022275Y-92768000D01*
X98127725Y-92768000D01*
X98127727Y-92768000D01*
X98229587Y-92740707D01*
X98320913Y-92687980D01*
X98395480Y-92613413D01*
X98448207Y-92522087D01*
X98475500Y-92420227D01*
X98475500Y-92420223D01*
X98476293Y-92414203D01*
X98502633Y-92358978D01*
X98556404Y-92329782D01*
X98574446Y-92328124D01*
X98620051Y-92328124D01*
X98620053Y-92328124D01*
X98721913Y-92300831D01*
X98813239Y-92248104D01*
X98887806Y-92173537D01*
X98940533Y-92082211D01*
X98967826Y-91980351D01*
X98967826Y-91874897D01*
X98940533Y-91773037D01*
X98937025Y-91766961D01*
X101336108Y-91766961D01*
X101336108Y-91872415D01*
X101361452Y-91967000D01*
X101363402Y-91974277D01*
X101363402Y-91974278D01*
X101405399Y-92047018D01*
X101416128Y-92065601D01*
X101490695Y-92140168D01*
X101582021Y-92192895D01*
X101683881Y-92220188D01*
X101683883Y-92220188D01*
X101789333Y-92220188D01*
X101789335Y-92220188D01*
X101891195Y-92192895D01*
X101982521Y-92140168D01*
X101998689Y-92124000D01*
X109294500Y-92124000D01*
X109294500Y-98776000D01*
X109297823Y-98806902D01*
X109299197Y-98819685D01*
X109310404Y-98871199D01*
X109312889Y-98881371D01*
X109312889Y-98881372D01*
X109312890Y-98881373D01*
X109355900Y-98962085D01*
X109401655Y-99014889D01*
X109401667Y-99014901D01*
X109419247Y-99032844D01*
X109419249Y-99032846D01*
X109499058Y-99077488D01*
X109499062Y-99077490D01*
X109537808Y-99088867D01*
X109566102Y-99097175D01*
X109624000Y-99105500D01*
X110184828Y-99105500D01*
X110243019Y-99124407D01*
X110278983Y-99173907D01*
X110281926Y-99223815D01*
X110273385Y-99266751D01*
X110273385Y-99906246D01*
X110273386Y-99906258D01*
X110285017Y-99964727D01*
X110285019Y-99964733D01*
X110329330Y-100031048D01*
X110329333Y-100031052D01*
X110395654Y-100075367D01*
X110440116Y-100084211D01*
X110454126Y-100086998D01*
X110454131Y-100086998D01*
X110454137Y-100087000D01*
X110454138Y-100087000D01*
X112193632Y-100087000D01*
X112193633Y-100087000D01*
X112252116Y-100075367D01*
X112318437Y-100031052D01*
X112362752Y-99964731D01*
X112374385Y-99906248D01*
X112374385Y-99266752D01*
X112362752Y-99208269D01*
X112318437Y-99141948D01*
X112318433Y-99141945D01*
X112314867Y-99138379D01*
X112287090Y-99083862D01*
X112296661Y-99023430D01*
X112315583Y-98997664D01*
X112332843Y-98980754D01*
X112332845Y-98980750D01*
X112332846Y-98980750D01*
X112377488Y-98900941D01*
X112377490Y-98900937D01*
X112383235Y-98881371D01*
X112397175Y-98833898D01*
X112405500Y-98776000D01*
X112405500Y-96855224D01*
X112403674Y-96827891D01*
X112399287Y-96795201D01*
X112370551Y-96714706D01*
X112370089Y-96713957D01*
X112333896Y-96655237D01*
X112333891Y-96655230D01*
X112333349Y-96654580D01*
X112296426Y-96610312D01*
X112288532Y-96603207D01*
X111438272Y-95837972D01*
X111407668Y-95784991D01*
X111405500Y-95764386D01*
X111405500Y-92124005D01*
X111405500Y-92124000D01*
X111400803Y-92080316D01*
X111389597Y-92028805D01*
X111387110Y-92018627D01*
X111344100Y-91937915D01*
X111298345Y-91885111D01*
X111280754Y-91867157D01*
X111280753Y-91867156D01*
X111280752Y-91867155D01*
X111280750Y-91867153D01*
X111200941Y-91822511D01*
X111200937Y-91822509D01*
X111133904Y-91802826D01*
X111133895Y-91802824D01*
X111087684Y-91796180D01*
X111076000Y-91794500D01*
X109624000Y-91794500D01*
X109592797Y-91797855D01*
X109580314Y-91799197D01*
X109528800Y-91810404D01*
X109518628Y-91812889D01*
X109437914Y-91855900D01*
X109385113Y-91901653D01*
X109385098Y-91901667D01*
X109367155Y-91919247D01*
X109367153Y-91919249D01*
X109322511Y-91999058D01*
X109322509Y-91999062D01*
X109302826Y-92066095D01*
X109302824Y-92066104D01*
X109300508Y-92082213D01*
X109294500Y-92124000D01*
X101998689Y-92124000D01*
X102057088Y-92065601D01*
X102109815Y-91974275D01*
X102137108Y-91872415D01*
X102137108Y-91766961D01*
X102109815Y-91665101D01*
X102057088Y-91573775D01*
X101982521Y-91499208D01*
X101891195Y-91446481D01*
X101789335Y-91419188D01*
X101683881Y-91419188D01*
X101582021Y-91446481D01*
X101582020Y-91446481D01*
X101582018Y-91446482D01*
X101582017Y-91446482D01*
X101490697Y-91499206D01*
X101416126Y-91573777D01*
X101363402Y-91665097D01*
X101363402Y-91665098D01*
X101363401Y-91665100D01*
X101363401Y-91665101D01*
X101336108Y-91766961D01*
X98937025Y-91766961D01*
X98926634Y-91748964D01*
X98887807Y-91681713D01*
X98887806Y-91681711D01*
X98813239Y-91607144D01*
X98721913Y-91554417D01*
X98620053Y-91527124D01*
X98514599Y-91527124D01*
X98412739Y-91554417D01*
X98412738Y-91554417D01*
X98412736Y-91554418D01*
X98412735Y-91554418D01*
X98321415Y-91607142D01*
X98246844Y-91681713D01*
X98194120Y-91773033D01*
X98194120Y-91773034D01*
X98166825Y-91874900D01*
X98166033Y-91880921D01*
X98139693Y-91936146D01*
X98085922Y-91965342D01*
X98067880Y-91967000D01*
X98022273Y-91967000D01*
X97920413Y-91994293D01*
X97920412Y-91994293D01*
X97920410Y-91994294D01*
X97920409Y-91994294D01*
X97829089Y-92047018D01*
X97754518Y-92121589D01*
X97701794Y-92212909D01*
X97701794Y-92212910D01*
X97701793Y-92212912D01*
X97701793Y-92212913D01*
X97674500Y-92314773D01*
X90977205Y-92314773D01*
X90977229Y-92307937D01*
X90978926Y-91824356D01*
X90998037Y-91766232D01*
X91014170Y-91748964D01*
X91094062Y-91681713D01*
X91678260Y-91189952D01*
X91716377Y-91147519D01*
X91746776Y-91102375D01*
X91761469Y-91076756D01*
X91781820Y-90987593D01*
X91781820Y-90930306D01*
X91800727Y-90872115D01*
X91850227Y-90836151D01*
X91904621Y-90834210D01*
X91931924Y-90840973D01*
X91968334Y-90846589D01*
X92058605Y-90831920D01*
X92115300Y-90808913D01*
X92170366Y-90775710D01*
X92172253Y-90774120D01*
X92186147Y-90764330D01*
X92858729Y-90372273D01*
X108429500Y-90372273D01*
X108429500Y-90477727D01*
X108448737Y-90549520D01*
X108456794Y-90579589D01*
X108456794Y-90579590D01*
X108482485Y-90624087D01*
X108509520Y-90670913D01*
X108584087Y-90745480D01*
X108675413Y-90798207D01*
X108777273Y-90825500D01*
X108777275Y-90825500D01*
X108882725Y-90825500D01*
X108882727Y-90825500D01*
X108913431Y-90817273D01*
X110159500Y-90817273D01*
X110159500Y-90922727D01*
X110176881Y-90987593D01*
X110186794Y-91024589D01*
X110186794Y-91024590D01*
X110216914Y-91076759D01*
X110239520Y-91115913D01*
X110314087Y-91190480D01*
X110405413Y-91243207D01*
X110507273Y-91270500D01*
X110507275Y-91270500D01*
X110612725Y-91270500D01*
X110612727Y-91270500D01*
X110714587Y-91243207D01*
X110805913Y-91190480D01*
X110880480Y-91115913D01*
X110933207Y-91024587D01*
X110960500Y-90922727D01*
X110960500Y-90817273D01*
X110933207Y-90715413D01*
X110880480Y-90624087D01*
X110805913Y-90549520D01*
X110714587Y-90496793D01*
X110612727Y-90469500D01*
X110507273Y-90469500D01*
X110405413Y-90496793D01*
X110405412Y-90496793D01*
X110405410Y-90496794D01*
X110405409Y-90496794D01*
X110314089Y-90549518D01*
X110239518Y-90624089D01*
X110186794Y-90715409D01*
X110186794Y-90715410D01*
X110186793Y-90715412D01*
X110186793Y-90715413D01*
X110159500Y-90817273D01*
X108913431Y-90817273D01*
X108984587Y-90798207D01*
X109075913Y-90745480D01*
X109150480Y-90670913D01*
X109203207Y-90579587D01*
X109230500Y-90477727D01*
X109230500Y-90372273D01*
X109203207Y-90270413D01*
X109150480Y-90179087D01*
X109075913Y-90104520D01*
X108984587Y-90051793D01*
X108882727Y-90024500D01*
X108777273Y-90024500D01*
X108675413Y-90051793D01*
X108675412Y-90051793D01*
X108675410Y-90051794D01*
X108675409Y-90051794D01*
X108584089Y-90104518D01*
X108509518Y-90179089D01*
X108456794Y-90270409D01*
X108456794Y-90270410D01*
X108456793Y-90270412D01*
X108456793Y-90270413D01*
X108429500Y-90372273D01*
X92858729Y-90372273D01*
X93739976Y-89858582D01*
X93739977Y-89858581D01*
X93743115Y-89856752D01*
X93743122Y-89856748D01*
X93743175Y-89856717D01*
X93743176Y-89856716D01*
X93744466Y-89855965D01*
X93744503Y-89855943D01*
X94082414Y-89658970D01*
X94132270Y-89645500D01*
X95946558Y-89645500D01*
X95948655Y-89645488D01*
X95949246Y-89645481D01*
X95950729Y-89645466D01*
X96016137Y-89634046D01*
X96073919Y-89613923D01*
X96107490Y-89598734D01*
X96175085Y-89537129D01*
X96210002Y-89486885D01*
X96237981Y-89429001D01*
X96532506Y-88453385D01*
X96539070Y-88424016D01*
X96543295Y-88395405D01*
X96545500Y-88365384D01*
X96545500Y-87619000D01*
X96543096Y-87588468D01*
X96550337Y-87558305D01*
X96557305Y-87529097D01*
X96557360Y-87529049D01*
X96557378Y-87528976D01*
X96603771Y-87489294D01*
X96631909Y-87477590D01*
X96669927Y-87470000D01*
X96810500Y-87470000D01*
X96868691Y-87488907D01*
X96904655Y-87538407D01*
X96909500Y-87569000D01*
X96909500Y-87869746D01*
X96909501Y-87869758D01*
X96921132Y-87928227D01*
X96921134Y-87928233D01*
X96947862Y-87968233D01*
X96965448Y-87994552D01*
X97031769Y-88038867D01*
X97076231Y-88047711D01*
X97090241Y-88050498D01*
X97090246Y-88050498D01*
X97090252Y-88050500D01*
X97090253Y-88050500D01*
X97249747Y-88050500D01*
X97249748Y-88050500D01*
X97308231Y-88038867D01*
X97374552Y-87994552D01*
X97418867Y-87928231D01*
X97430500Y-87869748D01*
X97430500Y-87569000D01*
X97449407Y-87510809D01*
X97498907Y-87474845D01*
X97529500Y-87470000D01*
X97852599Y-87470000D01*
X97856530Y-87471277D01*
X97860552Y-87470320D01*
X97877050Y-87477944D01*
X97910790Y-87488907D01*
X97917036Y-87493841D01*
X97919923Y-87496316D01*
X97974087Y-87550480D01*
X98001683Y-87566412D01*
X98008659Y-87572393D01*
X98020040Y-87591044D01*
X98034663Y-87607284D01*
X98036295Y-87617683D01*
X98040530Y-87624622D01*
X98039463Y-87637855D01*
X98042652Y-87658161D01*
X97880664Y-89161052D01*
X97877862Y-89176063D01*
X97869500Y-89207273D01*
X97869500Y-89312727D01*
X97896793Y-89414587D01*
X97896794Y-89414589D01*
X97896794Y-89414590D01*
X97949518Y-89505910D01*
X97949520Y-89505913D01*
X98024087Y-89580480D01*
X98115413Y-89633207D01*
X98217273Y-89660500D01*
X98217275Y-89660500D01*
X98322725Y-89660500D01*
X98322727Y-89660500D01*
X98424587Y-89633207D01*
X98515913Y-89580480D01*
X98590480Y-89505913D01*
X98643207Y-89414587D01*
X98643208Y-89414582D01*
X98643380Y-89414285D01*
X98688849Y-89373343D01*
X98749699Y-89366947D01*
X98802688Y-89397539D01*
X98821538Y-89428296D01*
X98833793Y-89460213D01*
X98833794Y-89460215D01*
X98862015Y-89510626D01*
X98862550Y-89511582D01*
X98896110Y-89555357D01*
X98896709Y-89556138D01*
X98898891Y-89558574D01*
X98917636Y-89579500D01*
X98996101Y-89626483D01*
X99054273Y-89645446D01*
X99054278Y-89645446D01*
X99054279Y-89645447D01*
X99054612Y-89645500D01*
X99117767Y-89655565D01*
X100946085Y-89657317D01*
X100948364Y-89657306D01*
X100950535Y-89657284D01*
X101016040Y-89645863D01*
X101073821Y-89625740D01*
X101107387Y-89610553D01*
X101174983Y-89548950D01*
X101209901Y-89498707D01*
X101237883Y-89440820D01*
X101441363Y-88766794D01*
X101532384Y-88465290D01*
X101532385Y-88465283D01*
X101532388Y-88465275D01*
X101538953Y-88435904D01*
X101543178Y-88407292D01*
X101545382Y-88377272D01*
X101545382Y-87630521D01*
X101542911Y-87598748D01*
X101541537Y-87589970D01*
X101541685Y-87589044D01*
X101541276Y-87588200D01*
X101546510Y-87558921D01*
X101551214Y-87529556D01*
X101551878Y-87528893D01*
X101552044Y-87527970D01*
X101573501Y-87507347D01*
X101594555Y-87486368D01*
X101596158Y-87485572D01*
X101600340Y-87483544D01*
X101600346Y-87483543D01*
X101607826Y-87479915D01*
X101651012Y-87470000D01*
X101770500Y-87470000D01*
X101828691Y-87488907D01*
X101864655Y-87538407D01*
X101869500Y-87569000D01*
X101869500Y-87909746D01*
X101869501Y-87909758D01*
X101881132Y-87968227D01*
X101881134Y-87968233D01*
X101913902Y-88017273D01*
X101925448Y-88034552D01*
X101991769Y-88078867D01*
X102036231Y-88087711D01*
X102050241Y-88090498D01*
X102050246Y-88090498D01*
X102050252Y-88090500D01*
X102050253Y-88090500D01*
X102209747Y-88090500D01*
X102209748Y-88090500D01*
X102268231Y-88078867D01*
X102334552Y-88034552D01*
X102378867Y-87968231D01*
X102390500Y-87909748D01*
X102390500Y-87579500D01*
X102409407Y-87521309D01*
X102458907Y-87485345D01*
X102489500Y-87480500D01*
X102863525Y-87480500D01*
X102921716Y-87499407D01*
X102927581Y-87504016D01*
X102937521Y-87512451D01*
X102939520Y-87515913D01*
X103014087Y-87590480D01*
X103062213Y-87618265D01*
X103069026Y-87624047D01*
X103080628Y-87642846D01*
X103095411Y-87659264D01*
X103096537Y-87668622D01*
X103101161Y-87676114D01*
X103099726Y-87695114D01*
X103102383Y-87717187D01*
X102855657Y-89078440D01*
X102848141Y-89098954D01*
X102849274Y-89099423D01*
X102846792Y-89105413D01*
X102820964Y-89201810D01*
X102819500Y-89207273D01*
X102819500Y-89312727D01*
X102846793Y-89414587D01*
X102846794Y-89414589D01*
X102846794Y-89414590D01*
X102899518Y-89505910D01*
X102899520Y-89505913D01*
X102974087Y-89580480D01*
X103065413Y-89633207D01*
X103167273Y-89660500D01*
X103167275Y-89660500D01*
X103272725Y-89660500D01*
X103272727Y-89660500D01*
X103374587Y-89633207D01*
X103465913Y-89580480D01*
X103540480Y-89505913D01*
X103593207Y-89414587D01*
X103602298Y-89380658D01*
X103635620Y-89329345D01*
X103692742Y-89307418D01*
X103751842Y-89323253D01*
X103790348Y-89370803D01*
X103790524Y-89371265D01*
X103823740Y-89459105D01*
X103823742Y-89459109D01*
X103823744Y-89459113D01*
X103839108Y-89486887D01*
X103852239Y-89510626D01*
X103852238Y-89510626D01*
X103852240Y-89510629D01*
X103852241Y-89510630D01*
X103886170Y-89555354D01*
X103889025Y-89558574D01*
X103906986Y-89578831D01*
X103985213Y-89626209D01*
X103985215Y-89626209D01*
X103985216Y-89626210D01*
X104043293Y-89645466D01*
X104106732Y-89655904D01*
X105944662Y-89666939D01*
X105947398Y-89666937D01*
X105947473Y-89666937D01*
X105950036Y-89666917D01*
X105950105Y-89666917D01*
X106016152Y-89655491D01*
X106073934Y-89635368D01*
X106107505Y-89620179D01*
X106175100Y-89558574D01*
X106210017Y-89508330D01*
X106237996Y-89450446D01*
X106347634Y-89087273D01*
X108074500Y-89087273D01*
X108074500Y-89192727D01*
X108096603Y-89275217D01*
X108101794Y-89294589D01*
X108101794Y-89294590D01*
X108151487Y-89380660D01*
X108154520Y-89385913D01*
X108229087Y-89460480D01*
X108320413Y-89513207D01*
X108422273Y-89540500D01*
X108422275Y-89540500D01*
X108527725Y-89540500D01*
X108527727Y-89540500D01*
X108629587Y-89513207D01*
X108720913Y-89460480D01*
X108764120Y-89417273D01*
X109459500Y-89417273D01*
X109459500Y-89522727D01*
X109486793Y-89624587D01*
X109486794Y-89624589D01*
X109486794Y-89624590D01*
X109539518Y-89715910D01*
X109539520Y-89715913D01*
X109614087Y-89790480D01*
X109705413Y-89843207D01*
X109807273Y-89870500D01*
X109807275Y-89870500D01*
X109912725Y-89870500D01*
X109912727Y-89870500D01*
X110014587Y-89843207D01*
X110105913Y-89790480D01*
X110139998Y-89756394D01*
X110194513Y-89728619D01*
X110254945Y-89738190D01*
X110280000Y-89756393D01*
X110314087Y-89790480D01*
X110405413Y-89843207D01*
X110507273Y-89870500D01*
X110507275Y-89870500D01*
X110612725Y-89870500D01*
X110612727Y-89870500D01*
X110714587Y-89843207D01*
X110805913Y-89790480D01*
X110880480Y-89715913D01*
X110933207Y-89624587D01*
X110960500Y-89522727D01*
X110960500Y-89417273D01*
X110933207Y-89315413D01*
X110931656Y-89312727D01*
X110880481Y-89224089D01*
X110880480Y-89224087D01*
X110805913Y-89149520D01*
X110729517Y-89105413D01*
X110714589Y-89096794D01*
X110714588Y-89096793D01*
X110714587Y-89096793D01*
X110612727Y-89069500D01*
X110507273Y-89069500D01*
X110405413Y-89096793D01*
X110405412Y-89096793D01*
X110405410Y-89096794D01*
X110405409Y-89096794D01*
X110314089Y-89149518D01*
X110314087Y-89149519D01*
X110314087Y-89149520D01*
X110280001Y-89183605D01*
X110225487Y-89211381D01*
X110165055Y-89201810D01*
X110139999Y-89183606D01*
X110105913Y-89149520D01*
X110029517Y-89105413D01*
X110014589Y-89096794D01*
X110014588Y-89096793D01*
X110014587Y-89096793D01*
X109912727Y-89069500D01*
X109807273Y-89069500D01*
X109705413Y-89096793D01*
X109705412Y-89096793D01*
X109705410Y-89096794D01*
X109705409Y-89096794D01*
X109614089Y-89149518D01*
X109539518Y-89224089D01*
X109486794Y-89315409D01*
X109486794Y-89315410D01*
X109486793Y-89315412D01*
X109486793Y-89315413D01*
X109459500Y-89417273D01*
X108764120Y-89417273D01*
X108795480Y-89385913D01*
X108848207Y-89294587D01*
X108875500Y-89192727D01*
X108875500Y-89087273D01*
X108848207Y-88985413D01*
X108842327Y-88975229D01*
X108795481Y-88894089D01*
X108795480Y-88894087D01*
X108720913Y-88819520D01*
X108629587Y-88766793D01*
X108527727Y-88739500D01*
X108422273Y-88739500D01*
X108320413Y-88766793D01*
X108320412Y-88766793D01*
X108320410Y-88766794D01*
X108320409Y-88766794D01*
X108229089Y-88819518D01*
X108154518Y-88894089D01*
X108101794Y-88985409D01*
X108101794Y-88985410D01*
X108101793Y-88985412D01*
X108101793Y-88985413D01*
X108074500Y-89087273D01*
X106347634Y-89087273D01*
X106377439Y-88988543D01*
X106532386Y-88475280D01*
X106532388Y-88475273D01*
X106538952Y-88445904D01*
X106543177Y-88417293D01*
X106545382Y-88387272D01*
X106545382Y-87640521D01*
X106542911Y-87608748D01*
X106542006Y-87602968D01*
X106538177Y-87578498D01*
X106537482Y-87574339D01*
X106536413Y-87570662D01*
X106538324Y-87509506D01*
X106575815Y-87461153D01*
X106591391Y-87452503D01*
X106598497Y-87449355D01*
X106620346Y-87443543D01*
X106675401Y-87416847D01*
X106685168Y-87410975D01*
X106690806Y-87408479D01*
X106705957Y-87406917D01*
X106730892Y-87400000D01*
X106750000Y-87400000D01*
X106820500Y-87400000D01*
X106878691Y-87418907D01*
X106914655Y-87468407D01*
X106919500Y-87499000D01*
X106919500Y-87879746D01*
X106919501Y-87879758D01*
X106931132Y-87938227D01*
X106931134Y-87938233D01*
X106951180Y-87968233D01*
X106975448Y-88004552D01*
X107041769Y-88048867D01*
X107086231Y-88057711D01*
X107100241Y-88060498D01*
X107100246Y-88060498D01*
X107100252Y-88060500D01*
X107100253Y-88060500D01*
X107259747Y-88060500D01*
X107259748Y-88060500D01*
X107318231Y-88048867D01*
X107365514Y-88017273D01*
X109459500Y-88017273D01*
X109459500Y-88122727D01*
X109486793Y-88224587D01*
X109486794Y-88224589D01*
X109486794Y-88224590D01*
X109539518Y-88315910D01*
X109539520Y-88315913D01*
X109614087Y-88390480D01*
X109705413Y-88443207D01*
X109807273Y-88470500D01*
X109807275Y-88470500D01*
X109912725Y-88470500D01*
X109912727Y-88470500D01*
X110014587Y-88443207D01*
X110105913Y-88390480D01*
X110139998Y-88356394D01*
X110194513Y-88328619D01*
X110254945Y-88338190D01*
X110280000Y-88356393D01*
X110314087Y-88390480D01*
X110405413Y-88443207D01*
X110507273Y-88470500D01*
X110507275Y-88470500D01*
X110612725Y-88470500D01*
X110612727Y-88470500D01*
X110714587Y-88443207D01*
X110805913Y-88390480D01*
X110880480Y-88315913D01*
X110933207Y-88224587D01*
X110960500Y-88122727D01*
X110960500Y-88017273D01*
X110933207Y-87915413D01*
X110929936Y-87909748D01*
X110880481Y-87824089D01*
X110880480Y-87824087D01*
X110805913Y-87749520D01*
X110755879Y-87720633D01*
X110714589Y-87696794D01*
X110714588Y-87696793D01*
X110714587Y-87696793D01*
X110612727Y-87669500D01*
X110507273Y-87669500D01*
X110405413Y-87696793D01*
X110405412Y-87696793D01*
X110405410Y-87696794D01*
X110405409Y-87696794D01*
X110314089Y-87749518D01*
X110314087Y-87749519D01*
X110314087Y-87749520D01*
X110280001Y-87783605D01*
X110225487Y-87811381D01*
X110165055Y-87801810D01*
X110139999Y-87783606D01*
X110105913Y-87749520D01*
X110055879Y-87720633D01*
X110014589Y-87696794D01*
X110014588Y-87696793D01*
X110014587Y-87696793D01*
X109912727Y-87669500D01*
X109807273Y-87669500D01*
X109705413Y-87696793D01*
X109705412Y-87696793D01*
X109705410Y-87696794D01*
X109705409Y-87696794D01*
X109614089Y-87749518D01*
X109539518Y-87824089D01*
X109486794Y-87915409D01*
X109486794Y-87915410D01*
X109486793Y-87915412D01*
X109486793Y-87915413D01*
X109459500Y-88017273D01*
X107365514Y-88017273D01*
X107384552Y-88004552D01*
X107428867Y-87938231D01*
X107440500Y-87879748D01*
X107440500Y-87539500D01*
X107459407Y-87481309D01*
X107508907Y-87445345D01*
X107539500Y-87440500D01*
X108047596Y-87440500D01*
X108097094Y-87453763D01*
X108165413Y-87493207D01*
X108267273Y-87520500D01*
X108267275Y-87520500D01*
X108372725Y-87520500D01*
X108372727Y-87520500D01*
X108474587Y-87493207D01*
X108565913Y-87440480D01*
X108640480Y-87365913D01*
X108693207Y-87274587D01*
X108720500Y-87172727D01*
X108720500Y-87067273D01*
X108693207Y-86965413D01*
X108648362Y-86887740D01*
X108635641Y-86827893D01*
X108648363Y-86788741D01*
X108670669Y-86750105D01*
X108670671Y-86750102D01*
X108697964Y-86648242D01*
X108697964Y-86542788D01*
X108670671Y-86440928D01*
X108617944Y-86349602D01*
X108614700Y-86343983D01*
X108616376Y-86343014D01*
X108609828Y-86322860D01*
X108600034Y-86295188D01*
X108600000Y-86292611D01*
X108600000Y-86211184D01*
X108618907Y-86152993D01*
X108654723Y-86122638D01*
X109289863Y-85805067D01*
X109350363Y-85795955D01*
X109390309Y-85812097D01*
G37*
%TD.AperFunction*%
%TD*%
%TA.AperFunction,Conductor*%
%TO.N,+3.3V*%
G36*
X103068047Y-98828907D02*
G01*
X103104011Y-98878407D01*
X103108849Y-98910138D01*
X103101110Y-99583417D01*
X103081536Y-99641386D01*
X103031625Y-99676779D01*
X103003420Y-99681270D01*
X102566509Y-99687019D01*
X102508074Y-99668879D01*
X102497376Y-99659864D01*
X102495915Y-99658743D01*
X102404589Y-99606016D01*
X102404588Y-99606015D01*
X102404587Y-99606015D01*
X102302727Y-99578722D01*
X102197273Y-99578722D01*
X102195422Y-99578722D01*
X102195054Y-99578874D01*
X102194423Y-99578722D01*
X102190785Y-99578722D01*
X102190785Y-99577846D01*
X102167726Y-99572295D01*
X102140097Y-99567170D01*
X102135568Y-99564553D01*
X102123351Y-99557056D01*
X102092816Y-99527679D01*
X102044554Y-99455451D01*
X102044552Y-99455448D01*
X101984228Y-99415140D01*
X101978233Y-99411134D01*
X101978231Y-99411133D01*
X101978228Y-99411132D01*
X101978227Y-99411132D01*
X101919758Y-99399501D01*
X101919748Y-99399500D01*
X101919747Y-99399500D01*
X101199500Y-99399500D01*
X101184588Y-99394655D01*
X101168907Y-99394655D01*
X101156221Y-99385438D01*
X101141309Y-99380593D01*
X101132092Y-99367907D01*
X101119407Y-99358691D01*
X101114561Y-99343778D01*
X101105345Y-99331093D01*
X101100500Y-99300500D01*
X101100500Y-99197763D01*
X101119407Y-99139572D01*
X101168907Y-99103608D01*
X101198258Y-99098771D01*
X101900000Y-99090000D01*
X102295060Y-98826627D01*
X102349975Y-98810000D01*
X103009856Y-98810000D01*
X103068047Y-98828907D01*
G37*
%TD.AperFunction*%
%TD*%
%TA.AperFunction,Conductor*%
%TO.N,VBAT+*%
G36*
X101241251Y-87531522D02*
G01*
X101299369Y-87550644D01*
X101335149Y-87600277D01*
X101339882Y-87630521D01*
X101339882Y-88377272D01*
X101335657Y-88405884D01*
X101041152Y-89381429D01*
X101006234Y-89431672D01*
X100948453Y-89451795D01*
X100946282Y-89451817D01*
X99117964Y-89450065D01*
X99059792Y-89431102D01*
X99025638Y-89386552D01*
X98646461Y-88399022D01*
X98639882Y-88363535D01*
X98639882Y-87621255D01*
X98658789Y-87563064D01*
X98708289Y-87527100D01*
X98739248Y-87522256D01*
X101241251Y-87531522D01*
G37*
%TD.AperFunction*%
%TD*%
%TA.AperFunction,Conductor*%
%TO.N,VBAT+*%
G36*
X106241251Y-87541522D02*
G01*
X106299369Y-87560644D01*
X106335149Y-87610277D01*
X106339882Y-87640521D01*
X106339882Y-88387272D01*
X106335657Y-88415883D01*
X106041265Y-89391056D01*
X106006348Y-89441300D01*
X105948566Y-89461423D01*
X105945896Y-89461443D01*
X104107966Y-89450408D01*
X104049889Y-89431152D01*
X104015960Y-89386428D01*
X103646281Y-88408810D01*
X103639882Y-88373794D01*
X103639882Y-87631255D01*
X103658789Y-87573064D01*
X103708289Y-87537100D01*
X103739248Y-87532256D01*
X106241251Y-87541522D01*
G37*
%TD.AperFunction*%
%TD*%
%TA.AperFunction,Conductor*%
%TO.N,Net-(Q2-S2)*%
G36*
X102498781Y-85468907D02*
G01*
X102510594Y-85478996D01*
X102620504Y-85588906D01*
X102648281Y-85643423D01*
X102649500Y-85658910D01*
X102649500Y-85761817D01*
X102689159Y-85857561D01*
X102717815Y-85886217D01*
X102745591Y-85940734D01*
X102746792Y-85958105D01*
X102734712Y-86592385D01*
X102729885Y-86606331D01*
X102729885Y-86621093D01*
X102720127Y-86634522D01*
X102714700Y-86650205D01*
X102702597Y-86658650D01*
X102693921Y-86670593D01*
X102678133Y-86675722D01*
X102664524Y-86685220D01*
X102635730Y-86689500D01*
X102489500Y-86689500D01*
X102431309Y-86670593D01*
X102395345Y-86621093D01*
X102390500Y-86590500D01*
X102390500Y-86270253D01*
X102390498Y-86270241D01*
X102385836Y-86246807D01*
X102378867Y-86211769D01*
X102334552Y-86145448D01*
X102334548Y-86145445D01*
X102268233Y-86101134D01*
X102268231Y-86101133D01*
X102268228Y-86101132D01*
X102268227Y-86101132D01*
X102209758Y-86089501D01*
X102209748Y-86089500D01*
X102050252Y-86089500D01*
X102050251Y-86089500D01*
X102050241Y-86089501D01*
X101991772Y-86101132D01*
X101991766Y-86101134D01*
X101925451Y-86145445D01*
X101925445Y-86145451D01*
X101881134Y-86211766D01*
X101881132Y-86211772D01*
X101869501Y-86270241D01*
X101869500Y-86270253D01*
X101869500Y-86601000D01*
X101850593Y-86659191D01*
X101801093Y-86695155D01*
X101770500Y-86700000D01*
X101687148Y-86700000D01*
X101594588Y-87217982D01*
X101565740Y-87271939D01*
X101510685Y-87298635D01*
X101497114Y-87299567D01*
X98719482Y-87299057D01*
X98711044Y-87296313D01*
X98702256Y-87297544D01*
X98682535Y-87287044D01*
X98661295Y-87280139D01*
X98656081Y-87272960D01*
X98648248Y-87268790D01*
X98642234Y-87253894D01*
X98625340Y-87230632D01*
X98621456Y-87213782D01*
X98620500Y-87206952D01*
X98620500Y-87177273D01*
X98611799Y-87144802D01*
X98610956Y-87138776D01*
X98611443Y-87136018D01*
X98610000Y-87125051D01*
X98610000Y-86940592D01*
X98623263Y-86891092D01*
X98673207Y-86804587D01*
X98700500Y-86702727D01*
X98700500Y-86629000D01*
X98719407Y-86570809D01*
X98768907Y-86534845D01*
X98799500Y-86530000D01*
X99299999Y-86530000D01*
X99300000Y-86530000D01*
X99300000Y-86296309D01*
X99313265Y-86246807D01*
X99323205Y-86229590D01*
X99323204Y-86229590D01*
X99323207Y-86229587D01*
X99350500Y-86127727D01*
X99350500Y-86022273D01*
X99323207Y-85920413D01*
X99321097Y-85916758D01*
X99313262Y-85903186D01*
X99300000Y-85853689D01*
X99300000Y-85549000D01*
X99318907Y-85490809D01*
X99368407Y-85454845D01*
X99399000Y-85450000D01*
X102440590Y-85450000D01*
X102498781Y-85468907D01*
G37*
%TD.AperFunction*%
%TD*%
%TA.AperFunction,Conductor*%
%TO.N,VBAT+*%
G36*
X111143039Y-92019685D02*
G01*
X111188794Y-92072489D01*
X111200000Y-92124000D01*
X111200000Y-95900000D01*
X112158954Y-96763059D01*
X112195613Y-96822534D01*
X112200000Y-96855224D01*
X112200000Y-98776000D01*
X112180315Y-98843039D01*
X112127511Y-98888794D01*
X112076000Y-98900000D01*
X109624000Y-98900000D01*
X109556961Y-98880315D01*
X109511206Y-98827511D01*
X109500000Y-98776000D01*
X109500000Y-92124000D01*
X109519685Y-92056961D01*
X109572489Y-92011206D01*
X109624000Y-92000000D01*
X111076000Y-92000000D01*
X111143039Y-92019685D01*
G37*
%TD.AperFunction*%
%TD*%
%TA.AperFunction,Conductor*%
%TO.N,Net-(Q1-S2)*%
G36*
X97723758Y-85488907D02*
G01*
X97759722Y-85538407D01*
X97764549Y-85570885D01*
X97746045Y-86542385D01*
X97741218Y-86556331D01*
X97741218Y-86571093D01*
X97731460Y-86584522D01*
X97726033Y-86600205D01*
X97713930Y-86608650D01*
X97705254Y-86620593D01*
X97689466Y-86625722D01*
X97675857Y-86635220D01*
X97647063Y-86639500D01*
X97529500Y-86639500D01*
X97471309Y-86620593D01*
X97435345Y-86571093D01*
X97430500Y-86540500D01*
X97430500Y-86230253D01*
X97430498Y-86230241D01*
X97427711Y-86216231D01*
X97418867Y-86171769D01*
X97374552Y-86105448D01*
X97374548Y-86105445D01*
X97308233Y-86061134D01*
X97308231Y-86061133D01*
X97308228Y-86061132D01*
X97308227Y-86061132D01*
X97249758Y-86049501D01*
X97249748Y-86049500D01*
X97090252Y-86049500D01*
X97090251Y-86049500D01*
X97090241Y-86049501D01*
X97031772Y-86061132D01*
X97031766Y-86061134D01*
X96965451Y-86105445D01*
X96965445Y-86105451D01*
X96921134Y-86171766D01*
X96921132Y-86171772D01*
X96909501Y-86230241D01*
X96909500Y-86230253D01*
X96909500Y-86621000D01*
X96890593Y-86679191D01*
X96841093Y-86715155D01*
X96810500Y-86720000D01*
X96697148Y-86720000D01*
X96608128Y-87218169D01*
X96579280Y-87272126D01*
X96537114Y-87296157D01*
X96525151Y-87299472D01*
X96500000Y-87300000D01*
X96500000Y-87306443D01*
X96465676Y-87315957D01*
X96460413Y-87315726D01*
X96455743Y-87318168D01*
X96439216Y-87319554D01*
X93738982Y-87319058D01*
X93680795Y-87300140D01*
X93644840Y-87250633D01*
X93640000Y-87220058D01*
X93640000Y-86649000D01*
X93658907Y-86590809D01*
X93708407Y-86554845D01*
X93739000Y-86550000D01*
X94309999Y-86550000D01*
X94310000Y-86550000D01*
X94310000Y-86278989D01*
X94321541Y-86235923D01*
X94320723Y-86235585D01*
X94323205Y-86229592D01*
X94323205Y-86229589D01*
X94323207Y-86229587D01*
X94350500Y-86127727D01*
X94350500Y-86022273D01*
X94323207Y-85920413D01*
X94323201Y-85920403D01*
X94320724Y-85914420D01*
X94321538Y-85914082D01*
X94310000Y-85871011D01*
X94310000Y-85569000D01*
X94328907Y-85510809D01*
X94378407Y-85474845D01*
X94409000Y-85470000D01*
X97665567Y-85470000D01*
X97723758Y-85488907D01*
G37*
%TD.AperFunction*%
%TD*%
%TA.AperFunction,Conductor*%
%TO.N,Net-(Q3-S2)*%
G36*
X104932275Y-85410415D02*
G01*
X104932280Y-85410335D01*
X104935118Y-85410498D01*
X104935135Y-85410500D01*
X105459864Y-85410499D01*
X105459867Y-85410498D01*
X105462714Y-85410334D01*
X105462718Y-85410413D01*
X105469887Y-85410000D01*
X107570590Y-85410000D01*
X107578187Y-85412468D01*
X107586077Y-85411219D01*
X107606732Y-85421743D01*
X107628781Y-85428907D01*
X107640594Y-85438996D01*
X107743608Y-85542010D01*
X107771385Y-85596527D01*
X107772586Y-85613899D01*
X107754702Y-86552885D01*
X107734690Y-86610705D01*
X107684514Y-86645720D01*
X107655720Y-86650000D01*
X107539500Y-86650000D01*
X107481309Y-86631093D01*
X107445345Y-86581593D01*
X107440500Y-86551000D01*
X107440500Y-86240253D01*
X107440498Y-86240241D01*
X107437291Y-86224119D01*
X107428867Y-86181769D01*
X107384552Y-86115448D01*
X107384548Y-86115445D01*
X107318233Y-86071134D01*
X107318231Y-86071133D01*
X107318228Y-86071132D01*
X107318227Y-86071132D01*
X107259758Y-86059501D01*
X107259748Y-86059500D01*
X107100252Y-86059500D01*
X107100251Y-86059500D01*
X107100241Y-86059501D01*
X107041772Y-86071132D01*
X107041766Y-86071134D01*
X106975451Y-86115445D01*
X106975445Y-86115451D01*
X106931134Y-86181766D01*
X106931132Y-86181772D01*
X106919501Y-86240241D01*
X106919500Y-86240253D01*
X106919500Y-86551000D01*
X106915888Y-86562116D01*
X106916847Y-86573767D01*
X106906655Y-86590531D01*
X106900593Y-86609191D01*
X106891135Y-86616062D01*
X106885064Y-86626050D01*
X106869381Y-86631867D01*
X106851093Y-86645155D01*
X106828620Y-86649666D01*
X106824561Y-86650000D01*
X106750000Y-86650000D01*
X106750000Y-86656136D01*
X106707593Y-86659626D01*
X106707147Y-86659999D01*
X106614588Y-87177982D01*
X106585740Y-87231939D01*
X106530685Y-87258635D01*
X106517114Y-87259567D01*
X103747643Y-87259058D01*
X103745080Y-87258224D01*
X103742479Y-87258922D01*
X103716214Y-87248839D01*
X103689456Y-87240140D01*
X103687873Y-87237960D01*
X103685358Y-87236995D01*
X103670032Y-87213394D01*
X103653501Y-87190633D01*
X103652042Y-87185707D01*
X103633372Y-87116031D01*
X103630000Y-87090412D01*
X103630000Y-86852267D01*
X103633373Y-86826644D01*
X103650500Y-86762726D01*
X103650500Y-86657274D01*
X103650500Y-86657273D01*
X103639072Y-86614622D01*
X103642275Y-86553521D01*
X103680781Y-86505971D01*
X103734699Y-86490000D01*
X104319999Y-86490000D01*
X104320000Y-86490000D01*
X104320000Y-86254589D01*
X104323373Y-86228966D01*
X104324672Y-86224119D01*
X104350500Y-86127727D01*
X104350500Y-86022273D01*
X104323372Y-85921030D01*
X104320000Y-85895412D01*
X104320000Y-85509499D01*
X104338907Y-85451308D01*
X104388407Y-85415344D01*
X104418997Y-85410499D01*
X104644864Y-85410499D01*
X104644866Y-85410498D01*
X104647714Y-85410334D01*
X104647718Y-85410413D01*
X104654887Y-85410000D01*
X104925103Y-85410000D01*
X104932275Y-85410415D01*
G37*
%TD.AperFunction*%
%TD*%
%TA.AperFunction,Conductor*%
%TO.N,VBAT+*%
G36*
X91606226Y-87533262D02*
G01*
X91675413Y-87573207D01*
X91777273Y-87600500D01*
X91777275Y-87600500D01*
X91882725Y-87600500D01*
X91882727Y-87600500D01*
X91984587Y-87573207D01*
X92053773Y-87533262D01*
X92103271Y-87520000D01*
X96241000Y-87520000D01*
X96299191Y-87538907D01*
X96335155Y-87588407D01*
X96340000Y-87619000D01*
X96340000Y-88365384D01*
X96335775Y-88393995D01*
X96311895Y-88473099D01*
X96048804Y-89344589D01*
X96041250Y-89369611D01*
X96006333Y-89419855D01*
X95948551Y-89439978D01*
X95946475Y-89440000D01*
X94050000Y-89440000D01*
X93641020Y-89678400D01*
X93641013Y-89678404D01*
X93636487Y-89681041D01*
X93636486Y-89681043D01*
X92059995Y-90600003D01*
X92038028Y-90618494D01*
X91981333Y-90641501D01*
X91921943Y-90626790D01*
X91882542Y-90579980D01*
X91878180Y-90518950D01*
X91878625Y-90517221D01*
X91880500Y-90510227D01*
X91880500Y-90404773D01*
X91853207Y-90302913D01*
X91800480Y-90211587D01*
X91725913Y-90137020D01*
X91634587Y-90084293D01*
X91532727Y-90057000D01*
X91427273Y-90057000D01*
X91325413Y-90084293D01*
X91325412Y-90084293D01*
X91325410Y-90084294D01*
X91325409Y-90084294D01*
X91234089Y-90137018D01*
X91159518Y-90211589D01*
X91106794Y-90302909D01*
X91106794Y-90302910D01*
X91106793Y-90302912D01*
X91106793Y-90302913D01*
X91079500Y-90404773D01*
X91079500Y-90510227D01*
X91106793Y-90612087D01*
X91106794Y-90612089D01*
X91106794Y-90612090D01*
X91123775Y-90641501D01*
X91159520Y-90703413D01*
X91234087Y-90777980D01*
X91325413Y-90830707D01*
X91427273Y-90858000D01*
X91427275Y-90858000D01*
X91482165Y-90858000D01*
X91540356Y-90876907D01*
X91576320Y-90926407D01*
X91576320Y-90987593D01*
X91545921Y-91032737D01*
X90773924Y-91682583D01*
X90773923Y-91682584D01*
X90758200Y-96161348D01*
X90739089Y-96219472D01*
X90689463Y-96255261D01*
X90659201Y-96260000D01*
X88996767Y-96260000D01*
X88938576Y-96241093D01*
X88902612Y-96191593D01*
X88897767Y-96160844D01*
X88908866Y-89137273D01*
X92889500Y-89137273D01*
X92889500Y-89242727D01*
X92916793Y-89344587D01*
X92916794Y-89344589D01*
X92916794Y-89344590D01*
X92960249Y-89419855D01*
X92969520Y-89435913D01*
X93044087Y-89510480D01*
X93135413Y-89563207D01*
X93237273Y-89590500D01*
X93237275Y-89590500D01*
X93342725Y-89590500D01*
X93342727Y-89590500D01*
X93444587Y-89563207D01*
X93535913Y-89510480D01*
X93610480Y-89435913D01*
X93663207Y-89344587D01*
X93690500Y-89242727D01*
X93690500Y-89137273D01*
X93663207Y-89035413D01*
X93610480Y-88944087D01*
X93535913Y-88869520D01*
X93444587Y-88816793D01*
X93342727Y-88789500D01*
X93237273Y-88789500D01*
X93135413Y-88816793D01*
X93135412Y-88816793D01*
X93135410Y-88816794D01*
X93135409Y-88816794D01*
X93044089Y-88869518D01*
X92969518Y-88944089D01*
X92916794Y-89035409D01*
X92916794Y-89035410D01*
X92916793Y-89035412D01*
X92916793Y-89035413D01*
X92889500Y-89137273D01*
X88908866Y-89137273D01*
X88909916Y-88473099D01*
X88928915Y-88414938D01*
X88954279Y-88390697D01*
X90148356Y-87600500D01*
X90245156Y-87536441D01*
X90299791Y-87520000D01*
X91556729Y-87520000D01*
X91606226Y-87533262D01*
G37*
%TD.AperFunction*%
%TD*%
M02*
