%TF.GenerationSoftware,KiCad,Pcbnew,9.0.3*%
%TF.CreationDate,2025-09-12T10:42:05+02:00*%
%TF.ProjectId,FOC_CONTROLLER_V1,464f435f-434f-44e5-9452-4f4c4c45525f,rev?*%
%TF.SameCoordinates,Original*%
%TF.FileFunction,Legend,Bot*%
%TF.FilePolarity,Positive*%
%FSLAX46Y46*%
G04 Gerber Fmt 4.6, Leading zero omitted, Abs format (unit mm)*
G04 Created by KiCad (PCBNEW 9.0.3) date 2025-09-12 10:42:05*
%MOMM*%
%LPD*%
G01*
G04 APERTURE LIST*
%ADD10C,0.075000*%
%ADD11C,0.254000*%
%ADD12C,0.120000*%
%ADD13C,0.250000*%
G04 APERTURE END LIST*
D10*
X109722086Y-101973671D02*
X109750658Y-101959385D01*
X109750658Y-101959385D02*
X109793515Y-101959385D01*
X109793515Y-101959385D02*
X109836372Y-101973671D01*
X109836372Y-101973671D02*
X109864943Y-102002242D01*
X109864943Y-102002242D02*
X109879229Y-102030814D01*
X109879229Y-102030814D02*
X109893515Y-102087957D01*
X109893515Y-102087957D02*
X109893515Y-102130814D01*
X109893515Y-102130814D02*
X109879229Y-102187957D01*
X109879229Y-102187957D02*
X109864943Y-102216528D01*
X109864943Y-102216528D02*
X109836372Y-102245100D01*
X109836372Y-102245100D02*
X109793515Y-102259385D01*
X109793515Y-102259385D02*
X109764943Y-102259385D01*
X109764943Y-102259385D02*
X109722086Y-102245100D01*
X109722086Y-102245100D02*
X109707800Y-102230814D01*
X109707800Y-102230814D02*
X109707800Y-102130814D01*
X109707800Y-102130814D02*
X109764943Y-102130814D01*
X109579229Y-102259385D02*
X109579229Y-101959385D01*
X109579229Y-101959385D02*
X109407800Y-102259385D01*
X109407800Y-102259385D02*
X109407800Y-101959385D01*
X109264943Y-102259385D02*
X109264943Y-101959385D01*
X109264943Y-101959385D02*
X109193514Y-101959385D01*
X109193514Y-101959385D02*
X109150657Y-101973671D01*
X109150657Y-101973671D02*
X109122086Y-102002242D01*
X109122086Y-102002242D02*
X109107800Y-102030814D01*
X109107800Y-102030814D02*
X109093514Y-102087957D01*
X109093514Y-102087957D02*
X109093514Y-102130814D01*
X109093514Y-102130814D02*
X109107800Y-102187957D01*
X109107800Y-102187957D02*
X109122086Y-102216528D01*
X109122086Y-102216528D02*
X109150657Y-102245100D01*
X109150657Y-102245100D02*
X109193514Y-102259385D01*
X109193514Y-102259385D02*
X109264943Y-102259385D01*
X91293515Y-102145100D02*
X91250658Y-102159385D01*
X91250658Y-102159385D02*
X91179229Y-102159385D01*
X91179229Y-102159385D02*
X91150658Y-102145100D01*
X91150658Y-102145100D02*
X91136372Y-102130814D01*
X91136372Y-102130814D02*
X91122086Y-102102242D01*
X91122086Y-102102242D02*
X91122086Y-102073671D01*
X91122086Y-102073671D02*
X91136372Y-102045100D01*
X91136372Y-102045100D02*
X91150658Y-102030814D01*
X91150658Y-102030814D02*
X91179229Y-102016528D01*
X91179229Y-102016528D02*
X91236372Y-102002242D01*
X91236372Y-102002242D02*
X91264943Y-101987957D01*
X91264943Y-101987957D02*
X91279229Y-101973671D01*
X91279229Y-101973671D02*
X91293515Y-101945100D01*
X91293515Y-101945100D02*
X91293515Y-101916528D01*
X91293515Y-101916528D02*
X91279229Y-101887957D01*
X91279229Y-101887957D02*
X91264943Y-101873671D01*
X91264943Y-101873671D02*
X91236372Y-101859385D01*
X91236372Y-101859385D02*
X91164943Y-101859385D01*
X91164943Y-101859385D02*
X91122086Y-101873671D01*
X91022086Y-101859385D02*
X90950658Y-102159385D01*
X90950658Y-102159385D02*
X90893515Y-101945100D01*
X90893515Y-101945100D02*
X90836372Y-102159385D01*
X90836372Y-102159385D02*
X90764944Y-101859385D01*
X90479229Y-102130814D02*
X90493515Y-102145100D01*
X90493515Y-102145100D02*
X90536372Y-102159385D01*
X90536372Y-102159385D02*
X90564944Y-102159385D01*
X90564944Y-102159385D02*
X90607801Y-102145100D01*
X90607801Y-102145100D02*
X90636372Y-102116528D01*
X90636372Y-102116528D02*
X90650658Y-102087957D01*
X90650658Y-102087957D02*
X90664944Y-102030814D01*
X90664944Y-102030814D02*
X90664944Y-101987957D01*
X90664944Y-101987957D02*
X90650658Y-101930814D01*
X90650658Y-101930814D02*
X90636372Y-101902242D01*
X90636372Y-101902242D02*
X90607801Y-101873671D01*
X90607801Y-101873671D02*
X90564944Y-101859385D01*
X90564944Y-101859385D02*
X90536372Y-101859385D01*
X90536372Y-101859385D02*
X90493515Y-101873671D01*
X90493515Y-101873671D02*
X90479229Y-101887957D01*
X90207801Y-102159385D02*
X90350658Y-102159385D01*
X90350658Y-102159385D02*
X90350658Y-101859385D01*
X90107801Y-102159385D02*
X90107801Y-101859385D01*
X89936372Y-102159385D02*
X90064944Y-101987957D01*
X89936372Y-101859385D02*
X90107801Y-102030814D01*
X91279229Y-97002242D02*
X91236372Y-97016528D01*
X91236372Y-97016528D02*
X91222086Y-97030814D01*
X91222086Y-97030814D02*
X91207800Y-97059385D01*
X91207800Y-97059385D02*
X91207800Y-97102242D01*
X91207800Y-97102242D02*
X91222086Y-97130814D01*
X91222086Y-97130814D02*
X91236372Y-97145100D01*
X91236372Y-97145100D02*
X91264943Y-97159385D01*
X91264943Y-97159385D02*
X91379229Y-97159385D01*
X91379229Y-97159385D02*
X91379229Y-96859385D01*
X91379229Y-96859385D02*
X91279229Y-96859385D01*
X91279229Y-96859385D02*
X91250658Y-96873671D01*
X91250658Y-96873671D02*
X91236372Y-96887957D01*
X91236372Y-96887957D02*
X91222086Y-96916528D01*
X91222086Y-96916528D02*
X91222086Y-96945100D01*
X91222086Y-96945100D02*
X91236372Y-96973671D01*
X91236372Y-96973671D02*
X91250658Y-96987957D01*
X91250658Y-96987957D02*
X91279229Y-97002242D01*
X91279229Y-97002242D02*
X91379229Y-97002242D01*
X91122086Y-96859385D02*
X90950658Y-96859385D01*
X91036372Y-97159385D02*
X91036372Y-96859385D01*
X90850658Y-97159385D02*
X90850658Y-96859385D01*
X90850658Y-96859385D02*
X90679229Y-97159385D01*
X90679229Y-97159385D02*
X90679229Y-96859385D01*
X91307800Y-99359385D02*
X91122086Y-99359385D01*
X91122086Y-99359385D02*
X91222086Y-99473671D01*
X91222086Y-99473671D02*
X91179229Y-99473671D01*
X91179229Y-99473671D02*
X91150658Y-99487957D01*
X91150658Y-99487957D02*
X91136372Y-99502242D01*
X91136372Y-99502242D02*
X91122086Y-99530814D01*
X91122086Y-99530814D02*
X91122086Y-99602242D01*
X91122086Y-99602242D02*
X91136372Y-99630814D01*
X91136372Y-99630814D02*
X91150658Y-99645100D01*
X91150658Y-99645100D02*
X91179229Y-99659385D01*
X91179229Y-99659385D02*
X91264943Y-99659385D01*
X91264943Y-99659385D02*
X91293515Y-99645100D01*
X91293515Y-99645100D02*
X91307800Y-99630814D01*
X90993515Y-99630814D02*
X90979229Y-99645100D01*
X90979229Y-99645100D02*
X90993515Y-99659385D01*
X90993515Y-99659385D02*
X91007801Y-99645100D01*
X91007801Y-99645100D02*
X90993515Y-99630814D01*
X90993515Y-99630814D02*
X90993515Y-99659385D01*
X90879229Y-99359385D02*
X90693515Y-99359385D01*
X90693515Y-99359385D02*
X90793515Y-99473671D01*
X90793515Y-99473671D02*
X90750658Y-99473671D01*
X90750658Y-99473671D02*
X90722087Y-99487957D01*
X90722087Y-99487957D02*
X90707801Y-99502242D01*
X90707801Y-99502242D02*
X90693515Y-99530814D01*
X90693515Y-99530814D02*
X90693515Y-99602242D01*
X90693515Y-99602242D02*
X90707801Y-99630814D01*
X90707801Y-99630814D02*
X90722087Y-99645100D01*
X90722087Y-99645100D02*
X90750658Y-99659385D01*
X90750658Y-99659385D02*
X90836372Y-99659385D01*
X90836372Y-99659385D02*
X90864944Y-99645100D01*
X90864944Y-99645100D02*
X90879229Y-99630814D01*
X90607801Y-99359385D02*
X90507801Y-99659385D01*
X90507801Y-99659385D02*
X90407801Y-99359385D01*
X109922086Y-99459385D02*
X109750658Y-99459385D01*
X109836372Y-99759385D02*
X109836372Y-99459385D01*
X109679229Y-99459385D02*
X109479229Y-99759385D01*
X109479229Y-99459385D02*
X109679229Y-99759385D01*
X95822086Y-101259385D02*
X95764943Y-101259385D01*
X95764943Y-101259385D02*
X95736372Y-101273671D01*
X95736372Y-101273671D02*
X95707800Y-101302242D01*
X95707800Y-101302242D02*
X95693515Y-101359385D01*
X95693515Y-101359385D02*
X95693515Y-101459385D01*
X95693515Y-101459385D02*
X95707800Y-101516528D01*
X95707800Y-101516528D02*
X95736372Y-101545100D01*
X95736372Y-101545100D02*
X95764943Y-101559385D01*
X95764943Y-101559385D02*
X95822086Y-101559385D01*
X95822086Y-101559385D02*
X95850658Y-101545100D01*
X95850658Y-101545100D02*
X95879229Y-101516528D01*
X95879229Y-101516528D02*
X95893515Y-101459385D01*
X95893515Y-101459385D02*
X95893515Y-101359385D01*
X95893515Y-101359385D02*
X95879229Y-101302242D01*
X95879229Y-101302242D02*
X95850658Y-101273671D01*
X95850658Y-101273671D02*
X95822086Y-101259385D01*
X95564943Y-101559385D02*
X95564943Y-101259385D01*
X95564943Y-101259385D02*
X95450657Y-101259385D01*
X95450657Y-101259385D02*
X95422086Y-101273671D01*
X95422086Y-101273671D02*
X95407800Y-101287957D01*
X95407800Y-101287957D02*
X95393514Y-101316528D01*
X95393514Y-101316528D02*
X95393514Y-101359385D01*
X95393514Y-101359385D02*
X95407800Y-101387957D01*
X95407800Y-101387957D02*
X95422086Y-101402242D01*
X95422086Y-101402242D02*
X95450657Y-101416528D01*
X95450657Y-101416528D02*
X95564943Y-101416528D01*
X95279229Y-101287957D02*
X95264943Y-101273671D01*
X95264943Y-101273671D02*
X95236372Y-101259385D01*
X95236372Y-101259385D02*
X95164943Y-101259385D01*
X95164943Y-101259385D02*
X95136372Y-101273671D01*
X95136372Y-101273671D02*
X95122086Y-101287957D01*
X95122086Y-101287957D02*
X95107800Y-101316528D01*
X95107800Y-101316528D02*
X95107800Y-101345100D01*
X95107800Y-101345100D02*
X95122086Y-101387957D01*
X95122086Y-101387957D02*
X95293514Y-101559385D01*
X95293514Y-101559385D02*
X95107800Y-101559385D01*
X94979229Y-101559385D02*
X94979229Y-101259385D01*
X94979229Y-101259385D02*
X94864943Y-101259385D01*
X94864943Y-101259385D02*
X94836372Y-101273671D01*
X94836372Y-101273671D02*
X94822086Y-101287957D01*
X94822086Y-101287957D02*
X94807800Y-101316528D01*
X94807800Y-101316528D02*
X94807800Y-101359385D01*
X94807800Y-101359385D02*
X94822086Y-101387957D01*
X94822086Y-101387957D02*
X94836372Y-101402242D01*
X94836372Y-101402242D02*
X94864943Y-101416528D01*
X94864943Y-101416528D02*
X94979229Y-101416528D01*
X109707800Y-100959385D02*
X109807800Y-100816528D01*
X109879229Y-100959385D02*
X109879229Y-100659385D01*
X109879229Y-100659385D02*
X109764943Y-100659385D01*
X109764943Y-100659385D02*
X109736372Y-100673671D01*
X109736372Y-100673671D02*
X109722086Y-100687957D01*
X109722086Y-100687957D02*
X109707800Y-100716528D01*
X109707800Y-100716528D02*
X109707800Y-100759385D01*
X109707800Y-100759385D02*
X109722086Y-100787957D01*
X109722086Y-100787957D02*
X109736372Y-100802242D01*
X109736372Y-100802242D02*
X109764943Y-100816528D01*
X109764943Y-100816528D02*
X109879229Y-100816528D01*
X109607800Y-100659385D02*
X109407800Y-100959385D01*
X109407800Y-100659385D02*
X109607800Y-100959385D01*
X109922086Y-98259385D02*
X109822086Y-98559385D01*
X109822086Y-98559385D02*
X109722086Y-98259385D01*
X109522086Y-98402242D02*
X109479229Y-98416528D01*
X109479229Y-98416528D02*
X109464943Y-98430814D01*
X109464943Y-98430814D02*
X109450657Y-98459385D01*
X109450657Y-98459385D02*
X109450657Y-98502242D01*
X109450657Y-98502242D02*
X109464943Y-98530814D01*
X109464943Y-98530814D02*
X109479229Y-98545100D01*
X109479229Y-98545100D02*
X109507800Y-98559385D01*
X109507800Y-98559385D02*
X109622086Y-98559385D01*
X109622086Y-98559385D02*
X109622086Y-98259385D01*
X109622086Y-98259385D02*
X109522086Y-98259385D01*
X109522086Y-98259385D02*
X109493515Y-98273671D01*
X109493515Y-98273671D02*
X109479229Y-98287957D01*
X109479229Y-98287957D02*
X109464943Y-98316528D01*
X109464943Y-98316528D02*
X109464943Y-98345100D01*
X109464943Y-98345100D02*
X109479229Y-98373671D01*
X109479229Y-98373671D02*
X109493515Y-98387957D01*
X109493515Y-98387957D02*
X109522086Y-98402242D01*
X109522086Y-98402242D02*
X109622086Y-98402242D01*
X109336372Y-98473671D02*
X109193515Y-98473671D01*
X109364943Y-98559385D02*
X109264943Y-98259385D01*
X109264943Y-98259385D02*
X109164943Y-98559385D01*
X109107800Y-98259385D02*
X108936372Y-98259385D01*
X109022086Y-98559385D02*
X109022086Y-98259385D01*
X108836372Y-98445100D02*
X108607801Y-98445100D01*
X108722086Y-98559385D02*
X108722086Y-98330814D01*
X109722086Y-103173671D02*
X109750658Y-103159385D01*
X109750658Y-103159385D02*
X109793515Y-103159385D01*
X109793515Y-103159385D02*
X109836372Y-103173671D01*
X109836372Y-103173671D02*
X109864943Y-103202242D01*
X109864943Y-103202242D02*
X109879229Y-103230814D01*
X109879229Y-103230814D02*
X109893515Y-103287957D01*
X109893515Y-103287957D02*
X109893515Y-103330814D01*
X109893515Y-103330814D02*
X109879229Y-103387957D01*
X109879229Y-103387957D02*
X109864943Y-103416528D01*
X109864943Y-103416528D02*
X109836372Y-103445100D01*
X109836372Y-103445100D02*
X109793515Y-103459385D01*
X109793515Y-103459385D02*
X109764943Y-103459385D01*
X109764943Y-103459385D02*
X109722086Y-103445100D01*
X109722086Y-103445100D02*
X109707800Y-103430814D01*
X109707800Y-103430814D02*
X109707800Y-103330814D01*
X109707800Y-103330814D02*
X109764943Y-103330814D01*
X109579229Y-103459385D02*
X109579229Y-103159385D01*
X109579229Y-103159385D02*
X109407800Y-103459385D01*
X109407800Y-103459385D02*
X109407800Y-103159385D01*
X109264943Y-103459385D02*
X109264943Y-103159385D01*
X109264943Y-103159385D02*
X109193514Y-103159385D01*
X109193514Y-103159385D02*
X109150657Y-103173671D01*
X109150657Y-103173671D02*
X109122086Y-103202242D01*
X109122086Y-103202242D02*
X109107800Y-103230814D01*
X109107800Y-103230814D02*
X109093514Y-103287957D01*
X109093514Y-103287957D02*
X109093514Y-103330814D01*
X109093514Y-103330814D02*
X109107800Y-103387957D01*
X109107800Y-103387957D02*
X109122086Y-103416528D01*
X109122086Y-103416528D02*
X109150657Y-103445100D01*
X109150657Y-103445100D02*
X109193514Y-103459385D01*
X109193514Y-103459385D02*
X109264943Y-103459385D01*
X95722086Y-103173671D02*
X95750658Y-103159385D01*
X95750658Y-103159385D02*
X95793515Y-103159385D01*
X95793515Y-103159385D02*
X95836372Y-103173671D01*
X95836372Y-103173671D02*
X95864943Y-103202242D01*
X95864943Y-103202242D02*
X95879229Y-103230814D01*
X95879229Y-103230814D02*
X95893515Y-103287957D01*
X95893515Y-103287957D02*
X95893515Y-103330814D01*
X95893515Y-103330814D02*
X95879229Y-103387957D01*
X95879229Y-103387957D02*
X95864943Y-103416528D01*
X95864943Y-103416528D02*
X95836372Y-103445100D01*
X95836372Y-103445100D02*
X95793515Y-103459385D01*
X95793515Y-103459385D02*
X95764943Y-103459385D01*
X95764943Y-103459385D02*
X95722086Y-103445100D01*
X95722086Y-103445100D02*
X95707800Y-103430814D01*
X95707800Y-103430814D02*
X95707800Y-103330814D01*
X95707800Y-103330814D02*
X95764943Y-103330814D01*
X95579229Y-103459385D02*
X95579229Y-103159385D01*
X95579229Y-103159385D02*
X95407800Y-103459385D01*
X95407800Y-103459385D02*
X95407800Y-103159385D01*
X95264943Y-103459385D02*
X95264943Y-103159385D01*
X95264943Y-103159385D02*
X95193514Y-103159385D01*
X95193514Y-103159385D02*
X95150657Y-103173671D01*
X95150657Y-103173671D02*
X95122086Y-103202242D01*
X95122086Y-103202242D02*
X95107800Y-103230814D01*
X95107800Y-103230814D02*
X95093514Y-103287957D01*
X95093514Y-103287957D02*
X95093514Y-103330814D01*
X95093514Y-103330814D02*
X95107800Y-103387957D01*
X95107800Y-103387957D02*
X95122086Y-103416528D01*
X95122086Y-103416528D02*
X95150657Y-103445100D01*
X95150657Y-103445100D02*
X95193514Y-103459385D01*
X95193514Y-103459385D02*
X95264943Y-103459385D01*
X97740614Y-105022086D02*
X97740614Y-104964943D01*
X97740614Y-104964943D02*
X97726328Y-104936372D01*
X97726328Y-104936372D02*
X97697757Y-104907800D01*
X97697757Y-104907800D02*
X97640614Y-104893515D01*
X97640614Y-104893515D02*
X97540614Y-104893515D01*
X97540614Y-104893515D02*
X97483471Y-104907800D01*
X97483471Y-104907800D02*
X97454900Y-104936372D01*
X97454900Y-104936372D02*
X97440614Y-104964943D01*
X97440614Y-104964943D02*
X97440614Y-105022086D01*
X97440614Y-105022086D02*
X97454900Y-105050658D01*
X97454900Y-105050658D02*
X97483471Y-105079229D01*
X97483471Y-105079229D02*
X97540614Y-105093515D01*
X97540614Y-105093515D02*
X97640614Y-105093515D01*
X97640614Y-105093515D02*
X97697757Y-105079229D01*
X97697757Y-105079229D02*
X97726328Y-105050658D01*
X97726328Y-105050658D02*
X97740614Y-105022086D01*
X97440614Y-104764943D02*
X97740614Y-104764943D01*
X97740614Y-104764943D02*
X97740614Y-104650657D01*
X97740614Y-104650657D02*
X97726328Y-104622086D01*
X97726328Y-104622086D02*
X97712042Y-104607800D01*
X97712042Y-104607800D02*
X97683471Y-104593514D01*
X97683471Y-104593514D02*
X97640614Y-104593514D01*
X97640614Y-104593514D02*
X97612042Y-104607800D01*
X97612042Y-104607800D02*
X97597757Y-104622086D01*
X97597757Y-104622086D02*
X97583471Y-104650657D01*
X97583471Y-104650657D02*
X97583471Y-104764943D01*
X97712042Y-104479229D02*
X97726328Y-104464943D01*
X97726328Y-104464943D02*
X97740614Y-104436372D01*
X97740614Y-104436372D02*
X97740614Y-104364943D01*
X97740614Y-104364943D02*
X97726328Y-104336372D01*
X97726328Y-104336372D02*
X97712042Y-104322086D01*
X97712042Y-104322086D02*
X97683471Y-104307800D01*
X97683471Y-104307800D02*
X97654900Y-104307800D01*
X97654900Y-104307800D02*
X97612042Y-104322086D01*
X97612042Y-104322086D02*
X97440614Y-104493514D01*
X97440614Y-104493514D02*
X97440614Y-104307800D01*
X97740614Y-104122086D02*
X97740614Y-104064943D01*
X97740614Y-104064943D02*
X97726328Y-104036372D01*
X97726328Y-104036372D02*
X97697757Y-104007800D01*
X97697757Y-104007800D02*
X97640614Y-103993515D01*
X97640614Y-103993515D02*
X97540614Y-103993515D01*
X97540614Y-103993515D02*
X97483471Y-104007800D01*
X97483471Y-104007800D02*
X97454900Y-104036372D01*
X97454900Y-104036372D02*
X97440614Y-104064943D01*
X97440614Y-104064943D02*
X97440614Y-104122086D01*
X97440614Y-104122086D02*
X97454900Y-104150658D01*
X97454900Y-104150658D02*
X97483471Y-104179229D01*
X97483471Y-104179229D02*
X97540614Y-104193515D01*
X97540614Y-104193515D02*
X97640614Y-104193515D01*
X97640614Y-104193515D02*
X97697757Y-104179229D01*
X97697757Y-104179229D02*
X97726328Y-104150658D01*
X97726328Y-104150658D02*
X97740614Y-104122086D01*
X91293515Y-100845100D02*
X91250658Y-100859385D01*
X91250658Y-100859385D02*
X91179229Y-100859385D01*
X91179229Y-100859385D02*
X91150658Y-100845100D01*
X91150658Y-100845100D02*
X91136372Y-100830814D01*
X91136372Y-100830814D02*
X91122086Y-100802242D01*
X91122086Y-100802242D02*
X91122086Y-100773671D01*
X91122086Y-100773671D02*
X91136372Y-100745100D01*
X91136372Y-100745100D02*
X91150658Y-100730814D01*
X91150658Y-100730814D02*
X91179229Y-100716528D01*
X91179229Y-100716528D02*
X91236372Y-100702242D01*
X91236372Y-100702242D02*
X91264943Y-100687957D01*
X91264943Y-100687957D02*
X91279229Y-100673671D01*
X91279229Y-100673671D02*
X91293515Y-100645100D01*
X91293515Y-100645100D02*
X91293515Y-100616528D01*
X91293515Y-100616528D02*
X91279229Y-100587957D01*
X91279229Y-100587957D02*
X91264943Y-100573671D01*
X91264943Y-100573671D02*
X91236372Y-100559385D01*
X91236372Y-100559385D02*
X91164943Y-100559385D01*
X91164943Y-100559385D02*
X91122086Y-100573671D01*
X91022086Y-100559385D02*
X90950658Y-100859385D01*
X90950658Y-100859385D02*
X90893515Y-100645100D01*
X90893515Y-100645100D02*
X90836372Y-100859385D01*
X90836372Y-100859385D02*
X90764944Y-100559385D01*
X90650658Y-100859385D02*
X90650658Y-100559385D01*
X90650658Y-100559385D02*
X90579229Y-100559385D01*
X90579229Y-100559385D02*
X90536372Y-100573671D01*
X90536372Y-100573671D02*
X90507801Y-100602242D01*
X90507801Y-100602242D02*
X90493515Y-100630814D01*
X90493515Y-100630814D02*
X90479229Y-100687957D01*
X90479229Y-100687957D02*
X90479229Y-100730814D01*
X90479229Y-100730814D02*
X90493515Y-100787957D01*
X90493515Y-100787957D02*
X90507801Y-100816528D01*
X90507801Y-100816528D02*
X90536372Y-100845100D01*
X90536372Y-100845100D02*
X90579229Y-100859385D01*
X90579229Y-100859385D02*
X90650658Y-100859385D01*
X90350658Y-100859385D02*
X90350658Y-100559385D01*
X90150658Y-100559385D02*
X90093515Y-100559385D01*
X90093515Y-100559385D02*
X90064944Y-100573671D01*
X90064944Y-100573671D02*
X90036372Y-100602242D01*
X90036372Y-100602242D02*
X90022087Y-100659385D01*
X90022087Y-100659385D02*
X90022087Y-100759385D01*
X90022087Y-100759385D02*
X90036372Y-100816528D01*
X90036372Y-100816528D02*
X90064944Y-100845100D01*
X90064944Y-100845100D02*
X90093515Y-100859385D01*
X90093515Y-100859385D02*
X90150658Y-100859385D01*
X90150658Y-100859385D02*
X90179230Y-100845100D01*
X90179230Y-100845100D02*
X90207801Y-100816528D01*
X90207801Y-100816528D02*
X90222087Y-100759385D01*
X90222087Y-100759385D02*
X90222087Y-100659385D01*
X90222087Y-100659385D02*
X90207801Y-100602242D01*
X90207801Y-100602242D02*
X90179230Y-100573671D01*
X90179230Y-100573671D02*
X90150658Y-100559385D01*
X91279229Y-103409385D02*
X91279229Y-103109385D01*
X91279229Y-103109385D02*
X91107800Y-103409385D01*
X91107800Y-103409385D02*
X91107800Y-103109385D01*
X90793514Y-103409385D02*
X90893514Y-103266528D01*
X90964943Y-103409385D02*
X90964943Y-103109385D01*
X90964943Y-103109385D02*
X90850657Y-103109385D01*
X90850657Y-103109385D02*
X90822086Y-103123671D01*
X90822086Y-103123671D02*
X90807800Y-103137957D01*
X90807800Y-103137957D02*
X90793514Y-103166528D01*
X90793514Y-103166528D02*
X90793514Y-103209385D01*
X90793514Y-103209385D02*
X90807800Y-103237957D01*
X90807800Y-103237957D02*
X90822086Y-103252242D01*
X90822086Y-103252242D02*
X90850657Y-103266528D01*
X90850657Y-103266528D02*
X90964943Y-103266528D01*
X90679229Y-103395100D02*
X90636372Y-103409385D01*
X90636372Y-103409385D02*
X90564943Y-103409385D01*
X90564943Y-103409385D02*
X90536372Y-103395100D01*
X90536372Y-103395100D02*
X90522086Y-103380814D01*
X90522086Y-103380814D02*
X90507800Y-103352242D01*
X90507800Y-103352242D02*
X90507800Y-103323671D01*
X90507800Y-103323671D02*
X90522086Y-103295100D01*
X90522086Y-103295100D02*
X90536372Y-103280814D01*
X90536372Y-103280814D02*
X90564943Y-103266528D01*
X90564943Y-103266528D02*
X90622086Y-103252242D01*
X90622086Y-103252242D02*
X90650657Y-103237957D01*
X90650657Y-103237957D02*
X90664943Y-103223671D01*
X90664943Y-103223671D02*
X90679229Y-103195100D01*
X90679229Y-103195100D02*
X90679229Y-103166528D01*
X90679229Y-103166528D02*
X90664943Y-103137957D01*
X90664943Y-103137957D02*
X90650657Y-103123671D01*
X90650657Y-103123671D02*
X90622086Y-103109385D01*
X90622086Y-103109385D02*
X90550657Y-103109385D01*
X90550657Y-103109385D02*
X90507800Y-103123671D01*
X90422086Y-103109385D02*
X90250658Y-103109385D01*
X90336372Y-103409385D02*
X90336372Y-103109385D01*
X95822086Y-102159385D02*
X95764943Y-102159385D01*
X95764943Y-102159385D02*
X95736372Y-102173671D01*
X95736372Y-102173671D02*
X95707800Y-102202242D01*
X95707800Y-102202242D02*
X95693515Y-102259385D01*
X95693515Y-102259385D02*
X95693515Y-102359385D01*
X95693515Y-102359385D02*
X95707800Y-102416528D01*
X95707800Y-102416528D02*
X95736372Y-102445100D01*
X95736372Y-102445100D02*
X95764943Y-102459385D01*
X95764943Y-102459385D02*
X95822086Y-102459385D01*
X95822086Y-102459385D02*
X95850658Y-102445100D01*
X95850658Y-102445100D02*
X95879229Y-102416528D01*
X95879229Y-102416528D02*
X95893515Y-102359385D01*
X95893515Y-102359385D02*
X95893515Y-102259385D01*
X95893515Y-102259385D02*
X95879229Y-102202242D01*
X95879229Y-102202242D02*
X95850658Y-102173671D01*
X95850658Y-102173671D02*
X95822086Y-102159385D01*
X95564943Y-102459385D02*
X95564943Y-102159385D01*
X95564943Y-102159385D02*
X95450657Y-102159385D01*
X95450657Y-102159385D02*
X95422086Y-102173671D01*
X95422086Y-102173671D02*
X95407800Y-102187957D01*
X95407800Y-102187957D02*
X95393514Y-102216528D01*
X95393514Y-102216528D02*
X95393514Y-102259385D01*
X95393514Y-102259385D02*
X95407800Y-102287957D01*
X95407800Y-102287957D02*
X95422086Y-102302242D01*
X95422086Y-102302242D02*
X95450657Y-102316528D01*
X95450657Y-102316528D02*
X95564943Y-102316528D01*
X95279229Y-102187957D02*
X95264943Y-102173671D01*
X95264943Y-102173671D02*
X95236372Y-102159385D01*
X95236372Y-102159385D02*
X95164943Y-102159385D01*
X95164943Y-102159385D02*
X95136372Y-102173671D01*
X95136372Y-102173671D02*
X95122086Y-102187957D01*
X95122086Y-102187957D02*
X95107800Y-102216528D01*
X95107800Y-102216528D02*
X95107800Y-102245100D01*
X95107800Y-102245100D02*
X95122086Y-102287957D01*
X95122086Y-102287957D02*
X95293514Y-102459385D01*
X95293514Y-102459385D02*
X95107800Y-102459385D01*
X94979229Y-102459385D02*
X94979229Y-102159385D01*
X94979229Y-102159385D02*
X94807800Y-102459385D01*
X94807800Y-102459385D02*
X94807800Y-102159385D01*
X95893515Y-100645100D02*
X95850658Y-100659385D01*
X95850658Y-100659385D02*
X95779229Y-100659385D01*
X95779229Y-100659385D02*
X95750658Y-100645100D01*
X95750658Y-100645100D02*
X95736372Y-100630814D01*
X95736372Y-100630814D02*
X95722086Y-100602242D01*
X95722086Y-100602242D02*
X95722086Y-100573671D01*
X95722086Y-100573671D02*
X95736372Y-100545100D01*
X95736372Y-100545100D02*
X95750658Y-100530814D01*
X95750658Y-100530814D02*
X95779229Y-100516528D01*
X95779229Y-100516528D02*
X95836372Y-100502242D01*
X95836372Y-100502242D02*
X95864943Y-100487957D01*
X95864943Y-100487957D02*
X95879229Y-100473671D01*
X95879229Y-100473671D02*
X95893515Y-100445100D01*
X95893515Y-100445100D02*
X95893515Y-100416528D01*
X95893515Y-100416528D02*
X95879229Y-100387957D01*
X95879229Y-100387957D02*
X95864943Y-100373671D01*
X95864943Y-100373671D02*
X95836372Y-100359385D01*
X95836372Y-100359385D02*
X95764943Y-100359385D01*
X95764943Y-100359385D02*
X95722086Y-100373671D01*
X95593515Y-100659385D02*
X95593515Y-100359385D01*
X95593515Y-100359385D02*
X95479229Y-100359385D01*
X95479229Y-100359385D02*
X95450658Y-100373671D01*
X95450658Y-100373671D02*
X95436372Y-100387957D01*
X95436372Y-100387957D02*
X95422086Y-100416528D01*
X95422086Y-100416528D02*
X95422086Y-100459385D01*
X95422086Y-100459385D02*
X95436372Y-100487957D01*
X95436372Y-100487957D02*
X95450658Y-100502242D01*
X95450658Y-100502242D02*
X95479229Y-100516528D01*
X95479229Y-100516528D02*
X95593515Y-100516528D01*
X95293515Y-100659385D02*
X95293515Y-100359385D01*
X95164944Y-100387957D02*
X95150658Y-100373671D01*
X95150658Y-100373671D02*
X95122087Y-100359385D01*
X95122087Y-100359385D02*
X95050658Y-100359385D01*
X95050658Y-100359385D02*
X95022087Y-100373671D01*
X95022087Y-100373671D02*
X95007801Y-100387957D01*
X95007801Y-100387957D02*
X94993515Y-100416528D01*
X94993515Y-100416528D02*
X94993515Y-100445100D01*
X94993515Y-100445100D02*
X95007801Y-100487957D01*
X95007801Y-100487957D02*
X95179229Y-100659385D01*
X95179229Y-100659385D02*
X94993515Y-100659385D01*
X94936373Y-100687957D02*
X94707801Y-100687957D01*
X94636373Y-100659385D02*
X94636373Y-100359385D01*
X94636373Y-100359385D02*
X94536373Y-100573671D01*
X94536373Y-100573671D02*
X94436373Y-100359385D01*
X94436373Y-100359385D02*
X94436373Y-100659385D01*
X94236373Y-100359385D02*
X94179230Y-100359385D01*
X94179230Y-100359385D02*
X94150659Y-100373671D01*
X94150659Y-100373671D02*
X94122087Y-100402242D01*
X94122087Y-100402242D02*
X94107802Y-100459385D01*
X94107802Y-100459385D02*
X94107802Y-100559385D01*
X94107802Y-100559385D02*
X94122087Y-100616528D01*
X94122087Y-100616528D02*
X94150659Y-100645100D01*
X94150659Y-100645100D02*
X94179230Y-100659385D01*
X94179230Y-100659385D02*
X94236373Y-100659385D01*
X94236373Y-100659385D02*
X94264945Y-100645100D01*
X94264945Y-100645100D02*
X94293516Y-100616528D01*
X94293516Y-100616528D02*
X94307802Y-100559385D01*
X94307802Y-100559385D02*
X94307802Y-100459385D01*
X94307802Y-100459385D02*
X94293516Y-100402242D01*
X94293516Y-100402242D02*
X94264945Y-100373671D01*
X94264945Y-100373671D02*
X94236373Y-100359385D01*
X93993516Y-100645100D02*
X93950659Y-100659385D01*
X93950659Y-100659385D02*
X93879230Y-100659385D01*
X93879230Y-100659385D02*
X93850659Y-100645100D01*
X93850659Y-100645100D02*
X93836373Y-100630814D01*
X93836373Y-100630814D02*
X93822087Y-100602242D01*
X93822087Y-100602242D02*
X93822087Y-100573671D01*
X93822087Y-100573671D02*
X93836373Y-100545100D01*
X93836373Y-100545100D02*
X93850659Y-100530814D01*
X93850659Y-100530814D02*
X93879230Y-100516528D01*
X93879230Y-100516528D02*
X93936373Y-100502242D01*
X93936373Y-100502242D02*
X93964944Y-100487957D01*
X93964944Y-100487957D02*
X93979230Y-100473671D01*
X93979230Y-100473671D02*
X93993516Y-100445100D01*
X93993516Y-100445100D02*
X93993516Y-100416528D01*
X93993516Y-100416528D02*
X93979230Y-100387957D01*
X93979230Y-100387957D02*
X93964944Y-100373671D01*
X93964944Y-100373671D02*
X93936373Y-100359385D01*
X93936373Y-100359385D02*
X93864944Y-100359385D01*
X93864944Y-100359385D02*
X93822087Y-100373671D01*
X93693516Y-100659385D02*
X93693516Y-100359385D01*
X109922086Y-96959385D02*
X109822086Y-97259385D01*
X109822086Y-97259385D02*
X109722086Y-96959385D01*
X109522086Y-97102242D02*
X109479229Y-97116528D01*
X109479229Y-97116528D02*
X109464943Y-97130814D01*
X109464943Y-97130814D02*
X109450657Y-97159385D01*
X109450657Y-97159385D02*
X109450657Y-97202242D01*
X109450657Y-97202242D02*
X109464943Y-97230814D01*
X109464943Y-97230814D02*
X109479229Y-97245100D01*
X109479229Y-97245100D02*
X109507800Y-97259385D01*
X109507800Y-97259385D02*
X109622086Y-97259385D01*
X109622086Y-97259385D02*
X109622086Y-96959385D01*
X109622086Y-96959385D02*
X109522086Y-96959385D01*
X109522086Y-96959385D02*
X109493515Y-96973671D01*
X109493515Y-96973671D02*
X109479229Y-96987957D01*
X109479229Y-96987957D02*
X109464943Y-97016528D01*
X109464943Y-97016528D02*
X109464943Y-97045100D01*
X109464943Y-97045100D02*
X109479229Y-97073671D01*
X109479229Y-97073671D02*
X109493515Y-97087957D01*
X109493515Y-97087957D02*
X109522086Y-97102242D01*
X109522086Y-97102242D02*
X109622086Y-97102242D01*
X109336372Y-97173671D02*
X109193515Y-97173671D01*
X109364943Y-97259385D02*
X109264943Y-96959385D01*
X109264943Y-96959385D02*
X109164943Y-97259385D01*
X109107800Y-96959385D02*
X108936372Y-96959385D01*
X109022086Y-97259385D02*
X109022086Y-96959385D01*
X108836372Y-97145100D02*
X108607801Y-97145100D01*
X108722086Y-97259385D02*
X108722086Y-97030814D01*
X97979229Y-96059385D02*
X97979229Y-95759385D01*
X97979229Y-95759385D02*
X97879229Y-95973671D01*
X97879229Y-95973671D02*
X97779229Y-95759385D01*
X97779229Y-95759385D02*
X97779229Y-96059385D01*
X97479229Y-95773671D02*
X97507801Y-95759385D01*
X97507801Y-95759385D02*
X97550658Y-95759385D01*
X97550658Y-95759385D02*
X97593515Y-95773671D01*
X97593515Y-95773671D02*
X97622086Y-95802242D01*
X97622086Y-95802242D02*
X97636372Y-95830814D01*
X97636372Y-95830814D02*
X97650658Y-95887957D01*
X97650658Y-95887957D02*
X97650658Y-95930814D01*
X97650658Y-95930814D02*
X97636372Y-95987957D01*
X97636372Y-95987957D02*
X97622086Y-96016528D01*
X97622086Y-96016528D02*
X97593515Y-96045100D01*
X97593515Y-96045100D02*
X97550658Y-96059385D01*
X97550658Y-96059385D02*
X97522086Y-96059385D01*
X97522086Y-96059385D02*
X97479229Y-96045100D01*
X97479229Y-96045100D02*
X97464943Y-96030814D01*
X97464943Y-96030814D02*
X97464943Y-95930814D01*
X97464943Y-95930814D02*
X97522086Y-95930814D01*
X97193515Y-96059385D02*
X97336372Y-96059385D01*
X97336372Y-96059385D02*
X97336372Y-95759385D01*
X91222086Y-98073671D02*
X91250658Y-98059385D01*
X91250658Y-98059385D02*
X91293515Y-98059385D01*
X91293515Y-98059385D02*
X91336372Y-98073671D01*
X91336372Y-98073671D02*
X91364943Y-98102242D01*
X91364943Y-98102242D02*
X91379229Y-98130814D01*
X91379229Y-98130814D02*
X91393515Y-98187957D01*
X91393515Y-98187957D02*
X91393515Y-98230814D01*
X91393515Y-98230814D02*
X91379229Y-98287957D01*
X91379229Y-98287957D02*
X91364943Y-98316528D01*
X91364943Y-98316528D02*
X91336372Y-98345100D01*
X91336372Y-98345100D02*
X91293515Y-98359385D01*
X91293515Y-98359385D02*
X91264943Y-98359385D01*
X91264943Y-98359385D02*
X91222086Y-98345100D01*
X91222086Y-98345100D02*
X91207800Y-98330814D01*
X91207800Y-98330814D02*
X91207800Y-98230814D01*
X91207800Y-98230814D02*
X91264943Y-98230814D01*
X91079229Y-98359385D02*
X91079229Y-98059385D01*
X91079229Y-98059385D02*
X90907800Y-98359385D01*
X90907800Y-98359385D02*
X90907800Y-98059385D01*
X90764943Y-98359385D02*
X90764943Y-98059385D01*
X90764943Y-98059385D02*
X90693514Y-98059385D01*
X90693514Y-98059385D02*
X90650657Y-98073671D01*
X90650657Y-98073671D02*
X90622086Y-98102242D01*
X90622086Y-98102242D02*
X90607800Y-98130814D01*
X90607800Y-98130814D02*
X90593514Y-98187957D01*
X90593514Y-98187957D02*
X90593514Y-98230814D01*
X90593514Y-98230814D02*
X90607800Y-98287957D01*
X90607800Y-98287957D02*
X90622086Y-98316528D01*
X90622086Y-98316528D02*
X90650657Y-98345100D01*
X90650657Y-98345100D02*
X90693514Y-98359385D01*
X90693514Y-98359385D02*
X90764943Y-98359385D01*
X105179229Y-100759385D02*
X105179229Y-100459385D01*
X105179229Y-100459385D02*
X105079229Y-100673671D01*
X105079229Y-100673671D02*
X104979229Y-100459385D01*
X104979229Y-100459385D02*
X104979229Y-100759385D01*
X104679229Y-100473671D02*
X104707801Y-100459385D01*
X104707801Y-100459385D02*
X104750658Y-100459385D01*
X104750658Y-100459385D02*
X104793515Y-100473671D01*
X104793515Y-100473671D02*
X104822086Y-100502242D01*
X104822086Y-100502242D02*
X104836372Y-100530814D01*
X104836372Y-100530814D02*
X104850658Y-100587957D01*
X104850658Y-100587957D02*
X104850658Y-100630814D01*
X104850658Y-100630814D02*
X104836372Y-100687957D01*
X104836372Y-100687957D02*
X104822086Y-100716528D01*
X104822086Y-100716528D02*
X104793515Y-100745100D01*
X104793515Y-100745100D02*
X104750658Y-100759385D01*
X104750658Y-100759385D02*
X104722086Y-100759385D01*
X104722086Y-100759385D02*
X104679229Y-100745100D01*
X104679229Y-100745100D02*
X104664943Y-100730814D01*
X104664943Y-100730814D02*
X104664943Y-100630814D01*
X104664943Y-100630814D02*
X104722086Y-100630814D01*
X104536372Y-100759385D02*
X104536372Y-100459385D01*
X104536372Y-100602242D02*
X104364943Y-100602242D01*
X104364943Y-100759385D02*
X104364943Y-100459385D01*
D11*
X85589988Y-100159997D02*
X86497131Y-100159997D01*
X86497131Y-100159997D02*
X86678559Y-100099520D01*
X86678559Y-100099520D02*
X86799512Y-99978568D01*
X86799512Y-99978568D02*
X86859988Y-99797139D01*
X86859988Y-99797139D02*
X86859988Y-99676187D01*
X86859988Y-101429997D02*
X86859988Y-100704282D01*
X86859988Y-101067139D02*
X85589988Y-101067139D01*
X85589988Y-101067139D02*
X85771416Y-100946187D01*
X85771416Y-100946187D02*
X85892369Y-100825235D01*
X85892369Y-100825235D02*
X85952845Y-100704282D01*
D12*
%TO.C,C20*%
X94450000Y-89740580D02*
X94450000Y-89459420D01*
X95470000Y-89740580D02*
X95470000Y-89459420D01*
D11*
%TO.C,J1*%
X84500000Y-104236670D02*
X84500000Y-95981000D01*
X88550000Y-94750000D02*
X87206000Y-94750000D01*
X88550000Y-94750000D02*
X88550000Y-96505000D01*
X88550000Y-105500000D02*
X87177670Y-105500000D01*
X88550000Y-105500000D02*
X88550000Y-103769330D01*
X89970770Y-104251000D02*
G75*
G02*
X89850570Y-104251000I-60100J0D01*
G01*
X89850570Y-104251000D02*
G75*
G02*
X89970770Y-104251000I60100J0D01*
G01*
%TO.C,J2*%
X111573885Y-94836500D02*
X111573885Y-96567170D01*
X111573885Y-94836500D02*
X112946215Y-94836500D01*
X111573885Y-105586500D02*
X111573885Y-103831500D01*
X111573885Y-105586500D02*
X112917885Y-105586500D01*
X115623885Y-96099830D02*
X115623885Y-104355500D01*
X110273315Y-96085500D02*
G75*
G02*
X110153115Y-96085500I-60100J0D01*
G01*
X110153115Y-96085500D02*
G75*
G02*
X110273315Y-96085500I60100J0D01*
G01*
D12*
%TO.C,C17*%
X104500000Y-89740580D02*
X104500000Y-89459420D01*
X105520000Y-89740580D02*
X105520000Y-89459420D01*
D13*
%TO.C,IC2*%
X101625000Y-101900000D02*
G75*
G02*
X101375000Y-101900000I-125000J0D01*
G01*
X101375000Y-101900000D02*
G75*
G02*
X101625000Y-101900000I125000J0D01*
G01*
D12*
%TO.C,C22*%
X102270000Y-98867836D02*
X102270000Y-98652164D01*
X102990000Y-98867836D02*
X102990000Y-98652164D01*
%TO.C,C13*%
X99510000Y-89740580D02*
X99510000Y-89459420D01*
X100530000Y-89740580D02*
X100530000Y-89459420D01*
%TD*%
M02*
