%TF.GenerationSoftware,KiCad,Pcbnew,9.0.3*%
%TF.CreationDate,2025-09-12T10:42:05+02:00*%
%TF.ProjectId,FOC_CONTROLLER_V1,464f435f-434f-44e5-9452-4f4c4c45525f,rev?*%
%TF.SameCoordinates,Original*%
%TF.FileFunction,Legend,Top*%
%TF.FilePolarity,Positive*%
%FSLAX46Y46*%
G04 Gerber Fmt 4.6, Leading zero omitted, Abs format (unit mm)*
G04 Created by KiCad (PCBNEW 9.0.3) date 2025-09-12 10:42:05*
%MOMM*%
%LPD*%
G01*
G04 APERTURE LIST*
%ADD10C,0.100000*%
%ADD11C,0.120000*%
%ADD12C,0.200000*%
%ADD13C,0.250000*%
G04 APERTURE END LIST*
D10*
%TO.C,D2*%
X98775000Y-95485000D02*
G75*
G02*
X98675000Y-95485000I-50000J0D01*
G01*
X98675000Y-95485000D02*
G75*
G02*
X98775000Y-95485000I50000J0D01*
G01*
D11*
%TO.C,C36*%
X110988748Y-97405000D02*
X111511252Y-97405000D01*
X110988748Y-98875000D02*
X111511252Y-98875000D01*
D10*
%TO.C,D1*%
X99460000Y-108975000D02*
X96860000Y-108975000D01*
X99460000Y-110525000D02*
X96860000Y-110525000D01*
D12*
%TO.C,S1*%
X106350000Y-99900000D02*
X106350000Y-101900000D01*
D10*
X108450000Y-98500000D02*
X108450000Y-98500000D01*
X108550000Y-98500000D02*
X108550000Y-98500000D01*
D12*
X108950000Y-99900000D02*
X108950000Y-101900000D01*
D10*
X108450000Y-98500000D02*
G75*
G02*
X108550000Y-98500000I50000J0D01*
G01*
X108550000Y-98500000D02*
G75*
G02*
X108450000Y-98500000I-50000J0D01*
G01*
%TO.C,D3*%
X91225000Y-90935000D02*
G75*
G02*
X91125000Y-90935000I-50000J0D01*
G01*
X91125000Y-90935000D02*
G75*
G02*
X91225000Y-90935000I50000J0D01*
G01*
%TO.C,D4*%
X102150000Y-95335000D02*
G75*
G02*
X102050000Y-95335000I-50000J0D01*
G01*
X102050000Y-95335000D02*
G75*
G02*
X102150000Y-95335000I50000J0D01*
G01*
D11*
%TO.C,C2*%
X96000000Y-91800580D02*
X96000000Y-91519420D01*
X97020000Y-91800580D02*
X97020000Y-91519420D01*
%TO.C,C7*%
X102515000Y-106186252D02*
X102515000Y-105663748D01*
X103985000Y-106186252D02*
X103985000Y-105663748D01*
%TO.C,C33*%
X88911252Y-95455000D02*
X88388748Y-95455000D01*
X88911252Y-96925000D02*
X88388748Y-96925000D01*
%TO.C,C27*%
X88901252Y-89555000D02*
X88378748Y-89555000D01*
X88901252Y-91025000D02*
X88378748Y-91025000D01*
%TO.C,C26*%
X88911252Y-91535000D02*
X88388748Y-91535000D01*
X88911252Y-93005000D02*
X88388748Y-93005000D01*
D10*
%TO.C,D6*%
X109200000Y-90987500D02*
G75*
G02*
X109100000Y-90987500I-50000J0D01*
G01*
X109100000Y-90987500D02*
G75*
G02*
X109200000Y-90987500I50000J0D01*
G01*
%TO.C,Q1*%
X93950000Y-89550000D02*
X93950000Y-89550000D01*
X93950000Y-89650000D02*
X93950000Y-89650000D01*
X93950000Y-89550000D02*
G75*
G02*
X93950000Y-89650000I0J-50000D01*
G01*
X93950000Y-89650000D02*
G75*
G02*
X93950000Y-89550000I0J50000D01*
G01*
%TO.C,L2*%
X104550000Y-109775000D02*
X104550000Y-109775000D01*
X104650000Y-109775000D02*
X104650000Y-109775000D01*
X104550000Y-109775000D02*
G75*
G02*
X104650000Y-109775000I50000J0D01*
G01*
X104650000Y-109775000D02*
G75*
G02*
X104550000Y-109775000I-50000J0D01*
G01*
D11*
%TO.C,C31*%
X110988748Y-93485000D02*
X111511252Y-93485000D01*
X110988748Y-94955000D02*
X111511252Y-94955000D01*
%TO.C,C24*%
X110988748Y-89555000D02*
X111511252Y-89555000D01*
X110988748Y-91025000D02*
X111511252Y-91025000D01*
%TO.C,C4*%
X102770000Y-91800580D02*
X102770000Y-91519420D01*
X103790000Y-91800580D02*
X103790000Y-91519420D01*
%TO.C,C10*%
X99240000Y-107415580D02*
X99240000Y-107134420D01*
X100260000Y-107415580D02*
X100260000Y-107134420D01*
%TO.C,C5*%
X97215336Y-104940000D02*
X96999664Y-104940000D01*
X97215336Y-105660000D02*
X96999664Y-105660000D01*
D10*
%TO.C,D8*%
X98960000Y-112820000D02*
G75*
G02*
X98860000Y-112820000I-50000J0D01*
G01*
X98860000Y-112820000D02*
G75*
G02*
X98960000Y-112820000I50000J0D01*
G01*
D11*
%TO.C,C23*%
X88911252Y-93495000D02*
X88388748Y-93495000D01*
X88911252Y-94965000D02*
X88388748Y-94965000D01*
%TO.C,C25*%
X110988748Y-91525000D02*
X111511252Y-91525000D01*
X110988748Y-92995000D02*
X111511252Y-92995000D01*
D10*
%TO.C,D7*%
X102160000Y-91900000D02*
G75*
G02*
X102060000Y-91900000I-50000J0D01*
G01*
X102060000Y-91900000D02*
G75*
G02*
X102160000Y-91900000I50000J0D01*
G01*
%TO.C,Q3*%
X103950000Y-89550000D02*
X103950000Y-89550000D01*
X103950000Y-89650000D02*
X103950000Y-89650000D01*
X103950000Y-89550000D02*
G75*
G02*
X103950000Y-89650000I0J-50000D01*
G01*
X103950000Y-89650000D02*
G75*
G02*
X103950000Y-89550000I0J50000D01*
G01*
D11*
%TO.C,C35*%
X110988748Y-95445000D02*
X111511252Y-95445000D01*
X110988748Y-96915000D02*
X111511252Y-96915000D01*
D10*
%TO.C,D5*%
X98870000Y-91925000D02*
G75*
G02*
X98770000Y-91925000I-50000J0D01*
G01*
X98770000Y-91925000D02*
G75*
G02*
X98870000Y-91925000I50000J0D01*
G01*
D11*
%TO.C,C3*%
X99440000Y-91800580D02*
X99440000Y-91519420D01*
X100460000Y-91800580D02*
X100460000Y-91519420D01*
D10*
%TO.C,Q2*%
X98950000Y-89550000D02*
X98950000Y-89550000D01*
X98950000Y-89650000D02*
X98950000Y-89650000D01*
X98950000Y-89550000D02*
G75*
G02*
X98950000Y-89650000I0J-50000D01*
G01*
X98950000Y-89650000D02*
G75*
G02*
X98950000Y-89550000I0J50000D01*
G01*
D11*
%TO.C,C34*%
X88911252Y-97415000D02*
X88388748Y-97415000D01*
X88911252Y-98885000D02*
X88388748Y-98885000D01*
%TO.C,C11*%
X97040000Y-107415580D02*
X97040000Y-107134420D01*
X98060000Y-107415580D02*
X98060000Y-107134420D01*
D13*
%TO.C,IC1*%
X96625000Y-103875000D02*
G75*
G02*
X96375000Y-103875000I-125000J0D01*
G01*
X96375000Y-103875000D02*
G75*
G02*
X96625000Y-103875000I125000J0D01*
G01*
%TD*%
M02*
