M48
; DRILL file {KiCad 9.0.3} date 2025-09-12T10:42:01+0200
; FORMAT={-:-/ absolute / metric / decimal}
; #@! TF.CreationDate,2025-09-12T10:42:01+02:00
; #@! TF.GenerationSoftware,Kicad,Pcbnew,9.0.3
; #@! TF.FileFunction,Plated,1,8,PTH
FMAT,2
METRIC
; #@! TA.AperFunction,Plated,PTH,ViaDrill
T1C0.300
; #@! TA.AperFunction,Plated,PTH,ComponentDrill
T2C1.200
; #@! TA.AperFunction,Plated,PTH,ComponentDrill
T3C3.400
%
G90
G05
T1
X84.1Y-100.0
X84.122Y-99.168
X84.122Y-100.832
X84.187Y-98.338
X84.187Y-101.662
X84.296Y-97.513
X84.296Y-102.487
X84.447Y-96.694
X84.447Y-103.306
X84.642Y-95.885
X84.642Y-104.115
X84.878Y-95.087
X84.878Y-104.913
X85.156Y-94.302
X85.156Y-105.698
X85.475Y-93.533
X85.475Y-106.467
X85.833Y-92.782
X85.833Y-107.218
X86.23Y-92.05
X86.23Y-107.95
X86.665Y-91.34
X86.665Y-108.66
X87.137Y-90.654
X87.137Y-109.346
X87.643Y-89.994
X87.643Y-110.006
X87.7Y-92.27
X87.7Y-94.23
X87.7Y-98.15
X88.184Y-89.361
X88.184Y-110.639
X88.757Y-111.243
X88.8Y-100.75
X88.8Y-102.0
X88.8Y-103.25
X89.19Y-88.58
X89.19Y-89.98
X89.19Y-91.38
X89.19Y-92.78
X89.19Y-94.18
X89.19Y-95.58
X89.361Y-111.816
X89.89Y-88.58
X89.89Y-89.98
X89.89Y-91.38
X89.89Y-92.78
X89.89Y-94.18
X89.89Y-95.58
X89.994Y-112.357
X90.08Y-100.62
X90.11Y-99.43
X90.15Y-101.91
X90.654Y-112.863
X90.84Y-102.345
X90.93Y-98.89
X91.3Y-95.9
X91.34Y-113.335
X91.35Y-97.427
X91.43Y-98.23
X91.48Y-90.457
X91.54Y-99.77
X91.672Y-103.55
X91.83Y-87.2
X92.05Y-113.77
X92.24Y-97.98
X92.24Y-98.53
X92.4Y-91.1
X92.782Y-114.167
X92.8Y-101.53
X92.83Y-100.58
X92.96Y-96.78
X93.0Y-102.2
X93.29Y-89.19
X93.533Y-114.525
X93.57Y-99.782
X93.58Y-102.367
X93.61Y-103.27
X93.938Y-87.975
X93.95Y-86.075
X94.15Y-91.1
X94.27Y-99.792
X94.302Y-114.844
X94.39Y-103.56
X94.575Y-86.075
X94.638Y-87.975
X95.087Y-115.122
X95.23Y-96.56
X95.275Y-86.075
X95.338Y-87.975
X95.57Y-99.989
X95.8Y-104.8
X95.885Y-115.358
X95.975Y-86.075
X96.0Y-103.5
X96.038Y-87.975
X96.4Y-108.1
X96.4Y-109.0
X96.4Y-110.5
X96.42Y-109.75
X96.45Y-96.38
X96.5Y-106.1
X96.63Y-103.49
X96.694Y-115.553
X97.39Y-99.77
X97.42Y-99.153
X97.42Y-98.03
X97.445Y-98.604
X97.513Y-115.704
X97.55Y-108.05
X97.58Y-97.4
X97.71Y-100.32
X97.75Y-102.01
X97.9Y-89.9
X98.075Y-92.367
X98.1Y-109.8
X98.17Y-98.26
X98.2Y-102.43
X98.22Y-87.23
X98.27Y-89.26
X98.28Y-104.5
X98.28Y-105.15
X98.3Y-86.65
X98.338Y-115.813
X98.567Y-91.928
X98.62Y-97.64
X98.7Y-89.9
X98.7Y-108.1
X98.75Y-102.7
X98.78Y-101.87
X98.89Y-104.5
X98.938Y-87.975
X98.95Y-86.075
X99.168Y-115.878
X99.3Y-99.3
X99.3Y-100.0
X99.3Y-100.7
X99.392Y-85.02
X99.575Y-86.075
X99.638Y-87.975
X99.75Y-105.82
X99.75Y-106.5
X100.0Y-99.3
X100.0Y-100.0
X100.0Y-100.7
X100.0Y-113.5
X100.0Y-115.9
X100.01Y-102.53
X100.207Y-85.02
X100.275Y-86.075
X100.287Y-97.325
X100.338Y-87.975
X100.407Y-114.1
X100.7Y-99.3
X100.7Y-100.0
X100.7Y-100.7
X100.832Y-115.878
X100.975Y-86.075
X101.0Y-102.6
X101.038Y-87.975
X101.2Y-98.0
X101.27Y-93.68
X101.59Y-97.35
X101.662Y-115.813
X101.664Y-102.725
X101.737Y-91.82
X101.77Y-99.26
X101.86Y-98.05
X101.87Y-98.6
X101.9Y-104.718
X101.9Y-105.55
X102.25Y-99.979
X102.284Y-97.626
X102.302Y-101.963
X102.418Y-99.154
X102.487Y-115.704
X102.63Y-98.28
X102.65Y-94.03
X102.675Y-100.91
X102.712Y-102.33
X102.8Y-100.25
X102.9Y-106.9
X103.0Y-89.8
X103.05Y-109.075
X103.05Y-109.775
X103.05Y-110.475
X103.22Y-89.26
X103.25Y-86.71
X103.26Y-87.27
X103.306Y-115.553
X103.34Y-85.55
X103.4Y-95.9
X103.4Y-96.55
X103.4Y-103.3
X103.6Y-106.9
X103.75Y-109.075
X103.75Y-109.775
X103.75Y-110.475
X103.934Y-99.755
X103.938Y-87.975
X103.95Y-86.075
X104.002Y-96.032
X104.115Y-115.358
X104.3Y-104.7
X104.575Y-86.075
X104.638Y-87.975
X104.67Y-102.46
X104.7Y-101.55
X104.913Y-115.122
X105.275Y-86.075
X105.338Y-87.975
X105.505Y-103.55
X105.698Y-114.844
X105.9Y-99.0
X105.975Y-86.075
X106.038Y-87.975
X106.467Y-114.525
X106.8Y-101.1
X107.218Y-114.167
X107.28Y-98.32
X107.75Y-103.55
X107.8Y-100.0
X107.95Y-113.77
X107.97Y-97.68
X108.09Y-96.23
X108.297Y-86.596
X108.31Y-97.09
X108.32Y-87.12
X108.475Y-89.14
X108.66Y-113.335
X108.83Y-90.425
X109.346Y-112.863
X109.5Y-100.2
X109.5Y-101.4
X109.86Y-88.07
X109.86Y-89.47
X110.006Y-112.357
X110.3Y-92.26
X110.3Y-92.86
X110.3Y-93.46
X110.3Y-94.06
X110.3Y-94.66
X110.3Y-95.26
X110.3Y-95.86
X110.3Y-96.46
X110.3Y-97.06
X110.3Y-97.66
X110.4Y-102.1
X110.4Y-103.35
X110.56Y-88.07
X110.56Y-89.47
X110.56Y-90.87
X110.639Y-111.816
X111.0Y-92.26
X111.0Y-92.86
X111.0Y-93.46
X111.0Y-94.06
X111.0Y-94.66
X111.0Y-95.26
X111.0Y-95.86
X111.0Y-96.46
X111.0Y-97.06
X111.0Y-97.66
X111.243Y-111.243
X111.3Y-102.1
X111.3Y-103.35
X111.324Y-99.587
X111.324Y-100.837
X111.816Y-110.639
X112.2Y-102.1
X112.2Y-103.35
X112.357Y-110.006
X112.863Y-109.346
X113.335Y-91.34
X113.335Y-108.66
X113.77Y-92.05
X113.77Y-107.95
X114.167Y-92.782
X114.167Y-107.218
X114.525Y-93.533
X114.525Y-106.467
X114.844Y-94.302
X114.844Y-105.698
X115.122Y-95.087
X115.122Y-104.913
X115.358Y-95.885
X115.358Y-104.115
X115.553Y-96.694
X115.553Y-103.306
X115.704Y-97.513
X115.704Y-102.487
X115.813Y-98.338
X115.813Y-101.662
X115.878Y-99.168
X115.878Y-100.832
X115.9Y-100.0
T2
X96.0Y-83.3
X100.0Y-83.3
X104.0Y-83.3
T3
X93.282Y-93.282
X93.282Y-106.718
X106.718Y-93.282
X106.718Y-106.718
M30
