%TF.GenerationSoftware,KiCad,Pcbnew,9.0.3*%
%TF.CreationDate,2025-09-12T10:42:05+02:00*%
%TF.ProjectId,FOC_CONTROLLER_V1,464f435f-434f-44e5-9452-4f4c4c45525f,rev?*%
%TF.SameCoordinates,Original*%
%TF.FileFunction,Copper,L6,Inr*%
%TF.FilePolarity,Positive*%
%FSLAX46Y46*%
G04 Gerber Fmt 4.6, Leading zero omitted, Abs format (unit mm)*
G04 Created by KiCad (PCBNEW 9.0.3) date 2025-09-12 10:42:05*
%MOMM*%
%LPD*%
G01*
G04 APERTURE LIST*
%TA.AperFunction,ComponentPad*%
%ADD10C,3.600000*%
%TD*%
%TA.AperFunction,ComponentPad*%
%ADD11C,1.500000*%
%TD*%
%TA.AperFunction,ViaPad*%
%ADD12C,0.400000*%
%TD*%
G04 APERTURE END LIST*
D10*
%TO.N,GND*%
%TO.C,TP1*%
X106717500Y-106717500D03*
%TD*%
%TO.N,GND*%
%TO.C,TP1*%
X93282500Y-106717500D03*
%TD*%
D11*
%TO.N,/OUTV*%
%TO.C,TP6*%
X100000000Y-83300000D03*
%TD*%
%TO.N,/OUTW*%
%TO.C,TP7*%
X104000000Y-83300000D03*
%TD*%
%TO.N,/OUTU*%
%TO.C,TP5*%
X96000000Y-83300000D03*
%TD*%
D10*
%TO.N,GND*%
%TO.C,TP1*%
X106717500Y-93282500D03*
%TD*%
%TO.N,GND*%
%TO.C,TP1*%
X93282500Y-93282500D03*
%TD*%
D12*
%TO.N,+3.3V*%
X98280000Y-104500000D03*
X100207500Y-85020000D03*
X103600000Y-106900000D03*
X103050000Y-110475000D03*
X98280000Y-105150000D03*
X103750000Y-110475000D03*
X101900000Y-105550000D03*
X108090000Y-96230000D03*
X102418225Y-99153663D03*
X92240000Y-97980000D03*
X103750000Y-109075000D03*
X103050000Y-109775000D03*
X101770000Y-99260000D03*
X98890000Y-104500000D03*
X103050000Y-109075000D03*
X95570000Y-99989232D03*
X92240000Y-98530003D03*
X102900000Y-106900000D03*
X104002500Y-96032500D03*
X103750000Y-109775000D03*
%TO.N,GND*%
X104300000Y-104700000D03*
X84121790Y-99167858D03*
X100000000Y-100700000D03*
X84878201Y-95086630D03*
X106800000Y-101100000D03*
X102630000Y-98280000D03*
X86665138Y-91340239D03*
X104913370Y-115121799D03*
X97512692Y-115704245D03*
X87700000Y-98150000D03*
X106467113Y-114525373D03*
X89360823Y-111816003D03*
X101662003Y-115812898D03*
X114167004Y-107218449D03*
X111242998Y-111242998D03*
X94301950Y-114843929D03*
X96400000Y-110500000D03*
X105900000Y-99000000D03*
X86230196Y-107950000D03*
X96694204Y-115552547D03*
X107800000Y-100000000D03*
X115358221Y-95884777D03*
X84641779Y-104115223D03*
X112356621Y-110006194D03*
X113334862Y-108659761D03*
X93000000Y-102200000D03*
X98170000Y-98260000D03*
X87700000Y-94230000D03*
X102487308Y-115704245D03*
X99300000Y-99300000D03*
X95884777Y-115358221D03*
X99167858Y-115878210D03*
X100700000Y-100000000D03*
X111300000Y-102100000D03*
X103934287Y-99755057D03*
X98700000Y-108100000D03*
X86665138Y-108659761D03*
X84100000Y-100000000D03*
X114167004Y-92781551D03*
X84447453Y-96694204D03*
X97900000Y-89900000D03*
X115812898Y-98337997D03*
X115878210Y-100832142D03*
X114843929Y-105698050D03*
X94270000Y-99792500D03*
X107970000Y-97680000D03*
X98337997Y-115812898D03*
X91430000Y-98230000D03*
X105698050Y-114843929D03*
X85832996Y-92781551D03*
X109345786Y-112863370D03*
X96400000Y-108100000D03*
X84121790Y-100832142D03*
X89993806Y-112356621D03*
X103305796Y-115552547D03*
X113334862Y-91340239D03*
X98700000Y-89900000D03*
X110006194Y-112356621D03*
X115552547Y-103305796D03*
X115121799Y-95086630D03*
X112200000Y-102100000D03*
X112863370Y-109345786D03*
X99300000Y-100700000D03*
X99300000Y-100000000D03*
X95230000Y-96560000D03*
X110400000Y-103350000D03*
X93532887Y-114525373D03*
X91300000Y-95900000D03*
X115358221Y-104115223D03*
X85156071Y-105698050D03*
X100000000Y-115900000D03*
X90110000Y-99430000D03*
X87643379Y-110006194D03*
X104115223Y-115358221D03*
X96420000Y-109750000D03*
X88183997Y-89360823D03*
X115704245Y-97512692D03*
X84447453Y-103305796D03*
X115812898Y-101662003D03*
X84641779Y-95884777D03*
X96630000Y-103490000D03*
X96400000Y-109000000D03*
X100700000Y-99300000D03*
X111300000Y-103350000D03*
X91540000Y-99770000D03*
X101900000Y-104717500D03*
X100832142Y-115878210D03*
X88183997Y-110639177D03*
X100000000Y-99300000D03*
X84295755Y-102487308D03*
X87700000Y-92270000D03*
X88757002Y-111242998D03*
X103400000Y-103300000D03*
X111816003Y-110639177D03*
X91340239Y-113334862D03*
X100407500Y-114100000D03*
X94150000Y-91100000D03*
X84187102Y-98337997D03*
X92050000Y-113769804D03*
X100010000Y-102530000D03*
X115704245Y-102487308D03*
X85832996Y-107218449D03*
X96000000Y-103500000D03*
X85474627Y-106467113D03*
X113769804Y-107950000D03*
X103400000Y-95900000D03*
X87136630Y-109345786D03*
X101860000Y-98050000D03*
X113769804Y-92050000D03*
X110400000Y-102100000D03*
X114525373Y-93532887D03*
X98100000Y-109800000D03*
X84878201Y-104913370D03*
X97580000Y-97400000D03*
X85474627Y-93532887D03*
X114843929Y-94301950D03*
X115121799Y-104913370D03*
X86230196Y-92050000D03*
X90080000Y-100620000D03*
X107218449Y-114167004D03*
X100700000Y-100700000D03*
X115878210Y-99167858D03*
X109500000Y-100200000D03*
X90150000Y-101910000D03*
X97550000Y-108050000D03*
X100000000Y-100000000D03*
X110639177Y-111816003D03*
X115900000Y-100000000D03*
X92960000Y-96780000D03*
X95086630Y-115121799D03*
X107950000Y-113769804D03*
X101000000Y-102600000D03*
X103000000Y-89800000D03*
X85156071Y-94301950D03*
X84187102Y-101662003D03*
X87643379Y-89993806D03*
X108659761Y-113334862D03*
X109500000Y-101400000D03*
X84295755Y-97512692D03*
X92400000Y-91100000D03*
X115552547Y-96694204D03*
X112200000Y-103350000D03*
X95800000Y-104800000D03*
X87136630Y-90654214D03*
X96500000Y-106100000D03*
X101590000Y-97350000D03*
X92781551Y-114167004D03*
X90654214Y-112863370D03*
X101870000Y-98600000D03*
X114525373Y-106467113D03*
%TO.N,/NRST*%
X88800000Y-103250000D03*
X107750000Y-103550000D03*
%TO.N,VBAT+*%
X110300000Y-95260000D03*
X99750000Y-106500000D03*
X103938000Y-87975000D03*
X89190000Y-88580000D03*
X100338000Y-87975000D03*
X110300000Y-97060000D03*
X93938000Y-87975000D03*
X111000000Y-96460000D03*
X111000000Y-94060000D03*
X89190000Y-95580000D03*
X110300000Y-97660000D03*
X111000000Y-93460000D03*
X89890000Y-91380000D03*
X111000000Y-94660000D03*
X110300000Y-94660000D03*
X111000000Y-92260000D03*
X89190000Y-89980000D03*
X89890000Y-89980000D03*
X94638000Y-87975000D03*
X89890000Y-92780000D03*
X110300000Y-94060000D03*
X109860000Y-89470000D03*
X110560000Y-88070000D03*
X101038000Y-87975000D03*
X111000000Y-92860000D03*
X111000000Y-97660000D03*
X110300000Y-96460000D03*
X104638000Y-87975000D03*
X89890000Y-94180000D03*
X110560000Y-89470000D03*
X110560000Y-90870000D03*
X89890000Y-95580000D03*
X110300000Y-92260000D03*
X98938000Y-87975000D03*
X110300000Y-93460000D03*
X105338000Y-87975000D03*
X89190000Y-91380000D03*
X110300000Y-95860000D03*
X109860000Y-88070000D03*
X111000000Y-97060000D03*
X106038000Y-87975000D03*
X95338000Y-87975000D03*
X111000000Y-95860000D03*
X110300000Y-92860000D03*
X89190000Y-92780000D03*
X96038000Y-87975000D03*
X111000000Y-95260000D03*
X99638000Y-87975000D03*
X89190000Y-94180000D03*
X89890000Y-88580000D03*
X99750000Y-105820000D03*
%TO.N,/ISNSU*%
X102250000Y-99979222D03*
X91672500Y-103550000D03*
%TO.N,/OP2O*%
X98750000Y-102700000D03*
X93610000Y-103270000D03*
%TO.N,/OP2N*%
X92800000Y-101530000D03*
X98200000Y-102430000D03*
%TO.N,/ISNSV*%
X94390000Y-103560000D03*
X102800000Y-100250000D03*
%TO.N,/BTN*%
X97420000Y-98030000D03*
X91350000Y-97427500D03*
%TO.N,Net-(IC1-PA5)*%
X104700000Y-101550000D03*
X99392500Y-85020000D03*
%TO.N,/SHUNT+AFTER*%
X103400000Y-96550000D03*
X103340000Y-85550000D03*
%TO.N,/LSU*%
X96450000Y-96380000D03*
X91480000Y-90457500D03*
%TO.N,/HSW*%
X102284266Y-97625734D03*
X108830000Y-90425000D03*
%TO.N,/LSW*%
X102650000Y-94030000D03*
X100286889Y-97324999D03*
%TO.N,/SPI2_CS*%
X97390000Y-99770000D03*
%TO.N,/OP2P*%
X97750000Y-102010000D03*
X92830000Y-100580000D03*
%TO.N,/SPI2_MOSI*%
X98780000Y-101870000D03*
%TO.N,/UART_TX*%
X102711830Y-102330000D03*
X111323885Y-100836500D03*
%TO.N,/SWCLK*%
X97419527Y-99152966D03*
X88800000Y-102000000D03*
%TO.N,Net-(D8-A)*%
X101664482Y-102724915D03*
X100000000Y-113500000D03*
%TO.N,/MGL*%
X102675141Y-100910002D03*
X98620000Y-97640000D03*
%TO.N,/UART_RX*%
X111323885Y-99586500D03*
X104670000Y-102460000D03*
%TO.N,/SWDIO*%
X97444761Y-98603543D03*
X88800000Y-100750000D03*
%TO.N,/SPI2_MISO*%
X97710000Y-100320000D03*
%TO.N,/MGH*%
X102301875Y-101963340D03*
%TO.N,Net-(IC2-SCLK)*%
X105505000Y-103550000D03*
X101200000Y-98000000D03*
%TO.N,/SHUNT+U*%
X90930000Y-98890000D03*
X98300000Y-86650000D03*
%TO.N,Net-(Q1-G2)*%
X91830000Y-87200000D03*
X93950000Y-86075000D03*
%TO.N,Net-(Q1-G1)*%
X93290000Y-89190000D03*
X98075000Y-92367500D03*
%TO.N,/SHUNT+V*%
X93570000Y-99782500D03*
X103250000Y-86710000D03*
%TO.N,Net-(Q2-G2)*%
X98567326Y-91927624D03*
X98950000Y-86075000D03*
%TO.N,Net-(Q2-G1)*%
X98270000Y-89260000D03*
X101270000Y-93680000D03*
%TO.N,/SHUNT+W*%
X108310000Y-97090000D03*
X108297464Y-86595515D03*
%TO.N,Net-(Q3-G2)*%
X103950000Y-86075000D03*
X101736608Y-91819688D03*
%TO.N,Net-(Q3-G1)*%
X103220000Y-89260000D03*
X108475000Y-89140000D03*
%TO.N,Net-(Q1-S2)*%
X95275000Y-86075000D03*
X94575000Y-86075000D03*
X95975000Y-86075000D03*
%TO.N,Net-(Q2-S2)*%
X99575000Y-86075000D03*
X100275000Y-86075000D03*
X100975000Y-86075000D03*
%TO.N,Net-(Q3-S2)*%
X105975000Y-86075000D03*
X105275000Y-86075000D03*
X104575000Y-86075000D03*
%TO.N,/SHUNT-W*%
X108320000Y-87120000D03*
X107280000Y-98320000D03*
%TO.N,/SHUNT-U*%
X90840000Y-102345000D03*
X98220000Y-87230000D03*
%TO.N,/SHUNT-V*%
X103260000Y-87270000D03*
X93580000Y-102367500D03*
%TD*%
%TA.AperFunction,Conductor*%
%TO.N,VBAT+*%
G36*
X110406443Y-86542964D02*
G01*
X110408471Y-86544468D01*
X110634499Y-86716756D01*
X110638152Y-86719682D01*
X111258316Y-87241183D01*
X111261851Y-87244303D01*
X111722019Y-87670500D01*
X111856301Y-87794869D01*
X111859702Y-87798173D01*
X112047032Y-87989133D01*
X112072496Y-88034822D01*
X112900000Y-91400000D01*
X112900001Y-91400005D01*
X115094749Y-96687350D01*
X115101619Y-96713601D01*
X115557913Y-100546478D01*
X115546017Y-100606496D01*
X115545344Y-100607680D01*
X115505003Y-100677553D01*
X115499123Y-100699500D01*
X115477710Y-100779415D01*
X115477710Y-100884869D01*
X115505003Y-100986729D01*
X115538355Y-101044496D01*
X115544016Y-101054301D01*
X115556737Y-101114150D01*
X115555357Y-101123211D01*
X115502289Y-101388551D01*
X115490950Y-101418632D01*
X115439691Y-101507416D01*
X115412398Y-101609276D01*
X115412398Y-101714730D01*
X115420528Y-101745072D01*
X115421978Y-101790109D01*
X114992444Y-103937774D01*
X114992445Y-103937775D01*
X114989387Y-103953060D01*
X114985014Y-103960636D01*
X114957721Y-104062496D01*
X114957721Y-104111390D01*
X114955797Y-104121010D01*
X114955797Y-104121011D01*
X114955798Y-104121011D01*
X114863684Y-104581576D01*
X114836612Y-104632162D01*
X114801318Y-104667456D01*
X114748593Y-104758779D01*
X114748593Y-104758780D01*
X114748592Y-104758782D01*
X114748592Y-104758783D01*
X114721299Y-104860643D01*
X114721299Y-104966097D01*
X114743935Y-105050576D01*
X114748592Y-105067957D01*
X114749093Y-105069165D01*
X114749194Y-105070203D01*
X114750272Y-105074224D01*
X114749606Y-105074402D01*
X114754706Y-105126464D01*
X114727169Y-105264150D01*
X114697216Y-105317503D01*
X114679592Y-105330471D01*
X114598017Y-105377569D01*
X114523447Y-105452139D01*
X114470723Y-105543459D01*
X114470723Y-105543460D01*
X114470722Y-105543462D01*
X114470722Y-105543463D01*
X114454843Y-105602727D01*
X114443429Y-105645324D01*
X114443429Y-105750779D01*
X114457175Y-105802084D01*
X114453972Y-105863186D01*
X114449043Y-105874026D01*
X114329170Y-106100452D01*
X114291181Y-106139864D01*
X114279459Y-106146632D01*
X114204892Y-106221200D01*
X114152167Y-106312522D01*
X114152167Y-106312523D01*
X114152166Y-106312525D01*
X114152166Y-106312526D01*
X114148452Y-106326389D01*
X114124873Y-106414387D01*
X114124873Y-106461761D01*
X114113368Y-106508082D01*
X113898021Y-106914846D01*
X113880531Y-106938527D01*
X113846524Y-106972535D01*
X113793798Y-107063858D01*
X113793796Y-107063863D01*
X113770728Y-107149951D01*
X113762597Y-107170647D01*
X113521876Y-107625342D01*
X113504386Y-107649023D01*
X113449323Y-107704086D01*
X113396598Y-107795409D01*
X113396598Y-107795410D01*
X113396597Y-107795412D01*
X113396597Y-107795413D01*
X113369803Y-107895413D01*
X113369303Y-107897278D01*
X113368777Y-107901271D01*
X113358120Y-107934659D01*
X113181431Y-108268406D01*
X113143437Y-108307821D01*
X113088951Y-108339279D01*
X113014380Y-108413850D01*
X112961656Y-108505170D01*
X112961656Y-108505171D01*
X112934362Y-108607035D01*
X112934362Y-108710504D01*
X112922857Y-108756825D01*
X112905642Y-108789342D01*
X112891967Y-108808988D01*
X112777101Y-108937527D01*
X112728908Y-108967186D01*
X112708779Y-108972580D01*
X112617459Y-109025304D01*
X112542888Y-109099875D01*
X112490164Y-109191195D01*
X112490163Y-109191197D01*
X112470459Y-109264730D01*
X112448653Y-109305072D01*
X112091847Y-109704353D01*
X112089982Y-109706439D01*
X112036141Y-109760281D01*
X112025685Y-109778390D01*
X112018874Y-109786013D01*
X111020432Y-110903310D01*
X111002014Y-110918283D01*
X111002233Y-110918568D01*
X110997083Y-110922519D01*
X110922521Y-110997080D01*
X110922520Y-110997081D01*
X110901858Y-111032868D01*
X110889943Y-111049332D01*
X110574931Y-111401843D01*
X110526736Y-111431502D01*
X110484589Y-111442796D01*
X110484586Y-111442797D01*
X110393266Y-111495521D01*
X110318695Y-111570092D01*
X110265971Y-111661412D01*
X110265971Y-111661414D01*
X110239095Y-111761717D01*
X110217287Y-111802061D01*
X110208239Y-111812186D01*
X110189745Y-111828317D01*
X110025175Y-111939219D01*
X109969850Y-111956121D01*
X109953467Y-111956121D01*
X109851607Y-111983414D01*
X109851606Y-111983414D01*
X109851604Y-111983415D01*
X109851603Y-111983415D01*
X109760283Y-112036139D01*
X109685713Y-112110709D01*
X109643032Y-112184635D01*
X109612621Y-112217232D01*
X109232169Y-112473614D01*
X109202472Y-112487141D01*
X109191202Y-112490161D01*
X109191195Y-112490164D01*
X109099873Y-112542889D01*
X109045670Y-112597091D01*
X109030993Y-112609184D01*
X108520637Y-112953107D01*
X108520637Y-112953108D01*
X108509788Y-112960418D01*
X108505174Y-112961655D01*
X108413848Y-113014382D01*
X108381071Y-113047158D01*
X108373142Y-113052502D01*
X108373139Y-113052502D01*
X107920554Y-113357495D01*
X107890853Y-113371023D01*
X107795416Y-113396595D01*
X107795409Y-113396598D01*
X107704087Y-113449323D01*
X107629523Y-113523886D01*
X107625576Y-113529032D01*
X107623972Y-113527802D01*
X107589951Y-113559908D01*
X107198814Y-113756595D01*
X107167267Y-113766300D01*
X107165729Y-113766502D01*
X107165722Y-113766504D01*
X107063862Y-113793797D01*
X107063861Y-113793797D01*
X107063859Y-113793798D01*
X107063858Y-113793798D01*
X106972535Y-113846523D01*
X106935823Y-113883235D01*
X106910297Y-113901677D01*
X106487431Y-114114320D01*
X106442955Y-114124873D01*
X106414386Y-114124873D01*
X106312526Y-114152166D01*
X106312525Y-114152166D01*
X106312523Y-114152167D01*
X106312522Y-114152167D01*
X106221200Y-114204892D01*
X106145374Y-114280718D01*
X106119847Y-114299161D01*
X105838068Y-114440855D01*
X105777586Y-114450106D01*
X105767974Y-114448036D01*
X105750778Y-114443429D01*
X105750777Y-114443429D01*
X105645323Y-114443429D01*
X105633572Y-114446577D01*
X105612044Y-114452345D01*
X105584450Y-114455697D01*
X101433477Y-114372863D01*
X101375675Y-114352799D01*
X101363407Y-114341784D01*
X99186955Y-112032497D01*
X99160803Y-111977182D01*
X99160000Y-111964596D01*
X99160000Y-105659000D01*
X99178907Y-105600809D01*
X99228407Y-105564845D01*
X99259000Y-105560000D01*
X100379565Y-105560000D01*
X100437756Y-105578907D01*
X100473720Y-105628407D01*
X100478555Y-105660424D01*
X100459999Y-106950000D01*
X100460000Y-106950001D01*
X101549999Y-111499998D01*
X101550000Y-111500000D01*
X102250000Y-112150000D01*
X105700000Y-112150000D01*
X108100000Y-108490000D01*
X108594733Y-107570304D01*
X108594063Y-107434809D01*
X108601597Y-107396443D01*
X108615898Y-107361919D01*
X108683770Y-107108616D01*
X108718000Y-106848620D01*
X108718000Y-106586380D01*
X108683770Y-106326384D01*
X108615898Y-106073081D01*
X108615142Y-106071257D01*
X108605208Y-106047273D01*
X108594424Y-106021239D01*
X108586890Y-105983850D01*
X108573609Y-103297273D01*
X109999500Y-103297273D01*
X109999500Y-103402727D01*
X110026457Y-103503333D01*
X110026794Y-103504589D01*
X110026794Y-103504590D01*
X110064836Y-103570480D01*
X110079520Y-103595913D01*
X110154087Y-103670480D01*
X110245413Y-103723207D01*
X110347273Y-103750500D01*
X110347275Y-103750500D01*
X110452725Y-103750500D01*
X110452727Y-103750500D01*
X110554587Y-103723207D01*
X110645913Y-103670480D01*
X110720480Y-103595913D01*
X110764264Y-103520075D01*
X110809733Y-103479136D01*
X110870583Y-103472740D01*
X110923571Y-103503333D01*
X110935732Y-103520071D01*
X110979520Y-103595913D01*
X111054087Y-103670480D01*
X111145413Y-103723207D01*
X111247273Y-103750500D01*
X111247275Y-103750500D01*
X111352725Y-103750500D01*
X111352727Y-103750500D01*
X111454587Y-103723207D01*
X111545913Y-103670480D01*
X111620480Y-103595913D01*
X111664264Y-103520075D01*
X111709733Y-103479136D01*
X111770583Y-103472740D01*
X111823571Y-103503333D01*
X111835732Y-103520071D01*
X111879520Y-103595913D01*
X111954087Y-103670480D01*
X112045413Y-103723207D01*
X112147273Y-103750500D01*
X112147275Y-103750500D01*
X112252725Y-103750500D01*
X112252727Y-103750500D01*
X112354587Y-103723207D01*
X112445913Y-103670480D01*
X112520480Y-103595913D01*
X112573207Y-103504587D01*
X112600500Y-103402727D01*
X112600500Y-103297273D01*
X112573207Y-103195413D01*
X112568230Y-103186793D01*
X112520481Y-103104089D01*
X112520480Y-103104087D01*
X112445913Y-103029520D01*
X112430255Y-103020480D01*
X112354589Y-102976794D01*
X112354588Y-102976793D01*
X112354587Y-102976793D01*
X112252727Y-102949500D01*
X112147273Y-102949500D01*
X112045413Y-102976793D01*
X112045412Y-102976793D01*
X112045410Y-102976794D01*
X112045409Y-102976794D01*
X111954089Y-103029518D01*
X111879518Y-103104089D01*
X111835736Y-103179922D01*
X111790267Y-103220863D01*
X111729416Y-103227259D01*
X111676428Y-103196666D01*
X111664264Y-103179922D01*
X111620481Y-103104089D01*
X111620480Y-103104087D01*
X111545913Y-103029520D01*
X111530255Y-103020480D01*
X111454589Y-102976794D01*
X111454588Y-102976793D01*
X111454587Y-102976793D01*
X111352727Y-102949500D01*
X111247273Y-102949500D01*
X111145413Y-102976793D01*
X111145412Y-102976793D01*
X111145410Y-102976794D01*
X111145409Y-102976794D01*
X111054089Y-103029518D01*
X110979518Y-103104089D01*
X110935736Y-103179922D01*
X110890267Y-103220863D01*
X110829416Y-103227259D01*
X110776428Y-103196666D01*
X110764264Y-103179922D01*
X110720481Y-103104089D01*
X110720480Y-103104087D01*
X110645913Y-103029520D01*
X110630255Y-103020480D01*
X110554589Y-102976794D01*
X110554588Y-102976793D01*
X110554587Y-102976793D01*
X110452727Y-102949500D01*
X110347273Y-102949500D01*
X110245413Y-102976793D01*
X110245412Y-102976793D01*
X110245410Y-102976794D01*
X110245409Y-102976794D01*
X110154089Y-103029518D01*
X110079518Y-103104089D01*
X110026794Y-103195409D01*
X110026794Y-103195410D01*
X110026793Y-103195412D01*
X110026793Y-103195413D01*
X109999500Y-103297273D01*
X108573609Y-103297273D01*
X108567429Y-102047273D01*
X109999500Y-102047273D01*
X109999500Y-102152727D01*
X110023744Y-102243207D01*
X110026794Y-102254589D01*
X110026794Y-102254590D01*
X110079518Y-102345910D01*
X110079520Y-102345913D01*
X110154087Y-102420480D01*
X110245413Y-102473207D01*
X110347273Y-102500500D01*
X110347275Y-102500500D01*
X110452725Y-102500500D01*
X110452727Y-102500500D01*
X110554587Y-102473207D01*
X110645913Y-102420480D01*
X110720480Y-102345913D01*
X110764264Y-102270075D01*
X110809733Y-102229136D01*
X110870583Y-102222740D01*
X110923571Y-102253333D01*
X110935732Y-102270071D01*
X110979520Y-102345913D01*
X111054087Y-102420480D01*
X111145413Y-102473207D01*
X111247273Y-102500500D01*
X111247275Y-102500500D01*
X111352725Y-102500500D01*
X111352727Y-102500500D01*
X111454587Y-102473207D01*
X111545913Y-102420480D01*
X111620480Y-102345913D01*
X111664264Y-102270075D01*
X111709733Y-102229136D01*
X111770583Y-102222740D01*
X111823571Y-102253333D01*
X111835732Y-102270071D01*
X111879520Y-102345913D01*
X111954087Y-102420480D01*
X112045413Y-102473207D01*
X112147273Y-102500500D01*
X112147275Y-102500500D01*
X112252725Y-102500500D01*
X112252727Y-102500500D01*
X112354587Y-102473207D01*
X112445913Y-102420480D01*
X112520480Y-102345913D01*
X112573207Y-102254587D01*
X112600500Y-102152727D01*
X112600500Y-102047273D01*
X112573207Y-101945413D01*
X112564263Y-101929922D01*
X112521882Y-101856515D01*
X112520480Y-101854087D01*
X112445913Y-101779520D01*
X112439665Y-101775913D01*
X112354589Y-101726794D01*
X112354588Y-101726793D01*
X112354587Y-101726793D01*
X112252727Y-101699500D01*
X112147273Y-101699500D01*
X112045413Y-101726793D01*
X112045412Y-101726793D01*
X112045410Y-101726794D01*
X112045409Y-101726794D01*
X111954089Y-101779518D01*
X111879518Y-101854089D01*
X111835736Y-101929922D01*
X111790267Y-101970863D01*
X111729416Y-101977259D01*
X111676428Y-101946666D01*
X111664264Y-101929922D01*
X111621882Y-101856515D01*
X111620480Y-101854087D01*
X111545913Y-101779520D01*
X111539665Y-101775913D01*
X111454589Y-101726794D01*
X111454588Y-101726793D01*
X111454587Y-101726793D01*
X111352727Y-101699500D01*
X111247273Y-101699500D01*
X111145413Y-101726793D01*
X111145412Y-101726793D01*
X111145410Y-101726794D01*
X111145409Y-101726794D01*
X111054089Y-101779518D01*
X110979518Y-101854089D01*
X110935736Y-101929922D01*
X110890267Y-101970863D01*
X110829416Y-101977259D01*
X110776428Y-101946666D01*
X110764264Y-101929922D01*
X110721882Y-101856515D01*
X110720480Y-101854087D01*
X110645913Y-101779520D01*
X110639665Y-101775913D01*
X110554589Y-101726794D01*
X110554588Y-101726793D01*
X110554587Y-101726793D01*
X110452727Y-101699500D01*
X110347273Y-101699500D01*
X110245413Y-101726793D01*
X110245412Y-101726793D01*
X110245410Y-101726794D01*
X110245409Y-101726794D01*
X110154089Y-101779518D01*
X110079518Y-101854089D01*
X110026794Y-101945409D01*
X110026794Y-101945410D01*
X110026793Y-101945412D01*
X110026793Y-101945413D01*
X109999500Y-102047273D01*
X108567429Y-102047273D01*
X108563969Y-101347273D01*
X109099500Y-101347273D01*
X109099500Y-101452727D01*
X109126793Y-101554587D01*
X109126794Y-101554589D01*
X109126794Y-101554590D01*
X109177757Y-101642860D01*
X109179520Y-101645913D01*
X109254087Y-101720480D01*
X109345413Y-101773207D01*
X109447273Y-101800500D01*
X109447275Y-101800500D01*
X109552725Y-101800500D01*
X109552727Y-101800500D01*
X109654587Y-101773207D01*
X109745913Y-101720480D01*
X109820480Y-101645913D01*
X109873207Y-101554587D01*
X109900500Y-101452727D01*
X109900500Y-101347273D01*
X109873207Y-101245413D01*
X109820480Y-101154087D01*
X109745913Y-101079520D01*
X109730255Y-101070480D01*
X109654589Y-101026794D01*
X109654588Y-101026793D01*
X109654587Y-101026793D01*
X109552727Y-100999500D01*
X109447273Y-100999500D01*
X109345413Y-101026793D01*
X109345412Y-101026793D01*
X109345410Y-101026794D01*
X109345409Y-101026794D01*
X109254089Y-101079518D01*
X109179518Y-101154089D01*
X109126794Y-101245409D01*
X109126794Y-101245410D01*
X109126793Y-101245412D01*
X109126793Y-101245413D01*
X109099500Y-101347273D01*
X108563969Y-101347273D01*
X108561183Y-100783773D01*
X110923385Y-100783773D01*
X110923385Y-100889227D01*
X110950678Y-100991087D01*
X110950679Y-100991089D01*
X110950679Y-100991090D01*
X111003403Y-101082410D01*
X111003405Y-101082413D01*
X111077972Y-101156980D01*
X111169298Y-101209707D01*
X111271158Y-101237000D01*
X111271160Y-101237000D01*
X111376610Y-101237000D01*
X111376612Y-101237000D01*
X111478472Y-101209707D01*
X111569798Y-101156980D01*
X111644365Y-101082413D01*
X111697092Y-100991087D01*
X111724385Y-100889227D01*
X111724385Y-100783773D01*
X111697092Y-100681913D01*
X111691788Y-100672727D01*
X111644366Y-100590589D01*
X111644365Y-100590587D01*
X111569798Y-100516020D01*
X111549129Y-100504087D01*
X111478474Y-100463294D01*
X111478473Y-100463293D01*
X111478472Y-100463293D01*
X111376612Y-100436000D01*
X111271158Y-100436000D01*
X111169298Y-100463293D01*
X111169297Y-100463293D01*
X111169295Y-100463294D01*
X111169294Y-100463294D01*
X111077974Y-100516018D01*
X111003403Y-100590589D01*
X110950679Y-100681909D01*
X110950679Y-100681910D01*
X110950678Y-100681912D01*
X110950678Y-100681913D01*
X110923385Y-100783773D01*
X108561183Y-100783773D01*
X108558037Y-100147273D01*
X109099500Y-100147273D01*
X109099500Y-100252727D01*
X109125112Y-100348313D01*
X109126794Y-100354589D01*
X109126794Y-100354590D01*
X109179518Y-100445910D01*
X109179520Y-100445913D01*
X109254087Y-100520480D01*
X109345413Y-100573207D01*
X109447273Y-100600500D01*
X109447275Y-100600500D01*
X109552725Y-100600500D01*
X109552727Y-100600500D01*
X109654587Y-100573207D01*
X109745913Y-100520480D01*
X109820480Y-100445913D01*
X109873207Y-100354587D01*
X109900500Y-100252727D01*
X109900500Y-100147273D01*
X109873207Y-100045413D01*
X109849347Y-100004087D01*
X109823725Y-99959707D01*
X109820480Y-99954087D01*
X109745913Y-99879520D01*
X109654587Y-99826793D01*
X109552727Y-99799500D01*
X109447273Y-99799500D01*
X109345413Y-99826793D01*
X109345412Y-99826793D01*
X109345410Y-99826794D01*
X109345409Y-99826794D01*
X109254089Y-99879518D01*
X109179518Y-99954089D01*
X109126794Y-100045409D01*
X109126794Y-100045410D01*
X109126793Y-100045412D01*
X109126793Y-100045413D01*
X109099500Y-100147273D01*
X108558037Y-100147273D01*
X108555004Y-99533773D01*
X110923385Y-99533773D01*
X110923385Y-99639227D01*
X110948594Y-99733309D01*
X110950679Y-99741089D01*
X110950679Y-99741090D01*
X111003403Y-99832410D01*
X111003405Y-99832413D01*
X111077972Y-99906980D01*
X111169298Y-99959707D01*
X111271158Y-99987000D01*
X111271160Y-99987000D01*
X111376610Y-99987000D01*
X111376612Y-99987000D01*
X111478472Y-99959707D01*
X111569798Y-99906980D01*
X111644365Y-99832413D01*
X111697092Y-99741087D01*
X111724385Y-99639227D01*
X111724385Y-99533773D01*
X111697092Y-99431913D01*
X111684032Y-99409293D01*
X111661058Y-99369500D01*
X111644365Y-99340587D01*
X111569798Y-99266020D01*
X111537327Y-99247273D01*
X111478474Y-99213294D01*
X111478473Y-99213293D01*
X111478472Y-99213293D01*
X111376612Y-99186000D01*
X111271158Y-99186000D01*
X111169298Y-99213293D01*
X111169297Y-99213293D01*
X111169295Y-99213294D01*
X111169294Y-99213294D01*
X111077974Y-99266018D01*
X111003403Y-99340589D01*
X110950679Y-99431909D01*
X110950679Y-99431910D01*
X110950678Y-99431912D01*
X110950678Y-99431913D01*
X110923385Y-99533773D01*
X108555004Y-99533773D01*
X108544768Y-97463118D01*
X108563387Y-97404839D01*
X108573757Y-97392635D01*
X108630480Y-97335913D01*
X108683207Y-97244587D01*
X108710500Y-97142727D01*
X108710500Y-97037273D01*
X108683207Y-96935413D01*
X108681933Y-96933207D01*
X108630481Y-96844089D01*
X108630480Y-96844087D01*
X108570058Y-96783665D01*
X108542283Y-96729151D01*
X108541065Y-96714162D01*
X108528430Y-94158262D01*
X108535963Y-94119896D01*
X108615898Y-93926919D01*
X108683770Y-93673616D01*
X108718000Y-93413620D01*
X108718000Y-93151380D01*
X108683770Y-92891384D01*
X108615898Y-92638081D01*
X108515543Y-92395803D01*
X108384424Y-92168697D01*
X108224782Y-91960649D01*
X108039351Y-91775218D01*
X107887026Y-91658334D01*
X107831302Y-91615575D01*
X107705299Y-91542828D01*
X107604197Y-91484457D01*
X107604193Y-91484455D01*
X107604189Y-91484453D01*
X107361924Y-91384104D01*
X107361923Y-91384103D01*
X107361919Y-91384102D01*
X107108616Y-91316230D01*
X107108611Y-91316229D01*
X107108610Y-91316229D01*
X106848620Y-91282000D01*
X106586380Y-91282000D01*
X106586379Y-91282000D01*
X106326389Y-91316229D01*
X106326386Y-91316229D01*
X106326384Y-91316230D01*
X106153966Y-91362429D01*
X106073088Y-91384100D01*
X106073075Y-91384104D01*
X105830810Y-91484453D01*
X105603697Y-91615575D01*
X105395652Y-91775215D01*
X105210215Y-91960652D01*
X105050575Y-92168697D01*
X105037184Y-92191891D01*
X105034845Y-92195945D01*
X105032215Y-92200500D01*
X104986745Y-92241441D01*
X104946478Y-92250000D01*
X102111696Y-92250000D01*
X102053505Y-92231093D01*
X102017541Y-92181593D01*
X102017541Y-92120407D01*
X102041690Y-92080998D01*
X102057088Y-92065601D01*
X102109815Y-91974275D01*
X102137108Y-91872415D01*
X102137108Y-91766961D01*
X102109815Y-91665101D01*
X102081219Y-91615572D01*
X102057089Y-91573777D01*
X102057088Y-91573775D01*
X101982521Y-91499208D01*
X101974931Y-91494826D01*
X101891197Y-91446482D01*
X101891196Y-91446481D01*
X101891195Y-91446481D01*
X101789335Y-91419188D01*
X101683881Y-91419188D01*
X101582021Y-91446481D01*
X101582020Y-91446481D01*
X101582018Y-91446482D01*
X101582017Y-91446482D01*
X101490697Y-91499206D01*
X101416126Y-91573777D01*
X101363402Y-91665097D01*
X101363402Y-91665098D01*
X101363401Y-91665100D01*
X101363401Y-91665101D01*
X101336108Y-91766961D01*
X101336108Y-91872415D01*
X101361452Y-91967000D01*
X101363402Y-91974277D01*
X101363402Y-91974278D01*
X101405399Y-92047018D01*
X101416128Y-92065601D01*
X101431525Y-92080998D01*
X101459301Y-92135513D01*
X101449730Y-92195945D01*
X101406465Y-92239210D01*
X101361520Y-92250000D01*
X99015133Y-92250000D01*
X98956942Y-92231093D01*
X98920978Y-92181593D01*
X98920978Y-92120407D01*
X98929396Y-92101501D01*
X98940532Y-92082212D01*
X98940533Y-92082211D01*
X98967826Y-91980351D01*
X98967826Y-91874897D01*
X98940533Y-91773037D01*
X98915408Y-91729520D01*
X98887807Y-91681713D01*
X98887806Y-91681711D01*
X98813239Y-91607144D01*
X98793618Y-91595816D01*
X98721915Y-91554418D01*
X98721914Y-91554417D01*
X98721913Y-91554417D01*
X98620053Y-91527124D01*
X98514599Y-91527124D01*
X98412739Y-91554417D01*
X98412738Y-91554417D01*
X98412736Y-91554418D01*
X98412735Y-91554418D01*
X98321415Y-91607142D01*
X98246844Y-91681713D01*
X98194120Y-91773033D01*
X98194120Y-91773034D01*
X98194119Y-91773036D01*
X98194119Y-91773037D01*
X98193535Y-91775218D01*
X98166825Y-91874900D01*
X98166033Y-91880921D01*
X98139693Y-91936146D01*
X98085922Y-91965342D01*
X98067880Y-91967000D01*
X98022273Y-91967000D01*
X97920413Y-91994293D01*
X97920412Y-91994293D01*
X97920410Y-91994294D01*
X97920409Y-91994294D01*
X97829089Y-92047018D01*
X97754518Y-92121589D01*
X97708959Y-92200500D01*
X97663490Y-92241441D01*
X97623223Y-92250000D01*
X95053522Y-92250000D01*
X94995331Y-92231093D01*
X94967785Y-92200500D01*
X94965155Y-92195945D01*
X94949424Y-92168697D01*
X94789782Y-91960649D01*
X94604351Y-91775218D01*
X94396303Y-91615576D01*
X94396302Y-91615575D01*
X94396299Y-91615573D01*
X94375650Y-91603652D01*
X94334708Y-91558183D01*
X94328312Y-91497332D01*
X94358905Y-91444344D01*
X94375644Y-91432182D01*
X94395913Y-91420480D01*
X94470480Y-91345913D01*
X94523207Y-91254587D01*
X94550500Y-91152727D01*
X94550500Y-91047273D01*
X94523207Y-90945413D01*
X94470480Y-90854087D01*
X94395913Y-90779520D01*
X94393247Y-90777981D01*
X94304589Y-90726794D01*
X94304588Y-90726793D01*
X94304587Y-90726793D01*
X94202727Y-90699500D01*
X94097273Y-90699500D01*
X93995413Y-90726793D01*
X93995412Y-90726793D01*
X93995410Y-90726794D01*
X93995409Y-90726794D01*
X93904089Y-90779518D01*
X93829518Y-90854089D01*
X93776794Y-90945409D01*
X93776794Y-90945410D01*
X93776793Y-90945412D01*
X93776793Y-90945413D01*
X93749500Y-91047273D01*
X93749500Y-91152727D01*
X93759339Y-91189450D01*
X93756138Y-91250549D01*
X93717633Y-91298099D01*
X93658532Y-91313935D01*
X93650791Y-91313224D01*
X93413621Y-91282000D01*
X93413620Y-91282000D01*
X93151380Y-91282000D01*
X93151378Y-91282000D01*
X92898660Y-91315271D01*
X92838499Y-91304121D01*
X92796382Y-91259739D01*
X92788396Y-91199077D01*
X92790109Y-91191506D01*
X92800500Y-91152727D01*
X92800500Y-91047273D01*
X92773207Y-90945413D01*
X92720480Y-90854087D01*
X92645913Y-90779520D01*
X92643247Y-90777981D01*
X92554589Y-90726794D01*
X92554588Y-90726793D01*
X92554587Y-90726793D01*
X92452727Y-90699500D01*
X92347273Y-90699500D01*
X92245413Y-90726793D01*
X92245412Y-90726793D01*
X92245410Y-90726794D01*
X92245409Y-90726794D01*
X92154089Y-90779518D01*
X92079518Y-90854089D01*
X92026794Y-90945409D01*
X92026794Y-90945410D01*
X92026793Y-90945412D01*
X92026793Y-90945413D01*
X91999500Y-91047273D01*
X91999500Y-91152727D01*
X92026793Y-91254587D01*
X92026794Y-91254589D01*
X92026794Y-91254590D01*
X92079518Y-91345910D01*
X92079520Y-91345913D01*
X92154087Y-91420480D01*
X92181851Y-91436509D01*
X92222791Y-91481978D01*
X92229187Y-91542828D01*
X92198594Y-91595816D01*
X92181852Y-91607980D01*
X92168702Y-91615572D01*
X91960652Y-91775215D01*
X91775215Y-91960652D01*
X91615575Y-92168697D01*
X91484453Y-92395810D01*
X91384104Y-92638075D01*
X91384102Y-92638081D01*
X91331532Y-92834278D01*
X91316229Y-92891389D01*
X91282000Y-93151379D01*
X91282000Y-93413620D01*
X91310128Y-93627273D01*
X91316230Y-93673616D01*
X91384100Y-93926911D01*
X91384104Y-93926924D01*
X91484453Y-94169189D01*
X91484455Y-94169193D01*
X91484457Y-94169197D01*
X91530660Y-94249223D01*
X91615575Y-94396302D01*
X91731873Y-94547863D01*
X91775218Y-94604351D01*
X91826993Y-94656126D01*
X91854769Y-94710641D01*
X91845198Y-94771073D01*
X91801933Y-94814338D01*
X91756512Y-94825127D01*
X91071876Y-94821836D01*
X91067206Y-94821814D01*
X91067205Y-94821814D01*
X90932883Y-95723000D01*
X90928414Y-95739133D01*
X90928472Y-95739149D01*
X90926794Y-95745411D01*
X90926793Y-95745413D01*
X90903579Y-95832050D01*
X90899500Y-95847274D01*
X90899500Y-95939644D01*
X90898418Y-95954239D01*
X90762886Y-96863542D01*
X90735607Y-96918309D01*
X90681346Y-96946583D01*
X90662611Y-96947919D01*
X88745169Y-96902265D01*
X88687445Y-96881978D01*
X88652670Y-96831636D01*
X88648538Y-96804813D01*
X88617301Y-94771073D01*
X88550237Y-90404773D01*
X91079500Y-90404773D01*
X91079500Y-90510227D01*
X91098086Y-90579590D01*
X91106794Y-90612089D01*
X91106794Y-90612090D01*
X91140754Y-90670910D01*
X91159520Y-90703413D01*
X91234087Y-90777980D01*
X91325413Y-90830707D01*
X91427273Y-90858000D01*
X91427275Y-90858000D01*
X91532725Y-90858000D01*
X91532727Y-90858000D01*
X91634587Y-90830707D01*
X91725913Y-90777980D01*
X91800480Y-90703413D01*
X91853207Y-90612087D01*
X91880500Y-90510227D01*
X91880500Y-90404773D01*
X91871792Y-90372273D01*
X108429500Y-90372273D01*
X108429500Y-90477727D01*
X108456793Y-90579587D01*
X108456794Y-90579589D01*
X108456794Y-90579590D01*
X108509518Y-90670910D01*
X108509520Y-90670913D01*
X108584087Y-90745480D01*
X108675413Y-90798207D01*
X108777273Y-90825500D01*
X108777275Y-90825500D01*
X108882725Y-90825500D01*
X108882727Y-90825500D01*
X108984587Y-90798207D01*
X109075913Y-90745480D01*
X109150480Y-90670913D01*
X109203207Y-90579587D01*
X109230500Y-90477727D01*
X109230500Y-90372273D01*
X109203207Y-90270413D01*
X109150480Y-90179087D01*
X109075913Y-90104520D01*
X109040880Y-90084294D01*
X108984589Y-90051794D01*
X108984588Y-90051793D01*
X108984587Y-90051793D01*
X108882727Y-90024500D01*
X108777273Y-90024500D01*
X108675413Y-90051793D01*
X108675412Y-90051793D01*
X108675410Y-90051794D01*
X108675409Y-90051794D01*
X108584089Y-90104518D01*
X108509518Y-90179089D01*
X108456794Y-90270409D01*
X108456794Y-90270410D01*
X108456793Y-90270412D01*
X108456793Y-90270413D01*
X108429500Y-90372273D01*
X91871792Y-90372273D01*
X91853207Y-90302913D01*
X91834441Y-90270410D01*
X91800481Y-90211589D01*
X91800480Y-90211587D01*
X91725913Y-90137020D01*
X91679083Y-90109983D01*
X91634589Y-90084294D01*
X91634588Y-90084293D01*
X91634587Y-90084293D01*
X91532727Y-90057000D01*
X91427273Y-90057000D01*
X91325413Y-90084293D01*
X91325412Y-90084293D01*
X91325410Y-90084294D01*
X91325409Y-90084294D01*
X91234089Y-90137018D01*
X91159518Y-90211589D01*
X91106794Y-90302909D01*
X91106794Y-90302910D01*
X91106793Y-90302912D01*
X91106793Y-90302913D01*
X91079500Y-90404773D01*
X88550237Y-90404773D01*
X88541674Y-89847273D01*
X97499500Y-89847273D01*
X97499500Y-89952727D01*
X97526045Y-90051794D01*
X97526794Y-90054589D01*
X97526794Y-90054590D01*
X97579518Y-90145910D01*
X97579520Y-90145913D01*
X97654087Y-90220480D01*
X97745413Y-90273207D01*
X97847273Y-90300500D01*
X97847275Y-90300500D01*
X97952725Y-90300500D01*
X97952727Y-90300500D01*
X98054587Y-90273207D01*
X98145913Y-90220480D01*
X98220480Y-90145913D01*
X98220483Y-90145907D01*
X98221455Y-90144642D01*
X98222398Y-90143993D01*
X98225068Y-90141324D01*
X98225562Y-90141818D01*
X98271877Y-90109983D01*
X98333042Y-90111582D01*
X98374530Y-90141725D01*
X98374932Y-90141324D01*
X98377466Y-90143858D01*
X98378545Y-90144642D01*
X98379517Y-90145909D01*
X98379518Y-90145910D01*
X98379520Y-90145913D01*
X98454087Y-90220480D01*
X98545413Y-90273207D01*
X98647273Y-90300500D01*
X98647275Y-90300500D01*
X98752725Y-90300500D01*
X98752727Y-90300500D01*
X98854587Y-90273207D01*
X98945913Y-90220480D01*
X99020480Y-90145913D01*
X99073207Y-90054587D01*
X99100500Y-89952727D01*
X99100500Y-89847273D01*
X99073705Y-89747273D01*
X102599500Y-89747273D01*
X102599500Y-89852727D01*
X102626295Y-89952727D01*
X102626794Y-89954589D01*
X102626794Y-89954590D01*
X102626796Y-89954593D01*
X102679520Y-90045913D01*
X102754087Y-90120480D01*
X102845413Y-90173207D01*
X102947273Y-90200500D01*
X102947275Y-90200500D01*
X103052725Y-90200500D01*
X103052727Y-90200500D01*
X103154587Y-90173207D01*
X103245913Y-90120480D01*
X103320480Y-90045913D01*
X103373207Y-89954587D01*
X103400500Y-89852727D01*
X103400500Y-89747273D01*
X103390220Y-89708907D01*
X103393423Y-89647806D01*
X103431928Y-89600256D01*
X103436299Y-89597577D01*
X103465913Y-89580480D01*
X103540480Y-89505913D01*
X103593207Y-89414587D01*
X103620500Y-89312727D01*
X103620500Y-89207273D01*
X103593207Y-89105413D01*
X103582734Y-89087274D01*
X103582733Y-89087273D01*
X108074500Y-89087273D01*
X108074500Y-89192727D01*
X108101793Y-89294587D01*
X108101794Y-89294589D01*
X108101794Y-89294590D01*
X108130662Y-89344590D01*
X108154520Y-89385913D01*
X108229087Y-89460480D01*
X108320413Y-89513207D01*
X108422273Y-89540500D01*
X108422275Y-89540500D01*
X108527725Y-89540500D01*
X108527727Y-89540500D01*
X108629587Y-89513207D01*
X108720913Y-89460480D01*
X108795480Y-89385913D01*
X108848207Y-89294587D01*
X108875500Y-89192727D01*
X108875500Y-89087273D01*
X108848207Y-88985413D01*
X108824347Y-88944087D01*
X108795481Y-88894089D01*
X108795480Y-88894087D01*
X108720913Y-88819520D01*
X108716191Y-88816794D01*
X108629589Y-88766794D01*
X108629588Y-88766793D01*
X108629587Y-88766793D01*
X108527727Y-88739500D01*
X108422273Y-88739500D01*
X108320413Y-88766793D01*
X108320412Y-88766793D01*
X108320410Y-88766794D01*
X108320409Y-88766794D01*
X108229089Y-88819518D01*
X108154518Y-88894089D01*
X108101794Y-88985409D01*
X108101794Y-88985410D01*
X108101793Y-88985412D01*
X108101793Y-88985413D01*
X108074500Y-89087273D01*
X103582733Y-89087273D01*
X103540481Y-89014089D01*
X103540480Y-89014087D01*
X103465913Y-88939520D01*
X103374587Y-88886793D01*
X103272727Y-88859500D01*
X103167273Y-88859500D01*
X103065413Y-88886793D01*
X103065412Y-88886793D01*
X103065410Y-88886794D01*
X103065409Y-88886794D01*
X102974089Y-88939518D01*
X102899518Y-89014089D01*
X102846794Y-89105409D01*
X102846794Y-89105410D01*
X102846793Y-89105412D01*
X102846793Y-89105413D01*
X102819779Y-89206234D01*
X102819500Y-89207274D01*
X102819500Y-89312729D01*
X102829779Y-89351092D01*
X102826576Y-89412193D01*
X102788070Y-89459742D01*
X102783655Y-89462448D01*
X102754088Y-89479519D01*
X102679518Y-89554089D01*
X102626794Y-89645409D01*
X102626794Y-89645410D01*
X102626793Y-89645412D01*
X102626793Y-89645413D01*
X102599500Y-89747273D01*
X99073705Y-89747273D01*
X99073207Y-89745413D01*
X99020480Y-89654087D01*
X98945913Y-89579520D01*
X98901865Y-89554089D01*
X98854589Y-89526794D01*
X98854588Y-89526793D01*
X98854587Y-89526793D01*
X98752727Y-89499500D01*
X98749474Y-89499500D01*
X98747258Y-89498780D01*
X98746293Y-89498653D01*
X98746316Y-89498474D01*
X98691283Y-89480593D01*
X98655319Y-89431093D01*
X98653847Y-89374878D01*
X98661962Y-89344590D01*
X98670500Y-89312727D01*
X98670500Y-89207273D01*
X98643207Y-89105413D01*
X98632734Y-89087274D01*
X98590481Y-89014089D01*
X98590480Y-89014087D01*
X98515913Y-88939520D01*
X98424587Y-88886793D01*
X98322727Y-88859500D01*
X98217273Y-88859500D01*
X98115413Y-88886793D01*
X98115412Y-88886793D01*
X98115410Y-88886794D01*
X98115409Y-88886794D01*
X98024089Y-88939518D01*
X97949518Y-89014089D01*
X97896794Y-89105409D01*
X97896794Y-89105410D01*
X97896793Y-89105412D01*
X97896793Y-89105413D01*
X97869779Y-89206234D01*
X97869500Y-89207274D01*
X97869500Y-89312726D01*
X97889081Y-89385806D01*
X97885878Y-89446907D01*
X97847373Y-89494457D01*
X97819077Y-89507055D01*
X97745411Y-89526793D01*
X97745409Y-89526794D01*
X97654089Y-89579518D01*
X97579518Y-89654089D01*
X97526794Y-89745409D01*
X97526794Y-89745410D01*
X97526793Y-89745412D01*
X97526793Y-89745413D01*
X97499500Y-89847273D01*
X88541674Y-89847273D01*
X88537531Y-89577546D01*
X88550784Y-89526529D01*
X88557204Y-89515410D01*
X88584497Y-89413550D01*
X88584497Y-89308096D01*
X88557204Y-89206236D01*
X88549405Y-89192727D01*
X88543991Y-89183350D01*
X88539392Y-89166698D01*
X88535526Y-89161377D01*
X88531901Y-89139573D01*
X88531266Y-89137273D01*
X92889500Y-89137273D01*
X92889500Y-89242727D01*
X92908257Y-89312729D01*
X92916794Y-89344589D01*
X92916794Y-89344590D01*
X92966737Y-89431093D01*
X92969520Y-89435913D01*
X93044087Y-89510480D01*
X93135413Y-89563207D01*
X93237273Y-89590500D01*
X93237275Y-89590500D01*
X93342725Y-89590500D01*
X93342727Y-89590500D01*
X93444587Y-89563207D01*
X93535913Y-89510480D01*
X93610480Y-89435913D01*
X93663207Y-89344587D01*
X93690500Y-89242727D01*
X93690500Y-89137273D01*
X93663207Y-89035413D01*
X93650894Y-89014087D01*
X93610481Y-88944089D01*
X93610480Y-88944087D01*
X93535913Y-88869520D01*
X93449310Y-88819520D01*
X93444589Y-88816794D01*
X93444588Y-88816793D01*
X93444587Y-88816793D01*
X93342727Y-88789500D01*
X93237273Y-88789500D01*
X93135413Y-88816793D01*
X93135412Y-88816793D01*
X93135410Y-88816794D01*
X93135409Y-88816794D01*
X93044089Y-88869518D01*
X92969518Y-88944089D01*
X92916794Y-89035409D01*
X92916794Y-89035410D01*
X92916793Y-89035412D01*
X92916793Y-89035413D01*
X92889500Y-89137273D01*
X88531266Y-89137273D01*
X88530740Y-89135368D01*
X88530693Y-89132301D01*
X88530295Y-89106407D01*
X88505692Y-87504546D01*
X88523703Y-87446073D01*
X88537478Y-87430330D01*
X88751288Y-87232713D01*
X88754776Y-87229639D01*
X88852930Y-87147273D01*
X91429500Y-87147273D01*
X91429500Y-87252727D01*
X91456793Y-87354587D01*
X91456794Y-87354589D01*
X91456794Y-87354590D01*
X91497209Y-87424590D01*
X91509520Y-87445913D01*
X91584087Y-87520480D01*
X91675413Y-87573207D01*
X91777273Y-87600500D01*
X91777275Y-87600500D01*
X91882725Y-87600500D01*
X91882727Y-87600500D01*
X91984587Y-87573207D01*
X92075913Y-87520480D01*
X92150480Y-87445913D01*
X92203207Y-87354587D01*
X92230500Y-87252727D01*
X92230500Y-87147273D01*
X92203207Y-87045413D01*
X92190894Y-87024087D01*
X92163968Y-86977449D01*
X92150480Y-86954087D01*
X92075913Y-86879520D01*
X92057735Y-86869025D01*
X91984589Y-86826794D01*
X91984588Y-86826793D01*
X91984587Y-86826793D01*
X91882727Y-86799500D01*
X91777273Y-86799500D01*
X91675413Y-86826793D01*
X91675412Y-86826793D01*
X91675410Y-86826794D01*
X91675409Y-86826794D01*
X91584089Y-86879518D01*
X91509518Y-86954089D01*
X91456794Y-87045409D01*
X91456794Y-87045410D01*
X91456793Y-87045412D01*
X91456793Y-87045413D01*
X91429500Y-87147273D01*
X88852930Y-87147273D01*
X89375509Y-86708751D01*
X89379156Y-86705836D01*
X89505631Y-86609636D01*
X89563387Y-86589459D01*
X89565068Y-86589437D01*
X97800190Y-86563603D01*
X97858439Y-86582328D01*
X97894558Y-86631715D01*
X97899500Y-86662603D01*
X97899500Y-86702727D01*
X97925430Y-86799500D01*
X97926794Y-86804589D01*
X97926795Y-86804591D01*
X97944529Y-86835309D01*
X97957249Y-86895157D01*
X97932362Y-86951052D01*
X97928797Y-86954810D01*
X97899518Y-86984089D01*
X97846794Y-87075409D01*
X97846794Y-87075410D01*
X97846794Y-87075411D01*
X97846793Y-87075413D01*
X97819500Y-87177273D01*
X97819500Y-87282727D01*
X97846793Y-87384587D01*
X97846794Y-87384589D01*
X97846794Y-87384590D01*
X97899518Y-87475910D01*
X97899520Y-87475913D01*
X97974087Y-87550480D01*
X98065413Y-87603207D01*
X98167273Y-87630500D01*
X98167275Y-87630500D01*
X98272725Y-87630500D01*
X98272727Y-87630500D01*
X98374587Y-87603207D01*
X98465913Y-87550480D01*
X98540480Y-87475913D01*
X98593207Y-87384587D01*
X98620500Y-87282727D01*
X98620500Y-87177273D01*
X98593207Y-87075413D01*
X98588508Y-87067274D01*
X98575470Y-87044691D01*
X98562749Y-86984843D01*
X98587636Y-86928947D01*
X98591166Y-86925226D01*
X98620480Y-86895913D01*
X98673207Y-86804587D01*
X98700500Y-86702727D01*
X98700500Y-86659468D01*
X98719407Y-86601277D01*
X98768907Y-86565313D01*
X98799177Y-86560469D01*
X102750679Y-86548073D01*
X102808927Y-86566798D01*
X102845046Y-86616185D01*
X102848283Y-86650784D01*
X102849500Y-86650784D01*
X102849500Y-86657272D01*
X102849500Y-86657273D01*
X102849500Y-86762727D01*
X102870588Y-86841428D01*
X102876794Y-86864589D01*
X102876794Y-86864590D01*
X102925621Y-86949160D01*
X102938343Y-87009008D01*
X102925622Y-87048157D01*
X102886793Y-87115413D01*
X102859500Y-87217273D01*
X102859500Y-87322727D01*
X102876076Y-87384589D01*
X102886794Y-87424589D01*
X102886794Y-87424590D01*
X102932957Y-87504546D01*
X102939520Y-87515913D01*
X103014087Y-87590480D01*
X103105413Y-87643207D01*
X103207273Y-87670500D01*
X103207275Y-87670500D01*
X103312725Y-87670500D01*
X103312727Y-87670500D01*
X103414587Y-87643207D01*
X103505913Y-87590480D01*
X103580480Y-87515913D01*
X103633207Y-87424587D01*
X103660500Y-87322727D01*
X103660500Y-87217273D01*
X103633207Y-87115413D01*
X103584377Y-87030838D01*
X103571656Y-86970991D01*
X103584375Y-86931844D01*
X103623207Y-86864587D01*
X103650500Y-86762727D01*
X103650500Y-86657273D01*
X103650500Y-86657272D01*
X103650447Y-86656870D01*
X103650500Y-86656583D01*
X103650500Y-86650784D01*
X103651575Y-86650784D01*
X103661594Y-86596709D01*
X103705974Y-86554589D01*
X103748282Y-86544944D01*
X107797657Y-86532241D01*
X107855903Y-86550965D01*
X107892022Y-86600352D01*
X107896964Y-86631240D01*
X107896964Y-86648242D01*
X107899199Y-86656583D01*
X107924257Y-86750103D01*
X107969101Y-86827775D01*
X107981822Y-86887623D01*
X107969101Y-86926773D01*
X107946793Y-86965411D01*
X107929262Y-87030839D01*
X107919500Y-87067273D01*
X107919500Y-87172727D01*
X107940936Y-87252727D01*
X107946794Y-87274589D01*
X107946794Y-87274590D01*
X107999518Y-87365910D01*
X107999520Y-87365913D01*
X108074087Y-87440480D01*
X108165413Y-87493207D01*
X108267273Y-87520500D01*
X108267275Y-87520500D01*
X108372725Y-87520500D01*
X108372727Y-87520500D01*
X108474587Y-87493207D01*
X108565913Y-87440480D01*
X108640480Y-87365913D01*
X108693207Y-87274587D01*
X108720500Y-87172727D01*
X108720500Y-87067273D01*
X108693207Y-86965413D01*
X108648362Y-86887740D01*
X108635641Y-86827893D01*
X108648363Y-86788741D01*
X108670669Y-86750105D01*
X108670671Y-86750102D01*
X108697964Y-86648242D01*
X108697964Y-86628107D01*
X108716871Y-86569916D01*
X108766371Y-86533952D01*
X108796649Y-86529107D01*
X110348197Y-86524240D01*
X110406443Y-86542964D01*
G37*
%TD.AperFunction*%
%TD*%
M02*
