  0
SECTION
  2
HEADER
  9
$ACADVER
  1
AC1006
  9
$EXTMIN
 10
0.000000
 20
0.000000
 30
0.000000
  9
$EXTMAX
 10
2400.000000
 20
2400.000000
 30
0.000000
  0
ENDSEC
  0
SECTION
  2
ENTITIES
  0
POLYLINE
  8
0
 66
1
 70
1
  0
VERTEX
  8
0
 10
1196.000000
 20
2127.381046
 42
0.047056
  0
VERTEX
  8
0
 10
1143.395088
 20
2116.026261
 42
0.043371
  0
VERTEX
  8
0
 10
1092.308214
 20
2094.828285
 42
0.041959
  0
VERTEX
  8
0
 10
1044.085027
 20
2064.333912
 42
0.038246
  0
VERTEX
  8
0
 10
1000.000000
 20
2025.339877
 42
0.008344
  0
VERTEX
  8
0
 10
990.062208
 20
2014.746112
 42
0.011218
  0
VERTEX
  8
0
 10
981.443497
 20
2004.806400
 42
0.006716
  0
VERTEX
  8
0
 10
970.504010
 20
1991.236105
 42
0.001191
  0
VERTEX
  8
0
 10
950.420330
 20
1965.500000
 42
-0.008320
  0
VERTEX
  8
0
 10
920.709432
 20
1928.526237
 42
-0.012899
  0
VERTEX
  8
0
 10
893.736317
 20
1897.732027
 42
-0.012603
  0
VERTEX
  8
0
 10
864.752894
 20
1867.862866
 42
-0.007475
  0
VERTEX
  8
0
 10
828.793904
 20
1833.665502
 42
0.002503
  0
VERTEX
  8
0
 10
814.812284
 20
1820.631124
 42
0.011062
  0
VERTEX
  8
0
 10
806.789997
 20
1812.734885
 42
0.018531
  0
VERTEX
  8
0
 10
801.460545
 20
1806.828976
 42
0.026891
  0
VERTEX
  8
0
 10
797.249287
 20
1801.211720
 42
0.038037
  0
VERTEX
  8
0
 10
790.209475
 20
1788.729007
 42
0.047291
  0
VERTEX
  8
0
 10
785.730378
 20
1776.184651
 42
0.041607
  0
VERTEX
  8
0
 10
783.328825
 20
1761.786261
 42
0.021384
  0
VERTEX
  8
0
 10
782.609019
 20
1743.500000
 42
0.011931
  0
VERTEX
  8
0
 10
783.006612
 20
1728.928713
 42
0.015266
  0
VERTEX
  8
0
 10
784.101690
 20
1715.549747
 42
0.009879
  0
VERTEX
  8
0
 10
786.376670
 20
1698.409372
 42
0.002159
  0
VERTEX
  8
0
 10
791.003014
 20
1669.000000
 42
-0.002733
  0
VERTEX
  8
0
 10
796.243740
 20
1635.433966
 42
-0.012632
  0
VERTEX
  8
0
 10
798.677425
 20
1615.932591
 42
-0.018555
  0
VERTEX
  8
0
 10
799.658017
 20
1600.081801
 42
-0.011631
  0
VERTEX
  8
0
 10
799.684368
 20
1581.500000
 42
-0.008799
  0
VERTEX
  8
0
 10
799.015401
 20
1564.547491
 42
-0.016388
  0
VERTEX
  8
0
 10
797.782282
 20
1550.854544
 42
-0.015844
  0
VERTEX
  8
0
 10
795.623192
 20
1536.970414
 42
-0.007644
  0
VERTEX
  8
0
 10
792.025302
 20
1519.334314
 42
-0.005373
  0
VERTEX
  8
0
 10
789.067844
 20
1506.546738
 42
-0.027358
  0
VERTEX
  8
0
 10
786.960826
 20
1499.555673
 42
-0.035622
  0
VERTEX
  8
0
 10
784.350724
 20
1493.689608
 42
-0.013373
  0
VERTEX
  8
0
 10
779.904508
 20
1485.862622
 42
-0.008552
  0
VERTEX
  8
0
 10
770.335237
 20
1470.614747
 42
-0.013315
  0
VERTEX
  8
0
 10
761.521620
 20
1457.846916
 42
-0.013557
  0
VERTEX
  8
0
 10
752.160316
 20
1445.733259
 42
-0.009324
  0
VERTEX
  8
0
 10
740.930420
 20
1432.500000
 42
-0.021586
  0
VERTEX
  8
0
 10
720.482555
 20
1411.221714
 42
-0.033915
  0
VERTEX
  8
0
 10
701.004187
 20
1395.003271
 42
-0.033690
  0
VERTEX
  8
0
 10
679.415743
 20
1381.493373
 42
-0.020943
  0
VERTEX
  8
0
 10
652.500000
 20
1368.493732
 42
0.008080
  0
VERTEX
  8
0
 10
639.499439
 20
1362.622173
 42
0.009620
  0
VERTEX
  8
0
 10
627.437666
 20
1356.651966
 42
0.010496
  0
VERTEX
  8
0
 10
616.941088
 20
1350.919776
 42
0.019926
  0
VERTEX
  8
0
 10
608.788051
 20
1345.800482
 42
0.027017
  0
VERTEX
  8
0
 10
602.099037
 20
1340.667268
 42
0.015687
  0
VERTEX
  8
0
 10
594.618671
 20
1333.837790
 42
0.006937
  0
VERTEX
  8
0
 10
587.658848
 20
1326.880852
 42
0.344007
  0
VERTEX
  8
0
 10
587.459964
 20
1325.064779
 42
0.436455
  0
VERTEX
  8
0
 10
587.852692
 20
1324.987556
 42
0.009090
  0
VERTEX
  8
0
 10
589.621631
 20
1326.324211
 42
0.015116
  0
VERTEX
  8
0
 10
591.752710
 20
1328.102867
 42
0.008848
  0
VERTEX
  8
0
 10
594.200238
 20
1330.353108
 42
-0.036057
  0
VERTEX
  8
0
 10
604.073298
 20
1338.485764
 42
-0.032367
  0
VERTEX
  8
0
 10
615.364037
 20
1345.443100
 42
-0.023886
  0
VERTEX
  8
0
 10
630.275650
 20
1352.459048
 42
-0.008711
  0
VERTEX
  8
0
 10
652.000000
 20
1361.000000
 42
0.010132
  0
VERTEX
  8
0
 10
674.054805
 20
1369.743320
 42
0.021240
  0
VERTEX
  8
0
 10
690.742021
 20
1377.602758
 42
0.023771
  0
VERTEX
  8
0
 10
705.474430
 20
1386.238185
 42
0.016645
  0
VERTEX
  8
0
 10
721.237189
 20
1397.278409
 42
0.023125
  0
VERTEX
  8
0
 10
734.987734
 20
1408.639307
 42
0.024325
  0
VERTEX
  8
0
 10
747.388858
 20
1421.040590
 42
0.024880
  0
VERTEX
  8
0
 10
758.264807
 20
1434.298972
 42
0.027016
  0
VERTEX
  8
0
 10
767.452561
 20
1448.224063
 42
-0.005035
  0
VERTEX
  8
0
 10
768.982639
 20
1450.780770
 42
-0.008563
  0
VERTEX
  8
0
 10
770.319777
 20
1452.883148
 42
-0.003025
  0
VERTEX
  8
0
 10
771.483679
 20
1454.622768
 42
-0.470931
  0
VERTEX
  8
0
 10
771.690856
 20
1454.642478
 42
-0.310310
  0
VERTEX
  8
0
 10
771.856058
 20
1453.752923
 42
-0.001057
  0
VERTEX
  8
0
 10
767.138213
 20
1443.195938
 42
-0.005532
  0
VERTEX
  8
0
 10
762.015923
 20
1432.127831
 42
-0.005278
  0
VERTEX
  8
0
 10
756.570876
 20
1421.000000
 42
-0.016607
  0
VERTEX
  8
0
 10
743.905152
 20
1397.751029
 42
-0.019368
  0
VERTEX
  8
0
 10
730.317417
 20
1376.588315
 42
-0.020280
  0
VERTEX
  8
0
 10
715.757086
 20
1357.437483
 42
-0.022551
  0
VERTEX
  8
0
 10
700.174168
 20
1340.223497
 42
-0.026695
  0
VERTEX
  8
0
 10
681.763260
 20
1323.526464
 42
-0.032363
  0
VERTEX
  8
0
 10
662.777710
 20
1310.014345
 42
-0.031120
  0
VERTEX
  8
0
 10
641.586433
 20
1298.667175
 42
-0.021830
  0
VERTEX
  8
0
 10
616.500000
 20
1288.479912
 42
0.015822
  0
VERTEX
  8
0
 10
594.216169
 20
1279.741051
 42
0.049711
  0
VERTEX
  8
0
 10
580.165014
 20
1271.978660
 42
0.062106
  0
VERTEX
  8
0
 10
569.669047
 20
1262.621357
 42
0.036405
  0
VERTEX
  8
0
 10
559.523417
 20
1249.160102
 42
0.028371
  0
VERTEX
  8
0
 10
553.056571
 20
1237.769454
 42
0.019268
  0
VERTEX
  8
0
 10
546.959670
 20
1224.156950
 42
0.016404
  0
VERTEX
  8
0
 10
541.015183
 20
1207.859831
 42
0.009965
  0
VERTEX
  8
0
 10
535.010660
 20
1188.242360
 42
0.007509
  0
VERTEX
  8
0
 10
531.069462
 20
1173.550072
 42
0.005032
  0
VERTEX
  8
0
 10
526.984802
 20
1156.639063
 42
0.003165
  0
VERTEX
  8
0
 10
521.713410
 20
1133.132829
 42
0.000809
  0
VERTEX
  8
0
 10
513.479698
 20
1095.000000
 42
0.002015
  0
VERTEX
  8
0
 10
502.893917
 20
1044.596176
 42
0.013580
  0
VERTEX
  8
0
 10
498.427945
 20
1019.458256
 42
0.028219
  0
VERTEX
  8
0
 10
497.186372
 20
1006.036755
 42
0.599495
  0
VERTEX
  8
0
 10
499.917721
 20
1004.449149
 42
0.110031
  0
VERTEX
  8
0
 10
502.040722
 20
1006.519136
 42
0.005935
  0
VERTEX
  8
0
 10
507.108418
 20
1014.478060
 42
0.006758
  0
VERTEX
  8
0
 10
514.076050
 20
1026.059595
 42
0.001991
  0
VERTEX
  8
0
 10
524.446147
 20
1044.000000
 42
-0.007843
  0
VERTEX
  8
0
 10
543.999382
 20
1076.931773
 42
-0.021449
  0
VERTEX
  8
0
 10
559.156033
 20
1099.355172
 42
-0.029676
  0
VERTEX
  8
0
 10
572.758435
 20
1115.615934
 42
-0.039770
  0
VERTEX
  8
0
 10
587.008429
 20
1128.506486
 42
-0.039007
  0
VERTEX
  8
0
 10
595.991548
 20
1134.364753
 42
-0.024914
  0
VERTEX
  8
0
 10
607.222299
 20
1139.791031
 42
-0.024460
  0
VERTEX
  8
0
 10
618.208458
 20
1143.818207
 42
-0.076183
  0
VERTEX
  8
0
 10
625.979901
 20
1144.995719
 42
-0.039166
  0
VERTEX
  8
0
 10
627.254112
 20
1144.893576
 42
-0.534342
  0
VERTEX
  8
0
 10
627.416436
 20
1144.540594
 42
-0.104572
  0
VERTEX
  8
0
 10
626.815662
 20
1143.907034
 42
-0.004444
  0
VERTEX
  8
0
 10
624.244417
 20
1142.167968
 42
0.014844
  0
VERTEX
  8
0
 10
622.654191
 20
1141.043521
 42
0.025527
  0
VERTEX
  8
0
 10
621.409564
 20
1140.003241
 42
0.024175
  0
VERTEX
  8
0
 10
620.558903
 20
1139.135072
 42
0.397174
  0
VERTEX
  8
0
 10
620.569778
 20
1138.763556
 42
-0.342187
  0
VERTEX
  8
0
 10
620.604991
 20
1138.485570
 42
-0.099936
  0
VERTEX
  8
0
 10
620.296994
 20
1138.143203
 42
-0.056760
  0
VERTEX
  8
0
 10
619.676388
 20
1137.783249
 42
-0.028469
  0
VERTEX
  8
0
 10
618.825361
 20
1137.467510
 42
0.086180
  0
VERTEX
  8
0
 10
615.483799
 20
1135.768937
 42
0.010582
  0
VERTEX
  8
0
 10
609.002621
 20
1130.703689
 42
0.012888
  0
VERTEX
  8
0
 10
601.856761
 20
1124.557678
 42
0.013422
  0
VERTEX
  8
0
 10
595.135687
 20
1118.131971
 42
0.042188
  0
VERTEX
  8
0
 10
579.203088
 20
1099.088653
 42
0.042438
  0
VERTEX
  8
0
 10
566.728548
 20
1077.677508
 42
0.041437
  0
VERTEX
  8
0
 10
557.812383
 20
1053.981719
 42
0.036620
  0
VERTEX
  8
0
 10
552.470118
 20
1028.139601
 42
0.022000
  0
VERTEX
  8
0
 10
551.227798
 20
1013.839245
 42
0.012453
  0
VERTEX
  8
0
 10
550.918901
 20
996.447801
 42
0.012443
  0
VERTEX
  8
0
 10
551.478003
 20
978.997830
 42
0.021275
  0
VERTEX
  8
0
 10
552.924814
 20
964.498847
 42
0.031687
  0
VERTEX
  8
0
 10
559.959955
 20
930.723093
 42
0.034544
  0
VERTEX
  8
0
 10
571.067170
 20
899.098924
 42
0.033913
  0
VERTEX
  8
0
 10
586.632498
 20
868.804422
 42
0.028508
  0
VERTEX
  8
0
 10
606.997732
 20
839.000000
 42
0.024584
  0
VERTEX
  8
0
 10
616.507797
 20
827.836383
 42
0.009142
  0
VERTEX
  8
0
 10
630.910726
 20
813.072590
 42
0.009243
  0
VERTEX
  8
0
 10
646.016505
 20
798.686480
 42
0.021367
  0
VERTEX
  8
0
 10
658.000000
 20
788.597271
 42
0.019682
  0
VERTEX
  8
0
 10
683.958158
 20
770.155461
 42
0.024354
  0
VERTEX
  8
0
 10
709.548305
 20
755.174003
 42
0.026267
  0
VERTEX
  8
0
 10
732.262155
 20
744.800277
 42
0.084340
  0
VERTEX
  8
0
 10
748.479063
 20
741.384101
 42
0.000000
  0
VERTEX
  8
0
 10
755.458126
 20
741.109411
 42
0.000000
  0
VERTEX
  8
0
 10
760.284045
 20
735.304706
 42
-0.023112
  0
VERTEX
  8
0
 10
767.850878
 20
725.296494
 42
-0.023849
  0
VERTEX
  8
0
 10
774.377110
 20
714.734265
 42
-0.023654
  0
VERTEX
  8
0
 10
779.914460
 20
703.514902
 42
-0.021936
  0
VERTEX
  8
0
 10
784.522070
 20
691.540083
 42
-0.013647
  0
VERTEX
  8
0
 10
786.044243
 20
686.551460
 42
-0.001509
  0
VERTEX
  8
0
 10
789.179280
 20
675.037867
 42
-0.001839
  0
VERTEX
  8
0
 10
792.819751
 20
661.305968
 42
-0.001488
  0
VERTEX
  8
0
 10
796.629380
 20
646.540083
 42
0.005227
  0
VERTEX
  8
0
 10
805.727340
 20
612.336594
 42
0.016069
  0
VERTEX
  8
0
 10
812.865665
 20
589.468287
 42
0.020629
  0
VERTEX
  8
0
 10
820.391128
 20
570.403320
 42
0.014501
  0
VERTEX
  8
0
 10
830.345454
 20
549.595072
 42
0.016801
  0
VERTEX
  8
0
 10
841.423219
 20
529.735002
 42
0.013997
  0
VERTEX
  8
0
 10
854.474683
 20
509.390589
 42
0.011936
  0
VERTEX
  8
0
 10
870.595967
 20
486.916355
 42
0.006778
  0
VERTEX
  8
0
 10
891.112094
 20
460.464387
 42
-0.001339
  0
VERTEX
  8
0
 10
907.508097
 20
439.792878
 42
-0.004969
  0
VERTEX
  8
0
 10
917.678112
 20
426.633274
 42
-0.007548
  0
VERTEX
  8
0
 10
925.113584
 20
416.497510
 42
-0.008772
  0
VERTEX
  8
0
 10
931.866912
 20
406.632007
 42
-0.024031
  0
VERTEX
  8
0
 10
945.266557
 20
384.005780
 42
-0.026869
  0
VERTEX
  8
0
 10
955.894089
 20
361.009243
 42
-0.023339
  0
VERTEX
  8
0
 10
965.079927
 20
334.408928
 42
-0.012154
  0
VERTEX
  8
0
 10
974.156036
 20
300.500000
 42
0.002759
  0
VERTEX
  8
0
 10
980.231747
 20
275.964071
 42
0.007352
  0
VERTEX
  8
0
 10
984.920338
 20
258.547118
 42
0.009903
  0
VERTEX
  8
0
 10
989.154527
 20
244.735514
 42
0.012158
  0
VERTEX
  8
0
 10
993.673216
 20
232.025724
 42
0.023498
  0
VERTEX
  8
0
 10
1007.873039
 20
199.611765
 42
0.022296
  0
VERTEX
  8
0
 10
1025.280112
 20
168.083995
 42
0.021444
  0
VERTEX
  8
0
 10
1046.123336
 20
137.083946
 42
0.018307
  0
VERTEX
  8
0
 10
1070.623265
 20
106.250000
 42
0.001696
  0
VERTEX
  8
0
 10
1074.671770
 20
101.553430
 42
0.002763
  0
VERTEX
  8
0
 10
1078.142985
 20
97.598438
 42
0.000405
  0
VERTEX
  8
0
 10
1081.240099
 20
94.114458
 42
0.214006
  0
VERTEX
  8
0
 10
1081.495269
 20
94.000000
 42
0.583819
  0
VERTEX
  8
0
 10
1081.569836
 20
94.132090
 42
0.000307
  0
VERTEX
  8
0
 10
1078.587630
 20
99.067188
 42
0.002540
  0
VERTEX
  8
0
 10
1075.179766
 20
104.634828
 42
0.001500
  0
VERTEX
  8
0
 10
1071.056894
 20
111.250000
 42
-0.004443
  0
VERTEX
  8
0
 10
1060.114293
 20
129.039898
 42
-0.007310
  0
VERTEX
  8
0
 10
1051.215329
 20
144.299782
 42
-0.008087
  0
VERTEX
  8
0
 10
1043.443742
 20
158.622342
 42
-0.007579
  0
VERTEX
  8
0
 10
1035.964425
 20
173.500000
 42
-0.013606
  0
VERTEX
  8
0
 10
1022.673417
 20
202.988151
 42
-0.020083
  0
VERTEX
  8
0
 10
1012.778490
 20
229.591705
 42
-0.019854
  0
VERTEX
  8
0
 10
1004.971836
 20
257.131475
 42
-0.012883
  0
VERTEX
  8
0
 10
998.047169
 20
289.500000
 42
0.013527
  0
VERTEX
  8
0
 10
988.549373
 20
333.618510
 42
0.028269
  0
VERTEX
  8
0
 10
978.317969
 20
367.214555
 42
0.032934
  0
VERTEX
  8
0
 10
965.531220
 20
396.003201
 42
0.027180
  0
VERTEX
  8
0
 10
948.312832
 20
424.846939
 42
0.007777
  0
VERTEX
  8
0
 10
941.129911
 20
435.166347
 42
0.008498
  0
VERTEX
  8
0
 10
933.834108
 20
444.952595
 42
0.006118
  0
VERTEX
  8
0
 10
924.437590
 20
456.816547
 42
0.001878
  0
VERTEX
  8
0
 10
909.965767
 20
474.500000
 42
-0.006974
  0
VERTEX
  8
0
 10
883.462712
 20
507.566635
 42
-0.014438
  0
VERTEX
  8
0
 10
863.889110
 20
534.253022
 42
-0.017670
  0
VERTEX
  8
0
 10
848.677847
 20
558.056624
 42
-0.019929
  0
VERTEX
  8
0
 10
835.824641
 20
581.955742
 42
-0.009281
  0
VERTEX
  8
0
 10
830.270841
 20
593.906785
 42
-0.011028
  0
VERTEX
  8
0
 10
825.490186
 20
605.392885
 42
-0.007273
  0
VERTEX
  8
0
 10
819.890805
 20
620.368641
 42
-0.001724
  0
VERTEX
  8
0
 10
811.006332
 20
645.500000
 42
0.001334
  0
VERTEX
  8
0
 10
806.466121
 20
658.374825
 42
0.001549
  0
VERTEX
  8
0
 10
802.076711
 20
670.596875
 42
0.001376
  0
VERTEX
  8
0
 10
798.301148
 20
680.919444
 42
0.009259
  0
VERTEX
  8
0
 10
796.319393
 20
686.000000
 42
0.019714
  0
VERTEX
  8
0
 10
789.674345
 20
700.494783
 42
0.029020
  0
VERTEX
  8
0
 10
782.627626
 20
712.596427
 42
0.030465
  0
VERTEX
  8
0
 10
774.511447
 20
723.356653
 42
0.025268
  0
VERTEX
  8
0
 10
764.650765
 20
733.779982
 42
0.000000
  0
VERTEX
  8
0
 10
755.984458
 20
742.059964
 42
0.000000
  0
VERTEX
  8
0
 10
757.945812
 20
744.779982
 42
0.067498
  0
VERTEX
  8
0
 10
758.930023
 20
746.625441
 42
0.039254
  0
VERTEX
  8
0
 10
759.616963
 20
749.044525
 42
0.026292
  0
VERTEX
  8
0
 10
760.113866
 20
752.432111
 42
0.008448
  0
VERTEX
  8
0
 10
760.500672
 20
757.500000
 42
-0.002730
  0
VERTEX
  8
0
 10
760.764267
 20
761.565850
 42
-0.002976
  0
VERTEX
  8
0
 10
761.065453
 20
765.513261
 42
-0.002790
  0
VERTEX
  8
0
 10
761.362252
 20
768.889465
 42
-0.014679
  0
VERTEX
  8
0
 10
761.589894
 20
770.736632
 42
0.000000
  0
VERTEX
  8
0
 10
762.085610
 20
773.973264
 42
0.000000
  0
VERTEX
  8
0
 10
771.371074
 20
766.993869
 42
0.021516
  0
VERTEX
  8
0
 10
785.886792
 20
757.030506
 42
0.018830
  0
VERTEX
  8
0
 10
801.853909
 20
747.870325
 42
0.018479
  0
VERTEX
  8
0
 10
818.795201
 20
739.765136
 42
0.018669
  0
VERTEX
  8
0
 10
836.231652
 20
732.962929
 42
-0.004104
  0
VERTEX
  8
0
 10
840.519704
 20
731.432423
 42
-0.006046
  0
VERTEX
  8
0
 10
844.257426
 20
730.012166
 42
-0.003027
  0
VERTEX
  8
0
 10
847.396859
 20
728.753597
 42
-0.107390
  0
VERTEX
  8
0
 10
848.041855
 20
728.311111
 42
-0.121578
  0
VERTEX
  8
0
 10
849.147562
 20
726.350875
 42
-0.005665
  0
VERTEX
  8
0
 10
851.123466
 20
718.931676
 42
-0.010051
  0
VERTEX
  8
0
 10
853.025630
 20
710.765395
 42
-0.012016
  0
VERTEX
  8
0
 10
854.476562
 20
703.000000
 42
-0.018750
  0
VERTEX
  8
0
 10
855.132850
 20
697.699528
 42
-0.004052
  0
VERTEX
  8
0
 10
855.848914
 20
688.489313
 42
-0.004222
  0
VERTEX
  8
0
 10
856.501827
 20
677.806612
 42
-0.004025
  0
VERTEX
  8
0
 10
856.986144
 20
666.942340
 42
0.015425
  0
VERTEX
  8
0
 10
859.270469
 20
633.075097
 42
0.036293
  0
VERTEX
  8
0
 10
863.572967
 20
608.122732
 42
0.037652
  0
VERTEX
  8
0
 10
871.328724
 20
584.606588
 42
0.017796
  0
VERTEX
  8
0
 10
884.638038
 20
555.542410
 42
0.015643
  0
VERTEX
  8
0
 10
900.600428
 20
526.064613
 42
0.025437
  0
VERTEX
  8
0
 10
916.160610
 20
502.233921
 42
0.029699
  0
VERTEX
  8
0
 10
931.891437
 20
483.123024
 42
0.040309
  0
VERTEX
  8
0
 10
948.355867
 20
468.024431
 42
0.696407
  0
VERTEX
  8
0
 10
948.667437
 20
468.217625
 42
0.048224
  0
VERTEX
  8
0
 10
948.228043
 20
469.652073
 42
0.019692
  0
VERTEX
  8
0
 10
946.984832
 20
472.341555
 42
0.007239
  0
VERTEX
  8
0
 10
945.027230
 20
476.039693
 42
-0.010767
  0
VERTEX
  8
0
 10
936.843501
 20
491.767040
 42
-0.008395
  0
VERTEX
  8
0
 10
928.611684
 20
509.185917
 42
-0.006022
  0
VERTEX
  8
0
 10
918.743228
 20
531.728444
 42
-0.002084
  0
VERTEX
  8
0
 10
905.025508
 20
564.500000
 42
-0.005979
  0
VERTEX
  8
0
 10
893.254123
 20
593.946080
 42
-0.021213
  0
VERTEX
  8
0
 10
886.743833
 20
613.208627
 42
-0.023337
  0
VERTEX
  8
0
 10
882.205293
 20
632.011920
 42
-0.008416
  0
VERTEX
  8
0
 10
877.460082
 20
659.111863
 42
0.007743
  0
VERTEX
  8
0
 10
873.638876
 20
681.109049
 42
0.021978
  0
VERTEX
  8
0
 10
870.069037
 20
696.257771
 42
0.029529
  0
VERTEX
  8
0
 10
865.899893
 20
708.256304
 42
0.029119
  0
VERTEX
  8
0
 10
860.329616
 20
719.738290
 42
-0.009961
  0
VERTEX
  8
0
 10
857.847958
 20
724.391127
 42
-0.334382
  0
VERTEX
  8
0
 10
858.054808
 20
725.558800
 42
-0.243822
  0
VERTEX
  8
0
 10
859.360286
 20
725.922590
 42
-0.006251
  0
VERTEX
  8
0
 10
865.500000
 20
724.555789
 42
0.029295
  0
VERTEX
  8
0
 10
882.890076
 20
721.517408
 42
0.016627
  0
VERTEX
  8
0
 10
904.195132
 20
719.784697
 42
0.016642
  0
VERTEX
  8
0
 10
925.417084
 20
719.474429
 42
0.031282
  0
VERTEX
  8
0
 10
942.500000
 20
720.864695
 42
0.026163
  0
VERTEX
  8
0
 10
967.206080
 20
725.771670
 42
0.024689
  0
VERTEX
  8
0
 10
991.757825
 20
733.305788
 42
0.024971
  0
VERTEX
  8
0
 10
1015.152584
 20
743.115495
 42
0.028544
  0
VERTEX
  8
0
 10
1036.394357
 20
754.831820
 42
-0.004027
  0
VERTEX
  8
0
 10
1040.223365
 20
757.195596
 42
-0.006066
  0
VERTEX
  8
0
 10
1043.601661
 20
759.188097
 42
-0.002685
  0
VERTEX
  8
0
 10
1046.503540
 20
760.831849
 42
-0.128198
  0
VERTEX
  8
0
 10
1047.148588
 20
761.000000
 42
-0.066913
  0
VERTEX
  8
0
 10
1047.860358
 20
760.904318
 42
-0.000521
  0
VERTEX
  8
0
 10
1053.454304
 20
759.366403
 42
-0.001906
  0
VERTEX
  8
0
 10
1059.865106
 20
757.570394
 42
-0.001222
  0
VERTEX
  8
0
 10
1067.294442
 20
755.438817
 42
0.007643
  0
VERTEX
  8
0
 10
1100.499126
 20
746.371795
 42
0.015080
  0
VERTEX
  8
0
 10
1127.172794
 20
740.375601
 42
0.017715
  0
VERTEX
  8
0
 10
1151.075461
 20
736.627517
 42
0.017030
  0
VERTEX
  8
0
 10
1175.500000
 20
734.520397
 42
0.049580
  0
VERTEX
  8
0
 10
1214.257424
 20
736.346369
 42
0.039271
  0
VERTEX
  8
0
 10
1255.166329
 20
745.694746
 42
0.037392
  0
VERTEX
  8
0
 10
1296.184259
 20
761.978515
 42
0.035019
  0
VERTEX
  8
0
 10
1335.273071
 20
784.497959
 42
-0.006635
  0
VERTEX
  8
0
 10
1337.257356
 20
785.796318
 42
-0.010801
  0
VERTEX
  8
0
 10
1338.979119
 20
786.839038
 42
-0.004673
  0
VERTEX
  8
0
 10
1340.444611
 20
787.665692
 42
-0.334067
  0
VERTEX
  8
0
 10
1340.704405
 20
787.628928
 42
-0.254228
  0
VERTEX
  8
0
 10
1340.792441
 20
787.331190
 42
-0.000558
  0
VERTEX
  8
0
 10
1339.773661
 20
782.587057
 42
-0.003439
  0
VERTEX
  8
0
 10
1338.576199
 20
777.220211
 42
-0.002106
  0
VERTEX
  8
0
 10
1337.093933
 20
770.907092
 42
0.020168
  0
VERTEX
  8
0
 10
1324.127156
 20
705.081138
 42
0.019547
  0
VERTEX
  8
0
 10
1316.342685
 20
637.734651
 42
0.019935
  0
VERTEX
  8
0
 10
1313.946309
 20
571.427577
 42
0.023522
  0
VERTEX
  8
0
 10
1317.132616
 20
508.727226
 42
0.003133
  0
VERTEX
  8
0
 10
1317.601568
 20
504.237604
 42
0.005448
  0
VERTEX
  8
0
 10
1318.054633
 20
500.518883
 42
0.001543
  0
VERTEX
  8
0
 10
1318.482795
 20
497.371729
 42
0.619276
  0
VERTEX
  8
0
 10
1318.649246
 20
497.315913
 42
0.172985
  0
VERTEX
  8
0
 10
1318.812771
 20
497.660735
 42
0.000456
  0
VERTEX
  8
0
 10
1319.342807
 20
502.979518
 42
0.002710
  0
VERTEX
  8
0
 10
1319.904678
 20
509.004223
 42
0.001678
  0
VERTEX
  8
0
 10
1320.502720
 20
516.088687
 42
-0.003225
  0
VERTEX
  8
0
 10
1322.581371
 20
539.835478
 42
-0.002960
  0
VERTEX
  8
0
 10
1325.022352
 20
564.241845
 42
-0.000432
  0
VERTEX
  8
0
 10
1327.574085
 20
588.118603
 42
-0.171160
  0
VERTEX
  8
0
 10
1328.298087
 20
589.631421
 42
-0.570816
  0
VERTEX
  8
0
 10
1328.458294
 20
589.590177
 42
-0.004453
  0
VERTEX
  8
0
 10
1328.895821
 20
588.024814
 42
-0.009654
  0
VERTEX
  8
0
 10
1329.379020
 20
586.086737
 42
-0.005467
  0
VERTEX
  8
0
 10
1329.893116
 20
583.722310
 42
0.028638
  0
VERTEX
  8
0
 10
1333.599869
 20
569.812033
 42
0.020634
  0
VERTEX
  8
0
 10
1339.244500
 20
554.767727
 42
0.020656
  0
VERTEX
  8
0
 10
1346.098546
 20
540.265859
 42
0.029038
  0
VERTEX
  8
0
 10
1353.465774
 20
528.000000
 42
0.029953
  0
VERTEX
  8
0
 10
1367.380601
 20
510.027575
 42
0.027851
  0
VERTEX
  8
0
 10
1383.666520
 20
493.379616
 42
0.019766
  0
VERTEX
  8
0
 10
1406.185619
 20
474.366704
 42
0.006370
  0
VERTEX
  8
0
 10
1441.000000
 20
447.960499
 42
-0.002205
  0
VERTEX
  8
0
 10
1459.832057
 20
433.922262
 42
-0.001752
  0
VERTEX
  8
0
 10
1480.044074
 20
418.605016
 42
-0.001729
  0
VERTEX
  8
0
 10
1500.481610
 20
402.891624
 42
-0.001952
  0
VERTEX
  8
0
 10
1520.000000
 20
387.654979
 42
0.002567
  0
VERTEX
  8
0
 10
1525.587197
 20
383.304501
 42
0.004249
  0
VERTEX
  8
0
 10
1530.352775
 20
379.697035
 42
0.000737
  0
VERTEX
  8
0
 10
1534.567236
 20
376.572369
 42
0.356065
  0
VERTEX
  8
0
 10
1534.881788
 20
376.587361
 42
0.384309
  0
VERTEX
  8
0
 10
1534.975782
 20
377.477356
 42
0.000814
  0
VERTEX
  8
0
 10
1526.182497
 20
389.532025
 42
0.005318
  0
VERTEX
  8
0
 10
1517.663353
 20
400.915008
 42
0.010114
  0
VERTEX
  8
0
 10
1510.529984
 20
409.857250
 42
0.017120
  0
VERTEX
  8
0
 10
1494.505600
 20
427.842299
 42
0.014234
  0
VERTEX
  8
0
 10
1476.296635
 20
445.865901
 42
0.011852
  0
VERTEX
  8
0
 10
1454.058776
 20
465.691513
 42
0.006224
  0
VERTEX
  8
0
 10
1425.532338
 20
489.329661
 42
-0.008166
  0
VERTEX
  8
0
 10
1401.321982
 20
509.550424
 42
-0.018549
  0
VERTEX
  8
0
 10
1383.868033
 20
525.786693
 42
-0.023315
  0
VERTEX
  8
0
 10
1370.364495
 20
540.640716
 42
-0.025266
  0
VERTEX
  8
0
 10
1358.683119
 20
556.308151
 42
-0.024664
  0
VERTEX
  8
0
 10
1353.657154
 20
564.676961
 42
-0.007411
  0
VERTEX
  8
0
 10
1346.838471
 20
577.880899
 42
-0.007724
  0
VERTEX
  8
0
 10
1340.101579
 20
591.955663
 42
-0.013703
  0
VERTEX
  8
0
 10
1335.051667
 20
603.781916
 42
0.000000
  0
VERTEX
  8
0
 10
1330.990584
 20
614.063831
 42
0.000000
  0
VERTEX
  8
0
 10
1333.523181
 20
630.781916
 42
-0.006950
  0
VERTEX
  8
0
 10
1341.369347
 20
678.122551
 42
-0.008490
  0
VERTEX
  8
0
 10
1350.072152
 20
722.156420
 42
-0.008779
  0
VERTEX
  8
0
 10
1359.986117
 20
764.562654
 42
-0.008533
  0
VERTEX
  8
0
 10
1371.470309
 20
807.000000
 42
0.004795
  0
VERTEX
  8
0
 10
1379.159556
 20
834.594028
 42
0.008360
  0
VERTEX
  8
0
 10
1384.930708
 20
857.632220
 42
0.009795
  0
VERTEX
  8
0
 10
1389.235045
 20
877.911995
 42
0.012037
  0
VERTEX
  8
0
 10
1392.422945
 20
897.000000
 42
0.007715
  0
VERTEX
  8
0
 10
1393.545815
 20
905.865702
 42
0.003647
  0
VERTEX
  8
0
 10
1394.734188
 20
917.333326
 42
0.003231
  0
VERTEX
  8
0
 10
1395.721839
 20
928.338528
 42
0.016313
  0
VERTEX
  8
0
 10
1396.032760
 20
934.500000
 42
-0.798463
  0
VERTEX
  8
0
 10
1396.476701
 20
934.592487
 42
-0.009377
  0
VERTEX
  8
0
 10
1398.482625
 20
929.975127
 42
-0.008238
  0
VERTEX
  8
0
 10
1401.271888
 20
922.880806
 42
-0.003221
  0
VERTEX
  8
0
 10
1404.897560
 20
913.000000
 42
0.001195
  0
VERTEX
  8
0
 10
1409.069292
 20
901.487042
 42
0.000596
  0
VERTEX
  8
0
 10
1414.402842
 20
886.930787
 42
0.000592
  0
VERTEX
  8
0
 10
1419.961963
 20
871.869771
 42
0.000872
  0
VERTEX
  8
0
 10
1424.882508
 20
858.657999
 42
-0.004750
  0
VERTEX
  8
0
 10
1441.142684
 20
813.941800
 42
-0.020623
  0
VERTEX
  8
0
 10
1449.426151
 20
786.975177
 42
-0.024518
  0
VERTEX
  8
0
 10
1454.764471
 20
761.651182
 42
-0.008706
  0
VERTEX
  8
0
 10
1459.978775
 20
725.000000
 42
0.004769
  0
VERTEX
  8
0
 10
1464.187600
 20
693.647626
 42
0.010422
  0
VERTEX
  8
0
 10
1468.140767
 20
669.733519
 42
0.012552
  0
VERTEX
  8
0
 10
1472.548166
 20
649.032025
 42
0.011585
  0
VERTEX
  8
0
 10
1478.095688
 20
628.012701
 42
0.019593
  0
VERTEX
  8
0
 10
1484.929792
 20
607.417089
 42
0.015186
  0
VERTEX
  8
0
 10
1493.912521
 20
585.560634
 42
0.015200
  0
VERTEX
  8
0
 10
1504.192658
 20
564.317641
 42
0.019789
  0
VERTEX
  8
0
 10
1514.941139
 20
545.574581
 42
0.007965
  0
VERTEX
  8
0
 10
1519.269120
 20
538.913330
 42
0.002406
  0
VERTEX
  8
0
 10
1526.051726
 20
528.933470
 42
0.002409
  0
VERTEX
  8
0
 10
1533.766453
 20
517.813956
 42
0.002618
  0
VERTEX
  8
0
 10
1541.378546
 20
507.074581
 42
-0.002511
  0
VERTEX
  8
0
 10
1560.146803
 20
480.607787
 42
-0.003220
  0
VERTEX
  8
0
 10
1577.139143
 20
456.053708
 42
-0.002433
  0
VERTEX
  8
0
 10
1597.118685
 20
426.473997
 42
-0.000775
  0
VERTEX
  8
0
 10
1626.575814
 20
382.253667
 42
0.000861
  0
VERTEX
  8
0
 10
1651.065630
 20
345.503716
 42
0.001887
  0
VERTEX
  8
0
 10
1669.963487
 20
317.480092
 42
0.000828
  0
VERTEX
  8
0
 10
1685.132807
 20
295.246887
 42
0.048802
  0
VERTEX
  8
0
 10
1688.275459
 20
291.500000
 42
0.842117
  0
VERTEX
  8
0
 10
1688.426186
 20
291.608621
 42
0.000800
  0
VERTEX
  8
0
 10
1684.944121
 20
298.725000
 42
0.002511
  0
VERTEX
  8
0
 10
1680.720854
 20
307.213340
 42
0.001404
  0
VERTEX
  8
0
 10
1675.501971
 20
317.500000
 42
0.004203
  0
VERTEX
  8
0
 10
1642.398738
 20
380.973611
 42
0.008237
  0
VERTEX
  8
0
 10
1614.792932
 20
430.839849
 42
0.009257
  0
VERTEX
  8
0
 10
1587.824454
 20
475.770168
 42
0.007264
  0
VERTEX
  8
0
 10
1556.986215
 20
523.500000
 42
-0.003364
  0
VERTEX
  8
0
 10
1543.275281
 20
544.362319
 42
-0.008911
  0
VERTEX
  8
0
 10
1533.839447
 20
559.517638
 42
-0.011777
  0
VERTEX
  8
0
 10
1526.639838
 20
572.224152
 42
-0.012696
  0
VERTEX
  8
0
 10
1520.233154
 20
584.944732
 42
-0.020656
  0
VERTEX
  8
0
 10
1507.742326
 20
614.499520
 42
-0.022997
  0
VERTEX
  8
0
 10
1498.223274
 20
643.955250
 42
-0.018914
  0
VERTEX
  8
0
 10
1490.151190
 20
678.623660
 42
-0.008333
  0
VERTEX
  8
0
 10
1481.986250
 20
725.000000
 42
0.002677
  0
VERTEX
  8
0
 10
1477.942457
 20
749.594289
 42
0.009180
  0
VERTEX
  8
0
 10
1474.937065
 20
765.506306
 42
0.013256
  0
VERTEX
  8
0
 10
1472.022620
 20
777.867381
 42
0.013438
  0
VERTEX
  8
0
 10
1468.468938
 20
790.000000
 42
0.014317
  0
VERTEX
  8
0
 10
1461.648953
 20
809.252861
 42
0.010688
  0
VERTEX
  8
0
 10
1453.076412
 20
830.081353
 42
0.007719
  0
VERTEX
  8
0
 10
1441.153794
 20
856.267114
 42
0.002756
  0
VERTEX
  8
0
 10
1423.357837
 20
893.276538
 42
-0.000504
  0
VERTEX
  8
0
 10
1404.625388
 20
931.788435
 42
-0.010053
  0
VERTEX
  8
0
 10
1399.151319
 20
943.674084
 42
-0.034751
  0
VERTEX
  8
0
 10
1396.766959
 20
950.371451
 42
-0.068243
  0
VERTEX
  8
0
 10
1396.000000
 20
955.964613
 42
0.018165
  0
VERTEX
  8
0
 10
1395.749989
 20
962.844173
 42
0.006952
  0
VERTEX
  8
0
 10
1394.921836
 20
972.388394
 42
0.006919
  0
VERTEX
  8
0
 10
1393.744779
 20
982.641962
 42
0.008982
  0
VERTEX
  8
0
 10
1392.367787
 20
992.000000
 42
0.013602
  0
VERTEX
  8
0
 10
1390.222127
 20
1003.081228
 42
0.010238
  0
VERTEX
  8
0
 10
1387.284500
 20
1015.140720
 42
0.008603
  0
VERTEX
  8
0
 10
1383.337101
 20
1029.044819
 42
0.004812
  0
VERTEX
  8
0
 10
1378.082689
 20
1045.825373
 42
-0.002056
  0
VERTEX
  8
0
 10
1375.246760
 20
1054.710200
 42
-0.002153
  0
VERTEX
  8
0
 10
1372.527730
 20
1063.483078
 42
-0.002064
  0
VERTEX
  8
0
 10
1370.243531
 20
1071.078966
 42
-0.009555
  0
VERTEX
  8
0
 10
1369.025329
 20
1075.500000
 42
0.000000
  0
VERTEX
  8
0
 10
1366.984597
 20
1083.500000
 42
0.000000
  0
VERTEX
  8
0
 10
1367.404964
 20
1073.000000
 42
0.018492
  0
VERTEX
  8
0
 10
1367.850761
 20
1067.221409
 42
0.004692
  0
VERTEX
  8
0
 10
1369.008827
 20
1057.881233
 42
0.004705
  0
VERTEX
  8
0
 10
1370.556033
 20
1047.070533
 42
0.004346
  0
VERTEX
  8
0
 10
1372.345480
 20
1036.000000
 42
-0.006408
  0
VERTEX
  8
0
 10
1375.937471
 20
1013.180700
 42
-0.014288
  0
VERTEX
  8
0
 10
1377.949510
 20
995.721833
 42
-0.016612
  0
VERTEX
  8
0
 10
1378.787901
 20
979.900750
 42
-0.012551
  0
VERTEX
  8
0
 10
1378.694276
 20
962.500000
 42
-0.017218
  0
VERTEX
  8
0
 10
1377.171590
 20
939.076020
 42
-0.014378
  0
VERTEX
  8
0
 10
1373.986741
 20
914.350011
 42
-0.013781
  0
VERTEX
  8
0
 10
1369.209015
 20
888.736702
 42
-0.012605
  0
VERTEX
  8
0
 10
1362.902141
 20
862.646419
 42
0.000000
  0
VERTEX
  8
0
 10
1361.867129
 20
858.792838
 42
0.000000
  0
VERTEX
  8
0
 10
1357.183564
 20
859.463677
 42
-0.015448
  0
VERTEX
  8
0
 10
1348.069608
 20
861.057805
 42
-0.005152
  0
VERTEX
  8
0
 10
1334.836156
 20
863.938733
 42
-0.003315
  0
VERTEX
  8
0
 10
1315.388044
 20
868.518831
 42
-0.000850
  0
VERTEX
  8
0
 10
1284.000000
 20
876.187327
 42
-0.000281
  0
VERTEX
  8
0
 10
1264.995870
 20
880.875838
 42
-0.000463
  0
VERTEX
  8
0
 10
1248.939700
 20
884.862399
 42
-0.000024
  0
VERTEX
  8
0
 10
1234.462731
 20
888.471825
 42
-0.092533
  0
VERTEX
  8
0
 10
1234.156425
 20
888.611907
 42
-0.305655
  0
VERTEX
  8
0
 10
1233.690698
 20
889.834166
 42
-0.002716
  0
VERTEX
  8
0
 10
1236.103101
 20
899.925543
 42
-0.009371
  0
VERTEX
  8
0
 10
1238.806362
 20
910.135585
 42
-0.013274
  0
VERTEX
  8
0
 10
1241.620949
 20
919.103514
 42
0.020392
  0
VERTEX
  8
0
 10
1245.161524
 20
930.973264
 42
0.035147
  0
VERTEX
  8
0
 10
1246.994865
 20
941.115058
 42
0.032286
  0
VERTEX
  8
0
 10
1247.473882
 20
951.988783
 42
0.014396
  0
VERTEX
  8
0
 10
1246.766897
 20
966.312945
 42
-0.018430
  0
VERTEX
  8
0
 10
1245.687870
 20
992.455431
 42
-0.058374
  0
VERTEX
  8
0
 10
1247.646075
 20
1009.831807
 42
-0.062708
  0
VERTEX
  8
0
 10
1253.477909
 20
1025.607620
 42
-0.023675
  0
VERTEX
  8
0
 10
1265.321834
 20
1045.976599
 42
0.034753
  0
VERTEX
  8
0
 10
1275.283009
 20
1064.015116
 42
0.071386
  0
VERTEX
  8
0
 10
1279.927149
 20
1079.435148
 42
0.069357
  0
VERTEX
  8
0
 10
1280.115851
 20
1095.826166
 42
0.031232
  0
VERTEX
  8
0
 10
1276.056340
 20
1117.000000
 42
-0.029372
  0
VERTEX
  8
0
 10
1269.368995
 20
1151.192675
 42
-0.031961
  0
VERTEX
  8
0
 10
1266.982756
 20
1184.978249
 42
-0.030373
  0
VERTEX
  8
0
 10
1268.894166
 20
1220.263524
 42
-0.022244
  0
VERTEX
  8
0
 10
1275.117662
 20
1258.994073
 42
-0.014123
  0
VERTEX
  8
0
 10
1285.029833
 20
1300.940419
 42
-0.024147
  0
VERTEX
  8
0
 10
1295.954256
 20
1335.211914
 42
-0.027737
  0
VERTEX
  8
0
 10
1308.827384
 20
1364.643225
 42
-0.029783
  0
VERTEX
  8
0
 10
1324.612639
 20
1391.750000
 42
-0.004706
  0
VERTEX
  8
0
 10
1329.362743
 20
1398.748784
 42
-0.024318
  0
VERTEX
  8
0
 10
1332.209807
 20
1402.460467
 42
-0.865803
  0
VERTEX
  8
0
 10
1332.534386
 20
1402.257266
 42
-0.029332
  0
VERTEX
  8
0
 10
1331.024540
 20
1399.317020
 42
0.028614
  0
VERTEX
  8
0
 10
1327.595256
 20
1392.662415
 42
0.011457
  0
VERTEX
  8
0
 10
1323.643791
 20
1383.203323
 42
0.011532
  0
VERTEX
  8
0
 10
1319.979274
 20
1373.155991
 42
0.018684
  0
VERTEX
  8
0
 10
1317.385372
 20
1364.441600
 42
0.011113
  0
VERTEX
  8
0
 10
1315.863003
 20
1357.931428
 42
0.024473
  0
VERTEX
  8
0
 10
1315.056492
 20
1352.887500
 42
0.021193
  0
VERTEX
  8
0
 10
1314.684496
 20
1347.363429
 42
0.006498
  0
VERTEX
  8
0
 10
1314.585260
 20
1339.000000
 42
0.025776
  0
VERTEX
  8
0
 10
1315.418647
 20
1323.192255
 42
0.027611
  0
VERTEX
  8
0
 10
1317.874469
 20
1307.918271
 42
0.018732
  0
VERTEX
  8
0
 10
1322.812017
 20
1288.748284
 42
0.005063
  0
VERTEX
  8
0
 10
1332.073259
 20
1258.774425
 42
-0.005488
  0
VERTEX
  8
0
 10
1340.524965
 20
1231.337991
 42
-0.019765
  0
VERTEX
  8
0
 10
1345.023285
 20
1213.597037
 42
-0.028047
  0
VERTEX
  8
0
 10
1347.263536
 20
1199.042024
 42
-0.022926
  0
VERTEX
  8
0
 10
1348.063386
 20
1183.308447
 42
0.007519
  0
VERTEX
  8
0
 10
1348.271164
 20
1172.913603
 42
0.791396
  0
VERTEX
  8
0
 10
1349.114456
 20
1172.745441
 42
0.092697
  0
VERTEX
  8
0
 10
1350.046027
 20
1176.490233
 42
0.004773
  0
VERTEX
  8
0
 10
1350.664570
 20
1189.000000
 42
0.025565
  0
VERTEX
  8
0
 10
1350.507955
 20
1202.908012
 42
0.022157
  0
VERTEX
  8
0
 10
1348.954328
 20
1217.415244
 42
0.017519
  0
VERTEX
  8
0
 10
1345.723067
 20
1234.584127
 42
0.007768
  0
VERTEX
  8
0
 10
1340.318260
 20
1257.000000
 42
-0.002522
  0
VERTEX
  8
0
 10
1332.161398
 20
1289.337131
 42
-0.016751
  0
VERTEX
  8
0
 10
1328.717198
 20
1305.612283
 42
-0.028040
  0
VERTEX
  8
0
 10
1327.190327
 20
1318.384456
 42
-0.015772
  0
VERTEX
  8
0
 10
1326.700215
 20
1334.000000
 42
-0.019939
  0
VERTEX
  8
0
 10
1327.363081
 20
1350.547550
 42
-0.027471
  0
VERTEX
  8
0
 10
1329.362579
 20
1365.286659
 42
-0.022605
  0
VERTEX
  8
0
 10
1333.297167
 20
1381.722708
 42
-0.008740
  0
VERTEX
  8
0
 10
1340.169635
 20
1404.126011
 42
-0.004890
  0
VERTEX
  8
0
 10
1343.414877
 20
1413.760257
 42
-0.030703
  0
VERTEX
  8
0
 10
1345.416867
 20
1418.547740
 42
-0.044605
  0
VERTEX
  8
0
 10
1347.680576
 20
1422.268189
 42
-0.017376
  0
VERTEX
  8
0
 10
1351.425232
 20
1426.989840
 42
-0.025247
  0
VERTEX
  8
0
 10
1358.199209
 20
1434.178044
 42
-0.200810
  0
VERTEX
  8
0
 10
1362.367452
 20
1435.786250
 42
-0.105835
  0
VERTEX
  8
0
 10
1367.724524
 20
1434.480910
 42
-0.004806
  0
VERTEX
  8
0
 10
1384.757993
 20
1426.052167
 42
-0.015664
  0
VERTEX
  8
0
 10
1413.320732
 20
1410.431847
 42
-0.026229
  0
VERTEX
  8
0
 10
1436.145365
 20
1395.340021
 42
-0.030190
  0
VERTEX
  8
0
 10
1454.806132
 20
1379.717056
 42
-0.034012
  0
VERTEX
  8
0
 10
1470.667902
 20
1362.533346
 42
-0.020841
  0
VERTEX
  8
0
 10
1479.846649
 20
1350.095118
 42
-0.025133
  0
VERTEX
  8
0
 10
1487.359389
 20
1337.669629
 42
-0.020135
  0
VERTEX
  8
0
 10
1494.749857
 20
1322.497954
 42
-0.007863
  0
VERTEX
  8
0
 10
1503.770757
 20
1301.000000
 42
0.002547
  0
VERTEX
  8
0
 10
1508.417325
 20
1289.588057
 42
0.000868
  0
VERTEX
  8
0
 10
1515.276637
 20
1273.065625
 42
0.000863
  0
VERTEX
  8
0
 10
1522.914202
 20
1254.846924
 42
0.000995
  0
VERTEX
  8
0
 10
1530.262199
 20
1237.500000
 42
-0.002396
  0
VERTEX
  8
0
 10
1543.782493
 20
1205.330986
 42
-0.005346
  0
VERTEX
  8
0
 10
1553.686718
 20
1180.705034
 42
-0.006582
  0
VERTEX
  8
0
 10
1561.665893
 20
1159.411923
 42
-0.006645
  0
VERTEX
  8
0
 10
1569.055487
 20
1137.983557
 42
-0.017744
  0
VERTEX
  8
0
 10
1584.490680
 20
1084.966547
 42
-0.013040
  0
VERTEX
  8
0
 10
1597.954006
 20
1025.248947
 42
-0.011466
  0
VERTEX
  8
0
 10
1609.840531
 20
957.120530
 42
-0.007614
  0
VERTEX
  8
0
 10
1620.485198
 20
878.500000
 42
0.004158
  0
VERTEX
  8
0
 10
1626.494466
 20
831.684702
 42
0.013203
  0
VERTEX
  8
0
 10
1631.597713
 20
800.534447
 42
0.018400
  0
VERTEX
  8
0
 10
1637.254493
 20
775.885106
 42
0.017926
  0
VERTEX
  8
0
 10
1644.750351
 20
751.500000
 42
0.018593
  0
VERTEX
  8
0
 10
1654.763714
 20
725.779249
 42
0.017771
  0
VERTEX
  8
0
 10
1666.799678
 20
700.475006
 42
0.014811
  0
VERTEX
  8
0
 10
1682.522531
 20
672.309306
 42
0.007348
  0
VERTEX
  8
0
 10
1704.030054
 20
637.500000
 42
-0.013752
  0
VERTEX
  8
0
 10
1729.314132
 20
595.381628
 42
-0.018621
  0
VERTEX
  8
0
 10
1749.648731
 20
555.929163
 42
-0.017026
  0
VERTEX
  8
0
 10
1768.278207
 20
512.427864
 42
-0.009085
  0
VERTEX
  8
0
 10
1788.478192
 20
457.500000
 42
0.002406
  0
VERTEX
  8
0
 10
1813.102787
 20
387.675598
 42
0.004351
  0
VERTEX
  8
0
 10
1834.034214
 20
330.786470
 42
0.005220
  0
VERTEX
  8
0
 10
1852.741972
 20
282.796370
 42
0.007384
  0
VERTEX
  8
0
 10
1870.470860
 20
240.500000
 42
0.005400
  0
VERTEX
  8
0
 10
1878.283570
 20
223.121075
 42
0.002926
  0
VERTEX
  8
0
 10
1888.247938
 20
201.907733
 42
0.000261
  0
VERTEX
  8
0
 10
1898.981743
 20
179.429784
 42
0.517490
  0
VERTEX
  8
0
 10
1899.648825
 20
179.315491
 42
0.292059
  0
VERTEX
  8
0
 10
1899.714404
 20
179.612820
 42
0.000809
  0
VERTEX
  8
0
 10
1898.232774
 20
183.636228
 42
0.004302
  0
VERTEX
  8
0
 10
1896.496931
 20
188.205394
 42
0.002627
  0
VERTEX
  8
0
 10
1894.373501
 20
193.569656
 42
-0.008478
  0
VERTEX
  8
0
 10
1877.147542
 20
238.619620
 42
-0.005570
  0
VERTEX
  8
0
 10
1858.779159
 20
291.025254
 42
-0.004573
  0
VERTEX
  8
0
 10
1838.082313
 20
354.148093
 42
-0.002445
  0
VERTEX
  8
0
 10
1813.604750
 20
432.500000
 42
0.006326
  0
VERTEX
  8
0
 10
1790.481971
 20
504.545864
 42
0.017005
  0
VERTEX
  8
0
 10
1771.664553
 20
554.963402
 42
0.021525
  0
VERTEX
  8
0
 10
1752.321839
 20
596.668446
 42
0.017626
  0
VERTEX
  8
0
 10
1728.219466
 20
639.500000
 42
-0.004623
  0
VERTEX
  8
0
 10
1704.786076
 20
678.720516
 42
-0.012543
  0
VERTEX
  8
0
 10
1689.139095
 20
707.076172
 42
-0.016526
  0
VERTEX
  8
0
 10
1677.619152
 20
731.163621
 42
-0.016441
  0
VERTEX
  8
0
 10
1667.694225
 20
756.000000
 42
-0.021162
  0
VERTEX
  8
0
 10
1661.046397
 20
777.117989
 42
-0.017695
  0
VERTEX
  8
0
 10
1655.750595
 20
800.017318
 42
-0.012674
  0
VERTEX
  8
0
 10
1650.800503
 20
829.466074
 42
-0.004304
  0
VERTEX
  8
0
 10
1645.061465
 20
872.500000
 42
0.006347
  0
VERTEX
  8
0
 10
1633.837101
 20
954.119100
 42
0.011795
  0
VERTEX
  8
0
 10
1622.338613
 20
1019.940012
 42
0.013973
  0
VERTEX
  8
0
 10
1609.388935
 20
1076.654547
 42
0.016020
  0
VERTEX
  8
0
 10
1593.791044
 20
1130.000000
 42
0.007456
  0
VERTEX
  8
0
 10
1584.447028
 20
1157.154616
 42
0.010588
  0
VERTEX
  8
0
 10
1575.272840
 20
1180.984441
 42
0.008257
  0
VERTEX
  8
0
 10
1563.514878
 20
1208.397400
 42
0.002687
  0
VERTEX
  8
0
 10
1545.264854
 20
1248.500000
 42
-0.000740
  0
VERTEX
  8
0
 10
1538.002303
 20
1264.295296
 42
-0.000710
  0
VERTEX
  8
0
 10
1530.685338
 20
1280.331250
 42
-0.000702
  0
VERTEX
  8
0
 10
1524.271576
 20
1294.493472
 42
-0.002566
  0
VERTEX
  8
0
 10
1520.263439
 20
1303.500000
 42
0.009321
  0
VERTEX
  8
0
 10
1510.320330
 20
1325.053998
 42
0.018100
  0
VERTEX
  8
0
 10
1501.447508
 20
1341.807318
 42
0.021364
  0
VERTEX
  8
0
 10
1492.504034
 20
1355.884783
 42
0.021623
  0
VERTEX
  8
0
 10
1482.425677
 20
1369.089109
 42
0.042327
  0
VERTEX
  8
0
 10
1463.781580
 20
1387.943981
 42
0.031746
  0
VERTEX
  8
0
 10
1440.407125
 20
1405.454534
 42
0.027901
  0
VERTEX
  8
0
 10
1411.906290
 20
1421.912862
 42
0.018793
  0
VERTEX
  8
0
 10
1377.750000
 20
1437.590799
 42
-0.003648
  0
VERTEX
  8
0
 10
1373.247742
 20
1439.494493
 42
-0.005961
  0
VERTEX
  8
0
 10
1369.462466
 20
1441.181483
 42
-0.001499
  0
VERTEX
  8
0
 10
1366.206262
 20
1442.691301
 42
-0.310646
  0
VERTEX
  8
0
 10
1366.037120
 20
1442.979160
 42
-0.156110
  0
VERTEX
  8
0
 10
1366.181888
 20
1443.340702
 42
-0.000691
  0
VERTEX
  8
0
 10
1368.864702
 20
1446.578253
 42
-0.003214
  0
VERTEX
  8
0
 10
1371.952306
 20
1450.245614
 42
-0.002012
  0
VERTEX
  8
0
 10
1375.610805
 20
1454.500000
 42
0.018477
  0
VERTEX
  8
0
 10
1394.414837
 20
1477.881712
 42
0.024019
  0
VERTEX
  8
0
 10
1409.758504
 20
1500.682822
 42
0.025200
  0
VERTEX
  8
0
 10
1422.255861
 20
1523.893889
 42
0.024393
  0
VERTEX
  8
0
 10
1432.504723
 20
1548.494339
 42
0.013425
  0
VERTEX
  8
0
 10
1438.343657
 20
1566.165904
 42
0.014110
  0
VERTEX
  8
0
 10
1443.121184
 20
1583.836348
 42
0.011230
  0
VERTEX
  8
0
 10
1447.682885
 20
1604.889412
 42
0.004618
  0
VERTEX
  8
0
 10
1452.960006
 20
1633.614986
 42
-0.001527
  0
VERTEX
  8
0
 10
1454.923450
 20
1644.687540
 42
-0.000694
  0
VERTEX
  8
0
 10
1457.556037
 20
1659.159293
 42
-0.000687
  0
VERTEX
  8
0
 10
1460.373757
 20
1674.409291
 42
-0.000944
  0
VERTEX
  8
0
 10
1462.952421
 20
1688.114986
 42
0.003094
  0
VERTEX
  8
0
 10
1470.806967
 20
1730.873026
 42
0.012276
  0
VERTEX
  8
0
 10
1474.822127
 20
1757.272844
 42
0.017779
  0
VERTEX
  8
0
 10
1476.762738
 20
1778.579872
 42
0.013552
  0
VERTEX
  8
0
 10
1477.422674
 20
1802.000000
 42
0.013974
  0
VERTEX
  8
0
 10
1476.798218
 20
1825.227841
 42
0.018025
  0
VERTEX
  8
0
 10
1474.861723
 20
1846.479656
 42
0.017539
  0
VERTEX
  8
0
 10
1471.345521
 20
1867.995574
 42
0.012150
  0
VERTEX
  8
0
 10
1465.931985
 20
1892.050177
 42
0.021570
  0
VERTEX
  8
0
 10
1458.058532
 20
1918.550975
 42
0.033626
  0
VERTEX
  8
0
 10
1448.805548
 20
1940.487855
 42
0.038134
  0
VERTEX
  8
0
 10
1437.758994
 20
1958.807431
 42
0.043635
  0
VERTEX
  8
0
 10
1424.492033
 20
1974.366102
 42
0.000000
  0
VERTEX
  8
0
 10
1416.132667
 20
1982.594777
 42
0.000000
  0
VERTEX
  8
0
 10
1415.603051
 20
1975.547389
 42
0.006495
  0
VERTEX
  8
0
 10
1415.365560
 20
1971.723078
 42
0.001595
  0
VERTEX
  8
0
 10
1415.076855
 20
1965.429545
 42
0.001633
  0
VERTEX
  8
0
 10
1414.792643
 20
1958.216761
 42
0.001632
  0
VERTEX
  8
0
 10
1414.555463
 20
1951.000000
 42
-0.013163
  0
VERTEX
  8
0
 10
1413.408510
 20
1930.508513
 42
-0.017985
  0
VERTEX
  8
0
 10
1411.228352
 20
1912.150373
 42
-0.019442
  0
VERTEX
  8
0
 10
1407.920071
 20
1895.226642
 42
-0.021073
  0
VERTEX
  8
0
 10
1403.376893
 20
1879.066806
 42
-0.028688
  0
VERTEX
  8
0
 10
1397.192567
 20
1863.289314
 42
-0.031330
  0
VERTEX
  8
0
 10
1389.397015
 20
1848.798824
 42
-0.030030
  0
VERTEX
  8
0
 10
1379.542138
 20
1834.884598
 42
-0.022703
  0
VERTEX
  8
0
 10
1367.170785
 20
1820.827192
 42
-0.020401
  0
VERTEX
  8
0
 10
1352.291444
 20
1806.602384
 42
-0.019896
  0
VERTEX
  8
0
 10
1336.180988
 20
1793.512317
 42
-0.016951
  0
VERTEX
  8
0
 10
1316.877460
 20
1780.059654
 42
-0.008939
  0
VERTEX
  8
0
 10
1292.074580
 20
1764.617518
 42
0.001747
  0
VERTEX
  8
0
 10
1284.682259
 20
1760.161349
 42
0.003057
  0
VERTEX
  8
0
 10
1278.596559
 20
1756.412646
 42
0.000733
  0
VERTEX
  8
0
 10
1273.421134
 20
1753.170293
 42
0.752523
  0
VERTEX
  8
0
 10
1273.470208
 20
1753.000000
 42
0.119272
  0
VERTEX
  8
0
 10
1275.344341
 20
1753.453517
 42
0.000974
  0
VERTEX
  8
0
 10
1288.931890
 20
1760.472060
 42
0.003977
  0
VERTEX
  8
0
 10
1302.292938
 20
1767.542073
 42
0.006486
  0
VERTEX
  8
0
 10
1313.500000
 20
1773.775913
 42
0.005696
  0
VERTEX
  8
0
 10
1325.921024
 20
1781.086791
 42
0.010091
  0
VERTEX
  8
0
 10
1335.967265
 20
1787.435208
 42
0.011148
  0
VERTEX
  8
0
 10
1345.029125
 20
1793.715389
 42
0.009299
  0
VERTEX
  8
0
 10
1354.375606
 20
1800.775429
 42
0.000000
  0
VERTEX
  8
0
 10
1365.251212
 20
1809.312758
 42
0.000000
  0
VERTEX
  8
0
 10
1372.375606
 20
1807.066740
 42
-0.029734
  0
VERTEX
  8
0
 10
1384.880555
 20
1802.290541
 42
-0.042225
  0
VERTEX
  8
0
 10
1395.271070
 20
1796.496301
 42
-0.046926
  0
VERTEX
  8
0
 10
1403.665112
 20
1789.612340
 42
-0.054041
  0
VERTEX
  8
0
 10
1410.191892
 20
1781.576769
 42
-0.022685
  0
VERTEX
  8
0
 10
1414.145497
 20
1774.810712
 42
-0.096419
  0
VERTEX
  8
0
 10
1415.484634
 20
1770.342919
 42
-0.096032
  0
VERTEX
  8
0
 10
1415.052949
 20
1765.689887
 42
-0.022406
  0
VERTEX
  8
0
 10
1412.509507
 20
1758.234903
 42
-0.009621
  0
VERTEX
  8
0
 10
1408.858100
 20
1749.423019
 42
-0.012410
  0
VERTEX
  8
0
 10
1405.151360
 20
1741.485575
 42
-0.012055
  0
VERTEX
  8
0
 10
1400.966868
 20
1733.560951
 42
-0.008290
  0
VERTEX
  8
0
 10
1395.861296
 20
1724.777043
 42
0.018170
  0
VERTEX
  8
0
 10
1390.248463
 20
1714.665767
 42
0.041527
  0
VERTEX
  8
0
 10
1386.955904
 20
1706.596428
 42
0.030668
  0
VERTEX
  8
0
 10
1384.508784
 20
1696.728718
 42
0.006269
  0
VERTEX
  8
0
 10
1381.479503
 20
1679.000000
 42
-0.031446
  0
VERTEX
  8
0
 10
1377.765048
 20
1662.355678
 42
-0.031726
  0
VERTEX
  8
0
 10
1372.000656
 20
1646.359249
 42
-0.027629
  0
VERTEX
  8
0
 10
1363.510877
 20
1629.417649
 42
-0.015527
  0
VERTEX
  8
0
 10
1351.460822
 20
1609.800445
 42
-0.004960
  0
VERTEX
  8
0
 10
1343.056374
 20
1597.297181
 42
-0.009528
  0
VERTEX
  8
0
 10
1336.030465
 20
1587.472040
 42
-0.009910
  0
VERTEX
  8
0
 10
1328.821750
 20
1578.177199
 42
-0.005888
  0
VERTEX
  8
0
 10
1319.886431
 20
1567.378598
 42
0.006389
  0
VERTEX
  8
0
 10
1315.462748
 20
1562.021538
 42
0.002678
  0
VERTEX
  8
0
 10
1309.638354
 20
1554.701838
 42
0.002649
  0
VERTEX
  8
0
 10
1303.491024
 20
1546.805055
 42
0.003439
  0
VERTEX
  8
0
 10
1297.945855
 20
1539.500000
 42
-0.020433
  0
VERTEX
  8
0
 10
1281.083308
 20
1518.786623
 42
-0.043563
  0
VERTEX
  8
0
 10
1266.124161
 20
1504.580296
 42
-0.054478
  0
VERTEX
  8
0
 10
1251.368240
 20
1495.253406
 42
-0.058658
  0
VERTEX
  8
0
 10
1235.302595
 20
1489.612969
 42
-0.035927
  0
VERTEX
  8
0
 10
1227.585052
 20
1488.457316
 42
-0.019228
  0
VERTEX
  8
0
 10
1217.947672
 20
1488.087389
 42
-0.019071
  0
VERTEX
  8
0
 10
1208.056501
 20
1488.465644
 42
-0.028649
  0
VERTEX
  8
0
 10
1199.500000
 20
1489.616023
 42
0.030116
  0
VERTEX
  8
0
 10
1188.343981
 20
1491.082621
 42
0.012954
  0
VERTEX
  8
0
 10
1173.342250
 20
1491.752024
 42
0.012818
  0
VERTEX
  8
0
 10
1158.492124
 20
1491.648810
 42
0.034554
  0
VERTEX
  8
0
 10
1148.000000
 20
1490.578424
 42
0.015998
  0
VERTEX
  8
0
 10
1138.304167
 20
1488.585305
 42
0.018059
  0
VERTEX
  8
0
 10
1129.144668
 20
1486.041969
 42
0.018270
  0
VERTEX
  8
0
 10
1120.287851
 20
1482.874078
 42
0.017185
  0
VERTEX
  8
0
 10
1111.500000
 20
1479.008549
 42
0.015139
  0
VERTEX
  8
0
 10
1104.112773
 20
1475.171670
 42
0.008525
  0
VERTEX
  8
0
 10
1095.376323
 20
1470.095367
 42
0.002391
  0
VERTEX
  8
0
 10
1086.647810
 20
1464.765465
 42
0.260091
  0
VERTEX
  8
0
 10
1086.000000
 20
1463.604360
 42
0.522897
  0
VERTEX
  8
0
 10
1086.160309
 20
1463.492983
 42
0.001030
  0
VERTEX
  8
0
 10
1089.583272
 20
1464.775342
 42
0.004867
  0
VERTEX
  8
0
 10
1093.520348
 20
1466.303491
 42
0.002864
  0
VERTEX
  8
0
 10
1098.198372
 20
1468.202965
 42
-0.024545
  0
VERTEX
  8
0
 10
1114.388879
 20
1473.973023
 42
-0.024123
  0
VERTEX
  8
0
 10
1131.160116
 20
1478.166835
 42
-0.025500
  0
VERTEX
  8
0
 10
1146.928913
 20
1480.482482
 42
-0.045924
  0
VERTEX
  8
0
 10
1159.986255
 20
1480.522115
 42
-0.023401
  0
VERTEX
  8
0
 10
1170.625656
 20
1479.071138
 42
-0.035111
  0
VERTEX
  8
0
 10
1179.696954
 20
1476.730411
 42
-0.038135
  0
VERTEX
  8
0
 10
1186.294785
 20
1473.949021
 42
-0.280964
  0
VERTEX
  8
0
 10
1188.000000
 20
1471.153990
 42
-0.234491
  0
VERTEX
  8
0
 10
1186.386728
 20
1467.903195
 42
-0.034522
  0
VERTEX
  8
0
 10
1180.061500
 20
1463.754935
 42
-0.020845
  0
VERTEX
  8
0
 10
1168.949955
 20
1458.113999
 42
-0.004095
  0
VERTEX
  8
0
 10
1148.500000
 20
1448.984370
 42
0.020311
  0
VERTEX
  8
0
 10
1121.344491
 20
1435.789159
 42
0.034824
  0
VERTEX
  8
0
 10
1100.056058
 20
1422.366658
 42
0.042589
  0
VERTEX
  8
0
 10
1084.457823
 20
1408.760427
 42
0.078247
  0
VERTEX
  8
0
 10
1074.795266
 20
1395.000000
 42
0.003059
  0
VERTEX
  8
0
 10
1070.785743
 20
1386.697680
 42
0.206978
  0
VERTEX
  8
0
 10
1070.731157
 20
1385.164826
 42
0.539276
  0
VERTEX
  8
0
 10
1071.603281
 20
1384.979802
 42
0.005870
  0
VERTEX
  8
0
 10
1076.695582
 20
1390.138036
 42
-0.028496
  0
VERTEX
  8
0
 10
1083.433571
 20
1396.372384
 42
-0.022706
  0
VERTEX
  8
0
 10
1091.353091
 20
1402.320837
 42
-0.022605
  0
VERTEX
  8
0
 10
1099.826004
 20
1407.557757
 42
-0.027330
  0
VERTEX
  8
0
 10
1108.228027
 20
1411.655409
 42
-0.027784
  0
VERTEX
  8
0
 10
1120.675681
 20
1416.108497
 42
-0.024189
  0
VERTEX
  8
0
 10
1134.127076
 20
1419.395090
 42
-0.020985
  0
VERTEX
  8
0
 10
1146.135833
 20
1421.201478
 42
-0.150812
  0
VERTEX
  8
0
 10
1151.819994
 20
1420.096336
 42
-0.307628
  0
VERTEX
  8
0
 10
1153.597517
 20
1416.702932
 42
-0.102834
  0
VERTEX
  8
0
 10
1151.746653
 20
1411.104817
 42
-0.036495
  0
VERTEX
  8
0
 10
1145.320382
 20
1401.655168
 42
-0.005398
  0
VERTEX
  8
0
 10
1130.781156
 20
1383.711298
 42
0.011427
  0
VERTEX
  8
0
 10
1111.110389
 20
1358.826714
 42
0.024040
  0
VERTEX
  8
0
 10
1097.244367
 20
1338.470883
 42
0.030294
  0
VERTEX
  8
0
 10
1087.649389
 20
1320.453718
 42
0.039889
  0
VERTEX
  8
0
 10
1081.284096
 20
1302.963856
 42
0.048084
  0
VERTEX
  8
0
 10
1079.777804
 20
1294.354735
 42
0.022398
  0
VERTEX
  8
0
 10
1079.411097
 20
1283.015367
 42
0.022423
  0
VERTEX
  8
0
 10
1080.066096
 20
1271.596676
 42
0.044343
  0
VERTEX
  8
0
 10
1081.785960
 20
1262.690683
 42
0.056360
  0
VERTEX
  8
0
 10
1088.199624
 20
1247.175768
 42
0.119575
  0
VERTEX
  8
0
 10
1096.935714
 20
1237.658250
 42
0.141866
  0
VERTEX
  8
0
 10
1107.983432
 20
1234.139937
 42
0.094058
  0
VERTEX
  8
0
 10
1121.204511
 20
1236.288556
 42
0.052258
  0
VERTEX
  8
0
 10
1130.671467
 20
1240.897778
 42
0.032509
  0
VERTEX
  8
0
 10
1140.714598
 20
1248.105752
 42
0.030067
  0
VERTEX
  8
0
 10
1150.649258
 20
1257.316737
 42
0.026900
  0
VERTEX
  8
0
 10
1159.807222
 20
1267.986991
 42
-0.001412
  0
VERTEX
  8
0
 10
1165.164707
 20
1274.914129
 42
-0.024251
  0
VERTEX
  8
0
 10
1167.033476
 20
1277.089935
 42
-0.856579
  0
VERTEX
  8
0
 10
1167.269196
 20
1276.927307
 42
-0.020167
  0
VERTEX
  8
0
 10
1165.974304
 20
1274.500000
 42
-0.025137
  0
VERTEX
  8
0
 10
1156.867726
 20
1260.620182
 42
-0.023319
  0
VERTEX
  8
0
 10
1146.196947
 20
1247.358126
 42
-0.024241
  0
VERTEX
  8
0
 10
1134.917760
 20
1235.787589
 42
-0.037213
  0
VERTEX
  8
0
 10
1124.000000
 20
1227.043668
 42
-0.068799
  0
VERTEX
  8
0
 10
1102.275635
 20
1216.185228
 42
-0.092968
  0
VERTEX
  8
0
 10
1080.580126
 20
1213.111783
 42
-0.089459
  0
VERTEX
  8
0
 10
1058.622108
 20
1218.093971
 42
-0.059181
  0
VERTEX
  8
0
 10
1036.118063
 20
1230.972512
 42
0.001502
  0
VERTEX
  8
0
 10
1029.775830
 20
1235.645525
 42
0.332979
  0
VERTEX
  8
0
 10
1029.072753
 20
1235.637888
 42
0.411448
  0
VERTEX
  8
0
 10
1028.988118
 20
1235.021252
 42
0.001694
  0
VERTEX
  8
0
 10
1033.543309
 20
1229.000000
 42
0.056653
  0
VERTEX
  8
0
 10
1048.868081
 20
1213.012455
 42
0.067807
  0
VERTEX
  8
0
 10
1066.547901
 20
1201.978054
 42
0.069865
  0
VERTEX
  8
0
 10
1086.077167
 20
1196.297597
 42
0.065692
  0
VERTEX
  8
0
 10
1106.842766
 20
1196.040926
 42
0.015402
  0
VERTEX
  8
0
 10
1112.993322
 20
1196.968209
 42
0.013415
  0
VERTEX
  8
0
 10
1119.367503
 20
1198.308619
 42
0.013715
  0
VERTEX
  8
0
 10
1125.472691
 20
1199.942696
 42
0.019366
  0
VERTEX
  8
0
 10
1130.803141
 20
1201.754700
 42
-0.729805
  0
VERTEX
  8
0
 10
1131.306982
 20
1201.126910
 42
-0.001456
  0
VERTEX
  8
0
 10
1120.942585
 20
1185.563695
 42
-0.005386
  0
VERTEX
  8
0
 10
1110.382353
 20
1170.167293
 42
-0.009050
  0
VERTEX
  8
0
 10
1101.145187
 20
1157.500000
 42
-0.026641
  0
VERTEX
  8
0
 10
1090.371557
 20
1144.746246
 42
-0.009772
  0
VERTEX
  8
0
 10
1073.870793
 20
1127.873278
 42
-0.009943
  0
VERTEX
  8
0
 10
1056.140139
 20
1111.118036
 42
-0.018429
  0
VERTEX
  8
0
 10
1041.000000
 20
1098.355790
 42
-0.006801
  0
VERTEX
  8
0
 10
1020.843006
 20
1083.034690
 42
-0.008638
  0
VERTEX
  8
0
 10
1001.805748
 20
1069.471098
 42
-0.009238
  0
VERTEX
  8
0
 10
983.501018
 20
1057.391899
 42
-0.010561
  0
VERTEX
  8
0
 10
965.552450
 20
1046.542471
 42
-0.010565
  0
VERTEX
  8
0
 10
953.364950
 20
1039.861421
 42
-0.004756
  0
VERTEX
  8
0
 10
937.105891
 20
1031.585776
 42
-0.004743
  0
VERTEX
  8
0
 10
920.763342
 20
1023.654861
 42
-0.011096
  0
VERTEX
  8
0
 10
908.359001
 20
1018.113433
 42
-0.020966
  0
VERTEX
  8
0
 10
879.510893
 20
1007.385973
 42
-0.015329
  0
VERTEX
  8
0
 10
846.692821
 20
997.826873
 42
-0.013829
  0
VERTEX
  8
0
 10
809.771791
 20
989.371804
 42
-0.010208
  0
VERTEX
  8
0
 10
768.500000
 20
981.987279
 42
0.000155
  0
VERTEX
  8
0
 10
759.622283
 20
980.582402
 42
0.000103
  0
VERTEX
  8
0
 10
749.454687
 20
978.968015
 42
0.000104
  0
VERTEX
  8
0
 10
739.594941
 20
977.398308
 42
0.000205
  0
VERTEX
  8
0
 10
731.750000
 20
976.144398
 42
-0.003981
  0
VERTEX
  8
0
 10
725.326877
 20
975.167436
 42
-0.006701
  0
VERTEX
  8
0
 10
719.920313
 20
974.462895
 42
-0.001821
  0
VERTEX
  8
0
 10
715.280041
 20
973.938472
 42
-0.446480
  0
VERTEX
  8
0
 10
715.000000
 20
974.189565
 42
-0.111882
  0
VERTEX
  8
0
 10
715.994551
 20
978.578551
 42
-0.001243
  0
VERTEX
  8
0
 10
729.266477
 20
1006.182877
 42
-0.003496
  0
VERTEX
  8
0
 10
741.841843
 20
1031.715842
 42
-0.026121
  0
VERTEX
  8
0
 10
748.515088
 20
1043.456133
 42
-0.040780
  0
VERTEX
  8
0
 10
760.223024
 20
1058.837720
 42
-0.019057
  0
VERTEX
  8
0
 10
777.670467
 20
1076.822550
 42
-0.017946
  0
VERTEX
  8
0
 10
798.481019
 20
1095.317960
 42
-0.017463
  0
VERTEX
  8
0
 10
820.750000
 20
1112.450078
 42
0.006535
  0
VERTEX
  8
0
 10
826.014814
 20
1116.320309
 42
0.049167
  0
VERTEX
  8
0
 10
828.284682
 20
1118.414780
 42
0.314098
  0
VERTEX
  8
0
 10
828.406652
 20
1119.438108
 42
0.276959
  0
VERTEX
  8
0
 10
827.470068
 20
1120.000000
 42
0.114253
  0
VERTEX
  8
0
 10
824.365665
 20
1119.281246
 42
0.002543
  0
VERTEX
  8
0
 10
810.520381
 20
1112.419493
 42
0.006469
  0
VERTEX
  8
0
 10
796.839556
 20
1105.329281
 42
0.012855
  0
VERTEX
  8
0
 10
786.225085
 20
1099.296934
 42
0.010386
  0
VERTEX
  8
0
 10
772.810068
 20
1090.825101
 42
0.019028
  0
VERTEX
  8
0
 10
762.302338
 20
1083.290257
 42
0.019383
  0
VERTEX
  8
0
 10
752.526837
 20
1075.074708
 42
0.011256
  0
VERTEX
  8
0
 10
741.411875
 20
1064.506669
 42
0.008613
  0
VERTEX
  8
0
 10
730.290958
 20
1053.058051
 42
0.020897
  0
VERTEX
  8
0
 10
722.595527
 20
1044.138715
 42
0.026598
  0
VERTEX
  8
0
 10
716.870720
 20
1036.066890
 42
0.026859
  0
VERTEX
  8
0
 10
712.055454
 20
1027.458478
 42
0.036141
  0
VERTEX
  8
0
 10
707.443578
 20
1016.046284
 42
0.029820
  0
VERTEX
  8
0
 10
704.168031
 20
1003.333874
 42
0.030014
  0
VERTEX
  8
0
 10
702.446997
 20
990.425840
 42
0.038344
  0
VERTEX
  8
0
 10
702.496317
 20
978.430674
 42
0.000000
  0
VERTEX
  8
0
 10
703.149438
 20
970.361348
 42
0.000000
  0
VERTEX
  8
0
 10
698.824719
 20
969.069260
 42
0.058573
  0
VERTEX
  8
0
 10
688.438308
 20
964.587826
 42
0.089315
  0
VERTEX
  8
0
 10
680.963327
 20
958.259624
 42
0.091886
  0
VERTEX
  8
0
 10
676.302595
 20
949.865882
 42
0.065421
  0
VERTEX
  8
0
 10
674.234878
 20
939.283546
 42
0.051284
  0
VERTEX
  8
0
 10
674.879964
 20
923.233835
 42
0.025683
  0
VERTEX
  8
0
 10
678.799115
 20
903.286550
 42
0.024874
  0
VERTEX
  8
0
 10
685.112560
 20
882.516753
 42
0.029887
  0
VERTEX
  8
0
 10
693.148769
 20
863.750000
 42
-0.008107
  0
VERTEX
  8
0
 10
694.209153
 20
861.544324
 42
-0.014382
  0
VERTEX
  8
0
 10
695.000456
 20
859.689062
 42
-0.009100
  0
VERTEX
  8
0
 10
695.552869
 20
858.204338
 42
-0.517055
  0
VERTEX
  8
0
 10
695.408098
 20
858.000000
 42
-0.174574
  0
VERTEX
  8
0
 10
693.335251
 20
858.746482
 42
-0.003002
  0
VERTEX
  8
0
 10
683.967990
 20
866.593841
 42
-0.008320
  0
VERTEX
  8
0
 10
674.538311
 20
874.863971
 42
-0.012205
  0
VERTEX
  8
0
 10
666.550856
 20
882.471325
 42
-0.026318
  0
VERTEX
  8
0
 10
647.266500
 20
903.901904
 42
-0.024168
  0
VERTEX
  8
0
 10
629.748156
 20
927.838961
 42
-0.025203
  0
VERTEX
  8
0
 10
615.567741
 20
951.872023
 42
-0.042089
  0
VERTEX
  8
0
 10
606.460821
 20
973.500000
 42
-0.034528
  0
VERTEX
  8
0
 10
600.857406
 20
995.875345
 42
-0.032332
  0
VERTEX
  8
0
 10
598.228857
 20
1019.307417
 42
-0.032056
  0
VERTEX
  8
0
 10
598.633663
 20
1043.087199
 42
-0.032536
  0
VERTEX
  8
0
 10
602.080267
 20
1066.500000
 42
-0.009810
  0
VERTEX
  8
0
 10
604.179246
 20
1075.431096
 42
-0.008905
  0
VERTEX
  8
0
 10
606.690809
 20
1084.567903
 42
-0.009132
  0
VERTEX
  8
0
 10
609.261481
 20
1092.752467
 42
-0.023846
  0
VERTEX
  8
0
 10
611.492575
 20
1098.500000
 42
-0.100346
  0
VERTEX
  8
0
 10
616.642223
 20
1105.744146
 42
-0.022304
  0
VERTEX
  8
0
 10
628.246717
 20
1115.682058
 42
-0.021127
  0
VERTEX
  8
0
 10
643.585493
 20
1126.663650
 42
-0.014833
  0
VERTEX
  8
0
 10
661.698794
 20
1137.754833
 42
0.000000
  0
VERTEX
  8
0
 10
673.897588
 20
1144.735628
 42
0.000000
  0
VERTEX
  8
0
 10
687.198794
 20
1145.254461
 42
0.008120
  0
VERTEX
  8
0
 10
694.211966
 20
1145.642166
 42
0.017378
  0
VERTEX
  8
0
 10
699.602910
 20
1146.216943
 42
0.020182
  0
VERTEX
  8
0
 10
704.402384
 20
1147.096891
 42
0.016064
  0
VERTEX
  8
0
 10
709.500000
 20
1148.419252
 42
0.037292
  0
VERTEX
  8
0
 10
723.964157
 20
1153.871653
 42
0.030718
  0
VERTEX
  8
0
 10
738.468220
 20
1161.728589
 42
0.028078
  0
VERTEX
  8
0
 10
753.129957
 20
1172.063736
 42
0.021102
  0
VERTEX
  8
0
 10
768.069425
 20
1184.965775
 42
-0.012470
  0
VERTEX
  8
0
 10
772.371144
 20
1188.812416
 42
-0.008782
  0
VERTEX
  8
0
 10
777.388298
 20
1192.928893
 42
-0.008869
  0
VERTEX
  8
0
 10
782.329824
 20
1196.699534
 42
-0.018362
  0
VERTEX
  8
0
 10
786.343415
 20
1199.429759
 42
0.012535
  0
VERTEX
  8
0
 10
795.515418
 20
1205.513883
 42
0.010544
  0
VERTEX
  8
0
 10
804.924859
 20
1212.401157
 42
0.010635
  0
VERTEX
  8
0
 10
813.933007
 20
1219.599821
 42
0.013633
  0
VERTEX
  8
0
 10
821.892601
 20
1226.619636
 42
0.000000
  0
VERTEX
  8
0
 10
830.285201
 20
1234.438242
 42
0.000000
  0
VERTEX
  8
0
 10
829.557921
 20
1228.469121
 42
-0.014218
  0
VERTEX
  8
0
 10
827.189277
 20
1212.762529
 42
-0.008581
  0
VERTEX
  8
0
 10
823.536243
 20
1194.293770
 42
-0.008594
  0
VERTEX
  8
0
 10
819.346281
 20
1176.368604
 42
-0.017573
  0
VERTEX
  8
0
 10
815.328945
 20
1162.500000
 42
-0.008517
  0
VERTEX
  8
0
 10
814.041466
 20
1158.791244
 42
-0.004427
  0
VERTEX
  8
0
 10
812.315566
 20
1154.206250
 42
-0.004401
  0
VERTEX
  8
0
 10
810.459706
 20
1149.528218
 42
-0.006689
  0
VERTEX
  8
0
 10
808.757306
 20
1145.500000
 42
0.021865
  0
VERTEX
  8
0
 10
805.963722
 20
1138.286935
 42
0.038842
  0
VERTEX
  8
0
 10
804.399580
 20
1132.113335
 42
0.048488
  0
VERTEX
  8
0
 10
804.061136
 20
1127.522783
 42
0.304161
  0
VERTEX
  8
0
 10
805.347872
 20
1125.696751
 42
0.231760
  0
VERTEX
  8
0
 10
811.607545
 20
1126.255786
 42
0.027465
  0
VERTEX
  8
0
 10
823.461696
 20
1134.356357
 42
0.028100
  0
VERTEX
  8
0
 10
837.330706
 20
1146.290848
 42
0.018912
  0
VERTEX
  8
0
 10
851.822954
 20
1161.349734
 42
-0.021395
  0
VERTEX
  8
0
 10
862.502889
 20
1172.337558
 42
-0.142603
  0
VERTEX
  8
0
 10
869.223727
 20
1175.781404
 42
-0.235656
  0
VERTEX
  8
0
 10
874.898194
 20
1174.194850
 42
-0.066292
  0
VERTEX
  8
0
 10
881.018206
 20
1166.971628
 42
0.019212
  0
VERTEX
  8
0
 10
882.456941
 20
1164.908446
 42
0.035194
  0
VERTEX
  8
0
 10
883.804669
 20
1163.364715
 42
0.042556
  0
VERTEX
  8
0
 10
884.977336
 20
1162.381669
 42
0.203476
  0
VERTEX
  8
0
 10
885.812805
 20
1162.202608
 42
0.209169
  0
VERTEX
  8
0
 10
887.503762
 20
1163.366254
 42
0.027110
  0
VERTEX
  8
0
 10
889.661018
 20
1167.301386
 42
0.026992
  0
VERTEX
  8
0
 10
891.872382
 20
1172.631230
 42
0.017075
  0
VERTEX
  8
0
 10
893.894874
 20
1179.051629
 42
0.022914
  0
VERTEX
  8
0
 10
895.968273
 20
1188.102206
 42
0.014156
  0
VERTEX
  8
0
 10
897.611519
 20
1198.896440
 42
0.011643
  0
VERTEX
  8
0
 10
898.914088
 20
1211.947185
 42
0.006363
  0
VERTEX
  8
0
 10
899.934304
 20
1228.000000
 42
0.000065
  0
VERTEX
  8
0
 10
900.410507
 20
1237.400768
 42
0.000037
  0
VERTEX
  8
0
 10
900.985301
 20
1248.793750
 42
0.000037
  0
VERTEX
  8
0
 10
901.563192
 20
1260.281700
 42
0.000060
  0
VERTEX
  8
0
 10
902.050169
 20
1270.000000
 42
-0.001864
  0
VERTEX
  8
0
 10
902.527865
 20
1278.891191
 42
-0.001834
  0
VERTEX
  8
0
 10
903.074287
 20
1287.827266
 42
-0.001802
  0
VERTEX
  8
0
 10
903.610176
 20
1295.656139
 42
-0.007004
  0
VERTEX
  8
0
 10
904.027311
 20
1300.497076
 42
-0.030378
  0
VERTEX
  8
0
 10
905.113367
 20
1307.197042
 42
-0.125887
  0
VERTEX
  8
0
 10
906.961792
 20
1310.818914
 42
-0.048714
  0
VERTEX
  8
0
 10
910.986462
 20
1314.576520
 42
-0.001814
  0
VERTEX
  8
0
 10
927.500000
 20
1327.133188
 42
-0.007902
  0
VERTEX
  8
0
 10
940.970726
 20
1336.968998
 42
-0.003024
  0
VERTEX
  8
0
 10
960.008875
 20
1350.242039
 42
-0.000474
  0
VERTEX
  8
0
 10
980.653676
 20
1364.421608
 42
-0.151362
  0
VERTEX
  8
0
 10
982.520526
 20
1365.000000
 42
-0.554921
  0
VERTEX
  8
0
 10
982.658888
 20
1364.778113
 42
-0.000331
  0
VERTEX
  8
0
 10
978.648073
 20
1356.607354
 42
-0.002705
  0
VERTEX
  8
0
 10
974.051695
 20
1347.385677
 42
-0.001600
  0
VERTEX
  8
0
 10
968.472405
 20
1336.429292
 42
0.001340
  0
VERTEX
  8
0
 10
962.874474
 20
1325.450461
 42
0.002220
  0
VERTEX
  8
0
 10
958.217353
 20
1316.153832
 42
0.000207
  0
VERTEX
  8
0
 10
954.100106
 20
1307.834308
 42
0.327449
  0
VERTEX
  8
0
 10
954.154042
 20
1307.527021
 42
0.435804
  0
VERTEX
  8
0
 10
955.533519
 20
1307.606871
 42
0.000927
  0
VERTEX
  8
0
 10
970.530956
 20
1325.809646
 42
0.005679
  0
VERTEX
  8
0
 10
984.675853
 20
1343.447397
 42
0.010477
  0
VERTEX
  8
0
 10
995.707419
 20
1358.152300
 42
0.022791
  0
VERTEX
  8
0
 10
1018.839074
 20
1393.683173
 42
0.027985
  0
VERTEX
  8
0
 10
1036.961776
 20
1428.873417
 42
0.029071
  0
VERTEX
  8
0
 10
1050.495693
 20
1464.667732
 42
0.028563
  0
VERTEX
  8
0
 10
1059.879222
 20
1502.000000
 42
-0.014020
  0
VERTEX
  8
0
 10
1061.010435
 20
1507.126545
 42
-0.015339
  0
VERTEX
  8
0
 10
1062.398277
 20
1512.028652
 42
-0.015800
  0
VERTEX
  8
0
 10
1064.039657
 20
1516.696006
 42
-0.017192
  0
VERTEX
  8
0
 10
1065.931139
 20
1521.118619
 42
0.019800
  0
VERTEX
  8
0
 10
1070.871532
 20
1532.838754
 42
0.022685
  0
VERTEX
  8
0
 10
1074.625065
 20
1544.398342
 42
0.018834
  0
VERTEX
  8
0
 10
1077.800633
 20
1557.903354
 42
0.008386
  0
VERTEX
  8
0
 10
1081.011208
 20
1575.903339
 42
-0.054072
  0
VERTEX
  8
0
 10
1090.060060
 20
1608.884418
 42
-0.054534
  0
VERTEX
  8
0
 10
1105.951873
 20
1639.057213
 42
-0.052987
  0
VERTEX
  8
0
 10
1128.466963
 20
1665.809283
 42
-0.046074
  0
VERTEX
  8
0
 10
1157.119541
 20
1688.660334
 42
-0.018058
  0
VERTEX
  8
0
 10
1167.060053
 20
1694.687161
 42
-0.010900
  0
VERTEX
  8
0
 10
1179.235721
 20
1701.136529
 42
-0.010897
  0
VERTEX
  8
0
 10
1191.692149
 20
1707.054526
 42
-0.017916
  0
VERTEX
  8
0
 10
1202.500000
 20
1711.445493
 42
0.009015
  0
VERTEX
  8
0
 10
1217.463498
 20
1717.216676
 42
0.031412
  0
VERTEX
  8
0
 10
1226.789018
 20
1721.709189
 42
0.041798
  0
VERTEX
  8
0
 10
1234.019058
 20
1726.605660
 42
0.027233
  0
VERTEX
  8
0
 10
1241.514061
 20
1733.357551
 42
0.060693
  0
VERTEX
  8
0
 10
1254.979865
 20
1750.642960
 42
0.047962
  0
VERTEX
  8
0
 10
1265.185598
 20
1772.057699
 42
0.041196
  0
VERTEX
  8
0
 10
1272.306374
 20
1798.138053
 42
0.025840
  0
VERTEX
  8
0
 10
1276.486988
 20
1829.500000
 42
-0.010869
  0
VERTEX
  8
0
 10
1278.552054
 20
1849.558970
 42
-0.017510
  0
VERTEX
  8
0
 10
1281.277497
 20
1866.518460
 42
-0.017980
  0
VERTEX
  8
0
 10
1285.123527
 20
1882.921364
 42
-0.012319
  0
VERTEX
  8
0
 10
1290.608954
 20
1901.242881
 42
-0.019573
  0
VERTEX
  8
0
 10
1299.940829
 20
1926.440661
 42
-0.028434
  0
VERTEX
  8
0
 10
1310.266091
 20
1947.778656
 42
-0.031817
  0
VERTEX
  8
0
 10
1321.848280
 20
1965.803103
 42
-0.038643
  0
VERTEX
  8
0
 10
1334.963487
 20
1981.000000
 42
-0.016557
  0
VERTEX
  8
0
 10
1342.226007
 20
1987.744530
 42
-0.030173
  0
VERTEX
  8
0
 10
1348.642109
 20
1992.672856
 42
-0.033085
  0
VERTEX
  8
0
 10
1355.177606
 20
1996.489168
 42
-0.025376
  0
VERTEX
  8
0
 10
1362.758449
 20
1999.798817
 42
-0.054251
  0
VERTEX
  8
0
 10
1370.670274
 20
2001.840148
 42
-0.032998
  0
VERTEX
  8
0
 10
1380.308753
 20
2002.594798
 42
-0.032655
  0
VERTEX
  8
0
 10
1390.149088
 20
2002.071553
 42
-0.046563
  0
VERTEX
  8
0
 10
1398.699244
 20
2000.236016
 42
-0.007061
  0
VERTEX
  8
0
 10
1401.489438
 20
1999.315554
 42
-0.010379
  0
VERTEX
  8
0
 10
1403.911952
 20
1998.421563
 42
-0.006053
  0
VERTEX
  8
0
 10
1405.907063
 20
1997.609859
 42
-0.160685
  0
VERTEX
  8
0
 10
1406.335058
 20
1997.236633
 42
-0.222543
  0
VERTEX
  8
0
 10
1406.449740
 20
1996.058680
 42
-0.000500
  0
VERTEX
  8
0
 10
1400.366364
 20
1978.964488
 42
-0.003549
  0
VERTEX
  8
0
 10
1394.683649
 20
1963.396405
 42
-0.010982
  0
VERTEX
  8
0
 10
1390.542559
 20
1953.000000
 42
-0.020772
  0
VERTEX
  8
0
 10
1380.220609
 20
1931.219524
 42
-0.025518
  0
VERTEX
  8
0
 10
1368.747143
 20
1911.865267
 42
-0.026112
  0
VERTEX
  8
0
 10
1355.604563
 20
1894.152658
 42
-0.023712
  0
VERTEX
  8
0
 10
1340.279579
 20
1877.300856
 42
0.001999
  0
VERTEX
  8
0
 10
1335.979863
 20
1872.966613
 42
0.003445
  0
VERTEX
  8
0
 10
1332.439890
 20
1869.319626
 42
0.000676
  0
VERTEX
  8
0
 10
1329.401640
 20
1866.137467
 42
0.659361
  0
VERTEX
  8
0
 10
1329.460562
 20
1866.000000
 42
0.139872
  0
VERTEX
  8
0
 10
1331.149179
 20
1866.481806
 42
0.002627
  0
VERTEX
  8
0
 10
1339.004275
 20
1871.418983
 42
0.007028
  0
VERTEX
  8
0
 10
1346.501732
 20
1876.335856
 42
0.019409
  0
VERTEX
  8
0
 10
1351.591140
 20
1880.072523
 42
0.032232
  0
VERTEX
  8
0
 10
1361.697320
 20
1889.236990
 42
0.022455
  0
VERTEX
  8
0
 10
1371.910239
 20
1900.767286
 42
0.022372
  0
VERTEX
  8
0
 10
1381.104267
 20
1913.239177
 42
0.030767
  0
VERTEX
  8
0
 10
1388.131323
 20
1925.260150
 42
0.024848
  0
VERTEX
  8
0
 10
1394.156177
 20
1938.831840
 42
0.018840
  0
VERTEX
  8
0
 10
1399.441735
 20
1954.241311
 42
0.018870
  0
VERTEX
  8
0
 10
1403.541949
 20
1969.969166
 42
0.025289
  0
VERTEX
  8
0
 10
1405.987209
 20
1984.500000
 42
-0.002346
  0
VERTEX
  8
0
 10
1407.041540
 20
1993.182324
 42
-0.054232
  0
VERTEX
  8
0
 10
1407.618801
 20
1995.605223
 42
-0.300651
  0
VERTEX
  8
0
 10
1408.539769
 20
1996.297299
 42
-0.138814
  0
VERTEX
  8
0
 10
1410.070810
 20
1995.962104
 42
0.022690
  0
VERTEX
  8
0
 10
1410.906448
 20
1995.562535
 42
0.032789
  0
VERTEX
  8
0
 10
1411.679452
 20
1995.293353
 42
0.034329
  0
VERTEX
  8
0
 10
1412.306666
 20
1995.165615
 42
0.233531
  0
VERTEX
  8
0
 10
1412.597424
 20
1995.264090
 42
0.303093
  0
VERTEX
  8
0
 10
1412.834552
 20
1996.453330
 42
0.002464
  0
VERTEX
  8
0
 10
1408.954177
 20
2005.716418
 42
0.008918
  0
VERTEX
  8
0
 10
1404.818329
 20
2014.991149
 42
0.012989
  0
VERTEX
  8
0
 10
1400.817663
 20
2023.000000
 42
0.032467
  0
VERTEX
  8
0
 10
1387.906362
 20
2043.863649
 42
0.032748
  0
VERTEX
  8
0
 10
1372.436812
 20
2062.816710
 42
0.032861
  0
VERTEX
  8
0
 10
1354.680294
 20
2079.527930
 42
0.033210
  0
VERTEX
  8
0
 10
1334.947295
 20
2093.704613
 42
0.027179
  0
VERTEX
  8
0
 10
1317.613358
 20
2103.224748
 42
0.021215
  0
VERTEX
  8
0
 10
1297.869409
 20
2111.700087
 42
0.020122
  0
VERTEX
  8
0
 10
1276.313691
 20
2118.910795
 42
0.018237
  0
VERTEX
  8
0
 10
1253.532832
 20
2124.633276
 42
0.012139
  0
VERTEX
  8
0
 10
1246.254589
 20
2125.998026
 42
0.018664
  0
VERTEX
  8
0
 10
1239.894632
 20
2126.789172
 42
0.014044
  0
VERTEX
  8
0
 10
1232.319290
 20
2127.231700
 42
0.003968
  0
VERTEX
  8
0
 10
1220.500000
 20
2127.495650
 42
0.002054
  0
VERTEX
  8
0
 10
1212.201555
 20
2127.580999
 42
0.002714
  0
VERTEX
  8
0
 10
1204.640625
 20
2127.586667
 42
0.001952
  0
VERTEX
  8
0
 10
1198.305252
 20
2127.532294
 42
0.026521
  0
SEQEND
  0
POLYLINE
  8
0
 66
1
 70
1
  0
VERTEX
  8
0
 10
1187.000000
 20
2109.531524
 42
0.021232
  0
VERTEX
  8
0
 10
1151.963752
 20
2102.147844
 42
0.049562
  0
VERTEX
  8
0
 10
1126.807852
 20
2092.987855
 42
0.048608
  0
VERTEX
  8
0
 10
1103.657085
 20
2078.940458
 42
0.019744
  0
VERTEX
  8
0
 10
1075.000000
 20
2055.671015
 42
-0.004599
  0
VERTEX
  8
0
 10
1071.712043
 20
2052.831752
 42
-0.007612
  0
VERTEX
  8
0
 10
1068.879145
 20
2050.503752
 42
-0.002320
  0
VERTEX
  8
0
 10
1066.420623
 20
2048.563916
 42
-0.374069
  0
VERTEX
  8
0
 10
1066.099216
 20
2048.580816
 42
-0.384800
  0
VERTEX
  8
0
 10
1066.024231
 20
2049.686983
 42
-0.002612
  0
VERTEX
  8
0
 10
1072.478648
 20
2057.797009
 42
-0.009563
  0
VERTEX
  8
0
 10
1079.096946
 20
2065.709621
 42
-0.015955
  0
VERTEX
  8
0
 10
1085.000000
 20
2072.076788
 42
-0.055740
  0
VERTEX
  8
0
 10
1104.282128
 20
2087.667370
 42
-0.053167
  0
VERTEX
  8
0
 10
1126.831274
 20
2098.905005
 42
-0.044345
  0
VERTEX
  8
0
 10
1154.746183
 20
2106.554726
 42
-0.023193
  0
VERTEX
  8
0
 10
1190.500000
 20
2111.318607
 42
-0.003128
  0
VERTEX
  8
0
 10
1197.104293
 20
2111.846932
 42
-0.818248
  0
VERTEX
  8
0
 10
1197.193253
 20
2111.528997
 42
-0.075334
  0
VERTEX
  8
0
 10
1195.566881
 20
2110.986956
 42
-0.001519
  0
SEQEND
  0
POLYLINE
  8
0
 66
1
 70
1
  0
VERTEX
  8
0
 10
1373.000000
 20
2019.173831
 42
-0.017229
  0
VERTEX
  8
0
 10
1375.325583
 20
2018.167145
 42
-0.013679
  0
VERTEX
  8
0
 10
1377.765625
 20
2016.926663
 42
-0.013899
  0
VERTEX
  8
0
 10
1379.966236
 20
2015.650592
 42
-0.033351
  0
VERTEX
  8
0
 10
1381.500000
 20
2014.555716
 42
0.000000
  0
VERTEX
  8
0
 10
1384.500000
 20
2012.096623
 42
0.000000
  0
VERTEX
  8
0
 10
1378.047084
 20
2014.670022
 42
0.021324
  0
VERTEX
  8
0
 10
1373.863315
 20
2016.135058
 42
0.047902
  0
VERTEX
  8
0
 10
1370.568920
 20
2016.797567
 42
0.030549
  0
VERTEX
  8
0
 10
1366.409021
 20
2016.970905
 42
0.004580
  0
VERTEX
  8
0
 10
1358.047084
 20
2016.731745
 42
0.020902
  0
VERTEX
  8
0
 10
1346.772938
 20
2015.832982
 42
0.024349
  0
VERTEX
  8
0
 10
1336.180517
 20
2014.014302
 42
0.023323
  0
VERTEX
  8
0
 10
1325.440203
 20
2011.095366
 42
0.016616
  0
VERTEX
  8
0
 10
1313.706607
 20
2006.875574
 42
0.033779
  0
VERTEX
  8
0
 10
1286.607352
 20
1993.918790
 42
0.035462
  0
VERTEX
  8
0
 10
1261.959453
 20
1977.614086
 42
0.036738
  0
VERTEX
  8
0
 10
1240.684951
 20
1958.622684
 42
0.043158
  0
VERTEX
  8
0
 10
1223.647105
 20
1937.653653
 42
-0.001081
  0
VERTEX
  8
0
 10
1221.757117
 20
1934.880540
 42
-0.001629
  0
VERTEX
  8
0
 10
1220.097094
 20
1932.472985
 42
-0.000628
  0
VERTEX
  8
0
 10
1218.661289
 20
1930.410599
 42
-0.038293
  0
VERTEX
  8
0
 10
1218.376664
 20
1930.062892
 42
-0.838073
  0
VERTEX
  8
0
 10
1218.053359
 20
1930.277857
 42
-0.003686
  0
VERTEX
  8
0
 10
1221.171667
 20
1937.290533
 42
-0.006177
  0
VERTEX
  8
0
 10
1224.523253
 20
1944.444310
 42
-0.020778
  0
VERTEX
  8
0
 10
1226.965154
 20
1949.000000
 42
-0.057253
  0
VERTEX
  8
0
 10
1243.602458
 20
1970.977678
 42
-0.042245
  0
VERTEX
  8
0
 10
1266.482153
 20
1991.207360
 42
-0.041958
  0
VERTEX
  8
0
 10
1292.651418
 20
2007.457763
 42
-0.053775
  0
VERTEX
  8
0
 10
1319.126645
 20
2017.555895
 42
-0.011986
  0
VERTEX
  8
0
 10
1328.498501
 20
2019.779625
 42
-0.022765
  0
VERTEX
  8
0
 10
1336.146725
 20
2021.041182
 42
-0.022776
  0
VERTEX
  8
0
 10
1343.875693
 20
2021.601809
 42
-0.012009
  0
VERTEX
  8
0
 10
1353.500000
 20
2021.629232
 42
-0.005682
  0
VERTEX
  8
0
 10
1361.055567
 20
2021.383363
 42
-0.020344
  0
VERTEX
  8
0
 10
1365.868484
 20
2020.975333
 42
-0.030276
  0
VERTEX
  8
0
 10
1369.522485
 20
2020.288527
 42
-0.031946
  0
SEQEND
  0
POLYLINE
  8
0
 66
1
 70
1
  0
VERTEX
  8
0
 10
1321.676836
 20
1988.359137
 42
0.016064
  0
VERTEX
  8
0
 10
1310.181443
 20
1970.363186
 42
0.019639
  0
VERTEX
  8
0
 10
1300.660505
 20
1952.812199
 42
0.018990
  0
VERTEX
  8
0
 10
1292.300593
 20
1934.081783
 42
0.013465
  0
VERTEX
  8
0
 10
1284.302762
 20
1912.500000
 42
0.000000
  0
VERTEX
  8
0
 10
1279.879490
 20
1899.500000
 42
0.000000
  0
VERTEX
  8
0
 10
1280.452844
 20
1910.673412
 42
-0.054752
  0
VERTEX
  8
0
 10
1284.400723
 20
1935.033969
 42
-0.050122
  0
VERTEX
  8
0
 10
1293.599277
 20
1958.734676
 42
-0.050863
  0
VERTEX
  8
0
 10
1307.155498
 20
1979.790747
 42
-0.060639
  0
VERTEX
  8
0
 10
1324.000000
 20
1996.322021
 42
-0.006757
  0
VERTEX
  8
0
 10
1325.747384
 20
1997.626753
 42
-0.011012
  0
VERTEX
  8
0
 10
1327.268462
 20
1998.680459
 42
-0.004840
  0
VERTEX
  8
0
 10
1328.565070
 20
1999.519120
 42
-0.337661
  0
VERTEX
  8
0
 10
1328.807530
 20
1999.498014
 42
-0.364544
  0
VERTEX
  8
0
 10
1328.840880
 20
1999.249754
 42
-0.000956
  0
VERTEX
  8
0
 10
1326.839744
 20
1996.110576
 42
-0.004854
  0
VERTEX
  8
0
 10
1324.506770
 20
1992.542986
 42
-0.002931
  0
SEQEND
  0
POLYLINE
  8
0
 66
1
 70
1
  0
VERTEX
  8
0
 10
1041.243584
 20
1977.250000
 42
0.012503
  0
VERTEX
  8
0
 10
1034.102113
 20
1968.194704
 42
0.005101
  0
VERTEX
  8
0
 10
1024.831660
 20
1955.548587
 42
0.004613
  0
VERTEX
  8
0
 10
1014.242622
 20
1940.499094
 42
0.003483
  0
VERTEX
  8
0
 10
1002.880207
 20
1923.781711
 42
-0.002236
  0
VERTEX
  8
0
 10
995.406666
 20
1912.726747
 42
-0.001291
  0
VERTEX
  8
0
 10
986.320854
 20
1899.489092
 42
-0.001290
  0
VERTEX
  8
0
 10
977.133570
 20
1886.250597
 42
-0.002164
  0
VERTEX
  8
0
 10
969.337727
 20
1875.181157
 42
0.005401
  0
VERTEX
  8
0
 10
955.758294
 20
1855.631897
 42
0.009096
  0
VERTEX
  8
0
 10
944.844819
 20
1838.905775
 42
0.010262
  0
VERTEX
  8
0
 10
935.542703
 20
1823.366472
 42
0.010345
  0
VERTEX
  8
0
 10
926.912043
 20
1807.500000
 42
0.018244
  0
VERTEX
  8
0
 10
913.692873
 20
1779.494748
 42
0.017235
  0
VERTEX
  8
0
 10
902.277616
 20
1750.069528
 42
0.017266
  0
VERTEX
  8
0
 10
892.935638
 20
1719.983887
 42
0.018488
  0
VERTEX
  8
0
 10
885.928574
 20
1690.000000
 42
-0.000320
  0
VERTEX
  8
0
 10
883.284739
 20
1676.489335
 42
-0.006223
  0
VERTEX
  8
0
 10
882.412329
 20
1672.321276
 42
-0.014474
  0
VERTEX
  8
0
 10
881.887967
 20
1670.248013
 42
-0.572405
  0
VERTEX
  8
0
 10
881.515495
 20
1670.151172
 42
-0.231146
  0
VERTEX
  8
0
 10
881.108332
 20
1671.335685
 42
-0.001052
  0
VERTEX
  8
0
 10
882.800942
 20
1684.770092
 42
-0.005349
  0
VERTEX
  8
0
 10
884.658706
 20
1698.133682
 42
-0.007539
  0
VERTEX
  8
0
 10
886.621271
 20
1710.000000
 42
-0.015237
  0
VERTEX
  8
0
 10
892.304211
 20
1736.734182
 42
-0.016254
  0
VERTEX
  8
0
 10
899.501533
 20
1762.496210
 42
-0.016194
  0
VERTEX
  8
0
 10
908.384462
 20
1787.823403
 42
-0.014887
  0
VERTEX
  8
0
 10
919.120879
 20
1813.254258
 42
-0.026917
  0
VERTEX
  8
0
 10
943.230467
 20
1859.218934
 42
-0.020938
  0
VERTEX
  8
0
 10
974.112069
 20
1906.481438
 42
-0.021349
  0
VERTEX
  8
0
 10
1006.626375
 20
1948.089030
 42
-0.048453
  0
VERTEX
  8
0
 10
1035.315512
 20
1975.793906
 42
-0.005968
  0
VERTEX
  8
0
 10
1038.384801
 20
1978.171969
 42
-0.008828
  0
VERTEX
  8
0
 10
1041.137077
 20
1980.176960
 42
-0.004759
  0
VERTEX
  8
0
 10
1043.491915
 20
1981.796353
 42
-0.149319
  0
VERTEX
  8
0
 10
1044.158630
 20
1982.000000
 42
-0.549647
  0
VERTEX
  8
0
 10
1044.331985
 20
1981.726936
 42
-0.027741
  0
VERTEX
  8
0
 10
1043.726223
 20
1980.604687
 42
-0.023537
  0
VERTEX
  8
0
 10
1042.684178
 20
1979.073312
 42
-0.012057
  0
SEQEND
  0
POLYLINE
  8
0
 66
1
 70
1
  0
VERTEX
  8
0
 10
1424.584391
 20
1949.000000
 42
-0.019390
  0
VERTEX
  8
0
 10
1431.064537
 20
1912.341831
 42
-0.026953
  0
VERTEX
  8
0
 10
1433.804809
 20
1879.119847
 42
-0.028760
  0
VERTEX
  8
0
 10
1432.886631
 20
1847.576213
 42
-0.027848
  0
VERTEX
  8
0
 10
1428.363184
 20
1816.000000
 42
-0.006080
  0
VERTEX
  8
0
 10
1426.195917
 20
1805.838321
 42
-0.004135
  0
VERTEX
  8
0
 10
1423.493900
 20
1794.327371
 42
-0.004089
  0
VERTEX
  8
0
 10
1420.773643
 20
1783.539443
 42
-0.011276
  0
VERTEX
  8
0
 10
1418.624105
 20
1776.000000
 42
0.000000
  0
VERTEX
  8
0
 10
1417.230676
 20
1771.500000
 42
0.000000
  0
VERTEX
  8
0
 10
1416.532028
 20
1775.500000
 42
0.037639
  0
VERTEX
  8
0
 10
1412.751622
 20
1790.419686
 42
0.048600
  0
VERTEX
  8
0
 10
1406.985637
 20
1803.313032
 42
0.049438
  0
VERTEX
  8
0
 10
1398.931224
 20
1814.680313
 42
0.041052
  0
VERTEX
  8
0
 10
1388.321045
 20
1825.040849
 42
0.000000
  0
VERTEX
  8
0
 10
1384.142089
 20
1828.500000
 42
0.000000
  0
VERTEX
  8
0
 10
1392.074946
 20
1838.981701
 42
0.054278
  0
VERTEX
  8
0
 10
1408.085032
 20
1865.726416
 42
0.055179
  0
VERTEX
  8
0
 10
1417.857049
 20
1895.144043
 42
0.049815
  0
VERTEX
  8
0
 10
1421.579507
 20
1928.565961
 42
0.032512
  0
VERTEX
  8
0
 10
1419.497778
 20
1967.346212
 42
-0.001143
  0
VERTEX
  8
0
 10
1419.182795
 20
1970.041326
 42
-0.132435
  0
VERTEX
  8
0
 10
1419.235009
 20
1970.388499
 42
-0.682801
  0
VERTEX
  8
0
 10
1419.363617
 20
1970.383352
 42
-0.002706
  0
VERTEX
  8
0
 10
1420.002842
 20
1968.500000
 42
-0.020935
  0
VERTEX
  8
0
 10
1420.563608
 20
1966.549388
 42
-0.001826
  0
VERTEX
  8
0
 10
1421.761235
 20
1961.534375
 42
-0.002396
  0
VERTEX
  8
0
 10
1423.139765
 20
1955.538149
 42
-0.001860
  0
SEQEND
  0
POLYLINE
  8
0
 66
1
 70
1
  0
VERTEX
  8
0
 10
1455.447384
 20
1905.738606
 42
-0.019978
  0
VERTEX
  8
0
 10
1460.754608
 20
1887.218367
 42
-0.022636
  0
VERTEX
  8
0
 10
1464.314572
 20
1869.086186
 42
-0.021612
  0
VERTEX
  8
0
 10
1466.333761
 20
1849.997058
 42
-0.015543
  0
VERTEX
  8
0
 10
1467.000000
 20
1828.570195
 42
-0.017630
  0
VERTEX
  8
0
 10
1466.246668
 20
1807.211493
 42
-0.022408
  0
VERTEX
  8
0
 10
1463.977067
 20
1787.618131
 42
-0.023231
  0
VERTEX
  8
0
 10
1460.055492
 20
1768.906018
 42
-0.021707
  0
VERTEX
  8
0
 10
1454.342510
 20
1750.202216
 42
-0.005221
  0
VERTEX
  8
0
 10
1453.328692
 20
1747.427370
 42
-0.009052
  0
VERTEX
  8
0
 10
1452.421068
 20
1745.147279
 42
-0.003624
  0
VERTEX
  8
0
 10
1451.622012
 20
1743.279185
 42
-0.528504
  0
VERTEX
  8
0
 10
1451.424794
 20
1743.241873
 42
-0.262661
  0
VERTEX
  8
0
 10
1451.340355
 20
1743.544992
 42
-0.002579
  0
VERTEX
  8
0
 10
1451.914102
 20
1745.818542
 42
-0.007588
  0
VERTEX
  8
0
 10
1452.639150
 20
1748.463743
 42
-0.004742
  0
VERTEX
  8
0
 10
1453.564378
 20
1751.539657
 42
0.029346
  0
VERTEX
  8
0
 10
1457.681567
 20
1768.148117
 42
0.016850
  0
VERTEX
  8
0
 10
1460.778200
 20
1788.550646
 42
0.016766
  0
VERTEX
  8
0
 10
1462.522270
 20
1809.413850
 42
0.025911
  0
VERTEX
  8
0
 10
1462.487207
 20
1827.500000
 42
0.018086
  0
VERTEX
  8
0
 10
1460.901304
 20
1845.089639
 42
0.009264
  0
VERTEX
  8
0
 10
1457.708528
 20
1867.013518
 42
0.008642
  0
VERTEX
  8
0
 10
1453.291073
 20
1891.230938
 42
0.007919
  0
VERTEX
  8
0
 10
1447.919816
 20
1916.000000
 42
-0.000896
  0
VERTEX
  8
0
 10
1446.768816
 20
1920.969638
 42
-0.001138
  0
VERTEX
  8
0
 10
1445.724743
 20
1925.562500
 42
-0.000890
  0
VERTEX
  8
0
 10
1444.864765
 20
1929.417789
 42
-0.009385
  0
VERTEX
  8
0
 10
1444.545811
 20
1931.000000
 42
-0.858739
  0
VERTEX
  8
0
 10
1445.172885
 20
1931.216090
 42
-0.019041
  0
VERTEX
  8
0
 10
1448.012782
 20
1925.268627
 42
-0.010853
  0
VERTEX
  8
0
 10
1451.967580
 20
1915.528655
 42
-0.011240
  0
SEQEND
  0
POLYLINE
  8
0
 66
1
 70
1
  0
VERTEX
  8
0
 10
1267.486726
 20
1920.936897
 42
0.010985
  0
VERTEX
  8
0
 10
1265.703824
 20
1911.428971
 42
0.007308
  0
VERTEX
  8
0
 10
1264.059857
 20
1900.460918
 42
0.005217
  0
VERTEX
  8
0
 10
1262.281316
 20
1886.159856
 42
0.001844
  0
VERTEX
  8
0
 10
1260.023382
 20
1865.642009
 42
-0.005460
  0
VERTEX
  8
0
 10
1257.564881
 20
1844.695764
 42
-0.010058
  0
VERTEX
  8
0
 10
1255.037077
 20
1827.726012
 42
-0.012279
  0
VERTEX
  8
0
 10
1252.333816
 20
1813.860257
 42
-0.021645
  0
VERTEX
  8
0
 10
1249.330127
 20
1802.586567
 42
-0.034800
  0
VERTEX
  8
0
 10
1240.148357
 20
1779.139454
 42
-0.050620
  0
VERTEX
  8
0
 10
1228.662716
 20
1760.149656
 42
-0.051111
  0
VERTEX
  8
0
 10
1213.687655
 20
1743.986186
 42
-0.036391
  0
VERTEX
  8
0
 10
1194.000000
 20
1729.061056
 42
-0.024082
  0
VERTEX
  8
0
 10
1180.165674
 20
1720.996884
 42
-0.003696
  0
VERTEX
  8
0
 10
1151.799690
 20
1706.508911
 42
-0.000641
  0
VERTEX
  8
0
 10
1120.195464
 20
1690.711144
 42
-0.557080
  0
VERTEX
  8
0
 10
1119.000000
 20
1691.451132
 42
-0.238587
  0
VERTEX
  8
0
 10
1119.411528
 20
1692.264465
 42
-0.000355
  0
VERTEX
  8
0
 10
1133.297705
 20
1702.458392
 42
-0.002894
  0
VERTEX
  8
0
 10
1148.120671
 20
1713.192489
 42
-0.002409
  0
VERTEX
  8
0
 10
1164.000000
 20
1724.436764
 42
0.003132
  0
VERTEX
  8
0
 10
1181.064927
 20
1736.557680
 42
0.011534
  0
VERTEX
  8
0
 10
1191.624461
 20
1744.533989
 42
0.017338
  0
VERTEX
  8
0
 10
1199.330452
 20
1751.086382
 42
0.018802
  0
VERTEX
  8
0
 10
1206.350660
 20
1757.988838
 42
0.017173
  0
VERTEX
  8
0
 10
1211.897831
 20
1764.289168
 42
0.021415
  0
VERTEX
  8
0
 10
1216.583856
 20
1770.521024
 42
0.020482
  0
VERTEX
  8
0
 10
1220.878707
 20
1777.356753
 42
0.013688
  0
VERTEX
  8
0
 10
1225.249798
 20
1785.500000
 42
0.022533
  0
VERTEX
  8
0
 10
1230.932218
 20
1798.217645
 42
0.020308
  0
VERTEX
  8
0
 10
1235.667161
 20
1811.839567
 42
0.015568
  0
VERTEX
  8
0
 10
1240.222539
 20
1828.773426
 42
0.006204
  0
VERTEX
  8
0
 10
1245.452601
 20
1852.244499
 42
-0.001372
  0
VERTEX
  8
0
 10
1249.569901
 20
1871.601014
 42
-0.005751
  0
VERTEX
  8
0
 10
1252.211523
 20
1883.205117
 42
-0.008965
  0
VERTEX
  8
0
 10
1254.470367
 20
1891.932597
 42
-0.008877
  0
VERTEX
  8
0
 10
1257.047620
 20
1900.602455
 42
-0.013316
  0
VERTEX
  8
0
 10
1259.935126
 20
1908.941794
 42
-0.007900
  0
VERTEX
  8
0
 10
1263.796354
 20
1918.729292
 42
-0.001939
  0
VERTEX
  8
0
 10
1267.892589
 20
1928.542334
 42
-0.532385
  0
VERTEX
  8
0
 10
1268.644099
 20
1928.689235
 42
-0.233713
  0
VERTEX
  8
0
 10
1268.761461
 20
1928.342315
 42
-0.003807
  0
VERTEX
  8
0
 10
1268.465453
 20
1926.250653
 42
-0.009025
  0
VERTEX
  8
0
 10
1268.052009
 20
1923.786706
 42
-0.005759
  0
SEQEND
  0
POLYLINE
  8
0
 66
1
 70
1
  0
VERTEX
  8
0
 10
1139.600028
 20
1845.000000
 42
-0.007769
  0
VERTEX
  8
0
 10
1139.770840
 20
1825.235354
 42
-0.017931
  0
VERTEX
  8
0
 10
1139.136064
 20
1810.396585
 42
-0.016631
  0
VERTEX
  8
0
 10
1137.405200
 20
1794.988979
 42
-0.005843
  0
VERTEX
  8
0
 10
1133.928456
 20
1773.000000
 42
-0.007400
  0
VERTEX
  8
0
 10
1131.081808
 20
1757.644301
 42
-0.009992
  0
VERTEX
  8
0
 10
1128.025861
 20
1743.854260
 42
-0.010864
  0
VERTEX
  8
0
 10
1124.669384
 20
1731.226354
 42
-0.012633
  0
VERTEX
  8
0
 10
1120.917102
 20
1719.381465
 42
-0.010021
  0
VERTEX
  8
0
 10
1117.390647
 20
1709.782995
 42
-0.023278
  0
VERTEX
  8
0
 10
1114.274148
 20
1702.779413
 42
-0.021580
  0
VERTEX
  8
0
 10
1110.378302
 20
1695.787958
 42
-0.007533
  0
VERTEX
  8
0
 10
1104.194707
 20
1686.068028
 42
0.019844
  0
VERTEX
  8
0
 10
1093.902126
 20
1668.974248
 42
0.016368
  0
VERTEX
  8
0
 10
1084.273245
 20
1649.998009
 42
0.014193
  0
VERTEX
  8
0
 10
1074.706956
 20
1627.894036
 42
0.008588
  0
VERTEX
  8
0
 10
1064.582367
 20
1601.229559
 42
-0.014304
  0
VERTEX
  8
0
 10
1057.185033
 20
1582.399155
 42
-0.027120
  0
VERTEX
  8
0
 10
1049.994583
 20
1567.781591
 42
-0.028548
  0
VERTEX
  8
0
 10
1041.526923
 20
1554.525897
 42
-0.017897
  0
VERTEX
  8
0
 10
1030.222357
 20
1540.000000
 42
-0.020962
  0
VERTEX
  8
0
 10
1019.335399
 20
1528.053671
 42
-0.010329
  0
VERTEX
  8
0
 10
1004.568573
 20
1513.758071
 42
-0.010308
  0
VERTEX
  8
0
 10
989.330083
 20
1500.178067
 42
-0.022537
  0
VERTEX
  8
0
 10
977.000000
 20
1490.564460
 42
-0.885545
  0
VERTEX
  8
0
 10
976.903976
 20
1490.669957
 42
-0.004350
  0
VERTEX
  8
0
 10
978.985372
 20
1493.043935
 42
-0.004547
  0
VERTEX
  8
0
 10
981.990517
 20
1496.350917
 42
-0.002245
  0
VERTEX
  8
0
 10
985.865095
 20
1500.500000
 42
0.017883
  0
VERTEX
  8
0
 10
998.296913
 20
1514.676332
 42
0.017548
  0
VERTEX
  8
0
 10
1009.765974
 20
1529.792141
 42
0.018483
  0
VERTEX
  8
0
 10
1019.360452
 20
1544.532009
 42
0.032152
  0
VERTEX
  8
0
 10
1026.042323
 20
1557.500000
 42
0.017845
  0
VERTEX
  8
0
 10
1029.331452
 20
1565.836079
 42
0.010720
  0
VERTEX
  8
0
 10
1032.664843
 20
1575.939323
 42
0.009740
  0
VERTEX
  8
0
 10
1035.930138
 20
1587.390894
 42
0.007780
  0
VERTEX
  8
0
 10
1039.015364
 20
1599.850844
 42
-0.016918
  0
VERTEX
  8
0
 10
1046.189033
 20
1626.708957
 42
-0.037396
  0
VERTEX
  8
0
 10
1053.848431
 20
1646.480593
 42
-0.034534
  0
VERTEX
  8
0
 10
1064.754828
 20
1665.824476
 42
-0.012529
  0
VERTEX
  8
0
 10
1082.749477
 20
1691.709271
 42
0.031814
  0
VERTEX
  8
0
 10
1095.195652
 20
1711.172608
 42
0.024276
  0
VERTEX
  8
0
 10
1106.351791
 20
1733.872933
 42
0.022612
  0
VERTEX
  8
0
 10
1116.015188
 20
1759.312166
 42
0.019039
  0
VERTEX
  8
0
 10
1123.973142
 20
1787.014379
 42
0.011575
  0
VERTEX
  8
0
 10
1128.228615
 20
1806.178206
 42
0.012435
  0
VERTEX
  8
0
 10
1131.480669
 20
1825.067290
 42
0.010642
  0
VERTEX
  8
0
 10
1134.153018
 20
1846.448255
 42
0.005371
  0
VERTEX
  8
0
 10
1136.657470
 20
1873.500000
 42
0.000000
  0
VERTEX
  8
0
 10
1137.393275
 20
1882.500000
 42
0.000000
  0
VERTEX
  8
0
 10
1138.176218
 20
1877.000000
 42
-0.021970
  0
VERTEX
  8
0
 10
1138.515187
 20
1873.533379
 42
-0.002268
  0
VERTEX
  8
0
 10
1138.917427
 20
1865.331250
 42
-0.002820
  0
VERTEX
  8
0
 10
1139.297361
 20
1855.550046
 42
-0.002251
  0
SEQEND
  0
POLYLINE
  8
0
 66
1
 70
1
  0
VERTEX
  8
0
 10
1446.987571
 20
1818.427077
 42
-0.023781
  0
VERTEX
  8
0
 10
1444.983937
 20
1803.892447
 42
-0.020833
  0
VERTEX
  8
0
 10
1441.544512
 20
1788.947663
 42
-0.018379
  0
VERTEX
  8
0
 10
1436.422143
 20
1772.655338
 42
-0.011547
  0
VERTEX
  8
0
 10
1429.304927
 20
1754.000000
 42
0.006580
  0
VERTEX
  8
0
 10
1421.077186
 20
1733.060812
 42
0.022639
  0
VERTEX
  8
0
 10
1416.542207
 20
1719.189141
 42
0.023722
  0
VERTEX
  8
0
 10
1413.387770
 20
1705.295969
 42
0.007768
  0
VERTEX
  8
0
 10
1410.036165
 20
1684.566035
 42
-0.003235
  0
VERTEX
  8
0
 10
1408.646925
 20
1675.449682
 42
-0.002373
  0
VERTEX
  8
0
 10
1406.992665
 20
1665.355774
 42
-0.002398
  0
VERTEX
  8
0
 10
1405.335443
 20
1655.815086
 42
-0.005324
  0
VERTEX
  8
0
 10
1403.960634
 20
1648.566035
 42
-0.007465
  0
VERTEX
  8
0
 10
1401.124934
 20
1635.455227
 42
-0.004277
  0
VERTEX
  8
0
 10
1397.332908
 20
1619.720683
 42
-0.000941
  0
VERTEX
  8
0
 10
1393.277874
 20
1603.633708
 42
-0.146076
  0
VERTEX
  8
0
 10
1392.326596
 20
1602.042797
 42
-0.665397
  0
VERTEX
  8
0
 10
1391.609345
 20
1602.373880
 42
-0.000866
  0
VERTEX
  8
0
 10
1392.391048
 20
1623.131407
 42
-0.004559
  0
VERTEX
  8
0
 10
1393.334375
 20
1642.569626
 42
-0.011934
  0
VERTEX
  8
0
 10
1394.471873
 20
1656.500000
 42
-0.012169
  0
VERTEX
  8
0
 10
1397.085552
 20
1676.542015
 42
-0.014110
  0
VERTEX
  8
0
 10
1400.571919
 20
1695.461165
 42
-0.015223
  0
VERTEX
  8
0
 10
1404.776178
 20
1712.574978
 42
-0.023077
  0
VERTEX
  8
0
 10
1409.560187
 20
1727.133733
 42
-0.010481
  0
VERTEX
  8
0
 10
1411.388100
 20
1731.649904
 42
-0.002963
  0
VERTEX
  8
0
 10
1414.423179
 20
1738.604811
 42
-0.002985
  0
VERTEX
  8
0
 10
1417.946527
 20
1746.423520
 42
-0.003150
  0
VERTEX
  8
0
 10
1421.501226
 20
1754.060247
 42
0.011517
  0
VERTEX
  8
0
 10
1432.862333
 20
1779.575336
 42
0.024267
  0
VERTEX
  8
0
 10
1440.240659
 20
1799.955514
 42
0.030503
  0
VERTEX
  8
0
 10
1444.489265
 20
1817.480435
 42
0.039037
  0
VERTEX
  8
0
 10
1446.127096
 20
1834.000000
 42
0.000000
  0
VERTEX
  8
0
 10
1446.262235
 20
1840.500000
 42
0.000000
  0
VERTEX
  8
0
 10
1447.076543
 20
1834.500000
 42
-0.025477
  0
VERTEX
  8
0
 10
1447.328595
 20
1831.504714
 42
-0.009637
  0
VERTEX
  8
0
 10
1447.386310
 20
1827.303579
 42
-0.009516
  0
VERTEX
  8
0
 10
1447.273768
 20
1822.723398
 42
-0.011460
  0
SEQEND
  0
POLYLINE
  8
0
 66
1
 70
1
  0
VERTEX
  8
0
 10
983.304770
 20
1724.357336
 42
0.006413
  0
VERTEX
  8
0
 10
963.856048
 20
1708.654787
 42
0.011631
  0
VERTEX
  8
0
 10
948.423052
 20
1695.246514
 42
0.013803
  0
VERTEX
  8
0
 10
935.679165
 20
1682.983376
 42
0.017047
  0
VERTEX
  8
0
 10
924.530164
 20
1670.844687
 42
0.026857
  0
VERTEX
  8
0
 10
911.016662
 20
1653.256705
 42
0.030061
  0
VERTEX
  8
0
 10
900.010554
 20
1634.950917
 42
0.023644
  0
VERTEX
  8
0
 10
889.413772
 20
1612.083724
 42
0.009202
  0
VERTEX
  8
0
 10
876.862918
 20
1579.557435
 42
-0.001158
  0
VERTEX
  8
0
 10
870.610847
 20
1562.544863
 42
-0.022302
  0
VERTEX
  8
0
 10
868.423702
 20
1557.358604
 42
-0.715880
  0
VERTEX
  8
0
 10
867.704732
 20
1557.442014
 42
-0.079707
  0
VERTEX
  8
0
 10
867.567463
 20
1560.000000
 42
-0.025507
  0
VERTEX
  8
0
 10
872.055608
 20
1588.449394
 42
-0.035718
  0
VERTEX
  8
0
 10
879.136479
 20
1613.178255
 42
-0.037818
  0
VERTEX
  8
0
 10
889.277813
 20
1635.533339
 42
-0.034543
  0
VERTEX
  8
0
 10
902.944119
 20
1656.829351
 42
-0.027458
  0
VERTEX
  8
0
 10
911.426553
 20
1667.013215
 42
-0.010871
  0
VERTEX
  8
0
 10
924.126701
 20
1680.080732
 42
-0.010980
  0
VERTEX
  8
0
 10
937.842244
 20
1693.011473
 42
-0.019264
  0
VERTEX
  8
0
 10
949.814164
 20
1703.002968
 42
-0.009208
  0
VERTEX
  8
0
 10
961.225179
 20
1711.472999
 42
-0.003385
  0
VERTEX
  8
0
 10
977.634094
 20
1723.023496
 42
-0.000647
  0
VERTEX
  8
0
 10
995.353736
 20
1735.284157
 42
-0.137531
  0
VERTEX
  8
0
 10
997.304770
 20
1735.953839
 42
-0.722440
  0
VERTEX
  8
0
 10
997.376585
 20
1735.772372
 42
-0.001151
  0
VERTEX
  8
0
 10
993.524237
 20
1732.566408
 42
-0.004045
  0
VERTEX
  8
0
 10
988.926162
 20
1728.820033
 42
-0.002298
  0
SEQEND
  0
POLYLINE
  8
0
 66
1
 70
1
  0
VERTEX
  8
0
 10
1436.650190
 20
1637.000000
 42
-0.029424
  0
VERTEX
  8
0
 10
1434.126769
 20
1605.892690
 42
-0.055107
  0
VERTEX
  8
0
 10
1427.891644
 20
1581.461386
 42
-0.060383
  0
VERTEX
  8
0
 10
1416.953921
 20
1560.482696
 42
-0.043440
  0
VERTEX
  8
0
 10
1400.162892
 20
1540.057050
 42
-0.004208
  0
VERTEX
  8
0
 10
1392.520412
 20
1532.382238
 42
-0.770987
  0
VERTEX
  8
0
 10
1391.906248
 20
1532.745811
 42
-0.074806
  0
VERTEX
  8
0
 10
1393.134943
 20
1535.448880
 42
-0.000981
  0
VERTEX
  8
0
 10
1403.277638
 20
1551.000000
 42
0.009203
  0
VERTEX
  8
0
 10
1407.166907
 20
1557.183026
 42
0.005548
  0
VERTEX
  8
0
 10
1411.560038
 20
1564.646875
 42
0.005555
  0
VERTEX
  8
0
 10
1415.762430
 20
1572.163642
 42
0.009682
  0
VERTEX
  8
0
 10
1419.055610
 20
1578.500000
 42
0.028059
  0
VERTEX
  8
0
 10
1426.048280
 20
1594.863807
 42
0.035049
  0
VERTEX
  8
0
 10
1430.575814
 20
1610.748274
 42
0.029897
  0
VERTEX
  8
0
 10
1433.294510
 20
1629.006205
 42
0.013779
  0
VERTEX
  8
0
 10
1434.747565
 20
1653.000000
 42
-0.000762
  0
VERTEX
  8
0
 10
1435.187387
 20
1665.760955
 42
-0.021175
  0
VERTEX
  8
0
 10
1435.448420
 20
1669.087086
 42
-0.865713
  0
VERTEX
  8
0
 10
1435.772398
 20
1669.094553
 42
-0.015523
  0
VERTEX
  8
0
 10
1436.263205
 20
1665.500000
 42
-0.018396
  0
VERTEX
  8
0
 10
1436.560521
 20
1661.126164
 42
-0.004377
  0
VERTEX
  8
0
 10
1436.723522
 20
1653.828125
 42
-0.004495
  0
VERTEX
  8
0
 10
1436.762023
 20
1645.435155
 42
-0.004427
  0
SEQEND
  0
POLYLINE
  8
0
 66
1
 70
1
  0
VERTEX
  8
0
 10
933.511269
 20
1535.011387
 42
-0.027720
  0
VERTEX
  8
0
 10
926.374525
 20
1528.557228
 42
-0.020945
  0
VERTEX
  8
0
 10
917.883676
 20
1522.262997
 42
-0.014519
  0
VERTEX
  8
0
 10
906.253824
 20
1514.857944
 42
-0.004677
  0
VERTEX
  8
0
 10
888.600374
 20
1504.547650
 42
0.002657
  0
VERTEX
  8
0
 10
878.970978
 20
1498.975760
 42
0.003015
  0
VERTEX
  8
0
 10
869.801180
 20
1493.530034
 42
0.002743
  0
VERTEX
  8
0
 10
862.065206
 20
1488.814476
 42
0.016721
  0
VERTEX
  8
0
 10
858.164298
 20
1486.223196
 42
0.024011
  0
VERTEX
  8
0
 10
852.109316
 20
1481.447776
 42
0.014513
  0
VERTEX
  8
0
 10
845.392207
 20
1475.254635
 42
0.014459
  0
VERTEX
  8
0
 10
839.272627
 20
1468.918580
 42
0.034485
  0
VERTEX
  8
0
 10
835.210886
 20
1463.793457
 42
0.039548
  0
VERTEX
  8
0
 10
829.214006
 20
1453.372026
 42
0.035780
  0
VERTEX
  8
0
 10
824.699404
 20
1441.786644
 42
0.035273
  0
VERTEX
  8
0
 10
821.829280
 20
1429.502911
 42
0.035810
  0
VERTEX
  8
0
 10
820.733380
 20
1417.000000
 42
-0.000940
  0
VERTEX
  8
0
 10
820.605688
 20
1409.793669
 42
-0.055497
  0
VERTEX
  8
0
 10
820.435509
 20
1408.496787
 42
-0.773221
  0
VERTEX
  8
0
 10
820.148347
 20
1408.493041
 42
-0.008565
  0
VERTEX
  8
0
 10
819.379531
 20
1411.500000
 42
-0.042352
  0
VERTEX
  8
0
 10
818.330277
 20
1418.512033
 42
-0.020350
  0
VERTEX
  8
0
 10
818.119261
 20
1427.610945
 42
-0.020309
  0
VERTEX
  8
0
 10
818.660205
 20
1436.908091
 42
-0.034159
  0
VERTEX
  8
0
 10
819.959303
 20
1444.613621
 42
-0.033440
  0
VERTEX
  8
0
 10
823.447072
 20
1455.802555
 42
-0.043046
  0
VERTEX
  8
0
 10
828.179530
 20
1465.474080
 42
-0.040834
  0
VERTEX
  8
0
 10
834.713571
 20
1474.573950
 42
-0.026016
  0
VERTEX
  8
0
 10
843.663360
 20
1484.058983
 42
-0.028985
  0
VERTEX
  8
0
 10
851.863703
 20
1491.028671
 42
-0.024159
  0
VERTEX
  8
0
 10
861.315660
 20
1497.470021
 42
-0.015997
  0
VERTEX
  8
0
 10
874.468027
 20
1504.963790
 42
-0.004475
  0
VERTEX
  8
0
 10
895.500000
 20
1515.831894
 42
0.004493
  0
VERTEX
  8
0
 10
906.077369
 20
1521.298159
 42
0.004750
  0
VERTEX
  8
0
 10
916.359375
 20
1526.854992
 42
0.004545
  0
VERTEX
  8
0
 10
925.128131
 20
1531.806786
 42
0.021485
  0
VERTEX
  8
0
 10
930.000000
 20
1534.902881
 42
-0.001797
  0
VERTEX
  8
0
 10
933.291948
 20
1537.181634
 42
-0.002817
  0
VERTEX
  8
0
 10
936.140805
 20
1539.115030
 42
-0.000756
  0
VERTEX
  8
0
 10
938.634927
 20
1540.781774
 42
-0.102942
  0
VERTEX
  8
0
 10
938.968697
 20
1540.916030
 42
-0.716087
  0
VERTEX
  8
0
 10
939.024466
 20
1540.815192
 42
-0.002091
  0
VERTEX
  8
0
 10
937.558914
 20
1539.216179
 42
-0.005470
  0
VERTEX
  8
0
 10
935.751275
 20
1537.302836
 42
-0.003054
  0
SEQEND
  0
POLYLINE
  8
0
 66
1
 70
1
  0
VERTEX
  8
0
 10
1353.412721
 20
1514.750000
 42
-0.011063
  0
VERTEX
  8
0
 10
1347.245621
 20
1500.591577
 42
-0.007881
  0
VERTEX
  8
0
 10
1339.741081
 20
1485.003673
 42
-0.007874
  0
VERTEX
  8
0
 10
1332.234274
 20
1470.591320
 42
-0.020268
  0
VERTEX
  8
0
 10
1326.233494
 20
1460.500000
 42
-0.021501
  0
VERTEX
  8
0
 10
1317.553811
 20
1448.342062
 42
-0.024037
  0
VERTEX
  8
0
 10
1308.160904
 20
1437.437521
 42
-0.024953
  0
VERTEX
  8
0
 10
1298.119997
 20
1427.860154
 42
-0.027653
  0
VERTEX
  8
0
 10
1287.500000
 20
1419.675850
 42
-0.021475
  0
VERTEX
  8
0
 10
1283.844824
 20
1417.392623
 42
-0.003204
  0
VERTEX
  8
0
 10
1276.270425
 20
1413.165760
 42
-0.003599
  0
VERTEX
  8
0
 10
1267.250320
 20
1408.291886
 42
-0.003096
  0
VERTEX
  8
0
 10
1257.697191
 20
1403.294092
 42
0.003164
  0
VERTEX
  8
0
 10
1248.056517
 20
1398.248821
 42
0.003468
  0
VERTEX
  8
0
 10
1238.772282
 20
1393.232097
 42
0.003242
  0
VERTEX
  8
0
 10
1230.891616
 20
1388.836141
 42
0.017357
  0
VERTEX
  8
0
 10
1226.697191
 20
1386.264413
 42
-0.000818
  0
VERTEX
  8
0
 10
1219.103462
 20
1381.255618
 42
-0.165145
  0
VERTEX
  8
0
 10
1218.242225
 20
1381.031925
 42
-0.650174
  0
VERTEX
  8
0
 10
1218.115087
 20
1381.386165
 42
-0.001454
  0
VERTEX
  8
0
 10
1223.500000
 20
1386.498916
 42
-0.021115
  0
VERTEX
  8
0
 10
1230.176132
 20
1392.287890
 42
-0.014971
  0
VERTEX
  8
0
 10
1238.116626
 20
1398.226946
 42
-0.011596
  0
VERTEX
  8
0
 10
1248.278330
 20
1405.016883
 42
-0.005122
  0
VERTEX
  8
0
 10
1262.000000
 20
1413.536210
 42
0.003027
  0
VERTEX
  8
0
 10
1267.954687
 20
1417.198794
 42
0.003039
  0
VERTEX
  8
0
 10
1273.856250
 20
1420.928135
 42
0.002968
  0
VERTEX
  8
0
 10
1278.963541
 20
1424.242078
 42
0.012154
  0
VERTEX
  8
0
 10
1282.000000
 20
1426.345476
 42
0.033859
  0
VERTEX
  8
0
 10
1296.558386
 20
1438.553646
 42
0.030746
  0
VERTEX
  8
0
 10
1309.844904
 20
1452.993858
 42
0.025077
  0
VERTEX
  8
0
 10
1323.417222
 20
1471.523013
 42
0.012082
  0
VERTEX
  8
0
 10
1339.003243
 20
1496.500000
 42
-0.002121
  0
VERTEX
  8
0
 10
1345.965236
 20
1508.168017
 42
-0.003055
  0
VERTEX
  8
0
 10
1352.232196
 20
1518.428285
 42
-0.000408
  0
VERTEX
  8
0
 10
1357.991745
 20
1527.712615
 42
-0.259268
  0
VERTEX
  8
0
 10
1358.508713
 20
1528.000000
 42
-0.525697
  0
VERTEX
  8
0
 10
1358.593259
 20
1527.877161
 42
-0.000496
  0
VERTEX
  8
0
 10
1357.147851
 20
1524.107812
 42
-0.003378
  0
VERTEX
  8
0
 10
1355.469776
 20
1519.831142
 42
-0.001999
  0
SEQEND
  0
POLYLINE
  8
0
 66
1
 70
1
  0
VERTEX
  8
0
 10
1037.219320
 20
1509.403329
 42
-0.006145
  0
VERTEX
  8
0
 10
1035.285115
 20
1500.438200
 42
-0.036784
  0
VERTEX
  8
0
 10
1033.881960
 20
1495.874942
 42
-0.042388
  0
VERTEX
  8
0
 10
1031.899580
 20
1491.839046
 42
-0.009764
  0
VERTEX
  8
0
 10
1027.863188
 20
1485.412666
 42
-0.015913
  0
VERTEX
  8
0
 10
1021.023962
 20
1475.672367
 42
-0.013017
  0
VERTEX
  8
0
 10
1013.119943
 20
1465.696302
 42
-0.011574
  0
VERTEX
  8
0
 10
1003.793542
 20
1455.045639
 42
-0.007689
  0
VERTEX
  8
0
 10
992.633186
 20
1443.250000
 42
0.004008
  0
VERTEX
  8
0
 10
986.629366
 20
1436.997275
 42
0.016539
  0
VERTEX
  8
0
 10
983.155979
 20
1433.068872
 42
0.027010
  0
VERTEX
  8
0
 10
981.343570
 20
1430.618897
 42
0.597294
  0
VERTEX
  8
0
 10
981.676823
 20
1430.000000
 42
0.140729
  0
VERTEX
  8
0
 10
984.768384
 20
1430.887723
 42
0.008320
  0
VERTEX
  8
0
 10
993.028878
 20
1436.251238
 42
0.013386
  0
VERTEX
  8
0
 10
1001.761093
 20
1442.475883
 42
0.017518
  0
VERTEX
  8
0
 10
1009.375097
 20
1448.646803
 42
-0.000447
  0
VERTEX
  8
0
 10
1021.014310
 20
1458.757398
 42
-0.018377
  0
VERTEX
  8
0
 10
1023.616764
 20
1460.851539
 42
-0.387037
  0
VERTEX
  8
0
 10
1024.326155
 20
1460.781992
 42
-0.263092
  0
VERTEX
  8
0
 10
1024.514730
 20
1459.938645
 42
-0.012107
  0
VERTEX
  8
0
 10
1023.979125
 20
1458.315615
 42
-0.000741
  0
VERTEX
  8
0
 10
1022.257412
 20
1453.516352
 42
-0.001103
  0
VERTEX
  8
0
 10
1020.185166
 20
1447.806312
 42
-0.000816
  0
VERTEX
  8
0
 10
1017.869099
 20
1441.500000
 42
0.000000
  0
VERTEX
  8
0
 10
1011.963259
 20
1425.500000
 42
0.000000
  0
VERTEX
  8
0
 10
1003.233423
 20
1422.000000
 42
0.041039
  0
VERTEX
  8
0
 10
979.355312
 20
1410.070296
 42
0.029756
  0
VERTEX
  8
0
 10
954.894376
 20
1393.160518
 42
0.029872
  0
VERTEX
  8
0
 10
932.750972
 20
1373.578725
 42
0.042982
  0
VERTEX
  8
0
 10
915.880592
 20
1353.593171
 42
-0.007950
  0
VERTEX
  8
0
 10
914.006560
 20
1351.028619
 42
-0.016014
  0
VERTEX
  8
0
 10
912.433674
 20
1349.079536
 42
-0.017942
  0
VERTEX
  8
0
 10
911.264995
 20
1347.817201
 42
-0.669129
  0
VERTEX
  8
0
 10
911.000000
 20
1347.926558
 42
-0.063375
  0
VERTEX
  8
0
 10
911.370145
 20
1350.835121
 42
-0.004621
  0
VERTEX
  8
0
 10
913.468607
 20
1358.647871
 42
-0.006973
  0
VERTEX
  8
0
 10
915.978907
 20
1367.197497
 42
-0.008523
  0
VERTEX
  8
0
 10
918.573114
 20
1375.116354
 42
-0.021438
  0
VERTEX
  8
0
 10
925.260537
 20
1392.031328
 42
-0.034116
  0
VERTEX
  8
0
 10
932.547462
 20
1405.773155
 42
-0.032029
  0
VERTEX
  8
0
 10
941.976760
 20
1418.986298
 42
-0.016340
  0
VERTEX
  8
0
 10
955.373314
 20
1434.367914
 42
0.001421
  0
VERTEX
  8
0
 10
968.617776
 20
1448.688907
 42
0.002597
  0
VERTEX
  8
0
 10
979.327041
 20
1460.456968
 42
0.002451
  0
VERTEX
  8
0
 10
990.317224
 20
1472.781433
 42
0.001116
  0
VERTEX
  8
0
 10
1004.567380
 20
1488.993040
 42
-0.002525
  0
VERTEX
  8
0
 10
1021.044734
 20
1507.632257
 42
-0.010095
  0
VERTEX
  8
0
 10
1031.421073
 20
1518.789424
 42
-0.009539
  0
VERTEX
  8
0
 10
1038.481657
 20
1525.807454
 42
-0.607008
  0
VERTEX
  8
0
 10
1039.788014
 20
1525.363181
 42
-0.074275
  0
VERTEX
  8
0
 10
1039.792638
 20
1524.075475
 42
-0.003723
  0
VERTEX
  8
0
 10
1039.152266
 20
1519.898709
 42
-0.005915
  0
VERTEX
  8
0
 10
1038.292714
 20
1514.933299
 42
-0.004241
  0
SEQEND
  0
POLYLINE
  8
0
 66
1
 70
1
  0
VERTEX
  8
0
 10
964.749957
 20
1471.741138
 42
0.005697
  0
VERTEX
  8
0
 10
963.723529
 20
1470.134983
 42
0.000207
  0
VERTEX
  8
0
 10
959.891536
 20
1463.979670
 42
0.000380
  0
VERTEX
  8
0
 10
955.369841
 20
1456.697445
 42
0.000266
  0
VERTEX
  8
0
 10
950.289041
 20
1448.491138
 42
0.012995
  0
VERTEX
  8
0
 10
921.142739
 20
1398.500176
 42
0.024610
  0
VERTEX
  8
0
 10
900.755489
 20
1356.579535
 42
0.028905
  0
VERTEX
  8
0
 10
886.816414
 20
1317.871166
 42
0.029380
  0
VERTEX
  8
0
 10
877.523505
 20
1278.022652
 42
0.000000
  0
VERTEX
  8
0
 10
875.197140
 20
1264.500000
 42
0.000000
  0
VERTEX
  8
0
 10
874.848570
 20
1273.000000
 42
-0.055453
  0
VERTEX
  8
0
 10
877.846019
 20
1315.869075
 42
-0.046216
  0
VERTEX
  8
0
 10
890.164115
 20
1359.869427
 42
-0.042834
  0
VERTEX
  8
0
 10
911.531492
 20
1403.996251
 42
-0.034731
  0
VERTEX
  8
0
 10
941.492808
 20
1447.231612
 42
-0.009101
  0
VERTEX
  8
0
 10
948.216911
 20
1455.318654
 42
-0.005937
  0
VERTEX
  8
0
 10
956.254489
 20
1464.414495
 42
-0.001361
  0
VERTEX
  8
0
 10
964.481108
 20
1473.454818
 42
-0.210469
  0
VERTEX
  8
0
 10
965.718895
 20
1474.000000
 42
-0.492189
  0
VERTEX
  8
0
 10
965.825918
 20
1473.860967
 42
-0.036639
  0
VERTEX
  8
0
 10
965.645108
 20
1473.336459
 42
-0.028791
  0
VERTEX
  8
0
 10
965.281715
 20
1472.608087
 42
-0.014926
  0
SEQEND
  0
POLYLINE
  8
0
 66
1
 70
1
  0
VERTEX
  8
0
 10
1267.526865
 20
1446.355392
 42
-0.027488
  0
VERTEX
  8
0
 10
1259.913882
 20
1439.945912
 42
-0.014074
  0
VERTEX
  8
0
 10
1249.725950
 20
1432.723691
 42
-0.012028
  0
VERTEX
  8
0
 10
1237.153795
 20
1424.763007
 42
-0.007603
  0
VERTEX
  8
0
 10
1222.133735
 20
1416.058807
 42
0.013880
  0
VERTEX
  8
0
 10
1200.514687
 20
1403.165275
 42
0.032775
  0
VERTEX
  8
0
 10
1185.371617
 20
1392.099838
 42
0.042259
  0
VERTEX
  8
0
 10
1174.331611
 20
1381.155527
 42
0.046575
  0
VERTEX
  8
0
 10
1165.685057
 20
1368.841996
 42
0.036950
  0
VERTEX
  8
0
 10
1162.326794
 20
1361.804710
 42
0.022788
  0
VERTEX
  8
0
 10
1159.389251
 20
1353.110024
 42
0.021817
  0
VERTEX
  8
0
 10
1157.102575
 20
1343.627093
 42
0.023206
  0
VERTEX
  8
0
 10
1155.706834
 20
1334.173839
 42
-0.006174
  0
VERTEX
  8
0
 10
1154.720589
 20
1325.446683
 42
-0.733746
  0
VERTEX
  8
0
 10
1153.968595
 20
1325.309934
 42
-0.115659
  0
VERTEX
  8
0
 10
1153.316900
 20
1327.816641
 42
-0.003221
  0
VERTEX
  8
0
 10
1153.118315
 20
1339.090037
 42
-0.038528
  0
VERTEX
  8
0
 10
1153.961993
 20
1351.884235
 42
-0.044676
  0
VERTEX
  8
0
 10
1156.769099
 20
1363.757573
 42
-0.044631
  0
VERTEX
  8
0
 10
1161.643842
 20
1374.953376
 42
-0.038318
  0
VERTEX
  8
0
 10
1168.648972
 20
1385.728639
 42
-0.041553
  0
VERTEX
  8
0
 10
1178.060501
 20
1396.116826
 42
-0.037477
  0
VERTEX
  8
0
 10
1189.374004
 20
1405.204181
 42
-0.026337
  0
VERTEX
  8
0
 10
1205.160223
 20
1414.863854
 42
-0.008496
  0
VERTEX
  8
0
 10
1229.500000
 20
1427.519120
 42
0.004509
  0
VERTEX
  8
0
 10
1240.460212
 20
1433.107218
 42
0.004833
  0
VERTEX
  8
0
 10
1251.065625
 20
1438.766514
 42
0.004590
  0
VERTEX
  8
0
 10
1260.082508
 20
1443.798703
 42
0.022661
  0
VERTEX
  8
0
 10
1265.000000
 20
1446.905920
 42
-0.002278
  0
VERTEX
  8
0
 10
1268.294201
 20
1449.180382
 42
-0.003569
  0
VERTEX
  8
0
 10
1271.150000
 20
1451.103232
 42
-0.001008
  0
VERTEX
  8
0
 10
1273.646651
 20
1452.751248
 42
-0.125672
  0
VERTEX
  8
0
 10
1274.000000
 20
1452.872827
 42
-0.693900
  0
VERTEX
  8
0
 10
1274.056515
 20
1452.752441
 42
-0.001914
  0
VERTEX
  8
0
 10
1272.304767
 20
1450.975147
 42
-0.005449
  0
VERTEX
  8
0
 10
1270.166116
 20
1448.868286
 42
-0.003067
  0
SEQEND
  0
POLYLINE
  8
0
 66
1
 70
1
  0
VERTEX
  8
0
 10
993.958142
 20
1386.403432
 42
0.000000
  0
VERTEX
  8
0
 10
985.889813
 20
1369.500000
 42
0.000000
  0
VERTEX
  8
0
 10
971.694906
 20
1362.252746
 42
0.004703
  0
VERTEX
  8
0
 10
961.243979
 20
1356.792470
 42
0.003575
  0
VERTEX
  8
0
 10
949.890474
 20
1350.619242
 42
0.003602
  0
VERTEX
  8
0
 10
939.367773
 20
1344.700488
 42
0.008864
  0
VERTEX
  8
0
 10
931.750000
 20
1340.162058
 42
-0.008732
  0
VERTEX
  8
0
 10
930.311297
 20
1339.304409
 42
-0.015835
  0
VERTEX
  8
0
 10
929.101562
 20
1338.661580
 42
-0.011584
  0
VERTEX
  8
0
 10
928.149873
 20
1338.220957
 42
-0.540226
  0
VERTEX
  8
0
 10
928.000000
 20
1338.319188
 42
-0.214263
  0
VERTEX
  8
0
 10
928.145678
 20
1338.643533
 42
-0.000150
  0
VERTEX
  8
0
 10
935.417187
 20
1345.101467
 42
-0.001677
  0
VERTEX
  8
0
 10
943.568752
 20
1352.287884
 42
-0.001020
  0
VERTEX
  8
0
 10
953.250000
 20
1360.730515
 42
0.001132
  0
VERTEX
  8
0
 10
963.760514
 20
1369.900455
 42
0.001060
  0
VERTEX
  8
0
 10
974.460938
 20
1379.319007
 42
0.001054
  0
VERTEX
  8
0
 10
983.921360
 20
1387.717378
 42
0.003641
  0
VERTEX
  8
0
 10
990.000000
 20
1393.216546
 42
-0.002100
  0
VERTEX
  8
0
 10
994.428488
 20
1397.247758
 42
-0.003490
  0
VERTEX
  8
0
 10
998.199200
 20
1400.603889
 42
-0.000493
  0
VERTEX
  8
0
 10
1001.552470
 20
1403.540942
 42
-0.377437
  0
VERTEX
  8
0
 10
1001.763235
 20
1403.540210
 42
-0.329056
  0
VERTEX
  8
0
 10
1001.810542
 20
1403.317955
 42
-0.000328
  0
VERTEX
  8
0
 10
999.579073
 20
1398.410026
 42
-0.002798
  0
VERTEX
  8
0
 10
997.032856
 20
1392.901503
 42
-0.001691
  0
SEQEND
  0
POLYLINE
  8
0
 66
1
 70
1
  0
VERTEX
  8
0
 10
1277.610392
 20
1335.000000
 42
-0.028968
  0
VERTEX
  8
0
 10
1277.374064
 20
1317.236187
 42
-0.034615
  0
VERTEX
  8
0
 10
1275.031475
 20
1300.663955
 42
-0.025761
  0
VERTEX
  8
0
 10
1269.798610
 20
1281.082969
 42
-0.008377
  0
VERTEX
  8
0
 10
1260.109236
 20
1252.739895
 42
0.004862
  0
VERTEX
  8
0
 10
1254.737261
 20
1237.379629
 42
0.009067
  0
VERTEX
  8
0
 10
1250.734046
 20
1224.820947
 42
0.010261
  0
VERTEX
  8
0
 10
1247.531116
 20
1213.244411
 42
0.008933
  0
VERTEX
  8
0
 10
1244.644347
 20
1201.000000
 42
-0.000431
  0
VERTEX
  8
0
 10
1243.652895
 20
1196.449624
 42
-0.000564
  0
VERTEX
  8
0
 10
1242.738047
 20
1192.290625
 42
-0.000414
  0
VERTEX
  8
0
 10
1241.964338
 20
1188.805756
 42
-0.005271
  0
VERTEX
  8
0
 10
1241.658817
 20
1187.500000
 42
-0.905896
  0
VERTEX
  8
0
 10
1241.230059
 20
1187.561173
 42
-0.005848
  0
VERTEX
  8
0
 10
1241.738132
 20
1196.833107
 42
-0.005727
  0
VERTEX
  8
0
 10
1242.607199
 20
1207.968004
 42
-0.012963
  0
VERTEX
  8
0
 10
1243.579256
 20
1216.363485
 42
-0.016158
  0
VERTEX
  8
0
 10
1245.458408
 20
1227.084941
 42
-0.014234
  0
VERTEX
  8
0
 10
1248.094545
 20
1238.130116
 42
-0.010833
  0
VERTEX
  8
0
 10
1251.992075
 20
1251.462193
 42
-0.004249
  0
VERTEX
  8
0
 10
1257.919178
 20
1269.677786
 42
0.007304
  0
VERTEX
  8
0
 10
1265.750669
 20
1294.255389
 42
0.022809
  0
VERTEX
  8
0
 10
1270.015206
 20
1311.079158
 42
0.026875
  0
VERTEX
  8
0
 10
1272.356691
 20
1326.687144
 42
0.013653
  0
VERTEX
  8
0
 10
1273.703403
 20
1346.500000
 42
0.000000
  0
VERTEX
  8
0
 10
1274.393347
 20
1363.500000
 42
0.000000
  0
VERTEX
  8
0
 10
1275.678179
 20
1356.500000
 42
-0.017589
  0
VERTEX
  8
0
 10
1276.216560
 20
1352.847646
 42
-0.005387
  0
VERTEX
  8
0
 10
1276.775760
 20
1347.296875
 42
-0.005384
  0
VERTEX
  8
0
 10
1277.268249
 20
1341.064803
 42
-0.005869
  0
SEQEND
  0
POLYLINE
  8
0
 66
1
 70
1
  0
VERTEX
  8
0
 10
1139.608692
 20
1324.500000
 42
-0.003939
  0
VERTEX
  8
0
 10
1138.390775
 20
1320.627962
 42
-0.001686
  0
VERTEX
  8
0
 10
1136.704997
 20
1315.471875
 42
-0.001668
  0
VERTEX
  8
0
 10
1134.871341
 20
1309.988299
 42
-0.002197
  0
VERTEX
  8
0
 10
1133.160322
 20
1305.000000
 42
0.016357
  0
VERTEX
  8
0
 10
1130.306727
 20
1295.843674
 42
0.012830
  0
VERTEX
  8
0
 10
1127.796410
 20
1285.749360
 42
0.012701
  0
VERTEX
  8
0
 10
1125.778579
 20
1275.406979
 42
0.014850
  0
VERTEX
  8
0
 10
1124.406857
 20
1265.500000
 42
-0.001959
  0
VERTEX
  8
0
 10
1123.899850
 20
1260.984204
 42
-0.080200
  0
VERTEX
  8
0
 10
1123.632051
 20
1260.037893
 42
-0.683710
  0
VERTEX
  8
0
 10
1123.326005
 20
1260.057648
 42
-0.015700
  0
VERTEX
  8
0
 10
1122.776884
 20
1262.000000
 42
-0.037926
  0
VERTEX
  8
0
 10
1122.431685
 20
1264.031612
 42
-0.006866
  0
VERTEX
  8
0
 10
1122.130326
 20
1267.850000
 42
-0.007363
  0
VERTEX
  8
0
 10
1121.904250
 20
1272.340560
 42
-0.006612
  0
VERTEX
  8
0
 10
1121.800083
 20
1277.000000
 42
-0.026079
  0
VERTEX
  8
0
 10
1122.255480
 20
1287.579980
 42
-0.034966
  0
VERTEX
  8
0
 10
1123.832559
 20
1297.047285
 42
-0.030754
  0
VERTEX
  8
0
 10
1126.897746
 20
1307.081980
 42
-0.014768
  0
VERTEX
  8
0
 10
1131.986285
 20
1319.550473
 42
0.004849
  0
VERTEX
  8
0
 10
1134.428805
 20
1325.211745
 42
0.004816
  0
VERTEX
  8
0
 10
1136.766741
 20
1330.932125
 42
0.004727
  0
VERTEX
  8
0
 10
1138.715271
 20
1335.972320
 42
0.018694
  0
VERTEX
  8
0
 10
1139.767169
 20
1339.124733
 42
0.000000
  0
VERTEX
  8
0
 10
1141.500000
 20
1345.046355
 42
0.000000
  0
VERTEX
  8
0
 10
1141.777966
 20
1338.773178
 42
-0.024582
  0
VERTEX
  8
0
 10
1141.761700
 20
1335.434501
 42
-0.024205
  0
VERTEX
  8
0
 10
1141.418560
 20
1332.096130
 42
-0.022009
  0
VERTEX
  8
0
 10
1140.715006
 20
1328.530983
 42
-0.014505
  0
SEQEND
  0
POLYLINE
  8
0
 66
1
 70
1
  0
VERTEX
  8
0
 10
1155.683114
 20
1319.812500
 42
-0.054073
  0
VERTEX
  8
0
 10
1155.461564
 20
1319.395823
 42
-0.470617
  0
VERTEX
  8
0
 10
1155.279315
 20
1319.378580
 42
-0.168741
  0
VERTEX
  8
0
 10
1155.137993
 20
1319.670344
 42
-0.018894
  0
VERTEX
  8
0
 10
1155.078947
 20
1320.416667
 42
-0.028489
  0
VERTEX
  8
0
 10
1155.089945
 20
1321.112848
 42
-0.077125
  0
VERTEX
  8
0
 10
1155.200665
 20
1321.592839
 42
-0.208169
  0
VERTEX
  8
0
 10
1155.385309
 20
1321.775380
 42
-0.296942
  0
VERTEX
  8
0
 10
1155.604167
 20
1321.729167
 42
-0.126455
  0
VERTEX
  8
0
 10
1155.797407
 20
1321.402231
 42
-0.060344
  0
VERTEX
  8
0
 10
1155.876576
 20
1320.916927
 42
-0.054150
  0
VERTEX
  8
0
 10
1155.839148
 20
1320.359369
 42
-0.051402
  0
SEQEND
  0
POLYLINE
  8
0
 66
1
 70
1
  0
VERTEX
  8
0
 10
794.907482
 20
1293.000000
 42
-0.048618
  0
VERTEX
  8
0
 10
793.258574
 20
1275.600332
 42
-0.052880
  0
VERTEX
  8
0
 10
788.281238
 20
1259.355077
 42
-0.052763
  0
VERTEX
  8
0
 10
779.994743
 20
1244.484858
 42
-0.048027
  0
VERTEX
  8
0
 10
768.544499
 20
1231.158018
 42
-0.036263
  0
VERTEX
  8
0
 10
755.554561
 20
1220.381822
 42
-0.036886
  0
VERTEX
  8
0
 10
741.215026
 20
1211.663277
 42
-0.026022
  0
VERTEX
  8
0
 10
721.906037
 20
1203.028445
 42
-0.008040
  0
VERTEX
  8
0
 10
692.000000
 20
1192.030304
 42
0.006580
  0
VERTEX
  8
0
 10
683.219544
 20
1188.830307
 42
0.005167
  0
VERTEX
  8
0
 10
673.784527
 20
1185.138441
 42
0.005226
  0
VERTEX
  8
0
 10
665.081385
 20
1181.522612
 42
0.012791
  0
VERTEX
  8
0
 10
658.777113
 20
1178.632889
 42
-0.002511
  0
VERTEX
  8
0
 10
649.114254
 20
1173.960960
 42
-0.421269
  0
VERTEX
  8
0
 10
648.121560
 20
1174.325662
 42
-0.364496
  0
VERTEX
  8
0
 10
648.439695
 20
1175.441437
 42
-0.002410
  0
VERTEX
  8
0
 10
657.495134
 20
1181.493562
 42
-0.019209
  0
VERTEX
  8
0
 10
666.004103
 20
1186.662887
 42
-0.011206
  0
VERTEX
  8
0
 10
676.566153
 20
1192.230275
 42
-0.009528
  0
VERTEX
  8
0
 10
689.297695
 20
1198.280682
 42
-0.005862
  0
VERTEX
  8
0
 10
704.500000
 20
1204.939779
 42
0.008511
  0
VERTEX
  8
0
 10
726.921045
 20
1214.902789
 42
0.021416
  0
VERTEX
  8
0
 10
742.789650
 20
1223.123868
 42
0.028356
  0
VERTEX
  8
0
 10
754.926874
 20
1231.032889
 42
0.033979
  0
VERTEX
  8
0
 10
765.336730
 20
1239.839350
 42
0.050440
  0
VERTEX
  8
0
 10
776.600772
 20
1253.214748
 42
0.046131
  0
VERTEX
  8
0
 10
785.348996
 20
1268.967960
 42
0.046451
  0
VERTEX
  8
0
 10
791.009373
 20
1285.940967
 42
0.052936
  0
VERTEX
  8
0
 10
793.114999
 20
1302.933659
 42
-0.001232
  0
VERTEX
  8
0
 10
793.200459
 20
1307.211285
 42
-0.082556
  0
VERTEX
  8
0
 10
793.336039
 20
1307.927138
 42
-0.746190
  0
VERTEX
  8
0
 10
793.530785
 20
1307.914806
 42
-0.005369
  0
VERTEX
  8
0
 10
794.057369
 20
1305.500000
 42
-0.026159
  0
VERTEX
  8
0
 10
794.378289
 20
1303.400209
 42
-0.007863
  0
VERTEX
  8
0
 10
794.648381
 20
1300.178125
 42
-0.007857
  0
VERTEX
  8
0
 10
794.838027
 20
1296.547649
 42
-0.008450
  0
SEQEND
  0
POLYLINE
  8
0
 66
1
 70
1
  0
VERTEX
  8
0
 10
867.019892
 20
1264.000000
 42
0.002610
  0
VERTEX
  8
0
 10
867.913955
 20
1255.145026
 42
0.002626
  0
VERTEX
  8
0
 10
868.898732
 20
1246.317603
 42
0.002562
  0
VERTEX
  8
0
 10
869.836975
 20
1238.631908
 42
0.010555
  0
VERTEX
  8
0
 10
870.526742
 20
1233.996095
 42
0.012469
  0
VERTEX
  8
0
 10
872.226703
 20
1225.332232
 42
0.003905
  0
VERTEX
  8
0
 10
875.197611
 20
1212.440555
 42
0.004023
  0
VERTEX
  8
0
 10
878.434810
 20
1199.345748
 42
0.009501
  0
VERTEX
  8
0
 10
881.110776
 20
1189.654207
 42
-0.007706
  0
VERTEX
  8
0
 10
881.854982
 20
1186.996157
 42
-0.011974
  0
VERTEX
  8
0
 10
882.406105
 20
1184.680321
 42
-0.006268
  0
VERTEX
  8
0
 10
882.793740
 20
1182.739686
 42
-0.247372
  0
VERTEX
  8
0
 10
882.668404
 20
1182.335071
 42
-0.540550
  0
VERTEX
  8
0
 10
881.994178
 20
1182.475762
 42
-0.001018
  0
VERTEX
  8
0
 10
877.138417
 20
1194.923977
 42
-0.005687
  0
VERTEX
  8
0
 10
872.570443
 20
1207.114802
 42
-0.009456
  0
VERTEX
  8
0
 10
869.033817
 20
1217.500000
 42
-0.020073
  0
VERTEX
  8
0
 10
862.764603
 20
1240.225300
 42
-0.034557
  0
VERTEX
  8
0
 10
859.639313
 20
1259.597839
 42
-0.041221
  0
VERTEX
  8
0
 10
859.496601
 20
1276.454103
 42
-0.054924
  0
VERTEX
  8
0
 10
862.291512
 20
1291.500000
 42
0.000000
  0
VERTEX
  8
0
 10
863.500000
 20
1295.500000
 42
0.000000
  0
VERTEX
  8
0
 10
864.231215
 20
1290.500000
 42
-0.009002
  0
VERTEX
  8
0
 10
864.624212
 20
1287.427332
 42
-0.001090
  0
VERTEX
  8
0
 10
865.352015
 20
1280.653125
 42
-0.001295
  0
VERTEX
  8
0
 10
866.178548
 20
1272.598506
 42
-0.001066
  0
SEQEND
  0
POLYLINE
  8
0
 66
1
 70
1
  0
VERTEX
  8
0
 10
1233.876003
 20
1288.940396
 42
0.025525
  0
VERTEX
  8
0
 10
1230.773037
 20
1279.371687
 42
0.022961
  0
VERTEX
  8
0
 10
1228.533082
 20
1269.193880
 42
0.020746
  0
VERTEX
  8
0
 10
1227.065639
 20
1257.901624
 42
0.014075
  0
VERTEX
  8
0
 10
1226.293194
 20
1244.954546
 42
0.019334
  0
VERTEX
  8
0
 10
1226.428267
 20
1226.248177
 42
0.024192
  0
VERTEX
  8
0
 10
1228.061738
 20
1208.969633
 42
0.022427
  0
VERTEX
  8
0
 10
1231.486227
 20
1190.918091
 42
0.013365
  0
VERTEX
  8
0
 10
1237.089679
 20
1169.773601
 42
-0.012598
  0
VERTEX
  8
0
 10
1243.756345
 20
1144.771908
 42
-0.038845
  0
VERTEX
  8
0
 10
1246.502835
 20
1127.505032
 42
-0.050031
  0
VERTEX
  8
0
 10
1246.205405
 20
1112.553020
 42
-0.034089
  0
VERTEX
  8
0
 10
1243.024191
 20
1095.833252
 42
-0.020943
  0
VERTEX
  8
0
 10
1241.075546
 20
1089.490013
 42
-0.007544
  0
VERTEX
  8
0
 10
1237.793653
 20
1080.637368
 42
-0.001857
  0
VERTEX
  8
0
 10
1234.146935
 20
1071.340781
 42
-0.541802
  0
VERTEX
  8
0
 10
1233.468043
 20
1071.203016
 42
-0.239430
  0
VERTEX
  8
0
 10
1233.381204
 20
1071.476046
 42
-0.001577
  0
VERTEX
  8
0
 10
1233.806181
 20
1074.024633
 42
-0.005736
  0
VERTEX
  8
0
 10
1234.340158
 20
1076.961470
 42
-0.003576
  0
VERTEX
  8
0
 10
1235.030025
 20
1080.391477
 42
0.016202
  0
VERTEX
  8
0
 10
1236.781775
 20
1090.402390
 42
0.013101
  0
VERTEX
  8
0
 10
1238.029721
 20
1101.241403
 42
0.013367
  0
VERTEX
  8
0
 10
1238.655433
 20
1111.370124
 42
0.030749
  0
VERTEX
  8
0
 10
1238.453096
 20
1119.000000
 42
0.017336
  0
VERTEX
  8
0
 10
1237.416589
 20
1127.407791
 42
0.019143
  0
VERTEX
  8
0
 10
1235.823622
 20
1135.447180
 42
0.014676
  0
VERTEX
  8
0
 10
1233.268423
 20
1144.928518
 42
0.005316
  0
VERTEX
  8
0
 10
1229.105316
 20
1158.234553
 42
-0.012306
  0
VERTEX
  8
0
 10
1223.138452
 20
1178.285093
 42
-0.019238
  0
VERTEX
  8
0
 10
1219.101454
 20
1195.829708
 42
-0.021747
  0
VERTEX
  8
0
 10
1216.775683
 20
1211.846264
 42
-0.025184
  0
VERTEX
  8
0
 10
1216.000000
 20
1227.236821
 42
-0.026633
  0
VERTEX
  8
0
 10
1216.710859
 20
1240.572836
 42
-0.023573
  0
VERTEX
  8
0
 10
1218.839795
 20
1254.319984
 42
-0.024166
  0
VERTEX
  8
0
 10
1222.160728
 20
1267.374692
 42
-0.033860
  0
VERTEX
  8
0
 10
1226.455670
 20
1278.610426
 42
-0.008137
  0
VERTEX
  8
0
 10
1229.470139
 20
1284.865441
 42
-0.011988
  0
VERTEX
  8
0
 10
1232.336260
 20
1290.247472
 42
-0.005541
  0
VERTEX
  8
0
 10
1234.903473
 20
1294.685874
 42
-0.489460
  0
VERTEX
  8
0
 10
1235.564432
 20
1294.768901
 42
-0.266171
  0
VERTEX
  8
0
 10
1235.653512
 20
1294.440810
 42
-0.006702
  0
VERTEX
  8
0
 10
1235.228551
 20
1292.896682
 42
-0.012615
  0
VERTEX
  8
0
 10
1234.643888
 20
1291.053706
 42
-0.008049
  0
SEQEND
  0
POLYLINE
  8
0
 66
1
 70
1
  0
VERTEX
  8
0
 10
698.991957
 20
1259.988157
 42
-0.044047
  0
VERTEX
  8
0
 10
687.706104
 20
1246.162205
 42
-0.034446
  0
VERTEX
  8
0
 10
673.253223
 20
1233.246179
 42
-0.025783
  0
VERTEX
  8
0
 10
653.434521
 20
1219.427449
 42
-0.010320
  0
VERTEX
  8
0
 10
625.000000
 20
1202.510681
 42
0.005505
  0
VERTEX
  8
0
 10
607.951197
 20
1192.588716
 42
0.011035
  0
VERTEX
  8
0
 10
594.751032
 20
1184.310336
 42
0.013705
  0
VERTEX
  8
0
 10
584.153762
 20
1176.909754
 42
0.019740
  0
VERTEX
  8
0
 10
575.235264
 20
1169.749182
 42
0.048579
  0
VERTEX
  8
0
 10
555.284620
 20
1148.663211
 42
0.039889
  0
VERTEX
  8
0
 10
538.263334
 20
1122.735365
 42
0.037292
  0
VERTEX
  8
0
 10
524.570576
 20
1092.612031
 42
0.031350
  0
VERTEX
  8
0
 10
514.561996
 20
1059.000000
 42
0.000000
  0
VERTEX
  8
0
 10
512.139700
 20
1048.500000
 42
0.000000
  0
VERTEX
  8
0
 10
512.088170
 20
1055.000000
 42
-0.048796
  0
VERTEX
  8
0
 10
514.072459
 20
1077.089988
 42
-0.030236
  0
VERTEX
  8
0
 10
520.460759
 20
1102.366315
 42
-0.029821
  0
VERTEX
  8
0
 10
530.056147
 20
1127.280316
 42
-0.040418
  0
VERTEX
  8
0
 10
541.783139
 20
1148.341783
 42
-0.035195
  0
VERTEX
  8
0
 10
556.487964
 20
1167.320049
 42
-0.044054
  0
VERTEX
  8
0
 10
572.730904
 20
1182.548835
 42
-0.034694
  0
VERTEX
  8
0
 10
594.309372
 20
1197.177946
 42
-0.012885
  0
VERTEX
  8
0
 10
626.500000
 20
1214.790687
 42
0.004581
  0
VERTEX
  8
0
 10
653.610461
 20
1229.044102
 42
0.017866
  0
VERTEX
  8
0
 10
669.960976
 20
1238.600590
 42
0.026704
  0
VERTEX
  8
0
 10
681.979927
 20
1247.145700
 42
0.024028
  0
VERTEX
  8
0
 10
693.470079
 20
1257.213058
 42
-0.001290
  0
VERTEX
  8
0
 10
696.952691
 20
1260.556161
 42
-0.002092
  0
VERTEX
  8
0
 10
699.931844
 20
1263.377507
 42
-0.000295
  0
VERTEX
  8
0
 10
702.588303
 20
1265.869303
 42
-0.157517
  0
VERTEX
  8
0
 10
702.787261
 20
1265.963058
 42
-0.633771
  0
VERTEX
  8
0
 10
702.838891
 20
1265.882318
 42
-0.001269
  0
VERTEX
  8
0
 10
701.790886
 20
1264.223169
 42
-0.004862
  0
VERTEX
  8
0
 10
700.537260
 20
1262.291362
 42
-0.002800
  0
SEQEND
  0
POLYLINE
  8
0
 66
1
 70
1
  0
VERTEX
  8
0
 10
830.251078
 20
1262.348289
 42
-0.111344
  0
VERTEX
  8
0
 10
830.625437
 20
1260.554558
 42
-0.146770
  0
VERTEX
  8
0
 10
830.122443
 20
1258.970602
 42
-0.050589
  0
VERTEX
  8
0
 10
828.337548
 20
1256.851657
 42
-0.004115
  0
VERTEX
  8
0
 10
823.075414
 20
1251.835847
 42
-0.004356
  0
VERTEX
  8
0
 10
819.833556
 20
1248.848917
 42
-0.007238
  0
VERTEX
  8
0
 10
817.043296
 20
1246.395220
 42
-0.002095
  0
VERTEX
  8
0
 10
814.616130
 20
1244.339876
 42
-0.388970
  0
VERTEX
  8
0
 10
814.313632
 20
1244.353035
 42
-0.335343
  0
VERTEX
  8
0
 10
814.227878
 20
1244.969217
 42
-0.000798
  0
VERTEX
  8
0
 10
818.912943
 20
1253.336517
 42
-0.003580
  0
VERTEX
  8
0
 10
823.246201
 20
1260.918990
 42
-0.040701
  0
VERTEX
  8
0
 10
825.215190
 20
1263.750000
 42
-0.110160
  0
VERTEX
  8
0
 10
826.506208
 20
1264.756730
 42
-0.180507
  0
VERTEX
  8
0
 10
827.871302
 20
1264.873999
 42
-0.149225
  0
VERTEX
  8
0
 10
829.169781
 20
1264.045854
 42
-0.069931
  0
SEQEND
  0
POLYLINE
  8
0
 66
1
 70
1
  0
VERTEX
  8
0
 10
1190.892723
 20
1218.750000
 42
-0.017956
  0
VERTEX
  8
0
 10
1189.552725
 20
1216.319504
 42
-0.002954
  0
VERTEX
  8
0
 10
1186.769524
 20
1211.735640
 42
-0.003245
  0
VERTEX
  8
0
 10
1183.426823
 20
1206.381086
 42
-0.002861
  0
VERTEX
  8
0
 10
1179.872536
 20
1200.839412
 42
0.011723
  0
VERTEX
  8
0
 10
1172.782156
 20
1189.340963
 42
0.017089
  0
VERTEX
  8
0
 10
1167.127437
 20
1178.864489
 42
0.019062
  0
VERTEX
  8
0
 10
1162.706561
 20
1169.034914
 42
0.023096
  0
VERTEX
  8
0
 10
1159.351460
 20
1159.500000
 42
0.015678
  0
VERTEX
  8
0
 10
1157.837449
 20
1153.827117
 42
0.031264
  0
VERTEX
  8
0
 10
1157.065635
 20
1149.247023
 42
0.021641
  0
VERTEX
  8
0
 10
1156.722336
 20
1143.641260
 42
0.004201
  0
VERTEX
  8
0
 10
1156.626128
 20
1133.500000
 42
0.005835
  0
VERTEX
  8
0
 10
1156.729034
 20
1123.779200
 42
0.016694
  0
VERTEX
  8
0
 10
1157.104844
 20
1117.031910
 42
0.018395
  0
VERTEX
  8
0
 10
1157.906548
 20
1110.693229
 42
0.008452
  0
VERTEX
  8
0
 10
1159.393217
 20
1102.500000
 42
-0.001776
  0
VERTEX
  8
0
 10
1162.505624
 20
1086.561462
 42
-0.008800
  0
VERTEX
  8
0
 10
1164.066819
 20
1077.558291
 42
-0.013722
  0
VERTEX
  8
0
 10
1164.967247
 20
1070.487105
 42
-0.009678
  0
VERTEX
  8
0
 10
1165.606432
 20
1062.500000
 42
-0.049729
  0
VERTEX
  8
0
 10
1164.642915
 20
1037.728093
 42
-0.040410
  0
VERTEX
  8
0
 10
1158.867228
 20
1011.781707
 42
-0.041443
  0
VERTEX
  8
0
 10
1149.278043
 20
987.956630
 42
-0.064267
  0
VERTEX
  8
0
 10
1136.892061
 20
969.610652
 42
0.000000
  0
VERTEX
  8
0
 10
1132.584708
 20
964.721303
 42
0.000000
  0
VERTEX
  8
0
 10
1131.803583
 20
967.610652
 42
-0.036414
  0
VERTEX
  8
0
 10
1127.595077
 20
989.348176
 42
-0.008333
  0
VERTEX
  8
0
 10
1123.789356
 20
1026.610653
 42
-0.007956
  0
VERTEX
  8
0
 10
1121.207760
 20
1063.855798
 42
-0.042697
  0
VERTEX
  8
0
 10
1121.858953
 20
1084.165781
 42
-0.027509
  0
VERTEX
  8
0
 10
1124.229084
 20
1097.777245
 42
-0.024456
  0
VERTEX
  8
0
 10
1128.149402
 20
1111.602692
 42
-0.023921
  0
VERTEX
  8
0
 10
1133.507229
 20
1125.292868
 42
-0.023461
  0
VERTEX
  8
0
 10
1140.179235
 20
1138.500000
 42
-0.009727
  0
VERTEX
  8
0
 10
1147.175758
 20
1150.328258
 42
-0.000623
  0
VERTEX
  8
0
 10
1168.322876
 20
1184.447354
 42
-0.000035
  0
VERTEX
  8
0
 10
1192.071716
 20
1222.651649
 42
-0.259222
  0
VERTEX
  8
0
 10
1192.698485
 20
1223.000000
 42
-0.531084
  0
VERTEX
  8
0
 10
1192.777078
 20
1222.883725
 42
-0.004938
  0
VERTEX
  8
0
 10
1192.309184
 20
1221.751563
 42
-0.010526
  0
VERTEX
  8
0
 10
1191.692097
 20
1220.380145
 42
-0.006020
  0
SEQEND
  0
POLYLINE
  8
0
 66
1
 70
1
  0
VERTEX
  8
0
 10
1176.478721
 20
1116.509479
 42
-0.004758
  0
VERTEX
  8
0
 10
1180.215745
 20
1098.706574
 42
-0.017450
  0
VERTEX
  8
0
 10
1182.079052
 20
1087.340782
 42
-0.024784
  0
VERTEX
  8
0
 10
1182.802552
 20
1078.088673
 42
-0.019788
  0
VERTEX
  8
0
 10
1182.691586
 20
1068.083073
 42
-0.024036
  0
VERTEX
  8
0
 10
1181.656008
 20
1057.627455
 42
-0.026404
  0
VERTEX
  8
0
 10
1179.637339
 20
1047.647607
 42
-0.026307
  0
VERTEX
  8
0
 10
1176.569848
 20
1037.903371
 42
-0.023509
  0
VERTEX
  8
0
 10
1172.394543
 20
1028.152877
 42
-0.004705
  0
VERTEX
  8
0
 10
1170.627886
 20
1024.596146
 42
-0.008046
  0
VERTEX
  8
0
 10
1169.078099
 20
1021.666039
 42
-0.002739
  0
VERTEX
  8
0
 10
1167.721635
 20
1019.230062
 42
-0.496269
  0
VERTEX
  8
0
 10
1167.470896
 20
1019.195770
 42
-0.260469
  0
VERTEX
  8
0
 10
1167.373410
 20
1019.540250
 42
-0.003638
  0
VERTEX
  8
0
 10
1167.908783
 20
1021.717528
 42
-0.009064
  0
VERTEX
  8
0
 10
1168.606539
 20
1024.273340
 42
-0.005712
  0
VERTEX
  8
0
 10
1169.509258
 20
1027.232794
 42
0.029149
  0
VERTEX
  8
0
 10
1174.178515
 20
1045.579907
 42
0.036030
  0
VERTEX
  8
0
 10
1176.270205
 20
1063.089714
 42
0.033515
  0
VERTEX
  8
0
 10
1175.895139
 20
1081.711442
 42
0.020535
  0
VERTEX
  8
0
 10
1173.086253
 20
1103.500000
 42
-0.006031
  0
VERTEX
  8
0
 10
1171.517620
 20
1113.395499
 42
-0.010179
  0
VERTEX
  8
0
 10
1170.472082
 20
1121.730181
 42
-0.011057
  0
VERTEX
  8
0
 10
1169.823503
 20
1129.590996
 42
-0.009104
  0
VERTEX
  8
0
 10
1169.470107
 20
1138.000000
 42
0.000000
  0
VERTEX
  8
0
 10
1169.101230
 20
1153.500000
 42
0.000000
  0
VERTEX
  8
0
 10
1170.590271
 20
1145.009479
 42
0.005990
  0
VERTEX
  8
0
 10
1171.444740
 20
1140.458414
 42
0.001544
  0
VERTEX
  8
0
 10
1172.934232
 20
1133.135264
 42
0.001571
  0
VERTEX
  8
0
 10
1174.685220
 20
1124.792880
 42
0.001598
  0
SEQEND
  0
POLYLINE
  8
0
 66
1
 70
1
  0
VERTEX
  8
0
 10
511.662281
 20
1044.750000
 42
-0.174857
  0
VERTEX
  8
0
 10
511.474999
 20
1044.540618
 42
-0.447206
  0
VERTEX
  8
0
 10
511.306058
 20
1044.601562
 42
-0.078554
  0
VERTEX
  8
0
 10
511.189089
 20
1045.108560
 42
-0.017491
  0
VERTEX
  8
0
 10
511.157895
 20
1046.000000
 42
-0.017491
  0
VERTEX
  8
0
 10
511.189089
 20
1046.891440
 42
-0.078554
  0
VERTEX
  8
0
 10
511.306058
 20
1047.398438
 42
-0.447206
  0
VERTEX
  8
0
 10
511.474999
 20
1047.459382
 42
-0.174857
  0
VERTEX
  8
0
 10
511.662281
 20
1047.250000
 42
-0.057986
  0
VERTEX
  8
0
 10
511.818615
 20
1046.679992
 42
-0.037979
  0
VERTEX
  8
0
 10
511.870340
 20
1046.000000
 42
-0.037979
  0
VERTEX
  8
0
 10
511.818615
 20
1045.320008
 42
-0.057986
  0
SEQEND
  0
POLYLINE
  8
0
 66
1
 70
1
  0
VERTEX
  8
0
 10
1171.154777
 20
984.366474
 42
0.011846
  0
VERTEX
  8
0
 10
1165.950663
 20
965.841385
 42
0.010232
  0
VERTEX
  8
0
 10
1161.349930
 20
946.166471
 42
0.009825
  0
VERTEX
  8
0
 10
1157.950193
 20
928.450346
 42
0.039694
  0
VERTEX
  8
0
 10
1156.955384
 20
917.500000
 42
0.000000
  0
VERTEX
  8
0
 10
1156.910376
 20
913.500000
 42
0.000000
  0
VERTEX
  8
0
 10
1152.443905
 20
918.485440
 42
-0.026413
  0
VERTEX
  8
0
 10
1150.449933
 20
920.962670
 42
-0.012367
  0
VERTEX
  8
0
 10
1148.124286
 20
924.360684
 42
-0.012215
  0
VERTEX
  8
0
 10
1145.855769
 20
928.052203
 42
-0.016758
  0
VERTEX
  8
0
 10
1144.010885
 20
931.485440
 42
-0.015685
  0
VERTEX
  8
0
 10
1140.662339
 20
938.821465
 42
-0.014759
  0
VERTEX
  8
0
 10
1137.706995
 20
946.501931
 42
-0.006944
  0
VERTEX
  8
0
 10
1135.328388
 20
953.586511
 42
-0.304924
  0
VERTEX
  8
0
 10
1135.743694
 20
955.020490
 42
-0.018094
  0
VERTEX
  8
0
 10
1136.282416
 20
955.439260
 42
-0.000817
  0
VERTEX
  8
0
 10
1138.187210
 20
956.807619
 42
-0.001368
  0
VERTEX
  8
0
 10
1140.454902
 20
958.421699
 42
-0.000979
  0
VERTEX
  8
0
 10
1143.000000
 20
960.215295
 42
0.017420
  0
VERTEX
  8
0
 10
1145.963567
 20
962.453141
 42
0.008882
  0
VERTEX
  8
0
 10
1149.534172
 20
965.456768
 42
0.008813
  0
VERTEX
  8
0
 10
1153.109631
 20
968.687275
 42
0.013062
  0
VERTEX
  8
0
 10
1156.116329
 20
971.652810
 42
0.023537
  0
VERTEX
  8
0
 10
1161.149052
 20
977.401332
 42
0.013330
  0
VERTEX
  8
0
 10
1166.717131
 20
984.796477
 42
0.011478
  0
VERTEX
  8
0
 10
1171.590200
 20
991.984552
 42
0.066467
  0
VERTEX
  8
0
 10
1173.539409
 20
996.124168
 42
-0.025775
  0
VERTEX
  8
0
 10
1173.818878
 20
996.869192
 42
-0.050627
  0
VERTEX
  8
0
 10
1174.128469
 20
997.420623
 42
-0.085178
  0
VERTEX
  8
0
 10
1174.416936
 20
997.710657
 42
-0.366037
  0
VERTEX
  8
0
 10
1174.641498
 20
997.691835
 42
-0.264384
  0
VERTEX
  8
0
 10
1174.756395
 20
997.274182
 42
-0.001861
  0
VERTEX
  8
0
 10
1173.806564
 20
993.588220
 42
-0.006421
  0
VERTEX
  8
0
 10
1172.634307
 20
989.332090
 42
-0.003987
  0
SEQEND
  0
POLYLINE
  8
0
 66
1
 70
1
  0
VERTEX
  8
0
 10
1194.887250
 20
944.500000
 42
0.026677
  0
VERTEX
  8
0
 10
1194.503200
 20
941.421932
 42
0.003276
  0
VERTEX
  8
0
 10
1194.067808
 20
934.653125
 42
0.003869
  0
VERTEX
  8
0
 10
1193.665193
 20
926.598491
 42
0.003187
  0
VERTEX
  8
0
 10
1193.356969
 20
918.000000
 42
0.000000
  0
VERTEX
  8
0
 10
1192.723468
 20
896.500000
 42
0.000000
  0
VERTEX
  8
0
 10
1181.861734
 20
897.942341
 42
-0.005642
  0
VERTEX
  8
0
 10
1176.258916
 20
898.750780
 42
-0.029161
  0
VERTEX
  8
0
 10
1173.199613
 20
899.412105
 42
-0.057762
  0
VERTEX
  8
0
 10
1171.510640
 20
900.099650
 42
-0.273748
  0
VERTEX
  8
0
 10
1171.000000
 20
900.962440
 42
-0.068256
  0
VERTEX
  8
0
 10
1171.538412
 20
904.888116
 42
-0.011812
  0
VERTEX
  8
0
 10
1173.732065
 20
912.075593
 42
-0.013549
  0
VERTEX
  8
0
 10
1176.533678
 20
919.824052
 42
-0.019082
  0
VERTEX
  8
0
 10
1179.476814
 20
926.555059
 42
-0.026653
  0
VERTEX
  8
0
 10
1183.086962
 20
933.106405
 42
-0.011567
  0
VERTEX
  8
0
 10
1188.540634
 20
941.429070
 42
-0.003924
  0
VERTEX
  8
0
 10
1194.362581
 20
949.740275
 42
-0.476434
  0
VERTEX
  8
0
 10
1195.497221
 20
949.811460
 42
-0.213323
  0
VERTEX
  8
0
 10
1195.586787
 20
949.544649
 42
-0.004466
  0
VERTEX
  8
0
 10
1195.436351
 20
948.122741
 42
-0.009578
  0
VERTEX
  8
0
 10
1195.210215
 20
946.438856
 42
-0.006205
  0
SEQEND
  0
POLYLINE
  8
0
 66
1
 70
1
  0
VERTEX
  8
0
 10
1321.808210
 20
1767.523180
 42
0.000000
  0
VERTEX
  8
0
 10
1326.500000
 20
1763.046360
 42
0.000000
  0
VERTEX
  8
0
 10
1322.750000
 20
1763.023180
 42
0.023063
  0
VERTEX
  8
0
 10
1321.312848
 20
1762.947949
 42
0.036804
  0
VERTEX
  8
0
 10
1320.101562
 20
1762.737538
 42
0.042252
  0
VERTEX
  8
0
 10
1319.232678
 20
1762.439904
 42
0.297412
  0
VERTEX
  8
0
 10
1319.000000
 20
1762.083333
 42
0.319477
  0
VERTEX
  8
0
 10
1319.254049
 20
1761.726313
 42
0.032812
  0
VERTEX
  8
0
 10
1320.310318
 20
1761.435937
 42
0.031329
  0
VERTEX
  8
0
 10
1321.750871
 20
1761.232871
 42
0.019353
  0
VERTEX
  8
0
 10
1323.460655
 20
1761.166667
 42
-0.028332
  0
VERTEX
  8
0
 10
1327.906236
 20
1760.914562
 42
-0.209920
  0
VERTEX
  8
0
 10
1329.696781
 20
1759.872350
 42
-0.486187
  0
VERTEX
  8
0
 10
1329.355426
 20
1758.663590
 42
-0.048311
  0
VERTEX
  8
0
 10
1326.020809
 20
1757.654162
 42
0.033967
  0
VERTEX
  8
0
 10
1324.864198
 20
1757.339902
 42
0.047140
  0
VERTEX
  8
0
 10
1323.887363
 20
1756.894951
 42
0.056525
  0
VERTEX
  8
0
 10
1323.208279
 20
1756.395061
 42
0.208783
  0
VERTEX
  8
0
 10
1323.000000
 20
1755.918011
 42
0.160521
  0
VERTEX
  8
0
 10
1323.132927
 20
1755.514631
 42
0.179745
  0
VERTEX
  8
0
 10
1323.474034
 20
1755.291904
 42
0.110982
  0
VERTEX
  8
0
 10
1324.026593
 20
1755.290966
 42
0.044667
  0
VERTEX
  8
0
 10
1324.750000
 20
1755.521607
 42
-0.050319
  0
VERTEX
  8
0
 10
1328.787972
 20
1756.759022
 42
-0.157987
  0
VERTEX
  8
0
 10
1331.570255
 20
1756.433192
 42
-0.405345
  0
VERTEX
  8
0
 10
1332.146086
 20
1754.951308
 42
-0.126847
  0
VERTEX
  8
0
 10
1330.550965
 20
1752.861429
 42
0.072961
  0
VERTEX
  8
0
 10
1328.783165
 20
1750.996310
 42
0.038580
  0
VERTEX
  8
0
 10
1327.152191
 20
1748.249531
 42
0.034357
  0
VERTEX
  8
0
 10
1326.046597
 20
1745.560053
 42
0.283967
  0
VERTEX
  8
0
 10
1326.337420
 20
1744.329247
 42
0.330438
  0
VERTEX
  8
0
 10
1326.640402
 20
1744.284350
 42
0.092934
  0
VERTEX
  8
0
 10
1327.036650
 20
1744.602496
 42
0.055984
  0
VERTEX
  8
0
 10
1327.468933
 20
1745.238306
 42
0.029241
  0
VERTEX
  8
0
 10
1327.865923
 20
1746.111312
 42
-0.043323
  0
VERTEX
  8
0
 10
1328.393429
 20
1747.189767
 42
-0.021127
  0
VERTEX
  8
0
 10
1329.238452
 20
1748.469045
 42
-0.020779
  0
VERTEX
  8
0
 10
1330.235891
 20
1749.734384
 42
-0.028187
  0
VERTEX
  8
0
 10
1331.243810
 20
1750.783311
 42
-0.018894
  0
VERTEX
  8
0
 10
1332.596837
 20
1751.949080
 42
-0.105837
  0
VERTEX
  8
0
 10
1333.447537
 20
1752.373228
 42
-0.192794
  0
VERTEX
  8
0
 10
1334.134357
 20
1752.283933
 42
-0.092228
  0
VERTEX
  8
0
 10
1334.829727
 20
1751.705166
 42
-0.117716
  0
VERTEX
  8
0
 10
1335.257862
 20
1750.837478
 42
-0.096465
  0
VERTEX
  8
0
 10
1335.290703
 20
1749.801238
 42
-0.059779
  0
VERTEX
  8
0
 10
1334.896423
 20
1748.430446
 42
-0.018000
  0
VERTEX
  8
0
 10
1333.979818
 20
1746.460413
 42
0.036949
  0
VERTEX
  8
0
 10
1333.089284
 20
1744.340027
 42
0.034675
  0
VERTEX
  8
0
 10
1332.498001
 20
1742.066439
 42
0.031090
  0
VERTEX
  8
0
 10
1332.182297
 20
1739.511594
 42
0.020247
  0
VERTEX
  8
0
 10
1332.121942
 20
1736.538558
 42
0.000000
  0
VERTEX
  8
0
 10
1332.243884
 20
1730.500000
 42
0.000000
  0
VERTEX
  8
0
 10
1333.111156
 20
1736.500000
 42
-0.017463
  0
VERTEX
  8
0
 10
1333.912921
 20
1740.944562
 42
-0.028159
  0
VERTEX
  8
0
 10
1334.937445
 20
1744.650794
 42
-0.027512
  0
VERTEX
  8
0
 10
1336.032342
 20
1747.384039
 42
-0.291558
  0
VERTEX
  8
0
 10
1336.998876
 20
1748.000000
 42
-0.207700
  0
VERTEX
  8
0
 10
1338.322979
 20
1747.425170
 42
-0.125009
  0
VERTEX
  8
0
 10
1339.161993
 20
1745.899957
 42
-0.073327
  0
VERTEX
  8
0
 10
1339.434565
 20
1743.381220
 42
-0.029474
  0
VERTEX
  8
0
 10
1339.096539
 20
1739.926160
 42
0.036387
  0
VERTEX
  8
0
 10
1338.741789
 20
1735.698392
 42
0.018160
  0
VERTEX
  8
0
 10
1338.877957
 20
1730.327184
 42
0.012108
  0
VERTEX
  8
0
 10
1339.319381
 20
1725.199621
 42
0.170449
  0
VERTEX
  8
0
 10
1340.107023
 20
1723.559643
 42
0.646577
  0
VERTEX
  8
0
 10
1340.294610
 20
1723.630794
 42
0.003625
  0
VERTEX
  8
0
 10
1340.427254
 20
1726.127110
 42
0.007979
  0
VERTEX
  8
0
 10
1340.519292
 20
1729.206503
 42
0.004447
  0
VERTEX
  8
0
 10
1340.538159
 20
1732.958965
 42
-0.006296
  0
VERTEX
  8
0
 10
1340.571578
 20
1736.789040
 42
-0.009487
  0
VERTEX
  8
0
 10
1340.706035
 20
1740.124347
 42
-0.004867
  0
VERTEX
  8
0
 10
1340.899205
 20
1742.919481
 42
-0.177969
  0
VERTEX
  8
0
 10
1341.163236
 20
1743.493694
 42
-0.231071
  0
VERTEX
  8
0
 10
1341.587665
 20
1743.640681
 42
-0.046482
  0
VERTEX
  8
0
 10
1342.391509
 20
1743.466255
 42
-0.040388
  0
VERTEX
  8
0
 10
1343.374104
 20
1743.065445
 42
-0.028008
  0
VERTEX
  8
0
 10
1344.413236
 20
1742.464893
 42
-0.051938
  0
VERTEX
  8
0
 10
1345.763301
 20
1741.364586
 42
-0.100841
  0
VERTEX
  8
0
 10
1346.525087
 20
1740.207386
 42
-0.075612
  0
VERTEX
  8
0
 10
1346.896326
 20
1738.623651
 42
-0.019831
  0
VERTEX
  8
0
 10
1347.000000
 20
1736.010717
 42
0.041541
  0
VERTEX
  8
0
 10
1347.338381
 20
1731.944850
 42
0.032643
  0
VERTEX
  8
0
 10
1348.352600
 20
1727.639028
 42
0.031654
  0
VERTEX
  8
0
 10
1349.964434
 20
1723.355241
 42
0.032614
  0
VERTEX
  8
0
 10
1352.090540
 20
1719.353503
 42
0.035589
  0
VERTEX
  8
0
 10
1354.149661
 20
1716.497827
 42
0.620263
  0
VERTEX
  8
0
 10
1355.007234
 20
1716.703554
 42
0.154708
  0
VERTEX
  8
0
 10
1354.832743
 20
1718.826654
 42
0.020296
  0
VERTEX
  8
0
 10
1352.923682
 20
1722.993980
 42
-0.038340
  0
VERTEX
  8
0
 10
1351.022915
 20
1727.572267
 42
-0.025445
  0
VERTEX
  8
0
 10
1349.527085
 20
1733.062565
 42
-0.018005
  0
VERTEX
  8
0
 10
1348.620562
 20
1738.069672
 42
-0.456776
  0
VERTEX
  8
0
 10
1349.426451
 20
1739.000000
 42
-0.114740
  0
VERTEX
  8
0
 10
1351.169916
 20
1738.594573
 42
-0.099861
  0
VERTEX
  8
0
 10
1352.658326
 20
1737.448866
 42
-0.093005
  0
VERTEX
  8
0
 10
1353.663147
 20
1735.734837
 42
-0.084684
  0
VERTEX
  8
0
 10
1354.021962
 20
1733.714816
 42
0.043040
  0
VERTEX
  8
0
 10
1354.164521
 20
1732.183983
 42
0.019089
  0
VERTEX
  8
0
 10
1354.601781
 20
1730.201227
 42
0.018729
  0
VERTEX
  8
0
 10
1355.227777
 20
1728.123840
 42
0.024002
  0
VERTEX
  8
0
 10
1355.964973
 20
1726.268085
 42
0.053580
  0
VERTEX
  8
0
 10
1358.323739
 20
1722.271565
 42
0.021496
  0
VERTEX
  8
0
 10
1362.336313
 20
1717.342222
 42
0.015080
  0
VERTEX
  8
0
 10
1366.570947
 20
1712.854351
 42
0.198618
  0
VERTEX
  8
0
 10
1368.636842
 20
1712.000000
 42
0.181390
  0
VERTEX
  8
0
 10
1369.538390
 20
1712.338192
 42
0.356294
  0
VERTEX
  8
0
 10
1369.658851
 20
1713.046321
 42
0.061806
  0
VERTEX
  8
0
 10
1368.557302
 20
1714.527365
 42
0.005611
  0
VERTEX
  8
0
 10
1365.331299
 20
1717.826596
 42
-0.041569
  0
VERTEX
  8
0
 10
1361.851990
 20
1721.938072
 42
-0.031303
  0
VERTEX
  8
0
 10
1358.722022
 20
1726.967992
 42
-0.029853
  0
VERTEX
  8
0
 10
1356.485830
 20
1731.788333
 42
-0.137837
  0
VERTEX
  8
0
 10
1356.179613
 20
1734.818249
 42
-0.296452
  0
VERTEX
  8
0
 10
1357.328887
 20
1736.052846
 42
-0.145822
  0
VERTEX
  8
0
 10
1359.564861
 20
1735.952552
 42
-0.097821
  0
VERTEX
  8
0
 10
1362.098499
 20
1734.469922
 42
-0.108449
  0
VERTEX
  8
0
 10
1363.768021
 20
1732.181430
 42
0.083546
  0
VERTEX
  8
0
 10
1366.937418
 20
1727.353608
 42
0.051744
  0
VERTEX
  8
0
 10
1372.051143
 20
1722.870574
 42
0.050647
  0
VERTEX
  8
0
 10
1378.143332
 20
1719.421384
 42
0.067501
  0
VERTEX
  8
0
 10
1384.250000
 20
1717.670907
 42
0.017287
  0
VERTEX
  8
0
 10
1386.105337
 20
1717.466375
 42
0.077340
  0
VERTEX
  8
0
 10
1387.192494
 20
1717.552599
 42
0.166636
  0
VERTEX
  8
0
 10
1387.773776
 20
1717.920081
 42
0.170835
  0
VERTEX
  8
0
 10
1388.000000
 20
1718.562871
 42
0.160729
  0
VERTEX
  8
0
 10
1387.801763
 20
1719.163619
 42
0.116046
  0
VERTEX
  8
0
 10
1387.259320
 20
1719.622626
 42
0.079720
  0
VERTEX
  8
0
 10
1386.373434
 20
1719.908465
 42
0.038271
  0
VERTEX
  8
0
 10
1385.179315
 20
1720.000000
 42
-0.093965
  0
VERTEX
  8
0
 10
1381.214669
 20
1720.751716
 42
-0.038856
  0
VERTEX
  8
0
 10
1376.284261
 20
1723.148187
 42
-0.038445
  0
VERTEX
  8
0
 10
1371.551964
 20
1726.434290
 42
-0.060143
  0
VERTEX
  8
0
 10
1368.116165
 20
1730.000000
 42
0.000000
  0
VERTEX
  8
0
 10
1364.718592
 20
1734.500000
 42
0.000000
  0
VERTEX
  8
0
 10
1367.361364
 20
1734.816622
 42
-0.068187
  0
VERTEX
  8
0
 10
1368.606557
 20
1734.795545
 42
-0.038358
  0
VERTEX
  8
0
 10
1370.081500
 20
1734.450558
 42
-0.036681
  0
VERTEX
  8
0
 10
1371.583317
 20
1733.851102
 42
-0.041441
  0
VERTEX
  8
0
 10
1372.917910
 20
1733.058453
 42
0.032111
  0
VERTEX
  8
0
 10
1374.275866
 20
1732.217311
 42
0.020274
  0
VERTEX
  8
0
 10
1375.955172
 20
1731.406463
 42
0.020344
  0
VERTEX
  8
0
 10
1377.677906
 20
1730.741037
 42
0.034912
  0
VERTEX
  8
0
 10
1379.165842
 20
1730.348191
 42
0.035207
  0
VERTEX
  8
0
 10
1381.348828
 20
1730.089506
 42
0.612798
  0
VERTEX
  8
0
 10
1381.624347
 20
1730.572041
 42
0.151087
  0
VERTEX
  8
0
 10
1380.597886
 20
1731.419469
 42
0.017649
  0
VERTEX
  8
0
 10
1377.776623
 20
1732.465152
 42
-0.039531
  0
VERTEX
  8
0
 10
1375.304859
 20
1733.506332
 42
-0.208544
  0
VERTEX
  8
0
 10
1374.398696
 20
1734.622541
 42
-0.349147
  0
VERTEX
  8
0
 10
1374.819625
 20
1735.615042
 42
-0.074138
  0
VERTEX
  8
0
 10
1376.710938
 20
1736.305094
 42
0.034685
  0
VERTEX
  8
0
 10
1377.924787
 20
1736.642585
 42
0.022829
  0
VERTEX
  8
0
 10
1379.268213
 20
1737.188814
 42
0.022987
  0
VERTEX
  8
0
 10
1380.532793
 20
1737.843627
 42
0.040506
  0
VERTEX
  8
0
 10
1381.500000
 20
1738.512064
 42
0.009701
  0
VERTEX
  8
0
 10
1382.202929
 20
1739.110284
 42
0.056819
  0
VERTEX
  8
0
 10
1382.526933
 20
1739.470312
 42
0.645669
  0
VERTEX
  8
0
 10
1382.473893
 20
1739.561381
 42
0.092727
  0
VERTEX
  8
0
 10
1382.187431
 20
1739.476470
 42
-0.117578
  0
VERTEX
  8
0
 10
1379.018452
 20
1738.704307
 42
-0.018285
  0
VERTEX
  8
0
 10
1372.524762
 20
1738.909844
 42
-0.021503
  0
VERTEX
  8
0
 10
1365.733193
 20
1739.668250
 42
-0.045063
  0
VERTEX
  8
0
 10
1360.580725
 20
1740.952511
 42
-0.033106
  0
VERTEX
  8
0
 10
1354.364228
 20
1743.584677
 42
-0.039313
  0
VERTEX
  8
0
 10
1348.915521
 20
1746.890198
 42
-0.034478
  0
VERTEX
  8
0
 10
1343.518935
 20
1751.369824
 42
-0.017978
  0
VERTEX
  8
0
 10
1337.410627
 20
1757.630283
 42
0.022298
  0
VERTEX
  8
0
 10
1332.080400
 20
1762.999713
 42
0.024968
  0
VERTEX
  8
0
 10
1326.482777
 20
1767.662597
 42
0.024033
  0
VERTEX
  8
0
 10
1321.417126
 20
1771.102718
 42
0.135988
  0
VERTEX
  8
0
 10
1318.308210
 20
1771.990616
 42
0.582256
  0
VERTEX
  8
0
 10
1318.145692
 20
1771.709471
 42
0.033551
  0
VERTEX
  8
0
 10
1318.844721
 20
1770.682178
 42
0.024239
  0
VERTEX
  8
0
 10
1320.090504
 20
1769.241664
 42
0.011835
  0
SEQEND
  0
POLYLINE
  8
0
 66
1
 70
1
  0
VERTEX
  8
0
 10
1342.570027
 20
1770.113307
 42
0.419699
  0
VERTEX
  8
0
 10
1343.048542
 20
1768.167780
 42
0.050571
  0
VERTEX
  8
0
 10
1347.495403
 20
1766.107722
 42
0.042637
  0
VERTEX
  8
0
 10
1353.736118
 20
1764.530489
 42
0.040604
  0
VERTEX
  8
0
 10
1360.257802
 20
1764.000000
 42
-0.042943
  0
VERTEX
  8
0
 10
1365.555631
 20
1763.544149
 42
-0.072424
  0
VERTEX
  8
0
 10
1369.785944
 20
1762.159789
 42
-0.074299
  0
VERTEX
  8
0
 10
1373.372870
 20
1759.657171
 42
-0.047611
  0
VERTEX
  8
0
 10
1376.720529
 20
1755.825924
 42
0.011546
  0
VERTEX
  8
0
 10
1378.114710
 20
1753.976966
 42
0.016767
  0
VERTEX
  8
0
 10
1379.435350
 20
1752.417615
 42
0.012365
  0
VERTEX
  8
0
 10
1380.584513
 20
1751.210869
 42
0.198837
  0
VERTEX
  8
0
 10
1381.093805
 20
1751.000000
 42
0.541123
  0
VERTEX
  8
0
 10
1382.018195
 20
1752.414646
 42
0.050940
  0
VERTEX
  8
0
 10
1379.548046
 20
1756.779274
 42
0.040043
  0
VERTEX
  8
0
 10
1375.510820
 20
1761.603304
 42
0.087938
  0
VERTEX
  8
0
 10
1371.603567
 20
1764.383830
 42
0.049833
  0
VERTEX
  8
0
 10
1369.595108
 20
1765.102174
 42
0.013420
  0
VERTEX
  8
0
 10
1366.285816
 20
1765.831987
 42
0.013389
  0
VERTEX
  8
0
 10
1362.445423
 20
1766.465332
 42
0.013124
  0
VERTEX
  8
0
 10
1358.550958
 20
1766.897121
 42
-0.011262
  0
VERTEX
  8
0
 10
1354.428065
 20
1767.338702
 42
-0.018211
  0
VERTEX
  8
0
 10
1350.948755
 20
1767.920337
 42
-0.020533
  0
VERTEX
  8
0
 10
1348.217560
 20
1768.597731
 42
-0.074101
  0
VERTEX
  8
0
 10
1346.593874
 20
1769.346535
 42
0.009451
  0
VERTEX
  8
0
 10
1344.677509
 20
1770.551041
 42
0.088716
  0
VERTEX
  8
0
 10
1343.771905
 20
1770.897371
 42
0.212135
  0
VERTEX
  8
0
 10
1343.151388
 20
1770.752230
 42
0.092607
  0
SEQEND
  0
POLYLINE
  8
0
 66
1
 70
1
  0
VERTEX
  8
0
 10
1254.923077
 20
1709.076923
 42
0.120208
  0
VERTEX
  8
0
 10
1252.435127
 20
1704.983515
 42
0.152404
  0
VERTEX
  8
0
 10
1252.415828
 20
1700.581067
 42
0.169441
  0
VERTEX
  8
0
 10
1254.850510
 20
1697.268278
 42
0.151471
  0
VERTEX
  8
0
 10
1258.940983
 20
1696.000000
 42
0.055341
  0
VERTEX
  8
0
 10
1261.222406
 20
1696.253288
 42
0.188875
  0
VERTEX
  8
0
 10
1262.437638
 20
1697.074879
 42
0.288321
  0
VERTEX
  8
0
 10
1262.485391
 20
1698.223791
 42
0.104094
  0
VERTEX
  8
0
 10
1261.350138
 20
1699.499214
 42
-0.035557
  0
VERTEX
  8
0
 10
1260.505862
 20
1700.220678
 42
-0.130750
  0
VERTEX
  8
0
 10
1260.152233
 20
1700.820689
 42
-0.181689
  0
VERTEX
  8
0
 10
1260.202535
 20
1701.397986
 42
-0.083069
  0
VERTEX
  8
0
 10
1260.643780
 20
1702.026460
 42
-0.159138
  0
VERTEX
  8
0
 10
1262.227491
 20
1702.845496
 42
-0.153317
  0
VERTEX
  8
0
 10
1264.016348
 20
1702.588642
 42
-0.105849
  0
VERTEX
  8
0
 10
1265.845933
 20
1701.175160
 42
-0.052680
  0
VERTEX
  8
0
 10
1267.500000
 20
1698.740899
 42
0.013761
  0
VERTEX
  8
0
 10
1268.317834
 20
1697.309498
 42
0.020163
  0
VERTEX
  8
0
 10
1269.121021
 20
1696.101912
 42
0.016168
  0
VERTEX
  8
0
 10
1269.836683
 20
1695.178998
 42
0.222326
  0
VERTEX
  8
0
 10
1270.209858
 20
1695.002702
 42
0.267753
  0
VERTEX
  8
0
 10
1270.546612
 20
1695.195258
 42
0.020212
  0
VERTEX
  8
0
 10
1271.058677
 20
1696.160581
 42
0.023584
  0
VERTEX
  8
0
 10
1271.597890
 20
1697.435442
 42
0.015472
  0
VERTEX
  8
0
 10
1272.102630
 20
1698.948212
 42
0.105382
  0
VERTEX
  8
0
 10
1272.514164
 20
1704.011048
 42
0.139546
  0
VERTEX
  8
0
 10
1270.695851
 20
1708.238691
 42
0.132403
  0
VERTEX
  8
0
 10
1266.828455
 20
1711.023307
 42
0.090437
  0
VERTEX
  8
0
 10
1261.472737
 20
1712.000000
 42
0.043619
  0
VERTEX
  8
0
 10
1259.602442
 20
1711.836527
 42
0.061427
  0
VERTEX
  8
0
 10
1258.003315
 20
1711.346993
 42
0.057836
  0
VERTEX
  8
0
 10
1256.502273
 20
1710.456762
 42
0.033648
  0
SEQEND
  0
POLYLINE
  8
0
 66
1
 70
1
  0
VERTEX
  8
0
 10
1291.666667
 20
1683.333333
 42
0.214411
  0
VERTEX
  8
0
 10
1290.885039
 20
1681.275331
 42
0.036842
  0
VERTEX
  8
0
 10
1291.453188
 20
1677.032168
 42
0.035926
  0
VERTEX
  8
0
 10
1292.604631
 20
1673.006348
 42
0.314933
  0
VERTEX
  8
0
 10
1294.043884
 20
1672.000000
 42
0.300878
  0
VERTEX
  8
0
 10
1294.713247
 20
1672.442886
 42
0.033236
  0
VERTEX
  8
0
 10
1295.348523
 20
1674.265983
 42
0.034660
  0
VERTEX
  8
0
 10
1295.819621
 20
1676.595196
 42
0.031240
  0
VERTEX
  8
0
 10
1295.986345
 20
1679.050000
 42
0.083571
  0
VERTEX
  8
0
 10
1295.607940
 20
1681.374141
 42
0.115882
  0
VERTEX
  8
0
 10
1294.492830
 20
1683.157173
 42
0.174838
  0
VERTEX
  8
0
 10
1293.040358
 20
1683.832110
 42
0.222102
  0
SEQEND
  0
POLYLINE
  8
0
 66
1
 70
1
  0
VERTEX
  8
0
 10
1219.000000
 20
1653.394585
 42
-0.002341
  0
VERTEX
  8
0
 10
1207.361479
 20
1650.947020
 42
-0.006088
  0
VERTEX
  8
0
 10
1198.954668
 20
1649.326548
 42
-0.007558
  0
VERTEX
  8
0
 10
1192.843919
 20
1648.320757
 42
-0.034334
  0
VERTEX
  8
0
 10
1189.250000
 20
1648.034888
 42
0.016231
  0
VERTEX
  8
0
 10
1188.004147
 20
1647.981042
 42
0.026432
  0
VERTEX
  8
0
 10
1186.954688
 20
1647.845434
 42
0.024604
  0
VERTEX
  8
0
 10
1186.166890
 20
1647.660515
 42
0.334456
  0
VERTEX
  8
0
 10
1186.000000
 20
1647.438929
 42
0.121208
  0
VERTEX
  8
0
 10
1186.538345
 20
1645.250806
 42
0.000966
  0
VERTEX
  8
0
 10
1194.963433
 20
1629.240476
 42
0.003250
  0
VERTEX
  8
0
 10
1202.843138
 20
1614.568101
 42
0.022545
  0
VERTEX
  8
0
 10
1207.067330
 20
1607.591266
 42
0.030479
  0
VERTEX
  8
0
 10
1212.327952
 20
1600.677637
 42
0.027653
  0
VERTEX
  8
0
 10
1218.554133
 20
1594.213827
 42
0.028804
  0
VERTEX
  8
0
 10
1225.077472
 20
1588.816299
 42
0.047543
  0
VERTEX
  8
0
 10
1231.213210
 20
1585.149778
 42
0.036976
  0
VERTEX
  8
0
 10
1238.789523
 20
1582.213856
 42
0.034366
  0
VERTEX
  8
0
 10
1246.902650
 20
1580.339256
 42
0.027387
  0
VERTEX
  8
0
 10
1256.719614
 20
1579.318493
 42
0.012242
  0
VERTEX
  8
0
 10
1269.707842
 20
1579.001984
 42
0.000000
  0
VERTEX
  8
0
 10
1286.500000
 20
1579.003968
 42
0.000000
  0
VERTEX
  8
0
 10
1286.751597
 20
1601.548556
 42
0.002592
  0
VERTEX
  8
0
 10
1286.821877
 20
1613.309513
 42
0.011885
  0
VERTEX
  8
0
 10
1286.665065
 20
1620.132929
 42
0.018534
  0
VERTEX
  8
0
 10
1286.298338
 20
1624.498372
 42
0.089330
  0
VERTEX
  8
0
 10
1285.567026
 20
1626.870387
 42
0.080075
  0
VERTEX
  8
0
 10
1283.864746
 20
1629.170816
 42
0.034510
  0
VERTEX
  8
0
 10
1280.950586
 20
1631.650058
 42
0.027200
  0
VERTEX
  8
0
 10
1276.864177
 20
1634.336431
 42
0.013723
  0
VERTEX
  8
0
 10
1271.450183
 20
1637.292175
 42
-0.039620
  0
VERTEX
  8
0
 10
1269.095392
 20
1638.740712
 42
-0.014835
  0
VERTEX
  8
0
 10
1266.030758
 20
1641.120899
 42
-0.014566
  0
VERTEX
  8
0
 10
1262.824623
 20
1643.928052
 42
-0.016918
  0
VERTEX
  8
0
 10
1259.948851
 20
1646.784951
 42
0.009975
  0
VERTEX
  8
0
 10
1256.115660
 20
1650.700200
 42
0.043789
  0
VERTEX
  8
0
 10
1253.619785
 20
1652.753920
 42
0.062249
  0
VERTEX
  8
0
 10
1251.252904
 20
1653.976109
 42
0.035280
  0
VERTEX
  8
0
 10
1248.149630
 20
1654.874490
 42
0.035748
  0
VERTEX
  8
0
 10
1241.996914
 20
1655.740263
 42
0.029773
  0
VERTEX
  8
0
 10
1235.391323
 20
1655.798410
 42
0.025466
  0
VERTEX
  8
0
 10
1227.892297
 20
1655.033519
 42
0.014849
  0
SEQEND
  0
POLYLINE
  8
0
 66
1
 70
1
  0
VERTEX
  8
0
 10
1251.787675
 20
1632.026891
 42
-0.055855
  0
VERTEX
  8
0
 10
1256.298216
 20
1629.427704
 42
-0.044692
  0
VERTEX
  8
0
 10
1260.503507
 20
1625.711844
 42
-0.045800
  0
VERTEX
  8
0
 10
1263.860570
 20
1621.441671
 42
-0.071023
  0
VERTEX
  8
0
 10
1265.823983
 20
1617.193157
 42
-0.050169
  0
VERTEX
  8
0
 10
1266.772491
 20
1612.283533
 42
-0.025237
  0
VERTEX
  8
0
 10
1267.025938
 20
1605.970416
 42
-0.016696
  0
VERTEX
  8
0
 10
1266.766745
 20
1600.046862
 42
-0.391803
  0
VERTEX
  8
0
 10
1265.635870
 20
1599.000000
 42
-0.121213
  0
VERTEX
  8
0
 10
1262.463930
 20
1599.780427
 42
-0.004343
  0
VERTEX
  8
0
 10
1251.339680
 20
1605.730888
 42
-0.008373
  0
VERTEX
  8
0
 10
1239.070777
 20
1612.700550
 42
-0.008118
  0
VERTEX
  8
0
 10
1226.913360
 20
1620.147578
 42
0.000000
  0
VERTEX
  8
0
 10
1210.627479
 20
1630.490800
 42
0.000000
  0
VERTEX
  8
0
 10
1215.563739
 20
1631.242322
 42
0.010992
  0
VERTEX
  8
0
 10
1217.814928
 20
1631.635867
 42
0.006260
  0
VERTEX
  8
0
 10
1220.518723
 20
1632.205297
 42
0.006249
  0
VERTEX
  8
0
 10
1223.227730
 20
1632.846993
 42
0.010278
  0
VERTEX
  8
0
 10
1225.500000
 20
1633.465209
 42
-0.053129
  0
VERTEX
  8
0
 10
1231.566697
 20
1634.569397
 42
-0.032146
  0
VERTEX
  8
0
 10
1238.875392
 20
1634.639635
 42
-0.032243
  0
VERTEX
  8
0
 10
1246.073584
 20
1633.778087
 42
-0.056959
  0
SEQEND
  0
POLYLINE
  8
0
 66
1
 70
1
  0
VERTEX
  8
0
 10
1042.641848
 20
282.250000
 42
0.048636
  0
VERTEX
  8
0
 10
1042.108550
 20
274.256040
 42
0.039660
  0
VERTEX
  8
0
 10
1043.049272
 20
265.727577
 42
0.037129
  0
VERTEX
  8
0
 10
1045.430333
 20
256.896574
 42
0.031526
  0
VERTEX
  8
0
 10
1049.198216
 20
248.000000
 42
0.018326
  0
VERTEX
  8
0
 10
1051.704399
 20
243.415675
 42
0.025767
  0
VERTEX
  8
0
 10
1054.291380
 20
239.539080
 42
0.023521
  0
VERTEX
  8
0
 10
1057.442441
 20
235.697908
 42
0.012150
  0
VERTEX
  8
0
 10
1061.716437
 20
231.186242
 42
0.007962
  0
VERTEX
  8
0
 10
1064.948861
 20
228.037907
 42
0.012827
  0
VERTEX
  8
0
 10
1067.811577
 20
225.472687
 42
0.006555
  0
VERTEX
  8
0
 10
1070.255256
 20
223.448084
 42
0.318219
  0
VERTEX
  8
0
 10
1070.855156
 20
223.410481
 42
0.189827
  0
VERTEX
  8
0
 10
1072.243864
 20
225.267771
 42
0.027845
  0
VERTEX
  8
0
 10
1073.247969
 20
229.951923
 42
0.028352
  0
VERTEX
  8
0
 10
1073.833608
 20
235.860031
 42
0.021459
  0
VERTEX
  8
0
 10
1073.828406
 20
242.377792
 42
0.011494
  0
VERTEX
  8
0
 10
1073.449461
 20
248.051135
 42
0.040331
  0
VERTEX
  8
0
 10
1072.829345
 20
251.657185
 42
0.040573
  0
VERTEX
  8
0
 10
1071.640257
 20
255.105972
 42
0.011734
  0
VERTEX
  8
0
 10
1069.256479
 20
260.214565
 42
0.014516
  0
VERTEX
  8
0
 10
1067.365616
 20
263.767387
 42
0.011440
  0
VERTEX
  8
0
 10
1065.121267
 20
267.503108
 42
0.011605
  0
VERTEX
  8
0
 10
1062.874910
 20
270.879385
 42
0.027882
  0
VERTEX
  8
0
 10
1061.019306
 20
273.240727
 42
0.037526
  0
VERTEX
  8
0
 10
1057.418247
 20
276.760556
 42
0.013799
  0
VERTEX
  8
0
 10
1051.848133
 20
281.186006
 42
0.008285
  0
VERTEX
  8
0
 10
1046.122217
 20
285.336452
 42
0.153857
  0
VERTEX
  8
0
 10
1044.016890
 20
286.000000
 42
0.284526
  0
VERTEX
  8
0
 10
1043.688302
 20
285.796546
 42
0.027642
  0
VERTEX
  8
0
 10
1043.301449
 20
284.898438
 42
0.028512
  0
VERTEX
  8
0
 10
1042.934086
 20
283.687060
 42
0.018409
  0
SEQEND
  0
ENDSEC
  0
EOF
