%TF.GenerationSoftware,KiCad,Pcbnew,9.0.5*%
%TF.CreationDate,2025-10-20T13:37:51+02:00*%
%TF.ProjectId,PCB_PAPI,5043425f-5041-4504-992e-6b696361645f,rev?*%
%TF.SameCoordinates,Original*%
%TF.FileFunction,Copper,L2,Inr*%
%TF.FilePolarity,Positive*%
%FSLAX46Y46*%
G04 Gerber Fmt 4.6, Leading zero omitted, Abs format (unit mm)*
G04 Created by KiCad (PCBNEW 9.0.5) date 2025-10-20 13:37:51*
%MOMM*%
%LPD*%
G01*
G04 APERTURE LIST*
%TA.AperFunction,ComponentPad*%
%ADD10C,0.800000*%
%TD*%
%TA.AperFunction,ComponentPad*%
%ADD11C,5.000000*%
%TD*%
%TA.AperFunction,ComponentPad*%
%ADD12C,2.550000*%
%TD*%
%TA.AperFunction,ComponentPad*%
%ADD13C,1.500000*%
%TD*%
%TA.AperFunction,ViaPad*%
%ADD14C,0.400000*%
%TD*%
G04 APERTURE END LIST*
D10*
%TO.N,GND*%
%TO.C,H1*%
X137625000Y-101186533D03*
X138174175Y-99860708D03*
X138174175Y-102512358D03*
X139500000Y-99311533D03*
D11*
X139500000Y-101186533D03*
D10*
X139500000Y-103061533D03*
X140825825Y-99860708D03*
X140825825Y-102512358D03*
X141375000Y-101186533D03*
%TD*%
%TO.N,GND*%
%TO.C,H3*%
X137625000Y-64813467D03*
X138174175Y-63487642D03*
X138174175Y-66139292D03*
X139500000Y-62938467D03*
D11*
X139500000Y-64813467D03*
D10*
X139500000Y-66688467D03*
X140825825Y-63487642D03*
X140825825Y-66139292D03*
X141375000Y-64813467D03*
%TD*%
%TO.N,GND*%
%TO.C,H2*%
X106125000Y-83000000D03*
X106674175Y-81674175D03*
X106674175Y-84325825D03*
X108000000Y-81125000D03*
D11*
X108000000Y-83000000D03*
D10*
X108000000Y-84875000D03*
X109325825Y-81674175D03*
X109325825Y-84325825D03*
X109875000Y-83000000D03*
%TD*%
D12*
%TO.N,VBAT+*%
%TO.C,J3*%
X119173647Y-86476918D03*
%TO.N,GND*%
X121673647Y-90807046D03*
D13*
X114513393Y-98405122D03*
X109013393Y-88878842D03*
%TD*%
D14*
%TO.N,GND*%
X111800000Y-79200000D03*
X125625000Y-73600000D03*
X126114000Y-61750808D03*
X123400000Y-71200000D03*
X142120000Y-80900000D03*
X148850000Y-74850000D03*
X147490000Y-78810000D03*
X133050000Y-91860000D03*
X117690000Y-103205000D03*
X133410000Y-67005000D03*
X143075000Y-101143648D03*
X139102000Y-104270000D03*
X144970000Y-86150000D03*
X133593705Y-77407982D03*
X127000000Y-88720000D03*
X109500000Y-91764593D03*
X150560000Y-86290000D03*
X149218000Y-75506756D03*
X123630000Y-92770000D03*
X128690000Y-91740000D03*
X142353000Y-102394189D03*
X146070000Y-94150000D03*
X141992000Y-103019459D03*
X137666000Y-61750808D03*
X152150000Y-80600000D03*
X118164000Y-104270000D03*
X113500000Y-69750000D03*
X114750000Y-100850000D03*
X139832000Y-61750808D03*
X133893701Y-91193701D03*
X106983000Y-78632299D03*
X144886000Y-68003512D03*
X123948000Y-61750808D03*
X151800000Y-79950000D03*
X140120000Y-83900000D03*
X117450000Y-61750808D03*
X122504000Y-61750808D03*
X129724000Y-61750808D03*
X146390000Y-85000000D03*
X133410000Y-62375000D03*
X124590000Y-67005000D03*
X110944000Y-94265674D03*
X138420000Y-79110000D03*
X145730000Y-94680000D03*
X133410000Y-63075000D03*
X116965000Y-103205000D03*
X141637000Y-62376079D03*
X146750000Y-88200000D03*
X146950000Y-86150000D03*
X144519000Y-98642567D03*
X130360000Y-64990000D03*
X120590000Y-96680000D03*
X120540000Y-69470000D03*
X146450000Y-88950000D03*
X130650000Y-76850000D03*
X121052000Y-104270000D03*
X147550000Y-90450000D03*
X123890000Y-63075000D03*
X147407000Y-93640404D03*
X111666000Y-95516215D03*
X118415000Y-96680000D03*
X149450000Y-86100000D03*
X137900000Y-92375000D03*
X143436000Y-100518378D03*
X134810000Y-63775000D03*
X146300000Y-93290000D03*
X136222000Y-61750808D03*
X123226000Y-61750808D03*
X123190000Y-67705000D03*
X117640000Y-62945000D03*
X148560000Y-82480000D03*
X135300000Y-87600000D03*
X147750000Y-86150000D03*
X142550000Y-88500000D03*
X133700000Y-87600000D03*
X134110000Y-63075000D03*
X148250000Y-76200000D03*
X145963000Y-96141485D03*
X139740000Y-96420000D03*
X128850000Y-78060000D03*
X146650000Y-92500000D03*
X131110000Y-73150000D03*
X124670000Y-61750808D03*
X146550000Y-82642500D03*
X121782000Y-61750808D03*
X121265000Y-62945000D03*
X129900000Y-70950000D03*
X144970000Y-91490000D03*
X150301000Y-77382567D03*
X117640000Y-69470000D03*
X133334000Y-61750808D03*
X128280000Y-61750808D03*
X129525000Y-96800000D03*
X153450000Y-83000000D03*
X118750000Y-72600000D03*
X148900000Y-85350000D03*
X116915000Y-62945000D03*
X127530000Y-90690000D03*
X127570000Y-87950000D03*
X124662000Y-104270000D03*
X122850000Y-81800000D03*
X142120000Y-82900000D03*
X127600000Y-96800000D03*
X104817000Y-82383921D03*
X121990000Y-66570000D03*
X135492000Y-104270000D03*
X139824000Y-104270000D03*
X113330000Y-91320000D03*
X136053705Y-94247982D03*
X138014170Y-78200000D03*
X135500000Y-61750808D03*
X121990000Y-68020000D03*
X119090000Y-69470000D03*
X139740000Y-84920000D03*
X121774000Y-104270000D03*
X125625000Y-74300000D03*
X132612000Y-61750808D03*
X123630000Y-91530000D03*
X134810000Y-62375000D03*
X140120000Y-82900000D03*
X112388000Y-96766756D03*
X148550000Y-91650000D03*
X133588705Y-78527982D03*
X144550000Y-69700000D03*
X121060000Y-61750808D03*
X129002000Y-61750808D03*
X121990000Y-63670000D03*
X115465000Y-67300000D03*
X143850000Y-92710000D03*
X142714000Y-101768918D03*
X133410000Y-67705000D03*
X135800000Y-96140000D03*
X147577429Y-76575945D03*
X136936000Y-104270000D03*
X140120000Y-80900000D03*
X149860000Y-85670000D03*
X111150000Y-76950000D03*
X111305000Y-94890945D03*
X143797000Y-99893107D03*
X138840000Y-92690000D03*
X151400000Y-86700000D03*
X136853705Y-93447982D03*
X134770000Y-104270000D03*
X114480000Y-68040000D03*
X112450000Y-76480000D03*
X129280000Y-92740000D03*
X146324000Y-95516215D03*
X113120000Y-68002704D03*
X119815000Y-69470000D03*
X124590000Y-63075000D03*
X105529000Y-84886619D03*
X132100000Y-84400000D03*
X122850000Y-80950000D03*
X146800000Y-77000000D03*
X134810000Y-67705000D03*
X123890000Y-63775000D03*
X110228769Y-90072037D03*
X113953769Y-96523927D03*
X148150000Y-92350000D03*
X143442000Y-65502430D03*
X115515000Y-98855000D03*
X121040000Y-103210000D03*
X122040000Y-98855000D03*
X125250000Y-103050000D03*
X136853705Y-94247982D03*
X134056000Y-61750808D03*
X114300000Y-100100000D03*
X123890000Y-62375000D03*
X115998000Y-103019459D03*
X143120000Y-80900000D03*
X107695000Y-88638241D03*
X117690000Y-96680000D03*
X121950000Y-80100000D03*
X126325000Y-73600000D03*
X115465000Y-64395000D03*
X118415000Y-103205000D03*
X124660000Y-91910000D03*
X112230000Y-91610000D03*
X141120000Y-80900000D03*
X145241000Y-97392026D03*
X148200000Y-85100000D03*
X144420000Y-91920000D03*
X130600000Y-76230000D03*
X124590000Y-62375000D03*
X131700000Y-81650000D03*
X132900000Y-90925000D03*
X118886000Y-104270000D03*
X123190000Y-63075000D03*
X117442000Y-104270000D03*
X123890000Y-67705000D03*
X136053705Y-93447982D03*
X105168000Y-84261349D03*
X132093799Y-78425000D03*
X123190000Y-62375000D03*
X137050000Y-85240000D03*
X123675000Y-83725000D03*
X113500000Y-98700000D03*
X137270000Y-82740000D03*
X116730000Y-61750000D03*
X130450000Y-73880000D03*
X144158000Y-99267837D03*
X131168000Y-61750808D03*
X122496000Y-104270000D03*
X145450000Y-85550000D03*
X119815000Y-62945000D03*
X147046000Y-94265674D03*
X123890000Y-67005000D03*
X145950000Y-69800000D03*
X120338000Y-61750808D03*
X132525000Y-104275000D03*
X132130000Y-76840000D03*
X151270000Y-85640000D03*
X139870000Y-74730000D03*
X125500000Y-71200000D03*
X118900000Y-61750000D03*
X113110000Y-98017296D03*
X133000000Y-79390000D03*
X124925000Y-74300000D03*
X138300000Y-91710000D03*
X121990000Y-65120000D03*
X123190000Y-66305000D03*
X127300000Y-69600000D03*
X109640000Y-74760000D03*
X131890000Y-61750808D03*
X121950000Y-81800000D03*
X134110000Y-62375000D03*
X124590000Y-66305000D03*
X109861000Y-92389863D03*
X125540000Y-89380000D03*
X108417000Y-89888782D03*
X143470000Y-93350000D03*
X142720000Y-64251890D03*
X127570000Y-91620000D03*
X122040000Y-98130000D03*
X144525000Y-67378241D03*
X135510000Y-98080000D03*
X124590000Y-67705000D03*
X108778000Y-90514052D03*
X115515000Y-96680000D03*
X125620000Y-87700000D03*
X150200000Y-88750000D03*
X107344000Y-78007029D03*
X116440000Y-69480000D03*
X152150000Y-85350000D03*
X131700000Y-104275000D03*
X141120000Y-81900000D03*
X134100000Y-76600000D03*
X114222373Y-68913175D03*
X134810000Y-67005000D03*
X128760000Y-79060000D03*
X122040000Y-101030000D03*
X123560000Y-95710000D03*
X122050000Y-102230000D03*
X149350000Y-90200000D03*
X147900000Y-89750000D03*
X123940000Y-104270000D03*
X108056000Y-89263512D03*
X134400000Y-90300000D03*
X134110000Y-63775000D03*
X106251000Y-86137160D03*
X137550000Y-75790000D03*
X126836000Y-61750808D03*
X115580000Y-81760000D03*
X137658000Y-104270000D03*
X134250000Y-94100000D03*
X136480000Y-96140000D03*
X143080000Y-72520000D03*
X143120000Y-82900000D03*
X147400000Y-85100000D03*
X143120000Y-81900000D03*
X133326000Y-104270000D03*
X122850000Y-80100000D03*
X143060000Y-94000000D03*
X128990000Y-88470000D03*
X143081000Y-64877160D03*
X145602000Y-96766756D03*
X123190000Y-63775000D03*
X151400000Y-79300000D03*
X121520000Y-97150000D03*
X147600000Y-87150000D03*
X141120000Y-82900000D03*
X137625000Y-70100000D03*
X151000000Y-87350000D03*
X115465000Y-65845000D03*
X116359000Y-103644729D03*
X109600000Y-76100000D03*
X144069400Y-89932462D03*
X143313813Y-99006250D03*
X134110000Y-67005000D03*
X145300000Y-90850000D03*
X135925000Y-69127276D03*
X119160000Y-103210000D03*
X123190000Y-67005000D03*
X152500000Y-81250000D03*
X149579000Y-76132026D03*
X151800000Y-86000000D03*
X113290000Y-94250000D03*
X112749000Y-97392026D03*
X148950000Y-90950000D03*
X118365000Y-69470000D03*
X109139000Y-91139323D03*
X125392000Y-61750808D03*
X111810000Y-93830000D03*
X104807000Y-83636079D03*
X138388000Y-61750808D03*
X138380000Y-104270000D03*
X132470000Y-80820000D03*
X108130000Y-79860000D03*
X134110000Y-66305000D03*
X142754088Y-87060000D03*
X130500000Y-86550000D03*
X119090000Y-62945000D03*
X130920000Y-69090000D03*
X105539000Y-81133381D03*
X146300000Y-70400000D03*
X131120000Y-73860000D03*
X134778000Y-61750808D03*
X152550000Y-84650000D03*
X147400000Y-91250000D03*
X132700000Y-103150000D03*
X118172000Y-61750808D03*
X127558000Y-61750808D03*
X144164000Y-66752971D03*
X134200000Y-95840000D03*
X149450000Y-86850000D03*
X134900000Y-92075000D03*
X148350000Y-89100000D03*
X138600000Y-87000000D03*
X133410000Y-66305000D03*
X148950000Y-88700000D03*
X106973000Y-87387701D03*
X148200000Y-86600000D03*
X114420000Y-67180000D03*
X119650000Y-61750000D03*
X107334000Y-88012971D03*
X141276000Y-61750808D03*
X123218000Y-104270000D03*
X141998000Y-63001349D03*
X126325000Y-74300000D03*
X115510000Y-101710000D03*
X146685000Y-94890945D03*
X134110000Y-67705000D03*
X125384000Y-104270000D03*
X143120000Y-83900000D03*
X113900000Y-99400000D03*
X124590000Y-63775000D03*
X142359000Y-63626619D03*
X116240000Y-96680000D03*
X115460000Y-68470000D03*
X117570000Y-80310000D03*
X130975000Y-104275000D03*
X143100000Y-70550000D03*
X104446000Y-83010808D03*
X110422571Y-76579945D03*
X121990000Y-68745000D03*
X144080000Y-78130000D03*
X116720000Y-104270000D03*
X150662000Y-78007837D03*
X141631000Y-103644729D03*
X144880000Y-98017296D03*
X132100000Y-83600000D03*
X133300000Y-82410000D03*
X141200000Y-72760000D03*
X145420000Y-95270000D03*
X143830000Y-94450000D03*
X105890000Y-85511890D03*
X145250000Y-68600000D03*
X106612000Y-86762430D03*
X144710000Y-94890000D03*
X126170000Y-91747982D03*
X153100000Y-83650000D03*
X139110000Y-61750808D03*
X134810000Y-63075000D03*
X135890000Y-91090000D03*
X140546000Y-104270000D03*
X115304955Y-92164248D03*
X112759000Y-68627974D03*
X149800000Y-89450000D03*
X140120000Y-81900000D03*
X123975000Y-88450000D03*
X130446000Y-61750808D03*
X147768000Y-93015134D03*
X142120000Y-81900000D03*
X151023000Y-78633107D03*
X136214000Y-104270000D03*
X115465000Y-65120000D03*
X126630000Y-65380000D03*
X121990000Y-67295000D03*
X121990000Y-65845000D03*
X119140000Y-96680000D03*
X121810000Y-102960000D03*
X140970000Y-89180000D03*
X133410000Y-63775000D03*
X135120000Y-95190000D03*
X110222000Y-93015134D03*
X149700000Y-87500000D03*
X123275000Y-88450000D03*
X130450000Y-73140000D03*
X126200000Y-104275000D03*
X123890000Y-66305000D03*
X143852429Y-70124055D03*
X120000000Y-104250000D03*
X122040000Y-100305000D03*
X134810000Y-66305000D03*
X105178000Y-81758651D03*
X124925000Y-73600000D03*
X140554000Y-61750808D03*
X144042500Y-84800000D03*
X134048000Y-104270000D03*
X141270000Y-104270000D03*
X132100000Y-85200000D03*
X113100000Y-78810000D03*
X121990000Y-69470000D03*
X145950000Y-89600000D03*
X121990000Y-62945000D03*
X115637000Y-102394189D03*
X106622000Y-79257570D03*
X150600000Y-88050000D03*
X115510000Y-99600000D03*
X149940000Y-76757296D03*
X105900000Y-80508110D03*
X121265000Y-69470000D03*
X136700000Y-79540000D03*
X119865000Y-96680000D03*
X146150000Y-86150000D03*
X143803000Y-66127701D03*
X122040000Y-99580000D03*
X131740000Y-90800000D03*
X130910000Y-81630000D03*
X118365000Y-62945000D03*
X145600000Y-69200000D03*
X130591205Y-78467982D03*
X123275000Y-87750000D03*
X136944000Y-61750808D03*
X115515000Y-101030000D03*
X136780000Y-83530000D03*
X106261000Y-79882840D03*
X115515000Y-100305000D03*
X137040000Y-80550000D03*
X121950000Y-80950000D03*
%TO.N,+3.3V*%
X134450000Y-89250000D03*
X136550000Y-89250000D03*
X128503705Y-76397982D03*
X141250000Y-76000000D03*
X150800000Y-82275000D03*
X128500000Y-73490000D03*
X134600000Y-98600000D03*
X112950000Y-75750000D03*
X127800000Y-73490000D03*
X150000000Y-82275000D03*
X129500000Y-76400000D03*
X144185000Y-86850000D03*
X112300000Y-75400000D03*
X131300000Y-86800000D03*
X140775000Y-86650000D03*
X132900000Y-83600000D03*
X151600000Y-82275000D03*
X132900000Y-84400000D03*
X132900000Y-85200000D03*
X134000000Y-98600000D03*
X136100000Y-87600000D03*
X128980000Y-76097984D03*
X134500000Y-87600000D03*
X128980000Y-76760000D03*
X129700000Y-86800000D03*
X140700000Y-75700000D03*
X152400000Y-82275000D03*
X141250000Y-75400000D03*
X140207500Y-86650000D03*
X111700000Y-75050000D03*
X143925000Y-87375000D03*
%TO.N,/HP+*%
X140569400Y-95994640D03*
%TO.N,Net-(C7-Pad1)*%
X132100000Y-82800000D03*
%TO.N,/HP-*%
X141069400Y-95128614D03*
%TO.N,Net-(C10-Pad1)*%
X132900000Y-82000000D03*
%TO.N,VBAT+*%
X124810000Y-87850000D03*
%TO.N,+5V*%
X120200000Y-77500000D03*
X114054955Y-89999184D03*
X119500000Y-78200000D03*
X115400000Y-89200000D03*
X120200000Y-78200000D03*
X120200000Y-76800000D03*
X120200000Y-78900000D03*
X119500000Y-78900000D03*
%TO.N,4.5V*%
X137950000Y-95800000D03*
X120340000Y-103730000D03*
X122600000Y-75700000D03*
X137950000Y-95250000D03*
X121200000Y-75700000D03*
X121900000Y-75700000D03*
X143800000Y-90950000D03*
X109502276Y-77962083D03*
X122075000Y-92940000D03*
X122600000Y-75000000D03*
X121590000Y-92580000D03*
X121900000Y-75000000D03*
X132500000Y-92300000D03*
X122910000Y-64440000D03*
X143150000Y-90550000D03*
%TO.N,/NRST*%
X131675000Y-74675000D03*
X129400000Y-64800000D03*
X132100000Y-87600000D03*
%TO.N,/GPIO_MOT1*%
X145100000Y-73000000D03*
X132900000Y-81200000D03*
%TO.N,/TX_MOT1*%
X134500000Y-80400000D03*
X145750000Y-74200000D03*
%TO.N,/RX_MOT1*%
X144849599Y-73849599D03*
X133700000Y-80400000D03*
%TO.N,/RX_MOT2*%
X129000000Y-101400000D03*
X134500000Y-86800000D03*
%TO.N,/TX_MOT2*%
X133700000Y-86800000D03*
X128200000Y-102050000D03*
%TO.N,/GPIO_MOT2*%
X129800000Y-102050000D03*
X136100000Y-86800000D03*
%TO.N,/GPIO_MOT3*%
X112300000Y-74200000D03*
X131300000Y-80400000D03*
%TO.N,/TX_MOT3*%
X113175000Y-72925000D03*
X132900000Y-80400000D03*
%TO.N,/RX_MOT3*%
X132100000Y-80400000D03*
X113433154Y-74016846D03*
%TO.N,/ESP32_TX*%
X141109144Y-79534697D03*
X135300000Y-81200000D03*
%TO.N,/ESP32_RX*%
X136100000Y-81200000D03*
X140516306Y-79550038D03*
%TO.N,/ACCEL_MOSI*%
X132100000Y-86000000D03*
X128650000Y-92600000D03*
%TO.N,Net-(IC5-INT2)*%
X129943705Y-92707982D03*
%TO.N,/ACCEL_MISO*%
X131300000Y-86000000D03*
X128000000Y-92600000D03*
%TO.N,Net-(IC5-INT1)*%
X130773705Y-92707982D03*
%TO.N,/ACCEL_CLK*%
X126750000Y-92626338D03*
X128900000Y-86000000D03*
%TO.N,/ACCEL_INT2*%
X129943705Y-92067982D03*
X132100000Y-86800000D03*
%TO.N,/ACCEL_INT1*%
X130773705Y-92067982D03*
X132900000Y-87600000D03*
%TO.N,/MOUSE_INT*%
X128900000Y-86800000D03*
X110300000Y-88175000D03*
%TO.N,/SWDIO*%
X127700000Y-64800000D03*
X131210000Y-76870000D03*
%TO.N,/SWCLK*%
X128500000Y-64800000D03*
X131730000Y-77330000D03*
%TO.N,/RX_LIDAR*%
X112900000Y-93200000D03*
X131300000Y-85200000D03*
%TO.N,/SDA_TOF1*%
X144250000Y-74850000D03*
X135300000Y-80400000D03*
%TO.N,/SDA_TOF3*%
X114300000Y-73900000D03*
X131700000Y-80800000D03*
%TO.N,/SCL_TOF1*%
X143750000Y-73850000D03*
X136100000Y-80400000D03*
%TO.N,/SDA_TOF2*%
X128900000Y-85200000D03*
X128500000Y-100600000D03*
%TO.N,/SDA_OLED*%
X136100000Y-82800000D03*
X145600000Y-88750000D03*
%TO.N,/LIDAR_PWM*%
X112400000Y-92450000D03*
X128900000Y-84400000D03*
%TO.N,/MOUSE_CS*%
X109087500Y-85987500D03*
X128900000Y-82000000D03*
%TO.N,/SCL_TOF2*%
X129500000Y-100550000D03*
X129700000Y-85200000D03*
%TO.N,/SCL_OLED*%
X144569400Y-89066436D03*
X135300000Y-82800000D03*
%TO.N,/SCL_TOF3*%
X113750000Y-74900000D03*
X131300000Y-81200000D03*
%TO.N,/MOUSE_MISO*%
X109100000Y-86725000D03*
X128900000Y-83600000D03*
%TO.N,/LED_TIM*%
X136100000Y-85200000D03*
X142569400Y-92530538D03*
%TO.N,/TX_SUP*%
X142069400Y-93396564D03*
X135300000Y-84400000D03*
%TO.N,/RX_SUP*%
X141569400Y-94262589D03*
X134500000Y-84400000D03*
%TO.N,Net-(IC8-~{OE})*%
X111147724Y-78912083D03*
%TO.N,Net-(U1-BOOT0)*%
X131300000Y-84400000D03*
X125130000Y-91100000D03*
X127620000Y-90000787D03*
%TO.N,Net-(IC8-Y)*%
X109000000Y-78450000D03*
X115600000Y-69420000D03*
%TO.N,Net-(LED2-DOUT)*%
X119400000Y-62450000D03*
X115040000Y-97292878D03*
%TO.N,Net-(U5-GPIO0)*%
X145800000Y-83400000D03*
%TO.N,RESET*%
X144350000Y-83800000D03*
%TO.N,/ESP32/mic_sck*%
X151525000Y-80675000D03*
%TO.N,/ESP32/mic_data*%
X146250000Y-80400000D03*
%TO.N,Net-(U5-GPIO3)*%
X144270000Y-82010000D03*
%TO.N,/ESP32/mic_frame_sck*%
X146150000Y-78850000D03*
%TO.N,/ESP32/BOOT1*%
X142850000Y-85100000D03*
%TO.N,Net-(U5-VDD_SPI)*%
X137039170Y-77950000D03*
%TO.N,/MOUSE_CLK*%
X128900000Y-82800000D03*
X109780000Y-85975000D03*
%TO.N,/MOUSE_MOSI*%
X130500000Y-84400000D03*
X109730000Y-87400000D03*
%TO.N,/ESP32/max_data*%
X144150000Y-81400000D03*
X134250000Y-92400000D03*
%TO.N,/ESP32/max_bit_clk*%
X135350000Y-91550000D03*
X145750000Y-82600000D03*
%TO.N,/RGB_TOM_JERRY*%
X109650000Y-79000000D03*
X130500000Y-81200000D03*
%TO.N,Net-(U5-GPIO45)*%
X141950000Y-85100000D03*
%TO.N,/ESP32/max_frame_clk*%
X136445361Y-91554639D03*
X144350000Y-82950000D03*
%TO.N,/ESP32/SD_FSPIQ*%
X121275000Y-79975000D03*
X143000000Y-79550000D03*
%TO.N,/ESP32/SD_FSPICLK*%
X121250000Y-80700000D03*
X143450000Y-78300000D03*
%TO.N,/ESP32/SD_FSPID*%
X128425000Y-83175000D03*
X143820000Y-79550000D03*
%TO.N,/ESP32/SD_FSPICS*%
X128450000Y-84000000D03*
X144850000Y-79050000D03*
%TO.N,/ESP32/max_gpio*%
X133600000Y-94250000D03*
X145800000Y-81400000D03*
%TO.N,Net-(MK2-LR)*%
X148800000Y-76900000D03*
%TD*%
%TA.AperFunction,Conductor*%
%TO.N,GND*%
G36*
X117047273Y-61400500D02*
G01*
X117152727Y-61400500D01*
X117154593Y-61400000D01*
X117886986Y-61400000D01*
X117894614Y-61400500D01*
X117897273Y-61400500D01*
X118005386Y-61400500D01*
X118013014Y-61400000D01*
X118745407Y-61400000D01*
X118747273Y-61400500D01*
X118852727Y-61400500D01*
X118854593Y-61400000D01*
X119586986Y-61400000D01*
X119594614Y-61400500D01*
X119597273Y-61400500D01*
X119705386Y-61400500D01*
X119713014Y-61400000D01*
X120445407Y-61400000D01*
X120447273Y-61400500D01*
X120552727Y-61400500D01*
X120554593Y-61400000D01*
X121286986Y-61400000D01*
X121294614Y-61400500D01*
X121297273Y-61400500D01*
X121405386Y-61400500D01*
X121413014Y-61400000D01*
X122145407Y-61400000D01*
X122147273Y-61400500D01*
X122252727Y-61400500D01*
X122254593Y-61400000D01*
X122986986Y-61400000D01*
X122994614Y-61400500D01*
X122997273Y-61400500D01*
X123105386Y-61400500D01*
X123113014Y-61400000D01*
X123845407Y-61400000D01*
X123847273Y-61400500D01*
X123952727Y-61400500D01*
X123954593Y-61400000D01*
X124686986Y-61400000D01*
X124694614Y-61400500D01*
X124697273Y-61400500D01*
X124805386Y-61400500D01*
X124813014Y-61400000D01*
X125545407Y-61400000D01*
X125547273Y-61400500D01*
X125652727Y-61400500D01*
X125654593Y-61400000D01*
X126386986Y-61400000D01*
X126394614Y-61400500D01*
X126397273Y-61400500D01*
X126505386Y-61400500D01*
X126513014Y-61400000D01*
X127245407Y-61400000D01*
X127247273Y-61400500D01*
X127352727Y-61400500D01*
X127354593Y-61400000D01*
X128086986Y-61400000D01*
X128094614Y-61400500D01*
X128097273Y-61400500D01*
X128205386Y-61400500D01*
X128213014Y-61400000D01*
X128945407Y-61400000D01*
X128947273Y-61400500D01*
X129052727Y-61400500D01*
X129054593Y-61400000D01*
X129786986Y-61400000D01*
X129794614Y-61400500D01*
X129797273Y-61400500D01*
X129905386Y-61400500D01*
X129913014Y-61400000D01*
X130645407Y-61400000D01*
X130647273Y-61400500D01*
X130752727Y-61400500D01*
X130754593Y-61400000D01*
X131486986Y-61400000D01*
X131494614Y-61400500D01*
X131497273Y-61400500D01*
X131605386Y-61400500D01*
X131613014Y-61400000D01*
X132345407Y-61400000D01*
X132347273Y-61400500D01*
X132452727Y-61400500D01*
X132454593Y-61400000D01*
X133186986Y-61400000D01*
X133194614Y-61400500D01*
X133197273Y-61400500D01*
X133305386Y-61400500D01*
X133313014Y-61400000D01*
X134045407Y-61400000D01*
X134047273Y-61400500D01*
X134152727Y-61400500D01*
X134154593Y-61400000D01*
X134886986Y-61400000D01*
X134894614Y-61400500D01*
X134897273Y-61400500D01*
X135005386Y-61400500D01*
X135013014Y-61400000D01*
X135745407Y-61400000D01*
X135747273Y-61400500D01*
X135852727Y-61400500D01*
X135854593Y-61400000D01*
X136586986Y-61400000D01*
X136594614Y-61400500D01*
X136597273Y-61400500D01*
X136705386Y-61400500D01*
X136713014Y-61400000D01*
X137445407Y-61400000D01*
X137447273Y-61400500D01*
X137552727Y-61400500D01*
X137554593Y-61400000D01*
X138286986Y-61400000D01*
X138294614Y-61400500D01*
X138297273Y-61400500D01*
X138405386Y-61400500D01*
X138413014Y-61400000D01*
X139145407Y-61400000D01*
X139147273Y-61400500D01*
X139252727Y-61400500D01*
X139254593Y-61400000D01*
X139986986Y-61400000D01*
X139994614Y-61400500D01*
X139997273Y-61400500D01*
X140105386Y-61400500D01*
X140113014Y-61400000D01*
X140845407Y-61400000D01*
X140847273Y-61400500D01*
X140952727Y-61400500D01*
X140954593Y-61400000D01*
X141296154Y-61400000D01*
X141354345Y-61418907D01*
X141366158Y-61428996D01*
X141370353Y-61433191D01*
X141386085Y-61453694D01*
X153797634Y-82950498D01*
X153810356Y-83010346D01*
X153797634Y-83049500D01*
X141386082Y-104546309D01*
X141386081Y-104546308D01*
X141379562Y-104557598D01*
X141372413Y-104564749D01*
X141364736Y-104583278D01*
X141361495Y-104588893D01*
X141361491Y-104588902D01*
X141354695Y-104600673D01*
X141354149Y-104602282D01*
X141352176Y-104611844D01*
X141350600Y-104617407D01*
X141349500Y-104620064D01*
X141349500Y-104621291D01*
X141347606Y-104627979D01*
X141332671Y-104650275D01*
X141319557Y-104673696D01*
X141315835Y-104675411D01*
X141313556Y-104678815D01*
X141288364Y-104688076D01*
X141263992Y-104699313D01*
X141256617Y-104699748D01*
X141256129Y-104699928D01*
X141255688Y-104699803D01*
X141252353Y-104700000D01*
X141189611Y-104700000D01*
X141140112Y-104686737D01*
X141079587Y-104651793D01*
X140977727Y-104624500D01*
X140872273Y-104624500D01*
X140770413Y-104651793D01*
X140709887Y-104686737D01*
X140660389Y-104700000D01*
X140339611Y-104700000D01*
X140290112Y-104686737D01*
X140229587Y-104651793D01*
X140127727Y-104624500D01*
X140022273Y-104624500D01*
X139920413Y-104651793D01*
X139859887Y-104686737D01*
X139810389Y-104700000D01*
X139489611Y-104700000D01*
X139440112Y-104686737D01*
X139379587Y-104651793D01*
X139277727Y-104624500D01*
X139172273Y-104624500D01*
X139070413Y-104651793D01*
X139009887Y-104686737D01*
X138960389Y-104700000D01*
X138639611Y-104700000D01*
X138590112Y-104686737D01*
X138529587Y-104651793D01*
X138427727Y-104624500D01*
X138322273Y-104624500D01*
X138220413Y-104651793D01*
X138159887Y-104686737D01*
X138110389Y-104700000D01*
X137789611Y-104700000D01*
X137740112Y-104686737D01*
X137679587Y-104651793D01*
X137577727Y-104624500D01*
X137472273Y-104624500D01*
X137370413Y-104651793D01*
X137309887Y-104686737D01*
X137260389Y-104700000D01*
X136939611Y-104700000D01*
X136890112Y-104686737D01*
X136829587Y-104651793D01*
X136727727Y-104624500D01*
X136622273Y-104624500D01*
X136520413Y-104651793D01*
X136459887Y-104686737D01*
X136410389Y-104700000D01*
X136089611Y-104700000D01*
X136040112Y-104686737D01*
X135979587Y-104651793D01*
X135877727Y-104624500D01*
X135772273Y-104624500D01*
X135670413Y-104651793D01*
X135609887Y-104686737D01*
X135560389Y-104700000D01*
X135239611Y-104700000D01*
X135190112Y-104686737D01*
X135129587Y-104651793D01*
X135027727Y-104624500D01*
X134922273Y-104624500D01*
X134820413Y-104651793D01*
X134759887Y-104686737D01*
X134710389Y-104700000D01*
X134389611Y-104700000D01*
X134340112Y-104686737D01*
X134279587Y-104651793D01*
X134177727Y-104624500D01*
X134072273Y-104624500D01*
X133970413Y-104651793D01*
X133909887Y-104686737D01*
X133860389Y-104700000D01*
X133539611Y-104700000D01*
X133490112Y-104686737D01*
X133429587Y-104651793D01*
X133327727Y-104624500D01*
X133222273Y-104624500D01*
X133120413Y-104651793D01*
X133059887Y-104686737D01*
X133010389Y-104700000D01*
X132689611Y-104700000D01*
X132640112Y-104686737D01*
X132579587Y-104651793D01*
X132477727Y-104624500D01*
X132372273Y-104624500D01*
X132270413Y-104651793D01*
X132209887Y-104686737D01*
X132160389Y-104700000D01*
X131839611Y-104700000D01*
X131790112Y-104686737D01*
X131729587Y-104651793D01*
X131627727Y-104624500D01*
X131522273Y-104624500D01*
X131420413Y-104651793D01*
X131359887Y-104686737D01*
X131310389Y-104700000D01*
X130989611Y-104700000D01*
X130940112Y-104686737D01*
X130879587Y-104651793D01*
X130777727Y-104624500D01*
X130672273Y-104624500D01*
X130570413Y-104651793D01*
X130509887Y-104686737D01*
X130460389Y-104700000D01*
X130139611Y-104700000D01*
X130090112Y-104686737D01*
X130029587Y-104651793D01*
X129927727Y-104624500D01*
X129822273Y-104624500D01*
X129720413Y-104651793D01*
X129659887Y-104686737D01*
X129610389Y-104700000D01*
X129289611Y-104700000D01*
X129240112Y-104686737D01*
X129179587Y-104651793D01*
X129077727Y-104624500D01*
X128972273Y-104624500D01*
X128870413Y-104651793D01*
X128809887Y-104686737D01*
X128760389Y-104700000D01*
X128439611Y-104700000D01*
X128390112Y-104686737D01*
X128329587Y-104651793D01*
X128227727Y-104624500D01*
X128122273Y-104624500D01*
X128020413Y-104651793D01*
X127959887Y-104686737D01*
X127910389Y-104700000D01*
X127589611Y-104700000D01*
X127540112Y-104686737D01*
X127479587Y-104651793D01*
X127377727Y-104624500D01*
X127272273Y-104624500D01*
X127170413Y-104651793D01*
X127109887Y-104686737D01*
X127060389Y-104700000D01*
X126739611Y-104700000D01*
X126690112Y-104686737D01*
X126629587Y-104651793D01*
X126527727Y-104624500D01*
X126422273Y-104624500D01*
X126320413Y-104651793D01*
X126259887Y-104686737D01*
X126210389Y-104700000D01*
X125889611Y-104700000D01*
X125840112Y-104686737D01*
X125779587Y-104651793D01*
X125677727Y-104624500D01*
X125572273Y-104624500D01*
X125470413Y-104651793D01*
X125409887Y-104686737D01*
X125360389Y-104700000D01*
X125039611Y-104700000D01*
X124990112Y-104686737D01*
X124929587Y-104651793D01*
X124827727Y-104624500D01*
X124722273Y-104624500D01*
X124620413Y-104651793D01*
X124559887Y-104686737D01*
X124510389Y-104700000D01*
X124189611Y-104700000D01*
X124140112Y-104686737D01*
X124079587Y-104651793D01*
X123977727Y-104624500D01*
X123872273Y-104624500D01*
X123770413Y-104651793D01*
X123709887Y-104686737D01*
X123660389Y-104700000D01*
X123339611Y-104700000D01*
X123290112Y-104686737D01*
X123229587Y-104651793D01*
X123127727Y-104624500D01*
X123022273Y-104624500D01*
X122920413Y-104651793D01*
X122859887Y-104686737D01*
X122810389Y-104700000D01*
X122489611Y-104700000D01*
X122440112Y-104686737D01*
X122379587Y-104651793D01*
X122277727Y-104624500D01*
X122172273Y-104624500D01*
X122070413Y-104651793D01*
X122009887Y-104686737D01*
X121960389Y-104700000D01*
X121639611Y-104700000D01*
X121590112Y-104686737D01*
X121529587Y-104651793D01*
X121427727Y-104624500D01*
X121322273Y-104624500D01*
X121220413Y-104651793D01*
X121159887Y-104686737D01*
X121110389Y-104700000D01*
X120789611Y-104700000D01*
X120740112Y-104686737D01*
X120679587Y-104651793D01*
X120577727Y-104624500D01*
X120472273Y-104624500D01*
X120370413Y-104651793D01*
X120309887Y-104686737D01*
X120260389Y-104700000D01*
X119939611Y-104700000D01*
X119890112Y-104686737D01*
X119829587Y-104651793D01*
X119727727Y-104624500D01*
X119622273Y-104624500D01*
X119520413Y-104651793D01*
X119459887Y-104686737D01*
X119410389Y-104700000D01*
X119089611Y-104700000D01*
X119040112Y-104686737D01*
X118979587Y-104651793D01*
X118877727Y-104624500D01*
X118772273Y-104624500D01*
X118670413Y-104651793D01*
X118609887Y-104686737D01*
X118560389Y-104700000D01*
X118239611Y-104700000D01*
X118190112Y-104686737D01*
X118129587Y-104651793D01*
X118027727Y-104624500D01*
X117922273Y-104624500D01*
X117820413Y-104651793D01*
X117759887Y-104686737D01*
X117710389Y-104700000D01*
X117389611Y-104700000D01*
X117340112Y-104686737D01*
X117279587Y-104651793D01*
X117177727Y-104624500D01*
X117072273Y-104624500D01*
X116970413Y-104651793D01*
X116909887Y-104686737D01*
X116860389Y-104700000D01*
X116747648Y-104700000D01*
X116689457Y-104681093D01*
X116653493Y-104631593D01*
X116650551Y-104620318D01*
X116649365Y-104614358D01*
X116647174Y-104606184D01*
X116645304Y-104600675D01*
X116645304Y-104600673D01*
X116635266Y-104583287D01*
X116627587Y-104564749D01*
X116620432Y-104557594D01*
X116613916Y-104546308D01*
X116613914Y-104546305D01*
X116140798Y-103726868D01*
X116115964Y-103683856D01*
X119989500Y-103683856D01*
X119989500Y-103776144D01*
X120013386Y-103865288D01*
X120059531Y-103945212D01*
X120124788Y-104010469D01*
X120204712Y-104056614D01*
X120293856Y-104080500D01*
X120293858Y-104080500D01*
X120386142Y-104080500D01*
X120386144Y-104080500D01*
X120475288Y-104056614D01*
X120555212Y-104010469D01*
X120620469Y-103945212D01*
X120666614Y-103865288D01*
X120690500Y-103776144D01*
X120690500Y-103683856D01*
X120666614Y-103594712D01*
X120620469Y-103514788D01*
X120555212Y-103449531D01*
X120475288Y-103403386D01*
X120386144Y-103379500D01*
X120293856Y-103379500D01*
X120204712Y-103403386D01*
X120204711Y-103403386D01*
X120204709Y-103403387D01*
X120124790Y-103449529D01*
X120059529Y-103514790D01*
X120013387Y-103594709D01*
X120013386Y-103594711D01*
X120013386Y-103594712D01*
X119989500Y-103683856D01*
X116115964Y-103683856D01*
X113567548Y-99270000D01*
X113428979Y-99029999D01*
X115820000Y-99029999D01*
X115820000Y-99030000D01*
X115820000Y-99070000D01*
X115860000Y-99110000D01*
X115860002Y-99110001D01*
X116059963Y-99209982D01*
X116506185Y-99428135D01*
X116513046Y-99431831D01*
X116513406Y-99432043D01*
X116610000Y-99490000D01*
X116657565Y-99517180D01*
X116658200Y-99517555D01*
X116677995Y-99539981D01*
X116698118Y-99562130D01*
X116698242Y-99562917D01*
X116698691Y-99563426D01*
X116699252Y-99569326D01*
X116706252Y-99613731D01*
X116700550Y-99665054D01*
X116698957Y-99674865D01*
X116670000Y-99809995D01*
X116670000Y-99980001D01*
X116690001Y-100110006D01*
X116740001Y-100290003D01*
X116799998Y-100459995D01*
X116800004Y-100460009D01*
X116949996Y-100759993D01*
X116950000Y-100760000D01*
X117018003Y-100857148D01*
X117021791Y-100862985D01*
X117140001Y-101060002D01*
X117140002Y-101060004D01*
X117219984Y-101149983D01*
X117220011Y-101150011D01*
X117324357Y-101254358D01*
X117352134Y-101308874D01*
X117353011Y-101316139D01*
X117359999Y-101399997D01*
X117400001Y-101540004D01*
X117460000Y-101680001D01*
X117507804Y-101739755D01*
X117540000Y-101780000D01*
X117690000Y-101840000D01*
X117790000Y-101850000D01*
X117950000Y-101830000D01*
X118079408Y-101770273D01*
X118080634Y-101769718D01*
X118161315Y-101733859D01*
X118179256Y-101727863D01*
X118300000Y-101700000D01*
X118398488Y-101628372D01*
X118423403Y-101615212D01*
X118549044Y-101570341D01*
X118550954Y-101569683D01*
X118635747Y-101541418D01*
X118644371Y-101538971D01*
X118767500Y-101510000D01*
X118809988Y-101500003D01*
X118809993Y-101500001D01*
X118810000Y-101500000D01*
X118960000Y-101460000D01*
X119060000Y-101430000D01*
X119076176Y-101421911D01*
X119106029Y-101417414D01*
X119135938Y-101412678D01*
X119136288Y-101412856D01*
X119136678Y-101412798D01*
X119190455Y-101440455D01*
X119196126Y-101446126D01*
X119203428Y-101454285D01*
X119295746Y-101569683D01*
X119318309Y-101597886D01*
X119321563Y-101602188D01*
X119419825Y-101739755D01*
X119420228Y-101740324D01*
X119610000Y-102010000D01*
X119670000Y-102070000D01*
X119670001Y-102070000D01*
X119719999Y-102070000D01*
X119720000Y-102070000D01*
X119720000Y-102020000D01*
X119714619Y-102003856D01*
X127849500Y-102003856D01*
X127849500Y-102096144D01*
X127873386Y-102185288D01*
X127919531Y-102265212D01*
X127984788Y-102330469D01*
X128064712Y-102376614D01*
X128153856Y-102400500D01*
X128153858Y-102400500D01*
X128246142Y-102400500D01*
X128246144Y-102400500D01*
X128335288Y-102376614D01*
X128415212Y-102330469D01*
X128480469Y-102265212D01*
X128526614Y-102185288D01*
X128550500Y-102096144D01*
X128550500Y-102003856D01*
X129449500Y-102003856D01*
X129449500Y-102096144D01*
X129473386Y-102185288D01*
X129519531Y-102265212D01*
X129584788Y-102330469D01*
X129664712Y-102376614D01*
X129753856Y-102400500D01*
X129753858Y-102400500D01*
X129846142Y-102400500D01*
X129846144Y-102400500D01*
X129935288Y-102376614D01*
X130015212Y-102330469D01*
X130080469Y-102265212D01*
X130126614Y-102185288D01*
X130150500Y-102096144D01*
X130150500Y-102003856D01*
X130126614Y-101914712D01*
X130080469Y-101834788D01*
X130015212Y-101769531D01*
X129963639Y-101739755D01*
X129935290Y-101723387D01*
X129935289Y-101723386D01*
X129935288Y-101723386D01*
X129846144Y-101699500D01*
X129753856Y-101699500D01*
X129664712Y-101723386D01*
X129664711Y-101723386D01*
X129664709Y-101723387D01*
X129584790Y-101769529D01*
X129519529Y-101834790D01*
X129473387Y-101914709D01*
X129473386Y-101914711D01*
X129473386Y-101914712D01*
X129449500Y-102003856D01*
X128550500Y-102003856D01*
X128526614Y-101914712D01*
X128480469Y-101834788D01*
X128415212Y-101769531D01*
X128363639Y-101739755D01*
X128335290Y-101723387D01*
X128335289Y-101723386D01*
X128335288Y-101723386D01*
X128246144Y-101699500D01*
X128153856Y-101699500D01*
X128064712Y-101723386D01*
X128064711Y-101723386D01*
X128064709Y-101723387D01*
X127984790Y-101769529D01*
X127919529Y-101834790D01*
X127873387Y-101914709D01*
X127873386Y-101914711D01*
X127873386Y-101914712D01*
X127849500Y-102003856D01*
X119714619Y-102003856D01*
X119710000Y-101990000D01*
X119672370Y-101924148D01*
X119670752Y-101920733D01*
X119667296Y-101893969D01*
X119661804Y-101867551D01*
X119663422Y-101863958D01*
X119662918Y-101860051D01*
X119675854Y-101836368D01*
X119686939Y-101811767D01*
X119690360Y-101809812D01*
X119692249Y-101806354D01*
X119716631Y-101794799D01*
X119740062Y-101781410D01*
X119745004Y-101781353D01*
X119747540Y-101780152D01*
X119753421Y-101781257D01*
X119778150Y-101780975D01*
X119990000Y-101820000D01*
X119990004Y-101819999D01*
X119990005Y-101820000D01*
X120429992Y-101810001D01*
X120429995Y-101810000D01*
X120430000Y-101810000D01*
X120800000Y-101690000D01*
X121070000Y-101510000D01*
X121241015Y-101353856D01*
X128649500Y-101353856D01*
X128649500Y-101446144D01*
X128666611Y-101510002D01*
X128673387Y-101535290D01*
X128709527Y-101597886D01*
X128719531Y-101615212D01*
X128784788Y-101680469D01*
X128864712Y-101726614D01*
X128953856Y-101750500D01*
X128953858Y-101750500D01*
X129046142Y-101750500D01*
X129046144Y-101750500D01*
X129135288Y-101726614D01*
X129215212Y-101680469D01*
X129280469Y-101615212D01*
X129326614Y-101535288D01*
X129350500Y-101446144D01*
X129350500Y-101353856D01*
X129326614Y-101264712D01*
X129280469Y-101184788D01*
X129215212Y-101119531D01*
X129135288Y-101073386D01*
X129046144Y-101049500D01*
X128953856Y-101049500D01*
X128864712Y-101073386D01*
X128864711Y-101073386D01*
X128864709Y-101073387D01*
X128784790Y-101119529D01*
X128719529Y-101184790D01*
X128673387Y-101264709D01*
X128673386Y-101264711D01*
X128673386Y-101264712D01*
X128649500Y-101353856D01*
X121241015Y-101353856D01*
X121300000Y-101300000D01*
X121470000Y-101010000D01*
X121620000Y-100690000D01*
X121620000Y-100689997D01*
X121620002Y-100689993D01*
X121647229Y-100553856D01*
X128149500Y-100553856D01*
X128149500Y-100646144D01*
X128173386Y-100735288D01*
X128219531Y-100815212D01*
X128284788Y-100880469D01*
X128364712Y-100926614D01*
X128453856Y-100950500D01*
X128453858Y-100950500D01*
X128546142Y-100950500D01*
X128546144Y-100950500D01*
X128635288Y-100926614D01*
X128715212Y-100880469D01*
X128780469Y-100815212D01*
X128826614Y-100735288D01*
X128850500Y-100646144D01*
X128850500Y-100553856D01*
X128837103Y-100503856D01*
X129149500Y-100503856D01*
X129149500Y-100596144D01*
X129173386Y-100685288D01*
X129173387Y-100685290D01*
X129216517Y-100759993D01*
X129219531Y-100765212D01*
X129284788Y-100830469D01*
X129364712Y-100876614D01*
X129453856Y-100900500D01*
X129453858Y-100900500D01*
X129546142Y-100900500D01*
X129546144Y-100900500D01*
X129635288Y-100876614D01*
X129715212Y-100830469D01*
X129780469Y-100765212D01*
X129826614Y-100685288D01*
X129850500Y-100596144D01*
X129850500Y-100503856D01*
X129826614Y-100414712D01*
X129780469Y-100334788D01*
X129715212Y-100269531D01*
X129635288Y-100223386D01*
X129546144Y-100199500D01*
X129453856Y-100199500D01*
X129364712Y-100223386D01*
X129364711Y-100223386D01*
X129364709Y-100223387D01*
X129284790Y-100269529D01*
X129219529Y-100334790D01*
X129173387Y-100414709D01*
X129173386Y-100414711D01*
X129173386Y-100414712D01*
X129149500Y-100503856D01*
X128837103Y-100503856D01*
X128826614Y-100464712D01*
X128780469Y-100384788D01*
X128715212Y-100319531D01*
X128635288Y-100273386D01*
X128546144Y-100249500D01*
X128453856Y-100249500D01*
X128364712Y-100273386D01*
X128364711Y-100273386D01*
X128364709Y-100273387D01*
X128284790Y-100319529D01*
X128219529Y-100384790D01*
X128173387Y-100464709D01*
X128173386Y-100464711D01*
X128173386Y-100464712D01*
X128149500Y-100553856D01*
X121647229Y-100553856D01*
X121689998Y-100340009D01*
X121690000Y-100339999D01*
X121700000Y-100049999D01*
X121690968Y-99980000D01*
X121660000Y-99740000D01*
X121659998Y-99739996D01*
X121659998Y-99739994D01*
X121597385Y-99599115D01*
X121581675Y-99563768D01*
X124724500Y-99563768D01*
X124724500Y-99736231D01*
X124758145Y-99905373D01*
X124758145Y-99905375D01*
X124824139Y-100064700D01*
X124824145Y-100064712D01*
X124892660Y-100167249D01*
X124919955Y-100208099D01*
X125041901Y-100330045D01*
X125103034Y-100370893D01*
X125185287Y-100425854D01*
X125185299Y-100425860D01*
X125244153Y-100450238D01*
X125344626Y-100491855D01*
X125513771Y-100525500D01*
X125513772Y-100525500D01*
X125686228Y-100525500D01*
X125686229Y-100525500D01*
X125855374Y-100491855D01*
X126014705Y-100425858D01*
X126014707Y-100425856D01*
X126014712Y-100425854D01*
X126076170Y-100384788D01*
X126158099Y-100330045D01*
X126280045Y-100208099D01*
X126348188Y-100106115D01*
X126375854Y-100064712D01*
X126375860Y-100064700D01*
X126381949Y-100049999D01*
X126441855Y-99905374D01*
X126475500Y-99736229D01*
X126475500Y-99563771D01*
X126475499Y-99563768D01*
X131524500Y-99563768D01*
X131524500Y-99736231D01*
X131558145Y-99905373D01*
X131558145Y-99905375D01*
X131624139Y-100064700D01*
X131624145Y-100064712D01*
X131692660Y-100167249D01*
X131719955Y-100208099D01*
X131841901Y-100330045D01*
X131903034Y-100370893D01*
X131985287Y-100425854D01*
X131985299Y-100425860D01*
X132044153Y-100450238D01*
X132144626Y-100491855D01*
X132313771Y-100525500D01*
X132313772Y-100525500D01*
X132486228Y-100525500D01*
X132486229Y-100525500D01*
X132655374Y-100491855D01*
X132814705Y-100425858D01*
X132814707Y-100425856D01*
X132814712Y-100425854D01*
X132876170Y-100384788D01*
X132958099Y-100330045D01*
X133080045Y-100208099D01*
X133148188Y-100106115D01*
X133175854Y-100064712D01*
X133175860Y-100064700D01*
X133181949Y-100049999D01*
X133241855Y-99905374D01*
X133275500Y-99736229D01*
X133275500Y-99563771D01*
X133241855Y-99394626D01*
X133196402Y-99284893D01*
X133175860Y-99235299D01*
X133175854Y-99235287D01*
X133118866Y-99150000D01*
X133080045Y-99091901D01*
X132958099Y-98969955D01*
X132917249Y-98942660D01*
X132814712Y-98874145D01*
X132814700Y-98874139D01*
X132655374Y-98808145D01*
X132486231Y-98774500D01*
X132486229Y-98774500D01*
X132313771Y-98774500D01*
X132313768Y-98774500D01*
X132144626Y-98808145D01*
X132144624Y-98808145D01*
X131985299Y-98874139D01*
X131985287Y-98874145D01*
X131841901Y-98969955D01*
X131841897Y-98969958D01*
X131719958Y-99091897D01*
X131719955Y-99091901D01*
X131624145Y-99235287D01*
X131624139Y-99235299D01*
X131558145Y-99394624D01*
X131558145Y-99394626D01*
X131524500Y-99563768D01*
X126475499Y-99563768D01*
X126441855Y-99394626D01*
X126396402Y-99284893D01*
X126375860Y-99235299D01*
X126375854Y-99235287D01*
X126318866Y-99150000D01*
X126280045Y-99091901D01*
X126158099Y-98969955D01*
X126117249Y-98942660D01*
X126014712Y-98874145D01*
X126014700Y-98874139D01*
X125855374Y-98808145D01*
X125686231Y-98774500D01*
X125686229Y-98774500D01*
X125513771Y-98774500D01*
X125513768Y-98774500D01*
X125344626Y-98808145D01*
X125344624Y-98808145D01*
X125185299Y-98874139D01*
X125185287Y-98874145D01*
X125041901Y-98969955D01*
X125041897Y-98969958D01*
X124919958Y-99091897D01*
X124919955Y-99091901D01*
X124824145Y-99235287D01*
X124824139Y-99235299D01*
X124758145Y-99394624D01*
X124758145Y-99394626D01*
X124724500Y-99563768D01*
X121581675Y-99563768D01*
X121565504Y-99527385D01*
X121540000Y-99470000D01*
X121380000Y-99270000D01*
X121379997Y-99269997D01*
X121190003Y-99150001D01*
X121190000Y-99150000D01*
X120980000Y-99100000D01*
X120979999Y-99100000D01*
X120620000Y-99170000D01*
X120619996Y-99170001D01*
X120420960Y-99229711D01*
X120419010Y-99230274D01*
X120257067Y-99275259D01*
X120222348Y-99278529D01*
X120168936Y-99274078D01*
X120112517Y-99250404D01*
X120093636Y-99228571D01*
X120081818Y-99210000D01*
X120054388Y-99166895D01*
X120046805Y-99152483D01*
X119880000Y-98760000D01*
X119796506Y-98646144D01*
X119767003Y-98605912D01*
X119728828Y-98553856D01*
X133649500Y-98553856D01*
X133649500Y-98646144D01*
X133673386Y-98735288D01*
X133673387Y-98735290D01*
X133699202Y-98780003D01*
X133719531Y-98815212D01*
X133784788Y-98880469D01*
X133864712Y-98926614D01*
X133953856Y-98950500D01*
X133953858Y-98950500D01*
X134046142Y-98950500D01*
X134046144Y-98950500D01*
X134135288Y-98926614D01*
X134215212Y-98880469D01*
X134229998Y-98865682D01*
X134284513Y-98837907D01*
X134344945Y-98847478D01*
X134370000Y-98865681D01*
X134384788Y-98880469D01*
X134464712Y-98926614D01*
X134553856Y-98950500D01*
X134553858Y-98950500D01*
X134646142Y-98950500D01*
X134646144Y-98950500D01*
X134735288Y-98926614D01*
X134815212Y-98880469D01*
X134880469Y-98815212D01*
X134926614Y-98735288D01*
X134950500Y-98646144D01*
X134950500Y-98553856D01*
X134926614Y-98464712D01*
X134880469Y-98384788D01*
X134815212Y-98319531D01*
X134735288Y-98273386D01*
X134646144Y-98249500D01*
X134553856Y-98249500D01*
X134464712Y-98273386D01*
X134464711Y-98273386D01*
X134464709Y-98273387D01*
X134384790Y-98319529D01*
X134384788Y-98319530D01*
X134384788Y-98319531D01*
X134370001Y-98334317D01*
X134315487Y-98362093D01*
X134255055Y-98352522D01*
X134229999Y-98334318D01*
X134215212Y-98319531D01*
X134135288Y-98273386D01*
X134046144Y-98249500D01*
X133953856Y-98249500D01*
X133864712Y-98273386D01*
X133864711Y-98273386D01*
X133864709Y-98273387D01*
X133784790Y-98319529D01*
X133719529Y-98384790D01*
X133673387Y-98464709D01*
X133673386Y-98464711D01*
X133673386Y-98464712D01*
X133649500Y-98553856D01*
X119728828Y-98553856D01*
X119660001Y-98460001D01*
X119540434Y-98349630D01*
X119522693Y-98327821D01*
X119479064Y-98255107D01*
X119466704Y-98222699D01*
X119430000Y-98030000D01*
X119350000Y-97810000D01*
X119280000Y-97660000D01*
X119190000Y-97530000D01*
X119189997Y-97529997D01*
X119040000Y-97399999D01*
X118950002Y-97360000D01*
X118950000Y-97360000D01*
X118890000Y-97360000D01*
X118889999Y-97360000D01*
X118839999Y-97420000D01*
X118790001Y-97609992D01*
X118790000Y-97609997D01*
X118770394Y-97776649D01*
X118769376Y-97783325D01*
X118741247Y-97933347D01*
X118737860Y-97946418D01*
X118735758Y-97952722D01*
X118716281Y-97979099D01*
X118711940Y-97987057D01*
X118709579Y-97988176D01*
X118699414Y-98001945D01*
X118641080Y-98020404D01*
X118622427Y-98018485D01*
X118579992Y-98009998D01*
X118380000Y-97980000D01*
X118379986Y-97979998D01*
X118260011Y-97970000D01*
X118260000Y-97970000D01*
X118170000Y-97970000D01*
X118169998Y-97970000D01*
X118130000Y-97980000D01*
X118150000Y-98030000D01*
X118150001Y-98030001D01*
X118189992Y-98049996D01*
X118190000Y-98050000D01*
X118297349Y-98079277D01*
X118300353Y-98080586D01*
X118302606Y-98080869D01*
X118374235Y-98104746D01*
X118423461Y-98141085D01*
X118441925Y-98199417D01*
X118422576Y-98257463D01*
X118372804Y-98293049D01*
X118329550Y-98296756D01*
X118317396Y-98295099D01*
X118287014Y-98290956D01*
X118273196Y-98288055D01*
X118210002Y-98270000D01*
X118210000Y-98270000D01*
X118150000Y-98270000D01*
X118149999Y-98270000D01*
X118052228Y-98436211D01*
X118047457Y-98443559D01*
X118004762Y-98503332D01*
X117994206Y-98515793D01*
X117956423Y-98553576D01*
X117942505Y-98565152D01*
X117790004Y-98669996D01*
X117659999Y-98780001D01*
X117659997Y-98780003D01*
X117550002Y-98929996D01*
X117459998Y-99080001D01*
X117383814Y-99241895D01*
X117374791Y-99257292D01*
X117372807Y-99260069D01*
X117323595Y-99296426D01*
X117262411Y-99296913D01*
X117237340Y-99284893D01*
X117230000Y-99280000D01*
X117229998Y-99279999D01*
X117120001Y-99260000D01*
X117120000Y-99260000D01*
X117032187Y-99260000D01*
X117008092Y-99257023D01*
X117007824Y-99256956D01*
X117007290Y-99256822D01*
X116960346Y-99229750D01*
X116650002Y-98910001D01*
X116520000Y-98810000D01*
X116460000Y-98770000D01*
X116430000Y-98770000D01*
X116426666Y-98780003D01*
X116420000Y-98800000D01*
X116425070Y-98815212D01*
X116430000Y-98830000D01*
X116679624Y-99089609D01*
X116680431Y-99090460D01*
X116818089Y-99237295D01*
X116836859Y-99266005D01*
X116840818Y-99275242D01*
X116846364Y-99336175D01*
X116827128Y-99376089D01*
X116821350Y-99383311D01*
X116816274Y-99386649D01*
X116815034Y-99388731D01*
X116809515Y-99391096D01*
X116770233Y-99416938D01*
X116720036Y-99417508D01*
X116705187Y-99413796D01*
X116676727Y-99401704D01*
X116450000Y-99260000D01*
X116449995Y-99259998D01*
X116442929Y-99257023D01*
X116331250Y-99210000D01*
X116071733Y-99100729D01*
X116068286Y-99099199D01*
X115920001Y-99030000D01*
X115919997Y-99029998D01*
X115870003Y-99020000D01*
X115869998Y-99020000D01*
X115820000Y-99029999D01*
X113428979Y-99029999D01*
X113102600Y-98464709D01*
X112424215Y-97289746D01*
X112399381Y-97246734D01*
X114689500Y-97246734D01*
X114689500Y-97339022D01*
X114713386Y-97428166D01*
X114759531Y-97508090D01*
X114824788Y-97573347D01*
X114904712Y-97619492D01*
X114993856Y-97643378D01*
X114993858Y-97643378D01*
X115086142Y-97643378D01*
X115086144Y-97643378D01*
X115175288Y-97619492D01*
X115255212Y-97573347D01*
X115320469Y-97508090D01*
X115366614Y-97428166D01*
X115390500Y-97339022D01*
X115390500Y-97246734D01*
X115366614Y-97157590D01*
X115320469Y-97077666D01*
X115255212Y-97012409D01*
X115175288Y-96966264D01*
X115086144Y-96942378D01*
X114993856Y-96942378D01*
X114904712Y-96966264D01*
X114904711Y-96966264D01*
X114904709Y-96966265D01*
X114824790Y-97012407D01*
X114759529Y-97077668D01*
X114713387Y-97157587D01*
X114713386Y-97157589D01*
X114713386Y-97157590D01*
X114689500Y-97246734D01*
X112399381Y-97246734D01*
X111244724Y-95246868D01*
X111219890Y-95203856D01*
X137599500Y-95203856D01*
X137599500Y-95296144D01*
X137623386Y-95385288D01*
X137623387Y-95385290D01*
X137672775Y-95470831D01*
X137671568Y-95471527D01*
X137689587Y-95522407D01*
X137672774Y-95579168D01*
X137672775Y-95579169D01*
X137672772Y-95579172D01*
X137672210Y-95581073D01*
X137669605Y-95584657D01*
X137623387Y-95664709D01*
X137623386Y-95664711D01*
X137623386Y-95664712D01*
X137599500Y-95753856D01*
X137599500Y-95846144D01*
X137623386Y-95935288D01*
X137669531Y-96015212D01*
X137734788Y-96080469D01*
X137814712Y-96126614D01*
X137903856Y-96150500D01*
X137903858Y-96150500D01*
X137996142Y-96150500D01*
X137996144Y-96150500D01*
X138085288Y-96126614D01*
X138165212Y-96080469D01*
X138230469Y-96015212D01*
X138268988Y-95948496D01*
X140218900Y-95948496D01*
X140218900Y-96040784D01*
X140242786Y-96129928D01*
X140288931Y-96209852D01*
X140354188Y-96275109D01*
X140434112Y-96321254D01*
X140523256Y-96345140D01*
X140523258Y-96345140D01*
X140615542Y-96345140D01*
X140615544Y-96345140D01*
X140704688Y-96321254D01*
X140784612Y-96275109D01*
X140849869Y-96209852D01*
X140896014Y-96129928D01*
X140919900Y-96040784D01*
X140919900Y-95948496D01*
X140896014Y-95859352D01*
X140849869Y-95779428D01*
X140784612Y-95714171D01*
X140704688Y-95668026D01*
X140615544Y-95644140D01*
X140523256Y-95644140D01*
X140434112Y-95668026D01*
X140434111Y-95668026D01*
X140434109Y-95668027D01*
X140354190Y-95714169D01*
X140288929Y-95779430D01*
X140242787Y-95859349D01*
X140242786Y-95859351D01*
X140242786Y-95859352D01*
X140218900Y-95948496D01*
X138268988Y-95948496D01*
X138276614Y-95935288D01*
X138300500Y-95846144D01*
X138300500Y-95753856D01*
X138276614Y-95664712D01*
X138230469Y-95584788D01*
X138227225Y-95579169D01*
X138228433Y-95578471D01*
X138210412Y-95527606D01*
X138227781Y-95468938D01*
X138230395Y-95465339D01*
X138230467Y-95465213D01*
X138230469Y-95465212D01*
X138276614Y-95385288D01*
X138300500Y-95296144D01*
X138300500Y-95203856D01*
X138276614Y-95114712D01*
X138257999Y-95082470D01*
X140718900Y-95082470D01*
X140718900Y-95174758D01*
X140742786Y-95263902D01*
X140788931Y-95343826D01*
X140854188Y-95409083D01*
X140934112Y-95455228D01*
X141023256Y-95479114D01*
X141023258Y-95479114D01*
X141115542Y-95479114D01*
X141115544Y-95479114D01*
X141204688Y-95455228D01*
X141284612Y-95409083D01*
X141349869Y-95343826D01*
X141396014Y-95263902D01*
X141419900Y-95174758D01*
X141419900Y-95082470D01*
X141396014Y-94993326D01*
X141349869Y-94913402D01*
X141284612Y-94848145D01*
X141204688Y-94802000D01*
X141115544Y-94778114D01*
X141023256Y-94778114D01*
X140934112Y-94802000D01*
X140934111Y-94802000D01*
X140934109Y-94802001D01*
X140854190Y-94848143D01*
X140788929Y-94913404D01*
X140742787Y-94993323D01*
X140742786Y-94993325D01*
X140742786Y-94993326D01*
X140718900Y-95082470D01*
X138257999Y-95082470D01*
X138230469Y-95034788D01*
X138165212Y-94969531D01*
X138085288Y-94923386D01*
X137996144Y-94899500D01*
X137903856Y-94899500D01*
X137814712Y-94923386D01*
X137814711Y-94923386D01*
X137814709Y-94923387D01*
X137734790Y-94969529D01*
X137669529Y-95034790D01*
X137623387Y-95114709D01*
X137623386Y-95114711D01*
X137623386Y-95114712D01*
X137599500Y-95203856D01*
X111219890Y-95203856D01*
X110667357Y-94246868D01*
X110642523Y-94203856D01*
X133249500Y-94203856D01*
X133249500Y-94296144D01*
X133273386Y-94385288D01*
X133273387Y-94385290D01*
X133280655Y-94397879D01*
X133319531Y-94465212D01*
X133384788Y-94530469D01*
X133464712Y-94576614D01*
X133553856Y-94600500D01*
X133553858Y-94600500D01*
X133646142Y-94600500D01*
X133646144Y-94600500D01*
X133735288Y-94576614D01*
X133815212Y-94530469D01*
X133880469Y-94465212D01*
X133926614Y-94385288D01*
X133950500Y-94296144D01*
X133950500Y-94216445D01*
X141218900Y-94216445D01*
X141218900Y-94308733D01*
X141242786Y-94397877D01*
X141242787Y-94397879D01*
X141281662Y-94465212D01*
X141288931Y-94477801D01*
X141354188Y-94543058D01*
X141434112Y-94589203D01*
X141523256Y-94613089D01*
X141523258Y-94613089D01*
X141615542Y-94613089D01*
X141615544Y-94613089D01*
X141704688Y-94589203D01*
X141784612Y-94543058D01*
X141849869Y-94477801D01*
X141896014Y-94397877D01*
X141919900Y-94308733D01*
X141919900Y-94216445D01*
X141896014Y-94127301D01*
X141849869Y-94047377D01*
X141784612Y-93982120D01*
X141762804Y-93969529D01*
X141704690Y-93935976D01*
X141704689Y-93935975D01*
X141704688Y-93935975D01*
X141615544Y-93912089D01*
X141523256Y-93912089D01*
X141434112Y-93935975D01*
X141434111Y-93935975D01*
X141434109Y-93935976D01*
X141354190Y-93982118D01*
X141288929Y-94047379D01*
X141242787Y-94127298D01*
X141242786Y-94127300D01*
X141242786Y-94127301D01*
X141218900Y-94216445D01*
X133950500Y-94216445D01*
X133950500Y-94203856D01*
X133926614Y-94114712D01*
X133880469Y-94034788D01*
X133815212Y-93969531D01*
X133757092Y-93935975D01*
X133735290Y-93923387D01*
X133735289Y-93923386D01*
X133735288Y-93923386D01*
X133646144Y-93899500D01*
X133553856Y-93899500D01*
X133464712Y-93923386D01*
X133464711Y-93923386D01*
X133464709Y-93923387D01*
X133384790Y-93969529D01*
X133319529Y-94034790D01*
X133273387Y-94114709D01*
X133273386Y-94114711D01*
X133273386Y-94114712D01*
X133249500Y-94203856D01*
X110642523Y-94203856D01*
X110036288Y-93153856D01*
X112549500Y-93153856D01*
X112549500Y-93246144D01*
X112573386Y-93335288D01*
X112573387Y-93335290D01*
X112582122Y-93350420D01*
X112619531Y-93415212D01*
X112684788Y-93480469D01*
X112764712Y-93526614D01*
X112853856Y-93550500D01*
X112853858Y-93550500D01*
X112946142Y-93550500D01*
X112946144Y-93550500D01*
X113035288Y-93526614D01*
X113115212Y-93480469D01*
X113180469Y-93415212D01*
X113217877Y-93350420D01*
X141718900Y-93350420D01*
X141718900Y-93442708D01*
X141742786Y-93531852D01*
X141742787Y-93531854D01*
X141753552Y-93550500D01*
X141788931Y-93611776D01*
X141854188Y-93677033D01*
X141934112Y-93723178D01*
X142023256Y-93747064D01*
X142023258Y-93747064D01*
X142115542Y-93747064D01*
X142115544Y-93747064D01*
X142204688Y-93723178D01*
X142284612Y-93677033D01*
X142349869Y-93611776D01*
X142396014Y-93531852D01*
X142419900Y-93442708D01*
X142419900Y-93350420D01*
X142396014Y-93261276D01*
X142349869Y-93181352D01*
X142284612Y-93116095D01*
X142204688Y-93069950D01*
X142115544Y-93046064D01*
X142023256Y-93046064D01*
X141934112Y-93069950D01*
X141934111Y-93069950D01*
X141934109Y-93069951D01*
X141854190Y-93116093D01*
X141788929Y-93181354D01*
X141742787Y-93261273D01*
X141742786Y-93261275D01*
X141742786Y-93261276D01*
X141718900Y-93350420D01*
X113217877Y-93350420D01*
X113226614Y-93335288D01*
X113250500Y-93246144D01*
X113250500Y-93153856D01*
X113226614Y-93064712D01*
X113180469Y-92984788D01*
X113115212Y-92919531D01*
X113070744Y-92893857D01*
X113035290Y-92873387D01*
X113035289Y-92873386D01*
X113035288Y-92873386D01*
X112946144Y-92849500D01*
X112853856Y-92849500D01*
X112764712Y-92873386D01*
X112764711Y-92873386D01*
X112764709Y-92873387D01*
X112684790Y-92919529D01*
X112619529Y-92984790D01*
X112573387Y-93064709D01*
X112573386Y-93064711D01*
X112573386Y-93064712D01*
X112549500Y-93153856D01*
X110036288Y-93153856D01*
X109628097Y-92446868D01*
X109603263Y-92403856D01*
X112049500Y-92403856D01*
X112049500Y-92496144D01*
X112073386Y-92585288D01*
X112073387Y-92585290D01*
X112117583Y-92661839D01*
X112119531Y-92665212D01*
X112184788Y-92730469D01*
X112264712Y-92776614D01*
X112353856Y-92800500D01*
X112353858Y-92800500D01*
X112446142Y-92800500D01*
X112446144Y-92800500D01*
X112535288Y-92776614D01*
X112615212Y-92730469D01*
X112680469Y-92665212D01*
X112726614Y-92585288D01*
X112740395Y-92533856D01*
X121239500Y-92533856D01*
X121239500Y-92626144D01*
X121254057Y-92680470D01*
X121263387Y-92715290D01*
X121285809Y-92754126D01*
X121309531Y-92795212D01*
X121374788Y-92860469D01*
X121454712Y-92906614D01*
X121543856Y-92930500D01*
X121543858Y-92930500D01*
X121633625Y-92930500D01*
X121691816Y-92949407D01*
X121727780Y-92998907D01*
X121729247Y-93003860D01*
X121746956Y-93069950D01*
X121748387Y-93075290D01*
X121793748Y-93153857D01*
X121794531Y-93155212D01*
X121859788Y-93220469D01*
X121939712Y-93266614D01*
X122028856Y-93290500D01*
X122028858Y-93290500D01*
X122121142Y-93290500D01*
X122121144Y-93290500D01*
X122210288Y-93266614D01*
X122290212Y-93220469D01*
X122355469Y-93155212D01*
X122401614Y-93075288D01*
X122425500Y-92986144D01*
X122425500Y-92893856D01*
X122401614Y-92804712D01*
X122355469Y-92724788D01*
X122290212Y-92659531D01*
X122290058Y-92659442D01*
X122290057Y-92659441D01*
X122290056Y-92659441D01*
X122210290Y-92613387D01*
X122210289Y-92613386D01*
X122210288Y-92613386D01*
X122121144Y-92589500D01*
X122031375Y-92589500D01*
X122002733Y-92580194D01*
X126399500Y-92580194D01*
X126399500Y-92672482D01*
X126423386Y-92761626D01*
X126423387Y-92761628D01*
X126467874Y-92838681D01*
X126469531Y-92841550D01*
X126534788Y-92906807D01*
X126614712Y-92952952D01*
X126703856Y-92976838D01*
X126703858Y-92976838D01*
X126796142Y-92976838D01*
X126796144Y-92976838D01*
X126885288Y-92952952D01*
X126965212Y-92906807D01*
X127030469Y-92841550D01*
X127076614Y-92761626D01*
X127100500Y-92672482D01*
X127100500Y-92580194D01*
X127093443Y-92553856D01*
X127649500Y-92553856D01*
X127649500Y-92646144D01*
X127671062Y-92726614D01*
X127673387Y-92735290D01*
X127713468Y-92804712D01*
X127719531Y-92815212D01*
X127784788Y-92880469D01*
X127864712Y-92926614D01*
X127953856Y-92950500D01*
X127953858Y-92950500D01*
X128046142Y-92950500D01*
X128046144Y-92950500D01*
X128135288Y-92926614D01*
X128215212Y-92880469D01*
X128254998Y-92840682D01*
X128309513Y-92812907D01*
X128369945Y-92822478D01*
X128395000Y-92840681D01*
X128434788Y-92880469D01*
X128514712Y-92926614D01*
X128603856Y-92950500D01*
X128603858Y-92950500D01*
X128696142Y-92950500D01*
X128696144Y-92950500D01*
X128785288Y-92926614D01*
X128865212Y-92880469D01*
X128930469Y-92815212D01*
X128976614Y-92735288D01*
X129000500Y-92646144D01*
X129000500Y-92553856D01*
X128976614Y-92464712D01*
X128930469Y-92384788D01*
X128865212Y-92319531D01*
X128862522Y-92317978D01*
X128785290Y-92273387D01*
X128785289Y-92273386D01*
X128785288Y-92273386D01*
X128696144Y-92249500D01*
X128603856Y-92249500D01*
X128514712Y-92273386D01*
X128514711Y-92273386D01*
X128514709Y-92273387D01*
X128434790Y-92319529D01*
X128434788Y-92319530D01*
X128434788Y-92319531D01*
X128395001Y-92359317D01*
X128340487Y-92387093D01*
X128280055Y-92377522D01*
X128254999Y-92359318D01*
X128215212Y-92319531D01*
X128212522Y-92317978D01*
X128135290Y-92273387D01*
X128135289Y-92273386D01*
X128135288Y-92273386D01*
X128046144Y-92249500D01*
X127953856Y-92249500D01*
X127864712Y-92273386D01*
X127864711Y-92273386D01*
X127864709Y-92273387D01*
X127784790Y-92319529D01*
X127719529Y-92384790D01*
X127673387Y-92464709D01*
X127673386Y-92464711D01*
X127673386Y-92464712D01*
X127649500Y-92553856D01*
X127093443Y-92553856D01*
X127076614Y-92491050D01*
X127030469Y-92411126D01*
X126965212Y-92345869D01*
X126916904Y-92317978D01*
X126885290Y-92299725D01*
X126885289Y-92299724D01*
X126885288Y-92299724D01*
X126796144Y-92275838D01*
X126703856Y-92275838D01*
X126614712Y-92299724D01*
X126614711Y-92299724D01*
X126614709Y-92299725D01*
X126534790Y-92345867D01*
X126469529Y-92411128D01*
X126423387Y-92491047D01*
X126423386Y-92491049D01*
X126423386Y-92491050D01*
X126399500Y-92580194D01*
X122002733Y-92580194D01*
X121973184Y-92570593D01*
X121937220Y-92521093D01*
X121935748Y-92516123D01*
X121935504Y-92515212D01*
X121916614Y-92444712D01*
X121870469Y-92364788D01*
X121805212Y-92299531D01*
X121776907Y-92283189D01*
X121725290Y-92253387D01*
X121725289Y-92253386D01*
X121725288Y-92253386D01*
X121636144Y-92229500D01*
X121543856Y-92229500D01*
X121454712Y-92253386D01*
X121454711Y-92253386D01*
X121454709Y-92253387D01*
X121374790Y-92299529D01*
X121309529Y-92364790D01*
X121263387Y-92444709D01*
X121263386Y-92444711D01*
X121263386Y-92444712D01*
X121239500Y-92533856D01*
X112740395Y-92533856D01*
X112750500Y-92496144D01*
X112750500Y-92403856D01*
X112726614Y-92314712D01*
X112680469Y-92234788D01*
X112615212Y-92169531D01*
X112606865Y-92164712D01*
X112535290Y-92123387D01*
X112535289Y-92123386D01*
X112535288Y-92123386D01*
X112446144Y-92099500D01*
X112353856Y-92099500D01*
X112264712Y-92123386D01*
X112264711Y-92123386D01*
X112264709Y-92123387D01*
X112184790Y-92169529D01*
X112119529Y-92234790D01*
X112073387Y-92314709D01*
X112073386Y-92314711D01*
X112073386Y-92314712D01*
X112049500Y-92403856D01*
X109603263Y-92403856D01*
X109382698Y-92021838D01*
X129593205Y-92021838D01*
X129593205Y-92114126D01*
X129616336Y-92200451D01*
X129617092Y-92203272D01*
X129663233Y-92283190D01*
X129663236Y-92283194D01*
X129698022Y-92317980D01*
X129725798Y-92372495D01*
X129716227Y-92432927D01*
X129698023Y-92457982D01*
X129671612Y-92484394D01*
X129663234Y-92492772D01*
X129617092Y-92572691D01*
X129617091Y-92572693D01*
X129617091Y-92572694D01*
X129593205Y-92661838D01*
X129593205Y-92754126D01*
X129617091Y-92843270D01*
X129617092Y-92843272D01*
X129627021Y-92860470D01*
X129663236Y-92923194D01*
X129728493Y-92988451D01*
X129808417Y-93034596D01*
X129897561Y-93058482D01*
X129897563Y-93058482D01*
X129989847Y-93058482D01*
X129989849Y-93058482D01*
X130078993Y-93034596D01*
X130158917Y-92988451D01*
X130224174Y-92923194D01*
X130241113Y-92893856D01*
X130272969Y-92838681D01*
X130318439Y-92797740D01*
X130379289Y-92791345D01*
X130432277Y-92821937D01*
X130444441Y-92838681D01*
X130493232Y-92923189D01*
X130493234Y-92923191D01*
X130493236Y-92923194D01*
X130558493Y-92988451D01*
X130638417Y-93034596D01*
X130727561Y-93058482D01*
X130727563Y-93058482D01*
X130819847Y-93058482D01*
X130819849Y-93058482D01*
X130908993Y-93034596D01*
X130988917Y-92988451D01*
X131054174Y-92923194D01*
X131100319Y-92843270D01*
X131124205Y-92754126D01*
X131124205Y-92661838D01*
X131100319Y-92572694D01*
X131054174Y-92492770D01*
X131019387Y-92457983D01*
X130991612Y-92403469D01*
X131001183Y-92343037D01*
X131008655Y-92330690D01*
X131013485Y-92323882D01*
X131054174Y-92283194D01*
X131071113Y-92253856D01*
X132149500Y-92253856D01*
X132149500Y-92346144D01*
X132173386Y-92435288D01*
X132173387Y-92435290D01*
X132208520Y-92496142D01*
X132219531Y-92515212D01*
X132284788Y-92580469D01*
X132364712Y-92626614D01*
X132453856Y-92650500D01*
X132453858Y-92650500D01*
X132546142Y-92650500D01*
X132546144Y-92650500D01*
X132635288Y-92626614D01*
X132715212Y-92580469D01*
X132780469Y-92515212D01*
X132826614Y-92435288D01*
X132848434Y-92353856D01*
X133899500Y-92353856D01*
X133899500Y-92446144D01*
X133923003Y-92533857D01*
X133923387Y-92535290D01*
X133968476Y-92613386D01*
X133969531Y-92615212D01*
X134034788Y-92680469D01*
X134114712Y-92726614D01*
X134203856Y-92750500D01*
X134203858Y-92750500D01*
X134296142Y-92750500D01*
X134296144Y-92750500D01*
X134385288Y-92726614D01*
X134465212Y-92680469D01*
X134530469Y-92615212D01*
X134576614Y-92535288D01*
X134590251Y-92484394D01*
X142218900Y-92484394D01*
X142218900Y-92576682D01*
X142242786Y-92665826D01*
X142242787Y-92665828D01*
X142282890Y-92735288D01*
X142288931Y-92745750D01*
X142354188Y-92811007D01*
X142434112Y-92857152D01*
X142523256Y-92881038D01*
X142523258Y-92881038D01*
X142615542Y-92881038D01*
X142615544Y-92881038D01*
X142704688Y-92857152D01*
X142784612Y-92811007D01*
X142849869Y-92745750D01*
X142896014Y-92665826D01*
X142919900Y-92576682D01*
X142919900Y-92484394D01*
X142896014Y-92395250D01*
X142849869Y-92315326D01*
X142784612Y-92250069D01*
X142783626Y-92249500D01*
X142704690Y-92203925D01*
X142704689Y-92203924D01*
X142704688Y-92203924D01*
X142615544Y-92180038D01*
X142523256Y-92180038D01*
X142434112Y-92203924D01*
X142434111Y-92203924D01*
X142434109Y-92203925D01*
X142354190Y-92250067D01*
X142288929Y-92315328D01*
X142242787Y-92395247D01*
X142242786Y-92395249D01*
X142242786Y-92395250D01*
X142218900Y-92484394D01*
X134590251Y-92484394D01*
X134600500Y-92446144D01*
X134600500Y-92353856D01*
X134576614Y-92264712D01*
X134530469Y-92184788D01*
X134465212Y-92119531D01*
X134455850Y-92114126D01*
X134385290Y-92073387D01*
X134385289Y-92073386D01*
X134385288Y-92073386D01*
X134296144Y-92049500D01*
X134203856Y-92049500D01*
X134114712Y-92073386D01*
X134114711Y-92073386D01*
X134114709Y-92073387D01*
X134034790Y-92119529D01*
X133969529Y-92184790D01*
X133923387Y-92264709D01*
X133923386Y-92264711D01*
X133923386Y-92264712D01*
X133899500Y-92353856D01*
X132848434Y-92353856D01*
X132850500Y-92346144D01*
X132850500Y-92253856D01*
X132826614Y-92164712D01*
X132780469Y-92084788D01*
X132715212Y-92019531D01*
X132635288Y-91973386D01*
X132546144Y-91949500D01*
X132453856Y-91949500D01*
X132364712Y-91973386D01*
X132364711Y-91973386D01*
X132364709Y-91973387D01*
X132284790Y-92019529D01*
X132219529Y-92084790D01*
X132173387Y-92164709D01*
X132173386Y-92164711D01*
X132173386Y-92164712D01*
X132149500Y-92253856D01*
X131071113Y-92253856D01*
X131100319Y-92203270D01*
X131124205Y-92114126D01*
X131124205Y-92021838D01*
X131100319Y-91932694D01*
X131054174Y-91852770D01*
X130988917Y-91787513D01*
X130950291Y-91765212D01*
X130908995Y-91741369D01*
X130908994Y-91741368D01*
X130908993Y-91741368D01*
X130819849Y-91717482D01*
X130727561Y-91717482D01*
X130638417Y-91741368D01*
X130638416Y-91741368D01*
X130638414Y-91741369D01*
X130558495Y-91787511D01*
X130493234Y-91852772D01*
X130444441Y-91937283D01*
X130398971Y-91978223D01*
X130338121Y-91984618D01*
X130285133Y-91954025D01*
X130272969Y-91937283D01*
X130224175Y-91852772D01*
X130224174Y-91852770D01*
X130158917Y-91787513D01*
X130120291Y-91765212D01*
X130078995Y-91741369D01*
X130078994Y-91741368D01*
X130078993Y-91741368D01*
X129989849Y-91717482D01*
X129897561Y-91717482D01*
X129808417Y-91741368D01*
X129808416Y-91741368D01*
X129808414Y-91741369D01*
X129728495Y-91787511D01*
X129663234Y-91852772D01*
X129617092Y-91932691D01*
X129617091Y-91932693D01*
X129617091Y-91932694D01*
X129593205Y-92021838D01*
X109382698Y-92021838D01*
X109083632Y-91503856D01*
X134999500Y-91503856D01*
X134999500Y-91596144D01*
X135023386Y-91685288D01*
X135023387Y-91685290D01*
X135041973Y-91717482D01*
X135069531Y-91765212D01*
X135134788Y-91830469D01*
X135214712Y-91876614D01*
X135303856Y-91900500D01*
X135303858Y-91900500D01*
X135396142Y-91900500D01*
X135396144Y-91900500D01*
X135485288Y-91876614D01*
X135565212Y-91830469D01*
X135630469Y-91765212D01*
X135676614Y-91685288D01*
X135700500Y-91596144D01*
X135700500Y-91508495D01*
X136094861Y-91508495D01*
X136094861Y-91600783D01*
X136117504Y-91685288D01*
X136118748Y-91689929D01*
X136162213Y-91765212D01*
X136164892Y-91769851D01*
X136230149Y-91835108D01*
X136310073Y-91881253D01*
X136399217Y-91905139D01*
X136399219Y-91905139D01*
X136491503Y-91905139D01*
X136491505Y-91905139D01*
X136580649Y-91881253D01*
X136660573Y-91835108D01*
X136725830Y-91769851D01*
X136771975Y-91689927D01*
X136795861Y-91600783D01*
X136795861Y-91508495D01*
X136771975Y-91419351D01*
X136725830Y-91339427D01*
X136660573Y-91274170D01*
X136652538Y-91269531D01*
X136580651Y-91228026D01*
X136580650Y-91228025D01*
X136580649Y-91228025D01*
X136491505Y-91204139D01*
X136399217Y-91204139D01*
X136310073Y-91228025D01*
X136310072Y-91228025D01*
X136310070Y-91228026D01*
X136230151Y-91274168D01*
X136164890Y-91339429D01*
X136118748Y-91419348D01*
X136118747Y-91419350D01*
X136118747Y-91419351D01*
X136094861Y-91508495D01*
X135700500Y-91508495D01*
X135700500Y-91503856D01*
X135676614Y-91414712D01*
X135630469Y-91334788D01*
X135565212Y-91269531D01*
X135505902Y-91235288D01*
X135485290Y-91223387D01*
X135485289Y-91223386D01*
X135485288Y-91223386D01*
X135396144Y-91199500D01*
X135303856Y-91199500D01*
X135214712Y-91223386D01*
X135214711Y-91223386D01*
X135214709Y-91223387D01*
X135134790Y-91269529D01*
X135069529Y-91334790D01*
X135023387Y-91414709D01*
X135023386Y-91414711D01*
X135023386Y-91414712D01*
X134999500Y-91503856D01*
X109083632Y-91503856D01*
X108848651Y-91096868D01*
X108823817Y-91053856D01*
X124779500Y-91053856D01*
X124779500Y-91146144D01*
X124802095Y-91230469D01*
X124803387Y-91235290D01*
X124823156Y-91269531D01*
X124849531Y-91315212D01*
X124914788Y-91380469D01*
X124994712Y-91426614D01*
X125083856Y-91450500D01*
X125083858Y-91450500D01*
X125176142Y-91450500D01*
X125176144Y-91450500D01*
X125265288Y-91426614D01*
X125345212Y-91380469D01*
X125410469Y-91315212D01*
X125456614Y-91235288D01*
X125480500Y-91146144D01*
X125480500Y-91053856D01*
X125456614Y-90964712D01*
X125410469Y-90884788D01*
X125345212Y-90819531D01*
X125336865Y-90814712D01*
X125265290Y-90773387D01*
X125265289Y-90773386D01*
X125265288Y-90773386D01*
X125176144Y-90749500D01*
X125083856Y-90749500D01*
X124994712Y-90773386D01*
X124994711Y-90773386D01*
X124994709Y-90773387D01*
X124914790Y-90819529D01*
X124849529Y-90884790D01*
X124803387Y-90964709D01*
X124803386Y-90964711D01*
X124803386Y-90964712D01*
X124779500Y-91053856D01*
X108823817Y-91053856D01*
X108531099Y-90546868D01*
X108506265Y-90503856D01*
X142799500Y-90503856D01*
X142799500Y-90596144D01*
X142819164Y-90669531D01*
X142823387Y-90685290D01*
X142860459Y-90749500D01*
X142869531Y-90765212D01*
X142934788Y-90830469D01*
X143014712Y-90876614D01*
X143103856Y-90900500D01*
X143103858Y-90900500D01*
X143196142Y-90900500D01*
X143196144Y-90900500D01*
X143285288Y-90876614D01*
X143300999Y-90867542D01*
X143360846Y-90854821D01*
X143416743Y-90879706D01*
X143447336Y-90932694D01*
X143449500Y-90953279D01*
X143449500Y-90996144D01*
X143473386Y-91085288D01*
X143473387Y-91085290D01*
X143508520Y-91146142D01*
X143519531Y-91165212D01*
X143584788Y-91230469D01*
X143664712Y-91276614D01*
X143753856Y-91300500D01*
X143753858Y-91300500D01*
X143846142Y-91300500D01*
X143846144Y-91300500D01*
X143935288Y-91276614D01*
X144015212Y-91230469D01*
X144080469Y-91165212D01*
X144126614Y-91085288D01*
X144150500Y-90996144D01*
X144150500Y-90903856D01*
X144126614Y-90814712D01*
X144080469Y-90734788D01*
X144015212Y-90669531D01*
X143973032Y-90645178D01*
X143935290Y-90623387D01*
X143935289Y-90623386D01*
X143935288Y-90623386D01*
X143846144Y-90599500D01*
X143753856Y-90599500D01*
X143676266Y-90620290D01*
X143664708Y-90623387D01*
X143648999Y-90632457D01*
X143589150Y-90645178D01*
X143533255Y-90620290D01*
X143502663Y-90567302D01*
X143500500Y-90546720D01*
X143500500Y-90503857D01*
X143500500Y-90503856D01*
X143476614Y-90414712D01*
X143430469Y-90334788D01*
X143365212Y-90269531D01*
X143285288Y-90223386D01*
X143196144Y-90199500D01*
X143103856Y-90199500D01*
X143014712Y-90223386D01*
X143014711Y-90223386D01*
X143014709Y-90223387D01*
X142934790Y-90269529D01*
X142869529Y-90334790D01*
X142823387Y-90414709D01*
X142823386Y-90414711D01*
X142823386Y-90414712D01*
X142799500Y-90503856D01*
X108506265Y-90503856D01*
X108213076Y-89996052D01*
X108188242Y-89953040D01*
X113704455Y-89953040D01*
X113704455Y-90045328D01*
X113704885Y-90046931D01*
X113728342Y-90134474D01*
X113765885Y-90199500D01*
X113774486Y-90214396D01*
X113839743Y-90279653D01*
X113919667Y-90325798D01*
X114008811Y-90349684D01*
X114008813Y-90349684D01*
X114101097Y-90349684D01*
X114101099Y-90349684D01*
X114190243Y-90325798D01*
X114270167Y-90279653D01*
X114335424Y-90214396D01*
X114381569Y-90134472D01*
X114405455Y-90045328D01*
X114405455Y-89954643D01*
X127269500Y-89954643D01*
X127269500Y-90046931D01*
X127292957Y-90134474D01*
X127293387Y-90136077D01*
X127338603Y-90214393D01*
X127339531Y-90215999D01*
X127404788Y-90281256D01*
X127484712Y-90327401D01*
X127573856Y-90351287D01*
X127573858Y-90351287D01*
X127666142Y-90351287D01*
X127666144Y-90351287D01*
X127755288Y-90327401D01*
X127835212Y-90281256D01*
X127900469Y-90215999D01*
X127946614Y-90136075D01*
X127970500Y-90046931D01*
X127970500Y-89954643D01*
X127946614Y-89865499D01*
X127900469Y-89785575D01*
X127835212Y-89720318D01*
X127832432Y-89718713D01*
X127755290Y-89674174D01*
X127755289Y-89674173D01*
X127755288Y-89674173D01*
X127666144Y-89650287D01*
X127573856Y-89650287D01*
X127484712Y-89674173D01*
X127484711Y-89674173D01*
X127484709Y-89674174D01*
X127404790Y-89720316D01*
X127339529Y-89785577D01*
X127293387Y-89865496D01*
X127293386Y-89865498D01*
X127293386Y-89865499D01*
X127269500Y-89954643D01*
X114405455Y-89954643D01*
X114405455Y-89953040D01*
X114381569Y-89863896D01*
X114335424Y-89783972D01*
X114270167Y-89718715D01*
X114193019Y-89674173D01*
X114190245Y-89672571D01*
X114190244Y-89672570D01*
X114190243Y-89672570D01*
X114101099Y-89648684D01*
X114008811Y-89648684D01*
X113919667Y-89672570D01*
X113919666Y-89672570D01*
X113919664Y-89672571D01*
X113839745Y-89718713D01*
X113774484Y-89783974D01*
X113728342Y-89863893D01*
X113728341Y-89863895D01*
X113728341Y-89863896D01*
X113704455Y-89953040D01*
X108188242Y-89953040D01*
X107751653Y-89196868D01*
X107726819Y-89153856D01*
X115049500Y-89153856D01*
X115049500Y-89246144D01*
X115073386Y-89335288D01*
X115073387Y-89335290D01*
X115106735Y-89393050D01*
X115119531Y-89415212D01*
X115184788Y-89480469D01*
X115264712Y-89526614D01*
X115353856Y-89550500D01*
X115353858Y-89550500D01*
X115446142Y-89550500D01*
X115446144Y-89550500D01*
X115535288Y-89526614D01*
X115615212Y-89480469D01*
X115680469Y-89415212D01*
X115726614Y-89335288D01*
X115750500Y-89246144D01*
X115750500Y-89203856D01*
X134099500Y-89203856D01*
X134099500Y-89296144D01*
X134123386Y-89385288D01*
X134169531Y-89465212D01*
X134234788Y-89530469D01*
X134314712Y-89576614D01*
X134403856Y-89600500D01*
X134403858Y-89600500D01*
X134496142Y-89600500D01*
X134496144Y-89600500D01*
X134585288Y-89576614D01*
X134665212Y-89530469D01*
X134730469Y-89465212D01*
X134776614Y-89385288D01*
X134800500Y-89296144D01*
X134800500Y-89203856D01*
X136199500Y-89203856D01*
X136199500Y-89296144D01*
X136223386Y-89385288D01*
X136269531Y-89465212D01*
X136334788Y-89530469D01*
X136414712Y-89576614D01*
X136503856Y-89600500D01*
X136503858Y-89600500D01*
X136596142Y-89600500D01*
X136596144Y-89600500D01*
X136685288Y-89576614D01*
X136765212Y-89530469D01*
X136830469Y-89465212D01*
X136876614Y-89385288D01*
X136900500Y-89296144D01*
X136900500Y-89203856D01*
X136876614Y-89114712D01*
X136846932Y-89063302D01*
X136830472Y-89034792D01*
X136830470Y-89034790D01*
X136830469Y-89034788D01*
X136815973Y-89020292D01*
X144218900Y-89020292D01*
X144218900Y-89112580D01*
X144241485Y-89196868D01*
X144242787Y-89201726D01*
X144244017Y-89203857D01*
X144288931Y-89281648D01*
X144354188Y-89346905D01*
X144434112Y-89393050D01*
X144523256Y-89416936D01*
X144523258Y-89416936D01*
X144615542Y-89416936D01*
X144615544Y-89416936D01*
X144704688Y-89393050D01*
X144784612Y-89346905D01*
X144849869Y-89281648D01*
X144896014Y-89201724D01*
X144919900Y-89112580D01*
X144919900Y-89020292D01*
X144896014Y-88931148D01*
X144849869Y-88851224D01*
X144784612Y-88785967D01*
X144784609Y-88785965D01*
X144779652Y-88783103D01*
X144704690Y-88739823D01*
X144704689Y-88739822D01*
X144704688Y-88739822D01*
X144615544Y-88715936D01*
X144523256Y-88715936D01*
X144434112Y-88739822D01*
X144434111Y-88739822D01*
X144434109Y-88739823D01*
X144354190Y-88785965D01*
X144288929Y-88851226D01*
X144242787Y-88931145D01*
X144242786Y-88931147D01*
X144242786Y-88931148D01*
X144218900Y-89020292D01*
X136815973Y-89020292D01*
X136765212Y-88969531D01*
X136757731Y-88965212D01*
X136685290Y-88923387D01*
X136685289Y-88923386D01*
X136685288Y-88923386D01*
X136596144Y-88899500D01*
X136503856Y-88899500D01*
X136414712Y-88923386D01*
X136414711Y-88923386D01*
X136414709Y-88923387D01*
X136334790Y-88969529D01*
X136269529Y-89034790D01*
X136223387Y-89114709D01*
X136223386Y-89114711D01*
X136223386Y-89114712D01*
X136199500Y-89203856D01*
X134800500Y-89203856D01*
X134776614Y-89114712D01*
X134730469Y-89034788D01*
X134665212Y-88969531D01*
X134657731Y-88965212D01*
X134585290Y-88923387D01*
X134585289Y-88923386D01*
X134585288Y-88923386D01*
X134496144Y-88899500D01*
X134403856Y-88899500D01*
X134314712Y-88923386D01*
X134314711Y-88923386D01*
X134314709Y-88923387D01*
X134234790Y-88969529D01*
X134169529Y-89034790D01*
X134123387Y-89114709D01*
X134123386Y-89114711D01*
X134123386Y-89114712D01*
X134099500Y-89203856D01*
X115750500Y-89203856D01*
X115750500Y-89153856D01*
X115726614Y-89064712D01*
X115680469Y-88984788D01*
X115615212Y-88919531D01*
X115555902Y-88885288D01*
X115535290Y-88873387D01*
X115535289Y-88873386D01*
X115535288Y-88873386D01*
X115446144Y-88849500D01*
X115353856Y-88849500D01*
X115264712Y-88873386D01*
X115264711Y-88873386D01*
X115264709Y-88873387D01*
X115184790Y-88919529D01*
X115119529Y-88984790D01*
X115073387Y-89064709D01*
X115073386Y-89064711D01*
X115073386Y-89064712D01*
X115049500Y-89153856D01*
X107726819Y-89153856D01*
X107467004Y-88703856D01*
X145249500Y-88703856D01*
X145249500Y-88796144D01*
X145273386Y-88885288D01*
X145273387Y-88885290D01*
X145293156Y-88919531D01*
X145319531Y-88965212D01*
X145384788Y-89030469D01*
X145464712Y-89076614D01*
X145553856Y-89100500D01*
X145553858Y-89100500D01*
X145646142Y-89100500D01*
X145646144Y-89100500D01*
X145735288Y-89076614D01*
X145815212Y-89030469D01*
X145880469Y-88965212D01*
X145926614Y-88885288D01*
X145950500Y-88796144D01*
X145950500Y-88703856D01*
X145926614Y-88614712D01*
X145880469Y-88534788D01*
X145815212Y-88469531D01*
X145790856Y-88455469D01*
X145735290Y-88423387D01*
X145735289Y-88423386D01*
X145735288Y-88423386D01*
X145646144Y-88399500D01*
X145553856Y-88399500D01*
X145464712Y-88423386D01*
X145464711Y-88423386D01*
X145464709Y-88423387D01*
X145384790Y-88469529D01*
X145319529Y-88534790D01*
X145273387Y-88614709D01*
X145273386Y-88614711D01*
X145273386Y-88614712D01*
X145249500Y-88703856D01*
X107467004Y-88703856D01*
X107159852Y-88171868D01*
X107135018Y-88128856D01*
X109949500Y-88128856D01*
X109949500Y-88221144D01*
X109973386Y-88310288D01*
X110019531Y-88390212D01*
X110084788Y-88455469D01*
X110164712Y-88501614D01*
X110253856Y-88525500D01*
X110253858Y-88525500D01*
X110346142Y-88525500D01*
X110346144Y-88525500D01*
X110435288Y-88501614D01*
X110515212Y-88455469D01*
X110580469Y-88390212D01*
X110626614Y-88310288D01*
X110650500Y-88221144D01*
X110650500Y-88128856D01*
X110626614Y-88039712D01*
X110580469Y-87959788D01*
X110515212Y-87894531D01*
X110490856Y-87880469D01*
X110435290Y-87848387D01*
X110435289Y-87848386D01*
X110435288Y-87848386D01*
X110346144Y-87824500D01*
X110253856Y-87824500D01*
X110164712Y-87848386D01*
X110164711Y-87848386D01*
X110164709Y-87848387D01*
X110084790Y-87894529D01*
X110019529Y-87959790D01*
X109973387Y-88039709D01*
X109973386Y-88039711D01*
X109973386Y-88039712D01*
X109949500Y-88128856D01*
X107135018Y-88128856D01*
X106712392Y-87396868D01*
X106687558Y-87353856D01*
X109379500Y-87353856D01*
X109379500Y-87446144D01*
X109403386Y-87535288D01*
X109403387Y-87535290D01*
X109443617Y-87604970D01*
X109449531Y-87615212D01*
X109514788Y-87680469D01*
X109594712Y-87726614D01*
X109683856Y-87750500D01*
X109683858Y-87750500D01*
X109776142Y-87750500D01*
X109776144Y-87750500D01*
X109865288Y-87726614D01*
X109945212Y-87680469D01*
X110010469Y-87615212D01*
X110056614Y-87535288D01*
X110080500Y-87446144D01*
X110080500Y-87353856D01*
X110056614Y-87264712D01*
X110010469Y-87184788D01*
X109945212Y-87119531D01*
X109936089Y-87114264D01*
X109865290Y-87073387D01*
X109865289Y-87073386D01*
X109865288Y-87073386D01*
X109776144Y-87049500D01*
X109683856Y-87049500D01*
X109594712Y-87073386D01*
X109594711Y-87073386D01*
X109594709Y-87073387D01*
X109514790Y-87119529D01*
X109449529Y-87184790D01*
X109403387Y-87264709D01*
X109403386Y-87264711D01*
X109403386Y-87264712D01*
X109379500Y-87353856D01*
X106687558Y-87353856D01*
X105896861Y-85984368D01*
X105872027Y-85941356D01*
X108737000Y-85941356D01*
X108737000Y-86033644D01*
X108760886Y-86122788D01*
X108781110Y-86157817D01*
X108793079Y-86191363D01*
X108833746Y-86440446D01*
X108824463Y-86500923D01*
X108821776Y-86505899D01*
X108773387Y-86589709D01*
X108773386Y-86589711D01*
X108773386Y-86589712D01*
X108749500Y-86678856D01*
X108749500Y-86771144D01*
X108773183Y-86859529D01*
X108773387Y-86860290D01*
X108811851Y-86926911D01*
X108819531Y-86940212D01*
X108884788Y-87005469D01*
X108964712Y-87051614D01*
X109053856Y-87075500D01*
X109053858Y-87075500D01*
X109146142Y-87075500D01*
X109146144Y-87075500D01*
X109235288Y-87051614D01*
X109315212Y-87005469D01*
X109380469Y-86940212D01*
X109426614Y-86860288D01*
X109430718Y-86844966D01*
X109454755Y-86802208D01*
X109872649Y-86364725D01*
X117748147Y-86364725D01*
X117748147Y-86589110D01*
X117783245Y-86810718D01*
X117852584Y-87024120D01*
X117952687Y-87220584D01*
X117954450Y-87224043D01*
X118086336Y-87405569D01*
X118244996Y-87564229D01*
X118426522Y-87696115D01*
X118626445Y-87797981D01*
X118839842Y-87867318D01*
X118839843Y-87867318D01*
X118839846Y-87867319D01*
X119061455Y-87902418D01*
X119061458Y-87902418D01*
X119285839Y-87902418D01*
X119507447Y-87867319D01*
X119507448Y-87867318D01*
X119507452Y-87867318D01*
X119702768Y-87803856D01*
X124459500Y-87803856D01*
X124459500Y-87896144D01*
X124476554Y-87959790D01*
X124483387Y-87985290D01*
X124514806Y-88039709D01*
X124529531Y-88065212D01*
X124594788Y-88130469D01*
X124674712Y-88176614D01*
X124763856Y-88200500D01*
X124763858Y-88200500D01*
X124856142Y-88200500D01*
X124856144Y-88200500D01*
X124945288Y-88176614D01*
X125025212Y-88130469D01*
X125090469Y-88065212D01*
X125136614Y-87985288D01*
X125160500Y-87896144D01*
X125160500Y-87803856D01*
X125136614Y-87714712D01*
X125090469Y-87634788D01*
X125025212Y-87569531D01*
X124998064Y-87553857D01*
X124945290Y-87523387D01*
X124945289Y-87523386D01*
X124945288Y-87523386D01*
X124856144Y-87499500D01*
X124763856Y-87499500D01*
X124674712Y-87523386D01*
X124674711Y-87523386D01*
X124674709Y-87523387D01*
X124594790Y-87569529D01*
X124529529Y-87634790D01*
X124483387Y-87714709D01*
X124483386Y-87714711D01*
X124483386Y-87714712D01*
X124459500Y-87803856D01*
X119702768Y-87803856D01*
X119720849Y-87797981D01*
X119870074Y-87721946D01*
X119895176Y-87709157D01*
X119895179Y-87709156D01*
X119920761Y-87696121D01*
X119920768Y-87696117D01*
X119920767Y-87696117D01*
X119920772Y-87696115D01*
X120102298Y-87564229D01*
X120260958Y-87405569D01*
X120392844Y-87224043D01*
X120494710Y-87024120D01*
X120564047Y-86810723D01*
X120564048Y-86810718D01*
X120599147Y-86589110D01*
X120599147Y-86364725D01*
X120564048Y-86143117D01*
X120564047Y-86143113D01*
X120494710Y-85929716D01*
X120392844Y-85729793D01*
X120260958Y-85548267D01*
X120102298Y-85389607D01*
X119920772Y-85257721D01*
X119920771Y-85257720D01*
X119920769Y-85257719D01*
X119720849Y-85155855D01*
X119507447Y-85086516D01*
X119285839Y-85051418D01*
X119285836Y-85051418D01*
X119061458Y-85051418D01*
X119061455Y-85051418D01*
X118839846Y-85086516D01*
X118626444Y-85155855D01*
X118426524Y-85257719D01*
X118244997Y-85389606D01*
X118086335Y-85548268D01*
X117954448Y-85729795D01*
X117852584Y-85929715D01*
X117783245Y-86143117D01*
X117748147Y-86364725D01*
X109872649Y-86364725D01*
X109944836Y-86289154D01*
X109966924Y-86271801D01*
X109995212Y-86255469D01*
X110060469Y-86190212D01*
X110106614Y-86110288D01*
X110130500Y-86021144D01*
X110130500Y-85928856D01*
X110106614Y-85839712D01*
X110060469Y-85759788D01*
X109995212Y-85694531D01*
X109958590Y-85673387D01*
X109915290Y-85648387D01*
X109915289Y-85648386D01*
X109915288Y-85648386D01*
X109826144Y-85624500D01*
X109733856Y-85624500D01*
X109644712Y-85648386D01*
X109644711Y-85648386D01*
X109644709Y-85648387D01*
X109564790Y-85694529D01*
X109564788Y-85694530D01*
X109564788Y-85694531D01*
X109499531Y-85759788D01*
X109499529Y-85759790D01*
X109497504Y-85761816D01*
X109442987Y-85789593D01*
X109382555Y-85780022D01*
X109357499Y-85761818D01*
X109302712Y-85707031D01*
X109281058Y-85694529D01*
X109222790Y-85660887D01*
X109222789Y-85660886D01*
X109222788Y-85660886D01*
X109133644Y-85637000D01*
X109041356Y-85637000D01*
X108952212Y-85660886D01*
X108952211Y-85660886D01*
X108952209Y-85660887D01*
X108872290Y-85707029D01*
X108807029Y-85772290D01*
X108760887Y-85852209D01*
X108760886Y-85852211D01*
X108760886Y-85852212D01*
X108737000Y-85941356D01*
X105872027Y-85941356D01*
X104273015Y-83171868D01*
X104248181Y-83128856D01*
X128074500Y-83128856D01*
X128074500Y-83221144D01*
X128098386Y-83310288D01*
X128098388Y-83310293D01*
X128100870Y-83316283D01*
X128099282Y-83316940D01*
X128110000Y-83356930D01*
X128110000Y-83901634D01*
X128106627Y-83927255D01*
X128099500Y-83953853D01*
X128099500Y-83953856D01*
X128099500Y-84046144D01*
X128121062Y-84126614D01*
X128123387Y-84135290D01*
X128151966Y-84184790D01*
X128169531Y-84215212D01*
X128234788Y-84280469D01*
X128234790Y-84280470D01*
X128234791Y-84280471D01*
X128239937Y-84284420D01*
X128239140Y-84285457D01*
X128275439Y-84325767D01*
X128276338Y-84327851D01*
X128550183Y-84982835D01*
X128557815Y-85018598D01*
X128559805Y-85099822D01*
X128556463Y-85127865D01*
X128549500Y-85153854D01*
X128549500Y-85153856D01*
X128549500Y-85246144D01*
X128552602Y-85257721D01*
X128561736Y-85291811D01*
X128565079Y-85315008D01*
X128577767Y-85832789D01*
X128574424Y-85860836D01*
X128555968Y-85929716D01*
X128549500Y-85953856D01*
X128549500Y-86046144D01*
X128573386Y-86135288D01*
X128573387Y-86135289D01*
X128575869Y-86141282D01*
X128575016Y-86141635D01*
X128586321Y-86181845D01*
X128596464Y-86595735D01*
X128583232Y-86647658D01*
X128573386Y-86664711D01*
X128573386Y-86664712D01*
X128549500Y-86753856D01*
X128549500Y-86846144D01*
X128573386Y-86935288D01*
X128619531Y-87015212D01*
X128684788Y-87080469D01*
X128764712Y-87126614D01*
X128853856Y-87150500D01*
X128853858Y-87150500D01*
X128946142Y-87150500D01*
X128946144Y-87150500D01*
X129035288Y-87126614D01*
X129094712Y-87092304D01*
X129139908Y-87079134D01*
X129429667Y-87066536D01*
X129483468Y-87079707D01*
X129484788Y-87080469D01*
X129564712Y-87126614D01*
X129653856Y-87150500D01*
X129653858Y-87150500D01*
X129746142Y-87150500D01*
X129746144Y-87150500D01*
X129835288Y-87126614D01*
X129915212Y-87080469D01*
X129980469Y-87015212D01*
X130026614Y-86935288D01*
X130050500Y-86846144D01*
X130050500Y-86753856D01*
X130050500Y-86751198D01*
X130050000Y-86743569D01*
X130050000Y-85256430D01*
X130050500Y-85248800D01*
X130050500Y-85153857D01*
X130049333Y-85149501D01*
X130026614Y-85064712D01*
X129980469Y-84984788D01*
X129918067Y-84922386D01*
X129899988Y-84897573D01*
X129893916Y-84885736D01*
X129621068Y-84353856D01*
X130149500Y-84353856D01*
X130149500Y-84446144D01*
X130166434Y-84509342D01*
X130173387Y-84535290D01*
X130203978Y-84588275D01*
X130219531Y-84615212D01*
X130284788Y-84680469D01*
X130284790Y-84680470D01*
X130284792Y-84680472D01*
X130370332Y-84729859D01*
X130369906Y-84730595D01*
X130395388Y-84747735D01*
X130961342Y-85320853D01*
X130976631Y-85340909D01*
X130989995Y-85364055D01*
X131003053Y-85407160D01*
X131024762Y-85742443D01*
X131011706Y-85798340D01*
X130973386Y-85864710D01*
X130958774Y-85919244D01*
X130949500Y-85953856D01*
X130949500Y-86046144D01*
X130972749Y-86132910D01*
X130973387Y-86135290D01*
X131005761Y-86191363D01*
X131019531Y-86215212D01*
X131031476Y-86227157D01*
X131033628Y-86231382D01*
X131037636Y-86233915D01*
X131047338Y-86258288D01*
X131059252Y-86281672D01*
X131060264Y-86290762D01*
X131072772Y-86483934D01*
X131057664Y-86543225D01*
X131043985Y-86560332D01*
X131019532Y-86584785D01*
X131019529Y-86584789D01*
X130973387Y-86664709D01*
X130973386Y-86664711D01*
X130973386Y-86664712D01*
X130949500Y-86753856D01*
X130949500Y-86846144D01*
X130973386Y-86935288D01*
X131019531Y-87015212D01*
X131084788Y-87080469D01*
X131164712Y-87126614D01*
X131253856Y-87150500D01*
X131274568Y-87150500D01*
X131332759Y-87169407D01*
X131353116Y-87189241D01*
X131418379Y-87274316D01*
X131773651Y-87737439D01*
X131780837Y-87748195D01*
X131809582Y-87797981D01*
X131819531Y-87815212D01*
X131884788Y-87880469D01*
X131964712Y-87926614D01*
X132053856Y-87950500D01*
X132053858Y-87950500D01*
X132146142Y-87950500D01*
X132146144Y-87950500D01*
X132235288Y-87926614D01*
X132295320Y-87891953D01*
X132350632Y-87878860D01*
X132696201Y-87899188D01*
X132739887Y-87912281D01*
X132764708Y-87926612D01*
X132764709Y-87926612D01*
X132764712Y-87926614D01*
X132853856Y-87950500D01*
X132853858Y-87950500D01*
X132946142Y-87950500D01*
X132946144Y-87950500D01*
X133035288Y-87926614D01*
X133115212Y-87880469D01*
X133180469Y-87815212D01*
X133226614Y-87735288D01*
X133250500Y-87646144D01*
X133250500Y-87553856D01*
X133226614Y-87464712D01*
X133180469Y-87384788D01*
X133115212Y-87319531D01*
X133035288Y-87273386D01*
X133035284Y-87273384D01*
X133035279Y-87273382D01*
X133029288Y-87270900D01*
X133029843Y-87269558D01*
X132984736Y-87240257D01*
X132972080Y-87220067D01*
X132769751Y-86789469D01*
X132769750Y-86789466D01*
X132753018Y-86753856D01*
X133349500Y-86753856D01*
X133349500Y-86846144D01*
X133373386Y-86935288D01*
X133419531Y-87015212D01*
X133484788Y-87080469D01*
X133484790Y-87080470D01*
X133484792Y-87080472D01*
X133493052Y-87085241D01*
X133503550Y-87092229D01*
X133757529Y-87285736D01*
X134109438Y-87553857D01*
X134110498Y-87554664D01*
X134145326Y-87604970D01*
X134149500Y-87633412D01*
X134149500Y-87646144D01*
X134173386Y-87735288D01*
X134219531Y-87815212D01*
X134284788Y-87880469D01*
X134364712Y-87926614D01*
X134453856Y-87950500D01*
X134453858Y-87950500D01*
X134546142Y-87950500D01*
X134546144Y-87950500D01*
X134635288Y-87926614D01*
X134715212Y-87880469D01*
X134780469Y-87815212D01*
X134826614Y-87735288D01*
X134850500Y-87646144D01*
X134850500Y-87553856D01*
X134826614Y-87464712D01*
X134780469Y-87384788D01*
X134715212Y-87319531D01*
X134715209Y-87319529D01*
X134660952Y-87288203D01*
X134648448Y-87274316D01*
X134632881Y-87263978D01*
X134628471Y-87252128D01*
X134620012Y-87242733D01*
X134611541Y-87206635D01*
X134611338Y-87201817D01*
X134627779Y-87142881D01*
X134660746Y-87111915D01*
X134715212Y-87080469D01*
X134780469Y-87015212D01*
X134826614Y-86935288D01*
X134850500Y-86846144D01*
X134850500Y-86753856D01*
X135749500Y-86753856D01*
X135749500Y-86846144D01*
X135773386Y-86935288D01*
X135819531Y-87015212D01*
X135884788Y-87080469D01*
X135884790Y-87080470D01*
X135943321Y-87114264D01*
X135984261Y-87159734D01*
X135990656Y-87220584D01*
X135960063Y-87273572D01*
X135943321Y-87285736D01*
X135884790Y-87319529D01*
X135819529Y-87384790D01*
X135773387Y-87464709D01*
X135773386Y-87464711D01*
X135773386Y-87464712D01*
X135749500Y-87553856D01*
X135749500Y-87646144D01*
X135773386Y-87735288D01*
X135819531Y-87815212D01*
X135884788Y-87880469D01*
X135964712Y-87926614D01*
X136053856Y-87950500D01*
X136053858Y-87950500D01*
X136146142Y-87950500D01*
X136146144Y-87950500D01*
X136235288Y-87926614D01*
X136315212Y-87880469D01*
X136380469Y-87815212D01*
X136426614Y-87735288D01*
X136450500Y-87646144D01*
X136450500Y-87553856D01*
X136426614Y-87464712D01*
X136380469Y-87384788D01*
X136324537Y-87328856D01*
X143574500Y-87328856D01*
X143574500Y-87421144D01*
X143598386Y-87510288D01*
X143598387Y-87510290D01*
X143632590Y-87569531D01*
X143644531Y-87590212D01*
X143709788Y-87655469D01*
X143789712Y-87701614D01*
X143878856Y-87725500D01*
X143878858Y-87725500D01*
X143971142Y-87725500D01*
X143971144Y-87725500D01*
X144060288Y-87701614D01*
X144140212Y-87655469D01*
X144205469Y-87590212D01*
X144251614Y-87510288D01*
X144275500Y-87421144D01*
X144275500Y-87328856D01*
X144265727Y-87292382D01*
X144268928Y-87231283D01*
X144307433Y-87183732D01*
X144314698Y-87179911D01*
X144314668Y-87179859D01*
X144349524Y-87159734D01*
X144400212Y-87130469D01*
X144465469Y-87065212D01*
X144511614Y-86985288D01*
X144535500Y-86896144D01*
X144535500Y-86803856D01*
X144511614Y-86714712D01*
X144465469Y-86634788D01*
X144400212Y-86569531D01*
X144384279Y-86560332D01*
X144320290Y-86523387D01*
X144320289Y-86523386D01*
X144320288Y-86523386D01*
X144231144Y-86499500D01*
X144138856Y-86499500D01*
X144049712Y-86523386D01*
X144049711Y-86523386D01*
X144049709Y-86523387D01*
X143969790Y-86569529D01*
X143904529Y-86634790D01*
X143858387Y-86714709D01*
X143858386Y-86714711D01*
X143858386Y-86714712D01*
X143834500Y-86803856D01*
X143834500Y-86896144D01*
X143843698Y-86930470D01*
X143844273Y-86932616D01*
X143841070Y-86993718D01*
X143802565Y-87041268D01*
X143795301Y-87045088D01*
X143795332Y-87045141D01*
X143709790Y-87094529D01*
X143644529Y-87159790D01*
X143598387Y-87239709D01*
X143598386Y-87239711D01*
X143598386Y-87239712D01*
X143574500Y-87328856D01*
X136324537Y-87328856D01*
X136315212Y-87319531D01*
X136249939Y-87281845D01*
X136243893Y-87276951D01*
X136231256Y-87257502D01*
X136215738Y-87240267D01*
X136214904Y-87232333D01*
X136210558Y-87225644D01*
X136211766Y-87202484D01*
X136209342Y-87179416D01*
X136213331Y-87172506D01*
X136213747Y-87164542D01*
X136228336Y-87146517D01*
X136239935Y-87126428D01*
X136251250Y-87118207D01*
X136252241Y-87116984D01*
X136253340Y-87116689D01*
X136256679Y-87114264D01*
X136315207Y-87080472D01*
X136315207Y-87080471D01*
X136315212Y-87080469D01*
X136380469Y-87015212D01*
X136426614Y-86935288D01*
X136450500Y-86846144D01*
X136450500Y-86753856D01*
X136426614Y-86664712D01*
X136426612Y-86664709D01*
X136426612Y-86664707D01*
X136416313Y-86646869D01*
X136416312Y-86646868D01*
X136391478Y-86603856D01*
X139857000Y-86603856D01*
X139857000Y-86696144D01*
X139880886Y-86785288D01*
X139880887Y-86785290D01*
X139916020Y-86846142D01*
X139927031Y-86865212D01*
X139992288Y-86930469D01*
X140072212Y-86976614D01*
X140161356Y-87000500D01*
X140161358Y-87000500D01*
X140253642Y-87000500D01*
X140253644Y-87000500D01*
X140342788Y-86976614D01*
X140422712Y-86930469D01*
X140422714Y-86930466D01*
X140427858Y-86926520D01*
X140428986Y-86927990D01*
X140475763Y-86904157D01*
X140536195Y-86913728D01*
X140554341Y-86926911D01*
X140554642Y-86926520D01*
X140559789Y-86930470D01*
X140576663Y-86940212D01*
X140639712Y-86976614D01*
X140728856Y-87000500D01*
X140728858Y-87000500D01*
X140821142Y-87000500D01*
X140821144Y-87000500D01*
X140910288Y-86976614D01*
X140990212Y-86930469D01*
X141055469Y-86865212D01*
X141101614Y-86785288D01*
X141125500Y-86696144D01*
X141125500Y-86603856D01*
X141101614Y-86514712D01*
X141055469Y-86434788D01*
X140990212Y-86369531D01*
X140910288Y-86323386D01*
X140821144Y-86299500D01*
X140728856Y-86299500D01*
X140639712Y-86323386D01*
X140639711Y-86323386D01*
X140639709Y-86323387D01*
X140559789Y-86369529D01*
X140554642Y-86373480D01*
X140553513Y-86372009D01*
X140506737Y-86395843D01*
X140446305Y-86386272D01*
X140428158Y-86373088D01*
X140427858Y-86373480D01*
X140422710Y-86369529D01*
X140342790Y-86323387D01*
X140342789Y-86323386D01*
X140342788Y-86323386D01*
X140253644Y-86299500D01*
X140161356Y-86299500D01*
X140072212Y-86323386D01*
X140072211Y-86323386D01*
X140072209Y-86323387D01*
X139992290Y-86369529D01*
X139927029Y-86434790D01*
X139880887Y-86514709D01*
X139880886Y-86514711D01*
X139880886Y-86514712D01*
X139857000Y-86603856D01*
X136391478Y-86603856D01*
X136380470Y-86584790D01*
X136380469Y-86584788D01*
X136315212Y-86519531D01*
X136306865Y-86514712D01*
X136235290Y-86473387D01*
X136235289Y-86473386D01*
X136235288Y-86473386D01*
X136146144Y-86449500D01*
X136053856Y-86449500D01*
X135964712Y-86473386D01*
X135964711Y-86473386D01*
X135964709Y-86473387D01*
X135884790Y-86519529D01*
X135819529Y-86584790D01*
X135773387Y-86664709D01*
X135773386Y-86664711D01*
X135773386Y-86664712D01*
X135749500Y-86753856D01*
X134850500Y-86753856D01*
X134826614Y-86664712D01*
X134780469Y-86584788D01*
X134715212Y-86519531D01*
X134706865Y-86514712D01*
X134635290Y-86473387D01*
X134635289Y-86473386D01*
X134635288Y-86473386D01*
X134546144Y-86449500D01*
X134453856Y-86449500D01*
X134364712Y-86473386D01*
X134364711Y-86473386D01*
X134364709Y-86473387D01*
X134284790Y-86519529D01*
X134219529Y-86584790D01*
X134185736Y-86643321D01*
X134140266Y-86684261D01*
X134079416Y-86690656D01*
X134026428Y-86660063D01*
X134014264Y-86643321D01*
X133980470Y-86584790D01*
X133980469Y-86584788D01*
X133915212Y-86519531D01*
X133906865Y-86514712D01*
X133835290Y-86473387D01*
X133835289Y-86473386D01*
X133835288Y-86473386D01*
X133746144Y-86449500D01*
X133653856Y-86449500D01*
X133564712Y-86473386D01*
X133564711Y-86473386D01*
X133564709Y-86473387D01*
X133484790Y-86519529D01*
X133419529Y-86584790D01*
X133373387Y-86664709D01*
X133373386Y-86664711D01*
X133373386Y-86664712D01*
X133349500Y-86753856D01*
X132753018Y-86753856D01*
X132454991Y-86119594D01*
X132447356Y-86058887D01*
X132448963Y-86051877D01*
X132450500Y-86046144D01*
X132450500Y-85953856D01*
X132426614Y-85864712D01*
X132380469Y-85784788D01*
X132315212Y-85719531D01*
X132293558Y-85707029D01*
X132235290Y-85673387D01*
X132235289Y-85673386D01*
X132235288Y-85673386D01*
X132169117Y-85655655D01*
X132125823Y-85631101D01*
X131676041Y-85194948D01*
X131649333Y-85149501D01*
X131639843Y-85114087D01*
X131637483Y-85105281D01*
X131634403Y-85087256D01*
X131634346Y-85086518D01*
X131598371Y-84618828D01*
X131611343Y-84561736D01*
X131626614Y-84535288D01*
X131650500Y-84446144D01*
X131650500Y-84353856D01*
X131626614Y-84264712D01*
X131580469Y-84184788D01*
X131515212Y-84119531D01*
X131515205Y-84119527D01*
X131435330Y-84073410D01*
X131435329Y-84073409D01*
X131435288Y-84073386D01*
X131397659Y-84063303D01*
X131390000Y-84050000D01*
X131351293Y-84050879D01*
X131346144Y-84049500D01*
X131253856Y-84049500D01*
X131250678Y-84050351D01*
X131227311Y-84053697D01*
X130628019Y-84067316D01*
X130600150Y-84063969D01*
X130546147Y-84049500D01*
X130546144Y-84049500D01*
X130453856Y-84049500D01*
X130364712Y-84073386D01*
X130364711Y-84073386D01*
X130364709Y-84073387D01*
X130284790Y-84119529D01*
X130219529Y-84184790D01*
X130173387Y-84264709D01*
X130173386Y-84264711D01*
X130173386Y-84264712D01*
X130149500Y-84353856D01*
X129621068Y-84353856D01*
X129270763Y-83670982D01*
X129259852Y-83626418D01*
X129259399Y-83553856D01*
X132549500Y-83553856D01*
X132549500Y-83646144D01*
X132573386Y-83735288D01*
X132619531Y-83815212D01*
X132684788Y-83880469D01*
X132684790Y-83880470D01*
X132743321Y-83914264D01*
X132784261Y-83959734D01*
X132790656Y-84020584D01*
X132760063Y-84073572D01*
X132743321Y-84085736D01*
X132684790Y-84119529D01*
X132619529Y-84184790D01*
X132573387Y-84264709D01*
X132573386Y-84264711D01*
X132573386Y-84264712D01*
X132549500Y-84353856D01*
X132549500Y-84446144D01*
X132566434Y-84509342D01*
X132573387Y-84535290D01*
X132603978Y-84588275D01*
X132619531Y-84615212D01*
X132684788Y-84680469D01*
X132684790Y-84680470D01*
X132743321Y-84714264D01*
X132784261Y-84759734D01*
X132790656Y-84820584D01*
X132760063Y-84873572D01*
X132743321Y-84885736D01*
X132684790Y-84919529D01*
X132619529Y-84984790D01*
X132573387Y-85064709D01*
X132573387Y-85064710D01*
X132573386Y-85064712D01*
X132549500Y-85153856D01*
X132549500Y-85246144D01*
X132572563Y-85332215D01*
X132573387Y-85335290D01*
X132604747Y-85389607D01*
X132619531Y-85415212D01*
X132684788Y-85480469D01*
X132764712Y-85526614D01*
X132853856Y-85550500D01*
X132853858Y-85550500D01*
X132946142Y-85550500D01*
X132946144Y-85550500D01*
X133035288Y-85526614D01*
X133115212Y-85480469D01*
X133180469Y-85415212D01*
X133226614Y-85335288D01*
X133250500Y-85246144D01*
X133250500Y-85153856D01*
X135749500Y-85153856D01*
X135749500Y-85246144D01*
X135772563Y-85332215D01*
X135773387Y-85335290D01*
X135804747Y-85389607D01*
X135819531Y-85415212D01*
X135884788Y-85480469D01*
X135964712Y-85526614D01*
X136053856Y-85550500D01*
X136053858Y-85550500D01*
X136146142Y-85550500D01*
X136146144Y-85550500D01*
X136235288Y-85526614D01*
X136315212Y-85480469D01*
X136380469Y-85415212D01*
X136426614Y-85335288D01*
X136450500Y-85246144D01*
X136450500Y-85153856D01*
X136426614Y-85064712D01*
X136420346Y-85053856D01*
X141599500Y-85053856D01*
X141599500Y-85146144D01*
X141605941Y-85170181D01*
X141623387Y-85235290D01*
X141635592Y-85256430D01*
X141669531Y-85315212D01*
X141734788Y-85380469D01*
X141814712Y-85426614D01*
X141903856Y-85450500D01*
X141903858Y-85450500D01*
X141996142Y-85450500D01*
X141996144Y-85450500D01*
X142085288Y-85426614D01*
X142165212Y-85380469D01*
X142230469Y-85315212D01*
X142276614Y-85235288D01*
X142300500Y-85146144D01*
X142300500Y-85053856D01*
X142499500Y-85053856D01*
X142499500Y-85146144D01*
X142505941Y-85170181D01*
X142523387Y-85235290D01*
X142535592Y-85256430D01*
X142569531Y-85315212D01*
X142634788Y-85380469D01*
X142714712Y-85426614D01*
X142803856Y-85450500D01*
X142803858Y-85450500D01*
X142896142Y-85450500D01*
X142896144Y-85450500D01*
X142985288Y-85426614D01*
X143065212Y-85380469D01*
X143130469Y-85315212D01*
X143176614Y-85235288D01*
X143200500Y-85146144D01*
X143200500Y-85053856D01*
X143176614Y-84964712D01*
X143130469Y-84884788D01*
X143065212Y-84819531D01*
X142985288Y-84773386D01*
X142896144Y-84749500D01*
X142803856Y-84749500D01*
X142714712Y-84773386D01*
X142714711Y-84773386D01*
X142714709Y-84773387D01*
X142634790Y-84819529D01*
X142569529Y-84884790D01*
X142523387Y-84964709D01*
X142523386Y-84964711D01*
X142523386Y-84964712D01*
X142499500Y-85053856D01*
X142300500Y-85053856D01*
X142276614Y-84964712D01*
X142230469Y-84884788D01*
X142165212Y-84819531D01*
X142085288Y-84773386D01*
X141996144Y-84749500D01*
X141903856Y-84749500D01*
X141814712Y-84773386D01*
X141814711Y-84773386D01*
X141814709Y-84773387D01*
X141734790Y-84819529D01*
X141669529Y-84884790D01*
X141623387Y-84964709D01*
X141623386Y-84964711D01*
X141623386Y-84964712D01*
X141599500Y-85053856D01*
X136420346Y-85053856D01*
X136380469Y-84984788D01*
X136315212Y-84919531D01*
X136315205Y-84919527D01*
X136235290Y-84873387D01*
X136235289Y-84873386D01*
X136235288Y-84873386D01*
X136146144Y-84849500D01*
X136053856Y-84849500D01*
X135964712Y-84873386D01*
X135964711Y-84873386D01*
X135964709Y-84873387D01*
X135884790Y-84919529D01*
X135819529Y-84984790D01*
X135773387Y-85064709D01*
X135773387Y-85064710D01*
X135773386Y-85064712D01*
X135749500Y-85153856D01*
X133250500Y-85153856D01*
X133226614Y-85064712D01*
X133180469Y-84984788D01*
X133115212Y-84919531D01*
X133115209Y-84919529D01*
X133115207Y-84919527D01*
X133056679Y-84885736D01*
X133015738Y-84840267D01*
X133009342Y-84779416D01*
X133039935Y-84726428D01*
X133056679Y-84714264D01*
X133115207Y-84680472D01*
X133115207Y-84680471D01*
X133115212Y-84680469D01*
X133180469Y-84615212D01*
X133226614Y-84535288D01*
X133250500Y-84446144D01*
X133250500Y-84353856D01*
X134149500Y-84353856D01*
X134149500Y-84446144D01*
X134166434Y-84509342D01*
X134173387Y-84535290D01*
X134203978Y-84588275D01*
X134219531Y-84615212D01*
X134284788Y-84680469D01*
X134364712Y-84726614D01*
X134453856Y-84750500D01*
X134453858Y-84750500D01*
X134546142Y-84750500D01*
X134546144Y-84750500D01*
X134635288Y-84726614D01*
X134715212Y-84680469D01*
X134780469Y-84615212D01*
X134780472Y-84615207D01*
X134814264Y-84556679D01*
X134859733Y-84515738D01*
X134920584Y-84509342D01*
X134973572Y-84539935D01*
X134985736Y-84556679D01*
X135019527Y-84615207D01*
X135019529Y-84615209D01*
X135019531Y-84615212D01*
X135084788Y-84680469D01*
X135164712Y-84726614D01*
X135253856Y-84750500D01*
X135253858Y-84750500D01*
X135346142Y-84750500D01*
X135346144Y-84750500D01*
X135435288Y-84726614D01*
X135515212Y-84680469D01*
X135580469Y-84615212D01*
X135626614Y-84535288D01*
X135650500Y-84446144D01*
X135650500Y-84353856D01*
X135626614Y-84264712D01*
X135580469Y-84184788D01*
X135515212Y-84119531D01*
X135515205Y-84119527D01*
X135435290Y-84073387D01*
X135435289Y-84073386D01*
X135435288Y-84073386D01*
X135346144Y-84049500D01*
X135253856Y-84049500D01*
X135164712Y-84073386D01*
X135164711Y-84073386D01*
X135164709Y-84073387D01*
X135084790Y-84119529D01*
X135019529Y-84184790D01*
X134985736Y-84243321D01*
X134940266Y-84284261D01*
X134879416Y-84290656D01*
X134826428Y-84260063D01*
X134814264Y-84243321D01*
X134780470Y-84184790D01*
X134780469Y-84184788D01*
X134715212Y-84119531D01*
X134715205Y-84119527D01*
X134635290Y-84073387D01*
X134635289Y-84073386D01*
X134635288Y-84073386D01*
X134546144Y-84049500D01*
X134453856Y-84049500D01*
X134364712Y-84073386D01*
X134364711Y-84073386D01*
X134364709Y-84073387D01*
X134284790Y-84119529D01*
X134219529Y-84184790D01*
X134173387Y-84264709D01*
X134173386Y-84264711D01*
X134173386Y-84264712D01*
X134149500Y-84353856D01*
X133250500Y-84353856D01*
X133226614Y-84264712D01*
X133180469Y-84184788D01*
X133115212Y-84119531D01*
X133115209Y-84119529D01*
X133115207Y-84119527D01*
X133056679Y-84085736D01*
X133015738Y-84040267D01*
X133009342Y-83979416D01*
X133039935Y-83926428D01*
X133056679Y-83914264D01*
X133115207Y-83880472D01*
X133115207Y-83880471D01*
X133115212Y-83880469D01*
X133180469Y-83815212D01*
X133226614Y-83735288D01*
X133250500Y-83646144D01*
X133250500Y-83553856D01*
X133226614Y-83464712D01*
X133180469Y-83384788D01*
X133115212Y-83319531D01*
X133110724Y-83316940D01*
X133035290Y-83273387D01*
X133035289Y-83273386D01*
X133035288Y-83273386D01*
X132946144Y-83249500D01*
X132853856Y-83249500D01*
X132764712Y-83273386D01*
X132764711Y-83273386D01*
X132764709Y-83273387D01*
X132684790Y-83319529D01*
X132619529Y-83384790D01*
X132573387Y-83464709D01*
X132573386Y-83464711D01*
X132573386Y-83464712D01*
X132549500Y-83553856D01*
X129259399Y-83553856D01*
X129254399Y-82753856D01*
X131749500Y-82753856D01*
X131749500Y-82846144D01*
X131772541Y-82932134D01*
X131773387Y-82935290D01*
X131816721Y-83010346D01*
X131819531Y-83015212D01*
X131884788Y-83080469D01*
X131964712Y-83126614D01*
X132053856Y-83150500D01*
X132053858Y-83150500D01*
X132146142Y-83150500D01*
X132146144Y-83150500D01*
X132235288Y-83126614D01*
X132315212Y-83080469D01*
X132380469Y-83015212D01*
X132426614Y-82935288D01*
X132450500Y-82846144D01*
X132450500Y-82753856D01*
X134949500Y-82753856D01*
X134949500Y-82846144D01*
X134972541Y-82932134D01*
X134973387Y-82935290D01*
X135016721Y-83010346D01*
X135019531Y-83015212D01*
X135084788Y-83080469D01*
X135164712Y-83126614D01*
X135253856Y-83150500D01*
X135253858Y-83150500D01*
X135346142Y-83150500D01*
X135346144Y-83150500D01*
X135435288Y-83126614D01*
X135515212Y-83080469D01*
X135580469Y-83015212D01*
X135580472Y-83015207D01*
X135614264Y-82956679D01*
X135659733Y-82915738D01*
X135720584Y-82909342D01*
X135773572Y-82939935D01*
X135785736Y-82956679D01*
X135819527Y-83015207D01*
X135819529Y-83015209D01*
X135819531Y-83015212D01*
X135884788Y-83080469D01*
X135964712Y-83126614D01*
X136053856Y-83150500D01*
X136053858Y-83150500D01*
X136146142Y-83150500D01*
X136146144Y-83150500D01*
X136235288Y-83126614D01*
X136315212Y-83080469D01*
X136380469Y-83015212D01*
X136426614Y-82935288D01*
X136435036Y-82903856D01*
X143999500Y-82903856D01*
X143999500Y-82996144D01*
X144023386Y-83085288D01*
X144023387Y-83085290D01*
X144043156Y-83119531D01*
X144069531Y-83165212D01*
X144134788Y-83230469D01*
X144134790Y-83230470D01*
X144214712Y-83276614D01*
X144225011Y-83279374D01*
X144276325Y-83312698D01*
X144298251Y-83369820D01*
X144282415Y-83428920D01*
X144234865Y-83467425D01*
X144225011Y-83470626D01*
X144214712Y-83473385D01*
X144134790Y-83519529D01*
X144069529Y-83584790D01*
X144023387Y-83664709D01*
X144023386Y-83664711D01*
X144023386Y-83664712D01*
X143999500Y-83753856D01*
X143999500Y-83846144D01*
X144023386Y-83935288D01*
X144069531Y-84015212D01*
X144134788Y-84080469D01*
X144214712Y-84126614D01*
X144303856Y-84150500D01*
X144303858Y-84150500D01*
X144396142Y-84150500D01*
X144396144Y-84150500D01*
X144485288Y-84126614D01*
X144565212Y-84080469D01*
X144630469Y-84015212D01*
X144676614Y-83935288D01*
X144700500Y-83846144D01*
X144700500Y-83753856D01*
X144676614Y-83664712D01*
X144630469Y-83584788D01*
X144565212Y-83519531D01*
X144565209Y-83519529D01*
X144485289Y-83473386D01*
X144480700Y-83472156D01*
X144474989Y-83470626D01*
X144423675Y-83437303D01*
X144401748Y-83380182D01*
X144417583Y-83321081D01*
X144465133Y-83282576D01*
X144474984Y-83279374D01*
X144485288Y-83276614D01*
X144565212Y-83230469D01*
X144630469Y-83165212D01*
X144676614Y-83085288D01*
X144700500Y-82996144D01*
X144700500Y-82903856D01*
X144676614Y-82814712D01*
X144630469Y-82734788D01*
X144565212Y-82669531D01*
X144565209Y-82669529D01*
X144565207Y-82669527D01*
X144502119Y-82633103D01*
X144502118Y-82633103D01*
X144485290Y-82623387D01*
X144485289Y-82623386D01*
X144485288Y-82623386D01*
X144396144Y-82599500D01*
X144303856Y-82599500D01*
X144214712Y-82623386D01*
X144214711Y-82623386D01*
X144214709Y-82623387D01*
X144134790Y-82669529D01*
X144069529Y-82734790D01*
X144023387Y-82814709D01*
X144023386Y-82814711D01*
X144023386Y-82814712D01*
X143999500Y-82903856D01*
X136435036Y-82903856D01*
X136450500Y-82846144D01*
X136450500Y-82753856D01*
X136426614Y-82664712D01*
X136380469Y-82584788D01*
X136349537Y-82553856D01*
X145399500Y-82553856D01*
X145399500Y-82646144D01*
X145411427Y-82690656D01*
X145423387Y-82735290D01*
X145469240Y-82814709D01*
X145469531Y-82815212D01*
X145534788Y-82880469D01*
X145534790Y-82880470D01*
X145618321Y-82928698D01*
X145659261Y-82974168D01*
X145665656Y-83035018D01*
X145635063Y-83088006D01*
X145618321Y-83100170D01*
X145584790Y-83119529D01*
X145519529Y-83184790D01*
X145473387Y-83264709D01*
X145473386Y-83264711D01*
X145473386Y-83264712D01*
X145449500Y-83353856D01*
X145449500Y-83446144D01*
X145469164Y-83519531D01*
X145473387Y-83535290D01*
X145501966Y-83584790D01*
X145519531Y-83615212D01*
X145584788Y-83680469D01*
X145664712Y-83726614D01*
X145753856Y-83750500D01*
X145753858Y-83750500D01*
X145846142Y-83750500D01*
X145846144Y-83750500D01*
X145935288Y-83726614D01*
X146015212Y-83680469D01*
X146080469Y-83615212D01*
X146126614Y-83535288D01*
X146150500Y-83446144D01*
X146150500Y-83353856D01*
X146126614Y-83264712D01*
X146080469Y-83184788D01*
X146015212Y-83119531D01*
X146015209Y-83119529D01*
X145931678Y-83071301D01*
X145890737Y-83025831D01*
X145884343Y-82964981D01*
X145914936Y-82911993D01*
X145931677Y-82899830D01*
X145965212Y-82880469D01*
X146030469Y-82815212D01*
X146076614Y-82735288D01*
X146100500Y-82646144D01*
X146100500Y-82553856D01*
X146076614Y-82464712D01*
X146030469Y-82384788D01*
X145965212Y-82319531D01*
X145965209Y-82319529D01*
X145945419Y-82308103D01*
X145885290Y-82273387D01*
X145885289Y-82273386D01*
X145885288Y-82273386D01*
X145796144Y-82249500D01*
X145703856Y-82249500D01*
X145614712Y-82273386D01*
X145614711Y-82273386D01*
X145614709Y-82273387D01*
X145534790Y-82319529D01*
X145469529Y-82384790D01*
X145423387Y-82464709D01*
X145423386Y-82464711D01*
X145423386Y-82464712D01*
X145399500Y-82553856D01*
X136349537Y-82553856D01*
X136315212Y-82519531D01*
X136264422Y-82490207D01*
X136235290Y-82473387D01*
X136235289Y-82473386D01*
X136235288Y-82473386D01*
X136146144Y-82449500D01*
X136053856Y-82449500D01*
X135964712Y-82473386D01*
X135964711Y-82473386D01*
X135964709Y-82473387D01*
X135884790Y-82519529D01*
X135819529Y-82584790D01*
X135785736Y-82643321D01*
X135740266Y-82684261D01*
X135679416Y-82690656D01*
X135626428Y-82660063D01*
X135614264Y-82643321D01*
X135580470Y-82584790D01*
X135580469Y-82584788D01*
X135515212Y-82519531D01*
X135464422Y-82490207D01*
X135435290Y-82473387D01*
X135435289Y-82473386D01*
X135435288Y-82473386D01*
X135346144Y-82449500D01*
X135253856Y-82449500D01*
X135164712Y-82473386D01*
X135164711Y-82473386D01*
X135164709Y-82473387D01*
X135084790Y-82519529D01*
X135019529Y-82584790D01*
X134973387Y-82664709D01*
X134973386Y-82664711D01*
X134973386Y-82664712D01*
X134949500Y-82753856D01*
X132450500Y-82753856D01*
X132426614Y-82664712D01*
X132380469Y-82584788D01*
X132315212Y-82519531D01*
X132264422Y-82490207D01*
X132235290Y-82473387D01*
X132235289Y-82473386D01*
X132235288Y-82473386D01*
X132146144Y-82449500D01*
X132053856Y-82449500D01*
X131964712Y-82473386D01*
X131964711Y-82473386D01*
X131964709Y-82473387D01*
X131884790Y-82519529D01*
X131819529Y-82584790D01*
X131773387Y-82664709D01*
X131773386Y-82664711D01*
X131773386Y-82664712D01*
X131749500Y-82753856D01*
X129254399Y-82753856D01*
X129250042Y-82056732D01*
X129250500Y-82049418D01*
X129250500Y-81953857D01*
X129250500Y-81953856D01*
X129226614Y-81864712D01*
X129180469Y-81784788D01*
X129115212Y-81719531D01*
X129035288Y-81673386D01*
X128946144Y-81649500D01*
X128853856Y-81649500D01*
X128764712Y-81673386D01*
X128764711Y-81673386D01*
X128764709Y-81673387D01*
X128684790Y-81719529D01*
X128619529Y-81784790D01*
X128573387Y-81864709D01*
X128573386Y-81864711D01*
X128573386Y-81864712D01*
X128550966Y-81948387D01*
X128549500Y-81953857D01*
X128549500Y-82046146D01*
X128560757Y-82088160D01*
X128557554Y-82149261D01*
X128555345Y-82154551D01*
X128237081Y-82858795D01*
X128213269Y-82888837D01*
X128214376Y-82889944D01*
X128209790Y-82894529D01*
X128209788Y-82894531D01*
X128177705Y-82926614D01*
X128144529Y-82959790D01*
X128098387Y-83039709D01*
X128098386Y-83039711D01*
X128098386Y-83039712D01*
X128074500Y-83128856D01*
X104248181Y-83128856D01*
X104202364Y-83049500D01*
X104189642Y-82989652D01*
X104202362Y-82950501D01*
X105239686Y-81153856D01*
X130149500Y-81153856D01*
X130149500Y-81246144D01*
X130173386Y-81335288D01*
X130173387Y-81335290D01*
X130213012Y-81403922D01*
X130219531Y-81415212D01*
X130284788Y-81480469D01*
X130364712Y-81526614D01*
X130453856Y-81550500D01*
X130453858Y-81550500D01*
X130546142Y-81550500D01*
X130546144Y-81550500D01*
X130635288Y-81526614D01*
X130715212Y-81480469D01*
X130765131Y-81430549D01*
X130769929Y-81428104D01*
X130772866Y-81423588D01*
X130796802Y-81414412D01*
X130819645Y-81402773D01*
X130829983Y-81401688D01*
X130953325Y-81395281D01*
X131012417Y-81411145D01*
X131028462Y-81424144D01*
X131084787Y-81480468D01*
X131084789Y-81480470D01*
X131086885Y-81481680D01*
X131164712Y-81526614D01*
X131253856Y-81550500D01*
X131253858Y-81550500D01*
X131346142Y-81550500D01*
X131346144Y-81550500D01*
X131435288Y-81526614D01*
X131515212Y-81480469D01*
X131580469Y-81415212D01*
X131626614Y-81335288D01*
X131650500Y-81246144D01*
X131650500Y-81246141D01*
X131651347Y-81239710D01*
X131653585Y-81240004D01*
X131669407Y-81191309D01*
X131718907Y-81155345D01*
X131739800Y-81152036D01*
X131739710Y-81151347D01*
X131746141Y-81150500D01*
X131746144Y-81150500D01*
X131835288Y-81126614D01*
X131915212Y-81080469D01*
X131980469Y-81015212D01*
X132026614Y-80935288D01*
X132050500Y-80846144D01*
X132050500Y-80846141D01*
X132051347Y-80839710D01*
X132053585Y-80840004D01*
X132069407Y-80791309D01*
X132118907Y-80755345D01*
X132139800Y-80752036D01*
X132139710Y-80751347D01*
X132146141Y-80750500D01*
X132146144Y-80750500D01*
X132235288Y-80726614D01*
X132315212Y-80680469D01*
X132380469Y-80615212D01*
X132414059Y-80557032D01*
X132429800Y-80542859D01*
X132442428Y-80525849D01*
X132452041Y-80522834D01*
X132459527Y-80516094D01*
X132480595Y-80513879D01*
X132500810Y-80507540D01*
X132510358Y-80510751D01*
X132520377Y-80509698D01*
X132558804Y-80527044D01*
X132559522Y-80527577D01*
X132586248Y-80557566D01*
X132619531Y-80615212D01*
X132684788Y-80680469D01*
X132684790Y-80680470D01*
X132743321Y-80714264D01*
X132784261Y-80759734D01*
X132790656Y-80820584D01*
X132760063Y-80873572D01*
X132743321Y-80885736D01*
X132684790Y-80919529D01*
X132619529Y-80984790D01*
X132573387Y-81064709D01*
X132573386Y-81064711D01*
X132573386Y-81064712D01*
X132549500Y-81153856D01*
X132549500Y-81246144D01*
X132573386Y-81335288D01*
X132573387Y-81335290D01*
X132613012Y-81403922D01*
X132619531Y-81415212D01*
X132655496Y-81451177D01*
X132660392Y-81460786D01*
X132668744Y-81467608D01*
X132673966Y-81487427D01*
X132683272Y-81505692D01*
X132684333Y-81526774D01*
X132674874Y-81693874D01*
X132652708Y-81750903D01*
X132646037Y-81758281D01*
X132619529Y-81784789D01*
X132573387Y-81864709D01*
X132573386Y-81864711D01*
X132573386Y-81864712D01*
X132549500Y-81953856D01*
X132549500Y-82046144D01*
X132568840Y-82118321D01*
X132573387Y-82135290D01*
X132579159Y-82145288D01*
X132619531Y-82215212D01*
X132684788Y-82280469D01*
X132764712Y-82326614D01*
X132853856Y-82350500D01*
X132853858Y-82350500D01*
X132946142Y-82350500D01*
X132946144Y-82350500D01*
X133035288Y-82326614D01*
X133115212Y-82280469D01*
X133180469Y-82215212D01*
X133226614Y-82135288D01*
X133243589Y-82071933D01*
X133276911Y-82020621D01*
X133307599Y-82003743D01*
X134970079Y-81443559D01*
X135031258Y-81442896D01*
X135071690Y-81467371D01*
X135084788Y-81480469D01*
X135164712Y-81526614D01*
X135253856Y-81550500D01*
X135253858Y-81550500D01*
X135346142Y-81550500D01*
X135346144Y-81550500D01*
X135435288Y-81526614D01*
X135515212Y-81480469D01*
X135580469Y-81415212D01*
X135582817Y-81411145D01*
X135614264Y-81356679D01*
X135659733Y-81315738D01*
X135720584Y-81309342D01*
X135773572Y-81339935D01*
X135785736Y-81356679D01*
X135819527Y-81415207D01*
X135819529Y-81415209D01*
X135819531Y-81415212D01*
X135884788Y-81480469D01*
X135964712Y-81526614D01*
X136053856Y-81550500D01*
X136053858Y-81550500D01*
X136146142Y-81550500D01*
X136146144Y-81550500D01*
X136235288Y-81526614D01*
X136315212Y-81480469D01*
X136380469Y-81415212D01*
X136415894Y-81353856D01*
X143799500Y-81353856D01*
X143799500Y-81446144D01*
X143823386Y-81535288D01*
X143869531Y-81615212D01*
X143934788Y-81680469D01*
X143934790Y-81680470D01*
X143939608Y-81683252D01*
X143980550Y-81728721D01*
X143986946Y-81789571D01*
X143975846Y-81818488D01*
X143943387Y-81874708D01*
X143943386Y-81874712D01*
X143919500Y-81963856D01*
X143919500Y-82056144D01*
X143941892Y-82139712D01*
X143943387Y-82145290D01*
X143983755Y-82215209D01*
X143989531Y-82225212D01*
X144054788Y-82290469D01*
X144134712Y-82336614D01*
X144223856Y-82360500D01*
X144223858Y-82360500D01*
X144316142Y-82360500D01*
X144316144Y-82360500D01*
X144405288Y-82336614D01*
X144485212Y-82290469D01*
X144546825Y-82228856D01*
X149649500Y-82228856D01*
X149649500Y-82321144D01*
X149666554Y-82384790D01*
X149673387Y-82410290D01*
X149704806Y-82464709D01*
X149719531Y-82490212D01*
X149784788Y-82555469D01*
X149864712Y-82601614D01*
X149953856Y-82625500D01*
X149953858Y-82625500D01*
X150046142Y-82625500D01*
X150046144Y-82625500D01*
X150135288Y-82601614D01*
X150215212Y-82555469D01*
X150280469Y-82490212D01*
X150295192Y-82464712D01*
X150314264Y-82431679D01*
X150359733Y-82390738D01*
X150420584Y-82384342D01*
X150473572Y-82414935D01*
X150485736Y-82431679D01*
X150519527Y-82490207D01*
X150519529Y-82490209D01*
X150519531Y-82490212D01*
X150584788Y-82555469D01*
X150664712Y-82601614D01*
X150753856Y-82625500D01*
X150753858Y-82625500D01*
X150846142Y-82625500D01*
X150846144Y-82625500D01*
X150935288Y-82601614D01*
X151015212Y-82555469D01*
X151080469Y-82490212D01*
X151095192Y-82464712D01*
X151114264Y-82431679D01*
X151159733Y-82390738D01*
X151220584Y-82384342D01*
X151273572Y-82414935D01*
X151285736Y-82431679D01*
X151319527Y-82490207D01*
X151319529Y-82490209D01*
X151319531Y-82490212D01*
X151384788Y-82555469D01*
X151464712Y-82601614D01*
X151553856Y-82625500D01*
X151553858Y-82625500D01*
X151646142Y-82625500D01*
X151646144Y-82625500D01*
X151735288Y-82601614D01*
X151815212Y-82555469D01*
X151880469Y-82490212D01*
X151895192Y-82464712D01*
X151914264Y-82431679D01*
X151959733Y-82390738D01*
X152020584Y-82384342D01*
X152073572Y-82414935D01*
X152085736Y-82431679D01*
X152119527Y-82490207D01*
X152119529Y-82490209D01*
X152119531Y-82490212D01*
X152184788Y-82555469D01*
X152264712Y-82601614D01*
X152353856Y-82625500D01*
X152353858Y-82625500D01*
X152446142Y-82625500D01*
X152446144Y-82625500D01*
X152535288Y-82601614D01*
X152615212Y-82555469D01*
X152680469Y-82490212D01*
X152726614Y-82410288D01*
X152750500Y-82321144D01*
X152750500Y-82228856D01*
X152726614Y-82139712D01*
X152680469Y-82059788D01*
X152615212Y-81994531D01*
X152562082Y-81963856D01*
X152535290Y-81948387D01*
X152535289Y-81948386D01*
X152535288Y-81948386D01*
X152446144Y-81924500D01*
X152353856Y-81924500D01*
X152264712Y-81948386D01*
X152264711Y-81948386D01*
X152264709Y-81948387D01*
X152184790Y-81994529D01*
X152119529Y-82059790D01*
X152085736Y-82118321D01*
X152040266Y-82159261D01*
X151979416Y-82165656D01*
X151926428Y-82135063D01*
X151914264Y-82118321D01*
X151880470Y-82059790D01*
X151880469Y-82059788D01*
X151815212Y-81994531D01*
X151762082Y-81963856D01*
X151735290Y-81948387D01*
X151735289Y-81948386D01*
X151735288Y-81948386D01*
X151646144Y-81924500D01*
X151553856Y-81924500D01*
X151464712Y-81948386D01*
X151464711Y-81948386D01*
X151464709Y-81948387D01*
X151384790Y-81994529D01*
X151319529Y-82059790D01*
X151285736Y-82118321D01*
X151240266Y-82159261D01*
X151179416Y-82165656D01*
X151126428Y-82135063D01*
X151114264Y-82118321D01*
X151080470Y-82059790D01*
X151080469Y-82059788D01*
X151015212Y-81994531D01*
X150962082Y-81963856D01*
X150935290Y-81948387D01*
X150935289Y-81948386D01*
X150935288Y-81948386D01*
X150846144Y-81924500D01*
X150753856Y-81924500D01*
X150664712Y-81948386D01*
X150664711Y-81948386D01*
X150664709Y-81948387D01*
X150584790Y-81994529D01*
X150519529Y-82059790D01*
X150485736Y-82118321D01*
X150440266Y-82159261D01*
X150379416Y-82165656D01*
X150326428Y-82135063D01*
X150314264Y-82118321D01*
X150280470Y-82059790D01*
X150280469Y-82059788D01*
X150215212Y-81994531D01*
X150162082Y-81963856D01*
X150135290Y-81948387D01*
X150135289Y-81948386D01*
X150135288Y-81948386D01*
X150046144Y-81924500D01*
X149953856Y-81924500D01*
X149864712Y-81948386D01*
X149864711Y-81948386D01*
X149864709Y-81948387D01*
X149784790Y-81994529D01*
X149719529Y-82059790D01*
X149673387Y-82139709D01*
X149673386Y-82139711D01*
X149673386Y-82139712D01*
X149649500Y-82228856D01*
X144546825Y-82228856D01*
X144550469Y-82225212D01*
X144596614Y-82145288D01*
X144620500Y-82056144D01*
X144620500Y-81963856D01*
X144596614Y-81874712D01*
X144550469Y-81794788D01*
X144485212Y-81729531D01*
X144485209Y-81729529D01*
X144485207Y-81729527D01*
X144480388Y-81726745D01*
X144439448Y-81681275D01*
X144433054Y-81620425D01*
X144444154Y-81591509D01*
X144467831Y-81550500D01*
X144476614Y-81535288D01*
X144500500Y-81446144D01*
X144500500Y-81353856D01*
X145449500Y-81353856D01*
X145449500Y-81446144D01*
X145473386Y-81535288D01*
X145519531Y-81615212D01*
X145584788Y-81680469D01*
X145664712Y-81726614D01*
X145753856Y-81750500D01*
X145753858Y-81750500D01*
X145846142Y-81750500D01*
X145846144Y-81750500D01*
X145935288Y-81726614D01*
X146015212Y-81680469D01*
X146080469Y-81615212D01*
X146126614Y-81535288D01*
X146150500Y-81446144D01*
X146150500Y-81353856D01*
X146126614Y-81264712D01*
X146080469Y-81184788D01*
X146015212Y-81119531D01*
X145935288Y-81073386D01*
X145846144Y-81049500D01*
X145753856Y-81049500D01*
X145664712Y-81073386D01*
X145664711Y-81073386D01*
X145664709Y-81073387D01*
X145584790Y-81119529D01*
X145519529Y-81184790D01*
X145473387Y-81264709D01*
X145473386Y-81264711D01*
X145473386Y-81264712D01*
X145449500Y-81353856D01*
X144500500Y-81353856D01*
X144476614Y-81264712D01*
X144430469Y-81184788D01*
X144365212Y-81119531D01*
X144285288Y-81073386D01*
X144196144Y-81049500D01*
X144103856Y-81049500D01*
X144014712Y-81073386D01*
X144014711Y-81073386D01*
X144014709Y-81073387D01*
X143934790Y-81119529D01*
X143869529Y-81184790D01*
X143823387Y-81264709D01*
X143823386Y-81264711D01*
X143823386Y-81264712D01*
X143799500Y-81353856D01*
X136415894Y-81353856D01*
X136426614Y-81335288D01*
X136431853Y-81315738D01*
X136438514Y-81290874D01*
X136450500Y-81246144D01*
X136450500Y-81153856D01*
X136426614Y-81064712D01*
X136380469Y-80984788D01*
X136315212Y-80919531D01*
X136315209Y-80919529D01*
X136315207Y-80919527D01*
X136256679Y-80885736D01*
X136215738Y-80840267D01*
X136209342Y-80779416D01*
X136239935Y-80726428D01*
X136256679Y-80714264D01*
X136315207Y-80680472D01*
X136315207Y-80680471D01*
X136315212Y-80680469D01*
X136380469Y-80615212D01*
X136426614Y-80535288D01*
X136450500Y-80446144D01*
X136450500Y-80353856D01*
X145899500Y-80353856D01*
X145899500Y-80446144D01*
X145921320Y-80527577D01*
X145923387Y-80535290D01*
X145940372Y-80564709D01*
X145969531Y-80615212D01*
X146034788Y-80680469D01*
X146114712Y-80726614D01*
X146203856Y-80750500D01*
X146203858Y-80750500D01*
X146296142Y-80750500D01*
X146296144Y-80750500D01*
X146385288Y-80726614D01*
X146465212Y-80680469D01*
X146516825Y-80628856D01*
X151174500Y-80628856D01*
X151174500Y-80721144D01*
X151193301Y-80791309D01*
X151198387Y-80810290D01*
X151241946Y-80885736D01*
X151244531Y-80890212D01*
X151309788Y-80955469D01*
X151389712Y-81001614D01*
X151478856Y-81025500D01*
X151478858Y-81025500D01*
X151571142Y-81025500D01*
X151571144Y-81025500D01*
X151660288Y-81001614D01*
X151740212Y-80955469D01*
X151805469Y-80890212D01*
X151851614Y-80810288D01*
X151875500Y-80721144D01*
X151875500Y-80628856D01*
X151851614Y-80539712D01*
X151805469Y-80459788D01*
X151740212Y-80394531D01*
X151704733Y-80374047D01*
X151660290Y-80348387D01*
X151660289Y-80348386D01*
X151660288Y-80348386D01*
X151571144Y-80324500D01*
X151478856Y-80324500D01*
X151389712Y-80348386D01*
X151389711Y-80348386D01*
X151389709Y-80348387D01*
X151309790Y-80394529D01*
X151244529Y-80459790D01*
X151198387Y-80539709D01*
X151198386Y-80539711D01*
X151198386Y-80539712D01*
X151174500Y-80628856D01*
X146516825Y-80628856D01*
X146530469Y-80615212D01*
X146576614Y-80535288D01*
X146600500Y-80446144D01*
X146600500Y-80353856D01*
X146576614Y-80264712D01*
X146530469Y-80184788D01*
X146465212Y-80119531D01*
X146449206Y-80110290D01*
X146385290Y-80073387D01*
X146385289Y-80073386D01*
X146385288Y-80073386D01*
X146296144Y-80049500D01*
X146203856Y-80049500D01*
X146114712Y-80073386D01*
X146114711Y-80073386D01*
X146114709Y-80073387D01*
X146034790Y-80119529D01*
X145969529Y-80184790D01*
X145923387Y-80264709D01*
X145923386Y-80264711D01*
X145923386Y-80264712D01*
X145899500Y-80353856D01*
X136450500Y-80353856D01*
X136426614Y-80264712D01*
X136380469Y-80184788D01*
X136315212Y-80119531D01*
X136299206Y-80110290D01*
X136235290Y-80073387D01*
X136235289Y-80073386D01*
X136235288Y-80073386D01*
X136146144Y-80049500D01*
X136053856Y-80049500D01*
X135964712Y-80073386D01*
X135964711Y-80073386D01*
X135964709Y-80073387D01*
X135884790Y-80119529D01*
X135853314Y-80151005D01*
X135846196Y-80154631D01*
X135841502Y-80161093D01*
X135819452Y-80168257D01*
X135798797Y-80178781D01*
X135783311Y-80180000D01*
X135616689Y-80180000D01*
X135558498Y-80161093D01*
X135546686Y-80151005D01*
X135515212Y-80119531D01*
X135499206Y-80110290D01*
X135435290Y-80073387D01*
X135435289Y-80073386D01*
X135435288Y-80073386D01*
X135346144Y-80049500D01*
X135253856Y-80049500D01*
X135164712Y-80073386D01*
X135164711Y-80073386D01*
X135164709Y-80073387D01*
X135084790Y-80119529D01*
X135053314Y-80151005D01*
X135046196Y-80154631D01*
X135041502Y-80161093D01*
X135019452Y-80168257D01*
X134998797Y-80178781D01*
X134983311Y-80180000D01*
X134816689Y-80180000D01*
X134758498Y-80161093D01*
X134746686Y-80151005D01*
X134715212Y-80119531D01*
X134699206Y-80110290D01*
X134635290Y-80073387D01*
X134635289Y-80073386D01*
X134635288Y-80073386D01*
X134546144Y-80049500D01*
X134453856Y-80049500D01*
X134364712Y-80073386D01*
X134364711Y-80073386D01*
X134364709Y-80073387D01*
X134284790Y-80119529D01*
X134253314Y-80151005D01*
X134246196Y-80154631D01*
X134241502Y-80161093D01*
X134219452Y-80168257D01*
X134198797Y-80178781D01*
X134183311Y-80180000D01*
X134016689Y-80180000D01*
X133958498Y-80161093D01*
X133946686Y-80151005D01*
X133915212Y-80119531D01*
X133899206Y-80110290D01*
X133835290Y-80073387D01*
X133835289Y-80073386D01*
X133835288Y-80073386D01*
X133746144Y-80049500D01*
X133653856Y-80049500D01*
X133564712Y-80073386D01*
X133564711Y-80073386D01*
X133564709Y-80073387D01*
X133484790Y-80119529D01*
X133453314Y-80151005D01*
X133446196Y-80154631D01*
X133441502Y-80161093D01*
X133419452Y-80168257D01*
X133398797Y-80178781D01*
X133383311Y-80180000D01*
X133216689Y-80180000D01*
X133158498Y-80161093D01*
X133146686Y-80151005D01*
X133115212Y-80119531D01*
X133099206Y-80110290D01*
X133035290Y-80073387D01*
X133035289Y-80073386D01*
X133035288Y-80073386D01*
X132946144Y-80049500D01*
X132853856Y-80049500D01*
X132764712Y-80073386D01*
X132764711Y-80073386D01*
X132764709Y-80073387D01*
X132684790Y-80119529D01*
X132653314Y-80151005D01*
X132646196Y-80154631D01*
X132641502Y-80161093D01*
X132619452Y-80168257D01*
X132598797Y-80178781D01*
X132583311Y-80180000D01*
X132416689Y-80180000D01*
X132358498Y-80161093D01*
X132346686Y-80151005D01*
X132315212Y-80119531D01*
X132299206Y-80110290D01*
X132235290Y-80073387D01*
X132235289Y-80073386D01*
X132235288Y-80073386D01*
X132146144Y-80049500D01*
X132053856Y-80049500D01*
X131964712Y-80073386D01*
X131964711Y-80073386D01*
X131964709Y-80073387D01*
X131884790Y-80119529D01*
X131853314Y-80151005D01*
X131846196Y-80154631D01*
X131841502Y-80161093D01*
X131819452Y-80168257D01*
X131798797Y-80178781D01*
X131783311Y-80180000D01*
X131616689Y-80180000D01*
X131558498Y-80161093D01*
X131546686Y-80151005D01*
X131515212Y-80119531D01*
X131499206Y-80110290D01*
X131435290Y-80073387D01*
X131435289Y-80073386D01*
X131435288Y-80073386D01*
X131346144Y-80049500D01*
X131253856Y-80049500D01*
X131164712Y-80073386D01*
X131164711Y-80073386D01*
X131164709Y-80073387D01*
X131084789Y-80119529D01*
X131084787Y-80119531D01*
X131019534Y-80184783D01*
X131019533Y-80184784D01*
X130980397Y-80252566D01*
X130967683Y-80269913D01*
X130451124Y-80834155D01*
X130403728Y-80862931D01*
X130364711Y-80873386D01*
X130284790Y-80919529D01*
X130219529Y-80984790D01*
X130173387Y-81064709D01*
X130173386Y-81064711D01*
X130173386Y-81064712D01*
X130149500Y-81153856D01*
X105239686Y-81153856D01*
X105528370Y-80653856D01*
X120899500Y-80653856D01*
X120899500Y-80746144D01*
X120923386Y-80835288D01*
X120923387Y-80835290D01*
X120952512Y-80885736D01*
X120969531Y-80915212D01*
X121034788Y-80980469D01*
X121114712Y-81026614D01*
X121203856Y-81050500D01*
X121203858Y-81050500D01*
X121296142Y-81050500D01*
X121296144Y-81050500D01*
X121385288Y-81026614D01*
X121465212Y-80980469D01*
X121530469Y-80915212D01*
X121576614Y-80835288D01*
X121600500Y-80746144D01*
X121600500Y-80653856D01*
X121576614Y-80564712D01*
X121530469Y-80484788D01*
X121465212Y-80419531D01*
X121465209Y-80419529D01*
X121461581Y-80415901D01*
X121433804Y-80361384D01*
X121443375Y-80300952D01*
X121482087Y-80260159D01*
X121490212Y-80255469D01*
X121555469Y-80190212D01*
X121601614Y-80110288D01*
X121625500Y-80021144D01*
X121625500Y-79928856D01*
X121601614Y-79839712D01*
X121555469Y-79759788D01*
X121490212Y-79694531D01*
X121474272Y-79685328D01*
X121410290Y-79648387D01*
X121410289Y-79648386D01*
X121410288Y-79648386D01*
X121321144Y-79624500D01*
X121228856Y-79624500D01*
X121139712Y-79648386D01*
X121139711Y-79648386D01*
X121139709Y-79648387D01*
X121059790Y-79694529D01*
X120994529Y-79759790D01*
X120948387Y-79839709D01*
X120948386Y-79839711D01*
X120948386Y-79839712D01*
X120924500Y-79928856D01*
X120924500Y-80021144D01*
X120948386Y-80110288D01*
X120948387Y-80110290D01*
X120991400Y-80184790D01*
X120994531Y-80190212D01*
X121059788Y-80255469D01*
X121059790Y-80255470D01*
X121063418Y-80259098D01*
X121091195Y-80313615D01*
X121081624Y-80374047D01*
X121042917Y-80414837D01*
X121034791Y-80419528D01*
X120969529Y-80484790D01*
X120923387Y-80564709D01*
X120923386Y-80564711D01*
X120923386Y-80564712D01*
X120899500Y-80653856D01*
X105528370Y-80653856D01*
X106192320Y-79503894D01*
X140165806Y-79503894D01*
X140165806Y-79596182D01*
X140189692Y-79685326D01*
X140189693Y-79685328D01*
X140232684Y-79759790D01*
X140235837Y-79765250D01*
X140301094Y-79830507D01*
X140381018Y-79876652D01*
X140470162Y-79900538D01*
X140470164Y-79900538D01*
X140562448Y-79900538D01*
X140562450Y-79900538D01*
X140651594Y-79876652D01*
X140731518Y-79830507D01*
X140750392Y-79811632D01*
X140804906Y-79783855D01*
X140865338Y-79793425D01*
X140890395Y-79811629D01*
X140893932Y-79815166D01*
X140973856Y-79861311D01*
X141063000Y-79885197D01*
X141063002Y-79885197D01*
X141155286Y-79885197D01*
X141155288Y-79885197D01*
X141244432Y-79861311D01*
X141324356Y-79815166D01*
X141389613Y-79749909D01*
X141435758Y-79669985D01*
X141459644Y-79580841D01*
X141459644Y-79503856D01*
X142649500Y-79503856D01*
X142649500Y-79596144D01*
X142673386Y-79685288D01*
X142673387Y-79685290D01*
X142716400Y-79759790D01*
X142719531Y-79765212D01*
X142784788Y-79830469D01*
X142864712Y-79876614D01*
X142953856Y-79900500D01*
X142953858Y-79900500D01*
X143046142Y-79900500D01*
X143046144Y-79900500D01*
X143135288Y-79876614D01*
X143215212Y-79830469D01*
X143280469Y-79765212D01*
X143280472Y-79765207D01*
X143324264Y-79689359D01*
X143369734Y-79648418D01*
X143430584Y-79642022D01*
X143483572Y-79672615D01*
X143495736Y-79689359D01*
X143539527Y-79765207D01*
X143539529Y-79765209D01*
X143539531Y-79765212D01*
X143604788Y-79830469D01*
X143684712Y-79876614D01*
X143773856Y-79900500D01*
X143773858Y-79900500D01*
X143866142Y-79900500D01*
X143866144Y-79900500D01*
X143955288Y-79876614D01*
X144035212Y-79830469D01*
X144100469Y-79765212D01*
X144146614Y-79685288D01*
X144170500Y-79596144D01*
X144170500Y-79503856D01*
X144169653Y-79500696D01*
X149308764Y-79500696D01*
X149308764Y-79606150D01*
X149336057Y-79708010D01*
X149336058Y-79708012D01*
X149336058Y-79708013D01*
X149369104Y-79765250D01*
X149388784Y-79799336D01*
X149463351Y-79873903D01*
X149554677Y-79926630D01*
X149656537Y-79953923D01*
X149656539Y-79953923D01*
X149761989Y-79953923D01*
X149761991Y-79953923D01*
X149863851Y-79926630D01*
X149955177Y-79873903D01*
X150029744Y-79799336D01*
X150082471Y-79708010D01*
X150109764Y-79606150D01*
X150109764Y-79500696D01*
X150082471Y-79398836D01*
X150082323Y-79398580D01*
X150040774Y-79326614D01*
X150029744Y-79307510D01*
X149955177Y-79232943D01*
X149944211Y-79226612D01*
X149863853Y-79180217D01*
X149863852Y-79180216D01*
X149863851Y-79180216D01*
X149761991Y-79152923D01*
X149656537Y-79152923D01*
X149554677Y-79180216D01*
X149554676Y-79180216D01*
X149554674Y-79180217D01*
X149554673Y-79180217D01*
X149463353Y-79232941D01*
X149388782Y-79307512D01*
X149336058Y-79398832D01*
X149336058Y-79398833D01*
X149336057Y-79398835D01*
X149336057Y-79398836D01*
X149308764Y-79500696D01*
X144169653Y-79500696D01*
X144146614Y-79414712D01*
X144100469Y-79334788D01*
X144035212Y-79269531D01*
X144027731Y-79265212D01*
X143955290Y-79223387D01*
X143955289Y-79223386D01*
X143955288Y-79223386D01*
X143866144Y-79199500D01*
X143773856Y-79199500D01*
X143684712Y-79223386D01*
X143684711Y-79223386D01*
X143684709Y-79223387D01*
X143604790Y-79269529D01*
X143539529Y-79334790D01*
X143495736Y-79410641D01*
X143450266Y-79451581D01*
X143389416Y-79457976D01*
X143336428Y-79427383D01*
X143324264Y-79410641D01*
X143280470Y-79334790D01*
X143280469Y-79334788D01*
X143215212Y-79269531D01*
X143207731Y-79265212D01*
X143135290Y-79223387D01*
X143135289Y-79223386D01*
X143135288Y-79223386D01*
X143046144Y-79199500D01*
X142953856Y-79199500D01*
X142864712Y-79223386D01*
X142864711Y-79223386D01*
X142864709Y-79223387D01*
X142784790Y-79269529D01*
X142719529Y-79334790D01*
X142673387Y-79414709D01*
X142673386Y-79414711D01*
X142673386Y-79414712D01*
X142649500Y-79503856D01*
X141459644Y-79503856D01*
X141459644Y-79488553D01*
X141435758Y-79399409D01*
X141389613Y-79319485D01*
X141324356Y-79254228D01*
X141256774Y-79215209D01*
X141244434Y-79208084D01*
X141244433Y-79208083D01*
X141244432Y-79208083D01*
X141155288Y-79184197D01*
X141063000Y-79184197D01*
X140973856Y-79208083D01*
X140973855Y-79208083D01*
X140973853Y-79208084D01*
X140893933Y-79254226D01*
X140875056Y-79273103D01*
X140820539Y-79300879D01*
X140760107Y-79291307D01*
X140735053Y-79273104D01*
X140731518Y-79269569D01*
X140731452Y-79269531D01*
X140651596Y-79223425D01*
X140651595Y-79223424D01*
X140651594Y-79223424D01*
X140562450Y-79199538D01*
X140470162Y-79199538D01*
X140381018Y-79223424D01*
X140381017Y-79223424D01*
X140381015Y-79223425D01*
X140301096Y-79269567D01*
X140235835Y-79334828D01*
X140189693Y-79414747D01*
X140189692Y-79414749D01*
X140189692Y-79414750D01*
X140165806Y-79503894D01*
X106192320Y-79503894D01*
X106827446Y-78403856D01*
X108649500Y-78403856D01*
X108649500Y-78496144D01*
X108669164Y-78569531D01*
X108673387Y-78585290D01*
X108701966Y-78634790D01*
X108719531Y-78665212D01*
X108784788Y-78730469D01*
X108864712Y-78776614D01*
X108953856Y-78800500D01*
X108953860Y-78800500D01*
X108959831Y-78802100D01*
X109002294Y-78825857D01*
X109287596Y-79096144D01*
X109306260Y-79113825D01*
X109323909Y-79136194D01*
X109369527Y-79215207D01*
X109369529Y-79215209D01*
X109369531Y-79215212D01*
X109434788Y-79280469D01*
X109514712Y-79326614D01*
X109603856Y-79350500D01*
X109603858Y-79350500D01*
X109696142Y-79350500D01*
X109696144Y-79350500D01*
X109785288Y-79326614D01*
X109865212Y-79280469D01*
X109930469Y-79215212D01*
X109976614Y-79135288D01*
X110000500Y-79046144D01*
X110000500Y-78953856D01*
X109988541Y-78909228D01*
X109986065Y-78896886D01*
X109981883Y-78865939D01*
X110797224Y-78865939D01*
X110797224Y-78958227D01*
X110821110Y-79047371D01*
X110821111Y-79047373D01*
X110860278Y-79115212D01*
X110867255Y-79127295D01*
X110932512Y-79192552D01*
X111012436Y-79238697D01*
X111101580Y-79262583D01*
X111101582Y-79262583D01*
X111193866Y-79262583D01*
X111193868Y-79262583D01*
X111283012Y-79238697D01*
X111362936Y-79192552D01*
X111428193Y-79127295D01*
X111474338Y-79047371D01*
X111498224Y-78958227D01*
X111498224Y-78865939D01*
X111474338Y-78776795D01*
X111428193Y-78696871D01*
X111362936Y-78631614D01*
X111354272Y-78626612D01*
X111283014Y-78585470D01*
X111283013Y-78585469D01*
X111283012Y-78585469D01*
X111193868Y-78561583D01*
X111101580Y-78561583D01*
X111012436Y-78585469D01*
X111012435Y-78585469D01*
X111012433Y-78585470D01*
X110932514Y-78631612D01*
X110867253Y-78696873D01*
X110821111Y-78776792D01*
X110821110Y-78776794D01*
X110821110Y-78776795D01*
X110797224Y-78865939D01*
X109981883Y-78865939D01*
X109850000Y-77890000D01*
X109847258Y-77869710D01*
X109844855Y-77867761D01*
X109832304Y-77839538D01*
X109828890Y-77826795D01*
X109782745Y-77746871D01*
X109717488Y-77681614D01*
X109637564Y-77635469D01*
X109548420Y-77611583D01*
X109456132Y-77611583D01*
X109366988Y-77635469D01*
X109366987Y-77635469D01*
X109366985Y-77635470D01*
X109287066Y-77681612D01*
X109221805Y-77746873D01*
X109175663Y-77826792D01*
X109175663Y-77826793D01*
X109175662Y-77826795D01*
X109155014Y-77903857D01*
X109151776Y-77915940D01*
X109151776Y-78000518D01*
X109132869Y-78058709D01*
X109083369Y-78094673D01*
X109052633Y-78097585D01*
X109052633Y-78099500D01*
X109046144Y-78099500D01*
X108953856Y-78099500D01*
X108864712Y-78123386D01*
X108864711Y-78123386D01*
X108864709Y-78123387D01*
X108784790Y-78169529D01*
X108719529Y-78234790D01*
X108673387Y-78314709D01*
X108673386Y-78314711D01*
X108673386Y-78314712D01*
X108649500Y-78403856D01*
X106827446Y-78403856D01*
X107330103Y-77533254D01*
X112004538Y-77533254D01*
X112004538Y-77533257D01*
X112004538Y-77705715D01*
X112031156Y-77839535D01*
X112038183Y-77874859D01*
X112038183Y-77874861D01*
X112104177Y-78034186D01*
X112104183Y-78034198D01*
X112172698Y-78136735D01*
X112199993Y-78177585D01*
X112321939Y-78299531D01*
X112366303Y-78329174D01*
X112465325Y-78395340D01*
X112465337Y-78395346D01*
X112524191Y-78419724D01*
X112624664Y-78461341D01*
X112793809Y-78494986D01*
X112793810Y-78494986D01*
X112966266Y-78494986D01*
X112966267Y-78494986D01*
X113135412Y-78461341D01*
X113294743Y-78395344D01*
X113294745Y-78395342D01*
X113294750Y-78395340D01*
X113336153Y-78367674D01*
X113438137Y-78299531D01*
X113560083Y-78177585D01*
X113575938Y-78153856D01*
X119149500Y-78153856D01*
X119149500Y-78246144D01*
X119163804Y-78299527D01*
X119173387Y-78335290D01*
X119208057Y-78395340D01*
X119219531Y-78415212D01*
X119284317Y-78479998D01*
X119312093Y-78534513D01*
X119302522Y-78594945D01*
X119284318Y-78620000D01*
X119239110Y-78665209D01*
X119219529Y-78684790D01*
X119173387Y-78764709D01*
X119173386Y-78764711D01*
X119173386Y-78764712D01*
X119149500Y-78853856D01*
X119149500Y-78946144D01*
X119173386Y-79035288D01*
X119173387Y-79035290D01*
X119208520Y-79096142D01*
X119219531Y-79115212D01*
X119284788Y-79180469D01*
X119364712Y-79226614D01*
X119453856Y-79250500D01*
X119453858Y-79250500D01*
X119546142Y-79250500D01*
X119546144Y-79250500D01*
X119635288Y-79226614D01*
X119715212Y-79180469D01*
X119779998Y-79115682D01*
X119834513Y-79087907D01*
X119894945Y-79097478D01*
X119920000Y-79115681D01*
X119984788Y-79180469D01*
X120064712Y-79226614D01*
X120153856Y-79250500D01*
X120153858Y-79250500D01*
X120246142Y-79250500D01*
X120246144Y-79250500D01*
X120335288Y-79226614D01*
X120415212Y-79180469D01*
X120480469Y-79115212D01*
X120526614Y-79035288D01*
X120535036Y-79003856D01*
X144499500Y-79003856D01*
X144499500Y-79096144D01*
X144522095Y-79180469D01*
X144523387Y-79185290D01*
X144536547Y-79208084D01*
X144569531Y-79265212D01*
X144634788Y-79330469D01*
X144714712Y-79376614D01*
X144803856Y-79400500D01*
X144803858Y-79400500D01*
X144896143Y-79400500D01*
X144896144Y-79400500D01*
X144985288Y-79376614D01*
X145065212Y-79330469D01*
X145130469Y-79265212D01*
X145176614Y-79185288D01*
X145200500Y-79096144D01*
X145200500Y-79003856D01*
X145176614Y-78914712D01*
X145176612Y-78914709D01*
X145176612Y-78914707D01*
X145137447Y-78846872D01*
X145137444Y-78846869D01*
X145130470Y-78834790D01*
X145130469Y-78834788D01*
X145099537Y-78803856D01*
X145799500Y-78803856D01*
X145799500Y-78896144D01*
X145823148Y-78984398D01*
X145823387Y-78985290D01*
X145858520Y-79046142D01*
X145869531Y-79065212D01*
X145934788Y-79130469D01*
X146014712Y-79176614D01*
X146103856Y-79200500D01*
X146103858Y-79200500D01*
X146196142Y-79200500D01*
X146196144Y-79200500D01*
X146285288Y-79176614D01*
X146365212Y-79130469D01*
X146430469Y-79065212D01*
X146476614Y-78985288D01*
X146500500Y-78896144D01*
X146500500Y-78803856D01*
X146476614Y-78714712D01*
X146430469Y-78634788D01*
X146365212Y-78569531D01*
X146285288Y-78523386D01*
X146196144Y-78499500D01*
X146103856Y-78499500D01*
X146014712Y-78523386D01*
X146014711Y-78523386D01*
X146014709Y-78523387D01*
X145934790Y-78569529D01*
X145869529Y-78634790D01*
X145823387Y-78714709D01*
X145823386Y-78714711D01*
X145823386Y-78714712D01*
X145799500Y-78803856D01*
X145099537Y-78803856D01*
X145065212Y-78769531D01*
X145056865Y-78764712D01*
X144985290Y-78723387D01*
X144985289Y-78723386D01*
X144985288Y-78723386D01*
X144896144Y-78699500D01*
X144803856Y-78699500D01*
X144714712Y-78723386D01*
X144714711Y-78723386D01*
X144714709Y-78723387D01*
X144634790Y-78769529D01*
X144569529Y-78834790D01*
X144523387Y-78914709D01*
X144523386Y-78914711D01*
X144523386Y-78914712D01*
X144499500Y-79003856D01*
X120535036Y-79003856D01*
X120550500Y-78946144D01*
X120550500Y-78853856D01*
X120540017Y-78814734D01*
X120540000Y-78801769D01*
X120540012Y-78801729D01*
X120540000Y-78801634D01*
X120540000Y-78298364D01*
X120543373Y-78272741D01*
X120548433Y-78253857D01*
X120550500Y-78246144D01*
X120550500Y-78153856D01*
X120548810Y-78147549D01*
X120543373Y-78127255D01*
X120540000Y-78101634D01*
X120540000Y-77903856D01*
X136688670Y-77903856D01*
X136688670Y-77996144D01*
X136707042Y-78064709D01*
X136712557Y-78085290D01*
X136758410Y-78164709D01*
X136758701Y-78165212D01*
X136823958Y-78230469D01*
X136903882Y-78276614D01*
X136993026Y-78300500D01*
X136993028Y-78300500D01*
X137085312Y-78300500D01*
X137085314Y-78300500D01*
X137174458Y-78276614D01*
X137213875Y-78253856D01*
X143099500Y-78253856D01*
X143099500Y-78346144D01*
X143118006Y-78415209D01*
X143123387Y-78435290D01*
X143160459Y-78499500D01*
X143169531Y-78515212D01*
X143234788Y-78580469D01*
X143314712Y-78626614D01*
X143403856Y-78650500D01*
X143403858Y-78650500D01*
X143496142Y-78650500D01*
X143496144Y-78650500D01*
X143585288Y-78626614D01*
X143665212Y-78580469D01*
X143730469Y-78515212D01*
X143776614Y-78435288D01*
X143800500Y-78346144D01*
X143800500Y-78253856D01*
X143776614Y-78164712D01*
X143730469Y-78084788D01*
X143665212Y-78019531D01*
X143645633Y-78008227D01*
X143585290Y-77973387D01*
X143585289Y-77973386D01*
X143585288Y-77973386D01*
X143496144Y-77949500D01*
X143403856Y-77949500D01*
X143314712Y-77973386D01*
X143314711Y-77973386D01*
X143314709Y-77973387D01*
X143234790Y-78019529D01*
X143169529Y-78084790D01*
X143123387Y-78164709D01*
X143123386Y-78164711D01*
X143123386Y-78164712D01*
X143099500Y-78253856D01*
X137213875Y-78253856D01*
X137254382Y-78230469D01*
X137319639Y-78165212D01*
X137365784Y-78085288D01*
X137389670Y-77996144D01*
X137389670Y-77903856D01*
X137365784Y-77814712D01*
X137319639Y-77734788D01*
X137254382Y-77669531D01*
X137174458Y-77623386D01*
X137085314Y-77599500D01*
X136993026Y-77599500D01*
X136903882Y-77623386D01*
X136903881Y-77623386D01*
X136903879Y-77623387D01*
X136823960Y-77669529D01*
X136758699Y-77734790D01*
X136712557Y-77814709D01*
X136712556Y-77814711D01*
X136712556Y-77814712D01*
X136688670Y-77903856D01*
X120540000Y-77903856D01*
X120540000Y-77585330D01*
X120550500Y-77546144D01*
X120550500Y-77453856D01*
X120540000Y-77414669D01*
X120540000Y-76898364D01*
X120543373Y-76872741D01*
X120548433Y-76853857D01*
X120550500Y-76846144D01*
X120550500Y-76753856D01*
X120526614Y-76664712D01*
X120480469Y-76584788D01*
X120415212Y-76519531D01*
X120415158Y-76519500D01*
X120335290Y-76473387D01*
X120335289Y-76473386D01*
X120335288Y-76473386D01*
X120246144Y-76449500D01*
X120153856Y-76449500D01*
X120064712Y-76473386D01*
X120064711Y-76473386D01*
X120064709Y-76473387D01*
X119984790Y-76519529D01*
X119919529Y-76584790D01*
X119873387Y-76664709D01*
X119873386Y-76664711D01*
X119873386Y-76664712D01*
X119850400Y-76750500D01*
X119847821Y-76760124D01*
X119847563Y-76760054D01*
X119841217Y-76781861D01*
X119335023Y-77869796D01*
X119294772Y-77913765D01*
X119284791Y-77919528D01*
X119219529Y-77984790D01*
X119173387Y-78064709D01*
X119173386Y-78064711D01*
X119173386Y-78064712D01*
X119149500Y-78153856D01*
X113575938Y-78153856D01*
X113587848Y-78136030D01*
X113617026Y-78092365D01*
X113655892Y-78034198D01*
X113655898Y-78034186D01*
X113661969Y-78019529D01*
X113721893Y-77874860D01*
X113755538Y-77705715D01*
X113755538Y-77533257D01*
X113721893Y-77364112D01*
X113688650Y-77283856D01*
X113655898Y-77204785D01*
X113655892Y-77204773D01*
X113576939Y-77086614D01*
X113560083Y-77061387D01*
X113438137Y-76939441D01*
X113397287Y-76912146D01*
X113294750Y-76843631D01*
X113294738Y-76843625D01*
X113135412Y-76777631D01*
X112966269Y-76743986D01*
X112966267Y-76743986D01*
X112793809Y-76743986D01*
X112793806Y-76743986D01*
X112624664Y-76777631D01*
X112624662Y-76777631D01*
X112465337Y-76843625D01*
X112465325Y-76843631D01*
X112321939Y-76939441D01*
X112321935Y-76939444D01*
X112199996Y-77061383D01*
X112199993Y-77061387D01*
X112104183Y-77204773D01*
X112104177Y-77204785D01*
X112038183Y-77364110D01*
X112038183Y-77364112D01*
X112004538Y-77533254D01*
X107330103Y-77533254D01*
X108012214Y-76351838D01*
X128153205Y-76351838D01*
X128153205Y-76444126D01*
X128173410Y-76519531D01*
X128177092Y-76533272D01*
X128206836Y-76584790D01*
X128223236Y-76613194D01*
X128288493Y-76678451D01*
X128368417Y-76724596D01*
X128457561Y-76748482D01*
X128457563Y-76748482D01*
X128538084Y-76748482D01*
X128596275Y-76767389D01*
X128632239Y-76816889D01*
X128633709Y-76821852D01*
X128653386Y-76895288D01*
X128699531Y-76975212D01*
X128764788Y-77040469D01*
X128844712Y-77086614D01*
X128933856Y-77110500D01*
X128933858Y-77110500D01*
X129026142Y-77110500D01*
X129026144Y-77110500D01*
X129115288Y-77086614D01*
X129195212Y-77040469D01*
X129260469Y-76975212D01*
X129306614Y-76895288D01*
X129325754Y-76823856D01*
X130859500Y-76823856D01*
X130859500Y-76916144D01*
X130883386Y-77005288D01*
X130929531Y-77085212D01*
X130994788Y-77150469D01*
X131074712Y-77196614D01*
X131163856Y-77220500D01*
X131163858Y-77220500D01*
X131256143Y-77220500D01*
X131256144Y-77220500D01*
X131256144Y-77220499D01*
X131262576Y-77219653D01*
X131262787Y-77221257D01*
X131315961Y-77224034D01*
X131363518Y-77262530D01*
X131379500Y-77316465D01*
X131379500Y-77376144D01*
X131389823Y-77414669D01*
X131403387Y-77465290D01*
X131442628Y-77533257D01*
X131449531Y-77545212D01*
X131514788Y-77610469D01*
X131594712Y-77656614D01*
X131683856Y-77680500D01*
X131683858Y-77680500D01*
X131776142Y-77680500D01*
X131776144Y-77680500D01*
X131865288Y-77656614D01*
X131945212Y-77610469D01*
X132010469Y-77545212D01*
X132017373Y-77533254D01*
X144244462Y-77533254D01*
X144244462Y-77533257D01*
X144244462Y-77705715D01*
X144271080Y-77839535D01*
X144278107Y-77874859D01*
X144278107Y-77874861D01*
X144344101Y-78034186D01*
X144344107Y-78034198D01*
X144412622Y-78136735D01*
X144439917Y-78177585D01*
X144561863Y-78299531D01*
X144606227Y-78329174D01*
X144705249Y-78395340D01*
X144705261Y-78395346D01*
X144764115Y-78419724D01*
X144864588Y-78461341D01*
X145033733Y-78494986D01*
X145033734Y-78494986D01*
X145206190Y-78494986D01*
X145206191Y-78494986D01*
X145375336Y-78461341D01*
X145534667Y-78395344D01*
X145534669Y-78395342D01*
X145534674Y-78395340D01*
X145576077Y-78367674D01*
X145678061Y-78299531D01*
X145800007Y-78177585D01*
X145868150Y-78075601D01*
X145895816Y-78034198D01*
X145895822Y-78034186D01*
X145901893Y-78019529D01*
X145961817Y-77874860D01*
X145995462Y-77705715D01*
X145995462Y-77533257D01*
X145961817Y-77364112D01*
X145928574Y-77283856D01*
X145895822Y-77204785D01*
X145895816Y-77204773D01*
X145816863Y-77086614D01*
X145800007Y-77061387D01*
X145678061Y-76939441D01*
X145616585Y-76898364D01*
X145549975Y-76853856D01*
X148449500Y-76853856D01*
X148449500Y-76946144D01*
X148473386Y-77035288D01*
X148473387Y-77035290D01*
X148503019Y-77086614D01*
X148519531Y-77115212D01*
X148584788Y-77180469D01*
X148664712Y-77226614D01*
X148753856Y-77250500D01*
X148753858Y-77250500D01*
X148846142Y-77250500D01*
X148846144Y-77250500D01*
X148935288Y-77226614D01*
X149015212Y-77180469D01*
X149080469Y-77115212D01*
X149126614Y-77035288D01*
X149150500Y-76946144D01*
X149150500Y-76853856D01*
X149126614Y-76764712D01*
X149080469Y-76684788D01*
X149015212Y-76619531D01*
X149007731Y-76615212D01*
X148935290Y-76573387D01*
X148935289Y-76573386D01*
X148935288Y-76573386D01*
X148846144Y-76549500D01*
X148753856Y-76549500D01*
X148664712Y-76573386D01*
X148664711Y-76573386D01*
X148664709Y-76573387D01*
X148584790Y-76619529D01*
X148519529Y-76684790D01*
X148473387Y-76764709D01*
X148473386Y-76764711D01*
X148473386Y-76764712D01*
X148449500Y-76853856D01*
X145549975Y-76853856D01*
X145534673Y-76843631D01*
X145534662Y-76843625D01*
X145375336Y-76777631D01*
X145206193Y-76743986D01*
X145206191Y-76743986D01*
X145033733Y-76743986D01*
X145033730Y-76743986D01*
X144864588Y-76777631D01*
X144864586Y-76777631D01*
X144705261Y-76843625D01*
X144705249Y-76843631D01*
X144561863Y-76939441D01*
X144561859Y-76939444D01*
X144439920Y-77061383D01*
X144439917Y-77061387D01*
X144344107Y-77204773D01*
X144344101Y-77204785D01*
X144278107Y-77364110D01*
X144278107Y-77364112D01*
X144244462Y-77533254D01*
X132017373Y-77533254D01*
X132056614Y-77465288D01*
X132080500Y-77376144D01*
X132080500Y-77283856D01*
X132056614Y-77194712D01*
X132010469Y-77114788D01*
X131945212Y-77049531D01*
X131929518Y-77040470D01*
X131865290Y-77003387D01*
X131865289Y-77003386D01*
X131865288Y-77003386D01*
X131776144Y-76979500D01*
X131683856Y-76979500D01*
X131683855Y-76979500D01*
X131677424Y-76980347D01*
X131677213Y-76978746D01*
X131624021Y-76975958D01*
X131576471Y-76937453D01*
X131560500Y-76883534D01*
X131560500Y-76823857D01*
X131555754Y-76806144D01*
X131536614Y-76734712D01*
X131490469Y-76654788D01*
X131425212Y-76589531D01*
X131417000Y-76584790D01*
X131345290Y-76543387D01*
X131345289Y-76543386D01*
X131345288Y-76543386D01*
X131256144Y-76519500D01*
X131163856Y-76519500D01*
X131074712Y-76543386D01*
X131074711Y-76543386D01*
X131074709Y-76543387D01*
X130994790Y-76589529D01*
X130929529Y-76654790D01*
X130883387Y-76734709D01*
X130883386Y-76734711D01*
X130883386Y-76734712D01*
X130859500Y-76823856D01*
X129325754Y-76823856D01*
X129327052Y-76819011D01*
X129360373Y-76767700D01*
X129417495Y-76745773D01*
X129448300Y-76749011D01*
X129453856Y-76750500D01*
X129453858Y-76750500D01*
X129546142Y-76750500D01*
X129546144Y-76750500D01*
X129635288Y-76726614D01*
X129715212Y-76680469D01*
X129780469Y-76615212D01*
X129826614Y-76535288D01*
X129850500Y-76446144D01*
X129850500Y-76353856D01*
X129826614Y-76264712D01*
X129780469Y-76184788D01*
X129715212Y-76119531D01*
X129711713Y-76117511D01*
X129635290Y-76073387D01*
X129635289Y-76073386D01*
X129635288Y-76073386D01*
X129546144Y-76049500D01*
X129453856Y-76049500D01*
X129445123Y-76051840D01*
X129433803Y-76054873D01*
X129372701Y-76051670D01*
X129325152Y-76013164D01*
X129312555Y-75984870D01*
X129306614Y-75962696D01*
X129260469Y-75882772D01*
X129195212Y-75817515D01*
X129148092Y-75790310D01*
X129115290Y-75771371D01*
X129115289Y-75771370D01*
X129115288Y-75771370D01*
X129026144Y-75747484D01*
X128933856Y-75747484D01*
X128844712Y-75771370D01*
X128844711Y-75771370D01*
X128844709Y-75771371D01*
X128764790Y-75817513D01*
X128699529Y-75882774D01*
X128653385Y-75962695D01*
X128650328Y-75974107D01*
X128617003Y-76025421D01*
X128559881Y-76047346D01*
X128554702Y-76047482D01*
X128549849Y-76047482D01*
X128457561Y-76047482D01*
X128368417Y-76071368D01*
X128368416Y-76071368D01*
X128368414Y-76071369D01*
X128288495Y-76117511D01*
X128223234Y-76182772D01*
X128177092Y-76262691D01*
X128177091Y-76262693D01*
X128177091Y-76262694D01*
X128153205Y-76351838D01*
X108012214Y-76351838D01*
X108790494Y-75003856D01*
X111349500Y-75003856D01*
X111349500Y-75096144D01*
X111371062Y-75176614D01*
X111373387Y-75185290D01*
X111419241Y-75264711D01*
X111419531Y-75265212D01*
X111484788Y-75330469D01*
X111564712Y-75376614D01*
X111653856Y-75400500D01*
X111653858Y-75400500D01*
X111746142Y-75400500D01*
X111746144Y-75400500D01*
X111828842Y-75378341D01*
X111889941Y-75381543D01*
X111937491Y-75420049D01*
X111950090Y-75448345D01*
X111973387Y-75535290D01*
X112019240Y-75614709D01*
X112019531Y-75615212D01*
X112084788Y-75680469D01*
X112164712Y-75726614D01*
X112253856Y-75750500D01*
X112253858Y-75750500D01*
X112346142Y-75750500D01*
X112346144Y-75750500D01*
X112435288Y-75726614D01*
X112451077Y-75717497D01*
X112510924Y-75704775D01*
X112566821Y-75729660D01*
X112597415Y-75782647D01*
X112598732Y-75790310D01*
X112599499Y-75796141D01*
X112599500Y-75796144D01*
X112623386Y-75885288D01*
X112669531Y-75965212D01*
X112734788Y-76030469D01*
X112814712Y-76076614D01*
X112903856Y-76100500D01*
X112903858Y-76100500D01*
X112996142Y-76100500D01*
X112996144Y-76100500D01*
X113085288Y-76076614D01*
X113165212Y-76030469D01*
X113230469Y-75965212D01*
X113276614Y-75885288D01*
X113300500Y-75796144D01*
X113300500Y-75703856D01*
X113287103Y-75653856D01*
X120849500Y-75653856D01*
X120849500Y-75746144D01*
X120868624Y-75817515D01*
X120873387Y-75835290D01*
X120900802Y-75882774D01*
X120919531Y-75915212D01*
X120984788Y-75980469D01*
X121064712Y-76026614D01*
X121153856Y-76050500D01*
X121153858Y-76050500D01*
X121246142Y-76050500D01*
X121246144Y-76050500D01*
X121335288Y-76026614D01*
X121390248Y-75994881D01*
X121441513Y-75981633D01*
X121669056Y-75985697D01*
X121716787Y-75998944D01*
X121764712Y-76026614D01*
X121853856Y-76050500D01*
X121853858Y-76050500D01*
X121946142Y-76050500D01*
X121946144Y-76050500D01*
X122035288Y-76026614D01*
X122069246Y-76007007D01*
X122120512Y-75993758D01*
X122391397Y-75998596D01*
X122439130Y-76011844D01*
X122464712Y-76026614D01*
X122553856Y-76050500D01*
X122553858Y-76050500D01*
X122646142Y-76050500D01*
X122646144Y-76050500D01*
X122735288Y-76026614D01*
X122815212Y-75980469D01*
X122880469Y-75915212D01*
X122926614Y-75835288D01*
X122950500Y-75746144D01*
X122950500Y-75653856D01*
X140349500Y-75653856D01*
X140349500Y-75746144D01*
X140368624Y-75817515D01*
X140373387Y-75835290D01*
X140400802Y-75882774D01*
X140419531Y-75915212D01*
X140484788Y-75980469D01*
X140564712Y-76026614D01*
X140653856Y-76050500D01*
X140653858Y-76050500D01*
X140746143Y-76050500D01*
X140746144Y-76050500D01*
X140794690Y-76037492D01*
X140855789Y-76040693D01*
X140903340Y-76079197D01*
X140915938Y-76107494D01*
X140923385Y-76135287D01*
X140969529Y-76215209D01*
X140969531Y-76215212D01*
X141034788Y-76280469D01*
X141114712Y-76326614D01*
X141203856Y-76350500D01*
X141203858Y-76350500D01*
X141296142Y-76350500D01*
X141296144Y-76350500D01*
X141385288Y-76326614D01*
X141465212Y-76280469D01*
X141530469Y-76215212D01*
X141576614Y-76135288D01*
X141600500Y-76046144D01*
X141600500Y-75953856D01*
X141576614Y-75864712D01*
X141530469Y-75784788D01*
X141515682Y-75770001D01*
X141487907Y-75715487D01*
X141497478Y-75655055D01*
X141515681Y-75629999D01*
X141530469Y-75615212D01*
X141576614Y-75535288D01*
X141600500Y-75446144D01*
X141600500Y-75353856D01*
X141576614Y-75264712D01*
X141530469Y-75184788D01*
X141465212Y-75119531D01*
X141457731Y-75115212D01*
X141385290Y-75073387D01*
X141385289Y-75073386D01*
X141385288Y-75073386D01*
X141296144Y-75049500D01*
X141203856Y-75049500D01*
X141114712Y-75073386D01*
X141114711Y-75073386D01*
X141114709Y-75073387D01*
X141034790Y-75119529D01*
X140969529Y-75184790D01*
X140923386Y-75264711D01*
X140915938Y-75292506D01*
X140882613Y-75343820D01*
X140825491Y-75365745D01*
X140794691Y-75362508D01*
X140746144Y-75349500D01*
X140653856Y-75349500D01*
X140564712Y-75373386D01*
X140564711Y-75373386D01*
X140564709Y-75373387D01*
X140484790Y-75419529D01*
X140419529Y-75484790D01*
X140373387Y-75564709D01*
X140373386Y-75564711D01*
X140373386Y-75564712D01*
X140349500Y-75653856D01*
X122950500Y-75653856D01*
X122926614Y-75564712D01*
X122893333Y-75507070D01*
X122890360Y-75498867D01*
X122889720Y-75479856D01*
X122884694Y-75457946D01*
X122903853Y-75194503D01*
X122916855Y-75152188D01*
X122926614Y-75135288D01*
X122950500Y-75046144D01*
X122950500Y-74953856D01*
X122926614Y-74864712D01*
X122880469Y-74784788D01*
X122815212Y-74719531D01*
X122815209Y-74719529D01*
X122795419Y-74708103D01*
X122735290Y-74673387D01*
X122735289Y-74673386D01*
X122735288Y-74673386D01*
X122646144Y-74649500D01*
X122553856Y-74649500D01*
X122464712Y-74673386D01*
X122464709Y-74673387D01*
X122458445Y-74675066D01*
X122458216Y-74674212D01*
X122435591Y-74679343D01*
X122108064Y-74696888D01*
X122053268Y-74683766D01*
X122035291Y-74673387D01*
X122035293Y-74673387D01*
X122000702Y-74664118D01*
X121946144Y-74649500D01*
X121853856Y-74649500D01*
X121764712Y-74673386D01*
X121764711Y-74673386D01*
X121764709Y-74673387D01*
X121684790Y-74719529D01*
X121619530Y-74784789D01*
X121608522Y-74803856D01*
X121573386Y-74864712D01*
X121573385Y-74864715D01*
X121570143Y-74870331D01*
X121569317Y-74869854D01*
X121550930Y-74896615D01*
X121033340Y-75388325D01*
X121014657Y-75402285D01*
X120984789Y-75419530D01*
X120919529Y-75484790D01*
X120873387Y-75564709D01*
X120873386Y-75564711D01*
X120873386Y-75564712D01*
X120849500Y-75653856D01*
X113287103Y-75653856D01*
X113276614Y-75614712D01*
X113230469Y-75534788D01*
X113165212Y-75469531D01*
X113128517Y-75448345D01*
X113085290Y-75423387D01*
X113085289Y-75423386D01*
X113085288Y-75423386D01*
X112996144Y-75399500D01*
X112903856Y-75399500D01*
X112814712Y-75423386D01*
X112814711Y-75423386D01*
X112814709Y-75423387D01*
X112798918Y-75432504D01*
X112739069Y-75445223D01*
X112683174Y-75420336D01*
X112652583Y-75367347D01*
X112651266Y-75359682D01*
X112650500Y-75353861D01*
X112650500Y-75353856D01*
X112626614Y-75264712D01*
X112580469Y-75184788D01*
X112515212Y-75119531D01*
X112507731Y-75115212D01*
X112435290Y-75073387D01*
X112435289Y-75073386D01*
X112435288Y-75073386D01*
X112346144Y-75049500D01*
X112253856Y-75049500D01*
X112233186Y-75055038D01*
X112171158Y-75071658D01*
X112158607Y-75071000D01*
X112146702Y-75075024D01*
X112128791Y-75069437D01*
X112110057Y-75068455D01*
X112100291Y-75060546D01*
X112088293Y-75056804D01*
X112078765Y-75043115D01*
X112062507Y-75029949D01*
X112051748Y-75007731D01*
X112050500Y-75004038D01*
X112050500Y-75003856D01*
X112026614Y-74914712D01*
X111991478Y-74853856D01*
X113399500Y-74853856D01*
X113399500Y-74946144D01*
X113423386Y-75035288D01*
X113423387Y-75035290D01*
X113458520Y-75096142D01*
X113469531Y-75115212D01*
X113534788Y-75180469D01*
X113614712Y-75226614D01*
X113703856Y-75250500D01*
X113703858Y-75250500D01*
X113796142Y-75250500D01*
X113796144Y-75250500D01*
X113885288Y-75226614D01*
X113965212Y-75180469D01*
X114030469Y-75115212D01*
X114076614Y-75035288D01*
X114100500Y-74946144D01*
X114100500Y-74853856D01*
X114076614Y-74764712D01*
X114030469Y-74684788D01*
X113974537Y-74628856D01*
X131324500Y-74628856D01*
X131324500Y-74721144D01*
X131341554Y-74784789D01*
X131348387Y-74810290D01*
X131393464Y-74888365D01*
X131394531Y-74890212D01*
X131459788Y-74955469D01*
X131539712Y-75001614D01*
X131628856Y-75025500D01*
X131628858Y-75025500D01*
X131721142Y-75025500D01*
X131721144Y-75025500D01*
X131810288Y-75001614D01*
X131890212Y-74955469D01*
X131955469Y-74890212D01*
X132001614Y-74810288D01*
X132003337Y-74803856D01*
X143899500Y-74803856D01*
X143899500Y-74896144D01*
X143923386Y-74985288D01*
X143923387Y-74985290D01*
X143964676Y-75056804D01*
X143969531Y-75065212D01*
X144034788Y-75130469D01*
X144114712Y-75176614D01*
X144203856Y-75200500D01*
X144203858Y-75200500D01*
X144296142Y-75200500D01*
X144296144Y-75200500D01*
X144385288Y-75176614D01*
X144465212Y-75130469D01*
X144530469Y-75065212D01*
X144576614Y-74985288D01*
X144600500Y-74896144D01*
X144600500Y-74803856D01*
X144576614Y-74714712D01*
X144530469Y-74634788D01*
X144465212Y-74569531D01*
X144390875Y-74526612D01*
X144385290Y-74523387D01*
X144385289Y-74523386D01*
X144385288Y-74523386D01*
X144296144Y-74499500D01*
X144203856Y-74499500D01*
X144114712Y-74523386D01*
X144114711Y-74523386D01*
X144114709Y-74523387D01*
X144034790Y-74569529D01*
X143969529Y-74634790D01*
X143923387Y-74714709D01*
X143923386Y-74714711D01*
X143923386Y-74714712D01*
X143899500Y-74803856D01*
X132003337Y-74803856D01*
X132025500Y-74721144D01*
X132025500Y-74628856D01*
X132001614Y-74539712D01*
X131955469Y-74459788D01*
X131890212Y-74394531D01*
X131810288Y-74348386D01*
X131721144Y-74324500D01*
X131628856Y-74324500D01*
X131539712Y-74348386D01*
X131539711Y-74348386D01*
X131539709Y-74348387D01*
X131459790Y-74394529D01*
X131394529Y-74459790D01*
X131348387Y-74539709D01*
X131348386Y-74539711D01*
X131348386Y-74539712D01*
X131324500Y-74628856D01*
X113974537Y-74628856D01*
X113965212Y-74619531D01*
X113885288Y-74573386D01*
X113796144Y-74549500D01*
X113703856Y-74549500D01*
X113614712Y-74573386D01*
X113614711Y-74573386D01*
X113614709Y-74573387D01*
X113534790Y-74619529D01*
X113469529Y-74684790D01*
X113423387Y-74764709D01*
X113423386Y-74764711D01*
X113423386Y-74764712D01*
X113399500Y-74853856D01*
X111991478Y-74853856D01*
X111980469Y-74834788D01*
X111915212Y-74769531D01*
X111906865Y-74764712D01*
X111835290Y-74723387D01*
X111835289Y-74723386D01*
X111835288Y-74723386D01*
X111746144Y-74699500D01*
X111653856Y-74699500D01*
X111564712Y-74723386D01*
X111564711Y-74723386D01*
X111564709Y-74723387D01*
X111484790Y-74769529D01*
X111419529Y-74834790D01*
X111373387Y-74914709D01*
X111373386Y-74914711D01*
X111373386Y-74914712D01*
X111349500Y-75003856D01*
X108790494Y-75003856D01*
X109281256Y-74153856D01*
X111949500Y-74153856D01*
X111949500Y-74246144D01*
X111973386Y-74335288D01*
X111973387Y-74335290D01*
X112007590Y-74394531D01*
X112019531Y-74415212D01*
X112084788Y-74480469D01*
X112164712Y-74526614D01*
X112253856Y-74550500D01*
X112253858Y-74550500D01*
X112346142Y-74550500D01*
X112346144Y-74550500D01*
X112435288Y-74526614D01*
X112515212Y-74480469D01*
X112580469Y-74415212D01*
X112626614Y-74335288D01*
X112650500Y-74246144D01*
X112650500Y-74153856D01*
X112626614Y-74064712D01*
X112580469Y-73984788D01*
X112566383Y-73970702D01*
X113082654Y-73970702D01*
X113082654Y-74062990D01*
X113106540Y-74152134D01*
X113106541Y-74152136D01*
X113149540Y-74226612D01*
X113152685Y-74232058D01*
X113217942Y-74297315D01*
X113297866Y-74343460D01*
X113387010Y-74367346D01*
X113387012Y-74367346D01*
X113479296Y-74367346D01*
X113479298Y-74367346D01*
X113568442Y-74343460D01*
X113617708Y-74315014D01*
X113653832Y-74302658D01*
X114160747Y-74233534D01*
X114199740Y-74235999D01*
X114253856Y-74250500D01*
X114253857Y-74250500D01*
X114346142Y-74250500D01*
X114346144Y-74250500D01*
X114435288Y-74226614D01*
X114515212Y-74180469D01*
X114580469Y-74115212D01*
X114626614Y-74035288D01*
X114650500Y-73946144D01*
X114650500Y-73853856D01*
X114626614Y-73764712D01*
X114580469Y-73684788D01*
X114515212Y-73619531D01*
X114488613Y-73604174D01*
X114435290Y-73573387D01*
X114435289Y-73573386D01*
X114435288Y-73573386D01*
X114346144Y-73549500D01*
X114253856Y-73549500D01*
X114194426Y-73565424D01*
X114164711Y-73573386D01*
X114129474Y-73593730D01*
X114090617Y-73606419D01*
X113514075Y-73668747D01*
X113485816Y-73666566D01*
X113485734Y-73667193D01*
X113479298Y-73666346D01*
X113387010Y-73666346D01*
X113297866Y-73690232D01*
X113297865Y-73690232D01*
X113297863Y-73690233D01*
X113217944Y-73736375D01*
X113152683Y-73801636D01*
X113106541Y-73881555D01*
X113106540Y-73881557D01*
X113106540Y-73881558D01*
X113082654Y-73970702D01*
X112566383Y-73970702D01*
X112515212Y-73919531D01*
X112474705Y-73896144D01*
X112435290Y-73873387D01*
X112435289Y-73873386D01*
X112435288Y-73873386D01*
X112346144Y-73849500D01*
X112253856Y-73849500D01*
X112164712Y-73873386D01*
X112164711Y-73873386D01*
X112164709Y-73873387D01*
X112084790Y-73919529D01*
X112019529Y-73984790D01*
X111973387Y-74064709D01*
X111973386Y-74064711D01*
X111973386Y-74064712D01*
X111949500Y-74153856D01*
X109281256Y-74153856D01*
X109691187Y-73443856D01*
X127449500Y-73443856D01*
X127449500Y-73536144D01*
X127473386Y-73625288D01*
X127473387Y-73625290D01*
X127510882Y-73690233D01*
X127519531Y-73705212D01*
X127584788Y-73770469D01*
X127664712Y-73816614D01*
X127753856Y-73840500D01*
X127753858Y-73840500D01*
X127846142Y-73840500D01*
X127846144Y-73840500D01*
X127935288Y-73816614D01*
X128015212Y-73770469D01*
X128079998Y-73705682D01*
X128134513Y-73677907D01*
X128194945Y-73687478D01*
X128220000Y-73705681D01*
X128284788Y-73770469D01*
X128364712Y-73816614D01*
X128453856Y-73840500D01*
X128453858Y-73840500D01*
X128546142Y-73840500D01*
X128546144Y-73840500D01*
X128635288Y-73816614D01*
X128657385Y-73803856D01*
X143399500Y-73803856D01*
X143399500Y-73896144D01*
X143423386Y-73985288D01*
X143423387Y-73985290D01*
X143469297Y-74064808D01*
X143469531Y-74065212D01*
X143534788Y-74130469D01*
X143614712Y-74176614D01*
X143703856Y-74200500D01*
X143703858Y-74200500D01*
X143796142Y-74200500D01*
X143796144Y-74200500D01*
X143885288Y-74176614D01*
X143965212Y-74130469D01*
X144030469Y-74065212D01*
X144076614Y-73985288D01*
X144100500Y-73896144D01*
X144100500Y-73803856D01*
X144100393Y-73803455D01*
X144499099Y-73803455D01*
X144499099Y-73895743D01*
X144522959Y-73984790D01*
X144522986Y-73984889D01*
X144568078Y-74062990D01*
X144569130Y-74064811D01*
X144634387Y-74130068D01*
X144714311Y-74176213D01*
X144803455Y-74200099D01*
X144803457Y-74200099D01*
X144895741Y-74200099D01*
X144895743Y-74200099D01*
X144984887Y-74176213D01*
X145023610Y-74153856D01*
X145399500Y-74153856D01*
X145399500Y-74246144D01*
X145423386Y-74335288D01*
X145423387Y-74335290D01*
X145457590Y-74394531D01*
X145469531Y-74415212D01*
X145534788Y-74480469D01*
X145614712Y-74526614D01*
X145703856Y-74550500D01*
X145703858Y-74550500D01*
X145796142Y-74550500D01*
X145796144Y-74550500D01*
X145885288Y-74526614D01*
X145965212Y-74480469D01*
X146030469Y-74415212D01*
X146076614Y-74335288D01*
X146100500Y-74246144D01*
X146100500Y-74153856D01*
X146076614Y-74064712D01*
X146030469Y-73984788D01*
X145965212Y-73919531D01*
X145924705Y-73896144D01*
X145885290Y-73873387D01*
X145885289Y-73873386D01*
X145885288Y-73873386D01*
X145796144Y-73849500D01*
X145703856Y-73849500D01*
X145614712Y-73873386D01*
X145614711Y-73873386D01*
X145614709Y-73873387D01*
X145534790Y-73919529D01*
X145469529Y-73984790D01*
X145423387Y-74064709D01*
X145423386Y-74064711D01*
X145423386Y-74064712D01*
X145399500Y-74153856D01*
X145023610Y-74153856D01*
X145064811Y-74130068D01*
X145130068Y-74064811D01*
X145176213Y-73984887D01*
X145200099Y-73895743D01*
X145200099Y-73803455D01*
X145176213Y-73714311D01*
X145130068Y-73634387D01*
X145064811Y-73569130D01*
X145030811Y-73549500D01*
X145015878Y-73540878D01*
X144984887Y-73522985D01*
X144895743Y-73499099D01*
X144803455Y-73499099D01*
X144714311Y-73522985D01*
X144714310Y-73522985D01*
X144714308Y-73522986D01*
X144634389Y-73569128D01*
X144569128Y-73634389D01*
X144522986Y-73714308D01*
X144522985Y-73714310D01*
X144522985Y-73714311D01*
X144499099Y-73803455D01*
X144100393Y-73803455D01*
X144076614Y-73714712D01*
X144030469Y-73634788D01*
X143965212Y-73569531D01*
X143964517Y-73569130D01*
X143885290Y-73523387D01*
X143885289Y-73523386D01*
X143885288Y-73523386D01*
X143796144Y-73499500D01*
X143703856Y-73499500D01*
X143614712Y-73523386D01*
X143614711Y-73523386D01*
X143614709Y-73523387D01*
X143534790Y-73569529D01*
X143469529Y-73634790D01*
X143423387Y-73714709D01*
X143423386Y-73714711D01*
X143423386Y-73714712D01*
X143399500Y-73803856D01*
X128657385Y-73803856D01*
X128715212Y-73770469D01*
X128780469Y-73705212D01*
X128826614Y-73625288D01*
X128850500Y-73536144D01*
X128850500Y-73443856D01*
X128826614Y-73354712D01*
X128780469Y-73274788D01*
X128715212Y-73209531D01*
X128708178Y-73205470D01*
X128635290Y-73163387D01*
X128635289Y-73163386D01*
X128635288Y-73163386D01*
X128546144Y-73139500D01*
X128453856Y-73139500D01*
X128364712Y-73163386D01*
X128364711Y-73163386D01*
X128364709Y-73163387D01*
X128284790Y-73209529D01*
X128284788Y-73209530D01*
X128284788Y-73209531D01*
X128220001Y-73274317D01*
X128165487Y-73302093D01*
X128105055Y-73292522D01*
X128079999Y-73274318D01*
X128015212Y-73209531D01*
X128008178Y-73205470D01*
X127935290Y-73163387D01*
X127935289Y-73163386D01*
X127935288Y-73163386D01*
X127846144Y-73139500D01*
X127753856Y-73139500D01*
X127664712Y-73163386D01*
X127664711Y-73163386D01*
X127664709Y-73163387D01*
X127584790Y-73209529D01*
X127519529Y-73274790D01*
X127473387Y-73354709D01*
X127473386Y-73354711D01*
X127473386Y-73354712D01*
X127449500Y-73443856D01*
X109691187Y-73443856D01*
X110017399Y-72878856D01*
X112824500Y-72878856D01*
X112824500Y-72971144D01*
X112848386Y-73060288D01*
X112894531Y-73140212D01*
X112959788Y-73205469D01*
X113039712Y-73251614D01*
X113128856Y-73275500D01*
X113128858Y-73275500D01*
X113221142Y-73275500D01*
X113221144Y-73275500D01*
X113310288Y-73251614D01*
X113390212Y-73205469D01*
X113455469Y-73140212D01*
X113501614Y-73060288D01*
X113525500Y-72971144D01*
X113525500Y-72953856D01*
X144749500Y-72953856D01*
X144749500Y-73046144D01*
X144773386Y-73135288D01*
X144773387Y-73135290D01*
X144789608Y-73163386D01*
X144819531Y-73215212D01*
X144884788Y-73280469D01*
X144964712Y-73326614D01*
X145053856Y-73350500D01*
X145070401Y-73350500D01*
X145146142Y-73350500D01*
X145146144Y-73350500D01*
X145235288Y-73326614D01*
X145315212Y-73280469D01*
X145380469Y-73215212D01*
X145426614Y-73135288D01*
X145450500Y-73046144D01*
X145450500Y-72953856D01*
X145426614Y-72864712D01*
X145380469Y-72784788D01*
X145315212Y-72719531D01*
X145298340Y-72709790D01*
X145235290Y-72673387D01*
X145235289Y-72673386D01*
X145235288Y-72673386D01*
X145146144Y-72649500D01*
X145053856Y-72649500D01*
X144964712Y-72673386D01*
X144964711Y-72673386D01*
X144964709Y-72673387D01*
X144884790Y-72719529D01*
X144819529Y-72784790D01*
X144773387Y-72864709D01*
X144773386Y-72864711D01*
X144773386Y-72864712D01*
X144749500Y-72953856D01*
X113525500Y-72953856D01*
X113525500Y-72878856D01*
X113501614Y-72789712D01*
X113455469Y-72709788D01*
X113390212Y-72644531D01*
X113310288Y-72598386D01*
X113221144Y-72574500D01*
X113128856Y-72574500D01*
X113039712Y-72598386D01*
X113039711Y-72598386D01*
X113039709Y-72598387D01*
X112959790Y-72644529D01*
X112894529Y-72709790D01*
X112848387Y-72789709D01*
X112848386Y-72789711D01*
X112848386Y-72789712D01*
X112824500Y-72878856D01*
X110017399Y-72878856D01*
X110730202Y-71644282D01*
X115404538Y-71644282D01*
X115404538Y-71816745D01*
X115438183Y-71985887D01*
X115438183Y-71985889D01*
X115504177Y-72145214D01*
X115504183Y-72145226D01*
X115572698Y-72247763D01*
X115599993Y-72288613D01*
X115721939Y-72410559D01*
X115783072Y-72451407D01*
X115865325Y-72506368D01*
X115865337Y-72506374D01*
X115924191Y-72530752D01*
X116024664Y-72572369D01*
X116193809Y-72606014D01*
X116193810Y-72606014D01*
X116366266Y-72606014D01*
X116366267Y-72606014D01*
X116535412Y-72572369D01*
X116694743Y-72506372D01*
X116694745Y-72506370D01*
X116694750Y-72506368D01*
X116736153Y-72478702D01*
X116838137Y-72410559D01*
X116960083Y-72288613D01*
X117028226Y-72186629D01*
X117055892Y-72145226D01*
X117055898Y-72145214D01*
X117121893Y-71985888D01*
X117155538Y-71816743D01*
X117155538Y-71644285D01*
X117155537Y-71644282D01*
X140844462Y-71644282D01*
X140844462Y-71816745D01*
X140878107Y-71985887D01*
X140878107Y-71985889D01*
X140944101Y-72145214D01*
X140944107Y-72145226D01*
X141012622Y-72247763D01*
X141039917Y-72288613D01*
X141161863Y-72410559D01*
X141222996Y-72451407D01*
X141305249Y-72506368D01*
X141305261Y-72506374D01*
X141364115Y-72530752D01*
X141464588Y-72572369D01*
X141633733Y-72606014D01*
X141633734Y-72606014D01*
X141806190Y-72606014D01*
X141806191Y-72606014D01*
X141975336Y-72572369D01*
X142134667Y-72506372D01*
X142134669Y-72506370D01*
X142134674Y-72506368D01*
X142176077Y-72478702D01*
X142278061Y-72410559D01*
X142400007Y-72288613D01*
X142468150Y-72186629D01*
X142495816Y-72145226D01*
X142495822Y-72145214D01*
X142561817Y-71985888D01*
X142595462Y-71816743D01*
X142595462Y-71644285D01*
X142561817Y-71475140D01*
X142495820Y-71315809D01*
X142495816Y-71315801D01*
X142440855Y-71233548D01*
X142400007Y-71172415D01*
X142278061Y-71050469D01*
X142237211Y-71023174D01*
X142134674Y-70954659D01*
X142134662Y-70954653D01*
X141975336Y-70888659D01*
X141806193Y-70855014D01*
X141806191Y-70855014D01*
X141633733Y-70855014D01*
X141633730Y-70855014D01*
X141464588Y-70888659D01*
X141464586Y-70888659D01*
X141305261Y-70954653D01*
X141305249Y-70954659D01*
X141161863Y-71050469D01*
X141161859Y-71050472D01*
X141039920Y-71172411D01*
X141039917Y-71172415D01*
X140944107Y-71315801D01*
X140944101Y-71315813D01*
X140878107Y-71475138D01*
X140878107Y-71475140D01*
X140844462Y-71644282D01*
X117155537Y-71644282D01*
X117121893Y-71475140D01*
X117055896Y-71315809D01*
X117055892Y-71315801D01*
X117000931Y-71233548D01*
X116960083Y-71172415D01*
X116838137Y-71050469D01*
X116797287Y-71023174D01*
X116694750Y-70954659D01*
X116694738Y-70954653D01*
X116535412Y-70888659D01*
X116366269Y-70855014D01*
X116366267Y-70855014D01*
X116193809Y-70855014D01*
X116193806Y-70855014D01*
X116024664Y-70888659D01*
X116024662Y-70888659D01*
X115865337Y-70954653D01*
X115865325Y-70954659D01*
X115721939Y-71050469D01*
X115721935Y-71050472D01*
X115599996Y-71172411D01*
X115599993Y-71172415D01*
X115504183Y-71315801D01*
X115504177Y-71315813D01*
X115438183Y-71475138D01*
X115438183Y-71475140D01*
X115404538Y-71644282D01*
X110730202Y-71644282D01*
X112041071Y-69373856D01*
X115249500Y-69373856D01*
X115249500Y-69466144D01*
X115273386Y-69555288D01*
X115319531Y-69635212D01*
X115384788Y-69700469D01*
X115464712Y-69746614D01*
X115553856Y-69770500D01*
X115553858Y-69770500D01*
X115646142Y-69770500D01*
X115646144Y-69770500D01*
X115735288Y-69746614D01*
X115815212Y-69700469D01*
X115880469Y-69635212D01*
X115926614Y-69555288D01*
X115950500Y-69466144D01*
X115950500Y-69373856D01*
X115926614Y-69284712D01*
X115880469Y-69204788D01*
X115815212Y-69139531D01*
X115735288Y-69093386D01*
X115646144Y-69069500D01*
X115553856Y-69069500D01*
X115464712Y-69093386D01*
X115464711Y-69093386D01*
X115464709Y-69093387D01*
X115384790Y-69139529D01*
X115319529Y-69204790D01*
X115273387Y-69284709D01*
X115273386Y-69284711D01*
X115273386Y-69284712D01*
X115249500Y-69373856D01*
X112041071Y-69373856D01*
X115195723Y-63909999D01*
X116109999Y-63909999D01*
X116110000Y-63909999D01*
X116110000Y-63910000D01*
X116239921Y-63956400D01*
X116259076Y-63965672D01*
X116384040Y-64043775D01*
X116422270Y-64088046D01*
X116515749Y-64301713D01*
X116539312Y-64355570D01*
X116546972Y-64406492D01*
X116510563Y-64725070D01*
X116508943Y-64734859D01*
X116409999Y-65189998D01*
X116370001Y-65399987D01*
X116370000Y-65399992D01*
X116340000Y-65680002D01*
X116359999Y-65910000D01*
X116409998Y-66139996D01*
X116409999Y-66139997D01*
X116410000Y-66140000D01*
X116550000Y-66370000D01*
X116550003Y-66370004D01*
X116659998Y-66519998D01*
X116692127Y-66556143D01*
X116716655Y-66612197D01*
X116703551Y-66671962D01*
X116703488Y-66672068D01*
X116640000Y-66780000D01*
X116624247Y-66829009D01*
X116549999Y-67059999D01*
X116540000Y-67229978D01*
X116540000Y-67230000D01*
X116540000Y-67370000D01*
X116570000Y-67490000D01*
X116680000Y-67460000D01*
X116770285Y-67414857D01*
X116790540Y-67407364D01*
X116828944Y-67397764D01*
X116889715Y-67401886D01*
X116897017Y-67404806D01*
X116921031Y-67418580D01*
X117000000Y-67480000D01*
X117124982Y-67499228D01*
X117134917Y-67501283D01*
X117207200Y-67520139D01*
X117331115Y-67552464D01*
X117379902Y-67582244D01*
X117468264Y-67681001D01*
X117530007Y-67750008D01*
X117710002Y-67940002D01*
X117847675Y-68077676D01*
X117852176Y-68082487D01*
X117990000Y-68240000D01*
X118121994Y-68349995D01*
X118349998Y-68539999D01*
X118349999Y-68539999D01*
X118350000Y-68540000D01*
X118511902Y-68597142D01*
X118527482Y-68604208D01*
X118680000Y-68690000D01*
X118680010Y-68690005D01*
X118680019Y-68690010D01*
X118919998Y-68809999D01*
X118940000Y-68820000D01*
X119160000Y-68880000D01*
X119390000Y-68810000D01*
X119500000Y-68710000D01*
X119597129Y-68593444D01*
X119603159Y-68586840D01*
X119698107Y-68491892D01*
X119725156Y-68472702D01*
X119980000Y-68350000D01*
X120190000Y-68230000D01*
X120294778Y-68152794D01*
X120375381Y-68093404D01*
X120384989Y-68087149D01*
X120516173Y-68012186D01*
X120524012Y-68008160D01*
X120759284Y-67900328D01*
X120760659Y-67899711D01*
X120920000Y-67830000D01*
X120990000Y-67700000D01*
X120994222Y-67680998D01*
X121025300Y-67628297D01*
X121081422Y-67603926D01*
X121137184Y-67614979D01*
X121260000Y-67680000D01*
X121420000Y-67700000D01*
X121430000Y-67660000D01*
X121409999Y-67619999D01*
X121409998Y-67619998D01*
X121290014Y-67560006D01*
X121289999Y-67559999D01*
X121080004Y-67470001D01*
X121079993Y-67469997D01*
X121062881Y-67465108D01*
X121047017Y-67454429D01*
X121029056Y-67447873D01*
X121022244Y-67437753D01*
X121012124Y-67430941D01*
X120994890Y-67397115D01*
X120990452Y-67381582D01*
X120989599Y-67378397D01*
X120987500Y-67370000D01*
X120970034Y-67300136D01*
X120974263Y-67239100D01*
X121013562Y-67192204D01*
X121057110Y-67177535D01*
X121248464Y-67160139D01*
X121251525Y-67159910D01*
X121420000Y-67150000D01*
X121510000Y-67110000D01*
X121530000Y-67050000D01*
X121470000Y-67030000D01*
X121250000Y-67030000D01*
X121249988Y-67030000D01*
X121040002Y-67049999D01*
X120930002Y-67069999D01*
X120929990Y-67070002D01*
X120901759Y-67078068D01*
X120891725Y-67077707D01*
X120882453Y-67081562D01*
X120861817Y-67076634D01*
X120840613Y-67075874D01*
X120822941Y-67067352D01*
X120709530Y-66998046D01*
X120669736Y-66951569D01*
X120664860Y-66890579D01*
X120665057Y-66889771D01*
X120679749Y-66831001D01*
X120680270Y-66829009D01*
X120770000Y-66500000D01*
X120783824Y-66442401D01*
X120783824Y-66442399D01*
X125634500Y-66442399D01*
X125634500Y-66567601D01*
X125666905Y-66688536D01*
X125729505Y-66796964D01*
X125818036Y-66885495D01*
X125926464Y-66948095D01*
X126047399Y-66980500D01*
X126047401Y-66980500D01*
X126172599Y-66980500D01*
X126172601Y-66980500D01*
X126293536Y-66948095D01*
X126401964Y-66885495D01*
X126490495Y-66796964D01*
X126553095Y-66688536D01*
X126585500Y-66567601D01*
X126585500Y-66442399D01*
X131414500Y-66442399D01*
X131414500Y-66567601D01*
X131446905Y-66688536D01*
X131509505Y-66796964D01*
X131598036Y-66885495D01*
X131706464Y-66948095D01*
X131827399Y-66980500D01*
X131827401Y-66980500D01*
X131952599Y-66980500D01*
X131952601Y-66980500D01*
X132073536Y-66948095D01*
X132181964Y-66885495D01*
X132270495Y-66796964D01*
X132333095Y-66688536D01*
X132365500Y-66567601D01*
X132365500Y-66442399D01*
X132333095Y-66321464D01*
X132270495Y-66213036D01*
X132181964Y-66124505D01*
X132073536Y-66061905D01*
X131952601Y-66029500D01*
X131827399Y-66029500D01*
X131746775Y-66051103D01*
X131706463Y-66061905D01*
X131598036Y-66124505D01*
X131509505Y-66213036D01*
X131446905Y-66321463D01*
X131446905Y-66321464D01*
X131414500Y-66442399D01*
X126585500Y-66442399D01*
X126553095Y-66321464D01*
X126490495Y-66213036D01*
X126401964Y-66124505D01*
X126293536Y-66061905D01*
X126172601Y-66029500D01*
X126047399Y-66029500D01*
X125966775Y-66051103D01*
X125926463Y-66061905D01*
X125818036Y-66124505D01*
X125729505Y-66213036D01*
X125666905Y-66321463D01*
X125666905Y-66321464D01*
X125634500Y-66442399D01*
X120783824Y-66442399D01*
X120790927Y-66412806D01*
X120829997Y-66250011D01*
X120830000Y-66250000D01*
X120850000Y-66070000D01*
X120840000Y-65920000D01*
X120820000Y-65780000D01*
X120760300Y-65610850D01*
X120759736Y-65609208D01*
X120729990Y-65519970D01*
X120690002Y-65410004D01*
X120530001Y-65090002D01*
X120530000Y-65090000D01*
X120420000Y-64980000D01*
X120419997Y-64979998D01*
X120419996Y-64979997D01*
X120310002Y-64910001D01*
X120309995Y-64909997D01*
X120209813Y-64864460D01*
X120191379Y-64853534D01*
X120127962Y-64805971D01*
X120092754Y-64755930D01*
X120093683Y-64694752D01*
X120130394Y-64645804D01*
X120188865Y-64627782D01*
X120201358Y-64628765D01*
X120210000Y-64630000D01*
X120210002Y-64630000D01*
X120279999Y-64630000D01*
X120280000Y-64630000D01*
X120280000Y-64590000D01*
X120260000Y-64560000D01*
X120259999Y-64559999D01*
X120170000Y-64520000D01*
X120169998Y-64519999D01*
X120038953Y-64482558D01*
X120036021Y-64481720D01*
X120024230Y-64477527D01*
X119980002Y-64458572D01*
X119933964Y-64418271D01*
X119927239Y-64393856D01*
X122559500Y-64393856D01*
X122559500Y-64486144D01*
X122583386Y-64575288D01*
X122583387Y-64575290D01*
X122622665Y-64643321D01*
X122629531Y-64655212D01*
X122694788Y-64720469D01*
X122774712Y-64766614D01*
X122863856Y-64790500D01*
X122863858Y-64790500D01*
X122956142Y-64790500D01*
X122956144Y-64790500D01*
X123045288Y-64766614D01*
X123067385Y-64753856D01*
X127349500Y-64753856D01*
X127349500Y-64846144D01*
X127373386Y-64935288D01*
X127419531Y-65015212D01*
X127484788Y-65080469D01*
X127564712Y-65126614D01*
X127653856Y-65150500D01*
X127653858Y-65150500D01*
X127746142Y-65150500D01*
X127746144Y-65150500D01*
X127835288Y-65126614D01*
X127915212Y-65080469D01*
X127980469Y-65015212D01*
X128014264Y-64956679D01*
X128059733Y-64915738D01*
X128120584Y-64909342D01*
X128173572Y-64939935D01*
X128185736Y-64956679D01*
X128219527Y-65015207D01*
X128219529Y-65015209D01*
X128219531Y-65015212D01*
X128284788Y-65080469D01*
X128364712Y-65126614D01*
X128453856Y-65150500D01*
X128453858Y-65150500D01*
X128546142Y-65150500D01*
X128546144Y-65150500D01*
X128635288Y-65126614D01*
X128715212Y-65080469D01*
X128780469Y-65015212D01*
X128826614Y-64935288D01*
X128850500Y-64846144D01*
X128850500Y-64753856D01*
X129049500Y-64753856D01*
X129049500Y-64846144D01*
X129073386Y-64935288D01*
X129119531Y-65015212D01*
X129184788Y-65080469D01*
X129264712Y-65126614D01*
X129353856Y-65150500D01*
X129353858Y-65150500D01*
X129446142Y-65150500D01*
X129446144Y-65150500D01*
X129535288Y-65126614D01*
X129615212Y-65080469D01*
X129680469Y-65015212D01*
X129726614Y-64935288D01*
X129750500Y-64846144D01*
X129750500Y-64753856D01*
X129726614Y-64664712D01*
X129680469Y-64584788D01*
X129615212Y-64519531D01*
X129581380Y-64499998D01*
X129535290Y-64473387D01*
X129535289Y-64473386D01*
X129535288Y-64473386D01*
X129446144Y-64449500D01*
X129353856Y-64449500D01*
X129264712Y-64473386D01*
X129264711Y-64473386D01*
X129264709Y-64473387D01*
X129184790Y-64519529D01*
X129119529Y-64584790D01*
X129073387Y-64664709D01*
X129073386Y-64664711D01*
X129073386Y-64664712D01*
X129049500Y-64753856D01*
X128850500Y-64753856D01*
X128826614Y-64664712D01*
X128780469Y-64584788D01*
X128715212Y-64519531D01*
X128681380Y-64499998D01*
X128635290Y-64473387D01*
X128635289Y-64473386D01*
X128635288Y-64473386D01*
X128546144Y-64449500D01*
X128453856Y-64449500D01*
X128364712Y-64473386D01*
X128364711Y-64473386D01*
X128364709Y-64473387D01*
X128284790Y-64519529D01*
X128219529Y-64584790D01*
X128185736Y-64643321D01*
X128140266Y-64684261D01*
X128079416Y-64690656D01*
X128026428Y-64660063D01*
X128014264Y-64643321D01*
X127980470Y-64584790D01*
X127980469Y-64584788D01*
X127915212Y-64519531D01*
X127881380Y-64499998D01*
X127835290Y-64473387D01*
X127835289Y-64473386D01*
X127835288Y-64473386D01*
X127746144Y-64449500D01*
X127653856Y-64449500D01*
X127564712Y-64473386D01*
X127564711Y-64473386D01*
X127564709Y-64473387D01*
X127484790Y-64519529D01*
X127419529Y-64584790D01*
X127373387Y-64664709D01*
X127373386Y-64664711D01*
X127373386Y-64664712D01*
X127349500Y-64753856D01*
X123067385Y-64753856D01*
X123125212Y-64720469D01*
X123190469Y-64655212D01*
X123236614Y-64575288D01*
X123260500Y-64486144D01*
X123260500Y-64393856D01*
X123236614Y-64304712D01*
X123190469Y-64224788D01*
X123125212Y-64159531D01*
X123108704Y-64150000D01*
X123045290Y-64113387D01*
X123045289Y-64113386D01*
X123045288Y-64113386D01*
X122956144Y-64089500D01*
X122863856Y-64089500D01*
X122774712Y-64113386D01*
X122774711Y-64113386D01*
X122774709Y-64113387D01*
X122694790Y-64159529D01*
X122629529Y-64224790D01*
X122583387Y-64304709D01*
X122583386Y-64304711D01*
X122583386Y-64304712D01*
X122559500Y-64393856D01*
X119927239Y-64393856D01*
X119920000Y-64367577D01*
X119920000Y-64264000D01*
X119930989Y-64218666D01*
X120083382Y-63922846D01*
X120100019Y-63899579D01*
X120339351Y-63650674D01*
X120340609Y-63649390D01*
X120480000Y-63510000D01*
X120453333Y-63490000D01*
X120400000Y-63450000D01*
X120399999Y-63450000D01*
X120049999Y-63490000D01*
X119550001Y-63699999D01*
X119550000Y-63699999D01*
X119181169Y-64136772D01*
X119155002Y-64158651D01*
X118913472Y-64297995D01*
X118906381Y-64301713D01*
X118723040Y-64388559D01*
X118716859Y-64391233D01*
X118440000Y-64499998D01*
X118439998Y-64500000D01*
X118368341Y-64538584D01*
X118308142Y-64549524D01*
X118258716Y-64528039D01*
X118148693Y-64438022D01*
X118090000Y-64390000D01*
X117600000Y-64000000D01*
X117599998Y-63999999D01*
X117599997Y-63999998D01*
X117120003Y-63780001D01*
X117120000Y-63780000D01*
X116600000Y-63730000D01*
X116290000Y-63720000D01*
X116289999Y-63720000D01*
X116289998Y-63720001D01*
X116129999Y-63820000D01*
X116109999Y-63909999D01*
X115195723Y-63909999D01*
X116065321Y-62403856D01*
X119049500Y-62403856D01*
X119049500Y-62496144D01*
X119073386Y-62585288D01*
X119119531Y-62665212D01*
X119184788Y-62730469D01*
X119264712Y-62776614D01*
X119353856Y-62800500D01*
X119353858Y-62800500D01*
X119446142Y-62800500D01*
X119446144Y-62800500D01*
X119535288Y-62776614D01*
X119615212Y-62730469D01*
X119680469Y-62665212D01*
X119726614Y-62585288D01*
X119750500Y-62496144D01*
X119750500Y-62403856D01*
X119726614Y-62314712D01*
X119680469Y-62234788D01*
X119615212Y-62169531D01*
X119535288Y-62123386D01*
X119446144Y-62099500D01*
X119353856Y-62099500D01*
X119264712Y-62123386D01*
X119264711Y-62123386D01*
X119264709Y-62123387D01*
X119184790Y-62169529D01*
X119119529Y-62234790D01*
X119073387Y-62314709D01*
X119073386Y-62314711D01*
X119073386Y-62314712D01*
X119049500Y-62403856D01*
X116065321Y-62403856D01*
X116613916Y-61453689D01*
X116629661Y-61433176D01*
X116633859Y-61428980D01*
X116688382Y-61401215D01*
X116703846Y-61400000D01*
X117045407Y-61400000D01*
X117047273Y-61400500D01*
G37*
%TD.AperFunction*%
%TD*%
M02*
