%TF.GenerationSoftware,KiCad,Pcbnew,9.0.5*%
%TF.CreationDate,2025-10-19T17:26:29+02:00*%
%TF.ProjectId,PCB_PAPI,5043425f-5041-4504-992e-6b696361645f,rev?*%
%TF.SameCoordinates,Original*%
%TF.FileFunction,Soldermask,Bot*%
%TF.FilePolarity,Negative*%
%FSLAX46Y46*%
G04 Gerber Fmt 4.6, Leading zero omitted, Abs format (unit mm)*
G04 Created by KiCad (PCBNEW 9.0.5) date 2025-10-19 17:26:29*
%MOMM*%
%LPD*%
G01*
G04 APERTURE LIST*
G04 Aperture macros list*
%AMRoundRect*
0 Rectangle with rounded corners*
0 $1 Rounding radius*
0 $2 $3 $4 $5 $6 $7 $8 $9 X,Y pos of 4 corners*
0 Add a 4 corners polygon primitive as box body*
4,1,4,$2,$3,$4,$5,$6,$7,$8,$9,$2,$3,0*
0 Add four circle primitives for the rounded corners*
1,1,$1+$1,$2,$3*
1,1,$1+$1,$4,$5*
1,1,$1+$1,$6,$7*
1,1,$1+$1,$8,$9*
0 Add four rect primitives between the rounded corners*
20,1,$1+$1,$2,$3,$4,$5,0*
20,1,$1+$1,$4,$5,$6,$7,0*
20,1,$1+$1,$6,$7,$8,$9,0*
20,1,$1+$1,$8,$9,$2,$3,0*%
%AMRotRect*
0 Rectangle, with rotation*
0 The origin of the aperture is its center*
0 $1 length*
0 $2 width*
0 $3 Rotation angle, in degrees counterclockwise*
0 Add horizontal line*
21,1,$1,$2,0,0,$3*%
%AMFreePoly0*
4,1,64,0.031751,0.146088,0.079638,0.146088,0.235856,0.115014,0.383010,0.054061,0.515445,-0.034429,0.628071,-0.147055,0.716561,-0.279490,0.777514,-0.426644,0.808588,-0.582861,0.808588,-0.742139,0.777514,-0.898356,0.716561,-1.045510,0.628071,-1.177945,0.515445,-1.290571,0.383010,-1.379061,0.235856,-1.440014,0.079639,-1.471088,-0.079639,-1.471088,-0.235856,-1.440014,-0.383010,-1.379061,
-0.515445,-1.290571,-0.628071,-1.177945,-0.716561,-1.045510,-0.777514,-0.898356,-0.808588,-0.742139,-0.808588,-0.595028,-0.512500,-0.595028,-0.512500,-0.729972,-0.477574,-0.860317,-0.410102,-0.977181,-0.314683,-1.072602,-0.197818,-1.140074,-0.067472,-1.175000,0.067472,-1.175000,0.197817,-1.140075,0.314682,-1.072603,0.410102,-0.977182,0.477574,-0.860317,0.512500,-0.729972,0.512500,-0.595028,
0.477574,-0.464683,0.410102,-0.347818,0.314682,-0.252398,0.197817,-0.184926,0.067472,-0.150000,-0.067472,-0.150000,-0.197817,-0.184926,-0.314682,-0.252398,-0.410102,-0.347818,-0.477574,-0.464683,-0.512500,-0.595028,-0.808588,-0.595028,-0.808588,-0.582861,-0.777514,-0.426644,-0.716561,-0.279490,-0.628071,-0.147055,-0.515445,-0.034429,-0.383010,0.054061,-0.235856,0.115014,-0.079639,0.146087,
-0.031751,0.146088,-0.029264,0.147118,0.029264,0.147118,0.031751,0.146088,0.031751,0.146088,$1*%
G04 Aperture macros list end*
%ADD10C,0.100000*%
%ADD11C,0.800000*%
%ADD12C,5.000000*%
%ADD13RoundRect,0.160000X0.197500X0.160000X-0.197500X0.160000X-0.197500X-0.160000X0.197500X-0.160000X0*%
%ADD14RoundRect,0.140000X0.219203X0.021213X0.021213X0.219203X-0.219203X-0.021213X-0.021213X-0.219203X0*%
%ADD15RoundRect,0.250000X0.250000X0.475000X-0.250000X0.475000X-0.250000X-0.475000X0.250000X-0.475000X0*%
%ADD16C,1.450000*%
%ADD17RoundRect,0.102000X-0.351314X0.491506X-0.601314X0.058494X0.351314X-0.491506X0.601314X-0.058494X0*%
%ADD18RoundRect,0.100000X-0.162583X-0.021603X0.062583X-0.151603X0.162583X0.021603X-0.062583X0.151603X0*%
%ADD19RoundRect,0.250000X0.286362X-0.454006X0.536362X-0.020994X-0.286362X0.454006X-0.536362X0.020994X0*%
%ADD20RoundRect,0.102000X0.601314X0.058494X0.351314X0.491506X-0.601314X-0.058494X-0.351314X-0.491506X0*%
%ADD21RoundRect,0.250000X0.159099X-0.512652X0.512652X-0.159099X-0.159099X0.512652X-0.512652X0.159099X0*%
%ADD22RoundRect,0.140000X0.140000X0.170000X-0.140000X0.170000X-0.140000X-0.170000X0.140000X-0.170000X0*%
%ADD23RoundRect,0.100000X0.100000X-0.130000X0.100000X0.130000X-0.100000X0.130000X-0.100000X-0.130000X0*%
%ADD24RoundRect,0.100000X-0.100000X0.130000X-0.100000X-0.130000X0.100000X-0.130000X0.100000X0.130000X0*%
%ADD25RoundRect,0.150000X0.150000X0.700000X-0.150000X0.700000X-0.150000X-0.700000X0.150000X-0.700000X0*%
%ADD26RoundRect,0.250000X0.250000X1.150000X-0.250000X1.150000X-0.250000X-1.150000X0.250000X-1.150000X0*%
%ADD27RoundRect,0.100000X-0.100000X0.217500X-0.100000X-0.217500X0.100000X-0.217500X0.100000X0.217500X0*%
%ADD28RoundRect,0.250000X-0.475000X0.250000X-0.475000X-0.250000X0.475000X-0.250000X0.475000X0.250000X0*%
%ADD29RoundRect,0.100000X0.217500X0.100000X-0.217500X0.100000X-0.217500X-0.100000X0.217500X-0.100000X0*%
%ADD30R,0.600000X1.250000*%
%ADD31RoundRect,0.100000X-0.130000X-0.100000X0.130000X-0.100000X0.130000X0.100000X-0.130000X0.100000X0*%
%ADD32RoundRect,0.100000X0.138361X0.195353X-0.238361X-0.022147X-0.138361X-0.195353X0.238361X0.022147X0*%
%ADD33RoundRect,0.100000X0.244856X-0.025897X-0.144856X0.199103X-0.244856X0.025897X0.144856X-0.199103X0*%
%ADD34RoundRect,0.100000X0.130000X0.100000X-0.130000X0.100000X-0.130000X-0.100000X0.130000X-0.100000X0*%
%ADD35RoundRect,0.100000X-0.217500X-0.100000X0.217500X-0.100000X0.217500X0.100000X-0.217500X0.100000X0*%
%ADD36RoundRect,0.250000X0.475000X-0.250000X0.475000X0.250000X-0.475000X0.250000X-0.475000X-0.250000X0*%
%ADD37RotRect,0.820000X1.800000X315.000000*%
%ADD38RotRect,0.820000X1.800000X135.000000*%
%ADD39RoundRect,0.100000X0.195353X-0.138361X-0.022147X0.238361X-0.195353X0.138361X0.022147X-0.238361X0*%
%ADD40RoundRect,0.102000X-0.250000X-0.550000X0.250000X-0.550000X0.250000X0.550000X-0.250000X0.550000X0*%
%ADD41RotRect,0.600000X1.550000X240.000000*%
%ADD42RotRect,1.200000X1.800000X240.000000*%
%ADD43RoundRect,0.100000X0.100000X-0.217500X0.100000X0.217500X-0.100000X0.217500X-0.100000X-0.217500X0*%
%ADD44C,2.550000*%
%ADD45C,1.500000*%
%ADD46RoundRect,0.140000X-0.140000X-0.170000X0.140000X-0.170000X0.140000X0.170000X-0.140000X0.170000X0*%
%ADD47RoundRect,0.155000X-0.212500X-0.155000X0.212500X-0.155000X0.212500X0.155000X-0.212500X0.155000X0*%
%ADD48RoundRect,0.100000X-0.021603X0.162583X-0.151603X-0.062583X0.021603X-0.162583X0.151603X0.062583X0*%
%ADD49R,1.500000X0.550000*%
%ADD50RotRect,0.820000X1.800000X225.000000*%
%ADD51RotRect,0.820000X1.800000X45.000000*%
%ADD52R,3.200000X1.750000*%
%ADD53C,0.500000*%
%ADD54RotRect,0.600000X0.522000X300.000000*%
%ADD55FreePoly0,210.000000*%
%ADD56RoundRect,0.140000X-0.170000X0.140000X-0.170000X-0.140000X0.170000X-0.140000X0.170000X0.140000X0*%
%ADD57C,0.650000*%
G04 APERTURE END LIST*
D10*
X118984681Y-64571392D02*
X120328494Y-65892618D01*
X120351962Y-66086233D01*
X120331962Y-66436233D01*
X120241962Y-66806233D01*
X120121962Y-67036233D01*
X119761962Y-67466233D01*
X119431962Y-67676233D01*
X119051962Y-67816233D01*
X118661962Y-67876233D01*
X118310000Y-67837051D01*
X117098363Y-66636150D01*
X117021962Y-66186233D01*
X117051962Y-65866233D01*
X117151962Y-65436233D01*
X117581962Y-64916233D01*
X117901962Y-64726233D01*
X118371962Y-64566233D01*
X118751962Y-64546233D01*
X118984681Y-64571392D01*
G36*
X118984681Y-64571392D02*
G01*
X120328494Y-65892618D01*
X120351962Y-66086233D01*
X120331962Y-66436233D01*
X120241962Y-66806233D01*
X120121962Y-67036233D01*
X119761962Y-67466233D01*
X119431962Y-67676233D01*
X119051962Y-67816233D01*
X118661962Y-67876233D01*
X118310000Y-67837051D01*
X117098363Y-66636150D01*
X117021962Y-66186233D01*
X117051962Y-65866233D01*
X117151962Y-65436233D01*
X117581962Y-64916233D01*
X117901962Y-64726233D01*
X118371962Y-64566233D01*
X118751962Y-64546233D01*
X118984681Y-64571392D01*
G37*
X119096313Y-98376149D02*
X119526313Y-98476149D01*
X120046313Y-98906149D01*
X120236313Y-99226149D01*
X120396313Y-99696149D01*
X120416313Y-100076149D01*
X120394765Y-100275464D01*
X119036740Y-101656704D01*
X118876313Y-101676149D01*
X118526313Y-101656149D01*
X118156313Y-101566149D01*
X117926313Y-101446149D01*
X117496313Y-101086149D01*
X117286313Y-100756149D01*
X117146313Y-100376149D01*
X117086313Y-99986149D01*
X117136313Y-99606149D01*
X118246313Y-98436149D01*
X118776313Y-98346149D01*
X119096313Y-98376149D01*
G36*
X119096313Y-98376149D02*
G01*
X119526313Y-98476149D01*
X120046313Y-98906149D01*
X120236313Y-99226149D01*
X120396313Y-99696149D01*
X120416313Y-100076149D01*
X120394765Y-100275464D01*
X119036740Y-101656704D01*
X118876313Y-101676149D01*
X118526313Y-101656149D01*
X118156313Y-101566149D01*
X117926313Y-101446149D01*
X117496313Y-101086149D01*
X117286313Y-100756149D01*
X117146313Y-100376149D01*
X117086313Y-99986149D01*
X117136313Y-99606149D01*
X118246313Y-98436149D01*
X118776313Y-98346149D01*
X119096313Y-98376149D01*
G37*
D11*
%TO.C,H1*%
X137625000Y-101186533D03*
X138174175Y-99860708D03*
X138174175Y-102512358D03*
X139500000Y-99311533D03*
D12*
X139500000Y-101186533D03*
D11*
X139500000Y-103061533D03*
X140825825Y-99860708D03*
X140825825Y-102512358D03*
X141375000Y-101186533D03*
%TD*%
%TO.C,H3*%
X137625000Y-64813467D03*
X138174175Y-63487642D03*
X138174175Y-66139292D03*
X139500000Y-62938467D03*
D12*
X139500000Y-64813467D03*
D11*
X139500000Y-66688467D03*
X140825825Y-63487642D03*
X140825825Y-66139292D03*
X141375000Y-64813467D03*
%TD*%
%TO.C,H2*%
X106125000Y-83000000D03*
X106674175Y-81674175D03*
X106674175Y-84325825D03*
X108000000Y-81125000D03*
D12*
X108000000Y-83000000D03*
D11*
X108000000Y-84875000D03*
X109325825Y-81674175D03*
X109325825Y-84325825D03*
X109875000Y-83000000D03*
%TD*%
D13*
%TO.C,R41*%
X136097500Y-78200000D03*
X134902500Y-78200000D03*
%TD*%
D14*
%TO.C,C7*%
X132039411Y-82739411D03*
X131360589Y-82060589D03*
%TD*%
D15*
%TO.C,C50*%
X113150000Y-85390000D03*
X111250000Y-85390000D03*
%TD*%
D16*
%TO.C,J9*%
X116280038Y-71730514D03*
X112880038Y-77619486D03*
D17*
X110532443Y-74185641D03*
X114429557Y-76435641D03*
X110932443Y-73492820D03*
X114829557Y-75742820D03*
X111332443Y-72800000D03*
X115229557Y-75050000D03*
X111732443Y-72107180D03*
X115629557Y-74357180D03*
X112132443Y-71414359D03*
X116029557Y-73664359D03*
%TD*%
D18*
%TO.C,R23*%
X109067872Y-79998660D03*
X109622128Y-80318660D03*
%TD*%
D19*
%TO.C,C54*%
X134975000Y-70772724D03*
X135925000Y-69127276D03*
%TD*%
D16*
%TO.C,J7*%
X145119962Y-77619486D03*
X141719962Y-71730514D03*
D20*
X145867557Y-71414359D03*
X141970443Y-73664359D03*
X146267557Y-72107180D03*
X142370443Y-74357180D03*
X146667557Y-72800000D03*
X142770443Y-75050000D03*
X147067557Y-73492820D03*
X143170443Y-75742820D03*
X147467557Y-74185641D03*
X143570443Y-76435641D03*
%TD*%
D21*
%TO.C,C49*%
X126228249Y-96871751D03*
X127571751Y-95528249D03*
%TD*%
D22*
%TO.C,C13*%
X134450000Y-88550000D03*
X133490000Y-88550000D03*
%TD*%
D23*
%TO.C,C17*%
X127553705Y-82987982D03*
X127553705Y-82347982D03*
%TD*%
D24*
%TO.C,R13*%
X127553705Y-80877982D03*
X127553705Y-81517982D03*
%TD*%
D25*
%TO.C,SWD1*%
X130978705Y-66797982D03*
X129728705Y-66797982D03*
X128478705Y-66797982D03*
X127228705Y-66797982D03*
D26*
X132828705Y-63447982D03*
X125378705Y-63447982D03*
%TD*%
D27*
%TO.C,R39*%
X142000000Y-86442500D03*
X142000000Y-87257500D03*
%TD*%
D28*
%TO.C,C20*%
X122453705Y-78550000D03*
X122453705Y-80450000D03*
%TD*%
D29*
%TO.C,R35*%
X150515000Y-84250000D03*
X149700000Y-84250000D03*
%TD*%
D30*
%TO.C,IC1*%
X126303705Y-85847982D03*
X125353705Y-85847982D03*
X124403705Y-85847982D03*
X124403705Y-83347982D03*
X125353705Y-83347982D03*
X126303705Y-83347982D03*
%TD*%
D31*
%TO.C,R11*%
X124513705Y-87147982D03*
X125153705Y-87147982D03*
%TD*%
D32*
%TO.C,C30*%
X151852905Y-81346250D03*
X151147095Y-81753750D03*
%TD*%
D33*
%TO.C,IC8*%
X111147724Y-78912083D03*
X110822724Y-79475000D03*
X110497724Y-80037917D03*
X108852276Y-79087917D03*
X109502276Y-77962083D03*
%TD*%
D22*
%TO.C,C14*%
X132980000Y-85300000D03*
X132020000Y-85300000D03*
%TD*%
D15*
%TO.C,C51*%
X113150000Y-83420000D03*
X111250000Y-83420000D03*
%TD*%
D34*
%TO.C,C4*%
X132820000Y-84450000D03*
X132180000Y-84450000D03*
%TD*%
D35*
%TO.C,C68*%
X139392500Y-86650000D03*
X140207500Y-86650000D03*
%TD*%
D36*
%TO.C,C18*%
X124300000Y-77050000D03*
X124300000Y-75150000D03*
%TD*%
D21*
%TO.C,C48*%
X124828249Y-95471751D03*
X126171751Y-94128249D03*
%TD*%
%TO.C,C46*%
X123428249Y-94071751D03*
X124771751Y-92728249D03*
%TD*%
D22*
%TO.C,C2*%
X136330000Y-88550000D03*
X135370000Y-88550000D03*
%TD*%
D37*
%TO.C,LED2*%
X120946633Y-64962563D03*
D38*
X119885973Y-63901903D03*
D37*
X116350439Y-67437437D03*
D38*
X117411099Y-68498097D03*
%TD*%
D29*
%TO.C,C61*%
X150515000Y-83550000D03*
X149700000Y-83550000D03*
%TD*%
D39*
%TO.C,R15*%
X147383750Y-82132905D03*
X146976250Y-81427095D03*
%TD*%
D34*
%TO.C,C6*%
X136020000Y-87600000D03*
X135380000Y-87600000D03*
%TD*%
D36*
%TO.C,C15*%
X122453705Y-83847982D03*
X122453705Y-81947982D03*
%TD*%
D24*
%TO.C,C58*%
X122900000Y-64910000D03*
X122900000Y-65550000D03*
%TD*%
D16*
%TO.C,J8*%
X125600000Y-99650000D03*
X132400000Y-99650000D03*
D40*
X130600000Y-103400000D03*
X130600000Y-98900000D03*
X129800000Y-103400000D03*
X129800000Y-98900000D03*
X129000000Y-103400000D03*
X129000000Y-98900000D03*
X128200000Y-103400000D03*
X128200000Y-98900000D03*
X127400000Y-103400000D03*
X127400000Y-98900000D03*
%TD*%
D15*
%TO.C,C52*%
X113150000Y-81430000D03*
X111250000Y-81430000D03*
%TD*%
D41*
%TO.C,J5*%
X146069400Y-86468360D03*
X145569400Y-87334386D03*
X145069400Y-88200411D03*
X144569400Y-89066436D03*
X144069400Y-89932462D03*
X143569400Y-90798487D03*
X143069400Y-91664513D03*
X142569400Y-92530538D03*
X142069400Y-93396564D03*
X141569400Y-94262589D03*
X141069400Y-95128614D03*
X140569400Y-95994640D03*
D42*
X150075248Y-87280027D03*
X143275248Y-99057973D03*
%TD*%
D23*
%TO.C,R27*%
X130773705Y-92707982D03*
X130773705Y-92067982D03*
%TD*%
D19*
%TO.C,C55*%
X133275000Y-69772724D03*
X134225000Y-68127276D03*
%TD*%
D35*
%TO.C,C71*%
X144042500Y-84800000D03*
X144857500Y-84800000D03*
%TD*%
D43*
%TO.C,R37*%
X142700000Y-87257500D03*
X142700000Y-86442500D03*
%TD*%
D34*
%TO.C,C11*%
X132820000Y-83750000D03*
X132180000Y-83750000D03*
%TD*%
D44*
%TO.C,J3*%
X119173647Y-86476918D03*
X121673647Y-90807046D03*
D45*
X114513393Y-98405122D03*
X109013393Y-88878842D03*
%TD*%
D14*
%TO.C,C10*%
X132739411Y-82039411D03*
X132060589Y-81360589D03*
%TD*%
D36*
%TO.C,C19*%
X126300000Y-77050000D03*
X126300000Y-75150000D03*
%TD*%
D19*
%TO.C,C53*%
X136675000Y-71745448D03*
X137625000Y-70100000D03*
%TD*%
D46*
%TO.C,C8*%
X133670000Y-83550000D03*
X134630000Y-83550000D03*
%TD*%
D34*
%TO.C,C12*%
X134490000Y-87600000D03*
X133850000Y-87600000D03*
%TD*%
D47*
%TO.C,C32*%
X137132500Y-78200000D03*
X138267500Y-78200000D03*
%TD*%
D29*
%TO.C,R36*%
X150497500Y-84950000D03*
X149682500Y-84950000D03*
%TD*%
D34*
%TO.C,C57*%
X119530000Y-103770000D03*
X118890000Y-103770000D03*
%TD*%
D23*
%TO.C,R26*%
X129943705Y-92707982D03*
X129943705Y-92067982D03*
%TD*%
D48*
%TO.C,C56*%
X108023660Y-78269212D03*
X107703660Y-78823468D03*
%TD*%
D34*
%TO.C,C3*%
X131180000Y-86810000D03*
X130540000Y-86810000D03*
%TD*%
D49*
%TO.C,SW1*%
X141300000Y-81125000D03*
X141300000Y-84375000D03*
%TD*%
D31*
%TO.C,R12*%
X126903705Y-87157982D03*
X127543705Y-87157982D03*
%TD*%
D50*
%TO.C,LED3*%
X119977437Y-102230315D03*
D51*
X121038097Y-101169655D03*
D50*
X117502563Y-97634121D03*
D51*
X116441903Y-98694781D03*
%TD*%
D52*
%TO.C,L1*%
X125353705Y-81147982D03*
X125353705Y-78947982D03*
%TD*%
D53*
%TO.C,MK2*%
X149709264Y-79553423D03*
D54*
X147463127Y-79811000D03*
X148175000Y-79400000D03*
D55*
X150040514Y-80127165D03*
D54*
X149075000Y-80958846D03*
X148363127Y-81369846D03*
X147913127Y-80590423D03*
%TD*%
D56*
%TO.C,C16*%
X123100000Y-86320000D03*
X123100000Y-87280000D03*
%TD*%
D24*
%TO.C,R14*%
X127543705Y-85697982D03*
X127543705Y-86337982D03*
%TD*%
D57*
%TO.C,J1*%
X131890000Y-66505000D03*
X126110000Y-66505000D03*
%TD*%
M02*
