%TF.GenerationSoftware,KiCad,Pcbnew,9.0.5*%
%TF.CreationDate,2025-10-19T17:26:29+02:00*%
%TF.ProjectId,PCB_PAPI,5043425f-5041-4504-992e-6b696361645f,rev?*%
%TF.SameCoordinates,Original*%
%TF.FileFunction,Soldermask,Top*%
%TF.FilePolarity,Negative*%
%FSLAX46Y46*%
G04 Gerber Fmt 4.6, Leading zero omitted, Abs format (unit mm)*
G04 Created by KiCad (PCBNEW 9.0.5) date 2025-10-19 17:26:29*
%MOMM*%
%LPD*%
G01*
G04 APERTURE LIST*
G04 Aperture macros list*
%AMRoundRect*
0 Rectangle with rounded corners*
0 $1 Rounding radius*
0 $2 $3 $4 $5 $6 $7 $8 $9 X,Y pos of 4 corners*
0 Add a 4 corners polygon primitive as box body*
4,1,4,$2,$3,$4,$5,$6,$7,$8,$9,$2,$3,0*
0 Add four circle primitives for the rounded corners*
1,1,$1+$1,$2,$3*
1,1,$1+$1,$4,$5*
1,1,$1+$1,$6,$7*
1,1,$1+$1,$8,$9*
0 Add four rect primitives between the rounded corners*
20,1,$1+$1,$2,$3,$4,$5,0*
20,1,$1+$1,$4,$5,$6,$7,0*
20,1,$1+$1,$6,$7,$8,$9,0*
20,1,$1+$1,$8,$9,$2,$3,0*%
%AMRotRect*
0 Rectangle, with rotation*
0 The origin of the aperture is its center*
0 $1 length*
0 $2 width*
0 $3 Rotation angle, in degrees counterclockwise*
0 Add horizontal line*
21,1,$1,$2,0,0,$3*%
G04 Aperture macros list end*
%ADD10C,0.100000*%
%ADD11C,0.800000*%
%ADD12C,5.000000*%
%ADD13C,0.700000*%
%ADD14C,1.450000*%
%ADD15C,2.550000*%
%ADD16C,1.500000*%
%ADD17C,0.500000*%
%ADD18RoundRect,0.155000X-0.155000X0.212500X-0.155000X-0.212500X0.155000X-0.212500X0.155000X0.212500X0*%
%ADD19RoundRect,0.100000X-0.100000X0.217500X-0.100000X-0.217500X0.100000X-0.217500X0.100000X0.217500X0*%
%ADD20RoundRect,0.218750X0.218750X0.256250X-0.218750X0.256250X-0.218750X-0.256250X0.218750X-0.256250X0*%
%ADD21RoundRect,0.100000X0.100000X-0.130000X0.100000X0.130000X-0.100000X0.130000X-0.100000X-0.130000X0*%
%ADD22RoundRect,0.100000X-0.130000X-0.100000X0.130000X-0.100000X0.130000X0.100000X-0.130000X0.100000X0*%
%ADD23RoundRect,0.100000X0.130000X0.100000X-0.130000X0.100000X-0.130000X-0.100000X0.130000X-0.100000X0*%
%ADD24R,0.850000X0.300000*%
%ADD25R,0.300000X0.850000*%
%ADD26R,1.250000X1.250000*%
%ADD27R,0.550000X0.750000*%
%ADD28RoundRect,0.100000X0.100000X-0.217500X0.100000X0.217500X-0.100000X0.217500X-0.100000X-0.217500X0*%
%ADD29R,1.200000X0.400000*%
%ADD30RoundRect,0.050000X0.350000X0.050000X-0.350000X0.050000X-0.350000X-0.050000X0.350000X-0.050000X0*%
%ADD31RoundRect,0.050000X0.050000X0.350000X-0.050000X0.350000X-0.050000X-0.350000X0.050000X-0.350000X0*%
%ADD32R,4.000000X4.000000*%
%ADD33RoundRect,0.147500X-0.147500X-0.172500X0.147500X-0.172500X0.147500X0.172500X-0.147500X0.172500X0*%
%ADD34RoundRect,0.100000X-0.100000X0.130000X-0.100000X-0.130000X0.100000X-0.130000X0.100000X0.130000X0*%
%ADD35RoundRect,0.155000X0.212500X0.155000X-0.212500X0.155000X-0.212500X-0.155000X0.212500X-0.155000X0*%
%ADD36RoundRect,0.225000X-0.225000X-0.250000X0.225000X-0.250000X0.225000X0.250000X-0.225000X0.250000X0*%
%ADD37RoundRect,0.150000X0.150000X0.700000X-0.150000X0.700000X-0.150000X-0.700000X0.150000X-0.700000X0*%
%ADD38RoundRect,0.250000X0.250000X1.150000X-0.250000X1.150000X-0.250000X-1.150000X0.250000X-1.150000X0*%
%ADD39RoundRect,0.140000X0.170000X-0.140000X0.170000X0.140000X-0.170000X0.140000X-0.170000X-0.140000X0*%
%ADD40R,0.400000X1.900000*%
%ADD41R,0.550000X1.145000*%
%ADD42R,1.145000X0.550000*%
%ADD43RoundRect,0.100000X0.217500X0.100000X-0.217500X0.100000X-0.217500X-0.100000X0.217500X-0.100000X0*%
%ADD44R,1.085000X0.550000*%
%ADD45R,0.740000X2.400000*%
%ADD46R,0.900000X0.900000*%
%ADD47C,0.470000*%
%ADD48R,2.500000X1.700000*%
%ADD49R,1.250000X0.600000*%
%ADD50R,3.790000X1.200000*%
%ADD51R,1.400000X1.450000*%
%ADD52R,0.600000X1.000000*%
%ADD53R,0.850000X0.950000*%
%ADD54RoundRect,0.225000X0.225000X0.250000X-0.225000X0.250000X-0.225000X-0.250000X0.225000X-0.250000X0*%
%ADD55RoundRect,0.250000X-0.295000X-0.315000X0.295000X-0.315000X0.295000X0.315000X-0.295000X0.315000X0*%
%ADD56RoundRect,0.140000X0.140000X0.170000X-0.140000X0.170000X-0.140000X-0.170000X0.140000X-0.170000X0*%
%ADD57RotRect,1.050000X2.200000X150.000000*%
%ADD58RotRect,1.000000X1.050000X150.000000*%
%ADD59R,0.410000X0.510000*%
%ADD60R,2.000000X1.200000*%
%ADD61RoundRect,0.100000X-0.217500X-0.100000X0.217500X-0.100000X0.217500X0.100000X-0.217500X0.100000X0*%
%ADD62RoundRect,0.155000X-0.212500X-0.155000X0.212500X-0.155000X0.212500X0.155000X-0.212500X0.155000X0*%
%ADD63R,1.000000X0.500000*%
%ADD64R,1.600000X0.900000*%
%ADD65RoundRect,0.150000X0.531218X-0.479904X0.681218X-0.220096X-0.531218X0.479904X-0.681218X0.220096X0*%
%ADD66RoundRect,0.250000X0.870929X-0.791506X1.120929X-0.358494X-0.870929X0.791506X-1.120929X0.358494X0*%
%ADD67RoundRect,0.150000X0.681218X0.220096X0.531218X0.479904X-0.681218X-0.220096X-0.531218X-0.479904X0*%
%ADD68RoundRect,0.250000X1.120929X0.358494X0.870929X0.791506X-1.120929X-0.358494X-0.870929X-0.791506X0*%
%ADD69RoundRect,0.155000X-0.261530X-0.027984X0.106530X-0.240484X0.261530X0.027984X-0.106530X0.240484X0*%
%ADD70RoundRect,0.218750X-0.112544X0.317568X-0.331294X-0.061318X0.112544X-0.317568X0.331294X0.061318X0*%
%ADD71RoundRect,0.100000X-0.162583X-0.021603X0.062583X-0.151603X0.162583X0.021603X-0.062583X0.151603X0*%
%ADD72RoundRect,0.147500X0.147500X0.172500X-0.147500X0.172500X-0.147500X-0.172500X0.147500X-0.172500X0*%
%ADD73RoundRect,0.150000X-0.681218X-0.220096X-0.531218X-0.479904X0.681218X0.220096X0.531218X0.479904X0*%
%ADD74RoundRect,0.250000X-1.120929X-0.358494X-0.870929X-0.791506X1.120929X0.358494X0.870929X0.791506X0*%
%ADD75C,0.650000*%
%ADD76RoundRect,0.150000X0.150000X0.425000X-0.150000X0.425000X-0.150000X-0.425000X0.150000X-0.425000X0*%
%ADD77RoundRect,0.075000X0.075000X0.500000X-0.075000X0.500000X-0.075000X-0.500000X0.075000X-0.500000X0*%
%ADD78RoundRect,0.250000X0.840000X0.750000X-0.840000X0.750000X-0.840000X-0.750000X0.840000X-0.750000X0*%
%ADD79RoundRect,0.147500X-0.172500X0.147500X-0.172500X-0.147500X0.172500X-0.147500X0.172500X0.147500X0*%
G04 APERTURE END LIST*
D10*
X120480000Y-63510000D02*
X120090000Y-63910000D01*
X119920000Y-64240000D01*
X119920000Y-64420000D01*
X119960000Y-64450000D01*
X120030000Y-64480000D01*
X120170000Y-64520000D01*
X120260000Y-64560000D01*
X120280000Y-64590000D01*
X120280000Y-64630000D01*
X120210000Y-64630000D01*
X119910000Y-64590000D01*
X119900000Y-64620000D01*
X119920000Y-64680000D01*
X120025000Y-64750000D01*
X120120000Y-64800000D01*
X120200000Y-64860000D01*
X120310000Y-64910000D01*
X120420000Y-64980000D01*
X120530000Y-65090000D01*
X120690000Y-65410000D01*
X120820000Y-65780000D01*
X120850000Y-66070000D01*
X120830000Y-66250000D01*
X120650000Y-66950000D01*
X120680000Y-66980000D01*
X120860000Y-67090000D01*
X120930000Y-67070000D01*
X121040000Y-67050000D01*
X121250000Y-67030000D01*
X121470000Y-67030000D01*
X121530000Y-67050000D01*
X121510000Y-67110000D01*
X121420000Y-67150000D01*
X121030000Y-67180000D01*
X120950000Y-67200000D01*
X120960000Y-67260000D01*
X121010000Y-67450000D01*
X121080000Y-67470000D01*
X121290000Y-67560000D01*
X121410000Y-67620000D01*
X121430000Y-67660000D01*
X121420000Y-67700000D01*
X121260000Y-67680000D01*
X121090000Y-67590000D01*
X121030000Y-67570000D01*
X121010000Y-67610000D01*
X120990000Y-67700000D01*
X120920000Y-67830000D01*
X120520000Y-68010000D01*
X120380000Y-68090000D01*
X120190000Y-68230000D01*
X119980000Y-68350000D01*
X119710000Y-68480000D01*
X119600000Y-68590000D01*
X119500000Y-68710000D01*
X119390000Y-68810000D01*
X119160000Y-68880000D01*
X118940000Y-68820000D01*
X118680000Y-68690000D01*
X118520000Y-68600000D01*
X118350000Y-68540000D01*
X117990000Y-68240000D01*
X117850000Y-68080000D01*
X117710000Y-67940000D01*
X117650000Y-67875000D01*
X117530000Y-67750000D01*
X117360000Y-67560000D01*
X117130000Y-67500000D01*
X117000000Y-67480000D01*
X116910000Y-67410000D01*
X116860000Y-67390000D01*
X116780000Y-67410000D01*
X116680000Y-67460000D01*
X116570000Y-67490000D01*
X116540000Y-67370000D01*
X116540000Y-67230000D01*
X116550000Y-67060000D01*
X116640000Y-66780000D01*
X116740000Y-66610000D01*
X116660000Y-66520000D01*
X116550000Y-66370000D01*
X116410000Y-66140000D01*
X116360000Y-65910000D01*
X116340000Y-65680000D01*
X116370000Y-65400000D01*
X116510000Y-64730000D01*
X116550000Y-64380000D01*
X116410000Y-64060000D01*
X116250000Y-63960000D01*
X116110000Y-63910000D01*
X116130000Y-63820000D01*
X116290000Y-63720000D01*
X116600000Y-63730000D01*
X117120000Y-63780000D01*
X117600000Y-64000000D01*
X118310000Y-64570000D01*
X118440000Y-64500000D01*
X118720000Y-64390000D01*
X118910000Y-64300000D01*
X119170000Y-64150000D01*
X119550000Y-63700000D01*
X120050000Y-63490000D01*
X120400000Y-63450000D01*
X120480000Y-63510000D01*
G36*
X120480000Y-63510000D02*
G01*
X120090000Y-63910000D01*
X119920000Y-64240000D01*
X119920000Y-64420000D01*
X119960000Y-64450000D01*
X120030000Y-64480000D01*
X120170000Y-64520000D01*
X120260000Y-64560000D01*
X120280000Y-64590000D01*
X120280000Y-64630000D01*
X120210000Y-64630000D01*
X119910000Y-64590000D01*
X119900000Y-64620000D01*
X119920000Y-64680000D01*
X120025000Y-64750000D01*
X120120000Y-64800000D01*
X120200000Y-64860000D01*
X120310000Y-64910000D01*
X120420000Y-64980000D01*
X120530000Y-65090000D01*
X120690000Y-65410000D01*
X120820000Y-65780000D01*
X120850000Y-66070000D01*
X120830000Y-66250000D01*
X120650000Y-66950000D01*
X120680000Y-66980000D01*
X120860000Y-67090000D01*
X120930000Y-67070000D01*
X121040000Y-67050000D01*
X121250000Y-67030000D01*
X121470000Y-67030000D01*
X121530000Y-67050000D01*
X121510000Y-67110000D01*
X121420000Y-67150000D01*
X121030000Y-67180000D01*
X120950000Y-67200000D01*
X120960000Y-67260000D01*
X121010000Y-67450000D01*
X121080000Y-67470000D01*
X121290000Y-67560000D01*
X121410000Y-67620000D01*
X121430000Y-67660000D01*
X121420000Y-67700000D01*
X121260000Y-67680000D01*
X121090000Y-67590000D01*
X121030000Y-67570000D01*
X121010000Y-67610000D01*
X120990000Y-67700000D01*
X120920000Y-67830000D01*
X120520000Y-68010000D01*
X120380000Y-68090000D01*
X120190000Y-68230000D01*
X119980000Y-68350000D01*
X119710000Y-68480000D01*
X119600000Y-68590000D01*
X119500000Y-68710000D01*
X119390000Y-68810000D01*
X119160000Y-68880000D01*
X118940000Y-68820000D01*
X118680000Y-68690000D01*
X118520000Y-68600000D01*
X118350000Y-68540000D01*
X117990000Y-68240000D01*
X117850000Y-68080000D01*
X117710000Y-67940000D01*
X117650000Y-67875000D01*
X117530000Y-67750000D01*
X117360000Y-67560000D01*
X117130000Y-67500000D01*
X117000000Y-67480000D01*
X116910000Y-67410000D01*
X116860000Y-67390000D01*
X116780000Y-67410000D01*
X116680000Y-67460000D01*
X116570000Y-67490000D01*
X116540000Y-67370000D01*
X116540000Y-67230000D01*
X116550000Y-67060000D01*
X116640000Y-66780000D01*
X116740000Y-66610000D01*
X116660000Y-66520000D01*
X116550000Y-66370000D01*
X116410000Y-66140000D01*
X116360000Y-65910000D01*
X116340000Y-65680000D01*
X116370000Y-65400000D01*
X116510000Y-64730000D01*
X116550000Y-64380000D01*
X116410000Y-64060000D01*
X116250000Y-63960000D01*
X116110000Y-63910000D01*
X116130000Y-63820000D01*
X116290000Y-63720000D01*
X116600000Y-63730000D01*
X117120000Y-63780000D01*
X117600000Y-64000000D01*
X118310000Y-64570000D01*
X118440000Y-64500000D01*
X118720000Y-64390000D01*
X118910000Y-64300000D01*
X119170000Y-64150000D01*
X119550000Y-63700000D01*
X120050000Y-63490000D01*
X120400000Y-63450000D01*
X120480000Y-63510000D01*
G37*
X119040000Y-97400000D02*
X119190000Y-97530000D01*
X119280000Y-97660000D01*
X119350000Y-97810000D01*
X119430000Y-98030000D01*
X119470000Y-98240000D01*
X119530000Y-98340000D01*
X119660000Y-98460000D01*
X119880000Y-98760000D01*
X120050000Y-99160000D01*
X120120000Y-99270000D01*
X120240000Y-99280000D01*
X120620000Y-99170000D01*
X120980000Y-99100000D01*
X121190000Y-99150000D01*
X121380000Y-99270000D01*
X121540000Y-99470000D01*
X121660000Y-99740000D01*
X121700000Y-100050000D01*
X121690000Y-100340000D01*
X121620000Y-100690000D01*
X121470000Y-101010000D01*
X121300000Y-101300000D01*
X121070000Y-101510000D01*
X120800000Y-101690000D01*
X120430000Y-101810000D01*
X119990000Y-101820000D01*
X119610000Y-101750000D01*
X119560000Y-101730000D01*
X119550000Y-101740000D01*
X119590000Y-101780000D01*
X119710000Y-101990000D01*
X119720000Y-102020000D01*
X119720000Y-102070000D01*
X119670000Y-102070000D01*
X119610000Y-102010000D01*
X119480847Y-101825000D01*
X119320000Y-101600000D01*
X119200000Y-101450000D01*
X119150000Y-101400000D01*
X119120000Y-101400000D01*
X119060000Y-101430000D01*
X118640000Y-101540000D01*
X118410000Y-101620000D01*
X118300000Y-101700000D01*
X118170000Y-101730000D01*
X117950000Y-101830000D01*
X117790000Y-101850000D01*
X117690000Y-101840000D01*
X117540000Y-101780000D01*
X117460000Y-101680000D01*
X117400000Y-101540000D01*
X117360000Y-101400000D01*
X117350000Y-101280000D01*
X117140000Y-101060000D01*
X116950000Y-100760000D01*
X116800000Y-100460000D01*
X116740000Y-100290000D01*
X116690000Y-100110000D01*
X116670000Y-99980000D01*
X116670000Y-99810000D01*
X116700000Y-99670000D01*
X116710000Y-99580000D01*
X116680000Y-99530000D01*
X116450000Y-99400000D01*
X116060000Y-99210000D01*
X115860000Y-99110000D01*
X115820000Y-99070000D01*
X115820000Y-99030000D01*
X115870000Y-99020000D01*
X115920000Y-99030000D01*
X116070000Y-99100000D01*
X116450000Y-99260000D01*
X116690000Y-99410000D01*
X116770000Y-99430000D01*
X116800000Y-99410000D01*
X116840000Y-99360000D01*
X116860000Y-99320000D01*
X116830000Y-99250000D01*
X116430000Y-98830000D01*
X116420000Y-98800000D01*
X116430000Y-98770000D01*
X116460000Y-98770000D01*
X116650000Y-98910000D01*
X116980000Y-99250000D01*
X117020000Y-99260000D01*
X117120000Y-99260000D01*
X117230000Y-99280000D01*
X117290000Y-99320000D01*
X117330000Y-99320000D01*
X117380000Y-99250000D01*
X117460000Y-99080000D01*
X117550000Y-98930000D01*
X117660000Y-98780000D01*
X117790000Y-98670000D01*
X117950000Y-98560000D01*
X118000000Y-98510000D01*
X118150000Y-98270000D01*
X118210000Y-98270000D01*
X118500000Y-98320000D01*
X118570000Y-98320000D01*
X118590000Y-98290000D01*
X118610000Y-98210000D01*
X118570000Y-98170000D01*
X118300000Y-98080000D01*
X118190000Y-98050000D01*
X118150000Y-98030000D01*
X118130000Y-97980000D01*
X118170000Y-97970000D01*
X118260000Y-97970000D01*
X118380000Y-97980000D01*
X118580000Y-98010000D01*
X118680000Y-98030000D01*
X118720000Y-98000000D01*
X118770000Y-97780000D01*
X118790000Y-97610000D01*
X118840000Y-97420000D01*
X118890000Y-97360000D01*
X118950000Y-97360000D01*
X119040000Y-97400000D01*
G36*
X119040000Y-97400000D02*
G01*
X119190000Y-97530000D01*
X119280000Y-97660000D01*
X119350000Y-97810000D01*
X119430000Y-98030000D01*
X119470000Y-98240000D01*
X119530000Y-98340000D01*
X119660000Y-98460000D01*
X119880000Y-98760000D01*
X120050000Y-99160000D01*
X120120000Y-99270000D01*
X120240000Y-99280000D01*
X120620000Y-99170000D01*
X120980000Y-99100000D01*
X121190000Y-99150000D01*
X121380000Y-99270000D01*
X121540000Y-99470000D01*
X121660000Y-99740000D01*
X121700000Y-100050000D01*
X121690000Y-100340000D01*
X121620000Y-100690000D01*
X121470000Y-101010000D01*
X121300000Y-101300000D01*
X121070000Y-101510000D01*
X120800000Y-101690000D01*
X120430000Y-101810000D01*
X119990000Y-101820000D01*
X119610000Y-101750000D01*
X119560000Y-101730000D01*
X119550000Y-101740000D01*
X119590000Y-101780000D01*
X119710000Y-101990000D01*
X119720000Y-102020000D01*
X119720000Y-102070000D01*
X119670000Y-102070000D01*
X119610000Y-102010000D01*
X119480847Y-101825000D01*
X119320000Y-101600000D01*
X119200000Y-101450000D01*
X119150000Y-101400000D01*
X119120000Y-101400000D01*
X119060000Y-101430000D01*
X118640000Y-101540000D01*
X118410000Y-101620000D01*
X118300000Y-101700000D01*
X118170000Y-101730000D01*
X117950000Y-101830000D01*
X117790000Y-101850000D01*
X117690000Y-101840000D01*
X117540000Y-101780000D01*
X117460000Y-101680000D01*
X117400000Y-101540000D01*
X117360000Y-101400000D01*
X117350000Y-101280000D01*
X117140000Y-101060000D01*
X116950000Y-100760000D01*
X116800000Y-100460000D01*
X116740000Y-100290000D01*
X116690000Y-100110000D01*
X116670000Y-99980000D01*
X116670000Y-99810000D01*
X116700000Y-99670000D01*
X116710000Y-99580000D01*
X116680000Y-99530000D01*
X116450000Y-99400000D01*
X116060000Y-99210000D01*
X115860000Y-99110000D01*
X115820000Y-99070000D01*
X115820000Y-99030000D01*
X115870000Y-99020000D01*
X115920000Y-99030000D01*
X116070000Y-99100000D01*
X116450000Y-99260000D01*
X116690000Y-99410000D01*
X116770000Y-99430000D01*
X116800000Y-99410000D01*
X116840000Y-99360000D01*
X116860000Y-99320000D01*
X116830000Y-99250000D01*
X116430000Y-98830000D01*
X116420000Y-98800000D01*
X116430000Y-98770000D01*
X116460000Y-98770000D01*
X116650000Y-98910000D01*
X116980000Y-99250000D01*
X117020000Y-99260000D01*
X117120000Y-99260000D01*
X117230000Y-99280000D01*
X117290000Y-99320000D01*
X117330000Y-99320000D01*
X117380000Y-99250000D01*
X117460000Y-99080000D01*
X117550000Y-98930000D01*
X117660000Y-98780000D01*
X117790000Y-98670000D01*
X117950000Y-98560000D01*
X118000000Y-98510000D01*
X118150000Y-98270000D01*
X118210000Y-98270000D01*
X118500000Y-98320000D01*
X118570000Y-98320000D01*
X118590000Y-98290000D01*
X118610000Y-98210000D01*
X118570000Y-98170000D01*
X118300000Y-98080000D01*
X118190000Y-98050000D01*
X118150000Y-98030000D01*
X118130000Y-97980000D01*
X118170000Y-97970000D01*
X118260000Y-97970000D01*
X118380000Y-97980000D01*
X118580000Y-98010000D01*
X118680000Y-98030000D01*
X118720000Y-98000000D01*
X118770000Y-97780000D01*
X118790000Y-97610000D01*
X118840000Y-97420000D01*
X118890000Y-97360000D01*
X118950000Y-97360000D01*
X119040000Y-97400000D01*
G37*
D11*
%TO.C,H1*%
X137625000Y-101186533D03*
X138174175Y-99860708D03*
X138174175Y-102512358D03*
X139500000Y-99311533D03*
D12*
X139500000Y-101186533D03*
D11*
X139500000Y-103061533D03*
X140825825Y-99860708D03*
X140825825Y-102512358D03*
X141375000Y-101186533D03*
%TD*%
%TO.C,H3*%
X137625000Y-64813467D03*
X138174175Y-63487642D03*
X138174175Y-66139292D03*
X139500000Y-62938467D03*
D12*
X139500000Y-64813467D03*
D11*
X139500000Y-66688467D03*
X140825825Y-63487642D03*
X140825825Y-66139292D03*
X141375000Y-64813467D03*
%TD*%
%TO.C,H2*%
X106125000Y-83000000D03*
X106674175Y-81674175D03*
X106674175Y-84325825D03*
X108000000Y-81125000D03*
D12*
X108000000Y-83000000D03*
D11*
X108000000Y-84875000D03*
X109325825Y-81674175D03*
X109325825Y-84325825D03*
X109875000Y-83000000D03*
%TD*%
D13*
%TO.C,TP1*%
X125130000Y-91100000D03*
%TD*%
D14*
%TO.C,J9*%
X116280038Y-71730514D03*
X112880038Y-77619486D03*
%TD*%
%TO.C,J7*%
X145119962Y-77619486D03*
X141719962Y-71730514D03*
%TD*%
%TO.C,J8*%
X125600000Y-99650000D03*
X132400000Y-99650000D03*
%TD*%
D15*
%TO.C,J3*%
X119173647Y-86476918D03*
X121673647Y-90807046D03*
D16*
X114513393Y-98405122D03*
X109013393Y-88878842D03*
%TD*%
D17*
%TO.C,MK2*%
X149709264Y-79553423D03*
%TD*%
D18*
%TO.C,C60*%
X151450000Y-82482500D03*
X151450000Y-83617500D03*
%TD*%
D19*
%TO.C,C63*%
X150400000Y-83342500D03*
X150400000Y-84157500D03*
%TD*%
D18*
%TO.C,C47*%
X152400000Y-82482500D03*
X152400000Y-83617500D03*
%TD*%
D20*
%TO.C,L4*%
X149237500Y-83300000D03*
X147662500Y-83300000D03*
%TD*%
D21*
%TO.C,R32*%
X132875000Y-93445000D03*
X132875000Y-92805000D03*
%TD*%
D22*
%TO.C,R34*%
X119755000Y-84400000D03*
X120395000Y-84400000D03*
%TD*%
D23*
%TO.C,R42*%
X110420000Y-85975000D03*
X109780000Y-85975000D03*
%TD*%
D24*
%TO.C,IC6*%
X135000000Y-93100000D03*
X135000000Y-93600000D03*
X135000000Y-94100000D03*
X135000000Y-94600000D03*
D25*
X135700000Y-95300000D03*
X136200000Y-95300000D03*
X136700000Y-95300000D03*
X137200000Y-95300000D03*
D24*
X137900000Y-94600000D03*
X137900000Y-94100000D03*
X137900000Y-93600000D03*
X137900000Y-93100000D03*
D25*
X137200000Y-92400000D03*
X136700000Y-92400000D03*
X136200000Y-92400000D03*
X135700000Y-92400000D03*
D26*
X136450000Y-93850000D03*
%TD*%
D27*
%TO.C,Y2*%
X142275000Y-89250000D03*
X142275000Y-88150000D03*
X141525000Y-88150000D03*
X141525000Y-89250000D03*
%TD*%
D21*
%TO.C,C41*%
X124593705Y-96167982D03*
X124593705Y-95527982D03*
%TD*%
D28*
%TO.C,C66*%
X146550000Y-83457500D03*
X146550000Y-82642500D03*
%TD*%
D29*
%TO.C,D1*%
X129900000Y-71600000D03*
X129900000Y-70950000D03*
X129900000Y-70300000D03*
X128000000Y-70300000D03*
X128000000Y-70950000D03*
X128000000Y-71600000D03*
%TD*%
D21*
%TO.C,C9*%
X132963705Y-90230000D03*
X132963705Y-89590000D03*
%TD*%
%TO.C,R5*%
X132203705Y-90220000D03*
X132203705Y-89580000D03*
%TD*%
D30*
%TO.C,U5*%
X145070000Y-85000000D03*
X145070000Y-84600000D03*
X145070000Y-84200000D03*
X145070000Y-83800000D03*
X145070000Y-83400000D03*
X145070000Y-83000000D03*
X145070000Y-82600000D03*
X145070000Y-82200000D03*
X145070000Y-81800000D03*
X145070000Y-81400000D03*
X145070000Y-81000000D03*
X145070000Y-80600000D03*
X145070000Y-80200000D03*
X145070000Y-79800000D03*
D31*
X144220000Y-78950000D03*
X143820000Y-78950000D03*
X143420000Y-78950000D03*
X143020000Y-78950000D03*
X142620000Y-78950000D03*
X142220000Y-78950000D03*
X141820000Y-78950000D03*
X141420000Y-78950000D03*
X141020000Y-78950000D03*
X140620000Y-78950000D03*
X140220000Y-78950000D03*
X139820000Y-78950000D03*
X139420000Y-78950000D03*
X139020000Y-78950000D03*
D30*
X138170000Y-79800000D03*
X138170000Y-80200000D03*
X138170000Y-80600000D03*
X138170000Y-81000000D03*
X138170000Y-81400000D03*
X138170000Y-81800000D03*
X138170000Y-82200000D03*
X138170000Y-82600000D03*
X138170000Y-83000000D03*
X138170000Y-83400000D03*
X138170000Y-83800000D03*
X138170000Y-84200000D03*
X138170000Y-84600000D03*
X138170000Y-85000000D03*
D31*
X139020000Y-85850000D03*
X139420000Y-85850000D03*
X139820000Y-85850000D03*
X140220000Y-85850000D03*
X140620000Y-85850000D03*
X141020000Y-85850000D03*
X141420000Y-85850000D03*
X141820000Y-85850000D03*
X142220000Y-85850000D03*
X142620000Y-85850000D03*
X143020000Y-85850000D03*
X143420000Y-85850000D03*
X143820000Y-85850000D03*
X144220000Y-85850000D03*
D32*
X141620000Y-82400000D03*
%TD*%
D33*
%TO.C,LEDGREEN1*%
X133640000Y-78520000D03*
X134610000Y-78520000D03*
%TD*%
D22*
%TO.C,R7*%
X130280000Y-69090000D03*
X130920000Y-69090000D03*
%TD*%
%TO.C,R8*%
X127223705Y-69020000D03*
X127863705Y-69020000D03*
%TD*%
D21*
%TO.C,R18*%
X119640000Y-95820000D03*
X119640000Y-95180000D03*
%TD*%
%TO.C,R28*%
X132863705Y-94897982D03*
X132863705Y-94257982D03*
%TD*%
D34*
%TO.C,R6*%
X126180000Y-91120000D03*
X126180000Y-91760000D03*
%TD*%
D35*
%TO.C,C28*%
X119667500Y-82000000D03*
X118532500Y-82000000D03*
%TD*%
D34*
%TO.C,R1*%
X124810000Y-89380000D03*
X124810000Y-90020000D03*
%TD*%
%TO.C,R31*%
X133585000Y-92805000D03*
X133585000Y-93445000D03*
%TD*%
D23*
%TO.C,C44*%
X137988705Y-96327982D03*
X137348705Y-96327982D03*
%TD*%
D36*
%TO.C,C25*%
X128350000Y-73300000D03*
X129900000Y-73300000D03*
%TD*%
D21*
%TO.C,R21*%
X125500000Y-71840000D03*
X125500000Y-71200000D03*
%TD*%
D22*
%TO.C,R17*%
X129783705Y-77517982D03*
X130423705Y-77517982D03*
%TD*%
D37*
%TO.C,TOF2*%
X130875000Y-98950000D03*
X129625000Y-98950000D03*
X128375000Y-98950000D03*
X127125000Y-98950000D03*
D38*
X132725000Y-102300000D03*
X125275000Y-102300000D03*
%TD*%
D39*
%TO.C,C24*%
X123310000Y-99100000D03*
X123310000Y-98140000D03*
%TD*%
D40*
%TO.C,Y1*%
X128703705Y-90297982D03*
X129903705Y-90297982D03*
X131103705Y-90297982D03*
%TD*%
D41*
%TO.C,IC5*%
X126743705Y-95993982D03*
X127543705Y-95993982D03*
X128343705Y-95993982D03*
X129143705Y-95993982D03*
X129943705Y-95993982D03*
X130743705Y-95993982D03*
D42*
X130841705Y-94895982D03*
D41*
X130743705Y-93797982D03*
X129943705Y-93797982D03*
X129143705Y-93797982D03*
X128343705Y-93797982D03*
X127543705Y-93797982D03*
X126743705Y-93797982D03*
D42*
X126645705Y-94895982D03*
%TD*%
D34*
%TO.C,R40*%
X120425000Y-80455000D03*
X120425000Y-81095000D03*
%TD*%
D43*
%TO.C,C31*%
X137854170Y-77950000D03*
X137039170Y-77950000D03*
%TD*%
D44*
%TO.C,D3*%
X122985000Y-69525000D03*
X125265000Y-69525000D03*
%TD*%
D45*
%TO.C,USBJUMP1*%
X132895000Y-74650000D03*
X132895000Y-70750000D03*
X134165000Y-74650000D03*
X134165000Y-70750000D03*
X135435000Y-74650000D03*
X135435000Y-70750000D03*
X136705000Y-74650000D03*
X136705000Y-70750000D03*
%TD*%
D46*
%TO.C,LED1*%
X140075000Y-89750000D03*
X138375000Y-89750000D03*
X138375000Y-88050000D03*
X140075000Y-88050000D03*
%TD*%
D47*
%TO.C,U1*%
X128900000Y-87600000D03*
X128900000Y-86800000D03*
X128900000Y-86000000D03*
X128900000Y-85200000D03*
X128900000Y-84400000D03*
X128900000Y-83600000D03*
X128900000Y-82800000D03*
X128900000Y-82000000D03*
X128900000Y-81200000D03*
X128900000Y-80400000D03*
X129700000Y-87600000D03*
X129700000Y-86800000D03*
X129700000Y-86000000D03*
X129700000Y-85200000D03*
X129700000Y-84400000D03*
X129700000Y-83600000D03*
X129700000Y-82800000D03*
X129700000Y-82000000D03*
X129700000Y-81200000D03*
X129700000Y-80400000D03*
X130500000Y-87600000D03*
X130500000Y-86800000D03*
X130500000Y-86000000D03*
X130500000Y-85200000D03*
X130500000Y-84400000D03*
X130500000Y-83600000D03*
X130500000Y-82800000D03*
X130500000Y-82000000D03*
X130500000Y-81200000D03*
X130500000Y-80400000D03*
X131300000Y-87600000D03*
X131300000Y-86800000D03*
X131300000Y-86000000D03*
X131300000Y-85200000D03*
X131300000Y-84400000D03*
X131300000Y-83600000D03*
X131300000Y-82800000D03*
X131300000Y-82000000D03*
X131300000Y-81200000D03*
X131300000Y-80400000D03*
X132100000Y-87600000D03*
X132100000Y-86800000D03*
X132100000Y-86000000D03*
X132100000Y-85200000D03*
X132100000Y-84400000D03*
X132100000Y-83600000D03*
X132100000Y-82800000D03*
X132100000Y-82000000D03*
X132100000Y-81200000D03*
X132100000Y-80400000D03*
X132900000Y-87600000D03*
X132900000Y-86800000D03*
X132900000Y-86000000D03*
X132900000Y-85200000D03*
X132900000Y-84400000D03*
X132900000Y-83600000D03*
X132900000Y-82800000D03*
X132900000Y-82000000D03*
X132900000Y-81200000D03*
X132900000Y-80400000D03*
X133700000Y-87600000D03*
X133700000Y-86800000D03*
X133700000Y-86000000D03*
X133700000Y-85200000D03*
X133700000Y-84400000D03*
X133700000Y-83600000D03*
X133700000Y-82800000D03*
X133700000Y-82000000D03*
X133700000Y-81200000D03*
X133700000Y-80400000D03*
X134500000Y-87600000D03*
X134500000Y-86800000D03*
X134500000Y-86000000D03*
X134500000Y-85200000D03*
X134500000Y-84400000D03*
X134500000Y-83600000D03*
X134500000Y-82800000D03*
X134500000Y-82000000D03*
X134500000Y-81200000D03*
X134500000Y-80400000D03*
X135300000Y-87600000D03*
X135300000Y-86800000D03*
X135300000Y-86000000D03*
X135300000Y-85200000D03*
X135300000Y-84400000D03*
X135300000Y-83600000D03*
X135300000Y-82800000D03*
X135300000Y-82000000D03*
X135300000Y-81200000D03*
X135300000Y-80400000D03*
X136100000Y-87600000D03*
X136100000Y-86800000D03*
X136100000Y-86000000D03*
X136100000Y-85200000D03*
X136100000Y-84400000D03*
X136100000Y-83600000D03*
X136100000Y-82800000D03*
X136100000Y-82000000D03*
X136100000Y-81200000D03*
X136100000Y-80400000D03*
%TD*%
D23*
%TO.C,R4*%
X136080000Y-77430000D03*
X135440000Y-77430000D03*
%TD*%
D21*
%TO.C,C1*%
X126270000Y-90030000D03*
X126270000Y-89390000D03*
%TD*%
D22*
%TO.C,R29*%
X119810000Y-79675000D03*
X120450000Y-79675000D03*
%TD*%
D25*
%TO.C,IC3*%
X123025000Y-92940000D03*
X122075000Y-92940000D03*
X121125000Y-92940000D03*
X121125000Y-95840000D03*
X122075000Y-95840000D03*
X123025000Y-95840000D03*
D48*
X122075000Y-94390000D03*
%TD*%
D49*
%TO.C,J4*%
X125350000Y-86475000D03*
X125350000Y-85375000D03*
X125350000Y-84275000D03*
X125350000Y-83175000D03*
X125350000Y-82075000D03*
X125350000Y-80975000D03*
X125350000Y-79875000D03*
X125350000Y-78775000D03*
D50*
X122870000Y-77625000D03*
D51*
X123625000Y-88100000D03*
D52*
X122375000Y-88325000D03*
D53*
X121400000Y-87400000D03*
%TD*%
D23*
%TO.C,C42*%
X133543705Y-95687982D03*
X132903705Y-95687982D03*
%TD*%
D44*
%TO.C,D2*%
X121940000Y-75800000D03*
X119660000Y-75800000D03*
%TD*%
D54*
%TO.C,C23*%
X120300000Y-74100000D03*
X118750000Y-74100000D03*
%TD*%
D34*
%TO.C,R30*%
X133600000Y-94255000D03*
X133600000Y-94895000D03*
%TD*%
D55*
%TO.C,C43*%
X134273705Y-97100000D03*
X135703705Y-97100000D03*
%TD*%
D21*
%TO.C,C5*%
X126890000Y-91760000D03*
X126890000Y-91120000D03*
%TD*%
D56*
%TO.C,C45*%
X137980000Y-97200000D03*
X137020000Y-97200000D03*
%TD*%
D57*
%TO.C,J2*%
X145727387Y-94712500D03*
X143172613Y-93237500D03*
D58*
X145212500Y-92654311D03*
%TD*%
D23*
%TO.C,C39*%
X139240000Y-87000000D03*
X138600000Y-87000000D03*
%TD*%
D36*
%TO.C,C27*%
X128350000Y-74800000D03*
X129900000Y-74800000D03*
%TD*%
D22*
%TO.C,R38*%
X119755000Y-83650000D03*
X120395000Y-83650000D03*
%TD*%
D34*
%TO.C,R22*%
X143150000Y-87780000D03*
X143150000Y-88420000D03*
%TD*%
D22*
%TO.C,C38*%
X141570000Y-90060000D03*
X142210000Y-90060000D03*
%TD*%
D54*
%TO.C,C21*%
X120300000Y-72600000D03*
X118750000Y-72600000D03*
%TD*%
D39*
%TO.C,C22*%
X119650000Y-92310000D03*
X119650000Y-91350000D03*
%TD*%
D23*
%TO.C,R3*%
X136070000Y-78527982D03*
X135430000Y-78527982D03*
%TD*%
D59*
%TO.C,IC2*%
X124650000Y-75000000D03*
X125300000Y-75000000D03*
X125950000Y-75000000D03*
X126600000Y-75000000D03*
X126600000Y-72900000D03*
X125950000Y-72900000D03*
X125300000Y-72900000D03*
X124650000Y-72900000D03*
D60*
X125625000Y-73950000D03*
%TD*%
D61*
%TO.C,C67*%
X141392500Y-77650000D03*
X142207500Y-77650000D03*
%TD*%
D34*
%TO.C,R20*%
X124800000Y-71200000D03*
X124800000Y-71840000D03*
%TD*%
D62*
%TO.C,C62*%
X144232500Y-87700000D03*
X145367500Y-87700000D03*
%TD*%
D61*
%TO.C,C65*%
X144185000Y-86850000D03*
X145000000Y-86850000D03*
%TD*%
D23*
%TO.C,R45*%
X110370000Y-87400000D03*
X109730000Y-87400000D03*
%TD*%
D63*
%TO.C,J6*%
X116620000Y-79550000D03*
X116620000Y-80350000D03*
X116620000Y-81150000D03*
X116620000Y-81950000D03*
X116620000Y-82750000D03*
X116620000Y-83550000D03*
X116620000Y-84350000D03*
X116620000Y-85150000D03*
D64*
X114700000Y-78300000D03*
X114700000Y-86400000D03*
%TD*%
D22*
%TO.C,C40*%
X141620000Y-87310000D03*
X142260000Y-87310000D03*
%TD*%
D34*
%TO.C,R25*%
X124603705Y-94027982D03*
X124603705Y-94667982D03*
%TD*%
D65*
%TO.C,TOF3*%
X114248756Y-76648798D03*
X114873756Y-75566266D03*
X115498756Y-74483734D03*
X116123756Y-73401202D03*
D66*
X110422571Y-76575945D03*
X114147571Y-70124055D03*
%TD*%
D33*
%TO.C,LEDBLUE1*%
X133640000Y-77407982D03*
X134610000Y-77407982D03*
%TD*%
D21*
%TO.C,C26*%
X123400000Y-71840000D03*
X123400000Y-71200000D03*
%TD*%
D67*
%TO.C,LIDAR1*%
X115929955Y-93246780D03*
X115304955Y-92164248D03*
X114679955Y-91081716D03*
X114054955Y-89999184D03*
D68*
X113953769Y-96523927D03*
X110228769Y-90072037D03*
%TD*%
D69*
%TO.C,C70*%
X146008531Y-91266250D03*
X146991469Y-91833750D03*
%TD*%
D22*
%TO.C,R10*%
X131180000Y-71600000D03*
X131820000Y-71600000D03*
%TD*%
D23*
%TO.C,C29*%
X119720000Y-82900000D03*
X119080000Y-82900000D03*
%TD*%
D70*
%TO.C,L5*%
X147543750Y-88668005D03*
X146756250Y-90031995D03*
%TD*%
D71*
%TO.C,R24*%
X108327872Y-77031340D03*
X108882128Y-77351340D03*
%TD*%
D72*
%TO.C,LEDRED1*%
X130591205Y-78467982D03*
X129621205Y-78467982D03*
%TD*%
D69*
%TO.C,C69*%
X148308531Y-87516250D03*
X149291469Y-88083750D03*
%TD*%
D22*
%TO.C,R9*%
X131180000Y-70300000D03*
X131820000Y-70300000D03*
%TD*%
D73*
%TO.C,TOF1*%
X141876244Y-73401202D03*
X142501244Y-74483734D03*
X143126244Y-75566266D03*
X143751244Y-76648798D03*
D74*
X143852429Y-70124055D03*
X147577429Y-76575945D03*
%TD*%
D34*
%TO.C,R19*%
X124100000Y-71200000D03*
X124100000Y-71840000D03*
%TD*%
D21*
%TO.C,R2*%
X125540000Y-90020000D03*
X125540000Y-89380000D03*
%TD*%
D75*
%TO.C,J1*%
X131890000Y-66505000D03*
X126110000Y-66505000D03*
D76*
X132200000Y-67580000D03*
X131400000Y-67580000D03*
D77*
X130250000Y-67580000D03*
X129250000Y-67580000D03*
X128750000Y-67580000D03*
X127750000Y-67580000D03*
D76*
X126600000Y-67580000D03*
X125800000Y-67580000D03*
X125800000Y-67580000D03*
X126600000Y-67580000D03*
D77*
X127250000Y-67580000D03*
X128250000Y-67580000D03*
X129750000Y-67580000D03*
X130750000Y-67580000D03*
D76*
X131400000Y-67580000D03*
X132200000Y-67580000D03*
D78*
X134110000Y-67005000D03*
X134110000Y-63075000D03*
X123890000Y-67005000D03*
X123890000Y-63075000D03*
%TD*%
D23*
%TO.C,R33*%
X149490000Y-77300000D03*
X148850000Y-77300000D03*
%TD*%
D79*
%TO.C,LEDRED2*%
X119640000Y-93375000D03*
X119640000Y-94345000D03*
%TD*%
M02*
