%TF.GenerationSoftware,KiCad,Pcbnew,9.0.5*%
%TF.CreationDate,2025-10-20T13:37:52+02:00*%
%TF.ProjectId,PCB_PAPI,5043425f-5041-4504-992e-6b696361645f,rev?*%
%TF.SameCoordinates,Original*%
%TF.FileFunction,Legend,Bot*%
%TF.FilePolarity,Positive*%
%FSLAX46Y46*%
G04 Gerber Fmt 4.6, Leading zero omitted, Abs format (unit mm)*
G04 Created by KiCad (PCBNEW 9.0.5) date 2025-10-20 13:37:52*
%MOMM*%
%LPD*%
G01*
G04 APERTURE LIST*
%ADD10C,0.300000*%
%ADD11C,0.200000*%
%ADD12C,0.125000*%
%ADD13C,0.250000*%
%ADD14C,0.120000*%
%ADD15C,0.000000*%
%ADD16C,0.100000*%
G04 APERTURE END LIST*
D10*
X121300000Y-84900000D02*
X122400000Y-84900000D01*
X121300000Y-77600000D02*
X121300000Y-84900000D01*
X127500000Y-74200000D02*
X123100000Y-74200000D01*
X123100000Y-77600000D02*
X121300000Y-77600000D01*
X128100000Y-74200000D02*
X134300000Y-74200000D01*
D11*
X120408682Y-100028682D02*
G75*
G02*
X117071318Y-100028682I-1668682J0D01*
G01*
X117071318Y-100028682D02*
G75*
G02*
X120408682Y-100028682I1668682J0D01*
G01*
D10*
X128100000Y-74200000D02*
X127500000Y-74200000D01*
X134300000Y-80400000D02*
X128100000Y-80400000D01*
D11*
X120310000Y-66170000D02*
G75*
G02*
X116972636Y-66170000I-1668682J0D01*
G01*
X116972636Y-66170000D02*
G75*
G02*
X120310000Y-66170000I1668682J0D01*
G01*
D10*
X128100000Y-87900000D02*
X128100000Y-74200000D01*
X134300000Y-74200000D02*
X134300000Y-80400000D01*
X122400000Y-84900000D02*
X122400000Y-87900000D01*
X122400000Y-87900000D02*
X128100000Y-87900000D01*
X123100000Y-74200000D02*
X123100000Y-77600000D01*
D12*
G36*
X137462170Y-82347485D02*
G01*
X137471636Y-82356951D01*
X137487840Y-82389359D01*
X137508120Y-82470478D01*
X137508120Y-82574139D01*
X137487840Y-82655258D01*
X137471635Y-82687667D01*
X137462170Y-82697133D01*
X137436819Y-82709809D01*
X137418708Y-82709809D01*
X137393356Y-82697133D01*
X137383892Y-82687669D01*
X137367686Y-82655257D01*
X137347406Y-82574137D01*
X137347406Y-82470480D01*
X137367686Y-82389360D01*
X137383891Y-82356949D01*
X137393357Y-82347484D01*
X137418707Y-82334809D01*
X137436819Y-82334809D01*
X137462170Y-82347485D01*
G37*
G36*
X137985980Y-82347485D02*
G01*
X138014185Y-82375690D01*
X138031930Y-82446669D01*
X138031930Y-82597948D01*
X138014185Y-82668926D01*
X137985978Y-82697134D01*
X137960629Y-82709809D01*
X137894899Y-82709809D01*
X137869550Y-82697134D01*
X137841342Y-82668926D01*
X137823597Y-82597946D01*
X137823597Y-82446671D01*
X137841342Y-82375690D01*
X137869549Y-82347483D01*
X137894898Y-82334809D01*
X137960629Y-82334809D01*
X137985980Y-82347485D01*
G37*
G36*
X138746216Y-82471714D02*
G01*
X138632993Y-82471714D01*
X138607643Y-82459038D01*
X138598177Y-82449573D01*
X138585502Y-82424222D01*
X138585502Y-82382301D01*
X138598177Y-82356949D01*
X138607643Y-82347484D01*
X138632993Y-82334809D01*
X138746216Y-82334809D01*
X138746216Y-82471714D01*
G37*
G36*
X139457525Y-82897309D02*
G01*
X137159906Y-82897309D01*
X137159906Y-82462785D01*
X137222406Y-82462785D01*
X137222406Y-82581833D01*
X137223899Y-82589342D01*
X137224272Y-82596992D01*
X137248082Y-82692230D01*
X137251006Y-82698419D01*
X137252814Y-82705021D01*
X137276623Y-82752640D01*
X137282766Y-82760555D01*
X137288331Y-82768884D01*
X137312141Y-82792694D01*
X137320467Y-82798257D01*
X137328385Y-82804402D01*
X137376003Y-82828211D01*
X137379022Y-82829037D01*
X137380036Y-82830051D01*
X137389863Y-82832005D01*
X137399524Y-82834651D01*
X137400882Y-82834198D01*
X137403954Y-82834809D01*
X137451573Y-82834809D01*
X137454642Y-82834198D01*
X137456003Y-82834652D01*
X137465669Y-82832004D01*
X137475491Y-82830051D01*
X137476504Y-82829037D01*
X137479523Y-82828211D01*
X137527142Y-82804402D01*
X137535056Y-82798259D01*
X137543387Y-82792693D01*
X137567196Y-82768883D01*
X137572763Y-82760549D01*
X137578902Y-82752641D01*
X137602713Y-82705022D01*
X137604521Y-82698417D01*
X137607445Y-82692229D01*
X137631254Y-82596991D01*
X137631626Y-82589342D01*
X137633120Y-82581833D01*
X137633120Y-82462785D01*
X137631626Y-82455275D01*
X137631254Y-82447627D01*
X137629091Y-82438976D01*
X137698597Y-82438976D01*
X137698597Y-82605642D01*
X137700090Y-82613151D01*
X137700463Y-82620801D01*
X137724273Y-82716039D01*
X137727164Y-82722158D01*
X137727164Y-82724797D01*
X137731420Y-82731167D01*
X137734690Y-82738088D01*
X137736950Y-82739444D01*
X137740712Y-82745074D01*
X137788331Y-82792694D01*
X137796664Y-82798261D01*
X137804576Y-82804402D01*
X137852194Y-82828211D01*
X137855213Y-82829037D01*
X137856227Y-82830051D01*
X137866054Y-82832005D01*
X137875715Y-82834651D01*
X137877073Y-82834198D01*
X137880145Y-82834809D01*
X137975383Y-82834809D01*
X137978452Y-82834198D01*
X137979813Y-82834652D01*
X137989479Y-82832004D01*
X137999301Y-82830051D01*
X138000314Y-82829037D01*
X138003333Y-82828211D01*
X138050952Y-82804402D01*
X138058860Y-82798263D01*
X138067197Y-82792694D01*
X138114816Y-82745074D01*
X138118576Y-82739444D01*
X138120838Y-82738088D01*
X138124108Y-82731164D01*
X138128363Y-82724797D01*
X138128363Y-82722159D01*
X138131255Y-82716038D01*
X138155064Y-82620800D01*
X138155436Y-82613151D01*
X138156930Y-82605642D01*
X138156930Y-82438976D01*
X138155436Y-82431466D01*
X138155064Y-82423818D01*
X138131255Y-82328580D01*
X138128363Y-82322458D01*
X138128363Y-82319821D01*
X138124109Y-82313454D01*
X138120838Y-82306530D01*
X138118575Y-82305172D01*
X138114815Y-82299544D01*
X138087580Y-82272309D01*
X138246216Y-82272309D01*
X138246216Y-82772309D01*
X138250974Y-82796227D01*
X138284798Y-82830051D01*
X138332634Y-82830051D01*
X138366458Y-82796227D01*
X138371216Y-82772309D01*
X138371216Y-82367547D01*
X138460502Y-82367547D01*
X138460502Y-82438976D01*
X138461112Y-82442045D01*
X138460659Y-82443406D01*
X138463306Y-82453072D01*
X138465260Y-82462894D01*
X138466273Y-82463907D01*
X138467100Y-82466926D01*
X138490909Y-82514545D01*
X138497051Y-82522459D01*
X138502618Y-82530790D01*
X138526428Y-82554599D01*
X138534761Y-82560166D01*
X138542670Y-82566305D01*
X138590289Y-82590116D01*
X138593308Y-82590942D01*
X138594322Y-82591956D01*
X138604147Y-82593910D01*
X138613809Y-82596556D01*
X138615168Y-82596102D01*
X138618240Y-82596714D01*
X138746216Y-82596714D01*
X138746216Y-82772309D01*
X138750974Y-82796227D01*
X138784798Y-82830051D01*
X138832634Y-82830051D01*
X138866458Y-82796227D01*
X138871216Y-82772309D01*
X138871216Y-82558023D01*
X138960502Y-82558023D01*
X138960502Y-82724690D01*
X138965259Y-82748602D01*
X138965259Y-82748606D01*
X138978807Y-82768883D01*
X139002616Y-82792693D01*
X139005219Y-82794432D01*
X139005861Y-82795716D01*
X139014569Y-82800680D01*
X139022893Y-82806242D01*
X139024326Y-82806242D01*
X139027047Y-82807793D01*
X139098477Y-82831602D01*
X139108418Y-82832855D01*
X139118240Y-82834809D01*
X139165859Y-82834809D01*
X139175684Y-82832854D01*
X139185623Y-82831602D01*
X139257051Y-82807793D01*
X139259771Y-82806242D01*
X139261205Y-82806242D01*
X139269538Y-82800673D01*
X139278237Y-82795715D01*
X139278877Y-82794434D01*
X139281482Y-82792694D01*
X139329101Y-82745074D01*
X139334670Y-82736737D01*
X139340807Y-82728831D01*
X139364618Y-82681212D01*
X139366426Y-82674607D01*
X139369350Y-82668419D01*
X139393159Y-82573181D01*
X139393531Y-82565532D01*
X139395025Y-82558023D01*
X139395025Y-82486595D01*
X139393531Y-82479085D01*
X139393159Y-82471437D01*
X139369350Y-82376199D01*
X139366426Y-82370010D01*
X139364618Y-82363406D01*
X139340807Y-82315787D01*
X139334666Y-82307875D01*
X139329100Y-82299544D01*
X139281481Y-82251925D01*
X139278879Y-82250186D01*
X139278238Y-82248904D01*
X139269526Y-82243937D01*
X139261204Y-82238377D01*
X139259773Y-82238377D01*
X139257052Y-82236826D01*
X139185624Y-82213016D01*
X139175682Y-82211763D01*
X139165859Y-82209809D01*
X139094430Y-82209809D01*
X139091358Y-82210420D01*
X139089999Y-82209967D01*
X139080337Y-82212612D01*
X139070512Y-82214567D01*
X139069498Y-82215580D01*
X139066479Y-82216407D01*
X139018860Y-82240218D01*
X138999595Y-82255170D01*
X138984469Y-82300550D01*
X139005862Y-82343335D01*
X139051242Y-82358461D01*
X139074762Y-82352020D01*
X139109183Y-82334809D01*
X139155715Y-82334809D01*
X139203526Y-82350746D01*
X139233541Y-82380761D01*
X139249745Y-82413169D01*
X139270025Y-82494288D01*
X139270025Y-82550329D01*
X139249745Y-82631448D01*
X139233542Y-82663855D01*
X139203524Y-82693873D01*
X139155716Y-82709809D01*
X139128383Y-82709809D01*
X139085502Y-82695515D01*
X139085502Y-82620523D01*
X139118240Y-82620523D01*
X139142158Y-82615765D01*
X139175982Y-82581941D01*
X139175982Y-82534105D01*
X139142158Y-82500281D01*
X139118240Y-82495523D01*
X139023002Y-82495523D01*
X138999084Y-82500281D01*
X138965260Y-82534105D01*
X138960502Y-82558023D01*
X138871216Y-82558023D01*
X138871216Y-82272309D01*
X138866458Y-82248391D01*
X138832634Y-82214567D01*
X138808716Y-82209809D01*
X138618240Y-82209809D01*
X138615168Y-82210420D01*
X138613809Y-82209967D01*
X138604147Y-82212612D01*
X138594322Y-82214567D01*
X138593308Y-82215580D01*
X138590289Y-82216407D01*
X138542670Y-82240218D01*
X138534761Y-82246356D01*
X138526428Y-82251924D01*
X138502618Y-82275733D01*
X138497051Y-82284063D01*
X138490909Y-82291978D01*
X138467100Y-82339597D01*
X138466273Y-82342615D01*
X138465260Y-82343629D01*
X138463306Y-82353450D01*
X138460659Y-82363117D01*
X138461112Y-82364477D01*
X138460502Y-82367547D01*
X138371216Y-82367547D01*
X138371216Y-82272309D01*
X138366458Y-82248391D01*
X138332634Y-82214567D01*
X138284798Y-82214567D01*
X138250974Y-82248391D01*
X138246216Y-82272309D01*
X138087580Y-82272309D01*
X138067196Y-82251925D01*
X138058864Y-82246358D01*
X138050953Y-82240218D01*
X138003334Y-82216408D01*
X138000315Y-82215581D01*
X137999301Y-82214567D01*
X137989470Y-82212611D01*
X137979814Y-82209967D01*
X137978454Y-82210420D01*
X137975383Y-82209809D01*
X137880145Y-82209809D01*
X137877073Y-82210420D01*
X137875714Y-82209967D01*
X137866052Y-82212612D01*
X137856227Y-82214567D01*
X137855213Y-82215580D01*
X137852194Y-82216407D01*
X137804575Y-82240218D01*
X137796663Y-82246358D01*
X137788332Y-82251925D01*
X137740713Y-82299544D01*
X137736952Y-82305172D01*
X137734690Y-82306530D01*
X137731418Y-82313455D01*
X137727165Y-82319821D01*
X137727165Y-82322457D01*
X137724273Y-82328579D01*
X137700463Y-82423817D01*
X137700090Y-82431466D01*
X137698597Y-82438976D01*
X137629091Y-82438976D01*
X137607445Y-82352389D01*
X137604521Y-82346200D01*
X137602713Y-82339596D01*
X137578902Y-82291977D01*
X137572761Y-82284065D01*
X137567195Y-82275734D01*
X137543386Y-82251925D01*
X137535054Y-82246358D01*
X137527143Y-82240218D01*
X137479524Y-82216408D01*
X137476505Y-82215581D01*
X137475491Y-82214567D01*
X137465660Y-82212611D01*
X137456004Y-82209967D01*
X137454644Y-82210420D01*
X137451573Y-82209809D01*
X137403954Y-82209809D01*
X137400882Y-82210420D01*
X137399523Y-82209967D01*
X137389861Y-82212612D01*
X137380036Y-82214567D01*
X137379022Y-82215580D01*
X137376003Y-82216407D01*
X137328384Y-82240218D01*
X137320475Y-82246356D01*
X137312142Y-82251924D01*
X137288332Y-82275733D01*
X137282765Y-82284063D01*
X137276623Y-82291978D01*
X137252814Y-82339597D01*
X137251006Y-82346198D01*
X137248082Y-82352388D01*
X137224272Y-82447626D01*
X137223899Y-82455275D01*
X137222406Y-82462785D01*
X137159906Y-82462785D01*
X137159906Y-82147309D01*
X139457525Y-82147309D01*
X139457525Y-82897309D01*
G37*
G36*
X142098593Y-76492690D02*
G01*
X142100291Y-76520984D01*
X142096827Y-76533912D01*
X142081208Y-76557567D01*
X142044905Y-76578526D01*
X142016611Y-76580224D01*
X142003684Y-76576760D01*
X141980030Y-76561142D01*
X141923418Y-76463089D01*
X142041981Y-76394637D01*
X142098593Y-76492690D01*
G37*
G36*
X141986366Y-75847468D02*
G01*
X142010018Y-75863085D01*
X142042884Y-75920010D01*
X142044582Y-75948303D01*
X142034258Y-75986831D01*
X141981661Y-76037688D01*
X141850652Y-76113328D01*
X141780308Y-76133451D01*
X141741777Y-76123126D01*
X141718124Y-76107509D01*
X141685260Y-76050588D01*
X141683562Y-76022294D01*
X141693885Y-75983763D01*
X141746482Y-75932907D01*
X141877495Y-75857267D01*
X141947836Y-75837145D01*
X141986366Y-75847468D01*
G37*
G36*
X141533984Y-75063922D02*
G01*
X141557637Y-75079539D01*
X141590503Y-75136463D01*
X141592201Y-75164757D01*
X141581877Y-75203285D01*
X141529280Y-75254141D01*
X141398271Y-75329781D01*
X141327927Y-75349904D01*
X141289396Y-75339579D01*
X141265743Y-75323962D01*
X141232879Y-75267041D01*
X141231181Y-75238747D01*
X141241504Y-75200217D01*
X141294099Y-75149362D01*
X141425114Y-75073720D01*
X141495456Y-75053598D01*
X141533984Y-75063922D01*
G37*
G36*
X142820382Y-76891675D02*
G01*
X142170862Y-77266675D01*
X142000830Y-76972171D01*
X142085204Y-76972171D01*
X142087266Y-76978266D01*
X142085601Y-76984481D01*
X142094700Y-77000241D01*
X142100533Y-77017483D01*
X142106300Y-77020335D01*
X142109519Y-77025909D01*
X142127100Y-77030619D01*
X142143413Y-77038686D01*
X142149508Y-77036623D01*
X142155723Y-77038289D01*
X142178816Y-77030451D01*
X142557702Y-76811700D01*
X142597882Y-76881292D01*
X142613961Y-76899627D01*
X142660166Y-76912007D01*
X142701593Y-76888089D01*
X142713973Y-76841885D01*
X142706135Y-76818792D01*
X142563277Y-76571356D01*
X142547197Y-76553021D01*
X142500992Y-76540641D01*
X142459565Y-76564559D01*
X142447185Y-76610764D01*
X142455023Y-76633856D01*
X142495202Y-76703447D01*
X142264609Y-76836580D01*
X142265433Y-76830579D01*
X142262244Y-76777434D01*
X142256062Y-76753844D01*
X142220272Y-76722107D01*
X142172522Y-76724972D01*
X142140785Y-76760762D01*
X142137468Y-76784922D01*
X142140049Y-76827942D01*
X142126846Y-76877220D01*
X142091541Y-76948622D01*
X142085204Y-76972171D01*
X142000830Y-76972171D01*
X141698414Y-76448371D01*
X141776077Y-76448371D01*
X141783916Y-76471463D01*
X141879154Y-76636420D01*
X141881218Y-76638774D01*
X141881506Y-76640177D01*
X141888626Y-76647220D01*
X141895234Y-76654754D01*
X141896617Y-76655124D01*
X141898844Y-76657327D01*
X141943273Y-76686662D01*
X141952550Y-76690445D01*
X141961533Y-76694875D01*
X141994057Y-76703590D01*
X142004052Y-76704245D01*
X142013979Y-76705608D01*
X142067123Y-76702418D01*
X142070151Y-76701624D01*
X142071535Y-76701995D01*
X142081021Y-76698775D01*
X142090713Y-76696235D01*
X142091663Y-76695163D01*
X142094628Y-76694157D01*
X142156486Y-76658443D01*
X142158839Y-76656378D01*
X142160245Y-76656091D01*
X142167294Y-76648963D01*
X142174821Y-76642363D01*
X142175191Y-76640979D01*
X142177394Y-76638753D01*
X142206729Y-76594323D01*
X142210511Y-76585047D01*
X142214942Y-76576063D01*
X142223657Y-76543539D01*
X142224312Y-76533544D01*
X142225675Y-76523617D01*
X142223281Y-76483735D01*
X142408473Y-76499912D01*
X142432714Y-76497253D01*
X142469353Y-76466501D01*
X142473516Y-76418846D01*
X142442763Y-76382207D01*
X142419350Y-76375386D01*
X142162239Y-76352927D01*
X142150235Y-76332137D01*
X142302305Y-76244340D01*
X142320639Y-76228260D01*
X142333020Y-76182056D01*
X142309102Y-76140629D01*
X142262897Y-76128248D01*
X142239805Y-76136087D01*
X141806792Y-76386086D01*
X141788457Y-76402166D01*
X141776476Y-76446883D01*
X141776077Y-76448371D01*
X141698414Y-76448371D01*
X141450897Y-76019659D01*
X141558179Y-76019659D01*
X141561368Y-76072803D01*
X141562161Y-76075832D01*
X141561791Y-76077217D01*
X141565008Y-76086695D01*
X141567550Y-76096393D01*
X141568623Y-76097345D01*
X141569630Y-76100309D01*
X141617250Y-76182788D01*
X141619313Y-76185141D01*
X141619601Y-76186546D01*
X141626724Y-76193591D01*
X141633329Y-76201123D01*
X141634713Y-76201494D01*
X141636939Y-76203695D01*
X141681368Y-76233029D01*
X141690646Y-76236812D01*
X141699629Y-76241242D01*
X141764678Y-76258672D01*
X141771432Y-76259114D01*
X141773739Y-76260395D01*
X141781369Y-76259766D01*
X141789012Y-76260267D01*
X141791296Y-76258948D01*
X141798043Y-76258392D01*
X141892426Y-76231393D01*
X141899237Y-76227889D01*
X141906487Y-76225429D01*
X142050825Y-76142095D01*
X142056582Y-76137045D01*
X142063019Y-76132900D01*
X142133592Y-76064662D01*
X142137447Y-76059097D01*
X142139732Y-76057778D01*
X142143119Y-76050909D01*
X142147480Y-76044615D01*
X142147524Y-76041977D01*
X142150518Y-76035907D01*
X142167948Y-75970858D01*
X142168602Y-75960865D01*
X142169966Y-75950937D01*
X142166776Y-75897793D01*
X142165982Y-75894764D01*
X142166353Y-75893380D01*
X142163133Y-75883896D01*
X142160593Y-75874203D01*
X142159520Y-75873251D01*
X142158514Y-75870288D01*
X142110896Y-75787809D01*
X142108832Y-75785455D01*
X142108545Y-75784052D01*
X142101423Y-75777008D01*
X142094816Y-75769474D01*
X142093431Y-75769102D01*
X142091206Y-75766902D01*
X142046777Y-75737567D01*
X142037502Y-75733784D01*
X142028515Y-75729353D01*
X141963466Y-75711924D01*
X141956710Y-75711481D01*
X141954406Y-75710202D01*
X141946776Y-75710830D01*
X141939132Y-75710330D01*
X141936847Y-75711649D01*
X141930102Y-75712205D01*
X141835719Y-75739204D01*
X141828910Y-75742705D01*
X141821658Y-75745167D01*
X141677320Y-75828500D01*
X141671562Y-75833549D01*
X141665125Y-75837696D01*
X141594551Y-75905935D01*
X141590695Y-75911499D01*
X141588411Y-75912819D01*
X141585023Y-75919687D01*
X141580664Y-75925981D01*
X141580619Y-75928618D01*
X141577625Y-75934691D01*
X141560196Y-75999740D01*
X141559541Y-76009738D01*
X141558179Y-76019659D01*
X141450897Y-76019659D01*
X141210318Y-75602964D01*
X141287982Y-75602964D01*
X141295820Y-75626057D01*
X141438677Y-75873493D01*
X141454757Y-75891827D01*
X141500961Y-75904208D01*
X141542388Y-75880290D01*
X141554769Y-75834085D01*
X141546930Y-75810993D01*
X141506752Y-75741402D01*
X141885638Y-75522652D01*
X141903972Y-75506572D01*
X141916353Y-75460368D01*
X141892435Y-75418941D01*
X141846230Y-75406560D01*
X141823138Y-75414399D01*
X141444252Y-75633148D01*
X141404074Y-75563557D01*
X141387994Y-75545222D01*
X141341790Y-75532842D01*
X141300362Y-75556760D01*
X141287982Y-75602964D01*
X141210318Y-75602964D01*
X140998516Y-75236112D01*
X141105798Y-75236112D01*
X141108987Y-75289256D01*
X141109780Y-75292285D01*
X141109410Y-75293670D01*
X141112627Y-75303148D01*
X141115169Y-75312846D01*
X141116242Y-75313798D01*
X141117249Y-75316762D01*
X141164869Y-75399241D01*
X141166932Y-75401594D01*
X141167220Y-75402999D01*
X141174343Y-75410044D01*
X141180948Y-75417576D01*
X141182332Y-75417947D01*
X141184558Y-75420148D01*
X141228987Y-75449482D01*
X141238265Y-75453265D01*
X141247248Y-75457695D01*
X141312297Y-75475125D01*
X141319051Y-75475567D01*
X141321358Y-75476848D01*
X141328988Y-75476219D01*
X141336631Y-75476720D01*
X141338915Y-75475401D01*
X141345662Y-75474845D01*
X141440045Y-75447846D01*
X141446856Y-75444342D01*
X141454106Y-75441882D01*
X141598444Y-75358548D01*
X141604199Y-75353499D01*
X141610637Y-75349354D01*
X141681211Y-75281115D01*
X141685065Y-75275551D01*
X141687351Y-75274232D01*
X141690738Y-75267363D01*
X141695099Y-75261069D01*
X141695143Y-75258430D01*
X141698137Y-75252360D01*
X141715567Y-75187311D01*
X141716221Y-75177318D01*
X141717585Y-75167390D01*
X141714395Y-75114246D01*
X141713601Y-75111217D01*
X141713972Y-75109833D01*
X141710752Y-75100349D01*
X141708212Y-75090656D01*
X141707139Y-75089704D01*
X141706133Y-75086741D01*
X141658515Y-75004262D01*
X141656450Y-75001907D01*
X141656163Y-75000504D01*
X141649045Y-74993464D01*
X141642435Y-74985927D01*
X141641049Y-74985555D01*
X141638824Y-74983355D01*
X141594396Y-74954021D01*
X141585120Y-74950238D01*
X141576136Y-74945808D01*
X141511086Y-74928378D01*
X141504331Y-74927935D01*
X141502025Y-74926655D01*
X141494394Y-74927283D01*
X141486752Y-74926783D01*
X141484467Y-74928101D01*
X141477721Y-74928658D01*
X141383338Y-74955657D01*
X141376526Y-74959160D01*
X141369277Y-74961621D01*
X141224939Y-75044954D01*
X141219181Y-75050003D01*
X141212745Y-75054149D01*
X141142171Y-75122387D01*
X141138315Y-75127952D01*
X141136030Y-75129272D01*
X141132642Y-75136141D01*
X141128283Y-75142434D01*
X141128238Y-75145071D01*
X141125244Y-75151144D01*
X141107815Y-75216193D01*
X141107160Y-75226191D01*
X141105798Y-75236112D01*
X140998516Y-75236112D01*
X140698413Y-74716318D01*
X140776077Y-74716318D01*
X140781631Y-74725938D01*
X140782596Y-74737004D01*
X140793122Y-74745841D01*
X140799995Y-74757746D01*
X140810724Y-74760620D01*
X140819230Y-74767762D01*
X140843471Y-74770425D01*
X141102676Y-74747825D01*
X140953501Y-74961004D01*
X140943687Y-74983328D01*
X140945618Y-74994264D01*
X140942744Y-75004994D01*
X140949616Y-75016897D01*
X140952007Y-75030433D01*
X140961107Y-75036801D01*
X140966662Y-75046422D01*
X140979940Y-75049979D01*
X140991200Y-75057859D01*
X141002136Y-75055927D01*
X141012866Y-75058802D01*
X141035959Y-75050964D01*
X141468971Y-74800964D01*
X141487305Y-74784884D01*
X141499686Y-74738680D01*
X141475768Y-74697253D01*
X141429563Y-74684872D01*
X141406471Y-74692711D01*
X141217437Y-74801849D01*
X141281877Y-74709762D01*
X141288358Y-74695018D01*
X141290272Y-74692740D01*
X141290121Y-74691009D01*
X141291692Y-74687437D01*
X141287974Y-74666390D01*
X141286117Y-74645085D01*
X141283879Y-74643206D01*
X141283372Y-74640332D01*
X141265863Y-74628080D01*
X141249483Y-74614327D01*
X141245600Y-74613900D01*
X141244179Y-74612906D01*
X141241252Y-74613422D01*
X141225242Y-74611664D01*
X141113271Y-74621426D01*
X141302305Y-74512288D01*
X141320639Y-74496208D01*
X141333020Y-74450004D01*
X141309102Y-74408577D01*
X141262897Y-74396196D01*
X141239805Y-74404035D01*
X140806792Y-74654034D01*
X140788457Y-74670114D01*
X140785582Y-74680843D01*
X140778441Y-74689349D01*
X140779634Y-74703040D01*
X140776077Y-74716318D01*
X140698413Y-74716318D01*
X140667288Y-74662408D01*
X141316808Y-74287407D01*
X142820382Y-76891675D01*
G37*
G36*
X142356439Y-90017269D02*
G01*
X142324105Y-90073272D01*
X142256267Y-89996770D01*
X142356439Y-90017269D01*
G37*
G36*
X142772125Y-89957996D02*
G01*
X141993036Y-91307417D01*
X141343653Y-90932495D01*
X141381154Y-90867541D01*
X141454514Y-90867541D01*
X141457593Y-90915278D01*
X141493524Y-90946855D01*
X141517698Y-90950063D01*
X141775956Y-90933407D01*
X141890662Y-91165395D01*
X141905529Y-91184726D01*
X141950840Y-91200055D01*
X141993721Y-91178852D01*
X142009050Y-91133540D01*
X142002714Y-91109991D01*
X141911093Y-90924691D01*
X142117378Y-90911388D01*
X142140940Y-90905101D01*
X142172517Y-90869170D01*
X142169438Y-90821433D01*
X142133507Y-90789856D01*
X142109333Y-90786648D01*
X141851073Y-90803303D01*
X141736368Y-90571316D01*
X141721501Y-90551985D01*
X141676190Y-90536656D01*
X141633309Y-90557859D01*
X141617980Y-90603170D01*
X141624316Y-90626720D01*
X141715936Y-90812019D01*
X141509654Y-90825323D01*
X141486091Y-90831610D01*
X141454514Y-90867541D01*
X141381154Y-90867541D01*
X141636134Y-90425903D01*
X141713616Y-90425903D01*
X141725996Y-90472107D01*
X141744331Y-90488187D01*
X142094865Y-90690568D01*
X142097829Y-90691574D01*
X142098780Y-90692646D01*
X142108471Y-90695186D01*
X142117958Y-90698406D01*
X142119341Y-90698035D01*
X142122370Y-90698829D01*
X142175514Y-90702019D01*
X142185441Y-90700656D01*
X142195436Y-90700001D01*
X142227959Y-90691286D01*
X142236941Y-90686856D01*
X142246220Y-90683073D01*
X142290648Y-90653739D01*
X142292873Y-90651538D01*
X142294259Y-90651167D01*
X142300869Y-90643629D01*
X142307987Y-90636590D01*
X142308274Y-90635186D01*
X142310339Y-90632832D01*
X142357957Y-90550353D01*
X142358963Y-90547389D01*
X142360036Y-90546438D01*
X142362576Y-90536744D01*
X142365796Y-90527261D01*
X142365425Y-90525876D01*
X142366219Y-90522848D01*
X142369409Y-90469704D01*
X142368045Y-90459775D01*
X142367391Y-90449783D01*
X142358676Y-90417258D01*
X142354246Y-90408275D01*
X142350463Y-90398997D01*
X142321129Y-90354568D01*
X142318928Y-90352342D01*
X142318557Y-90350958D01*
X142311022Y-90344350D01*
X142303980Y-90337230D01*
X142302576Y-90336942D01*
X142300222Y-90334878D01*
X141949688Y-90132497D01*
X141926595Y-90124659D01*
X141880391Y-90137039D01*
X141856473Y-90178467D01*
X141868853Y-90224671D01*
X141887188Y-90240751D01*
X142224944Y-90435755D01*
X142240560Y-90459406D01*
X142244025Y-90472336D01*
X142242327Y-90500630D01*
X142209461Y-90557554D01*
X142185809Y-90573171D01*
X142172880Y-90576635D01*
X142144587Y-90574937D01*
X141806831Y-90379933D01*
X141783738Y-90372095D01*
X141737534Y-90384475D01*
X141713616Y-90425903D01*
X141636134Y-90425903D01*
X141934102Y-89909806D01*
X142023739Y-89909806D01*
X142026311Y-89913702D01*
X142026032Y-89918365D01*
X142038341Y-89939417D01*
X142388021Y-90333754D01*
X142407450Y-90348492D01*
X142455198Y-90351358D01*
X142490989Y-90319621D01*
X142493855Y-90271872D01*
X142481546Y-90250820D01*
X142411525Y-90171857D01*
X142485526Y-90043685D01*
X142588920Y-90064843D01*
X142613306Y-90064977D01*
X142653224Y-90038620D01*
X142662815Y-89991756D01*
X142636458Y-89951837D01*
X142613980Y-89942381D01*
X142097634Y-89836719D01*
X142073248Y-89836585D01*
X142069351Y-89839157D01*
X142064689Y-89838878D01*
X142049864Y-89852023D01*
X142033329Y-89862941D01*
X142032392Y-89867517D01*
X142028898Y-89870616D01*
X142027710Y-89890396D01*
X142023739Y-89909806D01*
X141934102Y-89909806D01*
X142122741Y-89583074D01*
X142772125Y-89957996D01*
G37*
G36*
X129625617Y-68046127D02*
G01*
X129655632Y-68076142D01*
X129671836Y-68108550D01*
X129692116Y-68189669D01*
X129692116Y-68245710D01*
X129671836Y-68326829D01*
X129655632Y-68359237D01*
X129625617Y-68389252D01*
X129577806Y-68405190D01*
X129531402Y-68405190D01*
X129531402Y-68030190D01*
X129577806Y-68030190D01*
X129625617Y-68046127D01*
G37*
G36*
X129879616Y-68592690D02*
G01*
X128272474Y-68592690D01*
X128272474Y-68324833D01*
X128334974Y-68324833D01*
X128334974Y-68372452D01*
X128335584Y-68375521D01*
X128335131Y-68376882D01*
X128337778Y-68386548D01*
X128339732Y-68396370D01*
X128340745Y-68397383D01*
X128341572Y-68400402D01*
X128365381Y-68448021D01*
X128371523Y-68455935D01*
X128377090Y-68464266D01*
X128400900Y-68488075D01*
X128409233Y-68493642D01*
X128417142Y-68499781D01*
X128464761Y-68523592D01*
X128467780Y-68524418D01*
X128468794Y-68525432D01*
X128478619Y-68527386D01*
X128488281Y-68530032D01*
X128489640Y-68529578D01*
X128492712Y-68530190D01*
X128611759Y-68530190D01*
X128621584Y-68528235D01*
X128631523Y-68526983D01*
X128702953Y-68503173D01*
X128724139Y-68491095D01*
X128730895Y-68477583D01*
X128788142Y-68477583D01*
X128813212Y-68518322D01*
X128859747Y-68529402D01*
X128900486Y-68504332D01*
X128910654Y-68482166D01*
X128972331Y-68223119D01*
X129003750Y-68340937D01*
X129014510Y-68362821D01*
X129021883Y-68367089D01*
X129026152Y-68374463D01*
X129041848Y-68378648D01*
X129055907Y-68386788D01*
X129064139Y-68384592D01*
X129072372Y-68386788D01*
X129086433Y-68378647D01*
X129102128Y-68374462D01*
X129106395Y-68367090D01*
X129113770Y-68362821D01*
X129124530Y-68340937D01*
X129155948Y-68223119D01*
X129217626Y-68482166D01*
X129227794Y-68504332D01*
X129268533Y-68529402D01*
X129315068Y-68518322D01*
X129340138Y-68477583D01*
X129339226Y-68453214D01*
X129223625Y-67967690D01*
X129406402Y-67967690D01*
X129406402Y-68467690D01*
X129411160Y-68491608D01*
X129444984Y-68525432D01*
X129468902Y-68530190D01*
X129587950Y-68530190D01*
X129597773Y-68528235D01*
X129607715Y-68526983D01*
X129679143Y-68503173D01*
X129681864Y-68501622D01*
X129683295Y-68501622D01*
X129691617Y-68496061D01*
X129700329Y-68491095D01*
X129700970Y-68489812D01*
X129703572Y-68488074D01*
X129751191Y-68440455D01*
X129756757Y-68432123D01*
X129762898Y-68424212D01*
X129786709Y-68376593D01*
X129788517Y-68369988D01*
X129791441Y-68363800D01*
X129815250Y-68268562D01*
X129815622Y-68260913D01*
X129817116Y-68253404D01*
X129817116Y-68181976D01*
X129815622Y-68174466D01*
X129815250Y-68166818D01*
X129791441Y-68071580D01*
X129788517Y-68065391D01*
X129786709Y-68058787D01*
X129762898Y-68011168D01*
X129756757Y-68003256D01*
X129751191Y-67994925D01*
X129703572Y-67947306D01*
X129700970Y-67945567D01*
X129700329Y-67944285D01*
X129691617Y-67939318D01*
X129683295Y-67933758D01*
X129681864Y-67933758D01*
X129679143Y-67932207D01*
X129607715Y-67908397D01*
X129597773Y-67907144D01*
X129587950Y-67905190D01*
X129468902Y-67905190D01*
X129444984Y-67909948D01*
X129411160Y-67943772D01*
X129406402Y-67967690D01*
X129223625Y-67967690D01*
X129220178Y-67953214D01*
X129210010Y-67931048D01*
X129202048Y-67926148D01*
X129197366Y-67918061D01*
X129182436Y-67914079D01*
X129169271Y-67905978D01*
X129160176Y-67908143D01*
X129151145Y-67905735D01*
X129137770Y-67913478D01*
X129122736Y-67917058D01*
X129117837Y-67925018D01*
X129109748Y-67929702D01*
X129098988Y-67951586D01*
X129064140Y-68082266D01*
X129029292Y-67951586D01*
X129018532Y-67929702D01*
X129010443Y-67925018D01*
X129005544Y-67917058D01*
X128990508Y-67913478D01*
X128977134Y-67905735D01*
X128968102Y-67908143D01*
X128959009Y-67905978D01*
X128945846Y-67914078D01*
X128930914Y-67918060D01*
X128926230Y-67926148D01*
X128918270Y-67931048D01*
X128908102Y-67953214D01*
X128789054Y-68453214D01*
X128788142Y-68477583D01*
X128730895Y-68477583D01*
X128745531Y-68448311D01*
X128730403Y-68402930D01*
X128687619Y-68381538D01*
X128663424Y-68384587D01*
X128601616Y-68405190D01*
X128507465Y-68405190D01*
X128482115Y-68392514D01*
X128472649Y-68383049D01*
X128459974Y-68357698D01*
X128459974Y-68339587D01*
X128472650Y-68314235D01*
X128482114Y-68304770D01*
X128514524Y-68288565D01*
X128603109Y-68266419D01*
X128609298Y-68263494D01*
X128615900Y-68261687D01*
X128663519Y-68237878D01*
X128671433Y-68231735D01*
X128679764Y-68226169D01*
X128703573Y-68202359D01*
X128709140Y-68194025D01*
X128715279Y-68186117D01*
X128739090Y-68138498D01*
X128739916Y-68135478D01*
X128740930Y-68134465D01*
X128742884Y-68124639D01*
X128745530Y-68114978D01*
X128745076Y-68113618D01*
X128745688Y-68110547D01*
X128745688Y-68062928D01*
X128745076Y-68059856D01*
X128745530Y-68058497D01*
X128742884Y-68048835D01*
X128740930Y-68039010D01*
X128739916Y-68037996D01*
X128739090Y-68034977D01*
X128715279Y-67987358D01*
X128709138Y-67979446D01*
X128703572Y-67971115D01*
X128679763Y-67947306D01*
X128671431Y-67941739D01*
X128663520Y-67935599D01*
X128615901Y-67911789D01*
X128612882Y-67910962D01*
X128611868Y-67909948D01*
X128602037Y-67907992D01*
X128592381Y-67905348D01*
X128591021Y-67905801D01*
X128587950Y-67905190D01*
X128468902Y-67905190D01*
X128459077Y-67907144D01*
X128449137Y-67908397D01*
X128377709Y-67932207D01*
X128356523Y-67944285D01*
X128335132Y-67987070D01*
X128350259Y-68032451D01*
X128393044Y-68053842D01*
X128417239Y-68050793D01*
X128479046Y-68030190D01*
X128573196Y-68030190D01*
X128598547Y-68042866D01*
X128608013Y-68052332D01*
X128620688Y-68077681D01*
X128620688Y-68095793D01*
X128608012Y-68121143D01*
X128598547Y-68130609D01*
X128566136Y-68146814D01*
X128477553Y-68168961D01*
X128471362Y-68171885D01*
X128464761Y-68173693D01*
X128417143Y-68197502D01*
X128409225Y-68203646D01*
X128400899Y-68209210D01*
X128377089Y-68233020D01*
X128371524Y-68241348D01*
X128365381Y-68249264D01*
X128341572Y-68296883D01*
X128340745Y-68299901D01*
X128339732Y-68300915D01*
X128337778Y-68310736D01*
X128335131Y-68320403D01*
X128335584Y-68321763D01*
X128334974Y-68324833D01*
X128272474Y-68324833D01*
X128272474Y-67842690D01*
X129879616Y-67842690D01*
X129879616Y-68592690D01*
G37*
G36*
X128787884Y-97400525D02*
G01*
X128816089Y-97428730D01*
X128833834Y-97499709D01*
X128833834Y-97650988D01*
X128816089Y-97721966D01*
X128787882Y-97750174D01*
X128762533Y-97762849D01*
X128696803Y-97762849D01*
X128671454Y-97750174D01*
X128643246Y-97721966D01*
X128625501Y-97650986D01*
X128625501Y-97499711D01*
X128643246Y-97428730D01*
X128671453Y-97400523D01*
X128696802Y-97387849D01*
X128762533Y-97387849D01*
X128787884Y-97400525D01*
G37*
G36*
X129692646Y-97400525D02*
G01*
X129720851Y-97428730D01*
X129738596Y-97499709D01*
X129738596Y-97650988D01*
X129720851Y-97721966D01*
X129692644Y-97750174D01*
X129667295Y-97762849D01*
X129601565Y-97762849D01*
X129576216Y-97750174D01*
X129548008Y-97721966D01*
X129530263Y-97650986D01*
X129530263Y-97499711D01*
X129548008Y-97428730D01*
X129576215Y-97400523D01*
X129601564Y-97387849D01*
X129667295Y-97387849D01*
X129692646Y-97400525D01*
G37*
G36*
X128286215Y-97524754D02*
G01*
X128172992Y-97524754D01*
X128147642Y-97512078D01*
X128138176Y-97502613D01*
X128125501Y-97477262D01*
X128125501Y-97435341D01*
X128138176Y-97409989D01*
X128147642Y-97400524D01*
X128172992Y-97387849D01*
X128286215Y-97387849D01*
X128286215Y-97524754D01*
G37*
G36*
X130473716Y-97950349D02*
G01*
X127461810Y-97950349D01*
X127461810Y-97420587D01*
X127524310Y-97420587D01*
X127524310Y-97468206D01*
X127526264Y-97478031D01*
X127527517Y-97487970D01*
X127551327Y-97559400D01*
X127552878Y-97562120D01*
X127552878Y-97563552D01*
X127558438Y-97571874D01*
X127563405Y-97580586D01*
X127564687Y-97581227D01*
X127566426Y-97583829D01*
X127745446Y-97762849D01*
X127586810Y-97762849D01*
X127562892Y-97767607D01*
X127529068Y-97801431D01*
X127529068Y-97849267D01*
X127562892Y-97883091D01*
X127586810Y-97887849D01*
X127896334Y-97887849D01*
X127920247Y-97883092D01*
X127920251Y-97883092D01*
X127954077Y-97849266D01*
X127954077Y-97801432D01*
X127940528Y-97781155D01*
X127665247Y-97505874D01*
X127649310Y-97458062D01*
X127649310Y-97435340D01*
X127661986Y-97409989D01*
X127671452Y-97400523D01*
X127696801Y-97387849D01*
X127786342Y-97387849D01*
X127811693Y-97400525D01*
X127828330Y-97417162D01*
X127848607Y-97430710D01*
X127896441Y-97430710D01*
X127906564Y-97420587D01*
X128000501Y-97420587D01*
X128000501Y-97492016D01*
X128001111Y-97495085D01*
X128000658Y-97496446D01*
X128003305Y-97506112D01*
X128005259Y-97515934D01*
X128006272Y-97516947D01*
X128007099Y-97519966D01*
X128030908Y-97567585D01*
X128037050Y-97575499D01*
X128042617Y-97583830D01*
X128066427Y-97607639D01*
X128074760Y-97613206D01*
X128082669Y-97619345D01*
X128118404Y-97637213D01*
X128011799Y-97789508D01*
X128001981Y-97811831D01*
X128010294Y-97858937D01*
X128049483Y-97886369D01*
X128096589Y-97878056D01*
X128114203Y-97861190D01*
X128262208Y-97649754D01*
X128286215Y-97649754D01*
X128286215Y-97825349D01*
X128290973Y-97849267D01*
X128324797Y-97883091D01*
X128372633Y-97883091D01*
X128406457Y-97849267D01*
X128411215Y-97825349D01*
X128411215Y-97492016D01*
X128500501Y-97492016D01*
X128500501Y-97658682D01*
X128501994Y-97666191D01*
X128502367Y-97673841D01*
X128526177Y-97769079D01*
X128529068Y-97775198D01*
X128529068Y-97777837D01*
X128533324Y-97784207D01*
X128536594Y-97791128D01*
X128538854Y-97792484D01*
X128542616Y-97798114D01*
X128590235Y-97845734D01*
X128598568Y-97851301D01*
X128606480Y-97857442D01*
X128654098Y-97881251D01*
X128657117Y-97882077D01*
X128658131Y-97883091D01*
X128667958Y-97885045D01*
X128677619Y-97887691D01*
X128678977Y-97887238D01*
X128682049Y-97887849D01*
X128777287Y-97887849D01*
X128780356Y-97887238D01*
X128781717Y-97887692D01*
X128791383Y-97885044D01*
X128801205Y-97883091D01*
X128802218Y-97882077D01*
X128805237Y-97881251D01*
X128852856Y-97857442D01*
X128860764Y-97851303D01*
X128869101Y-97845734D01*
X128916720Y-97798114D01*
X128920480Y-97792484D01*
X128922742Y-97791128D01*
X128926012Y-97784204D01*
X128930267Y-97777837D01*
X128930267Y-97775199D01*
X128933159Y-97769078D01*
X128956968Y-97673840D01*
X128957340Y-97666191D01*
X128958834Y-97658682D01*
X128958834Y-97492016D01*
X128957340Y-97484506D01*
X128956968Y-97476858D01*
X128933159Y-97381620D01*
X128930267Y-97375498D01*
X128930267Y-97372861D01*
X128926013Y-97366494D01*
X128922742Y-97359570D01*
X128920479Y-97358212D01*
X128916719Y-97352584D01*
X128869100Y-97304965D01*
X128863811Y-97301431D01*
X128981449Y-97301431D01*
X128981449Y-97349267D01*
X129015273Y-97383091D01*
X129039191Y-97387849D01*
X129119548Y-97387849D01*
X129119548Y-97825349D01*
X129124306Y-97849267D01*
X129158130Y-97883091D01*
X129205966Y-97883091D01*
X129239790Y-97849267D01*
X129244548Y-97825349D01*
X129244548Y-97492016D01*
X129405263Y-97492016D01*
X129405263Y-97658682D01*
X129406756Y-97666191D01*
X129407129Y-97673841D01*
X129430939Y-97769079D01*
X129433830Y-97775198D01*
X129433830Y-97777837D01*
X129438086Y-97784207D01*
X129441356Y-97791128D01*
X129443616Y-97792484D01*
X129447378Y-97798114D01*
X129494997Y-97845734D01*
X129503330Y-97851301D01*
X129511242Y-97857442D01*
X129558860Y-97881251D01*
X129561879Y-97882077D01*
X129562893Y-97883091D01*
X129572720Y-97885045D01*
X129582381Y-97887691D01*
X129583739Y-97887238D01*
X129586811Y-97887849D01*
X129682049Y-97887849D01*
X129685118Y-97887238D01*
X129686479Y-97887692D01*
X129696145Y-97885044D01*
X129705967Y-97883091D01*
X129706980Y-97882077D01*
X129709999Y-97881251D01*
X129757618Y-97857442D01*
X129765526Y-97851303D01*
X129773863Y-97845734D01*
X129821482Y-97798114D01*
X129825242Y-97792484D01*
X129827504Y-97791128D01*
X129830774Y-97784204D01*
X129835029Y-97777837D01*
X129835029Y-97775199D01*
X129837921Y-97769078D01*
X129861730Y-97673840D01*
X129862102Y-97666191D01*
X129863596Y-97658682D01*
X129863596Y-97492016D01*
X129862102Y-97484506D01*
X129861730Y-97476858D01*
X129837921Y-97381620D01*
X129835029Y-97375498D01*
X129835029Y-97372861D01*
X129830775Y-97366494D01*
X129827504Y-97359570D01*
X129825241Y-97358212D01*
X129821481Y-97352584D01*
X129794246Y-97325349D01*
X129952883Y-97325349D01*
X129952883Y-97825349D01*
X129957641Y-97849267D01*
X129991465Y-97883091D01*
X130039301Y-97883091D01*
X130073125Y-97849267D01*
X130077883Y-97825349D01*
X130077883Y-97607072D01*
X130125413Y-97708923D01*
X130134941Y-97721910D01*
X130135957Y-97724702D01*
X130137527Y-97725435D01*
X130139839Y-97728585D01*
X130159944Y-97735896D01*
X130179305Y-97744931D01*
X130182047Y-97743933D01*
X130184793Y-97744932D01*
X130204172Y-97735888D01*
X130224259Y-97728584D01*
X130226567Y-97725437D01*
X130228141Y-97724703D01*
X130229157Y-97721907D01*
X130238685Y-97708922D01*
X130286216Y-97607070D01*
X130286216Y-97825349D01*
X130290974Y-97849267D01*
X130324798Y-97883091D01*
X130372634Y-97883091D01*
X130406458Y-97849267D01*
X130411216Y-97825349D01*
X130411216Y-97325349D01*
X130406458Y-97301431D01*
X130398603Y-97293576D01*
X130394808Y-97283139D01*
X130382354Y-97277327D01*
X130372634Y-97267607D01*
X130361525Y-97267607D01*
X130351460Y-97262910D01*
X130338543Y-97267607D01*
X130324798Y-97267607D01*
X130316943Y-97275461D01*
X130306506Y-97279257D01*
X130292080Y-97298919D01*
X130182049Y-97534698D01*
X130072019Y-97298919D01*
X130057593Y-97279257D01*
X130047155Y-97275461D01*
X130039301Y-97267607D01*
X130025556Y-97267607D01*
X130012639Y-97262910D01*
X130002574Y-97267607D01*
X129991465Y-97267607D01*
X129981744Y-97277327D01*
X129969291Y-97283139D01*
X129965495Y-97293576D01*
X129957641Y-97301431D01*
X129952883Y-97325349D01*
X129794246Y-97325349D01*
X129773862Y-97304965D01*
X129765530Y-97299398D01*
X129757619Y-97293258D01*
X129710000Y-97269448D01*
X129706981Y-97268621D01*
X129705967Y-97267607D01*
X129696136Y-97265651D01*
X129686480Y-97263007D01*
X129685120Y-97263460D01*
X129682049Y-97262849D01*
X129586811Y-97262849D01*
X129583739Y-97263460D01*
X129582380Y-97263007D01*
X129572718Y-97265652D01*
X129562893Y-97267607D01*
X129561879Y-97268620D01*
X129558860Y-97269447D01*
X129511241Y-97293258D01*
X129503329Y-97299398D01*
X129494998Y-97304965D01*
X129447379Y-97352584D01*
X129443618Y-97358212D01*
X129441356Y-97359570D01*
X129438084Y-97366495D01*
X129433831Y-97372861D01*
X129433831Y-97375497D01*
X129430939Y-97381619D01*
X129407129Y-97476857D01*
X129406756Y-97484506D01*
X129405263Y-97492016D01*
X129244548Y-97492016D01*
X129244548Y-97387849D01*
X129324905Y-97387849D01*
X129348823Y-97383091D01*
X129382647Y-97349267D01*
X129382647Y-97301431D01*
X129348823Y-97267607D01*
X129324905Y-97262849D01*
X129039191Y-97262849D01*
X129015273Y-97267607D01*
X128981449Y-97301431D01*
X128863811Y-97301431D01*
X128860768Y-97299398D01*
X128852857Y-97293258D01*
X128805238Y-97269448D01*
X128802219Y-97268621D01*
X128801205Y-97267607D01*
X128791374Y-97265651D01*
X128781718Y-97263007D01*
X128780358Y-97263460D01*
X128777287Y-97262849D01*
X128682049Y-97262849D01*
X128678977Y-97263460D01*
X128677618Y-97263007D01*
X128667956Y-97265652D01*
X128658131Y-97267607D01*
X128657117Y-97268620D01*
X128654098Y-97269447D01*
X128606479Y-97293258D01*
X128598567Y-97299398D01*
X128590236Y-97304965D01*
X128542617Y-97352584D01*
X128538856Y-97358212D01*
X128536594Y-97359570D01*
X128533322Y-97366495D01*
X128529069Y-97372861D01*
X128529069Y-97375497D01*
X128526177Y-97381619D01*
X128502367Y-97476857D01*
X128501994Y-97484506D01*
X128500501Y-97492016D01*
X128411215Y-97492016D01*
X128411215Y-97325349D01*
X128406457Y-97301431D01*
X128372633Y-97267607D01*
X128348715Y-97262849D01*
X128158239Y-97262849D01*
X128155167Y-97263460D01*
X128153808Y-97263007D01*
X128144146Y-97265652D01*
X128134321Y-97267607D01*
X128133307Y-97268620D01*
X128130288Y-97269447D01*
X128082669Y-97293258D01*
X128074760Y-97299396D01*
X128066427Y-97304964D01*
X128042617Y-97328773D01*
X128037050Y-97337103D01*
X128030908Y-97345018D01*
X128007099Y-97392637D01*
X128006272Y-97395655D01*
X128005259Y-97396669D01*
X128003305Y-97406490D01*
X128000658Y-97416157D01*
X128001111Y-97417517D01*
X128000501Y-97420587D01*
X127906564Y-97420587D01*
X127930266Y-97396885D01*
X127930266Y-97349051D01*
X127916718Y-97328774D01*
X127892909Y-97304965D01*
X127884577Y-97299398D01*
X127876666Y-97293258D01*
X127829047Y-97269448D01*
X127826028Y-97268621D01*
X127825014Y-97267607D01*
X127815183Y-97265651D01*
X127805527Y-97263007D01*
X127804167Y-97263460D01*
X127801096Y-97262849D01*
X127682048Y-97262849D01*
X127678976Y-97263460D01*
X127677617Y-97263007D01*
X127667955Y-97265652D01*
X127658130Y-97267607D01*
X127657116Y-97268620D01*
X127654097Y-97269447D01*
X127606478Y-97293258D01*
X127598566Y-97299398D01*
X127590235Y-97304965D01*
X127566426Y-97328774D01*
X127560859Y-97337105D01*
X127554719Y-97345017D01*
X127530909Y-97392636D01*
X127530082Y-97395654D01*
X127529068Y-97396669D01*
X127527112Y-97406499D01*
X127524468Y-97416156D01*
X127524921Y-97417515D01*
X127524310Y-97420587D01*
X127461810Y-97420587D01*
X127461810Y-97200349D01*
X130473716Y-97200349D01*
X130473716Y-97950349D01*
G37*
G36*
X115919490Y-76237908D02*
G01*
X116050502Y-76313547D01*
X116103098Y-76364404D01*
X116113422Y-76402932D01*
X116111724Y-76431226D01*
X116078858Y-76488149D01*
X116055205Y-76503767D01*
X116016678Y-76514091D01*
X115946334Y-76493967D01*
X115815322Y-76418328D01*
X115762725Y-76367472D01*
X115752402Y-76328942D01*
X115754100Y-76300649D01*
X115786966Y-76243726D01*
X115810619Y-76228108D01*
X115849147Y-76217785D01*
X115919490Y-76237908D01*
G37*
G36*
X116371870Y-75454360D02*
G01*
X116502883Y-75530000D01*
X116555479Y-75580857D01*
X116565803Y-75619385D01*
X116564105Y-75647679D01*
X116531239Y-75704602D01*
X116507586Y-75720220D01*
X116469059Y-75730544D01*
X116398715Y-75710420D01*
X116267703Y-75634781D01*
X116215107Y-75583925D01*
X116204783Y-75545397D01*
X116206481Y-75517102D01*
X116239347Y-75460179D01*
X116262998Y-75444562D01*
X116301529Y-75434239D01*
X116371870Y-75454360D01*
G37*
G36*
X116772323Y-75108210D02*
G01*
X116808625Y-75129169D01*
X116824244Y-75152825D01*
X116827708Y-75165752D01*
X116826010Y-75194046D01*
X116769399Y-75292098D01*
X116650837Y-75223647D01*
X116707448Y-75125594D01*
X116731101Y-75109976D01*
X116744029Y-75106512D01*
X116772323Y-75108210D01*
G37*
G36*
X117343982Y-74671894D02*
G01*
X115838029Y-77280282D01*
X115188509Y-76905281D01*
X115219634Y-76851371D01*
X115297298Y-76851371D01*
X115309678Y-76897575D01*
X115328013Y-76913655D01*
X115761026Y-77163654D01*
X115784118Y-77171493D01*
X115794847Y-77168618D01*
X115805785Y-77170550D01*
X115817046Y-77162669D01*
X115830323Y-77159112D01*
X115835876Y-77149492D01*
X115844978Y-77143124D01*
X115847368Y-77129587D01*
X115854241Y-77117685D01*
X115851366Y-77106956D01*
X115853298Y-77096019D01*
X115843483Y-77073694D01*
X115694307Y-76860516D01*
X115953513Y-76883117D01*
X115977754Y-76880454D01*
X115986261Y-76873311D01*
X115996989Y-76870437D01*
X116003860Y-76858535D01*
X116014389Y-76849696D01*
X116015354Y-76838628D01*
X116020907Y-76829010D01*
X116017349Y-76815735D01*
X116018544Y-76802041D01*
X116011400Y-76793532D01*
X116008526Y-76782806D01*
X115990192Y-76766726D01*
X115557180Y-76516726D01*
X115534087Y-76508888D01*
X115487883Y-76521268D01*
X115463965Y-76562696D01*
X115476345Y-76608900D01*
X115494680Y-76624980D01*
X115683712Y-76734117D01*
X115571743Y-76724355D01*
X115555731Y-76726113D01*
X115552805Y-76725597D01*
X115551383Y-76726591D01*
X115547502Y-76727018D01*
X115531126Y-76740766D01*
X115513612Y-76753023D01*
X115513104Y-76755898D01*
X115510868Y-76757776D01*
X115509011Y-76779070D01*
X115505292Y-76800128D01*
X115506863Y-76803703D01*
X115506713Y-76805431D01*
X115508623Y-76807706D01*
X115515106Y-76822452D01*
X115579545Y-76914539D01*
X115390513Y-76805401D01*
X115367420Y-76797563D01*
X115321216Y-76809943D01*
X115297298Y-76851371D01*
X115219634Y-76851371D01*
X115519738Y-76331576D01*
X115627019Y-76331576D01*
X115628380Y-76341496D01*
X115629036Y-76351496D01*
X115646465Y-76416545D01*
X115649459Y-76422617D01*
X115649504Y-76425255D01*
X115653863Y-76431548D01*
X115657251Y-76438417D01*
X115659535Y-76439736D01*
X115663391Y-76445301D01*
X115733965Y-76513540D01*
X115740402Y-76517686D01*
X115746160Y-76522736D01*
X115890498Y-76606069D01*
X115897747Y-76608529D01*
X115904558Y-76612032D01*
X115998941Y-76639032D01*
X116005688Y-76639588D01*
X116007973Y-76640907D01*
X116015614Y-76640406D01*
X116023245Y-76641035D01*
X116025551Y-76639754D01*
X116032307Y-76639312D01*
X116097357Y-76621882D01*
X116106339Y-76617452D01*
X116115617Y-76613669D01*
X116160046Y-76584334D01*
X116162271Y-76582133D01*
X116163656Y-76581762D01*
X116170263Y-76574227D01*
X116177385Y-76567184D01*
X116177672Y-76565780D01*
X116179736Y-76563427D01*
X116227355Y-76480949D01*
X116228361Y-76477984D01*
X116229433Y-76477034D01*
X116231973Y-76467342D01*
X116235193Y-76457856D01*
X116234822Y-76456472D01*
X116235616Y-76453444D01*
X116238806Y-76400300D01*
X116237442Y-76390371D01*
X116236788Y-76380379D01*
X116219358Y-76315330D01*
X116216364Y-76309259D01*
X116216320Y-76306622D01*
X116211959Y-76300327D01*
X116208572Y-76293458D01*
X116206287Y-76292138D01*
X116202433Y-76286575D01*
X116131860Y-76218336D01*
X116125423Y-76214190D01*
X116119665Y-76209140D01*
X115975327Y-76125807D01*
X115968077Y-76123346D01*
X115961267Y-76119844D01*
X115866884Y-76092844D01*
X115860136Y-76092287D01*
X115857852Y-76090969D01*
X115850210Y-76091469D01*
X115842580Y-76090841D01*
X115840273Y-76092121D01*
X115833518Y-76092564D01*
X115768469Y-76109994D01*
X115759488Y-76114422D01*
X115750208Y-76118207D01*
X115705779Y-76147542D01*
X115703553Y-76149742D01*
X115702169Y-76150114D01*
X115695557Y-76157652D01*
X115688441Y-76164692D01*
X115688153Y-76166094D01*
X115686090Y-76168448D01*
X115638470Y-76250927D01*
X115637463Y-76253891D01*
X115636392Y-76254842D01*
X115633852Y-76264530D01*
X115630632Y-76274019D01*
X115631002Y-76275403D01*
X115630209Y-76278432D01*
X115627019Y-76331576D01*
X115519738Y-76331576D01*
X115802968Y-75841007D01*
X115880632Y-75841007D01*
X115893012Y-75887211D01*
X115911347Y-75903291D01*
X116290232Y-76122040D01*
X116250054Y-76191632D01*
X116242216Y-76214725D01*
X116254596Y-76260929D01*
X116296024Y-76284847D01*
X116342228Y-76272467D01*
X116358308Y-76254132D01*
X116501164Y-76006696D01*
X116509003Y-75983604D01*
X116496622Y-75937399D01*
X116455195Y-75913481D01*
X116408991Y-75925862D01*
X116392911Y-75944196D01*
X116352732Y-76013787D01*
X115973847Y-75795037D01*
X115950754Y-75787199D01*
X115904550Y-75799579D01*
X115880632Y-75841007D01*
X115802968Y-75841007D01*
X115972118Y-75548030D01*
X116079400Y-75548030D01*
X116080763Y-75557957D01*
X116081418Y-75567951D01*
X116098847Y-75632999D01*
X116101840Y-75639069D01*
X116101885Y-75641708D01*
X116106246Y-75648003D01*
X116109633Y-75654871D01*
X116111917Y-75656189D01*
X116115772Y-75661754D01*
X116186346Y-75729993D01*
X116192783Y-75734139D01*
X116198541Y-75739189D01*
X116342879Y-75822522D01*
X116350128Y-75824982D01*
X116356939Y-75828485D01*
X116451322Y-75855485D01*
X116458069Y-75856041D01*
X116460354Y-75857360D01*
X116467995Y-75856859D01*
X116475626Y-75857488D01*
X116477932Y-75856207D01*
X116484688Y-75855765D01*
X116549738Y-75838335D01*
X116558720Y-75833905D01*
X116567998Y-75830122D01*
X116612427Y-75800787D01*
X116614652Y-75798586D01*
X116616037Y-75798215D01*
X116622644Y-75790680D01*
X116629766Y-75783637D01*
X116630053Y-75782233D01*
X116632117Y-75779880D01*
X116679736Y-75697402D01*
X116680742Y-75694437D01*
X116681814Y-75693487D01*
X116684354Y-75683795D01*
X116687574Y-75674309D01*
X116687203Y-75672925D01*
X116687997Y-75669897D01*
X116691187Y-75616753D01*
X116689823Y-75606824D01*
X116689169Y-75596832D01*
X116671739Y-75531783D01*
X116668745Y-75525712D01*
X116668701Y-75523075D01*
X116664340Y-75516780D01*
X116660953Y-75509911D01*
X116658668Y-75508591D01*
X116654814Y-75503028D01*
X116584241Y-75434789D01*
X116577804Y-75430643D01*
X116572046Y-75425593D01*
X116427708Y-75342260D01*
X116420455Y-75339798D01*
X116413647Y-75336297D01*
X116319264Y-75309298D01*
X116312518Y-75308742D01*
X116310234Y-75307423D01*
X116302591Y-75307923D01*
X116294960Y-75307295D01*
X116292653Y-75308575D01*
X116285899Y-75309018D01*
X116220851Y-75326446D01*
X116211863Y-75330877D01*
X116202589Y-75334660D01*
X116158160Y-75363995D01*
X116155934Y-75366195D01*
X116154550Y-75366567D01*
X116147938Y-75374105D01*
X116140822Y-75381145D01*
X116140534Y-75382547D01*
X116138471Y-75384901D01*
X116090851Y-75467380D01*
X116089844Y-75470344D01*
X116088773Y-75471295D01*
X116086233Y-75480983D01*
X116083013Y-75490472D01*
X116083383Y-75491856D01*
X116082590Y-75494885D01*
X116079400Y-75548030D01*
X115972118Y-75548030D01*
X116219635Y-75119319D01*
X116297298Y-75119319D01*
X116309678Y-75165523D01*
X116328013Y-75181603D01*
X116761026Y-75431602D01*
X116784118Y-75439441D01*
X116784118Y-75439440D01*
X116784119Y-75439441D01*
X116830323Y-75427061D01*
X116846403Y-75408726D01*
X116941641Y-75243769D01*
X116942647Y-75240804D01*
X116943719Y-75239854D01*
X116946259Y-75230162D01*
X116949479Y-75220676D01*
X116949108Y-75219292D01*
X116949902Y-75216264D01*
X116953092Y-75163120D01*
X116951729Y-75153192D01*
X116951074Y-75143198D01*
X116942359Y-75110674D01*
X116937929Y-75101691D01*
X116934147Y-75092415D01*
X116904813Y-75047985D01*
X116902609Y-75045757D01*
X116902239Y-75044374D01*
X116894716Y-75037776D01*
X116887664Y-75030646D01*
X116886257Y-75030358D01*
X116883904Y-75028294D01*
X116822046Y-74992580D01*
X116819081Y-74991573D01*
X116818131Y-74990502D01*
X116808439Y-74987961D01*
X116798953Y-74984742D01*
X116797569Y-74985112D01*
X116794541Y-74984319D01*
X116741397Y-74981129D01*
X116731469Y-74982491D01*
X116721476Y-74983147D01*
X116688951Y-74991862D01*
X116679970Y-74996290D01*
X116670690Y-75000075D01*
X116637349Y-75022088D01*
X116558762Y-74853619D01*
X116544338Y-74833955D01*
X116499387Y-74817601D01*
X116456035Y-74837824D01*
X116439681Y-74882775D01*
X116445480Y-74906463D01*
X116554586Y-75140356D01*
X116542583Y-75161146D01*
X116390513Y-75073349D01*
X116367420Y-75065511D01*
X116321216Y-75077891D01*
X116297298Y-75119319D01*
X116219635Y-75119319D01*
X116448309Y-74723243D01*
X116555590Y-74723243D01*
X116556952Y-74733169D01*
X116557608Y-74743165D01*
X116566323Y-74775688D01*
X116577109Y-74797560D01*
X116618535Y-74821477D01*
X116664741Y-74809095D01*
X116688658Y-74767670D01*
X116687063Y-74743335D01*
X116680973Y-74720609D01*
X116682671Y-74692316D01*
X116739345Y-74594154D01*
X116762998Y-74578537D01*
X116775927Y-74575072D01*
X116804221Y-74576770D01*
X116881765Y-74621539D01*
X116897381Y-74645191D01*
X116900846Y-74658121D01*
X116899147Y-74686416D01*
X116870811Y-74735497D01*
X116865099Y-74752326D01*
X116863653Y-74754485D01*
X116863915Y-74755812D01*
X116862973Y-74758590D01*
X116868666Y-74779837D01*
X116872933Y-74801412D01*
X116874779Y-74802648D01*
X116875354Y-74804794D01*
X116894395Y-74815787D01*
X116912676Y-74828032D01*
X116915609Y-74828035D01*
X116916781Y-74828712D01*
X116919290Y-74828039D01*
X116937063Y-74828060D01*
X117050233Y-74805680D01*
X116964340Y-74954453D01*
X116956502Y-74977546D01*
X116968882Y-75023750D01*
X117010310Y-75047668D01*
X117056514Y-75035288D01*
X117072594Y-75016953D01*
X117227355Y-74748897D01*
X117233067Y-74732067D01*
X117234514Y-74729909D01*
X117234251Y-74728581D01*
X117235194Y-74725805D01*
X117229500Y-74704558D01*
X117225234Y-74682982D01*
X117223387Y-74681745D01*
X117222813Y-74679600D01*
X117203771Y-74668606D01*
X117185491Y-74656362D01*
X117182557Y-74656358D01*
X117181386Y-74655682D01*
X117178876Y-74656354D01*
X117161104Y-74656334D01*
X117024558Y-74683336D01*
X117026230Y-74655489D01*
X117024866Y-74645560D01*
X117024212Y-74635568D01*
X117015497Y-74603043D01*
X117011067Y-74594060D01*
X117007284Y-74584782D01*
X116977950Y-74540353D01*
X116975747Y-74538126D01*
X116975377Y-74536743D01*
X116967847Y-74530139D01*
X116960801Y-74523015D01*
X116959397Y-74522727D01*
X116957043Y-74520663D01*
X116853944Y-74461140D01*
X116850979Y-74460133D01*
X116850029Y-74459062D01*
X116840337Y-74456521D01*
X116830851Y-74453302D01*
X116829467Y-74453672D01*
X116826439Y-74452879D01*
X116773295Y-74449689D01*
X116763368Y-74451051D01*
X116753373Y-74451707D01*
X116720849Y-74460422D01*
X116711864Y-74464852D01*
X116702589Y-74468635D01*
X116658160Y-74497969D01*
X116655933Y-74500171D01*
X116654550Y-74500542D01*
X116647946Y-74508071D01*
X116640822Y-74515118D01*
X116640534Y-74516521D01*
X116638470Y-74518876D01*
X116567041Y-74642594D01*
X116566034Y-74645558D01*
X116564963Y-74646509D01*
X116562423Y-74656197D01*
X116559203Y-74665686D01*
X116559573Y-74667070D01*
X116558780Y-74670099D01*
X116555590Y-74723243D01*
X116448309Y-74723243D01*
X116694462Y-74296894D01*
X117343982Y-74671894D01*
G37*
D13*
G36*
X123615029Y-88513666D02*
G01*
X122357929Y-88513666D01*
X122357929Y-88239280D01*
X122482929Y-88239280D01*
X122482929Y-88288052D01*
X122501593Y-88333112D01*
X122536081Y-88367600D01*
X122581141Y-88386264D01*
X122605527Y-88388666D01*
X123367431Y-88388666D01*
X123391817Y-88386264D01*
X123436877Y-88367600D01*
X123471365Y-88333112D01*
X123490029Y-88288052D01*
X123490029Y-88239280D01*
X123471365Y-88194220D01*
X123436877Y-88159732D01*
X123391817Y-88141068D01*
X123367431Y-88138666D01*
X122605527Y-88138666D01*
X122581141Y-88141068D01*
X122536081Y-88159732D01*
X122501593Y-88194220D01*
X122482929Y-88239280D01*
X122357929Y-88239280D01*
X122357929Y-88013666D01*
X123615029Y-88013666D01*
X123615029Y-88513666D01*
G37*
G36*
X125485689Y-90924454D02*
G01*
X125501478Y-90956031D01*
X125501478Y-90992252D01*
X125485688Y-91023831D01*
X125454113Y-91039619D01*
X125275288Y-91039619D01*
X125275288Y-90908666D01*
X125454113Y-90908666D01*
X125485689Y-90924454D01*
G37*
G36*
X131742910Y-90314969D02*
G01*
X131761842Y-90333902D01*
X131794252Y-90398723D01*
X131834812Y-90560960D01*
X131834812Y-90768277D01*
X131794252Y-90930513D01*
X131761841Y-90995336D01*
X131742910Y-91014268D01*
X131692209Y-91039619D01*
X131655988Y-91039619D01*
X131605286Y-91014268D01*
X131586354Y-90995336D01*
X131553943Y-90930515D01*
X131513384Y-90768277D01*
X131513384Y-90560960D01*
X131553943Y-90398722D01*
X131586353Y-90333901D01*
X131605286Y-90314969D01*
X131655988Y-90289619D01*
X131692209Y-90289619D01*
X131742910Y-90314969D01*
G37*
G36*
X134885767Y-90314969D02*
G01*
X134904699Y-90333902D01*
X134937109Y-90398723D01*
X134977669Y-90560960D01*
X134977669Y-90768277D01*
X134937109Y-90930513D01*
X134904698Y-90995336D01*
X134885767Y-91014268D01*
X134835066Y-91039619D01*
X134798845Y-91039619D01*
X134748143Y-91014268D01*
X134729211Y-90995336D01*
X134696800Y-90930515D01*
X134656241Y-90768277D01*
X134656241Y-90560960D01*
X134696800Y-90398722D01*
X134729210Y-90333901D01*
X134748143Y-90314969D01*
X134798845Y-90289619D01*
X134835066Y-90289619D01*
X134885767Y-90314969D01*
G37*
G36*
X136304068Y-91414619D02*
G01*
X123995896Y-91414619D01*
X123995896Y-90507558D01*
X124120896Y-90507558D01*
X124134059Y-90554520D01*
X124147236Y-90575180D01*
X124348461Y-90831285D01*
X124147236Y-91087391D01*
X124134059Y-91108051D01*
X124120896Y-91155013D01*
X124126707Y-91203439D01*
X124150607Y-91245954D01*
X124188958Y-91276086D01*
X124235920Y-91289249D01*
X124284346Y-91283438D01*
X124326861Y-91259538D01*
X124343816Y-91241847D01*
X124507430Y-91033610D01*
X124671045Y-91241847D01*
X124688000Y-91259538D01*
X124730515Y-91283438D01*
X124778941Y-91289249D01*
X124825903Y-91276086D01*
X124864254Y-91245954D01*
X124888154Y-91203439D01*
X124893965Y-91155013D01*
X124880802Y-91108051D01*
X124867625Y-91087391D01*
X124666399Y-90831285D01*
X124816059Y-90640809D01*
X125025288Y-90640809D01*
X125025288Y-91164619D01*
X125027690Y-91189005D01*
X125046354Y-91234065D01*
X125080842Y-91268553D01*
X125125902Y-91287217D01*
X125174674Y-91287217D01*
X125195399Y-91278632D01*
X125212510Y-91285180D01*
X125216990Y-91285498D01*
X125221140Y-91287217D01*
X125245526Y-91289619D01*
X125483621Y-91289619D01*
X125508007Y-91287217D01*
X125512155Y-91285498D01*
X125516637Y-91285180D01*
X125539523Y-91276422D01*
X125634760Y-91228804D01*
X125638837Y-91226237D01*
X125640764Y-91225595D01*
X125643163Y-91223513D01*
X125655498Y-91215749D01*
X125665764Y-91203911D01*
X125677609Y-91193639D01*
X125685376Y-91181299D01*
X125687454Y-91178904D01*
X125688095Y-91176980D01*
X125690663Y-91172901D01*
X125738282Y-91077662D01*
X125747039Y-91054777D01*
X125747357Y-91050296D01*
X125749076Y-91046147D01*
X125751478Y-91021761D01*
X125751478Y-90926523D01*
X125749076Y-90902137D01*
X125747357Y-90897987D01*
X125747039Y-90893507D01*
X125738281Y-90870621D01*
X125690662Y-90775383D01*
X125688095Y-90771306D01*
X125687454Y-90769381D01*
X125685374Y-90766982D01*
X125677608Y-90754646D01*
X125665767Y-90744376D01*
X125655498Y-90732536D01*
X125643160Y-90724769D01*
X125640763Y-90722690D01*
X125638838Y-90722048D01*
X125634760Y-90719481D01*
X125539523Y-90671863D01*
X125516637Y-90663105D01*
X125512155Y-90662786D01*
X125508007Y-90661068D01*
X125483621Y-90658666D01*
X125281113Y-90658666D01*
X125291076Y-90638740D01*
X125322654Y-90622952D01*
X125454113Y-90622952D01*
X125522957Y-90657374D01*
X125545843Y-90666132D01*
X125594492Y-90669589D01*
X125640763Y-90654166D01*
X125656164Y-90640809D01*
X125930049Y-90640809D01*
X125930049Y-91164619D01*
X125932451Y-91189005D01*
X125951115Y-91234065D01*
X125985603Y-91268553D01*
X126030663Y-91287217D01*
X126079435Y-91287217D01*
X126124495Y-91268553D01*
X126158983Y-91234065D01*
X126177647Y-91189005D01*
X126180049Y-91164619D01*
X126180049Y-90670317D01*
X126195836Y-90638741D01*
X126227416Y-90622952D01*
X126311256Y-90622952D01*
X126342832Y-90638740D01*
X126358621Y-90670317D01*
X126358621Y-91164619D01*
X126361023Y-91189005D01*
X126379687Y-91234065D01*
X126414175Y-91268553D01*
X126459235Y-91287217D01*
X126508007Y-91287217D01*
X126553067Y-91268553D01*
X126587555Y-91234065D01*
X126606219Y-91189005D01*
X126608621Y-91164619D01*
X126608621Y-90670317D01*
X126624409Y-90638740D01*
X126655987Y-90622952D01*
X126739827Y-90622952D01*
X126787192Y-90646634D01*
X126787192Y-91164619D01*
X126789594Y-91189005D01*
X126808258Y-91234065D01*
X126842746Y-91268553D01*
X126887806Y-91287217D01*
X126936578Y-91287217D01*
X126981638Y-91268553D01*
X127016126Y-91234065D01*
X127034790Y-91189005D01*
X127037192Y-91164619D01*
X127037192Y-90974142D01*
X127977669Y-90974142D01*
X127977669Y-91021761D01*
X127980071Y-91046147D01*
X127981789Y-91050296D01*
X127982108Y-91054776D01*
X127990865Y-91077662D01*
X128038484Y-91172901D01*
X128041051Y-91176979D01*
X128041693Y-91178904D01*
X128043771Y-91181300D01*
X128051538Y-91193638D01*
X128063380Y-91203909D01*
X128073649Y-91215749D01*
X128085982Y-91223513D01*
X128088383Y-91225595D01*
X128090310Y-91226237D01*
X128094386Y-91228803D01*
X128189624Y-91276422D01*
X128212510Y-91285180D01*
X128216990Y-91285498D01*
X128221140Y-91287217D01*
X128245526Y-91289619D01*
X128436002Y-91289619D01*
X128460388Y-91287217D01*
X128464536Y-91285498D01*
X128469018Y-91285180D01*
X128491904Y-91276422D01*
X128587141Y-91228804D01*
X128607879Y-91215749D01*
X128639835Y-91178904D01*
X128655258Y-91132634D01*
X128651800Y-91083984D01*
X128629989Y-91040361D01*
X128593144Y-91008405D01*
X128546873Y-90992982D01*
X128498224Y-90996439D01*
X128475338Y-91005197D01*
X128406494Y-91039619D01*
X128275035Y-91039619D01*
X128243458Y-91023830D01*
X128230518Y-90997951D01*
X128243457Y-90972073D01*
X128275035Y-90956285D01*
X128388383Y-90956285D01*
X128412769Y-90953883D01*
X128416917Y-90952164D01*
X128421399Y-90951846D01*
X128444285Y-90943088D01*
X128539522Y-90895470D01*
X128543600Y-90892902D01*
X128545525Y-90892261D01*
X128547922Y-90890181D01*
X128560260Y-90882415D01*
X128570529Y-90870574D01*
X128582370Y-90860305D01*
X128590136Y-90847968D01*
X128592216Y-90845570D01*
X128592857Y-90843644D01*
X128595424Y-90839568D01*
X128643043Y-90744330D01*
X128646213Y-90736047D01*
X128787193Y-90736047D01*
X128787193Y-90974142D01*
X128789595Y-90998528D01*
X128791313Y-91002676D01*
X128791632Y-91007158D01*
X128800390Y-91030044D01*
X128848008Y-91125281D01*
X128854615Y-91135777D01*
X128855878Y-91138825D01*
X128858695Y-91142258D01*
X128861063Y-91146019D01*
X128863557Y-91148182D01*
X128871423Y-91157767D01*
X128919042Y-91205387D01*
X128928630Y-91213256D01*
X128930792Y-91215749D01*
X128934546Y-91218112D01*
X128937983Y-91220933D01*
X128941036Y-91222197D01*
X128951529Y-91228803D01*
X129046767Y-91276422D01*
X129069653Y-91285180D01*
X129074133Y-91285498D01*
X129078283Y-91287217D01*
X129102669Y-91289619D01*
X129388383Y-91289619D01*
X129412769Y-91287217D01*
X129416917Y-91285498D01*
X129421399Y-91285180D01*
X129444285Y-91276422D01*
X129539522Y-91228804D01*
X129550018Y-91222196D01*
X129553068Y-91220933D01*
X129556501Y-91218114D01*
X129560260Y-91215749D01*
X129562422Y-91213255D01*
X129572010Y-91205387D01*
X129619629Y-91157768D01*
X129635174Y-91138825D01*
X129653838Y-91093766D01*
X129653838Y-91044992D01*
X129635173Y-90999933D01*
X129600685Y-90965446D01*
X129555625Y-90946782D01*
X129506852Y-90946782D01*
X129461792Y-90965447D01*
X129442851Y-90980993D01*
X129409576Y-91014268D01*
X129358875Y-91039619D01*
X129132178Y-91039619D01*
X129081476Y-91014268D01*
X129062544Y-90995336D01*
X129037193Y-90944634D01*
X129037193Y-90765555D01*
X129062543Y-90714853D01*
X129081476Y-90695921D01*
X129132178Y-90670571D01*
X129245526Y-90670571D01*
X129258419Y-90669301D01*
X129261704Y-90669520D01*
X129263967Y-90668754D01*
X129269912Y-90668169D01*
X129288666Y-90660400D01*
X129307905Y-90653894D01*
X129311077Y-90651118D01*
X129314972Y-90649505D01*
X129329329Y-90635147D01*
X129344610Y-90621777D01*
X129346478Y-90617998D01*
X129349460Y-90615017D01*
X129357227Y-90596264D01*
X129366231Y-90578059D01*
X129366511Y-90573849D01*
X129368124Y-90569957D01*
X129368124Y-90549660D01*
X129369475Y-90529393D01*
X129368124Y-90525398D01*
X129368124Y-90521185D01*
X129366068Y-90516221D01*
X130455202Y-90516221D01*
X130461142Y-90539994D01*
X130699237Y-91206661D01*
X130709701Y-91228818D01*
X130713911Y-91233469D01*
X130716598Y-91239141D01*
X130730157Y-91251416D01*
X130742433Y-91264976D01*
X130748105Y-91267662D01*
X130752756Y-91271873D01*
X130769980Y-91278024D01*
X130786511Y-91285855D01*
X130792776Y-91286166D01*
X130798686Y-91288277D01*
X130816961Y-91287368D01*
X130835224Y-91288276D01*
X130841130Y-91286166D01*
X130847398Y-91285855D01*
X130863930Y-91278024D01*
X130881154Y-91271873D01*
X130885805Y-91267662D01*
X130891477Y-91264976D01*
X130903752Y-91251416D01*
X130917312Y-91239141D01*
X130919998Y-91233469D01*
X130924209Y-91228818D01*
X130934673Y-91206661D01*
X131170776Y-90545571D01*
X131263384Y-90545571D01*
X131263384Y-90783666D01*
X131263803Y-90787920D01*
X131263532Y-90789742D01*
X131264881Y-90798870D01*
X131265786Y-90808052D01*
X131266490Y-90809753D01*
X131267116Y-90813983D01*
X131314735Y-91004459D01*
X131315378Y-91006258D01*
X131315442Y-91007158D01*
X131319324Y-91017304D01*
X131322980Y-91027534D01*
X131323516Y-91028258D01*
X131324200Y-91030044D01*
X131371818Y-91125281D01*
X131378425Y-91135777D01*
X131379688Y-91138825D01*
X131382505Y-91142258D01*
X131384873Y-91146019D01*
X131387367Y-91148182D01*
X131395233Y-91157767D01*
X131442852Y-91205387D01*
X131452440Y-91213256D01*
X131454602Y-91215749D01*
X131458356Y-91218112D01*
X131461793Y-91220933D01*
X131464846Y-91222197D01*
X131475339Y-91228803D01*
X131570577Y-91276422D01*
X131593463Y-91285180D01*
X131597943Y-91285498D01*
X131602093Y-91287217D01*
X131626479Y-91289619D01*
X131721717Y-91289619D01*
X131746103Y-91287217D01*
X131750251Y-91285498D01*
X131754733Y-91285180D01*
X131777619Y-91276422D01*
X131872856Y-91228804D01*
X131883352Y-91222196D01*
X131886402Y-91220933D01*
X131889835Y-91218114D01*
X131893594Y-91215749D01*
X131895756Y-91213255D01*
X131905344Y-91205387D01*
X131952963Y-91157768D01*
X131960830Y-91148180D01*
X131963323Y-91146019D01*
X131965689Y-91142259D01*
X131968508Y-91138825D01*
X131969770Y-91135776D01*
X131976377Y-91125282D01*
X132023996Y-91030044D01*
X132024679Y-91028258D01*
X132025216Y-91027534D01*
X132028871Y-91017304D01*
X132032754Y-91007158D01*
X132032817Y-91006258D01*
X132033461Y-91004459D01*
X132081080Y-90813983D01*
X132081705Y-90809753D01*
X132082410Y-90808052D01*
X132083314Y-90798872D01*
X132084664Y-90789743D01*
X132084392Y-90787920D01*
X132084812Y-90783666D01*
X132084812Y-90545571D01*
X132084392Y-90541316D01*
X132084664Y-90539494D01*
X132083314Y-90530364D01*
X132082410Y-90521185D01*
X132081705Y-90519483D01*
X132081080Y-90515254D01*
X132041040Y-90355095D01*
X132215765Y-90355095D01*
X132215765Y-90450333D01*
X132216980Y-90462676D01*
X132216747Y-90465967D01*
X132217731Y-90470296D01*
X132218167Y-90474719D01*
X132219430Y-90477770D01*
X132222180Y-90489861D01*
X132269798Y-90632718D01*
X132279789Y-90655093D01*
X132282732Y-90658486D01*
X132284451Y-90662636D01*
X132299996Y-90681578D01*
X132658036Y-91039619D01*
X132340765Y-91039619D01*
X132316379Y-91042021D01*
X132271319Y-91060685D01*
X132236831Y-91095173D01*
X132218167Y-91140233D01*
X132218167Y-91189005D01*
X132236831Y-91234065D01*
X132271319Y-91268553D01*
X132316379Y-91287217D01*
X132340765Y-91289619D01*
X132959812Y-91289619D01*
X132984198Y-91287217D01*
X132984199Y-91287217D01*
X132997396Y-91281750D01*
X133029258Y-91268553D01*
X133063746Y-91234065D01*
X133076431Y-91203439D01*
X133082410Y-91189006D01*
X133082410Y-91140232D01*
X133069080Y-91108051D01*
X133063746Y-91095173D01*
X133063740Y-91095167D01*
X133048200Y-91076231D01*
X132731250Y-90759280D01*
X133218167Y-90759280D01*
X133218167Y-90808052D01*
X133236831Y-90853112D01*
X133271319Y-90887600D01*
X133316379Y-90906264D01*
X133340765Y-90908666D01*
X134102669Y-90908666D01*
X134127055Y-90906264D01*
X134172115Y-90887600D01*
X134206603Y-90853112D01*
X134225267Y-90808052D01*
X134225267Y-90759280D01*
X134206603Y-90714220D01*
X134172115Y-90679732D01*
X134127055Y-90661068D01*
X134102669Y-90658666D01*
X133340765Y-90658666D01*
X133316379Y-90661068D01*
X133271319Y-90679732D01*
X133236831Y-90714220D01*
X133218167Y-90759280D01*
X132731250Y-90759280D01*
X132517541Y-90545571D01*
X134406241Y-90545571D01*
X134406241Y-90783666D01*
X134406660Y-90787920D01*
X134406389Y-90789742D01*
X134407738Y-90798870D01*
X134408643Y-90808052D01*
X134409347Y-90809753D01*
X134409973Y-90813983D01*
X134457592Y-91004459D01*
X134458235Y-91006258D01*
X134458299Y-91007158D01*
X134462181Y-91017304D01*
X134465837Y-91027534D01*
X134466373Y-91028258D01*
X134467057Y-91030044D01*
X134514675Y-91125281D01*
X134521282Y-91135777D01*
X134522545Y-91138825D01*
X134525362Y-91142258D01*
X134527730Y-91146019D01*
X134530224Y-91148182D01*
X134538090Y-91157767D01*
X134585709Y-91205387D01*
X134595297Y-91213256D01*
X134597459Y-91215749D01*
X134601213Y-91218112D01*
X134604650Y-91220933D01*
X134607703Y-91222197D01*
X134618196Y-91228803D01*
X134713434Y-91276422D01*
X134736320Y-91285180D01*
X134740800Y-91285498D01*
X134744950Y-91287217D01*
X134769336Y-91289619D01*
X134864574Y-91289619D01*
X134888960Y-91287217D01*
X134893108Y-91285498D01*
X134897590Y-91285180D01*
X134920476Y-91276422D01*
X135015713Y-91228804D01*
X135026209Y-91222196D01*
X135029259Y-91220933D01*
X135032692Y-91218114D01*
X135036451Y-91215749D01*
X135038613Y-91213255D01*
X135048201Y-91205387D01*
X135095820Y-91157768D01*
X135103687Y-91148180D01*
X135106180Y-91146019D01*
X135108546Y-91142259D01*
X135110209Y-91140233D01*
X135361024Y-91140233D01*
X135361024Y-91189005D01*
X135379688Y-91234065D01*
X135414176Y-91268553D01*
X135459236Y-91287217D01*
X135483622Y-91289619D01*
X136055050Y-91289619D01*
X136079436Y-91287217D01*
X136124496Y-91268553D01*
X136158984Y-91234065D01*
X136177648Y-91189005D01*
X136177648Y-91140233D01*
X136158984Y-91095173D01*
X136124496Y-91060685D01*
X136079436Y-91042021D01*
X136055050Y-91039619D01*
X135894336Y-91039619D01*
X135894336Y-90508490D01*
X135903910Y-90514517D01*
X135999148Y-90562136D01*
X136022034Y-90570894D01*
X136070683Y-90574351D01*
X136116954Y-90558928D01*
X136153799Y-90526972D01*
X136175610Y-90483349D01*
X136179068Y-90434699D01*
X136163645Y-90388429D01*
X136131689Y-90351584D01*
X136110951Y-90338529D01*
X136033855Y-90299981D01*
X135961714Y-90227840D01*
X135873342Y-90095281D01*
X135873286Y-90095213D01*
X135873270Y-90095173D01*
X135873179Y-90095082D01*
X135857817Y-90076323D01*
X135847532Y-90069435D01*
X135838782Y-90060685D01*
X135827469Y-90055999D01*
X135817293Y-90049184D01*
X135805154Y-90046756D01*
X135793722Y-90042021D01*
X135781477Y-90042021D01*
X135769466Y-90039619D01*
X135757324Y-90042021D01*
X135744950Y-90042021D01*
X135733636Y-90046706D01*
X135721621Y-90049084D01*
X135711322Y-90055949D01*
X135699890Y-90060685D01*
X135691231Y-90069344D01*
X135681040Y-90076138D01*
X135674152Y-90086422D01*
X135665402Y-90095173D01*
X135660716Y-90106485D01*
X135653901Y-90116662D01*
X135651473Y-90128800D01*
X135646738Y-90140233D01*
X135644361Y-90164362D01*
X135644336Y-90164489D01*
X135644344Y-90164532D01*
X135644336Y-90164619D01*
X135644336Y-91039619D01*
X135483622Y-91039619D01*
X135459236Y-91042021D01*
X135414176Y-91060685D01*
X135379688Y-91095173D01*
X135361024Y-91140233D01*
X135110209Y-91140233D01*
X135111365Y-91138825D01*
X135112627Y-91135776D01*
X135119234Y-91125282D01*
X135166853Y-91030044D01*
X135167536Y-91028258D01*
X135168073Y-91027534D01*
X135171728Y-91017304D01*
X135175611Y-91007158D01*
X135175674Y-91006258D01*
X135176318Y-91004459D01*
X135223937Y-90813983D01*
X135224562Y-90809753D01*
X135225267Y-90808052D01*
X135226171Y-90798872D01*
X135227521Y-90789743D01*
X135227249Y-90787920D01*
X135227669Y-90783666D01*
X135227669Y-90545571D01*
X135227249Y-90541316D01*
X135227521Y-90539494D01*
X135226171Y-90530364D01*
X135225267Y-90521185D01*
X135224562Y-90519483D01*
X135223937Y-90515254D01*
X135176318Y-90324778D01*
X135175674Y-90322978D01*
X135175611Y-90322079D01*
X135171728Y-90311932D01*
X135168073Y-90301703D01*
X135167536Y-90300978D01*
X135166853Y-90299193D01*
X135119234Y-90203955D01*
X135112627Y-90193460D01*
X135111364Y-90190410D01*
X135108545Y-90186975D01*
X135106180Y-90183218D01*
X135103688Y-90181056D01*
X135095819Y-90171468D01*
X135048200Y-90123850D01*
X135038614Y-90115983D01*
X135036451Y-90113489D01*
X135032689Y-90111120D01*
X135029258Y-90108305D01*
X135026211Y-90107043D01*
X135015713Y-90100434D01*
X134920476Y-90052816D01*
X134897590Y-90044058D01*
X134893108Y-90043739D01*
X134888960Y-90042021D01*
X134864574Y-90039619D01*
X134769336Y-90039619D01*
X134744950Y-90042021D01*
X134740800Y-90043739D01*
X134736320Y-90044058D01*
X134713434Y-90052816D01*
X134618196Y-90100435D01*
X134607701Y-90107041D01*
X134604651Y-90108305D01*
X134601216Y-90111123D01*
X134597459Y-90113489D01*
X134595297Y-90115980D01*
X134585709Y-90123850D01*
X134538091Y-90171469D01*
X134530224Y-90181054D01*
X134527730Y-90183218D01*
X134525361Y-90186979D01*
X134522546Y-90190411D01*
X134521284Y-90193457D01*
X134514675Y-90203956D01*
X134467057Y-90299193D01*
X134466373Y-90300978D01*
X134465837Y-90301703D01*
X134462181Y-90311932D01*
X134458299Y-90322079D01*
X134458235Y-90322978D01*
X134457592Y-90324778D01*
X134409973Y-90515254D01*
X134409347Y-90519483D01*
X134408643Y-90521185D01*
X134407738Y-90530366D01*
X134406389Y-90539495D01*
X134406660Y-90541316D01*
X134406241Y-90545571D01*
X132517541Y-90545571D01*
X132497637Y-90525667D01*
X132465765Y-90430049D01*
X132465765Y-90384603D01*
X132491115Y-90333901D01*
X132510048Y-90314969D01*
X132560750Y-90289619D01*
X132739828Y-90289619D01*
X132790529Y-90314969D01*
X132823804Y-90348245D01*
X132842746Y-90363790D01*
X132887806Y-90382455D01*
X132936579Y-90382455D01*
X132981639Y-90363790D01*
X133016126Y-90329303D01*
X133034791Y-90284243D01*
X133034791Y-90235470D01*
X133016126Y-90190410D01*
X133000581Y-90171468D01*
X132952962Y-90123850D01*
X132943376Y-90115983D01*
X132941213Y-90113489D01*
X132937451Y-90111120D01*
X132934020Y-90108305D01*
X132930973Y-90107043D01*
X132920475Y-90100434D01*
X132825238Y-90052816D01*
X132802352Y-90044058D01*
X132797870Y-90043739D01*
X132793722Y-90042021D01*
X132769336Y-90039619D01*
X132531241Y-90039619D01*
X132506855Y-90042021D01*
X132502705Y-90043739D01*
X132498225Y-90044058D01*
X132475339Y-90052816D01*
X132380101Y-90100435D01*
X132369606Y-90107041D01*
X132366556Y-90108305D01*
X132363121Y-90111123D01*
X132359364Y-90113489D01*
X132357202Y-90115980D01*
X132347614Y-90123850D01*
X132299996Y-90171469D01*
X132292129Y-90181054D01*
X132289635Y-90183218D01*
X132287266Y-90186979D01*
X132284451Y-90190411D01*
X132283189Y-90193457D01*
X132276580Y-90203956D01*
X132228962Y-90299193D01*
X132220204Y-90322079D01*
X132219885Y-90326560D01*
X132218167Y-90330709D01*
X132215765Y-90355095D01*
X132041040Y-90355095D01*
X132033461Y-90324778D01*
X132032817Y-90322978D01*
X132032754Y-90322079D01*
X132028871Y-90311932D01*
X132025216Y-90301703D01*
X132024679Y-90300978D01*
X132023996Y-90299193D01*
X131976377Y-90203955D01*
X131969770Y-90193460D01*
X131968507Y-90190410D01*
X131965688Y-90186975D01*
X131963323Y-90183218D01*
X131960831Y-90181056D01*
X131952962Y-90171468D01*
X131905343Y-90123850D01*
X131895757Y-90115983D01*
X131893594Y-90113489D01*
X131889832Y-90111120D01*
X131886401Y-90108305D01*
X131883354Y-90107043D01*
X131872856Y-90100434D01*
X131777619Y-90052816D01*
X131754733Y-90044058D01*
X131750251Y-90043739D01*
X131746103Y-90042021D01*
X131721717Y-90039619D01*
X131626479Y-90039619D01*
X131602093Y-90042021D01*
X131597943Y-90043739D01*
X131593463Y-90044058D01*
X131570577Y-90052816D01*
X131475339Y-90100435D01*
X131464844Y-90107041D01*
X131461794Y-90108305D01*
X131458359Y-90111123D01*
X131454602Y-90113489D01*
X131452440Y-90115980D01*
X131442852Y-90123850D01*
X131395234Y-90171469D01*
X131387367Y-90181054D01*
X131384873Y-90183218D01*
X131382504Y-90186979D01*
X131379689Y-90190411D01*
X131378427Y-90193457D01*
X131371818Y-90203956D01*
X131324200Y-90299193D01*
X131323516Y-90300978D01*
X131322980Y-90301703D01*
X131319324Y-90311932D01*
X131315442Y-90322079D01*
X131315378Y-90322978D01*
X131314735Y-90324778D01*
X131267116Y-90515254D01*
X131266490Y-90519483D01*
X131265786Y-90521185D01*
X131264881Y-90530366D01*
X131263532Y-90539495D01*
X131263803Y-90541316D01*
X131263384Y-90545571D01*
X131170776Y-90545571D01*
X131172768Y-90539994D01*
X131178707Y-90516221D01*
X131176286Y-90467509D01*
X131155407Y-90423430D01*
X131119249Y-90390698D01*
X131073319Y-90374295D01*
X131024606Y-90376716D01*
X130980528Y-90397595D01*
X130947796Y-90433753D01*
X130937332Y-90455910D01*
X130816955Y-90792966D01*
X130696578Y-90455910D01*
X130686114Y-90433753D01*
X130653382Y-90397595D01*
X130609303Y-90376716D01*
X130560591Y-90374294D01*
X130514661Y-90390698D01*
X130478503Y-90423430D01*
X130457624Y-90467509D01*
X130455202Y-90516221D01*
X129366068Y-90516221D01*
X129360355Y-90502430D01*
X129353849Y-90483192D01*
X129350373Y-90478330D01*
X129349460Y-90476125D01*
X129347133Y-90473798D01*
X129339598Y-90463258D01*
X129187664Y-90289619D01*
X129531240Y-90289619D01*
X129555626Y-90287217D01*
X129600686Y-90268553D01*
X129635174Y-90234065D01*
X129653838Y-90189005D01*
X129653838Y-90140233D01*
X129635174Y-90095173D01*
X129600686Y-90060685D01*
X129555626Y-90042021D01*
X129531240Y-90039619D01*
X128912193Y-90039619D01*
X128899299Y-90040889D01*
X128896015Y-90040670D01*
X128893751Y-90041435D01*
X128887807Y-90042021D01*
X128869052Y-90049789D01*
X128849814Y-90056296D01*
X128846641Y-90059071D01*
X128842747Y-90060685D01*
X128828389Y-90075042D01*
X128813109Y-90088413D01*
X128811240Y-90092191D01*
X128808259Y-90095173D01*
X128800488Y-90113932D01*
X128791489Y-90132131D01*
X128791208Y-90136337D01*
X128789595Y-90140233D01*
X128789595Y-90160535D01*
X128788244Y-90180797D01*
X128789595Y-90184791D01*
X128789595Y-90189005D01*
X128797363Y-90207759D01*
X128803870Y-90226998D01*
X128807345Y-90231859D01*
X128808259Y-90234065D01*
X128810585Y-90236391D01*
X128818121Y-90246932D01*
X129001435Y-90456433D01*
X128951529Y-90481387D01*
X128941034Y-90487993D01*
X128937984Y-90489257D01*
X128934549Y-90492075D01*
X128930792Y-90494441D01*
X128928630Y-90496932D01*
X128919042Y-90504802D01*
X128871424Y-90552421D01*
X128863557Y-90562006D01*
X128861063Y-90564170D01*
X128858694Y-90567931D01*
X128855879Y-90571363D01*
X128854617Y-90574409D01*
X128848008Y-90584908D01*
X128800390Y-90680145D01*
X128791632Y-90703031D01*
X128791313Y-90707512D01*
X128789595Y-90711661D01*
X128787193Y-90736047D01*
X128646213Y-90736047D01*
X128651801Y-90721444D01*
X128652119Y-90716963D01*
X128653838Y-90712814D01*
X128656240Y-90688428D01*
X128656240Y-90640809D01*
X128653838Y-90616423D01*
X128652119Y-90612273D01*
X128651801Y-90607793D01*
X128643043Y-90584907D01*
X128595424Y-90489669D01*
X128592857Y-90485592D01*
X128592216Y-90483667D01*
X128590136Y-90481268D01*
X128582370Y-90468932D01*
X128570529Y-90458662D01*
X128560260Y-90446822D01*
X128547922Y-90439055D01*
X128545525Y-90436976D01*
X128543600Y-90436334D01*
X128539522Y-90433767D01*
X128444285Y-90386149D01*
X128421399Y-90377391D01*
X128416917Y-90377072D01*
X128412769Y-90375354D01*
X128388383Y-90372952D01*
X128245526Y-90372952D01*
X128221140Y-90375354D01*
X128216990Y-90377072D01*
X128212510Y-90377391D01*
X128189624Y-90386149D01*
X128094386Y-90433768D01*
X128073649Y-90446822D01*
X128041693Y-90483667D01*
X128026269Y-90529937D01*
X128029727Y-90578587D01*
X128051539Y-90622210D01*
X128088384Y-90654166D01*
X128134654Y-90669590D01*
X128183304Y-90666132D01*
X128206190Y-90657374D01*
X128275035Y-90622952D01*
X128358875Y-90622952D01*
X128390451Y-90638740D01*
X128403390Y-90664618D01*
X128390451Y-90690496D01*
X128358875Y-90706285D01*
X128245526Y-90706285D01*
X128221140Y-90708687D01*
X128216990Y-90710405D01*
X128212510Y-90710724D01*
X128189624Y-90719482D01*
X128094386Y-90767101D01*
X128090309Y-90769667D01*
X128088384Y-90770309D01*
X128085985Y-90772388D01*
X128073649Y-90780155D01*
X128063379Y-90791995D01*
X128051539Y-90802265D01*
X128043772Y-90814602D01*
X128041693Y-90817000D01*
X128041051Y-90818924D01*
X128038484Y-90823003D01*
X127990866Y-90918240D01*
X127982108Y-90941126D01*
X127981789Y-90945607D01*
X127980071Y-90949756D01*
X127977669Y-90974142D01*
X127037192Y-90974142D01*
X127037192Y-90497952D01*
X127034790Y-90473566D01*
X127016126Y-90428506D01*
X126981638Y-90394018D01*
X126936578Y-90375354D01*
X126887806Y-90375354D01*
X126842746Y-90394018D01*
X126842155Y-90394608D01*
X126825237Y-90386149D01*
X126802351Y-90377391D01*
X126797869Y-90377072D01*
X126793721Y-90375354D01*
X126769335Y-90372952D01*
X126626478Y-90372952D01*
X126602092Y-90375354D01*
X126597942Y-90377072D01*
X126593462Y-90377391D01*
X126570576Y-90386149D01*
X126483621Y-90429626D01*
X126396666Y-90386149D01*
X126373780Y-90377391D01*
X126369298Y-90377072D01*
X126365150Y-90375354D01*
X126340764Y-90372952D01*
X126197907Y-90372952D01*
X126173521Y-90375354D01*
X126169371Y-90377072D01*
X126164891Y-90377391D01*
X126142006Y-90386148D01*
X126046767Y-90433767D01*
X126042687Y-90436334D01*
X126040764Y-90436976D01*
X126038368Y-90439053D01*
X126026029Y-90446821D01*
X126015756Y-90458665D01*
X126003919Y-90468932D01*
X125996154Y-90481266D01*
X125994073Y-90483666D01*
X125993430Y-90485592D01*
X125990864Y-90489670D01*
X125943246Y-90584907D01*
X125934488Y-90607793D01*
X125934169Y-90612274D01*
X125932451Y-90616423D01*
X125930049Y-90640809D01*
X125656164Y-90640809D01*
X125677608Y-90622210D01*
X125699419Y-90578587D01*
X125702877Y-90529937D01*
X125687454Y-90483667D01*
X125655498Y-90446822D01*
X125634760Y-90433767D01*
X125539523Y-90386149D01*
X125516637Y-90377391D01*
X125512155Y-90377072D01*
X125508007Y-90375354D01*
X125483621Y-90372952D01*
X125293145Y-90372952D01*
X125268759Y-90375354D01*
X125264609Y-90377072D01*
X125260129Y-90377391D01*
X125237243Y-90386149D01*
X125142005Y-90433768D01*
X125137928Y-90436334D01*
X125136003Y-90436976D01*
X125133604Y-90439055D01*
X125121268Y-90446822D01*
X125110998Y-90458662D01*
X125099158Y-90468932D01*
X125091391Y-90481269D01*
X125089312Y-90483667D01*
X125088670Y-90485591D01*
X125086103Y-90489670D01*
X125038485Y-90584907D01*
X125029727Y-90607793D01*
X125029408Y-90612274D01*
X125027690Y-90616423D01*
X125025288Y-90640809D01*
X124816059Y-90640809D01*
X124867625Y-90575180D01*
X124880802Y-90554520D01*
X124893965Y-90507558D01*
X124888154Y-90459132D01*
X124864254Y-90416617D01*
X124825903Y-90386485D01*
X124778941Y-90373322D01*
X124730515Y-90379133D01*
X124688000Y-90403033D01*
X124671045Y-90420724D01*
X124507430Y-90628960D01*
X124343816Y-90420724D01*
X124326861Y-90403033D01*
X124284346Y-90379133D01*
X124235920Y-90373322D01*
X124188958Y-90386485D01*
X124150607Y-90416617D01*
X124126707Y-90459132D01*
X124120896Y-90507558D01*
X123995896Y-90507558D01*
X123995896Y-89914619D01*
X136304068Y-89914619D01*
X136304068Y-91414619D01*
G37*
G36*
X122285029Y-87892217D02*
G01*
X121027929Y-87892217D01*
X121027929Y-87239280D01*
X121152929Y-87239280D01*
X121152929Y-87288052D01*
X121171593Y-87333112D01*
X121206081Y-87367600D01*
X121251141Y-87386264D01*
X121275527Y-87388666D01*
X121531479Y-87388666D01*
X121531479Y-87644619D01*
X121533881Y-87669005D01*
X121552545Y-87714065D01*
X121587033Y-87748553D01*
X121632093Y-87767217D01*
X121680865Y-87767217D01*
X121725925Y-87748553D01*
X121760413Y-87714065D01*
X121779077Y-87669005D01*
X121781479Y-87644619D01*
X121781479Y-87388666D01*
X122037431Y-87388666D01*
X122061817Y-87386264D01*
X122106877Y-87367600D01*
X122141365Y-87333112D01*
X122160029Y-87288052D01*
X122160029Y-87239280D01*
X122141365Y-87194220D01*
X122106877Y-87159732D01*
X122061817Y-87141068D01*
X122037431Y-87138666D01*
X121781479Y-87138666D01*
X121781479Y-86882714D01*
X121779077Y-86858328D01*
X121760413Y-86813268D01*
X121725925Y-86778780D01*
X121680865Y-86760116D01*
X121632093Y-86760116D01*
X121587033Y-86778780D01*
X121552545Y-86813268D01*
X121533881Y-86858328D01*
X121531479Y-86882714D01*
X121531479Y-87138666D01*
X121275527Y-87138666D01*
X121251141Y-87141068D01*
X121206081Y-87159732D01*
X121171593Y-87194220D01*
X121152929Y-87239280D01*
X121027929Y-87239280D01*
X121027929Y-86635116D01*
X122285029Y-86635116D01*
X122285029Y-87892217D01*
G37*
D14*
%TO.C,R41*%
X135667621Y-77820000D02*
X135332379Y-77820000D01*
X135667621Y-78580000D02*
X135332379Y-78580000D01*
%TO.C,C7*%
X131521693Y-82730810D02*
X131369190Y-82578307D01*
X132030810Y-82221693D02*
X131878307Y-82069190D01*
%TO.C,C50*%
X112461252Y-84655000D02*
X111938748Y-84655000D01*
X112461252Y-86125000D02*
X111938748Y-86125000D01*
%TO.C,C54*%
X134682845Y-69808751D02*
X134944097Y-69356249D01*
X135955903Y-70543751D02*
X136217155Y-70091249D01*
D15*
%TO.C,G\u002A\u002A\u002A*%
G36*
X130359092Y-76146609D02*
G01*
X130356552Y-76149149D01*
X130354011Y-76146609D01*
X130356552Y-76144068D01*
X130359092Y-76146609D01*
G37*
G36*
X130549924Y-76256079D02*
G01*
X130554711Y-76260932D01*
X130555658Y-76262731D01*
X130555311Y-76266013D01*
X130554418Y-76265784D01*
X130549630Y-76260932D01*
X130548684Y-76259133D01*
X130549031Y-76255851D01*
X130549924Y-76256079D01*
G37*
G36*
X129388018Y-79609511D02*
G01*
X129393623Y-79626063D01*
X129401718Y-79650184D01*
X129408185Y-79669723D01*
X129412472Y-79683002D01*
X129414023Y-79688342D01*
X129413571Y-79688495D01*
X129405832Y-79688985D01*
X129389339Y-79689433D01*
X129365175Y-79689826D01*
X129334421Y-79690154D01*
X129298161Y-79690403D01*
X129257478Y-79690562D01*
X129213453Y-79690618D01*
X129012883Y-79690618D01*
X129039703Y-79613132D01*
X129066524Y-79535647D01*
X129214269Y-79534301D01*
X129362013Y-79532955D01*
X129388018Y-79609511D01*
G37*
G36*
X131597596Y-78041113D02*
G01*
X131592383Y-78053219D01*
X131580331Y-78069651D01*
X131562156Y-78089459D01*
X131538570Y-78111692D01*
X131534979Y-78114853D01*
X131518439Y-78128418D01*
X131508157Y-78134853D01*
X131504358Y-78134055D01*
X131507263Y-78125924D01*
X131507405Y-78125665D01*
X131513762Y-78116782D01*
X131524718Y-78103882D01*
X131538650Y-78088625D01*
X131553937Y-78072667D01*
X131568956Y-78057668D01*
X131582086Y-78045286D01*
X131591705Y-78037178D01*
X131596190Y-78035004D01*
X131597596Y-78041113D01*
G37*
G36*
X130374195Y-76155717D02*
G01*
X130386287Y-76161617D01*
X130406858Y-76172202D01*
X130419262Y-76178794D01*
X130441876Y-76191310D01*
X130465562Y-76204911D01*
X130488660Y-76218592D01*
X130509512Y-76231348D01*
X130526460Y-76242177D01*
X130537845Y-76250073D01*
X130542009Y-76254032D01*
X130541648Y-76254358D01*
X130535910Y-76252309D01*
X130525399Y-76246414D01*
X130522486Y-76244638D01*
X130509427Y-76236851D01*
X130490413Y-76225653D01*
X130467523Y-76212266D01*
X130442832Y-76197910D01*
X130411908Y-76179892D01*
X130389437Y-76166589D01*
X130375705Y-76158156D01*
X130370646Y-76154548D01*
X130374195Y-76155717D01*
G37*
G36*
X131715213Y-77683564D02*
G01*
X131715562Y-77699196D01*
X131715053Y-77718681D01*
X131707243Y-77774679D01*
X131690322Y-77832410D01*
X131664671Y-77890756D01*
X131630670Y-77948600D01*
X131626800Y-77954356D01*
X131616577Y-77968904D01*
X131609051Y-77978638D01*
X131605630Y-77981698D01*
X131606456Y-77976983D01*
X131610620Y-77965492D01*
X131617232Y-77949880D01*
X131621379Y-77940022D01*
X131629426Y-77919115D01*
X131639065Y-77892633D01*
X131649661Y-77862466D01*
X131660578Y-77830503D01*
X131671183Y-77798636D01*
X131680841Y-77768753D01*
X131688918Y-77742746D01*
X131694778Y-77722505D01*
X131697788Y-77709919D01*
X131698385Y-77706760D01*
X131702830Y-77691366D01*
X131708308Y-77680274D01*
X131711373Y-77676695D01*
X131714011Y-77676571D01*
X131715213Y-77683564D01*
G37*
G36*
X129215349Y-79112846D02*
G01*
X129217635Y-79116765D01*
X129221080Y-79124845D01*
X129226105Y-79138179D01*
X129233133Y-79157858D01*
X129242585Y-79184976D01*
X129254881Y-79220624D01*
X129260100Y-79235790D01*
X129270932Y-79267259D01*
X129281396Y-79297654D01*
X129290514Y-79324128D01*
X129297306Y-79343838D01*
X129311759Y-79385757D01*
X129215541Y-79385757D01*
X129213781Y-79385756D01*
X129183945Y-79385605D01*
X129158018Y-79385211D01*
X129137564Y-79384621D01*
X129124145Y-79383877D01*
X129119324Y-79383026D01*
X129120240Y-79379587D01*
X129124027Y-79367758D01*
X129130268Y-79349024D01*
X129138444Y-79324887D01*
X129148034Y-79296850D01*
X129158516Y-79266415D01*
X129169370Y-79235084D01*
X129180076Y-79204359D01*
X129190111Y-79175743D01*
X129198956Y-79150738D01*
X129206089Y-79130847D01*
X129210991Y-79117571D01*
X129213139Y-79112413D01*
X129213801Y-79111996D01*
X129215349Y-79112846D01*
G37*
G36*
X132118776Y-79160430D02*
G01*
X132119612Y-79175376D01*
X132120353Y-79198916D01*
X132120987Y-79230330D01*
X132121501Y-79268897D01*
X132121884Y-79313896D01*
X132122123Y-79364606D01*
X132122205Y-79420308D01*
X132122205Y-79690618D01*
X131954531Y-79690618D01*
X131927144Y-79690585D01*
X131889213Y-79690423D01*
X131855523Y-79690143D01*
X131827258Y-79689760D01*
X131805603Y-79689292D01*
X131791741Y-79688757D01*
X131786858Y-79688172D01*
X131786861Y-79688149D01*
X131789640Y-79683192D01*
X131797220Y-79670550D01*
X131809039Y-79651125D01*
X131824538Y-79625821D01*
X131843156Y-79595541D01*
X131864334Y-79561188D01*
X131887512Y-79523664D01*
X131912128Y-79483874D01*
X131937624Y-79442719D01*
X131963438Y-79401104D01*
X131989011Y-79359930D01*
X132013782Y-79320102D01*
X132037192Y-79282522D01*
X132058680Y-79248093D01*
X132077686Y-79217718D01*
X132093650Y-79192301D01*
X132106012Y-79172744D01*
X132114211Y-79159951D01*
X132117688Y-79154825D01*
X132117857Y-79154798D01*
X132118776Y-79160430D01*
G37*
G36*
X128894489Y-77528966D02*
G01*
X128913218Y-77538676D01*
X128944061Y-77554786D01*
X128966919Y-77566960D01*
X128982512Y-77575626D01*
X128991563Y-77581214D01*
X128994794Y-77584154D01*
X128992925Y-77584874D01*
X128986680Y-77583804D01*
X128985073Y-77583483D01*
X128982028Y-77583731D01*
X128984903Y-77586686D01*
X128994229Y-77592651D01*
X129010535Y-77601931D01*
X129034350Y-77614830D01*
X129066202Y-77631651D01*
X129106622Y-77652698D01*
X129111600Y-77655283D01*
X129139560Y-77669962D01*
X129164528Y-77683334D01*
X129184989Y-77694570D01*
X129199431Y-77702841D01*
X129206337Y-77707316D01*
X129207075Y-77707864D01*
X129215583Y-77712730D01*
X129231773Y-77721157D01*
X129254406Y-77732530D01*
X129282247Y-77746231D01*
X129314059Y-77761646D01*
X129348606Y-77778159D01*
X129357329Y-77782306D01*
X129391043Y-77798434D01*
X129421540Y-77813178D01*
X129447624Y-77825950D01*
X129468099Y-77836159D01*
X129481771Y-77843219D01*
X129487444Y-77846539D01*
X129490075Y-77850900D01*
X129484121Y-77850699D01*
X129469256Y-77845615D01*
X129445480Y-77835650D01*
X129412793Y-77820804D01*
X129404641Y-77817040D01*
X129381129Y-77806529D01*
X129361030Y-77798040D01*
X129346261Y-77792362D01*
X129338739Y-77790286D01*
X129329385Y-77788402D01*
X129316705Y-77783221D01*
X129315191Y-77782453D01*
X129300287Y-77775971D01*
X129283678Y-77769986D01*
X129278756Y-77768285D01*
X129260433Y-77760564D01*
X129242625Y-77751483D01*
X129236970Y-77748449D01*
X129219300Y-77740020D01*
X129197160Y-77730368D01*
X129174032Y-77721036D01*
X129162889Y-77716450D01*
X129141192Y-77706860D01*
X129112936Y-77693895D01*
X129079559Y-77678231D01*
X129042499Y-77660546D01*
X129003194Y-77641516D01*
X128963083Y-77621816D01*
X128799220Y-77540741D01*
X128799220Y-77510195D01*
X128799220Y-77479650D01*
X128894489Y-77528966D01*
G37*
G36*
X133600781Y-77292378D02*
G01*
X133600781Y-79690618D01*
X133382297Y-79690618D01*
X133163813Y-79690618D01*
X133163813Y-79294298D01*
X133163813Y-78897979D01*
X132876736Y-78897979D01*
X132589658Y-78897979D01*
X132589658Y-78974194D01*
X132589658Y-79050410D01*
X132775115Y-79050410D01*
X132960573Y-79050410D01*
X132960573Y-79119003D01*
X132960573Y-79187597D01*
X132787818Y-79187597D01*
X132615063Y-79187597D01*
X132615063Y-79263812D01*
X132615063Y-79340028D01*
X132787818Y-79340028D01*
X132960573Y-79340028D01*
X132960573Y-79439107D01*
X132960573Y-79538187D01*
X132775115Y-79538187D01*
X132589658Y-79538187D01*
X132589658Y-79614402D01*
X132589658Y-79690618D01*
X132449930Y-79690618D01*
X132310202Y-79690618D01*
X132310202Y-79294298D01*
X132310202Y-78897979D01*
X132186988Y-78898063D01*
X132063773Y-78898147D01*
X131918964Y-79125137D01*
X131774155Y-79352128D01*
X131772833Y-79125054D01*
X131771510Y-78897979D01*
X131677564Y-78897979D01*
X131583617Y-78897979D01*
X131583617Y-79294298D01*
X131583617Y-79690618D01*
X131381647Y-79690347D01*
X131179676Y-79690077D01*
X131220324Y-79678049D01*
X131221874Y-79677589D01*
X131245980Y-79670116D01*
X131270441Y-79662061D01*
X131290188Y-79655089D01*
X131319404Y-79644158D01*
X131319404Y-79547984D01*
X131319363Y-79521101D01*
X131319124Y-79494421D01*
X131318569Y-79475556D01*
X131317577Y-79463184D01*
X131316032Y-79455984D01*
X131313815Y-79452633D01*
X131310807Y-79451810D01*
X131308273Y-79452331D01*
X131297506Y-79457088D01*
X131281870Y-79465742D01*
X131263808Y-79476987D01*
X131232149Y-79496378D01*
X131175559Y-79524018D01*
X131115334Y-79544389D01*
X131097028Y-79548972D01*
X131077943Y-79552457D01*
X131057176Y-79554597D01*
X131031902Y-79555674D01*
X130999300Y-79555971D01*
X130990719Y-79555967D01*
X130963901Y-79555795D01*
X130944454Y-79555141D01*
X130930171Y-79553698D01*
X130918843Y-79551155D01*
X130908263Y-79547203D01*
X130896222Y-79541532D01*
X130877362Y-79530947D01*
X130861327Y-79516900D01*
X130852780Y-79500329D01*
X130850257Y-79479247D01*
X130850656Y-79469691D01*
X130854749Y-79454686D01*
X130865077Y-79440879D01*
X130870890Y-79435103D01*
X130882067Y-79426341D01*
X130895895Y-79418713D01*
X130913852Y-79411677D01*
X130937415Y-79404691D01*
X130968062Y-79397213D01*
X131007270Y-79388699D01*
X131026614Y-79384538D01*
X131058315Y-79377293D01*
X131087945Y-79370041D01*
X131112872Y-79363437D01*
X131130460Y-79358133D01*
X131180050Y-79338221D01*
X131222388Y-79314017D01*
X131256059Y-79285637D01*
X131281574Y-79252549D01*
X131299443Y-79214218D01*
X131310175Y-79170111D01*
X131312175Y-79153451D01*
X131311283Y-79107323D01*
X131300864Y-79063874D01*
X131281259Y-79023693D01*
X131252809Y-78987370D01*
X131215854Y-78955495D01*
X131170733Y-78928656D01*
X131158726Y-78922869D01*
X131128399Y-78909654D01*
X131099869Y-78899887D01*
X131070756Y-78893092D01*
X131038679Y-78888794D01*
X131001258Y-78886517D01*
X130956112Y-78885786D01*
X130930728Y-78885966D01*
X130868790Y-78888917D01*
X130812979Y-78895756D01*
X130760781Y-78906858D01*
X130709682Y-78922600D01*
X130671575Y-78936087D01*
X130670187Y-79026275D01*
X130668800Y-79116463D01*
X130681365Y-79116463D01*
X130687455Y-79115412D01*
X130701550Y-79109796D01*
X130716911Y-79100953D01*
X130737221Y-79088457D01*
X130776210Y-79068921D01*
X130818707Y-79052076D01*
X130860582Y-79039682D01*
X130892431Y-79033997D01*
X130927881Y-79030883D01*
X130964039Y-79030340D01*
X130998257Y-79032316D01*
X131027886Y-79036755D01*
X131050278Y-79043602D01*
X131058901Y-79047851D01*
X131081838Y-79064566D01*
X131096048Y-79084908D01*
X131100921Y-79108101D01*
X131100169Y-79120371D01*
X131096392Y-79134136D01*
X131088529Y-79145814D01*
X131075583Y-79155978D01*
X131056556Y-79165200D01*
X131030450Y-79174052D01*
X130996267Y-79183107D01*
X130953010Y-79192937D01*
X130930069Y-79198001D01*
X130875138Y-79211238D01*
X130828816Y-79224371D01*
X130789989Y-79237870D01*
X130757545Y-79252202D01*
X130730374Y-79267836D01*
X130707363Y-79285242D01*
X130687400Y-79304887D01*
X130665406Y-79335651D01*
X130649049Y-79373939D01*
X130640572Y-79415824D01*
X130640133Y-79459656D01*
X130647894Y-79503783D01*
X130664013Y-79546551D01*
X130679295Y-79571955D01*
X130707810Y-79604692D01*
X130744043Y-79634470D01*
X130786620Y-79660205D01*
X130834167Y-79680813D01*
X130837950Y-79682185D01*
X130842501Y-79684074D01*
X130844564Y-79685628D01*
X130843372Y-79686882D01*
X130838158Y-79687870D01*
X130828155Y-79688627D01*
X130812595Y-79689187D01*
X130790710Y-79689585D01*
X130761733Y-79689855D01*
X130724897Y-79690033D01*
X130679433Y-79690151D01*
X130624575Y-79690246D01*
X130389578Y-79690618D01*
X130389578Y-79294298D01*
X130389578Y-78897979D01*
X130102501Y-78897979D01*
X129815424Y-78897979D01*
X129815424Y-78974131D01*
X129815424Y-79050283D01*
X129999610Y-79051617D01*
X130183797Y-79052950D01*
X130185215Y-79120274D01*
X130186633Y-79187597D01*
X130013731Y-79187597D01*
X129840829Y-79187597D01*
X129840829Y-79263745D01*
X129840829Y-79339892D01*
X130012313Y-79341230D01*
X130183797Y-79342568D01*
X130185177Y-79440378D01*
X130186557Y-79538187D01*
X130000990Y-79538187D01*
X129815424Y-79538187D01*
X129815424Y-79614512D01*
X129815424Y-79690837D01*
X129718388Y-79689457D01*
X129621353Y-79688077D01*
X129475547Y-79294298D01*
X129329741Y-78900520D01*
X129211253Y-78900520D01*
X129092765Y-78900520D01*
X128947263Y-79293435D01*
X128801761Y-79686350D01*
X128800467Y-79155383D01*
X128800370Y-79112125D01*
X128800205Y-79019568D01*
X128800080Y-78919750D01*
X128799993Y-78814598D01*
X128799944Y-78706041D01*
X128799935Y-78596007D01*
X128799964Y-78486426D01*
X128800032Y-78379224D01*
X128800138Y-78276331D01*
X128800283Y-78179676D01*
X128800467Y-78091186D01*
X128801761Y-77557957D01*
X128900841Y-77610913D01*
X128913099Y-77617490D01*
X128941441Y-77632895D01*
X128966437Y-77646755D01*
X128986676Y-77658271D01*
X129000747Y-77666646D01*
X129007239Y-77671081D01*
X129011143Y-77675690D01*
X129011708Y-77680732D01*
X129005107Y-77681085D01*
X128992771Y-77676239D01*
X128990522Y-77675117D01*
X128980945Y-77671476D01*
X128977059Y-77672054D01*
X128977169Y-77672314D01*
X128982677Y-77676599D01*
X128995526Y-77684856D01*
X129014375Y-77696271D01*
X129037882Y-77710027D01*
X129064706Y-77725310D01*
X129067441Y-77726849D01*
X129094897Y-77742414D01*
X129119684Y-77756646D01*
X129140250Y-77768642D01*
X129155044Y-77777498D01*
X129162513Y-77782310D01*
X129168325Y-77786891D01*
X129169103Y-77789626D01*
X129160964Y-77790156D01*
X129151490Y-77787704D01*
X129136741Y-77780697D01*
X129120316Y-77770709D01*
X129101963Y-77758765D01*
X129081152Y-77746413D01*
X129063441Y-77737156D01*
X129050578Y-77731895D01*
X129044310Y-77731531D01*
X129044051Y-77731807D01*
X129043532Y-77735908D01*
X129046109Y-77737604D01*
X129055345Y-77743560D01*
X129068514Y-77751993D01*
X129082169Y-77761392D01*
X129101215Y-77775737D01*
X129119324Y-77790464D01*
X129137377Y-77804479D01*
X129160613Y-77820318D01*
X129182837Y-77833604D01*
X129184844Y-77834696D01*
X129204183Y-77845615D01*
X129221638Y-77856094D01*
X129233647Y-77864000D01*
X129237470Y-77866659D01*
X129252753Y-77876373D01*
X129274494Y-77889444D01*
X129300885Y-77904846D01*
X129330123Y-77921554D01*
X129360401Y-77938541D01*
X129389915Y-77954782D01*
X129416859Y-77969251D01*
X129439428Y-77980923D01*
X129453737Y-77987900D01*
X129481271Y-78000752D01*
X129515713Y-78016360D01*
X129555589Y-78034082D01*
X129599426Y-78053274D01*
X129645753Y-78073293D01*
X129693095Y-78093494D01*
X129739981Y-78113235D01*
X129784937Y-78131873D01*
X129875847Y-78167102D01*
X130006685Y-78210156D01*
X130136237Y-78243589D01*
X130265093Y-78267568D01*
X130265224Y-78267587D01*
X130310605Y-78274386D01*
X130347690Y-78279912D01*
X130378224Y-78284407D01*
X130403955Y-78288117D01*
X130426629Y-78291286D01*
X130447992Y-78294157D01*
X130469792Y-78296975D01*
X130493774Y-78299984D01*
X130521685Y-78303427D01*
X130541559Y-78305925D01*
X130568068Y-78309445D01*
X130590078Y-78312590D01*
X130605725Y-78315090D01*
X130613143Y-78316675D01*
X130617818Y-78317566D01*
X130631606Y-78319081D01*
X130652321Y-78320825D01*
X130678115Y-78322646D01*
X130707142Y-78324392D01*
X130727751Y-78325638D01*
X130756408Y-78327726D01*
X130781306Y-78329952D01*
X130800315Y-78332116D01*
X130811303Y-78334024D01*
X130813406Y-78334827D01*
X130811090Y-78336062D01*
X130800739Y-78336692D01*
X130783782Y-78336754D01*
X130761650Y-78336284D01*
X130735773Y-78335319D01*
X130707582Y-78333898D01*
X130678508Y-78332057D01*
X130649980Y-78329832D01*
X130642964Y-78329280D01*
X130625140Y-78328445D01*
X130612723Y-78328722D01*
X130608062Y-78330096D01*
X130608640Y-78331660D01*
X130614874Y-78333986D01*
X130615120Y-78333991D01*
X130622951Y-78334559D01*
X130639062Y-78335974D01*
X130661776Y-78338082D01*
X130689415Y-78340725D01*
X130720305Y-78343750D01*
X130766491Y-78348195D01*
X130816313Y-78352564D01*
X130858176Y-78355624D01*
X130893253Y-78357413D01*
X130922717Y-78357970D01*
X130947742Y-78357335D01*
X130969502Y-78355546D01*
X130989169Y-78352642D01*
X130991456Y-78352230D01*
X131014194Y-78348331D01*
X131043078Y-78343622D01*
X131074638Y-78338659D01*
X131105403Y-78334000D01*
X131110140Y-78333293D01*
X131159932Y-78325000D01*
X131204830Y-78315572D01*
X131248303Y-78304104D01*
X131293819Y-78289689D01*
X131344846Y-78271421D01*
X131358747Y-78266189D01*
X131404342Y-78248109D01*
X131442406Y-78231063D01*
X131474765Y-78213902D01*
X131503245Y-78195478D01*
X131529672Y-78174641D01*
X131555872Y-78150242D01*
X131583670Y-78121134D01*
X131588954Y-78115341D01*
X131634601Y-78062176D01*
X131672151Y-78011770D01*
X131702504Y-77962507D01*
X131726559Y-77912770D01*
X131745214Y-77860945D01*
X131759370Y-77805416D01*
X131761566Y-77791900D01*
X131764178Y-77766824D01*
X131766435Y-77735190D01*
X131768294Y-77698854D01*
X131769715Y-77659670D01*
X131770657Y-77619493D01*
X131771081Y-77580178D01*
X131770944Y-77543579D01*
X131770206Y-77511552D01*
X131768827Y-77485952D01*
X131766765Y-77468633D01*
X131758773Y-77432931D01*
X131737341Y-77363373D01*
X131708145Y-77292378D01*
X131694539Y-77262094D01*
X131682877Y-77233788D01*
X131675681Y-77213007D01*
X131673106Y-77200207D01*
X131675304Y-77195839D01*
X131676239Y-77194029D01*
X131674525Y-77185364D01*
X131669557Y-77171955D01*
X131659319Y-77148070D01*
X131669738Y-77157499D01*
X131672650Y-77160044D01*
X131678565Y-77163480D01*
X131680156Y-77159598D01*
X131680147Y-77159387D01*
X131676377Y-77152119D01*
X131667107Y-77140540D01*
X131654251Y-77127054D01*
X131648954Y-77121719D01*
X131632407Y-77103668D01*
X131614189Y-77082306D01*
X131597375Y-77061192D01*
X131587906Y-77049292D01*
X131569900Y-77027986D01*
X131548075Y-77003202D01*
X131524367Y-76977127D01*
X131500711Y-76951950D01*
X131435018Y-76883356D01*
X131541074Y-76880126D01*
X131562636Y-76879387D01*
X131621685Y-76876225D01*
X131673634Y-76871289D01*
X131720730Y-76864108D01*
X131765223Y-76854207D01*
X131809363Y-76841114D01*
X131855399Y-76824356D01*
X131905580Y-76803458D01*
X131923750Y-76795498D01*
X131946723Y-76785057D01*
X131964077Y-76776176D01*
X131978103Y-76767343D01*
X131991092Y-76757052D01*
X132005336Y-76743793D01*
X132023125Y-76726057D01*
X132044893Y-76703385D01*
X132094382Y-76644617D01*
X132134167Y-76585318D01*
X132164574Y-76524876D01*
X132185930Y-76462681D01*
X132198561Y-76398122D01*
X132200217Y-76382690D01*
X132201520Y-76320828D01*
X132195137Y-76254323D01*
X132181252Y-76184536D01*
X132160050Y-76112831D01*
X132159097Y-76110096D01*
X132148034Y-76081379D01*
X132133111Y-76046511D01*
X132115294Y-76007434D01*
X132095548Y-75966093D01*
X132074836Y-75924433D01*
X132054123Y-75884397D01*
X132034375Y-75847929D01*
X132016554Y-75816975D01*
X132001627Y-75793478D01*
X131971932Y-75751745D01*
X131922083Y-75687397D01*
X131867514Y-75623681D01*
X131807314Y-75559642D01*
X131740570Y-75494326D01*
X131666371Y-75426777D01*
X131583804Y-75356042D01*
X131536648Y-75317362D01*
X131419106Y-75226964D01*
X131299777Y-75144008D01*
X131175978Y-75066687D01*
X131045029Y-74993195D01*
X131022114Y-74980925D01*
X130992566Y-74964953D01*
X130965101Y-74949953D01*
X130942021Y-74937183D01*
X130925626Y-74927900D01*
X130923815Y-74926860D01*
X130903247Y-74916009D01*
X130882993Y-74906775D01*
X130867194Y-74901058D01*
X130867094Y-74901030D01*
X130866634Y-74900378D01*
X130870108Y-74899769D01*
X130877814Y-74899202D01*
X130890048Y-74898676D01*
X130907106Y-74898189D01*
X130929284Y-74897739D01*
X130956880Y-74897325D01*
X130990190Y-74896946D01*
X131029511Y-74896601D01*
X131075138Y-74896287D01*
X131127369Y-74896004D01*
X131186501Y-74895749D01*
X131252828Y-74895522D01*
X131326649Y-74895322D01*
X131408260Y-74895146D01*
X131497957Y-74894993D01*
X131596036Y-74894861D01*
X131702795Y-74894750D01*
X131818530Y-74894658D01*
X131943537Y-74894584D01*
X132078113Y-74894525D01*
X132222555Y-74894481D01*
X133600781Y-74894138D01*
X133600781Y-77292378D01*
G37*
G36*
X130185826Y-74893987D02*
G01*
X130255650Y-74894092D01*
X130318236Y-74894307D01*
X130374062Y-74894656D01*
X130423604Y-74895169D01*
X130467340Y-74895872D01*
X130505746Y-74896791D01*
X130539299Y-74897955D01*
X130568476Y-74899391D01*
X130593754Y-74901125D01*
X130615609Y-74903185D01*
X130634519Y-74905598D01*
X130650960Y-74908391D01*
X130665409Y-74911591D01*
X130678343Y-74915225D01*
X130690238Y-74919321D01*
X130701573Y-74923906D01*
X130712822Y-74929006D01*
X130724465Y-74934649D01*
X130736976Y-74940863D01*
X130750833Y-74947673D01*
X130766513Y-74955108D01*
X130869382Y-75005093D01*
X130984630Y-75067253D01*
X131097427Y-75135078D01*
X131209850Y-75209825D01*
X131323972Y-75292749D01*
X131344905Y-75308739D01*
X131396187Y-75349260D01*
X131446809Y-75391060D01*
X131495813Y-75433251D01*
X131542243Y-75474941D01*
X131585141Y-75515240D01*
X131623552Y-75553259D01*
X131656518Y-75588107D01*
X131683082Y-75618894D01*
X131702288Y-75644729D01*
X131705951Y-75650196D01*
X131718475Y-75667770D01*
X131729762Y-75682083D01*
X131737736Y-75690458D01*
X131743281Y-75695527D01*
X131756728Y-75710238D01*
X131773364Y-75730443D01*
X131791716Y-75754168D01*
X131810314Y-75779441D01*
X131827685Y-75804288D01*
X131842360Y-75826738D01*
X131852866Y-75844816D01*
X131854474Y-75847966D01*
X131863561Y-75867251D01*
X131874567Y-75892448D01*
X131886836Y-75921863D01*
X131899712Y-75953799D01*
X131912539Y-75986561D01*
X131924660Y-76018454D01*
X131935419Y-76047782D01*
X131944159Y-76072849D01*
X131950225Y-76091961D01*
X131952960Y-76103420D01*
X131953700Y-76109345D01*
X131955910Y-76126242D01*
X131958856Y-76148209D01*
X131962107Y-76172014D01*
X131963668Y-76184172D01*
X131966190Y-76217126D01*
X131964859Y-76242830D01*
X131959481Y-76262999D01*
X131949859Y-76279349D01*
X131941712Y-76288435D01*
X131918589Y-76307864D01*
X131887667Y-76328000D01*
X131850371Y-76347864D01*
X131835829Y-76354666D01*
X131820906Y-76360894D01*
X131804774Y-76366626D01*
X131785687Y-76372388D01*
X131761899Y-76378703D01*
X131731664Y-76386097D01*
X131693239Y-76395095D01*
X131691582Y-76395482D01*
X131666106Y-76402824D01*
X131650237Y-76410737D01*
X131643451Y-76419599D01*
X131645224Y-76429790D01*
X131647525Y-76435077D01*
X131647191Y-76441652D01*
X131640673Y-76446416D01*
X131626647Y-76450125D01*
X131603792Y-76453538D01*
X131602860Y-76453653D01*
X131584013Y-76455285D01*
X131556665Y-76456783D01*
X131522368Y-76458129D01*
X131482675Y-76459305D01*
X131439142Y-76460291D01*
X131393321Y-76461070D01*
X131346766Y-76461621D01*
X131301031Y-76461927D01*
X131257669Y-76461970D01*
X131218234Y-76461729D01*
X131184280Y-76461187D01*
X131157360Y-76460325D01*
X131139028Y-76459124D01*
X131127737Y-76457982D01*
X131101844Y-76455409D01*
X131078015Y-76453097D01*
X131060272Y-76451437D01*
X131032327Y-76448923D01*
X131052651Y-76458955D01*
X131056875Y-76460890D01*
X131074239Y-76466711D01*
X131089488Y-76469120D01*
X131090143Y-76469128D01*
X131102238Y-76471193D01*
X131106002Y-76477248D01*
X131105965Y-76478102D01*
X131103987Y-76481665D01*
X131097621Y-76483492D01*
X131084956Y-76483843D01*
X131064083Y-76482980D01*
X131050580Y-76482185D01*
X131026205Y-76479912D01*
X131007454Y-76476056D01*
X130991190Y-76469508D01*
X130974275Y-76459158D01*
X130953571Y-76443896D01*
X130949446Y-76440763D01*
X130926161Y-76423662D01*
X130901408Y-76406234D01*
X130879896Y-76391809D01*
X130869833Y-76385391D01*
X130846662Y-76370981D01*
X130820195Y-76354889D01*
X130791766Y-76337889D01*
X130762705Y-76320753D01*
X130734343Y-76304252D01*
X130708013Y-76289159D01*
X130685047Y-76276246D01*
X130666775Y-76266284D01*
X130654530Y-76260047D01*
X130649643Y-76258305D01*
X130646450Y-76258232D01*
X130636117Y-76254061D01*
X130620827Y-76246128D01*
X130602616Y-76235574D01*
X130583519Y-76223540D01*
X130565570Y-76211168D01*
X130551801Y-76202200D01*
X130531169Y-76190209D01*
X130506871Y-76177047D01*
X130481733Y-76164294D01*
X130458343Y-76152587D01*
X130431354Y-76138499D01*
X130406885Y-76125166D01*
X130388274Y-76114372D01*
X130358503Y-76097067D01*
X130314673Y-76073908D01*
X130267161Y-76050943D01*
X130219364Y-76029872D01*
X130212071Y-76026812D01*
X130186150Y-76015791D01*
X130160335Y-76004632D01*
X130139274Y-75995338D01*
X130125230Y-75989234D01*
X130110244Y-75983528D01*
X130103598Y-75982223D01*
X130104988Y-75984948D01*
X130114107Y-75991332D01*
X130130649Y-76001004D01*
X130154309Y-76013592D01*
X130172189Y-76022936D01*
X130203475Y-76040387D01*
X130226209Y-76054823D01*
X130240077Y-76066034D01*
X130244769Y-76073815D01*
X130247053Y-76076900D01*
X130256508Y-76084499D01*
X130271602Y-76094828D01*
X130290499Y-76106571D01*
X130315601Y-76121667D01*
X130333365Y-76132701D01*
X130342922Y-76139095D01*
X130344617Y-76140996D01*
X130338798Y-76138553D01*
X130325811Y-76131910D01*
X130306003Y-76121217D01*
X130279720Y-76106619D01*
X130247310Y-76088263D01*
X130235330Y-76081435D01*
X130186767Y-76054035D01*
X130146605Y-76031878D01*
X130114900Y-76014994D01*
X130091712Y-76003413D01*
X130077096Y-75997167D01*
X130069578Y-75994696D01*
X130066374Y-75994436D01*
X130071185Y-75998115D01*
X130077308Y-76002357D01*
X130088968Y-76011038D01*
X130092972Y-76014504D01*
X130092336Y-76016231D01*
X130083021Y-76014645D01*
X130079520Y-76013980D01*
X130072100Y-76014253D01*
X130073786Y-76018890D01*
X130084541Y-76027844D01*
X130104332Y-76041073D01*
X130119024Y-76050931D01*
X130140898Y-76066963D01*
X130160369Y-76082570D01*
X130189556Y-76107115D01*
X130230516Y-76140016D01*
X130271358Y-76170740D01*
X130313949Y-76200579D01*
X130360154Y-76230826D01*
X130411841Y-76262775D01*
X130470875Y-76297718D01*
X130473381Y-76299182D01*
X130495567Y-76312445D01*
X130520271Y-76327657D01*
X130546097Y-76343908D01*
X130571650Y-76360286D01*
X130595534Y-76375882D01*
X130616352Y-76389784D01*
X130632709Y-76401084D01*
X130643209Y-76408869D01*
X130646455Y-76412230D01*
X130646108Y-76412437D01*
X130639263Y-76412062D01*
X130627456Y-76409073D01*
X130619750Y-76406830D01*
X130587921Y-76400997D01*
X130557680Y-76400479D01*
X130532478Y-76405411D01*
X130531159Y-76405867D01*
X130507028Y-76410779D01*
X130476458Y-76412361D01*
X130442199Y-76410927D01*
X130407001Y-76406795D01*
X130373613Y-76400280D01*
X130344786Y-76391698D01*
X130323269Y-76381365D01*
X130315267Y-76377262D01*
X130298951Y-76371091D01*
X130280311Y-76365661D01*
X130277713Y-76365021D01*
X130256575Y-76359824D01*
X130231251Y-76353619D01*
X130206662Y-76347609D01*
X130191839Y-76343822D01*
X130163637Y-76335790D01*
X130136259Y-76327059D01*
X130111506Y-76318284D01*
X130091179Y-76310121D01*
X130077080Y-76303224D01*
X130071009Y-76298250D01*
X130068495Y-76294827D01*
X130059525Y-76291418D01*
X130055094Y-76290671D01*
X130042509Y-76286208D01*
X130027418Y-76279058D01*
X130020010Y-76275279D01*
X130002127Y-76267116D01*
X129987283Y-76261489D01*
X129982812Y-76260091D01*
X129935011Y-76242841D01*
X129891785Y-76223154D01*
X129879360Y-76216958D01*
X129860727Y-76208305D01*
X129846056Y-76202203D01*
X129837293Y-76198705D01*
X129834079Y-76196146D01*
X129839558Y-76195237D01*
X129847157Y-76193658D01*
X129850905Y-76188475D01*
X129845735Y-76182068D01*
X129838821Y-76179863D01*
X129824724Y-76176942D01*
X129806753Y-76174043D01*
X129789588Y-76171133D01*
X129775127Y-76167738D01*
X129767550Y-76164752D01*
X129766407Y-76164033D01*
X129756886Y-76160286D01*
X129740976Y-76155372D01*
X129721425Y-76150159D01*
X129711343Y-76147631D01*
X129683138Y-76140032D01*
X129660908Y-76132902D01*
X129641564Y-76125172D01*
X129622019Y-76115773D01*
X129602341Y-76106836D01*
X129574139Y-76098337D01*
X129549680Y-76096273D01*
X129530293Y-76100698D01*
X129517309Y-76111664D01*
X129513956Y-76117421D01*
X129512650Y-76124425D01*
X129515622Y-76133452D01*
X129523429Y-76147797D01*
X129535947Y-76166661D01*
X129561595Y-76194404D01*
X129595318Y-76220347D01*
X129638160Y-76245375D01*
X129654164Y-76253859D01*
X129681554Y-76268892D01*
X129707845Y-76283861D01*
X129729046Y-76296520D01*
X129735955Y-76300758D01*
X129760489Y-76315313D01*
X129787705Y-76330913D01*
X129812883Y-76344837D01*
X129827808Y-76353150D01*
X129855117Y-76369202D01*
X129883844Y-76386881D01*
X129909792Y-76403641D01*
X129941465Y-76423769D01*
X130005407Y-76459731D01*
X130078513Y-76495620D01*
X130160149Y-76531132D01*
X130249681Y-76565964D01*
X130277899Y-76576450D01*
X130310546Y-76588731D01*
X130341767Y-76600607D01*
X130367501Y-76610543D01*
X130419098Y-76630703D01*
X130421383Y-76618749D01*
X130421540Y-76610641D01*
X130418056Y-76604773D01*
X130416219Y-76603738D01*
X130416017Y-76598905D01*
X130421142Y-76596614D01*
X130433400Y-76598958D01*
X130449653Y-76607517D01*
X130468170Y-76621542D01*
X130490758Y-76637349D01*
X130523818Y-76651675D01*
X130544335Y-76658916D01*
X130569244Y-76669133D01*
X130592171Y-76679789D01*
X130596122Y-76681758D01*
X130613577Y-76689962D01*
X130627462Y-76695724D01*
X130635065Y-76697899D01*
X130641115Y-76701057D01*
X130647646Y-76710294D01*
X130650975Y-76715417D01*
X130665155Y-76725119D01*
X130687261Y-76731269D01*
X130716034Y-76733438D01*
X130722477Y-76733591D01*
X130739214Y-76736562D01*
X130750843Y-76744141D01*
X130757504Y-76749895D01*
X130774683Y-76760259D01*
X130798520Y-76770195D01*
X130829711Y-76779906D01*
X130868956Y-76789598D01*
X130916950Y-76799475D01*
X130974391Y-76809741D01*
X130998312Y-76813905D01*
X131027408Y-76819315D01*
X131052788Y-76824410D01*
X131072346Y-76828762D01*
X131083975Y-76831945D01*
X131092784Y-76834791D01*
X131112701Y-76840299D01*
X131133077Y-76845068D01*
X131136049Y-76845709D01*
X131147726Y-76848997D01*
X131158293Y-76853898D01*
X131168664Y-76861420D01*
X131179754Y-76872572D01*
X131192477Y-76888365D01*
X131207747Y-76909807D01*
X131226478Y-76937906D01*
X131249585Y-76973674D01*
X131259885Y-76989852D01*
X131294047Y-77045710D01*
X131322088Y-77096076D01*
X131344510Y-77142604D01*
X131361815Y-77186946D01*
X131374504Y-77230756D01*
X131383078Y-77275689D01*
X131388040Y-77323396D01*
X131389890Y-77375533D01*
X131389131Y-77433751D01*
X131388588Y-77449488D01*
X131386024Y-77494230D01*
X131381630Y-77531975D01*
X131374663Y-77565106D01*
X131364375Y-77596011D01*
X131350021Y-77627073D01*
X131330856Y-77660678D01*
X131306133Y-77699212D01*
X131299747Y-77708606D01*
X131269419Y-77748081D01*
X131237150Y-77782593D01*
X131204556Y-77810552D01*
X131173248Y-77830363D01*
X131155672Y-77838994D01*
X131125222Y-77853178D01*
X131092096Y-77867895D01*
X131058655Y-77882146D01*
X131027260Y-77894931D01*
X131000272Y-77905252D01*
X130980053Y-77912110D01*
X130969547Y-77914944D01*
X130944168Y-77920700D01*
X130908955Y-77927759D01*
X130864056Y-77936094D01*
X130809621Y-77945676D01*
X130745799Y-77956480D01*
X130672737Y-77968478D01*
X130656739Y-77971033D01*
X130633422Y-77974420D01*
X130613642Y-77976519D01*
X130594666Y-77977426D01*
X130573760Y-77977234D01*
X130548191Y-77976039D01*
X130515225Y-77973936D01*
X130494791Y-77972625D01*
X130464242Y-77970888D01*
X130436615Y-77969569D01*
X130414313Y-77968779D01*
X130399740Y-77968627D01*
X130385997Y-77968997D01*
X130378866Y-77969671D01*
X130380339Y-77970977D01*
X130389578Y-77973300D01*
X130393089Y-77974108D01*
X130424072Y-77981120D01*
X130449600Y-77986459D01*
X130471904Y-77990353D01*
X130493215Y-77993028D01*
X130515763Y-77994713D01*
X130541779Y-77995634D01*
X130573496Y-77996021D01*
X130613143Y-77996099D01*
X130644835Y-77995966D01*
X130684814Y-77995300D01*
X130716304Y-77994094D01*
X130738751Y-77992372D01*
X130751601Y-77990157D01*
X130754622Y-77989261D01*
X130766340Y-77987138D01*
X130770655Y-77989146D01*
X130768588Y-77993147D01*
X130758041Y-77999308D01*
X130739979Y-78005050D01*
X130716004Y-78009906D01*
X130687716Y-78013407D01*
X130667927Y-78015138D01*
X130648487Y-78016642D01*
X130631275Y-78017571D01*
X130614227Y-78017927D01*
X130595283Y-78017714D01*
X130572379Y-78016935D01*
X130543452Y-78015594D01*
X130506442Y-78013693D01*
X130446603Y-78010230D01*
X130351019Y-78003026D01*
X130263831Y-77994097D01*
X130183988Y-77983273D01*
X130110439Y-77970380D01*
X130042132Y-77955249D01*
X129978018Y-77937708D01*
X129917044Y-77917585D01*
X129896167Y-77910120D01*
X129868336Y-77900264D01*
X129842743Y-77891293D01*
X129823045Y-77884497D01*
X129798482Y-77876129D01*
X129742391Y-77856841D01*
X129693847Y-77839802D01*
X129651322Y-77824414D01*
X129613286Y-77810076D01*
X129578208Y-77796190D01*
X129544559Y-77782155D01*
X129510809Y-77767373D01*
X129475429Y-77751243D01*
X129436888Y-77733167D01*
X129436365Y-77732919D01*
X129406213Y-77718863D01*
X129377265Y-77705769D01*
X129351503Y-77694506D01*
X129330915Y-77685941D01*
X129317484Y-77680943D01*
X129307488Y-77677540D01*
X129285171Y-77668874D01*
X129265672Y-77660100D01*
X129257562Y-77656339D01*
X129244871Y-77652233D01*
X129238697Y-77653181D01*
X129238484Y-77653509D01*
X129235015Y-77656288D01*
X129229090Y-77657150D01*
X129219975Y-77655800D01*
X129206932Y-77651943D01*
X129189227Y-77645286D01*
X129166123Y-77635534D01*
X129136884Y-77622393D01*
X129100775Y-77605568D01*
X129057059Y-77584765D01*
X129005001Y-77559690D01*
X128801761Y-77461406D01*
X128800481Y-76177772D01*
X128799200Y-74894138D01*
X129695609Y-74894138D01*
X129711461Y-74894138D01*
X129824623Y-74894108D01*
X129928164Y-74894050D01*
X130022560Y-74893993D01*
X130108288Y-74893963D01*
X130185826Y-74893987D01*
G37*
D14*
%TO.C,C49*%
X126195543Y-95865010D02*
X126565010Y-95495543D01*
X127234990Y-96904457D02*
X127604457Y-96534990D01*
%TO.C,C13*%
X134077836Y-88190000D02*
X133862164Y-88190000D01*
X134077836Y-88910000D02*
X133862164Y-88910000D01*
%TO.C,C20*%
X121718705Y-79238748D02*
X121718705Y-79761252D01*
X123188705Y-79238748D02*
X123188705Y-79761252D01*
D11*
%TO.C,IC1*%
X123903705Y-84322982D02*
X123903705Y-84872982D01*
X123903705Y-84872982D02*
X126803705Y-84872982D01*
X126803705Y-84322982D02*
X123903705Y-84322982D01*
X126803705Y-84872982D02*
X126803705Y-84322982D01*
X126953705Y-86472982D02*
X126953705Y-85222982D01*
D14*
%TO.C,IC8*%
X111863154Y-78412923D02*
X111490307Y-78578712D01*
X111447460Y-78172923D01*
X111863154Y-78412923D01*
G36*
X111863154Y-78412923D02*
G01*
X111490307Y-78578712D01*
X111447460Y-78172923D01*
X111863154Y-78412923D01*
G37*
%TO.C,C14*%
X132607836Y-84940000D02*
X132392164Y-84940000D01*
X132607836Y-85660000D02*
X132392164Y-85660000D01*
%TO.C,C51*%
X112461252Y-82685000D02*
X111938748Y-82685000D01*
X112461252Y-84155000D02*
X111938748Y-84155000D01*
%TO.C,C18*%
X123565000Y-76361252D02*
X123565000Y-75838748D01*
X125035000Y-76361252D02*
X125035000Y-75838748D01*
%TO.C,C48*%
X124795543Y-94465010D02*
X125165010Y-94095543D01*
X125834990Y-95504457D02*
X126204457Y-95134990D01*
%TO.C,C46*%
X123395543Y-93065010D02*
X123765010Y-92695543D01*
X124434990Y-94104457D02*
X124804457Y-93734990D01*
%TO.C,C2*%
X135957836Y-88190000D02*
X135742164Y-88190000D01*
X135957836Y-88910000D02*
X135742164Y-88910000D01*
D11*
%TO.C,LED2*%
X121795161Y-63972614D02*
X121795161Y-63972614D01*
X121936583Y-64114035D02*
X121936583Y-64114035D01*
X121795161Y-63972614D02*
G75*
G02*
X121936583Y-64114035I70711J-70710D01*
G01*
X121936583Y-64114035D02*
G75*
G02*
X121795160Y-63972614I-70711J70711D01*
G01*
D14*
%TO.C,C15*%
X121718705Y-83159234D02*
X121718705Y-82636730D01*
X123188705Y-83159234D02*
X123188705Y-82636730D01*
%TO.C,C52*%
X112461252Y-80695000D02*
X111938748Y-80695000D01*
X112461252Y-82165000D02*
X111938748Y-82165000D01*
D11*
%TO.C,J5*%
X140100858Y-97456178D02*
X142146410Y-98637178D01*
X140500858Y-96763358D02*
X140100858Y-97456178D01*
D16*
X144932309Y-85811861D02*
X144932309Y-85811861D01*
X145018911Y-85861860D02*
X145018911Y-85861860D01*
D11*
X146700859Y-86024642D02*
X147100858Y-85331822D01*
X147100858Y-85331822D02*
X149146410Y-86512822D01*
X150181466Y-88496053D02*
X144481466Y-98368742D01*
D16*
X144932309Y-85811861D02*
G75*
G02*
X145018912Y-85861861I43302J-24999D01*
G01*
X145018911Y-85861860D02*
G75*
G02*
X144932311Y-85811862I-43300J24999D01*
G01*
D14*
%TO.C,C55*%
X132982845Y-68808751D02*
X133244097Y-68356249D01*
X134255903Y-69543751D02*
X134517155Y-69091249D01*
%TO.C,C10*%
X132221693Y-82030810D02*
X132069190Y-81878307D01*
X132730810Y-81521693D02*
X132578307Y-81369190D01*
%TO.C,C19*%
X125565000Y-76361252D02*
X125565000Y-75838748D01*
X127035000Y-76361252D02*
X127035000Y-75838748D01*
%TO.C,C53*%
X136382845Y-70781475D02*
X136644097Y-70328973D01*
X137655903Y-71516475D02*
X137917155Y-71063973D01*
%TO.C,C8*%
X134042164Y-83190000D02*
X134257836Y-83190000D01*
X134042164Y-83910000D02*
X134257836Y-83910000D01*
%TO.C,C32*%
X137584165Y-77840000D02*
X137815835Y-77840000D01*
X137584165Y-78560000D02*
X137815835Y-78560000D01*
D11*
%TO.C,SW1*%
X140200000Y-81150000D02*
X140200000Y-84350000D01*
D16*
X141300000Y-80250000D02*
X141300000Y-80250000D01*
X141300000Y-80350000D02*
X141300000Y-80350000D01*
D11*
X142400000Y-81125000D02*
X142400000Y-84350000D01*
D16*
X141300000Y-80250000D02*
G75*
G02*
X141300000Y-80350000I0J-50000D01*
G01*
X141300000Y-80350000D02*
G75*
G02*
X141300000Y-80250000I0J50000D01*
G01*
D11*
%TO.C,LED3*%
X120825965Y-103220265D02*
X120825965Y-103220265D01*
X120967386Y-103078843D02*
X120967386Y-103078843D01*
X120825965Y-103220265D02*
G75*
G02*
X120967386Y-103078842I70711J70711D01*
G01*
X120967386Y-103078843D02*
G75*
G02*
X120825965Y-103220265I-70710J-70711D01*
G01*
%TO.C,L1*%
X126753705Y-80047982D02*
X123953705Y-80047982D01*
D14*
%TO.C,MK2*%
X146929739Y-79859144D02*
X148204739Y-82067509D01*
X148204739Y-82067509D02*
X151409033Y-80217509D01*
X149984033Y-77749337D02*
X147039547Y-79449337D01*
X151409033Y-80217509D02*
X149984033Y-77749337D01*
X146779739Y-79599337D02*
X146537252Y-79739337D01*
X146639739Y-79356850D01*
X146779739Y-79599337D01*
G36*
X146779739Y-79599337D02*
G01*
X146537252Y-79739337D01*
X146639739Y-79356850D01*
X146779739Y-79599337D01*
G37*
%TO.C,C16*%
X122740000Y-86692164D02*
X122740000Y-86907836D01*
X123460000Y-86692164D02*
X123460000Y-86907836D01*
%TD*%
M02*
