%TF.GenerationSoftware,KiCad,Pcbnew,9.0.5*%
%TF.CreationDate,2025-10-20T13:37:51+02:00*%
%TF.ProjectId,PCB_PAPI,5043425f-5041-4504-992e-6b696361645f,rev?*%
%TF.SameCoordinates,Original*%
%TF.FileFunction,Copper,L4,Inr*%
%TF.FilePolarity,Positive*%
%FSLAX46Y46*%
G04 Gerber Fmt 4.6, Leading zero omitted, Abs format (unit mm)*
G04 Created by KiCad (PCBNEW 9.0.5) date 2025-10-20 13:37:51*
%MOMM*%
%LPD*%
G01*
G04 APERTURE LIST*
%TA.AperFunction,ComponentPad*%
%ADD10C,0.800000*%
%TD*%
%TA.AperFunction,ComponentPad*%
%ADD11C,5.000000*%
%TD*%
%TA.AperFunction,ComponentPad*%
%ADD12C,2.550000*%
%TD*%
%TA.AperFunction,ComponentPad*%
%ADD13C,1.500000*%
%TD*%
%TA.AperFunction,ViaPad*%
%ADD14C,0.400000*%
%TD*%
%TA.AperFunction,Conductor*%
%ADD15C,0.300000*%
%TD*%
G04 APERTURE END LIST*
D10*
%TO.N,GND*%
%TO.C,H1*%
X137625000Y-101186533D03*
X138174175Y-99860708D03*
X138174175Y-102512358D03*
X139500000Y-99311533D03*
D11*
X139500000Y-101186533D03*
D10*
X139500000Y-103061533D03*
X140825825Y-99860708D03*
X140825825Y-102512358D03*
X141375000Y-101186533D03*
%TD*%
%TO.N,GND*%
%TO.C,H3*%
X137625000Y-64813467D03*
X138174175Y-63487642D03*
X138174175Y-66139292D03*
X139500000Y-62938467D03*
D11*
X139500000Y-64813467D03*
D10*
X139500000Y-66688467D03*
X140825825Y-63487642D03*
X140825825Y-66139292D03*
X141375000Y-64813467D03*
%TD*%
%TO.N,GND*%
%TO.C,H2*%
X106125000Y-83000000D03*
X106674175Y-81674175D03*
X106674175Y-84325825D03*
X108000000Y-81125000D03*
D11*
X108000000Y-83000000D03*
D10*
X108000000Y-84875000D03*
X109325825Y-81674175D03*
X109325825Y-84325825D03*
X109875000Y-83000000D03*
%TD*%
D12*
%TO.N,VBAT+*%
%TO.C,J3*%
X119173647Y-86476918D03*
%TO.N,GND*%
X121673647Y-90807046D03*
D13*
X114513393Y-98405122D03*
X109013393Y-88878842D03*
%TD*%
D14*
%TO.N,GND*%
X111800000Y-79200000D03*
X125625000Y-73600000D03*
X126114000Y-61750808D03*
X123400000Y-71200000D03*
X142120000Y-80900000D03*
X148850000Y-74850000D03*
X147490000Y-78810000D03*
X133050000Y-91860000D03*
X117690000Y-103205000D03*
X133410000Y-67005000D03*
X143075000Y-101143648D03*
X139102000Y-104270000D03*
X144970000Y-86150000D03*
X133593705Y-77407982D03*
X127000000Y-88720000D03*
X109500000Y-91764593D03*
X150560000Y-86290000D03*
X149218000Y-75506756D03*
X123630000Y-92770000D03*
X128690000Y-91740000D03*
X142353000Y-102394189D03*
X146070000Y-94150000D03*
X141992000Y-103019459D03*
X137666000Y-61750808D03*
X152150000Y-80600000D03*
X118164000Y-104270000D03*
X113500000Y-69750000D03*
X114750000Y-100850000D03*
X139832000Y-61750808D03*
X133893701Y-91193701D03*
X106983000Y-78632299D03*
X144886000Y-68003512D03*
X123948000Y-61750808D03*
X151800000Y-79950000D03*
X140120000Y-83900000D03*
X117450000Y-61750808D03*
X122504000Y-61750808D03*
X129724000Y-61750808D03*
X146390000Y-85000000D03*
X133410000Y-62375000D03*
X124590000Y-67005000D03*
X110944000Y-94265674D03*
X138420000Y-79110000D03*
X145730000Y-94680000D03*
X133410000Y-63075000D03*
X116965000Y-103205000D03*
X141637000Y-62376079D03*
X146750000Y-88200000D03*
X146950000Y-86150000D03*
X144519000Y-98642567D03*
X130360000Y-64990000D03*
X120590000Y-96680000D03*
X120540000Y-69470000D03*
X146450000Y-88950000D03*
X130650000Y-76850000D03*
X121052000Y-104270000D03*
X147550000Y-90450000D03*
X123890000Y-63075000D03*
X147407000Y-93640404D03*
X111666000Y-95516215D03*
X118415000Y-96680000D03*
X149450000Y-86100000D03*
X137900000Y-92375000D03*
X143436000Y-100518378D03*
X134810000Y-63775000D03*
X146300000Y-93290000D03*
X136222000Y-61750808D03*
X123226000Y-61750808D03*
X123190000Y-67705000D03*
X117640000Y-62945000D03*
X148560000Y-82480000D03*
X135300000Y-87600000D03*
X147750000Y-86150000D03*
X142550000Y-88500000D03*
X133700000Y-87600000D03*
X134110000Y-63075000D03*
X148250000Y-76200000D03*
X145963000Y-96141485D03*
X139740000Y-96420000D03*
X128850000Y-78060000D03*
X146650000Y-92500000D03*
X131110000Y-73150000D03*
X124670000Y-61750808D03*
X146550000Y-82642500D03*
X121782000Y-61750808D03*
X121265000Y-62945000D03*
X129900000Y-70950000D03*
X144970000Y-91490000D03*
X150301000Y-77382567D03*
X117640000Y-69470000D03*
X133334000Y-61750808D03*
X128280000Y-61750808D03*
X129525000Y-96800000D03*
X153450000Y-83000000D03*
X118750000Y-72600000D03*
X148900000Y-85350000D03*
X116915000Y-62945000D03*
X127530000Y-90690000D03*
X127570000Y-87950000D03*
X124662000Y-104270000D03*
X122850000Y-81800000D03*
X142120000Y-82900000D03*
X127600000Y-96800000D03*
X104817000Y-82383921D03*
X121990000Y-66570000D03*
X135492000Y-104270000D03*
X139824000Y-104270000D03*
X113330000Y-91320000D03*
X136053705Y-94247982D03*
X138014170Y-78200000D03*
X135500000Y-61750808D03*
X121990000Y-68020000D03*
X119090000Y-69470000D03*
X139740000Y-84920000D03*
X121774000Y-104270000D03*
X125625000Y-74300000D03*
X132612000Y-61750808D03*
X123630000Y-91530000D03*
X134810000Y-62375000D03*
X140120000Y-82900000D03*
X112388000Y-96766756D03*
X148550000Y-91650000D03*
X133588705Y-78527982D03*
X144550000Y-69700000D03*
X121060000Y-61750808D03*
X129002000Y-61750808D03*
X121990000Y-63670000D03*
X115465000Y-67300000D03*
X143850000Y-92710000D03*
X142714000Y-101768918D03*
X133410000Y-67705000D03*
X135800000Y-96140000D03*
X147577429Y-76575945D03*
X136936000Y-104270000D03*
X140120000Y-80900000D03*
X149860000Y-85670000D03*
X111150000Y-76950000D03*
X111305000Y-94890945D03*
X143797000Y-99893107D03*
X138840000Y-92690000D03*
X151400000Y-86700000D03*
X136853705Y-93447982D03*
X134770000Y-104270000D03*
X114480000Y-68040000D03*
X112450000Y-76480000D03*
X129280000Y-92740000D03*
X146324000Y-95516215D03*
X113120000Y-68002704D03*
X119815000Y-69470000D03*
X124590000Y-63075000D03*
X105529000Y-84886619D03*
X132100000Y-84400000D03*
X122850000Y-80950000D03*
X146800000Y-77000000D03*
X134810000Y-67705000D03*
X123890000Y-63775000D03*
X110228769Y-90072037D03*
X113953769Y-96523927D03*
X148150000Y-92350000D03*
X143442000Y-65502430D03*
X115515000Y-98855000D03*
X121040000Y-103210000D03*
X122040000Y-98855000D03*
X125250000Y-103050000D03*
X136853705Y-94247982D03*
X134056000Y-61750808D03*
X114300000Y-100100000D03*
X123890000Y-62375000D03*
X115998000Y-103019459D03*
X143120000Y-80900000D03*
X107695000Y-88638241D03*
X117690000Y-96680000D03*
X121950000Y-80100000D03*
X126325000Y-73600000D03*
X115465000Y-64395000D03*
X118415000Y-103205000D03*
X124660000Y-91910000D03*
X112230000Y-91610000D03*
X141120000Y-80900000D03*
X145241000Y-97392026D03*
X148200000Y-85100000D03*
X144420000Y-91920000D03*
X130600000Y-76230000D03*
X124590000Y-62375000D03*
X131700000Y-81650000D03*
X132900000Y-90925000D03*
X118886000Y-104270000D03*
X123190000Y-63075000D03*
X117442000Y-104270000D03*
X123890000Y-67705000D03*
X136053705Y-93447982D03*
X105168000Y-84261349D03*
X132093799Y-78425000D03*
X123190000Y-62375000D03*
X137050000Y-85240000D03*
X123675000Y-83725000D03*
X113500000Y-98700000D03*
X137270000Y-82740000D03*
X116730000Y-61750000D03*
X130450000Y-73880000D03*
X144158000Y-99267837D03*
X131168000Y-61750808D03*
X122496000Y-104270000D03*
X145450000Y-85550000D03*
X119815000Y-62945000D03*
X147046000Y-94265674D03*
X123890000Y-67005000D03*
X145950000Y-69800000D03*
X120338000Y-61750808D03*
X132525000Y-104275000D03*
X132130000Y-76840000D03*
X151270000Y-85640000D03*
X139870000Y-74730000D03*
X125500000Y-71200000D03*
X118900000Y-61750000D03*
X113110000Y-98017296D03*
X133000000Y-79390000D03*
X124925000Y-74300000D03*
X138300000Y-91710000D03*
X121990000Y-65120000D03*
X123190000Y-66305000D03*
X127300000Y-69600000D03*
X109640000Y-74760000D03*
X131890000Y-61750808D03*
X121950000Y-81800000D03*
X134110000Y-62375000D03*
X124590000Y-66305000D03*
X109861000Y-92389863D03*
X125540000Y-89380000D03*
X108417000Y-89888782D03*
X143470000Y-93350000D03*
X142720000Y-64251890D03*
X127570000Y-91620000D03*
X122040000Y-98130000D03*
X144525000Y-67378241D03*
X135510000Y-98080000D03*
X124590000Y-67705000D03*
X108778000Y-90514052D03*
X115515000Y-96680000D03*
X125620000Y-87700000D03*
X150200000Y-88750000D03*
X107344000Y-78007029D03*
X116440000Y-69480000D03*
X152150000Y-85350000D03*
X131700000Y-104275000D03*
X141120000Y-81900000D03*
X134100000Y-76600000D03*
X114222373Y-68913175D03*
X134810000Y-67005000D03*
X128760000Y-79060000D03*
X122040000Y-101030000D03*
X123560000Y-95710000D03*
X122050000Y-102230000D03*
X149350000Y-90200000D03*
X147900000Y-89750000D03*
X123940000Y-104270000D03*
X108056000Y-89263512D03*
X134400000Y-90300000D03*
X134110000Y-63775000D03*
X106251000Y-86137160D03*
X137550000Y-75790000D03*
X126836000Y-61750808D03*
X115580000Y-81760000D03*
X137658000Y-104270000D03*
X134250000Y-94100000D03*
X136480000Y-96140000D03*
X143080000Y-72520000D03*
X143120000Y-82900000D03*
X147400000Y-85100000D03*
X143120000Y-81900000D03*
X133326000Y-104270000D03*
X122850000Y-80100000D03*
X143060000Y-94000000D03*
X128990000Y-88470000D03*
X143081000Y-64877160D03*
X145602000Y-96766756D03*
X123190000Y-63775000D03*
X151400000Y-79300000D03*
X121520000Y-97150000D03*
X147600000Y-87150000D03*
X141120000Y-82900000D03*
X137625000Y-70100000D03*
X151000000Y-87350000D03*
X115465000Y-65845000D03*
X116359000Y-103644729D03*
X109600000Y-76100000D03*
X144069400Y-89932462D03*
X143313813Y-99006250D03*
X134110000Y-67005000D03*
X145300000Y-90850000D03*
X135925000Y-69127276D03*
X119160000Y-103210000D03*
X123190000Y-67005000D03*
X152500000Y-81250000D03*
X149579000Y-76132026D03*
X151800000Y-86000000D03*
X113290000Y-94250000D03*
X112749000Y-97392026D03*
X148950000Y-90950000D03*
X118365000Y-69470000D03*
X109139000Y-91139323D03*
X125392000Y-61750808D03*
X111810000Y-93830000D03*
X104807000Y-83636079D03*
X138388000Y-61750808D03*
X138380000Y-104270000D03*
X132470000Y-80820000D03*
X108130000Y-79860000D03*
X134110000Y-66305000D03*
X142754088Y-87060000D03*
X130500000Y-86550000D03*
X119090000Y-62945000D03*
X130920000Y-69090000D03*
X105539000Y-81133381D03*
X146300000Y-70400000D03*
X131120000Y-73860000D03*
X134778000Y-61750808D03*
X152550000Y-84650000D03*
X147400000Y-91250000D03*
X132700000Y-103150000D03*
X118172000Y-61750808D03*
X127558000Y-61750808D03*
X144164000Y-66752971D03*
X134200000Y-95840000D03*
X149450000Y-86850000D03*
X134900000Y-92075000D03*
X148350000Y-89100000D03*
X138600000Y-87000000D03*
X133410000Y-66305000D03*
X148950000Y-88700000D03*
X106973000Y-87387701D03*
X148200000Y-86600000D03*
X114420000Y-67180000D03*
X119650000Y-61750000D03*
X107334000Y-88012971D03*
X141276000Y-61750808D03*
X123218000Y-104270000D03*
X141998000Y-63001349D03*
X126325000Y-74300000D03*
X115510000Y-101710000D03*
X146685000Y-94890945D03*
X134110000Y-67705000D03*
X125384000Y-104270000D03*
X143120000Y-83900000D03*
X113900000Y-99400000D03*
X124590000Y-63775000D03*
X142359000Y-63626619D03*
X116240000Y-96680000D03*
X115460000Y-68470000D03*
X117570000Y-80310000D03*
X130975000Y-104275000D03*
X143100000Y-70550000D03*
X104446000Y-83010808D03*
X110422571Y-76579945D03*
X121990000Y-68745000D03*
X144080000Y-78130000D03*
X116720000Y-104270000D03*
X150662000Y-78007837D03*
X141631000Y-103644729D03*
X144880000Y-98017296D03*
X132100000Y-83600000D03*
X133300000Y-82410000D03*
X141200000Y-72760000D03*
X145420000Y-95270000D03*
X143830000Y-94450000D03*
X105890000Y-85511890D03*
X145250000Y-68600000D03*
X106612000Y-86762430D03*
X144710000Y-94890000D03*
X126170000Y-91747982D03*
X153100000Y-83650000D03*
X139110000Y-61750808D03*
X134810000Y-63075000D03*
X135890000Y-91090000D03*
X140546000Y-104270000D03*
X115304955Y-92164248D03*
X112759000Y-68627974D03*
X149800000Y-89450000D03*
X140120000Y-81900000D03*
X123975000Y-88450000D03*
X130446000Y-61750808D03*
X147768000Y-93015134D03*
X142120000Y-81900000D03*
X151023000Y-78633107D03*
X136214000Y-104270000D03*
X115465000Y-65120000D03*
X126630000Y-65380000D03*
X121990000Y-67295000D03*
X121990000Y-65845000D03*
X119140000Y-96680000D03*
X121810000Y-102960000D03*
X140970000Y-89180000D03*
X133410000Y-63775000D03*
X135120000Y-95190000D03*
X110222000Y-93015134D03*
X149700000Y-87500000D03*
X123275000Y-88450000D03*
X130450000Y-73140000D03*
X126200000Y-104275000D03*
X123890000Y-66305000D03*
X143852429Y-70124055D03*
X120000000Y-104250000D03*
X122040000Y-100305000D03*
X134810000Y-66305000D03*
X105178000Y-81758651D03*
X124925000Y-73600000D03*
X140554000Y-61750808D03*
X144042500Y-84800000D03*
X134048000Y-104270000D03*
X141270000Y-104270000D03*
X132100000Y-85200000D03*
X113100000Y-78810000D03*
X121990000Y-69470000D03*
X145950000Y-89600000D03*
X121990000Y-62945000D03*
X115637000Y-102394189D03*
X106622000Y-79257570D03*
X150600000Y-88050000D03*
X115510000Y-99600000D03*
X149940000Y-76757296D03*
X105900000Y-80508110D03*
X121265000Y-69470000D03*
X136700000Y-79540000D03*
X119865000Y-96680000D03*
X146150000Y-86150000D03*
X143803000Y-66127701D03*
X122040000Y-99580000D03*
X131740000Y-90800000D03*
X130910000Y-81630000D03*
X118365000Y-62945000D03*
X145600000Y-69200000D03*
X130591205Y-78467982D03*
X123275000Y-87750000D03*
X136944000Y-61750808D03*
X115515000Y-101030000D03*
X136780000Y-83530000D03*
X106261000Y-79882840D03*
X115515000Y-100305000D03*
X137040000Y-80550000D03*
X121950000Y-80950000D03*
%TO.N,+3.3V*%
X134450000Y-89250000D03*
X136550000Y-89250000D03*
X128503705Y-76397982D03*
X141250000Y-76000000D03*
X150800000Y-82275000D03*
X128500000Y-73490000D03*
X134600000Y-98600000D03*
X112950000Y-75750000D03*
X127800000Y-73490000D03*
X150000000Y-82275000D03*
X129500000Y-76400000D03*
X144185000Y-86850000D03*
X112300000Y-75400000D03*
X131300000Y-86800000D03*
X140775000Y-86650000D03*
X132900000Y-83600000D03*
X151600000Y-82275000D03*
X132900000Y-84400000D03*
X132900000Y-85200000D03*
X134000000Y-98600000D03*
X136100000Y-87600000D03*
X128980000Y-76097984D03*
X134500000Y-87600000D03*
X128980000Y-76760000D03*
X129700000Y-86800000D03*
X140700000Y-75700000D03*
X152400000Y-82275000D03*
X141250000Y-75400000D03*
X140207500Y-86650000D03*
X111700000Y-75050000D03*
X143925000Y-87375000D03*
%TO.N,/HP+*%
X140569400Y-95994640D03*
%TO.N,Net-(C7-Pad1)*%
X132100000Y-82800000D03*
%TO.N,/HP-*%
X141069400Y-95128614D03*
%TO.N,Net-(C10-Pad1)*%
X132900000Y-82000000D03*
%TO.N,VBAT+*%
X124810000Y-87850000D03*
%TO.N,+5V*%
X120200000Y-77500000D03*
X114054955Y-89999184D03*
X119500000Y-78200000D03*
X115400000Y-89200000D03*
X120200000Y-78200000D03*
X120200000Y-76800000D03*
X120200000Y-78900000D03*
X119500000Y-78900000D03*
%TO.N,4.5V*%
X137950000Y-95800000D03*
X120340000Y-103730000D03*
X122600000Y-75700000D03*
X137950000Y-95250000D03*
X121200000Y-75700000D03*
X121900000Y-75700000D03*
X143800000Y-90950000D03*
X109502276Y-77962083D03*
X122075000Y-92940000D03*
X122600000Y-75000000D03*
X121590000Y-92580000D03*
X121900000Y-75000000D03*
X132500000Y-92300000D03*
X122910000Y-64440000D03*
X143150000Y-90550000D03*
%TO.N,/NRST*%
X131675000Y-74675000D03*
X129400000Y-64800000D03*
X132100000Y-87600000D03*
%TO.N,/GPIO_MOT1*%
X145100000Y-73000000D03*
X132900000Y-81200000D03*
%TO.N,/TX_MOT1*%
X134500000Y-80400000D03*
X145750000Y-74200000D03*
%TO.N,/RX_MOT1*%
X144849599Y-73849599D03*
X133700000Y-80400000D03*
%TO.N,/RX_MOT2*%
X129000000Y-101400000D03*
X134500000Y-86800000D03*
%TO.N,/TX_MOT2*%
X133700000Y-86800000D03*
X128200000Y-102050000D03*
%TO.N,/GPIO_MOT2*%
X129800000Y-102050000D03*
X136100000Y-86800000D03*
%TO.N,/GPIO_MOT3*%
X112300000Y-74200000D03*
X131300000Y-80400000D03*
%TO.N,/TX_MOT3*%
X113175000Y-72925000D03*
X132900000Y-80400000D03*
%TO.N,/RX_MOT3*%
X132100000Y-80400000D03*
X113433154Y-74016846D03*
%TO.N,/ESP32_TX*%
X141109144Y-79534697D03*
X135300000Y-81200000D03*
%TO.N,/ESP32_RX*%
X136100000Y-81200000D03*
X140516306Y-79550038D03*
%TO.N,/ACCEL_MOSI*%
X132100000Y-86000000D03*
X128650000Y-92600000D03*
%TO.N,Net-(IC5-INT2)*%
X129943705Y-92707982D03*
%TO.N,/ACCEL_MISO*%
X131300000Y-86000000D03*
X128000000Y-92600000D03*
%TO.N,Net-(IC5-INT1)*%
X130773705Y-92707982D03*
%TO.N,/ACCEL_CLK*%
X126750000Y-92626338D03*
X128900000Y-86000000D03*
%TO.N,/ACCEL_INT2*%
X129943705Y-92067982D03*
X132100000Y-86800000D03*
%TO.N,/ACCEL_INT1*%
X130773705Y-92067982D03*
X132900000Y-87600000D03*
%TO.N,/MOUSE_INT*%
X128900000Y-86800000D03*
X110300000Y-88175000D03*
%TO.N,/SWDIO*%
X127700000Y-64800000D03*
X131210000Y-76870000D03*
%TO.N,/SWCLK*%
X128500000Y-64800000D03*
X131730000Y-77330000D03*
%TO.N,/RX_LIDAR*%
X112900000Y-93200000D03*
X131300000Y-85200000D03*
%TO.N,/SDA_TOF1*%
X144250000Y-74850000D03*
X135300000Y-80400000D03*
%TO.N,/SDA_TOF3*%
X114300000Y-73900000D03*
X131700000Y-80800000D03*
%TO.N,/SCL_TOF1*%
X143750000Y-73850000D03*
X136100000Y-80400000D03*
%TO.N,/SDA_TOF2*%
X128900000Y-85200000D03*
X128500000Y-100600000D03*
%TO.N,/SDA_OLED*%
X136100000Y-82800000D03*
X145600000Y-88750000D03*
%TO.N,/LIDAR_PWM*%
X112400000Y-92450000D03*
X128900000Y-84400000D03*
%TO.N,/MOUSE_CS*%
X109087500Y-85987500D03*
X128900000Y-82000000D03*
%TO.N,/SCL_TOF2*%
X129500000Y-100550000D03*
X129700000Y-85200000D03*
%TO.N,/SCL_OLED*%
X144569400Y-89066436D03*
X135300000Y-82800000D03*
%TO.N,/SCL_TOF3*%
X113750000Y-74900000D03*
X131300000Y-81200000D03*
%TO.N,/MOUSE_MISO*%
X109100000Y-86725000D03*
X128900000Y-83600000D03*
%TO.N,/LED_TIM*%
X136100000Y-85200000D03*
X142569400Y-92530538D03*
%TO.N,/TX_SUP*%
X142069400Y-93396564D03*
X135300000Y-84400000D03*
%TO.N,/RX_SUP*%
X141569400Y-94262589D03*
X134500000Y-84400000D03*
%TO.N,Net-(IC8-~{OE})*%
X111147724Y-78912083D03*
%TO.N,Net-(U1-BOOT0)*%
X131300000Y-84400000D03*
X125130000Y-91100000D03*
X127620000Y-90000787D03*
%TO.N,Net-(IC8-Y)*%
X109000000Y-78450000D03*
X115600000Y-69420000D03*
%TO.N,Net-(LED2-DOUT)*%
X119400000Y-62450000D03*
X115040000Y-97292878D03*
%TO.N,Net-(U5-GPIO0)*%
X145800000Y-83400000D03*
%TO.N,RESET*%
X144350000Y-83800000D03*
%TO.N,/ESP32/mic_sck*%
X151525000Y-80675000D03*
%TO.N,/ESP32/mic_data*%
X146250000Y-80400000D03*
%TO.N,Net-(U5-GPIO3)*%
X144270000Y-82010000D03*
%TO.N,/ESP32/mic_frame_sck*%
X146150000Y-78850000D03*
%TO.N,/ESP32/BOOT1*%
X142850000Y-85100000D03*
%TO.N,Net-(U5-VDD_SPI)*%
X137039170Y-77950000D03*
%TO.N,/MOUSE_CLK*%
X128900000Y-82800000D03*
X109780000Y-85975000D03*
%TO.N,/MOUSE_MOSI*%
X130500000Y-84400000D03*
X109730000Y-87400000D03*
%TO.N,/ESP32/max_data*%
X144150000Y-81400000D03*
X134250000Y-92400000D03*
%TO.N,/ESP32/max_bit_clk*%
X135350000Y-91550000D03*
X145750000Y-82600000D03*
%TO.N,/RGB_TOM_JERRY*%
X109650000Y-79000000D03*
X130500000Y-81200000D03*
%TO.N,Net-(U5-GPIO45)*%
X141950000Y-85100000D03*
%TO.N,/ESP32/max_frame_clk*%
X136445361Y-91554639D03*
X144350000Y-82950000D03*
%TO.N,/ESP32/SD_FSPIQ*%
X121275000Y-79975000D03*
X143000000Y-79550000D03*
%TO.N,/ESP32/SD_FSPICLK*%
X121250000Y-80700000D03*
X143450000Y-78300000D03*
%TO.N,/ESP32/SD_FSPID*%
X128425000Y-83175000D03*
X143820000Y-79550000D03*
%TO.N,/ESP32/SD_FSPICS*%
X128450000Y-84000000D03*
X144850000Y-79050000D03*
%TO.N,/ESP32/max_gpio*%
X133600000Y-94250000D03*
X145800000Y-81400000D03*
%TO.N,Net-(MK2-LR)*%
X148800000Y-76900000D03*
%TD*%
D15*
%TO.N,+3.3V*%
X134000000Y-98600000D02*
X134600000Y-98600000D01*
%TO.N,4.5V*%
X110696724Y-79096724D02*
X110696724Y-79098894D01*
X110960913Y-79363083D02*
X110963083Y-79363083D01*
X120340000Y-103730000D02*
X122040000Y-103730000D01*
X123030000Y-102740000D02*
X123030000Y-96610000D01*
X109850000Y-78250000D02*
X110696724Y-79096724D01*
X112550000Y-89950000D02*
X113400000Y-90800000D01*
X109790193Y-78250000D02*
X109850000Y-78250000D01*
X110696724Y-79098894D02*
X110960913Y-79363083D01*
X113400000Y-90800000D02*
X117090000Y-90800000D01*
X118870000Y-92580000D02*
X121590000Y-92580000D01*
X121730000Y-95310000D02*
X122075000Y-94965000D01*
X117090000Y-90800000D02*
X118870000Y-92580000D01*
X123030000Y-96610000D02*
X121730000Y-95310000D01*
X110963083Y-79363083D02*
X112550000Y-80950000D01*
X112550000Y-80950000D02*
X112550000Y-89950000D01*
X122040000Y-103730000D02*
X123030000Y-102740000D01*
X122075000Y-94965000D02*
X122075000Y-92940000D01*
X109502276Y-77962083D02*
X109790193Y-78250000D01*
%TD*%
%TA.AperFunction,Conductor*%
%TO.N,4.5V*%
G36*
X126227320Y-74814352D02*
G01*
X126237899Y-74830145D01*
X126805274Y-76191128D01*
X126809046Y-76209609D01*
X126819406Y-77565097D01*
X126805319Y-77599853D01*
X126799902Y-77604599D01*
X126036005Y-78180437D01*
X126096953Y-84580020D01*
X126082932Y-84614804D01*
X126082265Y-84615470D01*
X123257626Y-87385789D01*
X123231869Y-87398336D01*
X123231958Y-87398668D01*
X123230248Y-87399125D01*
X123229713Y-87399387D01*
X123228851Y-87399500D01*
X123139713Y-87423385D01*
X123139710Y-87423386D01*
X123059794Y-87469527D01*
X123059784Y-87469534D01*
X122994534Y-87534784D01*
X122994527Y-87534794D01*
X122948386Y-87614710D01*
X122948386Y-87614711D01*
X122924818Y-87702666D01*
X122911798Y-87724966D01*
X121110598Y-89491527D01*
X121098534Y-89500203D01*
X120926522Y-89587848D01*
X120744994Y-89719736D01*
X120586337Y-89878393D01*
X120454450Y-90059921D01*
X120352584Y-90259843D01*
X120320671Y-90358058D01*
X120310692Y-90375469D01*
X120200000Y-90499998D01*
X120200000Y-90500000D01*
X120200000Y-91460006D01*
X120900000Y-92300000D01*
X122079704Y-92300000D01*
X122114352Y-92314352D01*
X122385648Y-92585648D01*
X122400000Y-92620296D01*
X122400000Y-93900001D01*
X123521953Y-95285976D01*
X123532599Y-95321936D01*
X123514698Y-95354891D01*
X123496551Y-95364136D01*
X123424711Y-95383386D01*
X123424710Y-95383386D01*
X123344794Y-95429527D01*
X123344784Y-95429534D01*
X123279534Y-95494784D01*
X123279527Y-95494794D01*
X123233386Y-95574710D01*
X123233385Y-95574713D01*
X123209500Y-95663853D01*
X123209500Y-95756146D01*
X123233385Y-95845286D01*
X123233386Y-95845289D01*
X123276430Y-95919842D01*
X123279531Y-95925212D01*
X123344788Y-95990469D01*
X123424712Y-96036614D01*
X123440275Y-96040784D01*
X123513853Y-96060500D01*
X123513856Y-96060500D01*
X123606146Y-96060500D01*
X123650716Y-96048557D01*
X123695288Y-96036614D01*
X123775212Y-95990469D01*
X123840469Y-95925212D01*
X123886614Y-95845288D01*
X123886615Y-95845286D01*
X123887638Y-95843514D01*
X123917391Y-95820684D01*
X123954573Y-95825579D01*
X123968158Y-95837184D01*
X125557066Y-97800000D01*
X125737055Y-98022345D01*
X129724989Y-98053130D01*
X132100000Y-94650862D01*
X132100000Y-92288041D01*
X132111699Y-92256266D01*
X132125556Y-92240000D01*
X132315327Y-92017225D01*
X132348721Y-92000156D01*
X132352628Y-92000000D01*
X132658444Y-92000000D01*
X132693092Y-92014352D01*
X132694565Y-92015889D01*
X132887121Y-92225950D01*
X132900000Y-92259061D01*
X132900000Y-97782337D01*
X132888731Y-97813600D01*
X132030656Y-98849206D01*
X132011678Y-98863213D01*
X131985294Y-98874142D01*
X131841901Y-98969954D01*
X131719954Y-99091901D01*
X131624140Y-99235298D01*
X131558145Y-99394623D01*
X131558142Y-99394632D01*
X131554057Y-99415173D01*
X131543730Y-99436876D01*
X131450000Y-99549999D01*
X131450000Y-99550000D01*
X131509293Y-99606469D01*
X131524485Y-99640757D01*
X131524500Y-99641952D01*
X131524500Y-99736234D01*
X131558142Y-99905364D01*
X131558145Y-99905375D01*
X131607501Y-100024531D01*
X131624142Y-100064705D01*
X131719955Y-100208099D01*
X131841901Y-100330045D01*
X131985295Y-100425858D01*
X132144626Y-100491855D01*
X132144632Y-100491856D01*
X132144635Y-100491857D01*
X132313765Y-100525499D01*
X132313768Y-100525499D01*
X132313771Y-100525500D01*
X132313772Y-100525500D01*
X132454675Y-100525500D01*
X132488467Y-100539016D01*
X132500000Y-100550000D01*
X132569971Y-100511217D01*
X132584147Y-100506022D01*
X132655374Y-100491855D01*
X132814705Y-100425858D01*
X132958099Y-100330045D01*
X133029410Y-100258733D01*
X133040286Y-100250539D01*
X134845455Y-99250000D01*
X135910000Y-98274166D01*
X135910000Y-97374655D01*
X135919396Y-97345801D01*
X136129430Y-97057518D01*
X136536325Y-96499032D01*
X136563242Y-96480559D01*
X136615288Y-96466614D01*
X136695212Y-96420469D01*
X136760469Y-96355212D01*
X136806614Y-96275288D01*
X136820000Y-96225330D01*
X136830500Y-96186146D01*
X136830500Y-96111218D01*
X136839895Y-96082365D01*
X141061445Y-90288058D01*
X141093447Y-90268506D01*
X141096711Y-90268106D01*
X142984470Y-90101371D01*
X143013467Y-90107855D01*
X143291537Y-90270063D01*
X144158610Y-90775856D01*
X144181307Y-90805711D01*
X144176786Y-90841919D01*
X143962709Y-91228503D01*
X143933369Y-91251861D01*
X143923853Y-91253601D01*
X142749999Y-91350000D01*
X140352221Y-95260013D01*
X140347189Y-95266820D01*
X139631555Y-96077731D01*
X139607504Y-96092637D01*
X139604715Y-96093384D01*
X139604709Y-96093387D01*
X139524794Y-96139527D01*
X139524784Y-96139534D01*
X139459534Y-96204784D01*
X139459527Y-96204794D01*
X139413386Y-96284709D01*
X139413385Y-96284713D01*
X139400881Y-96331377D01*
X139390290Y-96351117D01*
X138800000Y-97019999D01*
X138800000Y-98008211D01*
X138787121Y-98041322D01*
X137580948Y-99357146D01*
X137579476Y-99358682D01*
X137520564Y-99417596D01*
X137488351Y-99457989D01*
X137486163Y-99460547D01*
X134577066Y-102634110D01*
X134543073Y-102649954D01*
X134540945Y-102650000D01*
X124635770Y-102650000D01*
X124601122Y-102635648D01*
X124589100Y-102615932D01*
X124512532Y-102376614D01*
X124393269Y-102003853D01*
X127849500Y-102003853D01*
X127849500Y-102096146D01*
X127873385Y-102185286D01*
X127873386Y-102185289D01*
X127883285Y-102202434D01*
X127919531Y-102265212D01*
X127984788Y-102330469D01*
X128064712Y-102376614D01*
X128086998Y-102382585D01*
X128153853Y-102400500D01*
X128153856Y-102400500D01*
X128246146Y-102400500D01*
X128290716Y-102388557D01*
X128335288Y-102376614D01*
X128415212Y-102330469D01*
X128480469Y-102265212D01*
X128526614Y-102185288D01*
X128546570Y-102110812D01*
X128550500Y-102096146D01*
X128550500Y-102003853D01*
X129449500Y-102003853D01*
X129449500Y-102096146D01*
X129473385Y-102185286D01*
X129473386Y-102185289D01*
X129483285Y-102202434D01*
X129519531Y-102265212D01*
X129584788Y-102330469D01*
X129664712Y-102376614D01*
X129686998Y-102382585D01*
X129753853Y-102400500D01*
X129753856Y-102400500D01*
X129846146Y-102400500D01*
X129890716Y-102388557D01*
X129935288Y-102376614D01*
X130015212Y-102330469D01*
X130080469Y-102265212D01*
X130126614Y-102185288D01*
X130146570Y-102110812D01*
X130150500Y-102096146D01*
X130150500Y-102003853D01*
X130126614Y-101914713D01*
X130126613Y-101914710D01*
X130080472Y-101834794D01*
X130080469Y-101834788D01*
X130015212Y-101769531D01*
X129982250Y-101750500D01*
X129935289Y-101723386D01*
X129935286Y-101723385D01*
X129846147Y-101699500D01*
X129846144Y-101699500D01*
X129753856Y-101699500D01*
X129753853Y-101699500D01*
X129664713Y-101723385D01*
X129664710Y-101723386D01*
X129584794Y-101769527D01*
X129584784Y-101769534D01*
X129519534Y-101834784D01*
X129519527Y-101834794D01*
X129473386Y-101914710D01*
X129473385Y-101914713D01*
X129449500Y-102003853D01*
X128550500Y-102003853D01*
X128526614Y-101914713D01*
X128526613Y-101914710D01*
X128480472Y-101834794D01*
X128480469Y-101834788D01*
X128415212Y-101769531D01*
X128382250Y-101750500D01*
X128335289Y-101723386D01*
X128335286Y-101723385D01*
X128246147Y-101699500D01*
X128246144Y-101699500D01*
X128153856Y-101699500D01*
X128153853Y-101699500D01*
X128064713Y-101723385D01*
X128064710Y-101723386D01*
X127984794Y-101769527D01*
X127984784Y-101769534D01*
X127919534Y-101834784D01*
X127919527Y-101834794D01*
X127873386Y-101914710D01*
X127873385Y-101914713D01*
X127849500Y-102003853D01*
X124393269Y-102003853D01*
X124185306Y-101353853D01*
X128649500Y-101353853D01*
X128649500Y-101446146D01*
X128673385Y-101535286D01*
X128673386Y-101535289D01*
X128716430Y-101609842D01*
X128719531Y-101615212D01*
X128784788Y-101680469D01*
X128864712Y-101726614D01*
X128886998Y-101732585D01*
X128953853Y-101750500D01*
X128953856Y-101750500D01*
X129046146Y-101750500D01*
X129090716Y-101738557D01*
X129135288Y-101726614D01*
X129215212Y-101680469D01*
X129280469Y-101615212D01*
X129326614Y-101535288D01*
X129344038Y-101470262D01*
X129350500Y-101446146D01*
X129350500Y-101353853D01*
X129326614Y-101264713D01*
X129326613Y-101264710D01*
X129280472Y-101184794D01*
X129280469Y-101184788D01*
X129215212Y-101119531D01*
X129177061Y-101097504D01*
X129135289Y-101073386D01*
X129135286Y-101073385D01*
X129046147Y-101049500D01*
X129046144Y-101049500D01*
X128953856Y-101049500D01*
X128953853Y-101049500D01*
X128864713Y-101073385D01*
X128864710Y-101073386D01*
X128784794Y-101119527D01*
X128784784Y-101119534D01*
X128719534Y-101184784D01*
X128719527Y-101184794D01*
X128673386Y-101264710D01*
X128673385Y-101264713D01*
X128649500Y-101353853D01*
X124185306Y-101353853D01*
X124156786Y-101264713D01*
X124017852Y-100830465D01*
X123929352Y-100553853D01*
X128149500Y-100553853D01*
X128149500Y-100646146D01*
X128173385Y-100735286D01*
X128173386Y-100735289D01*
X128206792Y-100793148D01*
X128219531Y-100815212D01*
X128284788Y-100880469D01*
X128364712Y-100926614D01*
X128386998Y-100932585D01*
X128453853Y-100950500D01*
X128453856Y-100950500D01*
X128546146Y-100950500D01*
X128590716Y-100938557D01*
X128635288Y-100926614D01*
X128715212Y-100880469D01*
X128780469Y-100815212D01*
X128826614Y-100735288D01*
X128847993Y-100655500D01*
X128850500Y-100646146D01*
X128850500Y-100553853D01*
X128850499Y-100553852D01*
X128839641Y-100513326D01*
X128837102Y-100503853D01*
X129149500Y-100503853D01*
X129149500Y-100596146D01*
X129173385Y-100685286D01*
X129173386Y-100685289D01*
X129206047Y-100741858D01*
X129219531Y-100765212D01*
X129284788Y-100830469D01*
X129364712Y-100876614D01*
X129386998Y-100882585D01*
X129453853Y-100900500D01*
X129453856Y-100900500D01*
X129546146Y-100900500D01*
X129590716Y-100888557D01*
X129635288Y-100876614D01*
X129715212Y-100830469D01*
X129780469Y-100765212D01*
X129826614Y-100685288D01*
X129840996Y-100631614D01*
X129850500Y-100596146D01*
X129850500Y-100503853D01*
X129829601Y-100425859D01*
X129826614Y-100414712D01*
X129780469Y-100334788D01*
X129715212Y-100269531D01*
X129680518Y-100249500D01*
X129635289Y-100223386D01*
X129635286Y-100223385D01*
X129546147Y-100199500D01*
X129546144Y-100199500D01*
X129453856Y-100199500D01*
X129453853Y-100199500D01*
X129364713Y-100223385D01*
X129364710Y-100223386D01*
X129284794Y-100269527D01*
X129284784Y-100269534D01*
X129219534Y-100334784D01*
X129219527Y-100334794D01*
X129173386Y-100414710D01*
X129173385Y-100414713D01*
X129149500Y-100503853D01*
X128837102Y-100503853D01*
X128832275Y-100485841D01*
X128826614Y-100464712D01*
X128819057Y-100451624D01*
X128804181Y-100425858D01*
X128780469Y-100384788D01*
X128715212Y-100319531D01*
X128686868Y-100303166D01*
X128635289Y-100273386D01*
X128635286Y-100273385D01*
X128546147Y-100249500D01*
X128546144Y-100249500D01*
X128453856Y-100249500D01*
X128453853Y-100249500D01*
X128364713Y-100273385D01*
X128364710Y-100273386D01*
X128284794Y-100319527D01*
X128284784Y-100319534D01*
X128219534Y-100384784D01*
X128219527Y-100384794D01*
X128173386Y-100464710D01*
X128173385Y-100464713D01*
X128149500Y-100553853D01*
X123929352Y-100553853D01*
X123612579Y-99563765D01*
X124724500Y-99563765D01*
X124724500Y-99736234D01*
X124758142Y-99905364D01*
X124758145Y-99905375D01*
X124807501Y-100024531D01*
X124824142Y-100064705D01*
X124919955Y-100208099D01*
X125041901Y-100330045D01*
X125185295Y-100425858D01*
X125344626Y-100491855D01*
X125344632Y-100491856D01*
X125344635Y-100491857D01*
X125513765Y-100525499D01*
X125513768Y-100525499D01*
X125513771Y-100525500D01*
X125513772Y-100525500D01*
X125686228Y-100525500D01*
X125686229Y-100525500D01*
X125855374Y-100491855D01*
X126014705Y-100425858D01*
X126158099Y-100330045D01*
X126280045Y-100208099D01*
X126375858Y-100064705D01*
X126441855Y-99905374D01*
X126475500Y-99736229D01*
X126475500Y-99563771D01*
X126469550Y-99533856D01*
X126441857Y-99394635D01*
X126441854Y-99394624D01*
X126429496Y-99364788D01*
X126375858Y-99235295D01*
X126280045Y-99091901D01*
X126158099Y-98969955D01*
X126014705Y-98874142D01*
X126014702Y-98874140D01*
X126014701Y-98874140D01*
X125855375Y-98808145D01*
X125855364Y-98808142D01*
X125686234Y-98774500D01*
X125686229Y-98774500D01*
X125513771Y-98774500D01*
X125513765Y-98774500D01*
X125344635Y-98808142D01*
X125344624Y-98808145D01*
X125185298Y-98874140D01*
X125041901Y-98969954D01*
X124919954Y-99091901D01*
X124824140Y-99235298D01*
X124758145Y-99394624D01*
X124758142Y-99394635D01*
X124724500Y-99563765D01*
X123612579Y-99563765D01*
X123350345Y-98744138D01*
X121868790Y-97077389D01*
X121858084Y-97057518D01*
X121846614Y-97014712D01*
X121846613Y-97014710D01*
X121815296Y-96960469D01*
X121800469Y-96934788D01*
X121735212Y-96869531D01*
X121732430Y-96867925D01*
X121655290Y-96823386D01*
X121655282Y-96823383D01*
X121653348Y-96822865D01*
X121629415Y-96808091D01*
X121000000Y-96100000D01*
X118627743Y-96100000D01*
X118593095Y-96085648D01*
X118585726Y-96076210D01*
X118197716Y-95429527D01*
X117647144Y-94511907D01*
X117640166Y-94486113D01*
X117699727Y-89522717D01*
X117714493Y-89488245D01*
X117717498Y-89485544D01*
X119819754Y-87748898D01*
X119828687Y-87743034D01*
X119920772Y-87696115D01*
X120102298Y-87564229D01*
X120167027Y-87499500D01*
X120260953Y-87405575D01*
X120260954Y-87405572D01*
X120260958Y-87405569D01*
X120351654Y-87280735D01*
X120358267Y-87273344D01*
X123400000Y-84500000D01*
X123400000Y-84055821D01*
X123414352Y-84021173D01*
X123449000Y-84006821D01*
X123473500Y-84013386D01*
X123539710Y-84051613D01*
X123539712Y-84051614D01*
X123555413Y-84055821D01*
X123628853Y-84075500D01*
X123628856Y-84075500D01*
X123721146Y-84075500D01*
X123765716Y-84063557D01*
X123810288Y-84051614D01*
X123890212Y-84005469D01*
X123955469Y-83940212D01*
X124001614Y-83860288D01*
X124014963Y-83810469D01*
X124025500Y-83771146D01*
X124025500Y-83678853D01*
X124001614Y-83589713D01*
X124001613Y-83589710D01*
X123955472Y-83509794D01*
X123955469Y-83509788D01*
X123890212Y-83444531D01*
X123876498Y-83436613D01*
X123810289Y-83398386D01*
X123810286Y-83398385D01*
X123721147Y-83374500D01*
X123721144Y-83374500D01*
X123628856Y-83374500D01*
X123628853Y-83374500D01*
X123539713Y-83398385D01*
X123539709Y-83398386D01*
X123473500Y-83436613D01*
X123436318Y-83441508D01*
X123406565Y-83418678D01*
X123400000Y-83394178D01*
X123400000Y-76680000D01*
X122977314Y-76200000D01*
X122973469Y-76195634D01*
X122973468Y-76195633D01*
X120849077Y-76198977D01*
X120814406Y-76184680D01*
X120800000Y-76150054D01*
X120800000Y-74849000D01*
X120814352Y-74814352D01*
X120849000Y-74800000D01*
X126192672Y-74800000D01*
X126227320Y-74814352D01*
G37*
%TD.AperFunction*%
%TD*%
%TA.AperFunction,Conductor*%
%TO.N,+3.3V*%
G36*
X128712431Y-71905137D02*
G01*
X128723667Y-71922488D01*
X129351512Y-73580000D01*
X130136023Y-73580000D01*
X130170671Y-73594352D01*
X130185023Y-73629000D01*
X130171308Y-73662107D01*
X130171485Y-73662243D01*
X130170980Y-73662899D01*
X130170671Y-73663648D01*
X130169534Y-73664784D01*
X130169527Y-73664794D01*
X130123386Y-73744710D01*
X130123385Y-73744713D01*
X130099500Y-73833853D01*
X130099500Y-73926146D01*
X130123385Y-74015286D01*
X130123386Y-74015289D01*
X130163513Y-74084788D01*
X130169531Y-74095212D01*
X130234788Y-74160469D01*
X130314712Y-74206614D01*
X130329215Y-74210500D01*
X130403853Y-74230500D01*
X130403856Y-74230500D01*
X130496146Y-74230500D01*
X130540716Y-74218557D01*
X130585288Y-74206614D01*
X130665212Y-74160469D01*
X130730469Y-74095212D01*
X130748339Y-74064260D01*
X130778090Y-74041431D01*
X130815272Y-74046325D01*
X130833207Y-74064259D01*
X130839531Y-74075212D01*
X130904788Y-74140469D01*
X130984712Y-74186614D01*
X131006998Y-74192585D01*
X131073853Y-74210500D01*
X131073856Y-74210500D01*
X131166146Y-74210500D01*
X131210716Y-74198557D01*
X131255288Y-74186614D01*
X131335212Y-74140469D01*
X131400469Y-74075212D01*
X131446614Y-73995288D01*
X131465015Y-73926614D01*
X131470500Y-73906146D01*
X131470500Y-73813853D01*
X131451972Y-73744710D01*
X131446614Y-73724712D01*
X131440840Y-73714712D01*
X131405499Y-73653500D01*
X131400603Y-73616318D01*
X131423434Y-73586565D01*
X131447934Y-73580000D01*
X138368412Y-73580000D01*
X138403060Y-73594352D01*
X138413040Y-73608769D01*
X139066322Y-75050000D01*
X139712917Y-75051543D01*
X139731277Y-75056501D01*
X139731741Y-75055384D01*
X139734712Y-75056614D01*
X139823852Y-75080499D01*
X139823853Y-75080500D01*
X139823856Y-75080500D01*
X139916147Y-75080500D01*
X139916147Y-75080499D01*
X140005288Y-75056614D01*
X140005298Y-75056607D01*
X140006710Y-75056024D01*
X140025586Y-75052289D01*
X141897314Y-75056756D01*
X141931928Y-75071191D01*
X141935850Y-75075640D01*
X142697527Y-76053230D01*
X142707874Y-76083469D01*
X142699641Y-79356227D01*
X142693077Y-79380602D01*
X142673387Y-79414708D01*
X142673384Y-79414716D01*
X142649500Y-79503853D01*
X142649500Y-79596146D01*
X142673385Y-79685286D01*
X142673386Y-79685289D01*
X142710692Y-79749902D01*
X142719531Y-79765212D01*
X142784788Y-79830469D01*
X142832742Y-79858156D01*
X142864708Y-79876612D01*
X142864709Y-79876612D01*
X142864712Y-79876614D01*
X142904372Y-79887240D01*
X142934123Y-79910068D01*
X142956992Y-79950000D01*
X143541805Y-79947335D01*
X143654844Y-79883198D01*
X143691702Y-79878487D01*
X143724365Y-79887239D01*
X143773854Y-79900500D01*
X143773856Y-79900500D01*
X143866146Y-79900500D01*
X143915635Y-79887239D01*
X143955288Y-79876614D01*
X144035212Y-79830469D01*
X144100469Y-79765212D01*
X144146614Y-79685288D01*
X144166935Y-79609449D01*
X144189765Y-79579696D01*
X144189921Y-79579606D01*
X144607540Y-79342657D01*
X144644754Y-79338042D01*
X144656212Y-79342838D01*
X144714712Y-79376614D01*
X144736998Y-79382585D01*
X144803853Y-79400500D01*
X144803856Y-79400500D01*
X144896146Y-79400500D01*
X144949333Y-79386248D01*
X144985288Y-79376614D01*
X145065212Y-79330469D01*
X145101329Y-79294352D01*
X145135977Y-79280000D01*
X147882797Y-79280000D01*
X147913429Y-79290755D01*
X148125365Y-79460500D01*
X149713195Y-80732234D01*
X149713196Y-80732233D01*
X149713197Y-80732234D01*
X149904970Y-80701364D01*
X150476021Y-80609444D01*
X150509159Y-80615890D01*
X151571410Y-81258239D01*
X152623121Y-81790324D01*
X152647558Y-81818771D01*
X152650000Y-81834046D01*
X152650000Y-82647691D01*
X152635648Y-82682339D01*
X152601033Y-82696691D01*
X149312046Y-82698933D01*
X149281589Y-82688344D01*
X148909795Y-82393861D01*
X148892889Y-82368133D01*
X148886614Y-82344712D01*
X148872075Y-82319531D01*
X148849524Y-82280472D01*
X148840469Y-82264788D01*
X148775212Y-82199531D01*
X148766990Y-82194784D01*
X148695289Y-82153386D01*
X148695286Y-82153385D01*
X148606147Y-82129500D01*
X148606144Y-82129500D01*
X148593085Y-82129500D01*
X148562661Y-82118911D01*
X148517810Y-82083386D01*
X147150000Y-81000000D01*
X147149999Y-81000000D01*
X143990912Y-81000000D01*
X143750000Y-81294447D01*
X143750000Y-84215265D01*
X143735648Y-84249913D01*
X143714920Y-84262246D01*
X143256814Y-84397981D01*
X143242894Y-84400000D01*
X142600000Y-84400000D01*
X142201470Y-84798528D01*
X142166822Y-84812880D01*
X142142322Y-84806315D01*
X142085289Y-84773386D01*
X142085286Y-84773385D01*
X141996147Y-84749500D01*
X141996144Y-84749500D01*
X141903856Y-84749500D01*
X141903853Y-84749500D01*
X141814713Y-84773385D01*
X141814710Y-84773386D01*
X141734794Y-84819527D01*
X141734784Y-84819534D01*
X141669534Y-84884784D01*
X141669527Y-84884794D01*
X141623386Y-84964710D01*
X141623385Y-84964713D01*
X141599500Y-85053853D01*
X141599500Y-85146146D01*
X141623385Y-85235286D01*
X141623386Y-85235289D01*
X141643716Y-85270500D01*
X141669531Y-85315212D01*
X141734788Y-85380469D01*
X141814712Y-85426614D01*
X141836998Y-85432585D01*
X141903853Y-85450500D01*
X141903856Y-85450500D01*
X141996146Y-85450500D01*
X142040716Y-85438557D01*
X142085288Y-85426614D01*
X142165212Y-85380469D01*
X142173767Y-85371913D01*
X142208414Y-85357561D01*
X142239444Y-85368636D01*
X142516111Y-85595000D01*
X143296560Y-85595000D01*
X143327170Y-85605737D01*
X144406610Y-86469288D01*
X144424700Y-86502140D01*
X144425000Y-86507551D01*
X144425000Y-87290264D01*
X144411321Y-87324226D01*
X144064460Y-87684962D01*
X144030100Y-87699991D01*
X144029139Y-87700000D01*
X143782670Y-87700000D01*
X143748022Y-87685648D01*
X143747180Y-87684785D01*
X143461590Y-87384784D01*
X143111669Y-87017207D01*
X143099833Y-86996110D01*
X143080702Y-86924712D01*
X143034557Y-86844788D01*
X142969300Y-86779531D01*
X142963930Y-86776430D01*
X142889377Y-86733386D01*
X142889374Y-86733385D01*
X142800235Y-86709500D01*
X142800232Y-86709500D01*
X142707944Y-86709500D01*
X142707941Y-86709500D01*
X142618801Y-86733385D01*
X142538873Y-86779533D01*
X142516346Y-86802058D01*
X142481697Y-86816408D01*
X142480877Y-86816401D01*
X142100000Y-86810000D01*
X141673856Y-87182876D01*
X141641589Y-87195000D01*
X140183243Y-87195000D01*
X139444446Y-87700000D01*
X139444334Y-87700077D01*
X139444326Y-87700083D01*
X138000001Y-88699999D01*
X138000000Y-88700001D01*
X138000000Y-91429540D01*
X137995380Y-91450311D01*
X137703767Y-92073386D01*
X137686800Y-92091885D01*
X137687332Y-92092579D01*
X137684784Y-92094533D01*
X137619535Y-92159783D01*
X137619527Y-92159794D01*
X137573386Y-92239710D01*
X137573385Y-92239713D01*
X137549500Y-92328853D01*
X137549500Y-92350351D01*
X137535148Y-92384999D01*
X137523622Y-92393553D01*
X136189261Y-93107718D01*
X136153456Y-93111846D01*
X136099851Y-93097482D01*
X136099849Y-93097482D01*
X136007561Y-93097482D01*
X136007558Y-93097482D01*
X135918418Y-93121367D01*
X135918415Y-93121368D01*
X135838499Y-93167509D01*
X135838489Y-93167516D01*
X135773239Y-93232766D01*
X135773232Y-93232776D01*
X135727091Y-93312692D01*
X135727090Y-93312695D01*
X135703205Y-93401835D01*
X135703205Y-93494128D01*
X135727090Y-93583268D01*
X135727091Y-93583271D01*
X135754342Y-93630469D01*
X135773236Y-93663194D01*
X135773239Y-93663197D01*
X135786727Y-93676685D01*
X135801079Y-93711333D01*
X135800959Y-93714755D01*
X135790850Y-93859129D01*
X135790849Y-93859158D01*
X135791549Y-93993904D01*
X135777378Y-94028626D01*
X135773240Y-94032764D01*
X135773237Y-94032768D01*
X135773236Y-94032770D01*
X135761062Y-94053856D01*
X135727090Y-94112695D01*
X135703205Y-94201835D01*
X135703205Y-94294128D01*
X135727090Y-94383268D01*
X135727091Y-94383271D01*
X135752116Y-94426614D01*
X135773236Y-94463194D01*
X135773239Y-94463197D01*
X135779850Y-94469808D01*
X135794201Y-94504201D01*
X135799861Y-95593396D01*
X135785690Y-95628119D01*
X135777640Y-95634687D01*
X135386389Y-95890000D01*
X135386388Y-95890001D01*
X135395686Y-97712735D01*
X135381512Y-97747456D01*
X135371188Y-97755420D01*
X135294791Y-97799529D01*
X135294784Y-97799534D01*
X135229534Y-97864784D01*
X135229527Y-97864794D01*
X135183386Y-97944710D01*
X135183385Y-97944713D01*
X135159500Y-98033853D01*
X135159500Y-98126146D01*
X135183385Y-98215286D01*
X135183386Y-98215289D01*
X135226430Y-98289842D01*
X135229531Y-98295212D01*
X135294788Y-98360469D01*
X135294792Y-98360471D01*
X135294793Y-98360472D01*
X135374942Y-98406747D01*
X135378897Y-98411902D01*
X135384913Y-98414358D01*
X135389913Y-98426258D01*
X135397772Y-98436500D01*
X135399441Y-98448932D01*
X135399748Y-98509141D01*
X135385573Y-98543862D01*
X135383860Y-98545511D01*
X135284230Y-98636839D01*
X135278764Y-98641175D01*
X134912502Y-98891456D01*
X134884857Y-98900000D01*
X133801228Y-98900000D01*
X133766580Y-98885648D01*
X133765481Y-98884513D01*
X133361947Y-98454083D01*
X133348694Y-98420704D01*
X133348134Y-98215289D01*
X133341536Y-95793853D01*
X133849500Y-95793853D01*
X133849500Y-95886146D01*
X133873385Y-95975286D01*
X133873386Y-95975289D01*
X133909843Y-96038433D01*
X133919531Y-96055212D01*
X133984788Y-96120469D01*
X134064712Y-96166614D01*
X134084466Y-96171907D01*
X134153853Y-96190500D01*
X134153856Y-96190500D01*
X134246146Y-96190500D01*
X134309861Y-96173427D01*
X134335288Y-96166614D01*
X134415212Y-96120469D01*
X134480469Y-96055212D01*
X134526614Y-95975288D01*
X134538557Y-95930716D01*
X134550500Y-95886146D01*
X134550500Y-95793853D01*
X134530429Y-95718951D01*
X134526614Y-95704712D01*
X134480469Y-95624788D01*
X134415212Y-95559531D01*
X134409842Y-95556430D01*
X134335289Y-95513386D01*
X134335286Y-95513385D01*
X134246147Y-95489500D01*
X134246144Y-95489500D01*
X134153856Y-95489500D01*
X134153853Y-95489500D01*
X134064713Y-95513385D01*
X134064710Y-95513386D01*
X133984794Y-95559527D01*
X133984784Y-95559534D01*
X133919534Y-95624784D01*
X133919527Y-95624794D01*
X133873386Y-95704710D01*
X133873385Y-95704713D01*
X133849500Y-95793853D01*
X133341536Y-95793853D01*
X133340061Y-95252521D01*
X133354318Y-95217834D01*
X133357044Y-95215295D01*
X133439852Y-95143853D01*
X134769500Y-95143853D01*
X134769500Y-95236146D01*
X134793385Y-95325286D01*
X134793386Y-95325289D01*
X134836430Y-95399842D01*
X134839531Y-95405212D01*
X134904788Y-95470469D01*
X134984712Y-95516614D01*
X135006998Y-95522585D01*
X135073853Y-95540500D01*
X135073856Y-95540500D01*
X135166146Y-95540500D01*
X135210716Y-95528557D01*
X135255288Y-95516614D01*
X135335212Y-95470469D01*
X135400469Y-95405212D01*
X135446614Y-95325288D01*
X135466112Y-95252521D01*
X135470500Y-95236146D01*
X135470500Y-95143853D01*
X135446614Y-95054713D01*
X135446613Y-95054710D01*
X135432635Y-95030500D01*
X135400469Y-94974788D01*
X135335212Y-94909531D01*
X135310411Y-94895212D01*
X135255289Y-94863386D01*
X135255286Y-94863385D01*
X135166147Y-94839500D01*
X135166144Y-94839500D01*
X135073856Y-94839500D01*
X135073853Y-94839500D01*
X134984713Y-94863385D01*
X134984710Y-94863386D01*
X134904794Y-94909527D01*
X134904784Y-94909534D01*
X134839534Y-94974784D01*
X134839527Y-94974794D01*
X134793386Y-95054710D01*
X134793385Y-95054713D01*
X134769500Y-95143853D01*
X133439852Y-95143853D01*
X133850000Y-94790000D01*
X134195308Y-94463876D01*
X134228953Y-94450500D01*
X134296146Y-94450500D01*
X134340716Y-94438557D01*
X134385288Y-94426614D01*
X134465212Y-94380469D01*
X134530469Y-94315212D01*
X134576614Y-94235288D01*
X134591294Y-94180500D01*
X134600500Y-94146146D01*
X134600500Y-94053858D01*
X134600500Y-94053856D01*
X134600243Y-94052897D01*
X134600275Y-94052153D01*
X134600081Y-94050675D01*
X134600342Y-94050640D01*
X134601534Y-94023446D01*
X135034343Y-92835526D01*
X135053905Y-92811072D01*
X136452819Y-91912906D01*
X136479292Y-91905139D01*
X136491507Y-91905139D01*
X136546254Y-91890469D01*
X136580649Y-91881253D01*
X136660573Y-91835108D01*
X136725830Y-91769851D01*
X136749452Y-91728936D01*
X136765406Y-91712210D01*
X136800000Y-91690000D01*
X136800000Y-91000000D01*
X136120115Y-90816314D01*
X136108363Y-90810497D01*
X136107994Y-90811137D01*
X136025289Y-90763386D01*
X136025286Y-90763385D01*
X135936147Y-90739500D01*
X135936144Y-90739500D01*
X135843856Y-90739500D01*
X135842299Y-90739500D01*
X135829519Y-90737804D01*
X135018347Y-90518648D01*
X134989793Y-90497659D01*
X134100000Y-89100000D01*
X130360587Y-89100000D01*
X130325939Y-89085648D01*
X130325591Y-89085297D01*
X129360000Y-88100000D01*
X128190907Y-88099910D01*
X128156260Y-88085556D01*
X128154035Y-88083177D01*
X127856101Y-87742681D01*
X127852941Y-87739070D01*
X127850469Y-87734788D01*
X127840269Y-87724588D01*
X127839198Y-87723364D01*
X127716302Y-87582911D01*
X127690876Y-87553853D01*
X131749500Y-87553853D01*
X131749500Y-87646146D01*
X131773385Y-87735286D01*
X131773386Y-87735289D01*
X131799472Y-87780469D01*
X131819531Y-87815212D01*
X131884788Y-87880469D01*
X131964712Y-87926614D01*
X131986998Y-87932585D01*
X132053853Y-87950500D01*
X132053856Y-87950500D01*
X132146146Y-87950500D01*
X132190716Y-87938557D01*
X132235288Y-87926614D01*
X132315212Y-87880469D01*
X132380469Y-87815212D01*
X132426614Y-87735288D01*
X132442336Y-87676614D01*
X132450500Y-87646146D01*
X132450500Y-87553853D01*
X132549500Y-87553853D01*
X132549500Y-87646146D01*
X132573385Y-87735286D01*
X132573386Y-87735289D01*
X132599472Y-87780469D01*
X132619531Y-87815212D01*
X132684788Y-87880469D01*
X132764712Y-87926614D01*
X132786998Y-87932585D01*
X132853853Y-87950500D01*
X132853856Y-87950500D01*
X132946146Y-87950500D01*
X132990716Y-87938557D01*
X133035288Y-87926614D01*
X133115212Y-87880469D01*
X133180469Y-87815212D01*
X133226614Y-87735288D01*
X133242336Y-87676614D01*
X133250500Y-87646146D01*
X133250500Y-87553853D01*
X133349500Y-87553853D01*
X133349500Y-87646146D01*
X133373385Y-87735286D01*
X133373386Y-87735289D01*
X133399472Y-87780469D01*
X133419531Y-87815212D01*
X133484788Y-87880469D01*
X133564712Y-87926614D01*
X133586998Y-87932585D01*
X133653853Y-87950500D01*
X133653856Y-87950500D01*
X133746146Y-87950500D01*
X133790716Y-87938557D01*
X133835288Y-87926614D01*
X133915212Y-87880469D01*
X133980469Y-87815212D01*
X134026614Y-87735288D01*
X134042336Y-87676614D01*
X134050500Y-87646146D01*
X134050500Y-87553853D01*
X134949500Y-87553853D01*
X134949500Y-87646146D01*
X134973385Y-87735286D01*
X134973386Y-87735289D01*
X134999472Y-87780469D01*
X135019531Y-87815212D01*
X135084788Y-87880469D01*
X135164712Y-87926614D01*
X135186998Y-87932585D01*
X135253853Y-87950500D01*
X135253856Y-87950500D01*
X135346146Y-87950500D01*
X135390716Y-87938557D01*
X135435288Y-87926614D01*
X135515212Y-87880469D01*
X135580469Y-87815212D01*
X135626614Y-87735288D01*
X135642336Y-87676614D01*
X135650500Y-87646146D01*
X135650500Y-87553853D01*
X135626614Y-87464713D01*
X135626613Y-87464710D01*
X135592467Y-87405569D01*
X135580469Y-87384788D01*
X135515212Y-87319531D01*
X135488063Y-87303856D01*
X135435289Y-87273386D01*
X135435286Y-87273385D01*
X135346147Y-87249500D01*
X135346144Y-87249500D01*
X135253856Y-87249500D01*
X135253853Y-87249500D01*
X135164713Y-87273385D01*
X135164710Y-87273386D01*
X135084794Y-87319527D01*
X135084784Y-87319534D01*
X135019534Y-87384784D01*
X135019527Y-87384794D01*
X134973386Y-87464710D01*
X134973385Y-87464713D01*
X134949500Y-87553853D01*
X134050500Y-87553853D01*
X134026614Y-87464713D01*
X134026613Y-87464710D01*
X133992467Y-87405569D01*
X133980469Y-87384788D01*
X133915212Y-87319531D01*
X133888063Y-87303856D01*
X133835289Y-87273386D01*
X133835286Y-87273385D01*
X133746147Y-87249500D01*
X133746144Y-87249500D01*
X133653856Y-87249500D01*
X133653853Y-87249500D01*
X133564713Y-87273385D01*
X133564710Y-87273386D01*
X133484794Y-87319527D01*
X133484784Y-87319534D01*
X133419534Y-87384784D01*
X133419527Y-87384794D01*
X133373386Y-87464710D01*
X133373385Y-87464713D01*
X133349500Y-87553853D01*
X133250500Y-87553853D01*
X133226614Y-87464713D01*
X133226613Y-87464710D01*
X133192467Y-87405569D01*
X133180469Y-87384788D01*
X133115212Y-87319531D01*
X133088063Y-87303856D01*
X133035289Y-87273386D01*
X133035286Y-87273385D01*
X132946147Y-87249500D01*
X132946144Y-87249500D01*
X132853856Y-87249500D01*
X132853853Y-87249500D01*
X132764713Y-87273385D01*
X132764710Y-87273386D01*
X132684794Y-87319527D01*
X132684784Y-87319534D01*
X132619534Y-87384784D01*
X132619527Y-87384794D01*
X132573386Y-87464710D01*
X132573385Y-87464713D01*
X132549500Y-87553853D01*
X132450500Y-87553853D01*
X132426614Y-87464713D01*
X132426613Y-87464710D01*
X132392467Y-87405569D01*
X132380469Y-87384788D01*
X132315212Y-87319531D01*
X132288063Y-87303856D01*
X132235289Y-87273386D01*
X132235286Y-87273385D01*
X132146147Y-87249500D01*
X132146144Y-87249500D01*
X132053856Y-87249500D01*
X132053853Y-87249500D01*
X131964713Y-87273385D01*
X131964710Y-87273386D01*
X131884794Y-87319527D01*
X131884784Y-87319534D01*
X131819534Y-87384784D01*
X131819527Y-87384794D01*
X131773386Y-87464710D01*
X131773385Y-87464713D01*
X131749500Y-87553853D01*
X127690876Y-87553853D01*
X127512124Y-87349565D01*
X127500000Y-87317298D01*
X127500000Y-86753853D01*
X128549500Y-86753853D01*
X128549500Y-86846146D01*
X128573385Y-86935286D01*
X128573386Y-86935289D01*
X128616430Y-87009842D01*
X128619531Y-87015212D01*
X128684788Y-87080469D01*
X128764712Y-87126614D01*
X128779099Y-87130469D01*
X128853853Y-87150500D01*
X128853856Y-87150500D01*
X128946146Y-87150500D01*
X129002916Y-87135288D01*
X129035288Y-87126614D01*
X129115212Y-87080469D01*
X129180469Y-87015212D01*
X129226614Y-86935288D01*
X129242336Y-86876613D01*
X129250500Y-86846146D01*
X129250500Y-86753853D01*
X129226614Y-86664713D01*
X129226613Y-86664710D01*
X129197191Y-86613751D01*
X129180469Y-86584788D01*
X129115212Y-86519531D01*
X129109842Y-86516430D01*
X129088058Y-86503853D01*
X130149500Y-86503853D01*
X130149500Y-86596146D01*
X130173385Y-86685286D01*
X130173386Y-86685289D01*
X130196974Y-86726143D01*
X130219531Y-86765212D01*
X130284788Y-86830469D01*
X130364712Y-86876614D01*
X130379099Y-86880469D01*
X130453853Y-86900500D01*
X130453856Y-86900500D01*
X130546146Y-86900500D01*
X130590716Y-86888557D01*
X130635288Y-86876614D01*
X130715212Y-86830469D01*
X130780469Y-86765212D01*
X130787027Y-86753853D01*
X131749500Y-86753853D01*
X131749500Y-86846146D01*
X131773385Y-86935286D01*
X131773386Y-86935289D01*
X131816430Y-87009842D01*
X131819531Y-87015212D01*
X131884788Y-87080469D01*
X131964712Y-87126614D01*
X131979099Y-87130469D01*
X132053853Y-87150500D01*
X132053856Y-87150500D01*
X132146146Y-87150500D01*
X132202916Y-87135288D01*
X132235288Y-87126614D01*
X132315212Y-87080469D01*
X132380469Y-87015212D01*
X132426614Y-86935288D01*
X132442336Y-86876613D01*
X132450500Y-86846146D01*
X132450500Y-86753853D01*
X133349500Y-86753853D01*
X133349500Y-86846146D01*
X133373385Y-86935286D01*
X133373386Y-86935289D01*
X133416430Y-87009842D01*
X133419531Y-87015212D01*
X133484788Y-87080469D01*
X133564712Y-87126614D01*
X133579099Y-87130469D01*
X133653853Y-87150500D01*
X133653856Y-87150500D01*
X133746146Y-87150500D01*
X133802916Y-87135288D01*
X133835288Y-87126614D01*
X133915212Y-87080469D01*
X133980469Y-87015212D01*
X134026614Y-86935288D01*
X134042336Y-86876613D01*
X134050500Y-86846146D01*
X134050500Y-86753853D01*
X134149500Y-86753853D01*
X134149500Y-86846146D01*
X134173385Y-86935286D01*
X134173386Y-86935289D01*
X134216430Y-87009842D01*
X134219531Y-87015212D01*
X134284788Y-87080469D01*
X134364712Y-87126614D01*
X134379099Y-87130469D01*
X134453853Y-87150500D01*
X134453856Y-87150500D01*
X134546146Y-87150500D01*
X134602916Y-87135288D01*
X134635288Y-87126614D01*
X134715212Y-87080469D01*
X134780469Y-87015212D01*
X134826614Y-86935288D01*
X134842336Y-86876613D01*
X134850500Y-86846146D01*
X134850500Y-86753853D01*
X135749500Y-86753853D01*
X135749500Y-86846146D01*
X135773385Y-86935286D01*
X135773386Y-86935289D01*
X135816430Y-87009842D01*
X135819531Y-87015212D01*
X135884788Y-87080469D01*
X135964712Y-87126614D01*
X135979099Y-87130469D01*
X136053853Y-87150500D01*
X136053856Y-87150500D01*
X136146146Y-87150500D01*
X136202916Y-87135288D01*
X136235288Y-87126614D01*
X136315212Y-87080469D01*
X136380469Y-87015212D01*
X136415895Y-86953853D01*
X138249500Y-86953853D01*
X138249500Y-87046146D01*
X138273385Y-87135286D01*
X138273386Y-87135289D01*
X138307861Y-87195000D01*
X138319531Y-87215212D01*
X138384788Y-87280469D01*
X138425295Y-87303856D01*
X138448576Y-87317298D01*
X138464712Y-87326614D01*
X138486998Y-87332585D01*
X138553853Y-87350500D01*
X138553856Y-87350500D01*
X138646146Y-87350500D01*
X138690716Y-87338557D01*
X138735288Y-87326614D01*
X138815212Y-87280469D01*
X138880469Y-87215212D01*
X138926614Y-87135288D01*
X138941304Y-87080465D01*
X138950500Y-87046146D01*
X138950500Y-86953853D01*
X138926614Y-86864713D01*
X138926613Y-86864710D01*
X138898721Y-86816401D01*
X138880469Y-86784788D01*
X138815212Y-86719531D01*
X138780844Y-86699688D01*
X138735289Y-86673386D01*
X138735286Y-86673385D01*
X138646147Y-86649500D01*
X138646144Y-86649500D01*
X138553856Y-86649500D01*
X138553853Y-86649500D01*
X138464713Y-86673385D01*
X138464710Y-86673386D01*
X138384794Y-86719527D01*
X138384784Y-86719534D01*
X138319534Y-86784784D01*
X138319527Y-86784794D01*
X138273386Y-86864710D01*
X138273385Y-86864713D01*
X138249500Y-86953853D01*
X136415895Y-86953853D01*
X136426614Y-86935288D01*
X136450499Y-86846147D01*
X136450500Y-86846147D01*
X136450500Y-86753853D01*
X136426614Y-86664713D01*
X136426613Y-86664710D01*
X136397191Y-86613751D01*
X136380469Y-86584788D01*
X136315212Y-86519531D01*
X136309842Y-86516430D01*
X136235289Y-86473386D01*
X136235286Y-86473385D01*
X136146147Y-86449500D01*
X136146144Y-86449500D01*
X136053856Y-86449500D01*
X136053853Y-86449500D01*
X135964713Y-86473385D01*
X135964710Y-86473386D01*
X135884794Y-86519527D01*
X135884784Y-86519534D01*
X135819534Y-86584784D01*
X135819527Y-86584794D01*
X135773386Y-86664710D01*
X135773385Y-86664713D01*
X135749500Y-86753853D01*
X134850500Y-86753853D01*
X134826614Y-86664713D01*
X134826613Y-86664710D01*
X134797191Y-86613751D01*
X134780469Y-86584788D01*
X134715212Y-86519531D01*
X134709842Y-86516430D01*
X134635289Y-86473386D01*
X134635286Y-86473385D01*
X134546147Y-86449500D01*
X134546144Y-86449500D01*
X134453856Y-86449500D01*
X134453853Y-86449500D01*
X134364713Y-86473385D01*
X134364710Y-86473386D01*
X134284794Y-86519527D01*
X134284784Y-86519534D01*
X134219534Y-86584784D01*
X134219527Y-86584794D01*
X134173386Y-86664710D01*
X134173385Y-86664713D01*
X134149500Y-86753853D01*
X134050500Y-86753853D01*
X134026614Y-86664713D01*
X134026613Y-86664710D01*
X133997191Y-86613751D01*
X133980469Y-86584788D01*
X133915212Y-86519531D01*
X133909842Y-86516430D01*
X133835289Y-86473386D01*
X133835286Y-86473385D01*
X133746147Y-86449500D01*
X133746144Y-86449500D01*
X133653856Y-86449500D01*
X133653853Y-86449500D01*
X133564713Y-86473385D01*
X133564710Y-86473386D01*
X133484794Y-86519527D01*
X133484784Y-86519534D01*
X133419534Y-86584784D01*
X133419527Y-86584794D01*
X133373386Y-86664710D01*
X133373385Y-86664713D01*
X133349500Y-86753853D01*
X132450500Y-86753853D01*
X132426614Y-86664713D01*
X132426613Y-86664710D01*
X132397191Y-86613751D01*
X132380469Y-86584788D01*
X132315212Y-86519531D01*
X132309842Y-86516430D01*
X132235289Y-86473386D01*
X132235286Y-86473385D01*
X132146147Y-86449500D01*
X132146144Y-86449500D01*
X132053856Y-86449500D01*
X132053853Y-86449500D01*
X131964713Y-86473385D01*
X131964710Y-86473386D01*
X131884794Y-86519527D01*
X131884784Y-86519534D01*
X131819534Y-86584784D01*
X131819527Y-86584794D01*
X131773386Y-86664710D01*
X131773385Y-86664713D01*
X131749500Y-86753853D01*
X130787027Y-86753853D01*
X130803026Y-86726143D01*
X130803027Y-86726142D01*
X130826613Y-86685290D01*
X130826613Y-86685289D01*
X130826614Y-86685288D01*
X130845015Y-86616614D01*
X130850500Y-86596146D01*
X130850500Y-86503853D01*
X130826614Y-86414713D01*
X130826613Y-86414710D01*
X130802754Y-86373386D01*
X130780469Y-86334788D01*
X130715212Y-86269531D01*
X130680518Y-86249500D01*
X130635289Y-86223386D01*
X130635286Y-86223385D01*
X130546147Y-86199500D01*
X130546144Y-86199500D01*
X130453856Y-86199500D01*
X130453853Y-86199500D01*
X130364713Y-86223385D01*
X130364710Y-86223386D01*
X130284794Y-86269527D01*
X130284784Y-86269534D01*
X130219534Y-86334784D01*
X130219527Y-86334794D01*
X130173386Y-86414710D01*
X130173385Y-86414713D01*
X130149500Y-86503853D01*
X129088058Y-86503853D01*
X129035289Y-86473386D01*
X129035286Y-86473385D01*
X128946147Y-86449500D01*
X128946144Y-86449500D01*
X128853856Y-86449500D01*
X128853853Y-86449500D01*
X128764713Y-86473385D01*
X128764710Y-86473386D01*
X128684794Y-86519527D01*
X128684784Y-86519534D01*
X128619534Y-86584784D01*
X128619527Y-86584794D01*
X128573386Y-86664710D01*
X128573385Y-86664713D01*
X128549500Y-86753853D01*
X127500000Y-86753853D01*
X127500000Y-85953853D01*
X128549500Y-85953853D01*
X128549500Y-86046146D01*
X128573385Y-86135286D01*
X128573386Y-86135289D01*
X128616430Y-86209842D01*
X128619531Y-86215212D01*
X128684788Y-86280469D01*
X128764712Y-86326614D01*
X128786998Y-86332585D01*
X128853853Y-86350500D01*
X128853856Y-86350500D01*
X128946146Y-86350500D01*
X128999721Y-86336144D01*
X129035288Y-86326614D01*
X129115212Y-86280469D01*
X129180469Y-86215212D01*
X129226614Y-86135288D01*
X129248434Y-86053856D01*
X129250500Y-86046146D01*
X129250500Y-85953853D01*
X130949500Y-85953853D01*
X130949500Y-86046146D01*
X130973385Y-86135286D01*
X130973386Y-86135289D01*
X131016430Y-86209842D01*
X131019531Y-86215212D01*
X131084788Y-86280469D01*
X131164712Y-86326614D01*
X131186998Y-86332585D01*
X131253853Y-86350500D01*
X131253856Y-86350500D01*
X131346146Y-86350500D01*
X131399721Y-86336144D01*
X131435288Y-86326614D01*
X131515212Y-86280469D01*
X131580469Y-86215212D01*
X131626614Y-86135288D01*
X131648434Y-86053856D01*
X131650500Y-86046146D01*
X131650500Y-85953853D01*
X131749500Y-85953853D01*
X131749500Y-86046146D01*
X131773385Y-86135286D01*
X131773386Y-86135289D01*
X131816430Y-86209842D01*
X131819531Y-86215212D01*
X131884788Y-86280469D01*
X131964712Y-86326614D01*
X131986998Y-86332585D01*
X132053853Y-86350500D01*
X132053856Y-86350500D01*
X132146146Y-86350500D01*
X132199721Y-86336144D01*
X132235288Y-86326614D01*
X132315212Y-86280469D01*
X132380469Y-86215212D01*
X132426614Y-86135288D01*
X132448434Y-86053856D01*
X132450500Y-86046146D01*
X132450500Y-85953853D01*
X132426614Y-85864713D01*
X132426613Y-85864710D01*
X132380472Y-85784794D01*
X132380469Y-85784788D01*
X132315212Y-85719531D01*
X132309346Y-85716144D01*
X132235289Y-85673386D01*
X132235286Y-85673385D01*
X132146147Y-85649500D01*
X132146144Y-85649500D01*
X132053856Y-85649500D01*
X132053853Y-85649500D01*
X131964713Y-85673385D01*
X131964710Y-85673386D01*
X131884794Y-85719527D01*
X131884784Y-85719534D01*
X131819534Y-85784784D01*
X131819527Y-85784794D01*
X131773386Y-85864710D01*
X131773385Y-85864713D01*
X131749500Y-85953853D01*
X131650500Y-85953853D01*
X131626614Y-85864713D01*
X131626613Y-85864710D01*
X131580472Y-85784794D01*
X131580469Y-85784788D01*
X131515212Y-85719531D01*
X131509346Y-85716144D01*
X131435289Y-85673386D01*
X131435286Y-85673385D01*
X131346147Y-85649500D01*
X131346144Y-85649500D01*
X131253856Y-85649500D01*
X131253853Y-85649500D01*
X131164713Y-85673385D01*
X131164710Y-85673386D01*
X131084794Y-85719527D01*
X131084784Y-85719534D01*
X131019534Y-85784784D01*
X131019527Y-85784794D01*
X130973386Y-85864710D01*
X130973385Y-85864713D01*
X130949500Y-85953853D01*
X129250500Y-85953853D01*
X129226614Y-85864713D01*
X129226613Y-85864710D01*
X129180472Y-85784794D01*
X129180469Y-85784788D01*
X129115212Y-85719531D01*
X129109346Y-85716144D01*
X129035289Y-85673386D01*
X129035286Y-85673385D01*
X128946147Y-85649500D01*
X128946144Y-85649500D01*
X128853856Y-85649500D01*
X128853853Y-85649500D01*
X128764713Y-85673385D01*
X128764710Y-85673386D01*
X128684794Y-85719527D01*
X128684784Y-85719534D01*
X128619534Y-85784784D01*
X128619527Y-85784794D01*
X128573386Y-85864710D01*
X128573385Y-85864713D01*
X128549500Y-85953853D01*
X127500000Y-85953853D01*
X127500000Y-85153853D01*
X128549500Y-85153853D01*
X128549500Y-85246146D01*
X128573385Y-85335286D01*
X128573386Y-85335289D01*
X128587383Y-85359531D01*
X128619531Y-85415212D01*
X128684788Y-85480469D01*
X128764712Y-85526614D01*
X128786998Y-85532585D01*
X128853853Y-85550500D01*
X128853856Y-85550500D01*
X128946146Y-85550500D01*
X128990716Y-85538557D01*
X129035288Y-85526614D01*
X129115212Y-85480469D01*
X129180469Y-85415212D01*
X129226614Y-85335288D01*
X129243974Y-85270500D01*
X129250500Y-85246146D01*
X129250500Y-85153853D01*
X129349500Y-85153853D01*
X129349500Y-85246146D01*
X129373385Y-85335286D01*
X129373386Y-85335289D01*
X129387383Y-85359531D01*
X129419531Y-85415212D01*
X129484788Y-85480469D01*
X129564712Y-85526614D01*
X129586998Y-85532585D01*
X129653853Y-85550500D01*
X129653856Y-85550500D01*
X129746146Y-85550500D01*
X129790716Y-85538557D01*
X129835288Y-85526614D01*
X129915212Y-85480469D01*
X129980469Y-85415212D01*
X130026614Y-85335288D01*
X130043974Y-85270500D01*
X130050500Y-85246146D01*
X130050500Y-85153853D01*
X130949500Y-85153853D01*
X130949500Y-85246146D01*
X130973385Y-85335286D01*
X130973386Y-85335289D01*
X130987383Y-85359531D01*
X131019531Y-85415212D01*
X131084788Y-85480469D01*
X131164712Y-85526614D01*
X131186998Y-85532585D01*
X131253853Y-85550500D01*
X131253856Y-85550500D01*
X131346146Y-85550500D01*
X131390716Y-85538557D01*
X131435288Y-85526614D01*
X131515212Y-85480469D01*
X131580469Y-85415212D01*
X131626614Y-85335288D01*
X131643974Y-85270500D01*
X131650500Y-85246146D01*
X131650500Y-85153853D01*
X131749500Y-85153853D01*
X131749500Y-85246146D01*
X131773385Y-85335286D01*
X131773386Y-85335289D01*
X131787383Y-85359531D01*
X131819531Y-85415212D01*
X131884788Y-85480469D01*
X131964712Y-85526614D01*
X131986998Y-85532585D01*
X132053853Y-85550500D01*
X132053856Y-85550500D01*
X132146146Y-85550500D01*
X132190716Y-85538557D01*
X132235288Y-85526614D01*
X132315212Y-85480469D01*
X132380469Y-85415212D01*
X132426614Y-85335288D01*
X132443974Y-85270500D01*
X132450500Y-85246146D01*
X132450500Y-85153853D01*
X135749500Y-85153853D01*
X135749500Y-85246146D01*
X135773385Y-85335286D01*
X135773386Y-85335289D01*
X135787383Y-85359531D01*
X135819531Y-85415212D01*
X135884788Y-85480469D01*
X135964712Y-85526614D01*
X135986998Y-85532585D01*
X136053853Y-85550500D01*
X136053856Y-85550500D01*
X136146146Y-85550500D01*
X136190716Y-85538557D01*
X136235288Y-85526614D01*
X136315212Y-85480469D01*
X136380469Y-85415212D01*
X136426614Y-85335288D01*
X136443974Y-85270500D01*
X136450500Y-85246146D01*
X136450500Y-85193853D01*
X136699500Y-85193853D01*
X136699500Y-85286146D01*
X136723385Y-85375286D01*
X136723386Y-85375289D01*
X136766430Y-85449842D01*
X136769531Y-85455212D01*
X136834788Y-85520469D01*
X136882935Y-85548267D01*
X136912283Y-85565212D01*
X136914712Y-85566614D01*
X136936998Y-85572585D01*
X137003853Y-85590500D01*
X137003856Y-85590500D01*
X137096146Y-85590500D01*
X137140716Y-85578557D01*
X137185288Y-85566614D01*
X137265212Y-85520469D01*
X137330469Y-85455212D01*
X137376614Y-85375288D01*
X137391562Y-85319500D01*
X137400500Y-85286146D01*
X137400500Y-85193853D01*
X137376614Y-85104713D01*
X137376613Y-85104710D01*
X137353520Y-85064713D01*
X137330469Y-85024788D01*
X137265212Y-84959531D01*
X137255383Y-84953856D01*
X137185290Y-84913386D01*
X137185286Y-84913385D01*
X137096147Y-84889500D01*
X137096144Y-84889500D01*
X137003856Y-84889500D01*
X137003853Y-84889500D01*
X136914713Y-84913385D01*
X136914710Y-84913386D01*
X136834794Y-84959527D01*
X136834784Y-84959534D01*
X136769534Y-85024784D01*
X136769527Y-85024794D01*
X136723386Y-85104710D01*
X136723385Y-85104713D01*
X136699500Y-85193853D01*
X136450500Y-85193853D01*
X136450500Y-85153853D01*
X136426614Y-85064713D01*
X136426613Y-85064710D01*
X136402754Y-85023386D01*
X136380469Y-84984788D01*
X136315212Y-84919531D01*
X136263198Y-84889500D01*
X136236098Y-84873853D01*
X139389500Y-84873853D01*
X139389500Y-84966146D01*
X139413385Y-85055286D01*
X139413386Y-85055289D01*
X139431417Y-85086518D01*
X139459531Y-85135212D01*
X139524788Y-85200469D01*
X139604712Y-85246614D01*
X139626998Y-85252585D01*
X139693853Y-85270500D01*
X139693856Y-85270500D01*
X139786146Y-85270500D01*
X139833836Y-85257721D01*
X139875288Y-85246614D01*
X139955212Y-85200469D01*
X140020469Y-85135212D01*
X140066614Y-85055288D01*
X140085503Y-84984794D01*
X140090500Y-84966146D01*
X140090500Y-84873853D01*
X140066614Y-84784713D01*
X140066613Y-84784710D01*
X140020472Y-84704794D01*
X140020469Y-84704788D01*
X139955212Y-84639531D01*
X139949842Y-84636430D01*
X139875289Y-84593386D01*
X139875286Y-84593385D01*
X139786147Y-84569500D01*
X139786144Y-84569500D01*
X139693856Y-84569500D01*
X139693853Y-84569500D01*
X139604713Y-84593385D01*
X139604710Y-84593386D01*
X139524794Y-84639527D01*
X139524784Y-84639534D01*
X139459534Y-84704784D01*
X139459527Y-84704794D01*
X139413386Y-84784710D01*
X139413385Y-84784713D01*
X139389500Y-84873853D01*
X136236098Y-84873853D01*
X136235289Y-84873386D01*
X136235286Y-84873385D01*
X136146147Y-84849500D01*
X136146144Y-84849500D01*
X136053856Y-84849500D01*
X136053853Y-84849500D01*
X135964713Y-84873385D01*
X135964710Y-84873386D01*
X135884794Y-84919527D01*
X135884784Y-84919534D01*
X135819534Y-84984784D01*
X135819527Y-84984794D01*
X135773386Y-85064710D01*
X135773385Y-85064713D01*
X135749500Y-85153853D01*
X132450500Y-85153853D01*
X132426614Y-85064713D01*
X132426613Y-85064710D01*
X132402754Y-85023386D01*
X132380469Y-84984788D01*
X132315212Y-84919531D01*
X132263198Y-84889500D01*
X132235289Y-84873386D01*
X132235286Y-84873385D01*
X132146147Y-84849500D01*
X132146144Y-84849500D01*
X132053856Y-84849500D01*
X132053853Y-84849500D01*
X131964713Y-84873385D01*
X131964710Y-84873386D01*
X131884794Y-84919527D01*
X131884784Y-84919534D01*
X131819534Y-84984784D01*
X131819527Y-84984794D01*
X131773386Y-85064710D01*
X131773385Y-85064713D01*
X131749500Y-85153853D01*
X131650500Y-85153853D01*
X131626614Y-85064713D01*
X131626613Y-85064710D01*
X131602754Y-85023386D01*
X131580469Y-84984788D01*
X131515212Y-84919531D01*
X131463198Y-84889500D01*
X131435289Y-84873386D01*
X131435286Y-84873385D01*
X131346147Y-84849500D01*
X131346144Y-84849500D01*
X131253856Y-84849500D01*
X131253853Y-84849500D01*
X131164713Y-84873385D01*
X131164710Y-84873386D01*
X131084794Y-84919527D01*
X131084784Y-84919534D01*
X131019534Y-84984784D01*
X131019527Y-84984794D01*
X130973386Y-85064710D01*
X130973385Y-85064713D01*
X130949500Y-85153853D01*
X130050500Y-85153853D01*
X130026614Y-85064713D01*
X130026613Y-85064710D01*
X130002754Y-85023386D01*
X129980469Y-84984788D01*
X129915212Y-84919531D01*
X129863198Y-84889500D01*
X129835289Y-84873386D01*
X129835286Y-84873385D01*
X129746147Y-84849500D01*
X129746144Y-84849500D01*
X129653856Y-84849500D01*
X129653853Y-84849500D01*
X129564713Y-84873385D01*
X129564710Y-84873386D01*
X129484794Y-84919527D01*
X129484784Y-84919534D01*
X129419534Y-84984784D01*
X129419527Y-84984794D01*
X129373386Y-85064710D01*
X129373385Y-85064713D01*
X129349500Y-85153853D01*
X129250500Y-85153853D01*
X129226614Y-85064713D01*
X129226613Y-85064710D01*
X129202754Y-85023386D01*
X129180469Y-84984788D01*
X129115212Y-84919531D01*
X129063198Y-84889500D01*
X129035289Y-84873386D01*
X129035286Y-84873385D01*
X128946147Y-84849500D01*
X128946144Y-84849500D01*
X128853856Y-84849500D01*
X128853853Y-84849500D01*
X128764713Y-84873385D01*
X128764710Y-84873386D01*
X128684794Y-84919527D01*
X128684784Y-84919534D01*
X128619534Y-84984784D01*
X128619527Y-84984794D01*
X128573386Y-85064710D01*
X128573385Y-85064713D01*
X128549500Y-85153853D01*
X127500000Y-85153853D01*
X127500000Y-83128853D01*
X128074500Y-83128853D01*
X128074500Y-83221146D01*
X128098385Y-83310286D01*
X128098386Y-83310290D01*
X128109785Y-83330032D01*
X128116328Y-83353077D01*
X128130713Y-83837396D01*
X128124582Y-83861729D01*
X128124616Y-83861743D01*
X128124521Y-83861970D01*
X128124177Y-83863339D01*
X128123390Y-83864701D01*
X128123384Y-83864716D01*
X128099500Y-83953853D01*
X128099500Y-84046146D01*
X128123385Y-84135286D01*
X128123386Y-84135289D01*
X128149469Y-84180465D01*
X128169531Y-84215212D01*
X128234788Y-84280469D01*
X128314712Y-84326614D01*
X128320095Y-84328056D01*
X128325997Y-84329638D01*
X128346579Y-84340989D01*
X128586988Y-84563253D01*
X128596159Y-84574732D01*
X128619531Y-84615212D01*
X128684788Y-84680469D01*
X128764712Y-84726614D01*
X128786998Y-84732585D01*
X128853853Y-84750500D01*
X128853856Y-84750500D01*
X128946146Y-84750500D01*
X128990716Y-84738557D01*
X129035288Y-84726614D01*
X129115212Y-84680469D01*
X129180469Y-84615212D01*
X129226614Y-84535288D01*
X129249601Y-84449500D01*
X129250500Y-84446146D01*
X129250500Y-84419112D01*
X129250942Y-84412545D01*
X129253625Y-84392700D01*
X129260000Y-84390000D01*
X129259778Y-84353853D01*
X130149500Y-84353853D01*
X130149500Y-84446146D01*
X130173385Y-84535286D01*
X130173386Y-84535289D01*
X130212771Y-84603503D01*
X130219531Y-84615212D01*
X130284788Y-84680469D01*
X130364712Y-84726614D01*
X130386998Y-84732585D01*
X130453853Y-84750500D01*
X130453856Y-84750500D01*
X130546146Y-84750500D01*
X130590716Y-84738557D01*
X130635288Y-84726614D01*
X130715212Y-84680469D01*
X130780469Y-84615212D01*
X130826614Y-84535288D01*
X130849601Y-84449500D01*
X130850500Y-84446146D01*
X130850500Y-84353853D01*
X130949500Y-84353853D01*
X130949500Y-84446146D01*
X130973385Y-84535286D01*
X130973386Y-84535289D01*
X131012771Y-84603503D01*
X131019531Y-84615212D01*
X131084788Y-84680469D01*
X131164712Y-84726614D01*
X131186998Y-84732585D01*
X131253853Y-84750500D01*
X131253856Y-84750500D01*
X131346146Y-84750500D01*
X131390716Y-84738557D01*
X131435288Y-84726614D01*
X131515212Y-84680469D01*
X131580469Y-84615212D01*
X131626614Y-84535288D01*
X131649601Y-84449500D01*
X131650500Y-84446146D01*
X131650500Y-84353853D01*
X131749500Y-84353853D01*
X131749500Y-84446146D01*
X131773385Y-84535286D01*
X131773386Y-84535289D01*
X131812771Y-84603503D01*
X131819531Y-84615212D01*
X131884788Y-84680469D01*
X131964712Y-84726614D01*
X131986998Y-84732585D01*
X132053853Y-84750500D01*
X132053856Y-84750500D01*
X132146146Y-84750500D01*
X132190716Y-84738557D01*
X132235288Y-84726614D01*
X132315212Y-84680469D01*
X132380469Y-84615212D01*
X132426614Y-84535288D01*
X132449601Y-84449500D01*
X132450500Y-84446146D01*
X132450500Y-84353853D01*
X134149500Y-84353853D01*
X134149500Y-84446146D01*
X134173385Y-84535286D01*
X134173386Y-84535289D01*
X134212771Y-84603503D01*
X134219531Y-84615212D01*
X134284788Y-84680469D01*
X134364712Y-84726614D01*
X134386998Y-84732585D01*
X134453853Y-84750500D01*
X134453856Y-84750500D01*
X134546146Y-84750500D01*
X134590716Y-84738557D01*
X134635288Y-84726614D01*
X134715212Y-84680469D01*
X134780469Y-84615212D01*
X134826614Y-84535288D01*
X134849601Y-84449500D01*
X134850500Y-84446146D01*
X134850500Y-84353853D01*
X134949500Y-84353853D01*
X134949500Y-84446146D01*
X134973385Y-84535286D01*
X134973386Y-84535289D01*
X135012771Y-84603503D01*
X135019531Y-84615212D01*
X135084788Y-84680469D01*
X135164712Y-84726614D01*
X135186998Y-84732585D01*
X135253853Y-84750500D01*
X135253856Y-84750500D01*
X135346146Y-84750500D01*
X135390716Y-84738557D01*
X135435288Y-84726614D01*
X135515212Y-84680469D01*
X135580469Y-84615212D01*
X135626614Y-84535288D01*
X135649601Y-84449500D01*
X135650500Y-84446146D01*
X135650500Y-84353853D01*
X135626614Y-84264713D01*
X135626613Y-84264710D01*
X135598036Y-84215215D01*
X135580469Y-84184788D01*
X135515212Y-84119531D01*
X135507719Y-84115205D01*
X135435289Y-84073386D01*
X135435286Y-84073385D01*
X135346147Y-84049500D01*
X135346144Y-84049500D01*
X135253856Y-84049500D01*
X135253853Y-84049500D01*
X135164713Y-84073385D01*
X135164710Y-84073386D01*
X135084794Y-84119527D01*
X135084784Y-84119534D01*
X135019534Y-84184784D01*
X135019527Y-84184794D01*
X134973386Y-84264710D01*
X134973385Y-84264713D01*
X134949500Y-84353853D01*
X134850500Y-84353853D01*
X134826614Y-84264713D01*
X134826613Y-84264710D01*
X134798036Y-84215215D01*
X134780469Y-84184788D01*
X134715212Y-84119531D01*
X134707719Y-84115205D01*
X134635289Y-84073386D01*
X134635286Y-84073385D01*
X134546147Y-84049500D01*
X134546144Y-84049500D01*
X134453856Y-84049500D01*
X134453853Y-84049500D01*
X134364713Y-84073385D01*
X134364710Y-84073386D01*
X134284794Y-84119527D01*
X134284784Y-84119534D01*
X134219534Y-84184784D01*
X134219527Y-84184794D01*
X134173386Y-84264710D01*
X134173385Y-84264713D01*
X134149500Y-84353853D01*
X132450500Y-84353853D01*
X132426614Y-84264713D01*
X132426613Y-84264710D01*
X132398036Y-84215215D01*
X132380469Y-84184788D01*
X132315212Y-84119531D01*
X132307719Y-84115205D01*
X132235289Y-84073386D01*
X132235286Y-84073385D01*
X132146147Y-84049500D01*
X132146144Y-84049500D01*
X132053856Y-84049500D01*
X132053853Y-84049500D01*
X131964713Y-84073385D01*
X131964710Y-84073386D01*
X131884794Y-84119527D01*
X131884784Y-84119534D01*
X131819534Y-84184784D01*
X131819527Y-84184794D01*
X131773386Y-84264710D01*
X131773385Y-84264713D01*
X131749500Y-84353853D01*
X131650500Y-84353853D01*
X131626614Y-84264713D01*
X131626613Y-84264710D01*
X131598036Y-84215215D01*
X131580469Y-84184788D01*
X131515212Y-84119531D01*
X131507719Y-84115205D01*
X131435289Y-84073386D01*
X131435286Y-84073385D01*
X131346147Y-84049500D01*
X131346144Y-84049500D01*
X131253856Y-84049500D01*
X131253853Y-84049500D01*
X131164713Y-84073385D01*
X131164710Y-84073386D01*
X131084794Y-84119527D01*
X131084784Y-84119534D01*
X131019534Y-84184784D01*
X131019527Y-84184794D01*
X130973386Y-84264710D01*
X130973385Y-84264713D01*
X130949500Y-84353853D01*
X130850500Y-84353853D01*
X130826614Y-84264713D01*
X130826613Y-84264710D01*
X130798036Y-84215215D01*
X130780469Y-84184788D01*
X130715212Y-84119531D01*
X130707719Y-84115205D01*
X130635289Y-84073386D01*
X130635286Y-84073385D01*
X130546147Y-84049500D01*
X130546144Y-84049500D01*
X130453856Y-84049500D01*
X130453853Y-84049500D01*
X130364713Y-84073385D01*
X130364710Y-84073386D01*
X130284794Y-84119527D01*
X130284784Y-84119534D01*
X130219534Y-84184784D01*
X130219527Y-84184794D01*
X130173386Y-84264710D01*
X130173385Y-84264713D01*
X130149500Y-84353853D01*
X129259778Y-84353853D01*
X129254870Y-83553853D01*
X131749500Y-83553853D01*
X131749500Y-83646146D01*
X131773385Y-83735286D01*
X131773386Y-83735289D01*
X131794088Y-83771144D01*
X131819531Y-83815212D01*
X131884788Y-83880469D01*
X131964712Y-83926614D01*
X131986998Y-83932585D01*
X132053853Y-83950500D01*
X132053856Y-83950500D01*
X132146146Y-83950500D01*
X132202916Y-83935288D01*
X132235288Y-83926614D01*
X132315212Y-83880469D01*
X132380469Y-83815212D01*
X132426614Y-83735288D01*
X132440145Y-83684788D01*
X132450500Y-83646146D01*
X132450500Y-83553854D01*
X132434281Y-83493327D01*
X132434281Y-83493326D01*
X132431743Y-83483853D01*
X136429500Y-83483853D01*
X136429500Y-83576146D01*
X136453385Y-83665286D01*
X136453386Y-83665289D01*
X136464648Y-83684794D01*
X136499531Y-83745212D01*
X136564788Y-83810469D01*
X136644712Y-83856614D01*
X136663854Y-83861743D01*
X136733853Y-83880500D01*
X136733856Y-83880500D01*
X136826146Y-83880500D01*
X136870716Y-83868557D01*
X136915288Y-83856614D01*
X136920070Y-83853853D01*
X139769500Y-83853853D01*
X139769500Y-83946146D01*
X139793385Y-84035286D01*
X139793386Y-84035289D01*
X139815382Y-84073386D01*
X139839531Y-84115212D01*
X139904788Y-84180469D01*
X139984712Y-84226614D01*
X140006998Y-84232585D01*
X140073853Y-84250500D01*
X140073856Y-84250500D01*
X140166146Y-84250500D01*
X140210716Y-84238557D01*
X140255288Y-84226614D01*
X140335212Y-84180469D01*
X140400469Y-84115212D01*
X140446614Y-84035288D01*
X140458557Y-83990716D01*
X140470500Y-83946146D01*
X140470500Y-83853853D01*
X142769500Y-83853853D01*
X142769500Y-83946146D01*
X142793385Y-84035286D01*
X142793386Y-84035289D01*
X142815382Y-84073386D01*
X142839531Y-84115212D01*
X142904788Y-84180469D01*
X142984712Y-84226614D01*
X143006998Y-84232585D01*
X143073853Y-84250500D01*
X143073856Y-84250500D01*
X143166146Y-84250500D01*
X143210716Y-84238557D01*
X143255288Y-84226614D01*
X143335212Y-84180469D01*
X143400469Y-84115212D01*
X143446614Y-84035288D01*
X143458557Y-83990716D01*
X143470500Y-83946146D01*
X143470500Y-83853853D01*
X143446614Y-83764713D01*
X143446613Y-83764710D01*
X143400472Y-83684794D01*
X143400469Y-83684788D01*
X143335212Y-83619531D01*
X143327731Y-83615212D01*
X143255289Y-83573386D01*
X143255286Y-83573385D01*
X143166147Y-83549500D01*
X143166144Y-83549500D01*
X143073856Y-83549500D01*
X143073853Y-83549500D01*
X142984713Y-83573385D01*
X142984710Y-83573386D01*
X142904794Y-83619527D01*
X142904784Y-83619534D01*
X142839534Y-83684784D01*
X142839527Y-83684794D01*
X142793386Y-83764710D01*
X142793385Y-83764713D01*
X142769500Y-83853853D01*
X140470500Y-83853853D01*
X140446614Y-83764713D01*
X140446613Y-83764710D01*
X140400472Y-83684794D01*
X140400469Y-83684788D01*
X140335212Y-83619531D01*
X140327731Y-83615212D01*
X140255289Y-83573386D01*
X140255286Y-83573385D01*
X140166147Y-83549500D01*
X140166144Y-83549500D01*
X140073856Y-83549500D01*
X140073853Y-83549500D01*
X139984713Y-83573385D01*
X139984710Y-83573386D01*
X139904794Y-83619527D01*
X139904784Y-83619534D01*
X139839534Y-83684784D01*
X139839527Y-83684794D01*
X139793386Y-83764710D01*
X139793385Y-83764713D01*
X139769500Y-83853853D01*
X136920070Y-83853853D01*
X136995212Y-83810469D01*
X137060469Y-83745212D01*
X137106614Y-83665288D01*
X137125779Y-83593763D01*
X137130500Y-83576146D01*
X137130500Y-83483853D01*
X137106614Y-83394713D01*
X137106613Y-83394710D01*
X137083025Y-83353856D01*
X137060469Y-83314788D01*
X136995212Y-83249531D01*
X136989842Y-83246430D01*
X136915289Y-83203386D01*
X136915286Y-83203385D01*
X136826147Y-83179500D01*
X136826144Y-83179500D01*
X136733856Y-83179500D01*
X136733853Y-83179500D01*
X136644713Y-83203385D01*
X136644710Y-83203386D01*
X136564794Y-83249527D01*
X136564784Y-83249534D01*
X136499534Y-83314784D01*
X136499527Y-83314794D01*
X136453386Y-83394710D01*
X136453385Y-83394713D01*
X136429500Y-83483853D01*
X132431743Y-83483853D01*
X132426614Y-83464712D01*
X132426613Y-83464710D01*
X132386199Y-83394713D01*
X132380469Y-83384788D01*
X132315212Y-83319531D01*
X132306990Y-83314784D01*
X132235289Y-83273386D01*
X132235286Y-83273385D01*
X132146147Y-83249500D01*
X132146144Y-83249500D01*
X132053856Y-83249500D01*
X132053853Y-83249500D01*
X131964713Y-83273385D01*
X131964710Y-83273386D01*
X131884794Y-83319527D01*
X131884784Y-83319534D01*
X131819534Y-83384784D01*
X131819527Y-83384794D01*
X131773386Y-83464710D01*
X131773385Y-83464713D01*
X131749500Y-83553853D01*
X129254870Y-83553853D01*
X129250500Y-82841500D01*
X129250500Y-82753856D01*
X129250500Y-82753853D01*
X131749500Y-82753853D01*
X131749500Y-82846146D01*
X131773385Y-82935286D01*
X131773386Y-82935289D01*
X131804955Y-82989966D01*
X131819531Y-83015212D01*
X131884788Y-83080469D01*
X131964712Y-83126614D01*
X131986998Y-83132585D01*
X132053853Y-83150500D01*
X132053856Y-83150500D01*
X132146146Y-83150500D01*
X132190716Y-83138557D01*
X132235288Y-83126614D01*
X132315212Y-83080469D01*
X132380469Y-83015212D01*
X132426614Y-82935288D01*
X132442691Y-82875288D01*
X132450500Y-82846146D01*
X132450500Y-82753853D01*
X132426614Y-82664713D01*
X132426613Y-82664710D01*
X132400526Y-82619527D01*
X132380469Y-82584788D01*
X132315212Y-82519531D01*
X132293875Y-82507212D01*
X132235289Y-82473386D01*
X132235286Y-82473385D01*
X132146147Y-82449500D01*
X132146144Y-82449500D01*
X132053856Y-82449500D01*
X132053853Y-82449500D01*
X131964713Y-82473385D01*
X131964710Y-82473386D01*
X131884794Y-82519527D01*
X131884784Y-82519534D01*
X131819534Y-82584784D01*
X131819527Y-82584794D01*
X131773386Y-82664710D01*
X131773385Y-82664713D01*
X131749500Y-82753853D01*
X129250500Y-82753853D01*
X129226614Y-82664713D01*
X129226613Y-82664710D01*
X129200526Y-82619527D01*
X129180469Y-82584788D01*
X129115212Y-82519531D01*
X129093875Y-82507212D01*
X129035289Y-82473386D01*
X129035286Y-82473385D01*
X128946147Y-82449500D01*
X128946144Y-82449500D01*
X128853856Y-82449500D01*
X128853853Y-82449500D01*
X128764713Y-82473385D01*
X128764710Y-82473386D01*
X128684794Y-82519527D01*
X128684784Y-82519534D01*
X128619534Y-82584784D01*
X128619527Y-82584794D01*
X128573386Y-82664710D01*
X128573385Y-82664713D01*
X128549500Y-82753853D01*
X128549500Y-82766642D01*
X128546671Y-82773469D01*
X128547403Y-82780823D01*
X128539762Y-82790150D01*
X128535148Y-82801290D01*
X128523638Y-82809835D01*
X128504980Y-82819830D01*
X128474537Y-82823353D01*
X128474331Y-82824919D01*
X128471147Y-82824500D01*
X128471144Y-82824500D01*
X128378856Y-82824500D01*
X128378853Y-82824500D01*
X128289713Y-82848385D01*
X128289710Y-82848386D01*
X128209794Y-82894527D01*
X128209784Y-82894534D01*
X128144534Y-82959784D01*
X128144527Y-82959794D01*
X128098386Y-83039710D01*
X128098385Y-83039713D01*
X128074500Y-83128853D01*
X127500000Y-83128853D01*
X127500000Y-81953853D01*
X128549500Y-81953853D01*
X128549500Y-82046146D01*
X128573385Y-82135286D01*
X128573386Y-82135289D01*
X128583835Y-82153386D01*
X128619531Y-82215212D01*
X128684788Y-82280469D01*
X128764712Y-82326614D01*
X128786998Y-82332585D01*
X128853853Y-82350500D01*
X128853856Y-82350500D01*
X128946146Y-82350500D01*
X128997967Y-82336614D01*
X129035288Y-82326614D01*
X129115212Y-82280469D01*
X129180469Y-82215212D01*
X129226614Y-82135288D01*
X129246385Y-82061501D01*
X129250500Y-82046146D01*
X129250500Y-81953853D01*
X129226614Y-81864713D01*
X129226613Y-81864710D01*
X129193248Y-81806922D01*
X129180469Y-81784788D01*
X129115212Y-81719531D01*
X129105383Y-81713856D01*
X129035289Y-81673386D01*
X129035286Y-81673385D01*
X128946147Y-81649500D01*
X128946144Y-81649500D01*
X128853856Y-81649500D01*
X128853853Y-81649500D01*
X128764713Y-81673385D01*
X128764710Y-81673386D01*
X128684794Y-81719527D01*
X128684784Y-81719534D01*
X128619534Y-81784784D01*
X128619527Y-81784794D01*
X128573386Y-81864710D01*
X128573385Y-81864713D01*
X128549500Y-81953853D01*
X127500000Y-81953853D01*
X127500000Y-81153853D01*
X130149500Y-81153853D01*
X130149500Y-81246146D01*
X130173385Y-81335286D01*
X130173386Y-81335289D01*
X130216233Y-81409500D01*
X130219531Y-81415212D01*
X130284788Y-81480469D01*
X130364712Y-81526614D01*
X130379099Y-81530469D01*
X130453853Y-81550500D01*
X130510500Y-81550500D01*
X130545148Y-81564852D01*
X130559500Y-81599500D01*
X130559500Y-81676146D01*
X130583385Y-81765286D01*
X130583386Y-81765289D01*
X130607348Y-81806791D01*
X130629531Y-81845212D01*
X130694788Y-81910469D01*
X130774712Y-81956614D01*
X130796998Y-81962585D01*
X130863853Y-81980500D01*
X130863856Y-81980500D01*
X130956146Y-81980500D01*
X130989098Y-81971670D01*
X131001781Y-81970000D01*
X131540127Y-81970000D01*
X131561594Y-81975751D01*
X131561746Y-81975385D01*
X131564527Y-81976537D01*
X131564623Y-81976562D01*
X131564712Y-81976614D01*
X131564716Y-81976615D01*
X131653853Y-82000500D01*
X131653856Y-82000500D01*
X131746146Y-82000500D01*
X131806409Y-81984352D01*
X131835288Y-81976614D01*
X131835376Y-81976562D01*
X131835472Y-81976537D01*
X131838254Y-81975385D01*
X131838405Y-81975751D01*
X131859873Y-81970000D01*
X132500500Y-81970000D01*
X132535148Y-81984352D01*
X132549500Y-82019000D01*
X132549500Y-82046146D01*
X132573385Y-82135286D01*
X132573386Y-82135289D01*
X132583835Y-82153386D01*
X132619531Y-82215212D01*
X132684788Y-82280469D01*
X132764712Y-82326614D01*
X132786998Y-82332585D01*
X132853853Y-82350500D01*
X132900500Y-82350500D01*
X132935148Y-82364852D01*
X132949500Y-82399500D01*
X132949500Y-82456146D01*
X132973385Y-82545286D01*
X132973386Y-82545289D01*
X133004686Y-82599500D01*
X133019531Y-82625212D01*
X133084788Y-82690469D01*
X133164712Y-82736614D01*
X133186998Y-82742585D01*
X133253853Y-82760500D01*
X133253856Y-82760500D01*
X133346146Y-82760500D01*
X133370952Y-82753853D01*
X134949500Y-82753853D01*
X134949500Y-82846146D01*
X134973385Y-82935286D01*
X134973386Y-82935289D01*
X135004955Y-82989966D01*
X135019531Y-83015212D01*
X135084788Y-83080469D01*
X135164712Y-83126614D01*
X135186998Y-83132585D01*
X135253853Y-83150500D01*
X135253856Y-83150500D01*
X135346146Y-83150500D01*
X135390716Y-83138557D01*
X135435288Y-83126614D01*
X135515212Y-83080469D01*
X135580469Y-83015212D01*
X135626614Y-82935288D01*
X135642691Y-82875288D01*
X135650500Y-82846146D01*
X135650500Y-82753853D01*
X135749500Y-82753853D01*
X135749500Y-82846146D01*
X135773385Y-82935286D01*
X135773386Y-82935289D01*
X135804955Y-82989966D01*
X135819531Y-83015212D01*
X135884788Y-83080469D01*
X135964712Y-83126614D01*
X135986998Y-83132585D01*
X136053853Y-83150500D01*
X136053856Y-83150500D01*
X136146146Y-83150500D01*
X136190716Y-83138557D01*
X136235288Y-83126614D01*
X136315212Y-83080469D01*
X136380469Y-83015212D01*
X136426614Y-82935288D01*
X136442691Y-82875288D01*
X136450500Y-82846146D01*
X136450500Y-82753853D01*
X136436961Y-82703326D01*
X136434423Y-82693853D01*
X136919500Y-82693853D01*
X136919500Y-82786146D01*
X136943385Y-82875286D01*
X136943386Y-82875289D01*
X136978028Y-82935288D01*
X136989531Y-82955212D01*
X137054788Y-83020469D01*
X137134712Y-83066614D01*
X137139385Y-83067866D01*
X137223853Y-83090500D01*
X137223856Y-83090500D01*
X137316146Y-83090500D01*
X137380014Y-83073386D01*
X137405288Y-83066614D01*
X137485212Y-83020469D01*
X137550469Y-82955212D01*
X137596614Y-82875288D01*
X137602358Y-82853853D01*
X139769500Y-82853853D01*
X139769500Y-82946146D01*
X139793385Y-83035286D01*
X139793386Y-83035289D01*
X139811472Y-83066614D01*
X139839531Y-83115212D01*
X139904788Y-83180469D01*
X139984712Y-83226614D01*
X139999099Y-83230469D01*
X140073853Y-83250500D01*
X140073856Y-83250500D01*
X140166146Y-83250500D01*
X140210716Y-83238557D01*
X140255288Y-83226614D01*
X140335212Y-83180469D01*
X140400469Y-83115212D01*
X140446614Y-83035288D01*
X140466844Y-82959788D01*
X140470500Y-82946146D01*
X140470500Y-82853853D01*
X140769500Y-82853853D01*
X140769500Y-82946146D01*
X140793385Y-83035286D01*
X140793386Y-83035289D01*
X140811472Y-83066614D01*
X140839531Y-83115212D01*
X140904788Y-83180469D01*
X140984712Y-83226614D01*
X140999099Y-83230469D01*
X141073853Y-83250500D01*
X141073856Y-83250500D01*
X141166146Y-83250500D01*
X141210716Y-83238557D01*
X141255288Y-83226614D01*
X141335212Y-83180469D01*
X141400469Y-83115212D01*
X141446614Y-83035288D01*
X141466844Y-82959788D01*
X141470500Y-82946146D01*
X141470500Y-82853853D01*
X141769500Y-82853853D01*
X141769500Y-82946146D01*
X141793385Y-83035286D01*
X141793386Y-83035289D01*
X141811472Y-83066614D01*
X141839531Y-83115212D01*
X141904788Y-83180469D01*
X141984712Y-83226614D01*
X141999099Y-83230469D01*
X142073853Y-83250500D01*
X142073856Y-83250500D01*
X142166146Y-83250500D01*
X142210716Y-83238557D01*
X142255288Y-83226614D01*
X142335212Y-83180469D01*
X142400469Y-83115212D01*
X142446614Y-83035288D01*
X142466844Y-82959788D01*
X142470500Y-82946146D01*
X142470500Y-82853853D01*
X142769500Y-82853853D01*
X142769500Y-82946146D01*
X142793385Y-83035286D01*
X142793386Y-83035289D01*
X142811472Y-83066614D01*
X142839531Y-83115212D01*
X142904788Y-83180469D01*
X142984712Y-83226614D01*
X142999099Y-83230469D01*
X143073853Y-83250500D01*
X143073856Y-83250500D01*
X143166146Y-83250500D01*
X143210716Y-83238557D01*
X143255288Y-83226614D01*
X143335212Y-83180469D01*
X143400469Y-83115212D01*
X143446614Y-83035288D01*
X143466844Y-82959788D01*
X143470500Y-82946146D01*
X143470500Y-82853853D01*
X143446614Y-82764713D01*
X143446613Y-82764710D01*
X143411172Y-82703326D01*
X143400469Y-82684788D01*
X143335212Y-82619531D01*
X143300518Y-82599500D01*
X143255289Y-82573386D01*
X143255286Y-82573385D01*
X143166147Y-82549500D01*
X143166144Y-82549500D01*
X143073856Y-82549500D01*
X143073853Y-82549500D01*
X142984713Y-82573385D01*
X142984710Y-82573386D01*
X142904794Y-82619527D01*
X142904784Y-82619534D01*
X142839534Y-82684784D01*
X142839527Y-82684794D01*
X142793386Y-82764710D01*
X142793385Y-82764713D01*
X142769500Y-82853853D01*
X142470500Y-82853853D01*
X142446614Y-82764713D01*
X142446613Y-82764710D01*
X142411172Y-82703326D01*
X142400469Y-82684788D01*
X142335212Y-82619531D01*
X142300518Y-82599500D01*
X142255289Y-82573386D01*
X142255286Y-82573385D01*
X142166147Y-82549500D01*
X142166144Y-82549500D01*
X142073856Y-82549500D01*
X142073853Y-82549500D01*
X141984713Y-82573385D01*
X141984710Y-82573386D01*
X141904794Y-82619527D01*
X141904784Y-82619534D01*
X141839534Y-82684784D01*
X141839527Y-82684794D01*
X141793386Y-82764710D01*
X141793385Y-82764713D01*
X141769500Y-82853853D01*
X141470500Y-82853853D01*
X141446614Y-82764713D01*
X141446613Y-82764710D01*
X141411172Y-82703326D01*
X141400469Y-82684788D01*
X141335212Y-82619531D01*
X141300518Y-82599500D01*
X141255289Y-82573386D01*
X141255286Y-82573385D01*
X141166147Y-82549500D01*
X141166144Y-82549500D01*
X141073856Y-82549500D01*
X141073853Y-82549500D01*
X140984713Y-82573385D01*
X140984710Y-82573386D01*
X140904794Y-82619527D01*
X140904784Y-82619534D01*
X140839534Y-82684784D01*
X140839527Y-82684794D01*
X140793386Y-82764710D01*
X140793385Y-82764713D01*
X140769500Y-82853853D01*
X140470500Y-82853853D01*
X140446614Y-82764713D01*
X140446613Y-82764710D01*
X140411172Y-82703326D01*
X140400469Y-82684788D01*
X140335212Y-82619531D01*
X140300518Y-82599500D01*
X140255289Y-82573386D01*
X140255286Y-82573385D01*
X140166147Y-82549500D01*
X140166144Y-82549500D01*
X140073856Y-82549500D01*
X140073853Y-82549500D01*
X139984713Y-82573385D01*
X139984710Y-82573386D01*
X139904794Y-82619527D01*
X139904784Y-82619534D01*
X139839534Y-82684784D01*
X139839527Y-82684794D01*
X139793386Y-82764710D01*
X139793385Y-82764713D01*
X139769500Y-82853853D01*
X137602358Y-82853853D01*
X137605624Y-82841663D01*
X137606616Y-82837961D01*
X137606616Y-82837960D01*
X137617864Y-82795982D01*
X137620499Y-82786147D01*
X137620500Y-82786147D01*
X137620500Y-82693853D01*
X137601618Y-82623386D01*
X137596614Y-82604712D01*
X137550469Y-82524788D01*
X137485212Y-82459531D01*
X137467838Y-82449500D01*
X137405289Y-82413386D01*
X137405286Y-82413385D01*
X137316147Y-82389500D01*
X137316144Y-82389500D01*
X137223856Y-82389500D01*
X137223853Y-82389500D01*
X137134713Y-82413385D01*
X137134710Y-82413386D01*
X137054794Y-82459527D01*
X137054784Y-82459534D01*
X136989534Y-82524784D01*
X136989527Y-82524794D01*
X136943386Y-82604710D01*
X136943385Y-82604713D01*
X136919500Y-82693853D01*
X136434423Y-82693853D01*
X136426614Y-82664713D01*
X136426613Y-82664710D01*
X136400526Y-82619527D01*
X136380469Y-82584788D01*
X136315212Y-82519531D01*
X136293875Y-82507212D01*
X136235289Y-82473386D01*
X136235286Y-82473385D01*
X136146147Y-82449500D01*
X136146144Y-82449500D01*
X136053856Y-82449500D01*
X136053853Y-82449500D01*
X135964713Y-82473385D01*
X135964710Y-82473386D01*
X135884794Y-82519527D01*
X135884784Y-82519534D01*
X135819534Y-82584784D01*
X135819527Y-82584794D01*
X135773386Y-82664710D01*
X135773385Y-82664713D01*
X135749500Y-82753853D01*
X135650500Y-82753853D01*
X135626614Y-82664713D01*
X135626613Y-82664710D01*
X135600526Y-82619527D01*
X135580469Y-82584788D01*
X135515212Y-82519531D01*
X135493875Y-82507212D01*
X135435289Y-82473386D01*
X135435286Y-82473385D01*
X135346147Y-82449500D01*
X135346144Y-82449500D01*
X135253856Y-82449500D01*
X135253853Y-82449500D01*
X135164713Y-82473385D01*
X135164710Y-82473386D01*
X135084794Y-82519527D01*
X135084784Y-82519534D01*
X135019534Y-82584784D01*
X135019527Y-82584794D01*
X134973386Y-82664710D01*
X134973385Y-82664713D01*
X134949500Y-82753853D01*
X133370952Y-82753853D01*
X133390716Y-82748557D01*
X133435288Y-82736614D01*
X133515212Y-82690469D01*
X133580469Y-82625212D01*
X133626614Y-82545288D01*
X133645880Y-82473386D01*
X133650500Y-82456146D01*
X133650500Y-82363853D01*
X133628157Y-82280472D01*
X133626614Y-82274712D01*
X133625848Y-82273386D01*
X133598844Y-82226614D01*
X133580469Y-82194788D01*
X133515212Y-82129531D01*
X133496818Y-82118911D01*
X133435289Y-82083386D01*
X133435286Y-82083385D01*
X133346147Y-82059500D01*
X133346144Y-82059500D01*
X133299500Y-82059500D01*
X133264852Y-82045148D01*
X133250500Y-82010500D01*
X133250500Y-81953853D01*
X133250499Y-81953852D01*
X133238875Y-81910472D01*
X133226614Y-81864712D01*
X133220344Y-81853853D01*
X139769500Y-81853853D01*
X139769500Y-81946146D01*
X139793385Y-82035286D01*
X139793386Y-82035289D01*
X139836430Y-82109842D01*
X139839531Y-82115212D01*
X139904788Y-82180469D01*
X139937797Y-82199527D01*
X139982283Y-82225212D01*
X139984712Y-82226614D01*
X140006998Y-82232585D01*
X140073853Y-82250500D01*
X140073856Y-82250500D01*
X140166146Y-82250500D01*
X140210716Y-82238557D01*
X140255288Y-82226614D01*
X140335212Y-82180469D01*
X140400469Y-82115212D01*
X140446614Y-82035288D01*
X140461294Y-81980500D01*
X140470500Y-81946146D01*
X140470500Y-81853853D01*
X140769500Y-81853853D01*
X140769500Y-81946146D01*
X140793385Y-82035286D01*
X140793386Y-82035289D01*
X140836430Y-82109842D01*
X140839531Y-82115212D01*
X140904788Y-82180469D01*
X140937797Y-82199527D01*
X140982283Y-82225212D01*
X140984712Y-82226614D01*
X141006998Y-82232585D01*
X141073853Y-82250500D01*
X141073856Y-82250500D01*
X141166146Y-82250500D01*
X141210716Y-82238557D01*
X141255288Y-82226614D01*
X141335212Y-82180469D01*
X141400469Y-82115212D01*
X141446614Y-82035288D01*
X141461294Y-81980500D01*
X141470500Y-81946146D01*
X141470500Y-81853853D01*
X141769500Y-81853853D01*
X141769500Y-81946146D01*
X141793385Y-82035286D01*
X141793386Y-82035289D01*
X141836430Y-82109842D01*
X141839531Y-82115212D01*
X141904788Y-82180469D01*
X141937797Y-82199527D01*
X141982283Y-82225212D01*
X141984712Y-82226614D01*
X142006998Y-82232585D01*
X142073853Y-82250500D01*
X142073856Y-82250500D01*
X142166146Y-82250500D01*
X142210716Y-82238557D01*
X142255288Y-82226614D01*
X142335212Y-82180469D01*
X142400469Y-82115212D01*
X142446614Y-82035288D01*
X142461294Y-81980500D01*
X142470500Y-81946146D01*
X142470500Y-81853853D01*
X142769500Y-81853853D01*
X142769500Y-81946146D01*
X142793385Y-82035286D01*
X142793386Y-82035289D01*
X142836430Y-82109842D01*
X142839531Y-82115212D01*
X142904788Y-82180469D01*
X142937797Y-82199527D01*
X142982283Y-82225212D01*
X142984712Y-82226614D01*
X143006998Y-82232585D01*
X143073853Y-82250500D01*
X143073856Y-82250500D01*
X143166146Y-82250500D01*
X143210716Y-82238557D01*
X143255288Y-82226614D01*
X143335212Y-82180469D01*
X143400469Y-82115212D01*
X143446614Y-82035288D01*
X143461294Y-81980500D01*
X143470500Y-81946146D01*
X143470500Y-81853853D01*
X143451992Y-81784784D01*
X143446614Y-81764712D01*
X143400469Y-81684788D01*
X143335212Y-81619531D01*
X143300518Y-81599500D01*
X143255289Y-81573386D01*
X143255286Y-81573385D01*
X143166147Y-81549500D01*
X143166144Y-81549500D01*
X143073856Y-81549500D01*
X143073853Y-81549500D01*
X142984713Y-81573385D01*
X142984710Y-81573386D01*
X142904794Y-81619527D01*
X142904784Y-81619534D01*
X142839534Y-81684784D01*
X142839527Y-81684794D01*
X142793386Y-81764710D01*
X142793385Y-81764713D01*
X142769500Y-81853853D01*
X142470500Y-81853853D01*
X142451992Y-81784784D01*
X142446614Y-81764712D01*
X142400469Y-81684788D01*
X142335212Y-81619531D01*
X142300518Y-81599500D01*
X142255289Y-81573386D01*
X142255286Y-81573385D01*
X142166147Y-81549500D01*
X142166144Y-81549500D01*
X142073856Y-81549500D01*
X142073853Y-81549500D01*
X141984713Y-81573385D01*
X141984710Y-81573386D01*
X141904794Y-81619527D01*
X141904784Y-81619534D01*
X141839534Y-81684784D01*
X141839527Y-81684794D01*
X141793386Y-81764710D01*
X141793385Y-81764713D01*
X141769500Y-81853853D01*
X141470500Y-81853853D01*
X141451992Y-81784784D01*
X141446614Y-81764712D01*
X141400469Y-81684788D01*
X141335212Y-81619531D01*
X141300518Y-81599500D01*
X141255289Y-81573386D01*
X141255286Y-81573385D01*
X141166147Y-81549500D01*
X141166144Y-81549500D01*
X141073856Y-81549500D01*
X141073853Y-81549500D01*
X140984713Y-81573385D01*
X140984710Y-81573386D01*
X140904794Y-81619527D01*
X140904784Y-81619534D01*
X140839534Y-81684784D01*
X140839527Y-81684794D01*
X140793386Y-81764710D01*
X140793385Y-81764713D01*
X140769500Y-81853853D01*
X140470500Y-81853853D01*
X140451992Y-81784784D01*
X140446614Y-81764712D01*
X140400469Y-81684788D01*
X140335212Y-81619531D01*
X140300518Y-81599500D01*
X140255289Y-81573386D01*
X140255286Y-81573385D01*
X140166147Y-81549500D01*
X140166144Y-81549500D01*
X140073856Y-81549500D01*
X140073853Y-81549500D01*
X139984713Y-81573385D01*
X139984710Y-81573386D01*
X139904794Y-81619527D01*
X139904784Y-81619534D01*
X139839534Y-81684784D01*
X139839527Y-81684794D01*
X139793386Y-81764710D01*
X139793385Y-81764713D01*
X139769500Y-81853853D01*
X133220344Y-81853853D01*
X133206298Y-81829525D01*
X133206009Y-81828993D01*
X133204093Y-81810924D01*
X133203549Y-81806791D01*
X133200805Y-81806922D01*
X133199999Y-81790000D01*
X133200000Y-81790000D01*
X133182708Y-81426886D01*
X133189217Y-81400057D01*
X133226614Y-81335288D01*
X133250499Y-81246147D01*
X133250500Y-81246147D01*
X133250500Y-81153853D01*
X134949500Y-81153853D01*
X134949500Y-81246146D01*
X134973385Y-81335286D01*
X134973386Y-81335289D01*
X135016233Y-81409500D01*
X135019531Y-81415212D01*
X135084788Y-81480469D01*
X135164712Y-81526614D01*
X135179099Y-81530469D01*
X135253853Y-81550500D01*
X135253856Y-81550500D01*
X135346146Y-81550500D01*
X135402916Y-81535288D01*
X135435288Y-81526614D01*
X135515212Y-81480469D01*
X135580469Y-81415212D01*
X135626614Y-81335288D01*
X135645525Y-81264712D01*
X135650500Y-81246146D01*
X135650500Y-81153853D01*
X135749500Y-81153853D01*
X135749500Y-81246146D01*
X135773385Y-81335286D01*
X135773386Y-81335289D01*
X135816233Y-81409500D01*
X135819531Y-81415212D01*
X135884788Y-81480469D01*
X135964712Y-81526614D01*
X135979099Y-81530469D01*
X136053853Y-81550500D01*
X136053856Y-81550500D01*
X136146146Y-81550500D01*
X136202916Y-81535288D01*
X136235288Y-81526614D01*
X136315212Y-81480469D01*
X136380469Y-81415212D01*
X136426614Y-81335288D01*
X136445525Y-81264712D01*
X136450500Y-81246146D01*
X136450500Y-81153853D01*
X136426614Y-81064713D01*
X136426613Y-81064710D01*
X136404618Y-81026614D01*
X136380469Y-80984788D01*
X136315212Y-80919531D01*
X136280518Y-80899500D01*
X136235289Y-80873386D01*
X136235286Y-80873385D01*
X136146147Y-80849500D01*
X136146144Y-80849500D01*
X136053856Y-80849500D01*
X136053853Y-80849500D01*
X135964713Y-80873385D01*
X135964710Y-80873386D01*
X135884794Y-80919527D01*
X135884784Y-80919534D01*
X135819534Y-80984784D01*
X135819527Y-80984794D01*
X135773386Y-81064710D01*
X135773385Y-81064713D01*
X135749500Y-81153853D01*
X135650500Y-81153853D01*
X135626614Y-81064713D01*
X135626613Y-81064710D01*
X135604618Y-81026614D01*
X135580469Y-80984788D01*
X135515212Y-80919531D01*
X135480518Y-80899500D01*
X135435289Y-80873386D01*
X135435286Y-80873385D01*
X135346147Y-80849500D01*
X135346144Y-80849500D01*
X135253856Y-80849500D01*
X135253853Y-80849500D01*
X135164713Y-80873385D01*
X135164710Y-80873386D01*
X135084794Y-80919527D01*
X135084784Y-80919534D01*
X135019534Y-80984784D01*
X135019527Y-80984794D01*
X134973386Y-81064710D01*
X134973385Y-81064713D01*
X134949500Y-81153853D01*
X133250500Y-81153853D01*
X133226614Y-81064713D01*
X133226613Y-81064709D01*
X133185566Y-80993615D01*
X133179055Y-80966821D01*
X133181091Y-80923386D01*
X133196310Y-80598700D01*
X133202822Y-80576495D01*
X133226612Y-80535292D01*
X133226615Y-80535286D01*
X133250499Y-80446147D01*
X133250500Y-80446147D01*
X133250500Y-80353853D01*
X133349500Y-80353853D01*
X133349500Y-80446146D01*
X133373385Y-80535286D01*
X133373386Y-80535289D01*
X133416201Y-80609444D01*
X133419531Y-80615212D01*
X133484788Y-80680469D01*
X133564712Y-80726614D01*
X133585686Y-80732234D01*
X133653853Y-80750500D01*
X133653856Y-80750500D01*
X133746146Y-80750500D01*
X133804782Y-80734788D01*
X133835288Y-80726614D01*
X133915212Y-80680469D01*
X133980469Y-80615212D01*
X134026614Y-80535288D01*
X134049333Y-80450500D01*
X134050500Y-80446146D01*
X134050500Y-80353853D01*
X134149500Y-80353853D01*
X134149500Y-80446146D01*
X134173385Y-80535286D01*
X134173386Y-80535289D01*
X134216201Y-80609444D01*
X134219531Y-80615212D01*
X134284788Y-80680469D01*
X134364712Y-80726614D01*
X134385686Y-80732234D01*
X134453853Y-80750500D01*
X134453856Y-80750500D01*
X134546146Y-80750500D01*
X134604782Y-80734788D01*
X134635288Y-80726614D01*
X134715212Y-80680469D01*
X134780469Y-80615212D01*
X134826614Y-80535288D01*
X134849333Y-80450500D01*
X134850500Y-80446146D01*
X134850500Y-80353853D01*
X134949500Y-80353853D01*
X134949500Y-80446146D01*
X134973385Y-80535286D01*
X134973386Y-80535289D01*
X135016201Y-80609444D01*
X135019531Y-80615212D01*
X135084788Y-80680469D01*
X135164712Y-80726614D01*
X135185686Y-80732234D01*
X135253853Y-80750500D01*
X135253856Y-80750500D01*
X135346146Y-80750500D01*
X135404782Y-80734788D01*
X135435288Y-80726614D01*
X135515212Y-80680469D01*
X135580469Y-80615212D01*
X135626614Y-80535288D01*
X135649333Y-80450500D01*
X135650500Y-80446146D01*
X135650500Y-80353853D01*
X135749500Y-80353853D01*
X135749500Y-80446146D01*
X135773385Y-80535286D01*
X135773386Y-80535289D01*
X135816201Y-80609444D01*
X135819531Y-80615212D01*
X135884788Y-80680469D01*
X135964712Y-80726614D01*
X135985686Y-80732234D01*
X136053853Y-80750500D01*
X136053856Y-80750500D01*
X136146146Y-80750500D01*
X136204782Y-80734788D01*
X136235288Y-80726614D01*
X136315212Y-80680469D01*
X136380469Y-80615212D01*
X136426614Y-80535288D01*
X136435037Y-80503853D01*
X136689500Y-80503853D01*
X136689500Y-80596146D01*
X136713385Y-80685286D01*
X136713386Y-80685289D01*
X136734088Y-80721144D01*
X136759531Y-80765212D01*
X136824788Y-80830469D01*
X136830925Y-80834012D01*
X136899117Y-80873384D01*
X136904712Y-80876614D01*
X136919099Y-80880469D01*
X136993853Y-80900500D01*
X136993856Y-80900500D01*
X137086146Y-80900500D01*
X137130716Y-80888557D01*
X137175288Y-80876614D01*
X137214710Y-80853853D01*
X139769500Y-80853853D01*
X139769500Y-80946146D01*
X139793385Y-81035286D01*
X139793386Y-81035289D01*
X139822254Y-81085288D01*
X139839531Y-81115212D01*
X139904788Y-81180469D01*
X139984712Y-81226614D01*
X139999099Y-81230469D01*
X140073853Y-81250500D01*
X140073856Y-81250500D01*
X140166146Y-81250500D01*
X140210716Y-81238557D01*
X140255288Y-81226614D01*
X140335212Y-81180469D01*
X140400469Y-81115212D01*
X140446614Y-81035288D01*
X140460145Y-80984788D01*
X140470500Y-80946146D01*
X140470500Y-80853853D01*
X140769500Y-80853853D01*
X140769500Y-80946146D01*
X140793385Y-81035286D01*
X140793386Y-81035289D01*
X140822254Y-81085288D01*
X140839531Y-81115212D01*
X140904788Y-81180469D01*
X140984712Y-81226614D01*
X140999099Y-81230469D01*
X141073853Y-81250500D01*
X141073856Y-81250500D01*
X141166146Y-81250500D01*
X141210716Y-81238557D01*
X141255288Y-81226614D01*
X141335212Y-81180469D01*
X141400469Y-81115212D01*
X141446614Y-81035288D01*
X141460145Y-80984788D01*
X141470500Y-80946146D01*
X141470500Y-80853853D01*
X141769500Y-80853853D01*
X141769500Y-80946146D01*
X141793385Y-81035286D01*
X141793386Y-81035289D01*
X141822254Y-81085288D01*
X141839531Y-81115212D01*
X141904788Y-81180469D01*
X141984712Y-81226614D01*
X141999099Y-81230469D01*
X142073853Y-81250500D01*
X142073856Y-81250500D01*
X142166146Y-81250500D01*
X142210716Y-81238557D01*
X142255288Y-81226614D01*
X142335212Y-81180469D01*
X142400469Y-81115212D01*
X142446614Y-81035288D01*
X142460145Y-80984788D01*
X142470500Y-80946146D01*
X142470500Y-80853853D01*
X142769500Y-80853853D01*
X142769500Y-80946146D01*
X142793385Y-81035286D01*
X142793386Y-81035289D01*
X142822254Y-81085288D01*
X142839531Y-81115212D01*
X142904788Y-81180469D01*
X142984712Y-81226614D01*
X142999099Y-81230469D01*
X143073853Y-81250500D01*
X143073856Y-81250500D01*
X143166146Y-81250500D01*
X143210716Y-81238557D01*
X143255288Y-81226614D01*
X143335212Y-81180469D01*
X143400469Y-81115212D01*
X143446614Y-81035288D01*
X143460145Y-80984788D01*
X143470500Y-80946146D01*
X143470500Y-80853853D01*
X143446614Y-80764713D01*
X143446613Y-80764710D01*
X143424617Y-80726613D01*
X143400469Y-80684788D01*
X143335212Y-80619531D01*
X143294709Y-80596146D01*
X143255289Y-80573386D01*
X143255286Y-80573385D01*
X143166147Y-80549500D01*
X143166144Y-80549500D01*
X143073856Y-80549500D01*
X143073853Y-80549500D01*
X142984713Y-80573385D01*
X142984710Y-80573386D01*
X142904794Y-80619527D01*
X142904784Y-80619534D01*
X142839534Y-80684784D01*
X142839527Y-80684794D01*
X142793386Y-80764710D01*
X142793385Y-80764713D01*
X142769500Y-80853853D01*
X142470500Y-80853853D01*
X142446614Y-80764713D01*
X142446613Y-80764710D01*
X142424617Y-80726613D01*
X142400469Y-80684788D01*
X142335212Y-80619531D01*
X142294709Y-80596146D01*
X142255289Y-80573386D01*
X142255286Y-80573385D01*
X142166147Y-80549500D01*
X142166144Y-80549500D01*
X142073856Y-80549500D01*
X142073853Y-80549500D01*
X141984713Y-80573385D01*
X141984710Y-80573386D01*
X141904794Y-80619527D01*
X141904784Y-80619534D01*
X141839534Y-80684784D01*
X141839527Y-80684794D01*
X141793386Y-80764710D01*
X141793385Y-80764713D01*
X141769500Y-80853853D01*
X141470500Y-80853853D01*
X141446614Y-80764713D01*
X141446613Y-80764710D01*
X141424617Y-80726613D01*
X141400469Y-80684788D01*
X141335212Y-80619531D01*
X141294709Y-80596146D01*
X141255289Y-80573386D01*
X141255286Y-80573385D01*
X141166147Y-80549500D01*
X141166144Y-80549500D01*
X141073856Y-80549500D01*
X141073853Y-80549500D01*
X140984713Y-80573385D01*
X140984710Y-80573386D01*
X140904794Y-80619527D01*
X140904784Y-80619534D01*
X140839534Y-80684784D01*
X140839527Y-80684794D01*
X140793386Y-80764710D01*
X140793385Y-80764713D01*
X140769500Y-80853853D01*
X140470500Y-80853853D01*
X140446614Y-80764713D01*
X140446613Y-80764710D01*
X140424617Y-80726613D01*
X140400469Y-80684788D01*
X140335212Y-80619531D01*
X140294709Y-80596146D01*
X140255289Y-80573386D01*
X140255286Y-80573385D01*
X140166147Y-80549500D01*
X140166144Y-80549500D01*
X140073856Y-80549500D01*
X140073853Y-80549500D01*
X139984713Y-80573385D01*
X139984710Y-80573386D01*
X139904794Y-80619527D01*
X139904784Y-80619534D01*
X139839534Y-80684784D01*
X139839527Y-80684794D01*
X139793386Y-80764710D01*
X139793385Y-80764713D01*
X139769500Y-80853853D01*
X137214710Y-80853853D01*
X137255212Y-80830469D01*
X137320469Y-80765212D01*
X137366614Y-80685288D01*
X137384233Y-80619534D01*
X137390500Y-80596146D01*
X137390500Y-80503853D01*
X137366614Y-80414713D01*
X137366614Y-80414712D01*
X137331476Y-80353853D01*
X145899500Y-80353853D01*
X145899500Y-80446146D01*
X145923385Y-80535286D01*
X145923386Y-80535289D01*
X145966201Y-80609444D01*
X145969531Y-80615212D01*
X146034788Y-80680469D01*
X146114712Y-80726614D01*
X146135686Y-80732234D01*
X146203853Y-80750500D01*
X146203856Y-80750500D01*
X146296146Y-80750500D01*
X146354782Y-80734788D01*
X146385288Y-80726614D01*
X146465212Y-80680469D01*
X146530469Y-80615212D01*
X146576614Y-80535288D01*
X146599333Y-80450500D01*
X146600500Y-80446146D01*
X146600500Y-80353853D01*
X146576614Y-80264713D01*
X146576613Y-80264710D01*
X146538963Y-80199500D01*
X146530469Y-80184788D01*
X146465212Y-80119531D01*
X146455047Y-80113662D01*
X146385289Y-80073386D01*
X146385286Y-80073385D01*
X146296147Y-80049500D01*
X146296144Y-80049500D01*
X146203856Y-80049500D01*
X146203853Y-80049500D01*
X146114713Y-80073385D01*
X146114710Y-80073386D01*
X146034794Y-80119527D01*
X146034784Y-80119534D01*
X145969534Y-80184784D01*
X145969527Y-80184794D01*
X145923386Y-80264710D01*
X145923385Y-80264713D01*
X145899500Y-80353853D01*
X137331476Y-80353853D01*
X137325581Y-80343643D01*
X137320472Y-80334793D01*
X137320471Y-80334792D01*
X137320469Y-80334788D01*
X137255212Y-80269531D01*
X137245383Y-80263856D01*
X137175289Y-80223386D01*
X137175286Y-80223385D01*
X137086147Y-80199500D01*
X137086144Y-80199500D01*
X136993856Y-80199500D01*
X136993853Y-80199500D01*
X136904713Y-80223385D01*
X136904710Y-80223386D01*
X136824794Y-80269527D01*
X136824784Y-80269534D01*
X136759534Y-80334784D01*
X136759527Y-80334794D01*
X136713386Y-80414710D01*
X136713385Y-80414713D01*
X136689500Y-80503853D01*
X136435037Y-80503853D01*
X136450499Y-80446147D01*
X136450500Y-80446145D01*
X136450500Y-80353853D01*
X136426614Y-80264713D01*
X136426613Y-80264710D01*
X136388963Y-80199500D01*
X136380469Y-80184788D01*
X136315212Y-80119531D01*
X136305047Y-80113662D01*
X136235289Y-80073386D01*
X136235286Y-80073385D01*
X136146147Y-80049500D01*
X136146144Y-80049500D01*
X136053856Y-80049500D01*
X136053853Y-80049500D01*
X135964713Y-80073385D01*
X135964710Y-80073386D01*
X135884794Y-80119527D01*
X135884784Y-80119534D01*
X135819534Y-80184784D01*
X135819527Y-80184794D01*
X135773386Y-80264710D01*
X135773385Y-80264713D01*
X135749500Y-80353853D01*
X135650500Y-80353853D01*
X135626614Y-80264713D01*
X135626613Y-80264710D01*
X135588963Y-80199500D01*
X135580469Y-80184788D01*
X135515212Y-80119531D01*
X135505047Y-80113662D01*
X135435289Y-80073386D01*
X135435286Y-80073385D01*
X135346147Y-80049500D01*
X135346144Y-80049500D01*
X135253856Y-80049500D01*
X135253853Y-80049500D01*
X135164713Y-80073385D01*
X135164710Y-80073386D01*
X135084794Y-80119527D01*
X135084784Y-80119534D01*
X135019534Y-80184784D01*
X135019527Y-80184794D01*
X134973386Y-80264710D01*
X134973385Y-80264713D01*
X134949500Y-80353853D01*
X134850500Y-80353853D01*
X134826614Y-80264713D01*
X134826613Y-80264710D01*
X134788963Y-80199500D01*
X134780469Y-80184788D01*
X134715212Y-80119531D01*
X134705047Y-80113662D01*
X134635289Y-80073386D01*
X134635286Y-80073385D01*
X134546147Y-80049500D01*
X134546144Y-80049500D01*
X134453856Y-80049500D01*
X134453853Y-80049500D01*
X134364713Y-80073385D01*
X134364710Y-80073386D01*
X134284794Y-80119527D01*
X134284784Y-80119534D01*
X134219534Y-80184784D01*
X134219527Y-80184794D01*
X134173386Y-80264710D01*
X134173385Y-80264713D01*
X134149500Y-80353853D01*
X134050500Y-80353853D01*
X134026614Y-80264713D01*
X134026613Y-80264710D01*
X133988963Y-80199500D01*
X133980469Y-80184788D01*
X133915212Y-80119531D01*
X133905047Y-80113662D01*
X133835289Y-80073386D01*
X133835286Y-80073385D01*
X133746147Y-80049500D01*
X133746144Y-80049500D01*
X133653856Y-80049500D01*
X133653853Y-80049500D01*
X133564713Y-80073385D01*
X133564710Y-80073386D01*
X133484794Y-80119527D01*
X133484784Y-80119534D01*
X133419534Y-80184784D01*
X133419527Y-80184794D01*
X133373386Y-80264710D01*
X133373385Y-80264713D01*
X133349500Y-80353853D01*
X133250500Y-80353853D01*
X133226614Y-80264713D01*
X133226613Y-80264710D01*
X133188963Y-80199500D01*
X133180469Y-80184788D01*
X133115212Y-80119531D01*
X133105047Y-80113662D01*
X133035289Y-80073386D01*
X133035286Y-80073385D01*
X132946147Y-80049500D01*
X132946144Y-80049500D01*
X132853856Y-80049500D01*
X132853853Y-80049500D01*
X132764714Y-80073385D01*
X132711387Y-80104173D01*
X132687276Y-80110735D01*
X132318568Y-80113662D01*
X132293680Y-80107099D01*
X132235288Y-80073386D01*
X132235287Y-80073385D01*
X132235286Y-80073385D01*
X132146147Y-80049500D01*
X132146144Y-80049500D01*
X132053856Y-80049500D01*
X132053853Y-80049500D01*
X131964713Y-80073385D01*
X131964709Y-80073386D01*
X131900237Y-80110610D01*
X131876126Y-80117173D01*
X131529416Y-80119924D01*
X131504527Y-80113361D01*
X131435290Y-80073386D01*
X131435286Y-80073385D01*
X131346147Y-80049500D01*
X131346144Y-80049500D01*
X131253856Y-80049500D01*
X131253853Y-80049500D01*
X131164713Y-80073385D01*
X131164710Y-80073386D01*
X131084794Y-80119527D01*
X131084784Y-80119534D01*
X131019534Y-80184784D01*
X131019527Y-80184794D01*
X130973386Y-80264710D01*
X130973385Y-80264713D01*
X130951109Y-80347848D01*
X130937825Y-80370406D01*
X130446457Y-80845116D01*
X130425093Y-80857206D01*
X130364715Y-80873384D01*
X130364709Y-80873386D01*
X130284794Y-80919527D01*
X130284784Y-80919534D01*
X130219534Y-80984784D01*
X130219527Y-80984794D01*
X130173386Y-81064710D01*
X130173385Y-81064713D01*
X130149500Y-81153853D01*
X127500000Y-81153853D01*
X127500000Y-79013853D01*
X128409500Y-79013853D01*
X128409500Y-79106146D01*
X128433385Y-79195286D01*
X128433386Y-79195289D01*
X128462748Y-79246144D01*
X128479531Y-79275212D01*
X128544788Y-79340469D01*
X128624712Y-79386614D01*
X128646998Y-79392585D01*
X128713853Y-79410500D01*
X128713856Y-79410500D01*
X128806146Y-79410500D01*
X128850716Y-79398557D01*
X128895288Y-79386614D01*
X128969351Y-79343853D01*
X132649500Y-79343853D01*
X132649500Y-79436146D01*
X132673385Y-79525286D01*
X132673386Y-79525289D01*
X132687942Y-79550500D01*
X132719531Y-79605212D01*
X132784788Y-79670469D01*
X132864712Y-79716614D01*
X132886998Y-79722585D01*
X132953853Y-79740500D01*
X132953856Y-79740500D01*
X133046146Y-79740500D01*
X133090716Y-79728557D01*
X133135288Y-79716614D01*
X133215212Y-79670469D01*
X133280469Y-79605212D01*
X133326614Y-79525288D01*
X133335037Y-79493853D01*
X136349500Y-79493853D01*
X136349500Y-79586146D01*
X136373385Y-79675286D01*
X136373386Y-79675289D01*
X136379182Y-79685327D01*
X136419531Y-79755212D01*
X136484788Y-79820469D01*
X136564712Y-79866614D01*
X136586998Y-79872585D01*
X136653853Y-79890500D01*
X136653856Y-79890500D01*
X136746146Y-79890500D01*
X136790977Y-79878487D01*
X136835288Y-79866614D01*
X136915212Y-79820469D01*
X136980469Y-79755212D01*
X137026614Y-79675288D01*
X137040521Y-79623386D01*
X137050500Y-79586146D01*
X137050500Y-79503891D01*
X140165806Y-79503891D01*
X140165806Y-79596184D01*
X140189691Y-79685324D01*
X140189692Y-79685327D01*
X140226976Y-79749902D01*
X140235837Y-79765250D01*
X140301094Y-79830507D01*
X140354445Y-79861310D01*
X140380948Y-79876612D01*
X140381018Y-79876652D01*
X140403304Y-79882623D01*
X140470159Y-79900538D01*
X140470162Y-79900538D01*
X140562452Y-79900538D01*
X140607022Y-79888595D01*
X140651594Y-79876652D01*
X140731518Y-79830507D01*
X140785749Y-79776275D01*
X140820395Y-79761925D01*
X140855041Y-79776275D01*
X140893932Y-79815166D01*
X140973856Y-79861311D01*
X140993643Y-79866613D01*
X141062997Y-79885197D01*
X141063000Y-79885197D01*
X141155290Y-79885197D01*
X141199860Y-79873254D01*
X141244432Y-79861311D01*
X141324356Y-79815166D01*
X141389613Y-79749909D01*
X141435758Y-79669985D01*
X141452767Y-79606507D01*
X141459644Y-79580843D01*
X141459644Y-79488550D01*
X141435758Y-79399410D01*
X141435757Y-79399407D01*
X141410826Y-79356227D01*
X141389613Y-79319485D01*
X141324356Y-79254228D01*
X141310354Y-79246144D01*
X141244433Y-79208083D01*
X141244430Y-79208082D01*
X141155291Y-79184197D01*
X141155288Y-79184197D01*
X141063000Y-79184197D01*
X141062997Y-79184197D01*
X140973857Y-79208082D01*
X140973854Y-79208083D01*
X140893938Y-79254224D01*
X140893932Y-79254228D01*
X140839702Y-79308458D01*
X140805054Y-79322809D01*
X140770406Y-79308457D01*
X140731521Y-79269572D01*
X140731518Y-79269569D01*
X140705787Y-79254713D01*
X140651595Y-79223424D01*
X140651592Y-79223423D01*
X140562453Y-79199538D01*
X140562450Y-79199538D01*
X140470162Y-79199538D01*
X140470159Y-79199538D01*
X140381019Y-79223423D01*
X140381016Y-79223424D01*
X140301100Y-79269565D01*
X140301090Y-79269572D01*
X140235840Y-79334822D01*
X140235833Y-79334832D01*
X140189692Y-79414748D01*
X140189691Y-79414751D01*
X140165806Y-79503891D01*
X137050500Y-79503891D01*
X137050500Y-79493853D01*
X137029303Y-79414748D01*
X137026614Y-79404712D01*
X137023221Y-79398836D01*
X137010391Y-79376613D01*
X136980469Y-79324788D01*
X136915212Y-79259531D01*
X136905383Y-79253856D01*
X136835289Y-79213386D01*
X136835286Y-79213385D01*
X136746147Y-79189500D01*
X136746144Y-79189500D01*
X136653856Y-79189500D01*
X136653853Y-79189500D01*
X136564713Y-79213385D01*
X136564710Y-79213386D01*
X136484794Y-79259527D01*
X136484784Y-79259534D01*
X136419534Y-79324784D01*
X136419527Y-79324794D01*
X136373386Y-79404710D01*
X136373385Y-79404713D01*
X136349500Y-79493853D01*
X133335037Y-79493853D01*
X133350374Y-79436614D01*
X133350500Y-79436145D01*
X133350500Y-79343853D01*
X133326614Y-79254713D01*
X133326613Y-79254710D01*
X133314045Y-79232943D01*
X133280469Y-79174788D01*
X133215212Y-79109531D01*
X133215208Y-79109529D01*
X133215206Y-79109527D01*
X133204037Y-79103079D01*
X133136097Y-79063853D01*
X138069500Y-79063853D01*
X138069500Y-79156146D01*
X138093385Y-79245286D01*
X138093386Y-79245289D01*
X138129857Y-79308457D01*
X138139531Y-79325212D01*
X138204788Y-79390469D01*
X138264731Y-79425077D01*
X138283899Y-79436145D01*
X138284712Y-79436614D01*
X138306998Y-79442585D01*
X138373853Y-79460500D01*
X138373856Y-79460500D01*
X138466146Y-79460500D01*
X138492823Y-79453352D01*
X138525757Y-79444526D01*
X138555288Y-79436614D01*
X138635212Y-79390469D01*
X138700469Y-79325212D01*
X138746614Y-79245288D01*
X138765503Y-79174794D01*
X138770500Y-79156146D01*
X138770500Y-79063853D01*
X138748997Y-78983607D01*
X138746614Y-78974712D01*
X138745848Y-78973386D01*
X138729626Y-78945288D01*
X138700469Y-78894788D01*
X138635212Y-78829531D01*
X138615505Y-78818153D01*
X138555289Y-78783386D01*
X138555286Y-78783385D01*
X138466147Y-78759500D01*
X138466144Y-78759500D01*
X138373856Y-78759500D01*
X138373853Y-78759500D01*
X138284713Y-78783385D01*
X138284710Y-78783386D01*
X138204794Y-78829527D01*
X138204784Y-78829534D01*
X138139534Y-78894784D01*
X138139527Y-78894794D01*
X138093386Y-78974710D01*
X138093385Y-78974713D01*
X138069500Y-79063853D01*
X133136097Y-79063853D01*
X133135288Y-79063386D01*
X133135287Y-79063385D01*
X133135286Y-79063385D01*
X133046147Y-79039500D01*
X133046144Y-79039500D01*
X132953856Y-79039500D01*
X132953853Y-79039500D01*
X132864713Y-79063385D01*
X132864710Y-79063386D01*
X132784794Y-79109527D01*
X132784784Y-79109534D01*
X132719534Y-79174784D01*
X132719527Y-79174794D01*
X132673386Y-79254710D01*
X132673385Y-79254713D01*
X132649500Y-79343853D01*
X128969351Y-79343853D01*
X128975212Y-79340469D01*
X129040469Y-79275212D01*
X129086614Y-79195288D01*
X129109592Y-79109534D01*
X129110500Y-79106146D01*
X129110500Y-79013853D01*
X129086614Y-78924713D01*
X129086613Y-78924710D01*
X129070120Y-78896144D01*
X129040469Y-78844788D01*
X128975212Y-78779531D01*
X128940518Y-78759500D01*
X128895289Y-78733386D01*
X128895286Y-78733385D01*
X128806147Y-78709500D01*
X128806144Y-78709500D01*
X128713856Y-78709500D01*
X128713853Y-78709500D01*
X128624713Y-78733385D01*
X128624710Y-78733386D01*
X128544794Y-78779527D01*
X128544784Y-78779534D01*
X128479534Y-78844784D01*
X128479527Y-78844794D01*
X128433386Y-78924710D01*
X128433385Y-78924713D01*
X128409500Y-79013853D01*
X127500000Y-79013853D01*
X127500000Y-78421835D01*
X130240705Y-78421835D01*
X130240705Y-78514128D01*
X130264590Y-78603268D01*
X130264591Y-78603271D01*
X130299233Y-78663270D01*
X130310736Y-78683194D01*
X130375993Y-78748451D01*
X130455917Y-78794596D01*
X130478203Y-78800567D01*
X130545058Y-78818482D01*
X130545061Y-78818482D01*
X130637351Y-78818482D01*
X130691934Y-78803856D01*
X130726493Y-78794596D01*
X130806417Y-78748451D01*
X130871674Y-78683194D01*
X130917819Y-78603270D01*
X130931959Y-78550500D01*
X130941705Y-78514128D01*
X130941705Y-78421836D01*
X130932726Y-78388327D01*
X130932726Y-78388326D01*
X130930188Y-78378853D01*
X131743299Y-78378853D01*
X131743299Y-78471146D01*
X131767184Y-78560286D01*
X131767185Y-78560289D01*
X131805479Y-78626614D01*
X131813330Y-78640212D01*
X131878587Y-78705469D01*
X131909620Y-78723386D01*
X131953032Y-78748451D01*
X131958511Y-78751614D01*
X131980797Y-78757585D01*
X132047652Y-78775500D01*
X132047655Y-78775500D01*
X132139945Y-78775500D01*
X132184515Y-78763557D01*
X132229087Y-78751614D01*
X132309011Y-78705469D01*
X132374268Y-78640212D01*
X132420413Y-78560288D01*
X132441434Y-78481835D01*
X133238205Y-78481835D01*
X133238205Y-78574128D01*
X133262090Y-78663268D01*
X133262091Y-78663271D01*
X133296800Y-78723386D01*
X133308236Y-78743194D01*
X133373493Y-78808451D01*
X133409997Y-78829527D01*
X133444590Y-78849500D01*
X133453417Y-78854596D01*
X133467741Y-78858434D01*
X133542558Y-78878482D01*
X133542561Y-78878482D01*
X133634851Y-78878482D01*
X133681660Y-78865939D01*
X133723993Y-78854596D01*
X133803917Y-78808451D01*
X133869174Y-78743194D01*
X133915319Y-78663270D01*
X133931396Y-78603270D01*
X133939205Y-78574128D01*
X133939205Y-78481835D01*
X133915319Y-78392695D01*
X133915318Y-78392692D01*
X133903782Y-78372713D01*
X133869174Y-78312770D01*
X133803917Y-78247513D01*
X133774402Y-78230472D01*
X133723994Y-78201368D01*
X133723991Y-78201367D01*
X133634852Y-78177482D01*
X133634849Y-78177482D01*
X133542561Y-78177482D01*
X133542558Y-78177482D01*
X133453418Y-78201367D01*
X133453415Y-78201368D01*
X133373499Y-78247509D01*
X133373489Y-78247516D01*
X133308239Y-78312766D01*
X133308232Y-78312776D01*
X133262091Y-78392692D01*
X133262090Y-78392695D01*
X133238205Y-78481835D01*
X132441434Y-78481835D01*
X132444298Y-78471148D01*
X132444299Y-78471145D01*
X132444299Y-78378853D01*
X132424909Y-78306493D01*
X132420413Y-78289712D01*
X132374268Y-78209788D01*
X132309011Y-78144531D01*
X132262162Y-78117482D01*
X132229088Y-78098386D01*
X132229085Y-78098385D01*
X132139946Y-78074500D01*
X132139943Y-78074500D01*
X132047655Y-78074500D01*
X132047652Y-78074500D01*
X131958512Y-78098385D01*
X131958509Y-78098386D01*
X131878593Y-78144527D01*
X131878583Y-78144534D01*
X131813333Y-78209784D01*
X131813326Y-78209794D01*
X131767185Y-78289710D01*
X131767184Y-78289713D01*
X131743299Y-78378853D01*
X130930188Y-78378853D01*
X130918514Y-78335288D01*
X130917819Y-78332694D01*
X130871674Y-78252770D01*
X130806417Y-78187513D01*
X130786726Y-78176144D01*
X130726494Y-78141368D01*
X130726491Y-78141367D01*
X130637352Y-78117482D01*
X130637349Y-78117482D01*
X130545061Y-78117482D01*
X130545058Y-78117482D01*
X130455918Y-78141367D01*
X130455915Y-78141368D01*
X130375999Y-78187509D01*
X130375989Y-78187516D01*
X130310739Y-78252766D01*
X130310732Y-78252776D01*
X130264591Y-78332692D01*
X130264590Y-78332695D01*
X130240705Y-78421835D01*
X127500000Y-78421835D01*
X127500000Y-78013853D01*
X128499500Y-78013853D01*
X128499500Y-78106146D01*
X128523385Y-78195286D01*
X128523386Y-78195289D01*
X128556574Y-78252770D01*
X128569531Y-78275212D01*
X128634788Y-78340469D01*
X128714712Y-78386614D01*
X128736998Y-78392585D01*
X128803853Y-78410500D01*
X128803856Y-78410500D01*
X128896146Y-78410500D01*
X128952707Y-78395344D01*
X128985288Y-78386614D01*
X129065212Y-78340469D01*
X129130469Y-78275212D01*
X129176614Y-78195288D01*
X129188557Y-78150716D01*
X129200500Y-78106146D01*
X129200500Y-78013853D01*
X129176614Y-77924713D01*
X129176612Y-77924708D01*
X129164571Y-77903853D01*
X136688670Y-77903853D01*
X136688670Y-77996146D01*
X136712555Y-78085286D01*
X136712556Y-78085289D01*
X136746762Y-78144534D01*
X136758701Y-78165212D01*
X136823958Y-78230469D01*
X136851111Y-78246146D01*
X136901453Y-78275212D01*
X136903882Y-78276614D01*
X136926168Y-78282585D01*
X136993023Y-78300500D01*
X136993026Y-78300500D01*
X137085316Y-78300500D01*
X137130823Y-78288306D01*
X137174458Y-78276614D01*
X137254382Y-78230469D01*
X137319639Y-78165212D01*
X137326197Y-78153853D01*
X137663670Y-78153853D01*
X137663670Y-78246146D01*
X137687555Y-78335286D01*
X137687556Y-78335289D01*
X137722230Y-78395344D01*
X137733701Y-78415212D01*
X137798958Y-78480469D01*
X137878882Y-78526614D01*
X137901168Y-78532585D01*
X137968023Y-78550500D01*
X137968026Y-78550500D01*
X138060316Y-78550500D01*
X138104886Y-78538557D01*
X138149458Y-78526614D01*
X138229382Y-78480469D01*
X138294639Y-78415212D01*
X138340784Y-78335288D01*
X138356506Y-78276613D01*
X138364670Y-78246146D01*
X138364670Y-78153853D01*
X138340784Y-78064713D01*
X138340783Y-78064710D01*
X138314698Y-78019531D01*
X138294639Y-77984788D01*
X138229382Y-77919531D01*
X138202233Y-77903856D01*
X138149459Y-77873386D01*
X138149456Y-77873385D01*
X138060317Y-77849500D01*
X138060314Y-77849500D01*
X137968026Y-77849500D01*
X137968023Y-77849500D01*
X137878883Y-77873385D01*
X137878880Y-77873386D01*
X137798964Y-77919527D01*
X137798954Y-77919534D01*
X137733704Y-77984784D01*
X137733697Y-77984794D01*
X137687556Y-78064710D01*
X137687555Y-78064713D01*
X137663670Y-78153853D01*
X137326197Y-78153853D01*
X137342196Y-78126143D01*
X137342197Y-78126142D01*
X137365783Y-78085290D01*
X137365783Y-78085289D01*
X137365784Y-78085288D01*
X137379475Y-78034191D01*
X137389670Y-77996146D01*
X137389670Y-77903853D01*
X137365784Y-77814713D01*
X137365783Y-77814710D01*
X137353032Y-77792625D01*
X137319639Y-77734788D01*
X137254382Y-77669531D01*
X137232008Y-77656613D01*
X137174459Y-77623386D01*
X137174456Y-77623385D01*
X137085317Y-77599500D01*
X137085314Y-77599500D01*
X136993026Y-77599500D01*
X136993023Y-77599500D01*
X136903883Y-77623385D01*
X136903880Y-77623386D01*
X136823964Y-77669527D01*
X136823954Y-77669534D01*
X136758704Y-77734784D01*
X136758697Y-77734794D01*
X136712556Y-77814710D01*
X136712555Y-77814713D01*
X136688670Y-77903853D01*
X129164571Y-77903853D01*
X129133207Y-77849531D01*
X129130469Y-77844788D01*
X129065212Y-77779531D01*
X129028755Y-77758482D01*
X128985289Y-77733386D01*
X128985286Y-77733385D01*
X128896147Y-77709500D01*
X128896144Y-77709500D01*
X128803856Y-77709500D01*
X128803853Y-77709500D01*
X128714713Y-77733385D01*
X128714710Y-77733386D01*
X128634794Y-77779527D01*
X128634784Y-77779534D01*
X128569534Y-77844784D01*
X128569527Y-77844794D01*
X128523386Y-77924710D01*
X128523385Y-77924713D01*
X128499500Y-78013853D01*
X127500000Y-78013853D01*
X127500000Y-76183853D01*
X130249500Y-76183853D01*
X130249500Y-76276146D01*
X130273385Y-76365286D01*
X130273386Y-76365289D01*
X130284648Y-76384794D01*
X130319531Y-76445212D01*
X130384788Y-76510469D01*
X130398628Y-76518460D01*
X130421458Y-76548210D01*
X130416564Y-76585393D01*
X130408777Y-76595542D01*
X130369531Y-76634788D01*
X130369527Y-76634794D01*
X130323386Y-76714710D01*
X130323385Y-76714713D01*
X130299500Y-76803853D01*
X130299500Y-76896146D01*
X130323385Y-76985286D01*
X130323386Y-76985289D01*
X130330750Y-76998043D01*
X130369531Y-77065212D01*
X130434788Y-77130469D01*
X130514712Y-77176614D01*
X130529099Y-77180469D01*
X130603853Y-77200500D01*
X130603856Y-77200500D01*
X130696146Y-77200500D01*
X130740716Y-77188557D01*
X130785288Y-77176614D01*
X130865212Y-77130469D01*
X130885351Y-77110330D01*
X130919999Y-77095977D01*
X130954647Y-77110328D01*
X130994788Y-77150469D01*
X131024035Y-77167355D01*
X131071417Y-77194712D01*
X131074712Y-77196614D01*
X131089215Y-77200500D01*
X131163853Y-77220500D01*
X131163856Y-77220500D01*
X131256146Y-77220500D01*
X131325352Y-77201956D01*
X131362534Y-77206851D01*
X131385364Y-77236604D01*
X131385364Y-77261968D01*
X131379500Y-77283852D01*
X131379500Y-77376146D01*
X131403385Y-77465286D01*
X131403386Y-77465289D01*
X131410929Y-77478353D01*
X131449531Y-77545212D01*
X131514788Y-77610469D01*
X131594712Y-77656614D01*
X131616998Y-77662585D01*
X131683853Y-77680500D01*
X131683856Y-77680500D01*
X131776146Y-77680500D01*
X131823086Y-77667922D01*
X131865288Y-77656614D01*
X131945212Y-77610469D01*
X132010469Y-77545212D01*
X132056614Y-77465288D01*
X132068557Y-77420716D01*
X132080500Y-77376146D01*
X132080500Y-77361835D01*
X133243205Y-77361835D01*
X133243205Y-77454128D01*
X133267090Y-77543268D01*
X133267091Y-77543271D01*
X133279007Y-77563909D01*
X133313236Y-77623194D01*
X133378493Y-77688451D01*
X133427617Y-77716813D01*
X133456319Y-77733385D01*
X133458417Y-77734596D01*
X133480703Y-77740567D01*
X133547558Y-77758482D01*
X133547561Y-77758482D01*
X133639851Y-77758482D01*
X133684421Y-77746539D01*
X133728993Y-77734596D01*
X133808917Y-77688451D01*
X133874174Y-77623194D01*
X133920319Y-77543270D01*
X133932262Y-77498698D01*
X133944205Y-77454128D01*
X133944205Y-77361835D01*
X133920319Y-77272695D01*
X133920318Y-77272692D01*
X133887131Y-77215212D01*
X133874174Y-77192770D01*
X133808917Y-77127513D01*
X133796710Y-77120465D01*
X133728994Y-77081368D01*
X133728991Y-77081367D01*
X133639852Y-77057482D01*
X133639849Y-77057482D01*
X133547561Y-77057482D01*
X133547558Y-77057482D01*
X133458418Y-77081367D01*
X133458415Y-77081368D01*
X133378499Y-77127509D01*
X133378489Y-77127516D01*
X133313239Y-77192766D01*
X133313232Y-77192776D01*
X133267091Y-77272692D01*
X133267090Y-77272695D01*
X133243205Y-77361835D01*
X132080500Y-77361835D01*
X132080500Y-77283853D01*
X132080499Y-77283852D01*
X132072014Y-77252182D01*
X132076909Y-77215000D01*
X132106662Y-77192170D01*
X132119344Y-77190500D01*
X132176146Y-77190500D01*
X132227971Y-77176613D01*
X132265288Y-77166614D01*
X132345212Y-77120469D01*
X132410469Y-77055212D01*
X132456614Y-76975288D01*
X132477821Y-76896144D01*
X132480500Y-76886146D01*
X132480500Y-76793853D01*
X132458361Y-76711233D01*
X132456614Y-76704712D01*
X132410469Y-76624788D01*
X132345212Y-76559531D01*
X132335378Y-76553853D01*
X133749500Y-76553853D01*
X133749500Y-76646146D01*
X133773385Y-76735286D01*
X133773386Y-76735289D01*
X133807199Y-76793853D01*
X133819531Y-76815212D01*
X133884788Y-76880469D01*
X133964712Y-76926614D01*
X133986998Y-76932585D01*
X134053853Y-76950500D01*
X134053856Y-76950500D01*
X134146146Y-76950500D01*
X134190716Y-76938557D01*
X134235288Y-76926614D01*
X134315212Y-76880469D01*
X134380469Y-76815212D01*
X134426614Y-76735288D01*
X134443201Y-76673386D01*
X134450500Y-76646146D01*
X134450500Y-76553853D01*
X134426614Y-76464713D01*
X134426613Y-76464710D01*
X134399283Y-76417374D01*
X134380469Y-76384788D01*
X134315212Y-76319531D01*
X134281365Y-76299989D01*
X134235289Y-76273386D01*
X134235286Y-76273385D01*
X134146147Y-76249500D01*
X134146144Y-76249500D01*
X134053856Y-76249500D01*
X134053853Y-76249500D01*
X133964713Y-76273385D01*
X133964710Y-76273386D01*
X133884794Y-76319527D01*
X133884784Y-76319534D01*
X133819534Y-76384784D01*
X133819527Y-76384794D01*
X133773386Y-76464710D01*
X133773385Y-76464713D01*
X133749500Y-76553853D01*
X132335378Y-76553853D01*
X132316880Y-76543173D01*
X132265289Y-76513386D01*
X132265286Y-76513385D01*
X132176147Y-76489500D01*
X132176144Y-76489500D01*
X132083856Y-76489500D01*
X132083853Y-76489500D01*
X131994713Y-76513385D01*
X131994710Y-76513386D01*
X131914794Y-76559527D01*
X131914784Y-76559534D01*
X131849534Y-76624784D01*
X131849527Y-76624794D01*
X131803386Y-76704710D01*
X131803385Y-76704713D01*
X131779500Y-76793853D01*
X131779500Y-76886147D01*
X131787986Y-76917818D01*
X131783091Y-76955000D01*
X131753338Y-76977830D01*
X131740656Y-76979500D01*
X131683853Y-76979500D01*
X131614647Y-76998043D01*
X131577465Y-76993148D01*
X131554635Y-76963395D01*
X131554635Y-76938032D01*
X131560500Y-76916144D01*
X131560500Y-76823856D01*
X131560500Y-76823853D01*
X131537684Y-76738707D01*
X131536614Y-76734712D01*
X131490469Y-76654788D01*
X131425212Y-76589531D01*
X131373257Y-76559534D01*
X131345289Y-76543386D01*
X131345286Y-76543385D01*
X131256147Y-76519500D01*
X131256144Y-76519500D01*
X131163856Y-76519500D01*
X131163853Y-76519500D01*
X131074713Y-76543385D01*
X131074710Y-76543386D01*
X130994794Y-76589527D01*
X130994787Y-76589532D01*
X130974646Y-76609672D01*
X130958749Y-76616255D01*
X130943342Y-76623908D01*
X130941730Y-76623304D01*
X130939997Y-76624022D01*
X130907795Y-76611953D01*
X130906537Y-76610856D01*
X130865212Y-76569531D01*
X130847256Y-76559163D01*
X130843668Y-76556035D01*
X130837280Y-76543173D01*
X130828541Y-76531783D01*
X130829186Y-76526878D01*
X130826986Y-76522447D01*
X130831563Y-76508837D01*
X130833438Y-76494602D01*
X130838623Y-76487844D01*
X130838941Y-76486900D01*
X130839598Y-76486573D01*
X130841217Y-76484463D01*
X130880469Y-76445212D01*
X130926614Y-76365288D01*
X130945320Y-76295476D01*
X130950500Y-76276146D01*
X130950500Y-76183853D01*
X130926614Y-76094713D01*
X130926613Y-76094710D01*
X130880472Y-76014794D01*
X130880469Y-76014788D01*
X130815212Y-75949531D01*
X130809842Y-75946430D01*
X130735289Y-75903386D01*
X130735286Y-75903385D01*
X130646147Y-75879500D01*
X130646144Y-75879500D01*
X130553856Y-75879500D01*
X130553853Y-75879500D01*
X130464713Y-75903385D01*
X130464710Y-75903386D01*
X130384794Y-75949527D01*
X130384784Y-75949534D01*
X130319534Y-76014784D01*
X130319527Y-76014794D01*
X130273386Y-76094710D01*
X130273385Y-76094713D01*
X130249500Y-76183853D01*
X127500000Y-76183853D01*
X127500000Y-75743853D01*
X137199500Y-75743853D01*
X137199500Y-75836146D01*
X137223385Y-75925286D01*
X137223386Y-75925289D01*
X137257739Y-75984788D01*
X137269531Y-76005212D01*
X137334788Y-76070469D01*
X137414712Y-76116614D01*
X137436998Y-76122585D01*
X137503853Y-76140500D01*
X137503856Y-76140500D01*
X137596146Y-76140500D01*
X137640716Y-76128557D01*
X137685288Y-76116614D01*
X137765212Y-76070469D01*
X137830469Y-76005212D01*
X137876614Y-75925288D01*
X137896370Y-75851557D01*
X137900500Y-75836146D01*
X137900500Y-75743853D01*
X137876614Y-75654713D01*
X137876613Y-75654710D01*
X137830472Y-75574794D01*
X137830469Y-75574788D01*
X137765212Y-75509531D01*
X137734188Y-75491619D01*
X137685289Y-75463386D01*
X137685286Y-75463385D01*
X137596147Y-75439500D01*
X137596144Y-75439500D01*
X137503856Y-75439500D01*
X137503853Y-75439500D01*
X137414713Y-75463385D01*
X137414710Y-75463386D01*
X137334794Y-75509527D01*
X137334784Y-75509534D01*
X137269534Y-75574784D01*
X137269527Y-75574794D01*
X137223386Y-75654710D01*
X137223385Y-75654713D01*
X137199500Y-75743853D01*
X127500000Y-75743853D01*
X127500000Y-74628853D01*
X131324500Y-74628853D01*
X131324500Y-74721146D01*
X131348385Y-74810286D01*
X131348386Y-74810289D01*
X131370737Y-74849000D01*
X131394531Y-74890212D01*
X131459788Y-74955469D01*
X131539712Y-75001614D01*
X131561998Y-75007585D01*
X131628853Y-75025500D01*
X131628856Y-75025500D01*
X131721146Y-75025500D01*
X131765716Y-75013557D01*
X131810288Y-75001614D01*
X131890212Y-74955469D01*
X131955469Y-74890212D01*
X132001614Y-74810288D01*
X132023714Y-74727811D01*
X132025500Y-74721146D01*
X132025500Y-74628853D01*
X132007585Y-74561998D01*
X132001614Y-74539712D01*
X131955469Y-74459788D01*
X131890212Y-74394531D01*
X131864178Y-74379500D01*
X131810289Y-74348386D01*
X131810286Y-74348385D01*
X131721147Y-74324500D01*
X131721144Y-74324500D01*
X131628856Y-74324500D01*
X131628853Y-74324500D01*
X131539713Y-74348385D01*
X131539710Y-74348386D01*
X131459794Y-74394527D01*
X131459784Y-74394534D01*
X131394534Y-74459784D01*
X131394527Y-74459794D01*
X131348386Y-74539710D01*
X131348385Y-74539713D01*
X131324500Y-74628853D01*
X127500000Y-74628853D01*
X127500000Y-73899998D01*
X127499999Y-73899996D01*
X127421687Y-73813853D01*
X126885490Y-73224036D01*
X126885489Y-73224036D01*
X124150000Y-73224036D01*
X123649947Y-74600142D01*
X123624624Y-74627805D01*
X123603928Y-74632407D01*
X117950000Y-74636484D01*
X117949999Y-74636485D01*
X115053804Y-76583527D01*
X115027067Y-76591858D01*
X113763379Y-76607352D01*
X113738402Y-76600862D01*
X111344294Y-75227910D01*
X111321377Y-75198224D01*
X111326164Y-75161028D01*
X111327187Y-75159323D01*
X111629717Y-74678778D01*
X111660322Y-74657104D01*
X111695151Y-74662146D01*
X112343060Y-75025500D01*
X113123870Y-75463386D01*
X113174214Y-75491619D01*
X113625732Y-75243663D01*
X113661997Y-75239284D01*
X113676571Y-75243189D01*
X113703854Y-75250500D01*
X113703856Y-75250500D01*
X113796146Y-75250500D01*
X113840716Y-75238557D01*
X113885288Y-75226614D01*
X113965212Y-75180469D01*
X114030469Y-75115212D01*
X114076614Y-75035288D01*
X114083526Y-75009489D01*
X114106355Y-74979738D01*
X114107237Y-74979241D01*
X115473505Y-74228944D01*
X117238783Y-73231785D01*
X117262883Y-73225451D01*
X122366439Y-73226236D01*
X122965096Y-71929483D01*
X122992648Y-71904042D01*
X123009490Y-71901022D01*
X128677759Y-71890847D01*
X128712431Y-71905137D01*
G37*
%TD.AperFunction*%
%TD*%
%TA.AperFunction,Conductor*%
%TO.N,+5V*%
G36*
X120548961Y-75412731D02*
G01*
X120563615Y-75447252D01*
X120563617Y-75447749D01*
X120552403Y-83499427D01*
X120538003Y-83534055D01*
X120535340Y-83536521D01*
X118673502Y-85136581D01*
X118656709Y-85146020D01*
X118626448Y-85155853D01*
X118426522Y-85257721D01*
X118244994Y-85389608D01*
X118086337Y-85548265D01*
X117954451Y-85729791D01*
X117936411Y-85765195D01*
X117924689Y-85780110D01*
X115756846Y-87643153D01*
X115789440Y-89222903D01*
X115775806Y-89257840D01*
X115767344Y-89264874D01*
X114081257Y-90371930D01*
X114044417Y-90378950D01*
X114013403Y-90357864D01*
X114012291Y-90356088D01*
X113706928Y-89844604D01*
X113700000Y-89819486D01*
X113700000Y-86852846D01*
X113714352Y-86818198D01*
X113716520Y-86816157D01*
X118760000Y-82354618D01*
X118760000Y-75462605D01*
X118774352Y-75427957D01*
X118808568Y-75413608D01*
X120514188Y-75398683D01*
X120548961Y-75412731D01*
G37*
%TD.AperFunction*%
%TD*%
M02*
