%TF.GenerationSoftware,KiCad,Pcbnew,9.0.5*%
%TF.CreationDate,2025-10-20T13:37:51+02:00*%
%TF.ProjectId,PCB_PAPI,5043425f-5041-4504-992e-6b696361645f,rev?*%
%TF.SameCoordinates,Original*%
%TF.FileFunction,Copper,L3,Inr*%
%TF.FilePolarity,Positive*%
%FSLAX46Y46*%
G04 Gerber Fmt 4.6, Leading zero omitted, Abs format (unit mm)*
G04 Created by KiCad (PCBNEW 9.0.5) date 2025-10-20 13:37:51*
%MOMM*%
%LPD*%
G01*
G04 APERTURE LIST*
%TA.AperFunction,ComponentPad*%
%ADD10C,0.800000*%
%TD*%
%TA.AperFunction,ComponentPad*%
%ADD11C,5.000000*%
%TD*%
%TA.AperFunction,ComponentPad*%
%ADD12C,2.550000*%
%TD*%
%TA.AperFunction,ComponentPad*%
%ADD13C,1.500000*%
%TD*%
%TA.AperFunction,ViaPad*%
%ADD14C,0.400000*%
%TD*%
%TA.AperFunction,Conductor*%
%ADD15C,0.160000*%
%TD*%
G04 APERTURE END LIST*
D10*
%TO.N,GND*%
%TO.C,H1*%
X137625000Y-101186533D03*
X138174175Y-99860708D03*
X138174175Y-102512358D03*
X139500000Y-99311533D03*
D11*
X139500000Y-101186533D03*
D10*
X139500000Y-103061533D03*
X140825825Y-99860708D03*
X140825825Y-102512358D03*
X141375000Y-101186533D03*
%TD*%
%TO.N,GND*%
%TO.C,H3*%
X137625000Y-64813467D03*
X138174175Y-63487642D03*
X138174175Y-66139292D03*
X139500000Y-62938467D03*
D11*
X139500000Y-64813467D03*
D10*
X139500000Y-66688467D03*
X140825825Y-63487642D03*
X140825825Y-66139292D03*
X141375000Y-64813467D03*
%TD*%
%TO.N,GND*%
%TO.C,H2*%
X106125000Y-83000000D03*
X106674175Y-81674175D03*
X106674175Y-84325825D03*
X108000000Y-81125000D03*
D11*
X108000000Y-83000000D03*
D10*
X108000000Y-84875000D03*
X109325825Y-81674175D03*
X109325825Y-84325825D03*
X109875000Y-83000000D03*
%TD*%
D12*
%TO.N,VBAT+*%
%TO.C,J3*%
X119173647Y-86476918D03*
%TO.N,GND*%
X121673647Y-90807046D03*
D13*
X114513393Y-98405122D03*
X109013393Y-88878842D03*
%TD*%
D14*
%TO.N,GND*%
X111800000Y-79200000D03*
X125625000Y-73600000D03*
X126114000Y-61750808D03*
X123400000Y-71200000D03*
X142120000Y-80900000D03*
X148850000Y-74850000D03*
X147490000Y-78810000D03*
X133050000Y-91860000D03*
X117690000Y-103205000D03*
X133410000Y-67005000D03*
X143075000Y-101143648D03*
X139102000Y-104270000D03*
X144970000Y-86150000D03*
X133593705Y-77407982D03*
X127000000Y-88720000D03*
X109500000Y-91764593D03*
X150560000Y-86290000D03*
X149218000Y-75506756D03*
X123630000Y-92770000D03*
X128690000Y-91740000D03*
X142353000Y-102394189D03*
X146070000Y-94150000D03*
X141992000Y-103019459D03*
X137666000Y-61750808D03*
X152150000Y-80600000D03*
X118164000Y-104270000D03*
X113500000Y-69750000D03*
X114750000Y-100850000D03*
X139832000Y-61750808D03*
X133893701Y-91193701D03*
X106983000Y-78632299D03*
X144886000Y-68003512D03*
X123948000Y-61750808D03*
X151800000Y-79950000D03*
X140120000Y-83900000D03*
X117450000Y-61750808D03*
X122504000Y-61750808D03*
X129724000Y-61750808D03*
X146390000Y-85000000D03*
X133410000Y-62375000D03*
X124590000Y-67005000D03*
X110944000Y-94265674D03*
X138420000Y-79110000D03*
X145730000Y-94680000D03*
X133410000Y-63075000D03*
X116965000Y-103205000D03*
X141637000Y-62376079D03*
X146750000Y-88200000D03*
X146950000Y-86150000D03*
X144519000Y-98642567D03*
X130360000Y-64990000D03*
X120590000Y-96680000D03*
X120540000Y-69470000D03*
X146450000Y-88950000D03*
X130650000Y-76850000D03*
X121052000Y-104270000D03*
X147550000Y-90450000D03*
X123890000Y-63075000D03*
X147407000Y-93640404D03*
X111666000Y-95516215D03*
X118415000Y-96680000D03*
X149450000Y-86100000D03*
X137900000Y-92375000D03*
X143436000Y-100518378D03*
X134810000Y-63775000D03*
X146300000Y-93290000D03*
X136222000Y-61750808D03*
X123226000Y-61750808D03*
X123190000Y-67705000D03*
X117640000Y-62945000D03*
X148560000Y-82480000D03*
X135300000Y-87600000D03*
X147750000Y-86150000D03*
X142550000Y-88500000D03*
X133700000Y-87600000D03*
X134110000Y-63075000D03*
X148250000Y-76200000D03*
X145963000Y-96141485D03*
X139740000Y-96420000D03*
X128850000Y-78060000D03*
X146650000Y-92500000D03*
X131110000Y-73150000D03*
X124670000Y-61750808D03*
X146550000Y-82642500D03*
X121782000Y-61750808D03*
X121265000Y-62945000D03*
X129900000Y-70950000D03*
X144970000Y-91490000D03*
X150301000Y-77382567D03*
X117640000Y-69470000D03*
X133334000Y-61750808D03*
X128280000Y-61750808D03*
X129525000Y-96800000D03*
X153450000Y-83000000D03*
X118750000Y-72600000D03*
X148900000Y-85350000D03*
X116915000Y-62945000D03*
X127530000Y-90690000D03*
X127570000Y-87950000D03*
X124662000Y-104270000D03*
X122850000Y-81800000D03*
X142120000Y-82900000D03*
X127600000Y-96800000D03*
X104817000Y-82383921D03*
X121990000Y-66570000D03*
X135492000Y-104270000D03*
X139824000Y-104270000D03*
X113330000Y-91320000D03*
X136053705Y-94247982D03*
X138014170Y-78200000D03*
X135500000Y-61750808D03*
X121990000Y-68020000D03*
X119090000Y-69470000D03*
X139740000Y-84920000D03*
X121774000Y-104270000D03*
X125625000Y-74300000D03*
X132612000Y-61750808D03*
X123630000Y-91530000D03*
X134810000Y-62375000D03*
X140120000Y-82900000D03*
X112388000Y-96766756D03*
X148550000Y-91650000D03*
X133588705Y-78527982D03*
X144550000Y-69700000D03*
X121060000Y-61750808D03*
X129002000Y-61750808D03*
X121990000Y-63670000D03*
X115465000Y-67300000D03*
X143850000Y-92710000D03*
X142714000Y-101768918D03*
X133410000Y-67705000D03*
X135800000Y-96140000D03*
X147577429Y-76575945D03*
X136936000Y-104270000D03*
X140120000Y-80900000D03*
X149860000Y-85670000D03*
X111150000Y-76950000D03*
X111305000Y-94890945D03*
X143797000Y-99893107D03*
X138840000Y-92690000D03*
X151400000Y-86700000D03*
X136853705Y-93447982D03*
X134770000Y-104270000D03*
X114480000Y-68040000D03*
X112450000Y-76480000D03*
X129280000Y-92740000D03*
X146324000Y-95516215D03*
X113120000Y-68002704D03*
X119815000Y-69470000D03*
X124590000Y-63075000D03*
X105529000Y-84886619D03*
X132100000Y-84400000D03*
X122850000Y-80950000D03*
X146800000Y-77000000D03*
X134810000Y-67705000D03*
X123890000Y-63775000D03*
X110228769Y-90072037D03*
X113953769Y-96523927D03*
X148150000Y-92350000D03*
X143442000Y-65502430D03*
X115515000Y-98855000D03*
X121040000Y-103210000D03*
X122040000Y-98855000D03*
X125250000Y-103050000D03*
X136853705Y-94247982D03*
X134056000Y-61750808D03*
X114300000Y-100100000D03*
X123890000Y-62375000D03*
X115998000Y-103019459D03*
X143120000Y-80900000D03*
X107695000Y-88638241D03*
X117690000Y-96680000D03*
X121950000Y-80100000D03*
X126325000Y-73600000D03*
X115465000Y-64395000D03*
X118415000Y-103205000D03*
X124660000Y-91910000D03*
X112230000Y-91610000D03*
X141120000Y-80900000D03*
X145241000Y-97392026D03*
X148200000Y-85100000D03*
X144420000Y-91920000D03*
X130600000Y-76230000D03*
X124590000Y-62375000D03*
X131700000Y-81650000D03*
X132900000Y-90925000D03*
X118886000Y-104270000D03*
X123190000Y-63075000D03*
X117442000Y-104270000D03*
X123890000Y-67705000D03*
X136053705Y-93447982D03*
X105168000Y-84261349D03*
X132093799Y-78425000D03*
X123190000Y-62375000D03*
X137050000Y-85240000D03*
X123675000Y-83725000D03*
X113500000Y-98700000D03*
X137270000Y-82740000D03*
X116730000Y-61750000D03*
X130450000Y-73880000D03*
X144158000Y-99267837D03*
X131168000Y-61750808D03*
X122496000Y-104270000D03*
X145450000Y-85550000D03*
X119815000Y-62945000D03*
X147046000Y-94265674D03*
X123890000Y-67005000D03*
X145950000Y-69800000D03*
X120338000Y-61750808D03*
X132525000Y-104275000D03*
X132130000Y-76840000D03*
X151270000Y-85640000D03*
X139870000Y-74730000D03*
X125500000Y-71200000D03*
X118900000Y-61750000D03*
X113110000Y-98017296D03*
X133000000Y-79390000D03*
X124925000Y-74300000D03*
X138300000Y-91710000D03*
X121990000Y-65120000D03*
X123190000Y-66305000D03*
X127300000Y-69600000D03*
X109640000Y-74760000D03*
X131890000Y-61750808D03*
X121950000Y-81800000D03*
X134110000Y-62375000D03*
X124590000Y-66305000D03*
X109861000Y-92389863D03*
X125540000Y-89380000D03*
X108417000Y-89888782D03*
X143470000Y-93350000D03*
X142720000Y-64251890D03*
X127570000Y-91620000D03*
X122040000Y-98130000D03*
X144525000Y-67378241D03*
X135510000Y-98080000D03*
X124590000Y-67705000D03*
X108778000Y-90514052D03*
X115515000Y-96680000D03*
X125620000Y-87700000D03*
X150200000Y-88750000D03*
X107344000Y-78007029D03*
X116440000Y-69480000D03*
X152150000Y-85350000D03*
X131700000Y-104275000D03*
X141120000Y-81900000D03*
X134100000Y-76600000D03*
X114222373Y-68913175D03*
X134810000Y-67005000D03*
X128760000Y-79060000D03*
X122040000Y-101030000D03*
X123560000Y-95710000D03*
X122050000Y-102230000D03*
X149350000Y-90200000D03*
X147900000Y-89750000D03*
X123940000Y-104270000D03*
X108056000Y-89263512D03*
X134400000Y-90300000D03*
X134110000Y-63775000D03*
X106251000Y-86137160D03*
X137550000Y-75790000D03*
X126836000Y-61750808D03*
X115580000Y-81760000D03*
X137658000Y-104270000D03*
X134250000Y-94100000D03*
X136480000Y-96140000D03*
X143080000Y-72520000D03*
X143120000Y-82900000D03*
X147400000Y-85100000D03*
X143120000Y-81900000D03*
X133326000Y-104270000D03*
X122850000Y-80100000D03*
X143060000Y-94000000D03*
X128990000Y-88470000D03*
X143081000Y-64877160D03*
X145602000Y-96766756D03*
X123190000Y-63775000D03*
X151400000Y-79300000D03*
X121520000Y-97150000D03*
X147600000Y-87150000D03*
X141120000Y-82900000D03*
X137625000Y-70100000D03*
X151000000Y-87350000D03*
X115465000Y-65845000D03*
X116359000Y-103644729D03*
X109600000Y-76100000D03*
X144069400Y-89932462D03*
X143313813Y-99006250D03*
X134110000Y-67005000D03*
X145300000Y-90850000D03*
X135925000Y-69127276D03*
X119160000Y-103210000D03*
X123190000Y-67005000D03*
X152500000Y-81250000D03*
X149579000Y-76132026D03*
X151800000Y-86000000D03*
X113290000Y-94250000D03*
X112749000Y-97392026D03*
X148950000Y-90950000D03*
X118365000Y-69470000D03*
X109139000Y-91139323D03*
X125392000Y-61750808D03*
X111810000Y-93830000D03*
X104807000Y-83636079D03*
X138388000Y-61750808D03*
X138380000Y-104270000D03*
X132470000Y-80820000D03*
X108130000Y-79860000D03*
X134110000Y-66305000D03*
X142754088Y-87060000D03*
X130500000Y-86550000D03*
X119090000Y-62945000D03*
X130920000Y-69090000D03*
X105539000Y-81133381D03*
X146300000Y-70400000D03*
X131120000Y-73860000D03*
X134778000Y-61750808D03*
X152550000Y-84650000D03*
X147400000Y-91250000D03*
X132700000Y-103150000D03*
X118172000Y-61750808D03*
X127558000Y-61750808D03*
X144164000Y-66752971D03*
X134200000Y-95840000D03*
X149450000Y-86850000D03*
X134900000Y-92075000D03*
X148350000Y-89100000D03*
X138600000Y-87000000D03*
X133410000Y-66305000D03*
X148950000Y-88700000D03*
X106973000Y-87387701D03*
X148200000Y-86600000D03*
X114420000Y-67180000D03*
X119650000Y-61750000D03*
X107334000Y-88012971D03*
X141276000Y-61750808D03*
X123218000Y-104270000D03*
X141998000Y-63001349D03*
X126325000Y-74300000D03*
X115510000Y-101710000D03*
X146685000Y-94890945D03*
X134110000Y-67705000D03*
X125384000Y-104270000D03*
X143120000Y-83900000D03*
X113900000Y-99400000D03*
X124590000Y-63775000D03*
X142359000Y-63626619D03*
X116240000Y-96680000D03*
X115460000Y-68470000D03*
X117570000Y-80310000D03*
X130975000Y-104275000D03*
X143100000Y-70550000D03*
X104446000Y-83010808D03*
X110422571Y-76579945D03*
X121990000Y-68745000D03*
X144080000Y-78130000D03*
X116720000Y-104270000D03*
X150662000Y-78007837D03*
X141631000Y-103644729D03*
X144880000Y-98017296D03*
X132100000Y-83600000D03*
X133300000Y-82410000D03*
X141200000Y-72760000D03*
X145420000Y-95270000D03*
X143830000Y-94450000D03*
X105890000Y-85511890D03*
X145250000Y-68600000D03*
X106612000Y-86762430D03*
X144710000Y-94890000D03*
X126170000Y-91747982D03*
X153100000Y-83650000D03*
X139110000Y-61750808D03*
X134810000Y-63075000D03*
X135890000Y-91090000D03*
X140546000Y-104270000D03*
X115304955Y-92164248D03*
X112759000Y-68627974D03*
X149800000Y-89450000D03*
X140120000Y-81900000D03*
X123975000Y-88450000D03*
X130446000Y-61750808D03*
X147768000Y-93015134D03*
X142120000Y-81900000D03*
X151023000Y-78633107D03*
X136214000Y-104270000D03*
X115465000Y-65120000D03*
X126630000Y-65380000D03*
X121990000Y-67295000D03*
X121990000Y-65845000D03*
X119140000Y-96680000D03*
X121810000Y-102960000D03*
X140970000Y-89180000D03*
X133410000Y-63775000D03*
X135120000Y-95190000D03*
X110222000Y-93015134D03*
X149700000Y-87500000D03*
X123275000Y-88450000D03*
X130450000Y-73140000D03*
X126200000Y-104275000D03*
X123890000Y-66305000D03*
X143852429Y-70124055D03*
X120000000Y-104250000D03*
X122040000Y-100305000D03*
X134810000Y-66305000D03*
X105178000Y-81758651D03*
X124925000Y-73600000D03*
X140554000Y-61750808D03*
X144042500Y-84800000D03*
X134048000Y-104270000D03*
X141270000Y-104270000D03*
X132100000Y-85200000D03*
X113100000Y-78810000D03*
X121990000Y-69470000D03*
X145950000Y-89600000D03*
X121990000Y-62945000D03*
X115637000Y-102394189D03*
X106622000Y-79257570D03*
X150600000Y-88050000D03*
X115510000Y-99600000D03*
X149940000Y-76757296D03*
X105900000Y-80508110D03*
X121265000Y-69470000D03*
X136700000Y-79540000D03*
X119865000Y-96680000D03*
X146150000Y-86150000D03*
X143803000Y-66127701D03*
X122040000Y-99580000D03*
X131740000Y-90800000D03*
X130910000Y-81630000D03*
X118365000Y-62945000D03*
X145600000Y-69200000D03*
X130591205Y-78467982D03*
X123275000Y-87750000D03*
X136944000Y-61750808D03*
X115515000Y-101030000D03*
X136780000Y-83530000D03*
X106261000Y-79882840D03*
X115515000Y-100305000D03*
X137040000Y-80550000D03*
X121950000Y-80950000D03*
%TO.N,+3.3V*%
X134450000Y-89250000D03*
X136550000Y-89250000D03*
X128503705Y-76397982D03*
X141250000Y-76000000D03*
X150800000Y-82275000D03*
X128500000Y-73490000D03*
X134600000Y-98600000D03*
X112950000Y-75750000D03*
X127800000Y-73490000D03*
X150000000Y-82275000D03*
X129500000Y-76400000D03*
X144185000Y-86850000D03*
X112300000Y-75400000D03*
X131300000Y-86800000D03*
X140775000Y-86650000D03*
X132900000Y-83600000D03*
X151600000Y-82275000D03*
X132900000Y-84400000D03*
X132900000Y-85200000D03*
X134000000Y-98600000D03*
X136100000Y-87600000D03*
X128980000Y-76097984D03*
X134500000Y-87600000D03*
X128980000Y-76760000D03*
X129700000Y-86800000D03*
X140700000Y-75700000D03*
X152400000Y-82275000D03*
X141250000Y-75400000D03*
X140207500Y-86650000D03*
X111700000Y-75050000D03*
X143925000Y-87375000D03*
%TO.N,/HP+*%
X140569400Y-95994640D03*
%TO.N,Net-(C7-Pad1)*%
X132100000Y-82800000D03*
%TO.N,/HP-*%
X141069400Y-95128614D03*
%TO.N,Net-(C10-Pad1)*%
X132900000Y-82000000D03*
%TO.N,VBAT+*%
X124810000Y-87850000D03*
%TO.N,+5V*%
X120200000Y-77500000D03*
X114054955Y-89999184D03*
X119500000Y-78200000D03*
X115400000Y-89200000D03*
X120200000Y-78200000D03*
X120200000Y-76800000D03*
X120200000Y-78900000D03*
X119500000Y-78900000D03*
%TO.N,4.5V*%
X137950000Y-95800000D03*
X120340000Y-103730000D03*
X122600000Y-75700000D03*
X137950000Y-95250000D03*
X121200000Y-75700000D03*
X121900000Y-75700000D03*
X143800000Y-90950000D03*
X109502276Y-77962083D03*
X122075000Y-92940000D03*
X122600000Y-75000000D03*
X121590000Y-92580000D03*
X121900000Y-75000000D03*
X132500000Y-92300000D03*
X122910000Y-64440000D03*
X143150000Y-90550000D03*
%TO.N,/NRST*%
X131675000Y-74675000D03*
X129400000Y-64800000D03*
X132100000Y-87600000D03*
%TO.N,/GPIO_MOT1*%
X145100000Y-73000000D03*
X132900000Y-81200000D03*
%TO.N,/TX_MOT1*%
X134500000Y-80400000D03*
X145750000Y-74200000D03*
%TO.N,/RX_MOT1*%
X144849599Y-73849599D03*
X133700000Y-80400000D03*
%TO.N,/RX_MOT2*%
X129000000Y-101400000D03*
X134500000Y-86800000D03*
%TO.N,/TX_MOT2*%
X133700000Y-86800000D03*
X128200000Y-102050000D03*
%TO.N,/GPIO_MOT2*%
X129800000Y-102050000D03*
X136100000Y-86800000D03*
%TO.N,/GPIO_MOT3*%
X112300000Y-74200000D03*
X131300000Y-80400000D03*
%TO.N,/TX_MOT3*%
X113175000Y-72925000D03*
X132900000Y-80400000D03*
%TO.N,/RX_MOT3*%
X132100000Y-80400000D03*
X113433154Y-74016846D03*
%TO.N,/ESP32_TX*%
X141109144Y-79534697D03*
X135300000Y-81200000D03*
%TO.N,/ESP32_RX*%
X136100000Y-81200000D03*
X140516306Y-79550038D03*
%TO.N,/ACCEL_MOSI*%
X132100000Y-86000000D03*
X128650000Y-92600000D03*
%TO.N,Net-(IC5-INT2)*%
X129943705Y-92707982D03*
%TO.N,/ACCEL_MISO*%
X131300000Y-86000000D03*
X128000000Y-92600000D03*
%TO.N,Net-(IC5-INT1)*%
X130773705Y-92707982D03*
%TO.N,/ACCEL_CLK*%
X126750000Y-92626338D03*
X128900000Y-86000000D03*
%TO.N,/ACCEL_INT2*%
X129943705Y-92067982D03*
X132100000Y-86800000D03*
%TO.N,/ACCEL_INT1*%
X130773705Y-92067982D03*
X132900000Y-87600000D03*
%TO.N,/MOUSE_INT*%
X128900000Y-86800000D03*
X110300000Y-88175000D03*
%TO.N,/SWDIO*%
X127700000Y-64800000D03*
X131210000Y-76870000D03*
%TO.N,/SWCLK*%
X128500000Y-64800000D03*
X131730000Y-77330000D03*
%TO.N,/RX_LIDAR*%
X112900000Y-93200000D03*
X131300000Y-85200000D03*
%TO.N,/SDA_TOF1*%
X144250000Y-74850000D03*
X135300000Y-80400000D03*
%TO.N,/SDA_TOF3*%
X114300000Y-73900000D03*
X131700000Y-80800000D03*
%TO.N,/SCL_TOF1*%
X143750000Y-73850000D03*
X136100000Y-80400000D03*
%TO.N,/SDA_TOF2*%
X128900000Y-85200000D03*
X128500000Y-100600000D03*
%TO.N,/SDA_OLED*%
X136100000Y-82800000D03*
X145600000Y-88750000D03*
%TO.N,/LIDAR_PWM*%
X112400000Y-92450000D03*
X128900000Y-84400000D03*
%TO.N,/MOUSE_CS*%
X109087500Y-85987500D03*
X128900000Y-82000000D03*
%TO.N,/SCL_TOF2*%
X129500000Y-100550000D03*
X129700000Y-85200000D03*
%TO.N,/SCL_OLED*%
X144569400Y-89066436D03*
X135300000Y-82800000D03*
%TO.N,/SCL_TOF3*%
X113750000Y-74900000D03*
X131300000Y-81200000D03*
%TO.N,/MOUSE_MISO*%
X109100000Y-86725000D03*
X128900000Y-83600000D03*
%TO.N,/LED_TIM*%
X136100000Y-85200000D03*
X142569400Y-92530538D03*
%TO.N,/TX_SUP*%
X142069400Y-93396564D03*
X135300000Y-84400000D03*
%TO.N,/RX_SUP*%
X141569400Y-94262589D03*
X134500000Y-84400000D03*
%TO.N,Net-(IC8-~{OE})*%
X111147724Y-78912083D03*
%TO.N,Net-(U1-BOOT0)*%
X131300000Y-84400000D03*
X125130000Y-91100000D03*
X127620000Y-90000787D03*
%TO.N,Net-(IC8-Y)*%
X109000000Y-78450000D03*
X115600000Y-69420000D03*
%TO.N,Net-(LED2-DOUT)*%
X119400000Y-62450000D03*
X115040000Y-97292878D03*
%TO.N,Net-(U5-GPIO0)*%
X145800000Y-83400000D03*
%TO.N,RESET*%
X144350000Y-83800000D03*
%TO.N,/ESP32/mic_sck*%
X151525000Y-80675000D03*
%TO.N,/ESP32/mic_data*%
X146250000Y-80400000D03*
%TO.N,Net-(U5-GPIO3)*%
X144270000Y-82010000D03*
%TO.N,/ESP32/mic_frame_sck*%
X146150000Y-78850000D03*
%TO.N,/ESP32/BOOT1*%
X142850000Y-85100000D03*
%TO.N,Net-(U5-VDD_SPI)*%
X137039170Y-77950000D03*
%TO.N,/MOUSE_CLK*%
X128900000Y-82800000D03*
X109780000Y-85975000D03*
%TO.N,/MOUSE_MOSI*%
X130500000Y-84400000D03*
X109730000Y-87400000D03*
%TO.N,/ESP32/max_data*%
X144150000Y-81400000D03*
X134250000Y-92400000D03*
%TO.N,/ESP32/max_bit_clk*%
X135350000Y-91550000D03*
X145750000Y-82600000D03*
%TO.N,/RGB_TOM_JERRY*%
X109650000Y-79000000D03*
X130500000Y-81200000D03*
%TO.N,Net-(U5-GPIO45)*%
X141950000Y-85100000D03*
%TO.N,/ESP32/max_frame_clk*%
X136445361Y-91554639D03*
X144350000Y-82950000D03*
%TO.N,/ESP32/SD_FSPIQ*%
X121275000Y-79975000D03*
X143000000Y-79550000D03*
%TO.N,/ESP32/SD_FSPICLK*%
X121250000Y-80700000D03*
X143450000Y-78300000D03*
%TO.N,/ESP32/SD_FSPID*%
X128425000Y-83175000D03*
X143820000Y-79550000D03*
%TO.N,/ESP32/SD_FSPICS*%
X128450000Y-84000000D03*
X144850000Y-79050000D03*
%TO.N,/ESP32/max_gpio*%
X133600000Y-94250000D03*
X145800000Y-81400000D03*
%TO.N,Net-(MK2-LR)*%
X148800000Y-76900000D03*
%TD*%
D15*
%TO.N,GND*%
X141380000Y-80240000D02*
X139610000Y-80240000D01*
X142040000Y-84160000D02*
X139710000Y-86490000D01*
X139440000Y-84920000D02*
X139740000Y-84920000D01*
X143120000Y-83900000D02*
X143231000Y-84011000D01*
X133893701Y-90806299D02*
X134400000Y-90300000D01*
X133893701Y-91193701D02*
X133893701Y-90806299D01*
X134585000Y-90300000D02*
X135670000Y-89215000D01*
X139820000Y-84200000D02*
X139820000Y-84840000D01*
X139590000Y-87390000D02*
X135890000Y-91090000D01*
X139710000Y-86490000D02*
X139110000Y-86490000D01*
X135599000Y-81889000D02*
X135329000Y-81619000D01*
X142820000Y-82900000D02*
X142040000Y-83680000D01*
X135670000Y-88920000D02*
X136060000Y-88530000D01*
X143231000Y-85449000D02*
X141290000Y-87390000D01*
X144080000Y-78208816D02*
X143248816Y-79040000D01*
X136515000Y-92075000D02*
X140540000Y-88050000D01*
X142580000Y-79040000D02*
X141380000Y-80240000D01*
X141290000Y-87390000D02*
X139590000Y-87390000D01*
X142040000Y-83680000D02*
X142040000Y-84160000D01*
X140870000Y-82900000D02*
X140120000Y-83650000D01*
X142120000Y-81900000D02*
X141120000Y-82900000D01*
X139110000Y-86490000D02*
X138600000Y-87000000D01*
X140120000Y-83650000D02*
X140120000Y-83900000D01*
X141764088Y-88050000D02*
X142754088Y-87060000D01*
X137961000Y-81889000D02*
X135599000Y-81889000D01*
X144042500Y-85771588D02*
X144042500Y-84800000D01*
X134900000Y-92075000D02*
X136515000Y-92075000D01*
X139820000Y-84840000D02*
X139740000Y-84920000D01*
X143120000Y-82900000D02*
X142820000Y-82900000D01*
X134400000Y-90300000D02*
X134585000Y-90300000D01*
X143231000Y-84011000D02*
X143231000Y-85449000D01*
X136060000Y-88300000D02*
X139440000Y-84920000D01*
X142754088Y-87060000D02*
X144042500Y-85771588D01*
X135670000Y-89215000D02*
X135670000Y-88920000D01*
X135329000Y-81619000D02*
X131731000Y-81619000D01*
X139610000Y-80240000D02*
X137961000Y-81889000D01*
X131731000Y-81619000D02*
X131700000Y-81650000D01*
X136060000Y-88530000D02*
X136060000Y-88300000D01*
X143248816Y-79040000D02*
X142580000Y-79040000D01*
X144080000Y-78130000D02*
X144080000Y-78208816D01*
X143120000Y-81900000D02*
X142120000Y-81900000D01*
X141120000Y-82900000D02*
X140870000Y-82900000D01*
X140540000Y-88050000D02*
X141764088Y-88050000D01*
X140120000Y-83900000D02*
X139820000Y-84200000D01*
%TO.N,/NRST*%
X129370000Y-64830000D02*
X129370000Y-71020000D01*
X129370000Y-71020000D02*
X130690000Y-72340000D01*
X129400000Y-64800000D02*
X129370000Y-64830000D01*
X130690000Y-72340000D02*
X131070000Y-72340000D01*
X131675000Y-72945000D02*
X131675000Y-74675000D01*
X131070000Y-72340000D02*
X131675000Y-72945000D01*
%TO.N,/GPIO_MOT1*%
X142590000Y-73310000D02*
X142900000Y-73000000D01*
X138670000Y-73310000D02*
X142590000Y-73310000D01*
X133281000Y-80819000D02*
X133281000Y-79714000D01*
X135737500Y-77257500D02*
X135737500Y-76242500D01*
X133281000Y-79714000D02*
X135737500Y-77257500D01*
X132900000Y-81200000D02*
X133281000Y-80819000D01*
X142900000Y-73000000D02*
X145100000Y-73000000D01*
X135737500Y-76242500D02*
X138670000Y-73310000D01*
%TO.N,/TX_MOT1*%
X138690000Y-78610000D02*
X140050000Y-77250000D01*
X134500000Y-80400000D02*
X136290000Y-78610000D01*
X142700000Y-77250000D02*
X145750000Y-74200000D01*
X136290000Y-78610000D02*
X138690000Y-78610000D01*
X140050000Y-77250000D02*
X142700000Y-77250000D01*
%TO.N,/RX_MOT1*%
X144260000Y-74090000D02*
X144500401Y-73849599D01*
X144048816Y-74090000D02*
X144260000Y-74090000D01*
X143592184Y-74231000D02*
X143907816Y-74231000D01*
X139850000Y-74090000D02*
X143451184Y-74090000D01*
X133700000Y-80400000D02*
X133700000Y-80240000D01*
X143451184Y-74090000D02*
X143592184Y-74231000D01*
X144500401Y-73849599D02*
X144849599Y-73849599D01*
X133700000Y-80240000D02*
X139850000Y-74090000D01*
X143907816Y-74231000D02*
X144048816Y-74090000D01*
%TO.N,/RX_MOT2*%
X132000000Y-91100000D02*
X134900000Y-88200000D01*
X134900000Y-87200000D02*
X134500000Y-86800000D01*
X132000000Y-93530000D02*
X132000000Y-91100000D01*
X129000000Y-101400000D02*
X129000000Y-96530000D01*
X129000000Y-96530000D02*
X132000000Y-93530000D01*
X134900000Y-88200000D02*
X134900000Y-87200000D01*
%TO.N,/TX_MOT2*%
X133700000Y-86800000D02*
X134100000Y-87200000D01*
X128119000Y-101969000D02*
X128200000Y-102050000D01*
X134100000Y-87200000D02*
X134100000Y-87750000D01*
X128119000Y-96231000D02*
X128119000Y-101969000D01*
X131300000Y-93050000D02*
X128119000Y-96231000D01*
X134100000Y-87750000D02*
X131300000Y-90550000D01*
X131300000Y-90550000D02*
X131300000Y-93050000D01*
%TO.N,/GPIO_MOT2*%
X130300000Y-101550000D02*
X130300000Y-96400000D01*
X135700000Y-88270000D02*
X135700000Y-87200000D01*
X135150000Y-88820000D02*
X135700000Y-88270000D01*
X134500000Y-89750000D02*
X135150000Y-89100000D01*
X133450000Y-93250000D02*
X133450000Y-90600000D01*
X135700000Y-87200000D02*
X136100000Y-86800000D01*
X134300000Y-89750000D02*
X134500000Y-89750000D01*
X129800000Y-102050000D02*
X130300000Y-101550000D01*
X130300000Y-96400000D02*
X133450000Y-93250000D01*
X135150000Y-89100000D02*
X135150000Y-88820000D01*
X133450000Y-90600000D02*
X134300000Y-89750000D01*
%TO.N,/GPIO_MOT3*%
X124800000Y-79550000D02*
X122300000Y-77050000D01*
X121000000Y-77050000D02*
X119450000Y-75500000D01*
X129900000Y-79550000D02*
X124800000Y-79550000D01*
X122300000Y-77050000D02*
X121000000Y-77050000D01*
X131300000Y-80400000D02*
X130750000Y-80400000D01*
X113600000Y-75500000D02*
X112300000Y-74200000D01*
X119450000Y-75500000D02*
X113600000Y-75500000D01*
X130750000Y-80400000D02*
X129900000Y-79550000D01*
%TO.N,/TX_MOT3*%
X121700000Y-73150000D02*
X113400000Y-73150000D01*
X132900000Y-80000000D02*
X130450000Y-77550000D01*
X132900000Y-80400000D02*
X132900000Y-80000000D01*
X113400000Y-73150000D02*
X113175000Y-72925000D01*
X130450000Y-77550000D02*
X126100000Y-77550000D01*
X126100000Y-77550000D02*
X121700000Y-73150000D01*
%TO.N,/RX_MOT3*%
X117750000Y-74300000D02*
X118375000Y-74925000D01*
X113433154Y-74016846D02*
X113716308Y-74300000D01*
X119775000Y-74925000D02*
X121050000Y-76200000D01*
X130000000Y-78550000D02*
X131100000Y-79650000D01*
X121050000Y-76200000D02*
X123450000Y-76200000D01*
X123450000Y-76200000D02*
X125800000Y-78550000D01*
X125800000Y-78550000D02*
X130000000Y-78550000D01*
X132100000Y-80000000D02*
X132100000Y-80400000D01*
X118375000Y-74925000D02*
X119775000Y-74925000D01*
X113716308Y-74300000D02*
X117750000Y-74300000D01*
X131100000Y-79650000D02*
X131750000Y-79650000D01*
X131750000Y-79650000D02*
X132100000Y-80000000D01*
%TO.N,/ESP32_TX*%
X140860000Y-79960000D02*
X139365000Y-79960000D01*
X137744000Y-81581000D02*
X135681000Y-81581000D01*
X141100000Y-79700000D02*
X141100000Y-79720000D01*
X135681000Y-81581000D02*
X135300000Y-81200000D01*
X141109144Y-79534697D02*
X141109144Y-79690856D01*
X139365000Y-79960000D02*
X137744000Y-81581000D01*
X141109144Y-79690856D02*
X141100000Y-79700000D01*
X141100000Y-79720000D02*
X140860000Y-79960000D01*
%TO.N,/ESP32_RX*%
X140516306Y-79550038D02*
X140516268Y-79550000D01*
X140516268Y-79550000D02*
X139250000Y-79550000D01*
X137600000Y-81200000D02*
X136100000Y-81200000D01*
X139250000Y-79550000D02*
X137600000Y-81200000D01*
%TO.N,/ACCEL_MOSI*%
X132100000Y-86000000D02*
X131719000Y-86381000D01*
X131719000Y-87871000D02*
X129370000Y-90220000D01*
X129370000Y-90220000D02*
X129370000Y-91880000D01*
X129370000Y-91880000D02*
X128650000Y-92600000D01*
X131719000Y-86381000D02*
X131719000Y-87871000D01*
%TO.N,/ACCEL_MISO*%
X130900000Y-86400000D02*
X130900000Y-87570000D01*
X131300000Y-86000000D02*
X130900000Y-86400000D01*
X128660000Y-89810000D02*
X128660000Y-90910000D01*
X128660000Y-90910000D02*
X128300000Y-91270000D01*
X128300000Y-92300000D02*
X128000000Y-92600000D01*
X130900000Y-87570000D02*
X128660000Y-89810000D01*
X128300000Y-91270000D02*
X128300000Y-92300000D01*
%TO.N,/ACCEL_CLK*%
X126550000Y-88350000D02*
X126550000Y-92426338D01*
X126550000Y-92426338D02*
X126750000Y-92626338D01*
X128900000Y-86000000D02*
X126550000Y-88350000D01*
%TO.N,/ACCEL_INT2*%
X132481000Y-87181000D02*
X132481000Y-87919000D01*
X129943705Y-90456295D02*
X129943705Y-92067982D01*
X132481000Y-87919000D02*
X129943705Y-90456295D01*
X132100000Y-86800000D02*
X132481000Y-87181000D01*
%TO.N,/ACCEL_INT1*%
X132900000Y-88010000D02*
X130773705Y-90136295D01*
X130773705Y-90136295D02*
X130773705Y-92067982D01*
X132900000Y-87600000D02*
X132900000Y-88010000D01*
%TO.N,/SWDIO*%
X129030000Y-72640000D02*
X127900000Y-71510000D01*
X131210000Y-76870000D02*
X131150000Y-76810000D01*
X127900000Y-65000000D02*
X127700000Y-64800000D01*
X131150000Y-76230000D02*
X129030000Y-74110000D01*
X131150000Y-76810000D02*
X131150000Y-76230000D01*
X127900000Y-71510000D02*
X127900000Y-65000000D01*
X129030000Y-74110000D02*
X129030000Y-72640000D01*
%TO.N,/SWCLK*%
X131730000Y-77330000D02*
X131730000Y-75930000D01*
X128500000Y-71170000D02*
X128500000Y-64800000D01*
X131730000Y-75930000D02*
X129650000Y-73850000D01*
X129650000Y-73850000D02*
X129650000Y-72320000D01*
X129650000Y-72320000D02*
X128500000Y-71170000D01*
%TO.N,/RX_LIDAR*%
X130125000Y-85575000D02*
X129863816Y-85575000D01*
X130500000Y-85200000D02*
X130125000Y-85575000D01*
X129863816Y-85575000D02*
X129857816Y-85581000D01*
X116930000Y-93180000D02*
X112920000Y-93180000D01*
X129857816Y-85581000D02*
X128139000Y-85581000D01*
X131300000Y-85200000D02*
X130500000Y-85200000D01*
X112920000Y-93180000D02*
X112900000Y-93200000D01*
X124160000Y-85950000D02*
X116930000Y-93180000D01*
X127770000Y-85950000D02*
X124160000Y-85950000D01*
X128139000Y-85581000D02*
X127770000Y-85950000D01*
%TO.N,/LIDAR_PWM*%
X112400000Y-92450000D02*
X113120000Y-91730000D01*
X115050000Y-91130000D02*
X117320000Y-91130000D01*
X127620000Y-85050000D02*
X128270000Y-84400000D01*
X123400000Y-85050000D02*
X127620000Y-85050000D01*
X114450000Y-91730000D02*
X115050000Y-91130000D01*
X117320000Y-91130000D02*
X123400000Y-85050000D01*
X113120000Y-91730000D02*
X114450000Y-91730000D01*
X128270000Y-84400000D02*
X128900000Y-84400000D01*
%TO.N,Net-(U1-BOOT0)*%
X128500000Y-88010000D02*
X129250000Y-87260000D01*
X129880000Y-87260000D02*
X130090000Y-87050000D01*
X127620000Y-90000787D02*
X127620000Y-89480000D01*
X127620000Y-90000787D02*
X127610000Y-89990787D01*
X127620000Y-89480000D02*
X128500000Y-88600000D01*
X130090000Y-87050000D02*
X130090000Y-86360000D01*
X131681000Y-85357816D02*
X131681000Y-84781000D01*
X131681000Y-84781000D02*
X131300000Y-84400000D01*
X131457816Y-85581000D02*
X131681000Y-85357816D01*
X128500000Y-88600000D02*
X128500000Y-88010000D01*
X130090000Y-86360000D02*
X130869000Y-85581000D01*
X129250000Y-87260000D02*
X129880000Y-87260000D01*
X130869000Y-85581000D02*
X131457816Y-85581000D01*
%TO.N,Net-(IC8-Y)*%
X110480000Y-75970000D02*
X110480000Y-74610000D01*
X109000000Y-78450000D02*
X109000000Y-77450000D01*
X114730000Y-69420000D02*
X115600000Y-69420000D01*
X110480000Y-74610000D02*
X114730000Y-69420000D01*
X109000000Y-77450000D02*
X110480000Y-75970000D01*
%TO.N,Net-(LED2-DOUT)*%
X111650000Y-92750000D02*
X112500000Y-93600000D01*
X115874672Y-63365328D02*
X115603154Y-63365328D01*
X115040000Y-96610000D02*
X115040000Y-97292878D01*
X119350000Y-62500000D02*
X116740000Y-62500000D01*
X109250000Y-75323329D02*
X108350000Y-76223329D01*
X108350000Y-76223329D02*
X108350000Y-78800000D01*
X111300000Y-80200000D02*
X112250000Y-81150000D01*
X112500000Y-93600000D02*
X112500000Y-94070000D01*
X116740000Y-62500000D02*
X115874672Y-63365328D01*
X113820000Y-68340000D02*
X112700000Y-69460000D01*
X109750000Y-80200000D02*
X111300000Y-80200000D01*
X109250000Y-74368989D02*
X109250000Y-75323329D01*
X112250000Y-81150000D02*
X112250000Y-90800000D01*
X115603154Y-63365328D02*
X113820000Y-66453750D01*
X108350000Y-78800000D02*
X109750000Y-80200000D01*
X112500000Y-94070000D02*
X115040000Y-96610000D01*
X111650000Y-91400000D02*
X111650000Y-92750000D01*
X112250000Y-90800000D02*
X111650000Y-91400000D01*
X113820000Y-66453750D02*
X113820000Y-68340000D01*
X109250000Y-74368989D02*
X112700000Y-69460000D01*
X119400000Y-62450000D02*
X119350000Y-62500000D01*
%TO.N,/ESP32/max_data*%
X140320000Y-84960000D02*
X139435000Y-85845000D01*
X136130000Y-89370000D02*
X134274701Y-91225299D01*
X141650000Y-83100000D02*
X141450000Y-83300000D01*
X139435000Y-85845000D02*
X139095000Y-85845000D01*
X141650000Y-82800000D02*
X141650000Y-83100000D01*
X136650000Y-88540000D02*
X136130000Y-89060000D01*
X136130000Y-89060000D02*
X136130000Y-89370000D01*
X139095000Y-85845000D02*
X136650000Y-88290000D01*
X141000000Y-83300000D02*
X140650000Y-83650000D01*
X143760000Y-82090000D02*
X143450000Y-82400000D01*
X144150000Y-81400000D02*
X143760000Y-81790000D01*
X143450000Y-82400000D02*
X142050000Y-82400000D01*
X134274701Y-92375299D02*
X134250000Y-92400000D01*
X142050000Y-82400000D02*
X141650000Y-82800000D01*
X136650000Y-88290000D02*
X136650000Y-88540000D01*
X141450000Y-83300000D02*
X141000000Y-83300000D01*
X143760000Y-81790000D02*
X143760000Y-82090000D01*
X134274701Y-91225299D02*
X134274701Y-92375299D01*
X140320000Y-84430000D02*
X140320000Y-84960000D01*
X140650000Y-84100000D02*
X140320000Y-84430000D01*
X140650000Y-83650000D02*
X140650000Y-84100000D01*
%TO.N,/ESP32/max_bit_clk*%
X139335000Y-87040000D02*
X141085000Y-87040000D01*
X136600000Y-89775000D02*
X139335000Y-87040000D01*
X145719000Y-82569000D02*
X145750000Y-82600000D01*
X136425000Y-89775000D02*
X136600000Y-89775000D01*
X135350000Y-90850000D02*
X136425000Y-89775000D01*
X135350000Y-91550000D02*
X135350000Y-90850000D01*
X142425000Y-85700000D02*
X142425000Y-84336184D01*
X144031000Y-82569000D02*
X145719000Y-82569000D01*
X142650000Y-84111184D02*
X142650000Y-83550000D01*
X142650000Y-83550000D02*
X142850000Y-83350000D01*
X141085000Y-87040000D02*
X142425000Y-85700000D01*
X142425000Y-84336184D02*
X142650000Y-84111184D01*
X143250000Y-83350000D02*
X144031000Y-82569000D01*
X142850000Y-83350000D02*
X143250000Y-83350000D01*
%TO.N,/RGB_TOM_JERRY*%
X121020000Y-81400000D02*
X120530000Y-80910000D01*
X111900000Y-78400000D02*
X110250000Y-78400000D01*
X110250000Y-78400000D02*
X109650000Y-79000000D01*
X130500000Y-81200000D02*
X130300000Y-81400000D01*
X130300000Y-81400000D02*
X121020000Y-81400000D01*
X114410000Y-80910000D02*
X111900000Y-78400000D01*
X120530000Y-80910000D02*
X114410000Y-80910000D01*
%TO.N,/ESP32/max_frame_clk*%
X144350000Y-82950000D02*
X143510000Y-83790000D01*
X139950000Y-87725000D02*
X136445361Y-91229639D01*
X143510000Y-83790000D02*
X143510000Y-85665000D01*
X141450000Y-87725000D02*
X139950000Y-87725000D01*
X136445361Y-91229639D02*
X136445361Y-91554639D01*
X143510000Y-85665000D02*
X141450000Y-87725000D01*
%TO.N,/ESP32/SD_FSPID*%
X133130000Y-82800000D02*
X132690000Y-82360000D01*
X132690000Y-82360000D02*
X131780000Y-82360000D01*
X135310000Y-82150000D02*
X134660000Y-82800000D01*
X139830000Y-80520000D02*
X138200000Y-82150000D01*
X130959000Y-83181000D02*
X128431000Y-83181000D01*
X131780000Y-82360000D02*
X130959000Y-83181000D01*
X138200000Y-82150000D02*
X135310000Y-82150000D01*
X128431000Y-83181000D02*
X128425000Y-83175000D01*
X134660000Y-82800000D02*
X133130000Y-82800000D01*
X142850000Y-80520000D02*
X139830000Y-80520000D01*
X143820000Y-79550000D02*
X142850000Y-80520000D01*
%TO.N,/ESP32/SD_FSPICS*%
X141700000Y-81900000D02*
X141700000Y-81750000D01*
X143360000Y-81350000D02*
X144400000Y-80310000D01*
X144400000Y-79500000D02*
X144850000Y-79050000D01*
X139500000Y-82800000D02*
X139900000Y-82400000D01*
X139900000Y-82400000D02*
X141200000Y-82400000D01*
X128450000Y-84000000D02*
X139050000Y-84000000D01*
X139500000Y-83550000D02*
X139500000Y-82800000D01*
X141200000Y-82400000D02*
X141700000Y-81900000D01*
X144400000Y-80310000D02*
X144400000Y-79500000D01*
X139050000Y-84000000D02*
X139500000Y-83550000D01*
X141700000Y-81750000D02*
X142100000Y-81350000D01*
X142100000Y-81350000D02*
X143360000Y-81350000D01*
%TO.N,/ESP32/max_gpio*%
X142169000Y-88362500D02*
X140877500Y-88362500D01*
X142169000Y-88342184D02*
X142169000Y-88362500D01*
X143350000Y-87050000D02*
X143350000Y-87450000D01*
X142392184Y-88119000D02*
X142169000Y-88342184D01*
X133600000Y-94000000D02*
X133600000Y-94250000D01*
X147125000Y-82075000D02*
X147125000Y-83275000D01*
X147125000Y-83275000D02*
X143350000Y-87050000D01*
X140877500Y-88362500D02*
X136900000Y-92340000D01*
X143350000Y-87450000D02*
X142681000Y-88119000D01*
X134850000Y-92750000D02*
X133600000Y-94000000D01*
X142681000Y-88119000D02*
X142392184Y-88119000D01*
X146450000Y-81400000D02*
X147125000Y-82075000D01*
X136025000Y-92750000D02*
X134850000Y-92750000D01*
X136435000Y-92340000D02*
X136025000Y-92750000D01*
X136900000Y-92340000D02*
X136435000Y-92340000D01*
X145800000Y-81400000D02*
X146450000Y-81400000D01*
%TD*%
%TA.AperFunction,Conductor*%
%TO.N,GND*%
G36*
X127931497Y-87482189D02*
G01*
X128316884Y-87555597D01*
X128323457Y-87558190D01*
X128327676Y-87558157D01*
X128359896Y-87572566D01*
X128426264Y-87614483D01*
X128472433Y-87666925D01*
X128482921Y-87736003D01*
X128454398Y-87799785D01*
X128447730Y-87807004D01*
X128346978Y-87907756D01*
X128327549Y-87954658D01*
X128327550Y-87954659D01*
X128319500Y-87974096D01*
X128319500Y-88473872D01*
X128299815Y-88540911D01*
X128283181Y-88561553D01*
X127466980Y-89377753D01*
X127466978Y-89377756D01*
X127447549Y-89424658D01*
X127447550Y-89424659D01*
X127439500Y-89444096D01*
X127439500Y-89704954D01*
X127419815Y-89771993D01*
X127403181Y-89792635D01*
X127379541Y-89816274D01*
X127379535Y-89816282D01*
X127339982Y-89884791D01*
X127339979Y-89884796D01*
X127326326Y-89935749D01*
X127319500Y-89961225D01*
X127319500Y-90040349D01*
X127333152Y-90091300D01*
X127339979Y-90116777D01*
X127339982Y-90116782D01*
X127379535Y-90185291D01*
X127379539Y-90185296D01*
X127379540Y-90185298D01*
X127435489Y-90241247D01*
X127435491Y-90241248D01*
X127435495Y-90241251D01*
X127504004Y-90280804D01*
X127504011Y-90280808D01*
X127580438Y-90301287D01*
X127580440Y-90301287D01*
X127659560Y-90301287D01*
X127659562Y-90301287D01*
X127735989Y-90280808D01*
X127804511Y-90241247D01*
X127860460Y-90185298D01*
X127900021Y-90116776D01*
X127920500Y-90040349D01*
X127920500Y-89961225D01*
X127900021Y-89884798D01*
X127900002Y-89884765D01*
X127860464Y-89816282D01*
X127860458Y-89816274D01*
X127836819Y-89792635D01*
X127822115Y-89765707D01*
X127805523Y-89739889D01*
X127804631Y-89733688D01*
X127803334Y-89731312D01*
X127800500Y-89704954D01*
X127800500Y-89606128D01*
X127820185Y-89539089D01*
X127836819Y-89518447D01*
X127977513Y-89377753D01*
X128653021Y-88702245D01*
X128680500Y-88635903D01*
X128680500Y-88564097D01*
X128680500Y-88136127D01*
X128689144Y-88106686D01*
X128695668Y-88076700D01*
X128699422Y-88071684D01*
X128700185Y-88069088D01*
X128716814Y-88048451D01*
X128827859Y-87937406D01*
X128889180Y-87903923D01*
X128958872Y-87908907D01*
X128966836Y-87912198D01*
X129311994Y-88069088D01*
X129344510Y-88083868D01*
X129397395Y-88129529D01*
X129399874Y-88133537D01*
X129604309Y-88478521D01*
X129621552Y-88546230D01*
X129599451Y-88612512D01*
X129585314Y-88629418D01*
X128506980Y-89707753D01*
X128506978Y-89707756D01*
X128487549Y-89754658D01*
X128487550Y-89754659D01*
X128479500Y-89774096D01*
X128479500Y-90652978D01*
X128475583Y-90683898D01*
X128430192Y-90860181D01*
X128397791Y-90916942D01*
X128146978Y-91167756D01*
X128127549Y-91214658D01*
X128127550Y-91214659D01*
X128119500Y-91234096D01*
X128119500Y-91895748D01*
X128099815Y-91962787D01*
X128047011Y-92008542D01*
X128000945Y-92019628D01*
X127332632Y-92049005D01*
X127288480Y-92042929D01*
X126815793Y-91887616D01*
X126758248Y-91847988D01*
X126731262Y-91783540D01*
X126730500Y-91769812D01*
X126730500Y-88476128D01*
X126750185Y-88409089D01*
X126766819Y-88388447D01*
X127638947Y-87516319D01*
X127700270Y-87482834D01*
X127726628Y-87480000D01*
X127908296Y-87480000D01*
X127931497Y-87482189D01*
G37*
%TD.AperFunction*%
%TD*%
%TA.AperFunction,Conductor*%
%TO.N,GND*%
G36*
X143320500Y-80456013D02*
G01*
X143332966Y-80460847D01*
X143342892Y-80461189D01*
X143374474Y-80476944D01*
X143469033Y-80542408D01*
X143489101Y-80559752D01*
X143590493Y-80668385D01*
X143621845Y-80730826D01*
X143623448Y-80743107D01*
X143625413Y-80767676D01*
X143611136Y-80836072D01*
X143589490Y-80865243D01*
X143495194Y-80959540D01*
X143321551Y-81133182D01*
X143260231Y-81166666D01*
X143233872Y-81169500D01*
X142064095Y-81169500D01*
X141997755Y-81196980D01*
X141997753Y-81196981D01*
X141546981Y-81647752D01*
X141546977Y-81647758D01*
X141532278Y-81683246D01*
X141519500Y-81714092D01*
X141519500Y-81773871D01*
X141499815Y-81840910D01*
X141483181Y-81861552D01*
X141177643Y-82167089D01*
X141156539Y-82184019D01*
X141131254Y-82200111D01*
X141064677Y-82219500D01*
X139864095Y-82219500D01*
X139807315Y-82243020D01*
X139807314Y-82243019D01*
X139797755Y-82246979D01*
X139797752Y-82246981D01*
X139346980Y-82697752D01*
X139346979Y-82697754D01*
X139327549Y-82744658D01*
X139327550Y-82744659D01*
X139319500Y-82764096D01*
X139319500Y-83376783D01*
X139318913Y-83380310D01*
X139319381Y-83382204D01*
X139312836Y-83416886D01*
X139288386Y-83488423D01*
X139258731Y-83536001D01*
X139070704Y-83724028D01*
X139045504Y-83743455D01*
X138993105Y-83774022D01*
X138952208Y-83797879D01*
X138944101Y-83802608D01*
X138881620Y-83819500D01*
X133313885Y-83819500D01*
X133246846Y-83799815D01*
X133201091Y-83747011D01*
X133191147Y-83677853D01*
X133194108Y-83663413D01*
X133200500Y-83639562D01*
X133200500Y-83560438D01*
X133180021Y-83484011D01*
X133141267Y-83416886D01*
X133140464Y-83415495D01*
X133140458Y-83415487D01*
X133084512Y-83359541D01*
X133084504Y-83359535D01*
X133015995Y-83319982D01*
X133015990Y-83319979D01*
X132990513Y-83313152D01*
X132939562Y-83299500D01*
X132860438Y-83299500D01*
X132822224Y-83309739D01*
X132784009Y-83319979D01*
X132784004Y-83319982D01*
X132715495Y-83359535D01*
X132715491Y-83359538D01*
X132659539Y-83415489D01*
X132641065Y-83447487D01*
X132598461Y-83491217D01*
X132565959Y-83511130D01*
X132565956Y-83511133D01*
X132361173Y-83772057D01*
X132304298Y-83812641D01*
X132263628Y-83819500D01*
X131977444Y-83819500D01*
X131975697Y-83818987D01*
X131973939Y-83819450D01*
X131942306Y-83809182D01*
X131910405Y-83799815D01*
X131908663Y-83798262D01*
X131907483Y-83797879D01*
X131881473Y-83774022D01*
X131806938Y-83682924D01*
X131779721Y-83618573D01*
X131778947Y-83607470D01*
X131772460Y-83345347D01*
X131790480Y-83277843D01*
X131842136Y-83230796D01*
X131866516Y-83221941D01*
X132783058Y-82994209D01*
X132817442Y-82990632D01*
X135006004Y-83070000D01*
X135006016Y-83070000D01*
X135135153Y-83070000D01*
X135176099Y-83078144D01*
X135176161Y-83077917D01*
X135179634Y-83078847D01*
X135182602Y-83079438D01*
X135184003Y-83080018D01*
X135184008Y-83080019D01*
X135184011Y-83080021D01*
X135260438Y-83100500D01*
X135260440Y-83100500D01*
X135339560Y-83100500D01*
X135339562Y-83100500D01*
X135415989Y-83080021D01*
X135415992Y-83080018D01*
X135415996Y-83080018D01*
X135417398Y-83079438D01*
X135420365Y-83078847D01*
X135423839Y-83077917D01*
X135423900Y-83078144D01*
X135464847Y-83070000D01*
X135935153Y-83070000D01*
X135976099Y-83078144D01*
X135976161Y-83077917D01*
X135979634Y-83078847D01*
X135982602Y-83079438D01*
X135984003Y-83080018D01*
X135984008Y-83080019D01*
X135984011Y-83080021D01*
X136060438Y-83100500D01*
X136060440Y-83100500D01*
X136139560Y-83100500D01*
X136139562Y-83100500D01*
X136215989Y-83080021D01*
X136233346Y-83070000D01*
X136284979Y-83070000D01*
X136315173Y-83009797D01*
X136340460Y-82984511D01*
X136380021Y-82915989D01*
X136397167Y-82851997D01*
X136406095Y-82828518D01*
X136621569Y-82398906D01*
X136669220Y-82347808D01*
X136732409Y-82330500D01*
X138235904Y-82330500D01*
X138255334Y-82322451D01*
X138302245Y-82303021D01*
X139868447Y-80736819D01*
X139929770Y-80703334D01*
X139956128Y-80700500D01*
X142885904Y-80700500D01*
X142905334Y-80692451D01*
X142952245Y-80673021D01*
X143143836Y-80481429D01*
X143205153Y-80447948D01*
X143248111Y-80446231D01*
X143320500Y-80456013D01*
G37*
%TD.AperFunction*%
%TD*%
M02*
