%TF.GenerationSoftware,KiCad,Pcbnew,9.0.5*%
%TF.CreationDate,2025-10-19T17:26:29+02:00*%
%TF.ProjectId,PCB_PAPI,5043425f-5041-4504-992e-6b696361645f,rev?*%
%TF.SameCoordinates,Original*%
%TF.FileFunction,Other,ECO1*%
%FSLAX46Y46*%
G04 Gerber Fmt 4.6, Leading zero omitted, Abs format (unit mm)*
G04 Created by KiCad (PCBNEW 9.0.5) date 2025-10-19 17:26:29*
%MOMM*%
%LPD*%
G01*
G04 APERTURE LIST*
%ADD10C,1.250000*%
%ADD11C,0.100000*%
G04 APERTURE END LIST*
D10*
X79031891Y-40061470D02*
X78555701Y-39823375D01*
X78555701Y-39823375D02*
X77841415Y-39823375D01*
X77841415Y-39823375D02*
X77127129Y-40061470D01*
X77127129Y-40061470D02*
X76650939Y-40537660D01*
X76650939Y-40537660D02*
X76412844Y-41013851D01*
X76412844Y-41013851D02*
X76174748Y-41966232D01*
X76174748Y-41966232D02*
X76174748Y-42680518D01*
X76174748Y-42680518D02*
X76412844Y-43632899D01*
X76412844Y-43632899D02*
X76650939Y-44109089D01*
X76650939Y-44109089D02*
X77127129Y-44585280D01*
X77127129Y-44585280D02*
X77841415Y-44823375D01*
X77841415Y-44823375D02*
X78317606Y-44823375D01*
X78317606Y-44823375D02*
X79031891Y-44585280D01*
X79031891Y-44585280D02*
X79269987Y-44347184D01*
X79269987Y-44347184D02*
X79269987Y-42680518D01*
X79269987Y-42680518D02*
X78317606Y-42680518D01*
X84269987Y-44823375D02*
X82603320Y-42442422D01*
X81412844Y-44823375D02*
X81412844Y-39823375D01*
X81412844Y-39823375D02*
X83317606Y-39823375D01*
X83317606Y-39823375D02*
X83793796Y-40061470D01*
X83793796Y-40061470D02*
X84031891Y-40299565D01*
X84031891Y-40299565D02*
X84269987Y-40775756D01*
X84269987Y-40775756D02*
X84269987Y-41490041D01*
X84269987Y-41490041D02*
X84031891Y-41966232D01*
X84031891Y-41966232D02*
X83793796Y-42204327D01*
X83793796Y-42204327D02*
X83317606Y-42442422D01*
X83317606Y-42442422D02*
X81412844Y-42442422D01*
X86412844Y-42204327D02*
X88079510Y-42204327D01*
X88793796Y-44823375D02*
X86412844Y-44823375D01*
X86412844Y-44823375D02*
X86412844Y-39823375D01*
X86412844Y-39823375D02*
X88793796Y-39823375D01*
X90936654Y-42204327D02*
X92603320Y-42204327D01*
X93317606Y-44823375D02*
X90936654Y-44823375D01*
X90936654Y-44823375D02*
X90936654Y-39823375D01*
X90936654Y-39823375D02*
X93317606Y-39823375D01*
X95460464Y-44823375D02*
X95460464Y-39823375D01*
X95460464Y-39823375D02*
X98317607Y-44823375D01*
X98317607Y-44823375D02*
X98317607Y-39823375D01*
X106889035Y-44823375D02*
X104508083Y-44823375D01*
X104508083Y-44823375D02*
X104508083Y-39823375D01*
X108555702Y-44823375D02*
X108555702Y-39823375D01*
X110936654Y-44823375D02*
X110936654Y-39823375D01*
X110936654Y-39823375D02*
X113793797Y-44823375D01*
X113793797Y-44823375D02*
X113793797Y-39823375D01*
X116174749Y-42204327D02*
X117841415Y-42204327D01*
X118555701Y-44823375D02*
X116174749Y-44823375D01*
X116174749Y-44823375D02*
X116174749Y-39823375D01*
X116174749Y-39823375D02*
X118555701Y-39823375D01*
X125460464Y-39823375D02*
X126412845Y-39823375D01*
X126412845Y-39823375D02*
X126889035Y-40061470D01*
X126889035Y-40061470D02*
X127365226Y-40537660D01*
X127365226Y-40537660D02*
X127603321Y-41490041D01*
X127603321Y-41490041D02*
X127603321Y-43156708D01*
X127603321Y-43156708D02*
X127365226Y-44109089D01*
X127365226Y-44109089D02*
X126889035Y-44585280D01*
X126889035Y-44585280D02*
X126412845Y-44823375D01*
X126412845Y-44823375D02*
X125460464Y-44823375D01*
X125460464Y-44823375D02*
X124984273Y-44585280D01*
X124984273Y-44585280D02*
X124508083Y-44109089D01*
X124508083Y-44109089D02*
X124269987Y-43156708D01*
X124269987Y-43156708D02*
X124269987Y-41490041D01*
X124269987Y-41490041D02*
X124508083Y-40537660D01*
X124508083Y-40537660D02*
X124984273Y-40061470D01*
X124984273Y-40061470D02*
X125460464Y-39823375D01*
X129746178Y-44823375D02*
X129746178Y-39823375D01*
X129746178Y-39823375D02*
X132603321Y-44823375D01*
X132603321Y-44823375D02*
X132603321Y-39823375D01*
X138793797Y-39823375D02*
X138793797Y-43870994D01*
X138793797Y-43870994D02*
X139031892Y-44347184D01*
X139031892Y-44347184D02*
X139269987Y-44585280D01*
X139269987Y-44585280D02*
X139746178Y-44823375D01*
X139746178Y-44823375D02*
X140698559Y-44823375D01*
X140698559Y-44823375D02*
X141174749Y-44585280D01*
X141174749Y-44585280D02*
X141412844Y-44347184D01*
X141412844Y-44347184D02*
X141650940Y-43870994D01*
X141650940Y-43870994D02*
X141650940Y-39823375D01*
X143793796Y-44585280D02*
X144508082Y-44823375D01*
X144508082Y-44823375D02*
X145698558Y-44823375D01*
X145698558Y-44823375D02*
X146174749Y-44585280D01*
X146174749Y-44585280D02*
X146412844Y-44347184D01*
X146412844Y-44347184D02*
X146650939Y-43870994D01*
X146650939Y-43870994D02*
X146650939Y-43394803D01*
X146650939Y-43394803D02*
X146412844Y-42918613D01*
X146412844Y-42918613D02*
X146174749Y-42680518D01*
X146174749Y-42680518D02*
X145698558Y-42442422D01*
X145698558Y-42442422D02*
X144746177Y-42204327D01*
X144746177Y-42204327D02*
X144269987Y-41966232D01*
X144269987Y-41966232D02*
X144031892Y-41728137D01*
X144031892Y-41728137D02*
X143793796Y-41251946D01*
X143793796Y-41251946D02*
X143793796Y-40775756D01*
X143793796Y-40775756D02*
X144031892Y-40299565D01*
X144031892Y-40299565D02*
X144269987Y-40061470D01*
X144269987Y-40061470D02*
X144746177Y-39823375D01*
X144746177Y-39823375D02*
X145936654Y-39823375D01*
X145936654Y-39823375D02*
X146650939Y-40061470D01*
X148793797Y-42204327D02*
X150460463Y-42204327D01*
X151174749Y-44823375D02*
X148793797Y-44823375D01*
X148793797Y-44823375D02*
X148793797Y-39823375D01*
X148793797Y-39823375D02*
X151174749Y-39823375D01*
X156174750Y-44823375D02*
X154508083Y-42442422D01*
X153317607Y-44823375D02*
X153317607Y-39823375D01*
X153317607Y-39823375D02*
X155222369Y-39823375D01*
X155222369Y-39823375D02*
X155698559Y-40061470D01*
X155698559Y-40061470D02*
X155936654Y-40299565D01*
X155936654Y-40299565D02*
X156174750Y-40775756D01*
X156174750Y-40775756D02*
X156174750Y-41490041D01*
X156174750Y-41490041D02*
X155936654Y-41966232D01*
X155936654Y-41966232D02*
X155698559Y-42204327D01*
X155698559Y-42204327D02*
X155222369Y-42442422D01*
X155222369Y-42442422D02*
X153317607Y-42442422D01*
X158317607Y-44347184D02*
X158555702Y-44585280D01*
X158555702Y-44585280D02*
X158317607Y-44823375D01*
X158317607Y-44823375D02*
X158079511Y-44585280D01*
X158079511Y-44585280D02*
X158317607Y-44347184D01*
X158317607Y-44347184D02*
X158317607Y-44823375D01*
X160698559Y-42204327D02*
X162365225Y-42204327D01*
X163079511Y-44823375D02*
X160698559Y-44823375D01*
X160698559Y-44823375D02*
X160698559Y-39823375D01*
X160698559Y-39823375D02*
X163079511Y-39823375D01*
X168079512Y-44347184D02*
X167841416Y-44585280D01*
X167841416Y-44585280D02*
X167127131Y-44823375D01*
X167127131Y-44823375D02*
X166650940Y-44823375D01*
X166650940Y-44823375D02*
X165936654Y-44585280D01*
X165936654Y-44585280D02*
X165460464Y-44109089D01*
X165460464Y-44109089D02*
X165222369Y-43632899D01*
X165222369Y-43632899D02*
X164984273Y-42680518D01*
X164984273Y-42680518D02*
X164984273Y-41966232D01*
X164984273Y-41966232D02*
X165222369Y-41013851D01*
X165222369Y-41013851D02*
X165460464Y-40537660D01*
X165460464Y-40537660D02*
X165936654Y-40061470D01*
X165936654Y-40061470D02*
X166650940Y-39823375D01*
X166650940Y-39823375D02*
X167127131Y-39823375D01*
X167127131Y-39823375D02*
X167841416Y-40061470D01*
X167841416Y-40061470D02*
X168079512Y-40299565D01*
X171174750Y-39823375D02*
X172127131Y-39823375D01*
X172127131Y-39823375D02*
X172603321Y-40061470D01*
X172603321Y-40061470D02*
X173079512Y-40537660D01*
X173079512Y-40537660D02*
X173317607Y-41490041D01*
X173317607Y-41490041D02*
X173317607Y-43156708D01*
X173317607Y-43156708D02*
X173079512Y-44109089D01*
X173079512Y-44109089D02*
X172603321Y-44585280D01*
X172603321Y-44585280D02*
X172127131Y-44823375D01*
X172127131Y-44823375D02*
X171174750Y-44823375D01*
X171174750Y-44823375D02*
X170698559Y-44585280D01*
X170698559Y-44585280D02*
X170222369Y-44109089D01*
X170222369Y-44109089D02*
X169984273Y-43156708D01*
X169984273Y-43156708D02*
X169984273Y-41490041D01*
X169984273Y-41490041D02*
X170222369Y-40537660D01*
X170222369Y-40537660D02*
X170698559Y-40061470D01*
X170698559Y-40061470D02*
X171174750Y-39823375D01*
X178079511Y-44823375D02*
X175222368Y-44823375D01*
X176650940Y-44823375D02*
X176650940Y-39823375D01*
X176650940Y-39823375D02*
X176174749Y-40537660D01*
X176174749Y-40537660D02*
X175698559Y-41013851D01*
X175698559Y-41013851D02*
X175222368Y-41251946D01*
X76412844Y-52873095D02*
X76412844Y-47873095D01*
X76412844Y-47873095D02*
X79269987Y-52873095D01*
X79269987Y-52873095D02*
X79269987Y-47873095D01*
X81650939Y-50254047D02*
X83317605Y-50254047D01*
X84031891Y-52873095D02*
X81650939Y-52873095D01*
X81650939Y-52873095D02*
X81650939Y-47873095D01*
X81650939Y-47873095D02*
X84031891Y-47873095D01*
X86174749Y-50254047D02*
X87841415Y-50254047D01*
X88555701Y-52873095D02*
X86174749Y-52873095D01*
X86174749Y-52873095D02*
X86174749Y-47873095D01*
X86174749Y-47873095D02*
X88555701Y-47873095D01*
X90698559Y-52873095D02*
X90698559Y-47873095D01*
X90698559Y-47873095D02*
X91889035Y-47873095D01*
X91889035Y-47873095D02*
X92603321Y-48111190D01*
X92603321Y-48111190D02*
X93079511Y-48587380D01*
X93079511Y-48587380D02*
X93317606Y-49063571D01*
X93317606Y-49063571D02*
X93555702Y-50015952D01*
X93555702Y-50015952D02*
X93555702Y-50730238D01*
X93555702Y-50730238D02*
X93317606Y-51682619D01*
X93317606Y-51682619D02*
X93079511Y-52158809D01*
X93079511Y-52158809D02*
X92603321Y-52635000D01*
X92603321Y-52635000D02*
X91889035Y-52873095D01*
X91889035Y-52873095D02*
X90698559Y-52873095D01*
X98793797Y-47873095D02*
X101650940Y-47873095D01*
X100222368Y-52873095D02*
X100222368Y-47873095D01*
X104269988Y-47873095D02*
X105222369Y-47873095D01*
X105222369Y-47873095D02*
X105698559Y-48111190D01*
X105698559Y-48111190D02*
X106174750Y-48587380D01*
X106174750Y-48587380D02*
X106412845Y-49539761D01*
X106412845Y-49539761D02*
X106412845Y-51206428D01*
X106412845Y-51206428D02*
X106174750Y-52158809D01*
X106174750Y-52158809D02*
X105698559Y-52635000D01*
X105698559Y-52635000D02*
X105222369Y-52873095D01*
X105222369Y-52873095D02*
X104269988Y-52873095D01*
X104269988Y-52873095D02*
X103793797Y-52635000D01*
X103793797Y-52635000D02*
X103317607Y-52158809D01*
X103317607Y-52158809D02*
X103079511Y-51206428D01*
X103079511Y-51206428D02*
X103079511Y-49539761D01*
X103079511Y-49539761D02*
X103317607Y-48587380D01*
X103317607Y-48587380D02*
X103793797Y-48111190D01*
X103793797Y-48111190D02*
X104269988Y-47873095D01*
X114031892Y-50254047D02*
X114746178Y-50492142D01*
X114746178Y-50492142D02*
X114984273Y-50730238D01*
X114984273Y-50730238D02*
X115222369Y-51206428D01*
X115222369Y-51206428D02*
X115222369Y-51920714D01*
X115222369Y-51920714D02*
X114984273Y-52396904D01*
X114984273Y-52396904D02*
X114746178Y-52635000D01*
X114746178Y-52635000D02*
X114269988Y-52873095D01*
X114269988Y-52873095D02*
X112365226Y-52873095D01*
X112365226Y-52873095D02*
X112365226Y-47873095D01*
X112365226Y-47873095D02*
X114031892Y-47873095D01*
X114031892Y-47873095D02*
X114508083Y-48111190D01*
X114508083Y-48111190D02*
X114746178Y-48349285D01*
X114746178Y-48349285D02*
X114984273Y-48825476D01*
X114984273Y-48825476D02*
X114984273Y-49301666D01*
X114984273Y-49301666D02*
X114746178Y-49777857D01*
X114746178Y-49777857D02*
X114508083Y-50015952D01*
X114508083Y-50015952D02*
X114031892Y-50254047D01*
X114031892Y-50254047D02*
X112365226Y-50254047D01*
X117365226Y-50254047D02*
X119031892Y-50254047D01*
X119746178Y-52873095D02*
X117365226Y-52873095D01*
X117365226Y-52873095D02*
X117365226Y-47873095D01*
X117365226Y-47873095D02*
X119746178Y-47873095D01*
X124984274Y-47873095D02*
X126650941Y-52873095D01*
X126650941Y-52873095D02*
X128317607Y-47873095D01*
X136650941Y-52396904D02*
X136412845Y-52635000D01*
X136412845Y-52635000D02*
X135698560Y-52873095D01*
X135698560Y-52873095D02*
X135222369Y-52873095D01*
X135222369Y-52873095D02*
X134508083Y-52635000D01*
X134508083Y-52635000D02*
X134031893Y-52158809D01*
X134031893Y-52158809D02*
X133793798Y-51682619D01*
X133793798Y-51682619D02*
X133555702Y-50730238D01*
X133555702Y-50730238D02*
X133555702Y-50015952D01*
X133555702Y-50015952D02*
X133793798Y-49063571D01*
X133793798Y-49063571D02*
X134031893Y-48587380D01*
X134031893Y-48587380D02*
X134508083Y-48111190D01*
X134508083Y-48111190D02*
X135222369Y-47873095D01*
X135222369Y-47873095D02*
X135698560Y-47873095D01*
X135698560Y-47873095D02*
X136412845Y-48111190D01*
X136412845Y-48111190D02*
X136650941Y-48349285D01*
X138793798Y-47873095D02*
X138793798Y-51920714D01*
X138793798Y-51920714D02*
X139031893Y-52396904D01*
X139031893Y-52396904D02*
X139269988Y-52635000D01*
X139269988Y-52635000D02*
X139746179Y-52873095D01*
X139746179Y-52873095D02*
X140698560Y-52873095D01*
X140698560Y-52873095D02*
X141174750Y-52635000D01*
X141174750Y-52635000D02*
X141412845Y-52396904D01*
X141412845Y-52396904D02*
X141650941Y-51920714D01*
X141650941Y-51920714D02*
X141650941Y-47873095D01*
X143317607Y-47873095D02*
X146174750Y-47873095D01*
X144746178Y-52873095D02*
X144746178Y-47873095D01*
X151412845Y-52635000D02*
X152127131Y-52873095D01*
X152127131Y-52873095D02*
X153317607Y-52873095D01*
X153317607Y-52873095D02*
X153793798Y-52635000D01*
X153793798Y-52635000D02*
X154031893Y-52396904D01*
X154031893Y-52396904D02*
X154269988Y-51920714D01*
X154269988Y-51920714D02*
X154269988Y-51444523D01*
X154269988Y-51444523D02*
X154031893Y-50968333D01*
X154031893Y-50968333D02*
X153793798Y-50730238D01*
X153793798Y-50730238D02*
X153317607Y-50492142D01*
X153317607Y-50492142D02*
X152365226Y-50254047D01*
X152365226Y-50254047D02*
X151889036Y-50015952D01*
X151889036Y-50015952D02*
X151650941Y-49777857D01*
X151650941Y-49777857D02*
X151412845Y-49301666D01*
X151412845Y-49301666D02*
X151412845Y-48825476D01*
X151412845Y-48825476D02*
X151650941Y-48349285D01*
X151650941Y-48349285D02*
X151889036Y-48111190D01*
X151889036Y-48111190D02*
X152365226Y-47873095D01*
X152365226Y-47873095D02*
X153555703Y-47873095D01*
X153555703Y-47873095D02*
X154269988Y-48111190D01*
X159269989Y-52396904D02*
X159031893Y-52635000D01*
X159031893Y-52635000D02*
X158317608Y-52873095D01*
X158317608Y-52873095D02*
X157841417Y-52873095D01*
X157841417Y-52873095D02*
X157127131Y-52635000D01*
X157127131Y-52635000D02*
X156650941Y-52158809D01*
X156650941Y-52158809D02*
X156412846Y-51682619D01*
X156412846Y-51682619D02*
X156174750Y-50730238D01*
X156174750Y-50730238D02*
X156174750Y-50015952D01*
X156174750Y-50015952D02*
X156412846Y-49063571D01*
X156412846Y-49063571D02*
X156650941Y-48587380D01*
X156650941Y-48587380D02*
X157127131Y-48111190D01*
X157127131Y-48111190D02*
X157841417Y-47873095D01*
X157841417Y-47873095D02*
X158317608Y-47873095D01*
X158317608Y-47873095D02*
X159031893Y-48111190D01*
X159031893Y-48111190D02*
X159269989Y-48349285D01*
X162365227Y-47873095D02*
X163317608Y-47873095D01*
X163317608Y-47873095D02*
X163793798Y-48111190D01*
X163793798Y-48111190D02*
X164269989Y-48587380D01*
X164269989Y-48587380D02*
X164508084Y-49539761D01*
X164508084Y-49539761D02*
X164508084Y-51206428D01*
X164508084Y-51206428D02*
X164269989Y-52158809D01*
X164269989Y-52158809D02*
X163793798Y-52635000D01*
X163793798Y-52635000D02*
X163317608Y-52873095D01*
X163317608Y-52873095D02*
X162365227Y-52873095D01*
X162365227Y-52873095D02*
X161889036Y-52635000D01*
X161889036Y-52635000D02*
X161412846Y-52158809D01*
X161412846Y-52158809D02*
X161174750Y-51206428D01*
X161174750Y-51206428D02*
X161174750Y-49539761D01*
X161174750Y-49539761D02*
X161412846Y-48587380D01*
X161412846Y-48587380D02*
X161889036Y-48111190D01*
X161889036Y-48111190D02*
X162365227Y-47873095D01*
X169508084Y-52873095D02*
X167841417Y-50492142D01*
X166650941Y-52873095D02*
X166650941Y-47873095D01*
X166650941Y-47873095D02*
X168555703Y-47873095D01*
X168555703Y-47873095D02*
X169031893Y-48111190D01*
X169031893Y-48111190D02*
X169269988Y-48349285D01*
X169269988Y-48349285D02*
X169508084Y-48825476D01*
X169508084Y-48825476D02*
X169508084Y-49539761D01*
X169508084Y-49539761D02*
X169269988Y-50015952D01*
X169269988Y-50015952D02*
X169031893Y-50254047D01*
X169031893Y-50254047D02*
X168555703Y-50492142D01*
X168555703Y-50492142D02*
X166650941Y-50492142D01*
X171650941Y-50254047D02*
X173317607Y-50254047D01*
X174031893Y-52873095D02*
X171650941Y-52873095D01*
X171650941Y-52873095D02*
X171650941Y-47873095D01*
X171650941Y-47873095D02*
X174031893Y-47873095D01*
D11*
X116500000Y-105000000D02*
X141500000Y-105000000D01*
X116500000Y-61000000D02*
X141500000Y-61000000D01*
M02*
