M48
; DRILL file {KiCad 9.0.5} date 2025-10-20T13:37:45+0200
; FORMAT={-:-/ absolute / metric / decimal}
; #@! TF.CreationDate,2025-10-20T13:37:45+02:00
; #@! TF.GenerationSoftware,Kicad,Pcbnew,9.0.5
; #@! TF.FileFunction,Plated,1,8,PTH
FMAT,2
METRIC
; #@! TA.AperFunction,Plated,PTH,ViaDrill
T1C0.300
; #@! TA.AperFunction,Plated,PTH,ComponentDrill
T2C0.500
; #@! TA.AperFunction,Plated,PTH,ComponentDrill
T3C1.000
; #@! TA.AperFunction,Plated,PTH,ComponentDrill
T4C1.700
; #@! TA.AperFunction,Plated,PTH,ComponentDrill
T5C2.500
%
G90
G05
T1
X104.446Y-83.011
X104.807Y-83.636
X104.817Y-82.384
X105.168Y-84.261
X105.178Y-81.759
X105.529Y-84.887
X105.539Y-81.133
X105.89Y-85.512
X105.9Y-80.508
X106.251Y-86.137
X106.261Y-79.883
X106.612Y-86.762
X106.622Y-79.258
X106.973Y-87.388
X106.983Y-78.632
X107.334Y-88.013
X107.344Y-78.007
X107.695Y-88.638
X108.056Y-89.264
X108.13Y-79.86
X108.417Y-89.889
X108.778Y-90.514
X109.0Y-78.45
X109.087Y-85.987
X109.1Y-86.725
X109.139Y-91.139
X109.5Y-91.765
X109.502Y-77.962
X109.6Y-76.1
X109.64Y-74.76
X109.65Y-79.0
X109.73Y-87.4
X109.78Y-85.975
X109.861Y-92.39
X110.222Y-93.015
X110.229Y-90.072
X110.3Y-88.175
X110.423Y-76.58
X110.944Y-94.266
X111.148Y-78.912
X111.15Y-76.95
X111.305Y-94.891
X111.666Y-95.516
X111.7Y-75.05
X111.8Y-79.2
X111.81Y-93.83
X112.23Y-91.61
X112.3Y-74.2
X112.3Y-75.4
X112.388Y-96.767
X112.4Y-92.45
X112.45Y-76.48
X112.749Y-97.392
X112.759Y-68.628
X112.9Y-93.2
X112.95Y-75.75
X113.1Y-78.81
X113.11Y-98.017
X113.12Y-68.003
X113.175Y-72.925
X113.29Y-94.25
X113.33Y-91.32
X113.433Y-74.017
X113.5Y-69.75
X113.5Y-98.7
X113.75Y-74.9
X113.9Y-99.4
X113.954Y-96.524
X114.055Y-89.999
X114.222Y-68.913
X114.3Y-73.9
X114.3Y-100.1
X114.42Y-67.18
X114.48Y-68.04
X114.75Y-100.85
X115.04Y-97.293
X115.305Y-92.164
X115.4Y-89.2
X115.46Y-68.47
X115.465Y-64.395
X115.465Y-65.12
X115.465Y-65.845
X115.465Y-67.3
X115.51Y-99.6
X115.51Y-101.71
X115.515Y-96.68
X115.515Y-98.855
X115.515Y-100.305
X115.515Y-101.03
X115.58Y-81.76
X115.6Y-69.42
X115.637Y-102.394
X115.998Y-103.019
X116.24Y-96.68
X116.359Y-103.645
X116.44Y-69.48
X116.72Y-104.27
X116.73Y-61.75
X116.915Y-62.945
X116.965Y-103.205
X117.442Y-104.27
X117.45Y-61.751
X117.57Y-80.31
X117.64Y-62.945
X117.64Y-69.47
X117.69Y-96.68
X117.69Y-103.205
X118.164Y-104.27
X118.172Y-61.751
X118.365Y-62.945
X118.365Y-69.47
X118.415Y-96.68
X118.415Y-103.205
X118.75Y-72.6
X118.886Y-104.27
X118.9Y-61.75
X119.09Y-62.945
X119.09Y-69.47
X119.14Y-96.68
X119.16Y-103.21
X119.4Y-62.45
X119.5Y-78.2
X119.5Y-78.9
X119.65Y-61.75
X119.815Y-62.945
X119.815Y-69.47
X119.865Y-96.68
X120.0Y-104.25
X120.2Y-76.8
X120.2Y-77.5
X120.2Y-78.2
X120.2Y-78.9
X120.338Y-61.751
X120.34Y-103.73
X120.54Y-69.47
X120.59Y-96.68
X121.04Y-103.21
X121.052Y-104.27
X121.06Y-61.751
X121.2Y-75.7
X121.25Y-80.7
X121.265Y-62.945
X121.265Y-69.47
X121.275Y-79.975
X121.52Y-97.15
X121.59Y-92.58
X121.774Y-104.27
X121.782Y-61.751
X121.81Y-102.96
X121.9Y-75.0
X121.9Y-75.7
X121.95Y-80.1
X121.95Y-80.95
X121.95Y-81.8
X121.99Y-62.945
X121.99Y-63.67
X121.99Y-65.12
X121.99Y-65.845
X121.99Y-66.57
X121.99Y-67.295
X121.99Y-68.02
X121.99Y-68.745
X121.99Y-69.47
X122.04Y-98.13
X122.04Y-98.855
X122.04Y-99.58
X122.04Y-100.305
X122.04Y-101.03
X122.05Y-102.23
X122.075Y-92.94
X122.496Y-104.27
X122.504Y-61.751
X122.6Y-75.0
X122.6Y-75.7
X122.85Y-80.1
X122.85Y-80.95
X122.85Y-81.8
X122.91Y-64.44
X123.19Y-62.375
X123.19Y-63.075
X123.19Y-63.775
X123.19Y-66.305
X123.19Y-67.005
X123.19Y-67.705
X123.218Y-104.27
X123.226Y-61.751
X123.275Y-87.75
X123.275Y-88.45
X123.4Y-71.2
X123.56Y-95.71
X123.63Y-91.53
X123.63Y-92.77
X123.675Y-83.725
X123.89Y-62.375
X123.89Y-63.075
X123.89Y-63.775
X123.89Y-66.305
X123.89Y-67.005
X123.89Y-67.705
X123.94Y-104.27
X123.948Y-61.751
X123.975Y-88.45
X124.59Y-62.375
X124.59Y-63.075
X124.59Y-63.775
X124.59Y-66.305
X124.59Y-67.005
X124.59Y-67.705
X124.66Y-91.91
X124.662Y-104.27
X124.67Y-61.751
X124.81Y-87.85
X124.925Y-73.6
X124.925Y-74.3
X125.13Y-91.1
X125.25Y-103.05
X125.384Y-104.27
X125.392Y-61.751
X125.5Y-71.2
X125.54Y-89.38
X125.62Y-87.7
X125.625Y-73.6
X125.625Y-74.3
X126.114Y-61.751
X126.17Y-91.748
X126.2Y-104.275
X126.325Y-73.6
X126.325Y-74.3
X126.63Y-65.38
X126.75Y-92.626
X126.836Y-61.751
X127.0Y-88.72
X127.3Y-69.6
X127.53Y-90.69
X127.558Y-61.751
X127.57Y-87.95
X127.57Y-91.62
X127.6Y-96.8
X127.62Y-90.001
X127.7Y-64.8
X127.8Y-73.49
X128.0Y-92.6
X128.2Y-102.05
X128.28Y-61.751
X128.425Y-83.175
X128.45Y-84.0
X128.5Y-64.8
X128.5Y-73.49
X128.5Y-100.6
X128.504Y-76.398
X128.65Y-92.6
X128.69Y-91.74
X128.76Y-79.06
X128.85Y-78.06
X128.9Y-82.0
X128.9Y-82.8
X128.9Y-83.6
X128.9Y-84.4
X128.9Y-85.2
X128.9Y-86.0
X128.9Y-86.8
X128.98Y-76.098
X128.98Y-76.76
X128.99Y-88.47
X129.0Y-101.4
X129.002Y-61.751
X129.28Y-92.74
X129.4Y-64.8
X129.5Y-76.4
X129.5Y-100.55
X129.525Y-96.8
X129.7Y-85.2
X129.7Y-86.8
X129.724Y-61.751
X129.8Y-102.05
X129.9Y-70.95
X129.944Y-92.068
X129.944Y-92.708
X130.36Y-64.99
X130.446Y-61.751
X130.45Y-73.14
X130.45Y-73.88
X130.5Y-81.2
X130.5Y-84.4
X130.5Y-86.55
X130.591Y-78.468
X130.6Y-76.23
X130.65Y-76.85
X130.774Y-92.068
X130.774Y-92.708
X130.91Y-81.63
X130.92Y-69.09
X130.975Y-104.275
X131.11Y-73.15
X131.12Y-73.86
X131.168Y-61.751
X131.21Y-76.87
X131.3Y-80.4
X131.3Y-81.2
X131.3Y-84.4
X131.3Y-85.2
X131.3Y-86.0
X131.3Y-86.8
X131.675Y-74.675
X131.7Y-80.8
X131.7Y-81.65
X131.7Y-104.275
X131.73Y-77.33
X131.74Y-90.8
X131.89Y-61.751
X132.094Y-78.425
X132.1Y-80.4
X132.1Y-82.8
X132.1Y-83.6
X132.1Y-84.4
X132.1Y-85.2
X132.1Y-86.0
X132.1Y-86.8
X132.1Y-87.6
X132.13Y-76.84
X132.47Y-80.82
X132.5Y-92.3
X132.525Y-104.275
X132.612Y-61.751
X132.7Y-103.15
X132.9Y-80.4
X132.9Y-81.2
X132.9Y-82.0
X132.9Y-83.6
X132.9Y-84.4
X132.9Y-85.2
X132.9Y-87.6
X132.9Y-90.925
X133.0Y-79.39
X133.05Y-91.86
X133.3Y-82.41
X133.326Y-104.27
X133.334Y-61.751
X133.41Y-62.375
X133.41Y-63.075
X133.41Y-63.775
X133.41Y-66.305
X133.41Y-67.005
X133.41Y-67.705
X133.589Y-78.528
X133.594Y-77.408
X133.6Y-94.25
X133.7Y-80.4
X133.7Y-86.8
X133.7Y-87.6
X133.894Y-91.194
X134.0Y-98.6
X134.048Y-104.27
X134.056Y-61.751
X134.1Y-76.6
X134.11Y-62.375
X134.11Y-63.075
X134.11Y-63.775
X134.11Y-66.305
X134.11Y-67.005
X134.11Y-67.705
X134.2Y-95.84
X134.25Y-92.4
X134.25Y-94.1
X134.4Y-90.3
X134.45Y-89.25
X134.5Y-80.4
X134.5Y-84.4
X134.5Y-86.8
X134.5Y-87.6
X134.6Y-98.6
X134.77Y-104.27
X134.778Y-61.751
X134.81Y-62.375
X134.81Y-63.075
X134.81Y-63.775
X134.81Y-66.305
X134.81Y-67.005
X134.81Y-67.705
X134.9Y-92.075
X135.12Y-95.19
X135.3Y-80.4
X135.3Y-81.2
X135.3Y-82.8
X135.3Y-84.4
X135.3Y-87.6
X135.35Y-91.55
X135.492Y-104.27
X135.5Y-61.751
X135.51Y-98.08
X135.8Y-96.14
X135.89Y-91.09
X135.925Y-69.127
X136.054Y-93.448
X136.054Y-94.248
X136.1Y-80.4
X136.1Y-81.2
X136.1Y-82.8
X136.1Y-85.2
X136.1Y-86.8
X136.1Y-87.6
X136.214Y-104.27
X136.222Y-61.751
X136.445Y-91.555
X136.48Y-96.14
X136.55Y-89.25
X136.7Y-79.54
X136.78Y-83.53
X136.854Y-93.448
X136.854Y-94.248
X136.936Y-104.27
X136.944Y-61.751
X137.039Y-77.95
X137.04Y-80.55
X137.05Y-85.24
X137.27Y-82.74
X137.55Y-75.79
X137.625Y-70.1
X137.658Y-104.27
X137.666Y-61.751
X137.9Y-92.375
X137.95Y-95.25
X137.95Y-95.8
X138.014Y-78.2
X138.3Y-91.71
X138.38Y-104.27
X138.388Y-61.751
X138.42Y-79.11
X138.6Y-87.0
X138.84Y-92.69
X139.102Y-104.27
X139.11Y-61.751
X139.74Y-84.92
X139.74Y-96.42
X139.824Y-104.27
X139.832Y-61.751
X139.87Y-74.73
X140.12Y-80.9
X140.12Y-81.9
X140.12Y-82.9
X140.12Y-83.9
X140.207Y-86.65
X140.516Y-79.55
X140.546Y-104.27
X140.554Y-61.751
X140.569Y-95.995
X140.7Y-75.7
X140.775Y-86.65
X140.97Y-89.18
X141.069Y-95.129
X141.109Y-79.535
X141.12Y-80.9
X141.12Y-81.9
X141.12Y-82.9
X141.2Y-72.76
X141.25Y-75.4
X141.25Y-76.0
X141.27Y-104.27
X141.276Y-61.751
X141.569Y-94.263
X141.631Y-103.645
X141.637Y-62.376
X141.95Y-85.1
X141.992Y-103.019
X141.998Y-63.001
X142.069Y-93.397
X142.12Y-80.9
X142.12Y-81.9
X142.12Y-82.9
X142.353Y-102.394
X142.359Y-63.627
X142.55Y-88.5
X142.569Y-92.531
X142.714Y-101.769
X142.72Y-64.252
X142.754Y-87.06
X142.85Y-85.1
X143.0Y-79.55
X143.06Y-94.0
X143.075Y-101.144
X143.08Y-72.52
X143.081Y-64.877
X143.1Y-70.55
X143.12Y-80.9
X143.12Y-81.9
X143.12Y-82.9
X143.12Y-83.9
X143.15Y-90.55
X143.314Y-99.006
X143.436Y-100.518
X143.442Y-65.502
X143.45Y-78.3
X143.47Y-93.35
X143.75Y-73.85
X143.797Y-99.893
X143.8Y-90.95
X143.803Y-66.128
X143.82Y-79.55
X143.83Y-94.45
X143.85Y-92.71
X143.852Y-70.124
X143.925Y-87.375
X144.042Y-84.8
X144.069Y-89.932
X144.08Y-78.13
X144.15Y-81.4
X144.158Y-99.268
X144.164Y-66.753
X144.185Y-86.85
X144.25Y-74.85
X144.27Y-82.01
X144.35Y-82.95
X144.35Y-83.8
X144.42Y-91.92
X144.519Y-98.643
X144.525Y-67.378
X144.55Y-69.7
X144.569Y-89.066
X144.71Y-94.89
X144.85Y-73.85
X144.85Y-79.05
X144.88Y-98.017
X144.886Y-68.004
X144.97Y-86.15
X144.97Y-91.49
X145.1Y-73.0
X145.241Y-97.392
X145.25Y-68.6
X145.3Y-90.85
X145.42Y-95.27
X145.45Y-85.55
X145.6Y-69.2
X145.6Y-88.75
X145.602Y-96.767
X145.73Y-94.68
X145.75Y-74.2
X145.75Y-82.6
X145.8Y-81.4
X145.8Y-83.4
X145.95Y-69.8
X145.95Y-89.6
X145.963Y-96.141
X146.07Y-94.15
X146.15Y-78.85
X146.15Y-86.15
X146.25Y-80.4
X146.3Y-70.4
X146.3Y-93.29
X146.324Y-95.516
X146.39Y-85.0
X146.45Y-88.95
X146.55Y-82.642
X146.65Y-92.5
X146.685Y-94.891
X146.75Y-88.2
X146.8Y-77.0
X146.95Y-86.15
X147.046Y-94.266
X147.4Y-85.1
X147.4Y-91.25
X147.407Y-93.64
X147.49Y-78.81
X147.55Y-90.45
X147.577Y-76.576
X147.6Y-87.15
X147.75Y-86.15
X147.768Y-93.015
X147.9Y-89.75
X148.15Y-92.35
X148.2Y-85.1
X148.2Y-86.6
X148.25Y-76.2
X148.35Y-89.1
X148.55Y-91.65
X148.56Y-82.48
X148.8Y-76.9
X148.85Y-74.85
X148.9Y-85.35
X148.95Y-88.7
X148.95Y-90.95
X149.218Y-75.507
X149.35Y-90.2
X149.45Y-86.1
X149.45Y-86.85
X149.579Y-76.132
X149.7Y-87.5
X149.8Y-89.45
X149.86Y-85.67
X149.94Y-76.757
X150.0Y-82.275
X150.2Y-88.75
X150.301Y-77.383
X150.56Y-86.29
X150.6Y-88.05
X150.662Y-78.008
X150.8Y-82.275
X151.0Y-87.35
X151.023Y-78.633
X151.27Y-85.64
X151.4Y-79.3
X151.4Y-86.7
X151.525Y-80.675
X151.6Y-82.275
X151.8Y-79.95
X151.8Y-86.0
X152.15Y-80.6
X152.15Y-85.35
X152.4Y-82.275
X152.5Y-81.25
X152.55Y-84.65
X153.1Y-83.65
X153.45Y-83.0
T2
X106.125Y-83.0
X106.674Y-81.674
X106.674Y-84.326
X108.0Y-81.125
X108.0Y-84.875
X109.326Y-81.674
X109.326Y-84.326
X109.875Y-83.0
X137.625Y-64.813
X137.625Y-101.187
X138.174Y-63.488
X138.174Y-66.139
X138.174Y-99.861
X138.174Y-102.512
X139.5Y-62.938
X139.5Y-66.688
X139.5Y-99.312
X139.5Y-103.062
X140.826Y-63.488
X140.826Y-66.139
X140.826Y-99.861
X140.826Y-102.512
X141.375Y-64.813
X141.375Y-101.187
T3
X109.013Y-88.879
X114.513Y-98.405
T4
X119.174Y-86.477
X121.674Y-90.807
T5
X108.0Y-83.0
X139.5Y-64.813
X139.5Y-101.187
M30
