%TF.GenerationSoftware,KiCad,Pcbnew,9.0.5*%
%TF.CreationDate,2025-10-20T13:37:52+02:00*%
%TF.ProjectId,PCB_PAPI,5043425f-5041-4504-992e-6b696361645f,rev?*%
%TF.SameCoordinates,Original*%
%TF.FileFunction,Paste,Top*%
%TF.FilePolarity,Positive*%
%FSLAX46Y46*%
G04 Gerber Fmt 4.6, Leading zero omitted, Abs format (unit mm)*
G04 Created by KiCad (PCBNEW 9.0.5) date 2025-10-20 13:37:52*
%MOMM*%
%LPD*%
G01*
G04 APERTURE LIST*
G04 Aperture macros list*
%AMRoundRect*
0 Rectangle with rounded corners*
0 $1 Rounding radius*
0 $2 $3 $4 $5 $6 $7 $8 $9 X,Y pos of 4 corners*
0 Add a 4 corners polygon primitive as box body*
4,1,4,$2,$3,$4,$5,$6,$7,$8,$9,$2,$3,0*
0 Add four circle primitives for the rounded corners*
1,1,$1+$1,$2,$3*
1,1,$1+$1,$4,$5*
1,1,$1+$1,$6,$7*
1,1,$1+$1,$8,$9*
0 Add four rect primitives between the rounded corners*
20,1,$1+$1,$2,$3,$4,$5,0*
20,1,$1+$1,$4,$5,$6,$7,0*
20,1,$1+$1,$6,$7,$8,$9,0*
20,1,$1+$1,$8,$9,$2,$3,0*%
%AMRotRect*
0 Rectangle, with rotation*
0 The origin of the aperture is its center*
0 $1 length*
0 $2 width*
0 $3 Rotation angle, in degrees counterclockwise*
0 Add horizontal line*
21,1,$1,$2,0,0,$3*%
G04 Aperture macros list end*
%ADD10RoundRect,0.150000X0.150000X0.425000X-0.150000X0.425000X-0.150000X-0.425000X0.150000X-0.425000X0*%
%ADD11RoundRect,0.075000X0.075000X0.500000X-0.075000X0.500000X-0.075000X-0.500000X0.075000X-0.500000X0*%
%ADD12RoundRect,0.250000X0.840000X0.750000X-0.840000X0.750000X-0.840000X-0.750000X0.840000X-0.750000X0*%
%ADD13RoundRect,0.079500X-0.100500X0.079500X-0.100500X-0.079500X0.100500X-0.079500X0.100500X0.079500X0*%
%ADD14RoundRect,0.155000X-0.261530X-0.027984X0.106530X-0.240484X0.261530X0.027984X-0.106530X0.240484X0*%
%ADD15RoundRect,0.150000X0.531218X-0.479904X0.681218X-0.220096X-0.531218X0.479904X-0.681218X0.220096X0*%
%ADD16RoundRect,0.250000X0.870929X-0.791506X1.120929X-0.358494X-0.870929X0.791506X-1.120929X0.358494X0*%
%ADD17RoundRect,0.079500X0.079500X0.100500X-0.079500X0.100500X-0.079500X-0.100500X0.079500X-0.100500X0*%
%ADD18RoundRect,0.147500X0.147500X0.172500X-0.147500X0.172500X-0.147500X-0.172500X0.147500X-0.172500X0*%
%ADD19RoundRect,0.079500X-0.079500X-0.100500X0.079500X-0.100500X0.079500X0.100500X-0.079500X0.100500X0*%
%ADD20RoundRect,0.079500X-0.119099X-0.047286X0.018599X-0.126786X0.119099X0.047286X-0.018599X0.126786X0*%
%ADD21RoundRect,0.150000X-0.681218X-0.220096X-0.531218X-0.479904X0.681218X0.220096X0.531218X0.479904X0*%
%ADD22RoundRect,0.250000X-1.120929X-0.358494X-0.870929X-0.791506X1.120929X0.358494X0.870929X0.791506X0*%
%ADD23RoundRect,0.079500X0.100500X-0.079500X0.100500X0.079500X-0.100500X0.079500X-0.100500X-0.079500X0*%
%ADD24R,0.410000X0.510000*%
%ADD25R,2.000000X1.200000*%
%ADD26RoundRect,0.155000X-0.212500X-0.155000X0.212500X-0.155000X0.212500X0.155000X-0.212500X0.155000X0*%
%ADD27RoundRect,0.140000X0.170000X-0.140000X0.170000X0.140000X-0.170000X0.140000X-0.170000X-0.140000X0*%
%ADD28RoundRect,0.225000X0.225000X0.250000X-0.225000X0.250000X-0.225000X-0.250000X0.225000X-0.250000X0*%
%ADD29RotRect,1.050000X2.200000X150.000000*%
%ADD30RotRect,1.000000X1.050000X150.000000*%
%ADD31RoundRect,0.140000X0.140000X0.170000X-0.140000X0.170000X-0.140000X-0.170000X0.140000X-0.170000X0*%
%ADD32RoundRect,0.090000X-0.090000X0.139000X-0.090000X-0.139000X0.090000X-0.139000X0.090000X0.139000X0*%
%ADD33RoundRect,0.147500X-0.147500X-0.172500X0.147500X-0.172500X0.147500X0.172500X-0.147500X0.172500X0*%
%ADD34C,0.400002*%
%ADD35RoundRect,0.225000X-0.225000X-0.250000X0.225000X-0.250000X0.225000X0.250000X-0.225000X0.250000X0*%
%ADD36RoundRect,0.090000X-0.139000X-0.090000X0.139000X-0.090000X0.139000X0.090000X-0.139000X0.090000X0*%
%ADD37RoundRect,0.090000X0.139000X0.090000X-0.139000X0.090000X-0.139000X-0.090000X0.139000X-0.090000X0*%
%ADD38R,0.740000X2.400000*%
%ADD39R,1.085000X0.550000*%
%ADD40RoundRect,0.147500X-0.172500X0.147500X-0.172500X-0.147500X0.172500X-0.147500X0.172500X0.147500X0*%
%ADD41RoundRect,0.250000X-0.295000X-0.315000X0.295000X-0.315000X0.295000X0.315000X-0.295000X0.315000X0*%
%ADD42R,0.550000X1.145000*%
%ADD43R,1.145000X0.550000*%
%ADD44R,1.250000X0.600000*%
%ADD45R,3.790000X1.200000*%
%ADD46R,1.400000X1.450000*%
%ADD47R,0.600000X1.000000*%
%ADD48R,0.850000X0.950000*%
%ADD49R,0.300000X0.850000*%
%ADD50R,2.500000X1.700000*%
%ADD51R,0.400000X1.900000*%
%ADD52RoundRect,0.150000X0.150000X0.700000X-0.150000X0.700000X-0.150000X-0.700000X0.150000X-0.700000X0*%
%ADD53RoundRect,0.250000X0.250000X1.150000X-0.250000X1.150000X-0.250000X-1.150000X0.250000X-1.150000X0*%
%ADD54RoundRect,0.218750X-0.112544X0.317568X-0.331294X-0.061318X0.112544X-0.317568X0.331294X0.061318X0*%
%ADD55RoundRect,0.155000X0.212500X0.155000X-0.212500X0.155000X-0.212500X-0.155000X0.212500X-0.155000X0*%
%ADD56R,1.200000X0.400000*%
%ADD57RoundRect,0.150000X0.681218X0.220096X0.531218X0.479904X-0.681218X-0.220096X-0.531218X-0.479904X0*%
%ADD58RoundRect,0.250000X1.120929X0.358494X0.870929X0.791506X-1.120929X-0.358494X-0.870929X-0.791506X0*%
%ADD59RoundRect,0.090000X0.090000X-0.139000X0.090000X0.139000X-0.090000X0.139000X-0.090000X-0.139000X0*%
%ADD60RoundRect,0.155000X-0.155000X0.212500X-0.155000X-0.212500X0.155000X-0.212500X0.155000X0.212500X0*%
%ADD61RoundRect,0.250000X0.285000X0.285000X-0.285000X0.285000X-0.285000X-0.285000X0.285000X-0.285000X0*%
%ADD62RoundRect,0.050000X0.350000X0.050000X-0.350000X0.050000X-0.350000X-0.050000X0.350000X-0.050000X0*%
%ADD63RoundRect,0.050000X0.050000X0.350000X-0.050000X0.350000X-0.050000X-0.350000X0.050000X-0.350000X0*%
%ADD64R,0.900000X0.900000*%
%ADD65R,0.550000X0.750000*%
%ADD66R,1.000000X0.500000*%
%ADD67R,1.600000X0.900000*%
%ADD68C,0.700000*%
%ADD69R,0.850000X0.300000*%
%ADD70R,1.250000X1.250000*%
%ADD71RoundRect,0.218750X0.218750X0.256250X-0.218750X0.256250X-0.218750X-0.256250X0.218750X-0.256250X0*%
G04 APERTURE END LIST*
D10*
%TO.C,J1*%
X132200000Y-67580000D03*
X131400000Y-67580000D03*
D11*
X130250000Y-67580000D03*
X129250000Y-67580000D03*
X128750000Y-67580000D03*
X127750000Y-67580000D03*
D10*
X126600000Y-67580000D03*
X125800000Y-67580000D03*
X125800000Y-67580000D03*
X126600000Y-67580000D03*
D11*
X127250000Y-67580000D03*
X128250000Y-67580000D03*
X129750000Y-67580000D03*
X130750000Y-67580000D03*
D10*
X131400000Y-67580000D03*
X132200000Y-67580000D03*
D12*
X134110000Y-67005000D03*
X134110000Y-63075000D03*
X123890000Y-67005000D03*
X123890000Y-63075000D03*
%TD*%
D13*
%TO.C,R20*%
X124800000Y-71175000D03*
X124800000Y-71865000D03*
%TD*%
D14*
%TO.C,C69*%
X148308531Y-87516250D03*
X149291469Y-88083750D03*
%TD*%
D15*
%TO.C,TOF3*%
X114248756Y-76648798D03*
X114873756Y-75566266D03*
X115498756Y-74483734D03*
X116123756Y-73401202D03*
D16*
X110422571Y-76575945D03*
X114147571Y-70124055D03*
%TD*%
D17*
%TO.C,C29*%
X119745000Y-82900000D03*
X119055000Y-82900000D03*
%TD*%
D18*
%TO.C,LEDRED1*%
X130591205Y-78467982D03*
X129621205Y-78467982D03*
%TD*%
D19*
%TO.C,C40*%
X141595000Y-87310000D03*
X142285000Y-87310000D03*
%TD*%
D20*
%TO.C,R24*%
X108306221Y-77018840D03*
X108903779Y-77363840D03*
%TD*%
D21*
%TO.C,TOF1*%
X141876244Y-73401202D03*
X142501244Y-74483734D03*
X143126244Y-75566266D03*
X143751244Y-76648798D03*
D22*
X143852429Y-70124055D03*
X147577429Y-76575945D03*
%TD*%
D17*
%TO.C,R45*%
X110395000Y-87400000D03*
X109705000Y-87400000D03*
%TD*%
D23*
%TO.C,R2*%
X125540000Y-90045000D03*
X125540000Y-89355000D03*
%TD*%
D24*
%TO.C,IC2*%
X124650000Y-75000000D03*
X125300000Y-75000000D03*
X125950000Y-75000000D03*
X126600000Y-75000000D03*
X126600000Y-72900000D03*
X125950000Y-72900000D03*
X125300000Y-72900000D03*
X124650000Y-72900000D03*
D25*
X125625000Y-73950000D03*
%TD*%
D26*
%TO.C,C62*%
X144232500Y-87700000D03*
X145367500Y-87700000D03*
%TD*%
D17*
%TO.C,R33*%
X149515000Y-77300000D03*
X148825000Y-77300000D03*
%TD*%
D13*
%TO.C,R19*%
X124100000Y-71175000D03*
X124100000Y-71865000D03*
%TD*%
D27*
%TO.C,C22*%
X119650000Y-92310000D03*
X119650000Y-91350000D03*
%TD*%
D28*
%TO.C,C21*%
X120300000Y-72600000D03*
X118750000Y-72600000D03*
%TD*%
D29*
%TO.C,J2*%
X145727387Y-94712500D03*
X143172613Y-93237500D03*
D30*
X145212500Y-92654311D03*
%TD*%
D19*
%TO.C,R38*%
X119730000Y-83650000D03*
X120420000Y-83650000D03*
%TD*%
D17*
%TO.C,C39*%
X139265000Y-87000000D03*
X138575000Y-87000000D03*
%TD*%
D31*
%TO.C,C45*%
X137980000Y-97200000D03*
X137020000Y-97200000D03*
%TD*%
D32*
%TO.C,C63*%
X150400000Y-83317500D03*
X150400000Y-84182500D03*
%TD*%
D13*
%TO.C,R30*%
X133600000Y-94230000D03*
X133600000Y-94920000D03*
%TD*%
D33*
%TO.C,LEDBLUE1*%
X133640000Y-77407982D03*
X134610000Y-77407982D03*
%TD*%
D19*
%TO.C,R10*%
X131155000Y-71600000D03*
X131845000Y-71600000D03*
%TD*%
D23*
%TO.C,C26*%
X123400000Y-71865000D03*
X123400000Y-71175000D03*
%TD*%
D17*
%TO.C,R4*%
X136105000Y-77430000D03*
X135415000Y-77430000D03*
%TD*%
D34*
%TO.C,U1*%
X128900000Y-87600000D03*
X128900000Y-86800000D03*
X128900000Y-86000000D03*
X128900000Y-85200000D03*
X128900000Y-84400000D03*
X128900000Y-83600000D03*
X128900000Y-82800000D03*
X128900000Y-82000000D03*
X128900000Y-81200000D03*
X128900000Y-80400000D03*
X129700000Y-87600000D03*
X129700000Y-86800000D03*
X129700000Y-86000000D03*
X129700000Y-85200000D03*
X129700000Y-84400000D03*
X129700000Y-83600000D03*
X129700000Y-82800000D03*
X129700000Y-82000000D03*
X129700000Y-81200000D03*
X129700000Y-80400000D03*
X130500000Y-87600000D03*
X130500000Y-86800000D03*
X130500000Y-86000000D03*
X130500000Y-85200000D03*
X130500000Y-84400000D03*
X130500000Y-83600000D03*
X130500000Y-82800000D03*
X130500000Y-82000000D03*
X130500000Y-81200000D03*
X130500000Y-80400000D03*
X131300000Y-87600000D03*
X131300000Y-86800000D03*
X131300000Y-86000000D03*
X131300000Y-85200000D03*
X131300000Y-84400000D03*
X131300000Y-83600000D03*
X131300000Y-82800000D03*
X131300000Y-82000000D03*
X131300000Y-81200000D03*
X131300000Y-80400000D03*
X132100000Y-87600000D03*
X132100000Y-86800000D03*
X132100000Y-86000000D03*
X132100000Y-85200000D03*
X132100000Y-84400000D03*
X132100000Y-83600000D03*
X132100000Y-82800000D03*
X132100000Y-82000000D03*
X132100000Y-81200000D03*
X132100000Y-80400000D03*
X132900000Y-87600000D03*
X132900000Y-86800000D03*
X132900000Y-86000000D03*
X132900000Y-85200000D03*
X132900000Y-84400000D03*
X132900000Y-83600000D03*
X132900000Y-82800000D03*
X132900000Y-82000000D03*
X132900000Y-81200000D03*
X132900000Y-80400000D03*
X133700000Y-87600000D03*
X133700000Y-86800000D03*
X133700000Y-86000000D03*
X133700000Y-85200000D03*
X133700000Y-84400000D03*
X133700000Y-83600000D03*
X133700000Y-82800000D03*
X133700000Y-82000000D03*
X133700000Y-81200000D03*
X133700000Y-80400000D03*
X134500000Y-87600000D03*
X134500000Y-86800000D03*
X134500000Y-86000000D03*
X134500000Y-85200000D03*
X134500000Y-84400000D03*
X134500000Y-83600000D03*
X134500000Y-82800000D03*
X134500000Y-82000000D03*
X134500000Y-81200000D03*
X134500000Y-80400000D03*
X135300000Y-87600000D03*
X135300000Y-86800000D03*
X135300000Y-86000000D03*
X135300000Y-85200000D03*
X135300000Y-84400000D03*
X135300000Y-83600000D03*
X135300000Y-82800000D03*
X135300000Y-82000000D03*
X135300000Y-81200000D03*
X135300000Y-80400000D03*
X136100000Y-87600000D03*
X136100000Y-86800000D03*
X136100000Y-86000000D03*
X136100000Y-85200000D03*
X136100000Y-84400000D03*
X136100000Y-83600000D03*
X136100000Y-82800000D03*
X136100000Y-82000000D03*
X136100000Y-81200000D03*
X136100000Y-80400000D03*
%TD*%
D35*
%TO.C,C27*%
X128350000Y-74800000D03*
X129900000Y-74800000D03*
%TD*%
D36*
%TO.C,C67*%
X141367500Y-77650000D03*
X142232500Y-77650000D03*
%TD*%
D17*
%TO.C,R3*%
X136095000Y-78527982D03*
X135405000Y-78527982D03*
%TD*%
D37*
%TO.C,C31*%
X137879170Y-77950000D03*
X137014170Y-77950000D03*
%TD*%
D23*
%TO.C,C1*%
X126270000Y-90055000D03*
X126270000Y-89365000D03*
%TD*%
D38*
%TO.C,USBJUMP1*%
X132895000Y-74650000D03*
X132895000Y-70750000D03*
X134165000Y-74650000D03*
X134165000Y-70750000D03*
X135435000Y-74650000D03*
X135435000Y-70750000D03*
X136705000Y-74650000D03*
X136705000Y-70750000D03*
%TD*%
D19*
%TO.C,R29*%
X119785000Y-79675000D03*
X120475000Y-79675000D03*
%TD*%
D39*
%TO.C,D3*%
X122985000Y-69525000D03*
X125265000Y-69525000D03*
%TD*%
%TO.C,D2*%
X121940000Y-75800000D03*
X119660000Y-75800000D03*
%TD*%
D40*
%TO.C,LEDRED2*%
X119640000Y-93375000D03*
X119640000Y-94345000D03*
%TD*%
D13*
%TO.C,R40*%
X120425000Y-80430000D03*
X120425000Y-81120000D03*
%TD*%
D41*
%TO.C,C43*%
X134273705Y-97100000D03*
X135703705Y-97100000D03*
%TD*%
D17*
%TO.C,C42*%
X133568705Y-95687982D03*
X132878705Y-95687982D03*
%TD*%
D42*
%TO.C,IC5*%
X126743705Y-95993982D03*
X127543705Y-95993982D03*
X128343705Y-95993982D03*
X129143705Y-95993982D03*
X129943705Y-95993982D03*
X130743705Y-95993982D03*
D43*
X130841705Y-94895982D03*
D42*
X130743705Y-93797982D03*
X129943705Y-93797982D03*
X129143705Y-93797982D03*
X128343705Y-93797982D03*
X127543705Y-93797982D03*
X126743705Y-93797982D03*
D43*
X126645705Y-94895982D03*
%TD*%
D13*
%TO.C,R22*%
X143150000Y-87755000D03*
X143150000Y-88445000D03*
%TD*%
D44*
%TO.C,J4*%
X125350000Y-86475000D03*
X125350000Y-85375000D03*
X125350000Y-84275000D03*
X125350000Y-83175000D03*
X125350000Y-82075000D03*
X125350000Y-80975000D03*
X125350000Y-79875000D03*
X125350000Y-78775000D03*
D45*
X122870000Y-77625000D03*
D46*
X123625000Y-88100000D03*
D47*
X122375000Y-88325000D03*
D48*
X121400000Y-87400000D03*
%TD*%
D19*
%TO.C,R9*%
X131155000Y-70300000D03*
X131845000Y-70300000D03*
%TD*%
D49*
%TO.C,IC3*%
X123025000Y-92940000D03*
X122075000Y-92940000D03*
X121125000Y-92940000D03*
X121125000Y-95840000D03*
X122075000Y-95840000D03*
X123025000Y-95840000D03*
D50*
X122075000Y-94390000D03*
%TD*%
D14*
%TO.C,C70*%
X146008531Y-91266250D03*
X146991469Y-91833750D03*
%TD*%
D19*
%TO.C,R17*%
X129758705Y-77517982D03*
X130448705Y-77517982D03*
%TD*%
D36*
%TO.C,C65*%
X144160000Y-86850000D03*
X145025000Y-86850000D03*
%TD*%
D28*
%TO.C,C23*%
X120300000Y-74100000D03*
X118750000Y-74100000D03*
%TD*%
D51*
%TO.C,Y1*%
X128703705Y-90297982D03*
X129903705Y-90297982D03*
X131103705Y-90297982D03*
%TD*%
D23*
%TO.C,R21*%
X125500000Y-71865000D03*
X125500000Y-71175000D03*
%TD*%
D52*
%TO.C,TOF2*%
X130875000Y-98950000D03*
X129625000Y-98950000D03*
X128375000Y-98950000D03*
X127125000Y-98950000D03*
D53*
X132725000Y-102300000D03*
X125275000Y-102300000D03*
%TD*%
D54*
%TO.C,L5*%
X147543750Y-88668005D03*
X146756250Y-90031995D03*
%TD*%
D35*
%TO.C,C25*%
X128350000Y-73300000D03*
X129900000Y-73300000D03*
%TD*%
D17*
%TO.C,C44*%
X138013705Y-96327982D03*
X137323705Y-96327982D03*
%TD*%
D13*
%TO.C,R31*%
X133585000Y-92780000D03*
X133585000Y-93470000D03*
%TD*%
%TO.C,R1*%
X124810000Y-89355000D03*
X124810000Y-90045000D03*
%TD*%
D55*
%TO.C,C28*%
X119667500Y-82000000D03*
X118532500Y-82000000D03*
%TD*%
D56*
%TO.C,D1*%
X129900000Y-71600000D03*
X129900000Y-70950000D03*
X129900000Y-70300000D03*
X128000000Y-70300000D03*
X128000000Y-70950000D03*
X128000000Y-71600000D03*
%TD*%
D57*
%TO.C,LIDAR1*%
X115929955Y-93246780D03*
X115304955Y-92164248D03*
X114679955Y-91081716D03*
X114054955Y-89999184D03*
D58*
X113953769Y-96523927D03*
X110228769Y-90072037D03*
%TD*%
D23*
%TO.C,C5*%
X126890000Y-91785000D03*
X126890000Y-91095000D03*
%TD*%
D59*
%TO.C,C66*%
X146550000Y-83482500D03*
X146550000Y-82617500D03*
%TD*%
D23*
%TO.C,C9*%
X132963705Y-90255000D03*
X132963705Y-89565000D03*
%TD*%
D13*
%TO.C,R6*%
X126180000Y-91095000D03*
X126180000Y-91785000D03*
%TD*%
D23*
%TO.C,R18*%
X119640000Y-95845000D03*
X119640000Y-95155000D03*
%TD*%
D33*
%TO.C,LEDGREEN1*%
X133640000Y-78520000D03*
X134610000Y-78520000D03*
%TD*%
D19*
%TO.C,R8*%
X127198705Y-69020000D03*
X127888705Y-69020000D03*
%TD*%
%TO.C,R7*%
X130255000Y-69090000D03*
X130945000Y-69090000D03*
%TD*%
D23*
%TO.C,R5*%
X132203705Y-90245000D03*
X132203705Y-89555000D03*
%TD*%
D60*
%TO.C,C60*%
X151450000Y-82482500D03*
X151450000Y-83617500D03*
%TD*%
D19*
%TO.C,C38*%
X141545000Y-90060000D03*
X142235000Y-90060000D03*
%TD*%
D23*
%TO.C,C41*%
X124593705Y-96192982D03*
X124593705Y-95502982D03*
%TD*%
D27*
%TO.C,C24*%
X123310000Y-99100000D03*
X123310000Y-98140000D03*
%TD*%
D13*
%TO.C,R25*%
X124603705Y-94002982D03*
X124603705Y-94692982D03*
%TD*%
D60*
%TO.C,C47*%
X152400000Y-82482500D03*
X152400000Y-83617500D03*
%TD*%
D61*
%TO.C,U5*%
X142950000Y-83730000D03*
X142950000Y-82400000D03*
X142950000Y-81070000D03*
X141620000Y-83730000D03*
X141620000Y-82400000D03*
X141620000Y-81070000D03*
X140290000Y-83730000D03*
X140290000Y-82400000D03*
X140290000Y-81070000D03*
D62*
X145070000Y-85000000D03*
X145070000Y-84600000D03*
X145070000Y-84200000D03*
X145070000Y-83800000D03*
X145070000Y-83400000D03*
X145070000Y-83000000D03*
X145070000Y-82600000D03*
X145070000Y-82200000D03*
X145070000Y-81800000D03*
X145070000Y-81400000D03*
X145070000Y-81000000D03*
X145070000Y-80600000D03*
X145070000Y-80200000D03*
X145070000Y-79800000D03*
D63*
X144220000Y-78950000D03*
X143820000Y-78950000D03*
X143420000Y-78950000D03*
X143020000Y-78950000D03*
X142620000Y-78950000D03*
X142220000Y-78950000D03*
X141820000Y-78950000D03*
X141420000Y-78950000D03*
X141020000Y-78950000D03*
X140620000Y-78950000D03*
X140220000Y-78950000D03*
X139820000Y-78950000D03*
X139420000Y-78950000D03*
X139020000Y-78950000D03*
D62*
X138170000Y-79800000D03*
X138170000Y-80200000D03*
X138170000Y-80600000D03*
X138170000Y-81000000D03*
X138170000Y-81400000D03*
X138170000Y-81800000D03*
X138170000Y-82200000D03*
X138170000Y-82600000D03*
X138170000Y-83000000D03*
X138170000Y-83400000D03*
X138170000Y-83800000D03*
X138170000Y-84200000D03*
X138170000Y-84600000D03*
X138170000Y-85000000D03*
D63*
X139020000Y-85850000D03*
X139420000Y-85850000D03*
X139820000Y-85850000D03*
X140220000Y-85850000D03*
X140620000Y-85850000D03*
X141020000Y-85850000D03*
X141420000Y-85850000D03*
X141820000Y-85850000D03*
X142220000Y-85850000D03*
X142620000Y-85850000D03*
X143020000Y-85850000D03*
X143420000Y-85850000D03*
X143820000Y-85850000D03*
X144220000Y-85850000D03*
%TD*%
D64*
%TO.C,LED1*%
X140075000Y-89750000D03*
X138375000Y-89750000D03*
X138375000Y-88050000D03*
X140075000Y-88050000D03*
%TD*%
D65*
%TO.C,Y2*%
X142275000Y-89250000D03*
X142275000Y-88150000D03*
X141525000Y-88150000D03*
X141525000Y-89250000D03*
%TD*%
D23*
%TO.C,R28*%
X132863705Y-94922982D03*
X132863705Y-94232982D03*
%TD*%
D17*
%TO.C,R42*%
X110445000Y-85975000D03*
X109755000Y-85975000D03*
%TD*%
D66*
%TO.C,J6*%
X116620000Y-79550000D03*
X116620000Y-80350000D03*
X116620000Y-81150000D03*
X116620000Y-81950000D03*
X116620000Y-82750000D03*
X116620000Y-83550000D03*
X116620000Y-84350000D03*
X116620000Y-85150000D03*
D67*
X114700000Y-78300000D03*
X114700000Y-86400000D03*
%TD*%
D19*
%TO.C,R34*%
X119730000Y-84400000D03*
X120420000Y-84400000D03*
%TD*%
D23*
%TO.C,R32*%
X132875000Y-93470000D03*
X132875000Y-92780000D03*
%TD*%
D68*
%TO.C,TP1*%
X125130000Y-91100000D03*
%TD*%
D69*
%TO.C,IC6*%
X135000000Y-93100000D03*
X135000000Y-93600000D03*
X135000000Y-94100000D03*
X135000000Y-94600000D03*
D49*
X135700000Y-95300000D03*
X136200000Y-95300000D03*
X136700000Y-95300000D03*
X137200000Y-95300000D03*
D69*
X137900000Y-94600000D03*
X137900000Y-94100000D03*
X137900000Y-93600000D03*
X137900000Y-93100000D03*
D49*
X137200000Y-92400000D03*
X136700000Y-92400000D03*
X136200000Y-92400000D03*
X135700000Y-92400000D03*
D70*
X136450000Y-93850000D03*
%TD*%
D71*
%TO.C,L4*%
X149237500Y-83300000D03*
X147662500Y-83300000D03*
%TD*%
M02*
