M48
; DRILL file {KiCad 9.0.5} date 2025-10-20T13:37:45+0200
; FORMAT={-:-/ absolute / metric / decimal}
; #@! TF.CreationDate,2025-10-20T13:37:45+02:00
; #@! TF.GenerationSoftware,Kicad,Pcbnew,9.0.5
; #@! TF.FileFunction,NonPlated,1,8,NPTH
FMAT,2
METRIC
; #@! TA.AperFunction,NonPlated,NPTH,ComponentDrill
T1C0.500
; #@! TA.AperFunction,NonPlated,NPTH,ComponentDrill
T2C0.650
; #@! TA.AperFunction,NonPlated,NPTH,ComponentDrill
T3C1.450
%
G90
G05
T1
X117.1Y-61.0
X117.125Y-105.025
X117.95Y-61.0
X117.975Y-105.025
X118.8Y-61.0
X118.825Y-105.025
X119.65Y-61.0
X119.675Y-105.025
X120.5Y-61.0
X120.525Y-105.025
X121.35Y-61.0
X121.375Y-105.025
X122.2Y-61.0
X122.225Y-105.025
X123.05Y-61.0
X123.075Y-105.025
X123.9Y-61.0
X123.925Y-105.025
X124.75Y-61.0
X124.775Y-105.025
X125.6Y-61.0
X125.625Y-105.025
X126.45Y-61.0
X126.475Y-105.025
X127.3Y-61.0
X127.325Y-105.025
X128.15Y-61.0
X128.175Y-105.025
X129.0Y-61.0
X129.025Y-105.025
X129.85Y-61.0
X129.875Y-105.025
X130.7Y-61.0
X130.725Y-105.025
X131.55Y-61.0
X131.575Y-105.025
X132.4Y-61.0
X132.425Y-105.025
X133.25Y-61.0
X133.275Y-105.025
X134.1Y-61.0
X134.125Y-105.025
X134.95Y-61.0
X134.975Y-105.025
X135.8Y-61.0
X135.825Y-105.025
X136.65Y-61.0
X136.675Y-105.025
X137.5Y-61.0
X137.525Y-105.025
X138.35Y-61.0
X138.375Y-105.025
X139.2Y-61.0
X139.225Y-105.025
X140.05Y-61.0
X140.075Y-105.025
X140.9Y-61.0
X140.925Y-105.025
X149.709Y-79.553
T2
X126.11Y-66.505
X131.89Y-66.505
T3
X112.88Y-77.619
X116.28Y-71.731
X125.6Y-99.65
X132.4Y-99.65
X141.72Y-71.731
X145.12Y-77.619
M30
