%TF.GenerationSoftware,KiCad,Pcbnew,9.0.5*%
%TF.CreationDate,2025-10-20T13:37:52+02:00*%
%TF.ProjectId,PCB_PAPI,5043425f-5041-4504-992e-6b696361645f,rev?*%
%TF.SameCoordinates,Original*%
%TF.FileFunction,Copper,L6,Inr*%
%TF.FilePolarity,Positive*%
%FSLAX46Y46*%
G04 Gerber Fmt 4.6, Leading zero omitted, Abs format (unit mm)*
G04 Created by KiCad (PCBNEW 9.0.5) date 2025-10-20 13:37:52*
%MOMM*%
%LPD*%
G01*
G04 APERTURE LIST*
%TA.AperFunction,ComponentPad*%
%ADD10C,0.800000*%
%TD*%
%TA.AperFunction,ComponentPad*%
%ADD11C,5.000000*%
%TD*%
%TA.AperFunction,ComponentPad*%
%ADD12C,2.550000*%
%TD*%
%TA.AperFunction,ComponentPad*%
%ADD13C,1.500000*%
%TD*%
%TA.AperFunction,ViaPad*%
%ADD14C,0.400000*%
%TD*%
%TA.AperFunction,Conductor*%
%ADD15C,0.160000*%
%TD*%
G04 APERTURE END LIST*
D10*
%TO.N,GND*%
%TO.C,H1*%
X137625000Y-101186533D03*
X138174175Y-99860708D03*
X138174175Y-102512358D03*
X139500000Y-99311533D03*
D11*
X139500000Y-101186533D03*
D10*
X139500000Y-103061533D03*
X140825825Y-99860708D03*
X140825825Y-102512358D03*
X141375000Y-101186533D03*
%TD*%
%TO.N,GND*%
%TO.C,H3*%
X137625000Y-64813467D03*
X138174175Y-63487642D03*
X138174175Y-66139292D03*
X139500000Y-62938467D03*
D11*
X139500000Y-64813467D03*
D10*
X139500000Y-66688467D03*
X140825825Y-63487642D03*
X140825825Y-66139292D03*
X141375000Y-64813467D03*
%TD*%
%TO.N,GND*%
%TO.C,H2*%
X106125000Y-83000000D03*
X106674175Y-81674175D03*
X106674175Y-84325825D03*
X108000000Y-81125000D03*
D11*
X108000000Y-83000000D03*
D10*
X108000000Y-84875000D03*
X109325825Y-81674175D03*
X109325825Y-84325825D03*
X109875000Y-83000000D03*
%TD*%
D12*
%TO.N,VBAT+*%
%TO.C,J3*%
X119173647Y-86476918D03*
%TO.N,GND*%
X121673647Y-90807046D03*
D13*
X114513393Y-98405122D03*
X109013393Y-88878842D03*
%TD*%
D14*
%TO.N,GND*%
X111800000Y-79200000D03*
X125625000Y-73600000D03*
X126114000Y-61750808D03*
X123400000Y-71200000D03*
X142120000Y-80900000D03*
X148850000Y-74850000D03*
X147490000Y-78810000D03*
X133050000Y-91860000D03*
X117690000Y-103205000D03*
X133410000Y-67005000D03*
X143075000Y-101143648D03*
X139102000Y-104270000D03*
X144970000Y-86150000D03*
X133593705Y-77407982D03*
X127000000Y-88720000D03*
X109500000Y-91764593D03*
X150560000Y-86290000D03*
X149218000Y-75506756D03*
X123630000Y-92770000D03*
X128690000Y-91740000D03*
X142353000Y-102394189D03*
X146070000Y-94150000D03*
X141992000Y-103019459D03*
X137666000Y-61750808D03*
X152150000Y-80600000D03*
X118164000Y-104270000D03*
X113500000Y-69750000D03*
X114750000Y-100850000D03*
X139832000Y-61750808D03*
X133893701Y-91193701D03*
X106983000Y-78632299D03*
X144886000Y-68003512D03*
X123948000Y-61750808D03*
X151800000Y-79950000D03*
X140120000Y-83900000D03*
X117450000Y-61750808D03*
X122504000Y-61750808D03*
X129724000Y-61750808D03*
X146390000Y-85000000D03*
X133410000Y-62375000D03*
X124590000Y-67005000D03*
X110944000Y-94265674D03*
X138420000Y-79110000D03*
X145730000Y-94680000D03*
X133410000Y-63075000D03*
X116965000Y-103205000D03*
X141637000Y-62376079D03*
X146750000Y-88200000D03*
X146950000Y-86150000D03*
X144519000Y-98642567D03*
X130360000Y-64990000D03*
X120590000Y-96680000D03*
X120540000Y-69470000D03*
X146450000Y-88950000D03*
X130650000Y-76850000D03*
X121052000Y-104270000D03*
X147550000Y-90450000D03*
X123890000Y-63075000D03*
X147407000Y-93640404D03*
X111666000Y-95516215D03*
X118415000Y-96680000D03*
X149450000Y-86100000D03*
X137900000Y-92375000D03*
X143436000Y-100518378D03*
X134810000Y-63775000D03*
X146300000Y-93290000D03*
X136222000Y-61750808D03*
X123226000Y-61750808D03*
X123190000Y-67705000D03*
X117640000Y-62945000D03*
X148560000Y-82480000D03*
X135300000Y-87600000D03*
X147750000Y-86150000D03*
X142550000Y-88500000D03*
X133700000Y-87600000D03*
X134110000Y-63075000D03*
X148250000Y-76200000D03*
X145963000Y-96141485D03*
X139740000Y-96420000D03*
X128850000Y-78060000D03*
X146650000Y-92500000D03*
X131110000Y-73150000D03*
X124670000Y-61750808D03*
X146550000Y-82642500D03*
X121782000Y-61750808D03*
X121265000Y-62945000D03*
X129900000Y-70950000D03*
X144970000Y-91490000D03*
X150301000Y-77382567D03*
X117640000Y-69470000D03*
X133334000Y-61750808D03*
X128280000Y-61750808D03*
X129525000Y-96800000D03*
X153450000Y-83000000D03*
X118750000Y-72600000D03*
X148900000Y-85350000D03*
X116915000Y-62945000D03*
X127530000Y-90690000D03*
X127570000Y-87950000D03*
X124662000Y-104270000D03*
X122850000Y-81800000D03*
X142120000Y-82900000D03*
X127600000Y-96800000D03*
X104817000Y-82383921D03*
X121990000Y-66570000D03*
X135492000Y-104270000D03*
X139824000Y-104270000D03*
X113330000Y-91320000D03*
X136053705Y-94247982D03*
X138014170Y-78200000D03*
X135500000Y-61750808D03*
X121990000Y-68020000D03*
X119090000Y-69470000D03*
X139740000Y-84920000D03*
X121774000Y-104270000D03*
X125625000Y-74300000D03*
X132612000Y-61750808D03*
X123630000Y-91530000D03*
X134810000Y-62375000D03*
X140120000Y-82900000D03*
X112388000Y-96766756D03*
X148550000Y-91650000D03*
X133588705Y-78527982D03*
X144550000Y-69700000D03*
X121060000Y-61750808D03*
X129002000Y-61750808D03*
X121990000Y-63670000D03*
X115465000Y-67300000D03*
X143850000Y-92710000D03*
X142714000Y-101768918D03*
X133410000Y-67705000D03*
X135800000Y-96140000D03*
X147577429Y-76575945D03*
X136936000Y-104270000D03*
X140120000Y-80900000D03*
X149860000Y-85670000D03*
X111150000Y-76950000D03*
X111305000Y-94890945D03*
X143797000Y-99893107D03*
X138840000Y-92690000D03*
X151400000Y-86700000D03*
X136853705Y-93447982D03*
X134770000Y-104270000D03*
X114480000Y-68040000D03*
X112450000Y-76480000D03*
X129280000Y-92740000D03*
X146324000Y-95516215D03*
X113120000Y-68002704D03*
X119815000Y-69470000D03*
X124590000Y-63075000D03*
X105529000Y-84886619D03*
X132100000Y-84400000D03*
X122850000Y-80950000D03*
X146800000Y-77000000D03*
X134810000Y-67705000D03*
X123890000Y-63775000D03*
X110228769Y-90072037D03*
X113953769Y-96523927D03*
X148150000Y-92350000D03*
X143442000Y-65502430D03*
X115515000Y-98855000D03*
X121040000Y-103210000D03*
X122040000Y-98855000D03*
X125250000Y-103050000D03*
X136853705Y-94247982D03*
X134056000Y-61750808D03*
X114300000Y-100100000D03*
X123890000Y-62375000D03*
X115998000Y-103019459D03*
X143120000Y-80900000D03*
X107695000Y-88638241D03*
X117690000Y-96680000D03*
X121950000Y-80100000D03*
X126325000Y-73600000D03*
X115465000Y-64395000D03*
X118415000Y-103205000D03*
X124660000Y-91910000D03*
X112230000Y-91610000D03*
X141120000Y-80900000D03*
X145241000Y-97392026D03*
X148200000Y-85100000D03*
X144420000Y-91920000D03*
X130600000Y-76230000D03*
X124590000Y-62375000D03*
X131700000Y-81650000D03*
X132900000Y-90925000D03*
X118886000Y-104270000D03*
X123190000Y-63075000D03*
X117442000Y-104270000D03*
X123890000Y-67705000D03*
X136053705Y-93447982D03*
X105168000Y-84261349D03*
X132093799Y-78425000D03*
X123190000Y-62375000D03*
X137050000Y-85240000D03*
X123675000Y-83725000D03*
X113500000Y-98700000D03*
X137270000Y-82740000D03*
X116730000Y-61750000D03*
X130450000Y-73880000D03*
X144158000Y-99267837D03*
X131168000Y-61750808D03*
X122496000Y-104270000D03*
X145450000Y-85550000D03*
X119815000Y-62945000D03*
X147046000Y-94265674D03*
X123890000Y-67005000D03*
X145950000Y-69800000D03*
X120338000Y-61750808D03*
X132525000Y-104275000D03*
X132130000Y-76840000D03*
X151270000Y-85640000D03*
X139870000Y-74730000D03*
X125500000Y-71200000D03*
X118900000Y-61750000D03*
X113110000Y-98017296D03*
X133000000Y-79390000D03*
X124925000Y-74300000D03*
X138300000Y-91710000D03*
X121990000Y-65120000D03*
X123190000Y-66305000D03*
X127300000Y-69600000D03*
X109640000Y-74760000D03*
X131890000Y-61750808D03*
X121950000Y-81800000D03*
X134110000Y-62375000D03*
X124590000Y-66305000D03*
X109861000Y-92389863D03*
X125540000Y-89380000D03*
X108417000Y-89888782D03*
X143470000Y-93350000D03*
X142720000Y-64251890D03*
X127570000Y-91620000D03*
X122040000Y-98130000D03*
X144525000Y-67378241D03*
X135510000Y-98080000D03*
X124590000Y-67705000D03*
X108778000Y-90514052D03*
X115515000Y-96680000D03*
X125620000Y-87700000D03*
X150200000Y-88750000D03*
X107344000Y-78007029D03*
X116440000Y-69480000D03*
X152150000Y-85350000D03*
X131700000Y-104275000D03*
X141120000Y-81900000D03*
X134100000Y-76600000D03*
X114222373Y-68913175D03*
X134810000Y-67005000D03*
X128760000Y-79060000D03*
X122040000Y-101030000D03*
X123560000Y-95710000D03*
X122050000Y-102230000D03*
X149350000Y-90200000D03*
X147900000Y-89750000D03*
X123940000Y-104270000D03*
X108056000Y-89263512D03*
X134400000Y-90300000D03*
X134110000Y-63775000D03*
X106251000Y-86137160D03*
X137550000Y-75790000D03*
X126836000Y-61750808D03*
X115580000Y-81760000D03*
X137658000Y-104270000D03*
X134250000Y-94100000D03*
X136480000Y-96140000D03*
X143080000Y-72520000D03*
X143120000Y-82900000D03*
X147400000Y-85100000D03*
X143120000Y-81900000D03*
X133326000Y-104270000D03*
X122850000Y-80100000D03*
X143060000Y-94000000D03*
X128990000Y-88470000D03*
X143081000Y-64877160D03*
X145602000Y-96766756D03*
X123190000Y-63775000D03*
X151400000Y-79300000D03*
X121520000Y-97150000D03*
X147600000Y-87150000D03*
X141120000Y-82900000D03*
X137625000Y-70100000D03*
X151000000Y-87350000D03*
X115465000Y-65845000D03*
X116359000Y-103644729D03*
X109600000Y-76100000D03*
X144069400Y-89932462D03*
X143313813Y-99006250D03*
X134110000Y-67005000D03*
X145300000Y-90850000D03*
X135925000Y-69127276D03*
X119160000Y-103210000D03*
X123190000Y-67005000D03*
X152500000Y-81250000D03*
X149579000Y-76132026D03*
X151800000Y-86000000D03*
X113290000Y-94250000D03*
X112749000Y-97392026D03*
X148950000Y-90950000D03*
X118365000Y-69470000D03*
X109139000Y-91139323D03*
X125392000Y-61750808D03*
X111810000Y-93830000D03*
X104807000Y-83636079D03*
X138388000Y-61750808D03*
X138380000Y-104270000D03*
X132470000Y-80820000D03*
X108130000Y-79860000D03*
X134110000Y-66305000D03*
X142754088Y-87060000D03*
X130500000Y-86550000D03*
X119090000Y-62945000D03*
X130920000Y-69090000D03*
X105539000Y-81133381D03*
X146300000Y-70400000D03*
X131120000Y-73860000D03*
X134778000Y-61750808D03*
X152550000Y-84650000D03*
X147400000Y-91250000D03*
X132700000Y-103150000D03*
X118172000Y-61750808D03*
X127558000Y-61750808D03*
X144164000Y-66752971D03*
X134200000Y-95840000D03*
X149450000Y-86850000D03*
X134900000Y-92075000D03*
X148350000Y-89100000D03*
X138600000Y-87000000D03*
X133410000Y-66305000D03*
X148950000Y-88700000D03*
X106973000Y-87387701D03*
X148200000Y-86600000D03*
X114420000Y-67180000D03*
X119650000Y-61750000D03*
X107334000Y-88012971D03*
X141276000Y-61750808D03*
X123218000Y-104270000D03*
X141998000Y-63001349D03*
X126325000Y-74300000D03*
X115510000Y-101710000D03*
X146685000Y-94890945D03*
X134110000Y-67705000D03*
X125384000Y-104270000D03*
X143120000Y-83900000D03*
X113900000Y-99400000D03*
X124590000Y-63775000D03*
X142359000Y-63626619D03*
X116240000Y-96680000D03*
X115460000Y-68470000D03*
X117570000Y-80310000D03*
X130975000Y-104275000D03*
X143100000Y-70550000D03*
X104446000Y-83010808D03*
X110422571Y-76579945D03*
X121990000Y-68745000D03*
X144080000Y-78130000D03*
X116720000Y-104270000D03*
X150662000Y-78007837D03*
X141631000Y-103644729D03*
X144880000Y-98017296D03*
X132100000Y-83600000D03*
X133300000Y-82410000D03*
X141200000Y-72760000D03*
X145420000Y-95270000D03*
X143830000Y-94450000D03*
X105890000Y-85511890D03*
X145250000Y-68600000D03*
X106612000Y-86762430D03*
X144710000Y-94890000D03*
X126170000Y-91747982D03*
X153100000Y-83650000D03*
X139110000Y-61750808D03*
X134810000Y-63075000D03*
X135890000Y-91090000D03*
X140546000Y-104270000D03*
X115304955Y-92164248D03*
X112759000Y-68627974D03*
X149800000Y-89450000D03*
X140120000Y-81900000D03*
X123975000Y-88450000D03*
X130446000Y-61750808D03*
X147768000Y-93015134D03*
X142120000Y-81900000D03*
X151023000Y-78633107D03*
X136214000Y-104270000D03*
X115465000Y-65120000D03*
X126630000Y-65380000D03*
X121990000Y-67295000D03*
X121990000Y-65845000D03*
X119140000Y-96680000D03*
X121810000Y-102960000D03*
X140970000Y-89180000D03*
X133410000Y-63775000D03*
X135120000Y-95190000D03*
X110222000Y-93015134D03*
X149700000Y-87500000D03*
X123275000Y-88450000D03*
X130450000Y-73140000D03*
X126200000Y-104275000D03*
X123890000Y-66305000D03*
X143852429Y-70124055D03*
X120000000Y-104250000D03*
X122040000Y-100305000D03*
X134810000Y-66305000D03*
X105178000Y-81758651D03*
X124925000Y-73600000D03*
X140554000Y-61750808D03*
X144042500Y-84800000D03*
X134048000Y-104270000D03*
X141270000Y-104270000D03*
X132100000Y-85200000D03*
X113100000Y-78810000D03*
X121990000Y-69470000D03*
X145950000Y-89600000D03*
X121990000Y-62945000D03*
X115637000Y-102394189D03*
X106622000Y-79257570D03*
X150600000Y-88050000D03*
X115510000Y-99600000D03*
X149940000Y-76757296D03*
X105900000Y-80508110D03*
X121265000Y-69470000D03*
X136700000Y-79540000D03*
X119865000Y-96680000D03*
X146150000Y-86150000D03*
X143803000Y-66127701D03*
X122040000Y-99580000D03*
X131740000Y-90800000D03*
X130910000Y-81630000D03*
X118365000Y-62945000D03*
X145600000Y-69200000D03*
X130591205Y-78467982D03*
X123275000Y-87750000D03*
X136944000Y-61750808D03*
X115515000Y-101030000D03*
X136780000Y-83530000D03*
X106261000Y-79882840D03*
X115515000Y-100305000D03*
X137040000Y-80550000D03*
X121950000Y-80950000D03*
%TO.N,+3.3V*%
X134450000Y-89250000D03*
X136550000Y-89250000D03*
X128503705Y-76397982D03*
X141250000Y-76000000D03*
X150800000Y-82275000D03*
X128500000Y-73490000D03*
X134600000Y-98600000D03*
X112950000Y-75750000D03*
X127800000Y-73490000D03*
X150000000Y-82275000D03*
X129500000Y-76400000D03*
X144185000Y-86850000D03*
X112300000Y-75400000D03*
X131300000Y-86800000D03*
X140775000Y-86650000D03*
X132900000Y-83600000D03*
X151600000Y-82275000D03*
X132900000Y-84400000D03*
X132900000Y-85200000D03*
X134000000Y-98600000D03*
X136100000Y-87600000D03*
X128980000Y-76097984D03*
X134500000Y-87600000D03*
X128980000Y-76760000D03*
X129700000Y-86800000D03*
X140700000Y-75700000D03*
X152400000Y-82275000D03*
X141250000Y-75400000D03*
X140207500Y-86650000D03*
X111700000Y-75050000D03*
X143925000Y-87375000D03*
%TO.N,/HP+*%
X140569400Y-95994640D03*
%TO.N,Net-(C7-Pad1)*%
X132100000Y-82800000D03*
%TO.N,/HP-*%
X141069400Y-95128614D03*
%TO.N,Net-(C10-Pad1)*%
X132900000Y-82000000D03*
%TO.N,VBAT+*%
X124810000Y-87850000D03*
%TO.N,+5V*%
X120200000Y-77500000D03*
X114054955Y-89999184D03*
X119500000Y-78200000D03*
X115400000Y-89200000D03*
X120200000Y-78200000D03*
X120200000Y-76800000D03*
X120200000Y-78900000D03*
X119500000Y-78900000D03*
%TO.N,4.5V*%
X137950000Y-95800000D03*
X120340000Y-103730000D03*
X122600000Y-75700000D03*
X137950000Y-95250000D03*
X121200000Y-75700000D03*
X121900000Y-75700000D03*
X143800000Y-90950000D03*
X109502276Y-77962083D03*
X122075000Y-92940000D03*
X122600000Y-75000000D03*
X121590000Y-92580000D03*
X121900000Y-75000000D03*
X132500000Y-92300000D03*
X122910000Y-64440000D03*
X143150000Y-90550000D03*
%TO.N,/NRST*%
X131675000Y-74675000D03*
X129400000Y-64800000D03*
X132100000Y-87600000D03*
%TO.N,/GPIO_MOT1*%
X145100000Y-73000000D03*
X132900000Y-81200000D03*
%TO.N,/TX_MOT1*%
X134500000Y-80400000D03*
X145750000Y-74200000D03*
%TO.N,/RX_MOT1*%
X144849599Y-73849599D03*
X133700000Y-80400000D03*
%TO.N,/RX_MOT2*%
X129000000Y-101400000D03*
X134500000Y-86800000D03*
%TO.N,/TX_MOT2*%
X133700000Y-86800000D03*
X128200000Y-102050000D03*
%TO.N,/GPIO_MOT2*%
X129800000Y-102050000D03*
X136100000Y-86800000D03*
%TO.N,/GPIO_MOT3*%
X112300000Y-74200000D03*
X131300000Y-80400000D03*
%TO.N,/TX_MOT3*%
X113175000Y-72925000D03*
X132900000Y-80400000D03*
%TO.N,/RX_MOT3*%
X132100000Y-80400000D03*
X113433154Y-74016846D03*
%TO.N,/ESP32_TX*%
X141109144Y-79534697D03*
X135300000Y-81200000D03*
%TO.N,/ESP32_RX*%
X136100000Y-81200000D03*
X140516306Y-79550038D03*
%TO.N,/ACCEL_MOSI*%
X132100000Y-86000000D03*
X128650000Y-92600000D03*
%TO.N,Net-(IC5-INT2)*%
X129943705Y-92707982D03*
%TO.N,/ACCEL_MISO*%
X131300000Y-86000000D03*
X128000000Y-92600000D03*
%TO.N,Net-(IC5-INT1)*%
X130773705Y-92707982D03*
%TO.N,/ACCEL_CLK*%
X126750000Y-92626338D03*
X128900000Y-86000000D03*
%TO.N,/ACCEL_INT2*%
X129943705Y-92067982D03*
X132100000Y-86800000D03*
%TO.N,/ACCEL_INT1*%
X130773705Y-92067982D03*
X132900000Y-87600000D03*
%TO.N,/MOUSE_INT*%
X128900000Y-86800000D03*
X110300000Y-88175000D03*
%TO.N,/SWDIO*%
X127700000Y-64800000D03*
X131210000Y-76870000D03*
%TO.N,/SWCLK*%
X128500000Y-64800000D03*
X131730000Y-77330000D03*
%TO.N,/RX_LIDAR*%
X112900000Y-93200000D03*
X131300000Y-85200000D03*
%TO.N,/SDA_TOF1*%
X144250000Y-74850000D03*
X135300000Y-80400000D03*
%TO.N,/SDA_TOF3*%
X114300000Y-73900000D03*
X131700000Y-80800000D03*
%TO.N,/SCL_TOF1*%
X143750000Y-73850000D03*
X136100000Y-80400000D03*
%TO.N,/SDA_TOF2*%
X128900000Y-85200000D03*
X128500000Y-100600000D03*
%TO.N,/SDA_OLED*%
X136100000Y-82800000D03*
X145600000Y-88750000D03*
%TO.N,/LIDAR_PWM*%
X112400000Y-92450000D03*
X128900000Y-84400000D03*
%TO.N,/MOUSE_CS*%
X109087500Y-85987500D03*
X128900000Y-82000000D03*
%TO.N,/SCL_TOF2*%
X129500000Y-100550000D03*
X129700000Y-85200000D03*
%TO.N,/SCL_OLED*%
X144569400Y-89066436D03*
X135300000Y-82800000D03*
%TO.N,/SCL_TOF3*%
X113750000Y-74900000D03*
X131300000Y-81200000D03*
%TO.N,/MOUSE_MISO*%
X109100000Y-86725000D03*
X128900000Y-83600000D03*
%TO.N,/LED_TIM*%
X136100000Y-85200000D03*
X142569400Y-92530538D03*
%TO.N,/TX_SUP*%
X142069400Y-93396564D03*
X135300000Y-84400000D03*
%TO.N,/RX_SUP*%
X141569400Y-94262589D03*
X134500000Y-84400000D03*
%TO.N,Net-(IC8-~{OE})*%
X111147724Y-78912083D03*
%TO.N,Net-(U1-BOOT0)*%
X131300000Y-84400000D03*
X125130000Y-91100000D03*
X127620000Y-90000787D03*
%TO.N,Net-(IC8-Y)*%
X109000000Y-78450000D03*
X115600000Y-69420000D03*
%TO.N,Net-(LED2-DOUT)*%
X119400000Y-62450000D03*
X115040000Y-97292878D03*
%TO.N,Net-(U5-GPIO0)*%
X145800000Y-83400000D03*
%TO.N,RESET*%
X144350000Y-83800000D03*
%TO.N,/ESP32/mic_sck*%
X151525000Y-80675000D03*
%TO.N,/ESP32/mic_data*%
X146250000Y-80400000D03*
%TO.N,Net-(U5-GPIO3)*%
X144270000Y-82010000D03*
%TO.N,/ESP32/mic_frame_sck*%
X146150000Y-78850000D03*
%TO.N,/ESP32/BOOT1*%
X142850000Y-85100000D03*
%TO.N,Net-(U5-VDD_SPI)*%
X137039170Y-77950000D03*
%TO.N,/MOUSE_CLK*%
X128900000Y-82800000D03*
X109780000Y-85975000D03*
%TO.N,/MOUSE_MOSI*%
X130500000Y-84400000D03*
X109730000Y-87400000D03*
%TO.N,/ESP32/max_data*%
X144150000Y-81400000D03*
X134250000Y-92400000D03*
%TO.N,/ESP32/max_bit_clk*%
X135350000Y-91550000D03*
X145750000Y-82600000D03*
%TO.N,/RGB_TOM_JERRY*%
X109650000Y-79000000D03*
X130500000Y-81200000D03*
%TO.N,Net-(U5-GPIO45)*%
X141950000Y-85100000D03*
%TO.N,/ESP32/max_frame_clk*%
X136445361Y-91554639D03*
X144350000Y-82950000D03*
%TO.N,/ESP32/SD_FSPIQ*%
X121275000Y-79975000D03*
X143000000Y-79550000D03*
%TO.N,/ESP32/SD_FSPICLK*%
X121250000Y-80700000D03*
X143450000Y-78300000D03*
%TO.N,/ESP32/SD_FSPID*%
X128425000Y-83175000D03*
X143820000Y-79550000D03*
%TO.N,/ESP32/SD_FSPICS*%
X128450000Y-84000000D03*
X144850000Y-79050000D03*
%TO.N,/ESP32/max_gpio*%
X133600000Y-94250000D03*
X145800000Y-81400000D03*
%TO.N,Net-(MK2-LR)*%
X148800000Y-76900000D03*
%TD*%
D15*
%TO.N,GND*%
X133300000Y-82410000D02*
X133330000Y-82410000D01*
X133800000Y-81940000D02*
X140080000Y-81940000D01*
X133330000Y-82410000D02*
X133800000Y-81940000D01*
X141120000Y-80900000D02*
X142120000Y-80900000D01*
X140120000Y-81900000D02*
X141120000Y-81900000D01*
X132100000Y-83600000D02*
X131280000Y-83600000D01*
X141120000Y-81900000D02*
X141120000Y-80900000D01*
X140080000Y-81940000D02*
X140120000Y-81900000D01*
X129299000Y-81619000D02*
X123031000Y-81619000D01*
X123031000Y-81619000D02*
X122850000Y-81800000D01*
X131280000Y-83600000D02*
X129299000Y-81619000D01*
%TO.N,/MOUSE_INT*%
X121825000Y-88175000D02*
X110300000Y-88175000D01*
X123200000Y-86800000D02*
X121825000Y-88175000D01*
X128900000Y-86800000D02*
X123200000Y-86800000D01*
%TO.N,/SDA_TOF1*%
X135300000Y-80375354D02*
X139225354Y-76450000D01*
X142650000Y-76450000D02*
X144250000Y-74850000D01*
X135300000Y-80400000D02*
X135300000Y-80375354D01*
X139225354Y-76450000D02*
X142650000Y-76450000D01*
%TO.N,/SDA_TOF3*%
X128638816Y-77200000D02*
X125500000Y-77200000D01*
X125500000Y-77200000D02*
X122750000Y-74450000D01*
X131700000Y-80800000D02*
X131700000Y-80261184D01*
X119950000Y-74450000D02*
X119050000Y-73550000D01*
X119050000Y-73550000D02*
X114650000Y-73550000D01*
X122750000Y-74450000D02*
X119950000Y-74450000D01*
X131700000Y-80261184D02*
X128638816Y-77200000D01*
X114650000Y-73550000D02*
X114300000Y-73900000D01*
%TO.N,/SCL_TOF1*%
X144950000Y-75350000D02*
X144950000Y-74650000D01*
X144150000Y-73850000D02*
X143750000Y-73850000D01*
X144950000Y-74650000D02*
X144150000Y-73850000D01*
X143050000Y-77250000D02*
X144950000Y-75350000D01*
X136100000Y-80400000D02*
X136400000Y-80400000D01*
X136400000Y-80400000D02*
X139550000Y-77250000D01*
X139550000Y-77250000D02*
X143050000Y-77250000D01*
%TO.N,/SDA_TOF2*%
X127219000Y-92781000D02*
X127219000Y-97369000D01*
X128500000Y-98650000D02*
X128500000Y-100600000D01*
X128010000Y-91990000D02*
X127219000Y-92781000D01*
X129300000Y-87450000D02*
X128010000Y-88740000D01*
X128900000Y-85200000D02*
X129300000Y-85600000D01*
X129300000Y-85600000D02*
X129300000Y-87450000D01*
X128010000Y-88740000D02*
X128010000Y-91990000D01*
X127219000Y-97369000D02*
X128500000Y-98650000D01*
%TO.N,/SDA_OLED*%
X136100000Y-82800000D02*
X136620000Y-82800000D01*
X139820000Y-86000000D02*
X144200000Y-86000000D01*
X136620000Y-82800000D02*
X139820000Y-86000000D01*
X145600000Y-87400000D02*
X145600000Y-88750000D01*
X144200000Y-86000000D02*
X145600000Y-87400000D01*
%TO.N,/MOUSE_CS*%
X109087500Y-85987500D02*
X112875000Y-82200000D01*
X128700000Y-82200000D02*
X128900000Y-82000000D01*
X112875000Y-82200000D02*
X128700000Y-82200000D01*
%TO.N,/SCL_TOF2*%
X129500000Y-100550000D02*
X129500000Y-98550000D01*
X130350000Y-97700000D02*
X130350000Y-87650000D01*
X130080000Y-87380000D02*
X130080000Y-85580000D01*
X130080000Y-85580000D02*
X129700000Y-85200000D01*
X129500000Y-98550000D02*
X130350000Y-97700000D01*
X130350000Y-87650000D02*
X130080000Y-87380000D01*
%TO.N,/SCL_OLED*%
X143502964Y-88000000D02*
X144569400Y-89066436D01*
X135300000Y-82800000D02*
X140500000Y-88000000D01*
X140500000Y-88000000D02*
X143502964Y-88000000D01*
%TO.N,/SCL_TOF3*%
X131300000Y-81060000D02*
X131300000Y-81200000D01*
X115150000Y-76300000D02*
X121300000Y-76300000D01*
X121300000Y-76300000D02*
X123400000Y-78400000D01*
X113750000Y-74900000D02*
X115150000Y-76300000D01*
X128640000Y-78400000D02*
X131300000Y-81060000D01*
X123400000Y-78400000D02*
X128640000Y-78400000D01*
%TO.N,/MOUSE_MISO*%
X111725000Y-86725000D02*
X109100000Y-86725000D01*
X128900000Y-83600000D02*
X124400000Y-83600000D01*
X121550000Y-84150000D02*
X120950000Y-83550000D01*
X120950000Y-83550000D02*
X114900000Y-83550000D01*
X114900000Y-83550000D02*
X111725000Y-86725000D01*
X123850000Y-84150000D02*
X121550000Y-84150000D01*
X124400000Y-83600000D02*
X123850000Y-84150000D01*
%TO.N,/LED_TIM*%
X142569400Y-92530538D02*
X141830538Y-92530538D01*
X136350000Y-85200000D02*
X136100000Y-85200000D01*
X137950000Y-86800000D02*
X136350000Y-85200000D01*
X137950000Y-88650000D02*
X137950000Y-86800000D01*
X141830538Y-92530538D02*
X137950000Y-88650000D01*
%TO.N,/TX_SUP*%
X135300000Y-85300000D02*
X135850000Y-85850000D01*
X141000000Y-92700000D02*
X141372836Y-92700000D01*
X135300000Y-84400000D02*
X135300000Y-85300000D01*
X136350000Y-85850000D02*
X137500000Y-87000000D01*
X137500000Y-89200000D02*
X141000000Y-92700000D01*
X135850000Y-85850000D02*
X136350000Y-85850000D01*
X137500000Y-87000000D02*
X137500000Y-89200000D01*
X141372836Y-92700000D02*
X142069400Y-93396564D01*
%TO.N,/RX_SUP*%
X136088816Y-86250000D02*
X135550000Y-86250000D01*
X137050000Y-87211184D02*
X136088816Y-86250000D01*
X137250000Y-89943189D02*
X137243189Y-89943189D01*
X137050000Y-89750000D02*
X137050000Y-87211184D01*
X134500000Y-85200000D02*
X134500000Y-84400000D01*
X137243189Y-89943189D02*
X137050000Y-89750000D01*
X141569400Y-94262589D02*
X137250000Y-89943189D01*
X135550000Y-86250000D02*
X134500000Y-85200000D01*
%TO.N,/MOUSE_CLK*%
X128588816Y-82800000D02*
X128582816Y-82794000D01*
X114200000Y-82800000D02*
X111025000Y-85975000D01*
X128261184Y-82800000D02*
X114200000Y-82800000D01*
X111025000Y-85975000D02*
X109780000Y-85975000D01*
X128582816Y-82794000D02*
X128267184Y-82794000D01*
X128267184Y-82794000D02*
X128261184Y-82800000D01*
X128900000Y-82800000D02*
X128588816Y-82800000D01*
%TO.N,/MOUSE_MOSI*%
X109730000Y-87400000D02*
X113600000Y-87400000D01*
X120150000Y-84500000D02*
X121500000Y-85850000D01*
X116500000Y-84500000D02*
X120150000Y-84500000D01*
X121500000Y-85850000D02*
X127400000Y-85850000D01*
X128469000Y-84781000D02*
X130119000Y-84781000D01*
X113600000Y-87400000D02*
X116500000Y-84500000D01*
X127400000Y-85850000D02*
X128469000Y-84781000D01*
X130119000Y-84781000D02*
X130500000Y-84400000D01*
%TO.N,/ESP32/SD_FSPIQ*%
X140162000Y-81400000D02*
X140650000Y-80912000D01*
X121531000Y-79719000D02*
X128449000Y-79719000D01*
X128449000Y-79719000D02*
X130761000Y-82031000D01*
X132169000Y-82031000D02*
X132581000Y-81619000D01*
X139100000Y-81619000D02*
X139319000Y-81400000D01*
X121275000Y-79975000D02*
X121531000Y-79719000D01*
X140650000Y-80912000D02*
X140650000Y-80750000D01*
X140650000Y-80750000D02*
X141850000Y-79550000D01*
X141850000Y-79550000D02*
X143000000Y-79550000D01*
X132581000Y-81619000D02*
X139100000Y-81619000D01*
X139319000Y-81400000D02*
X140162000Y-81400000D01*
X130761000Y-82031000D02*
X132169000Y-82031000D01*
%TO.N,/ESP32/SD_FSPICLK*%
X142600000Y-81100000D02*
X142600000Y-80750000D01*
X138950000Y-82350000D02*
X141300000Y-82350000D01*
X143381000Y-79969000D02*
X143381000Y-78369000D01*
X133750000Y-83200000D02*
X134700000Y-82250000D01*
X134700000Y-82250000D02*
X138850000Y-82250000D01*
X138850000Y-82250000D02*
X138950000Y-82350000D01*
X131350000Y-83200000D02*
X133750000Y-83200000D01*
X129500000Y-81350000D02*
X131350000Y-83200000D01*
X141950000Y-81400000D02*
X142300000Y-81400000D01*
X121811184Y-81350000D02*
X129500000Y-81350000D01*
X141600000Y-82050000D02*
X141600000Y-81750000D01*
X121250000Y-80788816D02*
X121811184Y-81350000D01*
X142300000Y-81400000D02*
X142600000Y-81100000D01*
X141300000Y-82350000D02*
X141600000Y-82050000D01*
X143381000Y-78369000D02*
X143450000Y-78300000D01*
X121250000Y-80700000D02*
X121250000Y-80788816D01*
X141600000Y-81750000D02*
X141950000Y-81400000D01*
X142600000Y-80750000D02*
X143381000Y-79969000D01*
%TD*%
M02*
