%TF.GenerationSoftware,KiCad,Pcbnew,9.0.5*%
%TF.CreationDate,2025-10-14T06:31:36+02:00*%
%TF.ProjectId,PCB_Mouse,5043425f-4d6f-4757-9365-2e6b69636164,rev?*%
%TF.SameCoordinates,Original*%
%TF.FileFunction,Soldermask,Top*%
%TF.FilePolarity,Negative*%
%FSLAX46Y46*%
G04 Gerber Fmt 4.6, Leading zero omitted, Abs format (unit mm)*
G04 Created by KiCad (PCBNEW 9.0.5) date 2025-10-14 06:31:36*
%MOMM*%
%LPD*%
G01*
G04 APERTURE LIST*
G04 Aperture macros list*
%AMRoundRect*
0 Rectangle with rounded corners*
0 $1 Rounding radius*
0 $2 $3 $4 $5 $6 $7 $8 $9 X,Y pos of 4 corners*
0 Add a 4 corners polygon primitive as box body*
4,1,4,$2,$3,$4,$5,$6,$7,$8,$9,$2,$3,0*
0 Add four circle primitives for the rounded corners*
1,1,$1+$1,$2,$3*
1,1,$1+$1,$4,$5*
1,1,$1+$1,$6,$7*
1,1,$1+$1,$8,$9*
0 Add four rect primitives between the rounded corners*
20,1,$1+$1,$2,$3,$4,$5,0*
20,1,$1+$1,$4,$5,$6,$7,0*
20,1,$1+$1,$6,$7,$8,$9,0*
20,1,$1+$1,$8,$9,$2,$3,0*%
G04 Aperture macros list end*
%ADD10RoundRect,0.135000X-0.135000X-0.185000X0.135000X-0.185000X0.135000X0.185000X-0.135000X0.185000X0*%
%ADD11RoundRect,0.135000X0.135000X0.185000X-0.135000X0.185000X-0.135000X-0.185000X0.135000X-0.185000X0*%
%ADD12RoundRect,0.140000X-0.170000X0.140000X-0.170000X-0.140000X0.170000X-0.140000X0.170000X0.140000X0*%
%ADD13RoundRect,0.140000X0.170000X-0.140000X0.170000X0.140000X-0.170000X0.140000X-0.170000X-0.140000X0*%
%ADD14RoundRect,0.135000X0.185000X-0.135000X0.185000X0.135000X-0.185000X0.135000X-0.185000X-0.135000X0*%
%ADD15RoundRect,0.147500X-0.147500X-0.172500X0.147500X-0.172500X0.147500X0.172500X-0.147500X0.172500X0*%
%ADD16R,0.600000X1.150000*%
%ADD17C,3.800000*%
%ADD18R,0.550000X0.750000*%
%ADD19R,0.600000X1.700000*%
%ADD20R,1.000000X2.700000*%
%ADD21RoundRect,0.140000X-0.140000X-0.170000X0.140000X-0.170000X0.140000X0.170000X-0.140000X0.170000X0*%
%ADD22R,0.550000X1.500000*%
%ADD23RoundRect,0.140000X0.140000X0.170000X-0.140000X0.170000X-0.140000X-0.170000X0.140000X-0.170000X0*%
%ADD24C,1.300000*%
%ADD25RoundRect,0.062500X-0.375000X-0.062500X0.375000X-0.062500X0.375000X0.062500X-0.375000X0.062500X0*%
%ADD26RoundRect,0.062500X-0.062500X-0.375000X0.062500X-0.375000X0.062500X0.375000X-0.062500X0.375000X0*%
%ADD27R,5.600000X5.600000*%
%ADD28RoundRect,0.237500X0.237500X-0.300000X0.237500X0.300000X-0.237500X0.300000X-0.237500X-0.300000X0*%
G04 APERTURE END LIST*
D10*
%TO.C,R4*%
X93890000Y-108400000D03*
X94910000Y-108400000D03*
%TD*%
D11*
%TO.C,R2*%
X114540000Y-105730000D03*
X113520000Y-105730000D03*
%TD*%
D12*
%TO.C,C3*%
X94610000Y-88340000D03*
X94610000Y-89300000D03*
%TD*%
D13*
%TO.C,C7*%
X118700000Y-106080000D03*
X118700000Y-105120000D03*
%TD*%
D14*
%TO.C,R5*%
X112280000Y-105680000D03*
X112280000Y-104660000D03*
%TD*%
D12*
%TO.C,C16*%
X122150000Y-94460000D03*
X122150000Y-95420000D03*
%TD*%
D11*
%TO.C,R1*%
X119320000Y-94500000D03*
X118300000Y-94500000D03*
%TD*%
D15*
%TO.C,D3*%
X120825000Y-107210000D03*
X121795000Y-107210000D03*
%TD*%
D16*
%TO.C,IC1*%
X112090000Y-88000000D03*
X111140000Y-88000000D03*
X110190000Y-88000000D03*
X110190000Y-90500000D03*
X112090000Y-90500000D03*
%TD*%
D13*
%TO.C,C4*%
X113530000Y-90600000D03*
X113530000Y-89640000D03*
%TD*%
D17*
%TO.C,H2*%
X117500000Y-90000000D03*
%TD*%
D13*
%TO.C,C10*%
X117700000Y-106080000D03*
X117700000Y-105120000D03*
%TD*%
D18*
%TO.C,Y1*%
X111725000Y-98190000D03*
X111725000Y-99290000D03*
X112475000Y-99290000D03*
X112475000Y-98190000D03*
%TD*%
D19*
%TO.C,J2*%
X101875000Y-91200000D03*
X100625000Y-91200000D03*
X99375000Y-91200000D03*
X98125000Y-91200000D03*
D20*
X103725000Y-88000000D03*
X96275000Y-88000000D03*
%TD*%
D13*
%TO.C,C2*%
X104890000Y-91790000D03*
X104890000Y-90830000D03*
%TD*%
D12*
%TO.C,C17*%
X114860000Y-92810000D03*
X114860000Y-93770000D03*
%TD*%
D19*
%TO.C,J1*%
X98125000Y-108800000D03*
X99375000Y-108800000D03*
X100625000Y-108800000D03*
X101875000Y-108800000D03*
D20*
X96275000Y-112000000D03*
X103725000Y-112000000D03*
%TD*%
D21*
%TO.C,C6*%
X111820000Y-101500000D03*
X112780000Y-101500000D03*
%TD*%
D22*
%TO.C,SW1*%
X109555000Y-109570000D03*
X112805000Y-109570000D03*
%TD*%
D12*
%TO.C,C13*%
X111900000Y-95980000D03*
X111900000Y-96940000D03*
%TD*%
D10*
%TO.C,R20*%
X118740000Y-107180000D03*
X119760000Y-107180000D03*
%TD*%
D23*
%TO.C,C12*%
X112780000Y-100400000D03*
X111820000Y-100400000D03*
%TD*%
D13*
%TO.C,C8*%
X119700000Y-106080000D03*
X119700000Y-105120000D03*
%TD*%
D23*
%TO.C,C5*%
X93290000Y-91990000D03*
X92330000Y-91990000D03*
%TD*%
D21*
%TO.C,C11*%
X121060000Y-105160000D03*
X122020000Y-105160000D03*
%TD*%
D24*
%TO.C,U1*%
X106675000Y-94650000D03*
X104895000Y-94650000D03*
X103115000Y-94650000D03*
X101335000Y-94650000D03*
X99555000Y-94650000D03*
X97775000Y-94650000D03*
X95995000Y-94650000D03*
X94215000Y-94650000D03*
X93325000Y-105350000D03*
X95105000Y-105350000D03*
X96885000Y-105350000D03*
X98665000Y-105350000D03*
X100445000Y-105350000D03*
X102225000Y-105350000D03*
X104005000Y-105350000D03*
X105785000Y-105350000D03*
%TD*%
D23*
%TO.C,C15*%
X122030000Y-104230000D03*
X121070000Y-104230000D03*
%TD*%
D17*
%TO.C,H1*%
X87500000Y-90000000D03*
%TD*%
D21*
%TO.C,C9*%
X111950000Y-94910000D03*
X112910000Y-94910000D03*
%TD*%
D25*
%TO.C,U2*%
X114315000Y-96560000D03*
X114315000Y-97060000D03*
X114315000Y-97560000D03*
X114315000Y-98060000D03*
X114315000Y-98560000D03*
X114315000Y-99060000D03*
X114315000Y-99560000D03*
X114315000Y-100060000D03*
X114315000Y-100560000D03*
X114315000Y-101060000D03*
X114315000Y-101560000D03*
X114315000Y-102060000D03*
D26*
X115002500Y-102747500D03*
X115502500Y-102747500D03*
X116002500Y-102747500D03*
X116502500Y-102747500D03*
X117002500Y-102747500D03*
X117502500Y-102747500D03*
X118002500Y-102747500D03*
X118502500Y-102747500D03*
X119002500Y-102747500D03*
X119502500Y-102747500D03*
X120002500Y-102747500D03*
X120502500Y-102747500D03*
D25*
X121190000Y-102060000D03*
X121190000Y-101560000D03*
X121190000Y-101060000D03*
X121190000Y-100560000D03*
X121190000Y-100060000D03*
X121190000Y-99560000D03*
X121190000Y-99060000D03*
X121190000Y-98560000D03*
X121190000Y-98060000D03*
X121190000Y-97560000D03*
X121190000Y-97060000D03*
X121190000Y-96560000D03*
D26*
X120502500Y-95872500D03*
X120002500Y-95872500D03*
X119502500Y-95872500D03*
X119002500Y-95872500D03*
X118502500Y-95872500D03*
X118002500Y-95872500D03*
X117502500Y-95872500D03*
X117002500Y-95872500D03*
X116502500Y-95872500D03*
X116002500Y-95872500D03*
X115502500Y-95872500D03*
X115002500Y-95872500D03*
D27*
X117752500Y-99310000D03*
%TD*%
D16*
%TO.C,IC2*%
X93160000Y-87750000D03*
X92210000Y-87750000D03*
X91260000Y-87750000D03*
X91260000Y-90250000D03*
X93160000Y-90250000D03*
%TD*%
D17*
%TO.C,H3*%
X87500000Y-110000000D03*
%TD*%
D10*
%TO.C,R3*%
X102730000Y-106950000D03*
X103750000Y-106950000D03*
%TD*%
D12*
%TO.C,C14*%
X108560000Y-87690000D03*
X108560000Y-88650000D03*
%TD*%
D17*
%TO.C,H4*%
X117500000Y-110000000D03*
%TD*%
D28*
%TO.C,C1*%
X106340000Y-91612500D03*
X106340000Y-89887500D03*
%TD*%
M02*
