%TF.GenerationSoftware,KiCad,Pcbnew,9.0.5*%
%TF.CreationDate,2025-10-14T06:31:36+02:00*%
%TF.ProjectId,PCB_Mouse,5043425f-4d6f-4757-9365-2e6b69636164,rev?*%
%TF.SameCoordinates,Original*%
%TF.FileFunction,Legend,Top*%
%TF.FilePolarity,Positive*%
%FSLAX46Y46*%
G04 Gerber Fmt 4.6, Leading zero omitted, Abs format (unit mm)*
G04 Created by KiCad (PCBNEW 9.0.5) date 2025-10-14 06:31:36*
%MOMM*%
%LPD*%
G01*
G04 APERTURE LIST*
%ADD10C,0.120000*%
%ADD11C,0.100000*%
%ADD12C,0.200000*%
G04 APERTURE END LIST*
D10*
%TO.C,R4*%
X94246359Y-108020000D02*
X94553641Y-108020000D01*
X94246359Y-108780000D02*
X94553641Y-108780000D01*
%TO.C,R2*%
X114183641Y-105350000D02*
X113876359Y-105350000D01*
X114183641Y-106110000D02*
X113876359Y-106110000D01*
%TO.C,C3*%
X94250000Y-88712164D02*
X94250000Y-88927836D01*
X94970000Y-88712164D02*
X94970000Y-88927836D01*
%TO.C,C7*%
X118340000Y-105707836D02*
X118340000Y-105492164D01*
X119060000Y-105707836D02*
X119060000Y-105492164D01*
%TO.C,R5*%
X111900000Y-105323641D02*
X111900000Y-105016359D01*
X112660000Y-105323641D02*
X112660000Y-105016359D01*
%TO.C,C16*%
X121790000Y-94832164D02*
X121790000Y-95047836D01*
X122510000Y-94832164D02*
X122510000Y-95047836D01*
%TO.C,R1*%
X118963641Y-94120000D02*
X118656359Y-94120000D01*
X118963641Y-94880000D02*
X118656359Y-94880000D01*
D11*
%TO.C,D3*%
X120270000Y-107210000D02*
G75*
G02*
X120170000Y-107210000I-50000J0D01*
G01*
X120170000Y-107210000D02*
G75*
G02*
X120270000Y-107210000I50000J0D01*
G01*
D12*
%TO.C,IC1*%
X109665000Y-88925000D02*
X112615000Y-88925000D01*
X109665000Y-89575000D02*
X109665000Y-88925000D01*
X112615000Y-88925000D02*
X112615000Y-89575000D01*
X112615000Y-89575000D02*
X109665000Y-89575000D01*
X112640000Y-87425000D02*
X112640000Y-88575000D01*
D10*
%TO.C,C4*%
X113170000Y-90227836D02*
X113170000Y-90012164D01*
X113890000Y-90227836D02*
X113890000Y-90012164D01*
%TO.C,C10*%
X117340000Y-105707836D02*
X117340000Y-105492164D01*
X118060000Y-105707836D02*
X118060000Y-105492164D01*
D12*
%TO.C,J2*%
X95875000Y-91000000D02*
X95875000Y-89600000D01*
X95875000Y-91000000D02*
X97500000Y-91000000D01*
X102900000Y-86750000D02*
X97100000Y-86750000D01*
X104125000Y-91000000D02*
X102500000Y-91000000D01*
X104125000Y-91000000D02*
X104125000Y-89600000D01*
D10*
%TO.C,C2*%
X104530000Y-91417836D02*
X104530000Y-91202164D01*
X105250000Y-91417836D02*
X105250000Y-91202164D01*
%TO.C,C17*%
X114500000Y-93182164D02*
X114500000Y-93397836D01*
X115220000Y-93182164D02*
X115220000Y-93397836D01*
D12*
%TO.C,J1*%
X95875000Y-109000000D02*
X95875000Y-110400000D01*
X95875000Y-109000000D02*
X97500000Y-109000000D01*
X97100000Y-113250000D02*
X102900000Y-113250000D01*
X104125000Y-109000000D02*
X102500000Y-109000000D01*
X104125000Y-109000000D02*
X104125000Y-110400000D01*
D10*
%TO.C,C6*%
X112192164Y-101140000D02*
X112407836Y-101140000D01*
X112192164Y-101860000D02*
X112407836Y-101860000D01*
D11*
%TO.C,SW1*%
X108680000Y-109570000D02*
X108680000Y-109570000D01*
X108780000Y-109570000D02*
X108780000Y-109570000D01*
D12*
X109555000Y-110670000D02*
X112780000Y-110670000D01*
X109580000Y-108470000D02*
X112780000Y-108470000D01*
D11*
X108680000Y-109570000D02*
G75*
G02*
X108780000Y-109570000I50000J0D01*
G01*
X108780000Y-109570000D02*
G75*
G02*
X108680000Y-109570000I-50000J0D01*
G01*
D10*
%TO.C,C13*%
X111540000Y-96352164D02*
X111540000Y-96567836D01*
X112260000Y-96352164D02*
X112260000Y-96567836D01*
%TO.C,R20*%
X119096359Y-106800000D02*
X119403641Y-106800000D01*
X119096359Y-107560000D02*
X119403641Y-107560000D01*
%TO.C,C12*%
X112407836Y-100040000D02*
X112192164Y-100040000D01*
X112407836Y-100760000D02*
X112192164Y-100760000D01*
%TO.C,C8*%
X119340000Y-105707836D02*
X119340000Y-105492164D01*
X120060000Y-105707836D02*
X120060000Y-105492164D01*
%TO.C,C5*%
X92917836Y-91630000D02*
X92702164Y-91630000D01*
X92917836Y-92350000D02*
X92702164Y-92350000D01*
%TO.C,C11*%
X121432164Y-104800000D02*
X121647836Y-104800000D01*
X121432164Y-105520000D02*
X121647836Y-105520000D01*
D12*
%TO.C,U1*%
X106701270Y-93687000D02*
G75*
G02*
X106566730Y-93687000I-67270J0D01*
G01*
X106566730Y-93687000D02*
G75*
G02*
X106701270Y-93687000I67270J0D01*
G01*
D10*
%TO.C,C15*%
X121657836Y-103870000D02*
X121442164Y-103870000D01*
X121657836Y-104590000D02*
X121442164Y-104590000D01*
%TO.C,C9*%
X112322164Y-94550000D02*
X112537836Y-94550000D01*
X112322164Y-95270000D02*
X112537836Y-95270000D01*
%TO.C,U2*%
X114142500Y-95700000D02*
X114617500Y-95700000D01*
X114142500Y-96175000D02*
X114142500Y-95700000D01*
X114142500Y-102920000D02*
X114142500Y-102445000D01*
X114617500Y-102920000D02*
X114142500Y-102920000D01*
X120887500Y-95700000D02*
X121362500Y-95700000D01*
X121362500Y-95700000D02*
X121362500Y-96175000D01*
X121362500Y-102445000D02*
X121362500Y-102920000D01*
X121362500Y-102920000D02*
X120887500Y-102920000D01*
X113612500Y-96560000D02*
X113282500Y-96800000D01*
X113282500Y-96320000D01*
X113612500Y-96560000D01*
G36*
X113612500Y-96560000D02*
G01*
X113282500Y-96800000D01*
X113282500Y-96320000D01*
X113612500Y-96560000D01*
G37*
D12*
%TO.C,IC2*%
X90735000Y-88675000D02*
X93685000Y-88675000D01*
X90735000Y-89325000D02*
X90735000Y-88675000D01*
X93685000Y-88675000D02*
X93685000Y-89325000D01*
X93685000Y-89325000D02*
X90735000Y-89325000D01*
X93710000Y-87175000D02*
X93710000Y-88325000D01*
D10*
%TO.C,R3*%
X103086359Y-106570000D02*
X103393641Y-106570000D01*
X103086359Y-107330000D02*
X103393641Y-107330000D01*
%TO.C,C14*%
X108200000Y-88062164D02*
X108200000Y-88277836D01*
X108920000Y-88062164D02*
X108920000Y-88277836D01*
%TO.C,C1*%
X105830000Y-90896267D02*
X105830000Y-90603733D01*
X106850000Y-90896267D02*
X106850000Y-90603733D01*
%TD*%
M02*
