M48
; DRILL file {KiCad 9.0.5} date 2025-10-14T06:31:33+0200
; FORMAT={-:-/ absolute / metric / decimal}
; #@! TF.CreationDate,2025-10-14T06:31:33+02:00
; #@! TF.GenerationSoftware,Kicad,Pcbnew,9.0.5
; #@! TF.FileFunction,Plated,1,2,PTH
FMAT,2
METRIC
; #@! TA.AperFunction,Plated,PTH,ViaDrill
T1C0.300
; #@! TA.AperFunction,Plated,PTH,ComponentDrill
T2C0.700
; #@! TA.AperFunction,Plated,PTH,ComponentDrill
T3C2.200
%
G90
G05
T1
X85.0Y-88.7
X85.1Y-105.4
X85.2Y-92.5
X85.2Y-102.1
X85.4Y-112.7
X85.8Y-107.5
X86.0Y-87.1
X86.1Y-95.7
X86.1Y-99.1
X86.4Y-94.0
X86.8Y-86.3
X87.0Y-102.0
X87.1Y-97.0
X87.9Y-106.0
X88.4Y-86.6
X88.7Y-103.8
X88.9Y-99.6
X88.9Y-112.6
X89.0Y-93.9
X89.1Y-92.5
X89.2Y-87.3
X89.2Y-96.4
X90.0Y-86.5
X90.2Y-92.0
X90.8Y-107.9
X91.2Y-109.5
X91.4Y-88.9
X91.4Y-98.9
X91.5Y-95.1
X91.5Y-103.3
X91.5Y-104.8
X91.5Y-111.8
X91.6Y-91.5
X91.6Y-92.6
X91.6Y-100.8
X91.7Y-96.9
X92.2Y-90.4
X92.2Y-104.9
X92.21Y-87.75
X92.3Y-95.1
X92.4Y-106.2
X93.0Y-108.3
X93.2Y-88.9
X93.2Y-93.8
X93.8Y-111.7
X93.89Y-108.4
X93.9Y-91.3
X93.9Y-92.8
X93.9Y-109.7
X94.0Y-90.0
X94.2Y-106.1
X94.5Y-107.6
X94.6Y-112.2
X94.91Y-108.4
X95.3Y-91.4
X95.6Y-109.0
X95.7Y-93.4
X96.4Y-89.9
X96.6Y-93.3
X96.6Y-107.7
X97.0Y-92.0
X97.3Y-108.4
X97.8Y-112.6
X98.125Y-108.8
X98.5Y-107.7
X99.0Y-106.4
X99.375Y-91.2
X99.7Y-111.5
X100.4Y-93.4
X100.5Y-106.4
X100.625Y-91.2
X100.625Y-111.0
X100.8Y-112.7
X101.2Y-110.5
X101.9Y-111.0
X102.0Y-89.9
X102.5Y-110.5
X102.5Y-112.3
X102.7Y-108.5
X102.9Y-109.5
X103.0Y-91.1
X104.0Y-90.0
X104.8Y-87.4
X104.8Y-89.6
X104.9Y-112.9
X105.8Y-88.2
X105.9Y-110.5
X107.3Y-105.4
X107.3Y-112.8
X107.6Y-88.7
X107.6Y-90.0
X107.9Y-90.9
X108.2Y-112.9
X108.7Y-94.5
X108.9Y-105.4
X109.1Y-90.0
X109.8Y-112.1
X110.0Y-89.2
X110.1Y-102.5
X110.1Y-104.1
X110.2Y-94.6
X110.2Y-95.6
X110.2Y-100.6
X110.3Y-96.9
X110.3Y-98.5
X110.3Y-107.3
X111.0Y-108.5
X111.1Y-91.9
X111.14Y-88.0
X111.2Y-89.3
X111.725Y-99.29
X111.8Y-110.5
X111.8Y-112.5
X112.0Y-109.5
X112.1Y-85.8
X112.28Y-107.3
X112.3Y-89.2
X112.475Y-98.19
X112.5Y-91.7
X112.5Y-92.3
X112.9Y-106.2
X113.1Y-91.7
X113.1Y-92.3
X113.2Y-102.5
X113.5Y-105.7
X113.561Y-108.261
X113.7Y-88.0
X114.1Y-86.8
X114.4Y-112.7
X114.661Y-107.161
X114.7Y-89.7
X114.8Y-86.2
X115.0Y-90.9
X115.1Y-87.9
X115.1Y-110.9
X115.752Y-97.31
X115.752Y-98.31
X115.752Y-99.31
X115.752Y-100.31
X115.752Y-101.31
X115.819Y-103.919
X116.1Y-86.6
X116.2Y-94.6
X116.3Y-112.6
X116.502Y-103.697
X116.752Y-97.31
X116.752Y-98.31
X116.752Y-99.31
X116.752Y-100.31
X116.752Y-101.31
X116.8Y-94.6
X116.8Y-106.2
X117.4Y-87.4
X117.5Y-92.5
X117.5Y-95.1
X117.752Y-97.31
X117.752Y-98.31
X117.752Y-99.31
X117.752Y-100.31
X117.752Y-101.31
X117.9Y-86.5
X117.9Y-107.4
X118.1Y-112.7
X118.752Y-97.31
X118.752Y-98.31
X118.752Y-99.31
X118.752Y-100.31
X118.752Y-101.31
X119.5Y-92.6
X119.7Y-106.08
X119.7Y-112.0
X119.752Y-97.31
X119.752Y-98.31
X119.752Y-99.31
X119.752Y-100.31
X119.752Y-101.31
X119.8Y-87.3
X120.3Y-111.7
X120.4Y-112.8
X120.5Y-89.4
X120.5Y-108.8
X120.51Y-95.05
X120.7Y-106.2
X120.8Y-91.2
X121.2Y-92.7
X121.3Y-87.9
X121.5Y-86.5
X121.7Y-106.2
X121.762Y-101.06
X121.795Y-107.21
X121.87Y-96.27
X122.0Y-90.4
X122.0Y-93.6
X122.0Y-110.6
X122.0Y-112.3
X122.02Y-105.16
X122.03Y-104.23
X122.4Y-108.6
T2
X93.325Y-105.35
X94.215Y-94.65
X95.105Y-105.35
X95.995Y-94.65
X96.885Y-105.35
X97.775Y-94.65
X98.665Y-105.35
X99.555Y-94.65
X100.445Y-105.35
X101.335Y-94.65
X102.225Y-105.35
X103.115Y-94.65
X104.005Y-105.35
X104.895Y-94.65
X105.785Y-105.35
X106.675Y-94.65
T3
X87.5Y-90.0
X87.5Y-110.0
X117.5Y-90.0
X117.5Y-110.0
M30
