%TF.GenerationSoftware,KiCad,Pcbnew,9.0.5*%
%TF.CreationDate,2025-10-14T06:31:36+02:00*%
%TF.ProjectId,PCB_Mouse,5043425f-4d6f-4757-9365-2e6b69636164,rev?*%
%TF.SameCoordinates,Original*%
%TF.FileFunction,Copper,L1,Top*%
%TF.FilePolarity,Positive*%
%FSLAX46Y46*%
G04 Gerber Fmt 4.6, Leading zero omitted, Abs format (unit mm)*
G04 Created by KiCad (PCBNEW 9.0.5) date 2025-10-14 06:31:36*
%MOMM*%
%LPD*%
G01*
G04 APERTURE LIST*
G04 Aperture macros list*
%AMRoundRect*
0 Rectangle with rounded corners*
0 $1 Rounding radius*
0 $2 $3 $4 $5 $6 $7 $8 $9 X,Y pos of 4 corners*
0 Add a 4 corners polygon primitive as box body*
4,1,4,$2,$3,$4,$5,$6,$7,$8,$9,$2,$3,0*
0 Add four circle primitives for the rounded corners*
1,1,$1+$1,$2,$3*
1,1,$1+$1,$4,$5*
1,1,$1+$1,$6,$7*
1,1,$1+$1,$8,$9*
0 Add four rect primitives between the rounded corners*
20,1,$1+$1,$2,$3,$4,$5,0*
20,1,$1+$1,$4,$5,$6,$7,0*
20,1,$1+$1,$6,$7,$8,$9,0*
20,1,$1+$1,$8,$9,$2,$3,0*%
G04 Aperture macros list end*
%TA.AperFunction,SMDPad,CuDef*%
%ADD10RoundRect,0.135000X-0.135000X-0.185000X0.135000X-0.185000X0.135000X0.185000X-0.135000X0.185000X0*%
%TD*%
%TA.AperFunction,SMDPad,CuDef*%
%ADD11RoundRect,0.135000X0.135000X0.185000X-0.135000X0.185000X-0.135000X-0.185000X0.135000X-0.185000X0*%
%TD*%
%TA.AperFunction,SMDPad,CuDef*%
%ADD12RoundRect,0.140000X-0.170000X0.140000X-0.170000X-0.140000X0.170000X-0.140000X0.170000X0.140000X0*%
%TD*%
%TA.AperFunction,SMDPad,CuDef*%
%ADD13RoundRect,0.140000X0.170000X-0.140000X0.170000X0.140000X-0.170000X0.140000X-0.170000X-0.140000X0*%
%TD*%
%TA.AperFunction,SMDPad,CuDef*%
%ADD14RoundRect,0.135000X0.185000X-0.135000X0.185000X0.135000X-0.185000X0.135000X-0.185000X-0.135000X0*%
%TD*%
%TA.AperFunction,SMDPad,CuDef*%
%ADD15RoundRect,0.147500X-0.147500X-0.172500X0.147500X-0.172500X0.147500X0.172500X-0.147500X0.172500X0*%
%TD*%
%TA.AperFunction,SMDPad,CuDef*%
%ADD16R,0.600000X1.150000*%
%TD*%
%TA.AperFunction,ComponentPad*%
%ADD17C,3.800000*%
%TD*%
%TA.AperFunction,SMDPad,CuDef*%
%ADD18R,0.550000X0.750000*%
%TD*%
%TA.AperFunction,SMDPad,CuDef*%
%ADD19R,0.600000X1.700000*%
%TD*%
%TA.AperFunction,SMDPad,CuDef*%
%ADD20R,1.000000X2.700000*%
%TD*%
%TA.AperFunction,SMDPad,CuDef*%
%ADD21RoundRect,0.140000X-0.140000X-0.170000X0.140000X-0.170000X0.140000X0.170000X-0.140000X0.170000X0*%
%TD*%
%TA.AperFunction,SMDPad,CuDef*%
%ADD22R,0.550000X1.500000*%
%TD*%
%TA.AperFunction,SMDPad,CuDef*%
%ADD23RoundRect,0.140000X0.140000X0.170000X-0.140000X0.170000X-0.140000X-0.170000X0.140000X-0.170000X0*%
%TD*%
%TA.AperFunction,ComponentPad*%
%ADD24C,1.300000*%
%TD*%
%TA.AperFunction,SMDPad,CuDef*%
%ADD25RoundRect,0.062500X-0.375000X-0.062500X0.375000X-0.062500X0.375000X0.062500X-0.375000X0.062500X0*%
%TD*%
%TA.AperFunction,SMDPad,CuDef*%
%ADD26RoundRect,0.062500X-0.062500X-0.375000X0.062500X-0.375000X0.062500X0.375000X-0.062500X0.375000X0*%
%TD*%
%TA.AperFunction,HeatsinkPad*%
%ADD27R,5.600000X5.600000*%
%TD*%
%TA.AperFunction,SMDPad,CuDef*%
%ADD28RoundRect,0.237500X0.237500X-0.300000X0.237500X0.300000X-0.237500X0.300000X-0.237500X-0.300000X0*%
%TD*%
%TA.AperFunction,ViaPad*%
%ADD29C,0.400000*%
%TD*%
%TA.AperFunction,Conductor*%
%ADD30C,0.160000*%
%TD*%
%TA.AperFunction,Conductor*%
%ADD31C,0.300000*%
%TD*%
G04 APERTURE END LIST*
D10*
%TO.P,R4,1*%
%TO.N,Net-(U1-MOTION)*%
X93890000Y-108400000D03*
%TO.P,R4,2*%
%TO.N,/SENSOR_INT*%
X94910000Y-108400000D03*
%TD*%
D11*
%TO.P,R2,1*%
%TO.N,+3.3V*%
X114540000Y-105730000D03*
%TO.P,R2,2*%
%TO.N,/MISO*%
X113520000Y-105730000D03*
%TD*%
D12*
%TO.P,C3,1*%
%TO.N,VDD*%
X94610000Y-88340000D03*
%TO.P,C3,2*%
%TO.N,GND*%
X94610000Y-89300000D03*
%TD*%
D13*
%TO.P,C7,1*%
%TO.N,GND*%
X118700000Y-106080000D03*
%TO.P,C7,2*%
%TO.N,+3.3V*%
X118700000Y-105120000D03*
%TD*%
D14*
%TO.P,R5,1*%
%TO.N,Net-(U1-SCLK)*%
X112280000Y-105680000D03*
%TO.P,R5,2*%
%TO.N,/SCLK*%
X112280000Y-104660000D03*
%TD*%
D12*
%TO.P,C16,1*%
%TO.N,GND*%
X122150000Y-94460000D03*
%TO.P,C16,2*%
%TO.N,+3.3V*%
X122150000Y-95420000D03*
%TD*%
D11*
%TO.P,R1,1*%
%TO.N,+3.3V*%
X119320000Y-94500000D03*
%TO.P,R1,2*%
%TO.N,/RESET*%
X118300000Y-94500000D03*
%TD*%
D15*
%TO.P,D3,1,K*%
%TO.N,Net-(D3-K)*%
X120825000Y-107210000D03*
%TO.P,D3,2,A*%
%TO.N,Net-(D3-A)*%
X121795000Y-107210000D03*
%TD*%
D16*
%TO.P,IC1,1,IN*%
%TO.N,VDD*%
X112090000Y-88000000D03*
%TO.P,IC1,2,GND*%
%TO.N,GND*%
X111140000Y-88000000D03*
%TO.P,IC1,3,EN*%
%TO.N,VDD*%
X110190000Y-88000000D03*
%TO.P,IC1,4,NC*%
%TO.N,unconnected-(IC1-NC-Pad4)*%
X110190000Y-90500000D03*
%TO.P,IC1,5,OUT*%
%TO.N,+3.3V*%
X112090000Y-90500000D03*
%TD*%
D13*
%TO.P,C4,1*%
%TO.N,+3.3V*%
X113530000Y-90600000D03*
%TO.P,C4,2*%
%TO.N,GND*%
X113530000Y-89640000D03*
%TD*%
D17*
%TO.P,H2,1,1*%
%TO.N,GND*%
X117500000Y-90000000D03*
%TD*%
D13*
%TO.P,C10,1*%
%TO.N,GND*%
X117700000Y-106080000D03*
%TO.P,C10,2*%
%TO.N,+3.3V*%
X117700000Y-105120000D03*
%TD*%
D18*
%TO.P,Y1,1,1*%
%TO.N,Net-(U2-PF0)*%
X111725000Y-98190000D03*
%TO.P,Y1,2,2*%
%TO.N,GND*%
X111725000Y-99290000D03*
%TO.P,Y1,3,3*%
%TO.N,Net-(U2-PF1)*%
X112475000Y-99290000D03*
%TO.P,Y1,4,4*%
%TO.N,GND*%
X112475000Y-98190000D03*
%TD*%
D19*
%TO.P,J2,1,1*%
%TO.N,GND*%
X101875000Y-91200000D03*
%TO.P,J2,2,2*%
%TO.N,/USART1_TX*%
X100625000Y-91200000D03*
%TO.P,J2,3,3*%
%TO.N,/USART1_RX*%
X99375000Y-91200000D03*
%TO.P,J2,4,4*%
%TO.N,VDD*%
X98125000Y-91200000D03*
D20*
%TO.P,J2,5*%
%TO.N,N/C*%
X103725000Y-88000000D03*
%TO.P,J2,6*%
X96275000Y-88000000D03*
%TD*%
D13*
%TO.P,C2,1*%
%TO.N,Net-(U1-VDDPIX)*%
X104890000Y-91790000D03*
%TO.P,C2,2*%
%TO.N,GND*%
X104890000Y-90830000D03*
%TD*%
D12*
%TO.P,C17,1*%
%TO.N,GND*%
X114860000Y-92810000D03*
%TO.P,C17,2*%
%TO.N,+3.3V*%
X114860000Y-93770000D03*
%TD*%
D19*
%TO.P,J1,1,1*%
%TO.N,GND*%
X98125000Y-108800000D03*
%TO.P,J1,2,2*%
%TO.N,/NRST*%
X99375000Y-108800000D03*
%TO.P,J1,3,3*%
%TO.N,/SWDIO*%
X100625000Y-108800000D03*
%TO.P,J1,4,4*%
%TO.N,/SWCLK*%
X101875000Y-108800000D03*
D20*
%TO.P,J1,5*%
%TO.N,N/C*%
X96275000Y-112000000D03*
%TO.P,J1,6*%
X103725000Y-112000000D03*
%TD*%
D21*
%TO.P,C6,1*%
%TO.N,GND*%
X111820000Y-101500000D03*
%TO.P,C6,2*%
%TO.N,/NRST*%
X112780000Y-101500000D03*
%TD*%
D22*
%TO.P,SW1,1,1*%
%TO.N,GND*%
X109555000Y-109570000D03*
%TO.P,SW1,2,2*%
%TO.N,/NRST*%
X112805000Y-109570000D03*
%TD*%
D12*
%TO.P,C13,1*%
%TO.N,GND*%
X111900000Y-95980000D03*
%TO.P,C13,2*%
%TO.N,Net-(U2-PF0)*%
X111900000Y-96940000D03*
%TD*%
D10*
%TO.P,R20,1*%
%TO.N,GND*%
X118740000Y-107180000D03*
%TO.P,R20,2*%
%TO.N,Net-(D3-K)*%
X119760000Y-107180000D03*
%TD*%
D23*
%TO.P,C12,1*%
%TO.N,Net-(U2-PF1)*%
X112780000Y-100400000D03*
%TO.P,C12,2*%
%TO.N,GND*%
X111820000Y-100400000D03*
%TD*%
D13*
%TO.P,C8,1*%
%TO.N,GND*%
X119700000Y-106080000D03*
%TO.P,C8,2*%
%TO.N,+3.3V*%
X119700000Y-105120000D03*
%TD*%
D23*
%TO.P,C5,1*%
%TO.N,+1V8*%
X93290000Y-91990000D03*
%TO.P,C5,2*%
%TO.N,GND*%
X92330000Y-91990000D03*
%TD*%
D21*
%TO.P,C11,1*%
%TO.N,+3.3V*%
X121060000Y-105160000D03*
%TO.P,C11,2*%
%TO.N,GND*%
X122020000Y-105160000D03*
%TD*%
D24*
%TO.P,U1,1,NC*%
%TO.N,unconnected-(U1-NC-Pad1)*%
X106675000Y-94650000D03*
%TO.P,U1,2,NC*%
%TO.N,unconnected-(U1-NC-Pad2)*%
X104895000Y-94650000D03*
%TO.P,U1,3,VDDPIX*%
%TO.N,Net-(U1-VDDPIX)*%
X103115000Y-94650000D03*
%TO.P,U1,4,VDD*%
%TO.N,+1V8*%
X101335000Y-94650000D03*
%TO.P,U1,5,VDDIO*%
%TO.N,+3.3V*%
X99555000Y-94650000D03*
%TO.P,U1,6,NC*%
%TO.N,unconnected-(U1-NC-Pad6)*%
X97775000Y-94650000D03*
%TO.P,U1,7,~{RESET}*%
%TO.N,/RESET*%
X95995000Y-94650000D03*
%TO.P,U1,8,GND*%
%TO.N,GND*%
X94215000Y-94650000D03*
%TO.P,U1,9,MOTION*%
%TO.N,Net-(U1-MOTION)*%
X93325000Y-105350000D03*
%TO.P,U1,10,SCLK*%
%TO.N,Net-(U1-SCLK)*%
X95105000Y-105350000D03*
%TO.P,U1,11,MOSI*%
%TO.N,/MOSI*%
X96885000Y-105350000D03*
%TO.P,U1,12,MISO*%
%TO.N,/MISO*%
X98665000Y-105350000D03*
%TO.P,U1,13,~{CS}*%
%TO.N,/CS*%
X100445000Y-105350000D03*
%TO.P,U1,14,NC*%
%TO.N,unconnected-(U1-NC-Pad14)*%
X102225000Y-105350000D03*
%TO.P,U1,15,LED_P*%
%TO.N,Net-(U1-LED_P)*%
X104005000Y-105350000D03*
%TO.P,U1,16,NC*%
%TO.N,unconnected-(U1-NC-Pad16)*%
X105785000Y-105350000D03*
%TD*%
D23*
%TO.P,C15,1*%
%TO.N,GND*%
X122030000Y-104230000D03*
%TO.P,C15,2*%
%TO.N,+3.3V*%
X121070000Y-104230000D03*
%TD*%
D17*
%TO.P,H1,1,1*%
%TO.N,GND*%
X87500000Y-90000000D03*
%TD*%
D21*
%TO.P,C9,1*%
%TO.N,GND*%
X111950000Y-94910000D03*
%TO.P,C9,2*%
%TO.N,+3.3V*%
X112910000Y-94910000D03*
%TD*%
D25*
%TO.P,U2,1,VBAT*%
%TO.N,+3.3V*%
X114315000Y-96560000D03*
%TO.P,U2,2,PC13*%
%TO.N,unconnected-(U2-PC13-Pad2)*%
X114315000Y-97060000D03*
%TO.P,U2,3,PC14*%
%TO.N,unconnected-(U2-PC14-Pad3)*%
X114315000Y-97560000D03*
%TO.P,U2,4,PC15*%
%TO.N,unconnected-(U2-PC15-Pad4)*%
X114315000Y-98060000D03*
%TO.P,U2,5,PF0*%
%TO.N,Net-(U2-PF0)*%
X114315000Y-98560000D03*
%TO.P,U2,6,PF1*%
%TO.N,Net-(U2-PF1)*%
X114315000Y-99060000D03*
%TO.P,U2,7,PG10*%
%TO.N,/NRST*%
X114315000Y-99560000D03*
%TO.P,U2,8,PA0*%
%TO.N,unconnected-(U2-PA0-Pad8)*%
X114315000Y-100060000D03*
%TO.P,U2,9,PA1*%
%TO.N,unconnected-(U2-PA1-Pad9)*%
X114315000Y-100560000D03*
%TO.P,U2,10,PA2*%
%TO.N,unconnected-(U2-PA2-Pad10)*%
X114315000Y-101060000D03*
%TO.P,U2,11,PA3*%
%TO.N,unconnected-(U2-PA3-Pad11)*%
X114315000Y-101560000D03*
%TO.P,U2,12,PA4*%
%TO.N,/CS*%
X114315000Y-102060000D03*
D26*
%TO.P,U2,13,PA5*%
%TO.N,/SCLK*%
X115002500Y-102747500D03*
%TO.P,U2,14,PA6*%
%TO.N,/MISO*%
X115502500Y-102747500D03*
%TO.P,U2,15,PA7*%
%TO.N,/MOSI*%
X116002500Y-102747500D03*
%TO.P,U2,16,PC4*%
%TO.N,/SENSOR_INT*%
X116502500Y-102747500D03*
%TO.P,U2,17,PB0*%
%TO.N,unconnected-(U2-PB0-Pad17)*%
X117002500Y-102747500D03*
%TO.P,U2,18,PB1*%
%TO.N,unconnected-(U2-PB1-Pad18)*%
X117502500Y-102747500D03*
%TO.P,U2,19,PB2*%
%TO.N,unconnected-(U2-PB2-Pad19)*%
X118002500Y-102747500D03*
%TO.P,U2,20,VREF+*%
%TO.N,+3.3V*%
X118502500Y-102747500D03*
%TO.P,U2,21,VDDA*%
X119002500Y-102747500D03*
%TO.P,U2,22,PB10*%
%TO.N,unconnected-(U2-PB10-Pad22)*%
X119502500Y-102747500D03*
%TO.P,U2,23,VDD*%
%TO.N,+3.3V*%
X120002500Y-102747500D03*
%TO.P,U2,24,PB11*%
%TO.N,unconnected-(U2-PB11-Pad24)*%
X120502500Y-102747500D03*
D25*
%TO.P,U2,25,PB12*%
%TO.N,unconnected-(U2-PB12-Pad25)*%
X121190000Y-102060000D03*
%TO.P,U2,26,PB13*%
%TO.N,unconnected-(U2-PB13-Pad26)*%
X121190000Y-101560000D03*
%TO.P,U2,27,PB14*%
%TO.N,Net-(D3-A)*%
X121190000Y-101060000D03*
%TO.P,U2,28,PB15*%
%TO.N,unconnected-(U2-PB15-Pad28)*%
X121190000Y-100560000D03*
%TO.P,U2,29,PC6*%
%TO.N,unconnected-(U2-PC6-Pad29)*%
X121190000Y-100060000D03*
%TO.P,U2,30,PA8*%
%TO.N,unconnected-(U2-PA8-Pad30)*%
X121190000Y-99560000D03*
%TO.P,U2,31,PA9*%
%TO.N,unconnected-(U2-PA9-Pad31)*%
X121190000Y-99060000D03*
%TO.P,U2,32,PA10*%
%TO.N,unconnected-(U2-PA10-Pad32)*%
X121190000Y-98560000D03*
%TO.P,U2,33,PA11*%
%TO.N,unconnected-(U2-PA11-Pad33)*%
X121190000Y-98060000D03*
%TO.P,U2,34,PA12*%
%TO.N,unconnected-(U2-PA12-Pad34)*%
X121190000Y-97560000D03*
%TO.P,U2,35,VDD*%
%TO.N,+3.3V*%
X121190000Y-97060000D03*
%TO.P,U2,36,PA13*%
%TO.N,/SWDIO*%
X121190000Y-96560000D03*
D26*
%TO.P,U2,37,PA14*%
%TO.N,/SWCLK*%
X120502500Y-95872500D03*
%TO.P,U2,38,PA15*%
%TO.N,unconnected-(U2-PA15-Pad38)*%
X120002500Y-95872500D03*
%TO.P,U2,39,PC10*%
%TO.N,unconnected-(U2-PC10-Pad39)*%
X119502500Y-95872500D03*
%TO.P,U2,40,PC11*%
%TO.N,unconnected-(U2-PC11-Pad40)*%
X119002500Y-95872500D03*
%TO.P,U2,41,PB3*%
%TO.N,unconnected-(U2-PB3-Pad41)*%
X118502500Y-95872500D03*
%TO.P,U2,42,PB4*%
%TO.N,unconnected-(U2-PB4-Pad42)*%
X118002500Y-95872500D03*
%TO.P,U2,43,PB5*%
%TO.N,/RESET*%
X117502500Y-95872500D03*
%TO.P,U2,44,PB6*%
%TO.N,/USART1_TX*%
X117002500Y-95872500D03*
%TO.P,U2,45,PB7*%
%TO.N,/USART1_RX*%
X116502500Y-95872500D03*
%TO.P,U2,46,PB8*%
%TO.N,unconnected-(U2-PB8-Pad46)*%
X116002500Y-95872500D03*
%TO.P,U2,47,PB9*%
%TO.N,unconnected-(U2-PB9-Pad47)*%
X115502500Y-95872500D03*
%TO.P,U2,48,VDD*%
%TO.N,+3.3V*%
X115002500Y-95872500D03*
D27*
%TO.P,U2,49,VSS*%
%TO.N,GND*%
X117752500Y-99310000D03*
%TD*%
D16*
%TO.P,IC2,1,IN*%
%TO.N,VDD*%
X93160000Y-87750000D03*
%TO.P,IC2,2,GND*%
%TO.N,GND*%
X92210000Y-87750000D03*
%TO.P,IC2,3,EN*%
%TO.N,VDD*%
X91260000Y-87750000D03*
%TO.P,IC2,4,NC*%
%TO.N,unconnected-(IC2-NC-Pad4)*%
X91260000Y-90250000D03*
%TO.P,IC2,5,OUT*%
%TO.N,+1V8*%
X93160000Y-90250000D03*
%TD*%
D17*
%TO.P,H3,1,1*%
%TO.N,GND*%
X87500000Y-110000000D03*
%TD*%
D10*
%TO.P,R3,1*%
%TO.N,+1V8*%
X102730000Y-106950000D03*
%TO.P,R3,2*%
%TO.N,Net-(U1-LED_P)*%
X103750000Y-106950000D03*
%TD*%
D12*
%TO.P,C14,1*%
%TO.N,VDD*%
X108560000Y-87690000D03*
%TO.P,C14,2*%
%TO.N,GND*%
X108560000Y-88650000D03*
%TD*%
D17*
%TO.P,H4,1,1*%
%TO.N,GND*%
X117500000Y-110000000D03*
%TD*%
D28*
%TO.P,C1,1*%
%TO.N,Net-(U1-VDDPIX)*%
X106340000Y-91612500D03*
%TO.P,C1,2*%
%TO.N,GND*%
X106340000Y-89887500D03*
%TD*%
D29*
%TO.N,GND*%
X116800000Y-106200000D03*
X100500000Y-106400000D03*
X99000000Y-106400000D03*
X112900000Y-106200000D03*
X110300000Y-107300000D03*
X102700000Y-108500000D03*
X112000000Y-109500000D03*
X102900000Y-109500000D03*
X102500000Y-110500000D03*
X111800000Y-110500000D03*
X105900000Y-110500000D03*
X94200000Y-106100000D03*
%TO.N,/SENSOR_INT*%
X94910000Y-108400000D03*
%TO.N,Net-(U1-MOTION)*%
X93890000Y-108400000D03*
%TO.N,GND*%
X120300000Y-111700000D03*
X122000000Y-112300000D03*
X118752500Y-97310000D03*
X113560588Y-108260588D03*
X96600000Y-107700000D03*
X88900000Y-112600000D03*
X108200000Y-112900000D03*
X114800000Y-86200000D03*
X110000000Y-89200000D03*
X85100000Y-105400000D03*
X97800000Y-112600000D03*
X93900000Y-92800000D03*
X111140000Y-88000000D03*
X91500000Y-104800000D03*
X91200000Y-109500000D03*
X111725000Y-99290000D03*
X121700000Y-106200000D03*
X92210000Y-87750000D03*
X118752500Y-100310000D03*
X85200000Y-92500000D03*
X118752500Y-99310000D03*
X104000000Y-90000000D03*
X91400000Y-98900000D03*
X115752500Y-97310000D03*
X115752500Y-98310000D03*
X105800000Y-88200000D03*
X104900000Y-112900000D03*
X117752500Y-98310000D03*
X117752500Y-97310000D03*
X110200000Y-94600000D03*
X112300000Y-89200000D03*
X116752500Y-100310000D03*
X119752500Y-100310000D03*
X85200000Y-102100000D03*
X115100000Y-110900000D03*
X119700000Y-106080000D03*
X93800000Y-111700000D03*
X122000000Y-110600000D03*
X121200000Y-92700000D03*
X120800000Y-91200000D03*
X107600000Y-90000000D03*
X116100000Y-86600000D03*
X111000000Y-108500000D03*
X107600000Y-88700000D03*
X85800000Y-107500000D03*
X110200000Y-100600000D03*
X117500000Y-92500000D03*
X94600000Y-112200000D03*
X87100000Y-97000000D03*
X97000000Y-92000000D03*
X102500000Y-112300000D03*
X90000000Y-86500000D03*
X91600000Y-91500000D03*
X115752500Y-99310000D03*
X110300000Y-98500000D03*
X120500000Y-108800000D03*
X99700000Y-111500000D03*
X86100000Y-95700000D03*
X119752500Y-101310000D03*
X107300000Y-105400000D03*
X110100000Y-104100000D03*
X122000000Y-93600000D03*
X111100000Y-91900000D03*
X85000000Y-88700000D03*
X87000000Y-102000000D03*
X98500000Y-107700000D03*
X95600000Y-109000000D03*
X122000000Y-90400000D03*
X119500000Y-92600000D03*
X92400000Y-106200000D03*
X119800000Y-87300000D03*
X107900000Y-90900000D03*
X117752500Y-101310000D03*
X101200000Y-110500000D03*
X93200000Y-93800000D03*
X98125000Y-108800000D03*
X89100000Y-92500000D03*
X90800000Y-107900000D03*
X116752500Y-97310000D03*
X116752500Y-99310000D03*
X118752500Y-98310000D03*
X97300000Y-108400000D03*
X117400000Y-87400000D03*
X117900000Y-86500000D03*
X110200000Y-95600000D03*
X113700000Y-88000000D03*
X91400000Y-88900000D03*
X91500000Y-103300000D03*
X91500000Y-111800000D03*
X117752500Y-99310000D03*
X108900000Y-105400000D03*
X93900000Y-91300000D03*
X100800000Y-112700000D03*
X93900000Y-109700000D03*
X96600000Y-93300000D03*
X104800000Y-87400000D03*
X86000000Y-87100000D03*
X91600000Y-100800000D03*
X121500000Y-86500000D03*
X122030000Y-104230000D03*
X109800000Y-112100000D03*
X90200000Y-92000000D03*
X91600000Y-92600000D03*
X89000000Y-93900000D03*
X119752500Y-97310000D03*
X108700000Y-94500000D03*
X110100000Y-102500000D03*
X114400000Y-112700000D03*
X112475000Y-98190000D03*
X119752500Y-99310000D03*
X122020000Y-105160000D03*
X103000000Y-91100000D03*
X86400000Y-94000000D03*
X93200000Y-88900000D03*
X86100000Y-99100000D03*
X109100000Y-90000000D03*
X94500000Y-107600000D03*
X95700000Y-93400000D03*
X94000000Y-90000000D03*
X115100000Y-87900000D03*
X118100000Y-112700000D03*
X86800000Y-86300000D03*
X85400000Y-112700000D03*
X110300000Y-96900000D03*
X112100000Y-85800000D03*
X114660588Y-107160588D03*
X116752500Y-101310000D03*
X115000000Y-90900000D03*
X120500000Y-89400000D03*
X91500000Y-95100000D03*
X88700000Y-103800000D03*
X102000000Y-89900000D03*
X107300000Y-112800000D03*
X115752500Y-100310000D03*
X116752500Y-98310000D03*
X92300000Y-95100000D03*
X92200000Y-90400000D03*
X118752500Y-101310000D03*
X93000000Y-108300000D03*
X96400000Y-89900000D03*
X119700000Y-112000000D03*
X122400000Y-108600000D03*
X95300000Y-91400000D03*
X117900000Y-107400000D03*
X119752500Y-98310000D03*
X120400000Y-112800000D03*
X114100000Y-86800000D03*
X104800000Y-89600000D03*
X88900000Y-99600000D03*
X114700000Y-89700000D03*
X120700000Y-106200000D03*
X89200000Y-96400000D03*
X89200000Y-87300000D03*
X116300000Y-112600000D03*
X117752500Y-100310000D03*
X111800000Y-112500000D03*
X88400000Y-86600000D03*
X92200000Y-104900000D03*
X87900000Y-106000000D03*
X111200000Y-89300000D03*
X121300000Y-87900000D03*
X115752500Y-101310000D03*
X91700000Y-96900000D03*
%TO.N,+3.3V*%
X113100000Y-91700000D03*
X112500000Y-91700000D03*
X112500000Y-92300000D03*
X113100000Y-92300000D03*
%TO.N,Net-(D3-A)*%
X121761679Y-101060000D03*
X121795000Y-107210000D03*
%TO.N,/SWCLK*%
X101900000Y-111000000D03*
X120510000Y-95050000D03*
%TO.N,/SWDIO*%
X121870000Y-96270000D03*
X100625000Y-111000000D03*
%TO.N,/USART1_TX*%
X100625000Y-91200000D03*
X116800000Y-94600000D03*
%TO.N,/USART1_RX*%
X116199997Y-94600000D03*
X99375000Y-91200000D03*
%TO.N,/RESET*%
X100400000Y-93400000D03*
X117500000Y-95100000D03*
%TO.N,/MISO*%
X113500000Y-105700000D03*
%TO.N,Net-(U1-SCLK)*%
X112280000Y-107300000D03*
%TO.N,/SENSOR_INT*%
X116502500Y-103697500D03*
%TO.N,/CS*%
X113200000Y-102500000D03*
%TO.N,/MOSI*%
X115819412Y-103919412D03*
%TD*%
D30*
%TO.N,Net-(U1-SCLK)*%
X112280000Y-107300000D02*
X112280000Y-105680000D01*
D31*
%TO.N,+3.3V*%
X121190000Y-97060000D02*
X122160000Y-97060000D01*
X122450000Y-95750000D02*
X122150000Y-95450000D01*
X119320000Y-93980000D02*
X119500000Y-93800000D01*
X122450000Y-96770000D02*
X122450000Y-95750000D01*
X112190000Y-90600000D02*
X112090000Y-90500000D01*
X115002500Y-93912500D02*
X114860000Y-93770000D01*
X122160000Y-97060000D02*
X122450000Y-96770000D01*
X122150000Y-95450000D02*
X122150000Y-95420000D01*
X119320000Y-94500000D02*
X119320000Y-93980000D01*
%TO.N,+1V8*%
X92120000Y-106950000D02*
X90720000Y-105550000D01*
X101000000Y-92700000D02*
X101335000Y-93035000D01*
X94740000Y-91990000D02*
X95450000Y-92700000D01*
X93160000Y-91860000D02*
X93290000Y-91990000D01*
X93290000Y-91990000D02*
X94740000Y-91990000D01*
X90720000Y-105550000D02*
X90720000Y-94940000D01*
X93290000Y-92370000D02*
X93290000Y-91990000D01*
X90720000Y-94940000D02*
X93290000Y-92370000D01*
X101335000Y-93035000D02*
X101335000Y-94650000D01*
X102730000Y-106950000D02*
X92120000Y-106950000D01*
X93160000Y-90250000D02*
X93160000Y-91860000D01*
X95450000Y-92700000D02*
X101000000Y-92700000D01*
D30*
%TO.N,/NRST*%
X109800000Y-105700000D02*
X107900000Y-107600000D01*
X112780000Y-101500000D02*
X112780000Y-101760000D01*
X107900000Y-107600000D02*
X100000000Y-107600000D01*
X112805000Y-108705000D02*
X112805000Y-109570000D01*
X112940000Y-101660000D02*
X112780000Y-101500000D01*
X111870000Y-103630000D02*
X109800000Y-105700000D01*
X112940000Y-101340000D02*
X112940000Y-101660000D01*
X100000000Y-107600000D02*
X99375000Y-108225000D01*
X109850000Y-105750000D02*
X112805000Y-108705000D01*
X109800000Y-105700000D02*
X109850000Y-105750000D01*
X99375000Y-108225000D02*
X99375000Y-108800000D01*
X113740000Y-99560000D02*
X113400000Y-99900000D01*
X113400000Y-99900000D02*
X113400000Y-100880000D01*
X113400000Y-100880000D02*
X112940000Y-101340000D01*
X111870000Y-102670000D02*
X111870000Y-103630000D01*
X114315000Y-99560000D02*
X113740000Y-99560000D01*
X112780000Y-101760000D02*
X111870000Y-102670000D01*
%TO.N,Net-(U2-PF1)*%
X112500000Y-99700000D02*
X112780000Y-99980000D01*
X114315000Y-99060000D02*
X112705000Y-99060000D01*
X112705000Y-99060000D02*
X112475000Y-99290000D01*
X112500000Y-99315000D02*
X112500000Y-99700000D01*
X112475000Y-99290000D02*
X112500000Y-99315000D01*
X112780000Y-99980000D02*
X112780000Y-100400000D01*
%TO.N,Net-(U2-PF0)*%
X113460000Y-98560000D02*
X114315000Y-98560000D01*
X111840000Y-96940000D02*
X111900000Y-96940000D01*
X111900000Y-97915000D02*
X111900000Y-97000000D01*
X112640000Y-96940000D02*
X113100000Y-97400000D01*
X111900000Y-96940000D02*
X112640000Y-96940000D01*
X111725000Y-98190000D02*
X111625000Y-98190000D01*
X113100000Y-97400000D02*
X113100000Y-98200000D01*
X111625000Y-98190000D02*
X111900000Y-97915000D01*
X113100000Y-98200000D02*
X113460000Y-98560000D01*
X111900000Y-97000000D02*
X111840000Y-96940000D01*
%TO.N,Net-(D3-A)*%
X121761679Y-101060000D02*
X121190000Y-101060000D01*
%TO.N,Net-(D3-K)*%
X120795000Y-107180000D02*
X120825000Y-107210000D01*
X119760000Y-107180000D02*
X120795000Y-107180000D01*
%TO.N,/SWCLK*%
X120502500Y-95057500D02*
X120510000Y-95050000D01*
X120502500Y-95872500D02*
X120502500Y-95057500D01*
X101875000Y-108800000D02*
X101875000Y-110975000D01*
X101875000Y-110975000D02*
X101900000Y-111000000D01*
X120510000Y-95050000D02*
X120596034Y-95136034D01*
%TO.N,/SWDIO*%
X121870000Y-96390000D02*
X121700000Y-96560000D01*
X121700000Y-96560000D02*
X121190000Y-96560000D01*
X100625000Y-108800000D02*
X100625000Y-111000000D01*
X121870000Y-96270000D02*
X121870000Y-96390000D01*
%TO.N,/USART1_TX*%
X117002500Y-94802500D02*
X117002500Y-95872500D01*
X116800000Y-94600000D02*
X117002500Y-94802500D01*
%TO.N,/USART1_RX*%
X116199997Y-94600000D02*
X116200000Y-94600000D01*
X116319000Y-94799236D02*
X116502500Y-94982736D01*
X116502500Y-94982736D02*
X116502500Y-95872500D01*
X116200000Y-94600000D02*
X116319000Y-94719000D01*
X116319000Y-94719000D02*
X116319000Y-94799236D01*
%TO.N,/RESET*%
X95995000Y-94650000D02*
X97245000Y-93400000D01*
X118100000Y-94500000D02*
X117500000Y-95100000D01*
X97245000Y-93400000D02*
X100400000Y-93400000D01*
X118300000Y-94500000D02*
X118100000Y-94500000D01*
X117502500Y-95102500D02*
X117500000Y-95100000D01*
X117502500Y-95872500D02*
X117502500Y-95102500D01*
%TO.N,/MISO*%
X114340000Y-104720000D02*
X113700000Y-104720000D01*
X115502500Y-102747500D02*
X115502500Y-103557500D01*
X115502500Y-103557500D02*
X114340000Y-104720000D01*
X113700000Y-104720000D02*
X113520000Y-104900000D01*
X113520000Y-104900000D02*
X113520000Y-105730000D01*
%TO.N,/SCLK*%
X114020000Y-104310000D02*
X112630000Y-104310000D01*
X115002500Y-102747500D02*
X115002500Y-103327500D01*
X112630000Y-104310000D02*
X112280000Y-104660000D01*
X115002500Y-103327500D02*
X114020000Y-104310000D01*
%TO.N,/SENSOR_INT*%
X116502500Y-102747500D02*
X116502500Y-103697500D01*
X116500000Y-103700000D02*
X116502500Y-103697500D01*
%TO.N,/CS*%
X114315000Y-102060000D02*
X113640000Y-102060000D01*
X113640000Y-102060000D02*
X113200000Y-102500000D01*
%TO.N,/MOSI*%
X115800000Y-103900000D02*
X115819412Y-103919412D01*
X116002500Y-103697500D02*
X115800000Y-103900000D01*
X116002500Y-102747500D02*
X116002500Y-103697500D01*
%TD*%
%TA.AperFunction,Conductor*%
%TO.N,VDD*%
G36*
X111035530Y-85490185D02*
G01*
X111067123Y-85519349D01*
X112375148Y-87236132D01*
X112474634Y-87366707D01*
X112499605Y-87431962D01*
X112500000Y-87441856D01*
X112500000Y-88476000D01*
X112480315Y-88543039D01*
X112427511Y-88588794D01*
X112376000Y-88600000D01*
X111824000Y-88600000D01*
X111756961Y-88580315D01*
X111711206Y-88527511D01*
X111700000Y-88476000D01*
X111700000Y-87400000D01*
X111687232Y-87387232D01*
X111663675Y-87380315D01*
X111627612Y-87344891D01*
X111584552Y-87280447D01*
X111518230Y-87236132D01*
X111518229Y-87236131D01*
X111459752Y-87224500D01*
X111459748Y-87224500D01*
X110820252Y-87224500D01*
X110820247Y-87224500D01*
X110761770Y-87236131D01*
X110761769Y-87236132D01*
X110695447Y-87280447D01*
X110652388Y-87344891D01*
X110633398Y-87360760D01*
X110636319Y-87363681D01*
X110600000Y-87400000D01*
X110600000Y-88576000D01*
X110580315Y-88643039D01*
X110527511Y-88688794D01*
X110476000Y-88700000D01*
X109772298Y-88700000D01*
X109705259Y-88680315D01*
X109664386Y-88637082D01*
X109400000Y-88170000D01*
X108781319Y-88170000D01*
X108773571Y-88169983D01*
X108769901Y-88169500D01*
X108550741Y-88169500D01*
X108550501Y-88169500D01*
X108550480Y-88169493D01*
X108545546Y-88169390D01*
X106934082Y-88101437D01*
X106871447Y-88081331D01*
X104300000Y-86400000D01*
X104299999Y-86400000D01*
X102900000Y-86400000D01*
X102900000Y-89001908D01*
X102880315Y-89068947D01*
X102827511Y-89114702D01*
X102804542Y-89122578D01*
X98695277Y-90094538D01*
X98695276Y-90094539D01*
X98699721Y-92075722D01*
X98680187Y-92142805D01*
X98627485Y-92188679D01*
X98575721Y-92200000D01*
X97699940Y-92200000D01*
X97632901Y-92180315D01*
X97587146Y-92127511D01*
X97578770Y-92102341D01*
X97102830Y-89913018D01*
X97100000Y-89886677D01*
X97100000Y-86400000D01*
X95400000Y-86400000D01*
X95400000Y-88696000D01*
X95380315Y-88763039D01*
X95327511Y-88808794D01*
X95276000Y-88820000D01*
X94831275Y-88820000D01*
X94823550Y-88819980D01*
X94819901Y-88819500D01*
X94633415Y-88819500D01*
X94633240Y-88819500D01*
X94632594Y-88819308D01*
X94585941Y-88809995D01*
X93600002Y-88400001D01*
X93600000Y-88400000D01*
X93599997Y-88400000D01*
X92834500Y-88400000D01*
X92767461Y-88380315D01*
X92721706Y-88327511D01*
X92710500Y-88276000D01*
X92710500Y-87155251D01*
X92710499Y-87155248D01*
X92702383Y-87114443D01*
X92700000Y-87090252D01*
X92700000Y-87000000D01*
X92646374Y-87000000D01*
X92598919Y-86990560D01*
X92588229Y-86986131D01*
X92529752Y-86974500D01*
X92529748Y-86974500D01*
X91890252Y-86974500D01*
X91890247Y-86974500D01*
X91831770Y-86986131D01*
X91821081Y-86990560D01*
X91773626Y-87000000D01*
X91600000Y-87000000D01*
X91600000Y-88276000D01*
X91580315Y-88343039D01*
X91527511Y-88388794D01*
X91476000Y-88400000D01*
X91024000Y-88400000D01*
X90956961Y-88380315D01*
X90911206Y-88327511D01*
X90900000Y-88276000D01*
X90900000Y-87312278D01*
X90902408Y-87287960D01*
X91245964Y-85570182D01*
X91278414Y-85508304D01*
X91339166Y-85473794D01*
X91367556Y-85470500D01*
X110968491Y-85470500D01*
X111035530Y-85490185D01*
G37*
%TD.AperFunction*%
%TD*%
%TA.AperFunction,Conductor*%
%TO.N,+3.3V*%
G36*
X120510771Y-93319685D02*
G01*
X120537051Y-93342344D01*
X120606802Y-93422059D01*
X121609169Y-94567622D01*
X121638500Y-94631037D01*
X121639220Y-94637766D01*
X121639501Y-94639900D01*
X121646028Y-94689487D01*
X121646029Y-94689489D01*
X121646029Y-94689490D01*
X121696776Y-94798316D01*
X121781684Y-94883224D01*
X121890513Y-94933972D01*
X121940099Y-94940500D01*
X122359900Y-94940499D01*
X122409487Y-94933972D01*
X122409491Y-94933969D01*
X122418596Y-94931317D01*
X122418855Y-94932206D01*
X122422440Y-94931486D01*
X122431304Y-94926279D01*
X122466407Y-94922656D01*
X122580456Y-94927218D01*
X122646655Y-94949566D01*
X122690263Y-95004157D01*
X122699500Y-95051119D01*
X122699500Y-103332531D01*
X122679815Y-103399570D01*
X122633853Y-103441943D01*
X122151440Y-103699231D01*
X122148545Y-103700726D01*
X122137184Y-103706407D01*
X122081727Y-103719500D01*
X121850105Y-103719500D01*
X121834386Y-103721569D01*
X121800513Y-103726028D01*
X121800511Y-103726029D01*
X121800509Y-103726029D01*
X121691683Y-103776776D01*
X121606776Y-103861683D01*
X121606776Y-103861684D01*
X121556028Y-103970513D01*
X121552297Y-103998851D01*
X121550000Y-104000000D01*
X121539932Y-104002684D01*
X121539931Y-104002684D01*
X120800000Y-104200000D01*
X120400000Y-103400000D01*
X120900000Y-103400000D01*
X121900000Y-102300000D01*
X121900000Y-101514189D01*
X121919685Y-101447150D01*
X121961998Y-101406803D01*
X122007592Y-101380480D01*
X122082159Y-101305913D01*
X122134886Y-101214587D01*
X122162179Y-101112727D01*
X122162179Y-101007273D01*
X122134886Y-100905413D01*
X122082159Y-100814087D01*
X122007592Y-100739520D01*
X121982228Y-100724876D01*
X121961998Y-100713196D01*
X121913784Y-100662628D01*
X121900000Y-100605810D01*
X121900000Y-96808048D01*
X121908643Y-96778611D01*
X121915167Y-96748622D01*
X121918922Y-96743605D01*
X121919685Y-96741009D01*
X121936318Y-96720368D01*
X121988185Y-96668500D01*
X122018219Y-96648435D01*
X122017547Y-96647271D01*
X122024585Y-96643207D01*
X122024587Y-96643207D01*
X122115913Y-96590480D01*
X122190480Y-96515913D01*
X122243207Y-96424587D01*
X122270500Y-96322727D01*
X122270500Y-96217273D01*
X122243207Y-96115413D01*
X122190480Y-96024087D01*
X122136318Y-95969925D01*
X122102834Y-95908601D01*
X122102408Y-95904648D01*
X122100000Y-95900000D01*
X120962991Y-95097404D01*
X120919574Y-95042662D01*
X120912280Y-95005238D01*
X120911561Y-95005333D01*
X120910500Y-94997280D01*
X120910500Y-94997273D01*
X120883207Y-94895413D01*
X120830480Y-94804087D01*
X120755913Y-94729520D01*
X120664587Y-94676793D01*
X120562727Y-94649500D01*
X120457273Y-94649500D01*
X120457271Y-94649500D01*
X120385685Y-94668681D01*
X120315835Y-94667018D01*
X120308650Y-94664475D01*
X118600000Y-94000000D01*
X118580832Y-94000000D01*
X118528426Y-93988381D01*
X118523178Y-93985933D01*
X118523169Y-93985931D01*
X118474317Y-93979500D01*
X118474316Y-93979500D01*
X118125684Y-93979500D01*
X118125683Y-93979500D01*
X118076830Y-93985931D01*
X118076821Y-93985933D01*
X118071574Y-93988381D01*
X118060570Y-93990820D01*
X118054103Y-93994977D01*
X118019168Y-94000000D01*
X118000000Y-94000000D01*
X118000000Y-93300000D01*
X118600000Y-93300000D01*
X118600166Y-93300000D01*
X120443732Y-93300000D01*
X120510771Y-93319685D01*
G37*
%TD.AperFunction*%
%TD*%
%TA.AperFunction,Conductor*%
%TO.N,+3.3V*%
G36*
X112428591Y-89916338D02*
G01*
X112617000Y-90024000D01*
X113100000Y-90300000D01*
X113676000Y-90300000D01*
X113743039Y-90319685D01*
X113788794Y-90372489D01*
X113800000Y-90424000D01*
X113800000Y-92700000D01*
X114105083Y-92999999D01*
X114399998Y-93289999D01*
X114400000Y-93290000D01*
X114638412Y-93290000D01*
X114646523Y-93290266D01*
X114650090Y-93290498D01*
X114650099Y-93290500D01*
X115046646Y-93290499D01*
X118600000Y-93300000D01*
X118000000Y-93300000D01*
X118000000Y-94000000D01*
X115800000Y-94000000D01*
X115200000Y-94899999D01*
X115200000Y-95351531D01*
X115193793Y-95382737D01*
X115194642Y-95382906D01*
X115177000Y-95471596D01*
X115177000Y-95471598D01*
X115177000Y-95471599D01*
X115177000Y-95849863D01*
X115177001Y-96176000D01*
X115157317Y-96243039D01*
X115104513Y-96288794D01*
X115053001Y-96300000D01*
X114800000Y-96300000D01*
X114800000Y-96339727D01*
X114780315Y-96406766D01*
X114779103Y-96408617D01*
X114763632Y-96431771D01*
X114763631Y-96431771D01*
X114752000Y-96490247D01*
X114752000Y-96610500D01*
X114732315Y-96677539D01*
X114679511Y-96723294D01*
X114628000Y-96734500D01*
X113914102Y-96734500D01*
X113837381Y-96749760D01*
X113803046Y-96772702D01*
X113793468Y-96779102D01*
X113726793Y-96799980D01*
X113724579Y-96800000D01*
X113352599Y-96800000D01*
X113285560Y-96780315D01*
X113263444Y-96762183D01*
X112464845Y-95936046D01*
X112432405Y-95874164D01*
X112430000Y-95849863D01*
X112430000Y-95131590D01*
X112430265Y-95123481D01*
X112430497Y-95119921D01*
X112430500Y-95119901D01*
X112430499Y-94700100D01*
X112423972Y-94650513D01*
X112373224Y-94541684D01*
X112373223Y-94541683D01*
X112373223Y-94541682D01*
X112367002Y-94532798D01*
X112370342Y-94530458D01*
X112346895Y-94487517D01*
X112346394Y-94485099D01*
X112258355Y-94037670D01*
X111702333Y-91211856D01*
X111700000Y-91187916D01*
X111700000Y-90024000D01*
X111719685Y-89956961D01*
X111772489Y-89911206D01*
X111824000Y-89900000D01*
X112367070Y-89900000D01*
X112428591Y-89916338D01*
G37*
%TD.AperFunction*%
%TD*%
%TA.AperFunction,Conductor*%
%TO.N,Net-(U1-VDDPIX)*%
G36*
X107081631Y-90744619D02*
G01*
X107147707Y-90767327D01*
X107191017Y-90822154D01*
X107200000Y-90868491D01*
X107200000Y-92322314D01*
X107180315Y-92389353D01*
X107130098Y-92433891D01*
X103900000Y-94000000D01*
X103900000Y-94976000D01*
X103880315Y-95043039D01*
X103827511Y-95088794D01*
X103776000Y-95100000D01*
X102624000Y-95100000D01*
X102556961Y-95080315D01*
X102511206Y-95027511D01*
X102500000Y-94976000D01*
X102500000Y-94239738D01*
X102519685Y-94172699D01*
X102523097Y-94167664D01*
X103841204Y-92322314D01*
X104467343Y-91445718D01*
X104522326Y-91402610D01*
X104555904Y-91394409D01*
X105400000Y-91310000D01*
X106062541Y-90732642D01*
X106126014Y-90703440D01*
X106149633Y-90702256D01*
X107081631Y-90744619D01*
G37*
%TD.AperFunction*%
%TD*%
%TA.AperFunction,Conductor*%
%TO.N,+3.3V*%
G36*
X119120039Y-102330185D02*
G01*
X119165794Y-102382989D01*
X119177000Y-102434500D01*
X119177000Y-103148397D01*
X119177001Y-103148400D01*
X119192259Y-103225114D01*
X119194643Y-103237096D01*
X119193792Y-103237265D01*
X119200000Y-103268467D01*
X119200000Y-103300000D01*
X119300000Y-103400000D01*
X119499999Y-103400000D01*
X119500000Y-103400000D01*
X119500000Y-103399999D01*
X119512216Y-103394939D01*
X119559671Y-103385499D01*
X119590900Y-103385499D01*
X119667617Y-103370240D01*
X119754612Y-103312112D01*
X119812740Y-103225117D01*
X119828000Y-103148401D01*
X119827999Y-102434499D01*
X119830549Y-102425813D01*
X119829261Y-102416853D01*
X119840238Y-102392816D01*
X119847683Y-102367461D01*
X119854525Y-102361532D01*
X119858286Y-102353297D01*
X119880517Y-102339010D01*
X119900487Y-102321706D01*
X119911002Y-102319418D01*
X119917064Y-102315523D01*
X119951999Y-102310500D01*
X120053000Y-102310500D01*
X120120039Y-102330185D01*
X120165794Y-102382989D01*
X120177000Y-102434500D01*
X120177000Y-103148397D01*
X120192260Y-103225118D01*
X120192261Y-103225120D01*
X120221225Y-103268467D01*
X120250388Y-103312112D01*
X120315485Y-103355608D01*
X120337381Y-103370239D01*
X120337383Y-103370240D01*
X120341501Y-103371059D01*
X120384783Y-103393697D01*
X120400000Y-103400000D01*
X120800000Y-104200000D01*
X121539930Y-104002685D01*
X121503022Y-105479099D01*
X121481668Y-105545626D01*
X121427737Y-105590046D01*
X121379061Y-105600000D01*
X119921588Y-105600000D01*
X119913477Y-105599734D01*
X119909907Y-105599500D01*
X119490095Y-105599500D01*
X119486542Y-105599734D01*
X119478430Y-105600000D01*
X118921588Y-105600000D01*
X118913477Y-105599734D01*
X118909907Y-105599500D01*
X118490095Y-105599500D01*
X118486542Y-105599734D01*
X118478430Y-105600000D01*
X117921588Y-105600000D01*
X117913477Y-105599734D01*
X117909907Y-105599500D01*
X117490105Y-105599500D01*
X117474386Y-105601569D01*
X117440513Y-105606028D01*
X117440511Y-105606029D01*
X117440508Y-105606029D01*
X117337128Y-105654237D01*
X117304612Y-105664250D01*
X116899998Y-105730000D01*
X115014666Y-106196372D01*
X114984890Y-106200000D01*
X114164019Y-106200000D01*
X114096980Y-106180315D01*
X114051225Y-106127511D01*
X114040392Y-106066385D01*
X114093917Y-105378209D01*
X114118740Y-105312900D01*
X114173276Y-105271997D01*
X116900000Y-104230000D01*
X118300000Y-103300000D01*
X118300000Y-103280540D01*
X118309439Y-103233087D01*
X118312741Y-103225114D01*
X118327999Y-103148405D01*
X118328000Y-103148401D01*
X118327999Y-102434499D01*
X118347683Y-102367461D01*
X118400487Y-102321706D01*
X118451999Y-102310500D01*
X119053000Y-102310500D01*
X119120039Y-102330185D01*
G37*
%TD.AperFunction*%
%TD*%
%TA.AperFunction,Conductor*%
%TO.N,Net-(U1-LED_P)*%
G36*
X104833210Y-104690361D02*
G01*
X104879590Y-104742616D01*
X104891409Y-104794058D01*
X104909692Y-106402949D01*
X104899013Y-106454719D01*
X104547395Y-107245861D01*
X104502179Y-107299128D01*
X104435344Y-107319494D01*
X104434082Y-107319500D01*
X103364000Y-107319500D01*
X103296961Y-107299815D01*
X103251206Y-107247011D01*
X103240000Y-107195500D01*
X103240000Y-106949994D01*
X103211648Y-104814158D01*
X103230441Y-104746863D01*
X103282633Y-104700411D01*
X103334156Y-104688521D01*
X104765944Y-104671476D01*
X104833210Y-104690361D01*
G37*
%TD.AperFunction*%
%TD*%
%TA.AperFunction,Conductor*%
%TO.N,GND*%
G36*
X90993762Y-85489407D02*
G01*
X91029726Y-85538907D01*
X91032647Y-85588915D01*
X90974225Y-85881027D01*
X90700899Y-87247653D01*
X90700898Y-87247658D01*
X90697909Y-87267700D01*
X90697905Y-87267732D01*
X90695500Y-87292012D01*
X90695499Y-87292027D01*
X90694500Y-87312262D01*
X90694500Y-87312278D01*
X90694500Y-88276000D01*
X90696769Y-88297103D01*
X90699197Y-88319685D01*
X90710404Y-88371199D01*
X90712889Y-88381371D01*
X90712889Y-88381372D01*
X90712890Y-88381373D01*
X90755900Y-88462085D01*
X90801655Y-88514889D01*
X90801667Y-88514901D01*
X90819247Y-88532844D01*
X90819249Y-88532846D01*
X90899058Y-88577488D01*
X90899062Y-88577490D01*
X90940294Y-88589597D01*
X90966102Y-88597175D01*
X91024000Y-88605500D01*
X91024001Y-88605500D01*
X91475995Y-88605500D01*
X91476000Y-88605500D01*
X91519684Y-88600803D01*
X91571195Y-88589597D01*
X91581373Y-88587110D01*
X91662085Y-88544100D01*
X91714889Y-88498345D01*
X91732843Y-88480754D01*
X91732844Y-88480751D01*
X91732846Y-88480750D01*
X91777488Y-88400941D01*
X91777490Y-88400937D01*
X91785042Y-88375219D01*
X91797175Y-88333898D01*
X91805500Y-88276000D01*
X91805500Y-87282422D01*
X91805813Y-87281458D01*
X91805519Y-87280489D01*
X91815233Y-87252465D01*
X91824407Y-87224231D01*
X91825227Y-87223635D01*
X91825559Y-87222678D01*
X91849883Y-87205721D01*
X91873907Y-87188267D01*
X91875752Y-87187688D01*
X91878553Y-87186838D01*
X91887973Y-87184477D01*
X91900931Y-87181900D01*
X91920234Y-87180000D01*
X92406000Y-87180000D01*
X92464191Y-87198907D01*
X92500155Y-87248407D01*
X92505000Y-87279000D01*
X92505000Y-88276000D01*
X92507269Y-88297103D01*
X92509697Y-88319685D01*
X92520904Y-88371199D01*
X92523389Y-88381371D01*
X92523389Y-88381372D01*
X92523390Y-88381373D01*
X92566400Y-88462085D01*
X92612155Y-88514889D01*
X92612167Y-88514901D01*
X92629747Y-88532844D01*
X92629749Y-88532846D01*
X92709558Y-88577488D01*
X92709562Y-88577490D01*
X92750794Y-88589597D01*
X92776602Y-88597175D01*
X92834500Y-88605500D01*
X93539212Y-88605500D01*
X93577224Y-88613088D01*
X93627280Y-88633904D01*
X94507032Y-88999742D01*
X94507042Y-88999745D01*
X94545701Y-89011516D01*
X94545704Y-89011516D01*
X94545712Y-89011519D01*
X94592365Y-89020832D01*
X94592365Y-89020831D01*
X94614033Y-89025157D01*
X94618513Y-89023814D01*
X94625374Y-89023855D01*
X94633240Y-89025000D01*
X94812818Y-89025000D01*
X94813146Y-89025002D01*
X94813206Y-89025022D01*
X94819135Y-89025219D01*
X94823018Y-89025479D01*
X94830743Y-89025499D01*
X94831275Y-89025500D01*
X94831332Y-89025500D01*
X95275995Y-89025500D01*
X95276000Y-89025500D01*
X95319684Y-89020803D01*
X95371195Y-89009597D01*
X95381373Y-89007110D01*
X95428942Y-88981760D01*
X95489188Y-88971081D01*
X95544206Y-88997852D01*
X95572980Y-89051850D01*
X95574500Y-89069130D01*
X95574500Y-89369746D01*
X95574501Y-89369758D01*
X95586132Y-89428227D01*
X95586134Y-89428233D01*
X95624823Y-89486134D01*
X95630448Y-89494552D01*
X95696769Y-89538867D01*
X95741231Y-89547711D01*
X95755241Y-89550498D01*
X95755246Y-89550498D01*
X95755252Y-89550500D01*
X95755253Y-89550500D01*
X96795500Y-89550500D01*
X96853691Y-89569407D01*
X96889655Y-89618907D01*
X96894500Y-89649500D01*
X96894500Y-89886678D01*
X96895675Y-89908611D01*
X96895680Y-89908672D01*
X96898503Y-89934952D01*
X96898506Y-89934973D01*
X96902022Y-89956686D01*
X96902023Y-89956692D01*
X97377956Y-92145982D01*
X97377962Y-92146005D01*
X97383781Y-92167224D01*
X97392157Y-92192393D01*
X97392160Y-92192400D01*
X97393924Y-92195498D01*
X97396428Y-92199896D01*
X97397350Y-92201514D01*
X97409713Y-92261437D01*
X97384493Y-92317183D01*
X97331323Y-92347458D01*
X97311319Y-92349500D01*
X95636190Y-92349500D01*
X95577999Y-92330593D01*
X95566186Y-92320504D01*
X95315428Y-92069746D01*
X94955212Y-91709530D01*
X94875288Y-91663386D01*
X94786144Y-91639500D01*
X94786142Y-91639500D01*
X93772047Y-91639500D01*
X93713856Y-91620593D01*
X93702049Y-91610509D01*
X93628316Y-91536776D01*
X93628314Y-91536775D01*
X93628313Y-91536774D01*
X93567660Y-91508491D01*
X93522912Y-91466763D01*
X93510500Y-91418767D01*
X93510500Y-91085312D01*
X93529407Y-91027121D01*
X93554496Y-91002998D01*
X93604552Y-90969552D01*
X93648867Y-90903231D01*
X93660500Y-90844748D01*
X93660500Y-89655252D01*
X93648867Y-89596769D01*
X93604552Y-89530448D01*
X93550825Y-89494548D01*
X93538233Y-89486134D01*
X93538231Y-89486133D01*
X93538228Y-89486132D01*
X93538227Y-89486132D01*
X93479758Y-89474501D01*
X93479748Y-89474500D01*
X92840252Y-89474500D01*
X92840251Y-89474500D01*
X92840241Y-89474501D01*
X92781772Y-89486132D01*
X92781766Y-89486134D01*
X92715451Y-89530445D01*
X92715445Y-89530451D01*
X92671134Y-89596766D01*
X92671132Y-89596772D01*
X92659501Y-89655241D01*
X92659500Y-89655253D01*
X92659500Y-90844746D01*
X92659501Y-90844758D01*
X92671132Y-90903227D01*
X92671133Y-90903231D01*
X92715448Y-90969552D01*
X92765502Y-91002998D01*
X92803381Y-91051046D01*
X92809500Y-91085312D01*
X92809500Y-92199896D01*
X92809501Y-92199906D01*
X92816027Y-92249484D01*
X92816027Y-92249485D01*
X92816028Y-92249487D01*
X92818154Y-92254046D01*
X92825607Y-92314776D01*
X92798431Y-92365885D01*
X90439529Y-94724789D01*
X90402679Y-94788613D01*
X90402680Y-94788614D01*
X90393386Y-94804711D01*
X90388663Y-94822337D01*
X90369500Y-94893856D01*
X90369500Y-105596144D01*
X90389423Y-105670499D01*
X90389424Y-105670501D01*
X90393386Y-105685289D01*
X90393387Y-105685291D01*
X90432400Y-105752863D01*
X90439530Y-105765212D01*
X91904788Y-107230470D01*
X91931588Y-107245943D01*
X91960658Y-107262727D01*
X91960659Y-107262727D01*
X91984712Y-107276614D01*
X92073856Y-107300500D01*
X99663806Y-107300500D01*
X99721997Y-107319407D01*
X99757961Y-107368907D01*
X99757961Y-107430093D01*
X99733810Y-107469503D01*
X99482811Y-107720503D01*
X99428294Y-107748281D01*
X99412807Y-107749500D01*
X99055252Y-107749500D01*
X99055251Y-107749500D01*
X99055241Y-107749501D01*
X98996772Y-107761132D01*
X98996766Y-107761134D01*
X98930451Y-107805445D01*
X98930445Y-107805451D01*
X98886134Y-107871766D01*
X98886132Y-107871772D01*
X98874501Y-107930241D01*
X98874500Y-107930253D01*
X98874500Y-109669746D01*
X98874501Y-109669758D01*
X98886132Y-109728227D01*
X98886133Y-109728231D01*
X98930448Y-109794552D01*
X98996769Y-109838867D01*
X99029603Y-109845398D01*
X99055241Y-109850498D01*
X99055246Y-109850498D01*
X99055252Y-109850500D01*
X99055253Y-109850500D01*
X99694747Y-109850500D01*
X99694748Y-109850500D01*
X99753231Y-109838867D01*
X99819552Y-109794552D01*
X99863867Y-109728231D01*
X99875500Y-109669748D01*
X99875500Y-108162193D01*
X99877968Y-108154595D01*
X99876719Y-108146706D01*
X99887243Y-108126050D01*
X99894407Y-108104002D01*
X99904489Y-108092196D01*
X99955498Y-108041187D01*
X100010013Y-108013412D01*
X100070445Y-108022983D01*
X100113710Y-108066248D01*
X100124500Y-108111193D01*
X100124500Y-109669746D01*
X100124501Y-109669758D01*
X100136132Y-109728227D01*
X100136133Y-109728231D01*
X100180448Y-109794552D01*
X100246769Y-109838867D01*
X100264814Y-109842456D01*
X100318197Y-109872350D01*
X100343814Y-109927915D01*
X100344500Y-109939553D01*
X100344500Y-110673099D01*
X100325593Y-110731290D01*
X100315506Y-110743100D01*
X100304520Y-110754086D01*
X100251794Y-110845409D01*
X100251794Y-110845410D01*
X100251793Y-110845412D01*
X100251793Y-110845413D01*
X100224500Y-110947273D01*
X100224500Y-111052727D01*
X100251793Y-111154587D01*
X100251794Y-111154589D01*
X100251794Y-111154590D01*
X100304518Y-111245910D01*
X100304520Y-111245913D01*
X100379087Y-111320480D01*
X100470413Y-111373207D01*
X100572273Y-111400500D01*
X100572275Y-111400500D01*
X100677725Y-111400500D01*
X100677727Y-111400500D01*
X100779587Y-111373207D01*
X100870913Y-111320480D01*
X100945480Y-111245913D01*
X100998207Y-111154587D01*
X101025500Y-111052727D01*
X101025500Y-110947273D01*
X100998207Y-110845413D01*
X100945480Y-110754087D01*
X100942507Y-110751114D01*
X100934494Y-110743100D01*
X100906718Y-110688583D01*
X100905500Y-110673099D01*
X100905500Y-109939553D01*
X100924407Y-109881362D01*
X100973907Y-109845398D01*
X100985172Y-109842459D01*
X101003231Y-109838867D01*
X101069552Y-109794552D01*
X101113867Y-109728231D01*
X101125500Y-109669748D01*
X101125500Y-107979500D01*
X101130345Y-107964588D01*
X101130345Y-107948907D01*
X101139561Y-107936221D01*
X101144407Y-107921309D01*
X101157092Y-107912092D01*
X101166309Y-107899407D01*
X101181221Y-107894561D01*
X101193907Y-107885345D01*
X101224500Y-107880500D01*
X101275500Y-107880500D01*
X101333691Y-107899407D01*
X101369655Y-107948907D01*
X101374500Y-107979500D01*
X101374500Y-109669746D01*
X101374501Y-109669758D01*
X101386132Y-109728227D01*
X101386133Y-109728231D01*
X101430448Y-109794552D01*
X101496769Y-109838867D01*
X101514814Y-109842456D01*
X101568197Y-109872350D01*
X101593814Y-109927915D01*
X101594500Y-109939553D01*
X101594500Y-110701614D01*
X101581237Y-110751114D01*
X101579521Y-110754085D01*
X101579520Y-110754087D01*
X101526793Y-110845413D01*
X101499500Y-110947273D01*
X101499500Y-111052727D01*
X101526793Y-111154587D01*
X101526794Y-111154589D01*
X101526794Y-111154590D01*
X101579518Y-111245910D01*
X101579520Y-111245913D01*
X101654087Y-111320480D01*
X101745413Y-111373207D01*
X101847273Y-111400500D01*
X101847275Y-111400500D01*
X101952725Y-111400500D01*
X101952727Y-111400500D01*
X102054587Y-111373207D01*
X102145913Y-111320480D01*
X102220480Y-111245913D01*
X102273207Y-111154587D01*
X102300500Y-111052727D01*
X102300500Y-110947273D01*
X102273207Y-110845413D01*
X102220480Y-110754087D01*
X102205500Y-110739107D01*
X102184496Y-110718102D01*
X102156719Y-110663585D01*
X102155500Y-110648099D01*
X102155500Y-109939553D01*
X102174407Y-109881362D01*
X102223907Y-109845398D01*
X102235172Y-109842459D01*
X102253231Y-109838867D01*
X102319552Y-109794552D01*
X102363867Y-109728231D01*
X102375500Y-109669748D01*
X102375500Y-107979500D01*
X102394407Y-107921309D01*
X102443907Y-107885345D01*
X102474500Y-107880500D01*
X107936930Y-107880500D01*
X107936930Y-107880499D01*
X108008265Y-107861385D01*
X108008266Y-107861385D01*
X108008266Y-107861384D01*
X108008269Y-107861384D01*
X108072231Y-107824456D01*
X108124456Y-107772231D01*
X108124457Y-107772228D01*
X109729998Y-106166686D01*
X109784512Y-106138912D01*
X109844944Y-106148483D01*
X109870003Y-106166689D01*
X112325319Y-108622005D01*
X112353096Y-108676522D01*
X112344230Y-108732501D01*
X112344863Y-108732764D01*
X112343771Y-108735399D01*
X112343525Y-108736954D01*
X112342168Y-108739268D01*
X112341132Y-108741768D01*
X112329500Y-108800249D01*
X112329500Y-110339746D01*
X112329501Y-110339758D01*
X112341132Y-110398227D01*
X112341134Y-110398233D01*
X112383163Y-110461133D01*
X112385448Y-110464552D01*
X112451769Y-110508867D01*
X112496231Y-110517711D01*
X112510241Y-110520498D01*
X112510246Y-110520498D01*
X112510252Y-110520500D01*
X112510253Y-110520500D01*
X113099747Y-110520500D01*
X113099748Y-110520500D01*
X113158231Y-110508867D01*
X113224552Y-110464552D01*
X113268867Y-110398231D01*
X113280500Y-110339748D01*
X113280500Y-108800252D01*
X113268867Y-108741769D01*
X113224552Y-108675448D01*
X113224548Y-108675445D01*
X113158233Y-108631134D01*
X113158231Y-108631133D01*
X113158228Y-108631132D01*
X113158227Y-108631132D01*
X113120898Y-108623706D01*
X113111109Y-108618223D01*
X113099948Y-108617051D01*
X113085027Y-108603616D01*
X113067514Y-108593808D01*
X113054478Y-108576110D01*
X113042052Y-108554587D01*
X113029456Y-108532769D01*
X112977231Y-108480544D01*
X112977228Y-108480542D01*
X112347079Y-107850393D01*
X112319302Y-107795876D01*
X112328873Y-107735444D01*
X112372138Y-107692179D01*
X112391457Y-107684763D01*
X112434587Y-107673207D01*
X112525913Y-107620480D01*
X112600480Y-107545913D01*
X112653207Y-107454587D01*
X112680500Y-107352727D01*
X112680500Y-107247273D01*
X112653207Y-107145413D01*
X112600480Y-107054087D01*
X112600479Y-107054086D01*
X112589494Y-107043100D01*
X112585868Y-107035984D01*
X112579407Y-107031290D01*
X112572242Y-107009240D01*
X112561718Y-106988583D01*
X112560500Y-106973099D01*
X112560500Y-106955685D01*
X119289500Y-106955685D01*
X119289500Y-107404314D01*
X119295932Y-107453174D01*
X119295932Y-107453175D01*
X119345933Y-107560401D01*
X119345934Y-107560402D01*
X119345935Y-107560404D01*
X119429596Y-107644065D01*
X119429597Y-107644065D01*
X119429598Y-107644066D01*
X119536824Y-107694067D01*
X119536825Y-107694067D01*
X119536827Y-107694068D01*
X119585684Y-107700500D01*
X119585685Y-107700500D01*
X119934314Y-107700500D01*
X119934316Y-107700500D01*
X119983173Y-107694068D01*
X120090404Y-107644065D01*
X120174065Y-107560404D01*
X120185576Y-107535717D01*
X120227301Y-107490970D01*
X120287362Y-107479294D01*
X120342816Y-107505150D01*
X120364240Y-107534074D01*
X120390364Y-107587511D01*
X120472489Y-107669636D01*
X120576830Y-107720645D01*
X120644472Y-107730500D01*
X120644475Y-107730500D01*
X121005524Y-107730500D01*
X121005528Y-107730500D01*
X121073170Y-107720645D01*
X121177511Y-107669636D01*
X121239998Y-107607148D01*
X121294513Y-107579373D01*
X121354945Y-107588944D01*
X121380000Y-107607147D01*
X121442489Y-107669636D01*
X121546830Y-107720645D01*
X121614472Y-107730500D01*
X121614475Y-107730500D01*
X121975524Y-107730500D01*
X121975528Y-107730500D01*
X122043170Y-107720645D01*
X122147511Y-107669636D01*
X122229636Y-107587511D01*
X122280645Y-107483170D01*
X122290500Y-107415528D01*
X122290500Y-107004472D01*
X122280645Y-106936830D01*
X122229636Y-106832489D01*
X122147511Y-106750364D01*
X122043170Y-106699355D01*
X122043171Y-106699355D01*
X122026259Y-106696891D01*
X121975528Y-106689500D01*
X121614472Y-106689500D01*
X121573886Y-106695413D01*
X121546828Y-106699355D01*
X121442489Y-106750364D01*
X121380001Y-106812851D01*
X121325487Y-106840627D01*
X121265055Y-106831056D01*
X121239999Y-106812852D01*
X121177511Y-106750364D01*
X121073170Y-106699355D01*
X121073171Y-106699355D01*
X121056259Y-106696891D01*
X121005528Y-106689500D01*
X120644472Y-106689500D01*
X120603886Y-106695413D01*
X120576828Y-106699355D01*
X120472489Y-106750364D01*
X120390362Y-106832491D01*
X120384746Y-106843980D01*
X120368084Y-106861201D01*
X120353996Y-106880593D01*
X120347182Y-106882806D01*
X120342203Y-106887954D01*
X120295805Y-106899500D01*
X120283721Y-106899500D01*
X120225530Y-106880593D01*
X120193997Y-106842339D01*
X120174066Y-106799598D01*
X120174065Y-106799597D01*
X120174065Y-106799596D01*
X120090404Y-106715935D01*
X120090402Y-106715934D01*
X120090401Y-106715933D01*
X119983175Y-106665932D01*
X119950601Y-106661644D01*
X119934316Y-106659500D01*
X119585684Y-106659500D01*
X119569398Y-106661644D01*
X119536825Y-106665932D01*
X119536824Y-106665932D01*
X119429598Y-106715933D01*
X119345933Y-106799598D01*
X119295932Y-106906824D01*
X119295932Y-106906825D01*
X119289500Y-106955685D01*
X112560500Y-106955685D01*
X112560500Y-106203720D01*
X112579407Y-106145529D01*
X112617659Y-106113997D01*
X112660404Y-106094065D01*
X112744065Y-106010404D01*
X112794068Y-105903173D01*
X112800500Y-105854316D01*
X112800500Y-105505684D01*
X112794068Y-105456827D01*
X112744065Y-105349596D01*
X112660404Y-105265935D01*
X112647085Y-105259724D01*
X112602337Y-105217997D01*
X112590662Y-105157936D01*
X112616519Y-105102483D01*
X112647084Y-105080275D01*
X112660404Y-105074065D01*
X112744065Y-104990404D01*
X112794068Y-104883173D01*
X112800500Y-104834316D01*
X112800500Y-104689500D01*
X112819407Y-104631309D01*
X112868907Y-104595345D01*
X112899500Y-104590500D01*
X113203323Y-104590500D01*
X113213381Y-104593768D01*
X113223901Y-104592662D01*
X113241827Y-104603010D01*
X113261514Y-104609407D01*
X113267731Y-104617964D01*
X113276891Y-104623252D01*
X113285310Y-104642159D01*
X113297478Y-104658907D01*
X113297478Y-104669484D01*
X113301780Y-104679146D01*
X113297478Y-104699390D01*
X113297478Y-104720093D01*
X113289062Y-104738995D01*
X113283194Y-104749160D01*
X113278709Y-104756929D01*
X113266836Y-104777493D01*
X113258621Y-104791723D01*
X113258616Y-104791731D01*
X113254301Y-104807838D01*
X113248827Y-104828267D01*
X113248826Y-104828269D01*
X113239500Y-104863071D01*
X113239500Y-105179594D01*
X113220593Y-105237785D01*
X113195152Y-105258770D01*
X113196691Y-105260967D01*
X113189599Y-105265932D01*
X113105933Y-105349598D01*
X113055932Y-105456824D01*
X113055932Y-105456825D01*
X113049500Y-105505685D01*
X113049500Y-105954314D01*
X113055932Y-106003174D01*
X113055932Y-106003175D01*
X113105933Y-106110401D01*
X113105934Y-106110402D01*
X113105935Y-106110404D01*
X113189596Y-106194065D01*
X113189597Y-106194065D01*
X113189598Y-106194066D01*
X113296824Y-106244067D01*
X113296825Y-106244067D01*
X113296827Y-106244068D01*
X113345684Y-106250500D01*
X113345685Y-106250500D01*
X113694314Y-106250500D01*
X113694316Y-106250500D01*
X113743173Y-106244068D01*
X113773511Y-106229920D01*
X113834239Y-106222464D01*
X113887753Y-106252126D01*
X113893553Y-106259354D01*
X113895918Y-106262083D01*
X113895919Y-106262085D01*
X113941674Y-106314889D01*
X113941686Y-106314901D01*
X113959266Y-106332844D01*
X113959268Y-106332846D01*
X114039077Y-106377488D01*
X114039081Y-106377490D01*
X114080974Y-106389791D01*
X114106121Y-106397175D01*
X114164019Y-106405500D01*
X114164020Y-106405500D01*
X114984890Y-106405500D01*
X115009745Y-106403991D01*
X115009750Y-106403990D01*
X115009756Y-106403990D01*
X115039513Y-106400364D01*
X115039513Y-106400363D01*
X115039521Y-106400363D01*
X115064013Y-106395859D01*
X116937316Y-105932461D01*
X116945190Y-105930851D01*
X117337574Y-105867089D01*
X117358736Y-105862136D01*
X117365083Y-105860651D01*
X117365086Y-105860650D01*
X117365091Y-105860649D01*
X117397607Y-105850636D01*
X117423978Y-105840482D01*
X117480175Y-105814275D01*
X117522015Y-105805000D01*
X117901792Y-105805000D01*
X117905936Y-105805102D01*
X117905937Y-105805097D01*
X117906555Y-105805117D01*
X117906654Y-105805119D01*
X117906741Y-105805124D01*
X117914852Y-105805390D01*
X117921588Y-105805500D01*
X117921592Y-105805500D01*
X118478426Y-105805500D01*
X118478430Y-105805500D01*
X118485165Y-105805390D01*
X118493277Y-105805124D01*
X118493353Y-105805120D01*
X118493360Y-105805120D01*
X118493474Y-105805117D01*
X118494089Y-105805097D01*
X118494089Y-105805102D01*
X118498232Y-105805000D01*
X118901792Y-105805000D01*
X118905936Y-105805102D01*
X118905937Y-105805097D01*
X118906555Y-105805117D01*
X118906654Y-105805119D01*
X118906741Y-105805124D01*
X118914852Y-105805390D01*
X118921588Y-105805500D01*
X118921592Y-105805500D01*
X119478426Y-105805500D01*
X119478430Y-105805500D01*
X119485165Y-105805390D01*
X119493277Y-105805124D01*
X119493353Y-105805120D01*
X119493360Y-105805120D01*
X119493474Y-105805117D01*
X119494089Y-105805097D01*
X119494089Y-105805102D01*
X119498232Y-105805000D01*
X119901792Y-105805000D01*
X119905936Y-105805102D01*
X119905937Y-105805097D01*
X119906555Y-105805117D01*
X119906654Y-105805119D01*
X119906741Y-105805124D01*
X119914852Y-105805390D01*
X119921588Y-105805500D01*
X119921592Y-105805500D01*
X121379056Y-105805500D01*
X121379061Y-105805500D01*
X121420233Y-105801333D01*
X121468909Y-105791379D01*
X121476624Y-105789646D01*
X121558386Y-105748669D01*
X121612317Y-105704249D01*
X121630708Y-105687109D01*
X121677335Y-105608432D01*
X121698689Y-105541905D01*
X121708458Y-105484235D01*
X121743703Y-104074298D01*
X121749854Y-104042342D01*
X121750721Y-104040006D01*
X121753788Y-104032668D01*
X121770332Y-103997189D01*
X121790046Y-103969033D01*
X121799032Y-103960047D01*
X121827195Y-103940329D01*
X121833833Y-103937233D01*
X121840181Y-103934274D01*
X121882017Y-103925000D01*
X122081727Y-103925000D01*
X122128946Y-103919502D01*
X122184403Y-103906409D01*
X122229093Y-103890209D01*
X122240454Y-103884528D01*
X122242836Y-103883317D01*
X122245731Y-103881822D01*
X122248146Y-103880554D01*
X122553911Y-103717477D01*
X122614154Y-103706777D01*
X122669181Y-103733529D01*
X122697974Y-103787516D01*
X122699500Y-103804831D01*
X122699500Y-113330500D01*
X122680593Y-113388691D01*
X122631093Y-113424655D01*
X122600500Y-113429500D01*
X104524500Y-113429500D01*
X104466309Y-113410593D01*
X104430345Y-113361093D01*
X104425500Y-113330500D01*
X104425500Y-110630253D01*
X104425498Y-110630241D01*
X104422711Y-110616231D01*
X104413867Y-110571769D01*
X104369552Y-110505448D01*
X104308342Y-110464548D01*
X104303233Y-110461134D01*
X104303231Y-110461133D01*
X104303228Y-110461132D01*
X104303227Y-110461132D01*
X104244758Y-110449501D01*
X104244748Y-110449500D01*
X103205252Y-110449500D01*
X103205251Y-110449500D01*
X103205241Y-110449501D01*
X103146772Y-110461132D01*
X103146766Y-110461134D01*
X103080451Y-110505445D01*
X103080445Y-110505451D01*
X103036134Y-110571766D01*
X103036132Y-110571772D01*
X103024501Y-110630241D01*
X103024500Y-110630253D01*
X103024500Y-113330500D01*
X103005593Y-113388691D01*
X102956093Y-113424655D01*
X102925500Y-113429500D01*
X97074500Y-113429500D01*
X97016309Y-113410593D01*
X96980345Y-113361093D01*
X96975500Y-113330500D01*
X96975500Y-110630253D01*
X96975498Y-110630241D01*
X96972711Y-110616231D01*
X96963867Y-110571769D01*
X96919552Y-110505448D01*
X96858342Y-110464548D01*
X96853233Y-110461134D01*
X96853231Y-110461133D01*
X96853228Y-110461132D01*
X96853227Y-110461132D01*
X96794758Y-110449501D01*
X96794748Y-110449500D01*
X95755252Y-110449500D01*
X95755251Y-110449500D01*
X95755241Y-110449501D01*
X95696772Y-110461132D01*
X95696766Y-110461134D01*
X95630451Y-110505445D01*
X95630445Y-110505451D01*
X95586134Y-110571766D01*
X95586132Y-110571772D01*
X95574501Y-110630241D01*
X95574500Y-110630253D01*
X95574500Y-113330500D01*
X95555593Y-113388691D01*
X95506093Y-113424655D01*
X95475500Y-113429500D01*
X84649500Y-113429500D01*
X84591309Y-113410593D01*
X84555345Y-113361093D01*
X84550500Y-113330500D01*
X84550500Y-108175684D01*
X93419500Y-108175684D01*
X93419500Y-108624316D01*
X93420398Y-108631134D01*
X93425932Y-108673174D01*
X93425932Y-108673175D01*
X93475933Y-108780401D01*
X93475934Y-108780402D01*
X93475935Y-108780404D01*
X93559596Y-108864065D01*
X93559597Y-108864065D01*
X93559598Y-108864066D01*
X93666824Y-108914067D01*
X93666825Y-108914067D01*
X93666827Y-108914068D01*
X93715684Y-108920500D01*
X93715685Y-108920500D01*
X94064314Y-108920500D01*
X94064316Y-108920500D01*
X94113173Y-108914068D01*
X94220404Y-108864065D01*
X94304065Y-108780404D01*
X94310275Y-108767085D01*
X94352003Y-108722337D01*
X94412064Y-108710662D01*
X94467517Y-108736519D01*
X94489724Y-108767084D01*
X94495935Y-108780404D01*
X94579596Y-108864065D01*
X94579597Y-108864065D01*
X94579598Y-108864066D01*
X94686824Y-108914067D01*
X94686825Y-108914067D01*
X94686827Y-108914068D01*
X94735684Y-108920500D01*
X94735685Y-108920500D01*
X95084314Y-108920500D01*
X95084316Y-108920500D01*
X95133173Y-108914068D01*
X95240404Y-108864065D01*
X95324065Y-108780404D01*
X95374068Y-108673173D01*
X95380500Y-108624316D01*
X95380500Y-108175684D01*
X95374068Y-108126827D01*
X95363424Y-108104002D01*
X95324066Y-108019598D01*
X95324065Y-108019597D01*
X95324065Y-108019596D01*
X95240404Y-107935935D01*
X95240402Y-107935934D01*
X95240401Y-107935933D01*
X95133175Y-107885932D01*
X95100601Y-107881644D01*
X95084316Y-107879500D01*
X94735684Y-107879500D01*
X94719398Y-107881644D01*
X94686825Y-107885932D01*
X94686824Y-107885932D01*
X94579598Y-107935933D01*
X94495933Y-108019598D01*
X94489724Y-108032915D01*
X94447995Y-108077663D01*
X94387934Y-108089337D01*
X94332482Y-108063478D01*
X94310276Y-108032915D01*
X94304066Y-108019598D01*
X94304065Y-108019597D01*
X94304065Y-108019596D01*
X94220404Y-107935935D01*
X94220402Y-107935934D01*
X94220401Y-107935933D01*
X94113175Y-107885932D01*
X94080601Y-107881644D01*
X94064316Y-107879500D01*
X93715684Y-107879500D01*
X93699398Y-107881644D01*
X93666825Y-107885932D01*
X93666824Y-107885932D01*
X93559598Y-107935933D01*
X93475933Y-108019598D01*
X93425932Y-108126824D01*
X93425932Y-108126825D01*
X93425932Y-108126827D01*
X93419500Y-108175684D01*
X84550500Y-108175684D01*
X84550500Y-89655253D01*
X90759500Y-89655253D01*
X90759500Y-90844746D01*
X90759501Y-90844758D01*
X90771132Y-90903227D01*
X90771133Y-90903231D01*
X90815448Y-90969552D01*
X90881769Y-91013867D01*
X90926231Y-91022711D01*
X90940241Y-91025498D01*
X90940246Y-91025498D01*
X90940252Y-91025500D01*
X90940253Y-91025500D01*
X91579747Y-91025500D01*
X91579748Y-91025500D01*
X91638231Y-91013867D01*
X91704552Y-90969552D01*
X91748867Y-90903231D01*
X91760500Y-90844748D01*
X91760500Y-89655252D01*
X91748867Y-89596769D01*
X91704552Y-89530448D01*
X91650825Y-89494548D01*
X91638233Y-89486134D01*
X91638231Y-89486133D01*
X91638228Y-89486132D01*
X91638227Y-89486132D01*
X91579758Y-89474501D01*
X91579748Y-89474500D01*
X90940252Y-89474500D01*
X90940251Y-89474500D01*
X90940241Y-89474501D01*
X90881772Y-89486132D01*
X90881766Y-89486134D01*
X90815451Y-89530445D01*
X90815445Y-89530451D01*
X90771134Y-89596766D01*
X90771132Y-89596772D01*
X90759501Y-89655241D01*
X90759500Y-89655253D01*
X84550500Y-89655253D01*
X84550500Y-85569500D01*
X84569407Y-85511309D01*
X84618907Y-85475345D01*
X84649500Y-85470500D01*
X90935571Y-85470500D01*
X90993762Y-85489407D01*
G37*
%TD.AperFunction*%
%TA.AperFunction,Conductor*%
G36*
X122658691Y-85489407D02*
G01*
X122694655Y-85538907D01*
X122699500Y-85569500D01*
X122699500Y-94623587D01*
X122680593Y-94681778D01*
X122631093Y-94717742D01*
X122592215Y-94721699D01*
X122592203Y-94722023D01*
X122589927Y-94721931D01*
X122589505Y-94721975D01*
X122588669Y-94721881D01*
X122474620Y-94717319D01*
X122445308Y-94718242D01*
X122410203Y-94721865D01*
X122410199Y-94721866D01*
X122396338Y-94726413D01*
X122384979Y-94729406D01*
X122381976Y-94730009D01*
X122380746Y-94730255D01*
X122374177Y-94731346D01*
X122352863Y-94734152D01*
X122339943Y-94734999D01*
X121972016Y-94734999D01*
X121930178Y-94725724D01*
X121917191Y-94719668D01*
X121889029Y-94699949D01*
X121880051Y-94690971D01*
X121860331Y-94662808D01*
X121855630Y-94652727D01*
X121852080Y-94645115D01*
X121843648Y-94616162D01*
X121843434Y-94614535D01*
X121843165Y-94612270D01*
X121842834Y-94609173D01*
X121825016Y-94544769D01*
X121795685Y-94481354D01*
X121784824Y-94464631D01*
X121763823Y-94432297D01*
X120691709Y-93207024D01*
X120671245Y-93186709D01*
X120658296Y-93175544D01*
X120644963Y-93164048D01*
X120644961Y-93164046D01*
X120644960Y-93164046D01*
X120568667Y-93122509D01*
X120501636Y-93102826D01*
X120501627Y-93102824D01*
X120455416Y-93096180D01*
X120443732Y-93094500D01*
X120443731Y-93094500D01*
X118600175Y-93094500D01*
X115047195Y-93085000D01*
X115047152Y-93084999D01*
X115046645Y-93084999D01*
X114658193Y-93084999D01*
X114657823Y-93084998D01*
X114655601Y-93084989D01*
X114653259Y-93084876D01*
X114645148Y-93084610D01*
X114638412Y-93084500D01*
X114524529Y-93084500D01*
X114524261Y-93084499D01*
X114495398Y-93075002D01*
X114466440Y-93065593D01*
X114466209Y-93065397D01*
X114466141Y-93065375D01*
X114466075Y-93065284D01*
X114455218Y-93056089D01*
X114035087Y-92642959D01*
X114006852Y-92588678D01*
X114005500Y-92572370D01*
X114005500Y-90912491D01*
X114014775Y-90870654D01*
X114033972Y-90829487D01*
X114040500Y-90779901D01*
X114040499Y-90420100D01*
X114033972Y-90370513D01*
X114033972Y-90370511D01*
X113983225Y-90261686D01*
X113983224Y-90261685D01*
X113983224Y-90261684D01*
X113898316Y-90176776D01*
X113898314Y-90176775D01*
X113898310Y-90176772D01*
X113895286Y-90175362D01*
X113887061Y-90170381D01*
X113886932Y-90170613D01*
X113870381Y-90161355D01*
X113849188Y-90149500D01*
X113800936Y-90122509D01*
X113800937Y-90122509D01*
X113733904Y-90102826D01*
X113733895Y-90102824D01*
X113687684Y-90096180D01*
X113676000Y-90094500D01*
X113675999Y-90094500D01*
X113180864Y-90094500D01*
X113131746Y-90081456D01*
X112913374Y-89956672D01*
X112530547Y-89737914D01*
X112530545Y-89737913D01*
X112530543Y-89737912D01*
X112481333Y-89717720D01*
X112442059Y-89707291D01*
X112419816Y-89701384D01*
X112419812Y-89701383D01*
X112419808Y-89701382D01*
X112388463Y-89697292D01*
X112367070Y-89694500D01*
X111824000Y-89694500D01*
X111792797Y-89697855D01*
X111780314Y-89699197D01*
X111728800Y-89710404D01*
X111718628Y-89712889D01*
X111637914Y-89755900D01*
X111585113Y-89801653D01*
X111585098Y-89801667D01*
X111567155Y-89819247D01*
X111567153Y-89819249D01*
X111522511Y-89899058D01*
X111522509Y-89899062D01*
X111502826Y-89966095D01*
X111502824Y-89966104D01*
X111494500Y-90024000D01*
X111494500Y-91187927D01*
X111495468Y-91207850D01*
X111497800Y-91231775D01*
X111497803Y-91231800D01*
X111500695Y-91251511D01*
X111500703Y-91251558D01*
X112144742Y-94524690D01*
X112145163Y-94526770D01*
X112145669Y-94529214D01*
X112166527Y-94585992D01*
X112166529Y-94585996D01*
X112166531Y-94586001D01*
X112169243Y-94590968D01*
X112172069Y-94596558D01*
X112186977Y-94628529D01*
X112186977Y-94628530D01*
X112210338Y-94678628D01*
X112215724Y-94690178D01*
X112224999Y-94732017D01*
X112224999Y-95111808D01*
X112224897Y-95115991D01*
X112224900Y-95115992D01*
X112224891Y-95116244D01*
X112224883Y-95116606D01*
X112224873Y-95116800D01*
X112224610Y-95124858D01*
X112224500Y-95131598D01*
X112224500Y-95849882D01*
X112225497Y-95870074D01*
X112225500Y-95870110D01*
X112227904Y-95894405D01*
X112228619Y-95896793D01*
X112250398Y-95969577D01*
X112262311Y-95992302D01*
X112282835Y-96031455D01*
X112282838Y-96031459D01*
X112317093Y-96078873D01*
X112630271Y-96402851D01*
X112716152Y-96491693D01*
X112743002Y-96546672D01*
X112732407Y-96606934D01*
X112688416Y-96649459D01*
X112644972Y-96659500D01*
X112443254Y-96659500D01*
X112385063Y-96640593D01*
X112358601Y-96608492D01*
X112358192Y-96608779D01*
X112354548Y-96603575D01*
X112353530Y-96602340D01*
X112353225Y-96601686D01*
X112353224Y-96601685D01*
X112353224Y-96601684D01*
X112268316Y-96516776D01*
X112268314Y-96516775D01*
X112268313Y-96516774D01*
X112159489Y-96466029D01*
X112159488Y-96466028D01*
X112142958Y-96463852D01*
X112109901Y-96459500D01*
X112109899Y-96459500D01*
X111690103Y-96459500D01*
X111690092Y-96459501D01*
X111640513Y-96466027D01*
X111640511Y-96466027D01*
X111531686Y-96516774D01*
X111446774Y-96601686D01*
X111396029Y-96710510D01*
X111396028Y-96710511D01*
X111389500Y-96760100D01*
X111389500Y-97119895D01*
X111389501Y-97119907D01*
X111396027Y-97169486D01*
X111396027Y-97169488D01*
X111446774Y-97278313D01*
X111446775Y-97278314D01*
X111446776Y-97278316D01*
X111531684Y-97363224D01*
X111562340Y-97377519D01*
X111580498Y-97394452D01*
X111600593Y-97409052D01*
X111602522Y-97414990D01*
X111607087Y-97419247D01*
X111619500Y-97467243D01*
X111619500Y-97515500D01*
X111600593Y-97573691D01*
X111551093Y-97609655D01*
X111520500Y-97614500D01*
X111430252Y-97614500D01*
X111430251Y-97614500D01*
X111430241Y-97614501D01*
X111371772Y-97626132D01*
X111371766Y-97626134D01*
X111305451Y-97670445D01*
X111305445Y-97670451D01*
X111261134Y-97736766D01*
X111261132Y-97736772D01*
X111249501Y-97795241D01*
X111249500Y-97795253D01*
X111249500Y-98584746D01*
X111249501Y-98584758D01*
X111261132Y-98643227D01*
X111261134Y-98643233D01*
X111305445Y-98709548D01*
X111305448Y-98709552D01*
X111371769Y-98753867D01*
X111416231Y-98762711D01*
X111430241Y-98765498D01*
X111430246Y-98765498D01*
X111430252Y-98765500D01*
X111430253Y-98765500D01*
X111904677Y-98765500D01*
X111962868Y-98784407D01*
X111998832Y-98833907D01*
X112001775Y-98883814D01*
X111999500Y-98895249D01*
X111999500Y-99684746D01*
X111999501Y-99684758D01*
X112011132Y-99743227D01*
X112011134Y-99743233D01*
X112055445Y-99809548D01*
X112055448Y-99809552D01*
X112121769Y-99853867D01*
X112166231Y-99862711D01*
X112180241Y-99865498D01*
X112180246Y-99865498D01*
X112180252Y-99865500D01*
X112227806Y-99865500D01*
X112235403Y-99867968D01*
X112243294Y-99866719D01*
X112263946Y-99877242D01*
X112285997Y-99884407D01*
X112297804Y-99894491D01*
X112319808Y-99916495D01*
X112327769Y-99924456D01*
X112332634Y-99929321D01*
X112360411Y-99983838D01*
X112352355Y-100041164D01*
X112306028Y-100140513D01*
X112299500Y-100190100D01*
X112299500Y-100609896D01*
X112299501Y-100609907D01*
X112306027Y-100659486D01*
X112306027Y-100659488D01*
X112356774Y-100768313D01*
X112356775Y-100768314D01*
X112356776Y-100768316D01*
X112441684Y-100853224D01*
X112441685Y-100853224D01*
X112441686Y-100853225D01*
X112456803Y-100860274D01*
X112501552Y-100902001D01*
X112513228Y-100962062D01*
X112487371Y-101017515D01*
X112456810Y-101039721D01*
X112441687Y-101046773D01*
X112356774Y-101131686D01*
X112306029Y-101240510D01*
X112306028Y-101240511D01*
X112299500Y-101290100D01*
X112299500Y-101709896D01*
X112299501Y-101709907D01*
X112306026Y-101759481D01*
X112307186Y-101763459D01*
X112305318Y-101824616D01*
X112282145Y-101861167D01*
X111697771Y-102445542D01*
X111697769Y-102445544D01*
X111697768Y-102445543D01*
X111645546Y-102497766D01*
X111608616Y-102561730D01*
X111608616Y-102561731D01*
X111589500Y-102633072D01*
X111589500Y-102633074D01*
X111589500Y-103472805D01*
X111570593Y-103530996D01*
X111560504Y-103542809D01*
X110607667Y-104495646D01*
X109627771Y-105475542D01*
X109627769Y-105475544D01*
X108706139Y-106397175D01*
X107812810Y-107290504D01*
X107758293Y-107318281D01*
X107742806Y-107319500D01*
X104891885Y-107319500D01*
X104833694Y-107300593D01*
X104797730Y-107251093D01*
X104797730Y-107189907D01*
X104801418Y-107180292D01*
X104816921Y-107145410D01*
X105086801Y-106538180D01*
X105100276Y-106496235D01*
X105110955Y-106444465D01*
X105115179Y-106400614D01*
X105111870Y-106109451D01*
X105130115Y-106051050D01*
X105179203Y-106014526D01*
X105240385Y-106013831D01*
X105265861Y-106026009D01*
X105382137Y-106103703D01*
X105536918Y-106167816D01*
X105701233Y-106200500D01*
X105701234Y-106200500D01*
X105868766Y-106200500D01*
X105868767Y-106200500D01*
X106033082Y-106167816D01*
X106187863Y-106103703D01*
X106327162Y-106010626D01*
X106445626Y-105892162D01*
X106538703Y-105752863D01*
X106602816Y-105598082D01*
X106635500Y-105433767D01*
X106635500Y-105266233D01*
X106602816Y-105101918D01*
X106538703Y-104947137D01*
X106445626Y-104807838D01*
X106327162Y-104689374D01*
X106241018Y-104631814D01*
X106203140Y-104583765D01*
X106200738Y-104522627D01*
X106234731Y-104471753D01*
X106292135Y-104450576D01*
X106296021Y-104450500D01*
X109484934Y-104450500D01*
X109484936Y-104450500D01*
X109540251Y-104427587D01*
X109582587Y-104385251D01*
X109605500Y-104329936D01*
X109605500Y-95670064D01*
X109582587Y-95614749D01*
X109540251Y-95572413D01*
X109484936Y-95549500D01*
X107186021Y-95549500D01*
X107127830Y-95530593D01*
X107091866Y-95481093D01*
X107091866Y-95419907D01*
X107127830Y-95370407D01*
X107131019Y-95368185D01*
X107149939Y-95355543D01*
X107217162Y-95310626D01*
X107335626Y-95192162D01*
X107428703Y-95052863D01*
X107492816Y-94898082D01*
X107525500Y-94733767D01*
X107525500Y-94566233D01*
X107492816Y-94401918D01*
X107428703Y-94247137D01*
X107335626Y-94107838D01*
X107217162Y-93989374D01*
X107077863Y-93896297D01*
X107077864Y-93896297D01*
X107077862Y-93896296D01*
X106923085Y-93832185D01*
X106923079Y-93832183D01*
X106758769Y-93799500D01*
X106758767Y-93799500D01*
X106591233Y-93799500D01*
X106591230Y-93799500D01*
X106426920Y-93832183D01*
X106426914Y-93832185D01*
X106272137Y-93896296D01*
X106132838Y-93989374D01*
X106132834Y-93989377D01*
X106014377Y-94107834D01*
X106014374Y-94107838D01*
X105921296Y-94247137D01*
X105876464Y-94355372D01*
X105836727Y-94401898D01*
X105777232Y-94416181D01*
X105720704Y-94392766D01*
X105693536Y-94355372D01*
X105648703Y-94247137D01*
X105635132Y-94226827D01*
X105555626Y-94107838D01*
X105437162Y-93989374D01*
X105297863Y-93896297D01*
X105297864Y-93896297D01*
X105297862Y-93896296D01*
X105143085Y-93832185D01*
X105143072Y-93832181D01*
X105130276Y-93829636D01*
X105076893Y-93799739D01*
X105051278Y-93744174D01*
X105063216Y-93684164D01*
X105106399Y-93643458D01*
X107219752Y-92618803D01*
X107266455Y-92587635D01*
X107316672Y-92543097D01*
X107332843Y-92527068D01*
X107377490Y-92447251D01*
X107397175Y-92380212D01*
X107405500Y-92322314D01*
X107405500Y-90868491D01*
X107401744Y-90829380D01*
X107392761Y-90783043D01*
X107391574Y-90777352D01*
X107352274Y-90694771D01*
X107350530Y-90692563D01*
X107308981Y-90639964D01*
X107308977Y-90639959D01*
X107308964Y-90639944D01*
X107292204Y-90621208D01*
X107292201Y-90621206D01*
X107292201Y-90621205D01*
X107214498Y-90572984D01*
X107214497Y-90572983D01*
X107214496Y-90572983D01*
X107184440Y-90562654D01*
X107148424Y-90550276D01*
X107148421Y-90550275D01*
X107148420Y-90550275D01*
X107090962Y-90539331D01*
X106935629Y-90532270D01*
X106158984Y-90496968D01*
X106158964Y-90496968D01*
X106142614Y-90497006D01*
X106139340Y-90497014D01*
X106115729Y-90498197D01*
X106040123Y-90516750D01*
X105976654Y-90545950D01*
X105976634Y-90545961D01*
X105927536Y-90577709D01*
X105338164Y-91091304D01*
X105282974Y-91115176D01*
X104706881Y-91172786D01*
X104535456Y-91189929D01*
X104535451Y-91189929D01*
X104535439Y-91189931D01*
X104535436Y-91189931D01*
X104507157Y-91194774D01*
X104507129Y-91194780D01*
X104473568Y-91202977D01*
X104473563Y-91202979D01*
X104395540Y-91240884D01*
X104395531Y-91240890D01*
X104340555Y-91283992D01*
X104340550Y-91283996D01*
X104340550Y-91283997D01*
X104300121Y-91326274D01*
X102397908Y-93989374D01*
X102355858Y-94048244D01*
X102352960Y-94052407D01*
X102349570Y-94057409D01*
X102349566Y-94057417D01*
X102322511Y-94114798D01*
X102322507Y-94114809D01*
X102302826Y-94181833D01*
X102302824Y-94181842D01*
X102294500Y-94239738D01*
X102294500Y-94246267D01*
X102275593Y-94304458D01*
X102226093Y-94340422D01*
X102164907Y-94340422D01*
X102115407Y-94304458D01*
X102104036Y-94284153D01*
X102088703Y-94247137D01*
X102075132Y-94226827D01*
X101995626Y-94107838D01*
X101877162Y-93989374D01*
X101737863Y-93896297D01*
X101737862Y-93896296D01*
X101737857Y-93896293D01*
X101737810Y-93896268D01*
X101737793Y-93896250D01*
X101733819Y-93893595D01*
X101734402Y-93892722D01*
X101695414Y-93852151D01*
X101685500Y-93808969D01*
X101685500Y-92988857D01*
X101683253Y-92980470D01*
X101661614Y-92899712D01*
X101615470Y-92819788D01*
X101215212Y-92419530D01*
X101135288Y-92373386D01*
X101108029Y-92366082D01*
X101056717Y-92332759D01*
X101034790Y-92275637D01*
X101050626Y-92216537D01*
X101063653Y-92200450D01*
X101069548Y-92194554D01*
X101069552Y-92194552D01*
X101113867Y-92128231D01*
X101125500Y-92069748D01*
X101125500Y-90330252D01*
X101113867Y-90271769D01*
X101069552Y-90205448D01*
X101059235Y-90198554D01*
X101003233Y-90161134D01*
X101003231Y-90161133D01*
X101003228Y-90161132D01*
X101003227Y-90161132D01*
X100944758Y-90149501D01*
X100944748Y-90149500D01*
X100305252Y-90149500D01*
X100305251Y-90149500D01*
X100305241Y-90149501D01*
X100246772Y-90161132D01*
X100246766Y-90161134D01*
X100180451Y-90205445D01*
X100180445Y-90205451D01*
X100136134Y-90271766D01*
X100136132Y-90271772D01*
X100124501Y-90330241D01*
X100124500Y-90330253D01*
X100124500Y-92069746D01*
X100124501Y-92069758D01*
X100136132Y-92128227D01*
X100136134Y-92128233D01*
X100181080Y-92195498D01*
X100184820Y-92208758D01*
X100192920Y-92219907D01*
X100192920Y-92237477D01*
X100197689Y-92254386D01*
X100192920Y-92267313D01*
X100192920Y-92281093D01*
X100182592Y-92295307D01*
X100176512Y-92311790D01*
X100165055Y-92319444D01*
X100156956Y-92330593D01*
X100140245Y-92336022D01*
X100125638Y-92345783D01*
X100098765Y-92349500D01*
X99901235Y-92349500D01*
X99843044Y-92330593D01*
X99807080Y-92281093D01*
X99807080Y-92219907D01*
X99818920Y-92195498D01*
X99825176Y-92186133D01*
X99863867Y-92128231D01*
X99875500Y-92069748D01*
X99875500Y-90330252D01*
X99863867Y-90271769D01*
X99819552Y-90205448D01*
X99819548Y-90205445D01*
X99812657Y-90198554D01*
X99815043Y-90196167D01*
X99787608Y-90161355D01*
X99785213Y-90100217D01*
X99819212Y-90049347D01*
X99857701Y-90030760D01*
X100388322Y-89905253D01*
X109689500Y-89905253D01*
X109689500Y-91094746D01*
X109689501Y-91094758D01*
X109701132Y-91153227D01*
X109701134Y-91153233D01*
X109737629Y-91207850D01*
X109745448Y-91219552D01*
X109811769Y-91263867D01*
X109856231Y-91272711D01*
X109870241Y-91275498D01*
X109870246Y-91275498D01*
X109870252Y-91275500D01*
X109870253Y-91275500D01*
X110509747Y-91275500D01*
X110509748Y-91275500D01*
X110568231Y-91263867D01*
X110634552Y-91219552D01*
X110678867Y-91153231D01*
X110690500Y-91094748D01*
X110690500Y-89905252D01*
X110678867Y-89846769D01*
X110634552Y-89780448D01*
X110597814Y-89755900D01*
X110568233Y-89736134D01*
X110568231Y-89736133D01*
X110568228Y-89736132D01*
X110568227Y-89736132D01*
X110509758Y-89724501D01*
X110509748Y-89724500D01*
X109870252Y-89724500D01*
X109870251Y-89724500D01*
X109870241Y-89724501D01*
X109811772Y-89736132D01*
X109811766Y-89736134D01*
X109745451Y-89780445D01*
X109745445Y-89780451D01*
X109701134Y-89846766D01*
X109701132Y-89846772D01*
X109689501Y-89905241D01*
X109689500Y-89905253D01*
X100388322Y-89905253D01*
X102851844Y-89322560D01*
X102871198Y-89316968D01*
X102894167Y-89309092D01*
X102894168Y-89309091D01*
X102897765Y-89307858D01*
X102958942Y-89306868D01*
X103009018Y-89342026D01*
X103026974Y-89382190D01*
X103036132Y-89428227D01*
X103036134Y-89428233D01*
X103074823Y-89486134D01*
X103080448Y-89494552D01*
X103146769Y-89538867D01*
X103191231Y-89547711D01*
X103205241Y-89550498D01*
X103205246Y-89550498D01*
X103205252Y-89550500D01*
X103205253Y-89550500D01*
X104244747Y-89550500D01*
X104244748Y-89550500D01*
X104303231Y-89538867D01*
X104369552Y-89494552D01*
X104413867Y-89428231D01*
X104425500Y-89369748D01*
X104425500Y-86910600D01*
X104444407Y-86852409D01*
X104493907Y-86816445D01*
X104555093Y-86816445D01*
X104578672Y-86827737D01*
X106758987Y-88253328D01*
X106808638Y-88276997D01*
X106871273Y-88297103D01*
X106871277Y-88297103D01*
X106871278Y-88297104D01*
X106891800Y-88300761D01*
X106925424Y-88306755D01*
X108527260Y-88374302D01*
X108536912Y-88374709D01*
X108541180Y-88374843D01*
X108541219Y-88374843D01*
X108541257Y-88374845D01*
X108546191Y-88374948D01*
X108546191Y-88374947D01*
X108548181Y-88374989D01*
X108548221Y-88374990D01*
X108549730Y-88375022D01*
X108549732Y-88375022D01*
X108577228Y-88375596D01*
X108585961Y-88375000D01*
X108762575Y-88375000D01*
X108769158Y-88375218D01*
X108773120Y-88375483D01*
X108780868Y-88375500D01*
X109222462Y-88375500D01*
X109280653Y-88394407D01*
X109308616Y-88425732D01*
X109337069Y-88475999D01*
X109485543Y-88738303D01*
X109485550Y-88738314D01*
X109515046Y-88778246D01*
X109515057Y-88778259D01*
X109555928Y-88821491D01*
X109567543Y-88832842D01*
X109567549Y-88832847D01*
X109647356Y-88877488D01*
X109647360Y-88877490D01*
X109688592Y-88889597D01*
X109714400Y-88897175D01*
X109772298Y-88905500D01*
X109772299Y-88905500D01*
X110475995Y-88905500D01*
X110476000Y-88905500D01*
X110519684Y-88900803D01*
X110571195Y-88889597D01*
X110581373Y-88887110D01*
X110662085Y-88844100D01*
X110714889Y-88798345D01*
X110732843Y-88780754D01*
X110732844Y-88780751D01*
X110732846Y-88780750D01*
X110777488Y-88700941D01*
X110777490Y-88700937D01*
X110797173Y-88633904D01*
X110797175Y-88633898D01*
X110805500Y-88576000D01*
X110805500Y-87529000D01*
X110824407Y-87470809D01*
X110873907Y-87434845D01*
X110904500Y-87430000D01*
X111386125Y-87430000D01*
X111398113Y-87433895D01*
X111410694Y-87433097D01*
X111426507Y-87443120D01*
X111444316Y-87448907D01*
X111462370Y-87465852D01*
X111471584Y-87476978D01*
X111471747Y-87477174D01*
X111494301Y-87534050D01*
X111494500Y-87540320D01*
X111494500Y-88476000D01*
X111496901Y-88498332D01*
X111499197Y-88519685D01*
X111510404Y-88571199D01*
X111512889Y-88581371D01*
X111512889Y-88581372D01*
X111512890Y-88581373D01*
X111555900Y-88662085D01*
X111601655Y-88714889D01*
X111601667Y-88714901D01*
X111619247Y-88732844D01*
X111619249Y-88732846D01*
X111699058Y-88777488D01*
X111699062Y-88777490D01*
X111740294Y-88789597D01*
X111766102Y-88797175D01*
X111824000Y-88805500D01*
X111824001Y-88805500D01*
X112375995Y-88805500D01*
X112376000Y-88805500D01*
X112419684Y-88800803D01*
X112471195Y-88789597D01*
X112481373Y-88787110D01*
X112562085Y-88744100D01*
X112614889Y-88698345D01*
X112632843Y-88680754D01*
X112632844Y-88680751D01*
X112632846Y-88680750D01*
X112677488Y-88600941D01*
X112677490Y-88600937D01*
X112694179Y-88544100D01*
X112697175Y-88533898D01*
X112705500Y-88476000D01*
X112705500Y-87441856D01*
X112705336Y-87433658D01*
X112704941Y-87423764D01*
X112691532Y-87358517D01*
X112666561Y-87293262D01*
X112666559Y-87293258D01*
X112666552Y-87293244D01*
X112638097Y-87242168D01*
X112638092Y-87242160D01*
X111409396Y-85629498D01*
X111389170Y-85571753D01*
X111406748Y-85513147D01*
X111455417Y-85476066D01*
X111488144Y-85470500D01*
X122600500Y-85470500D01*
X122658691Y-85489407D01*
G37*
%TD.AperFunction*%
%TA.AperFunction,Conductor*%
G36*
X94612001Y-92359407D02*
G01*
X94623813Y-92369495D01*
X95234788Y-92980470D01*
X95314712Y-93026614D01*
X95403856Y-93050500D01*
X95403857Y-93050500D01*
X95496144Y-93050500D01*
X96958806Y-93050500D01*
X97016997Y-93069407D01*
X97052961Y-93118907D01*
X97052961Y-93180093D01*
X97028809Y-93219504D01*
X96412217Y-93836093D01*
X96357701Y-93863870D01*
X96304329Y-93857553D01*
X96243082Y-93832184D01*
X96078769Y-93799500D01*
X96078767Y-93799500D01*
X95911233Y-93799500D01*
X95911230Y-93799500D01*
X95746920Y-93832183D01*
X95746914Y-93832185D01*
X95592137Y-93896296D01*
X95452838Y-93989374D01*
X95452834Y-93989377D01*
X95334377Y-94107834D01*
X95334374Y-94107838D01*
X95241296Y-94247137D01*
X95177185Y-94401914D01*
X95177183Y-94401920D01*
X95144500Y-94566230D01*
X95144500Y-94733769D01*
X95177183Y-94898079D01*
X95177185Y-94898085D01*
X95241296Y-95052862D01*
X95260347Y-95081373D01*
X95334374Y-95192162D01*
X95452838Y-95310626D01*
X95520061Y-95355543D01*
X95538981Y-95368185D01*
X95576860Y-95416235D01*
X95579262Y-95477373D01*
X95545269Y-95528247D01*
X95487865Y-95549424D01*
X95483979Y-95549500D01*
X92224936Y-95549500D01*
X92165064Y-95549500D01*
X92109749Y-95572413D01*
X92067413Y-95614749D01*
X92044500Y-95670064D01*
X92044500Y-104329936D01*
X92067413Y-104385251D01*
X92109749Y-104427587D01*
X92165064Y-104450500D01*
X92165066Y-104450500D01*
X92813979Y-104450500D01*
X92872170Y-104469407D01*
X92908134Y-104518907D01*
X92908134Y-104580093D01*
X92872170Y-104629593D01*
X92868981Y-104631815D01*
X92782838Y-104689374D01*
X92782834Y-104689377D01*
X92664377Y-104807834D01*
X92664374Y-104807838D01*
X92571296Y-104947137D01*
X92507185Y-105101914D01*
X92507183Y-105101920D01*
X92474500Y-105266230D01*
X92474500Y-105433769D01*
X92507183Y-105598079D01*
X92507185Y-105598085D01*
X92571296Y-105752862D01*
X92595874Y-105789645D01*
X92664374Y-105892162D01*
X92782838Y-106010626D01*
X92922137Y-106103703D01*
X93076918Y-106167816D01*
X93241233Y-106200500D01*
X93241234Y-106200500D01*
X93408766Y-106200500D01*
X93408767Y-106200500D01*
X93573082Y-106167816D01*
X93727863Y-106103703D01*
X93867162Y-106010626D01*
X93985626Y-105892162D01*
X94078703Y-105752863D01*
X94123536Y-105644626D01*
X94163273Y-105598102D01*
X94222768Y-105583818D01*
X94279295Y-105607233D01*
X94306464Y-105644627D01*
X94351296Y-105752862D01*
X94375874Y-105789645D01*
X94444374Y-105892162D01*
X94562838Y-106010626D01*
X94702137Y-106103703D01*
X94856918Y-106167816D01*
X95021233Y-106200500D01*
X95021234Y-106200500D01*
X95188766Y-106200500D01*
X95188767Y-106200500D01*
X95353082Y-106167816D01*
X95507863Y-106103703D01*
X95647162Y-106010626D01*
X95765626Y-105892162D01*
X95858703Y-105752863D01*
X95903536Y-105644626D01*
X95943273Y-105598102D01*
X96002768Y-105583818D01*
X96059295Y-105607233D01*
X96086464Y-105644627D01*
X96131296Y-105752862D01*
X96155874Y-105789645D01*
X96224374Y-105892162D01*
X96342838Y-106010626D01*
X96482137Y-106103703D01*
X96636918Y-106167816D01*
X96801233Y-106200500D01*
X96801234Y-106200500D01*
X96968766Y-106200500D01*
X96968767Y-106200500D01*
X97133082Y-106167816D01*
X97287863Y-106103703D01*
X97427162Y-106010626D01*
X97545626Y-105892162D01*
X97638703Y-105752863D01*
X97683536Y-105644626D01*
X97723273Y-105598102D01*
X97782768Y-105583818D01*
X97839295Y-105607233D01*
X97866464Y-105644627D01*
X97911296Y-105752862D01*
X97935874Y-105789645D01*
X98004374Y-105892162D01*
X98122838Y-106010626D01*
X98262137Y-106103703D01*
X98416918Y-106167816D01*
X98581233Y-106200500D01*
X98581234Y-106200500D01*
X98748766Y-106200500D01*
X98748767Y-106200500D01*
X98913082Y-106167816D01*
X99067863Y-106103703D01*
X99207162Y-106010626D01*
X99325626Y-105892162D01*
X99418703Y-105752863D01*
X99463536Y-105644626D01*
X99503273Y-105598102D01*
X99562768Y-105583818D01*
X99619295Y-105607233D01*
X99646464Y-105644627D01*
X99691296Y-105752862D01*
X99715874Y-105789645D01*
X99784374Y-105892162D01*
X99902838Y-106010626D01*
X100042137Y-106103703D01*
X100196918Y-106167816D01*
X100361233Y-106200500D01*
X100361234Y-106200500D01*
X100528766Y-106200500D01*
X100528767Y-106200500D01*
X100693082Y-106167816D01*
X100847863Y-106103703D01*
X100987162Y-106010626D01*
X101105626Y-105892162D01*
X101198703Y-105752863D01*
X101243536Y-105644626D01*
X101283273Y-105598102D01*
X101342768Y-105583818D01*
X101399295Y-105607233D01*
X101426464Y-105644627D01*
X101471296Y-105752862D01*
X101495874Y-105789645D01*
X101564374Y-105892162D01*
X101682838Y-106010626D01*
X101822137Y-106103703D01*
X101976918Y-106167816D01*
X102141233Y-106200500D01*
X102141234Y-106200500D01*
X102308766Y-106200500D01*
X102308767Y-106200500D01*
X102473082Y-106167816D01*
X102627863Y-106103703D01*
X102767162Y-106010626D01*
X102852791Y-105924997D01*
X102907307Y-105897219D01*
X102967740Y-105906790D01*
X103011004Y-105950054D01*
X103021786Y-105993686D01*
X103026268Y-106331354D01*
X103008135Y-106389791D01*
X102959117Y-106426408D01*
X102914360Y-106430822D01*
X102907468Y-106429915D01*
X102904316Y-106429500D01*
X102555684Y-106429500D01*
X102539398Y-106431644D01*
X102506825Y-106435932D01*
X102506824Y-106435932D01*
X102399598Y-106485933D01*
X102399596Y-106485934D01*
X102399596Y-106485935D01*
X102315935Y-106569596D01*
X102315934Y-106569597D01*
X102315028Y-106570504D01*
X102260511Y-106598281D01*
X102245024Y-106599500D01*
X92306190Y-106599500D01*
X92247999Y-106580593D01*
X92236186Y-106570504D01*
X91099496Y-105433814D01*
X91071719Y-105379297D01*
X91070500Y-105363810D01*
X91070500Y-95126189D01*
X91089407Y-95067998D01*
X91099490Y-95056191D01*
X93570470Y-92585212D01*
X93616614Y-92505288D01*
X93628182Y-92462113D01*
X93653806Y-92417733D01*
X93702046Y-92369495D01*
X93756563Y-92341719D01*
X93772048Y-92340500D01*
X94553810Y-92340500D01*
X94612001Y-92359407D01*
G37*
%TD.AperFunction*%
%TA.AperFunction,Conductor*%
G36*
X120307502Y-96475274D02*
G01*
X120337379Y-96495238D01*
X120337380Y-96495238D01*
X120337383Y-96495240D01*
X120414099Y-96510500D01*
X120453000Y-96510499D01*
X120511189Y-96529405D01*
X120547154Y-96578904D01*
X120552000Y-96609497D01*
X120552000Y-96648396D01*
X120552001Y-96648404D01*
X120567259Y-96725115D01*
X120567259Y-96725116D01*
X120567260Y-96725117D01*
X120587226Y-96754999D01*
X120603834Y-96813887D01*
X120587227Y-96864999D01*
X120567261Y-96894880D01*
X120567259Y-96894886D01*
X120552001Y-96971589D01*
X120552000Y-96971599D01*
X120552000Y-97148397D01*
X120552001Y-97148404D01*
X120567259Y-97225115D01*
X120567259Y-97225116D01*
X120567260Y-97225117D01*
X120587226Y-97254999D01*
X120603834Y-97313887D01*
X120587227Y-97364999D01*
X120567261Y-97394880D01*
X120567259Y-97394886D01*
X120552001Y-97471589D01*
X120552000Y-97471599D01*
X120552000Y-97648397D01*
X120552001Y-97648404D01*
X120567259Y-97725115D01*
X120567259Y-97725116D01*
X120567260Y-97725117D01*
X120587226Y-97754999D01*
X120603834Y-97813887D01*
X120587227Y-97864999D01*
X120567261Y-97894880D01*
X120567259Y-97894886D01*
X120552001Y-97971589D01*
X120552000Y-97971599D01*
X120552000Y-98148397D01*
X120552001Y-98148404D01*
X120567259Y-98225115D01*
X120567259Y-98225116D01*
X120567260Y-98225117D01*
X120587226Y-98254999D01*
X120603834Y-98313887D01*
X120587227Y-98364999D01*
X120567261Y-98394880D01*
X120567259Y-98394886D01*
X120552001Y-98471589D01*
X120552000Y-98471599D01*
X120552000Y-98648397D01*
X120552001Y-98648404D01*
X120567259Y-98725115D01*
X120567259Y-98725116D01*
X120567260Y-98725117D01*
X120587226Y-98754999D01*
X120603834Y-98813887D01*
X120587227Y-98864999D01*
X120567261Y-98894880D01*
X120567259Y-98894886D01*
X120552001Y-98971589D01*
X120552000Y-98971599D01*
X120552000Y-99148397D01*
X120552001Y-99148404D01*
X120567259Y-99225115D01*
X120567259Y-99225116D01*
X120567260Y-99225117D01*
X120587226Y-99254999D01*
X120603834Y-99313887D01*
X120587227Y-99364999D01*
X120567261Y-99394880D01*
X120567259Y-99394886D01*
X120552001Y-99471589D01*
X120552000Y-99471599D01*
X120552000Y-99648397D01*
X120552001Y-99648404D01*
X120567259Y-99725115D01*
X120567259Y-99725116D01*
X120567260Y-99725117D01*
X120587226Y-99754999D01*
X120603834Y-99813887D01*
X120587227Y-99864999D01*
X120567261Y-99894880D01*
X120567259Y-99894886D01*
X120552001Y-99971589D01*
X120552000Y-99971599D01*
X120552000Y-100148397D01*
X120552001Y-100148404D01*
X120567259Y-100225115D01*
X120567259Y-100225116D01*
X120567260Y-100225117D01*
X120587226Y-100254999D01*
X120603834Y-100313887D01*
X120587227Y-100364999D01*
X120567261Y-100394880D01*
X120567259Y-100394886D01*
X120552001Y-100471589D01*
X120552000Y-100471599D01*
X120552000Y-100648397D01*
X120552001Y-100648404D01*
X120567259Y-100725115D01*
X120567259Y-100725116D01*
X120567260Y-100725117D01*
X120587226Y-100754999D01*
X120603834Y-100813887D01*
X120587227Y-100864999D01*
X120567261Y-100894880D01*
X120567259Y-100894886D01*
X120552001Y-100971589D01*
X120552000Y-100971599D01*
X120552000Y-101148397D01*
X120552001Y-101148404D01*
X120567259Y-101225115D01*
X120567259Y-101225116D01*
X120567260Y-101225117D01*
X120587226Y-101254999D01*
X120603834Y-101313887D01*
X120587227Y-101364999D01*
X120567261Y-101394880D01*
X120567259Y-101394886D01*
X120552001Y-101471589D01*
X120552000Y-101471599D01*
X120552000Y-101648397D01*
X120552001Y-101648404D01*
X120567259Y-101725115D01*
X120567259Y-101725116D01*
X120567260Y-101725117D01*
X120587226Y-101754999D01*
X120603834Y-101813887D01*
X120587227Y-101864999D01*
X120567261Y-101894880D01*
X120567259Y-101894886D01*
X120552001Y-101971588D01*
X120552000Y-101971600D01*
X120552000Y-102010500D01*
X120533093Y-102068691D01*
X120483593Y-102104655D01*
X120453002Y-102109500D01*
X120414103Y-102109500D01*
X120414095Y-102109501D01*
X120337384Y-102124759D01*
X120337380Y-102124762D01*
X120309859Y-102143151D01*
X120308419Y-102144113D01*
X120286123Y-102150400D01*
X120265101Y-102160104D01*
X120257243Y-102158544D01*
X120249530Y-102160720D01*
X120205086Y-102148196D01*
X120193792Y-102141878D01*
X120187134Y-102137800D01*
X120167617Y-102124760D01*
X120167616Y-102124759D01*
X120167615Y-102124759D01*
X120116830Y-102114656D01*
X120116830Y-102114655D01*
X120112492Y-102113792D01*
X120110898Y-102113325D01*
X120108141Y-102112928D01*
X120105540Y-102112411D01*
X120105534Y-102112410D01*
X120090907Y-102109501D01*
X120090905Y-102109500D01*
X120090901Y-102109500D01*
X120090897Y-102109500D01*
X120089628Y-102109375D01*
X120077286Y-102108492D01*
X120053000Y-102105000D01*
X119951999Y-102105000D01*
X119948343Y-102105261D01*
X119922746Y-102107092D01*
X119887824Y-102112113D01*
X119887815Y-102112115D01*
X119881301Y-102114544D01*
X119867759Y-102118518D01*
X119857946Y-102120652D01*
X119856229Y-102121010D01*
X119837381Y-102124760D01*
X119826096Y-102132300D01*
X119816633Y-102137889D01*
X119811307Y-102140647D01*
X119805979Y-102142635D01*
X119799917Y-102146530D01*
X119799925Y-102146542D01*
X119795676Y-102148744D01*
X119769823Y-102153015D01*
X119744475Y-102159674D01*
X119739535Y-102158019D01*
X119735309Y-102158718D01*
X119722591Y-102152344D01*
X119695141Y-102143151D01*
X119667620Y-102124761D01*
X119667617Y-102124760D01*
X119667615Y-102124759D01*
X119667613Y-102124759D01*
X119590910Y-102109501D01*
X119590902Y-102109500D01*
X119590901Y-102109500D01*
X119590900Y-102109500D01*
X119414102Y-102109500D01*
X119414095Y-102109501D01*
X119337384Y-102124759D01*
X119337380Y-102124762D01*
X119309859Y-102143151D01*
X119308419Y-102144113D01*
X119286123Y-102150400D01*
X119265101Y-102160104D01*
X119257243Y-102158544D01*
X119249530Y-102160720D01*
X119205086Y-102148196D01*
X119193792Y-102141878D01*
X119187134Y-102137800D01*
X119167617Y-102124760D01*
X119167616Y-102124759D01*
X119167615Y-102124759D01*
X119116830Y-102114656D01*
X119116830Y-102114655D01*
X119112492Y-102113792D01*
X119110898Y-102113325D01*
X119108141Y-102112928D01*
X119105540Y-102112411D01*
X119105534Y-102112410D01*
X119090907Y-102109501D01*
X119090905Y-102109500D01*
X119090901Y-102109500D01*
X119090897Y-102109500D01*
X119089628Y-102109375D01*
X119077286Y-102108492D01*
X119053000Y-102105000D01*
X118451999Y-102105000D01*
X118408316Y-102109697D01*
X118408312Y-102109697D01*
X118408310Y-102109698D01*
X118367482Y-102118578D01*
X118367476Y-102118580D01*
X118357116Y-102120834D01*
X118337383Y-102124760D01*
X118311107Y-102142316D01*
X118303304Y-102146473D01*
X118303286Y-102146482D01*
X118298193Y-102149197D01*
X118237947Y-102159880D01*
X118196629Y-102144145D01*
X118195141Y-102143151D01*
X118167617Y-102124760D01*
X118167613Y-102124759D01*
X118090910Y-102109501D01*
X118090902Y-102109500D01*
X118090901Y-102109500D01*
X118090900Y-102109500D01*
X117914102Y-102109500D01*
X117914095Y-102109501D01*
X117837384Y-102124759D01*
X117837380Y-102124762D01*
X117809859Y-102143151D01*
X117807500Y-102144727D01*
X117748611Y-102161334D01*
X117697499Y-102144726D01*
X117667619Y-102124761D01*
X117667617Y-102124760D01*
X117667614Y-102124759D01*
X117667613Y-102124759D01*
X117590910Y-102109501D01*
X117590902Y-102109500D01*
X117590901Y-102109500D01*
X117590900Y-102109500D01*
X117414102Y-102109500D01*
X117414095Y-102109501D01*
X117337384Y-102124759D01*
X117337380Y-102124762D01*
X117309859Y-102143151D01*
X117307500Y-102144727D01*
X117248611Y-102161334D01*
X117197499Y-102144726D01*
X117167619Y-102124761D01*
X117167617Y-102124760D01*
X117167614Y-102124759D01*
X117167613Y-102124759D01*
X117090910Y-102109501D01*
X117090902Y-102109500D01*
X117090901Y-102109500D01*
X117090900Y-102109500D01*
X116914102Y-102109500D01*
X116914095Y-102109501D01*
X116837384Y-102124759D01*
X116837380Y-102124762D01*
X116809859Y-102143151D01*
X116807500Y-102144727D01*
X116748611Y-102161334D01*
X116697499Y-102144726D01*
X116667619Y-102124761D01*
X116667617Y-102124760D01*
X116667614Y-102124759D01*
X116667613Y-102124759D01*
X116590910Y-102109501D01*
X116590902Y-102109500D01*
X116590901Y-102109500D01*
X116590900Y-102109500D01*
X116414102Y-102109500D01*
X116414095Y-102109501D01*
X116337384Y-102124759D01*
X116337380Y-102124762D01*
X116309859Y-102143151D01*
X116307500Y-102144727D01*
X116248611Y-102161334D01*
X116197499Y-102144726D01*
X116167619Y-102124761D01*
X116167617Y-102124760D01*
X116167614Y-102124759D01*
X116167613Y-102124759D01*
X116090910Y-102109501D01*
X116090902Y-102109500D01*
X116090901Y-102109500D01*
X116090900Y-102109500D01*
X115914102Y-102109500D01*
X115914095Y-102109501D01*
X115837384Y-102124759D01*
X115837380Y-102124762D01*
X115809859Y-102143151D01*
X115807500Y-102144727D01*
X115748611Y-102161334D01*
X115697499Y-102144726D01*
X115667619Y-102124761D01*
X115667617Y-102124760D01*
X115667614Y-102124759D01*
X115667613Y-102124759D01*
X115590910Y-102109501D01*
X115590902Y-102109500D01*
X115590901Y-102109500D01*
X115590900Y-102109500D01*
X115414102Y-102109500D01*
X115414095Y-102109501D01*
X115337384Y-102124759D01*
X115337380Y-102124762D01*
X115309859Y-102143151D01*
X115307500Y-102144727D01*
X115248611Y-102161334D01*
X115197499Y-102144726D01*
X115167619Y-102124761D01*
X115167617Y-102124760D01*
X115167614Y-102124759D01*
X115167613Y-102124759D01*
X115090911Y-102109501D01*
X115090901Y-102109500D01*
X115090900Y-102109500D01*
X115051999Y-102109500D01*
X114993808Y-102090593D01*
X114957844Y-102041093D01*
X114952999Y-102010500D01*
X114952999Y-101971602D01*
X114952998Y-101971595D01*
X114937740Y-101894883D01*
X114937739Y-101894881D01*
X114924119Y-101874497D01*
X114917773Y-101865001D01*
X114901165Y-101806114D01*
X114917774Y-101754998D01*
X114937738Y-101725120D01*
X114937738Y-101725119D01*
X114937740Y-101725117D01*
X114953000Y-101648401D01*
X114952999Y-101471600D01*
X114937740Y-101394883D01*
X114917773Y-101365001D01*
X114901165Y-101306114D01*
X114917774Y-101254998D01*
X114937738Y-101225120D01*
X114937738Y-101225119D01*
X114937740Y-101225117D01*
X114953000Y-101148401D01*
X114952999Y-100971600D01*
X114937740Y-100894883D01*
X114917773Y-100865001D01*
X114901165Y-100806114D01*
X114917774Y-100754998D01*
X114937738Y-100725120D01*
X114937738Y-100725119D01*
X114937740Y-100725117D01*
X114953000Y-100648401D01*
X114952999Y-100471600D01*
X114937740Y-100394883D01*
X114917773Y-100365001D01*
X114901165Y-100306114D01*
X114917774Y-100254998D01*
X114937738Y-100225120D01*
X114937738Y-100225119D01*
X114937740Y-100225117D01*
X114953000Y-100148401D01*
X114952999Y-99971600D01*
X114937740Y-99894883D01*
X114917773Y-99865001D01*
X114901165Y-99806114D01*
X114917774Y-99754998D01*
X114937738Y-99725120D01*
X114937738Y-99725119D01*
X114937740Y-99725117D01*
X114953000Y-99648401D01*
X114952999Y-99471600D01*
X114937740Y-99394883D01*
X114917773Y-99365001D01*
X114901165Y-99306114D01*
X114917774Y-99254998D01*
X114937738Y-99225120D01*
X114937738Y-99225119D01*
X114937740Y-99225117D01*
X114953000Y-99148401D01*
X114952999Y-98971600D01*
X114937740Y-98894883D01*
X114917773Y-98865001D01*
X114901165Y-98806114D01*
X114917774Y-98754998D01*
X114937738Y-98725120D01*
X114937738Y-98725119D01*
X114937740Y-98725117D01*
X114953000Y-98648401D01*
X114952999Y-98471600D01*
X114937740Y-98394883D01*
X114917773Y-98365001D01*
X114901165Y-98306114D01*
X114917774Y-98254998D01*
X114937738Y-98225120D01*
X114937738Y-98225119D01*
X114937740Y-98225117D01*
X114953000Y-98148401D01*
X114952999Y-97971600D01*
X114937740Y-97894883D01*
X114917773Y-97865001D01*
X114901165Y-97806114D01*
X114917774Y-97754998D01*
X114937738Y-97725120D01*
X114937738Y-97725119D01*
X114937740Y-97725117D01*
X114953000Y-97648401D01*
X114952999Y-97471600D01*
X114937740Y-97394883D01*
X114917773Y-97365001D01*
X114901165Y-97306114D01*
X114917774Y-97254998D01*
X114937738Y-97225120D01*
X114937738Y-97225119D01*
X114937740Y-97225117D01*
X114953000Y-97148401D01*
X114952999Y-96971600D01*
X114937740Y-96894883D01*
X114918387Y-96865919D01*
X114912100Y-96843629D01*
X114902395Y-96822604D01*
X114903954Y-96814744D01*
X114901779Y-96807031D01*
X114914300Y-96762591D01*
X114920622Y-96751288D01*
X114924691Y-96744644D01*
X114937740Y-96725117D01*
X114948701Y-96670010D01*
X114949175Y-96668398D01*
X114949573Y-96665627D01*
X114953000Y-96648401D01*
X114952999Y-96648391D01*
X114953128Y-96647089D01*
X114954008Y-96634777D01*
X114957500Y-96610500D01*
X114957500Y-96609499D01*
X114957592Y-96609215D01*
X114957753Y-96606969D01*
X114958309Y-96607008D01*
X114976407Y-96551308D01*
X115025907Y-96515344D01*
X115056500Y-96510499D01*
X115090898Y-96510499D01*
X115090900Y-96510499D01*
X115167617Y-96495240D01*
X115197498Y-96475273D01*
X115256386Y-96458665D01*
X115307502Y-96475274D01*
X115337379Y-96495238D01*
X115337380Y-96495238D01*
X115337383Y-96495240D01*
X115414099Y-96510500D01*
X115590900Y-96510499D01*
X115667617Y-96495240D01*
X115697498Y-96475273D01*
X115756386Y-96458665D01*
X115807502Y-96475274D01*
X115837379Y-96495238D01*
X115837380Y-96495238D01*
X115837383Y-96495240D01*
X115914099Y-96510500D01*
X116090900Y-96510499D01*
X116167617Y-96495240D01*
X116197498Y-96475273D01*
X116256386Y-96458665D01*
X116307502Y-96475274D01*
X116337379Y-96495238D01*
X116337380Y-96495238D01*
X116337383Y-96495240D01*
X116414099Y-96510500D01*
X116590900Y-96510499D01*
X116667617Y-96495240D01*
X116697498Y-96475273D01*
X116756386Y-96458665D01*
X116807502Y-96475274D01*
X116837379Y-96495238D01*
X116837380Y-96495238D01*
X116837383Y-96495240D01*
X116914099Y-96510500D01*
X117090900Y-96510499D01*
X117167617Y-96495240D01*
X117197498Y-96475273D01*
X117256386Y-96458665D01*
X117307502Y-96475274D01*
X117337379Y-96495238D01*
X117337380Y-96495238D01*
X117337383Y-96495240D01*
X117414099Y-96510500D01*
X117590900Y-96510499D01*
X117667617Y-96495240D01*
X117697498Y-96475273D01*
X117756386Y-96458665D01*
X117807502Y-96475274D01*
X117837379Y-96495238D01*
X117837380Y-96495238D01*
X117837383Y-96495240D01*
X117914099Y-96510500D01*
X118090900Y-96510499D01*
X118167617Y-96495240D01*
X118197498Y-96475273D01*
X118256386Y-96458665D01*
X118307502Y-96475274D01*
X118337379Y-96495238D01*
X118337380Y-96495238D01*
X118337383Y-96495240D01*
X118414099Y-96510500D01*
X118590900Y-96510499D01*
X118667617Y-96495240D01*
X118697498Y-96475273D01*
X118756386Y-96458665D01*
X118807502Y-96475274D01*
X118837379Y-96495238D01*
X118837380Y-96495238D01*
X118837383Y-96495240D01*
X118914099Y-96510500D01*
X119090900Y-96510499D01*
X119167617Y-96495240D01*
X119197498Y-96475273D01*
X119256386Y-96458665D01*
X119307502Y-96475274D01*
X119337379Y-96495238D01*
X119337380Y-96495238D01*
X119337383Y-96495240D01*
X119414099Y-96510500D01*
X119590900Y-96510499D01*
X119667617Y-96495240D01*
X119697498Y-96475273D01*
X119756386Y-96458665D01*
X119807502Y-96475274D01*
X119837379Y-96495238D01*
X119837380Y-96495238D01*
X119837383Y-96495240D01*
X119914099Y-96510500D01*
X120090900Y-96510499D01*
X120167617Y-96495240D01*
X120197498Y-96475273D01*
X120256386Y-96458665D01*
X120307502Y-96475274D01*
G37*
%TD.AperFunction*%
%TA.AperFunction,Conductor*%
G36*
X112540997Y-97239407D02*
G01*
X112552810Y-97249496D01*
X112790504Y-97487190D01*
X112818281Y-97541707D01*
X112819500Y-97557194D01*
X112819500Y-98236928D01*
X112838616Y-98308269D01*
X112875544Y-98372231D01*
X112927769Y-98424456D01*
X112927771Y-98424457D01*
X112933413Y-98430099D01*
X112933412Y-98430099D01*
X112933416Y-98430102D01*
X113113810Y-98610497D01*
X113141587Y-98665013D01*
X113132016Y-98725445D01*
X113088751Y-98768710D01*
X113043806Y-98779500D01*
X112938131Y-98779500D01*
X112903838Y-98769097D01*
X112886402Y-98764911D01*
X112885130Y-98763422D01*
X112883129Y-98762815D01*
X112828233Y-98726134D01*
X112828231Y-98726133D01*
X112828228Y-98726132D01*
X112828227Y-98726132D01*
X112769758Y-98714501D01*
X112769748Y-98714500D01*
X112295323Y-98714500D01*
X112237132Y-98695593D01*
X112201168Y-98646093D01*
X112198225Y-98596186D01*
X112198705Y-98593770D01*
X112200500Y-98584748D01*
X112200500Y-97795252D01*
X112188867Y-97736769D01*
X112188863Y-97736764D01*
X112188034Y-97734759D01*
X112180500Y-97696877D01*
X112180500Y-97467243D01*
X112199407Y-97409052D01*
X112237659Y-97377519D01*
X112268316Y-97363224D01*
X112353224Y-97278316D01*
X112353530Y-97277660D01*
X112354145Y-97276999D01*
X112358192Y-97271221D01*
X112359004Y-97271789D01*
X112370464Y-97259499D01*
X112385063Y-97239407D01*
X112391000Y-97237477D01*
X112395258Y-97232912D01*
X112443254Y-97220500D01*
X112482806Y-97220500D01*
X112540997Y-97239407D01*
G37*
%TD.AperFunction*%
%TD*%
M02*
