%TF.GenerationSoftware,KiCad,Pcbnew,9.0.3*%
%TF.CreationDate,2025-09-25T19:14:03+02:00*%
%TF.ProjectId,PCB_PAPI,5043425f-5041-4504-992e-6b696361645f,rev?*%
%TF.SameCoordinates,Original*%
%TF.FileFunction,Legend,Bot*%
%TF.FilePolarity,Positive*%
%FSLAX46Y46*%
G04 Gerber Fmt 4.6, Leading zero omitted, Abs format (unit mm)*
G04 Created by KiCad (PCBNEW 9.0.3) date 2025-09-25 19:14:03*
%MOMM*%
%LPD*%
G01*
G04 APERTURE LIST*
%ADD10C,0.125000*%
%ADD11C,0.250000*%
%ADD12C,0.300000*%
%ADD13C,0.200000*%
%ADD14C,0.120000*%
%ADD15C,0.100000*%
%ADD16C,0.046000*%
G04 APERTURE END LIST*
D10*
G36*
X129625617Y-68046127D02*
G01*
X129655632Y-68076142D01*
X129671836Y-68108550D01*
X129692116Y-68189669D01*
X129692116Y-68245710D01*
X129671836Y-68326829D01*
X129655632Y-68359237D01*
X129625617Y-68389252D01*
X129577806Y-68405190D01*
X129531402Y-68405190D01*
X129531402Y-68030190D01*
X129577806Y-68030190D01*
X129625617Y-68046127D01*
G37*
G36*
X129879616Y-68592690D02*
G01*
X128272474Y-68592690D01*
X128272474Y-68324833D01*
X128334974Y-68324833D01*
X128334974Y-68372452D01*
X128335584Y-68375521D01*
X128335131Y-68376882D01*
X128337778Y-68386548D01*
X128339732Y-68396370D01*
X128340745Y-68397383D01*
X128341572Y-68400402D01*
X128365381Y-68448021D01*
X128371523Y-68455935D01*
X128377090Y-68464266D01*
X128400900Y-68488075D01*
X128409233Y-68493642D01*
X128417142Y-68499781D01*
X128464761Y-68523592D01*
X128467780Y-68524418D01*
X128468794Y-68525432D01*
X128478619Y-68527386D01*
X128488281Y-68530032D01*
X128489640Y-68529578D01*
X128492712Y-68530190D01*
X128611759Y-68530190D01*
X128621584Y-68528235D01*
X128631523Y-68526983D01*
X128702953Y-68503173D01*
X128724139Y-68491095D01*
X128730895Y-68477583D01*
X128788142Y-68477583D01*
X128813212Y-68518322D01*
X128859747Y-68529402D01*
X128900486Y-68504332D01*
X128910654Y-68482166D01*
X128972331Y-68223119D01*
X129003750Y-68340937D01*
X129014510Y-68362821D01*
X129021883Y-68367089D01*
X129026152Y-68374463D01*
X129041848Y-68378648D01*
X129055907Y-68386788D01*
X129064139Y-68384592D01*
X129072372Y-68386788D01*
X129086433Y-68378647D01*
X129102128Y-68374462D01*
X129106395Y-68367090D01*
X129113770Y-68362821D01*
X129124530Y-68340937D01*
X129155948Y-68223119D01*
X129217626Y-68482166D01*
X129227794Y-68504332D01*
X129268533Y-68529402D01*
X129315068Y-68518322D01*
X129340138Y-68477583D01*
X129339226Y-68453214D01*
X129223625Y-67967690D01*
X129406402Y-67967690D01*
X129406402Y-68467690D01*
X129411160Y-68491608D01*
X129444984Y-68525432D01*
X129468902Y-68530190D01*
X129587950Y-68530190D01*
X129597773Y-68528235D01*
X129607715Y-68526983D01*
X129679143Y-68503173D01*
X129681864Y-68501622D01*
X129683295Y-68501622D01*
X129691617Y-68496061D01*
X129700329Y-68491095D01*
X129700970Y-68489812D01*
X129703572Y-68488074D01*
X129751191Y-68440455D01*
X129756757Y-68432123D01*
X129762898Y-68424212D01*
X129786709Y-68376593D01*
X129788517Y-68369988D01*
X129791441Y-68363800D01*
X129815250Y-68268562D01*
X129815622Y-68260913D01*
X129817116Y-68253404D01*
X129817116Y-68181976D01*
X129815622Y-68174466D01*
X129815250Y-68166818D01*
X129791441Y-68071580D01*
X129788517Y-68065391D01*
X129786709Y-68058787D01*
X129762898Y-68011168D01*
X129756757Y-68003256D01*
X129751191Y-67994925D01*
X129703572Y-67947306D01*
X129700970Y-67945567D01*
X129700329Y-67944285D01*
X129691617Y-67939318D01*
X129683295Y-67933758D01*
X129681864Y-67933758D01*
X129679143Y-67932207D01*
X129607715Y-67908397D01*
X129597773Y-67907144D01*
X129587950Y-67905190D01*
X129468902Y-67905190D01*
X129444984Y-67909948D01*
X129411160Y-67943772D01*
X129406402Y-67967690D01*
X129223625Y-67967690D01*
X129220178Y-67953214D01*
X129210010Y-67931048D01*
X129202048Y-67926148D01*
X129197366Y-67918061D01*
X129182436Y-67914079D01*
X129169271Y-67905978D01*
X129160176Y-67908143D01*
X129151145Y-67905735D01*
X129137770Y-67913478D01*
X129122736Y-67917058D01*
X129117837Y-67925018D01*
X129109748Y-67929702D01*
X129098988Y-67951586D01*
X129064140Y-68082266D01*
X129029292Y-67951586D01*
X129018532Y-67929702D01*
X129010443Y-67925018D01*
X129005544Y-67917058D01*
X128990508Y-67913478D01*
X128977134Y-67905735D01*
X128968102Y-67908143D01*
X128959009Y-67905978D01*
X128945846Y-67914078D01*
X128930914Y-67918060D01*
X128926230Y-67926148D01*
X128918270Y-67931048D01*
X128908102Y-67953214D01*
X128789054Y-68453214D01*
X128788142Y-68477583D01*
X128730895Y-68477583D01*
X128745531Y-68448311D01*
X128730403Y-68402930D01*
X128687619Y-68381538D01*
X128663424Y-68384587D01*
X128601616Y-68405190D01*
X128507465Y-68405190D01*
X128482115Y-68392514D01*
X128472649Y-68383049D01*
X128459974Y-68357698D01*
X128459974Y-68339587D01*
X128472650Y-68314235D01*
X128482114Y-68304770D01*
X128514524Y-68288565D01*
X128603109Y-68266419D01*
X128609298Y-68263494D01*
X128615900Y-68261687D01*
X128663519Y-68237878D01*
X128671433Y-68231735D01*
X128679764Y-68226169D01*
X128703573Y-68202359D01*
X128709140Y-68194025D01*
X128715279Y-68186117D01*
X128739090Y-68138498D01*
X128739916Y-68135478D01*
X128740930Y-68134465D01*
X128742884Y-68124639D01*
X128745530Y-68114978D01*
X128745076Y-68113618D01*
X128745688Y-68110547D01*
X128745688Y-68062928D01*
X128745076Y-68059856D01*
X128745530Y-68058497D01*
X128742884Y-68048835D01*
X128740930Y-68039010D01*
X128739916Y-68037996D01*
X128739090Y-68034977D01*
X128715279Y-67987358D01*
X128709138Y-67979446D01*
X128703572Y-67971115D01*
X128679763Y-67947306D01*
X128671431Y-67941739D01*
X128663520Y-67935599D01*
X128615901Y-67911789D01*
X128612882Y-67910962D01*
X128611868Y-67909948D01*
X128602037Y-67907992D01*
X128592381Y-67905348D01*
X128591021Y-67905801D01*
X128587950Y-67905190D01*
X128468902Y-67905190D01*
X128459077Y-67907144D01*
X128449137Y-67908397D01*
X128377709Y-67932207D01*
X128356523Y-67944285D01*
X128335132Y-67987070D01*
X128350259Y-68032451D01*
X128393044Y-68053842D01*
X128417239Y-68050793D01*
X128479046Y-68030190D01*
X128573196Y-68030190D01*
X128598547Y-68042866D01*
X128608013Y-68052332D01*
X128620688Y-68077681D01*
X128620688Y-68095793D01*
X128608012Y-68121143D01*
X128598547Y-68130609D01*
X128566136Y-68146814D01*
X128477553Y-68168961D01*
X128471362Y-68171885D01*
X128464761Y-68173693D01*
X128417143Y-68197502D01*
X128409225Y-68203646D01*
X128400899Y-68209210D01*
X128377089Y-68233020D01*
X128371524Y-68241348D01*
X128365381Y-68249264D01*
X128341572Y-68296883D01*
X128340745Y-68299901D01*
X128339732Y-68300915D01*
X128337778Y-68310736D01*
X128335131Y-68320403D01*
X128335584Y-68321763D01*
X128334974Y-68324833D01*
X128272474Y-68324833D01*
X128272474Y-67842690D01*
X129879616Y-67842690D01*
X129879616Y-68592690D01*
G37*
D11*
G36*
X125485689Y-90924454D02*
G01*
X125501478Y-90956031D01*
X125501478Y-90992252D01*
X125485688Y-91023831D01*
X125454113Y-91039619D01*
X125275288Y-91039619D01*
X125275288Y-90908666D01*
X125454113Y-90908666D01*
X125485689Y-90924454D01*
G37*
G36*
X131742910Y-90314969D02*
G01*
X131761842Y-90333902D01*
X131794252Y-90398723D01*
X131834812Y-90560960D01*
X131834812Y-90768277D01*
X131794252Y-90930513D01*
X131761841Y-90995336D01*
X131742910Y-91014268D01*
X131692209Y-91039619D01*
X131655988Y-91039619D01*
X131605286Y-91014268D01*
X131586354Y-90995336D01*
X131553943Y-90930515D01*
X131513384Y-90768277D01*
X131513384Y-90560960D01*
X131553943Y-90398722D01*
X131586353Y-90333901D01*
X131605286Y-90314969D01*
X131655988Y-90289619D01*
X131692209Y-90289619D01*
X131742910Y-90314969D01*
G37*
G36*
X134885767Y-90314969D02*
G01*
X134904699Y-90333902D01*
X134937109Y-90398723D01*
X134977669Y-90560960D01*
X134977669Y-90768277D01*
X134937109Y-90930513D01*
X134904698Y-90995336D01*
X134885767Y-91014268D01*
X134835066Y-91039619D01*
X134798845Y-91039619D01*
X134748143Y-91014268D01*
X134729211Y-90995336D01*
X134696800Y-90930515D01*
X134656241Y-90768277D01*
X134656241Y-90560960D01*
X134696800Y-90398722D01*
X134729210Y-90333901D01*
X134748143Y-90314969D01*
X134798845Y-90289619D01*
X134835066Y-90289619D01*
X134885767Y-90314969D01*
G37*
G36*
X136304068Y-91414619D02*
G01*
X123995896Y-91414619D01*
X123995896Y-90507558D01*
X124120896Y-90507558D01*
X124134059Y-90554520D01*
X124147236Y-90575180D01*
X124348461Y-90831285D01*
X124147236Y-91087391D01*
X124134059Y-91108051D01*
X124120896Y-91155013D01*
X124126707Y-91203439D01*
X124150607Y-91245954D01*
X124188958Y-91276086D01*
X124235920Y-91289249D01*
X124284346Y-91283438D01*
X124326861Y-91259538D01*
X124343816Y-91241847D01*
X124507430Y-91033610D01*
X124671045Y-91241847D01*
X124688000Y-91259538D01*
X124730515Y-91283438D01*
X124778941Y-91289249D01*
X124825903Y-91276086D01*
X124864254Y-91245954D01*
X124888154Y-91203439D01*
X124893965Y-91155013D01*
X124880802Y-91108051D01*
X124867625Y-91087391D01*
X124666399Y-90831285D01*
X124816059Y-90640809D01*
X125025288Y-90640809D01*
X125025288Y-91164619D01*
X125027690Y-91189005D01*
X125046354Y-91234065D01*
X125080842Y-91268553D01*
X125125902Y-91287217D01*
X125174674Y-91287217D01*
X125195399Y-91278632D01*
X125212510Y-91285180D01*
X125216990Y-91285498D01*
X125221140Y-91287217D01*
X125245526Y-91289619D01*
X125483621Y-91289619D01*
X125508007Y-91287217D01*
X125512155Y-91285498D01*
X125516637Y-91285180D01*
X125539523Y-91276422D01*
X125634760Y-91228804D01*
X125638837Y-91226237D01*
X125640764Y-91225595D01*
X125643163Y-91223513D01*
X125655498Y-91215749D01*
X125665764Y-91203911D01*
X125677609Y-91193639D01*
X125685376Y-91181299D01*
X125687454Y-91178904D01*
X125688095Y-91176980D01*
X125690663Y-91172901D01*
X125738282Y-91077662D01*
X125747039Y-91054777D01*
X125747357Y-91050296D01*
X125749076Y-91046147D01*
X125751478Y-91021761D01*
X125751478Y-90926523D01*
X125749076Y-90902137D01*
X125747357Y-90897987D01*
X125747039Y-90893507D01*
X125738281Y-90870621D01*
X125690662Y-90775383D01*
X125688095Y-90771306D01*
X125687454Y-90769381D01*
X125685374Y-90766982D01*
X125677608Y-90754646D01*
X125665767Y-90744376D01*
X125655498Y-90732536D01*
X125643160Y-90724769D01*
X125640763Y-90722690D01*
X125638838Y-90722048D01*
X125634760Y-90719481D01*
X125539523Y-90671863D01*
X125516637Y-90663105D01*
X125512155Y-90662786D01*
X125508007Y-90661068D01*
X125483621Y-90658666D01*
X125281113Y-90658666D01*
X125291076Y-90638740D01*
X125322654Y-90622952D01*
X125454113Y-90622952D01*
X125522957Y-90657374D01*
X125545843Y-90666132D01*
X125594492Y-90669589D01*
X125640763Y-90654166D01*
X125656164Y-90640809D01*
X125930049Y-90640809D01*
X125930049Y-91164619D01*
X125932451Y-91189005D01*
X125951115Y-91234065D01*
X125985603Y-91268553D01*
X126030663Y-91287217D01*
X126079435Y-91287217D01*
X126124495Y-91268553D01*
X126158983Y-91234065D01*
X126177647Y-91189005D01*
X126180049Y-91164619D01*
X126180049Y-90670317D01*
X126195836Y-90638741D01*
X126227416Y-90622952D01*
X126311256Y-90622952D01*
X126342832Y-90638740D01*
X126358621Y-90670317D01*
X126358621Y-91164619D01*
X126361023Y-91189005D01*
X126379687Y-91234065D01*
X126414175Y-91268553D01*
X126459235Y-91287217D01*
X126508007Y-91287217D01*
X126553067Y-91268553D01*
X126587555Y-91234065D01*
X126606219Y-91189005D01*
X126608621Y-91164619D01*
X126608621Y-90670317D01*
X126624409Y-90638740D01*
X126655987Y-90622952D01*
X126739827Y-90622952D01*
X126787192Y-90646634D01*
X126787192Y-91164619D01*
X126789594Y-91189005D01*
X126808258Y-91234065D01*
X126842746Y-91268553D01*
X126887806Y-91287217D01*
X126936578Y-91287217D01*
X126981638Y-91268553D01*
X127016126Y-91234065D01*
X127034790Y-91189005D01*
X127037192Y-91164619D01*
X127037192Y-90974142D01*
X127977669Y-90974142D01*
X127977669Y-91021761D01*
X127980071Y-91046147D01*
X127981789Y-91050296D01*
X127982108Y-91054776D01*
X127990865Y-91077662D01*
X128038484Y-91172901D01*
X128041051Y-91176979D01*
X128041693Y-91178904D01*
X128043771Y-91181300D01*
X128051538Y-91193638D01*
X128063380Y-91203909D01*
X128073649Y-91215749D01*
X128085982Y-91223513D01*
X128088383Y-91225595D01*
X128090310Y-91226237D01*
X128094386Y-91228803D01*
X128189624Y-91276422D01*
X128212510Y-91285180D01*
X128216990Y-91285498D01*
X128221140Y-91287217D01*
X128245526Y-91289619D01*
X128436002Y-91289619D01*
X128460388Y-91287217D01*
X128464536Y-91285498D01*
X128469018Y-91285180D01*
X128491904Y-91276422D01*
X128587141Y-91228804D01*
X128607879Y-91215749D01*
X128639835Y-91178904D01*
X128655258Y-91132634D01*
X128651800Y-91083984D01*
X128629989Y-91040361D01*
X128593144Y-91008405D01*
X128546873Y-90992982D01*
X128498224Y-90996439D01*
X128475338Y-91005197D01*
X128406494Y-91039619D01*
X128275035Y-91039619D01*
X128243458Y-91023830D01*
X128230518Y-90997951D01*
X128243457Y-90972073D01*
X128275035Y-90956285D01*
X128388383Y-90956285D01*
X128412769Y-90953883D01*
X128416917Y-90952164D01*
X128421399Y-90951846D01*
X128444285Y-90943088D01*
X128539522Y-90895470D01*
X128543600Y-90892902D01*
X128545525Y-90892261D01*
X128547922Y-90890181D01*
X128560260Y-90882415D01*
X128570529Y-90870574D01*
X128582370Y-90860305D01*
X128590136Y-90847968D01*
X128592216Y-90845570D01*
X128592857Y-90843644D01*
X128595424Y-90839568D01*
X128643043Y-90744330D01*
X128646213Y-90736047D01*
X128787193Y-90736047D01*
X128787193Y-90974142D01*
X128789595Y-90998528D01*
X128791313Y-91002676D01*
X128791632Y-91007158D01*
X128800390Y-91030044D01*
X128848008Y-91125281D01*
X128854615Y-91135777D01*
X128855878Y-91138825D01*
X128858695Y-91142258D01*
X128861063Y-91146019D01*
X128863557Y-91148182D01*
X128871423Y-91157767D01*
X128919042Y-91205387D01*
X128928630Y-91213256D01*
X128930792Y-91215749D01*
X128934546Y-91218112D01*
X128937983Y-91220933D01*
X128941036Y-91222197D01*
X128951529Y-91228803D01*
X129046767Y-91276422D01*
X129069653Y-91285180D01*
X129074133Y-91285498D01*
X129078283Y-91287217D01*
X129102669Y-91289619D01*
X129388383Y-91289619D01*
X129412769Y-91287217D01*
X129416917Y-91285498D01*
X129421399Y-91285180D01*
X129444285Y-91276422D01*
X129539522Y-91228804D01*
X129550018Y-91222196D01*
X129553068Y-91220933D01*
X129556501Y-91218114D01*
X129560260Y-91215749D01*
X129562422Y-91213255D01*
X129572010Y-91205387D01*
X129619629Y-91157768D01*
X129635174Y-91138825D01*
X129653838Y-91093766D01*
X129653838Y-91044992D01*
X129635173Y-90999933D01*
X129600685Y-90965446D01*
X129555625Y-90946782D01*
X129506852Y-90946782D01*
X129461792Y-90965447D01*
X129442851Y-90980993D01*
X129409576Y-91014268D01*
X129358875Y-91039619D01*
X129132178Y-91039619D01*
X129081476Y-91014268D01*
X129062544Y-90995336D01*
X129037193Y-90944634D01*
X129037193Y-90765555D01*
X129062543Y-90714853D01*
X129081476Y-90695921D01*
X129132178Y-90670571D01*
X129245526Y-90670571D01*
X129258419Y-90669301D01*
X129261704Y-90669520D01*
X129263967Y-90668754D01*
X129269912Y-90668169D01*
X129288666Y-90660400D01*
X129307905Y-90653894D01*
X129311077Y-90651118D01*
X129314972Y-90649505D01*
X129329329Y-90635147D01*
X129344610Y-90621777D01*
X129346478Y-90617998D01*
X129349460Y-90615017D01*
X129357227Y-90596264D01*
X129366231Y-90578059D01*
X129366511Y-90573849D01*
X129368124Y-90569957D01*
X129368124Y-90549660D01*
X129369475Y-90529393D01*
X129368124Y-90525398D01*
X129368124Y-90521185D01*
X129366068Y-90516221D01*
X130455202Y-90516221D01*
X130461142Y-90539994D01*
X130699237Y-91206661D01*
X130709701Y-91228818D01*
X130713911Y-91233469D01*
X130716598Y-91239141D01*
X130730157Y-91251416D01*
X130742433Y-91264976D01*
X130748105Y-91267662D01*
X130752756Y-91271873D01*
X130769980Y-91278024D01*
X130786511Y-91285855D01*
X130792776Y-91286166D01*
X130798686Y-91288277D01*
X130816961Y-91287368D01*
X130835224Y-91288276D01*
X130841130Y-91286166D01*
X130847398Y-91285855D01*
X130863930Y-91278024D01*
X130881154Y-91271873D01*
X130885805Y-91267662D01*
X130891477Y-91264976D01*
X130903752Y-91251416D01*
X130917312Y-91239141D01*
X130919998Y-91233469D01*
X130924209Y-91228818D01*
X130934673Y-91206661D01*
X131170776Y-90545571D01*
X131263384Y-90545571D01*
X131263384Y-90783666D01*
X131263803Y-90787920D01*
X131263532Y-90789742D01*
X131264881Y-90798870D01*
X131265786Y-90808052D01*
X131266490Y-90809753D01*
X131267116Y-90813983D01*
X131314735Y-91004459D01*
X131315378Y-91006258D01*
X131315442Y-91007158D01*
X131319324Y-91017304D01*
X131322980Y-91027534D01*
X131323516Y-91028258D01*
X131324200Y-91030044D01*
X131371818Y-91125281D01*
X131378425Y-91135777D01*
X131379688Y-91138825D01*
X131382505Y-91142258D01*
X131384873Y-91146019D01*
X131387367Y-91148182D01*
X131395233Y-91157767D01*
X131442852Y-91205387D01*
X131452440Y-91213256D01*
X131454602Y-91215749D01*
X131458356Y-91218112D01*
X131461793Y-91220933D01*
X131464846Y-91222197D01*
X131475339Y-91228803D01*
X131570577Y-91276422D01*
X131593463Y-91285180D01*
X131597943Y-91285498D01*
X131602093Y-91287217D01*
X131626479Y-91289619D01*
X131721717Y-91289619D01*
X131746103Y-91287217D01*
X131750251Y-91285498D01*
X131754733Y-91285180D01*
X131777619Y-91276422D01*
X131872856Y-91228804D01*
X131883352Y-91222196D01*
X131886402Y-91220933D01*
X131889835Y-91218114D01*
X131893594Y-91215749D01*
X131895756Y-91213255D01*
X131905344Y-91205387D01*
X131952963Y-91157768D01*
X131960830Y-91148180D01*
X131963323Y-91146019D01*
X131965689Y-91142259D01*
X131968508Y-91138825D01*
X131969770Y-91135776D01*
X131976377Y-91125282D01*
X132023996Y-91030044D01*
X132024679Y-91028258D01*
X132025216Y-91027534D01*
X132028871Y-91017304D01*
X132032754Y-91007158D01*
X132032817Y-91006258D01*
X132033461Y-91004459D01*
X132081080Y-90813983D01*
X132081705Y-90809753D01*
X132082410Y-90808052D01*
X132083314Y-90798872D01*
X132084664Y-90789743D01*
X132084392Y-90787920D01*
X132084812Y-90783666D01*
X132084812Y-90545571D01*
X132084392Y-90541316D01*
X132084664Y-90539494D01*
X132083314Y-90530364D01*
X132082410Y-90521185D01*
X132081705Y-90519483D01*
X132081080Y-90515254D01*
X132041040Y-90355095D01*
X132215765Y-90355095D01*
X132215765Y-90450333D01*
X132216980Y-90462676D01*
X132216747Y-90465967D01*
X132217731Y-90470296D01*
X132218167Y-90474719D01*
X132219430Y-90477770D01*
X132222180Y-90489861D01*
X132269798Y-90632718D01*
X132279789Y-90655093D01*
X132282732Y-90658486D01*
X132284451Y-90662636D01*
X132299996Y-90681578D01*
X132658036Y-91039619D01*
X132340765Y-91039619D01*
X132316379Y-91042021D01*
X132271319Y-91060685D01*
X132236831Y-91095173D01*
X132218167Y-91140233D01*
X132218167Y-91189005D01*
X132236831Y-91234065D01*
X132271319Y-91268553D01*
X132316379Y-91287217D01*
X132340765Y-91289619D01*
X132959812Y-91289619D01*
X132984198Y-91287217D01*
X132984199Y-91287217D01*
X132997396Y-91281750D01*
X133029258Y-91268553D01*
X133063746Y-91234065D01*
X133076431Y-91203439D01*
X133082410Y-91189006D01*
X133082410Y-91140232D01*
X133069080Y-91108051D01*
X133063746Y-91095173D01*
X133063740Y-91095167D01*
X133048200Y-91076231D01*
X132731250Y-90759280D01*
X133218167Y-90759280D01*
X133218167Y-90808052D01*
X133236831Y-90853112D01*
X133271319Y-90887600D01*
X133316379Y-90906264D01*
X133340765Y-90908666D01*
X134102669Y-90908666D01*
X134127055Y-90906264D01*
X134172115Y-90887600D01*
X134206603Y-90853112D01*
X134225267Y-90808052D01*
X134225267Y-90759280D01*
X134206603Y-90714220D01*
X134172115Y-90679732D01*
X134127055Y-90661068D01*
X134102669Y-90658666D01*
X133340765Y-90658666D01*
X133316379Y-90661068D01*
X133271319Y-90679732D01*
X133236831Y-90714220D01*
X133218167Y-90759280D01*
X132731250Y-90759280D01*
X132517541Y-90545571D01*
X134406241Y-90545571D01*
X134406241Y-90783666D01*
X134406660Y-90787920D01*
X134406389Y-90789742D01*
X134407738Y-90798870D01*
X134408643Y-90808052D01*
X134409347Y-90809753D01*
X134409973Y-90813983D01*
X134457592Y-91004459D01*
X134458235Y-91006258D01*
X134458299Y-91007158D01*
X134462181Y-91017304D01*
X134465837Y-91027534D01*
X134466373Y-91028258D01*
X134467057Y-91030044D01*
X134514675Y-91125281D01*
X134521282Y-91135777D01*
X134522545Y-91138825D01*
X134525362Y-91142258D01*
X134527730Y-91146019D01*
X134530224Y-91148182D01*
X134538090Y-91157767D01*
X134585709Y-91205387D01*
X134595297Y-91213256D01*
X134597459Y-91215749D01*
X134601213Y-91218112D01*
X134604650Y-91220933D01*
X134607703Y-91222197D01*
X134618196Y-91228803D01*
X134713434Y-91276422D01*
X134736320Y-91285180D01*
X134740800Y-91285498D01*
X134744950Y-91287217D01*
X134769336Y-91289619D01*
X134864574Y-91289619D01*
X134888960Y-91287217D01*
X134893108Y-91285498D01*
X134897590Y-91285180D01*
X134920476Y-91276422D01*
X135015713Y-91228804D01*
X135026209Y-91222196D01*
X135029259Y-91220933D01*
X135032692Y-91218114D01*
X135036451Y-91215749D01*
X135038613Y-91213255D01*
X135048201Y-91205387D01*
X135095820Y-91157768D01*
X135103687Y-91148180D01*
X135106180Y-91146019D01*
X135108546Y-91142259D01*
X135110209Y-91140233D01*
X135361024Y-91140233D01*
X135361024Y-91189005D01*
X135379688Y-91234065D01*
X135414176Y-91268553D01*
X135459236Y-91287217D01*
X135483622Y-91289619D01*
X136055050Y-91289619D01*
X136079436Y-91287217D01*
X136124496Y-91268553D01*
X136158984Y-91234065D01*
X136177648Y-91189005D01*
X136177648Y-91140233D01*
X136158984Y-91095173D01*
X136124496Y-91060685D01*
X136079436Y-91042021D01*
X136055050Y-91039619D01*
X135894336Y-91039619D01*
X135894336Y-90508490D01*
X135903910Y-90514517D01*
X135999148Y-90562136D01*
X136022034Y-90570894D01*
X136070683Y-90574351D01*
X136116954Y-90558928D01*
X136153799Y-90526972D01*
X136175610Y-90483349D01*
X136179068Y-90434699D01*
X136163645Y-90388429D01*
X136131689Y-90351584D01*
X136110951Y-90338529D01*
X136033855Y-90299981D01*
X135961714Y-90227840D01*
X135873342Y-90095281D01*
X135873286Y-90095213D01*
X135873270Y-90095173D01*
X135873179Y-90095082D01*
X135857817Y-90076323D01*
X135847532Y-90069435D01*
X135838782Y-90060685D01*
X135827469Y-90055999D01*
X135817293Y-90049184D01*
X135805154Y-90046756D01*
X135793722Y-90042021D01*
X135781477Y-90042021D01*
X135769466Y-90039619D01*
X135757324Y-90042021D01*
X135744950Y-90042021D01*
X135733636Y-90046706D01*
X135721621Y-90049084D01*
X135711322Y-90055949D01*
X135699890Y-90060685D01*
X135691231Y-90069344D01*
X135681040Y-90076138D01*
X135674152Y-90086422D01*
X135665402Y-90095173D01*
X135660716Y-90106485D01*
X135653901Y-90116662D01*
X135651473Y-90128800D01*
X135646738Y-90140233D01*
X135644361Y-90164362D01*
X135644336Y-90164489D01*
X135644344Y-90164532D01*
X135644336Y-90164619D01*
X135644336Y-91039619D01*
X135483622Y-91039619D01*
X135459236Y-91042021D01*
X135414176Y-91060685D01*
X135379688Y-91095173D01*
X135361024Y-91140233D01*
X135110209Y-91140233D01*
X135111365Y-91138825D01*
X135112627Y-91135776D01*
X135119234Y-91125282D01*
X135166853Y-91030044D01*
X135167536Y-91028258D01*
X135168073Y-91027534D01*
X135171728Y-91017304D01*
X135175611Y-91007158D01*
X135175674Y-91006258D01*
X135176318Y-91004459D01*
X135223937Y-90813983D01*
X135224562Y-90809753D01*
X135225267Y-90808052D01*
X135226171Y-90798872D01*
X135227521Y-90789743D01*
X135227249Y-90787920D01*
X135227669Y-90783666D01*
X135227669Y-90545571D01*
X135227249Y-90541316D01*
X135227521Y-90539494D01*
X135226171Y-90530364D01*
X135225267Y-90521185D01*
X135224562Y-90519483D01*
X135223937Y-90515254D01*
X135176318Y-90324778D01*
X135175674Y-90322978D01*
X135175611Y-90322079D01*
X135171728Y-90311932D01*
X135168073Y-90301703D01*
X135167536Y-90300978D01*
X135166853Y-90299193D01*
X135119234Y-90203955D01*
X135112627Y-90193460D01*
X135111364Y-90190410D01*
X135108545Y-90186975D01*
X135106180Y-90183218D01*
X135103688Y-90181056D01*
X135095819Y-90171468D01*
X135048200Y-90123850D01*
X135038614Y-90115983D01*
X135036451Y-90113489D01*
X135032689Y-90111120D01*
X135029258Y-90108305D01*
X135026211Y-90107043D01*
X135015713Y-90100434D01*
X134920476Y-90052816D01*
X134897590Y-90044058D01*
X134893108Y-90043739D01*
X134888960Y-90042021D01*
X134864574Y-90039619D01*
X134769336Y-90039619D01*
X134744950Y-90042021D01*
X134740800Y-90043739D01*
X134736320Y-90044058D01*
X134713434Y-90052816D01*
X134618196Y-90100435D01*
X134607701Y-90107041D01*
X134604651Y-90108305D01*
X134601216Y-90111123D01*
X134597459Y-90113489D01*
X134595297Y-90115980D01*
X134585709Y-90123850D01*
X134538091Y-90171469D01*
X134530224Y-90181054D01*
X134527730Y-90183218D01*
X134525361Y-90186979D01*
X134522546Y-90190411D01*
X134521284Y-90193457D01*
X134514675Y-90203956D01*
X134467057Y-90299193D01*
X134466373Y-90300978D01*
X134465837Y-90301703D01*
X134462181Y-90311932D01*
X134458299Y-90322079D01*
X134458235Y-90322978D01*
X134457592Y-90324778D01*
X134409973Y-90515254D01*
X134409347Y-90519483D01*
X134408643Y-90521185D01*
X134407738Y-90530366D01*
X134406389Y-90539495D01*
X134406660Y-90541316D01*
X134406241Y-90545571D01*
X132517541Y-90545571D01*
X132497637Y-90525667D01*
X132465765Y-90430049D01*
X132465765Y-90384603D01*
X132491115Y-90333901D01*
X132510048Y-90314969D01*
X132560750Y-90289619D01*
X132739828Y-90289619D01*
X132790529Y-90314969D01*
X132823804Y-90348245D01*
X132842746Y-90363790D01*
X132887806Y-90382455D01*
X132936579Y-90382455D01*
X132981639Y-90363790D01*
X133016126Y-90329303D01*
X133034791Y-90284243D01*
X133034791Y-90235470D01*
X133016126Y-90190410D01*
X133000581Y-90171468D01*
X132952962Y-90123850D01*
X132943376Y-90115983D01*
X132941213Y-90113489D01*
X132937451Y-90111120D01*
X132934020Y-90108305D01*
X132930973Y-90107043D01*
X132920475Y-90100434D01*
X132825238Y-90052816D01*
X132802352Y-90044058D01*
X132797870Y-90043739D01*
X132793722Y-90042021D01*
X132769336Y-90039619D01*
X132531241Y-90039619D01*
X132506855Y-90042021D01*
X132502705Y-90043739D01*
X132498225Y-90044058D01*
X132475339Y-90052816D01*
X132380101Y-90100435D01*
X132369606Y-90107041D01*
X132366556Y-90108305D01*
X132363121Y-90111123D01*
X132359364Y-90113489D01*
X132357202Y-90115980D01*
X132347614Y-90123850D01*
X132299996Y-90171469D01*
X132292129Y-90181054D01*
X132289635Y-90183218D01*
X132287266Y-90186979D01*
X132284451Y-90190411D01*
X132283189Y-90193457D01*
X132276580Y-90203956D01*
X132228962Y-90299193D01*
X132220204Y-90322079D01*
X132219885Y-90326560D01*
X132218167Y-90330709D01*
X132215765Y-90355095D01*
X132041040Y-90355095D01*
X132033461Y-90324778D01*
X132032817Y-90322978D01*
X132032754Y-90322079D01*
X132028871Y-90311932D01*
X132025216Y-90301703D01*
X132024679Y-90300978D01*
X132023996Y-90299193D01*
X131976377Y-90203955D01*
X131969770Y-90193460D01*
X131968507Y-90190410D01*
X131965688Y-90186975D01*
X131963323Y-90183218D01*
X131960831Y-90181056D01*
X131952962Y-90171468D01*
X131905343Y-90123850D01*
X131895757Y-90115983D01*
X131893594Y-90113489D01*
X131889832Y-90111120D01*
X131886401Y-90108305D01*
X131883354Y-90107043D01*
X131872856Y-90100434D01*
X131777619Y-90052816D01*
X131754733Y-90044058D01*
X131750251Y-90043739D01*
X131746103Y-90042021D01*
X131721717Y-90039619D01*
X131626479Y-90039619D01*
X131602093Y-90042021D01*
X131597943Y-90043739D01*
X131593463Y-90044058D01*
X131570577Y-90052816D01*
X131475339Y-90100435D01*
X131464844Y-90107041D01*
X131461794Y-90108305D01*
X131458359Y-90111123D01*
X131454602Y-90113489D01*
X131452440Y-90115980D01*
X131442852Y-90123850D01*
X131395234Y-90171469D01*
X131387367Y-90181054D01*
X131384873Y-90183218D01*
X131382504Y-90186979D01*
X131379689Y-90190411D01*
X131378427Y-90193457D01*
X131371818Y-90203956D01*
X131324200Y-90299193D01*
X131323516Y-90300978D01*
X131322980Y-90301703D01*
X131319324Y-90311932D01*
X131315442Y-90322079D01*
X131315378Y-90322978D01*
X131314735Y-90324778D01*
X131267116Y-90515254D01*
X131266490Y-90519483D01*
X131265786Y-90521185D01*
X131264881Y-90530366D01*
X131263532Y-90539495D01*
X131263803Y-90541316D01*
X131263384Y-90545571D01*
X131170776Y-90545571D01*
X131172768Y-90539994D01*
X131178707Y-90516221D01*
X131176286Y-90467509D01*
X131155407Y-90423430D01*
X131119249Y-90390698D01*
X131073319Y-90374295D01*
X131024606Y-90376716D01*
X130980528Y-90397595D01*
X130947796Y-90433753D01*
X130937332Y-90455910D01*
X130816955Y-90792966D01*
X130696578Y-90455910D01*
X130686114Y-90433753D01*
X130653382Y-90397595D01*
X130609303Y-90376716D01*
X130560591Y-90374294D01*
X130514661Y-90390698D01*
X130478503Y-90423430D01*
X130457624Y-90467509D01*
X130455202Y-90516221D01*
X129366068Y-90516221D01*
X129360355Y-90502430D01*
X129353849Y-90483192D01*
X129350373Y-90478330D01*
X129349460Y-90476125D01*
X129347133Y-90473798D01*
X129339598Y-90463258D01*
X129187664Y-90289619D01*
X129531240Y-90289619D01*
X129555626Y-90287217D01*
X129600686Y-90268553D01*
X129635174Y-90234065D01*
X129653838Y-90189005D01*
X129653838Y-90140233D01*
X129635174Y-90095173D01*
X129600686Y-90060685D01*
X129555626Y-90042021D01*
X129531240Y-90039619D01*
X128912193Y-90039619D01*
X128899299Y-90040889D01*
X128896015Y-90040670D01*
X128893751Y-90041435D01*
X128887807Y-90042021D01*
X128869052Y-90049789D01*
X128849814Y-90056296D01*
X128846641Y-90059071D01*
X128842747Y-90060685D01*
X128828389Y-90075042D01*
X128813109Y-90088413D01*
X128811240Y-90092191D01*
X128808259Y-90095173D01*
X128800488Y-90113932D01*
X128791489Y-90132131D01*
X128791208Y-90136337D01*
X128789595Y-90140233D01*
X128789595Y-90160535D01*
X128788244Y-90180797D01*
X128789595Y-90184791D01*
X128789595Y-90189005D01*
X128797363Y-90207759D01*
X128803870Y-90226998D01*
X128807345Y-90231859D01*
X128808259Y-90234065D01*
X128810585Y-90236391D01*
X128818121Y-90246932D01*
X129001435Y-90456433D01*
X128951529Y-90481387D01*
X128941034Y-90487993D01*
X128937984Y-90489257D01*
X128934549Y-90492075D01*
X128930792Y-90494441D01*
X128928630Y-90496932D01*
X128919042Y-90504802D01*
X128871424Y-90552421D01*
X128863557Y-90562006D01*
X128861063Y-90564170D01*
X128858694Y-90567931D01*
X128855879Y-90571363D01*
X128854617Y-90574409D01*
X128848008Y-90584908D01*
X128800390Y-90680145D01*
X128791632Y-90703031D01*
X128791313Y-90707512D01*
X128789595Y-90711661D01*
X128787193Y-90736047D01*
X128646213Y-90736047D01*
X128651801Y-90721444D01*
X128652119Y-90716963D01*
X128653838Y-90712814D01*
X128656240Y-90688428D01*
X128656240Y-90640809D01*
X128653838Y-90616423D01*
X128652119Y-90612273D01*
X128651801Y-90607793D01*
X128643043Y-90584907D01*
X128595424Y-90489669D01*
X128592857Y-90485592D01*
X128592216Y-90483667D01*
X128590136Y-90481268D01*
X128582370Y-90468932D01*
X128570529Y-90458662D01*
X128560260Y-90446822D01*
X128547922Y-90439055D01*
X128545525Y-90436976D01*
X128543600Y-90436334D01*
X128539522Y-90433767D01*
X128444285Y-90386149D01*
X128421399Y-90377391D01*
X128416917Y-90377072D01*
X128412769Y-90375354D01*
X128388383Y-90372952D01*
X128245526Y-90372952D01*
X128221140Y-90375354D01*
X128216990Y-90377072D01*
X128212510Y-90377391D01*
X128189624Y-90386149D01*
X128094386Y-90433768D01*
X128073649Y-90446822D01*
X128041693Y-90483667D01*
X128026269Y-90529937D01*
X128029727Y-90578587D01*
X128051539Y-90622210D01*
X128088384Y-90654166D01*
X128134654Y-90669590D01*
X128183304Y-90666132D01*
X128206190Y-90657374D01*
X128275035Y-90622952D01*
X128358875Y-90622952D01*
X128390451Y-90638740D01*
X128403390Y-90664618D01*
X128390451Y-90690496D01*
X128358875Y-90706285D01*
X128245526Y-90706285D01*
X128221140Y-90708687D01*
X128216990Y-90710405D01*
X128212510Y-90710724D01*
X128189624Y-90719482D01*
X128094386Y-90767101D01*
X128090309Y-90769667D01*
X128088384Y-90770309D01*
X128085985Y-90772388D01*
X128073649Y-90780155D01*
X128063379Y-90791995D01*
X128051539Y-90802265D01*
X128043772Y-90814602D01*
X128041693Y-90817000D01*
X128041051Y-90818924D01*
X128038484Y-90823003D01*
X127990866Y-90918240D01*
X127982108Y-90941126D01*
X127981789Y-90945607D01*
X127980071Y-90949756D01*
X127977669Y-90974142D01*
X127037192Y-90974142D01*
X127037192Y-90497952D01*
X127034790Y-90473566D01*
X127016126Y-90428506D01*
X126981638Y-90394018D01*
X126936578Y-90375354D01*
X126887806Y-90375354D01*
X126842746Y-90394018D01*
X126842155Y-90394608D01*
X126825237Y-90386149D01*
X126802351Y-90377391D01*
X126797869Y-90377072D01*
X126793721Y-90375354D01*
X126769335Y-90372952D01*
X126626478Y-90372952D01*
X126602092Y-90375354D01*
X126597942Y-90377072D01*
X126593462Y-90377391D01*
X126570576Y-90386149D01*
X126483621Y-90429626D01*
X126396666Y-90386149D01*
X126373780Y-90377391D01*
X126369298Y-90377072D01*
X126365150Y-90375354D01*
X126340764Y-90372952D01*
X126197907Y-90372952D01*
X126173521Y-90375354D01*
X126169371Y-90377072D01*
X126164891Y-90377391D01*
X126142006Y-90386148D01*
X126046767Y-90433767D01*
X126042687Y-90436334D01*
X126040764Y-90436976D01*
X126038368Y-90439053D01*
X126026029Y-90446821D01*
X126015756Y-90458665D01*
X126003919Y-90468932D01*
X125996154Y-90481266D01*
X125994073Y-90483666D01*
X125993430Y-90485592D01*
X125990864Y-90489670D01*
X125943246Y-90584907D01*
X125934488Y-90607793D01*
X125934169Y-90612274D01*
X125932451Y-90616423D01*
X125930049Y-90640809D01*
X125656164Y-90640809D01*
X125677608Y-90622210D01*
X125699419Y-90578587D01*
X125702877Y-90529937D01*
X125687454Y-90483667D01*
X125655498Y-90446822D01*
X125634760Y-90433767D01*
X125539523Y-90386149D01*
X125516637Y-90377391D01*
X125512155Y-90377072D01*
X125508007Y-90375354D01*
X125483621Y-90372952D01*
X125293145Y-90372952D01*
X125268759Y-90375354D01*
X125264609Y-90377072D01*
X125260129Y-90377391D01*
X125237243Y-90386149D01*
X125142005Y-90433768D01*
X125137928Y-90436334D01*
X125136003Y-90436976D01*
X125133604Y-90439055D01*
X125121268Y-90446822D01*
X125110998Y-90458662D01*
X125099158Y-90468932D01*
X125091391Y-90481269D01*
X125089312Y-90483667D01*
X125088670Y-90485591D01*
X125086103Y-90489670D01*
X125038485Y-90584907D01*
X125029727Y-90607793D01*
X125029408Y-90612274D01*
X125027690Y-90616423D01*
X125025288Y-90640809D01*
X124816059Y-90640809D01*
X124867625Y-90575180D01*
X124880802Y-90554520D01*
X124893965Y-90507558D01*
X124888154Y-90459132D01*
X124864254Y-90416617D01*
X124825903Y-90386485D01*
X124778941Y-90373322D01*
X124730515Y-90379133D01*
X124688000Y-90403033D01*
X124671045Y-90420724D01*
X124507430Y-90628960D01*
X124343816Y-90420724D01*
X124326861Y-90403033D01*
X124284346Y-90379133D01*
X124235920Y-90373322D01*
X124188958Y-90386485D01*
X124150607Y-90416617D01*
X124126707Y-90459132D01*
X124120896Y-90507558D01*
X123995896Y-90507558D01*
X123995896Y-89914619D01*
X136304068Y-89914619D01*
X136304068Y-91414619D01*
G37*
G36*
X123615029Y-88513666D02*
G01*
X122357929Y-88513666D01*
X122357929Y-88239280D01*
X122482929Y-88239280D01*
X122482929Y-88288052D01*
X122501593Y-88333112D01*
X122536081Y-88367600D01*
X122581141Y-88386264D01*
X122605527Y-88388666D01*
X123367431Y-88388666D01*
X123391817Y-88386264D01*
X123436877Y-88367600D01*
X123471365Y-88333112D01*
X123490029Y-88288052D01*
X123490029Y-88239280D01*
X123471365Y-88194220D01*
X123436877Y-88159732D01*
X123391817Y-88141068D01*
X123367431Y-88138666D01*
X122605527Y-88138666D01*
X122581141Y-88141068D01*
X122536081Y-88159732D01*
X122501593Y-88194220D01*
X122482929Y-88239280D01*
X122357929Y-88239280D01*
X122357929Y-88013666D01*
X123615029Y-88013666D01*
X123615029Y-88513666D01*
G37*
G36*
X122285029Y-87892217D02*
G01*
X121027929Y-87892217D01*
X121027929Y-87239280D01*
X121152929Y-87239280D01*
X121152929Y-87288052D01*
X121171593Y-87333112D01*
X121206081Y-87367600D01*
X121251141Y-87386264D01*
X121275527Y-87388666D01*
X121531479Y-87388666D01*
X121531479Y-87644619D01*
X121533881Y-87669005D01*
X121552545Y-87714065D01*
X121587033Y-87748553D01*
X121632093Y-87767217D01*
X121680865Y-87767217D01*
X121725925Y-87748553D01*
X121760413Y-87714065D01*
X121779077Y-87669005D01*
X121781479Y-87644619D01*
X121781479Y-87388666D01*
X122037431Y-87388666D01*
X122061817Y-87386264D01*
X122106877Y-87367600D01*
X122141365Y-87333112D01*
X122160029Y-87288052D01*
X122160029Y-87239280D01*
X122141365Y-87194220D01*
X122106877Y-87159732D01*
X122061817Y-87141068D01*
X122037431Y-87138666D01*
X121781479Y-87138666D01*
X121781479Y-86882714D01*
X121779077Y-86858328D01*
X121760413Y-86813268D01*
X121725925Y-86778780D01*
X121680865Y-86760116D01*
X121632093Y-86760116D01*
X121587033Y-86778780D01*
X121552545Y-86813268D01*
X121533881Y-86858328D01*
X121531479Y-86882714D01*
X121531479Y-87138666D01*
X121275527Y-87138666D01*
X121251141Y-87141068D01*
X121206081Y-87159732D01*
X121171593Y-87194220D01*
X121152929Y-87239280D01*
X121027929Y-87239280D01*
X121027929Y-86635116D01*
X122285029Y-86635116D01*
X122285029Y-87892217D01*
G37*
D10*
G36*
X140042711Y-91633935D02*
G01*
X140173723Y-91709575D01*
X140226320Y-91760432D01*
X140236644Y-91798960D01*
X140234946Y-91827254D01*
X140202080Y-91884178D01*
X140178427Y-91899795D01*
X140139900Y-91910119D01*
X140069556Y-91889995D01*
X139938544Y-91814356D01*
X139885947Y-91763499D01*
X139875623Y-91724971D01*
X139877321Y-91696678D01*
X139910185Y-91639754D01*
X139933838Y-91624137D01*
X139972369Y-91613813D01*
X140042711Y-91633935D01*
G37*
G36*
X141151549Y-90239651D02*
G01*
X141094938Y-90337704D01*
X141071284Y-90353321D01*
X141058356Y-90356785D01*
X141030061Y-90355086D01*
X140993758Y-90334127D01*
X140978141Y-90310474D01*
X140975870Y-90301999D01*
X140985974Y-90252627D01*
X141032986Y-90171199D01*
X141151549Y-90239651D01*
G37*
G36*
X140924732Y-90108699D02*
G01*
X140880027Y-90186131D01*
X140856372Y-90201749D01*
X140843444Y-90205213D01*
X140815151Y-90203515D01*
X140799466Y-90194459D01*
X140783849Y-90170806D01*
X140780385Y-90157878D01*
X140782083Y-90129584D01*
X140826789Y-90052151D01*
X140924732Y-90108699D01*
G37*
G36*
X141195352Y-89687590D02*
G01*
X141138740Y-89785644D01*
X141115088Y-89801261D01*
X141102159Y-89804725D01*
X141073865Y-89803026D01*
X141037562Y-89782066D01*
X141021944Y-89758413D01*
X141018480Y-89745485D01*
X141020178Y-89717191D01*
X141076789Y-89619138D01*
X141195352Y-89687590D01*
G37*
G36*
X141959381Y-88314171D02*
G01*
X142090390Y-88389811D01*
X142142987Y-88440667D01*
X142153311Y-88479195D01*
X142151613Y-88507489D01*
X142118747Y-88564413D01*
X142095094Y-88580030D01*
X142056566Y-88590354D01*
X141986224Y-88570232D01*
X141855211Y-88494592D01*
X141802614Y-88443735D01*
X141792290Y-88405207D01*
X141793988Y-88376913D01*
X141826852Y-88319990D01*
X141850505Y-88304373D01*
X141889036Y-88294048D01*
X141959381Y-88314171D01*
G37*
G36*
X142219162Y-87914299D02*
G01*
X142162550Y-88012353D01*
X142138898Y-88027970D01*
X142125969Y-88031434D01*
X142097675Y-88029735D01*
X142061372Y-88008775D01*
X142045754Y-87985122D01*
X142042290Y-87972194D01*
X142043988Y-87943900D01*
X142100599Y-87845847D01*
X142219162Y-87914299D01*
G37*
G36*
X142681490Y-87964718D02*
G01*
X139985060Y-92635070D01*
X139335540Y-92260070D01*
X139366665Y-92206160D01*
X139444329Y-92206160D01*
X139456709Y-92252364D01*
X139475044Y-92268444D01*
X139908057Y-92518443D01*
X139931149Y-92526282D01*
X139939439Y-92524060D01*
X139947740Y-92526245D01*
X139961721Y-92518089D01*
X139977354Y-92513901D01*
X139981645Y-92506468D01*
X139989061Y-92502143D01*
X139993180Y-92486488D01*
X140001272Y-92472474D01*
X139999050Y-92464184D01*
X140001235Y-92455884D01*
X139993294Y-92432826D01*
X139821718Y-92138681D01*
X140050914Y-92271007D01*
X140074006Y-92278846D01*
X140120211Y-92266465D01*
X140144129Y-92225038D01*
X140131748Y-92178834D01*
X140113414Y-92162754D01*
X139680401Y-91912754D01*
X139657308Y-91904916D01*
X139649017Y-91907137D01*
X139640718Y-91904953D01*
X139626739Y-91913106D01*
X139611104Y-91917296D01*
X139606812Y-91924729D01*
X139599397Y-91929055D01*
X139595277Y-91944709D01*
X139587186Y-91958724D01*
X139589407Y-91967014D01*
X139587223Y-91975314D01*
X139595164Y-91998372D01*
X139766738Y-92292515D01*
X139537544Y-92160190D01*
X139514451Y-92152352D01*
X139468247Y-92164732D01*
X139444329Y-92206160D01*
X139366665Y-92206160D01*
X139642959Y-91727605D01*
X139750240Y-91727605D01*
X139751602Y-91737531D01*
X139752258Y-91747527D01*
X139769688Y-91812575D01*
X139772681Y-91818645D01*
X139772726Y-91821283D01*
X139777087Y-91827578D01*
X139780474Y-91834446D01*
X139782758Y-91835764D01*
X139786613Y-91841329D01*
X139857187Y-91909568D01*
X139863624Y-91913714D01*
X139869382Y-91918764D01*
X140013720Y-92002097D01*
X140020969Y-92004557D01*
X140027780Y-92008060D01*
X140122163Y-92035060D01*
X140128910Y-92035616D01*
X140131195Y-92036935D01*
X140138836Y-92036434D01*
X140146467Y-92037063D01*
X140148773Y-92035782D01*
X140155529Y-92035340D01*
X140220579Y-92017910D01*
X140229563Y-92013479D01*
X140238839Y-92009697D01*
X140283267Y-91980363D01*
X140285492Y-91978162D01*
X140286878Y-91977791D01*
X140293488Y-91970253D01*
X140300606Y-91963214D01*
X140300893Y-91961810D01*
X140302958Y-91959456D01*
X140350576Y-91876977D01*
X140351582Y-91874013D01*
X140352655Y-91873062D01*
X140355195Y-91863368D01*
X140358415Y-91853885D01*
X140358044Y-91852500D01*
X140358838Y-91849472D01*
X140362028Y-91796328D01*
X140360664Y-91786399D01*
X140360010Y-91776407D01*
X140342580Y-91711358D01*
X140339586Y-91705287D01*
X140339542Y-91702649D01*
X140335180Y-91696353D01*
X140331794Y-91689486D01*
X140329509Y-91688166D01*
X140325654Y-91682602D01*
X140255081Y-91614364D01*
X140248644Y-91610218D01*
X140242886Y-91605168D01*
X140098549Y-91521835D01*
X140091296Y-91519373D01*
X140084488Y-91515872D01*
X139990104Y-91488873D01*
X139983358Y-91488317D01*
X139981074Y-91486998D01*
X139973431Y-91487498D01*
X139965800Y-91486870D01*
X139963493Y-91488150D01*
X139956739Y-91488593D01*
X139891691Y-91506021D01*
X139882703Y-91510452D01*
X139873429Y-91514235D01*
X139829000Y-91543570D01*
X139826773Y-91545772D01*
X139825390Y-91546143D01*
X139818782Y-91553676D01*
X139811662Y-91560720D01*
X139811374Y-91562122D01*
X139809310Y-91564477D01*
X139761691Y-91646956D01*
X139760684Y-91649920D01*
X139759613Y-91650871D01*
X139757072Y-91660562D01*
X139753853Y-91670049D01*
X139754223Y-91671432D01*
X139753430Y-91674461D01*
X139750240Y-91727605D01*
X139642959Y-91727605D01*
X139854761Y-91360753D01*
X139932424Y-91360753D01*
X139944804Y-91406958D01*
X139986231Y-91430876D01*
X140032436Y-91418496D01*
X140048516Y-91400161D01*
X140088694Y-91330569D01*
X140467581Y-91549319D01*
X140490673Y-91557158D01*
X140536878Y-91544777D01*
X140560796Y-91503350D01*
X140548415Y-91457146D01*
X140530081Y-91441066D01*
X140151195Y-91222316D01*
X140191374Y-91152725D01*
X140199212Y-91129632D01*
X140190537Y-91097256D01*
X140222912Y-91088582D01*
X140238992Y-91070247D01*
X140279170Y-91000655D01*
X140658057Y-91219405D01*
X140681149Y-91227244D01*
X140727354Y-91214863D01*
X140751272Y-91173436D01*
X140738891Y-91127232D01*
X140720557Y-91111152D01*
X140341671Y-90892402D01*
X140381850Y-90822811D01*
X140389688Y-90799718D01*
X140377308Y-90753514D01*
X140335881Y-90729596D01*
X140289676Y-90741976D01*
X140273597Y-90760311D01*
X140130738Y-91007747D01*
X140122900Y-91030839D01*
X140131574Y-91063215D01*
X140099200Y-91071890D01*
X140083121Y-91090225D01*
X139940262Y-91337661D01*
X139932424Y-91360753D01*
X139854761Y-91360753D01*
X140271427Y-90639066D01*
X140349091Y-90639066D01*
X140361471Y-90685270D01*
X140379806Y-90701350D01*
X140730340Y-90903731D01*
X140733304Y-90904737D01*
X140734255Y-90905809D01*
X140743946Y-90908349D01*
X140753433Y-90911569D01*
X140754816Y-90911198D01*
X140757845Y-90911992D01*
X140810989Y-90915182D01*
X140820917Y-90913818D01*
X140830910Y-90913164D01*
X140863435Y-90904449D01*
X140872414Y-90900020D01*
X140881696Y-90896236D01*
X140926124Y-90866902D01*
X140928349Y-90864701D01*
X140929735Y-90864330D01*
X140936345Y-90856792D01*
X140943463Y-90849753D01*
X140943750Y-90848349D01*
X140945815Y-90845995D01*
X140993433Y-90763516D01*
X140994439Y-90760552D01*
X140995512Y-90759601D01*
X140998052Y-90749907D01*
X141001272Y-90740424D01*
X141000901Y-90739039D01*
X141001695Y-90736011D01*
X141004885Y-90682867D01*
X141003521Y-90672938D01*
X141002867Y-90662946D01*
X140994152Y-90630421D01*
X140989723Y-90621440D01*
X140985939Y-90612160D01*
X140956604Y-90567731D01*
X140954403Y-90565505D01*
X140954032Y-90564121D01*
X140946493Y-90557509D01*
X140939454Y-90550393D01*
X140938051Y-90550106D01*
X140935697Y-90548041D01*
X140585163Y-90345660D01*
X140562070Y-90337822D01*
X140515866Y-90350202D01*
X140491948Y-90391630D01*
X140504328Y-90437834D01*
X140522663Y-90453914D01*
X140860419Y-90648918D01*
X140876037Y-90672571D01*
X140879501Y-90685499D01*
X140877803Y-90713793D01*
X140844937Y-90770717D01*
X140821284Y-90786334D01*
X140808356Y-90789798D01*
X140780062Y-90788100D01*
X140442306Y-90593096D01*
X140419213Y-90585258D01*
X140373009Y-90597638D01*
X140349091Y-90639066D01*
X140271427Y-90639066D01*
X140547721Y-90160511D01*
X140655002Y-90160511D01*
X140656364Y-90170438D01*
X140657020Y-90180432D01*
X140665735Y-90212957D01*
X140670162Y-90221934D01*
X140673948Y-90231218D01*
X140703283Y-90275647D01*
X140705485Y-90277873D01*
X140705856Y-90279257D01*
X140713385Y-90285860D01*
X140720433Y-90292986D01*
X140721837Y-90293273D01*
X140724190Y-90295337D01*
X140765430Y-90319146D01*
X140768393Y-90320151D01*
X140769344Y-90321224D01*
X140779037Y-90323764D01*
X140788522Y-90326984D01*
X140789905Y-90326613D01*
X140792934Y-90327407D01*
X140846078Y-90330597D01*
X140853839Y-90329531D01*
X140860027Y-90352624D01*
X140864456Y-90361606D01*
X140868240Y-90370885D01*
X140897574Y-90415313D01*
X140899775Y-90417539D01*
X140900147Y-90418924D01*
X140907679Y-90425530D01*
X140914723Y-90432652D01*
X140916126Y-90432939D01*
X140918481Y-90435004D01*
X140980340Y-90470717D01*
X140983303Y-90471723D01*
X140984255Y-90472796D01*
X140993948Y-90475336D01*
X141003432Y-90478556D01*
X141004816Y-90478185D01*
X141007845Y-90478979D01*
X141060989Y-90482169D01*
X141070917Y-90480805D01*
X141080910Y-90480151D01*
X141113435Y-90471436D01*
X141122414Y-90467007D01*
X141131696Y-90463223D01*
X141176124Y-90433889D01*
X141178349Y-90431688D01*
X141179735Y-90431317D01*
X141186345Y-90423779D01*
X141193463Y-90416740D01*
X141193750Y-90415336D01*
X141195815Y-90412982D01*
X141291053Y-90248025D01*
X141298891Y-90224932D01*
X141286511Y-90178728D01*
X141286508Y-90178726D01*
X141268176Y-90162648D01*
X140835163Y-89912648D01*
X140812070Y-89904810D01*
X140765866Y-89917190D01*
X140749786Y-89935525D01*
X140666453Y-90079862D01*
X140665446Y-90082826D01*
X140664375Y-90083777D01*
X140661834Y-90093468D01*
X140658615Y-90102955D01*
X140658985Y-90104338D01*
X140658192Y-90107367D01*
X140655002Y-90160511D01*
X140547721Y-90160511D01*
X140785816Y-89748118D01*
X140893097Y-89748118D01*
X140894459Y-89758045D01*
X140895115Y-89768039D01*
X140903830Y-89800564D01*
X140908257Y-89809541D01*
X140912043Y-89818825D01*
X140941378Y-89863254D01*
X140943580Y-89865480D01*
X140943951Y-89866864D01*
X140951480Y-89873467D01*
X140958528Y-89880593D01*
X140959932Y-89880880D01*
X140962285Y-89882944D01*
X141024144Y-89918657D01*
X141027107Y-89919663D01*
X141028059Y-89920736D01*
X141037752Y-89923276D01*
X141047236Y-89926496D01*
X141048620Y-89926125D01*
X141051649Y-89926919D01*
X141104793Y-89930109D01*
X141114720Y-89928746D01*
X141124715Y-89928091D01*
X141157238Y-89919376D01*
X141166220Y-89914946D01*
X141175499Y-89911163D01*
X141208840Y-89889149D01*
X141287428Y-90057619D01*
X141301852Y-90077284D01*
X141346803Y-90093638D01*
X141390155Y-90073415D01*
X141406509Y-90028464D01*
X141400710Y-90004776D01*
X141291603Y-89770880D01*
X141303606Y-89750090D01*
X141455676Y-89837888D01*
X141478768Y-89845727D01*
X141524973Y-89833346D01*
X141548891Y-89791919D01*
X141536510Y-89745715D01*
X141518176Y-89729635D01*
X141085163Y-89479635D01*
X141062070Y-89471797D01*
X141015866Y-89484177D01*
X140999786Y-89502512D01*
X140904548Y-89667469D01*
X140903541Y-89670433D01*
X140902470Y-89671384D01*
X140899929Y-89681075D01*
X140896710Y-89690562D01*
X140897080Y-89691945D01*
X140896287Y-89694974D01*
X140893097Y-89748118D01*
X140785816Y-89748118D01*
X141021427Y-89340028D01*
X141099091Y-89340028D01*
X141111471Y-89386232D01*
X141152899Y-89410150D01*
X141199103Y-89397770D01*
X141215183Y-89379435D01*
X141302980Y-89227364D01*
X141400923Y-89283911D01*
X141348840Y-89374124D01*
X141341002Y-89397217D01*
X141353383Y-89443421D01*
X141394810Y-89467339D01*
X141441014Y-89454958D01*
X141457094Y-89436624D01*
X141509177Y-89346412D01*
X141627740Y-89414864D01*
X141539942Y-89566935D01*
X141532104Y-89590028D01*
X141544484Y-89636232D01*
X141585912Y-89660150D01*
X141632116Y-89647770D01*
X141648196Y-89629435D01*
X141767244Y-89423238D01*
X141775082Y-89400145D01*
X141762702Y-89353941D01*
X141762699Y-89353939D01*
X141744367Y-89337861D01*
X141311354Y-89087861D01*
X141288263Y-89080023D01*
X141288262Y-89080023D01*
X141288261Y-89080023D01*
X141242057Y-89092403D01*
X141225978Y-89110738D01*
X141106929Y-89316935D01*
X141099091Y-89340028D01*
X141021427Y-89340028D01*
X141227299Y-88983448D01*
X141313173Y-88983448D01*
X141335918Y-89025528D01*
X141357479Y-89036924D01*
X141850016Y-89183826D01*
X141874296Y-89186103D01*
X141882520Y-89181657D01*
X141891865Y-89181646D01*
X141902776Y-89170708D01*
X141916377Y-89163357D01*
X141919049Y-89154397D01*
X141925650Y-89147781D01*
X141925631Y-89132328D01*
X141930049Y-89117516D01*
X141925603Y-89109291D01*
X141925592Y-89099946D01*
X141912020Y-89079686D01*
X141816269Y-88984164D01*
X141946869Y-89019326D01*
X141971201Y-89020950D01*
X141979301Y-89016286D01*
X141988645Y-89016024D01*
X141999263Y-89004792D01*
X142012655Y-88997082D01*
X142015084Y-88988057D01*
X142021508Y-88981263D01*
X142021074Y-88965810D01*
X142025091Y-88950891D01*
X142020428Y-88942792D01*
X142020166Y-88933447D01*
X142006054Y-88913559D01*
X141632565Y-88560460D01*
X141611916Y-88547486D01*
X141564100Y-88548828D01*
X141531237Y-88583589D01*
X141532579Y-88631405D01*
X141546691Y-88651294D01*
X141740193Y-88834231D01*
X141622451Y-88802532D01*
X141598119Y-88800908D01*
X141590735Y-88805158D01*
X141582217Y-88805169D01*
X141570744Y-88816669D01*
X141556664Y-88824776D01*
X141554448Y-88833003D01*
X141548432Y-88839035D01*
X141548451Y-88855280D01*
X141544228Y-88870967D01*
X141548478Y-88878350D01*
X141548489Y-88886869D01*
X141562062Y-88907130D01*
X141648385Y-88993246D01*
X141393205Y-88917138D01*
X141368925Y-88914862D01*
X141326845Y-88937607D01*
X141313173Y-88983448D01*
X141227299Y-88983448D01*
X141559626Y-88407840D01*
X141666907Y-88407840D01*
X141668269Y-88417767D01*
X141668925Y-88427761D01*
X141686355Y-88492811D01*
X141689348Y-88498881D01*
X141689393Y-88501519D01*
X141693754Y-88507814D01*
X141697141Y-88514682D01*
X141699425Y-88516000D01*
X141703280Y-88521565D01*
X141773854Y-88589804D01*
X141780291Y-88593950D01*
X141786049Y-88599000D01*
X141930387Y-88682333D01*
X141937639Y-88684794D01*
X141944448Y-88688296D01*
X142038831Y-88715295D01*
X142045577Y-88715851D01*
X142047862Y-88717170D01*
X142055504Y-88716669D01*
X142063135Y-88717298D01*
X142065441Y-88716017D01*
X142072196Y-88715575D01*
X142137246Y-88698145D01*
X142146230Y-88693714D01*
X142155506Y-88689932D01*
X142199934Y-88660598D01*
X142202159Y-88658397D01*
X142203545Y-88658026D01*
X142210155Y-88650488D01*
X142217273Y-88643449D01*
X142217560Y-88642045D01*
X142219625Y-88639691D01*
X142267243Y-88557212D01*
X142268249Y-88554248D01*
X142269322Y-88553297D01*
X142271862Y-88543603D01*
X142275082Y-88534120D01*
X142274711Y-88532735D01*
X142275505Y-88529707D01*
X142278695Y-88476563D01*
X142277331Y-88466634D01*
X142276677Y-88456642D01*
X142259247Y-88391593D01*
X142256253Y-88385522D01*
X142256209Y-88382884D01*
X142251848Y-88376589D01*
X142248461Y-88369721D01*
X142246175Y-88368401D01*
X142242321Y-88362838D01*
X142171747Y-88294599D01*
X142165309Y-88290453D01*
X142159554Y-88285405D01*
X142015216Y-88202071D01*
X142007966Y-88199610D01*
X142001155Y-88196107D01*
X141906771Y-88169108D01*
X141900024Y-88168551D01*
X141897740Y-88167233D01*
X141890097Y-88167733D01*
X141882467Y-88167105D01*
X141880160Y-88168385D01*
X141873406Y-88168828D01*
X141808357Y-88186258D01*
X141799374Y-88190687D01*
X141790096Y-88194471D01*
X141745667Y-88223805D01*
X141743440Y-88226007D01*
X141742057Y-88226378D01*
X141735453Y-88233907D01*
X141728329Y-88240954D01*
X141728041Y-88242357D01*
X141725977Y-88244712D01*
X141678358Y-88327191D01*
X141677351Y-88330155D01*
X141676280Y-88331106D01*
X141673739Y-88340797D01*
X141670520Y-88350284D01*
X141670890Y-88351667D01*
X141670097Y-88354696D01*
X141666907Y-88407840D01*
X141559626Y-88407840D01*
X141809626Y-87974827D01*
X141916907Y-87974827D01*
X141918269Y-87984754D01*
X141918925Y-87994748D01*
X141927640Y-88027273D01*
X141932067Y-88036250D01*
X141935853Y-88045534D01*
X141965188Y-88089963D01*
X141967390Y-88092189D01*
X141967761Y-88093573D01*
X141975290Y-88100176D01*
X141982338Y-88107302D01*
X141983742Y-88107589D01*
X141986095Y-88109653D01*
X142047954Y-88145366D01*
X142050917Y-88146372D01*
X142051869Y-88147445D01*
X142061562Y-88149985D01*
X142071046Y-88153205D01*
X142072430Y-88152834D01*
X142075459Y-88153628D01*
X142128603Y-88156818D01*
X142138530Y-88155455D01*
X142148525Y-88154800D01*
X142181048Y-88146085D01*
X142190030Y-88141655D01*
X142199309Y-88137872D01*
X142243737Y-88108538D01*
X142245962Y-88106337D01*
X142247348Y-88105966D01*
X142253958Y-88098428D01*
X142261076Y-88091389D01*
X142261363Y-88089985D01*
X142263428Y-88087631D01*
X142327416Y-87976799D01*
X142479486Y-88064597D01*
X142502578Y-88072436D01*
X142548783Y-88060055D01*
X142572701Y-88018628D01*
X142560320Y-87972424D01*
X142541986Y-87956344D01*
X142108973Y-87706344D01*
X142085880Y-87698506D01*
X142039676Y-87710886D01*
X142023596Y-87729221D01*
X141928358Y-87894178D01*
X141927351Y-87897142D01*
X141926280Y-87898093D01*
X141923739Y-87907784D01*
X141920520Y-87917271D01*
X141920890Y-87918654D01*
X141920097Y-87921683D01*
X141916907Y-87974827D01*
X141809626Y-87974827D01*
X142031970Y-87589717D01*
X142681490Y-87964718D01*
G37*
G36*
X115469490Y-76087908D02*
G01*
X115600502Y-76163547D01*
X115653098Y-76214404D01*
X115663422Y-76252932D01*
X115661724Y-76281226D01*
X115628858Y-76338149D01*
X115605205Y-76353767D01*
X115566678Y-76364091D01*
X115496334Y-76343967D01*
X115365322Y-76268328D01*
X115312725Y-76217472D01*
X115302402Y-76178942D01*
X115304100Y-76150649D01*
X115336966Y-76093726D01*
X115360619Y-76078108D01*
X115399147Y-76067785D01*
X115469490Y-76087908D01*
G37*
G36*
X115921870Y-75304360D02*
G01*
X116052883Y-75380000D01*
X116105479Y-75430857D01*
X116115803Y-75469385D01*
X116114105Y-75497679D01*
X116081239Y-75554602D01*
X116057586Y-75570220D01*
X116019059Y-75580544D01*
X115948715Y-75560420D01*
X115817703Y-75484781D01*
X115765107Y-75433925D01*
X115754783Y-75395397D01*
X115756481Y-75367102D01*
X115789347Y-75310179D01*
X115812998Y-75294562D01*
X115851529Y-75284239D01*
X115921870Y-75304360D01*
G37*
G36*
X116322323Y-74958210D02*
G01*
X116358625Y-74979169D01*
X116374244Y-75002825D01*
X116377708Y-75015752D01*
X116376010Y-75044046D01*
X116319399Y-75142098D01*
X116200837Y-75073647D01*
X116257448Y-74975594D01*
X116281101Y-74959976D01*
X116294029Y-74956512D01*
X116322323Y-74958210D01*
G37*
G36*
X116893982Y-74521894D02*
G01*
X115388029Y-77130282D01*
X114738509Y-76755281D01*
X114769634Y-76701371D01*
X114847298Y-76701371D01*
X114859678Y-76747575D01*
X114878013Y-76763655D01*
X115311026Y-77013654D01*
X115334118Y-77021493D01*
X115344847Y-77018618D01*
X115355785Y-77020550D01*
X115367046Y-77012669D01*
X115380323Y-77009112D01*
X115385876Y-76999492D01*
X115394978Y-76993124D01*
X115397368Y-76979587D01*
X115404241Y-76967685D01*
X115401366Y-76956956D01*
X115403298Y-76946019D01*
X115393483Y-76923694D01*
X115244307Y-76710516D01*
X115503513Y-76733117D01*
X115527754Y-76730454D01*
X115536261Y-76723311D01*
X115546989Y-76720437D01*
X115553860Y-76708535D01*
X115564389Y-76699696D01*
X115565354Y-76688628D01*
X115570907Y-76679010D01*
X115567349Y-76665735D01*
X115568544Y-76652041D01*
X115561400Y-76643532D01*
X115558526Y-76632806D01*
X115540192Y-76616726D01*
X115107180Y-76366726D01*
X115084087Y-76358888D01*
X115037883Y-76371268D01*
X115013965Y-76412696D01*
X115026345Y-76458900D01*
X115044680Y-76474980D01*
X115233712Y-76584117D01*
X115121743Y-76574355D01*
X115105731Y-76576113D01*
X115102805Y-76575597D01*
X115101383Y-76576591D01*
X115097502Y-76577018D01*
X115081126Y-76590766D01*
X115063612Y-76603023D01*
X115063104Y-76605898D01*
X115060868Y-76607776D01*
X115059011Y-76629070D01*
X115055292Y-76650128D01*
X115056863Y-76653703D01*
X115056713Y-76655431D01*
X115058623Y-76657706D01*
X115065106Y-76672452D01*
X115129545Y-76764539D01*
X114940513Y-76655401D01*
X114917420Y-76647563D01*
X114871216Y-76659943D01*
X114847298Y-76701371D01*
X114769634Y-76701371D01*
X115069738Y-76181576D01*
X115177019Y-76181576D01*
X115178380Y-76191496D01*
X115179036Y-76201496D01*
X115196465Y-76266545D01*
X115199459Y-76272617D01*
X115199504Y-76275255D01*
X115203863Y-76281548D01*
X115207251Y-76288417D01*
X115209535Y-76289736D01*
X115213391Y-76295301D01*
X115283965Y-76363540D01*
X115290402Y-76367686D01*
X115296160Y-76372736D01*
X115440498Y-76456069D01*
X115447747Y-76458529D01*
X115454558Y-76462032D01*
X115548941Y-76489032D01*
X115555688Y-76489588D01*
X115557973Y-76490907D01*
X115565614Y-76490406D01*
X115573245Y-76491035D01*
X115575551Y-76489754D01*
X115582307Y-76489312D01*
X115647357Y-76471882D01*
X115656339Y-76467452D01*
X115665617Y-76463669D01*
X115710046Y-76434334D01*
X115712271Y-76432133D01*
X115713656Y-76431762D01*
X115720263Y-76424227D01*
X115727385Y-76417184D01*
X115727672Y-76415780D01*
X115729736Y-76413427D01*
X115777355Y-76330949D01*
X115778361Y-76327984D01*
X115779433Y-76327034D01*
X115781973Y-76317342D01*
X115785193Y-76307856D01*
X115784822Y-76306472D01*
X115785616Y-76303444D01*
X115788806Y-76250300D01*
X115787442Y-76240371D01*
X115786788Y-76230379D01*
X115769358Y-76165330D01*
X115766364Y-76159259D01*
X115766320Y-76156622D01*
X115761959Y-76150327D01*
X115758572Y-76143458D01*
X115756287Y-76142138D01*
X115752433Y-76136575D01*
X115681860Y-76068336D01*
X115675423Y-76064190D01*
X115669665Y-76059140D01*
X115525327Y-75975807D01*
X115518077Y-75973346D01*
X115511267Y-75969844D01*
X115416884Y-75942844D01*
X115410136Y-75942287D01*
X115407852Y-75940969D01*
X115400210Y-75941469D01*
X115392580Y-75940841D01*
X115390273Y-75942121D01*
X115383518Y-75942564D01*
X115318469Y-75959994D01*
X115309488Y-75964422D01*
X115300208Y-75968207D01*
X115255779Y-75997542D01*
X115253553Y-75999742D01*
X115252169Y-76000114D01*
X115245557Y-76007652D01*
X115238441Y-76014692D01*
X115238153Y-76016094D01*
X115236090Y-76018448D01*
X115188470Y-76100927D01*
X115187463Y-76103891D01*
X115186392Y-76104842D01*
X115183852Y-76114530D01*
X115180632Y-76124019D01*
X115181002Y-76125403D01*
X115180209Y-76128432D01*
X115177019Y-76181576D01*
X115069738Y-76181576D01*
X115352968Y-75691007D01*
X115430632Y-75691007D01*
X115443012Y-75737211D01*
X115461347Y-75753291D01*
X115840232Y-75972040D01*
X115800054Y-76041632D01*
X115792216Y-76064725D01*
X115804596Y-76110929D01*
X115846024Y-76134847D01*
X115892228Y-76122467D01*
X115908308Y-76104132D01*
X116051164Y-75856696D01*
X116059003Y-75833604D01*
X116046622Y-75787399D01*
X116005195Y-75763481D01*
X115958991Y-75775862D01*
X115942911Y-75794196D01*
X115902732Y-75863787D01*
X115523847Y-75645037D01*
X115500754Y-75637199D01*
X115454550Y-75649579D01*
X115430632Y-75691007D01*
X115352968Y-75691007D01*
X115522118Y-75398030D01*
X115629400Y-75398030D01*
X115630763Y-75407957D01*
X115631418Y-75417951D01*
X115648847Y-75482999D01*
X115651840Y-75489069D01*
X115651885Y-75491708D01*
X115656246Y-75498003D01*
X115659633Y-75504871D01*
X115661917Y-75506189D01*
X115665772Y-75511754D01*
X115736346Y-75579993D01*
X115742783Y-75584139D01*
X115748541Y-75589189D01*
X115892879Y-75672522D01*
X115900128Y-75674982D01*
X115906939Y-75678485D01*
X116001322Y-75705485D01*
X116008069Y-75706041D01*
X116010354Y-75707360D01*
X116017995Y-75706859D01*
X116025626Y-75707488D01*
X116027932Y-75706207D01*
X116034688Y-75705765D01*
X116099738Y-75688335D01*
X116108720Y-75683905D01*
X116117998Y-75680122D01*
X116162427Y-75650787D01*
X116164652Y-75648586D01*
X116166037Y-75648215D01*
X116172644Y-75640680D01*
X116179766Y-75633637D01*
X116180053Y-75632233D01*
X116182117Y-75629880D01*
X116229736Y-75547402D01*
X116230742Y-75544437D01*
X116231814Y-75543487D01*
X116234354Y-75533795D01*
X116237574Y-75524309D01*
X116237203Y-75522925D01*
X116237997Y-75519897D01*
X116241187Y-75466753D01*
X116239823Y-75456824D01*
X116239169Y-75446832D01*
X116221739Y-75381783D01*
X116218745Y-75375712D01*
X116218701Y-75373075D01*
X116214340Y-75366780D01*
X116210953Y-75359911D01*
X116208668Y-75358591D01*
X116204814Y-75353028D01*
X116134241Y-75284789D01*
X116127804Y-75280643D01*
X116122046Y-75275593D01*
X115977708Y-75192260D01*
X115970455Y-75189798D01*
X115963647Y-75186297D01*
X115869264Y-75159298D01*
X115862518Y-75158742D01*
X115860234Y-75157423D01*
X115852591Y-75157923D01*
X115844960Y-75157295D01*
X115842653Y-75158575D01*
X115835899Y-75159018D01*
X115770851Y-75176446D01*
X115761863Y-75180877D01*
X115752589Y-75184660D01*
X115708160Y-75213995D01*
X115705934Y-75216195D01*
X115704550Y-75216567D01*
X115697938Y-75224105D01*
X115690822Y-75231145D01*
X115690534Y-75232547D01*
X115688471Y-75234901D01*
X115640851Y-75317380D01*
X115639844Y-75320344D01*
X115638773Y-75321295D01*
X115636233Y-75330983D01*
X115633013Y-75340472D01*
X115633383Y-75341856D01*
X115632590Y-75344885D01*
X115629400Y-75398030D01*
X115522118Y-75398030D01*
X115769635Y-74969319D01*
X115847298Y-74969319D01*
X115859678Y-75015523D01*
X115878013Y-75031603D01*
X116311026Y-75281602D01*
X116334118Y-75289441D01*
X116334118Y-75289440D01*
X116334119Y-75289441D01*
X116380323Y-75277061D01*
X116396403Y-75258726D01*
X116491641Y-75093769D01*
X116492647Y-75090804D01*
X116493719Y-75089854D01*
X116496259Y-75080162D01*
X116499479Y-75070676D01*
X116499108Y-75069292D01*
X116499902Y-75066264D01*
X116503092Y-75013120D01*
X116501729Y-75003192D01*
X116501074Y-74993198D01*
X116492359Y-74960674D01*
X116487929Y-74951691D01*
X116484147Y-74942415D01*
X116454813Y-74897985D01*
X116452609Y-74895757D01*
X116452239Y-74894374D01*
X116444716Y-74887776D01*
X116437664Y-74880646D01*
X116436257Y-74880358D01*
X116433904Y-74878294D01*
X116372046Y-74842580D01*
X116369081Y-74841573D01*
X116368131Y-74840502D01*
X116358439Y-74837961D01*
X116348953Y-74834742D01*
X116347569Y-74835112D01*
X116344541Y-74834319D01*
X116291397Y-74831129D01*
X116281469Y-74832491D01*
X116271476Y-74833147D01*
X116238951Y-74841862D01*
X116229970Y-74846290D01*
X116220690Y-74850075D01*
X116187349Y-74872088D01*
X116108762Y-74703619D01*
X116094338Y-74683955D01*
X116049387Y-74667601D01*
X116006035Y-74687824D01*
X115989681Y-74732775D01*
X115995480Y-74756463D01*
X116104586Y-74990356D01*
X116092583Y-75011146D01*
X115940513Y-74923349D01*
X115917420Y-74915511D01*
X115871216Y-74927891D01*
X115847298Y-74969319D01*
X115769635Y-74969319D01*
X115998309Y-74573243D01*
X116105590Y-74573243D01*
X116106952Y-74583169D01*
X116107608Y-74593165D01*
X116116323Y-74625688D01*
X116127109Y-74647560D01*
X116168535Y-74671477D01*
X116214741Y-74659095D01*
X116238658Y-74617670D01*
X116237063Y-74593335D01*
X116230973Y-74570609D01*
X116232671Y-74542316D01*
X116289345Y-74444154D01*
X116312998Y-74428537D01*
X116325927Y-74425072D01*
X116354221Y-74426770D01*
X116431765Y-74471539D01*
X116447381Y-74495191D01*
X116450846Y-74508121D01*
X116449147Y-74536416D01*
X116420811Y-74585497D01*
X116415099Y-74602326D01*
X116413653Y-74604485D01*
X116413915Y-74605812D01*
X116412973Y-74608590D01*
X116418666Y-74629837D01*
X116422933Y-74651412D01*
X116424779Y-74652648D01*
X116425354Y-74654794D01*
X116444395Y-74665787D01*
X116462676Y-74678032D01*
X116465609Y-74678035D01*
X116466781Y-74678712D01*
X116469290Y-74678039D01*
X116487063Y-74678060D01*
X116600233Y-74655680D01*
X116514340Y-74804453D01*
X116506502Y-74827546D01*
X116518882Y-74873750D01*
X116560310Y-74897668D01*
X116606514Y-74885288D01*
X116622594Y-74866953D01*
X116777355Y-74598897D01*
X116783067Y-74582067D01*
X116784514Y-74579909D01*
X116784251Y-74578581D01*
X116785194Y-74575805D01*
X116779500Y-74554558D01*
X116775234Y-74532982D01*
X116773387Y-74531745D01*
X116772813Y-74529600D01*
X116753771Y-74518606D01*
X116735491Y-74506362D01*
X116732557Y-74506358D01*
X116731386Y-74505682D01*
X116728876Y-74506354D01*
X116711104Y-74506334D01*
X116574558Y-74533336D01*
X116576230Y-74505489D01*
X116574866Y-74495560D01*
X116574212Y-74485568D01*
X116565497Y-74453043D01*
X116561067Y-74444060D01*
X116557284Y-74434782D01*
X116527950Y-74390353D01*
X116525747Y-74388126D01*
X116525377Y-74386743D01*
X116517847Y-74380139D01*
X116510801Y-74373015D01*
X116509397Y-74372727D01*
X116507043Y-74370663D01*
X116403944Y-74311140D01*
X116400979Y-74310133D01*
X116400029Y-74309062D01*
X116390337Y-74306521D01*
X116380851Y-74303302D01*
X116379467Y-74303672D01*
X116376439Y-74302879D01*
X116323295Y-74299689D01*
X116313368Y-74301051D01*
X116303373Y-74301707D01*
X116270849Y-74310422D01*
X116261864Y-74314852D01*
X116252589Y-74318635D01*
X116208160Y-74347969D01*
X116205933Y-74350171D01*
X116204550Y-74350542D01*
X116197946Y-74358071D01*
X116190822Y-74365118D01*
X116190534Y-74366521D01*
X116188470Y-74368876D01*
X116117041Y-74492594D01*
X116116034Y-74495558D01*
X116114963Y-74496509D01*
X116112423Y-74506197D01*
X116109203Y-74515686D01*
X116109573Y-74517070D01*
X116108780Y-74520099D01*
X116105590Y-74573243D01*
X115998309Y-74573243D01*
X116244462Y-74146894D01*
X116893982Y-74521894D01*
G37*
G36*
X141949558Y-75612690D02*
G01*
X141951256Y-75640984D01*
X141947792Y-75653912D01*
X141932173Y-75677567D01*
X141895870Y-75698526D01*
X141867576Y-75700224D01*
X141854649Y-75696760D01*
X141830995Y-75681142D01*
X141774383Y-75583089D01*
X141892946Y-75514637D01*
X141949558Y-75612690D01*
G37*
G36*
X141837331Y-74967468D02*
G01*
X141860983Y-74983085D01*
X141893849Y-75040010D01*
X141895547Y-75068303D01*
X141885223Y-75106831D01*
X141832626Y-75157688D01*
X141701617Y-75233328D01*
X141631273Y-75253451D01*
X141592742Y-75243126D01*
X141569089Y-75227509D01*
X141536225Y-75170588D01*
X141534527Y-75142294D01*
X141544850Y-75103763D01*
X141597447Y-75052907D01*
X141728460Y-74977267D01*
X141798801Y-74957145D01*
X141837331Y-74967468D01*
G37*
G36*
X141384949Y-74183922D02*
G01*
X141408602Y-74199539D01*
X141441468Y-74256463D01*
X141443166Y-74284757D01*
X141432842Y-74323285D01*
X141380245Y-74374141D01*
X141249236Y-74449781D01*
X141178892Y-74469904D01*
X141140361Y-74459579D01*
X141116708Y-74443962D01*
X141083844Y-74387041D01*
X141082146Y-74358747D01*
X141092469Y-74320217D01*
X141145064Y-74269362D01*
X141276079Y-74193720D01*
X141346421Y-74173598D01*
X141384949Y-74183922D01*
G37*
G36*
X142671347Y-76011675D02*
G01*
X142021827Y-76386675D01*
X141851795Y-76092171D01*
X141936169Y-76092171D01*
X141938231Y-76098266D01*
X141936566Y-76104481D01*
X141945665Y-76120241D01*
X141951498Y-76137483D01*
X141957265Y-76140335D01*
X141960484Y-76145909D01*
X141978065Y-76150619D01*
X141994378Y-76158686D01*
X142000473Y-76156623D01*
X142006688Y-76158289D01*
X142029781Y-76150451D01*
X142408667Y-75931700D01*
X142448847Y-76001292D01*
X142464926Y-76019627D01*
X142511131Y-76032007D01*
X142552558Y-76008089D01*
X142564938Y-75961885D01*
X142557100Y-75938792D01*
X142414242Y-75691356D01*
X142398162Y-75673021D01*
X142351957Y-75660641D01*
X142310530Y-75684559D01*
X142298150Y-75730764D01*
X142305988Y-75753856D01*
X142346167Y-75823447D01*
X142115574Y-75956580D01*
X142116398Y-75950579D01*
X142113209Y-75897434D01*
X142107027Y-75873844D01*
X142071237Y-75842107D01*
X142023487Y-75844972D01*
X141991750Y-75880762D01*
X141988433Y-75904922D01*
X141991014Y-75947942D01*
X141977811Y-75997220D01*
X141942506Y-76068622D01*
X141936169Y-76092171D01*
X141851795Y-76092171D01*
X141549379Y-75568371D01*
X141627042Y-75568371D01*
X141634881Y-75591463D01*
X141730119Y-75756420D01*
X141732183Y-75758774D01*
X141732471Y-75760177D01*
X141739591Y-75767220D01*
X141746199Y-75774754D01*
X141747582Y-75775124D01*
X141749809Y-75777327D01*
X141794238Y-75806662D01*
X141803515Y-75810445D01*
X141812498Y-75814875D01*
X141845022Y-75823590D01*
X141855017Y-75824245D01*
X141864944Y-75825608D01*
X141918088Y-75822418D01*
X141921116Y-75821624D01*
X141922500Y-75821995D01*
X141931986Y-75818775D01*
X141941678Y-75816235D01*
X141942628Y-75815163D01*
X141945593Y-75814157D01*
X142007451Y-75778443D01*
X142009804Y-75776378D01*
X142011210Y-75776091D01*
X142018259Y-75768963D01*
X142025786Y-75762363D01*
X142026156Y-75760979D01*
X142028359Y-75758753D01*
X142057694Y-75714323D01*
X142061476Y-75705047D01*
X142065907Y-75696063D01*
X142074622Y-75663539D01*
X142075277Y-75653544D01*
X142076640Y-75643617D01*
X142074246Y-75603735D01*
X142259438Y-75619912D01*
X142283679Y-75617253D01*
X142320318Y-75586501D01*
X142324481Y-75538846D01*
X142293728Y-75502207D01*
X142270315Y-75495386D01*
X142013204Y-75472927D01*
X142001200Y-75452137D01*
X142153270Y-75364340D01*
X142171604Y-75348260D01*
X142183985Y-75302056D01*
X142160067Y-75260629D01*
X142113862Y-75248248D01*
X142090770Y-75256087D01*
X141657757Y-75506086D01*
X141639422Y-75522166D01*
X141627441Y-75566883D01*
X141627042Y-75568371D01*
X141549379Y-75568371D01*
X141301862Y-75139659D01*
X141409144Y-75139659D01*
X141412333Y-75192803D01*
X141413126Y-75195832D01*
X141412756Y-75197217D01*
X141415973Y-75206695D01*
X141418515Y-75216393D01*
X141419588Y-75217345D01*
X141420595Y-75220309D01*
X141468215Y-75302788D01*
X141470278Y-75305141D01*
X141470566Y-75306546D01*
X141477689Y-75313591D01*
X141484294Y-75321123D01*
X141485678Y-75321494D01*
X141487904Y-75323695D01*
X141532333Y-75353029D01*
X141541611Y-75356812D01*
X141550594Y-75361242D01*
X141615643Y-75378672D01*
X141622397Y-75379114D01*
X141624704Y-75380395D01*
X141632334Y-75379766D01*
X141639977Y-75380267D01*
X141642261Y-75378948D01*
X141649008Y-75378392D01*
X141743391Y-75351393D01*
X141750202Y-75347889D01*
X141757452Y-75345429D01*
X141901790Y-75262095D01*
X141907547Y-75257045D01*
X141913984Y-75252900D01*
X141984557Y-75184662D01*
X141988412Y-75179097D01*
X141990697Y-75177778D01*
X141994084Y-75170909D01*
X141998445Y-75164615D01*
X141998489Y-75161977D01*
X142001483Y-75155907D01*
X142018913Y-75090858D01*
X142019567Y-75080865D01*
X142020931Y-75070937D01*
X142017741Y-75017793D01*
X142016947Y-75014764D01*
X142017318Y-75013380D01*
X142014098Y-75003896D01*
X142011558Y-74994203D01*
X142010485Y-74993251D01*
X142009479Y-74990288D01*
X141961861Y-74907809D01*
X141959797Y-74905455D01*
X141959510Y-74904052D01*
X141952388Y-74897008D01*
X141945781Y-74889474D01*
X141944396Y-74889102D01*
X141942171Y-74886902D01*
X141897742Y-74857567D01*
X141888467Y-74853784D01*
X141879480Y-74849353D01*
X141814431Y-74831924D01*
X141807675Y-74831481D01*
X141805371Y-74830202D01*
X141797741Y-74830830D01*
X141790097Y-74830330D01*
X141787812Y-74831649D01*
X141781067Y-74832205D01*
X141686684Y-74859204D01*
X141679875Y-74862705D01*
X141672623Y-74865167D01*
X141528285Y-74948500D01*
X141522527Y-74953549D01*
X141516090Y-74957696D01*
X141445516Y-75025935D01*
X141441660Y-75031499D01*
X141439376Y-75032819D01*
X141435988Y-75039687D01*
X141431629Y-75045981D01*
X141431584Y-75048618D01*
X141428590Y-75054691D01*
X141411161Y-75119740D01*
X141410506Y-75129738D01*
X141409144Y-75139659D01*
X141301862Y-75139659D01*
X141061283Y-74722964D01*
X141138947Y-74722964D01*
X141146785Y-74746057D01*
X141289642Y-74993493D01*
X141305722Y-75011827D01*
X141351926Y-75024208D01*
X141393353Y-75000290D01*
X141405734Y-74954085D01*
X141397895Y-74930993D01*
X141357717Y-74861402D01*
X141736603Y-74642652D01*
X141754937Y-74626572D01*
X141767318Y-74580368D01*
X141743400Y-74538941D01*
X141697195Y-74526560D01*
X141674103Y-74534399D01*
X141295217Y-74753148D01*
X141255039Y-74683557D01*
X141238959Y-74665222D01*
X141192755Y-74652842D01*
X141151327Y-74676760D01*
X141138947Y-74722964D01*
X141061283Y-74722964D01*
X140849481Y-74356112D01*
X140956763Y-74356112D01*
X140959952Y-74409256D01*
X140960745Y-74412285D01*
X140960375Y-74413670D01*
X140963592Y-74423148D01*
X140966134Y-74432846D01*
X140967207Y-74433798D01*
X140968214Y-74436762D01*
X141015834Y-74519241D01*
X141017897Y-74521594D01*
X141018185Y-74522999D01*
X141025308Y-74530044D01*
X141031913Y-74537576D01*
X141033297Y-74537947D01*
X141035523Y-74540148D01*
X141079952Y-74569482D01*
X141089230Y-74573265D01*
X141098213Y-74577695D01*
X141163262Y-74595125D01*
X141170016Y-74595567D01*
X141172323Y-74596848D01*
X141179953Y-74596219D01*
X141187596Y-74596720D01*
X141189880Y-74595401D01*
X141196627Y-74594845D01*
X141291010Y-74567846D01*
X141297821Y-74564342D01*
X141305071Y-74561882D01*
X141449409Y-74478548D01*
X141455164Y-74473499D01*
X141461602Y-74469354D01*
X141532176Y-74401115D01*
X141536030Y-74395551D01*
X141538316Y-74394232D01*
X141541703Y-74387363D01*
X141546064Y-74381069D01*
X141546108Y-74378430D01*
X141549102Y-74372360D01*
X141566532Y-74307311D01*
X141567186Y-74297318D01*
X141568550Y-74287390D01*
X141565360Y-74234246D01*
X141564566Y-74231217D01*
X141564937Y-74229833D01*
X141561717Y-74220349D01*
X141559177Y-74210656D01*
X141558104Y-74209704D01*
X141557098Y-74206741D01*
X141509480Y-74124262D01*
X141507415Y-74121907D01*
X141507128Y-74120504D01*
X141500010Y-74113464D01*
X141493400Y-74105927D01*
X141492014Y-74105555D01*
X141489789Y-74103355D01*
X141445361Y-74074021D01*
X141436085Y-74070238D01*
X141427101Y-74065808D01*
X141362051Y-74048378D01*
X141355296Y-74047935D01*
X141352990Y-74046655D01*
X141345359Y-74047283D01*
X141337717Y-74046783D01*
X141335432Y-74048101D01*
X141328686Y-74048658D01*
X141234303Y-74075657D01*
X141227491Y-74079160D01*
X141220242Y-74081621D01*
X141075904Y-74164954D01*
X141070146Y-74170003D01*
X141063710Y-74174149D01*
X140993136Y-74242387D01*
X140989280Y-74247952D01*
X140986995Y-74249272D01*
X140983607Y-74256141D01*
X140979248Y-74262434D01*
X140979203Y-74265071D01*
X140976209Y-74271144D01*
X140958780Y-74336193D01*
X140958125Y-74346191D01*
X140956763Y-74356112D01*
X140849481Y-74356112D01*
X140549378Y-73836318D01*
X140627042Y-73836318D01*
X140632596Y-73845938D01*
X140633561Y-73857004D01*
X140644087Y-73865841D01*
X140650960Y-73877746D01*
X140661689Y-73880620D01*
X140670195Y-73887762D01*
X140694436Y-73890425D01*
X140953641Y-73867825D01*
X140804466Y-74081004D01*
X140794652Y-74103328D01*
X140796583Y-74114264D01*
X140793709Y-74124994D01*
X140800581Y-74136897D01*
X140802972Y-74150433D01*
X140812072Y-74156801D01*
X140817627Y-74166422D01*
X140830905Y-74169979D01*
X140842165Y-74177859D01*
X140853101Y-74175927D01*
X140863831Y-74178802D01*
X140886924Y-74170964D01*
X141319936Y-73920964D01*
X141338270Y-73904884D01*
X141350651Y-73858680D01*
X141326733Y-73817253D01*
X141280528Y-73804872D01*
X141257436Y-73812711D01*
X141068402Y-73921849D01*
X141132842Y-73829762D01*
X141139323Y-73815018D01*
X141141237Y-73812740D01*
X141141086Y-73811009D01*
X141142657Y-73807437D01*
X141138939Y-73786390D01*
X141137082Y-73765085D01*
X141134844Y-73763206D01*
X141134337Y-73760332D01*
X141116828Y-73748080D01*
X141100448Y-73734327D01*
X141096565Y-73733900D01*
X141095144Y-73732906D01*
X141092217Y-73733422D01*
X141076207Y-73731664D01*
X140964236Y-73741426D01*
X141153270Y-73632288D01*
X141171604Y-73616208D01*
X141183985Y-73570004D01*
X141160067Y-73528577D01*
X141113862Y-73516196D01*
X141090770Y-73524035D01*
X140657757Y-73774034D01*
X140639422Y-73790114D01*
X140636547Y-73800843D01*
X140629406Y-73809349D01*
X140630599Y-73823040D01*
X140627042Y-73836318D01*
X140549378Y-73836318D01*
X140518253Y-73782408D01*
X141167773Y-73407407D01*
X142671347Y-76011675D01*
G37*
G36*
X128397884Y-97907485D02*
G01*
X128426089Y-97935690D01*
X128443834Y-98006669D01*
X128443834Y-98157948D01*
X128426089Y-98228926D01*
X128397882Y-98257134D01*
X128372533Y-98269809D01*
X128306803Y-98269809D01*
X128281454Y-98257134D01*
X128253246Y-98228926D01*
X128235501Y-98157946D01*
X128235501Y-98006671D01*
X128253246Y-97935690D01*
X128281453Y-97907483D01*
X128306802Y-97894809D01*
X128372533Y-97894809D01*
X128397884Y-97907485D01*
G37*
G36*
X129302646Y-97907485D02*
G01*
X129330851Y-97935690D01*
X129348596Y-98006669D01*
X129348596Y-98157948D01*
X129330851Y-98228926D01*
X129302644Y-98257134D01*
X129277295Y-98269809D01*
X129211565Y-98269809D01*
X129186216Y-98257134D01*
X129158008Y-98228926D01*
X129140263Y-98157946D01*
X129140263Y-98006671D01*
X129158008Y-97935690D01*
X129186215Y-97907483D01*
X129211564Y-97894809D01*
X129277295Y-97894809D01*
X129302646Y-97907485D01*
G37*
G36*
X127896215Y-98031714D02*
G01*
X127782992Y-98031714D01*
X127757642Y-98019038D01*
X127748176Y-98009573D01*
X127735501Y-97984222D01*
X127735501Y-97942301D01*
X127748176Y-97916949D01*
X127757642Y-97907484D01*
X127782992Y-97894809D01*
X127896215Y-97894809D01*
X127896215Y-98031714D01*
G37*
G36*
X130083716Y-98457309D02*
G01*
X127071810Y-98457309D01*
X127071810Y-97927547D01*
X127134310Y-97927547D01*
X127134310Y-97975166D01*
X127136264Y-97984991D01*
X127137517Y-97994930D01*
X127161327Y-98066360D01*
X127162878Y-98069080D01*
X127162878Y-98070512D01*
X127168438Y-98078834D01*
X127173405Y-98087546D01*
X127174687Y-98088187D01*
X127176426Y-98090789D01*
X127355446Y-98269809D01*
X127196810Y-98269809D01*
X127172892Y-98274567D01*
X127139068Y-98308391D01*
X127139068Y-98356227D01*
X127172892Y-98390051D01*
X127196810Y-98394809D01*
X127506334Y-98394809D01*
X127530247Y-98390052D01*
X127530251Y-98390052D01*
X127564077Y-98356226D01*
X127564077Y-98308392D01*
X127550528Y-98288115D01*
X127275247Y-98012834D01*
X127259310Y-97965022D01*
X127259310Y-97942300D01*
X127271986Y-97916949D01*
X127281452Y-97907483D01*
X127306801Y-97894809D01*
X127396342Y-97894809D01*
X127421693Y-97907485D01*
X127438330Y-97924122D01*
X127458607Y-97937670D01*
X127506441Y-97937670D01*
X127516564Y-97927547D01*
X127610501Y-97927547D01*
X127610501Y-97998976D01*
X127611111Y-98002045D01*
X127610658Y-98003406D01*
X127613305Y-98013072D01*
X127615259Y-98022894D01*
X127616272Y-98023907D01*
X127617099Y-98026926D01*
X127640908Y-98074545D01*
X127647050Y-98082459D01*
X127652617Y-98090790D01*
X127676427Y-98114599D01*
X127684760Y-98120166D01*
X127692669Y-98126305D01*
X127728404Y-98144173D01*
X127621799Y-98296468D01*
X127611981Y-98318791D01*
X127620294Y-98365897D01*
X127659483Y-98393329D01*
X127706589Y-98385016D01*
X127724203Y-98368150D01*
X127872208Y-98156714D01*
X127896215Y-98156714D01*
X127896215Y-98332309D01*
X127900973Y-98356227D01*
X127934797Y-98390051D01*
X127982633Y-98390051D01*
X128016457Y-98356227D01*
X128021215Y-98332309D01*
X128021215Y-97998976D01*
X128110501Y-97998976D01*
X128110501Y-98165642D01*
X128111994Y-98173151D01*
X128112367Y-98180801D01*
X128136177Y-98276039D01*
X128139068Y-98282158D01*
X128139068Y-98284797D01*
X128143324Y-98291167D01*
X128146594Y-98298088D01*
X128148854Y-98299444D01*
X128152616Y-98305074D01*
X128200235Y-98352694D01*
X128208568Y-98358261D01*
X128216480Y-98364402D01*
X128264098Y-98388211D01*
X128267117Y-98389037D01*
X128268131Y-98390051D01*
X128277958Y-98392005D01*
X128287619Y-98394651D01*
X128288977Y-98394198D01*
X128292049Y-98394809D01*
X128387287Y-98394809D01*
X128390356Y-98394198D01*
X128391717Y-98394652D01*
X128401383Y-98392004D01*
X128411205Y-98390051D01*
X128412218Y-98389037D01*
X128415237Y-98388211D01*
X128462856Y-98364402D01*
X128470764Y-98358263D01*
X128479101Y-98352694D01*
X128526720Y-98305074D01*
X128530480Y-98299444D01*
X128532742Y-98298088D01*
X128536012Y-98291164D01*
X128540267Y-98284797D01*
X128540267Y-98282159D01*
X128543159Y-98276038D01*
X128566968Y-98180800D01*
X128567340Y-98173151D01*
X128568834Y-98165642D01*
X128568834Y-97998976D01*
X128567340Y-97991466D01*
X128566968Y-97983818D01*
X128543159Y-97888580D01*
X128540267Y-97882458D01*
X128540267Y-97879821D01*
X128536013Y-97873454D01*
X128532742Y-97866530D01*
X128530479Y-97865172D01*
X128526719Y-97859544D01*
X128479100Y-97811925D01*
X128473811Y-97808391D01*
X128591449Y-97808391D01*
X128591449Y-97856227D01*
X128625273Y-97890051D01*
X128649191Y-97894809D01*
X128729548Y-97894809D01*
X128729548Y-98332309D01*
X128734306Y-98356227D01*
X128768130Y-98390051D01*
X128815966Y-98390051D01*
X128849790Y-98356227D01*
X128854548Y-98332309D01*
X128854548Y-97998976D01*
X129015263Y-97998976D01*
X129015263Y-98165642D01*
X129016756Y-98173151D01*
X129017129Y-98180801D01*
X129040939Y-98276039D01*
X129043830Y-98282158D01*
X129043830Y-98284797D01*
X129048086Y-98291167D01*
X129051356Y-98298088D01*
X129053616Y-98299444D01*
X129057378Y-98305074D01*
X129104997Y-98352694D01*
X129113330Y-98358261D01*
X129121242Y-98364402D01*
X129168860Y-98388211D01*
X129171879Y-98389037D01*
X129172893Y-98390051D01*
X129182720Y-98392005D01*
X129192381Y-98394651D01*
X129193739Y-98394198D01*
X129196811Y-98394809D01*
X129292049Y-98394809D01*
X129295118Y-98394198D01*
X129296479Y-98394652D01*
X129306145Y-98392004D01*
X129315967Y-98390051D01*
X129316980Y-98389037D01*
X129319999Y-98388211D01*
X129367618Y-98364402D01*
X129375526Y-98358263D01*
X129383863Y-98352694D01*
X129431482Y-98305074D01*
X129435242Y-98299444D01*
X129437504Y-98298088D01*
X129440774Y-98291164D01*
X129445029Y-98284797D01*
X129445029Y-98282159D01*
X129447921Y-98276038D01*
X129471730Y-98180800D01*
X129472102Y-98173151D01*
X129473596Y-98165642D01*
X129473596Y-97998976D01*
X129472102Y-97991466D01*
X129471730Y-97983818D01*
X129447921Y-97888580D01*
X129445029Y-97882458D01*
X129445029Y-97879821D01*
X129440775Y-97873454D01*
X129437504Y-97866530D01*
X129435241Y-97865172D01*
X129431481Y-97859544D01*
X129404246Y-97832309D01*
X129562883Y-97832309D01*
X129562883Y-98332309D01*
X129567641Y-98356227D01*
X129601465Y-98390051D01*
X129649301Y-98390051D01*
X129683125Y-98356227D01*
X129687883Y-98332309D01*
X129687883Y-98114032D01*
X129735413Y-98215883D01*
X129744941Y-98228870D01*
X129745957Y-98231662D01*
X129747527Y-98232395D01*
X129749839Y-98235545D01*
X129769944Y-98242856D01*
X129789305Y-98251891D01*
X129792047Y-98250893D01*
X129794793Y-98251892D01*
X129814172Y-98242848D01*
X129834259Y-98235544D01*
X129836567Y-98232397D01*
X129838141Y-98231663D01*
X129839157Y-98228867D01*
X129848685Y-98215882D01*
X129896216Y-98114030D01*
X129896216Y-98332309D01*
X129900974Y-98356227D01*
X129934798Y-98390051D01*
X129982634Y-98390051D01*
X130016458Y-98356227D01*
X130021216Y-98332309D01*
X130021216Y-97832309D01*
X130016458Y-97808391D01*
X130008603Y-97800536D01*
X130004808Y-97790099D01*
X129992354Y-97784287D01*
X129982634Y-97774567D01*
X129971525Y-97774567D01*
X129961460Y-97769870D01*
X129948543Y-97774567D01*
X129934798Y-97774567D01*
X129926943Y-97782421D01*
X129916506Y-97786217D01*
X129902080Y-97805879D01*
X129792049Y-98041658D01*
X129682019Y-97805879D01*
X129667593Y-97786217D01*
X129657155Y-97782421D01*
X129649301Y-97774567D01*
X129635556Y-97774567D01*
X129622639Y-97769870D01*
X129612574Y-97774567D01*
X129601465Y-97774567D01*
X129591744Y-97784287D01*
X129579291Y-97790099D01*
X129575495Y-97800536D01*
X129567641Y-97808391D01*
X129562883Y-97832309D01*
X129404246Y-97832309D01*
X129383862Y-97811925D01*
X129375530Y-97806358D01*
X129367619Y-97800218D01*
X129320000Y-97776408D01*
X129316981Y-97775581D01*
X129315967Y-97774567D01*
X129306136Y-97772611D01*
X129296480Y-97769967D01*
X129295120Y-97770420D01*
X129292049Y-97769809D01*
X129196811Y-97769809D01*
X129193739Y-97770420D01*
X129192380Y-97769967D01*
X129182718Y-97772612D01*
X129172893Y-97774567D01*
X129171879Y-97775580D01*
X129168860Y-97776407D01*
X129121241Y-97800218D01*
X129113329Y-97806358D01*
X129104998Y-97811925D01*
X129057379Y-97859544D01*
X129053618Y-97865172D01*
X129051356Y-97866530D01*
X129048084Y-97873455D01*
X129043831Y-97879821D01*
X129043831Y-97882457D01*
X129040939Y-97888579D01*
X129017129Y-97983817D01*
X129016756Y-97991466D01*
X129015263Y-97998976D01*
X128854548Y-97998976D01*
X128854548Y-97894809D01*
X128934905Y-97894809D01*
X128958823Y-97890051D01*
X128992647Y-97856227D01*
X128992647Y-97808391D01*
X128958823Y-97774567D01*
X128934905Y-97769809D01*
X128649191Y-97769809D01*
X128625273Y-97774567D01*
X128591449Y-97808391D01*
X128473811Y-97808391D01*
X128470768Y-97806358D01*
X128462857Y-97800218D01*
X128415238Y-97776408D01*
X128412219Y-97775581D01*
X128411205Y-97774567D01*
X128401374Y-97772611D01*
X128391718Y-97769967D01*
X128390358Y-97770420D01*
X128387287Y-97769809D01*
X128292049Y-97769809D01*
X128288977Y-97770420D01*
X128287618Y-97769967D01*
X128277956Y-97772612D01*
X128268131Y-97774567D01*
X128267117Y-97775580D01*
X128264098Y-97776407D01*
X128216479Y-97800218D01*
X128208567Y-97806358D01*
X128200236Y-97811925D01*
X128152617Y-97859544D01*
X128148856Y-97865172D01*
X128146594Y-97866530D01*
X128143322Y-97873455D01*
X128139069Y-97879821D01*
X128139069Y-97882457D01*
X128136177Y-97888579D01*
X128112367Y-97983817D01*
X128111994Y-97991466D01*
X128110501Y-97998976D01*
X128021215Y-97998976D01*
X128021215Y-97832309D01*
X128016457Y-97808391D01*
X127982633Y-97774567D01*
X127958715Y-97769809D01*
X127768239Y-97769809D01*
X127765167Y-97770420D01*
X127763808Y-97769967D01*
X127754146Y-97772612D01*
X127744321Y-97774567D01*
X127743307Y-97775580D01*
X127740288Y-97776407D01*
X127692669Y-97800218D01*
X127684760Y-97806356D01*
X127676427Y-97811924D01*
X127652617Y-97835733D01*
X127647050Y-97844063D01*
X127640908Y-97851978D01*
X127617099Y-97899597D01*
X127616272Y-97902615D01*
X127615259Y-97903629D01*
X127613305Y-97913450D01*
X127610658Y-97923117D01*
X127611111Y-97924477D01*
X127610501Y-97927547D01*
X127516564Y-97927547D01*
X127540266Y-97903845D01*
X127540266Y-97856011D01*
X127526718Y-97835734D01*
X127502909Y-97811925D01*
X127494577Y-97806358D01*
X127486666Y-97800218D01*
X127439047Y-97776408D01*
X127436028Y-97775581D01*
X127435014Y-97774567D01*
X127425183Y-97772611D01*
X127415527Y-97769967D01*
X127414167Y-97770420D01*
X127411096Y-97769809D01*
X127292048Y-97769809D01*
X127288976Y-97770420D01*
X127287617Y-97769967D01*
X127277955Y-97772612D01*
X127268130Y-97774567D01*
X127267116Y-97775580D01*
X127264097Y-97776407D01*
X127216478Y-97800218D01*
X127208566Y-97806358D01*
X127200235Y-97811925D01*
X127176426Y-97835734D01*
X127170859Y-97844065D01*
X127164719Y-97851977D01*
X127140909Y-97899596D01*
X127140082Y-97902614D01*
X127139068Y-97903629D01*
X127137112Y-97913459D01*
X127134468Y-97923116D01*
X127134921Y-97924475D01*
X127134310Y-97927547D01*
X127071810Y-97927547D01*
X127071810Y-97707309D01*
X130083716Y-97707309D01*
X130083716Y-98457309D01*
G37*
D12*
X128100000Y-74200000D02*
X127500000Y-74200000D01*
X128100000Y-87900000D02*
X128100000Y-74200000D01*
X122400000Y-87900000D02*
X128100000Y-87900000D01*
X122400000Y-84900000D02*
X122400000Y-87900000D01*
X121300000Y-84900000D02*
X122400000Y-84900000D01*
X121300000Y-77600000D02*
X121300000Y-84900000D01*
X123100000Y-77600000D02*
X121300000Y-77600000D01*
X123100000Y-74200000D02*
X123100000Y-77600000D01*
X127500000Y-74200000D02*
X123100000Y-74200000D01*
D13*
X120408682Y-100028682D02*
G75*
G02*
X117071318Y-100028682I-1668682J0D01*
G01*
X117071318Y-100028682D02*
G75*
G02*
X120408682Y-100028682I1668682J0D01*
G01*
X120310000Y-66170000D02*
G75*
G02*
X116972636Y-66170000I-1668682J0D01*
G01*
X116972636Y-66170000D02*
G75*
G02*
X120310000Y-66170000I1668682J0D01*
G01*
D14*
%TO.C,C7*%
X131905398Y-82618792D02*
X131752895Y-82466289D01*
X132414515Y-82109675D02*
X132262012Y-81957172D01*
%TO.C,C50*%
X112461252Y-84655000D02*
X111938748Y-84655000D01*
X112461252Y-86125000D02*
X111938748Y-86125000D01*
%TO.C,C54*%
X134682845Y-69808751D02*
X134944097Y-69356249D01*
X135955903Y-70543751D02*
X136217155Y-70091249D01*
%TO.C,C49*%
X126313792Y-96106761D02*
X126683259Y-95737294D01*
X127353239Y-97146208D02*
X127722706Y-96776741D01*
%TO.C,C13*%
X134471541Y-88937982D02*
X134255869Y-88937982D01*
X134471541Y-89657982D02*
X134255869Y-89657982D01*
%TO.C,ESC3*%
X107554770Y-77141800D02*
X113064769Y-67598201D01*
X108031084Y-77416800D02*
X107554770Y-77141800D01*
X109953660Y-78526800D02*
X111469205Y-79401800D01*
X111469205Y-79401800D02*
X112194205Y-78146063D01*
X112194205Y-78146063D02*
X112964967Y-78591063D01*
X113064769Y-67598201D02*
X113541084Y-67873200D01*
X115463660Y-68983200D02*
X116979205Y-69858200D01*
X116979205Y-69858200D02*
X116254205Y-71113937D01*
%TO.C,C20*%
X121718705Y-79238748D02*
X121718705Y-79761252D01*
X123188705Y-79238748D02*
X123188705Y-79761252D01*
D13*
%TO.C,IC1*%
X123903705Y-84322982D02*
X123903705Y-84872982D01*
X123903705Y-84872982D02*
X126803705Y-84872982D01*
X126803705Y-84322982D02*
X123903705Y-84322982D01*
X126803705Y-84872982D02*
X126803705Y-84322982D01*
X126953705Y-86472982D02*
X126953705Y-85222982D01*
D14*
%TO.C,C36*%
X146093705Y-80375818D02*
X146093705Y-80160146D01*
X146813705Y-80375818D02*
X146813705Y-80160146D01*
%TO.C,C14*%
X133011541Y-84977982D02*
X132795869Y-84977982D01*
X133011541Y-85697982D02*
X132795869Y-85697982D01*
%TO.C,C51*%
X112461252Y-82685000D02*
X111938748Y-82685000D01*
X112461252Y-84155000D02*
X111938748Y-84155000D01*
%TO.C,ESC1*%
X140423904Y-69133200D02*
X141148904Y-70388937D01*
X141148904Y-70388937D02*
X140378142Y-70833937D01*
X141939449Y-68258200D02*
X140423904Y-69133200D01*
X143862025Y-67148200D02*
X144338339Y-66873200D01*
X144338339Y-66873200D02*
X149848339Y-76416800D01*
X145933904Y-78676800D02*
X145208904Y-77421063D01*
X147449449Y-77801800D02*
X145933904Y-78676800D01*
X149848339Y-76416800D02*
X149372025Y-76691800D01*
D15*
%TO.C,J4*%
X142016873Y-94005305D02*
X142835373Y-92587621D01*
X142016873Y-94005305D02*
X143000678Y-94573305D01*
D16*
X142119915Y-90056831D02*
X142119915Y-90056831D01*
X142142915Y-90016994D02*
X142142915Y-90016994D01*
D15*
X144891873Y-89025659D02*
X144073373Y-90443343D01*
X144891873Y-89025659D02*
X145875678Y-89593659D01*
X146161776Y-94926123D02*
X147761776Y-92154841D01*
D16*
X142119915Y-90056831D02*
G75*
G02*
X142142915Y-90016993I11500J19919D01*
G01*
X142142915Y-90016994D02*
G75*
G02*
X142119915Y-90056831I-11501J-19918D01*
G01*
D13*
%TO.C,Q1*%
X146343834Y-88179744D02*
X147556270Y-88879744D01*
X147885378Y-89009711D02*
X148058584Y-89109711D01*
X148058584Y-89109711D02*
X149506584Y-86601701D01*
X149333378Y-86501701D02*
X147885378Y-89009711D01*
X149506584Y-86601701D02*
X149333378Y-86501701D01*
D14*
%TO.C,C18*%
X123565000Y-76361252D02*
X123565000Y-75838748D01*
X125035000Y-76361252D02*
X125035000Y-75838748D01*
%TO.C,C48*%
X124925543Y-94715010D02*
X125295010Y-94345543D01*
X125964990Y-95754457D02*
X126334457Y-95384990D01*
D13*
%TO.C,LED2*%
X121694398Y-64007969D02*
X121694398Y-64007969D01*
X121835820Y-64149390D02*
X121835820Y-64149390D01*
X121694398Y-64007969D02*
G75*
G02*
X121835821Y-64149390I70711J-70711D01*
G01*
X121835820Y-64149390D02*
G75*
G02*
X121694398Y-64007969I-70711J70710D01*
G01*
D14*
%TO.C,C46*%
X123535543Y-93325010D02*
X123905010Y-92955543D01*
X124574990Y-94364457D02*
X124944457Y-93994990D01*
%TO.C,C2*%
X136291541Y-88937982D02*
X136075869Y-88937982D01*
X136291541Y-89657982D02*
X136075869Y-89657982D01*
%TO.C,C15*%
X121718705Y-83159234D02*
X121718705Y-82636730D01*
X123188705Y-83159234D02*
X123188705Y-82636730D01*
%TO.C,C52*%
X112461252Y-80695000D02*
X111938748Y-80695000D01*
X112461252Y-82165000D02*
X111938748Y-82165000D01*
D13*
%TO.C,LED3*%
X116573794Y-96980571D02*
X116573794Y-96980571D01*
X116715215Y-96839149D02*
X116715215Y-96839149D01*
X116573794Y-96980571D02*
G75*
G02*
X116715215Y-96839148I70711J70711D01*
G01*
X116715215Y-96839149D02*
G75*
G02*
X116573794Y-96980571I-70710J-70711D01*
G01*
D14*
%TO.C,C55*%
X132982845Y-68808751D02*
X133244097Y-68356249D01*
X134255903Y-69543751D02*
X134517155Y-69091249D01*
%TO.C,C33*%
X144595869Y-83637982D02*
X144811541Y-83637982D01*
X144595869Y-84357982D02*
X144811541Y-84357982D01*
%TO.C,C10*%
X132565987Y-81969381D02*
X132413484Y-81816878D01*
X133075104Y-81460264D02*
X132922601Y-81307761D01*
%TO.C,C19*%
X125565000Y-76361252D02*
X125565000Y-75838748D01*
X127035000Y-76361252D02*
X127035000Y-75838748D01*
%TO.C,C53*%
X136382845Y-70781475D02*
X136644097Y-70328973D01*
X137655903Y-71516475D02*
X137917155Y-71063973D01*
%TO.C,C8*%
X134215869Y-82467982D02*
X134431541Y-82467982D01*
X134215869Y-83187982D02*
X134431541Y-83187982D01*
D13*
%TO.C,L1*%
X126753705Y-80047982D02*
X123953705Y-80047982D01*
D14*
%TO.C,ESC2*%
X123490000Y-99940000D02*
X124940000Y-99940000D01*
X123490000Y-101690000D02*
X123490000Y-99940000D01*
X123490000Y-104460000D02*
X123490000Y-103910000D01*
X133060000Y-99940000D02*
X133060000Y-99050000D01*
X134510000Y-99940000D02*
X133060000Y-99940000D01*
X134510000Y-101690000D02*
X134510000Y-99940000D01*
X134510000Y-103910000D02*
X134510000Y-104460000D01*
X134510000Y-104460000D02*
X123490000Y-104460000D01*
%TO.C,C16*%
X122740000Y-86692164D02*
X122740000Y-86907836D01*
X123460000Y-86692164D02*
X123460000Y-86907836D01*
%TD*%
M02*
