%TF.GenerationSoftware,KiCad,Pcbnew,9.0.3*%
%TF.CreationDate,2025-09-25T19:14:03+02:00*%
%TF.ProjectId,PCB_PAPI,5043425f-5041-4504-992e-6b696361645f,rev?*%
%TF.SameCoordinates,Original*%
%TF.FileFunction,Legend,Top*%
%TF.FilePolarity,Positive*%
%FSLAX46Y46*%
G04 Gerber Fmt 4.6, Leading zero omitted, Abs format (unit mm)*
G04 Created by KiCad (PCBNEW 9.0.3) date 2025-09-25 19:14:03*
%MOMM*%
%LPD*%
G01*
G04 APERTURE LIST*
%ADD10C,0.125000*%
%ADD11C,0.300000*%
%ADD12C,0.100000*%
%ADD13C,0.250000*%
%ADD14C,0.200000*%
%ADD15C,0.000000*%
%ADD16C,0.120000*%
G04 APERTURE END LIST*
D10*
G36*
X135638188Y-76957309D02*
G01*
X135083422Y-76957309D01*
X135083422Y-76808391D01*
X135145922Y-76808391D01*
X135145922Y-76856227D01*
X135179746Y-76890051D01*
X135203664Y-76894809D01*
X135513188Y-76894809D01*
X135537106Y-76890051D01*
X135570930Y-76856227D01*
X135570930Y-76808391D01*
X135537106Y-76774567D01*
X135513188Y-76769809D01*
X135354552Y-76769809D01*
X135533572Y-76590789D01*
X135535311Y-76588185D01*
X135536593Y-76587545D01*
X135541552Y-76578846D01*
X135547121Y-76570512D01*
X135547121Y-76569077D01*
X135548671Y-76566359D01*
X135572481Y-76494930D01*
X135573733Y-76484991D01*
X135575688Y-76475166D01*
X135575688Y-76427547D01*
X135575076Y-76424475D01*
X135575530Y-76423116D01*
X135572884Y-76413454D01*
X135570930Y-76403629D01*
X135569916Y-76402615D01*
X135569090Y-76399596D01*
X135545279Y-76351977D01*
X135539138Y-76344065D01*
X135533572Y-76335734D01*
X135509763Y-76311925D01*
X135501431Y-76306358D01*
X135493520Y-76300218D01*
X135445901Y-76276408D01*
X135442882Y-76275581D01*
X135441868Y-76274567D01*
X135432037Y-76272611D01*
X135422381Y-76269967D01*
X135421021Y-76270420D01*
X135417950Y-76269809D01*
X135298902Y-76269809D01*
X135295830Y-76270420D01*
X135294471Y-76269967D01*
X135284809Y-76272612D01*
X135274984Y-76274567D01*
X135273970Y-76275580D01*
X135270951Y-76276407D01*
X135223332Y-76300218D01*
X135215420Y-76306358D01*
X135207089Y-76311925D01*
X135183280Y-76335734D01*
X135169732Y-76356011D01*
X135169732Y-76403845D01*
X135203557Y-76437670D01*
X135251391Y-76437670D01*
X135271668Y-76424122D01*
X135288306Y-76407483D01*
X135313655Y-76394809D01*
X135403196Y-76394809D01*
X135428547Y-76407485D01*
X135438013Y-76416951D01*
X135450688Y-76442300D01*
X135450688Y-76465022D01*
X135434750Y-76512834D01*
X135159470Y-76788115D01*
X135145924Y-76808388D01*
X135145922Y-76808391D01*
X135083422Y-76808391D01*
X135083422Y-76207309D01*
X135638188Y-76207309D01*
X135638188Y-76957309D01*
G37*
G36*
X132908192Y-77757309D02*
G01*
X131996283Y-77757309D01*
X131996283Y-77132309D01*
X132058783Y-77132309D01*
X132058783Y-77632309D01*
X132063541Y-77656227D01*
X132097365Y-77690051D01*
X132121283Y-77694809D01*
X132359378Y-77694809D01*
X132383296Y-77690051D01*
X132417120Y-77656227D01*
X132417120Y-77608391D01*
X132383296Y-77574567D01*
X132359378Y-77569809D01*
X132183783Y-77569809D01*
X132183783Y-77279596D01*
X132439893Y-77279596D01*
X132461286Y-77322382D01*
X132506666Y-77337509D01*
X132530186Y-77331068D01*
X132577805Y-77307259D01*
X132582593Y-77303542D01*
X132582593Y-77569809D01*
X132502236Y-77569809D01*
X132478318Y-77574567D01*
X132444494Y-77608391D01*
X132444494Y-77656227D01*
X132478318Y-77690051D01*
X132502236Y-77694809D01*
X132787950Y-77694809D01*
X132811868Y-77690051D01*
X132845692Y-77656227D01*
X132845692Y-77608391D01*
X132811868Y-77574567D01*
X132787950Y-77569809D01*
X132707593Y-77569809D01*
X132707593Y-77132309D01*
X132702835Y-77108391D01*
X132698284Y-77103840D01*
X132697023Y-77097532D01*
X132681881Y-77087437D01*
X132669011Y-77074567D01*
X132662576Y-77074567D01*
X132657221Y-77070997D01*
X132639371Y-77074567D01*
X132621175Y-77074567D01*
X132616626Y-77079116D01*
X132610316Y-77080378D01*
X132593090Y-77097640D01*
X132548902Y-77163921D01*
X132512834Y-77199990D01*
X132474286Y-77219264D01*
X132455020Y-77234216D01*
X132439893Y-77279596D01*
X132183783Y-77279596D01*
X132183783Y-77132309D01*
X132179025Y-77108391D01*
X132145201Y-77074567D01*
X132097365Y-77074567D01*
X132063541Y-77108391D01*
X132058783Y-77132309D01*
X131996283Y-77132309D01*
X131996283Y-77008497D01*
X132908192Y-77008497D01*
X132908192Y-77757309D01*
G37*
G36*
X132669500Y-78377485D02*
G01*
X132678965Y-78386950D01*
X132695169Y-78419359D01*
X132715450Y-78500480D01*
X132715450Y-78604137D01*
X132695169Y-78685258D01*
X132678964Y-78717668D01*
X132669500Y-78727133D01*
X132644148Y-78739809D01*
X132626037Y-78739809D01*
X132600686Y-78727134D01*
X132591221Y-78717669D01*
X132575015Y-78685258D01*
X132554736Y-78604139D01*
X132554736Y-78500478D01*
X132575015Y-78419359D01*
X132591221Y-78386949D01*
X132600687Y-78377483D01*
X132626036Y-78364809D01*
X132644148Y-78364809D01*
X132669500Y-78377485D01*
G37*
G36*
X132902950Y-78927309D02*
G01*
X131986283Y-78927309D01*
X131986283Y-78302309D01*
X132048783Y-78302309D01*
X132048783Y-78802309D01*
X132053541Y-78826227D01*
X132087365Y-78860051D01*
X132111283Y-78864809D01*
X132349378Y-78864809D01*
X132373296Y-78860051D01*
X132407120Y-78826227D01*
X132407120Y-78778391D01*
X132373296Y-78744567D01*
X132349378Y-78739809D01*
X132173783Y-78739809D01*
X132173783Y-78492785D01*
X132429736Y-78492785D01*
X132429736Y-78611833D01*
X132431229Y-78619342D01*
X132431602Y-78626991D01*
X132455411Y-78722229D01*
X132458336Y-78728421D01*
X132460144Y-78735022D01*
X132483954Y-78782641D01*
X132490092Y-78790549D01*
X132495660Y-78798883D01*
X132519469Y-78822693D01*
X132527796Y-78828257D01*
X132535714Y-78834402D01*
X132583332Y-78858211D01*
X132586351Y-78859037D01*
X132587365Y-78860051D01*
X132597192Y-78862005D01*
X132606853Y-78864651D01*
X132608211Y-78864198D01*
X132611283Y-78864809D01*
X132658902Y-78864809D01*
X132661971Y-78864198D01*
X132663332Y-78864652D01*
X132672998Y-78862004D01*
X132682820Y-78860051D01*
X132683833Y-78859037D01*
X132686852Y-78858211D01*
X132734471Y-78834402D01*
X132742386Y-78828258D01*
X132750715Y-78822694D01*
X132774525Y-78798884D01*
X132780088Y-78790557D01*
X132786233Y-78782640D01*
X132810042Y-78735022D01*
X132811849Y-78728420D01*
X132814774Y-78722230D01*
X132838584Y-78626992D01*
X132838956Y-78619342D01*
X132840450Y-78611833D01*
X132840450Y-78492785D01*
X132838956Y-78485275D01*
X132838584Y-78477626D01*
X132814774Y-78382388D01*
X132811849Y-78376197D01*
X132810042Y-78369596D01*
X132786233Y-78321978D01*
X132780088Y-78314060D01*
X132774524Y-78305733D01*
X132750714Y-78281924D01*
X132742380Y-78276356D01*
X132734472Y-78270218D01*
X132686853Y-78246408D01*
X132683834Y-78245581D01*
X132682820Y-78244567D01*
X132672989Y-78242611D01*
X132663333Y-78239967D01*
X132661973Y-78240420D01*
X132658902Y-78239809D01*
X132611283Y-78239809D01*
X132608211Y-78240420D01*
X132606852Y-78239967D01*
X132597190Y-78242612D01*
X132587365Y-78244567D01*
X132586351Y-78245580D01*
X132583332Y-78246407D01*
X132535713Y-78270218D01*
X132527801Y-78276358D01*
X132519470Y-78281925D01*
X132495661Y-78305734D01*
X132490094Y-78314065D01*
X132483954Y-78321977D01*
X132460144Y-78369596D01*
X132458336Y-78376196D01*
X132455411Y-78382389D01*
X132431602Y-78477627D01*
X132431229Y-78485275D01*
X132429736Y-78492785D01*
X132173783Y-78492785D01*
X132173783Y-78302309D01*
X132169025Y-78278391D01*
X132135201Y-78244567D01*
X132087365Y-78244567D01*
X132053541Y-78278391D01*
X132048783Y-78302309D01*
X131986283Y-78302309D01*
X131986283Y-78177309D01*
X132902950Y-78177309D01*
X132902950Y-78927309D01*
G37*
G36*
X130707156Y-79957309D02*
G01*
X129033422Y-79957309D01*
X129033422Y-79308391D01*
X129095922Y-79308391D01*
X129095922Y-79356227D01*
X129129746Y-79390051D01*
X129153664Y-79394809D01*
X129325452Y-79394809D01*
X129249485Y-79481628D01*
X129240617Y-79497028D01*
X129238779Y-79498867D01*
X129238779Y-79500221D01*
X129237316Y-79502762D01*
X129238779Y-79524712D01*
X129238779Y-79546703D01*
X129240349Y-79548273D01*
X129240497Y-79550490D01*
X129257045Y-79564969D01*
X129272603Y-79580527D01*
X129275480Y-79581099D01*
X129276498Y-79581990D01*
X129279089Y-79581817D01*
X129296521Y-79585285D01*
X129353196Y-79585285D01*
X129378547Y-79597961D01*
X129388013Y-79607427D01*
X129400688Y-79632776D01*
X129400688Y-79722317D01*
X129388012Y-79747667D01*
X129378547Y-79757133D01*
X129353196Y-79769809D01*
X129239847Y-79769809D01*
X129214495Y-79757133D01*
X129197858Y-79740496D01*
X129177581Y-79726948D01*
X129129747Y-79726948D01*
X129095922Y-79760773D01*
X129095922Y-79808607D01*
X129109470Y-79828884D01*
X129133280Y-79852694D01*
X129141606Y-79858257D01*
X129149524Y-79864402D01*
X129197142Y-79888211D01*
X129200161Y-79889037D01*
X129201175Y-79890051D01*
X129211002Y-79892005D01*
X129220663Y-79894651D01*
X129222021Y-79894198D01*
X129225093Y-79894809D01*
X129367950Y-79894809D01*
X129371019Y-79894198D01*
X129372380Y-79894652D01*
X129382046Y-79892004D01*
X129391868Y-79890051D01*
X129392881Y-79889037D01*
X129395900Y-79888211D01*
X129443519Y-79864402D01*
X129451433Y-79858259D01*
X129459764Y-79852693D01*
X129483573Y-79828883D01*
X129489140Y-79820549D01*
X129495279Y-79812641D01*
X129509308Y-79784584D01*
X129595921Y-79784584D01*
X129595922Y-79832418D01*
X129595924Y-79832420D01*
X129609470Y-79852694D01*
X129633279Y-79876503D01*
X129653552Y-79890048D01*
X129653555Y-79890051D01*
X129701389Y-79890052D01*
X129701390Y-79890051D01*
X129701391Y-79890051D01*
X129701392Y-79890049D01*
X129721666Y-79876504D01*
X129745476Y-79852695D01*
X129759025Y-79832418D01*
X129759026Y-79784584D01*
X129759024Y-79784582D01*
X129745477Y-79764306D01*
X129721667Y-79740496D01*
X129701393Y-79726950D01*
X129701391Y-79726948D01*
X129701390Y-79726948D01*
X129701389Y-79726947D01*
X129653555Y-79726948D01*
X129633278Y-79740497D01*
X129609469Y-79764307D01*
X129595921Y-79784584D01*
X129509308Y-79784584D01*
X129519090Y-79765022D01*
X129519916Y-79762002D01*
X129520930Y-79760989D01*
X129522884Y-79751163D01*
X129525530Y-79741502D01*
X129525076Y-79740142D01*
X129525688Y-79737071D01*
X129525688Y-79618023D01*
X129525076Y-79614951D01*
X129525530Y-79613592D01*
X129522884Y-79603930D01*
X129520930Y-79594105D01*
X129519916Y-79593091D01*
X129519090Y-79590072D01*
X129495279Y-79542453D01*
X129489138Y-79534541D01*
X129483572Y-79526210D01*
X129459763Y-79502401D01*
X129451431Y-79496834D01*
X129443520Y-79490694D01*
X129418566Y-79478216D01*
X129510224Y-79373465D01*
X129519093Y-79358063D01*
X129520930Y-79356227D01*
X129520930Y-79354874D01*
X129522394Y-79352332D01*
X129520930Y-79330372D01*
X129520930Y-79308391D01*
X129810207Y-79308391D01*
X129810207Y-79356227D01*
X129844031Y-79390051D01*
X129867949Y-79394809D01*
X130039737Y-79394809D01*
X129963770Y-79481628D01*
X129954902Y-79497028D01*
X129953064Y-79498867D01*
X129953064Y-79500221D01*
X129951601Y-79502762D01*
X129953064Y-79524712D01*
X129953064Y-79546703D01*
X129954634Y-79548273D01*
X129954782Y-79550490D01*
X129971330Y-79564969D01*
X129986888Y-79580527D01*
X129989765Y-79581099D01*
X129990783Y-79581990D01*
X129993374Y-79581817D01*
X130010806Y-79585285D01*
X130067481Y-79585285D01*
X130092832Y-79597961D01*
X130102298Y-79607427D01*
X130114973Y-79632776D01*
X130114973Y-79722317D01*
X130102297Y-79747667D01*
X130092832Y-79757133D01*
X130067481Y-79769809D01*
X129954132Y-79769809D01*
X129928780Y-79757133D01*
X129912143Y-79740496D01*
X129891866Y-79726948D01*
X129844032Y-79726948D01*
X129810207Y-79760773D01*
X129810207Y-79808607D01*
X129823755Y-79828884D01*
X129847565Y-79852694D01*
X129855891Y-79858257D01*
X129863809Y-79864402D01*
X129911427Y-79888211D01*
X129914446Y-79889037D01*
X129915460Y-79890051D01*
X129925287Y-79892005D01*
X129934948Y-79894651D01*
X129936306Y-79894198D01*
X129939378Y-79894809D01*
X130082235Y-79894809D01*
X130085304Y-79894198D01*
X130086665Y-79894652D01*
X130096331Y-79892004D01*
X130106153Y-79890051D01*
X130107166Y-79889037D01*
X130110185Y-79888211D01*
X130157804Y-79864402D01*
X130165718Y-79858259D01*
X130174049Y-79852693D01*
X130197858Y-79828883D01*
X130203425Y-79820549D01*
X130209564Y-79812641D01*
X130233375Y-79765022D01*
X130234201Y-79762002D01*
X130235215Y-79760989D01*
X130237169Y-79751163D01*
X130239815Y-79741502D01*
X130239361Y-79740142D01*
X130239973Y-79737071D01*
X130239973Y-79618023D01*
X130239361Y-79614951D01*
X130239815Y-79613592D01*
X130237169Y-79603930D01*
X130235215Y-79594105D01*
X130234201Y-79593091D01*
X130233375Y-79590072D01*
X130209564Y-79542453D01*
X130203423Y-79534541D01*
X130197857Y-79526210D01*
X130174048Y-79502401D01*
X130165716Y-79496834D01*
X130164477Y-79495872D01*
X130281716Y-79495872D01*
X130285280Y-79519997D01*
X130404328Y-79853330D01*
X130416854Y-79874255D01*
X130419831Y-79875665D01*
X130421242Y-79878643D01*
X130441058Y-79885720D01*
X130460083Y-79894732D01*
X130463187Y-79893623D01*
X130466291Y-79894732D01*
X130485313Y-79885721D01*
X130505132Y-79878643D01*
X130506542Y-79875664D01*
X130509521Y-79874254D01*
X130522046Y-79853330D01*
X130641093Y-79519997D01*
X130644656Y-79495873D01*
X130624179Y-79452643D01*
X130579130Y-79436554D01*
X130535900Y-79457031D01*
X130523375Y-79477956D01*
X130463186Y-79646483D01*
X130402998Y-79477955D01*
X130390473Y-79457031D01*
X130347243Y-79436553D01*
X130302194Y-79452642D01*
X130281716Y-79495872D01*
X130164477Y-79495872D01*
X130157805Y-79490694D01*
X130132851Y-79478216D01*
X130224509Y-79373465D01*
X130233378Y-79358063D01*
X130235215Y-79356227D01*
X130235215Y-79354874D01*
X130236679Y-79352332D01*
X130235215Y-79330372D01*
X130235215Y-79308391D01*
X130233644Y-79306820D01*
X130233497Y-79304604D01*
X130216944Y-79290120D01*
X130201391Y-79274567D01*
X130198515Y-79273994D01*
X130197496Y-79273103D01*
X130194901Y-79273275D01*
X130177473Y-79269809D01*
X129867949Y-79269809D01*
X129844031Y-79274567D01*
X129810207Y-79308391D01*
X129520930Y-79308391D01*
X129519359Y-79306820D01*
X129519212Y-79304604D01*
X129502659Y-79290120D01*
X129487106Y-79274567D01*
X129484230Y-79273994D01*
X129483211Y-79273103D01*
X129480616Y-79273275D01*
X129463188Y-79269809D01*
X129153664Y-79269809D01*
X129129746Y-79274567D01*
X129095922Y-79308391D01*
X129033422Y-79308391D01*
X129033422Y-79207309D01*
X130707156Y-79207309D01*
X130707156Y-79957309D01*
G37*
G36*
X118726952Y-93064383D02*
G01*
X118629952Y-93032050D01*
X118726952Y-92999717D01*
X118726952Y-93064383D01*
G37*
G36*
X119057309Y-94866577D02*
G01*
X118307309Y-94866577D01*
X118307309Y-94436811D01*
X118369809Y-94436811D01*
X118369809Y-94746335D01*
X118374567Y-94770253D01*
X118408391Y-94804077D01*
X118456227Y-94804077D01*
X118490051Y-94770253D01*
X118494809Y-94746335D01*
X118494809Y-94574546D01*
X118581629Y-94650514D01*
X118597030Y-94659383D01*
X118598867Y-94661220D01*
X118600220Y-94661220D01*
X118602762Y-94662684D01*
X118624721Y-94661220D01*
X118646703Y-94661220D01*
X118648273Y-94659649D01*
X118650490Y-94659502D01*
X118664973Y-94642949D01*
X118680527Y-94627396D01*
X118681099Y-94624520D01*
X118681991Y-94623501D01*
X118681818Y-94620906D01*
X118685285Y-94603478D01*
X118685285Y-94546802D01*
X118697961Y-94521451D01*
X118707427Y-94511985D01*
X118732776Y-94499311D01*
X118822317Y-94499311D01*
X118847669Y-94511987D01*
X118857134Y-94521452D01*
X118869809Y-94546802D01*
X118869809Y-94660152D01*
X118857133Y-94685503D01*
X118840496Y-94702141D01*
X118826948Y-94722418D01*
X118826948Y-94770252D01*
X118860773Y-94804077D01*
X118908607Y-94804077D01*
X118928884Y-94790529D01*
X118952694Y-94766719D01*
X118958257Y-94758392D01*
X118964402Y-94750475D01*
X118988211Y-94702857D01*
X118989037Y-94699837D01*
X118990051Y-94698824D01*
X118992005Y-94688996D01*
X118994651Y-94679336D01*
X118994198Y-94677977D01*
X118994809Y-94674906D01*
X118994809Y-94532049D01*
X118994198Y-94528977D01*
X118994651Y-94527619D01*
X118992005Y-94517958D01*
X118990051Y-94508131D01*
X118989037Y-94507117D01*
X118988211Y-94504098D01*
X118964402Y-94456480D01*
X118958257Y-94448562D01*
X118952693Y-94440235D01*
X118928883Y-94416426D01*
X118920549Y-94410858D01*
X118912641Y-94404720D01*
X118865022Y-94380910D01*
X118862003Y-94380083D01*
X118860989Y-94379069D01*
X118851158Y-94377113D01*
X118841502Y-94374469D01*
X118840142Y-94374922D01*
X118837071Y-94374311D01*
X118718023Y-94374311D01*
X118714951Y-94374922D01*
X118713592Y-94374469D01*
X118703930Y-94377114D01*
X118694105Y-94379069D01*
X118693091Y-94380082D01*
X118690072Y-94380909D01*
X118642453Y-94404720D01*
X118634541Y-94410860D01*
X118626210Y-94416427D01*
X118602401Y-94440236D01*
X118596834Y-94448567D01*
X118590694Y-94456479D01*
X118578217Y-94481432D01*
X118473466Y-94389775D01*
X118458065Y-94380907D01*
X118456227Y-94379069D01*
X118454873Y-94379069D01*
X118452332Y-94377606D01*
X118430381Y-94379069D01*
X118408391Y-94379069D01*
X118406820Y-94380639D01*
X118404604Y-94380787D01*
X118390124Y-94397335D01*
X118374567Y-94412893D01*
X118373994Y-94415770D01*
X118373104Y-94416788D01*
X118373276Y-94419379D01*
X118369809Y-94436811D01*
X118307309Y-94436811D01*
X118307309Y-94198610D01*
X118826947Y-94198610D01*
X118826948Y-94246444D01*
X118840497Y-94266721D01*
X118864307Y-94290530D01*
X118884584Y-94304078D01*
X118932419Y-94304077D01*
X118932423Y-94304072D01*
X118952694Y-94290529D01*
X118976503Y-94266720D01*
X118990046Y-94246449D01*
X118990051Y-94246445D01*
X118990052Y-94198610D01*
X118976504Y-94178333D01*
X118952695Y-94154523D01*
X118932418Y-94140974D01*
X118884584Y-94140973D01*
X118884583Y-94140974D01*
X118864306Y-94154522D01*
X118840496Y-94178332D01*
X118826950Y-94198605D01*
X118826948Y-94198608D01*
X118826947Y-94198610D01*
X118307309Y-94198610D01*
X118307309Y-93722526D01*
X118369809Y-93722526D01*
X118369809Y-94032050D01*
X118374567Y-94055968D01*
X118408391Y-94089792D01*
X118456227Y-94089792D01*
X118490051Y-94055968D01*
X118494809Y-94032050D01*
X118494809Y-93860261D01*
X118581629Y-93936229D01*
X118597030Y-93945098D01*
X118598867Y-93946935D01*
X118600220Y-93946935D01*
X118602762Y-93948399D01*
X118624721Y-93946935D01*
X118646703Y-93946935D01*
X118648273Y-93945364D01*
X118650490Y-93945217D01*
X118664973Y-93928664D01*
X118680527Y-93913111D01*
X118681099Y-93910235D01*
X118681991Y-93909216D01*
X118681818Y-93906621D01*
X118685285Y-93889193D01*
X118685285Y-93832517D01*
X118697961Y-93807166D01*
X118707427Y-93797700D01*
X118732776Y-93785026D01*
X118822317Y-93785026D01*
X118847669Y-93797702D01*
X118857134Y-93807167D01*
X118869809Y-93832517D01*
X118869809Y-93945867D01*
X118857133Y-93971218D01*
X118840496Y-93987856D01*
X118826948Y-94008133D01*
X118826948Y-94055967D01*
X118860773Y-94089792D01*
X118908607Y-94089792D01*
X118928884Y-94076244D01*
X118952694Y-94052434D01*
X118958257Y-94044107D01*
X118964402Y-94036190D01*
X118988211Y-93988572D01*
X118989037Y-93985552D01*
X118990051Y-93984539D01*
X118992005Y-93974711D01*
X118994651Y-93965051D01*
X118994198Y-93963692D01*
X118994809Y-93960621D01*
X118994809Y-93817764D01*
X118994198Y-93814692D01*
X118994651Y-93813334D01*
X118992005Y-93803673D01*
X118990051Y-93793846D01*
X118989037Y-93792832D01*
X118988211Y-93789813D01*
X118964402Y-93742195D01*
X118958257Y-93734277D01*
X118952693Y-93725950D01*
X118928883Y-93702141D01*
X118920549Y-93696573D01*
X118912641Y-93690435D01*
X118865022Y-93666625D01*
X118862003Y-93665798D01*
X118860989Y-93664784D01*
X118851158Y-93662828D01*
X118841502Y-93660184D01*
X118840142Y-93660637D01*
X118837071Y-93660026D01*
X118718023Y-93660026D01*
X118714951Y-93660637D01*
X118713592Y-93660184D01*
X118703930Y-93662829D01*
X118694105Y-93664784D01*
X118693091Y-93665797D01*
X118690072Y-93666624D01*
X118642453Y-93690435D01*
X118634541Y-93696575D01*
X118626210Y-93702142D01*
X118602401Y-93725951D01*
X118596834Y-93734282D01*
X118590694Y-93742194D01*
X118578217Y-93767147D01*
X118473466Y-93675490D01*
X118458065Y-93666622D01*
X118456227Y-93664784D01*
X118454873Y-93664784D01*
X118452332Y-93663321D01*
X118430381Y-93664784D01*
X118408391Y-93664784D01*
X118406820Y-93666354D01*
X118404604Y-93666502D01*
X118390124Y-93683050D01*
X118374567Y-93698608D01*
X118373994Y-93701485D01*
X118373104Y-93702503D01*
X118373276Y-93705094D01*
X118369809Y-93722526D01*
X118307309Y-93722526D01*
X118307309Y-93320869D01*
X118536553Y-93320869D01*
X118557031Y-93364099D01*
X118577955Y-93376624D01*
X118746482Y-93436812D01*
X118577955Y-93497001D01*
X118557031Y-93509526D01*
X118536553Y-93552756D01*
X118552642Y-93597805D01*
X118595872Y-93618283D01*
X118619997Y-93614719D01*
X118953330Y-93495671D01*
X118974255Y-93483145D01*
X118975665Y-93480166D01*
X118978642Y-93478757D01*
X118985716Y-93458949D01*
X118994732Y-93439916D01*
X118993622Y-93436810D01*
X118994731Y-93433708D01*
X118985722Y-93414690D01*
X118978643Y-93394867D01*
X118975664Y-93393456D01*
X118974254Y-93390478D01*
X118953329Y-93377953D01*
X118619997Y-93258906D01*
X118595872Y-93255342D01*
X118552642Y-93275820D01*
X118536553Y-93320869D01*
X118307309Y-93320869D01*
X118307309Y-93027620D01*
X118369967Y-93027620D01*
X118371444Y-93032051D01*
X118369967Y-93036482D01*
X118378829Y-93054206D01*
X118385094Y-93073001D01*
X118389270Y-93075089D01*
X118391359Y-93079266D01*
X118412545Y-93091344D01*
X118912545Y-93258010D01*
X118936740Y-93261059D01*
X118979524Y-93239667D01*
X118994651Y-93194286D01*
X118973259Y-93151502D01*
X118952073Y-93139424D01*
X118851952Y-93106050D01*
X118851952Y-92958050D01*
X118952073Y-92924677D01*
X118973259Y-92912599D01*
X118994651Y-92869815D01*
X118979524Y-92824434D01*
X118936740Y-92803042D01*
X118912544Y-92806091D01*
X118412545Y-92972758D01*
X118391359Y-92984836D01*
X118389270Y-92989012D01*
X118385094Y-92991101D01*
X118378829Y-93009896D01*
X118369967Y-93027620D01*
X118307309Y-93027620D01*
X118307309Y-92508242D01*
X118369809Y-92508242D01*
X118369809Y-92555861D01*
X118371763Y-92565684D01*
X118373016Y-92575626D01*
X118396826Y-92647054D01*
X118398377Y-92649774D01*
X118398377Y-92651206D01*
X118403937Y-92659528D01*
X118408904Y-92668240D01*
X118410186Y-92668881D01*
X118411925Y-92671483D01*
X118459544Y-92719102D01*
X118467875Y-92724668D01*
X118475787Y-92730809D01*
X118523406Y-92754620D01*
X118530010Y-92756428D01*
X118536199Y-92759352D01*
X118631437Y-92783161D01*
X118639085Y-92783533D01*
X118646595Y-92785027D01*
X118718023Y-92785027D01*
X118725532Y-92783533D01*
X118733181Y-92783161D01*
X118828419Y-92759352D01*
X118834611Y-92756426D01*
X118841212Y-92754619D01*
X118888831Y-92730809D01*
X118896733Y-92724675D01*
X118905074Y-92719103D01*
X118952694Y-92671484D01*
X118954433Y-92668880D01*
X118955716Y-92668239D01*
X118960677Y-92659534D01*
X118966242Y-92651207D01*
X118966242Y-92649773D01*
X118967793Y-92647053D01*
X118991602Y-92575625D01*
X118992855Y-92565681D01*
X118994809Y-92555861D01*
X118994809Y-92508242D01*
X118992855Y-92498420D01*
X118991602Y-92488479D01*
X118967793Y-92417049D01*
X118966242Y-92414328D01*
X118966242Y-92412895D01*
X118960680Y-92404571D01*
X118955716Y-92395863D01*
X118954432Y-92395221D01*
X118952693Y-92392618D01*
X118928883Y-92368809D01*
X118908606Y-92355261D01*
X118860772Y-92355262D01*
X118826947Y-92389088D01*
X118826948Y-92436922D01*
X118840497Y-92457199D01*
X118853872Y-92470573D01*
X118869809Y-92518384D01*
X118869809Y-92545718D01*
X118853873Y-92593526D01*
X118823856Y-92623542D01*
X118791448Y-92639747D01*
X118710329Y-92660027D01*
X118654289Y-92660027D01*
X118573169Y-92639747D01*
X118540761Y-92623543D01*
X118510746Y-92593528D01*
X118494809Y-92545716D01*
X118494809Y-92518385D01*
X118510746Y-92470573D01*
X118524122Y-92457198D01*
X118537670Y-92436921D01*
X118537670Y-92389087D01*
X118503845Y-92355262D01*
X118456011Y-92355262D01*
X118435734Y-92368810D01*
X118411925Y-92392619D01*
X118410186Y-92395220D01*
X118408904Y-92395862D01*
X118403937Y-92404573D01*
X118398377Y-92412896D01*
X118398377Y-92414327D01*
X118396826Y-92417048D01*
X118373016Y-92488478D01*
X118371763Y-92498416D01*
X118369809Y-92508242D01*
X118307309Y-92508242D01*
X118307309Y-92008242D01*
X118369809Y-92008242D01*
X118369809Y-92055861D01*
X118371763Y-92065684D01*
X118373016Y-92075626D01*
X118396826Y-92147054D01*
X118398377Y-92149774D01*
X118398377Y-92151206D01*
X118403937Y-92159528D01*
X118408904Y-92168240D01*
X118410186Y-92168881D01*
X118411925Y-92171483D01*
X118459544Y-92219102D01*
X118467875Y-92224668D01*
X118475787Y-92230809D01*
X118523406Y-92254620D01*
X118530010Y-92256428D01*
X118536199Y-92259352D01*
X118631437Y-92283161D01*
X118639085Y-92283533D01*
X118646595Y-92285027D01*
X118718023Y-92285027D01*
X118725532Y-92283533D01*
X118733181Y-92283161D01*
X118828419Y-92259352D01*
X118834611Y-92256426D01*
X118841212Y-92254619D01*
X118888831Y-92230809D01*
X118896733Y-92224675D01*
X118905074Y-92219103D01*
X118952694Y-92171484D01*
X118954433Y-92168880D01*
X118955716Y-92168239D01*
X118960677Y-92159534D01*
X118966242Y-92151207D01*
X118966242Y-92149773D01*
X118967793Y-92147053D01*
X118991602Y-92075625D01*
X118992855Y-92065681D01*
X118994809Y-92055861D01*
X118994809Y-92008242D01*
X118992855Y-91998420D01*
X118991602Y-91988479D01*
X118967793Y-91917049D01*
X118966242Y-91914328D01*
X118966242Y-91912895D01*
X118960680Y-91904571D01*
X118955716Y-91895863D01*
X118954432Y-91895221D01*
X118952693Y-91892618D01*
X118928883Y-91868809D01*
X118908606Y-91855261D01*
X118860772Y-91855262D01*
X118826947Y-91889088D01*
X118826948Y-91936922D01*
X118840497Y-91957199D01*
X118853872Y-91970573D01*
X118869809Y-92018384D01*
X118869809Y-92045718D01*
X118853873Y-92093526D01*
X118823856Y-92123542D01*
X118791448Y-92139747D01*
X118710329Y-92160027D01*
X118654289Y-92160027D01*
X118573169Y-92139747D01*
X118540761Y-92123543D01*
X118510746Y-92093528D01*
X118494809Y-92045716D01*
X118494809Y-92018385D01*
X118510746Y-91970573D01*
X118524122Y-91957198D01*
X118537670Y-91936921D01*
X118537670Y-91889087D01*
X118503845Y-91855262D01*
X118456011Y-91855262D01*
X118435734Y-91868810D01*
X118411925Y-91892619D01*
X118410186Y-91895220D01*
X118408904Y-91895862D01*
X118403937Y-91904573D01*
X118398377Y-91912896D01*
X118398377Y-91914327D01*
X118396826Y-91917048D01*
X118373016Y-91988478D01*
X118371763Y-91998416D01*
X118369809Y-92008242D01*
X118307309Y-92008242D01*
X118307309Y-91792761D01*
X119057309Y-91792761D01*
X119057309Y-94866577D01*
G37*
G36*
X124983308Y-98507485D02*
G01*
X125011513Y-98535690D01*
X125029259Y-98606671D01*
X125029259Y-98757946D01*
X125011513Y-98828926D01*
X124983306Y-98857134D01*
X124957957Y-98869809D01*
X124892227Y-98869809D01*
X124866878Y-98857134D01*
X124838670Y-98828926D01*
X124820926Y-98757948D01*
X124820926Y-98606669D01*
X124838670Y-98535690D01*
X124866877Y-98507483D01*
X124892226Y-98494809D01*
X124957957Y-98494809D01*
X124983308Y-98507485D01*
G37*
G36*
X126121521Y-99057309D02*
G01*
X124209613Y-99057309D01*
X124209613Y-98408391D01*
X124272113Y-98408391D01*
X124272113Y-98456227D01*
X124305937Y-98490051D01*
X124329855Y-98494809D01*
X124410212Y-98494809D01*
X124410212Y-98932309D01*
X124414970Y-98956227D01*
X124448794Y-98990051D01*
X124496630Y-98990051D01*
X124530454Y-98956227D01*
X124535212Y-98932309D01*
X124535212Y-98598976D01*
X124695926Y-98598976D01*
X124695926Y-98765642D01*
X124697419Y-98773151D01*
X124697792Y-98780800D01*
X124721601Y-98876038D01*
X124724492Y-98882157D01*
X124724492Y-98884797D01*
X124728748Y-98891168D01*
X124732018Y-98898088D01*
X124734278Y-98899444D01*
X124738040Y-98905074D01*
X124785659Y-98952694D01*
X124793992Y-98958261D01*
X124801904Y-98964402D01*
X124849522Y-98988211D01*
X124852541Y-98989037D01*
X124853555Y-98990051D01*
X124863382Y-98992005D01*
X124873043Y-98994651D01*
X124874401Y-98994198D01*
X124877473Y-98994809D01*
X124972711Y-98994809D01*
X124975780Y-98994198D01*
X124977141Y-98994652D01*
X124986807Y-98992004D01*
X124996629Y-98990051D01*
X124997642Y-98989037D01*
X125000661Y-98988211D01*
X125048280Y-98964402D01*
X125056188Y-98958263D01*
X125064525Y-98952694D01*
X125112144Y-98905074D01*
X125115903Y-98899446D01*
X125118166Y-98898089D01*
X125121438Y-98891162D01*
X125125691Y-98884797D01*
X125125691Y-98882160D01*
X125128583Y-98876039D01*
X125152393Y-98780801D01*
X125152765Y-98773151D01*
X125154259Y-98765642D01*
X125154259Y-98598976D01*
X125152765Y-98591466D01*
X125152393Y-98583817D01*
X125128583Y-98488579D01*
X125125691Y-98482457D01*
X125125691Y-98479821D01*
X125121439Y-98473457D01*
X125118166Y-98466529D01*
X125115902Y-98465171D01*
X125112143Y-98459544D01*
X125084908Y-98432309D01*
X125243545Y-98432309D01*
X125243545Y-98932309D01*
X125248303Y-98956227D01*
X125282127Y-98990051D01*
X125329963Y-98990051D01*
X125363787Y-98956227D01*
X125368545Y-98932309D01*
X125368545Y-98908391D01*
X125629255Y-98908391D01*
X125629255Y-98956227D01*
X125663079Y-98990051D01*
X125686997Y-98994809D01*
X125996521Y-98994809D01*
X126020439Y-98990051D01*
X126054263Y-98956227D01*
X126054263Y-98908391D01*
X126020439Y-98874567D01*
X125996521Y-98869809D01*
X125837885Y-98869809D01*
X126016905Y-98690789D01*
X126018644Y-98688185D01*
X126019926Y-98687545D01*
X126024885Y-98678846D01*
X126030454Y-98670512D01*
X126030454Y-98669077D01*
X126032004Y-98666359D01*
X126055814Y-98594930D01*
X126057066Y-98584991D01*
X126059021Y-98575166D01*
X126059021Y-98527547D01*
X126058409Y-98524475D01*
X126058863Y-98523116D01*
X126056217Y-98513454D01*
X126054263Y-98503629D01*
X126053249Y-98502615D01*
X126052423Y-98499596D01*
X126028612Y-98451977D01*
X126022471Y-98444065D01*
X126016905Y-98435734D01*
X125993096Y-98411925D01*
X125984764Y-98406358D01*
X125976853Y-98400218D01*
X125929234Y-98376408D01*
X125926215Y-98375581D01*
X125925201Y-98374567D01*
X125915370Y-98372611D01*
X125905714Y-98369967D01*
X125904354Y-98370420D01*
X125901283Y-98369809D01*
X125782235Y-98369809D01*
X125779163Y-98370420D01*
X125777804Y-98369967D01*
X125768142Y-98372612D01*
X125758317Y-98374567D01*
X125757303Y-98375580D01*
X125754284Y-98376407D01*
X125706665Y-98400218D01*
X125698753Y-98406358D01*
X125690422Y-98411925D01*
X125666613Y-98435734D01*
X125653065Y-98456011D01*
X125653065Y-98503845D01*
X125686890Y-98537670D01*
X125734724Y-98537670D01*
X125755001Y-98524122D01*
X125771639Y-98507483D01*
X125796988Y-98494809D01*
X125886529Y-98494809D01*
X125911880Y-98507485D01*
X125921346Y-98516951D01*
X125934021Y-98542300D01*
X125934021Y-98565022D01*
X125918083Y-98612834D01*
X125642803Y-98888115D01*
X125629257Y-98908388D01*
X125629255Y-98908391D01*
X125368545Y-98908391D01*
X125368545Y-98732904D01*
X125472712Y-98732904D01*
X125496630Y-98728146D01*
X125530454Y-98694322D01*
X125530454Y-98646486D01*
X125496630Y-98612662D01*
X125472712Y-98607904D01*
X125368545Y-98607904D01*
X125368545Y-98494809D01*
X125544140Y-98494809D01*
X125568058Y-98490051D01*
X125601882Y-98456227D01*
X125601882Y-98408391D01*
X125568058Y-98374567D01*
X125544140Y-98369809D01*
X125306045Y-98369809D01*
X125282127Y-98374567D01*
X125248303Y-98408391D01*
X125243545Y-98432309D01*
X125084908Y-98432309D01*
X125064524Y-98411925D01*
X125056192Y-98406358D01*
X125048281Y-98400218D01*
X125000662Y-98376408D01*
X124997643Y-98375581D01*
X124996629Y-98374567D01*
X124986798Y-98372611D01*
X124977142Y-98369967D01*
X124975782Y-98370420D01*
X124972711Y-98369809D01*
X124877473Y-98369809D01*
X124874401Y-98370420D01*
X124873042Y-98369967D01*
X124863380Y-98372612D01*
X124853555Y-98374567D01*
X124852541Y-98375580D01*
X124849522Y-98376407D01*
X124801903Y-98400218D01*
X124793991Y-98406358D01*
X124785660Y-98411925D01*
X124738041Y-98459544D01*
X124734280Y-98465172D01*
X124732018Y-98466530D01*
X124728746Y-98473454D01*
X124724493Y-98479821D01*
X124724493Y-98482458D01*
X124721601Y-98488580D01*
X124697792Y-98583818D01*
X124697419Y-98591466D01*
X124695926Y-98598976D01*
X124535212Y-98598976D01*
X124535212Y-98494809D01*
X124615569Y-98494809D01*
X124639487Y-98490051D01*
X124673311Y-98456227D01*
X124673311Y-98408391D01*
X124639487Y-98374567D01*
X124615569Y-98369809D01*
X124329855Y-98369809D01*
X124305937Y-98374567D01*
X124272113Y-98408391D01*
X124209613Y-98408391D01*
X124209613Y-98307309D01*
X126121521Y-98307309D01*
X126121521Y-99057309D01*
G37*
G36*
X124105618Y-69148842D02*
G01*
X124111822Y-69155045D01*
X124124497Y-69180395D01*
X124124497Y-69222317D01*
X124111821Y-69247668D01*
X124102357Y-69257133D01*
X124077005Y-69269809D01*
X123963783Y-69269809D01*
X123963783Y-69132904D01*
X124057806Y-69132904D01*
X124105618Y-69148842D01*
G37*
G36*
X124078547Y-68907485D02*
G01*
X124088013Y-68916951D01*
X124100688Y-68942300D01*
X124100688Y-68960412D01*
X124088012Y-68985762D01*
X124078547Y-68995228D01*
X124053196Y-69007904D01*
X123963783Y-69007904D01*
X123963783Y-68894809D01*
X124053196Y-68894809D01*
X124078547Y-68907485D01*
G37*
G36*
X124311997Y-69457309D02*
G01*
X122776283Y-69457309D01*
X122776283Y-68832309D01*
X122838783Y-68832309D01*
X122838783Y-69237071D01*
X122839394Y-69240142D01*
X122838941Y-69241502D01*
X122841585Y-69251158D01*
X122843541Y-69260989D01*
X122844555Y-69262003D01*
X122845382Y-69265022D01*
X122869192Y-69312641D01*
X122875330Y-69320549D01*
X122880898Y-69328883D01*
X122904707Y-69352693D01*
X122913034Y-69358257D01*
X122920952Y-69364402D01*
X122968570Y-69388211D01*
X122971589Y-69389037D01*
X122972603Y-69390051D01*
X122982430Y-69392005D01*
X122992091Y-69394651D01*
X122993449Y-69394198D01*
X122996521Y-69394809D01*
X123091759Y-69394809D01*
X123094828Y-69394198D01*
X123096189Y-69394652D01*
X123105855Y-69392004D01*
X123115677Y-69390051D01*
X123116690Y-69389037D01*
X123119709Y-69388211D01*
X123167328Y-69364402D01*
X123175243Y-69358258D01*
X123183572Y-69352694D01*
X123207382Y-69328884D01*
X123212945Y-69320557D01*
X123219090Y-69312640D01*
X123242899Y-69265022D01*
X123243725Y-69262002D01*
X123244739Y-69260989D01*
X123246693Y-69251161D01*
X123249339Y-69241501D01*
X123248886Y-69240142D01*
X123249497Y-69237071D01*
X123249497Y-68927547D01*
X123338784Y-68927547D01*
X123338784Y-68975166D01*
X123339394Y-68978235D01*
X123338941Y-68979596D01*
X123341588Y-68989262D01*
X123343542Y-68999084D01*
X123344555Y-69000097D01*
X123345382Y-69003116D01*
X123369191Y-69050735D01*
X123375334Y-69058650D01*
X123380899Y-69066979D01*
X123404709Y-69090789D01*
X123413035Y-69096352D01*
X123420953Y-69102497D01*
X123468571Y-69126306D01*
X123475172Y-69128113D01*
X123481363Y-69131038D01*
X123569946Y-69153184D01*
X123602357Y-69169389D01*
X123611822Y-69178855D01*
X123624498Y-69204205D01*
X123624498Y-69222317D01*
X123611822Y-69247667D01*
X123602357Y-69257133D01*
X123577006Y-69269809D01*
X123482855Y-69269809D01*
X123421048Y-69249207D01*
X123396853Y-69246158D01*
X123354068Y-69267550D01*
X123338942Y-69312931D01*
X123360334Y-69355716D01*
X123381520Y-69367793D01*
X123452948Y-69391602D01*
X123462891Y-69392855D01*
X123472712Y-69394809D01*
X123591760Y-69394809D01*
X123594829Y-69394198D01*
X123596190Y-69394652D01*
X123605856Y-69392004D01*
X123615678Y-69390051D01*
X123616691Y-69389037D01*
X123619710Y-69388211D01*
X123667329Y-69364402D01*
X123675243Y-69358259D01*
X123683574Y-69352693D01*
X123707383Y-69328883D01*
X123712950Y-69320549D01*
X123719089Y-69312641D01*
X123742900Y-69265022D01*
X123743726Y-69262002D01*
X123744740Y-69260989D01*
X123746694Y-69251163D01*
X123749340Y-69241502D01*
X123748886Y-69240142D01*
X123749498Y-69237071D01*
X123749498Y-69189452D01*
X123748886Y-69186380D01*
X123749340Y-69185021D01*
X123746694Y-69175359D01*
X123744740Y-69165534D01*
X123743726Y-69164520D01*
X123742900Y-69161501D01*
X123719089Y-69113882D01*
X123712950Y-69105973D01*
X123707383Y-69097640D01*
X123683574Y-69073830D01*
X123675243Y-69068263D01*
X123667329Y-69062121D01*
X123619710Y-69038312D01*
X123613108Y-69036504D01*
X123606919Y-69033580D01*
X123518334Y-69011433D01*
X123485924Y-68995228D01*
X123476460Y-68985764D01*
X123463784Y-68960412D01*
X123463784Y-68942301D01*
X123476459Y-68916949D01*
X123485925Y-68907484D01*
X123511275Y-68894809D01*
X123605426Y-68894809D01*
X123667234Y-68915412D01*
X123691429Y-68918461D01*
X123734213Y-68897069D01*
X123749341Y-68851688D01*
X123739651Y-68832309D01*
X123838783Y-68832309D01*
X123838783Y-69332309D01*
X123843541Y-69356227D01*
X123877365Y-69390051D01*
X123901283Y-69394809D01*
X124091759Y-69394809D01*
X124094828Y-69394198D01*
X124096189Y-69394652D01*
X124105855Y-69392004D01*
X124115677Y-69390051D01*
X124116690Y-69389037D01*
X124119709Y-69388211D01*
X124167328Y-69364402D01*
X124175243Y-69358258D01*
X124183572Y-69352694D01*
X124207382Y-69328884D01*
X124212945Y-69320557D01*
X124219090Y-69312640D01*
X124242899Y-69265022D01*
X124243725Y-69262002D01*
X124244739Y-69260989D01*
X124246693Y-69251161D01*
X124249339Y-69241501D01*
X124248886Y-69240142D01*
X124249497Y-69237071D01*
X124249497Y-69165642D01*
X124248886Y-69162570D01*
X124249339Y-69161212D01*
X124246693Y-69151551D01*
X124244739Y-69141724D01*
X124243725Y-69140710D01*
X124242899Y-69137691D01*
X124219090Y-69090073D01*
X124212945Y-69082155D01*
X124207381Y-69073828D01*
X124190476Y-69056924D01*
X124195279Y-69050736D01*
X124219090Y-69003117D01*
X124219916Y-69000097D01*
X124220930Y-68999084D01*
X124222884Y-68989258D01*
X124225530Y-68979597D01*
X124225076Y-68978237D01*
X124225688Y-68975166D01*
X124225688Y-68927547D01*
X124225076Y-68924475D01*
X124225530Y-68923116D01*
X124222884Y-68913454D01*
X124220930Y-68903629D01*
X124219916Y-68902615D01*
X124219090Y-68899596D01*
X124195279Y-68851977D01*
X124189138Y-68844065D01*
X124183572Y-68835734D01*
X124159763Y-68811925D01*
X124151431Y-68806358D01*
X124143520Y-68800218D01*
X124095901Y-68776408D01*
X124092882Y-68775581D01*
X124091868Y-68774567D01*
X124082037Y-68772611D01*
X124072381Y-68769967D01*
X124071021Y-68770420D01*
X124067950Y-68769809D01*
X123901283Y-68769809D01*
X123877365Y-68774567D01*
X123843541Y-68808391D01*
X123838783Y-68832309D01*
X123739651Y-68832309D01*
X123727949Y-68808904D01*
X123706763Y-68796826D01*
X123635333Y-68773016D01*
X123625394Y-68771763D01*
X123615569Y-68769809D01*
X123496522Y-68769809D01*
X123493450Y-68770420D01*
X123492091Y-68769967D01*
X123482429Y-68772612D01*
X123472604Y-68774567D01*
X123471590Y-68775580D01*
X123468571Y-68776407D01*
X123420952Y-68800218D01*
X123413043Y-68806356D01*
X123404710Y-68811924D01*
X123380900Y-68835733D01*
X123375333Y-68844063D01*
X123369191Y-68851978D01*
X123345382Y-68899597D01*
X123344555Y-68902615D01*
X123343542Y-68903629D01*
X123341588Y-68913450D01*
X123338941Y-68923117D01*
X123339394Y-68924477D01*
X123338784Y-68927547D01*
X123249497Y-68927547D01*
X123249497Y-68832309D01*
X123244739Y-68808391D01*
X123210915Y-68774567D01*
X123163079Y-68774567D01*
X123129255Y-68808391D01*
X123124497Y-68832309D01*
X123124497Y-69222317D01*
X123111821Y-69247668D01*
X123102357Y-69257133D01*
X123077005Y-69269809D01*
X123011275Y-69269809D01*
X122985924Y-69257134D01*
X122976459Y-69247669D01*
X122963783Y-69222317D01*
X122963783Y-68832309D01*
X122959025Y-68808391D01*
X122925201Y-68774567D01*
X122877365Y-68774567D01*
X122843541Y-68808391D01*
X122838783Y-68832309D01*
X122776283Y-68832309D01*
X122776283Y-68707309D01*
X124311997Y-68707309D01*
X124311997Y-69457309D01*
G37*
G36*
X115683308Y-77207485D02*
G01*
X115711513Y-77235690D01*
X115729259Y-77306671D01*
X115729259Y-77457946D01*
X115711513Y-77528926D01*
X115683306Y-77557134D01*
X115657957Y-77569809D01*
X115592227Y-77569809D01*
X115566878Y-77557134D01*
X115538670Y-77528926D01*
X115520926Y-77457948D01*
X115520926Y-77306669D01*
X115538670Y-77235690D01*
X115566877Y-77207483D01*
X115592226Y-77194809D01*
X115657957Y-77194809D01*
X115683308Y-77207485D01*
G37*
G36*
X116821521Y-77757309D02*
G01*
X114909613Y-77757309D01*
X114909613Y-77108391D01*
X114972113Y-77108391D01*
X114972113Y-77156227D01*
X115005937Y-77190051D01*
X115029855Y-77194809D01*
X115110212Y-77194809D01*
X115110212Y-77632309D01*
X115114970Y-77656227D01*
X115148794Y-77690051D01*
X115196630Y-77690051D01*
X115230454Y-77656227D01*
X115235212Y-77632309D01*
X115235212Y-77298976D01*
X115395926Y-77298976D01*
X115395926Y-77465642D01*
X115397419Y-77473151D01*
X115397792Y-77480800D01*
X115421601Y-77576038D01*
X115424492Y-77582157D01*
X115424492Y-77584797D01*
X115428748Y-77591168D01*
X115432018Y-77598088D01*
X115434278Y-77599444D01*
X115438040Y-77605074D01*
X115485659Y-77652694D01*
X115493992Y-77658261D01*
X115501904Y-77664402D01*
X115549522Y-77688211D01*
X115552541Y-77689037D01*
X115553555Y-77690051D01*
X115563382Y-77692005D01*
X115573043Y-77694651D01*
X115574401Y-77694198D01*
X115577473Y-77694809D01*
X115672711Y-77694809D01*
X115675780Y-77694198D01*
X115677141Y-77694652D01*
X115686807Y-77692004D01*
X115696629Y-77690051D01*
X115697642Y-77689037D01*
X115700661Y-77688211D01*
X115748280Y-77664402D01*
X115756188Y-77658263D01*
X115764525Y-77652694D01*
X115812144Y-77605074D01*
X115815903Y-77599446D01*
X115818166Y-77598089D01*
X115821438Y-77591162D01*
X115825691Y-77584797D01*
X115825691Y-77582160D01*
X115828583Y-77576039D01*
X115852393Y-77480801D01*
X115852765Y-77473151D01*
X115854259Y-77465642D01*
X115854259Y-77298976D01*
X115852765Y-77291466D01*
X115852393Y-77283817D01*
X115828583Y-77188579D01*
X115825691Y-77182457D01*
X115825691Y-77179821D01*
X115821439Y-77173457D01*
X115818166Y-77166529D01*
X115815902Y-77165171D01*
X115812143Y-77159544D01*
X115784908Y-77132309D01*
X115943545Y-77132309D01*
X115943545Y-77632309D01*
X115948303Y-77656227D01*
X115982127Y-77690051D01*
X116029963Y-77690051D01*
X116063787Y-77656227D01*
X116068545Y-77632309D01*
X116068545Y-77432904D01*
X116172712Y-77432904D01*
X116196630Y-77428146D01*
X116230454Y-77394322D01*
X116230454Y-77346486D01*
X116196630Y-77312662D01*
X116172712Y-77307904D01*
X116068545Y-77307904D01*
X116068545Y-77194809D01*
X116244140Y-77194809D01*
X116268058Y-77190051D01*
X116301882Y-77156227D01*
X116301882Y-77108391D01*
X116329255Y-77108391D01*
X116329255Y-77156227D01*
X116363079Y-77190051D01*
X116386997Y-77194809D01*
X116558785Y-77194809D01*
X116482818Y-77281628D01*
X116473950Y-77297028D01*
X116472112Y-77298867D01*
X116472112Y-77300221D01*
X116470649Y-77302762D01*
X116472112Y-77324712D01*
X116472112Y-77346703D01*
X116473682Y-77348273D01*
X116473830Y-77350490D01*
X116490378Y-77364969D01*
X116505936Y-77380527D01*
X116508813Y-77381099D01*
X116509831Y-77381990D01*
X116512422Y-77381817D01*
X116529854Y-77385285D01*
X116586529Y-77385285D01*
X116611880Y-77397961D01*
X116621346Y-77407427D01*
X116634021Y-77432776D01*
X116634021Y-77522317D01*
X116621345Y-77547667D01*
X116611880Y-77557133D01*
X116586529Y-77569809D01*
X116473180Y-77569809D01*
X116447828Y-77557133D01*
X116431191Y-77540496D01*
X116410914Y-77526948D01*
X116363080Y-77526948D01*
X116329255Y-77560773D01*
X116329255Y-77608607D01*
X116342803Y-77628884D01*
X116366613Y-77652694D01*
X116374939Y-77658257D01*
X116382857Y-77664402D01*
X116430475Y-77688211D01*
X116433494Y-77689037D01*
X116434508Y-77690051D01*
X116444335Y-77692005D01*
X116453996Y-77694651D01*
X116455354Y-77694198D01*
X116458426Y-77694809D01*
X116601283Y-77694809D01*
X116604352Y-77694198D01*
X116605713Y-77694652D01*
X116615379Y-77692004D01*
X116625201Y-77690051D01*
X116626214Y-77689037D01*
X116629233Y-77688211D01*
X116676852Y-77664402D01*
X116684766Y-77658259D01*
X116693097Y-77652693D01*
X116716906Y-77628883D01*
X116722473Y-77620549D01*
X116728612Y-77612641D01*
X116752423Y-77565022D01*
X116753249Y-77562002D01*
X116754263Y-77560989D01*
X116756217Y-77551163D01*
X116758863Y-77541502D01*
X116758409Y-77540142D01*
X116759021Y-77537071D01*
X116759021Y-77418023D01*
X116758409Y-77414951D01*
X116758863Y-77413592D01*
X116756217Y-77403930D01*
X116754263Y-77394105D01*
X116753249Y-77393091D01*
X116752423Y-77390072D01*
X116728612Y-77342453D01*
X116722471Y-77334541D01*
X116716905Y-77326210D01*
X116693096Y-77302401D01*
X116684764Y-77296834D01*
X116676853Y-77290694D01*
X116651899Y-77278216D01*
X116743557Y-77173465D01*
X116752426Y-77158063D01*
X116754263Y-77156227D01*
X116754263Y-77154874D01*
X116755727Y-77152332D01*
X116754263Y-77130372D01*
X116754263Y-77108391D01*
X116752692Y-77106820D01*
X116752545Y-77104604D01*
X116735992Y-77090120D01*
X116720439Y-77074567D01*
X116717563Y-77073994D01*
X116716544Y-77073103D01*
X116713949Y-77073275D01*
X116696521Y-77069809D01*
X116386997Y-77069809D01*
X116363079Y-77074567D01*
X116329255Y-77108391D01*
X116301882Y-77108391D01*
X116268058Y-77074567D01*
X116244140Y-77069809D01*
X116006045Y-77069809D01*
X115982127Y-77074567D01*
X115948303Y-77108391D01*
X115943545Y-77132309D01*
X115784908Y-77132309D01*
X115764524Y-77111925D01*
X115756192Y-77106358D01*
X115748281Y-77100218D01*
X115700662Y-77076408D01*
X115697643Y-77075581D01*
X115696629Y-77074567D01*
X115686798Y-77072611D01*
X115677142Y-77069967D01*
X115675782Y-77070420D01*
X115672711Y-77069809D01*
X115577473Y-77069809D01*
X115574401Y-77070420D01*
X115573042Y-77069967D01*
X115563380Y-77072612D01*
X115553555Y-77074567D01*
X115552541Y-77075580D01*
X115549522Y-77076407D01*
X115501903Y-77100218D01*
X115493991Y-77106358D01*
X115485660Y-77111925D01*
X115438041Y-77159544D01*
X115434280Y-77165172D01*
X115432018Y-77166530D01*
X115428746Y-77173454D01*
X115424493Y-77179821D01*
X115424493Y-77182458D01*
X115421601Y-77188580D01*
X115397792Y-77283818D01*
X115397419Y-77291466D01*
X115395926Y-77298976D01*
X115235212Y-77298976D01*
X115235212Y-77194809D01*
X115315569Y-77194809D01*
X115339487Y-77190051D01*
X115373311Y-77156227D01*
X115373311Y-77108391D01*
X115339487Y-77074567D01*
X115315569Y-77069809D01*
X115029855Y-77069809D01*
X115005937Y-77074567D01*
X114972113Y-77108391D01*
X114909613Y-77108391D01*
X114909613Y-77007309D01*
X116821521Y-77007309D01*
X116821521Y-77757309D01*
G37*
G36*
X117400855Y-90510746D02*
G01*
X117430870Y-90540761D01*
X117447074Y-90573169D01*
X117467354Y-90654288D01*
X117467354Y-90710329D01*
X117447074Y-90791448D01*
X117430871Y-90823855D01*
X117400853Y-90853873D01*
X117353045Y-90869809D01*
X117306640Y-90869809D01*
X117306640Y-90494809D01*
X117353044Y-90494809D01*
X117400855Y-90510746D01*
G37*
G36*
X117871712Y-90726952D02*
G01*
X117807045Y-90726952D01*
X117839378Y-90629952D01*
X117871712Y-90726952D01*
G37*
G36*
X118373785Y-90507485D02*
G01*
X118383250Y-90516950D01*
X118395925Y-90542300D01*
X118395925Y-90584222D01*
X118383250Y-90609572D01*
X118373785Y-90619037D01*
X118348433Y-90631714D01*
X118235211Y-90631714D01*
X118235211Y-90494809D01*
X118348433Y-90494809D01*
X118373785Y-90507485D01*
G37*
G36*
X118583425Y-91057309D02*
G01*
X116476283Y-91057309D01*
X116476283Y-90432309D01*
X116538783Y-90432309D01*
X116538783Y-90932309D01*
X116543541Y-90956227D01*
X116577365Y-90990051D01*
X116601283Y-90994809D01*
X116839378Y-90994809D01*
X116863296Y-90990051D01*
X116897120Y-90956227D01*
X116897120Y-90908391D01*
X116863296Y-90874567D01*
X116839378Y-90869809D01*
X116663783Y-90869809D01*
X116663783Y-90432309D01*
X116943545Y-90432309D01*
X116943545Y-90932309D01*
X116948303Y-90956227D01*
X116982127Y-90990051D01*
X117029963Y-90990051D01*
X117063787Y-90956227D01*
X117068545Y-90932309D01*
X117068545Y-90432309D01*
X117181640Y-90432309D01*
X117181640Y-90932309D01*
X117186398Y-90956227D01*
X117220222Y-90990051D01*
X117244140Y-90994809D01*
X117363188Y-90994809D01*
X117373013Y-90992854D01*
X117382952Y-90991602D01*
X117454380Y-90967793D01*
X117457100Y-90966242D01*
X117458534Y-90966242D01*
X117466867Y-90960673D01*
X117475566Y-90955715D01*
X117476206Y-90954434D01*
X117478811Y-90952694D01*
X117494765Y-90936740D01*
X117610370Y-90936740D01*
X117631762Y-90979524D01*
X117677143Y-90994651D01*
X117719927Y-90973259D01*
X117732005Y-90952073D01*
X117765379Y-90851952D01*
X117913378Y-90851952D01*
X117946752Y-90952073D01*
X117958830Y-90973259D01*
X118001614Y-90994651D01*
X118046995Y-90979524D01*
X118068387Y-90936740D01*
X118065338Y-90912544D01*
X117905259Y-90432309D01*
X118110211Y-90432309D01*
X118110211Y-90932309D01*
X118114969Y-90956227D01*
X118148793Y-90990051D01*
X118196629Y-90990051D01*
X118230453Y-90956227D01*
X118235211Y-90932309D01*
X118235211Y-90756714D01*
X118259218Y-90756714D01*
X118407223Y-90968151D01*
X118424837Y-90985016D01*
X118471944Y-90993329D01*
X118511132Y-90965897D01*
X118519445Y-90918791D01*
X118509627Y-90896468D01*
X118403021Y-90744173D01*
X118438757Y-90726305D01*
X118446665Y-90720166D01*
X118454999Y-90714599D01*
X118478809Y-90690790D01*
X118484373Y-90682462D01*
X118490518Y-90674545D01*
X118514327Y-90626927D01*
X118515153Y-90623907D01*
X118516167Y-90622894D01*
X118518121Y-90613066D01*
X118520767Y-90603406D01*
X118520314Y-90602047D01*
X118520925Y-90598976D01*
X118520925Y-90527547D01*
X118520314Y-90524475D01*
X118520767Y-90523117D01*
X118518121Y-90513456D01*
X118516167Y-90503629D01*
X118515153Y-90502615D01*
X118514327Y-90499596D01*
X118490518Y-90451978D01*
X118484373Y-90444060D01*
X118478809Y-90435733D01*
X118454999Y-90411924D01*
X118446665Y-90406356D01*
X118438757Y-90400218D01*
X118391138Y-90376408D01*
X118388119Y-90375581D01*
X118387105Y-90374567D01*
X118377274Y-90372611D01*
X118367618Y-90369967D01*
X118366258Y-90370420D01*
X118363187Y-90369809D01*
X118172711Y-90369809D01*
X118148793Y-90374567D01*
X118114969Y-90408391D01*
X118110211Y-90432309D01*
X117905259Y-90432309D01*
X117898671Y-90412545D01*
X117886593Y-90391359D01*
X117882416Y-90389270D01*
X117880328Y-90385094D01*
X117861533Y-90378829D01*
X117843809Y-90369967D01*
X117839378Y-90371444D01*
X117834947Y-90369967D01*
X117817223Y-90378829D01*
X117798428Y-90385094D01*
X117796339Y-90389270D01*
X117792163Y-90391359D01*
X117780085Y-90412545D01*
X117613419Y-90912545D01*
X117610370Y-90936740D01*
X117494765Y-90936740D01*
X117526430Y-90905074D01*
X117531999Y-90896737D01*
X117538136Y-90888831D01*
X117561947Y-90841212D01*
X117563755Y-90834607D01*
X117566679Y-90828419D01*
X117590488Y-90733181D01*
X117590860Y-90725532D01*
X117592354Y-90718023D01*
X117592354Y-90646595D01*
X117590860Y-90639085D01*
X117590488Y-90631437D01*
X117566679Y-90536199D01*
X117563755Y-90530010D01*
X117561947Y-90523406D01*
X117538136Y-90475787D01*
X117531995Y-90467875D01*
X117526429Y-90459544D01*
X117478810Y-90411925D01*
X117476208Y-90410186D01*
X117475567Y-90408904D01*
X117466855Y-90403937D01*
X117458533Y-90398377D01*
X117457102Y-90398377D01*
X117454381Y-90396826D01*
X117382953Y-90373016D01*
X117373011Y-90371763D01*
X117363188Y-90369809D01*
X117244140Y-90369809D01*
X117220222Y-90374567D01*
X117186398Y-90408391D01*
X117181640Y-90432309D01*
X117068545Y-90432309D01*
X117063787Y-90408391D01*
X117029963Y-90374567D01*
X116982127Y-90374567D01*
X116948303Y-90408391D01*
X116943545Y-90432309D01*
X116663783Y-90432309D01*
X116659025Y-90408391D01*
X116625201Y-90374567D01*
X116577365Y-90374567D01*
X116543541Y-90408391D01*
X116538783Y-90432309D01*
X116476283Y-90432309D01*
X116476283Y-90307309D01*
X118583425Y-90307309D01*
X118583425Y-91057309D01*
G37*
G36*
X140128855Y-90926952D02*
G01*
X140064188Y-90926952D01*
X140096521Y-90829952D01*
X140128855Y-90926952D01*
G37*
G36*
X141363190Y-91257309D02*
G01*
X139805013Y-91257309D01*
X139805013Y-91136740D01*
X139867513Y-91136740D01*
X139888905Y-91179524D01*
X139934286Y-91194651D01*
X139977070Y-91173259D01*
X139989148Y-91152073D01*
X140022522Y-91051952D01*
X140170521Y-91051952D01*
X140203895Y-91152073D01*
X140215973Y-91173259D01*
X140258757Y-91194651D01*
X140304138Y-91179524D01*
X140325530Y-91136740D01*
X140322481Y-91112544D01*
X140162402Y-90632309D01*
X140367354Y-90632309D01*
X140367354Y-91037071D01*
X140367965Y-91040142D01*
X140367512Y-91041502D01*
X140370156Y-91051158D01*
X140372112Y-91060989D01*
X140373126Y-91062003D01*
X140373953Y-91065022D01*
X140397763Y-91112641D01*
X140403901Y-91120549D01*
X140409469Y-91128883D01*
X140433278Y-91152693D01*
X140441605Y-91158257D01*
X140449523Y-91164402D01*
X140497141Y-91188211D01*
X140500160Y-91189037D01*
X140501174Y-91190051D01*
X140511001Y-91192005D01*
X140520662Y-91194651D01*
X140522020Y-91194198D01*
X140525092Y-91194809D01*
X140620330Y-91194809D01*
X140623399Y-91194198D01*
X140624760Y-91194652D01*
X140634426Y-91192004D01*
X140644248Y-91190051D01*
X140645261Y-91189037D01*
X140648280Y-91188211D01*
X140695899Y-91164402D01*
X140703814Y-91158258D01*
X140712143Y-91152694D01*
X140735953Y-91128884D01*
X140741516Y-91120557D01*
X140747661Y-91112640D01*
X140771470Y-91065022D01*
X140772296Y-91062002D01*
X140773310Y-91060989D01*
X140775264Y-91051161D01*
X140777910Y-91041501D01*
X140777457Y-91040142D01*
X140778068Y-91037071D01*
X140778068Y-90644437D01*
X140844733Y-90644437D01*
X140854042Y-90666978D01*
X140997595Y-90882309D01*
X140854042Y-91097640D01*
X140844733Y-91120181D01*
X140854115Y-91167086D01*
X140893917Y-91193621D01*
X140940822Y-91184239D01*
X140958048Y-91166978D01*
X141072711Y-90994982D01*
X141187375Y-91166978D01*
X141204601Y-91184239D01*
X141251506Y-91193621D01*
X141291308Y-91167086D01*
X141300690Y-91120180D01*
X141291381Y-91097640D01*
X141147827Y-90882309D01*
X141291381Y-90666978D01*
X141300690Y-90644438D01*
X141291308Y-90597532D01*
X141251506Y-90570997D01*
X141204601Y-90580379D01*
X141187375Y-90597640D01*
X141072711Y-90769635D01*
X140958048Y-90597640D01*
X140940822Y-90580379D01*
X140893917Y-90570997D01*
X140854115Y-90597532D01*
X140844733Y-90644437D01*
X140778068Y-90644437D01*
X140778068Y-90632309D01*
X140773310Y-90608391D01*
X140739486Y-90574567D01*
X140691650Y-90574567D01*
X140657826Y-90608391D01*
X140653068Y-90632309D01*
X140653068Y-91022317D01*
X140640392Y-91047668D01*
X140630928Y-91057133D01*
X140605576Y-91069809D01*
X140539846Y-91069809D01*
X140514495Y-91057134D01*
X140505030Y-91047669D01*
X140492354Y-91022317D01*
X140492354Y-90632309D01*
X140487596Y-90608391D01*
X140453772Y-90574567D01*
X140405936Y-90574567D01*
X140372112Y-90608391D01*
X140367354Y-90632309D01*
X140162402Y-90632309D01*
X140155814Y-90612545D01*
X140143736Y-90591359D01*
X140139559Y-90589270D01*
X140137471Y-90585094D01*
X140118676Y-90578829D01*
X140100952Y-90569967D01*
X140096521Y-90571444D01*
X140092090Y-90569967D01*
X140074366Y-90578829D01*
X140055571Y-90585094D01*
X140053482Y-90589270D01*
X140049306Y-90591359D01*
X140037228Y-90612545D01*
X139870562Y-91112545D01*
X139867513Y-91136740D01*
X139805013Y-91136740D01*
X139805013Y-90507467D01*
X141363190Y-90507467D01*
X141363190Y-91257309D01*
G37*
G36*
X142983308Y-77207485D02*
G01*
X143011513Y-77235690D01*
X143029259Y-77306671D01*
X143029259Y-77457946D01*
X143011513Y-77528926D01*
X142983306Y-77557134D01*
X142957957Y-77569809D01*
X142892227Y-77569809D01*
X142866878Y-77557134D01*
X142838670Y-77528926D01*
X142820926Y-77457948D01*
X142820926Y-77306669D01*
X142838670Y-77235690D01*
X142866877Y-77207483D01*
X142892226Y-77194809D01*
X142957957Y-77194809D01*
X142983308Y-77207485D01*
G37*
G36*
X144116763Y-77757309D02*
G01*
X142209613Y-77757309D01*
X142209613Y-77108391D01*
X142272113Y-77108391D01*
X142272113Y-77156227D01*
X142305937Y-77190051D01*
X142329855Y-77194809D01*
X142410212Y-77194809D01*
X142410212Y-77632309D01*
X142414970Y-77656227D01*
X142448794Y-77690051D01*
X142496630Y-77690051D01*
X142530454Y-77656227D01*
X142535212Y-77632309D01*
X142535212Y-77298976D01*
X142695926Y-77298976D01*
X142695926Y-77465642D01*
X142697419Y-77473151D01*
X142697792Y-77480800D01*
X142721601Y-77576038D01*
X142724492Y-77582157D01*
X142724492Y-77584797D01*
X142728748Y-77591168D01*
X142732018Y-77598088D01*
X142734278Y-77599444D01*
X142738040Y-77605074D01*
X142785659Y-77652694D01*
X142793992Y-77658261D01*
X142801904Y-77664402D01*
X142849522Y-77688211D01*
X142852541Y-77689037D01*
X142853555Y-77690051D01*
X142863382Y-77692005D01*
X142873043Y-77694651D01*
X142874401Y-77694198D01*
X142877473Y-77694809D01*
X142972711Y-77694809D01*
X142975780Y-77694198D01*
X142977141Y-77694652D01*
X142986807Y-77692004D01*
X142996629Y-77690051D01*
X142997642Y-77689037D01*
X143000661Y-77688211D01*
X143048280Y-77664402D01*
X143056188Y-77658263D01*
X143064525Y-77652694D01*
X143112144Y-77605074D01*
X143115903Y-77599446D01*
X143118166Y-77598089D01*
X143121438Y-77591162D01*
X143125691Y-77584797D01*
X143125691Y-77582160D01*
X143128583Y-77576039D01*
X143152393Y-77480801D01*
X143152765Y-77473151D01*
X143154259Y-77465642D01*
X143154259Y-77298976D01*
X143152765Y-77291466D01*
X143152393Y-77283817D01*
X143128583Y-77188579D01*
X143125691Y-77182457D01*
X143125691Y-77179821D01*
X143121439Y-77173457D01*
X143118166Y-77166529D01*
X143115902Y-77165171D01*
X143112143Y-77159544D01*
X143084908Y-77132309D01*
X143243545Y-77132309D01*
X143243545Y-77632309D01*
X143248303Y-77656227D01*
X143282127Y-77690051D01*
X143329963Y-77690051D01*
X143363787Y-77656227D01*
X143368545Y-77632309D01*
X143368545Y-77432904D01*
X143472712Y-77432904D01*
X143496630Y-77428146D01*
X143530454Y-77394322D01*
X143530454Y-77346486D01*
X143496630Y-77312662D01*
X143472712Y-77307904D01*
X143368545Y-77307904D01*
X143368545Y-77279596D01*
X143648464Y-77279596D01*
X143669857Y-77322382D01*
X143715237Y-77337509D01*
X143738757Y-77331068D01*
X143786376Y-77307259D01*
X143791164Y-77303542D01*
X143791164Y-77569809D01*
X143710807Y-77569809D01*
X143686889Y-77574567D01*
X143653065Y-77608391D01*
X143653065Y-77656227D01*
X143686889Y-77690051D01*
X143710807Y-77694809D01*
X143996521Y-77694809D01*
X144020439Y-77690051D01*
X144054263Y-77656227D01*
X144054263Y-77608391D01*
X144020439Y-77574567D01*
X143996521Y-77569809D01*
X143916164Y-77569809D01*
X143916164Y-77132309D01*
X143911406Y-77108391D01*
X143906855Y-77103840D01*
X143905594Y-77097532D01*
X143890452Y-77087437D01*
X143877582Y-77074567D01*
X143871147Y-77074567D01*
X143865792Y-77070997D01*
X143847942Y-77074567D01*
X143829746Y-77074567D01*
X143825197Y-77079116D01*
X143818887Y-77080378D01*
X143801661Y-77097640D01*
X143757473Y-77163921D01*
X143721405Y-77199990D01*
X143682857Y-77219264D01*
X143663591Y-77234216D01*
X143648464Y-77279596D01*
X143368545Y-77279596D01*
X143368545Y-77194809D01*
X143544140Y-77194809D01*
X143568058Y-77190051D01*
X143601882Y-77156227D01*
X143601882Y-77108391D01*
X143568058Y-77074567D01*
X143544140Y-77069809D01*
X143306045Y-77069809D01*
X143282127Y-77074567D01*
X143248303Y-77108391D01*
X143243545Y-77132309D01*
X143084908Y-77132309D01*
X143064524Y-77111925D01*
X143056192Y-77106358D01*
X143048281Y-77100218D01*
X143000662Y-77076408D01*
X142997643Y-77075581D01*
X142996629Y-77074567D01*
X142986798Y-77072611D01*
X142977142Y-77069967D01*
X142975782Y-77070420D01*
X142972711Y-77069809D01*
X142877473Y-77069809D01*
X142874401Y-77070420D01*
X142873042Y-77069967D01*
X142863380Y-77072612D01*
X142853555Y-77074567D01*
X142852541Y-77075580D01*
X142849522Y-77076407D01*
X142801903Y-77100218D01*
X142793991Y-77106358D01*
X142785660Y-77111925D01*
X142738041Y-77159544D01*
X142734280Y-77165172D01*
X142732018Y-77166530D01*
X142728746Y-77173454D01*
X142724493Y-77179821D01*
X142724493Y-77182458D01*
X142721601Y-77188580D01*
X142697792Y-77283818D01*
X142697419Y-77291466D01*
X142695926Y-77298976D01*
X142535212Y-77298976D01*
X142535212Y-77194809D01*
X142615569Y-77194809D01*
X142639487Y-77190051D01*
X142673311Y-77156227D01*
X142673311Y-77108391D01*
X142639487Y-77074567D01*
X142615569Y-77069809D01*
X142329855Y-77069809D01*
X142305937Y-77074567D01*
X142272113Y-77108391D01*
X142209613Y-77108391D01*
X142209613Y-77007309D01*
X144116763Y-77007309D01*
X144116763Y-77757309D01*
G37*
G36*
X140135214Y-69757485D02*
G01*
X140144679Y-69766950D01*
X140157354Y-69792300D01*
X140157354Y-69834222D01*
X140144679Y-69859572D01*
X140135214Y-69869037D01*
X140109862Y-69881714D01*
X139996640Y-69881714D01*
X139996640Y-69744809D01*
X140109862Y-69744809D01*
X140135214Y-69757485D01*
G37*
G36*
X141297235Y-70307309D02*
G01*
X137123422Y-70307309D01*
X137123422Y-70158391D01*
X137185922Y-70158391D01*
X137185922Y-70206227D01*
X137219746Y-70240051D01*
X137243664Y-70244809D01*
X137553188Y-70244809D01*
X137577106Y-70240051D01*
X137610930Y-70206227D01*
X137610930Y-70158391D01*
X137577106Y-70124567D01*
X137553188Y-70119809D01*
X137394552Y-70119809D01*
X137546446Y-69967915D01*
X137709731Y-69967915D01*
X137709731Y-70015751D01*
X137743555Y-70049575D01*
X137767473Y-70054333D01*
X138148426Y-70054333D01*
X138172344Y-70049575D01*
X138206168Y-70015751D01*
X138206168Y-69967915D01*
X138172344Y-69934091D01*
X138148426Y-69929333D01*
X137767473Y-69929333D01*
X137743555Y-69934091D01*
X137709731Y-69967915D01*
X137546446Y-69967915D01*
X137573572Y-69940789D01*
X137575311Y-69938185D01*
X137576593Y-69937545D01*
X137581552Y-69928846D01*
X137587121Y-69920512D01*
X137587121Y-69919077D01*
X137588671Y-69916359D01*
X137610425Y-69851097D01*
X138324057Y-69851097D01*
X138343851Y-69894643D01*
X138364576Y-69907497D01*
X138589472Y-69991833D01*
X138364576Y-70076169D01*
X138343851Y-70089023D01*
X138324057Y-70132569D01*
X138340854Y-70177360D01*
X138384400Y-70197154D01*
X138408466Y-70193211D01*
X138789419Y-70050354D01*
X138810144Y-70037500D01*
X138811080Y-70035440D01*
X138813142Y-70034503D01*
X138820850Y-70013945D01*
X138829938Y-69993954D01*
X138829142Y-69991833D01*
X138829938Y-69989712D01*
X138820850Y-69969720D01*
X138813142Y-69949163D01*
X138811080Y-69948225D01*
X138810144Y-69946166D01*
X138789419Y-69933312D01*
X138408466Y-69790455D01*
X138384400Y-69786512D01*
X138340854Y-69806306D01*
X138324057Y-69851097D01*
X137610425Y-69851097D01*
X137612481Y-69844930D01*
X137613733Y-69834991D01*
X137615688Y-69825166D01*
X137615688Y-69777547D01*
X137615076Y-69774475D01*
X137615530Y-69773116D01*
X137612884Y-69763454D01*
X137610930Y-69753629D01*
X137609916Y-69752615D01*
X137609090Y-69749596D01*
X137585279Y-69701977D01*
X137579138Y-69694065D01*
X137573572Y-69685734D01*
X137570147Y-69682309D01*
X138943069Y-69682309D01*
X138943069Y-70182309D01*
X138947827Y-70206226D01*
X138947827Y-70206227D01*
X138981651Y-70240051D01*
X139005569Y-70244809D01*
X139243664Y-70244809D01*
X139267582Y-70240051D01*
X139301406Y-70206227D01*
X139301406Y-70158391D01*
X139267582Y-70124567D01*
X139243664Y-70119809D01*
X139068069Y-70119809D01*
X139068069Y-69982904D01*
X139172236Y-69982904D01*
X139196154Y-69978146D01*
X139229978Y-69944322D01*
X139229978Y-69896486D01*
X139196154Y-69862662D01*
X139172236Y-69857904D01*
X139068069Y-69857904D01*
X139068069Y-69777547D01*
X139371641Y-69777547D01*
X139371641Y-69825166D01*
X139372251Y-69828235D01*
X139371798Y-69829596D01*
X139374445Y-69839262D01*
X139376399Y-69849084D01*
X139377412Y-69850097D01*
X139378239Y-69853116D01*
X139402048Y-69900735D01*
X139408191Y-69908650D01*
X139413756Y-69916979D01*
X139437566Y-69940789D01*
X139445892Y-69946352D01*
X139453810Y-69952497D01*
X139501428Y-69976306D01*
X139508029Y-69978113D01*
X139514220Y-69981038D01*
X139602803Y-70003184D01*
X139635214Y-70019389D01*
X139644679Y-70028855D01*
X139657355Y-70054205D01*
X139657355Y-70072317D01*
X139644679Y-70097667D01*
X139635214Y-70107133D01*
X139609863Y-70119809D01*
X139515712Y-70119809D01*
X139453905Y-70099207D01*
X139429710Y-70096158D01*
X139386925Y-70117550D01*
X139371799Y-70162931D01*
X139393191Y-70205716D01*
X139414377Y-70217793D01*
X139485805Y-70241602D01*
X139495748Y-70242855D01*
X139505569Y-70244809D01*
X139624617Y-70244809D01*
X139627686Y-70244198D01*
X139629047Y-70244652D01*
X139638713Y-70242004D01*
X139648535Y-70240051D01*
X139649548Y-70239037D01*
X139652567Y-70238211D01*
X139700186Y-70214402D01*
X139708100Y-70208259D01*
X139716431Y-70202693D01*
X139740240Y-70178883D01*
X139745807Y-70170549D01*
X139751946Y-70162641D01*
X139775757Y-70115022D01*
X139776583Y-70112002D01*
X139777597Y-70110989D01*
X139779551Y-70101163D01*
X139782197Y-70091502D01*
X139781743Y-70090142D01*
X139782355Y-70087071D01*
X139782355Y-70039452D01*
X139781743Y-70036380D01*
X139782197Y-70035021D01*
X139779551Y-70025359D01*
X139777597Y-70015534D01*
X139776583Y-70014520D01*
X139775757Y-70011501D01*
X139751946Y-69963882D01*
X139745807Y-69955973D01*
X139740240Y-69947640D01*
X139716431Y-69923830D01*
X139708100Y-69918263D01*
X139700186Y-69912121D01*
X139652567Y-69888312D01*
X139645965Y-69886504D01*
X139639776Y-69883580D01*
X139551191Y-69861433D01*
X139518781Y-69845228D01*
X139509317Y-69835764D01*
X139496641Y-69810412D01*
X139496641Y-69792301D01*
X139509316Y-69766949D01*
X139518782Y-69757484D01*
X139544132Y-69744809D01*
X139638283Y-69744809D01*
X139700091Y-69765412D01*
X139724286Y-69768461D01*
X139767070Y-69747069D01*
X139782198Y-69701688D01*
X139772508Y-69682309D01*
X139871640Y-69682309D01*
X139871640Y-70182309D01*
X139876398Y-70206227D01*
X139910222Y-70240051D01*
X139958058Y-70240051D01*
X139991882Y-70206227D01*
X139996640Y-70182309D01*
X139996640Y-70006714D01*
X140124616Y-70006714D01*
X140127687Y-70006102D01*
X140129047Y-70006556D01*
X140138703Y-70003911D01*
X140148534Y-70001956D01*
X140149548Y-70000941D01*
X140152567Y-70000115D01*
X140200186Y-69976305D01*
X140208094Y-69970166D01*
X140216428Y-69964599D01*
X140240238Y-69940790D01*
X140245802Y-69932462D01*
X140251947Y-69924545D01*
X140275756Y-69876927D01*
X140276582Y-69873907D01*
X140277596Y-69872894D01*
X140279550Y-69863066D01*
X140282196Y-69853406D01*
X140281743Y-69852047D01*
X140282354Y-69848976D01*
X140282354Y-69777547D01*
X140281743Y-69774475D01*
X140282196Y-69773117D01*
X140279550Y-69763456D01*
X140277596Y-69753629D01*
X140276582Y-69752615D01*
X140275756Y-69749596D01*
X140251947Y-69701978D01*
X140245802Y-69694060D01*
X140240238Y-69685733D01*
X140216428Y-69661924D01*
X140211140Y-69658391D01*
X140328779Y-69658391D01*
X140328779Y-69706227D01*
X140362603Y-69740051D01*
X140386521Y-69744809D01*
X140558309Y-69744809D01*
X140482342Y-69831628D01*
X140473474Y-69847028D01*
X140471636Y-69848867D01*
X140471636Y-69850221D01*
X140470173Y-69852762D01*
X140471636Y-69874712D01*
X140471636Y-69896703D01*
X140473206Y-69898273D01*
X140473354Y-69900490D01*
X140489902Y-69914969D01*
X140505460Y-69930527D01*
X140508337Y-69931099D01*
X140509355Y-69931990D01*
X140511946Y-69931817D01*
X140529378Y-69935285D01*
X140586053Y-69935285D01*
X140611404Y-69947961D01*
X140620870Y-69957427D01*
X140633545Y-69982776D01*
X140633545Y-70072317D01*
X140620869Y-70097667D01*
X140611404Y-70107133D01*
X140586053Y-70119809D01*
X140472704Y-70119809D01*
X140447352Y-70107133D01*
X140430715Y-70090496D01*
X140410438Y-70076948D01*
X140362604Y-70076948D01*
X140328779Y-70110773D01*
X140328779Y-70158607D01*
X140342327Y-70178884D01*
X140366137Y-70202694D01*
X140374463Y-70208257D01*
X140382381Y-70214402D01*
X140429999Y-70238211D01*
X140433018Y-70239037D01*
X140434032Y-70240051D01*
X140443859Y-70242005D01*
X140453520Y-70244651D01*
X140454878Y-70244198D01*
X140457950Y-70244809D01*
X140600807Y-70244809D01*
X140603876Y-70244198D01*
X140605237Y-70244652D01*
X140614903Y-70242004D01*
X140624725Y-70240051D01*
X140625738Y-70239037D01*
X140628757Y-70238211D01*
X140676376Y-70214402D01*
X140684290Y-70208259D01*
X140692621Y-70202693D01*
X140716430Y-70178883D01*
X140721997Y-70170549D01*
X140728136Y-70162641D01*
X140730261Y-70158391D01*
X140804969Y-70158391D01*
X140804969Y-70206227D01*
X140838793Y-70240051D01*
X140862711Y-70244809D01*
X141172235Y-70244809D01*
X141196153Y-70240051D01*
X141229977Y-70206227D01*
X141229977Y-70158391D01*
X141196153Y-70124567D01*
X141172235Y-70119809D01*
X141013599Y-70119809D01*
X141192619Y-69940789D01*
X141194358Y-69938185D01*
X141195640Y-69937545D01*
X141200599Y-69928846D01*
X141206168Y-69920512D01*
X141206168Y-69919077D01*
X141207718Y-69916359D01*
X141231528Y-69844930D01*
X141232780Y-69834991D01*
X141234735Y-69825166D01*
X141234735Y-69777547D01*
X141234123Y-69774475D01*
X141234577Y-69773116D01*
X141231931Y-69763454D01*
X141229977Y-69753629D01*
X141228963Y-69752615D01*
X141228137Y-69749596D01*
X141204326Y-69701977D01*
X141198185Y-69694065D01*
X141192619Y-69685734D01*
X141168810Y-69661925D01*
X141160478Y-69656358D01*
X141152567Y-69650218D01*
X141104948Y-69626408D01*
X141101929Y-69625581D01*
X141100915Y-69624567D01*
X141091084Y-69622611D01*
X141081428Y-69619967D01*
X141080068Y-69620420D01*
X141076997Y-69619809D01*
X140957949Y-69619809D01*
X140954877Y-69620420D01*
X140953518Y-69619967D01*
X140943856Y-69622612D01*
X140934031Y-69624567D01*
X140933017Y-69625580D01*
X140929998Y-69626407D01*
X140882379Y-69650218D01*
X140874467Y-69656358D01*
X140866136Y-69661925D01*
X140842327Y-69685734D01*
X140828779Y-69706011D01*
X140828779Y-69753845D01*
X140862604Y-69787670D01*
X140910438Y-69787670D01*
X140930715Y-69774122D01*
X140947353Y-69757483D01*
X140972702Y-69744809D01*
X141062243Y-69744809D01*
X141087594Y-69757485D01*
X141097060Y-69766951D01*
X141109735Y-69792300D01*
X141109735Y-69815022D01*
X141093797Y-69862834D01*
X140818517Y-70138115D01*
X140804971Y-70158388D01*
X140804969Y-70158391D01*
X140730261Y-70158391D01*
X140751947Y-70115022D01*
X140752773Y-70112002D01*
X140753787Y-70110989D01*
X140755741Y-70101163D01*
X140758387Y-70091502D01*
X140757933Y-70090142D01*
X140758545Y-70087071D01*
X140758545Y-69968023D01*
X140757933Y-69964951D01*
X140758387Y-69963592D01*
X140755741Y-69953930D01*
X140753787Y-69944105D01*
X140752773Y-69943091D01*
X140751947Y-69940072D01*
X140728136Y-69892453D01*
X140721995Y-69884541D01*
X140716429Y-69876210D01*
X140692620Y-69852401D01*
X140684288Y-69846834D01*
X140676377Y-69840694D01*
X140651423Y-69828216D01*
X140743081Y-69723465D01*
X140751950Y-69708063D01*
X140753787Y-69706227D01*
X140753787Y-69704874D01*
X140755251Y-69702332D01*
X140753787Y-69680372D01*
X140753787Y-69658391D01*
X140752216Y-69656820D01*
X140752069Y-69654604D01*
X140735516Y-69640120D01*
X140719963Y-69624567D01*
X140717087Y-69623994D01*
X140716068Y-69623103D01*
X140713473Y-69623275D01*
X140696045Y-69619809D01*
X140386521Y-69619809D01*
X140362603Y-69624567D01*
X140328779Y-69658391D01*
X140211140Y-69658391D01*
X140208094Y-69656356D01*
X140200186Y-69650218D01*
X140152567Y-69626408D01*
X140149548Y-69625581D01*
X140148534Y-69624567D01*
X140138703Y-69622611D01*
X140129047Y-69619967D01*
X140127687Y-69620420D01*
X140124616Y-69619809D01*
X139934140Y-69619809D01*
X139910222Y-69624567D01*
X139876398Y-69658391D01*
X139871640Y-69682309D01*
X139772508Y-69682309D01*
X139760806Y-69658904D01*
X139739620Y-69646826D01*
X139668190Y-69623016D01*
X139658251Y-69621763D01*
X139648426Y-69619809D01*
X139529379Y-69619809D01*
X139526307Y-69620420D01*
X139524948Y-69619967D01*
X139515286Y-69622612D01*
X139505461Y-69624567D01*
X139504447Y-69625580D01*
X139501428Y-69626407D01*
X139453809Y-69650218D01*
X139445900Y-69656356D01*
X139437567Y-69661924D01*
X139413757Y-69685733D01*
X139408190Y-69694063D01*
X139402048Y-69701978D01*
X139378239Y-69749597D01*
X139377412Y-69752615D01*
X139376399Y-69753629D01*
X139374445Y-69763450D01*
X139371798Y-69773117D01*
X139372251Y-69774477D01*
X139371641Y-69777547D01*
X139068069Y-69777547D01*
X139068069Y-69744809D01*
X139243664Y-69744809D01*
X139267582Y-69740051D01*
X139301406Y-69706227D01*
X139301406Y-69658391D01*
X139267582Y-69624567D01*
X139243664Y-69619809D01*
X139005569Y-69619809D01*
X138981651Y-69624567D01*
X138947827Y-69658391D01*
X138943069Y-69682309D01*
X137570147Y-69682309D01*
X137549763Y-69661925D01*
X137541431Y-69656358D01*
X137533520Y-69650218D01*
X137485901Y-69626408D01*
X137482882Y-69625581D01*
X137481868Y-69624567D01*
X137472037Y-69622611D01*
X137462381Y-69619967D01*
X137461021Y-69620420D01*
X137457950Y-69619809D01*
X137338902Y-69619809D01*
X137335830Y-69620420D01*
X137334471Y-69619967D01*
X137324809Y-69622612D01*
X137314984Y-69624567D01*
X137313970Y-69625580D01*
X137310951Y-69626407D01*
X137263332Y-69650218D01*
X137255420Y-69656358D01*
X137247089Y-69661925D01*
X137223280Y-69685734D01*
X137209732Y-69706011D01*
X137209732Y-69753845D01*
X137243557Y-69787670D01*
X137291391Y-69787670D01*
X137311668Y-69774122D01*
X137328306Y-69757483D01*
X137353655Y-69744809D01*
X137443196Y-69744809D01*
X137468547Y-69757485D01*
X137478013Y-69766951D01*
X137490688Y-69792300D01*
X137490688Y-69815022D01*
X137474750Y-69862834D01*
X137199470Y-70138115D01*
X137185924Y-70158388D01*
X137185922Y-70158391D01*
X137123422Y-70158391D01*
X137123422Y-69557309D01*
X141297235Y-69557309D01*
X141297235Y-70307309D01*
G37*
G36*
X141297235Y-69557309D02*
G01*
X137142631Y-69557309D01*
X137142631Y-69079596D01*
X137205131Y-69079596D01*
X137226524Y-69122382D01*
X137271904Y-69137509D01*
X137295424Y-69131068D01*
X137343043Y-69107259D01*
X137347831Y-69103542D01*
X137347831Y-69369809D01*
X137267474Y-69369809D01*
X137243556Y-69374567D01*
X137209732Y-69408391D01*
X137209732Y-69456227D01*
X137243556Y-69490051D01*
X137267474Y-69494809D01*
X137553188Y-69494809D01*
X137577106Y-69490051D01*
X137610930Y-69456227D01*
X137610930Y-69408391D01*
X137577106Y-69374567D01*
X137553188Y-69369809D01*
X137472831Y-69369809D01*
X137472831Y-69217915D01*
X137709731Y-69217915D01*
X137709731Y-69265751D01*
X137743555Y-69299575D01*
X137767473Y-69304333D01*
X138148426Y-69304333D01*
X138172344Y-69299575D01*
X138206168Y-69265751D01*
X138206168Y-69217915D01*
X138172344Y-69184091D01*
X138148426Y-69179333D01*
X137767473Y-69179333D01*
X137743555Y-69184091D01*
X137709731Y-69217915D01*
X137472831Y-69217915D01*
X137472831Y-69101097D01*
X138324057Y-69101097D01*
X138343851Y-69144643D01*
X138364576Y-69157497D01*
X138589472Y-69241833D01*
X138364576Y-69326169D01*
X138343851Y-69339023D01*
X138324057Y-69382569D01*
X138340854Y-69427360D01*
X138384400Y-69447154D01*
X138408466Y-69443211D01*
X138789419Y-69300354D01*
X138810144Y-69287500D01*
X138811080Y-69285440D01*
X138813142Y-69284503D01*
X138820850Y-69263945D01*
X138829938Y-69243954D01*
X138829142Y-69241833D01*
X138829938Y-69239712D01*
X138820850Y-69219720D01*
X138813142Y-69199163D01*
X138811080Y-69198225D01*
X138810144Y-69196166D01*
X138789419Y-69183312D01*
X138408466Y-69040455D01*
X138384400Y-69036512D01*
X138340854Y-69056306D01*
X138324057Y-69101097D01*
X137472831Y-69101097D01*
X137472831Y-69027547D01*
X138919260Y-69027547D01*
X138919260Y-69075166D01*
X138919870Y-69078235D01*
X138919417Y-69079596D01*
X138922064Y-69089262D01*
X138924018Y-69099084D01*
X138925031Y-69100097D01*
X138925858Y-69103116D01*
X138949667Y-69150735D01*
X138955810Y-69158650D01*
X138961375Y-69166979D01*
X138985185Y-69190789D01*
X138993511Y-69196352D01*
X139001429Y-69202497D01*
X139049047Y-69226306D01*
X139055648Y-69228113D01*
X139061839Y-69231038D01*
X139150422Y-69253184D01*
X139182833Y-69269389D01*
X139192298Y-69278855D01*
X139204974Y-69304205D01*
X139204974Y-69322317D01*
X139192298Y-69347667D01*
X139182833Y-69357133D01*
X139157482Y-69369809D01*
X139063331Y-69369809D01*
X139001524Y-69349207D01*
X138977329Y-69346158D01*
X138934544Y-69367550D01*
X138919418Y-69412931D01*
X138940810Y-69455716D01*
X138961996Y-69467793D01*
X139033424Y-69491602D01*
X139043367Y-69492855D01*
X139053188Y-69494809D01*
X139172236Y-69494809D01*
X139175305Y-69494198D01*
X139176666Y-69494652D01*
X139186332Y-69492004D01*
X139196154Y-69490051D01*
X139197167Y-69489037D01*
X139200186Y-69488211D01*
X139247805Y-69464402D01*
X139255719Y-69458259D01*
X139264050Y-69452693D01*
X139287859Y-69428883D01*
X139293426Y-69420549D01*
X139299565Y-69412641D01*
X139323376Y-69365022D01*
X139324202Y-69362002D01*
X139325216Y-69360989D01*
X139327170Y-69351163D01*
X139329816Y-69341502D01*
X139329362Y-69340142D01*
X139329974Y-69337071D01*
X139329974Y-69289452D01*
X139329362Y-69286380D01*
X139329816Y-69285021D01*
X139327170Y-69275359D01*
X139325216Y-69265534D01*
X139324202Y-69264520D01*
X139323376Y-69261501D01*
X139299565Y-69213882D01*
X139293426Y-69205973D01*
X139287859Y-69197640D01*
X139264050Y-69173830D01*
X139255719Y-69168263D01*
X139247805Y-69162121D01*
X139200186Y-69138312D01*
X139193584Y-69136504D01*
X139187395Y-69133580D01*
X139098810Y-69111433D01*
X139066400Y-69095228D01*
X139056936Y-69085764D01*
X139044260Y-69060412D01*
X139044260Y-69042301D01*
X139056935Y-69016949D01*
X139066401Y-69007484D01*
X139091751Y-68994809D01*
X139185902Y-68994809D01*
X139247710Y-69015412D01*
X139271905Y-69018461D01*
X139314689Y-68997069D01*
X139329817Y-68951688D01*
X139308425Y-68908904D01*
X139307525Y-68908391D01*
X139352589Y-68908391D01*
X139352589Y-68956227D01*
X139386413Y-68990051D01*
X139410331Y-68994809D01*
X139490688Y-68994809D01*
X139490688Y-69432309D01*
X139495446Y-69456227D01*
X139529270Y-69490051D01*
X139577106Y-69490051D01*
X139610930Y-69456227D01*
X139615688Y-69432309D01*
X139615688Y-68994809D01*
X139696045Y-68994809D01*
X139719963Y-68990051D01*
X139753787Y-68956227D01*
X139753787Y-68932309D01*
X139800211Y-68932309D01*
X139800211Y-69432309D01*
X139804969Y-69456227D01*
X139838793Y-69490051D01*
X139886629Y-69490051D01*
X139920453Y-69456227D01*
X139925211Y-69432309D01*
X139925211Y-69214030D01*
X139972742Y-69315882D01*
X139982270Y-69328868D01*
X139983286Y-69331662D01*
X139984858Y-69332395D01*
X139987168Y-69335544D01*
X140007263Y-69342851D01*
X140026634Y-69351891D01*
X140029378Y-69350893D01*
X140032122Y-69351891D01*
X140051492Y-69342851D01*
X140071588Y-69335544D01*
X140073897Y-69332395D01*
X140075470Y-69331662D01*
X140076485Y-69328868D01*
X140086014Y-69315882D01*
X140133544Y-69214032D01*
X140133544Y-69432309D01*
X140138302Y-69456227D01*
X140172126Y-69490051D01*
X140219962Y-69490051D01*
X140253786Y-69456227D01*
X140258544Y-69432309D01*
X140258544Y-68932309D01*
X140253786Y-68908391D01*
X140328779Y-68908391D01*
X140328779Y-68956227D01*
X140362603Y-68990051D01*
X140386521Y-68994809D01*
X140558309Y-68994809D01*
X140482342Y-69081628D01*
X140473474Y-69097028D01*
X140471636Y-69098867D01*
X140471636Y-69100221D01*
X140470173Y-69102762D01*
X140471636Y-69124712D01*
X140471636Y-69146703D01*
X140473206Y-69148273D01*
X140473354Y-69150490D01*
X140489902Y-69164969D01*
X140505460Y-69180527D01*
X140508337Y-69181099D01*
X140509355Y-69181990D01*
X140511946Y-69181817D01*
X140529378Y-69185285D01*
X140586053Y-69185285D01*
X140611404Y-69197961D01*
X140620870Y-69207427D01*
X140633545Y-69232776D01*
X140633545Y-69322317D01*
X140620869Y-69347667D01*
X140611404Y-69357133D01*
X140586053Y-69369809D01*
X140472704Y-69369809D01*
X140447352Y-69357133D01*
X140430715Y-69340496D01*
X140410438Y-69326948D01*
X140362604Y-69326948D01*
X140328779Y-69360773D01*
X140328779Y-69408607D01*
X140342327Y-69428884D01*
X140366137Y-69452694D01*
X140374463Y-69458257D01*
X140382381Y-69464402D01*
X140429999Y-69488211D01*
X140433018Y-69489037D01*
X140434032Y-69490051D01*
X140443859Y-69492005D01*
X140453520Y-69494651D01*
X140454878Y-69494198D01*
X140457950Y-69494809D01*
X140600807Y-69494809D01*
X140603876Y-69494198D01*
X140605237Y-69494652D01*
X140614903Y-69492004D01*
X140624725Y-69490051D01*
X140625738Y-69489037D01*
X140628757Y-69488211D01*
X140676376Y-69464402D01*
X140684290Y-69458259D01*
X140692621Y-69452693D01*
X140716430Y-69428883D01*
X140721997Y-69420549D01*
X140728136Y-69412641D01*
X140730261Y-69408391D01*
X140804969Y-69408391D01*
X140804969Y-69456227D01*
X140838793Y-69490051D01*
X140862711Y-69494809D01*
X141172235Y-69494809D01*
X141196153Y-69490051D01*
X141229977Y-69456227D01*
X141229977Y-69408391D01*
X141196153Y-69374567D01*
X141172235Y-69369809D01*
X141013599Y-69369809D01*
X141192619Y-69190789D01*
X141194358Y-69188185D01*
X141195640Y-69187545D01*
X141200599Y-69178846D01*
X141206168Y-69170512D01*
X141206168Y-69169077D01*
X141207718Y-69166359D01*
X141231528Y-69094930D01*
X141232780Y-69084991D01*
X141234735Y-69075166D01*
X141234735Y-69027547D01*
X141234123Y-69024475D01*
X141234577Y-69023116D01*
X141231931Y-69013454D01*
X141229977Y-69003629D01*
X141228963Y-69002615D01*
X141228137Y-68999596D01*
X141204326Y-68951977D01*
X141198185Y-68944065D01*
X141192619Y-68935734D01*
X141168810Y-68911925D01*
X141160478Y-68906358D01*
X141152567Y-68900218D01*
X141104948Y-68876408D01*
X141101929Y-68875581D01*
X141100915Y-68874567D01*
X141091084Y-68872611D01*
X141081428Y-68869967D01*
X141080068Y-68870420D01*
X141076997Y-68869809D01*
X140957949Y-68869809D01*
X140954877Y-68870420D01*
X140953518Y-68869967D01*
X140943856Y-68872612D01*
X140934031Y-68874567D01*
X140933017Y-68875580D01*
X140929998Y-68876407D01*
X140882379Y-68900218D01*
X140874467Y-68906358D01*
X140866136Y-68911925D01*
X140842327Y-68935734D01*
X140828779Y-68956011D01*
X140828779Y-69003845D01*
X140862604Y-69037670D01*
X140910438Y-69037670D01*
X140930715Y-69024122D01*
X140947353Y-69007483D01*
X140972702Y-68994809D01*
X141062243Y-68994809D01*
X141087594Y-69007485D01*
X141097060Y-69016951D01*
X141109735Y-69042300D01*
X141109735Y-69065022D01*
X141093797Y-69112834D01*
X140818517Y-69388115D01*
X140804971Y-69408388D01*
X140804969Y-69408391D01*
X140730261Y-69408391D01*
X140751947Y-69365022D01*
X140752773Y-69362002D01*
X140753787Y-69360989D01*
X140755741Y-69351163D01*
X140758387Y-69341502D01*
X140757933Y-69340142D01*
X140758545Y-69337071D01*
X140758545Y-69218023D01*
X140757933Y-69214951D01*
X140758387Y-69213592D01*
X140755741Y-69203930D01*
X140753787Y-69194105D01*
X140752773Y-69193091D01*
X140751947Y-69190072D01*
X140728136Y-69142453D01*
X140721995Y-69134541D01*
X140716429Y-69126210D01*
X140692620Y-69102401D01*
X140684288Y-69096834D01*
X140676377Y-69090694D01*
X140651423Y-69078216D01*
X140743081Y-68973465D01*
X140751950Y-68958063D01*
X140753787Y-68956227D01*
X140753787Y-68954874D01*
X140755251Y-68952332D01*
X140753787Y-68930372D01*
X140753787Y-68908391D01*
X140752216Y-68906820D01*
X140752069Y-68904604D01*
X140735516Y-68890120D01*
X140719963Y-68874567D01*
X140717087Y-68873994D01*
X140716068Y-68873103D01*
X140713473Y-68873275D01*
X140696045Y-68869809D01*
X140386521Y-68869809D01*
X140362603Y-68874567D01*
X140328779Y-68908391D01*
X140253786Y-68908391D01*
X140245932Y-68900537D01*
X140242136Y-68890098D01*
X140229680Y-68884285D01*
X140219962Y-68874567D01*
X140208855Y-68874567D01*
X140198788Y-68869869D01*
X140185869Y-68874567D01*
X140172126Y-68874567D01*
X140164273Y-68882419D01*
X140153834Y-68886216D01*
X140139408Y-68905878D01*
X140029377Y-69141658D01*
X139919347Y-68905879D01*
X139904921Y-68886217D01*
X139894483Y-68882421D01*
X139886629Y-68874567D01*
X139872884Y-68874567D01*
X139859967Y-68869870D01*
X139849902Y-68874567D01*
X139838793Y-68874567D01*
X139829072Y-68884287D01*
X139816619Y-68890099D01*
X139812823Y-68900536D01*
X139804969Y-68908391D01*
X139800211Y-68932309D01*
X139753787Y-68932309D01*
X139753787Y-68908391D01*
X139719963Y-68874567D01*
X139696045Y-68869809D01*
X139410331Y-68869809D01*
X139386413Y-68874567D01*
X139352589Y-68908391D01*
X139307525Y-68908391D01*
X139287239Y-68896826D01*
X139215809Y-68873016D01*
X139205870Y-68871763D01*
X139196045Y-68869809D01*
X139076998Y-68869809D01*
X139073926Y-68870420D01*
X139072567Y-68869967D01*
X139062905Y-68872612D01*
X139053080Y-68874567D01*
X139052066Y-68875580D01*
X139049047Y-68876407D01*
X139001428Y-68900218D01*
X138993519Y-68906356D01*
X138985186Y-68911924D01*
X138961376Y-68935733D01*
X138955809Y-68944063D01*
X138949667Y-68951978D01*
X138925858Y-68999597D01*
X138925031Y-69002615D01*
X138924018Y-69003629D01*
X138922064Y-69013450D01*
X138919417Y-69023117D01*
X138919870Y-69024477D01*
X138919260Y-69027547D01*
X137472831Y-69027547D01*
X137472831Y-68932309D01*
X137468073Y-68908391D01*
X137463522Y-68903840D01*
X137462261Y-68897532D01*
X137447119Y-68887437D01*
X137434249Y-68874567D01*
X137427814Y-68874567D01*
X137422459Y-68870997D01*
X137404609Y-68874567D01*
X137386413Y-68874567D01*
X137381864Y-68879116D01*
X137375554Y-68880378D01*
X137358328Y-68897640D01*
X137314140Y-68963921D01*
X137278072Y-68999990D01*
X137239524Y-69019264D01*
X137220258Y-69034216D01*
X137205131Y-69079596D01*
X137142631Y-69079596D01*
X137142631Y-68807309D01*
X141297235Y-68807309D01*
X141297235Y-69557309D01*
G37*
G36*
X133583430Y-76907309D02*
G01*
X133052631Y-76907309D01*
X133052631Y-76429596D01*
X133115131Y-76429596D01*
X133136524Y-76472382D01*
X133181904Y-76487509D01*
X133205424Y-76481068D01*
X133253043Y-76457259D01*
X133257831Y-76453542D01*
X133257831Y-76719809D01*
X133177474Y-76719809D01*
X133153556Y-76724567D01*
X133119732Y-76758391D01*
X133119732Y-76806227D01*
X133153556Y-76840051D01*
X133177474Y-76844809D01*
X133463188Y-76844809D01*
X133487106Y-76840051D01*
X133520930Y-76806227D01*
X133520930Y-76758391D01*
X133487106Y-76724567D01*
X133463188Y-76719809D01*
X133382831Y-76719809D01*
X133382831Y-76282309D01*
X133378073Y-76258391D01*
X133373522Y-76253840D01*
X133372261Y-76247532D01*
X133357119Y-76237437D01*
X133344249Y-76224567D01*
X133337814Y-76224567D01*
X133332459Y-76220997D01*
X133314609Y-76224567D01*
X133296413Y-76224567D01*
X133291864Y-76229116D01*
X133285554Y-76230378D01*
X133268328Y-76247640D01*
X133224140Y-76313921D01*
X133188072Y-76349990D01*
X133149524Y-76369264D01*
X133130258Y-76384216D01*
X133115131Y-76429596D01*
X133052631Y-76429596D01*
X133052631Y-76158497D01*
X133583430Y-76158497D01*
X133583430Y-76907309D01*
G37*
D11*
X135850000Y-76100000D02*
X135850000Y-75850000D01*
X134850000Y-76100000D02*
X135850000Y-76100000D01*
X134850000Y-75850000D02*
X134850000Y-76100000D01*
X132850000Y-76050000D02*
X132850000Y-75850000D01*
X133850000Y-76050000D02*
X132850000Y-76050000D01*
X133850000Y-75850000D02*
X133850000Y-76050000D01*
X142100000Y-76000000D02*
X142100000Y-77900000D01*
X140500000Y-76000000D02*
X142100000Y-76000000D01*
X140500000Y-72600000D02*
X140500000Y-76000000D01*
X137000000Y-72600000D02*
X140500000Y-72600000D01*
D12*
G36*
X133528549Y-91298511D02*
G01*
X133540884Y-91310844D01*
X133558611Y-91346299D01*
X133579597Y-91430240D01*
X133579597Y-91536977D01*
X133558611Y-91620918D01*
X133540884Y-91656372D01*
X133528550Y-91668706D01*
X133498745Y-91683609D01*
X133474734Y-91683609D01*
X133444927Y-91668706D01*
X133432594Y-91656371D01*
X133414868Y-91620919D01*
X133393883Y-91536978D01*
X133393883Y-91430239D01*
X133414868Y-91346298D01*
X133432594Y-91310845D01*
X133444928Y-91298511D01*
X133474733Y-91283609D01*
X133498746Y-91283609D01*
X133528549Y-91298511D01*
G37*
G36*
X133735153Y-91839165D02*
G01*
X132047978Y-91839165D01*
X132047978Y-91230065D01*
X132103534Y-91230065D01*
X132105974Y-91249420D01*
X132272640Y-91749420D01*
X132282301Y-91766369D01*
X132285643Y-91768039D01*
X132287314Y-91771382D01*
X132302353Y-91776395D01*
X132316530Y-91783483D01*
X132320074Y-91782301D01*
X132323618Y-91783483D01*
X132337794Y-91776395D01*
X132352834Y-91771382D01*
X132354504Y-91768039D01*
X132357847Y-91766369D01*
X132367508Y-91749420D01*
X132490645Y-91380010D01*
X132579724Y-91380010D01*
X132596837Y-91414238D01*
X132633142Y-91426340D01*
X132651958Y-91421188D01*
X132699577Y-91397379D01*
X132705914Y-91392460D01*
X132712572Y-91388012D01*
X132722455Y-91378129D01*
X132722455Y-91683609D01*
X132629598Y-91683609D01*
X132610464Y-91687415D01*
X132583404Y-91714475D01*
X132583404Y-91752743D01*
X132610464Y-91779803D01*
X132629598Y-91783609D01*
X132915312Y-91783609D01*
X132934446Y-91779803D01*
X132961506Y-91752743D01*
X132961506Y-91714475D01*
X132937697Y-91690666D01*
X133059594Y-91690666D01*
X133059594Y-91728934D01*
X133070433Y-91745155D01*
X133094242Y-91768964D01*
X133110463Y-91779803D01*
X133148730Y-91779803D01*
X133148731Y-91779803D01*
X133148733Y-91779800D01*
X133164952Y-91768965D01*
X133188762Y-91745156D01*
X133199601Y-91728935D01*
X133199601Y-91690666D01*
X133199601Y-91690665D01*
X133188762Y-91674444D01*
X133164952Y-91650635D01*
X133148731Y-91639796D01*
X133110462Y-91639796D01*
X133094241Y-91650635D01*
X133070432Y-91674445D01*
X133059596Y-91690663D01*
X133059594Y-91690666D01*
X132937697Y-91690666D01*
X132934446Y-91687415D01*
X132915312Y-91683609D01*
X132822455Y-91683609D01*
X132822455Y-91424085D01*
X133293883Y-91424085D01*
X133293883Y-91543133D01*
X133295078Y-91549142D01*
X133295376Y-91555260D01*
X133319185Y-91650498D01*
X133321524Y-91655450D01*
X133322971Y-91660732D01*
X133346781Y-91708351D01*
X133351694Y-91714682D01*
X133356146Y-91721345D01*
X133379955Y-91745155D01*
X133386619Y-91749608D01*
X133392951Y-91754522D01*
X133440569Y-91778330D01*
X133442984Y-91778991D01*
X133443796Y-91779803D01*
X133451657Y-91781366D01*
X133459385Y-91783483D01*
X133460473Y-91783120D01*
X133462930Y-91783609D01*
X133510549Y-91783609D01*
X133513005Y-91783120D01*
X133514093Y-91783483D01*
X133521822Y-91781366D01*
X133529683Y-91779803D01*
X133530493Y-91778992D01*
X133532909Y-91778331D01*
X133580528Y-91754522D01*
X133586865Y-91749603D01*
X133593523Y-91745155D01*
X133617333Y-91721346D01*
X133621786Y-91714681D01*
X133626700Y-91708350D01*
X133650508Y-91660732D01*
X133651954Y-91655450D01*
X133654294Y-91650498D01*
X133678104Y-91555260D01*
X133678401Y-91549142D01*
X133679597Y-91543133D01*
X133679597Y-91424085D01*
X133678401Y-91418075D01*
X133678104Y-91411958D01*
X133654294Y-91316720D01*
X133651954Y-91311767D01*
X133650508Y-91306486D01*
X133626700Y-91258868D01*
X133621786Y-91252536D01*
X133617333Y-91245872D01*
X133593523Y-91222063D01*
X133586860Y-91217611D01*
X133580529Y-91212698D01*
X133532910Y-91188888D01*
X133530494Y-91188226D01*
X133529683Y-91187415D01*
X133521821Y-91185851D01*
X133514094Y-91183735D01*
X133513005Y-91184097D01*
X133510549Y-91183609D01*
X133462930Y-91183609D01*
X133460473Y-91184097D01*
X133459385Y-91183735D01*
X133451657Y-91185851D01*
X133443796Y-91187415D01*
X133442984Y-91188226D01*
X133440569Y-91188888D01*
X133392950Y-91212698D01*
X133386615Y-91217613D01*
X133379956Y-91222064D01*
X133356147Y-91245873D01*
X133351696Y-91252532D01*
X133346781Y-91258867D01*
X133322971Y-91306486D01*
X133321524Y-91311767D01*
X133319185Y-91316720D01*
X133295376Y-91411958D01*
X133295078Y-91418075D01*
X133293883Y-91424085D01*
X132822455Y-91424085D01*
X132822455Y-91233609D01*
X132818649Y-91214475D01*
X132815008Y-91210834D01*
X132813999Y-91205787D01*
X132801884Y-91197710D01*
X132791589Y-91187415D01*
X132786442Y-91187415D01*
X132782158Y-91184559D01*
X132767880Y-91187415D01*
X132753321Y-91187415D01*
X132749680Y-91191055D01*
X132744633Y-91192065D01*
X132730853Y-91205874D01*
X132685978Y-91273184D01*
X132647600Y-91311563D01*
X132607238Y-91331744D01*
X132591826Y-91343705D01*
X132579724Y-91380010D01*
X132490645Y-91380010D01*
X132534175Y-91249421D01*
X132536615Y-91230065D01*
X132519501Y-91195837D01*
X132483197Y-91183735D01*
X132448968Y-91200849D01*
X132439307Y-91217798D01*
X132320074Y-91575495D01*
X132200842Y-91217798D01*
X132191181Y-91200849D01*
X132156952Y-91183735D01*
X132120648Y-91195836D01*
X132103534Y-91230065D01*
X132047978Y-91230065D01*
X132047978Y-91128053D01*
X133735153Y-91128053D01*
X133735153Y-91839165D01*
G37*
D11*
X121600000Y-86500000D02*
X120800000Y-86500000D01*
X131750000Y-90800000D02*
X131750000Y-89100000D01*
D13*
G36*
X136057711Y-90453904D02*
G01*
X135928377Y-90453904D01*
X135993043Y-90259903D01*
X136057711Y-90453904D01*
G37*
G36*
X135204713Y-90014969D02*
G01*
X135223645Y-90033902D01*
X135248996Y-90084603D01*
X135248996Y-90168443D01*
X135223645Y-90219144D01*
X135204713Y-90238077D01*
X135154012Y-90263428D01*
X134927568Y-90263428D01*
X134927568Y-89989619D01*
X135154012Y-89989619D01*
X135204713Y-90014969D01*
G37*
G36*
X137383499Y-91113637D02*
G01*
X134552568Y-91113637D01*
X134552568Y-89864619D01*
X134677568Y-89864619D01*
X134677568Y-90864619D01*
X134679970Y-90889005D01*
X134698634Y-90934065D01*
X134733122Y-90968553D01*
X134778182Y-90987217D01*
X134826954Y-90987217D01*
X134872014Y-90968553D01*
X134906502Y-90934065D01*
X134925166Y-90889005D01*
X134927568Y-90864619D01*
X134927568Y-90848985D01*
X135535693Y-90848985D01*
X135539150Y-90897634D01*
X135560962Y-90941259D01*
X135597808Y-90973214D01*
X135644077Y-90988637D01*
X135692726Y-90985180D01*
X135736351Y-90963368D01*
X135768306Y-90926522D01*
X135778296Y-90904147D01*
X135845044Y-90703904D01*
X136141044Y-90703904D01*
X136207791Y-90904147D01*
X136217782Y-90926522D01*
X136249737Y-90963368D01*
X136293361Y-90985180D01*
X136342011Y-90988637D01*
X136388280Y-90973214D01*
X136425126Y-90941258D01*
X136446938Y-90897634D01*
X136450395Y-90848984D01*
X136444962Y-90825090D01*
X136124805Y-89864619D01*
X136534711Y-89864619D01*
X136534711Y-90864619D01*
X136537113Y-90889005D01*
X136555777Y-90934065D01*
X136590265Y-90968553D01*
X136635325Y-90987217D01*
X136684097Y-90987217D01*
X136729157Y-90968553D01*
X136763645Y-90934065D01*
X136782309Y-90889005D01*
X136784711Y-90864619D01*
X136784711Y-90465809D01*
X136993044Y-90465809D01*
X137017430Y-90463407D01*
X137062490Y-90444743D01*
X137096978Y-90410255D01*
X137115642Y-90365195D01*
X137115642Y-90316423D01*
X137096978Y-90271363D01*
X137062490Y-90236875D01*
X137017430Y-90218211D01*
X136993044Y-90215809D01*
X136784711Y-90215809D01*
X136784711Y-89989619D01*
X137135901Y-89989619D01*
X137160287Y-89987217D01*
X137205347Y-89968553D01*
X137239835Y-89934065D01*
X137258499Y-89889005D01*
X137258499Y-89840233D01*
X137239835Y-89795173D01*
X137205347Y-89760685D01*
X137160287Y-89742021D01*
X137135901Y-89739619D01*
X136659711Y-89739619D01*
X136635325Y-89742021D01*
X136590265Y-89760685D01*
X136555777Y-89795173D01*
X136537113Y-89840233D01*
X136534711Y-89864619D01*
X136124805Y-89864619D01*
X136111629Y-89825091D01*
X136101639Y-89802716D01*
X136095787Y-89795968D01*
X136091793Y-89787980D01*
X136079955Y-89777713D01*
X136069684Y-89765870D01*
X136061692Y-89761874D01*
X136054947Y-89756024D01*
X136040079Y-89751068D01*
X136026059Y-89744058D01*
X136017149Y-89743424D01*
X136008678Y-89740601D01*
X135993043Y-89741711D01*
X135977410Y-89740601D01*
X135968938Y-89743424D01*
X135960028Y-89744058D01*
X135946006Y-89751069D01*
X135931141Y-89756024D01*
X135924395Y-89761874D01*
X135916404Y-89765870D01*
X135906135Y-89777710D01*
X135894295Y-89787979D01*
X135890299Y-89795969D01*
X135884449Y-89802716D01*
X135874458Y-89825091D01*
X135541126Y-90825091D01*
X135535693Y-90848985D01*
X134927568Y-90848985D01*
X134927568Y-90513428D01*
X135183520Y-90513428D01*
X135207906Y-90511026D01*
X135212054Y-90509307D01*
X135216536Y-90508989D01*
X135239422Y-90500231D01*
X135334659Y-90452613D01*
X135345157Y-90446003D01*
X135348204Y-90444742D01*
X135351635Y-90441926D01*
X135355397Y-90439558D01*
X135357560Y-90437063D01*
X135367146Y-90429197D01*
X135414765Y-90381579D01*
X135422634Y-90371990D01*
X135425126Y-90369829D01*
X135427491Y-90366071D01*
X135430310Y-90362637D01*
X135431573Y-90359586D01*
X135438180Y-90349092D01*
X135485799Y-90253854D01*
X135494557Y-90230968D01*
X135494875Y-90226487D01*
X135496594Y-90222338D01*
X135498996Y-90197952D01*
X135498996Y-90055095D01*
X135496594Y-90030709D01*
X135494875Y-90026559D01*
X135494557Y-90022079D01*
X135485799Y-89999193D01*
X135438180Y-89903955D01*
X135431573Y-89893460D01*
X135430310Y-89890410D01*
X135427491Y-89886975D01*
X135425126Y-89883218D01*
X135422634Y-89881056D01*
X135414765Y-89871468D01*
X135367146Y-89823850D01*
X135357560Y-89815983D01*
X135355397Y-89813489D01*
X135351635Y-89811120D01*
X135348204Y-89808305D01*
X135345157Y-89807043D01*
X135334659Y-89800434D01*
X135239422Y-89752816D01*
X135216536Y-89744058D01*
X135212054Y-89743739D01*
X135207906Y-89742021D01*
X135183520Y-89739619D01*
X134802568Y-89739619D01*
X134778182Y-89742021D01*
X134733122Y-89760685D01*
X134698634Y-89795173D01*
X134679970Y-89840233D01*
X134677568Y-89864619D01*
X134552568Y-89864619D01*
X134552568Y-89614619D01*
X137383499Y-89614619D01*
X137383499Y-91113637D01*
G37*
D11*
X134100000Y-91600000D02*
X134100000Y-90800000D01*
X137900000Y-89100000D02*
X137900000Y-91600000D01*
X131750000Y-91500000D02*
X131750000Y-92200000D01*
X127700000Y-91500000D02*
X127700000Y-92200000D01*
X123100000Y-90800000D02*
X123100000Y-86500000D01*
X125600000Y-90800000D02*
X123100000Y-90800000D01*
X125600000Y-92200000D02*
X125600000Y-90800000D01*
X141100000Y-88200000D02*
X141100000Y-84100000D01*
X139100000Y-88200000D02*
X141100000Y-88200000D01*
X139100000Y-87300000D02*
X139100000Y-88200000D01*
X137900000Y-87300000D02*
X139100000Y-87300000D01*
X144700000Y-84100000D02*
X137900000Y-84100000D01*
X144700000Y-77900000D02*
X144700000Y-84100000D01*
X137900000Y-77900000D02*
X144700000Y-77900000D01*
X137900000Y-79100000D02*
X137900000Y-77900000D01*
X121600000Y-86500000D02*
X127700000Y-86500000D01*
X120800000Y-77100000D02*
X120800000Y-86500000D01*
X127700000Y-77100000D02*
X120800000Y-77100000D01*
X134100000Y-91600000D02*
X134100000Y-92200000D01*
X138600000Y-91600000D02*
X134100000Y-91600000D01*
X138600000Y-91800000D02*
X138600000Y-91600000D01*
X138600000Y-97900000D02*
X138600000Y-91800000D01*
X136500000Y-97900000D02*
X138600000Y-97900000D01*
X136500000Y-96200000D02*
X136500000Y-97900000D01*
X134100000Y-96050000D02*
X136500000Y-96050000D01*
X134100000Y-96050000D02*
X132300000Y-96050000D01*
X134100000Y-92200000D02*
X134100000Y-96050000D01*
X132300000Y-92200000D02*
X134100000Y-92200000D01*
X132300000Y-92400000D02*
X132300000Y-92200000D01*
X132300000Y-92200000D02*
X127900000Y-92200000D01*
X132300000Y-97400000D02*
X132300000Y-92400000D01*
X125200000Y-97400000D02*
X132300000Y-97400000D01*
X125200000Y-92200000D02*
X125200000Y-97400000D01*
X127900000Y-92200000D02*
X125200000Y-92200000D01*
X134100000Y-90750000D02*
X134100000Y-89050000D01*
X131700000Y-90800000D02*
X134100000Y-90800000D01*
X131750000Y-91500000D02*
X131750000Y-90800000D01*
X127700000Y-89100000D02*
X127700000Y-91500000D01*
X131900000Y-69700000D02*
X131900000Y-79100000D01*
X137000000Y-76500000D02*
X137000000Y-79100000D01*
X127700000Y-77100000D02*
X127700000Y-79100000D01*
X127700000Y-77100000D02*
X127600000Y-77100000D01*
X127700000Y-72400000D02*
X127700000Y-77100000D01*
X126600000Y-72400000D02*
X127700000Y-72400000D01*
X126600000Y-69500000D02*
X126600000Y-72400000D01*
X130500000Y-69500000D02*
X126600000Y-69500000D01*
X131900000Y-69500000D02*
X130500000Y-69500000D01*
X131900000Y-68710000D02*
X131900000Y-69700000D01*
X136990000Y-68710000D02*
X131900000Y-68710000D01*
X137000000Y-71600000D02*
X137000000Y-68710000D01*
X137000000Y-76500000D02*
X137000000Y-71600000D01*
X127700000Y-79100000D02*
X137900000Y-79100000D01*
X127700000Y-89100000D02*
X127700000Y-79100000D01*
X137900000Y-89100000D02*
X127700000Y-89100000D01*
X137900000Y-79100000D02*
X137900000Y-89100000D01*
D12*
%TO.C,Y1*%
X131503705Y-90947982D02*
X131503705Y-89647982D01*
D14*
X128623705Y-91657982D02*
X128623705Y-91657982D01*
X128423705Y-91657982D02*
X128423705Y-91657982D01*
D12*
X128303705Y-90947982D02*
X128303705Y-89647982D01*
D14*
X128623705Y-91657982D02*
G75*
G02*
X128423705Y-91657982I-100000J0D01*
G01*
X128423705Y-91657982D02*
G75*
G02*
X128623705Y-91657982I100000J0D01*
G01*
D15*
%TO.C,G\u002A\u002A\u002A*%
G36*
X118969095Y-97378453D02*
G01*
X119038680Y-97418326D01*
X119104132Y-97470681D01*
X119203392Y-97577899D01*
X119292316Y-97714962D01*
X119365234Y-97870780D01*
X119416478Y-98034265D01*
X119431538Y-98111086D01*
X119446554Y-98197501D01*
X119463863Y-98258269D01*
X119490424Y-98308678D01*
X119533199Y-98364017D01*
X119561739Y-98397054D01*
X119729152Y-98613927D01*
X119877318Y-98857347D01*
X119998791Y-99114386D01*
X120043795Y-99234043D01*
X120080368Y-99340146D01*
X120171239Y-99335603D01*
X120230334Y-99327357D01*
X120314862Y-99308907D01*
X120411284Y-99283407D01*
X120467469Y-99266585D01*
X120608426Y-99222815D01*
X120717387Y-99190588D01*
X120801454Y-99168456D01*
X120867730Y-99154974D01*
X120923318Y-99148696D01*
X120975321Y-99148176D01*
X121030580Y-99151944D01*
X121176221Y-99183539D01*
X121301244Y-99248563D01*
X121393091Y-99334592D01*
X121435417Y-99386403D01*
X121471013Y-99430091D01*
X121476924Y-99437370D01*
X121528389Y-99517733D01*
X121578519Y-99626422D01*
X121621743Y-99750779D01*
X121633608Y-99793350D01*
X121660908Y-99948487D01*
X121670542Y-100125714D01*
X121663302Y-100311264D01*
X121639975Y-100491370D01*
X121601351Y-100652264D01*
X121581050Y-100710057D01*
X121460924Y-100973729D01*
X121322731Y-101200545D01*
X121166160Y-101390827D01*
X120990901Y-101544894D01*
X120796646Y-101663069D01*
X120583084Y-101745673D01*
X120581214Y-101746215D01*
X120432290Y-101776464D01*
X120258352Y-101790907D01*
X120072374Y-101789685D01*
X119887331Y-101772941D01*
X119716196Y-101740818D01*
X119699469Y-101736535D01*
X119617993Y-101716390D01*
X119553904Y-101703082D01*
X119515772Y-101698249D01*
X119508918Y-101700105D01*
X119520294Y-101724679D01*
X119546835Y-101763037D01*
X119585109Y-101817663D01*
X119625515Y-101883024D01*
X119661508Y-101947487D01*
X119686543Y-101999423D01*
X119694319Y-102025127D01*
X119687649Y-102047618D01*
X119666787Y-102036830D01*
X119630459Y-101991511D01*
X119577387Y-101910405D01*
X119577035Y-101909840D01*
X119528495Y-101835329D01*
X119480847Y-101768022D01*
X119443611Y-101721299D01*
X119440529Y-101717958D01*
X119402074Y-101670261D01*
X119387006Y-101643931D01*
X119412784Y-101643931D01*
X119415612Y-101656178D01*
X119426517Y-101657664D01*
X119443474Y-101650127D01*
X119440251Y-101643931D01*
X119415803Y-101641465D01*
X119412784Y-101643931D01*
X119387006Y-101643931D01*
X119377384Y-101627118D01*
X119376709Y-101625257D01*
X119356770Y-101591620D01*
X119316379Y-101538501D01*
X119263509Y-101476243D01*
X119251972Y-101463421D01*
X119192518Y-101401061D01*
X119152379Y-101367455D01*
X119125932Y-101358559D01*
X119113611Y-101363954D01*
X119061156Y-101393519D01*
X118973785Y-101426142D01*
X118857475Y-101459880D01*
X118718207Y-101492794D01*
X118713750Y-101493745D01*
X118537080Y-101538939D01*
X118398184Y-101591607D01*
X118294125Y-101652883D01*
X118286779Y-101658536D01*
X118235227Y-101687029D01*
X118186690Y-101696077D01*
X118185380Y-101695930D01*
X118144299Y-101701938D01*
X118080786Y-101723333D01*
X118008438Y-101755517D01*
X118006966Y-101756253D01*
X117895762Y-101802624D01*
X117803640Y-101821663D01*
X117790664Y-101822013D01*
X117697887Y-101808299D01*
X117603382Y-101773044D01*
X117525066Y-101723694D01*
X117502974Y-101702454D01*
X117477480Y-101659033D01*
X117449015Y-101588633D01*
X117421819Y-101504841D01*
X117400132Y-101421242D01*
X117388198Y-101351422D01*
X117387101Y-101331261D01*
X117371338Y-101285919D01*
X117326275Y-101220487D01*
X117273399Y-101159256D01*
X117212805Y-101089946D01*
X117158345Y-101020936D01*
X117120750Y-100965914D01*
X117117825Y-100960801D01*
X117048205Y-100839683D01*
X116990529Y-100749098D01*
X116949337Y-100695136D01*
X116926217Y-100659176D01*
X116894158Y-100595948D01*
X116858723Y-100516742D01*
X116844637Y-100482587D01*
X116774870Y-100296628D01*
X116727046Y-100137742D01*
X116700012Y-99998889D01*
X116698426Y-99971898D01*
X116790107Y-99971898D01*
X116813558Y-100149146D01*
X116865501Y-100339705D01*
X116947098Y-100547887D01*
X117053560Y-100766707D01*
X117081831Y-100817719D01*
X117102176Y-100849277D01*
X117107402Y-100854258D01*
X117106213Y-100836701D01*
X117094561Y-100791800D01*
X117083666Y-100756407D01*
X117039674Y-100592907D01*
X117011759Y-100429269D01*
X116999969Y-100272607D01*
X117002098Y-100203327D01*
X117053201Y-100203327D01*
X117055025Y-100336774D01*
X117065328Y-100471189D01*
X117083409Y-100594143D01*
X117108565Y-100693207D01*
X117119098Y-100720357D01*
X117134754Y-100762982D01*
X117155334Y-100828145D01*
X117168843Y-100874858D01*
X117213686Y-100983540D01*
X117281962Y-101086492D01*
X117283418Y-101088253D01*
X117331012Y-101141674D01*
X117357542Y-101160137D01*
X117364683Y-101143039D01*
X117354111Y-101089777D01*
X117347339Y-101065274D01*
X117338624Y-101020693D01*
X117342352Y-100998892D01*
X117344032Y-100998459D01*
X117367172Y-101018020D01*
X117390633Y-101072681D01*
X117412395Y-101156406D01*
X117428977Y-101252456D01*
X117444288Y-101343186D01*
X117463639Y-101432731D01*
X117480632Y-101494420D01*
X117516576Y-101568931D01*
X117570266Y-101641679D01*
X117630496Y-101699366D01*
X117675504Y-101725610D01*
X117756992Y-101738674D01*
X117857478Y-101730486D01*
X117961754Y-101702760D01*
X117994284Y-101689670D01*
X118069338Y-101648253D01*
X118153124Y-101589727D01*
X118221701Y-101531964D01*
X118286745Y-101474290D01*
X118328983Y-101444198D01*
X118346256Y-101441224D01*
X118336404Y-101464904D01*
X118297267Y-101514776D01*
X118272152Y-101542798D01*
X118230479Y-101591218D01*
X118206858Y-101625231D01*
X118205962Y-101637064D01*
X118235238Y-101622866D01*
X118251900Y-101606656D01*
X118283045Y-101582832D01*
X118339451Y-101550067D01*
X118408695Y-101514472D01*
X118478351Y-101482155D01*
X118535995Y-101459225D01*
X118567116Y-101451663D01*
X118603795Y-101435309D01*
X118627602Y-101414646D01*
X118725183Y-101414646D01*
X118735643Y-101429466D01*
X118774587Y-101426733D01*
X118845525Y-101407530D01*
X118937193Y-101377870D01*
X119010887Y-101351479D01*
X119060065Y-101330760D01*
X119198591Y-101330760D01*
X119266204Y-101416179D01*
X119333817Y-101501598D01*
X119344257Y-101407571D01*
X119439607Y-101407571D01*
X119443431Y-101462957D01*
X119454278Y-101499627D01*
X119474636Y-101528797D01*
X119489597Y-101544516D01*
X119535874Y-101578213D01*
X119606346Y-101615529D01*
X119685298Y-101648212D01*
X119744121Y-101668000D01*
X119796150Y-101681565D01*
X119850808Y-101689803D01*
X119917520Y-101693611D01*
X120005711Y-101693886D01*
X120124806Y-101691526D01*
X120137223Y-101691218D01*
X120270908Y-101686725D01*
X120372399Y-101680170D01*
X120450692Y-101670492D01*
X120514781Y-101656625D01*
X120565197Y-101640611D01*
X120789320Y-101538910D01*
X120988464Y-101404582D01*
X121162256Y-101238048D01*
X121310321Y-101039725D01*
X121432286Y-100810035D01*
X121522814Y-100565856D01*
X121547069Y-100479571D01*
X121562932Y-100401691D01*
X121572105Y-100318674D01*
X121576288Y-100216976D01*
X121577140Y-100133252D01*
X121576375Y-100016363D01*
X121572270Y-99929200D01*
X121563440Y-99860340D01*
X121548500Y-99798354D01*
X121529716Y-99741849D01*
X121483101Y-99624528D01*
X121437749Y-99539299D01*
X121388098Y-99477623D01*
X121328584Y-99430960D01*
X121326217Y-99429471D01*
X121284001Y-99406401D01*
X121239882Y-99392222D01*
X121182436Y-99384973D01*
X121100236Y-99382694D01*
X121053930Y-99382757D01*
X120911815Y-99389450D01*
X120783384Y-99410024D01*
X120655247Y-99447919D01*
X120514012Y-99506577D01*
X120446225Y-99538889D01*
X120278164Y-99632859D01*
X120139109Y-99734305D01*
X120030562Y-99840510D01*
X119954030Y-99948753D01*
X119911015Y-100056316D01*
X119903021Y-100160479D01*
X119931553Y-100258524D01*
X119998114Y-100347731D01*
X119998588Y-100348192D01*
X120056007Y-100395524D01*
X120114162Y-100430621D01*
X120137036Y-100439528D01*
X120193909Y-100446090D01*
X120275361Y-100444879D01*
X120365755Y-100437073D01*
X120449453Y-100423845D01*
X120493428Y-100412719D01*
X120528891Y-100408691D01*
X120538925Y-100431457D01*
X120538926Y-100431921D01*
X120522788Y-100500686D01*
X120473306Y-100553615D01*
X120388884Y-100591541D01*
X120267922Y-100615294D01*
X120170893Y-100623428D01*
X119977736Y-100633531D01*
X120087649Y-100685771D01*
X120149245Y-100718500D01*
X120173504Y-100738800D01*
X120162755Y-100745391D01*
X120119326Y-100736992D01*
X120045543Y-100712323D01*
X120041897Y-100710943D01*
X119977918Y-100687955D01*
X119928684Y-100672671D01*
X119909824Y-100668867D01*
X119888849Y-100685207D01*
X119855273Y-100727848D01*
X119820178Y-100781464D01*
X119723188Y-100911324D01*
X119589803Y-101039597D01*
X119512067Y-101101460D01*
X119478453Y-101128624D01*
X119457986Y-101154953D01*
X119447119Y-101191365D01*
X119442304Y-101248776D01*
X119440320Y-101322253D01*
X119439607Y-101407571D01*
X119344257Y-101407571D01*
X119349622Y-101359245D01*
X119356644Y-101285235D01*
X119359961Y-101227102D01*
X119358872Y-101197235D01*
X119358806Y-101197029D01*
X119342235Y-101198949D01*
X119306604Y-101224962D01*
X119275388Y-101253963D01*
X119198591Y-101330760D01*
X119060065Y-101330760D01*
X119066592Y-101328010D01*
X119095064Y-101311483D01*
X119096915Y-101308394D01*
X119082863Y-101286975D01*
X119046239Y-101247327D01*
X119001158Y-101203843D01*
X118948502Y-101156726D01*
X118916594Y-101134626D01*
X118896549Y-101133937D01*
X118879482Y-101151049D01*
X118877557Y-101153656D01*
X118855431Y-101190473D01*
X118849713Y-101208350D01*
X118838524Y-101232680D01*
X118809438Y-101279186D01*
X118775680Y-101328014D01*
X118739698Y-101381190D01*
X118725183Y-101414646D01*
X118627602Y-101414646D01*
X118654146Y-101391608D01*
X118710743Y-101328601D01*
X118766160Y-101254329D01*
X118801397Y-101197977D01*
X118866383Y-101083995D01*
X118770497Y-101003904D01*
X118696438Y-100944870D01*
X118615125Y-100884145D01*
X118576655Y-100857073D01*
X118478698Y-100790333D01*
X118457652Y-100848045D01*
X118421077Y-100944516D01*
X118388092Y-101020158D01*
X118350117Y-101093504D01*
X118317517Y-101150751D01*
X118204922Y-101314698D01*
X118076680Y-101448910D01*
X118017465Y-101496239D01*
X117920651Y-101543783D01*
X117818049Y-101555569D01*
X117718697Y-101533651D01*
X117631632Y-101480087D01*
X117565893Y-101396931D01*
X117563863Y-101393072D01*
X117538402Y-101323188D01*
X117516374Y-101225062D01*
X117678313Y-101225062D01*
X117691039Y-101314682D01*
X117728475Y-101394551D01*
X117785732Y-101455582D01*
X117857921Y-101488688D01*
X117887380Y-101492038D01*
X117930308Y-101481911D01*
X117980081Y-101457083D01*
X118038198Y-101411478D01*
X118102315Y-101347831D01*
X118166542Y-101273878D01*
X118224989Y-101197350D01*
X118271764Y-101125982D01*
X118300978Y-101067507D01*
X118306740Y-101029659D01*
X118306392Y-101028664D01*
X118278172Y-101002985D01*
X118224711Y-100982545D01*
X118161966Y-100971856D01*
X118112696Y-100973909D01*
X118073464Y-100991973D01*
X118017588Y-101030208D01*
X117963343Y-101074978D01*
X117903231Y-101124711D01*
X117869863Y-101143608D01*
X117864548Y-101133246D01*
X117888595Y-101095199D01*
X117934701Y-101040495D01*
X117980996Y-100981043D01*
X117992618Y-100941968D01*
X117969378Y-100921102D01*
X117923887Y-100916059D01*
X117873666Y-100932611D01*
X117814500Y-100975671D01*
X117756734Y-101035342D01*
X117710717Y-101101729D01*
X117695184Y-101134778D01*
X117678313Y-101225062D01*
X117516374Y-101225062D01*
X117514950Y-101218717D01*
X117494731Y-101086265D01*
X117479312Y-100936659D01*
X117451793Y-100717695D01*
X117426649Y-100612206D01*
X118499533Y-100612206D01*
X118499557Y-100740957D01*
X118679785Y-100878332D01*
X118753744Y-100933972D01*
X118815577Y-100979115D01*
X118858054Y-101008569D01*
X118873440Y-101017383D01*
X118882695Y-100999684D01*
X118893166Y-100952007D01*
X118901043Y-100896922D01*
X118908308Y-100807433D01*
X118902084Y-100746420D01*
X118877825Y-100702143D01*
X118830984Y-100662859D01*
X118803510Y-100645041D01*
X118731603Y-100601449D01*
X118657098Y-100558335D01*
X118589341Y-100520861D01*
X118537676Y-100494188D01*
X118511449Y-100483479D01*
X118510996Y-100483455D01*
X118505048Y-100502213D01*
X118500906Y-100551135D01*
X118499533Y-100612206D01*
X117426649Y-100612206D01*
X117406790Y-100528890D01*
X117344981Y-100367732D01*
X117311407Y-100298377D01*
X117283127Y-100244796D01*
X117265503Y-100217055D01*
X117263983Y-100215653D01*
X117237216Y-100185163D01*
X117201938Y-100130290D01*
X117165753Y-100064573D01*
X117136265Y-100001545D01*
X117123491Y-99965578D01*
X117104724Y-99896351D01*
X117077798Y-99989051D01*
X117060558Y-100083277D01*
X117053201Y-100203327D01*
X117002098Y-100203327D01*
X117004351Y-100130036D01*
X117024953Y-100008670D01*
X117061823Y-99915625D01*
X117077871Y-99891961D01*
X117084948Y-99881219D01*
X117182195Y-99881219D01*
X117186483Y-99923389D01*
X117207001Y-99984260D01*
X117240303Y-100056130D01*
X117282946Y-100131297D01*
X117331487Y-100202060D01*
X117367337Y-100245074D01*
X117429013Y-100307164D01*
X117468042Y-100334985D01*
X117484565Y-100328596D01*
X117480101Y-100292904D01*
X117474404Y-100271730D01*
X117474157Y-100262113D01*
X117483453Y-100268093D01*
X117506384Y-100293711D01*
X117547042Y-100343009D01*
X117609521Y-100420028D01*
X117612269Y-100423418D01*
X117665931Y-100478001D01*
X117725602Y-100522700D01*
X117740774Y-100531100D01*
X117800597Y-100550113D01*
X117878527Y-100561603D01*
X117959411Y-100564828D01*
X118028094Y-100559048D01*
X118064873Y-100546949D01*
X118073944Y-100530918D01*
X118051650Y-100509389D01*
X118008222Y-100485045D01*
X117957231Y-100453969D01*
X117925866Y-100425265D01*
X117920073Y-100405697D01*
X117934360Y-100401054D01*
X117964461Y-100411293D01*
X118006816Y-100434138D01*
X118040488Y-100457782D01*
X118046513Y-100464306D01*
X118072524Y-100480694D01*
X118111482Y-100493858D01*
X118150747Y-100496531D01*
X118190926Y-100479325D01*
X118244298Y-100436708D01*
X118250327Y-100431294D01*
X118297155Y-100384611D01*
X118327795Y-100345671D01*
X118334709Y-100329204D01*
X118329476Y-100324483D01*
X118442338Y-100324483D01*
X118454010Y-100343260D01*
X118493572Y-100376918D01*
X118563356Y-100427390D01*
X118665696Y-100496609D01*
X118692129Y-100514094D01*
X118799324Y-100587871D01*
X118895139Y-100659638D01*
X118974917Y-100725330D01*
X119034007Y-100780887D01*
X119067752Y-100822244D01*
X119071543Y-100845297D01*
X119050128Y-100841414D01*
X119016231Y-100814774D01*
X118978674Y-100780841D01*
X118959792Y-100779303D01*
X118953291Y-100813575D01*
X118952714Y-100849244D01*
X118947045Y-100923234D01*
X118933376Y-100994046D01*
X118933046Y-100995207D01*
X118924846Y-101031203D01*
X118928167Y-101060276D01*
X118948206Y-101091958D01*
X118990162Y-101135776D01*
X119030897Y-101174572D01*
X119087653Y-101226870D01*
X119132635Y-101266076D01*
X119157822Y-101285258D01*
X119159991Y-101286110D01*
X119178645Y-101271745D01*
X119209466Y-101235466D01*
X119215135Y-101227933D01*
X119255949Y-101188111D01*
X119319972Y-101141715D01*
X119388634Y-101101382D01*
X119491518Y-101045181D01*
X119567433Y-100995021D01*
X119627450Y-100941114D01*
X119682638Y-100873672D01*
X119737672Y-100792785D01*
X119784811Y-100719414D01*
X119811688Y-100673062D01*
X119820643Y-100646301D01*
X119814018Y-100631703D01*
X119794153Y-100621840D01*
X119791826Y-100620943D01*
X119713632Y-100594479D01*
X119605978Y-100563103D01*
X119475797Y-100528385D01*
X119330025Y-100491895D01*
X119175595Y-100455200D01*
X119019442Y-100419872D01*
X118868501Y-100387480D01*
X118729705Y-100359592D01*
X118609990Y-100337780D01*
X118516289Y-100323611D01*
X118456222Y-100318654D01*
X118442338Y-100324483D01*
X118329476Y-100324483D01*
X118320458Y-100316347D01*
X118275353Y-100305591D01*
X118195868Y-100296355D01*
X118087609Y-100288599D01*
X117988946Y-100281020D01*
X117907077Y-100271510D01*
X117850230Y-100261234D01*
X117826824Y-100251707D01*
X117835321Y-100242401D01*
X117877018Y-100237846D01*
X117954505Y-100237945D01*
X118069712Y-100242566D01*
X118326286Y-100255570D01*
X118317664Y-100181717D01*
X118309042Y-100107865D01*
X118219320Y-100117978D01*
X118164479Y-100121982D01*
X118130817Y-100112575D01*
X118103191Y-100081462D01*
X118078439Y-100040796D01*
X118021040Y-99966001D01*
X118098053Y-99966001D01*
X118104345Y-99997619D01*
X118121507Y-100029951D01*
X118156078Y-100088476D01*
X118203902Y-100063356D01*
X118293508Y-100063356D01*
X118310330Y-100070557D01*
X118324409Y-100071452D01*
X118351828Y-100060671D01*
X118355309Y-100051498D01*
X118340209Y-100040164D01*
X118324409Y-100043402D01*
X118297304Y-100058024D01*
X118293508Y-100063356D01*
X118203902Y-100063356D01*
X118281444Y-100022627D01*
X118369628Y-99974063D01*
X118466850Y-99917199D01*
X118530410Y-99877992D01*
X118583327Y-99839538D01*
X118648599Y-99785289D01*
X118719084Y-99722081D01*
X118787643Y-99656753D01*
X118847135Y-99596142D01*
X118890419Y-99547087D01*
X118910355Y-99516426D01*
X118910906Y-99513612D01*
X118894071Y-99504758D01*
X118867862Y-99503312D01*
X118819909Y-99489821D01*
X118794534Y-99450322D01*
X118791260Y-99392952D01*
X118809609Y-99325848D01*
X118849104Y-99257146D01*
X118884687Y-99216649D01*
X118933218Y-99174766D01*
X118973815Y-99148710D01*
X118987990Y-99144445D01*
X119006288Y-99132904D01*
X119003316Y-99122391D01*
X118973290Y-99109585D01*
X118917007Y-99112891D01*
X118845109Y-99130097D01*
X118768243Y-99158994D01*
X118726112Y-99179945D01*
X118531935Y-99309947D01*
X118366332Y-99469237D01*
X118230987Y-99655889D01*
X118130001Y-99861788D01*
X118106360Y-99925579D01*
X118098053Y-99966001D01*
X118021040Y-99966001D01*
X117990485Y-99926186D01*
X117874560Y-99828006D01*
X117799352Y-99783176D01*
X117737702Y-99753348D01*
X117709061Y-99745238D01*
X117710773Y-99759941D01*
X117740181Y-99798549D01*
X117745773Y-99805230D01*
X117789625Y-99876640D01*
X117795703Y-99937154D01*
X117765907Y-99982144D01*
X117702141Y-100006987D01*
X117661408Y-100010381D01*
X117598058Y-100021638D01*
X117551903Y-100040552D01*
X117500562Y-100064900D01*
X117465357Y-100062476D01*
X117434006Y-100028981D01*
X117411495Y-99991396D01*
X117381165Y-99916936D01*
X117366291Y-99836558D01*
X117366983Y-99770012D01*
X117439984Y-99770012D01*
X117456386Y-99801313D01*
X117509660Y-99834771D01*
X117567076Y-99855147D01*
X117617369Y-99860570D01*
X117649269Y-99849172D01*
X117654903Y-99834247D01*
X117637941Y-99803907D01*
X117596468Y-99768757D01*
X117544607Y-99738304D01*
X117496481Y-99722056D01*
X117487156Y-99721326D01*
X117451797Y-99736534D01*
X117439984Y-99770012D01*
X117366983Y-99770012D01*
X117367067Y-99761973D01*
X117383687Y-99704889D01*
X117406347Y-99680774D01*
X117473817Y-99660948D01*
X117546898Y-99675211D01*
X117580718Y-99690844D01*
X117624274Y-99709365D01*
X117649756Y-99712453D01*
X117650586Y-99711833D01*
X117644895Y-99692449D01*
X117641746Y-99689323D01*
X117687149Y-99689323D01*
X117726359Y-99717134D01*
X117781962Y-99735667D01*
X117853574Y-99765563D01*
X117931241Y-99814185D01*
X117966341Y-99842231D01*
X118059768Y-99924469D01*
X118097639Y-99817709D01*
X118162959Y-99676011D01*
X118254782Y-99536311D01*
X118366685Y-99404462D01*
X118492245Y-99286316D01*
X118625037Y-99187724D01*
X118758639Y-99114540D01*
X118886628Y-99072614D01*
X118921431Y-99067177D01*
X118980306Y-99057091D01*
X119012389Y-99037600D01*
X119032085Y-98998797D01*
X119035525Y-98988700D01*
X119058371Y-98941284D01*
X119095248Y-98885731D01*
X119138646Y-98830920D01*
X119181058Y-98785728D01*
X119214976Y-98759037D01*
X119231245Y-98757242D01*
X119228068Y-98780049D01*
X119203810Y-98822725D01*
X119180527Y-98854512D01*
X119138026Y-98917239D01*
X119104995Y-98982526D01*
X119085946Y-99039268D01*
X119085388Y-99076359D01*
X119088512Y-99081108D01*
X119106049Y-99075596D01*
X119120165Y-99056577D01*
X119154005Y-99022340D01*
X119211037Y-98985502D01*
X119274873Y-98954909D01*
X119329128Y-98939408D01*
X119338146Y-98938901D01*
X119358255Y-98943215D01*
X119347748Y-98959582D01*
X119323517Y-98979643D01*
X119280284Y-99008187D01*
X119248474Y-99020384D01*
X119248400Y-99020386D01*
X119213427Y-99037752D01*
X119171517Y-99080335D01*
X119132030Y-99135511D01*
X119104328Y-99190656D01*
X119096915Y-99224668D01*
X119081744Y-99300642D01*
X119039298Y-99395144D01*
X118974175Y-99500597D01*
X118890974Y-99609423D01*
X118808512Y-99699888D01*
X118654011Y-99855891D01*
X118802096Y-99848183D01*
X118969741Y-99857486D01*
X119120929Y-99904109D01*
X119197578Y-99945698D01*
X119229693Y-99970859D01*
X119226080Y-99981674D01*
X119189659Y-99978078D01*
X119123349Y-99960006D01*
X119087562Y-99948177D01*
X118959205Y-99917538D01*
X118824115Y-99908495D01*
X118692686Y-99919923D01*
X118575311Y-99950698D01*
X118482384Y-99999695D01*
X118463008Y-100015741D01*
X118420263Y-100074185D01*
X118393835Y-100146756D01*
X118390590Y-100213756D01*
X118391904Y-100219786D01*
X118403497Y-100237725D01*
X118431751Y-100254025D01*
X118481456Y-100269912D01*
X118557401Y-100286612D01*
X118664373Y-100305349D01*
X118807161Y-100327351D01*
X118818813Y-100329073D01*
X118926443Y-100346470D01*
X119045009Y-100368121D01*
X119165022Y-100392027D01*
X119276991Y-100416187D01*
X119371428Y-100438598D01*
X119438843Y-100457260D01*
X119457418Y-100463736D01*
X119498428Y-100478708D01*
X119552499Y-100497015D01*
X119604330Y-100513660D01*
X119638620Y-100523645D01*
X119643964Y-100524655D01*
X119643857Y-100507940D01*
X119638553Y-100483705D01*
X119639287Y-100444494D01*
X119667582Y-100433159D01*
X119720834Y-100449516D01*
X119796439Y-100493377D01*
X119799066Y-100495144D01*
X119910621Y-100570429D01*
X120126923Y-100560556D01*
X120224253Y-100553872D01*
X120312305Y-100543815D01*
X120379007Y-100531967D01*
X120405025Y-100524127D01*
X120439066Y-100503963D01*
X120438122Y-100490774D01*
X120408106Y-100486542D01*
X120354931Y-100493250D01*
X120330125Y-100499017D01*
X120216240Y-100507898D01*
X120102125Y-100477529D01*
X119992855Y-100409514D01*
X119962397Y-100382599D01*
X119891537Y-100305783D01*
X119853241Y-100234848D01*
X119843349Y-100157006D01*
X119857510Y-100060301D01*
X119898122Y-99941882D01*
X119967593Y-99830403D01*
X120070913Y-99718279D01*
X120099829Y-99691743D01*
X120222709Y-99598175D01*
X120368541Y-99513503D01*
X120528830Y-99440555D01*
X120695082Y-99382156D01*
X120858802Y-99341131D01*
X121011495Y-99320307D01*
X121144666Y-99322509D01*
X121187786Y-99329836D01*
X121258596Y-99342611D01*
X121291039Y-99341326D01*
X121284696Y-99326975D01*
X121239152Y-99300553D01*
X121206465Y-99285306D01*
X121146760Y-99260596D01*
X121090495Y-99243176D01*
X121032344Y-99233591D01*
X120966978Y-99232384D01*
X120889069Y-99240100D01*
X120793292Y-99257281D01*
X120674317Y-99284473D01*
X120526818Y-99322218D01*
X120345467Y-99371062D01*
X120332924Y-99374485D01*
X120248732Y-99392490D01*
X120147802Y-99406497D01*
X120039051Y-99416175D01*
X119931394Y-99421195D01*
X119833747Y-99421225D01*
X119755027Y-99415936D01*
X119704149Y-99404997D01*
X119692767Y-99398197D01*
X119689329Y-99385628D01*
X119713427Y-99378138D01*
X119770187Y-99374820D01*
X119826912Y-99374470D01*
X119904107Y-99373143D01*
X119964428Y-99369065D01*
X119996795Y-99363057D01*
X119998900Y-99361735D01*
X119999944Y-99336544D01*
X119988530Y-99285745D01*
X119974337Y-99241261D01*
X119882871Y-99019191D01*
X119768525Y-98799790D01*
X119638346Y-98595020D01*
X119499384Y-98416843D01*
X119468183Y-98382239D01*
X119362975Y-98268938D01*
X119467738Y-98402839D01*
X119551807Y-98517416D01*
X119622976Y-98628357D01*
X119676162Y-98727056D01*
X119706279Y-98804905D01*
X119707035Y-98807878D01*
X119708119Y-98826405D01*
X119695793Y-98826235D01*
X119666643Y-98804702D01*
X119617258Y-98759141D01*
X119544225Y-98686890D01*
X119517331Y-98659751D01*
X119454120Y-98598540D01*
X119529518Y-98598540D01*
X119539818Y-98608840D01*
X119550118Y-98598540D01*
X119539818Y-98588240D01*
X119529518Y-98598540D01*
X119454120Y-98598540D01*
X119428382Y-98573616D01*
X119334171Y-98488882D01*
X119314284Y-98472290D01*
X119453200Y-98472290D01*
X119455531Y-98494274D01*
X119474584Y-98528987D01*
X119499117Y-98558900D01*
X119514348Y-98567640D01*
X119515947Y-98553060D01*
X119497760Y-98517744D01*
X119496302Y-98515497D01*
X119469912Y-98481663D01*
X119453438Y-98472080D01*
X119453200Y-98472290D01*
X119314284Y-98472290D01*
X119245531Y-98414928D01*
X119173297Y-98361128D01*
X119169015Y-98358281D01*
X119088638Y-98307957D01*
X118998678Y-98255700D01*
X118907549Y-98205918D01*
X118823663Y-98163017D01*
X118755430Y-98131407D01*
X118711262Y-98115494D01*
X118703641Y-98114436D01*
X118710125Y-98122776D01*
X118746903Y-98145166D01*
X118807203Y-98177666D01*
X118848029Y-98198467D01*
X119038622Y-98310749D01*
X119225978Y-98452721D01*
X119396918Y-98614094D01*
X119438238Y-98659306D01*
X119527470Y-98763579D01*
X119586745Y-98840593D01*
X119616460Y-98890948D01*
X119617010Y-98915248D01*
X119607762Y-98917843D01*
X119568448Y-98904314D01*
X119554615Y-98893499D01*
X119541212Y-98885137D01*
X119545159Y-98907205D01*
X119554600Y-98933610D01*
X119566951Y-98981369D01*
X119564148Y-99032088D01*
X119545126Y-99102511D01*
X119543583Y-99107305D01*
X119511867Y-99184179D01*
X119471477Y-99253288D01*
X119429317Y-99304861D01*
X119392293Y-99329128D01*
X119386305Y-99329846D01*
X119370652Y-99328545D01*
X119367686Y-99318342D01*
X119379408Y-99289785D01*
X119405917Y-99237145D01*
X119437366Y-99149395D01*
X119448414Y-99058001D01*
X119439253Y-98975298D01*
X119410073Y-98913622D01*
X119400767Y-98903903D01*
X119354339Y-98868784D01*
X119317061Y-98848957D01*
X119288659Y-98831035D01*
X119293895Y-98814344D01*
X119325376Y-98803853D01*
X119375710Y-98804532D01*
X119381773Y-98805451D01*
X119422068Y-98810126D01*
X119434858Y-98805328D01*
X119417881Y-98789188D01*
X119368874Y-98759838D01*
X119285573Y-98715406D01*
X119251416Y-98697755D01*
X119039193Y-98602846D01*
X118835917Y-98540181D01*
X118684995Y-98514733D01*
X118540710Y-98500516D01*
X118540710Y-98554678D01*
X118535427Y-98597577D01*
X118517634Y-98604101D01*
X118484415Y-98574259D01*
X118468301Y-98554842D01*
X118435353Y-98520676D01*
X118399923Y-98509152D01*
X118343801Y-98514608D01*
X118340634Y-98515139D01*
X118295022Y-98525947D01*
X118264026Y-98545134D01*
X118243974Y-98580286D01*
X118231190Y-98638987D01*
X118222001Y-98728824D01*
X118219182Y-98765901D01*
X118205545Y-98858335D01*
X118180472Y-98959665D01*
X118160942Y-99017439D01*
X118102701Y-99139391D01*
X118022303Y-99271375D01*
X117928434Y-99401450D01*
X117829780Y-99517677D01*
X117735026Y-99608114D01*
X117726000Y-99615357D01*
X117687363Y-99656113D01*
X117687149Y-99689323D01*
X117641746Y-99689323D01*
X117613106Y-99660895D01*
X117565053Y-99625156D01*
X117510571Y-99593219D01*
X117495914Y-99586230D01*
X117417515Y-99560270D01*
X117355650Y-99564327D01*
X117302501Y-99595287D01*
X117271029Y-99626224D01*
X117270541Y-99650840D01*
X117282554Y-99667885D01*
X117299719Y-99702182D01*
X117289390Y-99718017D01*
X117258803Y-99705265D01*
X117256931Y-99703746D01*
X117233056Y-99694885D01*
X117211905Y-99718750D01*
X117203232Y-99736413D01*
X117189401Y-99776757D01*
X117199010Y-99805481D01*
X117235244Y-99838341D01*
X117269191Y-99872003D01*
X117279408Y-99896419D01*
X117277802Y-99899216D01*
X117252965Y-99900143D01*
X117238437Y-99889827D01*
X117208244Y-99868347D01*
X117197580Y-99865450D01*
X117182195Y-99881219D01*
X117084948Y-99881219D01*
X117110176Y-99842928D01*
X117112472Y-99806115D01*
X117082213Y-99769749D01*
X117045401Y-99741849D01*
X116994073Y-99704437D01*
X116954873Y-99673989D01*
X116947692Y-99667852D01*
X116910133Y-99640538D01*
X116876517Y-99620613D01*
X116849551Y-99608484D01*
X116831007Y-99610540D01*
X116818120Y-99632916D01*
X116808123Y-99681744D01*
X116798252Y-99763159D01*
X116793986Y-99803650D01*
X116790107Y-99971898D01*
X116698426Y-99971898D01*
X116692615Y-99873023D01*
X116703701Y-99753103D01*
X116715568Y-99694221D01*
X116731876Y-99623841D01*
X116743652Y-99571334D01*
X116748480Y-99547493D01*
X116748496Y-99547217D01*
X116735316Y-99534492D01*
X116875079Y-99534492D01*
X116892259Y-99554437D01*
X116931529Y-99591622D01*
X116982923Y-99637403D01*
X117036479Y-99683136D01*
X117082231Y-99720174D01*
X117110215Y-99739875D01*
X117113183Y-99741064D01*
X117123697Y-99725022D01*
X117144652Y-99684161D01*
X117151425Y-99670076D01*
X117185484Y-99598302D01*
X117098973Y-99494974D01*
X117052629Y-99442130D01*
X117015952Y-99404880D01*
X116997634Y-99391647D01*
X116971260Y-99406254D01*
X116934957Y-99441324D01*
X116899992Y-99483726D01*
X116877630Y-99520331D01*
X116875079Y-99534492D01*
X116735316Y-99534492D01*
X116730943Y-99530270D01*
X116682521Y-99498998D01*
X116609590Y-99456732D01*
X116518507Y-99406802D01*
X116415630Y-99352538D01*
X116307319Y-99297269D01*
X116199931Y-99244326D01*
X116099824Y-99197038D01*
X116013357Y-99158736D01*
X115982663Y-99146140D01*
X115905315Y-99109593D01*
X115859889Y-99075216D01*
X115849459Y-99045934D01*
X115862166Y-99031467D01*
X115888038Y-99034082D01*
X115891971Y-99038826D01*
X115918881Y-99057354D01*
X115957779Y-99071103D01*
X116000596Y-99086042D01*
X116068301Y-99114226D01*
X116148888Y-99150563D01*
X116181718Y-99166086D01*
X116257538Y-99201878D01*
X116318604Y-99229642D01*
X116355965Y-99245360D01*
X116362905Y-99247445D01*
X116384337Y-99257147D01*
X116433644Y-99283455D01*
X116503139Y-99322174D01*
X116572900Y-99362033D01*
X116771370Y-99476621D01*
X116857541Y-99390450D01*
X116888483Y-99359508D01*
X117060276Y-99359508D01*
X117060932Y-99365896D01*
X117079923Y-99398005D01*
X117112379Y-99444592D01*
X117149522Y-99494042D01*
X117182576Y-99534739D01*
X117202762Y-99555067D01*
X117204334Y-99555666D01*
X117229856Y-99548880D01*
X117277849Y-99530980D01*
X117295605Y-99523717D01*
X117328004Y-99514511D01*
X117523428Y-99514511D01*
X117572157Y-99566380D01*
X117611072Y-99601522D01*
X117641003Y-99618063D01*
X117643053Y-99618248D01*
X117669437Y-99605179D01*
X117713716Y-99571559D01*
X117748469Y-99540998D01*
X117798563Y-99488768D01*
X117861234Y-99415264D01*
X117925811Y-99333226D01*
X117950527Y-99299850D01*
X118004294Y-99224657D01*
X118036167Y-99175796D01*
X118048964Y-99146636D01*
X118045508Y-99130548D01*
X118028619Y-99120900D01*
X118026922Y-99120263D01*
X117993975Y-99089284D01*
X117984881Y-99036694D01*
X117996586Y-98972086D01*
X118026039Y-98905052D01*
X118070188Y-98845183D01*
X118125979Y-98802072D01*
X118128592Y-98800740D01*
X118161676Y-98781673D01*
X118159769Y-98769680D01*
X118140734Y-98761154D01*
X118085931Y-98760976D01*
X118017550Y-98792787D01*
X117940098Y-98851555D01*
X117858086Y-98932251D01*
X117776021Y-99029845D01*
X117698412Y-99139306D01*
X117629769Y-99255605D01*
X117574599Y-99373711D01*
X117562070Y-99406728D01*
X117523428Y-99514511D01*
X117328004Y-99514511D01*
X117362292Y-99504768D01*
X117423665Y-99501291D01*
X117431400Y-99502477D01*
X117468154Y-99506145D01*
X117489316Y-99491650D01*
X117504897Y-99449473D01*
X117510722Y-99427057D01*
X117574602Y-99249767D01*
X117672642Y-99078198D01*
X117797979Y-98921936D01*
X117943754Y-98790564D01*
X117989656Y-98757966D01*
X118040536Y-98721979D01*
X118062119Y-98697284D01*
X118060205Y-98673590D01*
X118048706Y-98653218D01*
X118048390Y-98652999D01*
X118109015Y-98652999D01*
X118122184Y-98677851D01*
X118145377Y-98680486D01*
X118167930Y-98645173D01*
X118181450Y-98601829D01*
X118189221Y-98562192D01*
X118179415Y-98555428D01*
X118152008Y-98570734D01*
X118116349Y-98609026D01*
X118109015Y-98652999D01*
X118048390Y-98652999D01*
X118030819Y-98640821D01*
X117998794Y-98648849D01*
X117943587Y-98679660D01*
X117940871Y-98681336D01*
X117779899Y-98804063D01*
X117633216Y-98963293D01*
X117503337Y-99156049D01*
X117440993Y-99273196D01*
X117403528Y-99345230D01*
X117370582Y-99400369D01*
X117347460Y-99430034D01*
X117342215Y-99432847D01*
X117312847Y-99421109D01*
X117270539Y-99392756D01*
X117269121Y-99391647D01*
X117230265Y-99371744D01*
X117177788Y-99357074D01*
X117123854Y-99349142D01*
X117080629Y-99349451D01*
X117060276Y-99359508D01*
X116888483Y-99359508D01*
X116943712Y-99304278D01*
X116681766Y-99050190D01*
X116598581Y-98967923D01*
X116528388Y-98895459D01*
X116475536Y-98837544D01*
X116444372Y-98798923D01*
X116438450Y-98784587D01*
X116463259Y-98791451D01*
X116510590Y-98822864D01*
X116574432Y-98873656D01*
X116648774Y-98938655D01*
X116727604Y-99012689D01*
X116804914Y-99090586D01*
X116848071Y-99137029D01*
X116972303Y-99274676D01*
X117092151Y-99276511D01*
X117181976Y-99284166D01*
X117247909Y-99306593D01*
X117276120Y-99324084D01*
X117340241Y-99369821D01*
X117399038Y-99231383D01*
X117493730Y-99046622D01*
X117612475Y-98876401D01*
X117748519Y-98728814D01*
X117895107Y-98611952D01*
X117938517Y-98585028D01*
X118009553Y-98537604D01*
X118055726Y-98487400D01*
X118090125Y-98421917D01*
X118127360Y-98347529D01*
X118162737Y-98298488D01*
X118191780Y-98280253D01*
X118202743Y-98284606D01*
X118200976Y-98307913D01*
X118183566Y-98353940D01*
X118171345Y-98379422D01*
X118142115Y-98438776D01*
X118131313Y-98470454D01*
X118137859Y-98483069D01*
X118158058Y-98485239D01*
X118187481Y-98471211D01*
X118232574Y-98435024D01*
X118268596Y-98399915D01*
X118321904Y-98350835D01*
X118361106Y-98328838D01*
X118374487Y-98329860D01*
X118385813Y-98350321D01*
X118364107Y-98383897D01*
X118363644Y-98384410D01*
X118340041Y-98415484D01*
X118336552Y-98429360D01*
X118359861Y-98431191D01*
X118412764Y-98430516D01*
X118482743Y-98427534D01*
X118483092Y-98427515D01*
X118712420Y-98427515D01*
X118713297Y-98438091D01*
X118734582Y-98445569D01*
X118785892Y-98460219D01*
X118857277Y-98479233D01*
X118878421Y-98484679D01*
X118980025Y-98515549D01*
X119089031Y-98556186D01*
X119175454Y-98594755D01*
X119254811Y-98634265D01*
X119304460Y-98657202D01*
X119331295Y-98665910D01*
X119342209Y-98662733D01*
X119344117Y-98652099D01*
X119328167Y-98625460D01*
X119284882Y-98581114D01*
X119221101Y-98524360D01*
X119143669Y-98460495D01*
X119059428Y-98394819D01*
X118975220Y-98332630D01*
X118897887Y-98279225D01*
X118834272Y-98239904D01*
X118791218Y-98219966D01*
X118784312Y-98218617D01*
X118772491Y-98235647D01*
X118754935Y-98278826D01*
X118736100Y-98334378D01*
X118720443Y-98388532D01*
X118712420Y-98427515D01*
X118483092Y-98427515D01*
X118620476Y-98420040D01*
X118660960Y-98300161D01*
X118701444Y-98180281D01*
X118615927Y-98148521D01*
X118553886Y-98127557D01*
X118468910Y-98101483D01*
X118466182Y-98100703D01*
X118629978Y-98100703D01*
X118632805Y-98112950D01*
X118643711Y-98114436D01*
X118660667Y-98106899D01*
X118657445Y-98100703D01*
X118632997Y-98098238D01*
X118629978Y-98100703D01*
X118466182Y-98100703D01*
X118377958Y-98075476D01*
X118365609Y-98072107D01*
X118309821Y-98056960D01*
X118816608Y-98056960D01*
X118820505Y-98080755D01*
X118849596Y-98108290D01*
X118909345Y-98144043D01*
X118946438Y-98163371D01*
X119038419Y-98213877D01*
X119139805Y-98275263D01*
X119220516Y-98328681D01*
X119287165Y-98374669D01*
X119327650Y-98398882D01*
X119349088Y-98403835D01*
X119358594Y-98392039D01*
X119361454Y-98378453D01*
X119355281Y-98346236D01*
X119325876Y-98300545D01*
X119269787Y-98236656D01*
X119222488Y-98188220D01*
X119148260Y-98114002D01*
X119098926Y-98064129D01*
X119070291Y-98033768D01*
X119058160Y-98018085D01*
X119058338Y-98012248D01*
X119066631Y-98011424D01*
X119069047Y-98011436D01*
X119094625Y-98022238D01*
X119144454Y-98050900D01*
X119208926Y-98091808D01*
X119226312Y-98103360D01*
X119363376Y-98195285D01*
X119350838Y-98129110D01*
X119303271Y-97949960D01*
X119231552Y-97771624D01*
X119192933Y-97696698D01*
X119143718Y-97619415D01*
X119086547Y-97545911D01*
X119028272Y-97483285D01*
X118975745Y-97438639D01*
X118935817Y-97419070D01*
X118925532Y-97419633D01*
X118910918Y-97442780D01*
X118896667Y-97495278D01*
X118886620Y-97559924D01*
X118873831Y-97669529D01*
X118859642Y-97780995D01*
X118845347Y-97885134D01*
X118832242Y-97972757D01*
X118821619Y-98034676D01*
X118816608Y-98056960D01*
X118309821Y-98056960D01*
X118286102Y-98050520D01*
X118220588Y-98032651D01*
X118180344Y-98021578D01*
X118175057Y-98020091D01*
X118151062Y-97998770D01*
X118149307Y-97990066D01*
X118168061Y-97980083D01*
X118218229Y-97976644D01*
X118290671Y-97979024D01*
X118376249Y-97986494D01*
X118465822Y-97998330D01*
X118550252Y-98013803D01*
X118599420Y-98025852D01*
X118664578Y-98040278D01*
X118712012Y-98043562D01*
X118727433Y-98038955D01*
X118742055Y-98007856D01*
X118759289Y-97947280D01*
X118776843Y-97868661D01*
X118792423Y-97783430D01*
X118803734Y-97703017D01*
X118808485Y-97638855D01*
X118808512Y-97634825D01*
X118816487Y-97558854D01*
X118836250Y-97478028D01*
X118842211Y-97461070D01*
X118874805Y-97399970D01*
X118915784Y-97372382D01*
X118969095Y-97378453D01*
G37*
G36*
X118561311Y-100885158D02*
G01*
X118551010Y-100895458D01*
X118540710Y-100885158D01*
X118551010Y-100874858D01*
X118561311Y-100885158D01*
G37*
G36*
X120058659Y-99899357D02*
G01*
X120054822Y-99906651D01*
X120035413Y-99926324D01*
X120031791Y-99927251D01*
X120030385Y-99913944D01*
X120034222Y-99906651D01*
X120053632Y-99886977D01*
X120057254Y-99886050D01*
X120058659Y-99899357D01*
G37*
D12*
%TO.C,Q3*%
X116153705Y-84562982D02*
X116153705Y-84562982D01*
X116153705Y-84462982D02*
X116153705Y-84462982D01*
D14*
X115618705Y-83587982D02*
X115618705Y-80537982D01*
X118668705Y-83587982D02*
X118668705Y-80537982D01*
D12*
X116153705Y-84562982D02*
G75*
G02*
X116153705Y-84462982I0J50000D01*
G01*
X116153705Y-84462982D02*
G75*
G02*
X116153705Y-84562982I0J-50000D01*
G01*
D14*
%TO.C,Q5*%
X112760000Y-84330000D02*
X112560000Y-84330000D01*
X112560000Y-84330000D02*
X112560000Y-82330000D01*
X112560000Y-82330000D02*
X112760000Y-82330000D01*
X112760000Y-82330000D02*
X112760000Y-84330000D01*
X114110000Y-84505000D02*
X113110000Y-84505000D01*
%TO.C,Q4*%
X112760000Y-81620000D02*
X112560000Y-81620000D01*
X112560000Y-81620000D02*
X112560000Y-79620000D01*
X112560000Y-79620000D02*
X112760000Y-79620000D01*
X112760000Y-79620000D02*
X112760000Y-81620000D01*
X114110000Y-81795000D02*
X113110000Y-81795000D01*
%TO.C,Q2*%
X112780000Y-87030000D02*
X112580000Y-87030000D01*
X112580000Y-87030000D02*
X112580000Y-85030000D01*
X112580000Y-85030000D02*
X112780000Y-85030000D01*
X112780000Y-85030000D02*
X112780000Y-87030000D01*
X114130000Y-87205000D02*
X113130000Y-87205000D01*
D12*
%TO.C,S1*%
X122843705Y-88237982D02*
X122843705Y-88237982D01*
X122843705Y-88337982D02*
X122843705Y-88337982D01*
D14*
X124243705Y-87837982D02*
X126243705Y-87837982D01*
X124243705Y-90437982D02*
X126243705Y-90437982D01*
D12*
X122843705Y-88237982D02*
G75*
G02*
X122843705Y-88337982I0J-50000D01*
G01*
X122843705Y-88337982D02*
G75*
G02*
X122843705Y-88237982I0J50000D01*
G01*
%TO.C,LEDRED1*%
X131246205Y-78467982D02*
G75*
G02*
X131146205Y-78467982I-50000J0D01*
G01*
X131146205Y-78467982D02*
G75*
G02*
X131246205Y-78467982I50000J0D01*
G01*
D16*
%TO.C,C45*%
X137571541Y-96777982D02*
X137355869Y-96777982D01*
X137571541Y-97497982D02*
X137355869Y-97497982D01*
%TO.C,TOF3*%
X109062193Y-75079048D02*
X112027193Y-69943518D01*
X110912686Y-77613901D02*
X112298326Y-78413901D01*
X112298326Y-78413901D02*
X113198326Y-76855055D01*
X113198326Y-76855055D02*
X114012390Y-77325055D01*
X115147686Y-70278665D02*
X116533326Y-71078665D01*
X116533326Y-71078665D02*
X115633326Y-72637511D01*
%TO.C,J1*%
X124420000Y-64335000D02*
X124420000Y-65745000D01*
X131960000Y-68415000D02*
X132760000Y-68415000D01*
X132760000Y-68415000D02*
X132760000Y-68265000D01*
X133580000Y-64335000D02*
X133580000Y-65745000D01*
%TO.C,C25*%
X148193705Y-79555818D02*
X148193705Y-79340146D01*
X148913705Y-79555818D02*
X148913705Y-79340146D01*
%TO.C,C22*%
X119290000Y-91937836D02*
X119290000Y-91722164D01*
X120010000Y-91937836D02*
X120010000Y-91722164D01*
D14*
%TO.C,J2*%
X152603705Y-81947982D02*
X152603705Y-83947982D01*
D15*
%TO.C,G\u002A\u002A\u002A*%
G36*
X118584806Y-64866365D02*
G01*
X118584011Y-64887301D01*
X118577536Y-64923077D01*
X118570792Y-64953027D01*
X118560534Y-65004408D01*
X118551490Y-65063334D01*
X118545307Y-65118746D01*
X118544481Y-65129578D01*
X118541137Y-65168081D01*
X118537103Y-65198471D01*
X118532988Y-65216768D01*
X118530627Y-65220292D01*
X118520879Y-65213028D01*
X118511910Y-65199711D01*
X118503297Y-65172590D01*
X118497935Y-65133292D01*
X118496083Y-65088007D01*
X118498000Y-65042924D01*
X118503760Y-65005008D01*
X118514286Y-64969192D01*
X118528607Y-64931776D01*
X118544390Y-64897863D01*
X118559302Y-64872557D01*
X118569232Y-64861814D01*
X118579890Y-64858468D01*
X118584806Y-64866365D01*
G37*
G36*
X118876121Y-64722819D02*
G01*
X118865117Y-64746364D01*
X118839624Y-64780890D01*
X118839378Y-64781185D01*
X118776548Y-64864381D01*
X118729182Y-64944979D01*
X118705919Y-64996995D01*
X118688502Y-65042551D01*
X118675814Y-65080681D01*
X118667119Y-65115952D01*
X118661680Y-65152929D01*
X118658759Y-65196177D01*
X118657619Y-65250262D01*
X118657487Y-65297050D01*
X118657162Y-65358227D01*
X118655992Y-65402604D01*
X118653847Y-65431976D01*
X118650600Y-65448139D01*
X118646313Y-65452893D01*
X118632572Y-65447998D01*
X118630795Y-65445915D01*
X118616395Y-65410650D01*
X118605878Y-65361533D01*
X118599500Y-65302961D01*
X118597514Y-65239332D01*
X118600176Y-65175043D01*
X118607739Y-65114494D01*
X118610717Y-65099064D01*
X118632670Y-65018625D01*
X118663386Y-64940398D01*
X118700778Y-64868311D01*
X118742762Y-64806292D01*
X118787254Y-64758271D01*
X118795073Y-64751656D01*
X118832113Y-64724672D01*
X118858628Y-64711312D01*
X118873628Y-64710914D01*
X118876121Y-64722819D01*
G37*
G36*
X119207946Y-64784440D02*
G01*
X119270636Y-64806472D01*
X119336306Y-64840341D01*
X119402909Y-64884586D01*
X119468402Y-64937743D01*
X119530738Y-64998352D01*
X119587873Y-65064950D01*
X119637762Y-65136075D01*
X119667045Y-65187323D01*
X119686019Y-65228767D01*
X119698645Y-65266181D01*
X119704303Y-65296397D01*
X119702373Y-65316249D01*
X119693510Y-65322636D01*
X119682616Y-65316849D01*
X119661212Y-65301192D01*
X119632638Y-65278219D01*
X119607462Y-65256813D01*
X119533684Y-65199497D01*
X119459930Y-65155308D01*
X119388691Y-65125506D01*
X119322458Y-65111350D01*
X119319141Y-65111061D01*
X119273433Y-65110086D01*
X119238527Y-65114821D01*
X119230347Y-65117546D01*
X119198614Y-65139813D01*
X119168649Y-65178390D01*
X119141620Y-65230992D01*
X119118697Y-65295329D01*
X119101049Y-65369116D01*
X119100631Y-65371353D01*
X119092718Y-65408758D01*
X119084563Y-65438525D01*
X119077428Y-65456378D01*
X119074579Y-65459522D01*
X119062753Y-65455177D01*
X119045328Y-65440159D01*
X119038253Y-65432349D01*
X119013241Y-65396075D01*
X118987847Y-65347832D01*
X118964902Y-65293979D01*
X118947238Y-65240876D01*
X118940517Y-65212866D01*
X118933306Y-65143143D01*
X118936166Y-65067227D01*
X118948425Y-64993804D01*
X118960661Y-64952768D01*
X118985129Y-64898939D01*
X119015981Y-64851088D01*
X119050308Y-64812793D01*
X119085200Y-64787633D01*
X119099683Y-64781735D01*
X119150280Y-64775707D01*
X119207946Y-64784440D01*
G37*
G36*
X120353962Y-63500625D02*
G01*
X120380738Y-63505769D01*
X120390869Y-63515764D01*
X120384478Y-63531694D01*
X120361685Y-63554641D01*
X120322612Y-63585689D01*
X120320285Y-63587435D01*
X120283601Y-63616794D01*
X120239963Y-63654678D01*
X120192670Y-63697915D01*
X120145022Y-63743331D01*
X120100318Y-63787754D01*
X120061859Y-63828009D01*
X120032944Y-63860925D01*
X120024089Y-63872273D01*
X119960881Y-63973891D01*
X119914230Y-64083619D01*
X119884437Y-64200511D01*
X119871802Y-64323624D01*
X119871354Y-64352225D01*
X119871354Y-64439055D01*
X119901593Y-64452320D01*
X119922746Y-64460504D01*
X119956654Y-64472412D01*
X119998280Y-64486314D01*
X120034175Y-64497843D01*
X120113013Y-64524176D01*
X120174699Y-64548036D01*
X120218976Y-64569286D01*
X120245586Y-64587791D01*
X120254273Y-64603415D01*
X120250234Y-64611914D01*
X120239681Y-64612301D01*
X120214675Y-64609682D01*
X120179041Y-64604542D01*
X120139762Y-64597932D01*
X120087466Y-64589291D01*
X120032262Y-64581320D01*
X119982234Y-64575139D01*
X119957417Y-64572700D01*
X119880658Y-64566335D01*
X119880658Y-64636457D01*
X119881478Y-64674139D01*
X119884433Y-64697026D01*
X119890266Y-64708878D01*
X119895653Y-64712333D01*
X119917837Y-64723918D01*
X119950482Y-64744825D01*
X119989840Y-64772362D01*
X120032162Y-64803837D01*
X120073699Y-64836559D01*
X120103955Y-64861920D01*
X120135662Y-64887839D01*
X120164114Y-64908227D01*
X120185303Y-64920352D01*
X120192848Y-64922525D01*
X120211161Y-64927370D01*
X120237623Y-64939767D01*
X120255973Y-64950475D01*
X120282789Y-64965982D01*
X120304849Y-64976117D01*
X120313918Y-64978387D01*
X120352835Y-64986975D01*
X120395226Y-65011575D01*
X120439000Y-65050441D01*
X120482071Y-65101828D01*
X120508756Y-65141208D01*
X120520662Y-65160570D01*
X120531335Y-65178951D01*
X120541660Y-65198422D01*
X120552527Y-65221052D01*
X120564821Y-65248911D01*
X120579429Y-65284068D01*
X120597238Y-65328595D01*
X120619136Y-65384559D01*
X120646009Y-65454032D01*
X120674224Y-65527325D01*
X120708588Y-65617779D01*
X120736364Y-65694100D01*
X120758235Y-65759282D01*
X120774884Y-65816320D01*
X120786994Y-65868210D01*
X120795248Y-65917946D01*
X120800331Y-65968523D01*
X120802925Y-66022935D01*
X120803714Y-66084178D01*
X120803718Y-66094871D01*
X120803512Y-66136109D01*
X120802674Y-66172468D01*
X120800763Y-66206276D01*
X120797334Y-66239863D01*
X120791945Y-66275558D01*
X120784153Y-66315690D01*
X120773515Y-66362589D01*
X120759589Y-66418584D01*
X120741931Y-66486004D01*
X120720098Y-66567179D01*
X120699504Y-66642941D01*
X120680863Y-66711911D01*
X120663928Y-66775597D01*
X120649301Y-66831643D01*
X120637588Y-66877696D01*
X120629394Y-66911401D01*
X120625322Y-66930404D01*
X120624981Y-66933255D01*
X120630907Y-66963114D01*
X120649981Y-66990863D01*
X120684147Y-67018790D01*
X120712823Y-67036656D01*
X120749465Y-67058784D01*
X120784713Y-67081586D01*
X120811469Y-67100456D01*
X120813376Y-67101927D01*
X120848254Y-67129163D01*
X120966892Y-67101123D01*
X121066861Y-67079514D01*
X121154335Y-67065315D01*
X121233703Y-67058114D01*
X121309356Y-67057500D01*
X121379913Y-67062448D01*
X121433913Y-67068838D01*
X121470818Y-67075216D01*
X121492134Y-67082057D01*
X121499368Y-67089837D01*
X121494442Y-67098652D01*
X121482700Y-67101856D01*
X121455515Y-67105695D01*
X121416026Y-67109836D01*
X121367374Y-67113946D01*
X121318131Y-67117356D01*
X121208520Y-67126343D01*
X121113194Y-67139004D01*
X121028073Y-67156006D01*
X120950622Y-67177526D01*
X120927693Y-67185634D01*
X120915754Y-67194525D01*
X120913846Y-67208508D01*
X120921008Y-67231893D01*
X120932344Y-67259599D01*
X120945110Y-67296785D01*
X120950185Y-67327191D01*
X120947207Y-67347092D01*
X120941332Y-67352465D01*
X120939423Y-67361760D01*
X120943474Y-67382033D01*
X120951545Y-67407417D01*
X120961698Y-67432041D01*
X120971996Y-67450036D01*
X120974524Y-67452971D01*
X120986352Y-67459594D01*
X121011840Y-67470934D01*
X121047156Y-67485364D01*
X121085635Y-67500194D01*
X121172853Y-67534477D01*
X121247234Y-67566958D01*
X121307792Y-67597094D01*
X121353540Y-67624339D01*
X121383492Y-67648149D01*
X121396661Y-67667979D01*
X121397215Y-67672228D01*
X121394289Y-67678890D01*
X121383083Y-67678625D01*
X121359956Y-67671009D01*
X121348369Y-67666528D01*
X121276428Y-67638403D01*
X121208201Y-67612179D01*
X121146055Y-67588731D01*
X121092360Y-67568935D01*
X121049484Y-67553668D01*
X121019796Y-67543807D01*
X121007861Y-67540535D01*
X120992846Y-67538402D01*
X120983824Y-67542165D01*
X120977968Y-67555693D01*
X120972451Y-67582855D01*
X120971017Y-67590956D01*
X120949812Y-67665432D01*
X120914881Y-67728794D01*
X120867201Y-67779700D01*
X120807745Y-67816804D01*
X120807018Y-67817136D01*
X120776794Y-67828083D01*
X120748260Y-67834122D01*
X120741957Y-67834520D01*
X120720207Y-67840140D01*
X120685498Y-67856182D01*
X120639645Y-67881755D01*
X120611700Y-67898708D01*
X120557339Y-67932188D01*
X120515976Y-67956820D01*
X120485013Y-67973905D01*
X120461849Y-67984741D01*
X120443887Y-67990630D01*
X120428525Y-67992870D01*
X120423080Y-67993034D01*
X120401894Y-67998850D01*
X120370870Y-68016618D01*
X120328740Y-68047094D01*
X120317528Y-68055837D01*
X120264278Y-68096865D01*
X120213801Y-68133455D01*
X120162497Y-68167890D01*
X120106763Y-68202452D01*
X120042997Y-68239422D01*
X119967599Y-68281082D01*
X119929955Y-68301409D01*
X119844706Y-68347483D01*
X119773990Y-68386566D01*
X119715772Y-68420133D01*
X119668012Y-68449659D01*
X119628675Y-68476616D01*
X119595721Y-68502480D01*
X119567115Y-68528725D01*
X119540818Y-68556824D01*
X119514793Y-68588252D01*
X119491264Y-68618818D01*
X119431089Y-68690636D01*
X119369902Y-68746856D01*
X119304455Y-68790355D01*
X119287243Y-68799479D01*
X119261512Y-68810689D01*
X119235214Y-68817115D01*
X119201986Y-68819828D01*
X119164997Y-68820032D01*
X119122673Y-68818159D01*
X119082489Y-68814027D01*
X119051865Y-68808448D01*
X119047167Y-68807114D01*
X119011253Y-68794197D01*
X118976236Y-68777702D01*
X118937525Y-68755116D01*
X118890527Y-68723926D01*
X118873488Y-68712069D01*
X118807619Y-68671974D01*
X118724384Y-68631750D01*
X118674702Y-68611012D01*
X118567421Y-68565793D01*
X118473582Y-68520509D01*
X118388208Y-68472455D01*
X118306322Y-68418922D01*
X118260138Y-68385545D01*
X118184395Y-68327672D01*
X118115621Y-68271773D01*
X118050736Y-68214949D01*
X117986662Y-68154302D01*
X117920320Y-68086935D01*
X117848629Y-68009949D01*
X117781250Y-67934855D01*
X117693087Y-67836381D01*
X117615306Y-67751790D01*
X117547006Y-67680164D01*
X117487284Y-67620591D01*
X117435240Y-67572154D01*
X117389972Y-67533938D01*
X117374787Y-67522226D01*
X117324411Y-67491563D01*
X117259813Y-67463308D01*
X117185362Y-67439050D01*
X117105425Y-67420378D01*
X117084798Y-67416720D01*
X117036990Y-67408295D01*
X117005993Y-67400671D01*
X116990182Y-67392118D01*
X116987932Y-67380905D01*
X116997618Y-67365303D01*
X117016843Y-67344380D01*
X117046580Y-67313699D01*
X116954040Y-67313836D01*
X116867018Y-67318165D01*
X116791274Y-67331741D01*
X116721257Y-67355866D01*
X116672051Y-67380075D01*
X116635017Y-67399242D01*
X116610745Y-67408734D01*
X116596676Y-67409432D01*
X116593100Y-67407225D01*
X116587578Y-67392432D01*
X116583340Y-67362842D01*
X116580468Y-67322227D01*
X116579044Y-67274360D01*
X116579150Y-67223013D01*
X116580868Y-67171958D01*
X116584280Y-67124967D01*
X116586542Y-67104975D01*
X116611154Y-66983220D01*
X116652225Y-66862936D01*
X116707873Y-66748748D01*
X116770053Y-66653424D01*
X116822000Y-66583955D01*
X116790578Y-66560788D01*
X116754383Y-66530367D01*
X116711808Y-66488716D01*
X116666178Y-66439699D01*
X116620818Y-66387181D01*
X116579052Y-66335024D01*
X116544206Y-66287094D01*
X116519603Y-66247254D01*
X116517769Y-66243735D01*
X116492343Y-66189380D01*
X116466751Y-66126943D01*
X116443373Y-66062863D01*
X116424586Y-66003577D01*
X116414493Y-65964086D01*
X116404431Y-65901514D01*
X116397590Y-65825477D01*
X116394064Y-65740853D01*
X116393944Y-65652521D01*
X116395686Y-65607583D01*
X116493758Y-65607583D01*
X116494798Y-65683383D01*
X116497717Y-65754318D01*
X116502520Y-65815711D01*
X116507867Y-65855664D01*
X116537246Y-65982113D01*
X116579988Y-66105028D01*
X116634557Y-66221419D01*
X116699415Y-66328294D01*
X116773026Y-66422660D01*
X116827986Y-66478795D01*
X116858250Y-66504816D01*
X116881750Y-66521228D01*
X116895772Y-66526186D01*
X116897065Y-66525730D01*
X116908852Y-66517722D01*
X116931986Y-66501413D01*
X116962756Y-66479434D01*
X116987105Y-66461900D01*
X117024718Y-66435825D01*
X117072934Y-66404003D01*
X117126239Y-66369993D01*
X117179120Y-66337352D01*
X117193195Y-66328887D01*
X117290622Y-66266245D01*
X117369951Y-66205477D01*
X117431557Y-66146243D01*
X117475818Y-66088204D01*
X117490103Y-66062538D01*
X117505390Y-66029429D01*
X117512295Y-66007592D01*
X117511937Y-65992294D01*
X117508626Y-65984147D01*
X117491499Y-65967494D01*
X117467914Y-65966238D01*
X117439821Y-65979179D01*
X117409169Y-66005113D01*
X117377910Y-66042839D01*
X117354754Y-66078991D01*
X117336234Y-66107080D01*
X117321573Y-66118024D01*
X117308620Y-66112287D01*
X117295883Y-66091704D01*
X117284458Y-66050618D01*
X117283242Y-66000415D01*
X117291187Y-65946797D01*
X117307246Y-65895462D01*
X117330370Y-65852113D01*
X117342735Y-65836800D01*
X117352976Y-65822426D01*
X117349631Y-65816674D01*
X117335104Y-65818646D01*
X117311796Y-65827446D01*
X117282110Y-65842176D01*
X117248450Y-65861938D01*
X117215084Y-65884481D01*
X117181746Y-65906978D01*
X117160351Y-65916817D01*
X117149212Y-65914004D01*
X117146640Y-65898547D01*
X117148247Y-65884769D01*
X117166279Y-65826697D01*
X117199788Y-65769075D01*
X117245809Y-65714802D01*
X117301372Y-65666780D01*
X117363512Y-65627910D01*
X117429259Y-65601094D01*
X117442002Y-65597579D01*
X117465591Y-65590705D01*
X117480370Y-65581811D01*
X117490844Y-65566033D01*
X117501513Y-65538508D01*
X117504411Y-65530169D01*
X117526015Y-65477427D01*
X117552415Y-65435230D01*
X117588929Y-65395523D01*
X117600230Y-65385069D01*
X117632320Y-65359123D01*
X117663685Y-65338946D01*
X117691140Y-65325959D01*
X117711500Y-65321580D01*
X117721578Y-65327227D01*
X117722124Y-65330779D01*
X117718487Y-65342450D01*
X117708788Y-65366552D01*
X117694842Y-65398655D01*
X117688885Y-65411859D01*
X117663524Y-65474883D01*
X117650881Y-65525056D01*
X117650868Y-65563031D01*
X117663401Y-65589460D01*
X117665141Y-65591295D01*
X117689235Y-65607760D01*
X117714345Y-65607877D01*
X117743363Y-65591381D01*
X117753189Y-65583217D01*
X117789500Y-65539238D01*
X117814613Y-65481772D01*
X117828117Y-65412496D01*
X117829601Y-65333086D01*
X117825507Y-65288513D01*
X117817595Y-65237976D01*
X117806375Y-65189553D01*
X117790513Y-65139341D01*
X117768676Y-65083437D01*
X117739530Y-65017937D01*
X117716379Y-64969083D01*
X117650437Y-64842980D01*
X117579776Y-64730131D01*
X117500689Y-64625210D01*
X117409470Y-64522889D01*
X117396823Y-64509804D01*
X117297768Y-64412608D01*
X117202026Y-64328280D01*
X117104911Y-64252887D01*
X117024321Y-64197178D01*
X116946966Y-64150074D01*
X116857469Y-64101885D01*
X116761873Y-64055480D01*
X116666220Y-64013733D01*
X116576550Y-63979514D01*
X116542590Y-63968223D01*
X116502799Y-63955685D01*
X116534549Y-64013465D01*
X116578901Y-64110745D01*
X116613047Y-64221797D01*
X116636473Y-64344507D01*
X116648667Y-64476764D01*
X116649044Y-64485274D01*
X116654254Y-64610878D01*
X116588438Y-64941171D01*
X116572579Y-65020924D01*
X116557272Y-65098213D01*
X116543051Y-65170322D01*
X116530450Y-65234530D01*
X116520002Y-65288119D01*
X116512241Y-65328371D01*
X116508307Y-65349250D01*
X116501871Y-65397751D01*
X116497299Y-65460091D01*
X116494593Y-65531593D01*
X116493758Y-65607583D01*
X116395686Y-65607583D01*
X116397323Y-65565359D01*
X116404292Y-65484244D01*
X116405251Y-65476153D01*
X116413705Y-65416336D01*
X116426019Y-65342170D01*
X116441454Y-65257334D01*
X116459269Y-65165510D01*
X116478725Y-65070378D01*
X116499083Y-64975619D01*
X116519602Y-64884914D01*
X116539543Y-64801944D01*
X116545504Y-64778319D01*
X116570235Y-64664928D01*
X116583341Y-64561962D01*
X116585150Y-64465581D01*
X116578623Y-64390186D01*
X116563529Y-64299951D01*
X116543328Y-64214246D01*
X116518951Y-64135426D01*
X116491330Y-64065845D01*
X116461398Y-64007862D01*
X116430085Y-63963830D01*
X116399148Y-63936600D01*
X116380082Y-63928878D01*
X116347088Y-63919388D01*
X116304615Y-63909276D01*
X116257115Y-63899684D01*
X116251574Y-63898673D01*
X116197169Y-63888167D01*
X116160008Y-63878894D01*
X116138857Y-63869918D01*
X116132478Y-63860305D01*
X116136153Y-63854564D01*
X116368387Y-63854564D01*
X116428864Y-63872526D01*
X116573216Y-63918304D01*
X116702452Y-63965737D01*
X116820061Y-64016371D01*
X116929535Y-64071754D01*
X117034363Y-64133434D01*
X117071372Y-64157303D01*
X117123833Y-64193036D01*
X117173439Y-64229503D01*
X117223035Y-64269104D01*
X117275469Y-64314240D01*
X117333587Y-64367311D01*
X117400235Y-64430718D01*
X117431055Y-64460618D01*
X117486211Y-64515689D01*
X117530408Y-64563178D01*
X117567164Y-64607193D01*
X117599999Y-64651844D01*
X117618466Y-64679395D01*
X117703541Y-64816924D01*
X117773565Y-64945480D01*
X117829040Y-65066310D01*
X117870466Y-65180660D01*
X117898342Y-65289777D01*
X117913170Y-65394908D01*
X117914735Y-65417714D01*
X117916544Y-65471630D01*
X117914649Y-65509091D01*
X117908511Y-65531982D01*
X117897592Y-65542186D01*
X117881354Y-65541585D01*
X117879462Y-65541018D01*
X117864163Y-65542668D01*
X117850137Y-65560024D01*
X117848038Y-65563942D01*
X117825388Y-65599245D01*
X117795981Y-65633796D01*
X117765485Y-65661405D01*
X117749117Y-65672013D01*
X117710335Y-65684091D01*
X117669765Y-65683842D01*
X117634427Y-65671686D01*
X117624436Y-65664559D01*
X117610120Y-65648341D01*
X117599704Y-65625524D01*
X117591164Y-65591073D01*
X117587983Y-65573845D01*
X117581773Y-65539099D01*
X117577647Y-65520862D01*
X117574555Y-65517303D01*
X117571450Y-65526588D01*
X117568653Y-65540027D01*
X117565782Y-65568470D01*
X117565503Y-65606423D01*
X117567436Y-65640045D01*
X117570148Y-65673754D01*
X117569924Y-65692990D01*
X117566009Y-65701758D01*
X117557652Y-65704063D01*
X117555390Y-65704102D01*
X117538354Y-65697188D01*
X117518852Y-65680068D01*
X117514669Y-65675068D01*
X117499068Y-65656899D01*
X117485865Y-65650794D01*
X117466709Y-65654291D01*
X117455845Y-65657719D01*
X117418139Y-65672279D01*
X117378565Y-65691425D01*
X117340827Y-65712862D01*
X117308632Y-65734294D01*
X117285683Y-65753425D01*
X117275686Y-65767960D01*
X117275530Y-65769447D01*
X117283345Y-65771363D01*
X117303287Y-65767445D01*
X117318138Y-65762886D01*
X117372437Y-65752612D01*
X117429151Y-65758725D01*
X117490739Y-65781522D01*
X117496548Y-65784374D01*
X117531192Y-65804008D01*
X117547768Y-65819459D01*
X117546259Y-65831060D01*
X117526651Y-65839142D01*
X117493730Y-65843662D01*
X117458598Y-65848963D01*
X117427390Y-65857720D01*
X117412288Y-65864831D01*
X117395665Y-65879635D01*
X117376015Y-65902326D01*
X117357541Y-65927310D01*
X117344442Y-65948992D01*
X117340658Y-65960204D01*
X117347285Y-65957945D01*
X117364477Y-65946727D01*
X117383568Y-65932703D01*
X117429467Y-65904235D01*
X117470318Y-65893132D01*
X117507120Y-65899163D01*
X117514001Y-65902362D01*
X117547180Y-65923421D01*
X117565584Y-65947241D01*
X117572136Y-65979232D01*
X117571307Y-66008477D01*
X117563588Y-66056142D01*
X117547336Y-66102318D01*
X117521378Y-66148311D01*
X117484539Y-66195427D01*
X117435645Y-66244971D01*
X117373522Y-66298250D01*
X117296997Y-66356568D01*
X117204895Y-66421232D01*
X117192802Y-66429438D01*
X117105131Y-66489533D01*
X117031642Y-66541903D01*
X116970476Y-66588247D01*
X116919769Y-66630264D01*
X116877659Y-66669652D01*
X116842285Y-66708109D01*
X116811784Y-66747335D01*
X116784294Y-66789028D01*
X116767786Y-66817144D01*
X116740914Y-66871954D01*
X116713927Y-66939882D01*
X116688495Y-67015520D01*
X116666285Y-67093462D01*
X116648963Y-67168303D01*
X116638198Y-67234637D01*
X116637746Y-67238709D01*
X116631315Y-67298628D01*
X116660200Y-67274322D01*
X116693592Y-67252690D01*
X116740108Y-67231386D01*
X116794357Y-67212605D01*
X116841576Y-67200466D01*
X116900072Y-67194224D01*
X116968082Y-67197038D01*
X117039426Y-67207964D01*
X117107921Y-67226062D01*
X117166627Y-67250000D01*
X117193272Y-67266022D01*
X117220822Y-67286437D01*
X117245466Y-67307847D01*
X117263394Y-67326855D01*
X117270796Y-67340066D01*
X117270349Y-67342467D01*
X117259287Y-67345690D01*
X117234759Y-67346660D01*
X117201790Y-67345212D01*
X117197318Y-67344853D01*
X117155395Y-67342871D01*
X117130691Y-67344975D01*
X117123508Y-67350444D01*
X117134152Y-67358561D01*
X117162924Y-67368607D01*
X117184877Y-67374289D01*
X117248211Y-67393915D01*
X117318613Y-67423262D01*
X117389678Y-67459216D01*
X117454998Y-67498664D01*
X117485998Y-67520603D01*
X117506260Y-67537623D01*
X117537756Y-67566269D01*
X117578732Y-67604845D01*
X117627428Y-67651657D01*
X117682089Y-67705010D01*
X117740957Y-67763207D01*
X117802274Y-67824554D01*
X117828757Y-67851278D01*
X117891282Y-67914263D01*
X117952645Y-67975557D01*
X118010987Y-68033342D01*
X118064451Y-68085798D01*
X118111178Y-68131105D01*
X118149310Y-68167445D01*
X118176990Y-68192998D01*
X118184379Y-68199500D01*
X118212114Y-68222803D01*
X118246602Y-68250976D01*
X118285056Y-68281838D01*
X118324692Y-68313209D01*
X118362724Y-68342907D01*
X118396368Y-68368752D01*
X118422838Y-68388564D01*
X118439350Y-68400161D01*
X118443345Y-68402270D01*
X118439832Y-68394827D01*
X118428437Y-68374548D01*
X118410928Y-68344508D01*
X118389074Y-68307783D01*
X118388509Y-68306841D01*
X118329839Y-68196990D01*
X118278440Y-68074439D01*
X118233479Y-67937088D01*
X118214892Y-67868990D01*
X118201419Y-67819034D01*
X118188160Y-67773927D01*
X118176323Y-67737505D01*
X118167117Y-67713602D01*
X118164148Y-67707941D01*
X118155534Y-67685843D01*
X118147455Y-67648536D01*
X118140296Y-67599418D01*
X118134440Y-67541887D01*
X118130272Y-67479341D01*
X118128176Y-67415178D01*
X118128006Y-67388131D01*
X118128555Y-67345478D01*
X118128568Y-67345273D01*
X118179244Y-67345273D01*
X118179441Y-67365845D01*
X118185654Y-67376202D01*
X118196629Y-67378827D01*
X118206436Y-67380343D01*
X118212389Y-67386815D01*
X118214674Y-67401123D01*
X118213477Y-67426149D01*
X118208983Y-67464777D01*
X118204355Y-67498741D01*
X118199361Y-67537432D01*
X118197696Y-67561940D01*
X118199561Y-67576424D01*
X118205158Y-67585045D01*
X118208672Y-67587919D01*
X118219163Y-67604599D01*
X118228700Y-67637257D01*
X118234331Y-67668042D01*
X118243699Y-67722284D01*
X118256103Y-67783214D01*
X118270296Y-67845546D01*
X118285027Y-67903995D01*
X118299047Y-67953276D01*
X118308273Y-67980848D01*
X118325428Y-68022275D01*
X118349399Y-68074034D01*
X118377570Y-68131020D01*
X118407323Y-68188129D01*
X118436040Y-68240254D01*
X118461104Y-68282292D01*
X118469123Y-68294555D01*
X118498013Y-68333174D01*
X118535209Y-68377252D01*
X118576805Y-68422676D01*
X118618899Y-68465331D01*
X118657585Y-68501103D01*
X118687959Y-68525192D01*
X118728044Y-68552775D01*
X118698078Y-68498457D01*
X118681592Y-68469326D01*
X118667878Y-68446438D01*
X118660319Y-68435299D01*
X118652856Y-68418209D01*
X118652527Y-68414365D01*
X118657695Y-68402895D01*
X118672452Y-68406059D01*
X118695674Y-68423277D01*
X118723626Y-68451116D01*
X118793495Y-68524890D01*
X118854857Y-68584557D01*
X118909792Y-68631310D01*
X118960383Y-68666346D01*
X119008710Y-68690858D01*
X119056854Y-68706042D01*
X119106896Y-68713091D01*
X119160918Y-68713201D01*
X119178204Y-68712060D01*
X119223182Y-68704517D01*
X119268526Y-68690655D01*
X119282641Y-68684646D01*
X119328559Y-68655371D01*
X119377137Y-68610752D01*
X119426088Y-68553381D01*
X119473124Y-68485854D01*
X119503616Y-68434057D01*
X119525144Y-68395665D01*
X119544175Y-68363426D01*
X119558600Y-68340806D01*
X119566163Y-68331352D01*
X119578066Y-68331022D01*
X119584442Y-68346300D01*
X119584596Y-68374827D01*
X119582931Y-68388306D01*
X119580410Y-68414512D01*
X119583525Y-68424097D01*
X119586791Y-68423302D01*
X119597570Y-68416398D01*
X119621142Y-68401058D01*
X119654759Y-68379078D01*
X119695672Y-68352256D01*
X119732087Y-68328336D01*
X119780530Y-68296547D01*
X119827401Y-68265898D01*
X119868875Y-68238880D01*
X119901129Y-68217987D01*
X119915371Y-68208852D01*
X119969125Y-68166426D01*
X120024307Y-68107140D01*
X120036080Y-68091263D01*
X120113259Y-68091263D01*
X120120342Y-68090865D01*
X120140603Y-68079957D01*
X120172560Y-68059492D01*
X120214732Y-68030423D01*
X120265637Y-67993700D01*
X120269267Y-67991030D01*
X120308516Y-67960401D01*
X120355475Y-67921075D01*
X120404829Y-67877644D01*
X120451263Y-67834703D01*
X120461034Y-67825316D01*
X120497354Y-67790479D01*
X120529040Y-67760739D01*
X120553692Y-67738299D01*
X120568909Y-67725361D01*
X120572517Y-67723076D01*
X120578930Y-67730403D01*
X120577221Y-67749395D01*
X120568516Y-67775574D01*
X120553942Y-67804457D01*
X120550753Y-67809643D01*
X120536611Y-67833334D01*
X120528828Y-67849200D01*
X120528527Y-67853332D01*
X120539284Y-67848609D01*
X120562229Y-67835834D01*
X120593949Y-67817097D01*
X120631034Y-67794491D01*
X120670071Y-67770106D01*
X120707648Y-67746034D01*
X120740353Y-67724366D01*
X120751882Y-67716438D01*
X120780843Y-67697126D01*
X120804565Y-67682960D01*
X120818457Y-67676657D01*
X120819336Y-67676556D01*
X120827083Y-67684595D01*
X120830445Y-67702142D01*
X120831801Y-67714346D01*
X120835909Y-67713918D01*
X120844466Y-67699213D01*
X120854230Y-67679082D01*
X120864566Y-67651450D01*
X120873530Y-67617223D01*
X120880497Y-67580811D01*
X120884842Y-67546623D01*
X120885941Y-67519069D01*
X120883170Y-67502559D01*
X120879621Y-67499779D01*
X120866873Y-67498776D01*
X120840709Y-67496116D01*
X120806193Y-67492319D01*
X120796861Y-67491254D01*
X120752663Y-67486261D01*
X120707477Y-67481295D01*
X120670928Y-67477413D01*
X120670273Y-67477346D01*
X120617872Y-67471963D01*
X120572821Y-67553325D01*
X120513177Y-67643144D01*
X120441535Y-67718762D01*
X120357760Y-67780311D01*
X120327521Y-67797508D01*
X120287766Y-67819729D01*
X120261082Y-67837875D01*
X120243442Y-67855215D01*
X120230817Y-67875013D01*
X120230009Y-67876592D01*
X120217257Y-67900758D01*
X120198248Y-67935535D01*
X120176013Y-67975414D01*
X120162219Y-67999790D01*
X120142138Y-68035542D01*
X120126046Y-68065117D01*
X120115864Y-68084926D01*
X120113259Y-68091263D01*
X120036080Y-68091263D01*
X120079625Y-68032540D01*
X120128414Y-67953667D01*
X120188371Y-67848680D01*
X120129714Y-67843458D01*
X120060301Y-67828653D01*
X120022512Y-67811814D01*
X119973966Y-67785392D01*
X119924099Y-67818502D01*
X119869867Y-67851815D01*
X119813061Y-67882108D01*
X119759829Y-67906282D01*
X119724745Y-67918898D01*
X119686688Y-67935546D01*
X119647453Y-67963626D01*
X119606038Y-68004277D01*
X119561438Y-68058640D01*
X119512652Y-68127857D01*
X119458674Y-68213068D01*
X119442857Y-68239339D01*
X119399386Y-68310202D01*
X119361969Y-68365911D01*
X119328739Y-68408149D01*
X119297833Y-68438602D01*
X119267387Y-68458954D01*
X119235536Y-68470891D01*
X119200416Y-68476096D01*
X119180192Y-68476702D01*
X119105860Y-68467672D01*
X119035237Y-68441295D01*
X118969365Y-68398639D01*
X118909286Y-68340772D01*
X118856042Y-68268764D01*
X118810675Y-68183683D01*
X118774228Y-68086598D01*
X118763684Y-68049645D01*
X118749729Y-67984327D01*
X118739452Y-67914460D01*
X118737887Y-67903818D01*
X118736508Y-67890299D01*
X118810695Y-67890299D01*
X118810695Y-67914460D01*
X118814595Y-67949806D01*
X118825216Y-67997032D01*
X118840939Y-68051382D01*
X118860147Y-68108101D01*
X118881221Y-68162433D01*
X118902544Y-68209622D01*
X118922496Y-68244915D01*
X118923775Y-68246781D01*
X118958224Y-68292508D01*
X118993861Y-68333374D01*
X119025916Y-68363959D01*
X119029222Y-68366623D01*
X119073340Y-68393097D01*
X119123175Y-68409819D01*
X119173340Y-68415871D01*
X119218447Y-68410334D01*
X119238571Y-68402329D01*
X119254336Y-68383891D01*
X119260748Y-68352603D01*
X119258114Y-68311520D01*
X119246740Y-68263697D01*
X119226931Y-68212189D01*
X119217588Y-68192929D01*
X119198964Y-68163544D01*
X119172657Y-68130737D01*
X119142082Y-68097841D01*
X119110655Y-68068187D01*
X119081791Y-68045108D01*
X119058905Y-68031938D01*
X119050708Y-68030109D01*
X119047649Y-68038318D01*
X119047970Y-68059116D01*
X119049390Y-68071977D01*
X119051301Y-68100127D01*
X119046839Y-68112026D01*
X119035607Y-68107526D01*
X119017210Y-68086482D01*
X118992742Y-68051043D01*
X118945768Y-67986962D01*
X118899055Y-67939099D01*
X118853629Y-67908472D01*
X118845585Y-67904834D01*
X118810695Y-67890299D01*
X118736508Y-67890299D01*
X118728462Y-67811443D01*
X118721758Y-67710531D01*
X118718078Y-67604410D01*
X118717450Y-67542980D01*
X118717048Y-67469862D01*
X118715377Y-67412715D01*
X118711456Y-67368903D01*
X118704307Y-67335790D01*
X118692950Y-67310741D01*
X118676405Y-67291122D01*
X118653693Y-67274295D01*
X118623834Y-67257626D01*
X118608486Y-67249817D01*
X118572000Y-67229135D01*
X118527130Y-67200215D01*
X118479625Y-67166925D01*
X118436121Y-67133844D01*
X118389432Y-67097124D01*
X118363813Y-67078263D01*
X118470319Y-67078263D01*
X118483542Y-67090566D01*
X118489706Y-67095734D01*
X118519014Y-67116129D01*
X118559643Y-67139256D01*
X118605723Y-67162282D01*
X118651387Y-67182375D01*
X118690766Y-67196704D01*
X118708351Y-67201246D01*
X118757281Y-67208562D01*
X118799175Y-67208842D01*
X118801441Y-67208493D01*
X119001428Y-67208493D01*
X119057898Y-67268944D01*
X119080993Y-67295760D01*
X119111727Y-67334486D01*
X119147400Y-67381558D01*
X119185315Y-67433410D01*
X119222776Y-67486479D01*
X119225314Y-67490151D01*
X119281117Y-67569681D01*
X119329241Y-67634939D01*
X119371420Y-67687704D01*
X119409390Y-67729752D01*
X119444888Y-67762863D01*
X119479649Y-67788815D01*
X119515408Y-67809384D01*
X119553280Y-67826108D01*
X119578599Y-67835729D01*
X119597893Y-67841077D01*
X119616720Y-67842284D01*
X119640636Y-67839485D01*
X119675199Y-67832813D01*
X119691601Y-67829431D01*
X119748961Y-67815762D01*
X119800641Y-67798846D01*
X119852447Y-67776315D01*
X119910188Y-67745801D01*
X119942711Y-67727038D01*
X119978240Y-67706396D01*
X120007614Y-67689833D01*
X120027299Y-67679310D01*
X120033658Y-67676556D01*
X120037650Y-67684488D01*
X120038827Y-67698194D01*
X120047279Y-67726482D01*
X120070266Y-67748955D01*
X120104235Y-67764167D01*
X120145635Y-67770670D01*
X120190911Y-67767020D01*
X120201760Y-67764524D01*
X120285481Y-67733874D01*
X120361130Y-67687423D01*
X120429222Y-67624707D01*
X120490273Y-67545266D01*
X120537523Y-67463242D01*
X120559470Y-67410933D01*
X120657545Y-67410933D01*
X120759889Y-67426297D01*
X120801620Y-67432577D01*
X120836366Y-67437836D01*
X120860118Y-67441463D01*
X120868662Y-67442808D01*
X120878906Y-67437488D01*
X120880220Y-67435656D01*
X120879386Y-67424049D01*
X120873249Y-67398780D01*
X120862853Y-67363685D01*
X120850531Y-67326334D01*
X120836715Y-67286246D01*
X120825346Y-67253258D01*
X120817659Y-67230954D01*
X120814899Y-67222945D01*
X120806609Y-67225173D01*
X120785221Y-67233161D01*
X120754759Y-67245383D01*
X120742484Y-67250466D01*
X120705302Y-67266703D01*
X120681935Y-67280831D01*
X120668915Y-67297636D01*
X120662776Y-67321904D01*
X120660048Y-67358421D01*
X120659748Y-67364642D01*
X120657545Y-67410933D01*
X120559470Y-67410933D01*
X120566468Y-67394254D01*
X120582233Y-67328837D01*
X120585100Y-67268923D01*
X120575350Y-67216444D01*
X120553266Y-67173331D01*
X120519127Y-67141517D01*
X120488560Y-67127119D01*
X120461543Y-67122179D01*
X120420287Y-67119450D01*
X120369005Y-67118762D01*
X120311915Y-67119945D01*
X120253230Y-67122830D01*
X120197167Y-67127245D01*
X120147939Y-67133022D01*
X120109764Y-67139989D01*
X120099303Y-67142829D01*
X120043479Y-67160182D01*
X120136519Y-67165746D01*
X120212592Y-67174368D01*
X120277404Y-67189903D01*
X120329860Y-67211447D01*
X120368865Y-67238094D01*
X120393321Y-67268939D01*
X120402133Y-67303078D01*
X120394205Y-67339605D01*
X120378522Y-67365570D01*
X120362619Y-67381932D01*
X120334871Y-67405995D01*
X120298758Y-67434906D01*
X120257761Y-67465816D01*
X120243590Y-67476086D01*
X120198262Y-67508377D01*
X120165014Y-67530498D01*
X120140748Y-67543046D01*
X120122366Y-67546617D01*
X120106773Y-67541808D01*
X120090870Y-67529216D01*
X120071560Y-67509437D01*
X120071391Y-67509260D01*
X120049769Y-67490736D01*
X120017701Y-67468163D01*
X119981376Y-67445830D01*
X119973699Y-67441524D01*
X119922858Y-67411595D01*
X119887487Y-67385620D01*
X119865476Y-67361454D01*
X119854716Y-67336954D01*
X119852746Y-67318604D01*
X119861155Y-67271813D01*
X119865518Y-67264845D01*
X120031310Y-67264845D01*
X120032153Y-67273206D01*
X120046734Y-67286306D01*
X120046836Y-67286390D01*
X120070218Y-67296853D01*
X120105862Y-67303087D01*
X120147879Y-67304954D01*
X120190376Y-67302315D01*
X120227464Y-67295031D01*
X120239162Y-67290913D01*
X120262166Y-67276603D01*
X120271504Y-67260517D01*
X120265401Y-67246262D01*
X120262258Y-67244002D01*
X120248553Y-67239477D01*
X120222881Y-67233783D01*
X120200749Y-67229816D01*
X120150858Y-67226449D01*
X120102320Y-67231470D01*
X120061436Y-67243898D01*
X120043479Y-67254292D01*
X120031310Y-67264845D01*
X119865518Y-67264845D01*
X119885293Y-67233262D01*
X119908500Y-67214162D01*
X119937035Y-67196095D01*
X119855349Y-67158036D01*
X119790725Y-67129385D01*
X119734292Y-67108156D01*
X119678491Y-67091859D01*
X119615766Y-67078005D01*
X119607498Y-67076405D01*
X119573561Y-67071360D01*
X119531832Y-67067288D01*
X119486443Y-67064324D01*
X119441528Y-67062606D01*
X119401218Y-67062272D01*
X119369647Y-67063458D01*
X119350947Y-67066303D01*
X119348134Y-67067786D01*
X119351547Y-67076302D01*
X119365761Y-67093092D01*
X119383799Y-67110839D01*
X119407608Y-67136428D01*
X119421713Y-67159076D01*
X119424873Y-67175708D01*
X119415846Y-67183250D01*
X119413131Y-67183407D01*
X119395157Y-67177831D01*
X119365493Y-67160907D01*
X119323516Y-67132232D01*
X119268603Y-67091406D01*
X119257482Y-67082879D01*
X119223777Y-67056953D01*
X119194864Y-67034751D01*
X119174363Y-67019050D01*
X119166691Y-67013216D01*
X119157026Y-67013080D01*
X119145879Y-67028086D01*
X119137236Y-67046435D01*
X119120488Y-67081500D01*
X119101003Y-67116993D01*
X119095964Y-67125248D01*
X119072634Y-67162205D01*
X119171939Y-67202317D01*
X119243148Y-67231885D01*
X119298175Y-67256718D01*
X119338568Y-67277729D01*
X119365878Y-67295829D01*
X119381653Y-67311931D01*
X119387442Y-67326947D01*
X119387545Y-67329277D01*
X119385145Y-67337035D01*
X119376627Y-67340040D01*
X119360012Y-67337749D01*
X119333323Y-67329622D01*
X119294582Y-67315116D01*
X119241811Y-67293691D01*
X119211750Y-67281139D01*
X119161256Y-67260402D01*
X119114278Y-67241961D01*
X119074550Y-67227219D01*
X119045803Y-67217577D01*
X119034974Y-67214745D01*
X119001428Y-67208493D01*
X118801441Y-67208493D01*
X118844297Y-67201892D01*
X118859970Y-67198375D01*
X118896561Y-67188830D01*
X118916805Y-67180908D01*
X118922771Y-67173588D01*
X118920081Y-67168774D01*
X118907727Y-67163391D01*
X118880293Y-67155211D01*
X118840974Y-67144938D01*
X118792965Y-67133279D01*
X118739462Y-67120940D01*
X118683659Y-67108626D01*
X118628752Y-67097044D01*
X118577935Y-67086899D01*
X118534404Y-67078896D01*
X118501354Y-67073743D01*
X118482584Y-67072129D01*
X118470340Y-67073244D01*
X118470319Y-67078263D01*
X118363813Y-67078263D01*
X118354458Y-67071376D01*
X118328810Y-67055436D01*
X118310100Y-67048138D01*
X118295938Y-67048315D01*
X118283936Y-67054804D01*
X118280345Y-67057856D01*
X118265353Y-67078371D01*
X118247876Y-67113532D01*
X118229352Y-67159796D01*
X118211217Y-67213620D01*
X118196925Y-67263637D01*
X118185070Y-67312025D01*
X118179244Y-67345273D01*
X118128568Y-67345273D01*
X118130703Y-67311880D01*
X118135553Y-67281527D01*
X118144208Y-67248612D01*
X118157772Y-67207327D01*
X118167780Y-67178790D01*
X118183197Y-67135128D01*
X118196589Y-67096960D01*
X118206593Y-67068188D01*
X118211845Y-67052719D01*
X118212026Y-67052148D01*
X118211477Y-67047140D01*
X118205543Y-67042534D01*
X118192757Y-67038138D01*
X118171656Y-67033765D01*
X118140773Y-67029223D01*
X118098643Y-67024324D01*
X118043801Y-67018877D01*
X117974781Y-67012693D01*
X117890118Y-67005583D01*
X117789227Y-66997427D01*
X117711198Y-66990872D01*
X117650296Y-66984987D01*
X117605062Y-66979582D01*
X117574034Y-66974464D01*
X117555753Y-66969442D01*
X117549900Y-66966028D01*
X117544162Y-66957808D01*
X117549992Y-66953040D01*
X117570433Y-66950038D01*
X117580282Y-66949197D01*
X117611625Y-66948177D01*
X117658280Y-66948611D01*
X117717020Y-66950342D01*
X117784618Y-66953215D01*
X117857847Y-66957073D01*
X117933481Y-66961761D01*
X118008293Y-66967122D01*
X118079056Y-66973001D01*
X118086392Y-66973667D01*
X118143144Y-66978318D01*
X118189873Y-66981050D01*
X118224109Y-66981778D01*
X118243383Y-66980416D01*
X118246436Y-66979188D01*
X118244527Y-66968851D01*
X118230030Y-66949855D01*
X118207111Y-66926879D01*
X118183361Y-66903943D01*
X118166277Y-66885426D01*
X118159424Y-66875203D01*
X118159413Y-66875023D01*
X118166119Y-66866351D01*
X118185289Y-66869435D01*
X118215500Y-66883648D01*
X118255331Y-66908359D01*
X118289669Y-66932669D01*
X118326138Y-66958846D01*
X118358703Y-66980798D01*
X118383640Y-66996105D01*
X118396666Y-67002243D01*
X118411077Y-67005228D01*
X118440768Y-67011157D01*
X118482746Y-67019440D01*
X118534023Y-67029489D01*
X118591606Y-67040714D01*
X118610658Y-67044416D01*
X118675924Y-67057349D01*
X118741721Y-67070856D01*
X118803437Y-67083954D01*
X118856458Y-67095664D01*
X118896172Y-67105005D01*
X118898635Y-67105621D01*
X118947855Y-67116978D01*
X118982125Y-67122338D01*
X119003993Y-67122027D01*
X119010757Y-67119996D01*
X119025459Y-67106819D01*
X119043684Y-67081834D01*
X119062284Y-67050603D01*
X119078112Y-67018691D01*
X119088021Y-66991660D01*
X119089816Y-66980251D01*
X119087573Y-66969482D01*
X119079564Y-66957539D01*
X119068524Y-66947256D01*
X119186382Y-66947256D01*
X119186445Y-66948228D01*
X119202363Y-66962853D01*
X119225809Y-66982934D01*
X119252726Y-67005182D01*
X119279057Y-67026310D01*
X119300744Y-67043028D01*
X119313730Y-67052047D01*
X119315439Y-67052775D01*
X119322249Y-67046130D01*
X119322417Y-67044179D01*
X119329812Y-67033957D01*
X119347636Y-67021859D01*
X119348003Y-67021664D01*
X119373589Y-67008157D01*
X119373272Y-67008033D01*
X119688338Y-67008033D01*
X119689365Y-67018552D01*
X119702788Y-67025611D01*
X119723982Y-67030086D01*
X119758932Y-67038164D01*
X119802599Y-67051435D01*
X119849136Y-67067772D01*
X119892691Y-67085048D01*
X119927419Y-67101136D01*
X119941135Y-67109036D01*
X119968572Y-67123490D01*
X119993668Y-67125966D01*
X120023377Y-67116499D01*
X120037866Y-67109500D01*
X120064700Y-67090576D01*
X120082560Y-67068135D01*
X120083831Y-67065306D01*
X120083995Y-67064816D01*
X120144372Y-67064816D01*
X120146849Y-67070758D01*
X120161923Y-67070867D01*
X120184579Y-67065314D01*
X120190378Y-67063237D01*
X120200548Y-67058032D01*
X120207778Y-67049179D01*
X120213181Y-67033125D01*
X120217866Y-67006316D01*
X120222946Y-66965197D01*
X120224032Y-66955612D01*
X120236951Y-66870047D01*
X120255341Y-66789428D01*
X120309899Y-66789428D01*
X120312359Y-66794089D01*
X120322766Y-66782316D01*
X120335973Y-66762527D01*
X120355826Y-66735028D01*
X120376246Y-66712543D01*
X120385834Y-66704670D01*
X120410707Y-66694977D01*
X120432271Y-66702031D01*
X120452413Y-66726647D01*
X120457456Y-66735656D01*
X120475294Y-66769413D01*
X120475705Y-66697745D01*
X120473240Y-66642818D01*
X120465269Y-66604711D01*
X120452019Y-66583704D01*
X120433717Y-66580079D01*
X120410589Y-66594117D01*
X120400467Y-66604266D01*
X120374956Y-66635514D01*
X120354601Y-66669256D01*
X120335579Y-66712204D01*
X120328689Y-66730220D01*
X120315354Y-66768187D01*
X120309899Y-66789428D01*
X120255341Y-66789428D01*
X120255501Y-66788727D01*
X120278719Y-66713880D01*
X120305642Y-66647735D01*
X120335307Y-66592519D01*
X120366754Y-66550459D01*
X120399018Y-66523784D01*
X120413325Y-66517462D01*
X120446618Y-66516327D01*
X120480980Y-66532804D01*
X120502578Y-66552180D01*
X120516479Y-66566440D01*
X120526123Y-66572410D01*
X120533038Y-66567957D01*
X120538752Y-66550951D01*
X120544792Y-66519261D01*
X120550283Y-66485640D01*
X120563231Y-66375102D01*
X120567349Y-66262886D01*
X120562834Y-66153538D01*
X120549886Y-66051606D01*
X120528705Y-65961635D01*
X120527130Y-65956572D01*
X120507396Y-65900462D01*
X120488203Y-65860654D01*
X120467981Y-65834963D01*
X120445156Y-65821201D01*
X120427102Y-65817522D01*
X120396226Y-65820734D01*
X120370404Y-65837257D01*
X120347783Y-65868891D01*
X120327778Y-65914024D01*
X120315476Y-65950592D01*
X120304939Y-65991020D01*
X120295772Y-66037901D01*
X120287575Y-66093828D01*
X120279954Y-66161392D01*
X120272510Y-66243188D01*
X120267302Y-66308864D01*
X120261601Y-66377411D01*
X120254821Y-66448407D01*
X120247522Y-66516637D01*
X120240261Y-66576890D01*
X120233597Y-66623954D01*
X120233397Y-66625201D01*
X120226218Y-66667451D01*
X120217009Y-66718184D01*
X120206385Y-66774365D01*
X120194961Y-66832957D01*
X120183350Y-66890926D01*
X120172168Y-66945236D01*
X120162029Y-66992852D01*
X120153549Y-67030739D01*
X120147341Y-67055861D01*
X120144372Y-67064816D01*
X120083995Y-67064816D01*
X120099250Y-67019156D01*
X120115307Y-66957060D01*
X120131551Y-66881650D01*
X120147532Y-66795557D01*
X120162799Y-66701411D01*
X120176901Y-66601843D01*
X120189389Y-66499485D01*
X120199810Y-66396967D01*
X120201437Y-66378644D01*
X120207047Y-66316266D01*
X120213145Y-66252372D01*
X120219177Y-66192501D01*
X120224593Y-66142189D01*
X120227410Y-66118131D01*
X120234482Y-66043412D01*
X120236883Y-65974772D01*
X120234843Y-65914382D01*
X120228589Y-65864417D01*
X120218350Y-65827049D01*
X120204355Y-65804453D01*
X120193846Y-65798805D01*
X120180641Y-65802366D01*
X120169589Y-65819902D01*
X120159886Y-65853144D01*
X120153675Y-65885458D01*
X120145010Y-65918828D01*
X120133403Y-65933933D01*
X120130957Y-65934714D01*
X120124159Y-65933426D01*
X120119233Y-65924599D01*
X120115554Y-65905288D01*
X120112495Y-65872546D01*
X120110214Y-65837094D01*
X120102612Y-65754783D01*
X120090117Y-65676877D01*
X120073479Y-65605407D01*
X120053448Y-65542405D01*
X120030773Y-65489900D01*
X120006205Y-65449923D01*
X119980494Y-65424505D01*
X119954589Y-65415677D01*
X119935690Y-65422147D01*
X119920840Y-65442046D01*
X119909960Y-65476108D01*
X119902971Y-65525064D01*
X119899793Y-65589649D01*
X119900346Y-65670594D01*
X119904551Y-65768634D01*
X119908845Y-65836708D01*
X119912289Y-65891880D01*
X119914614Y-65940620D01*
X119915736Y-65979911D01*
X119915568Y-66006737D01*
X119914027Y-66018081D01*
X119913988Y-66018122D01*
X119903727Y-66017897D01*
X119890860Y-66000714D01*
X119876155Y-65967914D01*
X119862799Y-65928802D01*
X119847507Y-65886320D01*
X119828203Y-65842788D01*
X119807218Y-65802575D01*
X119786883Y-65770047D01*
X119769530Y-65749574D01*
X119765575Y-65746628D01*
X119750268Y-65742333D01*
X119736754Y-65753593D01*
X119735901Y-65754726D01*
X119727884Y-65770130D01*
X119723939Y-65791104D01*
X119724236Y-65820175D01*
X119728946Y-65859871D01*
X119738239Y-65912721D01*
X119750618Y-65973419D01*
X119781571Y-66143631D01*
X119799531Y-66302272D01*
X119804451Y-66451136D01*
X119796283Y-66592017D01*
X119774981Y-66726709D01*
X119740498Y-66857008D01*
X119726332Y-66899026D01*
X119712131Y-66939206D01*
X119699984Y-66973906D01*
X119691429Y-66998712D01*
X119688338Y-67008033D01*
X119373272Y-67008033D01*
X119345677Y-66997223D01*
X119319178Y-66986840D01*
X119298394Y-66978694D01*
X119273434Y-66969793D01*
X119244923Y-66960884D01*
X119217691Y-66953282D01*
X119196568Y-66948301D01*
X119186382Y-66947256D01*
X119068524Y-66947256D01*
X119063872Y-66942923D01*
X119038579Y-66924133D01*
X119001768Y-66899669D01*
X118951519Y-66868030D01*
X118926995Y-66852886D01*
X118706723Y-66724754D01*
X118490667Y-66613951D01*
X118279288Y-66520710D01*
X118226867Y-66500032D01*
X118184557Y-66483174D01*
X118149358Y-66468059D01*
X118124506Y-66456157D01*
X118113233Y-66448939D01*
X118112893Y-66448191D01*
X118118428Y-66437107D01*
X118136246Y-66434200D01*
X118168162Y-66439392D01*
X118189576Y-66444890D01*
X118279734Y-66473449D01*
X118381744Y-66512257D01*
X118492853Y-66560030D01*
X118610305Y-66615486D01*
X118731348Y-66677345D01*
X118853229Y-66744322D01*
X118934915Y-66791977D01*
X118983595Y-66820837D01*
X119026978Y-66846095D01*
X119062489Y-66866288D01*
X119087555Y-66879957D01*
X119099598Y-66885638D01*
X119100062Y-66885713D01*
X119105991Y-66877055D01*
X119108033Y-66852800D01*
X119106284Y-66815529D01*
X119100840Y-66767822D01*
X119094072Y-66724922D01*
X119086824Y-66677182D01*
X119084884Y-66646077D01*
X119088326Y-66630388D01*
X119097224Y-66628893D01*
X119099829Y-66630291D01*
X119115089Y-66648336D01*
X119130970Y-66683024D01*
X119146730Y-66732437D01*
X119159180Y-66783236D01*
X119178508Y-66871491D01*
X119213246Y-66877138D01*
X119235441Y-66879062D01*
X119247345Y-66876817D01*
X119247984Y-66875537D01*
X119245927Y-66864244D01*
X119240297Y-66838476D01*
X119231909Y-66801843D01*
X119221576Y-66757953D01*
X119219456Y-66749072D01*
X119189773Y-66618603D01*
X119166699Y-66501472D01*
X119149816Y-66393783D01*
X119138706Y-66291645D01*
X119132949Y-66191163D01*
X119132442Y-66127885D01*
X119202323Y-66127885D01*
X119206978Y-66256606D01*
X119218192Y-66391176D01*
X119235953Y-66529673D01*
X119260246Y-66670176D01*
X119285704Y-66788397D01*
X119314277Y-66909726D01*
X119371845Y-66953133D01*
X119404700Y-66975553D01*
X119433654Y-66991059D01*
X119453610Y-66996951D01*
X119467462Y-66996383D01*
X119473698Y-66991034D01*
X119473795Y-66976360D01*
X119469352Y-66948516D01*
X119463071Y-66894054D01*
X119460433Y-66829037D01*
X119460582Y-66816405D01*
X119511707Y-66816405D01*
X119512574Y-66867296D01*
X119514952Y-66913354D01*
X119518809Y-66951610D01*
X119524110Y-66979095D01*
X119530822Y-66992841D01*
X119535705Y-66993145D01*
X119538736Y-66981827D01*
X119536707Y-66959147D01*
X119534568Y-66948570D01*
X119529231Y-66906294D01*
X119528891Y-66852773D01*
X119533044Y-66794538D01*
X119541187Y-66738120D01*
X119552817Y-66690049D01*
X119555005Y-66683460D01*
X119574897Y-66638015D01*
X119598682Y-66601850D01*
X119623908Y-66577969D01*
X119648058Y-66569376D01*
X119667270Y-66575899D01*
X119689366Y-66592082D01*
X119694486Y-66597190D01*
X119720468Y-66625004D01*
X119711942Y-66587059D01*
X119697644Y-66539843D01*
X119678739Y-66500996D01*
X119657199Y-66473364D01*
X119635000Y-66459794D01*
X119623360Y-66459328D01*
X119604527Y-66470569D01*
X119582584Y-66495190D01*
X119560436Y-66528966D01*
X119540989Y-66567668D01*
X119531212Y-66593352D01*
X119524021Y-66623880D01*
X119518508Y-66664418D01*
X119514641Y-66711997D01*
X119512385Y-66763649D01*
X119511707Y-66816405D01*
X119460582Y-66816405D01*
X119461253Y-66759525D01*
X119465347Y-66691576D01*
X119472531Y-66631250D01*
X119480148Y-66593438D01*
X119503466Y-66521128D01*
X119531618Y-66464828D01*
X119564126Y-66425166D01*
X119600510Y-66402768D01*
X119629974Y-66397675D01*
X119661613Y-66403092D01*
X119689149Y-66420873D01*
X119715384Y-66453308D01*
X119731792Y-66480988D01*
X119752102Y-66518204D01*
X119746982Y-66364688D01*
X119741807Y-66267683D01*
X119732491Y-66182351D01*
X119717833Y-66101991D01*
X119696632Y-66019899D01*
X119670410Y-65937366D01*
X119634579Y-65841959D01*
X119595704Y-65757068D01*
X119554733Y-65684088D01*
X119512614Y-65624412D01*
X119470294Y-65579435D01*
X119428722Y-65550551D01*
X119400724Y-65540684D01*
X119366955Y-65543153D01*
X119333364Y-65563245D01*
X119301142Y-65600003D01*
X119277889Y-65639311D01*
X119249553Y-65709947D01*
X119227842Y-65796045D01*
X119212741Y-65895682D01*
X119204239Y-66006936D01*
X119202323Y-66127885D01*
X119132442Y-66127885D01*
X119132126Y-66088445D01*
X119135820Y-65979597D01*
X119136117Y-65973918D01*
X119140324Y-65906299D01*
X119145315Y-65852603D01*
X119151729Y-65808146D01*
X119160207Y-65768245D01*
X119168285Y-65738558D01*
X119199164Y-65649234D01*
X119234167Y-65577201D01*
X119273114Y-65522724D01*
X119315825Y-65486070D01*
X119349932Y-65470520D01*
X119394546Y-65466747D01*
X119441881Y-65481215D01*
X119491745Y-65513787D01*
X119543949Y-65564325D01*
X119598305Y-65632693D01*
X119622761Y-65668248D01*
X119669818Y-65739391D01*
X119689464Y-65710239D01*
X119715859Y-65681000D01*
X119744059Y-65670085D01*
X119775409Y-65677216D01*
X119794304Y-65688603D01*
X119829486Y-65713708D01*
X119837052Y-65580974D01*
X119841872Y-65513748D01*
X119848183Y-65462450D01*
X119856770Y-65424416D01*
X119868419Y-65396979D01*
X119883914Y-65377474D01*
X119900614Y-65365188D01*
X119937862Y-65352523D01*
X119975313Y-65357113D01*
X120011886Y-65377651D01*
X120046498Y-65412829D01*
X120078068Y-65461340D01*
X120105513Y-65521876D01*
X120127752Y-65593129D01*
X120140821Y-65655507D01*
X120147011Y-65690036D01*
X120152887Y-65710685D01*
X120161152Y-65721937D01*
X120174506Y-65728274D01*
X120186789Y-65731771D01*
X120228626Y-65752470D01*
X120262055Y-65789418D01*
X120271159Y-65805179D01*
X120282520Y-65827173D01*
X120321811Y-65788612D01*
X120365578Y-65754227D01*
X120407755Y-65737577D01*
X120447728Y-65737814D01*
X120484885Y-65754090D01*
X120518616Y-65785559D01*
X120548306Y-65831372D01*
X120573345Y-65890682D01*
X120593119Y-65962642D01*
X120607018Y-66046403D01*
X120614428Y-66141118D01*
X120615515Y-66195256D01*
X120611814Y-66332640D01*
X120599664Y-66459781D01*
X120578026Y-66582125D01*
X120545860Y-66705120D01*
X120502125Y-66834212D01*
X120484834Y-66879443D01*
X120466733Y-66926987D01*
X120451993Y-66968346D01*
X120441606Y-67000509D01*
X120436566Y-67020463D01*
X120436674Y-67025499D01*
X120448759Y-67031065D01*
X120472832Y-67039612D01*
X120495279Y-67046716D01*
X120549363Y-67070621D01*
X120595986Y-67105825D01*
X120630448Y-67148481D01*
X120638581Y-67164045D01*
X120652980Y-67189214D01*
X120669623Y-67200382D01*
X120692587Y-67198404D01*
X120725950Y-67184137D01*
X120728386Y-67182901D01*
X120750057Y-67169474D01*
X120757268Y-67157057D01*
X120749191Y-67143634D01*
X120724997Y-67127188D01*
X120699997Y-67113801D01*
X120647836Y-67084753D01*
X120610515Y-67057507D01*
X120584894Y-67029070D01*
X120567835Y-66996446D01*
X120563285Y-66983418D01*
X120555227Y-66954515D01*
X120551685Y-66929227D01*
X120552377Y-66900617D01*
X120557024Y-66861750D01*
X120558061Y-66854492D01*
X120564860Y-66818143D01*
X120576160Y-66769399D01*
X120590627Y-66713533D01*
X120606931Y-66655822D01*
X120614951Y-66629228D01*
X120644110Y-66532845D01*
X120667421Y-66450780D01*
X120685485Y-66379895D01*
X120698897Y-66317053D01*
X120708257Y-66259115D01*
X120714163Y-66202942D01*
X120717212Y-66145398D01*
X120718008Y-66088437D01*
X120711832Y-65968302D01*
X120694019Y-65847600D01*
X120665599Y-65729327D01*
X120627602Y-65616476D01*
X120581059Y-65512045D01*
X120526999Y-65419026D01*
X120466454Y-65340417D01*
X120457260Y-65330458D01*
X120421915Y-65296890D01*
X120394162Y-65279423D01*
X120372933Y-65277687D01*
X120357162Y-65291313D01*
X120354978Y-65295071D01*
X120348786Y-65311911D01*
X120340212Y-65342133D01*
X120330570Y-65380882D01*
X120324197Y-65409046D01*
X120313126Y-65455867D01*
X120303698Y-65486013D01*
X120295266Y-65501275D01*
X120289820Y-65504065D01*
X120278102Y-65495884D01*
X120262818Y-65474116D01*
X120245993Y-65442922D01*
X120229652Y-65406461D01*
X120215820Y-65368896D01*
X120206523Y-65334386D01*
X120206047Y-65331940D01*
X120199455Y-65282520D01*
X120196394Y-65227156D01*
X120196771Y-65171481D01*
X120200492Y-65121129D01*
X120207467Y-65081732D01*
X120210290Y-65072584D01*
X120221197Y-65038773D01*
X120223731Y-65018579D01*
X120217513Y-65008817D01*
X120202369Y-65006299D01*
X120186927Y-65010678D01*
X120174815Y-65025563D01*
X120164720Y-65053577D01*
X120155328Y-65097344D01*
X120154539Y-65101768D01*
X120146232Y-65132487D01*
X120136184Y-65146472D01*
X120125730Y-65145343D01*
X120116206Y-65130717D01*
X120108947Y-65104213D01*
X120105289Y-65067451D01*
X120105341Y-65042162D01*
X120107911Y-64971029D01*
X120052435Y-64924772D01*
X119943280Y-64843520D01*
X119825054Y-64774636D01*
X119696453Y-64717632D01*
X119556168Y-64672020D01*
X119402892Y-64637310D01*
X119235319Y-64613014D01*
X119211458Y-64610498D01*
X119161500Y-64605202D01*
X119118072Y-64600127D01*
X119084555Y-64595707D01*
X119064333Y-64592372D01*
X119060116Y-64591165D01*
X119055255Y-64582899D01*
X119066038Y-64572925D01*
X119091344Y-64561533D01*
X119485237Y-64561533D01*
X119527105Y-64573662D01*
X119552251Y-64580993D01*
X119568431Y-64585798D01*
X119571299Y-64586705D01*
X119572149Y-64583944D01*
X119649913Y-64583944D01*
X119651621Y-64596828D01*
X119663320Y-64608034D01*
X119688565Y-64620614D01*
X119696433Y-64623929D01*
X119727185Y-64636670D01*
X119753296Y-64647525D01*
X119764358Y-64652149D01*
X119780839Y-64656309D01*
X119790741Y-64649635D01*
X119796219Y-64629225D01*
X119798502Y-64606226D01*
X119801574Y-64564358D01*
X119727142Y-64564358D01*
X119689971Y-64564752D01*
X119667491Y-64566597D01*
X119655791Y-64570883D01*
X119650959Y-64578603D01*
X119649913Y-64583944D01*
X119572149Y-64583944D01*
X119573361Y-64580007D01*
X119573625Y-64573662D01*
X119568720Y-64564850D01*
X119551627Y-64560958D01*
X119529431Y-64560619D01*
X119485237Y-64561533D01*
X119091344Y-64561533D01*
X119093465Y-64560578D01*
X119120288Y-64551098D01*
X119175367Y-64534558D01*
X119232072Y-64521513D01*
X119293950Y-64511470D01*
X119364551Y-64503937D01*
X119447422Y-64498420D01*
X119522453Y-64495213D01*
X119717838Y-64488344D01*
X119541061Y-64486817D01*
X119356892Y-64489778D01*
X119185234Y-64502330D01*
X119022345Y-64525005D01*
X118864484Y-64558334D01*
X118707907Y-64602850D01*
X118694395Y-64607213D01*
X118640632Y-64624759D01*
X118602088Y-64637277D01*
X118576257Y-64645401D01*
X118560634Y-64649768D01*
X118552712Y-64651013D01*
X118549986Y-64649771D01*
X118549949Y-64646679D01*
X118550182Y-64643789D01*
X118558536Y-64632209D01*
X118583317Y-64612980D01*
X118624105Y-64586353D01*
X118680477Y-64552577D01*
X118752014Y-64511904D01*
X118838295Y-64464584D01*
X118843108Y-64462014D01*
X118968864Y-64462014D01*
X118973516Y-64466666D01*
X118978168Y-64462014D01*
X118973516Y-64457362D01*
X118968864Y-64462014D01*
X118843108Y-64462014D01*
X118855808Y-64455233D01*
X118996819Y-64455233D01*
X119003723Y-64456637D01*
X119006080Y-64456565D01*
X119026026Y-64452561D01*
X119038644Y-64448058D01*
X119057252Y-64440062D01*
X119038644Y-64439550D01*
X119015803Y-64443535D01*
X119006080Y-64448058D01*
X118996819Y-64455233D01*
X118855808Y-64455233D01*
X118916390Y-64422885D01*
X119148586Y-64422885D01*
X119148946Y-64433677D01*
X119163012Y-64437733D01*
X119192802Y-64436506D01*
X119203790Y-64435458D01*
X119232283Y-64433202D01*
X119275038Y-64430611D01*
X119327718Y-64427911D01*
X119385983Y-64425327D01*
X119434744Y-64423458D01*
X119607547Y-64417339D01*
X119609240Y-64413116D01*
X119676953Y-64413116D01*
X119677685Y-64421847D01*
X119685030Y-64427315D01*
X119702221Y-64430994D01*
X119732489Y-64434360D01*
X119761855Y-64437190D01*
X119776817Y-64430502D01*
X119782438Y-64417820D01*
X119785267Y-64400758D01*
X119789695Y-64369592D01*
X119795126Y-64328695D01*
X119800961Y-64282441D01*
X119801189Y-64280585D01*
X119807482Y-64232754D01*
X119814041Y-64188712D01*
X119820086Y-64153374D01*
X119824799Y-64131782D01*
X119831913Y-64104483D01*
X119832705Y-64092634D01*
X119826473Y-64096468D01*
X119812516Y-64116217D01*
X119796919Y-64141025D01*
X119775053Y-64179385D01*
X119751384Y-64225509D01*
X119728008Y-64274777D01*
X119707021Y-64322568D01*
X119690518Y-64364262D01*
X119680596Y-64395240D01*
X119679604Y-64399647D01*
X119676953Y-64413116D01*
X119609240Y-64413116D01*
X119652664Y-64304787D01*
X119701709Y-64194518D01*
X119757757Y-64092656D01*
X119823258Y-63995658D01*
X119900659Y-63899983D01*
X119992411Y-63802086D01*
X120017022Y-63777688D01*
X120060631Y-63735288D01*
X120103052Y-63694566D01*
X120141214Y-63658431D01*
X120172047Y-63629791D01*
X120191327Y-63612541D01*
X120212367Y-63592900D01*
X120223879Y-63578873D01*
X120223390Y-63573479D01*
X120223346Y-63573479D01*
X120204171Y-63577210D01*
X120171536Y-63587523D01*
X120128826Y-63603102D01*
X120079430Y-63622630D01*
X120026733Y-63644788D01*
X119974123Y-63668260D01*
X119947280Y-63680856D01*
X119820620Y-63748476D01*
X119697042Y-63827924D01*
X119579714Y-63916631D01*
X119471806Y-64012029D01*
X119376486Y-64111548D01*
X119304418Y-64202044D01*
X119274985Y-64243028D01*
X119389670Y-64237216D01*
X119464251Y-64234887D01*
X119525587Y-64236005D01*
X119572401Y-64240450D01*
X119603416Y-64248098D01*
X119617356Y-64258828D01*
X119617426Y-64259006D01*
X119618748Y-64270357D01*
X119610933Y-64279190D01*
X119591308Y-64286763D01*
X119557204Y-64294334D01*
X119533430Y-64298591D01*
X119446913Y-64314549D01*
X119368214Y-64331290D01*
X119299219Y-64348282D01*
X119241816Y-64364992D01*
X119197891Y-64380889D01*
X119169331Y-64395442D01*
X119159914Y-64403907D01*
X119148586Y-64422885D01*
X118916390Y-64422885D01*
X118938897Y-64410867D01*
X118964212Y-64397531D01*
X118986765Y-64384873D01*
X118992538Y-64379412D01*
X118981456Y-64381167D01*
X118953448Y-64390155D01*
X118908440Y-64406395D01*
X118866519Y-64422188D01*
X118825261Y-64438982D01*
X118772872Y-64461919D01*
X118712738Y-64489363D01*
X118648241Y-64519677D01*
X118582764Y-64551224D01*
X118519692Y-64582368D01*
X118462407Y-64611472D01*
X118414294Y-64636900D01*
X118378734Y-64657015D01*
X118370442Y-64662138D01*
X118346674Y-64679054D01*
X118331621Y-64693138D01*
X118328577Y-64699687D01*
X118336932Y-64708969D01*
X118356693Y-64726115D01*
X118384226Y-64748038D01*
X118396561Y-64757424D01*
X118431107Y-64785574D01*
X118454708Y-64809395D01*
X118466106Y-64827179D01*
X118464047Y-64837221D01*
X118456474Y-64838827D01*
X118443244Y-64835000D01*
X118418136Y-64824831D01*
X118385922Y-64810292D01*
X118376260Y-64805698D01*
X118332701Y-64782134D01*
X118281503Y-64749485D01*
X118221587Y-64706949D01*
X118151873Y-64653725D01*
X118071282Y-64589015D01*
X117978733Y-64512016D01*
X117968680Y-64503527D01*
X117854956Y-64409019D01*
X117751518Y-64326742D01*
X117656146Y-64255148D01*
X117566617Y-64192690D01*
X117480712Y-64137819D01*
X117396209Y-64088990D01*
X117310887Y-64044654D01*
X117307915Y-64043193D01*
X117148756Y-63972613D01*
X116992444Y-63919045D01*
X116836071Y-63881800D01*
X116676731Y-63860194D01*
X116511515Y-63853541D01*
X116504002Y-63853582D01*
X116368387Y-63854564D01*
X116136153Y-63854564D01*
X116139637Y-63849120D01*
X116159096Y-63835428D01*
X116164055Y-63832481D01*
X116194117Y-63819029D01*
X116238031Y-63804648D01*
X116291159Y-63790475D01*
X116348861Y-63777649D01*
X116406497Y-63767309D01*
X116455710Y-63760945D01*
X116539657Y-63757120D01*
X116636466Y-63760179D01*
X116741975Y-63769493D01*
X116852021Y-63784433D01*
X116962442Y-63804372D01*
X117069075Y-63828682D01*
X117167758Y-63856734D01*
X117227754Y-63877460D01*
X117337610Y-63925375D01*
X117455308Y-63989448D01*
X117580948Y-64069751D01*
X117714632Y-64166357D01*
X117856462Y-64279340D01*
X118006540Y-64408773D01*
X118143156Y-64534120D01*
X118182025Y-64570063D01*
X118216821Y-64601036D01*
X118245077Y-64624939D01*
X118264327Y-64639670D01*
X118271508Y-64643442D01*
X118283315Y-64639177D01*
X118308521Y-64627345D01*
X118344245Y-64609388D01*
X118387604Y-64586751D01*
X118428577Y-64564763D01*
X118557962Y-64497151D01*
X118685416Y-64435694D01*
X118808069Y-64381633D01*
X118840115Y-64368973D01*
X119015384Y-64368973D01*
X119020036Y-64373625D01*
X119024688Y-64368973D01*
X119020036Y-64364321D01*
X119015384Y-64368973D01*
X118840115Y-64368973D01*
X118923052Y-64336208D01*
X119027494Y-64300660D01*
X119065218Y-64289611D01*
X119100256Y-64279367D01*
X119125460Y-64269318D01*
X119145197Y-64256033D01*
X119163832Y-64236081D01*
X119185730Y-64206030D01*
X119201981Y-64182127D01*
X119294580Y-64059274D01*
X119402594Y-63941351D01*
X119522917Y-63831505D01*
X119629450Y-63749049D01*
X119715269Y-63693518D01*
X119810103Y-63642401D01*
X119910324Y-63597030D01*
X120012302Y-63558736D01*
X120112407Y-63528850D01*
X120207010Y-63508704D01*
X120292483Y-63499629D01*
X120310421Y-63499248D01*
X120353962Y-63500625D01*
G37*
D16*
%TO.C,TOF2*%
X124668705Y-99637982D02*
X126468705Y-99637982D01*
X124668705Y-101237982D02*
X124668705Y-99637982D01*
X131338705Y-99637982D02*
X131338705Y-98697982D01*
X131868705Y-104107982D02*
X125938705Y-104107982D01*
X133138705Y-99637982D02*
X131338705Y-99637982D01*
X133138705Y-101237982D02*
X133138705Y-99637982D01*
D12*
%TO.C,LEDBLUE1*%
X133085000Y-77407982D02*
G75*
G02*
X132985000Y-77407982I-50000J0D01*
G01*
X132985000Y-77407982D02*
G75*
G02*
X133085000Y-77407982I50000J0D01*
G01*
D16*
%TO.C,C29*%
X148043705Y-82575818D02*
X148043705Y-82360146D01*
X148763705Y-82575818D02*
X148763705Y-82360146D01*
%TO.C,TOF1*%
X141175398Y-70460364D02*
X142075398Y-72019210D01*
X142075398Y-72019210D02*
X141261334Y-72489210D01*
X142561038Y-69660364D02*
X141175398Y-70460364D01*
X145410398Y-77795600D02*
X144510398Y-76236754D01*
X145681531Y-69325217D02*
X148646531Y-74460747D01*
X146796038Y-76995600D02*
X145410398Y-77795600D01*
%TO.C,U1*%
X128793705Y-79987982D02*
X137013705Y-79987982D01*
X128793705Y-87207982D02*
X128793705Y-79987982D01*
X137013705Y-79987982D02*
X137013705Y-88207982D01*
X137013705Y-88207982D02*
X129793705Y-88207982D01*
X128793705Y-88707982D02*
X128293705Y-88207982D01*
X128793705Y-88207982D01*
X128793705Y-88707982D01*
G36*
X128793705Y-88707982D02*
G01*
X128293705Y-88207982D01*
X128793705Y-88207982D01*
X128793705Y-88707982D01*
G37*
%TO.C,USBJUMP1*%
X132243705Y-71587982D02*
X132293705Y-71587982D01*
X132243705Y-74107982D02*
X132243705Y-71587982D01*
X132243705Y-74107982D02*
X132293705Y-74107982D01*
X132293705Y-75437982D02*
X132293705Y-74107982D01*
X136413705Y-71587982D02*
X136463705Y-71587982D01*
X136413705Y-74107982D02*
X136463705Y-74107982D01*
X136463705Y-74107982D02*
X136463705Y-71587982D01*
D14*
%TO.C,D3*%
X124673705Y-71757982D02*
X123013705Y-71757982D01*
X125525705Y-73037982D02*
X123013705Y-73037982D01*
%TO.C,D2*%
X124633705Y-73657982D02*
X122973705Y-73657982D01*
X125485705Y-74937982D02*
X122973705Y-74937982D01*
D12*
%TO.C,LEDRED2*%
X119690000Y-92770000D02*
G75*
G02*
X119590000Y-92770000I-50000J0D01*
G01*
X119590000Y-92770000D02*
G75*
G02*
X119690000Y-92770000I50000J0D01*
G01*
D16*
%TO.C,C43*%
X133468705Y-96275000D02*
X133468705Y-97925000D01*
X133468705Y-97925000D02*
X135788705Y-97925000D01*
X135788705Y-96275000D02*
X133468705Y-96275000D01*
D12*
%TO.C,IC5*%
X126743705Y-96995982D02*
X126743705Y-96995982D01*
X126743705Y-97095982D02*
X126743705Y-97095982D01*
X126743705Y-96995982D02*
G75*
G02*
X126743705Y-97095982I0J-50000D01*
G01*
X126743705Y-97095982D02*
G75*
G02*
X126743705Y-96995982I0J50000D01*
G01*
D13*
%TO.C,IC6*%
X134703705Y-92347982D02*
G75*
G02*
X134453705Y-92347982I-125000J0D01*
G01*
X134453705Y-92347982D02*
G75*
G02*
X134703705Y-92347982I125000J0D01*
G01*
%TO.C,IC3*%
X123800000Y-92515000D02*
G75*
G02*
X123550000Y-92515000I-125000J0D01*
G01*
X123550000Y-92515000D02*
G75*
G02*
X123800000Y-92515000I125000J0D01*
G01*
D16*
%TO.C,C26*%
X147143705Y-79555818D02*
X147143705Y-79340146D01*
X147863705Y-79555818D02*
X147863705Y-79340146D01*
%TO.C,C21*%
X126743705Y-74060146D02*
X126743705Y-74275818D01*
X127463705Y-74060146D02*
X127463705Y-74275818D01*
D12*
%TO.C,J5*%
X139470874Y-95286417D02*
X139470874Y-95286417D01*
X139557476Y-95336417D02*
X139557476Y-95336417D01*
D14*
X140139423Y-97404455D02*
X142184975Y-98585455D01*
X140539423Y-96711635D02*
X140139423Y-97404455D01*
X144420031Y-98490224D02*
X150120031Y-88617535D01*
X146739423Y-85972919D02*
X147139423Y-85280099D01*
X147139423Y-85280099D02*
X149184975Y-86461099D01*
D12*
X139470874Y-95286417D02*
G75*
G02*
X139557476Y-95336417I43301J-25000D01*
G01*
X139557476Y-95336417D02*
G75*
G02*
X139470875Y-95286418I-43301J24999D01*
G01*
D14*
%TO.C,S2*%
X137466205Y-75847982D02*
X137466205Y-73847982D01*
D12*
X137866205Y-77247982D02*
X137866205Y-77247982D01*
X137966205Y-77247982D02*
X137966205Y-77247982D01*
D14*
X140066205Y-75847982D02*
X140066205Y-73847982D01*
D12*
X137866205Y-77247982D02*
G75*
G02*
X137966205Y-77247982I50000J0D01*
G01*
X137966205Y-77247982D02*
G75*
G02*
X137866205Y-77247982I-50000J0D01*
G01*
D13*
%TO.C,IC4*%
X144628705Y-83497982D02*
G75*
G02*
X144378705Y-83497982I-125000J0D01*
G01*
X144378705Y-83497982D02*
G75*
G02*
X144628705Y-83497982I125000J0D01*
G01*
D14*
%TO.C,D1*%
X130110000Y-72130000D02*
X128910000Y-72130000D01*
D12*
%TO.C,LED1*%
X141178705Y-84822982D02*
X141178705Y-84822982D01*
X141178705Y-84922982D02*
X141178705Y-84922982D01*
X141178705Y-84822982D02*
G75*
G02*
X141178705Y-84922982I0J-50000D01*
G01*
X141178705Y-84922982D02*
G75*
G02*
X141178705Y-84822982I0J50000D01*
G01*
D16*
%TO.C,LIDAR1*%
X111411372Y-88800364D02*
X112797012Y-88000364D01*
X112525879Y-96470747D02*
X109560879Y-91335217D01*
X112797012Y-88000364D02*
X113697012Y-89559210D01*
X115646372Y-96135600D02*
X117032012Y-95335600D01*
X116132012Y-93776754D02*
X116946076Y-93306754D01*
X117032012Y-95335600D02*
X116132012Y-93776754D01*
D13*
%TO.C,IC7*%
X127003705Y-77472982D02*
G75*
G02*
X126753705Y-77472982I-125000J0D01*
G01*
X126753705Y-77472982D02*
G75*
G02*
X127003705Y-77472982I125000J0D01*
G01*
D16*
%TO.C,C32*%
X145123705Y-83320146D02*
X145123705Y-83535818D01*
X145843705Y-83320146D02*
X145843705Y-83535818D01*
D13*
%TO.C,IC2*%
X131178705Y-73072982D02*
G75*
G02*
X130928705Y-73072982I-125000J0D01*
G01*
X130928705Y-73072982D02*
G75*
G02*
X131178705Y-73072982I125000J0D01*
G01*
D12*
%TO.C,LEDGREEN1*%
X133085000Y-78520000D02*
G75*
G02*
X132985000Y-78520000I-50000J0D01*
G01*
X132985000Y-78520000D02*
G75*
G02*
X133085000Y-78520000I50000J0D01*
G01*
D16*
%TO.C,C23*%
X126743705Y-76135818D02*
X126743705Y-75920146D01*
X127463705Y-76135818D02*
X127463705Y-75920146D01*
%TO.C,C24*%
X122950000Y-98727836D02*
X122950000Y-98512164D01*
X123670000Y-98727836D02*
X123670000Y-98512164D01*
%TD*%
M02*
