M48
; DRILL file {KiCad 9.0.3} date 2025-09-25T19:13:58+0200
; FORMAT={-:-/ absolute / metric / decimal}
; #@! TF.CreationDate,2025-09-25T19:13:58+02:00
; #@! TF.GenerationSoftware,Kicad,Pcbnew,9.0.3
; #@! TF.FileFunction,Plated,1,6,PTH
FMAT,2
METRIC
; #@! TA.AperFunction,Plated,PTH,ViaDrill
T1C0.300
; #@! TA.AperFunction,Plated,PTH,ComponentDrill
T2C0.500
; #@! TA.AperFunction,Plated,PTH,ComponentDrill
T3C1.000
; #@! TA.AperFunction,Plated,PTH,ComponentDrill
T4C1.700
; #@! TA.AperFunction,Plated,PTH,ComponentDrill
T5C2.500
%
G90
G05
T1
X104.446Y-83.011
X104.807Y-83.636
X104.817Y-82.384
X105.168Y-84.261
X105.178Y-81.759
X105.529Y-84.887
X105.539Y-81.133
X105.89Y-85.512
X105.9Y-80.508
X106.251Y-86.137
X106.261Y-79.883
X106.612Y-86.762
X106.622Y-79.258
X106.973Y-87.388
X106.983Y-78.632
X107.334Y-88.013
X107.344Y-78.007
X107.695Y-88.638
X108.056Y-89.264
X108.07Y-77.7
X108.13Y-79.86
X108.417Y-89.889
X108.778Y-90.514
X108.9Y-75.9
X109.139Y-91.139
X109.272Y-77.487
X109.5Y-91.765
X109.66Y-78.81
X109.73Y-76.342
X109.861Y-92.39
X110.03Y-85.4
X110.222Y-93.015
X110.229Y-90.072
X110.304Y-79.196
X110.5Y-76.8
X110.63Y-86.12
X110.944Y-94.266
X111.139Y-72.289
X111.23Y-84.82
X111.25Y-84.1
X111.305Y-94.891
X111.44Y-77.75
X111.49Y-81.42
X111.49Y-82.26
X111.666Y-95.516
X111.676Y-70.504
X111.72Y-79.11
X111.954Y-72.814
X112.0Y-75.6
X112.037Y-69.879
X112.23Y-91.61
X112.25Y-76.95
X112.3Y-74.45
X112.388Y-96.767
X112.4Y-92.45
X112.479Y-73.139
X112.5Y-75.9
X112.65Y-73.75
X112.68Y-72.38
X112.704Y-77.794
X112.749Y-97.392
X112.759Y-68.628
X112.9Y-93.2
X113.1Y-73.1
X113.1Y-78.81
X113.11Y-98.017
X113.12Y-68.003
X113.33Y-91.32
X113.455Y-69.89
X113.65Y-67.53
X113.65Y-72.25
X113.7Y-77.775
X113.954Y-96.524
X114.05Y-71.55
X114.055Y-89.999
X114.222Y-68.913
X114.3Y-70.4
X114.42Y-67.18
X114.73Y-81.825
X114.73Y-84.015
X114.73Y-87.48
X114.74Y-71.47
X114.89Y-100.988
X115.276Y-101.769
X115.4Y-89.2
X115.41Y-69.36
X115.46Y-68.47
X115.465Y-64.395
X115.465Y-65.12
X115.465Y-65.845
X115.465Y-67.3
X115.515Y-96.68
X115.515Y-97.405
X115.515Y-98.855
X115.515Y-100.305
X115.515Y-101.03
X115.637Y-102.394
X115.998Y-103.019
X116.094Y-80.806
X116.094Y-81.506
X116.094Y-82.206
X116.24Y-96.68
X116.359Y-103.645
X116.44Y-69.48
X116.72Y-104.27
X116.73Y-61.75
X116.794Y-80.806
X116.794Y-81.506
X116.794Y-82.206
X116.915Y-62.945
X116.965Y-103.205
X117.442Y-104.27
X117.45Y-61.751
X117.494Y-80.806
X117.494Y-81.506
X117.494Y-82.206
X117.64Y-62.945
X117.64Y-69.47
X117.69Y-96.68
X117.69Y-103.205
X118.164Y-104.27
X118.172Y-61.751
X118.194Y-80.806
X118.194Y-81.506
X118.194Y-82.206
X118.365Y-62.945
X118.365Y-69.47
X118.415Y-96.68
X118.415Y-103.205
X118.6Y-62.11
X118.79Y-103.67
X118.886Y-104.27
X119.09Y-62.945
X119.09Y-69.47
X119.14Y-96.68
X119.16Y-103.21
X119.375Y-88.475
X119.815Y-62.945
X119.815Y-69.47
X119.865Y-96.68
X120.338Y-61.751
X120.54Y-69.47
X120.59Y-96.68
X120.6Y-80.7
X120.86Y-78.33
X120.89Y-77.57
X121.04Y-103.21
X121.052Y-104.27
X121.06Y-61.751
X121.07Y-79.12
X121.08Y-81.87
X121.1Y-75.4
X121.1Y-76.1
X121.1Y-81.2
X121.225Y-89.2
X121.265Y-62.945
X121.265Y-69.47
X121.37Y-87.5
X121.59Y-92.58
X121.774Y-104.27
X121.782Y-61.751
X121.8Y-75.4
X121.8Y-76.1
X121.99Y-62.945
X121.99Y-63.67
X121.99Y-65.12
X121.99Y-65.845
X121.99Y-66.57
X121.99Y-67.295
X121.99Y-68.02
X121.99Y-68.745
X121.99Y-69.47
X122.04Y-98.13
X122.04Y-98.855
X122.04Y-99.58
X122.04Y-100.305
X122.04Y-101.03
X122.05Y-97.4
X122.05Y-102.23
X122.075Y-92.94
X122.4Y-73.5
X122.454Y-80.45
X122.454Y-81.85
X122.454Y-82.55
X122.49Y-65.93
X122.496Y-104.27
X122.5Y-75.4
X122.5Y-76.1
X122.504Y-61.751
X122.8Y-89.3
X123.054Y-80.45
X123.054Y-81.85
X123.054Y-82.55
X123.1Y-73.5
X123.19Y-63.075
X123.19Y-63.775
X123.19Y-66.305
X123.19Y-67.005
X123.19Y-67.705
X123.218Y-104.27
X123.226Y-61.751
X123.56Y-95.71
X123.6Y-102.0
X123.6Y-102.8
X123.63Y-91.53
X123.63Y-92.77
X123.7Y-82.7
X123.7Y-83.35
X123.89Y-63.075
X123.89Y-63.775
X123.89Y-66.305
X123.89Y-67.005
X123.89Y-67.705
X123.94Y-104.27
X123.948Y-61.751
X123.95Y-75.1
X123.95Y-75.7
X124.0Y-73.5
X124.0Y-74.2
X124.19Y-100.81
X124.4Y-102.0
X124.4Y-102.8
X124.59Y-63.075
X124.59Y-63.775
X124.59Y-66.305
X124.59Y-67.005
X124.59Y-67.705
X124.66Y-91.91
X124.662Y-104.27
X124.67Y-61.751
X124.7Y-73.5
X124.7Y-74.2
X124.7Y-88.3
X124.75Y-90.62
X125.2Y-102.0
X125.2Y-102.8
X125.3Y-88.3
X125.379Y-63.248
X125.384Y-104.27
X125.392Y-61.751
X125.4Y-73.5
X125.4Y-74.2
X126.05Y-75.1
X126.05Y-75.7
X126.106Y-104.27
X126.114Y-61.751
X126.17Y-91.748
X126.5Y-102.15
X126.75Y-92.626
X126.828Y-104.27
X126.836Y-61.751
X127.01Y-83.14
X127.104Y-75.548
X127.3Y-69.6
X127.53Y-90.69
X127.544Y-87.148
X127.55Y-102.15
X127.55Y-104.27
X127.558Y-61.751
X127.57Y-91.62
X127.62Y-90.001
X127.7Y-64.8
X127.92Y-87.98
X128.0Y-92.6
X128.2Y-86.4
X128.25Y-97.15
X128.272Y-104.27
X128.28Y-61.751
X128.5Y-64.8
X128.504Y-76.398
X128.65Y-92.6
X128.654Y-74.548
X128.654Y-75.348
X128.69Y-91.74
X128.8Y-88.1
X128.8Y-102.15
X128.98Y-76.098
X128.98Y-76.76
X128.994Y-104.27
X129.002Y-61.751
X129.28Y-92.74
X129.3Y-97.15
X129.304Y-84.498
X129.304Y-85.298
X129.304Y-86.098
X129.4Y-64.8
X129.454Y-76.398
X129.716Y-104.27
X129.724Y-61.751
X129.8Y-102.1
X129.9Y-69.6
X129.944Y-92.068
X129.944Y-92.708
X130.104Y-82.098
X130.104Y-82.898
X130.104Y-83.698
X130.104Y-85.298
X130.104Y-86.898
X130.254Y-74.548
X130.254Y-75.348
X130.438Y-104.27
X130.446Y-61.751
X130.49Y-81.65
X130.5Y-70.9
X130.5Y-80.9
X130.591Y-78.468
X130.774Y-92.068
X130.774Y-92.708
X130.829Y-102.809
X130.85Y-102.15
X130.904Y-82.898
X130.904Y-86.898
X130.92Y-77.0
X131.16Y-104.27
X131.168Y-61.751
X131.3Y-70.9
X131.323Y-82.477
X131.325Y-81.7
X131.35Y-83.3
X131.704Y-80.498
X131.704Y-84.498
X131.704Y-85.298
X131.704Y-86.098
X131.704Y-86.898
X131.74Y-90.8
X131.8Y-75.6
X131.8Y-76.4
X131.85Y-74.15
X131.882Y-104.27
X131.89Y-61.751
X131.95Y-73.53
X132.5Y-92.3
X132.504Y-80.498
X132.504Y-82.898
X132.504Y-83.698
X132.504Y-84.498
X132.504Y-85.298
X132.504Y-86.098
X132.504Y-86.898
X132.504Y-87.698
X132.6Y-102.1
X132.6Y-102.9
X132.604Y-104.27
X132.612Y-61.751
X132.829Y-63.248
X132.9Y-80.902
X133.05Y-91.86
X133.304Y-80.498
X133.304Y-82.098
X133.304Y-83.698
X133.304Y-84.498
X133.304Y-85.298
X133.304Y-87.698
X133.326Y-104.27
X133.334Y-61.751
X133.4Y-102.1
X133.4Y-102.9
X133.41Y-63.075
X133.41Y-63.775
X133.41Y-66.305
X133.41Y-67.005
X133.41Y-67.705
X133.574Y-94.238
X133.589Y-78.528
X133.594Y-77.408
X133.6Y-91.29
X133.7Y-80.9
X133.7Y-81.7
X133.73Y-84.85
X133.8Y-79.4
X133.884Y-89.298
X134.0Y-98.6
X134.048Y-104.27
X134.056Y-61.751
X134.1Y-76.6
X134.104Y-80.498
X134.104Y-86.898
X134.104Y-87.698
X134.11Y-63.075
X134.11Y-63.775
X134.11Y-66.305
X134.11Y-67.005
X134.11Y-67.705
X134.2Y-95.84
X134.2Y-102.1
X134.2Y-102.9
X134.25Y-92.4
X134.25Y-94.1
X134.4Y-90.3
X134.5Y-81.7
X134.6Y-98.6
X134.77Y-104.27
X134.778Y-61.751
X134.81Y-63.075
X134.81Y-63.775
X134.81Y-66.305
X134.81Y-67.005
X134.81Y-67.705
X134.844Y-89.298
X134.9Y-92.075
X134.904Y-80.498
X134.904Y-86.898
X134.904Y-87.698
X135.12Y-95.19
X135.304Y-83.398
X135.35Y-91.55
X135.492Y-104.27
X135.5Y-61.751
X135.51Y-98.08
X135.704Y-80.498
X135.704Y-87.698
X135.704Y-89.4
X135.925Y-69.127
X136.05Y-84.1
X136.054Y-93.448
X136.054Y-94.248
X136.1Y-87.3
X136.214Y-104.27
X136.222Y-61.751
X136.445Y-91.555
X136.504Y-80.498
X136.504Y-82.098
X136.504Y-86.898
X136.504Y-87.698
X136.55Y-97.81
X136.6Y-90.3
X136.63Y-96.4
X136.664Y-89.298
X136.85Y-84.1
X136.854Y-93.448
X136.854Y-94.248
X136.936Y-104.27
X136.944Y-61.751
X137.35Y-82.2
X137.49Y-80.58
X137.625Y-70.1
X137.658Y-104.27
X137.666Y-61.751
X137.775Y-82.725
X137.9Y-92.375
X137.95Y-95.25
X137.95Y-95.8
X138.225Y-82.2
X138.3Y-79.325
X138.354Y-80.768
X138.38Y-104.27
X138.388Y-61.751
X138.88Y-95.48
X138.9Y-83.4
X138.9Y-84.2
X138.9Y-90.3
X138.9Y-93.5
X139.102Y-104.27
X139.11Y-61.751
X139.175Y-89.0
X139.41Y-69.7
X139.41Y-70.5
X139.41Y-71.3
X139.6Y-85.7
X139.616Y-73.273
X139.824Y-104.27
X139.832Y-61.751
X140.004Y-79.398
X140.004Y-80.198
X140.004Y-81.798
X140.004Y-82.598
X140.21Y-69.7
X140.21Y-70.5
X140.21Y-71.3
X140.31Y-93.85
X140.454Y-86.598
X140.546Y-104.27
X140.554Y-61.751
X140.725Y-89.0
X140.75Y-90.275
X140.804Y-79.398
X140.804Y-80.998
X140.804Y-82.598
X141.01Y-69.7
X141.01Y-70.5
X141.01Y-71.3
X141.025Y-85.725
X141.27Y-104.27
X141.276Y-61.751
X141.454Y-84.478
X141.5Y-89.7
X141.6Y-91.325
X141.604Y-80.198
X141.604Y-80.998
X141.604Y-81.798
X141.608Y-94.211
X141.631Y-103.645
X141.637Y-62.376
X141.75Y-76.05
X141.924Y-86.683
X141.992Y-103.019
X141.998Y-63.001
X142.1Y-75.6
X142.1Y-90.0
X142.108Y-93.345
X142.35Y-76.1
X142.353Y-102.394
X142.359Y-63.627
X142.404Y-79.398
X142.404Y-80.998
X142.404Y-82.598
X142.7Y-84.65
X142.714Y-101.769
X142.72Y-64.252
X143.075Y-101.144
X143.081Y-64.877
X143.1Y-86.9
X143.1Y-89.05
X143.181Y-68.188
X143.204Y-79.398
X143.204Y-80.198
X143.204Y-81.798
X143.204Y-82.598
X143.314Y-99.006
X143.354Y-83.498
X143.4Y-69.7
X143.436Y-100.518
X143.442Y-65.502
X143.65Y-93.2
X143.797Y-99.893
X143.803Y-66.128
X143.9Y-86.9
X143.914Y-86.003
X143.94Y-78.69
X144.0Y-71.6
X144.0Y-83.3
X144.0Y-94.7
X144.104Y-80.748
X144.108Y-89.881
X144.158Y-99.268
X144.164Y-66.753
X144.224Y-83.998
X144.254Y-69.272
X144.5Y-72.45
X144.519Y-98.643
X144.525Y-67.378
X144.694Y-95.089
X144.764Y-85.92
X144.8Y-81.3
X144.85Y-79.725
X144.88Y-98.017
X144.886Y-68.004
X144.9Y-82.3
X145.1Y-73.35
X145.241Y-97.392
X145.247Y-68.629
X145.4Y-75.875
X145.4Y-95.5
X145.5Y-85.2
X145.6Y-82.3
X145.602Y-96.767
X145.604Y-79.878
X145.608Y-69.254
X145.7Y-74.15
X145.775Y-79.05
X145.9Y-83.7
X145.963Y-96.141
X145.969Y-69.879
X146.25Y-85.525
X146.3Y-82.3
X146.324Y-95.516
X146.33Y-70.505
X146.35Y-75.05
X146.36Y-88.5
X146.5Y-90.4
X146.6Y-78.7
X146.6Y-83.7
X146.685Y-94.891
X146.691Y-71.13
X147.0Y-82.3
X147.046Y-94.266
X147.052Y-71.755
X147.169Y-90.802
X147.3Y-76.1
X147.3Y-83.7
X147.407Y-93.64
X147.413Y-72.38
X147.504Y-78.968
X147.7Y-82.3
X147.768Y-93.015
X147.774Y-73.006
X147.9Y-83.7
X147.9Y-91.2
X147.979Y-75.724
X148.0Y-79.9
X148.025Y-78.4
X148.129Y-92.39
X148.131Y-76.762
X148.135Y-73.631
X148.2Y-86.4
X148.4Y-81.4
X148.41Y-88.51
X148.49Y-91.765
X148.496Y-74.256
X148.554Y-78.968
X148.6Y-83.7
X148.851Y-91.139
X148.857Y-74.881
X149.1Y-82.0
X149.212Y-90.514
X149.218Y-75.507
X149.247Y-83.924
X149.35Y-79.9
X149.573Y-89.889
X149.579Y-76.132
X149.692Y-88.381
X149.8Y-82.0
X149.8Y-83.9
X149.94Y-76.757
X149.96Y-89.28
X150.0Y-81.2
X150.0Y-84.7
X150.114Y-87.228
X150.301Y-77.383
X150.656Y-88.013
X150.662Y-78.008
X150.7Y-81.2
X150.7Y-84.7
X151.017Y-87.388
X151.023Y-78.633
X151.378Y-86.762
X151.384Y-79.258
X151.4Y-81.2
X151.4Y-84.7
X151.739Y-86.137
X151.745Y-79.884
X152.1Y-81.2
X152.1Y-81.9
X152.1Y-82.6
X152.1Y-83.3
X152.1Y-84.0
X152.1Y-84.7
X152.1Y-85.512
X152.106Y-80.509
X152.822Y-84.261
X152.828Y-81.759
X153.183Y-83.636
X153.189Y-82.385
X153.55Y-83.01
T2
X106.125Y-83.0
X106.674Y-81.674
X106.674Y-84.326
X108.0Y-81.125
X108.0Y-84.875
X109.326Y-81.674
X109.326Y-84.326
X109.875Y-83.0
X137.625Y-64.813
X137.625Y-101.187
X138.174Y-63.488
X138.174Y-66.139
X138.174Y-99.861
X138.174Y-102.512
X139.5Y-62.938
X139.5Y-66.688
X139.5Y-99.312
X139.5Y-103.062
X140.826Y-63.488
X140.826Y-66.139
X140.826Y-99.861
X140.826Y-102.512
X141.375Y-64.813
X141.375Y-101.187
T3
X109.013Y-88.879
X114.513Y-98.405
T4
X119.174Y-86.477
X121.674Y-90.807
T5
X108.0Y-83.0
X139.5Y-64.813
X139.5Y-101.187
M30
