%TF.GenerationSoftware,KiCad,Pcbnew,9.0.3*%
%TF.CreationDate,2025-09-25T19:14:03+02:00*%
%TF.ProjectId,PCB_PAPI,5043425f-5041-4504-992e-6b696361645f,rev?*%
%TF.SameCoordinates,Original*%
%TF.FileFunction,Paste,Top*%
%TF.FilePolarity,Positive*%
%FSLAX46Y46*%
G04 Gerber Fmt 4.6, Leading zero omitted, Abs format (unit mm)*
G04 Created by KiCad (PCBNEW 9.0.3) date 2025-09-25 19:14:03*
%MOMM*%
%LPD*%
G01*
G04 APERTURE LIST*
G04 Aperture macros list*
%AMRoundRect*
0 Rectangle with rounded corners*
0 $1 Rounding radius*
0 $2 $3 $4 $5 $6 $7 $8 $9 X,Y pos of 4 corners*
0 Add a 4 corners polygon primitive as box body*
4,1,4,$2,$3,$4,$5,$6,$7,$8,$9,$2,$3,0*
0 Add four circle primitives for the rounded corners*
1,1,$1+$1,$2,$3*
1,1,$1+$1,$4,$5*
1,1,$1+$1,$6,$7*
1,1,$1+$1,$8,$9*
0 Add four rect primitives between the rounded corners*
20,1,$1+$1,$2,$3,$4,$5,0*
20,1,$1+$1,$4,$5,$6,$7,0*
20,1,$1+$1,$6,$7,$8,$9,0*
20,1,$1+$1,$8,$9,$2,$3,0*%
%AMRotRect*
0 Rectangle, with rotation*
0 The origin of the aperture is its center*
0 $1 length*
0 $2 width*
0 $3 Rotation angle, in degrees counterclockwise*
0 Add horizontal line*
21,1,$1,$2,0,0,$3*%
G04 Aperture macros list end*
%ADD10R,0.400000X1.900000*%
%ADD11R,0.405000X0.990000*%
%ADD12R,0.405000X0.510000*%
%ADD13R,2.235000X1.725000*%
%ADD14R,0.077000X0.250000*%
%ADD15RoundRect,0.079500X0.100500X-0.079500X0.100500X0.079500X-0.100500X0.079500X-0.100500X-0.079500X0*%
%ADD16RoundRect,0.079500X-0.100500X0.079500X-0.100500X-0.079500X0.100500X-0.079500X0.100500X0.079500X0*%
%ADD17R,1.000000X0.550000*%
%ADD18R,0.650000X0.600000*%
%ADD19R,0.350000X0.700000*%
%ADD20RoundRect,0.147500X0.147500X0.172500X-0.147500X0.172500X-0.147500X-0.172500X0.147500X-0.172500X0*%
%ADD21RoundRect,0.140000X0.140000X0.170000X-0.140000X0.170000X-0.140000X-0.170000X0.140000X-0.170000X0*%
%ADD22RoundRect,0.150000X0.531218X-0.479904X0.681218X-0.220096X-0.531218X0.479904X-0.681218X0.220096X0*%
%ADD23RoundRect,0.250000X0.870929X-0.791506X1.120929X-0.358494X-0.870929X0.791506X-1.120929X0.358494X0*%
%ADD24RoundRect,0.150000X0.150000X0.425000X-0.150000X0.425000X-0.150000X-0.425000X0.150000X-0.425000X0*%
%ADD25RoundRect,0.075000X0.075000X0.500000X-0.075000X0.500000X-0.075000X-0.500000X0.075000X-0.500000X0*%
%ADD26RoundRect,0.250000X0.840000X0.750000X-0.840000X0.750000X-0.840000X-0.750000X0.840000X-0.750000X0*%
%ADD27RoundRect,0.140000X0.170000X-0.140000X0.170000X0.140000X-0.170000X0.140000X-0.170000X-0.140000X0*%
%ADD28RoundRect,0.079500X0.079500X0.100500X-0.079500X0.100500X-0.079500X-0.100500X0.079500X-0.100500X0*%
%ADD29R,2.200000X1.050000*%
%ADD30R,1.050000X1.000000*%
%ADD31RoundRect,0.079500X-0.079500X-0.100500X0.079500X-0.100500X0.079500X0.100500X-0.079500X0.100500X0*%
%ADD32RoundRect,0.150000X0.150000X0.700000X-0.150000X0.700000X-0.150000X-0.700000X0.150000X-0.700000X0*%
%ADD33RoundRect,0.250000X0.250000X1.150000X-0.250000X1.150000X-0.250000X-1.150000X0.250000X-1.150000X0*%
%ADD34RoundRect,0.147500X-0.147500X-0.172500X0.147500X-0.172500X0.147500X0.172500X-0.147500X0.172500X0*%
%ADD35RoundRect,0.150000X-0.681218X-0.220096X-0.531218X-0.479904X0.681218X0.220096X0.531218X0.479904X0*%
%ADD36RoundRect,0.250000X-1.120929X-0.358494X-0.870929X-0.791506X1.120929X0.358494X0.870929X0.791506X0*%
%ADD37C,0.400002*%
%ADD38R,0.750000X0.550000*%
%ADD39R,0.500000X2.000000*%
%ADD40R,1.085000X0.550000*%
%ADD41RoundRect,0.147500X-0.172500X0.147500X-0.172500X-0.147500X0.172500X-0.147500X0.172500X0.147500X0*%
%ADD42RoundRect,0.250000X-0.295000X-0.315000X0.295000X-0.315000X0.295000X0.315000X-0.295000X0.315000X0*%
%ADD43R,0.550000X1.145000*%
%ADD44R,1.145000X0.550000*%
%ADD45R,0.850000X0.300000*%
%ADD46R,0.300000X0.850000*%
%ADD47R,1.250000X1.250000*%
%ADD48R,2.500000X1.700000*%
%ADD49RoundRect,0.140000X-0.170000X0.140000X-0.170000X-0.140000X0.170000X-0.140000X0.170000X0.140000X0*%
%ADD50RotRect,0.600000X1.550000X60.000000*%
%ADD51RotRect,1.200000X1.800000X60.000000*%
%ADD52R,0.600000X0.650000*%
%ADD53R,0.700000X0.350000*%
%ADD54R,0.800000X0.300000*%
%ADD55R,0.300000X0.800000*%
%ADD56R,3.750000X3.750000*%
%ADD57R,1.200000X0.400000*%
%ADD58R,0.900000X0.900000*%
%ADD59RoundRect,0.150000X0.681218X0.220096X0.531218X0.479904X-0.681218X-0.220096X-0.531218X-0.479904X0*%
%ADD60RoundRect,0.250000X1.120929X0.358494X0.870929X0.791506X-1.120929X-0.358494X-0.870929X-0.791506X0*%
%ADD61R,0.450000X0.950000*%
%ADD62R,4.350000X3.450000*%
G04 APERTURE END LIST*
D10*
%TO.C,Y1*%
X128703705Y-90297982D03*
X129903705Y-90297982D03*
X131103705Y-90297982D03*
%TD*%
D11*
%TO.C,Q3*%
X116153705Y-83497982D03*
X116813705Y-83497982D03*
X117473705Y-83497982D03*
X118133705Y-83497982D03*
D12*
X118133705Y-80387982D03*
X117473705Y-80387982D03*
X116813705Y-80387982D03*
X116153705Y-80387982D03*
D13*
X117143705Y-81505982D03*
D14*
X118299705Y-80767982D03*
X115987705Y-80767982D03*
%TD*%
D15*
%TO.C,R44*%
X114730000Y-84680000D03*
X114730000Y-83990000D03*
%TD*%
D16*
%TO.C,R43*%
X114730000Y-81160000D03*
X114730000Y-81850000D03*
%TD*%
%TO.C,R42*%
X114730000Y-86815000D03*
X114730000Y-87505000D03*
%TD*%
%TO.C,R41*%
X114720000Y-82570000D03*
X114720000Y-83260000D03*
%TD*%
%TO.C,R40*%
X114730000Y-79760000D03*
X114730000Y-80450000D03*
%TD*%
%TO.C,R39*%
X114730000Y-85400000D03*
X114730000Y-86090000D03*
%TD*%
D17*
%TO.C,Q5*%
X113610000Y-83980000D03*
X113610000Y-82680000D03*
X111710000Y-83330000D03*
%TD*%
%TO.C,Q4*%
X113610000Y-81270000D03*
X113610000Y-79970000D03*
X111710000Y-80620000D03*
%TD*%
%TO.C,Q2*%
X113630000Y-86680000D03*
X113630000Y-85380000D03*
X111730000Y-86030000D03*
%TD*%
D18*
%TO.C,S1*%
X123668705Y-88287982D03*
X126818705Y-88287982D03*
X123668705Y-89987982D03*
X126818705Y-89987982D03*
D19*
X123518705Y-89137982D03*
X126968705Y-89137982D03*
%TD*%
D20*
%TO.C,LEDRED1*%
X130591205Y-78467982D03*
X129621205Y-78467982D03*
%TD*%
D16*
%TO.C,R19*%
X140753705Y-76702982D03*
X140753705Y-77392982D03*
%TD*%
D21*
%TO.C,C45*%
X137943705Y-97137982D03*
X136983705Y-97137982D03*
%TD*%
D15*
%TO.C,C28*%
X146603705Y-79992982D03*
X146603705Y-79302982D03*
%TD*%
D22*
%TO.C,TOF3*%
X113556269Y-76415081D03*
X114181269Y-75332549D03*
X114806269Y-74250017D03*
X115431269Y-73167485D03*
D23*
X109730083Y-76342228D03*
X113455083Y-69890338D03*
%TD*%
D24*
%TO.C,J1*%
X132200000Y-67580000D03*
X131400000Y-67580000D03*
D25*
X130250000Y-67580000D03*
X129250000Y-67580000D03*
X128750000Y-67580000D03*
X127750000Y-67580000D03*
D24*
X126600000Y-67580000D03*
X125800000Y-67580000D03*
X125800000Y-67580000D03*
X126600000Y-67580000D03*
D25*
X127250000Y-67580000D03*
X128250000Y-67580000D03*
X129750000Y-67580000D03*
X130750000Y-67580000D03*
D24*
X131400000Y-67580000D03*
X132200000Y-67580000D03*
D26*
X134110000Y-67005000D03*
X134110000Y-63075000D03*
X123890000Y-67005000D03*
X123890000Y-63075000D03*
%TD*%
D27*
%TO.C,C25*%
X148553705Y-79927982D03*
X148553705Y-78967982D03*
%TD*%
D28*
%TO.C,R2*%
X120283705Y-77897982D03*
X119593705Y-77897982D03*
%TD*%
D16*
%TO.C,C40*%
X141913705Y-86007982D03*
X141913705Y-86697982D03*
%TD*%
D15*
%TO.C,C38*%
X144773705Y-85955000D03*
X144773705Y-85265000D03*
%TD*%
D27*
%TO.C,C22*%
X119650000Y-92310000D03*
X119650000Y-91350000D03*
%TD*%
D15*
%TO.C,R33*%
X120193705Y-84652982D03*
X120193705Y-83962982D03*
%TD*%
D29*
%TO.C,J2*%
X151303705Y-81472982D03*
X151303705Y-84422982D03*
D30*
X149778705Y-82947982D03*
%TD*%
D28*
%TO.C,C44*%
X138013705Y-96327982D03*
X137323705Y-96327982D03*
%TD*%
D31*
%TO.C,R29*%
X128355000Y-77517982D03*
X129045000Y-77517982D03*
%TD*%
D32*
%TO.C,TOF2*%
X130778705Y-99547982D03*
X129528705Y-99547982D03*
X128278705Y-99547982D03*
X127028705Y-99547982D03*
D33*
X132628705Y-102897982D03*
X125178705Y-102897982D03*
%TD*%
D34*
%TO.C,LEDBLUE1*%
X133640000Y-77407982D03*
X134610000Y-77407982D03*
%TD*%
D31*
%TO.C,R10*%
X130718705Y-71587982D03*
X131408705Y-71587982D03*
%TD*%
D27*
%TO.C,C29*%
X148403705Y-82947982D03*
X148403705Y-81987982D03*
%TD*%
D28*
%TO.C,R4*%
X136105000Y-77430000D03*
X135415000Y-77430000D03*
%TD*%
D35*
%TO.C,TOF1*%
X142277455Y-72549184D03*
X142902455Y-73631716D03*
X143527455Y-74714248D03*
X144152455Y-75796780D03*
D36*
X144253641Y-69272037D03*
X147978641Y-75723927D03*
%TD*%
D37*
%TO.C,U1*%
X129303705Y-87697982D03*
X129303705Y-86897982D03*
X129303705Y-86097982D03*
X129303705Y-85297982D03*
X129303705Y-84497982D03*
X129303705Y-83697982D03*
X129303705Y-82897982D03*
X129303705Y-82097982D03*
X129303705Y-81297982D03*
X129303705Y-80497982D03*
X130103705Y-87697982D03*
X130103705Y-86897982D03*
X130103705Y-86097982D03*
X130103705Y-85297982D03*
X130103705Y-84497982D03*
X130103705Y-83697982D03*
X130103705Y-82897982D03*
X130103705Y-82097982D03*
X130103705Y-81297982D03*
X130103705Y-80497982D03*
X130903705Y-87697982D03*
X130903705Y-86897982D03*
X130903705Y-86097982D03*
X130903705Y-85297982D03*
X130903705Y-84497982D03*
X130903705Y-83697982D03*
X130903705Y-82897982D03*
X130903705Y-82097982D03*
X130903705Y-81297982D03*
X130903705Y-80497982D03*
X131703705Y-87697982D03*
X131703705Y-86897982D03*
X131703705Y-86097982D03*
X131703705Y-85297982D03*
X131703705Y-84497982D03*
X131703705Y-83697982D03*
X131703705Y-82897982D03*
X131703705Y-82097982D03*
X131703705Y-81297982D03*
X131703705Y-80497982D03*
X132503705Y-87697982D03*
X132503705Y-86897982D03*
X132503705Y-86097982D03*
X132503705Y-85297982D03*
X132503705Y-84497982D03*
X132503705Y-83697982D03*
X132503705Y-82897982D03*
X132503705Y-82097982D03*
X132503705Y-81297982D03*
X132503705Y-80497982D03*
X133303705Y-87697982D03*
X133303705Y-86897982D03*
X133303705Y-86097982D03*
X133303705Y-85297982D03*
X133303705Y-84497982D03*
X133303705Y-83697982D03*
X133303705Y-82897982D03*
X133303705Y-82097982D03*
X133303705Y-81297982D03*
X133303705Y-80497982D03*
X134103705Y-87697982D03*
X134103705Y-86897982D03*
X134103705Y-86097982D03*
X134103705Y-85297982D03*
X134103705Y-84497982D03*
X134103705Y-83697982D03*
X134103705Y-82897982D03*
X134103705Y-82097982D03*
X134103705Y-81297982D03*
X134103705Y-80497982D03*
X134903705Y-87697982D03*
X134903705Y-86897982D03*
X134903705Y-86097982D03*
X134903705Y-85297982D03*
X134903705Y-84497982D03*
X134903705Y-83697982D03*
X134903705Y-82897982D03*
X134903705Y-82097982D03*
X134903705Y-81297982D03*
X134903705Y-80497982D03*
X135703705Y-87697982D03*
X135703705Y-86897982D03*
X135703705Y-86097982D03*
X135703705Y-85297982D03*
X135703705Y-84497982D03*
X135703705Y-83697982D03*
X135703705Y-82897982D03*
X135703705Y-82097982D03*
X135703705Y-81297982D03*
X135703705Y-80497982D03*
X136503705Y-87697982D03*
X136503705Y-86897982D03*
X136503705Y-86097982D03*
X136503705Y-85297982D03*
X136503705Y-84497982D03*
X136503705Y-83697982D03*
X136503705Y-82897982D03*
X136503705Y-82097982D03*
X136503705Y-81297982D03*
X136503705Y-80497982D03*
%TD*%
D28*
%TO.C,R3*%
X136095000Y-78527982D03*
X135405000Y-78527982D03*
%TD*%
%TO.C,C1*%
X120293705Y-77167982D03*
X119603705Y-77167982D03*
%TD*%
%TO.C,C39*%
X140445000Y-87647982D03*
X139755000Y-87647982D03*
%TD*%
D38*
%TO.C,Y2*%
X143913705Y-85252982D03*
X142813705Y-85252982D03*
X142813705Y-86002982D03*
X143913705Y-86002982D03*
%TD*%
D39*
%TO.C,USBJUMP1*%
X132853705Y-74497982D03*
X132853705Y-71197982D03*
X133853705Y-74497982D03*
X133853705Y-71197982D03*
X134853705Y-74497982D03*
X134853705Y-71197982D03*
X135853705Y-74497982D03*
X135853705Y-71197982D03*
%TD*%
D16*
%TO.C,R31*%
X133583705Y-92782982D03*
X133583705Y-93472982D03*
%TD*%
D40*
%TO.C,D3*%
X124983705Y-72397982D03*
X122703705Y-72397982D03*
%TD*%
%TO.C,D2*%
X124943705Y-74297982D03*
X122663705Y-74297982D03*
%TD*%
D41*
%TO.C,LEDRED2*%
X119640000Y-93375000D03*
X119640000Y-94345000D03*
%TD*%
D42*
%TO.C,C43*%
X134273705Y-97100000D03*
X135703705Y-97100000D03*
%TD*%
D28*
%TO.C,C42*%
X133568705Y-95687982D03*
X132878705Y-95687982D03*
%TD*%
D43*
%TO.C,IC5*%
X126743705Y-95993982D03*
X127543705Y-95993982D03*
X128343705Y-95993982D03*
X129143705Y-95993982D03*
X129943705Y-95993982D03*
X130743705Y-95993982D03*
D44*
X130841705Y-94895982D03*
D43*
X130743705Y-93797982D03*
X129943705Y-93797982D03*
X129143705Y-93797982D03*
X128343705Y-93797982D03*
X127543705Y-93797982D03*
X126743705Y-93797982D03*
D44*
X126645705Y-94895982D03*
%TD*%
D45*
%TO.C,IC6*%
X135003705Y-93097982D03*
X135003705Y-93597982D03*
X135003705Y-94097982D03*
X135003705Y-94597982D03*
D46*
X135703705Y-95297982D03*
X136203705Y-95297982D03*
X136703705Y-95297982D03*
X137203705Y-95297982D03*
D45*
X137903705Y-94597982D03*
X137903705Y-94097982D03*
X137903705Y-93597982D03*
X137903705Y-93097982D03*
D46*
X137203705Y-92397982D03*
X136703705Y-92397982D03*
X136203705Y-92397982D03*
X135703705Y-92397982D03*
D47*
X136453705Y-93847982D03*
%TD*%
D31*
%TO.C,R9*%
X130718705Y-70287982D03*
X131408705Y-70287982D03*
%TD*%
D46*
%TO.C,IC3*%
X123025000Y-92940000D03*
X122075000Y-92940000D03*
X121125000Y-92940000D03*
X121125000Y-95840000D03*
X122075000Y-95840000D03*
X123025000Y-95840000D03*
D48*
X122075000Y-94390000D03*
%TD*%
D31*
%TO.C,R17*%
X129758705Y-77517982D03*
X130448705Y-77517982D03*
%TD*%
D27*
%TO.C,C26*%
X147503705Y-79927982D03*
X147503705Y-78967982D03*
%TD*%
D41*
%TO.C,L2*%
X145600000Y-79965000D03*
X145600000Y-80935000D03*
%TD*%
D49*
%TO.C,C21*%
X127103705Y-73687982D03*
X127103705Y-74647982D03*
%TD*%
D16*
%TO.C,R30*%
X133573705Y-94212982D03*
X133573705Y-94902982D03*
%TD*%
D31*
%TO.C,R1*%
X119593705Y-78627982D03*
X120283705Y-78627982D03*
%TD*%
D50*
%TO.C,J5*%
X140607965Y-95942917D03*
X141107965Y-95076891D03*
X141607965Y-94210866D03*
X142107965Y-93344841D03*
X142607965Y-92478815D03*
X143107965Y-91612790D03*
X143607965Y-90746764D03*
X144107965Y-89880739D03*
X144607965Y-89014713D03*
X145107965Y-88148688D03*
X145607965Y-87282663D03*
X146107965Y-86416637D03*
D51*
X143313813Y-99006250D03*
X150113813Y-87228304D03*
%TD*%
D52*
%TO.C,S2*%
X137916205Y-76422982D03*
X137916205Y-73272982D03*
X139616205Y-76422982D03*
X139616205Y-73272982D03*
D53*
X138766205Y-76572982D03*
X138766205Y-73122982D03*
%TD*%
D54*
%TO.C,IC4*%
X144103705Y-82747982D03*
X144103705Y-82247982D03*
X144103705Y-81747982D03*
X144103705Y-81247982D03*
X144103705Y-80747982D03*
X144103705Y-80247982D03*
X144103705Y-79747982D03*
X144103705Y-79247982D03*
D55*
X143353705Y-78497982D03*
X142853705Y-78497982D03*
X142353705Y-78497982D03*
X141853705Y-78497982D03*
X141353705Y-78497982D03*
X140853705Y-78497982D03*
X140353705Y-78497982D03*
X139853705Y-78497982D03*
D54*
X139103705Y-79247982D03*
X139103705Y-79747982D03*
X139103705Y-80247982D03*
X139103705Y-80747982D03*
X139103705Y-81247982D03*
X139103705Y-81747982D03*
X139103705Y-82247982D03*
X139103705Y-82747982D03*
D55*
X139853705Y-83497982D03*
X140353705Y-83497982D03*
X140853705Y-83497982D03*
X141353705Y-83497982D03*
X141853705Y-83497982D03*
X142353705Y-83497982D03*
X142853705Y-83497982D03*
X143353705Y-83497982D03*
D56*
X141603705Y-80997982D03*
%TD*%
D57*
%TO.C,D1*%
X129510000Y-71580000D03*
X129510000Y-70930000D03*
X129510000Y-70280000D03*
X127610000Y-70280000D03*
X127610000Y-70930000D03*
X127610000Y-71580000D03*
%TD*%
D58*
%TO.C,LED1*%
X140453705Y-84897982D03*
X140453705Y-86597982D03*
X138753705Y-86597982D03*
X138753705Y-84897982D03*
%TD*%
D16*
%TO.C,R20*%
X141553705Y-76702982D03*
X141553705Y-77392982D03*
%TD*%
D59*
%TO.C,LIDAR1*%
X115929955Y-93246780D03*
X115304955Y-92164248D03*
X114679955Y-91081716D03*
X114054955Y-89999184D03*
D60*
X113953769Y-96523927D03*
X110228769Y-90072037D03*
%TD*%
D31*
%TO.C,C5*%
X126145000Y-91747982D03*
X126835000Y-91747982D03*
%TD*%
D61*
%TO.C,IC7*%
X126153705Y-77947982D03*
X124883705Y-77947982D03*
X123613705Y-77947982D03*
X122343705Y-77947982D03*
X122343705Y-85747982D03*
X123613705Y-85747982D03*
X124883705Y-85747982D03*
X126153705Y-85747982D03*
D62*
X124248705Y-81847982D03*
%TD*%
D15*
%TO.C,C9*%
X132963705Y-90255000D03*
X132963705Y-89565000D03*
%TD*%
D49*
%TO.C,C32*%
X145483705Y-82947982D03*
X145483705Y-83907982D03*
%TD*%
D28*
%TO.C,R6*%
X126845000Y-91047982D03*
X126155000Y-91047982D03*
%TD*%
D15*
%TO.C,R18*%
X119640000Y-95845000D03*
X119640000Y-95155000D03*
%TD*%
D46*
%TO.C,IC2*%
X130403705Y-73497982D03*
X129453705Y-73497982D03*
X128503705Y-73497982D03*
X128503705Y-76397982D03*
X129453705Y-76397982D03*
X130403705Y-76397982D03*
D48*
X129453705Y-74947982D03*
%TD*%
D34*
%TO.C,LEDGREEN1*%
X133640000Y-78520000D03*
X134610000Y-78520000D03*
%TD*%
D20*
%TO.C,L3*%
X147438705Y-82947982D03*
X146468705Y-82947982D03*
%TD*%
D31*
%TO.C,R8*%
X127198705Y-69020000D03*
X127888705Y-69020000D03*
%TD*%
D28*
%TO.C,R7*%
X130278705Y-69020000D03*
X129588705Y-69020000D03*
%TD*%
D27*
%TO.C,C23*%
X127103705Y-76507982D03*
X127103705Y-75547982D03*
%TD*%
D15*
%TO.C,R5*%
X132203705Y-90245000D03*
X132203705Y-89555000D03*
%TD*%
%TO.C,C41*%
X124593705Y-96192982D03*
X124593705Y-95502982D03*
%TD*%
D27*
%TO.C,C24*%
X123310000Y-99100000D03*
X123310000Y-98140000D03*
%TD*%
D31*
%TO.C,C47*%
X126215000Y-87140000D03*
X126905000Y-87140000D03*
%TD*%
D15*
%TO.C,R32*%
X132863705Y-93472982D03*
X132863705Y-92782982D03*
%TD*%
D16*
%TO.C,R25*%
X124603705Y-94002982D03*
X124603705Y-94692982D03*
%TD*%
D31*
%TO.C,C30*%
X145555000Y-81750000D03*
X146245000Y-81750000D03*
%TD*%
D15*
%TO.C,R28*%
X132863705Y-94922982D03*
X132863705Y-94232982D03*
%TD*%
D31*
%TO.C,R22*%
X143838705Y-84547982D03*
X144528705Y-84547982D03*
%TD*%
D28*
%TO.C,C27*%
X139628705Y-77187982D03*
X138938705Y-77187982D03*
%TD*%
M02*
