%TF.GenerationSoftware,KiCad,Pcbnew,9.0.3*%
%TF.CreationDate,2025-09-25T19:14:03+02:00*%
%TF.ProjectId,PCB_PAPI,5043425f-5041-4504-992e-6b696361645f,rev?*%
%TF.SameCoordinates,Original*%
%TF.FileFunction,Paste,Bot*%
%TF.FilePolarity,Positive*%
%FSLAX46Y46*%
G04 Gerber Fmt 4.6, Leading zero omitted, Abs format (unit mm)*
G04 Created by KiCad (PCBNEW 9.0.3) date 2025-09-25 19:14:03*
%MOMM*%
%LPD*%
G01*
G04 APERTURE LIST*
G04 Aperture macros list*
%AMRoundRect*
0 Rectangle with rounded corners*
0 $1 Rounding radius*
0 $2 $3 $4 $5 $6 $7 $8 $9 X,Y pos of 4 corners*
0 Add a 4 corners polygon primitive as box body*
4,1,4,$2,$3,$4,$5,$6,$7,$8,$9,$2,$3,0*
0 Add four circle primitives for the rounded corners*
1,1,$1+$1,$2,$3*
1,1,$1+$1,$4,$5*
1,1,$1+$1,$6,$7*
1,1,$1+$1,$8,$9*
0 Add four rect primitives between the rounded corners*
20,1,$1+$1,$2,$3,$4,$5,0*
20,1,$1+$1,$4,$5,$6,$7,0*
20,1,$1+$1,$6,$7,$8,$9,0*
20,1,$1+$1,$8,$9,$2,$3,0*%
%AMRotRect*
0 Rectangle, with rotation*
0 The origin of the aperture is its center*
0 $1 length*
0 $2 width*
0 $3 Rotation angle, in degrees counterclockwise*
0 Add horizontal line*
21,1,$1,$2,0,0,$3*%
G04 Aperture macros list end*
%ADD10RoundRect,0.140000X0.219203X0.021213X0.021213X0.219203X-0.219203X-0.021213X-0.021213X-0.219203X0*%
%ADD11RoundRect,0.250000X0.250000X0.475000X-0.250000X0.475000X-0.250000X-0.475000X0.250000X-0.475000X0*%
%ADD12RoundRect,0.250000X0.286362X-0.454006X0.536362X-0.020994X-0.286362X0.454006X-0.536362X0.020994X0*%
%ADD13RoundRect,0.079500X0.079500X0.100500X-0.079500X0.100500X-0.079500X-0.100500X0.079500X-0.100500X0*%
%ADD14RoundRect,0.250000X0.159099X-0.512652X0.512652X-0.159099X-0.159099X0.512652X-0.512652X0.159099X0*%
%ADD15RoundRect,0.140000X0.140000X0.170000X-0.140000X0.170000X-0.140000X-0.170000X0.140000X-0.170000X0*%
%ADD16RoundRect,0.079500X0.100500X-0.079500X0.100500X0.079500X-0.100500X0.079500X-0.100500X-0.079500X0*%
%ADD17RoundRect,0.150000X0.336362X-0.367404X0.486362X-0.107596X-0.336362X0.367404X-0.486362X0.107596X0*%
%ADD18RoundRect,0.225000X0.428766X-0.507356X0.653766X-0.117644X-0.428766X0.507356X-0.653766X0.117644X0*%
%ADD19RoundRect,0.079500X-0.100500X0.079500X-0.100500X-0.079500X0.100500X-0.079500X0.100500X0.079500X0*%
%ADD20RoundRect,0.150000X-0.150000X-0.700000X0.150000X-0.700000X0.150000X0.700000X-0.150000X0.700000X0*%
%ADD21RoundRect,0.250000X-0.250000X-1.100000X0.250000X-1.100000X0.250000X1.100000X-0.250000X1.100000X0*%
%ADD22RoundRect,0.250000X-0.475000X0.250000X-0.475000X-0.250000X0.475000X-0.250000X0.475000X0.250000X0*%
%ADD23R,0.600000X1.250000*%
%ADD24RoundRect,0.140000X0.170000X-0.140000X0.170000X0.140000X-0.170000X0.140000X-0.170000X-0.140000X0*%
%ADD25RoundRect,0.079500X-0.079500X-0.100500X0.079500X-0.100500X0.079500X0.100500X-0.079500X0.100500X0*%
%ADD26RoundRect,0.079500X-0.127279X-0.014849X-0.014849X-0.127279X0.127279X0.014849X0.014849X0.127279X0*%
%ADD27RoundRect,0.150000X-0.486362X-0.107596X-0.336362X-0.367404X0.486362X0.107596X0.336362X0.367404X0*%
%ADD28RoundRect,0.225000X-0.653766X-0.117644X-0.428766X-0.507356X0.653766X0.117644X0.428766X0.507356X0*%
%ADD29RotRect,0.600000X1.700000X240.000000*%
%ADD30RotRect,1.000000X2.700000X240.000000*%
%ADD31RotRect,0.600000X1.400000X240.000000*%
%ADD32RoundRect,0.250000X0.475000X-0.250000X0.475000X0.250000X-0.475000X0.250000X-0.475000X-0.250000X0*%
%ADD33RotRect,0.800000X1.400000X315.000000*%
%ADD34RoundRect,0.079500X-0.014849X0.127279X-0.127279X0.014849X0.014849X-0.127279X0.127279X-0.014849X0*%
%ADD35RotRect,0.800000X1.400000X45.000000*%
%ADD36RoundRect,0.079500X0.127279X0.014849X0.014849X0.127279X-0.127279X-0.014849X-0.014849X-0.127279X0*%
%ADD37RoundRect,0.140000X-0.140000X-0.170000X0.140000X-0.170000X0.140000X0.170000X-0.140000X0.170000X0*%
%ADD38RoundRect,0.079500X-0.119099X-0.047286X0.018599X-0.126786X0.119099X0.047286X-0.018599X0.126786X0*%
%ADD39RoundRect,0.079500X0.047286X-0.119099X0.126786X0.018599X-0.047286X0.119099X-0.126786X-0.018599X0*%
%ADD40R,3.200000X1.750000*%
%ADD41RoundRect,0.150000X0.150000X0.475000X-0.150000X0.475000X-0.150000X-0.475000X0.150000X-0.475000X0*%
%ADD42RoundRect,0.225000X0.225000X0.625000X-0.225000X0.625000X-0.225000X-0.625000X0.225000X-0.625000X0*%
%ADD43RoundRect,0.140000X-0.170000X0.140000X-0.170000X-0.140000X0.170000X-0.140000X0.170000X0.140000X0*%
G04 APERTURE END LIST*
D10*
%TO.C,C7*%
X132423116Y-82627393D03*
X131744294Y-81948571D03*
%TD*%
D11*
%TO.C,C50*%
X113150000Y-85390000D03*
X111250000Y-85390000D03*
%TD*%
D12*
%TO.C,C54*%
X134975000Y-70772724D03*
X135925000Y-69127276D03*
%TD*%
D13*
%TO.C,R36*%
X120165000Y-103810000D03*
X119475000Y-103810000D03*
%TD*%
D14*
%TO.C,C49*%
X126346498Y-97113502D03*
X127690000Y-95770000D03*
%TD*%
D15*
%TO.C,C13*%
X134843705Y-89297982D03*
X133883705Y-89297982D03*
%TD*%
D16*
%TO.C,C17*%
X127553705Y-83012982D03*
X127553705Y-82322982D03*
%TD*%
D17*
%TO.C,ESC3*%
X112703702Y-77793589D03*
X113203702Y-76927564D03*
X113703702Y-76061538D03*
X114203701Y-75195514D03*
X114703701Y-74329487D03*
X115203702Y-73463462D03*
X115703702Y-72597437D03*
X116203702Y-71731411D03*
D18*
X109272373Y-77486826D03*
X114222373Y-68913175D03*
%TD*%
D19*
%TO.C,R13*%
X127553705Y-80852982D03*
X127553705Y-81542982D03*
%TD*%
D20*
%TO.C,SWD1*%
X127228705Y-66447982D03*
X128478705Y-66447982D03*
X129728705Y-66447982D03*
X130978705Y-66447982D03*
D21*
X125378705Y-63247982D03*
X132828705Y-63247982D03*
%TD*%
D19*
%TO.C,R21*%
X145493705Y-79957982D03*
X145493705Y-80647982D03*
%TD*%
D22*
%TO.C,C20*%
X122453705Y-78550000D03*
X122453705Y-80450000D03*
%TD*%
D23*
%TO.C,IC1*%
X126303705Y-85847982D03*
X125353705Y-85847982D03*
X124403705Y-85847982D03*
X124403705Y-83347982D03*
X125353705Y-83347982D03*
X126303705Y-83347982D03*
%TD*%
D24*
%TO.C,C36*%
X146453705Y-80747982D03*
X146453705Y-79787982D03*
%TD*%
D25*
%TO.C,R11*%
X124488705Y-87147982D03*
X125178705Y-87147982D03*
%TD*%
D15*
%TO.C,C14*%
X133383705Y-85337982D03*
X132423705Y-85337982D03*
%TD*%
D26*
%TO.C,R24*%
X119646048Y-61906048D03*
X120133952Y-62393952D03*
%TD*%
D11*
%TO.C,C51*%
X113150000Y-83420000D03*
X111250000Y-83420000D03*
%TD*%
D27*
%TO.C,ESC1*%
X141199407Y-71006411D03*
X141699407Y-71872436D03*
X142199407Y-72738462D03*
X142699407Y-73604487D03*
X143199407Y-74470513D03*
X143699407Y-75336538D03*
X144199407Y-76202564D03*
X144699407Y-77068589D03*
D28*
X143180737Y-68188174D03*
X148130737Y-76761826D03*
%TD*%
D13*
%TO.C,C4*%
X133228705Y-84437982D03*
X132538705Y-84437982D03*
%TD*%
D29*
%TO.C,J4*%
X143472424Y-90804216D03*
X142847424Y-91886748D03*
D30*
X144693705Y-95088895D03*
X147168705Y-90802069D03*
%TD*%
D31*
%TO.C,Q1*%
X147225052Y-88053430D03*
X148175052Y-86407982D03*
X149691910Y-88380706D03*
%TD*%
D32*
%TO.C,C18*%
X124300000Y-77050000D03*
X124300000Y-75150000D03*
%TD*%
D14*
%TO.C,C48*%
X124958249Y-95721751D03*
X126301751Y-94378249D03*
%TD*%
D33*
%TO.C,LED2*%
X121004969Y-64874175D03*
X117328014Y-68551130D03*
X116302709Y-67525825D03*
X119979664Y-63848870D03*
%TD*%
D14*
%TO.C,C46*%
X123568249Y-94331751D03*
X124911751Y-92988249D03*
%TD*%
D15*
%TO.C,C2*%
X136663705Y-89297982D03*
X135703705Y-89297982D03*
%TD*%
D16*
%TO.C,R37*%
X114890000Y-100405000D03*
X114890000Y-99715000D03*
%TD*%
D13*
%TO.C,C6*%
X136503705Y-88387982D03*
X135813705Y-88387982D03*
%TD*%
D32*
%TO.C,C15*%
X122453705Y-83847982D03*
X122453705Y-81947982D03*
%TD*%
D11*
%TO.C,C52*%
X113150000Y-81430000D03*
X111250000Y-81430000D03*
%TD*%
D34*
%TO.C,R35*%
X114423952Y-66326048D03*
X113936048Y-66813952D03*
%TD*%
D35*
%TO.C,LED3*%
X117440000Y-97670000D03*
X121116955Y-101346955D03*
X120091650Y-102372260D03*
X116414695Y-98695305D03*
%TD*%
D16*
%TO.C,R27*%
X130773705Y-92732982D03*
X130773705Y-92042982D03*
%TD*%
D12*
%TO.C,C55*%
X133275000Y-69772724D03*
X134225000Y-68127276D03*
%TD*%
D13*
%TO.C,C11*%
X133238705Y-83677982D03*
X132548705Y-83677982D03*
%TD*%
D36*
%TO.C,R38*%
X122413952Y-97173952D03*
X121926048Y-96686048D03*
%TD*%
D16*
%TO.C,C37*%
X138343705Y-80802982D03*
X138343705Y-80112982D03*
%TD*%
D37*
%TO.C,C33*%
X144223705Y-83997982D03*
X145183705Y-83997982D03*
%TD*%
D10*
%TO.C,C10*%
X133083705Y-81977982D03*
X132404883Y-81299160D03*
%TD*%
D32*
%TO.C,C19*%
X126300000Y-77050000D03*
X126300000Y-75150000D03*
%TD*%
D12*
%TO.C,C53*%
X136675000Y-71745448D03*
X137625000Y-70100000D03*
%TD*%
D37*
%TO.C,C8*%
X133843705Y-82827982D03*
X134803705Y-82827982D03*
%TD*%
D13*
%TO.C,C12*%
X134813705Y-88377982D03*
X134123705Y-88377982D03*
%TD*%
D19*
%TO.C,C34*%
X141463705Y-84442982D03*
X141463705Y-85132982D03*
%TD*%
D38*
%TO.C,R34*%
X142479926Y-96114142D03*
X143077484Y-96459142D03*
%TD*%
D16*
%TO.C,R26*%
X129943705Y-92732982D03*
X129943705Y-92042982D03*
%TD*%
D36*
%TO.C,R23*%
X122953952Y-65133952D03*
X122466048Y-64646048D03*
%TD*%
D39*
%TO.C,R16*%
X147117365Y-85480540D03*
X147462365Y-84882982D03*
%TD*%
D13*
%TO.C,C3*%
X131638705Y-86917982D03*
X130948705Y-86917982D03*
%TD*%
D19*
%TO.C,C35*%
X143363705Y-84442982D03*
X143363705Y-85132982D03*
%TD*%
D25*
%TO.C,R12*%
X126878705Y-87157982D03*
X127568705Y-87157982D03*
%TD*%
D13*
%TO.C,C31*%
X144158705Y-80757982D03*
X143468705Y-80757982D03*
%TD*%
D40*
%TO.C,L1*%
X125353705Y-81147982D03*
X125353705Y-78947982D03*
%TD*%
D41*
%TO.C,ESC2*%
X132500000Y-99675000D03*
X131500000Y-99675000D03*
X130500000Y-99675000D03*
X129500000Y-99675000D03*
X128500000Y-99675000D03*
X127500000Y-99675000D03*
X126500000Y-99675000D03*
X125500000Y-99675000D03*
D42*
X133950000Y-102800000D03*
X124050000Y-102800000D03*
%TD*%
D43*
%TO.C,C16*%
X123100000Y-86320000D03*
X123100000Y-87280000D03*
%TD*%
D19*
%TO.C,R14*%
X127543705Y-85672982D03*
X127543705Y-86362982D03*
%TD*%
D39*
%TO.C,R15*%
X146361205Y-86746761D03*
X146706205Y-86149203D03*
%TD*%
M02*
